<?xml version="1.0" encoding="UTF-8" standalone="no"?>
<!DOCTYPE svg PUBLIC "-//W3C//DTD SVG 1.1//EN"
"http://www.w3.org/Graphics/SVG/1.1/DTD/svg11.dtd">
<svg viewBox="0 0 909 1286" version="1.1" xmlns="http://www.w3.org/2000/svg" xmlns:xlink="http://www.w3.org/1999/xlink">
<defs>
<clipPath id="c0_24"><path d="M-.2 1286.6v-74.9h910v74.9Z"/></clipPath>
<clipPath id="c1_24"><path d="M803.1 748.3V713.8h34.1v34.5Z"/></clipPath>
<clipPath id="c2_24"><path d="M685.6 1170.8V1038.6H841.7v132.2Z"/></clipPath>
<style type="text/css"><![CDATA[
.g0_24{
fill: none;
stroke: #000;
stroke-width: 0.918;
stroke-linecap: square;
stroke-miterlimit: 10;
}
.g1_24{
fill: none;
stroke: #000;
stroke-width: 0.92;
stroke-linecap: square;
stroke-miterlimit: 10;
}
.g2_24{
fill: none;
stroke: #000;
stroke-width: 0.917;
stroke-linecap: square;
stroke-miterlimit: 10;
}
.g3_24{
fill: none;
stroke: #000;
stroke-width: 0.765;
stroke-linecap: square;
stroke-miterlimit: 10;
}
.g4_24{
fill: none;
stroke: #000;
stroke-width: 0.763;
stroke-linecap: square;
stroke-miterlimit: 10;
}
.g5_24{
fill: none;
stroke: #000;
stroke-width: 0.909;
stroke-linecap: square;
stroke-miterlimit: 10;
}
.g6_24{
fill: none;
stroke: #000;
stroke-width: 0.907;
stroke-linecap: square;
stroke-miterlimit: 10;
}
.g7_24{
fill: #000;
}
.g8_24{
fill: none;
stroke: #000;
stroke-width: 0.761;
stroke-linecap: square;
stroke-miterlimit: 10;
}
]]></style>
</defs>
<image clip-path="url(#c0_24)" preserveAspectRatio="none" x="-4" y="1212" width="952" height="131" xlink:href="img/1.jpg"/>
<image preserveAspectRatio="none" x="736" y="536" width="99" height="102" xlink:href="img/2.jpg"/>
<path d="M470.5 73.9H494" class="g0_24"/>
<path d="M110.6 101.4h23.5" class="g1_24"/>
<path d="M451.8 101.2H477" class="g2_24"/>
<path d="M585.1 101.2h24.4" class="g0_24"/>
<path d="M133.5 274.9h23.7m82.8 0h23.8" class="g3_24"/>
<path d="M344 274.8h25.4m25 .1h23.7" class="g4_24"/>
<path d="M247.5 301.2h23.8" class="g3_24"/>
<path d="M140.3 327.5h25.5" class="g4_24"/>
<path d="M215.3 327.5H244" class="g3_24"/>
<path d="M293.2 327.5h25.4" class="g4_24"/>
<path d="M369.1 327.5h23.8M224.2 404.8h23.3" class="g3_24"/>
<path d="M273.2 404.7H297" class="g5_24"/>
<path d="M322.1 404.9h25.3" class="g6_24"/>
<path d="M372.6 404.7h24.1" class="g5_24"/>
<path d="M462.2 404.7h24.1" class="g6_24"/>
<path d="M473.8 533.9H497" class="g3_24"/>
<path d="M522.7 533.9H547m51.4 0h25.2" class="g4_24"/>
<path d="M675.5 533.9h23.7" class="g3_24"/>
<path d="M168.9 584.2h23.7m109.2 0h23.7m109.2 0h23.7" class="g4_24"/>
<path d="M568.7 584.2h23.8" class="g3_24"/>
<path d="M110.2 699.6h36.7v-.9H110.2v.9Z" class="g7_24"/>
<path d="M543.2 682.7h.8V682h-.8v.7Z" class="g7_24"/>
<path d="M543.2 682.7h.8V682h-.8v.7Z" class="g7_24"/>
<path d="M544 682.7h89.6V682H544v.7Z" class="g7_24"/>
<path d="M633.6 682.7h.7V682h-.7v.7Z" class="g7_24"/>
<path d="M634.3 682.7h73V682h-73v.7Z" class="g7_24"/>
<path d="M707.3 682.7h.7V682h-.7v.7Z" class="g7_24"/>
<path d="M708 682.7h74.1V682H708v.7Z" class="g7_24"/>
<path d="M782.1 682.7h.7V682h-.7v.7Z" class="g7_24"/>
<path d="M782.8 682.7H858V682H782.8v.7Z" class="g7_24"/>
<path d="M858 682.7h.5V682H858v.7Z" class="g7_24"/>
<path d="M858 682.7h.5V682H858v.7Z" class="g7_24"/>
<path d="M543.2 706.6h.8V682.7h-.8v23.9Z" class="g7_24"/>
<path d="M633.6 706.6h.7V682.7h-.7v23.9Z" class="g7_24"/>
<path d="M707.3 706.6h.7V682.7h-.7v23.9Z" class="g7_24"/>
<path d="M782.1 706.6h.7V682.7h-.7v23.9Z" class="g7_24"/>
<path d="M858 706.6h.5V682.7H858v23.9Z" class="g7_24"/>
<image clip-path="url(#c1_24)" preserveAspectRatio="none" x="803" y="714" width="34" height="34" xlink:href="img/3.jpg"/>
<path d="M543.2 707.3h.8v-.7h-.8v.7Z" class="g7_24"/>
<path d="M544 707.3h89.6v-.7H544v.7Z" class="g7_24"/>
<path d="M633.6 707.3h.7v-.7h-.7v.7Z" class="g7_24"/>
<path d="M634.3 707.3h73v-.7h-73v.7Z" class="g7_24"/>
<path d="M707.3 707.3h.7v-.7h-.7v.7Z" class="g7_24"/>
<path d="M708 707.3h74.1v-.7H708v.7Z" class="g7_24"/>
<path d="M782.1 707.3h.7v-.7h-.7v.7Z" class="g7_24"/>
<path d="M782.8 707.3H858v-.7H782.8v.7Z" class="g7_24"/>
<path d="M858 707.3h.5v-.7H858v.7Z" class="g7_24"/>
<path d="M543.2 755.1h.8V707.3h-.8v47.8Z" class="g7_24"/>
<path d="M543.2 755.9h.8v-.8h-.8v.8Z" class="g7_24"/>
<path d="M543.2 755.9h.8v-.8h-.8v.8Z" class="g7_24"/>
<path d="M544 755.9h89.6v-.8H544v.8Z" class="g7_24"/>
<path d="M633.6 755.1h.7V707.3h-.7v47.8Z" class="g7_24"/>
<path d="M633.6 755.9h.7v-.8h-.7v.8Z" class="g7_24"/>
<path d="M634.3 755.9h73v-.8h-73v.8Z" class="g7_24"/>
<path d="M707.3 755.1h.7V707.3h-.7v47.8Z" class="g7_24"/>
<path d="M707.3 755.9h.7v-.8h-.7v.8Z" class="g7_24"/>
<path d="M708 755.9h74.1v-.8H708v.8Z" class="g7_24"/>
<path d="M782.1 755.1h.7V707.3h-.7v47.8Z" class="g7_24"/>
<path d="M782.1 755.9h.7v-.8h-.7v.8Z" class="g7_24"/>
<path d="M782.8 755.9H858v-.8H782.8v.8Z" class="g7_24"/>
<path d="M858 755.1h.5V707.3H858v47.8Z" class="g7_24"/>
<path d="M858 755.9h.5v-.8H858v.8Z" class="g7_24"/>
<path d="M858 755.9h.5v-.8H858v.8Z" class="g7_24"/>
<path d="M110.4 890.5H147v-1H110.4v1Z" class="g7_24"/>
<path d="M282.9 1066.8h22.3m25 .2h23.2" class="g4_24"/>
<path d="M379.1 1066.8h24.2" class="g3_24"/>
<path d="M428.1 1066.8H453" class="g4_24"/>
<path d="M136.1 1094.7h22.2" class="g8_24"/>
<path d="M207.7 1094.8H231m50.1 -.1h24.1" class="g3_24"/>
<path d="M355.5 1094.7h25" class="g4_24"/>
<image preserveAspectRatio="none" x="44" y="94" width="56" height="56" xlink:href="img/4.jpg"/>
<image preserveAspectRatio="none" x="718" y="63" width="135" height="146" xlink:href="img/5.jpg"/>
<image preserveAspectRatio="none" x="629" y="258" width="212" height="84" xlink:href="img/6.jpg"/>
<image preserveAspectRatio="none" x="44" y="268" width="56" height="56" xlink:href="img/7.jpg"/>
<image preserveAspectRatio="none" x="44" y="425" width="56" height="56" xlink:href="img/8.jpg"/>
<image preserveAspectRatio="none" x="44" y="552" width="56" height="57" xlink:href="img/9.jpg"/>
<image preserveAspectRatio="none" x="44" y="699" width="56" height="57" xlink:href="img/10.jpg"/>
<image preserveAspectRatio="none" x="44" y="890" width="56" height="56" xlink:href="img/11.jpg"/>
<image clip-path="url(#c2_24)" preserveAspectRatio="none" x="686" y="1039" width="155" height="131" xlink:href="img/12.jpg"/>
<image preserveAspectRatio="none" x="44" y="1058" width="56" height="57" xlink:href="img/13.jpg"/>
</svg>