<?xml version="1.0" encoding="UTF-8" standalone="no"?>
<!DOCTYPE svg PUBLIC "-//W3C//DTD SVG 1.1//EN"
"http://www.w3.org/Graphics/SVG/1.1/DTD/svg11.dtd">
<svg viewBox="0 0 909 1286" version="1.1" xmlns="http://www.w3.org/2000/svg" xmlns:xlink="http://www.w3.org/1999/xlink">
<defs>
<clipPath id="c0_17"><path d="M-.2 1286.6v-74.9h910v74.9Z"/></clipPath>
<clipPath id="c1_17"><path d="M748 982.1V879.6H853.1V982.1Z"/></clipPath>
<style type="text/css"><![CDATA[
.g0_17{
fill: none;
stroke: #000;
stroke-width: 1.099;
stroke-linecap: square;
stroke-miterlimit: 10;
}
.g1_17{
fill: none;
stroke: #000;
stroke-width: 0.765;
stroke-linecap: square;
stroke-miterlimit: 10;
}
.g2_17{
fill: none;
stroke: #000;
stroke-width: 1.096;
stroke-linecap: round;
stroke-linejoin: round;
}
.g3_17{
fill: none;
stroke: #000;
stroke-width: 1.096;
stroke-linejoin: round;
}
.g4_17{
fill: none;
stroke: #000;
stroke-width: 0.73;
stroke-linejoin: round;
}
.g5_17{
fill: none;
stroke: #000;
stroke-width: 0.857;
stroke-linecap: round;
stroke-linejoin: round;
}
.g6_17{
fill: none;
stroke: #000;
stroke-width: 1.286;
stroke-linecap: round;
stroke-linejoin: round;
}
.g7_17{
fill: none;
stroke: #000;
stroke-width: 1.286;
stroke-linejoin: round;
}
.g8_17{
fill: none;
stroke: #000;
stroke-width: 0.93;
stroke-linecap: round;
stroke-linejoin: round;
}
.g9_17{
fill: none;
stroke: #000;
stroke-width: 0.801;
stroke-linecap: round;
stroke-linejoin: round;
}
.ga_17{
fill: none;
stroke: #000;
stroke-width: 0.801;
stroke-linejoin: round;
}
]]></style>
</defs>
<image clip-path="url(#c0_17)" preserveAspectRatio="none" x="-4" y="1212" width="952" height="131" xlink:href="img/1.jpg"/>
<path d="M260.3 99H228.2m86.2 0H283.3M636.5 230.6h-30M140.3 263.8H109.1m85.1 0H163m1.1 33.4H132m85.1 0H187m84.1 0H240m61.4 11l2.2 -1.3m0 0l5.9 11.9m0 0l3.6 -21.4m0 0h13.8m75.5 -.2h-31m-224 41.6l2.2 -1.3m0 0l5.9 11.9m0 0L159.1 328m0 0h13.8m85.4 10.8l2.2 -1.3m0 0l5.9 11.9m0 0L270 328m0 0h13.8m103.8 10.8l2.2 -1.3m0 0l5.8 11.9m0 0L399.3 328m0 0H413m86.6 10.8l2.2 -1.3m0 0l5.9 11.9m0 0L511.3 328m0 0h13.8M140.3 428.5H109.1m60.8 57.2h-30m84.1 0H192.9m83.9 0h-30m84.1 0H299.8m112.9 0H382.6m84.2 0h-31m83.8 0H489.5m84.2 0H542.5M168.1 519h-30m84.1 0H191m84 0H244.9m84.2 0H297.9M412 519H381.9m84.1 0H435.1m83.7 0h-30m84.1 0H541.8m-11.4 83.8H501.2m83.3 0H553.3m-414 33.4H109.1m82.1 0H161.9" class="g0_17"/>
<path d="M419.3 877.6h23.2" class="g1_17"/>
<path d="M436.5 1048.7H404.4m126.7 0h-30m92.2 0H563.2m-337 28.9h-30m84.1 0H249.2m233.5 0h-31" class="g0_17"/>
<path d="M760.7 90.7L656 161.3H838.9L760.7 90.7Z" class="g2_17"/>
<path d="M760.7 90.7l17.1 70.6M743 102.7l-14.1 58.6" class="g3_17"/>
<path d="M814.7 153.7v0h1.8l4.7 1.1l3.3 .8l4 1.4l4.7 1.8l5.4 2.5M777.8 161v0l1.1 -1.1l3.2 -2.2l2.2 -1l2.5 -1.1l2.9 -1.1l3.3 -.8m-51.5 0v0l-1.1 .4l-3.2 1.1l-2.2 1.1l-2.2 1.1l-2.1 1.8l-1.8 1.8m35.8 -7.3v0l1.4 .4l3 1.1l2.2 1.1l2.1 1.1l2.2 1.8l2.2 1.8m-48.6 0v0l-1.4 -1.1l-3.7 -2.2l-2.8 -1L718 155.6l-3.7 -1.1l-3.9 -.8M656.7 161v0l2.2 -1.1l5.8 -2.5l4 -1.1l4 -1.5l4 -.7l4.3 -.4" class="g4_17"/>
<path d="M751.6 254.2l-3.9 3.9l-3.8 -3.9l3.8 -3.9l3.9 3.9ZM716 290.4l-3.9 3.9l-4.2 -3.9l3.8 -3.8l4.3 3.8Zm54.4 47.5h-5.5v-5.6h5.5v5.6Z" class="g5_17"/>
<path d="M660.7 337.9H836.9L747.7 250.3l-87 87.6Z" class="g6_17"/>
<path d="M764.9 267.2v70.7L712.1 286.6" class="g7_17"/>
<path d="M763.2 456.9l-20.8 55.6h99.3L763.2 456.9ZM748.9 419.3l-24.8 93.2H783L748.9 419.3Z" class="g8_17"/>
<image preserveAspectRatio="none" x="44" y="623" width="56" height="57" xlink:href="img/2.jpg"/>
<path d="M751.2 606.7l-54.5 31.5l4.5 53.5h99.2v-62l-49.2 -23Z" class="g9_17"/>
<path d="M701.2 691.7l50 -85l49.2 85" class="ga_17"/>
<image preserveAspectRatio="none" x="44" y="756" width="56" height="56" xlink:href="img/3.jpg"/>
<image preserveAspectRatio="none" x="703" y="737" width="120" height="102" xlink:href="img/4.jpg"/>
<image preserveAspectRatio="none" x="44" y="895" width="56" height="57" xlink:href="img/5.jpg"/>
<image clip-path="url(#c1_17)" preserveAspectRatio="none" x="748" y="880" width="105" height="102" xlink:href="img/6.jpg"/>
<image preserveAspectRatio="none" x="44" y="1070" width="56" height="56" xlink:href="img/7.jpg"/>
<image preserveAspectRatio="none" x="740" y="1048" width="115" height="97" xlink:href="img/8.jpg"/>
<image preserveAspectRatio="none" x="615" y="1051" width="113" height="82" xlink:href="img/9.jpg"/>
</svg>