<?xml version="1.0" encoding="UTF-8" standalone="no"?>
<!DOCTYPE svg PUBLIC "-//W3C//DTD SVG 1.1//EN"
"http://www.w3.org/Graphics/SVG/1.1/DTD/svg11.dtd">
<svg viewBox="0 0 909 1286" version="1.1" xmlns="http://www.w3.org/2000/svg" xmlns:xlink="http://www.w3.org/1999/xlink">
<defs>
<clipPath id="c0_8"><path d="M-.2 1286.6v-75.1h910v75.1Z"/></clipPath>
<style type="text/css"><![CDATA[
.g0_8{
fill: none;
stroke: #000;
stroke-width: 1.099;
stroke-linecap: square;
stroke-miterlimit: 10;
}
.g1_8{
fill: none;
stroke: #000;
stroke-width: 0.763;
stroke-linecap: square;
stroke-miterlimit: 10;
}
]]></style>
</defs>
<image clip-path="url(#c0_8)" preserveAspectRatio="none" x="-2" y="1212" width="930" height="127" xlink:href="img/1.jpg"/>
<path d="M275.9 90.5h9.2m11.4 43.6h9.2m75.9 0h27.5M186.5 228.4h9.1m59.2 0H264m25.6 0h9.1M139.9 272.2H149m68.1 0h18.3m63.4 0h18.4m64.4 0h18.3M154.4 363.1h18.3m31.8 0h18.3m36.5 0h9.2M138.6 406.7h18.3m57.4 0h24.5m54.6 0h37.8m55.1 0h44M164 501h9.2m56.1 0h9.2m-30.6 43.8h9.2m71.7 0H298m85.1 0h9.1M213.9 635.7h9.2M156.4 768.8h9.2m27.5 0h9.1m61.2 0h9.1M155.9 812.5h9.2m95.5 0h18.3m84.1 0h18.3m103.4 0h18.4m-346.7 91h9.2m27.5 0h9.1m27.5 0h9.2m-5.5 43.7h17.7m75.2 0h18.4m75.9 0h18.3" class="g0_8"/>
<path d="M270.4 1044.9h11.1" class="g1_8"/>
<path d="M231.1 1183.8h17.7" class="g0_8"/>
<image preserveAspectRatio="none" x="43" y="103" width="57" height="56" xlink:href="img/2.jpg"/>
<image preserveAspectRatio="none" x="43" y="241" width="57" height="57" xlink:href="img/3.jpg"/>
<image preserveAspectRatio="none" x="43" y="375" width="57" height="57" xlink:href="img/4.jpg"/>
<image preserveAspectRatio="none" x="43" y="512" width="57" height="57" xlink:href="img/5.jpg"/>
<image preserveAspectRatio="none" x="43" y="647" width="57" height="56" xlink:href="img/6.jpg"/>
<image preserveAspectRatio="none" x="43" y="783" width="57" height="56" xlink:href="img/7.jpg"/>
<image preserveAspectRatio="none" x="43" y="917" width="57" height="56" xlink:href="img/8.jpg"/>
<image preserveAspectRatio="none" x="43" y="1162" width="57" height="56" xlink:href="img/9.jpg"/>
</svg>