<?xml version="1.0" encoding="UTF-8" standalone="no"?>
<!DOCTYPE svg PUBLIC "-//W3C//DTD SVG 1.1//EN"
"http://www.w3.org/Graphics/SVG/1.1/DTD/svg11.dtd">
<svg viewBox="0 0 909 1286" version="1.1" xmlns="http://www.w3.org/2000/svg" xmlns:xlink="http://www.w3.org/1999/xlink">
<defs>
<clipPath id="c0_73"><path d="M-.2 1286.6v-57.8h910v57.8Z"/></clipPath>
<clipPath id="c1_73"><path d="M-.2 151.6V-.2h910V151.6Z"/></clipPath>
<clipPath id="c2_73"><path d="M22.5 202.8V153H909.8v49.8Z"/></clipPath>
<style type="text/css"><![CDATA[
.g0_73{
fill: #CFC;
}
.g1_73{
fill: #70AD47;
}
.g2_73{
fill: none;
stroke: #00F;
stroke-width: 1.249;
stroke-linecap: square;
stroke-miterlimit: 10;
}
.g3_73{
fill: #F00;
}
.g4_73{
fill: none;
stroke: #00F;
stroke-width: 1.247;
stroke-linecap: square;
stroke-miterlimit: 10;
}
.g5_73{
fill: none;
stroke: #00F;
stroke-width: 1.25;
stroke-linecap: square;
stroke-miterlimit: 10;
}
.g6_73{
fill: none;
stroke: #00F;
stroke-width: 1.246;
stroke-linecap: square;
stroke-miterlimit: 10;
}
.g7_73{
fill: none;
stroke: #000;
stroke-width: 1.099;
stroke-linecap: square;
stroke-miterlimit: 10;
}
.g8_73{
fill: none;
stroke: #000;
stroke-width: 0.878;
stroke-linecap: square;
stroke-miterlimit: 10;
}
.g9_73{
fill: #000;
}
.ga_73{
fill: none;
stroke: #060;
stroke-width: 0.878;
stroke-linecap: square;
stroke-miterlimit: 10;
}
.gb_73{
fill: none;
stroke: #F00;
stroke-width: 0.878;
stroke-linecap: square;
stroke-miterlimit: 10;
}
.gc_73{
fill: #060;
}
.gd_73{
fill: #FFFFE3;
}
]]></style>
</defs>
<image clip-path="url(#c0_73)" preserveAspectRatio="none" x="-2" y="1229" width="930" height="128" xlink:href="img/1.jpg"/>
<path fill-rule="evenodd" d="M57.4 346.5h54.3V322.7H57.4v23.8Z" class="g0_73"/>
<path d="M65.3 346.5h38.5V322.7H65.3v23.8Z" class="g0_73"/>
<path fill-rule="evenodd" d="M112.4 346.5H486.7V322.7H112.4v23.8Z" class="g0_73"/>
<path d="M120.3 346.5H478.9V322.7H120.3v23.8Z" class="g0_73"/>
<path fill-rule="evenodd" d="M487.5 346.5H861.9V322.7H487.5v23.8Z" class="g0_73"/>
<path d="M495.4 346.5H854V322.7H495.4v23.8Z" class="g0_73"/>
<path d="M56.7 322.7h.7v-.8h-.7v.8Z" class="g1_73"/>
<path d="M56.7 322.7h.7v-.8h-.7v.8Z" class="g1_73"/>
<path d="M57.4 322.7h54.3v-.8H57.4v.8Z" class="g1_73"/>
<path d="M111.7 322.7h.7v-.8h-.7v.8Z" class="g1_73"/>
<path d="M112.4 322.7H486.7v-.8H112.4v.8Z" class="g1_73"/>
<path d="M486.8 322.7h.7v-.8h-.7v.8Z" class="g1_73"/>
<path d="M487.5 322.7H861.9v-.8H487.5v.8Z" class="g1_73"/>
<path d="M861.9 322.7h.7v-.8h-.7v.8Z" class="g1_73"/>
<path d="M861.9 322.7h.7v-.8h-.7v.8Z" class="g1_73"/>
<path d="M56.7 346.5h.7V322.7h-.7v23.8Z" class="g1_73"/>
<path d="M111.7 346.5h.7V322.7h-.7v23.8Z" class="g1_73"/>
<path d="M486.8 346.5h.7V322.7h-.7v23.8Z" class="g1_73"/>
<path d="M861.9 346.5h.7V322.7h-.7v23.8Z" class="g1_73"/>
<path fill-rule="evenodd" d="M57.4 371.3h54.3V347.4H57.4v23.9Z" class="g0_73"/>
<path d="M65.3 371.3h38.5V347.4H65.3v23.9Z" class="g0_73"/>
<path d="M56.7 347.2h.7v-.7h-.7v.7Z" class="g1_73"/>
<path d="M57.4 347.2h54.3v-.7H57.4v.7Z" class="g1_73"/>
<path d="M111.7 347.2h.7v-.7h-.7v.7Z" class="g1_73"/>
<path d="M112.4 347.2H486.7v-.7H112.4v.7Z" class="g1_73"/>
<path d="M486.8 347.2h.7v-.7h-.7v.7Z" class="g1_73"/>
<path d="M487.5 347.2H861.9v-.7H487.5v.7Z" class="g1_73"/>
<path d="M861.9 347.2h.7v-.7h-.7v.7Z" class="g1_73"/>
<path d="M56.7 371.3h.7V347.2h-.7v24.1Z" class="g1_73"/>
<path d="M111.7 371.3h.7V347.2h-.7v24.1Z" class="g1_73"/>
<path d="M861.9 371.3h.7V347.2h-.7v24.1Z" class="g1_73"/>
<path fill-rule="evenodd" d="M57.4 493.2h54.3V372H57.4V493.2Z" class="g0_73"/>
<path fill-rule="evenodd" d="M65.3 444.4h38.5V420.6H65.3v23.8Z" class="g0_73"/>
<path d="M56.7 372h.7v-.8h-.7v.8Z" class="g1_73"/>
<path d="M57.4 372h54.3v-.8H57.4v.8Z" class="g1_73"/>
<path d="M111.7 372h.7v-.8h-.7v.8Z" class="g1_73"/>
<path d="M112.4 372H299.2v-.8H112.4v.8Z" class="g1_73"/>
<path d="M299.2 372h.7v-.8h-.7v.8Z" class="g1_73"/>
<path d="M299.9 372H486.8v-.8H299.9v.8Z" class="g1_73"/>
<path d="M486.8 372h.7v-.8h-.7v.8Z" class="g1_73"/>
<path d="M487.5 372H674.3v-.8H487.5v.8Z" class="g1_73"/>
<path d="M674.3 372h.7v-.8h-.7v.8Z" class="g1_73"/>
<path d="M675 372H861.9v-.8H675v.8Z" class="g1_73"/>
<path d="M861.9 372h.7v-.8h-.7v.8Z" class="g1_73"/>
<path d="M56.7 395.8h.7V372h-.7v23.8Z" class="g1_73"/>
<path d="M111.7 395.8h.7V372h-.7v23.8Z" class="g1_73"/>
<path d="M299.2 395.8h.7V372h-.7v23.8Z" class="g1_73"/>
<path d="M486.8 395.8h.7V372h-.7v23.8Z" class="g1_73"/>
<path d="M674.3 395.8h.7V372h-.7v23.8Z" class="g1_73"/>
<path d="M861.9 395.8h.7V372h-.7v23.8Z" class="g1_73"/>
<path d="M248.1 399.8l-1.5 5l-1.5 4.7l-1.5 4.7l-1.5 4.5l-1.5 4.3l-1.4 4.2l-1.5 4l-.7 1.9l-.8 2l-.7 1.8l-.8 1.8l-1.4 3.6l-1.5 3.3l-1.5 3.3l-1.5 3l-.7 1.5l-.7 1.5l-1.4 2.7l-1.5 2.6l-1.5 2.4l-.7 1.2l-.7 1.1l-1.5 2.1l-.7 1l-.7 1l-.7 .9l-.8 .9l-1.4 1.7l-.7 .7l-.7 .7l-1.4 1.4l-1.5 1.2l-1.4 1l-1.4 .9l-1.5 .7l-1.4 .5l-1.4 .4l-1.4 .3h-.8l-.6 .1l-.7 -.1h-.7l-1.5 -.3l-1.4 -.4l-1.4 -.5l-1.4 -.7l-1.4 -.9l-1.4 -1l-1.3 -1.2l-1.5 -1.4l-.7 -.7l-.6 -.7l-1.5 -1.7l-.7 -.9l-.6 -.9l-.7 -1l-.7 -1L182 464.9l-.7 -1.1l-.7 -1.2l-1.3 -2.4l-1.4 -2.6l-1.4 -2.7l-.7 -1.5l-.7 -1.5l-1.3 -3l-1.4 -3.3l-1.3 -3.3l-1.4 -3.6l-.7 -1.8l-.6 -1.8l-.8 -2l-.6 -1.9l-1.4 -4L164.3 423l-1.4 -4.3l-1.3 -4.5l-1.3 -4.7l-1.4 -4.7l-1.3 -5" class="g2_73"/>
<path d="M201.6 482.9l-.4 -.1l-.3 -.3l-.4 -.2l-.3 -.4l-.2 -.4l-.1 -.4v-.8l.1 -.4l.2 -.4l.3 -.4l.4 -.3l.3 -.2l.4 -.1h.9l.4 .1l.3 .2l.4 .3l.3 .4l.2 .4l.1 .4l.1 .4l-.1 .1v.3l-.1 .2v.2l-.2 .4l-.3 .4l-.4 .2l-.3 .3l-.4 .1h-.4v.1Z" class="g3_73"/>
<path d="M434.7 487.7l-1.5 -5l-1.5 -4.8l-1.5 -4.7l-1.5 -4.5l-1.5 -4.4l-1.4 -4.2l-1.5 -4l-1.5 -3.9l-1.4 -3.7l-1.5 -3.6l-1.5 -3.4L417 438.3l-1.5 -3.1L414 432.3l-1.4 -2.8l-1.4 -2.6l-1.5 -2.4l-1.5 -2.3L406.8 420l-1.4 -2l-1.5 -1.8l-1.4 -1.7L401 413l-1.4 -1.3l-1.4 -1.2l-1.4 -1l-1.5 -.9l-1.4 -.7l-1.4 -.6l-1.4 -.3l-1.5 -.2l-1.3 -.1l-1.4 .1l-1.5 .2l-1.4 .3l-1.4 .6l-1.4 .7l-1.4 .9l-1.4 1l-1.3 1.2l-1.5 1.3l-1.3 1.5l-1.4 1.7l-1.4 1.8l-1.4 2l-1.4 2.2l-1.3 2.3l-1.4 2.4l-1.4 2.6l-1.4 2.8l-1.3 2.9l-1.4 3.1l-1.3 3.2l-1.4 3.4l-1.3 3.6l-1.4 3.7l-1.3 3.9l-1.4 4l-1.4 4.2l-1.3 4.4l-1.4 4.5l-1.3 4.7l-1.3 4.8l-1.3 5" class="g4_73"/>
<path d="M387.9 409.1l-.4 -.1l-.4 -.2l-.3 -.3l-.3 -.4l-.2 -.4l-.1 -.4v-.8l.1 -.4l.2 -.4l.3 -.4l.3 -.3l.4 -.2l.4 -.1h.9l.4 .1l.3 .2l.4 .3l.2 .4l.3 .4l.1 .4l.1 .4l-.1 .1v.3l-.1 .2v.2l-.3 .4l-.2 .4l-.4 .3l-.3 .2l-.2 .1h-.2l-.2 .1h-.2Z" class="g3_73"/>
<path d="M623.2 399.8l-1.5 5l-1.5 4.7l-1.5 4.7l-1.4 4.5l-1.5 4.3l-1.5 4.2l-1.5 4l-.7 1.9l-.7 2l-.8 1.8l-.7 1.8l-1.5 3.6l-1.5 3.3l-1.4 3.3l-1.5 3l-.7 1.5l-.8 1.5l-1.4 2.7l-1.5 2.6l-1.5 2.4l-.7 1.2l-.7 1.1l-1.4 2.1l-.8 1l-.7 1l-.7 .9l-.7 .9l-1.5 1.7l-.7 .7l-.7 .7l-1.4 1.4l-1.5 1.2l-1.4 1l-1.4 .9l-1.4 .7l-1.5 .5l-1.4 .4l-1.4 .3h-.7l-.7 .1l-.7 -.1h-.7l-1.5 -.3l-1.4 -.4l-1.4 -.5l-1.4 -.7l-1.4 -.9l-1.4 -1l-1.3 -1.2L564 473.9l-.7 -.7l-.6 -.7l-1.5 -1.7l-.7 -.9l-.6 -.9l-.7 -1l-.8 -1l-1.3 -2.1l-.7 -1.1l-.7 -1.2l-1.3 -2.4l-1.5 -2.6l-1.3 -2.7l-.7 -1.5l-.7 -1.5l-1.3 -3l-1.4 -3.3l-1.3 -3.3l-1.4 -3.6l-.7 -1.8l-.7 -1.8l-.7 -2l-.6 -1.9l-1.4 -4L539.4 423L538 418.7l-1.3 -4.5l-1.4 -4.7L534 404.8l-1.3 -5" class="g5_73"/>
<path d="M576.7 482.9l-.3 -.1l-.4 -.3l-.4 -.2l-.3 -.4l-.2 -.4l-.1 -.4v-.8l.1 -.4l.2 -.4l.3 -.4l.4 -.3l.4 -.2l.3 -.1h.9l.4 .1l.4 .2l.3 .3l.3 .4l.2 .4l.1 .4l.1 .4v.2l-.1 .2l-.1 .2v.2l-.2 .4l-.3 .4l-.3 .2l-.4 .3l-.4 .1h-.4v.1Z" class="g3_73"/>
<path d="M809.8 487.7l-1.5 -5l-1.5 -4.8l-1.5 -4.7l-1.5 -4.5l-1.5 -4.4l-1.4 -4.2l-1.5 -4l-1.5 -3.9l-1.5 -3.7L795 444.9l-1.5 -3.4l-1.4 -3.2l-1.5 -3.1l-1.5 -2.9l-1.4 -2.8l-1.4 -2.6l-1.5 -2.4l-1.5 -2.3L781.9 420l-1.4 -2L779 416.2l-1.4 -1.7L776.1 413l-1.4 -1.3l-1.4 -1.2l-1.4 -1l-1.5 -.9l-1.4 -.7l-1.4 -.6l-1.4 -.3l-1.5 -.2l-1.3 -.1l-1.4 .1l-1.5 .2l-1.4 .3l-1.4 .6l-1.4 .7l-1.3 .9l-1.5 1l-1.3 1.2l-1.4 1.3l-1.4 1.5l-1.4 1.7l-1.4 1.8l-1.4 2l-1.4 2.2l-1.3 2.3l-1.4 2.4l-1.4 2.6l-1.3 2.8l-1.4 2.9l-1.3 3.1l-1.4 3.2l-1.4 3.4l-1.3 3.6l-1.4 3.7l-1.3 3.9l-1.4 4l-1.3 4.2l-1.4 4.4l-1.3 4.5l-1.3 4.7l-1.4 4.8l-1.3 5" class="g6_73"/>
<path d="M763 409.1l-.4 -.1l-.3 -.2l-.4 -.3l-.3 -.4l-.2 -.4l-.1 -.4v-.8l.1 -.4l.2 -.4l.3 -.4l.4 -.3l.3 -.2l.4 -.1h.9l.4 .1l.3 .2l.4 .3l.2 .4l.3 .4l.1 .4l.1 .4l-.1 .1v.3l-.1 .2v.2l-.3 .4l-.2 .4l-.4 .3l-.3 .2l-.2 .1h-.2l-.2 .1h-.2Z" class="g3_73"/>
<path d="M56.7 396.5h.7v-.7h-.7v.7Z" class="g1_73"/>
<path d="M111.7 396.5h.7v-.7h-.7v.7Z" class="g1_73"/>
<path d="M112.4 396.5H299.2v-.7H112.4v.7Z" class="g1_73"/>
<path d="M299.2 396.5h.7v-.7h-.7v.7Z" class="g1_73"/>
<path d="M299.9 396.5H486.8v-.7H299.9v.7Z" class="g1_73"/>
<path d="M486.8 396.5h.7v-.7h-.7v.7Z" class="g1_73"/>
<path d="M487.5 396.5H674.3v-.7H487.5v.7Z" class="g1_73"/>
<path d="M674.3 396.5h.7v-.7h-.7v.7Z" class="g1_73"/>
<path d="M675 396.5H861.9v-.7H675v.7Z" class="g1_73"/>
<path d="M861.9 396.5h.7v-.7h-.7v.7Z" class="g1_73"/>
<path d="M56.7 493.2h.7V396.5h-.7v96.7Z" class="g1_73"/>
<path d="M111.7 493.2h.7V396.5h-.7v96.7Z" class="g1_73"/>
<path d="M299.2 493.2h.7V396.5h-.7v96.7Z" class="g1_73"/>
<path d="M486.8 493.2h.7V396.5h-.7v96.7Z" class="g1_73"/>
<path d="M674.3 493.2h.7V396.5h-.7v96.7Z" class="g1_73"/>
<path d="M861.9 493.2h.7V396.5h-.7v96.7Z" class="g1_73"/>
<path fill-rule="evenodd" d="M57.4 541.6h54.3V493.9H57.4v47.7Z" class="g0_73"/>
<path d="M65.3 517.7h38.5V493.9H65.3v23.8Z" class="g0_73"/>
<path d="M65.3 541.6h38.5V517.7H65.3v23.9Z" class="g0_73"/>
<path d="M251 518.1h18.3m36.7 0h60.1" class="g7_73"/>
<path d="M56.7 493.9h.7v-.7h-.7v.7Z" class="g1_73"/>
<path d="M57.4 493.9h54.3v-.7H57.4v.7Z" class="g1_73"/>
<path d="M111.7 493.9h.7v-.7h-.7v.7Z" class="g1_73"/>
<path d="M112.4 493.9H299.2v-.7H112.4v.7Z" class="g1_73"/>
<path d="M299.2 493.9h.7v-.7h-.7v.7Z" class="g1_73"/>
<path d="M299.9 493.9H486.8v-.7H299.9v.7Z" class="g1_73"/>
<path d="M486.8 493.9h.7v-.7h-.7v.7Z" class="g1_73"/>
<path d="M487.5 493.9H674.3v-.7H487.5v.7Z" class="g1_73"/>
<path d="M674.3 493.9h.7v-.7h-.7v.7Z" class="g1_73"/>
<path d="M675 493.9H861.9v-.7H675v.7Z" class="g1_73"/>
<path d="M861.9 493.9h.7v-.7h-.7v.7Z" class="g1_73"/>
<path d="M56.7 541.6h.7V493.9h-.7v47.7Z" class="g1_73"/>
<path d="M111.7 541.6h.7V493.9h-.7v47.7Z" class="g1_73"/>
<path d="M486.8 541.6h.7V493.9h-.7v47.7Z" class="g1_73"/>
<path d="M861.9 541.6h.7V493.9h-.7v47.7Z" class="g1_73"/>
<path fill-rule="evenodd" d="M57.4 590h54.3V542.3H57.4V590Z" class="g0_73"/>
<path d="M65.3 566.1h38.5V542.3H65.3v23.8Z" class="g0_73"/>
<path d="M65.3 590h38.5V566.1H65.3V590Z" class="g0_73"/>
<path d="M312.8 565.2h18.3" class="g7_73"/>
<path d="M56.7 542.3h.7v-.7h-.7v.7Z" class="g1_73"/>
<path d="M57.4 542.3h54.3v-.7H57.4v.7Z" class="g1_73"/>
<path d="M111.7 542.3h.7v-.7h-.7v.7Z" class="g1_73"/>
<path d="M112.4 542.3H486.7v-.7H112.4v.7Z" class="g1_73"/>
<path d="M486.8 542.3h.7v-.7h-.7v.7Z" class="g1_73"/>
<path d="M487.5 542.3H861.9v-.7H487.5v.7Z" class="g1_73"/>
<path d="M861.9 542.3h.7v-.7h-.7v.7Z" class="g1_73"/>
<path d="M56.7 590h.7V542.3h-.7V590Z" class="g1_73"/>
<path d="M111.7 590h.7V542.3h-.7V590Z" class="g1_73"/>
<path d="M486.8 590h.7V542.3h-.7V590Z" class="g1_73"/>
<path d="M861.9 590h.7V542.3h-.7V590Z" class="g1_73"/>
<path fill-rule="evenodd" d="M57.4 638.5h54.3V590.9H57.4v47.6Z" class="g0_73"/>
<path d="M65.3 614.7h38.5V590.9H65.3v23.8Z" class="g0_73"/>
<path d="M65.3 638.5h38.5V614.7H65.3v23.8Z" class="g0_73"/>
<path d="M56.7 590.7h.7V590h-.7v.7Z" class="g1_73"/>
<path d="M57.4 590.7h54.3V590H57.4v.7Z" class="g1_73"/>
<path d="M111.7 590.7h.7V590h-.7v.7Z" class="g1_73"/>
<path d="M112.4 590.7H486.7V590H112.4v.7Z" class="g1_73"/>
<path d="M486.8 590.7h.7V590h-.7v.7Z" class="g1_73"/>
<path d="M487.5 590.7H861.9V590H487.5v.7Z" class="g1_73"/>
<path d="M861.9 590.7h.7V590h-.7v.7Z" class="g1_73"/>
<path d="M56.7 638.5h.7V590.7h-.7v47.8Z" class="g1_73"/>
<path d="M111.7 638.5h.7V590.7h-.7v47.8Z" class="g1_73"/>
<path d="M861.9 638.5h.7V590.7h-.7v47.8Z" class="g1_73"/>
<path fill-rule="evenodd" d="M57.4 686.9h54.3V639.3H57.4v47.6Z" class="g0_73"/>
<path d="M65.3 663.1h38.5V639.3H65.3v23.8Z" class="g0_73"/>
<path d="M65.3 686.9h38.5V663.1H65.3v23.8Z" class="g0_73"/>
<path d="M56.7 639.3h.7v-.8h-.7v.8Z" class="g1_73"/>
<path d="M57.4 639.3h54.3v-.8H57.4v.8Z" class="g1_73"/>
<path d="M111.7 639.3h.7v-.8h-.7v.8Z" class="g1_73"/>
<path d="M112.4 639.3H861.9v-.8H112.4v.8Z" class="g1_73"/>
<path d="M861.9 639.3h.7v-.8h-.7v.8Z" class="g1_73"/>
<path d="M56.7 686.9h.7V639.3h-.7v47.6Z" class="g1_73"/>
<path d="M111.7 686.9h.7V639.3h-.7v47.6Z" class="g1_73"/>
<path d="M861.9 686.9h.7V639.3h-.7v47.6Z" class="g1_73"/>
<path fill-rule="evenodd" d="M57.4 783.2h54.3V687.7H57.4v95.5Z" class="g0_73"/>
<path fill-rule="evenodd" d="M65.3 723.4h38.5V699.6H65.3v23.8Z" class="g0_73"/>
<path fill-rule="evenodd" d="M65.3 747.3h38.5V723.4H65.3v23.9Z" class="g0_73"/>
<path fill-rule="evenodd" d="M65.3 771.1h38.5V747.3H65.3v23.8Z" class="g0_73"/>
<path d="M56.7 687.7h.7v-.8h-.7v.8Z" class="g1_73"/>
<path d="M57.4 687.7h54.3v-.8H57.4v.8Z" class="g1_73"/>
<path d="M111.7 687.7h.7v-.8h-.7v.8Z" class="g1_73"/>
<path d="M112.4 687.7H861.9v-.8H112.4v.8Z" class="g1_73"/>
<path d="M861.9 687.7h.7v-.8h-.7v.8Z" class="g1_73"/>
<path d="M56.7 783.2h.7V687.7h-.7v95.5Z" class="g1_73"/>
<path d="M56.7 783.9h.7v-.7h-.7v.7Z" class="g1_73"/>
<path d="M56.7 783.9h.7v-.7h-.7v.7Z" class="g1_73"/>
<path d="M57.4 783.9h54.3v-.7H57.4v.7Z" class="g1_73"/>
<path d="M111.7 783.2h.7V687.7h-.7v95.5Z" class="g1_73"/>
<path d="M111.7 783.9h.7v-.7h-.7v.7Z" class="g1_73"/>
<path d="M112.4 783.9H861.9v-.7H112.4v.7Z" class="g1_73"/>
<path d="M861.9 783.2h.7V687.7h-.7v95.5Z" class="g1_73"/>
<path d="M861.9 783.9h.7v-.7h-.7v.7Z" class="g1_73"/>
<path d="M861.9 783.9h.7v-.7h-.7v.7Z" class="g1_73"/>
<path d="M707.6 929.9h-1.7m-1.8 0h-1.8m-1.7 0h-1.8m-1.8 0h-1.8m-1.7 0h-1.8m-1.8 0h-1.7m-1.8 0h-1.8m-1.8 0h-1.7m-1.8 0h-1.8m-1.7 0H674m-1.8 0h-1.8m-1.7 0h-1.8m-1.8 0h-1.8m-1.7 0h-1.8m-1.8 0h-1.7m-1.8 0h-1.8m-1.8 0h-1.7m-1.8 0h-1.8m-1.7 0h-1.8m-1.8 0h-1.8m-1.7 0H635m-1.8 0h-1.7m-1.8 0h-1.8m-1.8 0h-1.7m-1.8 0h-1.8m-1.7 0h-1.8m-1.8 0h-1.8m-1.7 0h-1.8m-1.8 0h-1.8m-1.7 0h-1.8m-1.8 0h-1.7m-1.8 0H596m-1.8 0h-1.7m-1.8 0h-1.8m-1.7 0h-1.8m-1.8 0h-1.8m-1.7 0h-1.8m-1.8 0h-1.7m-1.8 0h-1.8m-1.7 0h-1.8m-1.8 0h-1.8m-1.7 0h-1.8m-1.8 0h-1.7m-1.8 0h-1.8m-1.8 0h-1.8m-1.7 0h-1.8m-1.7 0h-1.8m-1.8 0h-1.8m-1.7 0h-1.8m-1.8 0h-1.8m-1.7 0h-1.8m-1.8 0h-1.7m-1.8 0h-1.8m-1.8 0h-1.7m-1.8 0h-1.8m-1.7 0H511m-1.8 0h-1.8m-1.7 0h-1.8m-1.8 0h-1.7m-1.8 0h-1.8m-1.8 0h-1.7m-1.8 0h-1.8m-1.7 0h-1.8m-1.8 0h-1.8m-1.7 0h-1.8m-1.8 0h-1.8m-1.7 0H472m-1.8 0h-1.7m-1.8 0h-1.8m-1.8 0h-1.7m-1.8 0h-1.8m-1.7 0h-1.8m-1.8 0h-1.8m-1.7 0h-1.8m-1.8 0h-1.7m-1.8 0h-1.8m-1.7 0h-1.8m-1.8 0H433m-1.7 0h-1.8m-1.8 0H426m-1.8 0h-1.8m-1.8 0h-1.8m-1.7 0h-1.8m-1.8 0h-1.7m-1.8 0h-1.8m-1.7 0h-1.8m-1.8 0h-1.8m-1.7 0h-1.8m-1.8 0h-1.7m-1.8 0h-1.8m-1.8 0H387m-1.8 0h-1.8m-1.7 0h-1.8m-1.8 0h-1.8m-1.7 0h-1.8m-1.8 0h-1.7m-1.8 0h-1.8m-1.8 0h-1.7m-1.8 0h-1.8m-1.8 0h-1.7m-1.8 0h-1.8m-1.7 0H348m-1.8 0h-1.8m-1.7 0h-1.8m-1.8 0h-1.7m-1.8 0h-1.8m-1.8 0h-1.7m-1.8 0h-1.8m-1.7 0h-1.8m-1.8 0h-1.8m-1.7 0h-1.8m-1.8 0h-1.7m-1.8 0H309m-1.8 0h-1.7m-1.8 0h-1.8m-1.8 0h-1.7m-1.8 0h-1.7m-1.8 0h-1.8m-1.8 0h-1.8m-1.7 0h-1.8m-1.8 0h-1.7m-1.8 0h-1.8m-1.7 0h-1.8m-1.8 0H270m-1.7 0h-1.8m-1.8 0H263m-1.8 0h-1.8m-1.8 0h-1.7m-1.8 0h-1.8m-1.7 0h-1.8m-1.8 0h-1.8m-1.7 0h-1.8m-1.8 0h-1.7m-1.8 0h-1.8m-1.8 0h-1.7m-1.8 0h-1.8m-1.8 0H224m-1.8 0h-1.8m-1.7 0h-1.8m-1.8 0h-1.8m-1.7 0h-1.8m-1.8 0h-1.7m-1.8 0h-1.8m-1.8 0h-1.7m-1.8 0h-1.8m-1.7 0h-1.8m-1.8 0h-1.8m-1.7 0H185m-1.8 0h-1.7m-1.8 0h-1.8m-1.8 0h-1.7m-1.8 0h-1.8m539.5 264.6h-1.8m-1.8 0h-1.8m-1.7 0h-1.8m-1.8 0h-1.7m-1.8 0h-1.8m-1.8 0h-1.7m-1.8 0h-1.8m-1.8 0h-1.7m-1.8 0h-1.8m-1.7 0h-1.8m-1.8 0H673m-1.7 0h-1.8m-1.8 0H666m-1.8 0h-1.8m-1.8 0h-1.7m-1.8 0h-1.8m-1.7 0h-1.8m-1.8 0h-1.8m-1.7 0h-1.8m-1.8 0h-1.7m-1.8 0h-1.8m-1.7 0h-1.8m-1.8 0h-1.8m-1.8 0H627m-1.8 0h-1.7m-1.8 0h-1.8m-1.8 0h-1.8m-1.7 0h-1.8m-1.8 0h-1.7m-1.8 0h-1.8m-1.7 0h-1.8m-1.8 0h-1.8m-1.7 0h-1.8m-1.8 0h-1.7m-1.8 0H588m-1.8 0h-1.7m-1.8 0h-1.8m-1.7 0h-1.8m-1.8 0h-1.8m-1.7 0h-1.8m-1.8 0h-1.7m-1.8 0h-1.8m-1.8 0h-1.7m-1.8 0h-1.8m-1.8 0h-1.7m-1.8 0H549m-1.7 0h-1.8m-1.8 0h-1.8m-1.7 0h-1.8m-1.8 0h-1.7m-1.8 0h-1.8m-1.8 0h-1.7m-1.8 0h-1.8m-1.7 0h-1.8m-1.8 0h-1.8m-1.7 0h-1.8m-1.8 0h-1.7m-1.8 0h-1.8m-1.7 0H503m-1.8 0h-1.8m-1.8 0h-1.7m-1.8 0h-1.8m-1.7 0h-1.8m-1.8 0h-1.8m-1.7 0h-1.8m-1.8 0h-1.7m-1.8 0h-1.8m-1.7 0h-1.8m-1.8 0h-1.8m-1.7 0H464m-1.8 0h-1.7m-1.8 0h-1.8m-1.8 0h-1.7m-1.8 0h-1.8m-1.7 0h-1.8m-1.8 0h-1.8m-1.7 0h-1.8m-1.8 0h-1.8m-1.7 0h-1.8m-1.8 0h-1.7m-1.8 0H425m-1.8 0h-1.7m-1.8 0h-1.8m-1.7 0h-1.8m-1.8 0h-1.8m-1.7 0h-1.8m-1.8 0h-1.7m-1.8 0h-1.8m-1.8 0h-1.7m-1.8 0h-1.8m-1.7 0h-1.8m-1.8 0H386m-1.7 0h-1.8m-1.8 0h-1.8m-1.7 0h-1.8m-1.7 0h-1.8m-1.8 0h-1.8m-1.8 0h-1.7m-1.8 0h-1.8m-1.7 0h-1.8m-1.8 0h-1.8m-1.7 0h-1.8m-1.8 0h-1.7m-1.8 0h-1.8m-1.7 0H340m-1.8 0h-1.8m-1.7 0h-1.8m-1.8 0h-1.7m-1.8 0h-1.8m-1.8 0h-1.8m-1.7 0h-1.8m-1.7 0h-1.8m-1.8 0h-1.8m-1.7 0h-1.8m-1.8 0h-1.8m-1.7 0H301m-1.8 0h-1.7m-1.8 0h-1.8m-1.8 0h-1.7m-1.8 0h-1.8m-1.7 0h-1.8m-1.8 0h-1.8m-1.7 0h-1.8m-1.8 0h-1.7m-1.8 0h-1.8m-1.8 0h-1.7m-1.8 0H262m-1.7 0h-1.8m-1.8 0h-1.8m-1.7 0h-1.8m-1.8 0h-1.8m-1.7 0h-1.8m-1.8 0h-1.7m-1.8 0h-1.8m-1.8 0h-1.7m-1.8 0h-1.8m-1.7 0h-1.8m-1.8 0H223m-1.7 0h-1.8m-1.8 0H216m-1.8 0h-1.8m-1.7 0h-1.8m-1.8 0h-1.8m-1.7 0h-1.8m-1.8 0h-1.7m-1.8 0h-1.8m-1.8 0h-1.8m-1.7 0h-1.8m-1.8 0h-1.7m-1.8 0h-1.8m-1.7 0H177m-1.8 0h-1.8m-1.7 0h-.9" class="g8_73"/>
<path d="M734.1 1048.8l.5 -.6l.5 -.6l.2 -.3l.2 -.2l.3 -.6l.2 -.5l.2 -.6l.1 -.6v-.4l-.1 -.5l-.1 -.6l-.2 -.5l-.2 -.4l-.2 -.5l-.3 -.5l-.4 -.5l-.4 -.4l-.4 -.5l-.5 -.5l14.2 4.9l-14.2 4.9Z" class="g9_73"/>
<path d="M140.9 1044.4H736.3" class="g8_73"/>
<path d="M430.6 869.5l-.5 -.5l-.6 -.5l-.5 -.4l-.6 -.3l-.5 -.3l-.6 -.1l-.5 -.1h-.4l-.6 .1l-.5 .1l-.5 .1l-.4 .2l-.5 .3l-.4 .3l-.5 .3l-.5 .5l-.4 .4l-.5 .5l4.8 -14.4l4.8 14.4Z" class="g9_73"/>
<path d="M426.4 1232.6V867.3" class="g8_73"/>
<path d="M547.3 1062.5H498.8v-37H547v-5.9l14.6 24.7L547.3 1068Z" class="g0_73"/>
<path d="M547 1025.5H498.8v37h48.5v5.5m0 0l14.3 -23.7L547 1019.6v5.9" class="ga_73"/>
<path d="M461.3 990.2l-1.2 3.3l-1.2 3.3l-1.3 3.2l-1.2 3l-1.2 3l-.6 1.4l-.6 1.4l-1.2 2.7l-.6 1.3l-.6 1.4l-.6 1.2l-.6 1.2l-1.2 2.5l-.6 1.1l-.6 1.1l-1.1 2.2l-1.2 2.1l-.6 1l-.6 1l-1.1 1.8l-1.1 1.8l-.6 .8l-.6 .8l-1.1 1.6l-.6 .7l-.6 .7l-1.1 1.3l-1.1 1.2l-.6 .6l-.5 .5l-1.1 1l-1.1 .9l-1.1 .8l-1.1 .6l-1.1 .6l-1.1 .5l-1 .3l-1.1 .2l-.5 .1h-.5l-1.1 .1l-1 -.1l-1.1 -.2l-1 -.3l-1 -.4l-1.1 -.6l-1 -.6l-.5 -.4l-.5 -.4l-1 -.8l-1 -.9l-.5 -.6l-.5 -.5l-1 -1.2l-.5 -.6l-.5 -.6l-.5 -.7l-.4 -.7l-1 -1.5l-.5 -.8l-.4 -.9l-1 -1.6l-.9 -1.9l-.5 -.9l-.5 -1l-.9 -2.1l-.5 -1l-.4 -1.1l-.5 -1.1l-.5 -1.2l-.9 -2.3l-.9 -2.5l-.9 -2.6l-.9 -2.7l-.4 -1.4l-.5 -1.4l-.9 -2.9l-.8 -3l-.9 -3.1l-.9 -3.2l-.8 -3.4l-.9 -3.4" class="gb_73"/>
<path d="M426.1 1046.2l-.4 -.2l-.4 -.2l-.3 -.3l-.3 -.3l-.2 -.4l-.1 -.4l-.1 -.5l.1 -.5l.1 -.4l.2 -.4l.3 -.3l.3 -.3l.4 -.2l.4 -.1h.9l.4 .1l.4 .2l.3 .3l.3 .3l.2 .4l.1 .4l.1 .5l-.1 .2v.3l-.1 .4l-.1 .2l-.1 .2l-.3 .3l-.3 .3l-.2 .1l-.1 .1h-.1l-.4 .2h-.4Z" class="gc_73"/>
<path d="M652.5 990.2l-1.2 3.3l-1.3 3.3l-1.2 3.1l-1.2 3.1l-1.2 3l-.6 1.4l-.7 1.4l-1.2 2.7l-.6 1.3l-.5 1.4l-.6 1.2l-.6 1.2l-1.2 2.5l-.6 1.1l-.6 1.1l-1.2 2.2l-1.1 2.1l-.6 1l-.6 1l-1.1 1.8l-1.2 1.8l-.6 .8l-.5 .8l-1.2 1.6l-.6 .7l-.5 .7l-1.1 1.3l-1.2 1.2l-.5 .6l-.6 .5l-1.1 1l-1 .9l-1.1 .8l-1.1 .6l-1.1 .6l-1.1 .5l-1.1 .3l-1 .2l-.6 .1h-.5l-1 .1l-1.1 -.1l-1 -.2l-1.1 -.3l-1 -.4l-1 -.6l-1 -.6l-.5 -.4l-.5 -.4l-1 -.8l-1 -.9l-.5 -.6l-.5 -.5l-1 -1.2l-.5 -.6l-.5 -.6l-.5 -.7l-.5 -.7l-.9 -1.5l-.5 -.8l-.5 -.9l-.9 -1.6l-1 -1.9l-.5 -.9l-.4 -1l-1 -2.1l-.4 -1l-.5 -1.1l-.4 -1.1l-.5 -1.2l-.9 -2.3l-.9 -2.5l-.9 -2.6l-.9 -2.7l-.5 -1.4l-.4 -1.4l-.9 -2.9l-.9 -3l-.9 -3.1l-.8 -3.2l-.9 -3.4l-.8 -3.4" class="gb_73"/>
<path d="M617.3 1046.2l-.5 -.2l-.4 -.2l-.3 -.3l-.3 -.3l-.1 -.4l-.2 -.4v-1l.2 -.4l.1 -.4l.3 -.3l.3 -.3l.4 -.2l.5 -.1h.9l.4 .1l.3 .2l.4 .3l.3 .3l.2 .4l.1 .4v1l-.1 .4l-.1 .2l-.1 .2l-.3 .3l-.4 .3l-.2 .1l-.1 .1l-.4 .2h-.5Z" class="gc_73"/>
<path d="M292.8 1044.8l14.7 -24.7v5.9h48.2v37H307.2v5.5Z" class="g0_73"/>
<path d="M307.5 1026h48.2v37H307.2v5.5m.3 -42.5v-5.9l-14.7 24.7l14.4 23.7" class="ga_73"/>
<path d="M269.7 990l-1.3 3.4l-1.2 3.2l-1.2 3.2l-1.2 3l-1.3 3l-.6 1.4l-.6 1.4l-1.2 2.7l-.6 1.4l-.5 1.3l-.7 1.2l-.6 1.3l-1.1 2.4l-.6 1.1l-.6 1.2l-1.2 2.2l-1.1 2l-.7 1l-.5 1l-1.2 1.8l-1.1 1.8l-.6 .9l-.5 .7l-1.2 1.6l-.6 .7l-.5 .7l-1.1 1.3l-1.2 1.2l-.5 .6l-.6 .5l-1.1 1l-1.1 .9l-1.1 .8l-1 .6l-1.1 .6l-1.1 .5l-1.1 .3l-1 .2l-.6 .1l-.5 .1h-1l-1.1 -.1l-1 -.2l-1.1 -.3l-1 -.4l-1 -.6l-1 -.6l-.5 -.4l-.5 -.3l-1 -.9l-1 -.9l-.5 -.5l-.5 -.6l-1 -1.2l-.5 -.6l-.5 -.6l-.5 -.7l-.5 -.7l-.9 -1.5l-.5 -.8l-.5 -.8l-.9 -1.7l-1 -1.9l-.5 -.9l-.4 -1l-1 -2l-.4 -1.1l-.5 -1.1l-.5 -1.1l-.4 -1.2l-.9 -2.3l-.9 -2.5l-.9 -2.5l-.9 -2.8l-.5 -1.3l-.4 -1.5l-.9 -2.9l-.9 -3l-.9 -3.1l-.8 -3.2l-.9 -3.3l-.8 -3.5" class="gb_73"/>
<path d="M234.4 1046l-.4 -.1l-.4 -.3l-.3 -.3l-.3 -.3l-.1 -.4l-.2 -.4v-.9l.2 -.4l.1 -.4l.3 -.4l.3 -.3l.4 -.2l.4 -.1h.9l.4 .1l.4 .2l.4 .3l.2 .4l.3 .4l.1 .4v.9l-.1 .4l-.2 .2l-.1 .2l-.2 .3l-.4 .3l-.2 .1l-.1 .1l-.1 .1l-.4 .1h-.4Z" class="gc_73"/>
<path d="M394.8 982.4V958.7H385l41.4 -11.3l39.5 11h-9.2v24Z" class="g0_73"/>
<path d="M456.7 966.4v-8h9.2l-39.5 -11L385 958.7h9.8v23.7h61.9v-16" class="ga_73"/>
<path d="M460.9 876.5l-1.3 3.3l-1.2 3.3l-1.2 3.1l-1.2 3.1l-1.3 2.9l-.6 1.5l-.6 1.4l-1.2 2.7l-.6 1.3l-.6 1.3l-.6 1.3l-.6 1.2l-1.1 2.4l-.6 1.2l-.6 1.1l-1.2 2.2l-1.2 2.1l-.6 1l-.5 .9l-1.2 1.9l-1.1 1.8l-.6 .8l-.6 .8l-1.1 1.5l-.6 .7l-.5 .7l-1.1 1.4l-1.2 1.2l-.5 .5l-.6 .6l-1.1 .9l-1.1 1l-1.1 .7l-1 .7l-1.1 .6l-1.1 .4l-1.1 .3l-1 .3l-.6 .1h-.5l-1 .1l-1.1 -.1l-1 -.2l-1.1 -.4l-1 -.4l-1 -.5l-1 -.6l-.5 -.4l-.5 -.4l-1 -.8l-1 -1l-.5 -.5l-.5 -.5l-1 -1.2l-.5 -.6l-.5 -.7l-.5 -.7l-.5 -.7l-.9 -1.5l-.5 -.8l-.5 -.8l-.9 -1.7l-1 -1.8l-.5 -1l-.4 -.9l-1 -2.1l-.4 -1.1l-.5 -1l-.5 -1.2l-.4 -1.1l-.9 -2.4l-.9 -2.4l-.9 -2.6L400 896l-.5 -1.4l-.4 -1.4l-.9 -2.9l-.9 -3l-.9 -3.1l-.8 -3.3l-.9 -3.3l-.8 -3.4" class="gb_73"/>
<path d="M425.7 932.4l-.4 -.1l-.4 -.2l-.4 -.3l-.2 -.4l-.2 -.4l-.1 -.4l-.1 -.4l.1 -.5l.1 -.4l.2 -.4l.2 -.3l.4 -.3l.4 -.2l.4 -.1l.4 -.1l.5 .1l.4 .1l.3 .2l.4 .3l.3 .3l.2 .4l.1 .4v.9l-.1 .4l-.1 .2l-.1 .2l-.3 .4l-.4 .3l-.2 .1H427v.1l-.4 .1h-.2l-.1 .1h-.2Z" class="gc_73"/>
<path d="M385.5 1114.6h9.8v-23.8h61.8v24h9.2l-39.5 11.1Z" class="g0_73"/>
<path d="M457.1 1106.9v7.9h9.2l-39.5 11.1l-41.3 -11.3h9.8v-23.8h61.8v16.1" class="ga_73"/>
<path d="M461.8 1140.5l-1.3 3.3l-1.2 3.3l-1.2 3.1l-1.3 3.1l-1.2 2.9l-.6 1.5l-.6 1.4l-1.2 2.7l-.6 1.3l-.6 1.3l-.6 1.3l-.6 1.2l-1.2 2.4l-.6 1.2l-.5 1.1l-1.2 2.2l-1.2 2.1l-.6 1l-.5 .9l-1.2 1.9l-1.1 1.8l-.6 .8l-.6 .8l-1.1 1.5l-.6 .8l-.6 .6l-1.1 1.4l-1.1 1.2l-.5 .5l-.6 .6l-1.1 .9l-1.1 1l-1.1 .7l-1.1 .7l-1.1 .6l-1 .4l-1.1 .3l-1.1 .3l-.5 .1h-.5l-1 .1l-1.1 -.1l-1.1 -.2l-1 -.3l-1 -.5l-1 -.5l-1 -.6l-.5 -.4l-.6 -.4l-1 -.8l-1 -1l-.5 -.5l-.5 -.5l-1 -1.2l-.5 -.6l-.4 -.7l-.5 -.7l-.5 -.7l-1 -1.5l-.5 -.8l-.4 -.8l-.9 -1.7l-1 -1.8l-.5 -1l-.4 -.9l-1 -2.1l-.5 -1l-.4 -1.1l-.5 -1.1l-.4 -1.2l-.9 -2.4l-.9 -2.4l-.9 -2.6l-1 -2.7l-.4 -1.4l-.5 -1.4l-.9 -2.9l-.8 -3l-.9 -3.1l-.8 -3.3l-.9 -3.3l-.9 -3.4" class="gb_73"/>
<path d="M426.5 1196.4l-.4 -.1l-.4 -.2l-.3 -.3l-.3 -.4l-.1 -.3l-.2 -.5v-.9l.2 -.4l.1 -.4l.3 -.3l.3 -.3l.4 -.2l.4 -.1l.5 -.1l.4 .1l.4 .1l.4 .2l.4 .3l.2 .3l.2 .4l.2 .4v.9l-.2 .5l-.1 .1l-.1 .2l-.2 .4l-.4 .3l-.2 .1h-.1v.1h-.1l-.4 .1h-.1l-.1 .1H427Z" class="gc_73"/>
<path d="M652.4 876.9l-1.3 3.4l-1.2 3.2l-1.3 3.2l-1.2 3.1l-1.2 2.9l-.6 1.4l-.6 1.4l-1.2 2.7l-.6 1.4l-.6 1.3l-.6 1.2l-.6 1.3l-1.2 2.4l-.6 1.1l-.5 1.2l-1.2 2.2l-1.2 2l-.6 1l-.5 1l-1.2 1.8l-1.1 1.8l-.6 .9l-.6 .8l-1.1 1.5l-.6 .7l-.6 .7l-1.1 1.3l-1.1 1.2l-.6 .6l-.5 .5l-1.1 1l-1.1 .9l-1.1 .8l-1.1 .7L621 930l-1 .5l-1.1 .3l-1.1 .2l-.5 .1l-.5 .1h-1.1l-1 -.1l-1.1 -.2l-1 -.3l-1 -.4l-1.1 -.6l-1 -.6l-.5 -.3l-.5 -.4l-1 -.8l-1 -1L606 926l-.5 -.6l-1 -1.2l-.5 -.6l-.4 -.6l-.5 -.7l-.5 -.7l-1 -1.5l-.5 -.8l-.4 -.8l-.9 -1.7l-1 -1.9l-.5 -.9l-.5 -1l-.9 -2l-.5 -1.1l-.4 -1.1l-.5 -1.1l-.4 -1.2l-.9 -2.3l-1 -2.5l-.9 -2.5l-.9 -2.8l-.4 -1.3l-.5 -1.4l-.9 -3l-.8 -2.9l-.9 -3.2l-.9 -3.2l-.8 -3.3l-.9 -3.5" class="gb_73"/>
<path d="M617.1 932.9l-.4 -.1l-.4 -.3l-.3 -.3l-.3 -.3l-.2 -.4l-.1 -.4v-.9l.1 -.4l.2 -.4l.3 -.4l.3 -.3l.4 -.1l.4 -.2h.9l.4 .2l.4 .1l.4 .3l.2 .4l.2 .4l.2 .4v.9l-.2 .4l-.1 .2l-.1 .2l-.2 .3l-.4 .3l-.2 .1l-.1 .1l-.1 .1l-.4 .1h-.4Z" class="gc_73"/>
<path d="M652.3 1140.7l-1.2 3.3l-1.3 3.3l-1.2 3.2l-1.2 3l-1.2 3l-.6 1.4l-.6 1.4l-1.2 2.7l-.6 1.4l-.6 1.3l-.6 1.2l-.6 1.2l-1.2 2.5l-.6 1.1l-.6 1.1l-1.1 2.2l-1.2 2.1l-.6 1l-.6 1l-1.1 1.8l-1.1 1.8l-.7 .8l-.5 .8l-1.1 1.6l-.6 .7l-.6 .7l-1.1 1.3l-1.1 1.2l-.6 .6l-.5 .5l-1.1 1l-1.1 .9l-1.1 .8l-1.1 .6l-1.1 .6l-1.1 .5l-1 .3l-1.1 .2l-.5 .1h-.5l-1.1 .1l-1 -.1l-1.1 -.2l-1 -.3l-1 -.4l-1.1 -.6l-1 -.6l-.5 -.4l-.5 -.4l-1 -.8l-1 -.9l-.5 -.6l-.5 -.5l-1 -1.2l-.5 -.6l-.5 -.6l-.5 -.7l-.4 -.7l-1 -1.5l-.5 -.8l-.4 -.8l-1 -1.7l-.9 -1.9l-.5 -.9l-.5 -1l-.9 -2.1l-.5 -1l-.4 -1.1l-.5 -1.1l-.5 -1.2l-.9 -2.3l-.9 -2.5l-.9 -2.6l-.9 -2.7l-.4 -1.4l-.5 -1.4l-.9 -2.9l-.8 -3l-.9 -3.1l-.9 -3.2l-.8 -3.4l-.9 -3.4" class="gb_73"/>
<path d="M617.1 1196.6l-.4 -.1l-.4 -.2l-.4 -.3l-.2 -.4l-.2 -.3l-.1 -.5l-.1 -.4l.1 -.5l.1 -.4l.2 -.4l.2 -.3l.4 -.3l.4 -.2l.4 -.1h.9l.4 .1l.4 .2l.3 .3l.3 .3l.2 .4l.1 .4l.1 .5l-.1 .2v.2l-.1 .5l-.1 .1l-.1 .2l-.3 .4l-.3 .3l-.2 .1h-.1l-.1 .1l-.4 .1h-.1l-.1 .1h-.2Z" class="gc_73"/>
<path d="M234.8 1226.9v-1.8m0 -1.9v-1.8m0 -1.8v-1.8m0 -1.8v-1.8m0 -1.8v-1.8m0 -1.8v-1.9m0 -1.7v-1.9m0 -1.8v-1.8m0 -1.8v-1.8m0 -1.8v-1.8m0 -1.8v-1.8m0 -1.9v-1.7m0 -1.9v-1.8m0 -1.8V1178m0 -1.8v-1.8m0 -1.8v-1.8m0 -1.8v-1.9m0 -1.7v-1.9m0 -1.8v-1.8m0 -1.8v-1.8m0 -1.8v-1.8m0 -1.8v-1.8m0 -1.9v-1.8m0 -1.8v-1.8m0 -1.8v-1.8m0 -1.8v-1.8m0 -1.8V1131m0 -1.9v-1.8m0 -1.8v-1.8m0 -1.8v-1.8m0 -1.8v-1.8m0 -1.8v-1.8m0 -1.8v-1.9m0 -1.8v-1.8m0 -1.8V1102m0 -1.8v-1.8m0 -1.8v-1.8m0 -1.8v-1.8m0 -1.9v-1.8m0 -1.8v-1.8m0 -1.8v-1.8m0 -1.8v-1.8m0 -1.8v-1.8m0 -1.8v-1.9m0 -1.8v-1.8m0 -1.8v-1.8m0 -1.8v-1.8m0 -1.8V1055m0 -1.8v-1.9m0 -1.8v-1.8m0 -1.8v-1.8m0 -1.8v-1.8m0 -1.8v-1.8m0 -1.8v-1.8m0 -1.9v-1.8m0 -1.8V1026m0 -1.8v-1.8m0 -1.8v-1.8m0 -1.8v-1.8m0 -1.8v-1.9m0 -1.8v-1.8m0 -1.8v-1.8m0 -1.8v-1.8m0 -1.8v-1.8m0 -1.8v-1.8m0 -1.9v-1.8m0 -1.8v-1.8m0 -1.8v-1.8m0 -1.8V979m0 -1.8v-1.9m0 -1.8v-1.8m0 -1.8v-1.8m0 -1.8v-1.8m0 -1.8v-1.8m0 -1.8v-1.9m0 -1.8v-1.8m0 -1.8V950m0 -1.8v-1.8m0 -1.8v-1.8m0 -1.8v-1.8m0 -1.9v-1.8m0 -1.8v-1.8m0 -1.8v-1.8m0 -1.8v-1.8m0 -1.8v-1.8m0 -1.8v-1.9m0 -1.8v-1.8m0 -1.8v-1.8m0 -1.8v-1.8m0 -1.8V903m0 -1.8v-1.8m0 -1.9v-1.8m0 -1.8v-1.8m0 -1.8v-1.8m0 -1.8v-1.8m0 -1.8v-1.8m0 -1.9v-1.8m0 -1.8V874m0 -1.8v-1.8m0 -1.8v-1.8m0 -1.8v-.4m382.7 363v-1.8m0 -1.8v-1.8m0 -1.8v-1.9m0 -1.8v-1.8m0 -1.8v-1.8m0 -1.8v-1.8m0 -1.8v-1.8m0 -1.8v-1.9m0 -1.8v-1.8m0 -1.8v-1.8m0 -1.8v-1.8m0 -1.8V1186m0 -1.9v-1.7m0 -1.9v-1.8m0 -1.8v-1.8m0 -1.8v-1.8m0 -1.8v-1.8m0 -1.8v-1.9m0 -1.8v-1.8m0 -1.8V1157m0 -1.8v-1.8m0 -1.8v-1.8m0 -1.8v-1.8m0 -1.9v-1.8m0 -1.8v-1.8m0 -1.8v-1.8m0 -1.8v-1.8m0 -1.8v-1.8m0 -1.8v-1.9m0 -1.8v-1.8m0 -1.8v-1.8m0 -1.8v-1.8m0 -1.8V1110m0 -1.8v-1.9m0 -1.8v-1.8m0 -1.8v-1.8m0 -1.8v-1.8m0 -1.8v-1.8m0 -1.8v-1.8m0 -1.9v-1.8m0 -1.8V1081m0 -1.8v-1.8m0 -1.8v-1.8m0 -1.8v-1.8m0 -1.8v-1.9m0 -1.8v-1.8m0 -1.8v-1.8m0 -1.8v-1.8m0 -1.8v-1.8m0 -1.8v-1.8m0 -1.9v-1.8m0 -1.8v-1.8m0 -1.8v-1.8m0 -1.8V1034m0 -1.8v-1.8m0 -1.9v-1.8m0 -1.8v-1.8m0 -1.8v-1.8m0 -1.8v-1.8m0 -1.8v-1.9m0 -1.7v-1.9m0 -1.8V1005m0 -1.8v-1.8m0 -1.8v-1.8m0 -1.8v-1.8m0 -1.9v-1.7m0 -1.9v-1.8m0 -1.8v-1.8m0 -1.8v-1.8m0 -1.8v-1.8m0 -1.8v-1.9m0 -1.7v-1.9m0 -1.8v-1.8m0 -1.8v-1.8m0 -1.8V958m0 -1.8v-1.8m0 -1.9v-1.8m0 -1.8v-1.8m0 -1.8v-1.8m0 -1.8v-1.8m0 -1.8v-1.8m0 -1.9v-1.8m0 -1.8V929m0 -1.8v-1.8m0 -1.8v-1.8m0 -1.8v-1.8m0 -1.8v-1.9m0 -1.8v-1.8m0 -1.8v-1.8m0 -1.8v-1.8m0 -1.8v-1.8m0 -1.8v-1.8m0 -1.9v-1.8m0 -1.8v-1.8m0 -1.8v-1.8m0 -1.8V882m0 -1.8v-1.8m0 -1.8v-1.9m0 -1.8v-1.8m0 -1.8v-1.8m0 -1.8v-.4" class="g8_73"/>
<path d="M585.7 981.4V957.7h-9.8l41.3 -11.3l39.6 11.1h-9.3v23.9Z" class="gd_73"/>
<path d="M647.5 965.4v-7.9h9.3L617.2 946.4l-41.3 11.3h9.8v23.7h61.8v-16" class="ga_73"/>
<path d="M576.3 1114.6h9.8v-23.8H648v24h9.2l-39.5 11.1Z" class="gd_73"/>
<path d="M648 1106.8v8h9.2l-39.5 11.1l-41.4 -11.3h9.8v-23.8H648v16" class="ga_73"/>
<path d="M547.3 1212.2H498.8v-37H547v-5.8l14.6 24.7l-14.3 23.7Z" class="gd_73"/>
<path d="M547.3 1217.8l14.3 -23.7L547 1169.4v5.8m0 0H498.8v37h48.5v5.6" class="ga_73"/>
<path d="M547.3 948.1H498.8v-37H547v-5.9l14.6 24.7l-14.3 23.7Z" class="gd_73"/>
<path d="M547.3 953.6l14.3 -23.7L547 905.2v5.9m0 0H498.8v37h48.5v5.5" class="ga_73"/>
<path d="M292.4 929.9L307 905.2v5.9h48.3v37H306.8v5.5Z" class="gd_73"/>
<path d="M307 911.1v-5.9l-14.6 24.7l14.4 23.7m0 0v-5.5h48.5v-37H307" class="ga_73"/>
<path d="M293.3 1194.5l14.6 -24.7v5.9h48.3v37H307.7v5.5Z" class="gd_73"/>
<path d="M307.9 1175.7v-5.9l-14.6 24.7l14.4 23.7m0 0v-5.5h48.5v-37H307.9" class="ga_73"/>
<path d="M270.1 876.1l-1.3 3.4l-1.2 3.3l-1.2 3.1l-1.2 3.1l-1.3 2.9l-.6 1.4l-.6 1.4l-1.2 2.8l-.6 1.3l-.6 1.3l-.6 1.3l-.6 1.2L258 905l-.7 1.2l-.5 1.1l-1.2 2.2l-1.2 2l-.6 1l-.5 1l-1.2 1.9l-1.1 1.8l-.6 .8l-.6 .8l-1.1 1.5l-.6 .7l-.5 .7l-1.1 1.4l-1.2 1.1l-.5 .6l-.6 .5l-1.1 1l-1.1 .9l-1.1 .8l-1.1 .7l-1.1 .5l-1 .5l-1.1 .3l-1 .3H235l-.5 .1h-1l-1.1 -.1l-1 -.2l-1.1 -.3l-1 -.4l-1 -.6l-1 -.6l-.5 -.3l-.5 -.4l-1 -.8l-1 -1l-.5 -.5l-.6 -.6l-1 -1.1l-.5 -.7l-.4 -.6l-.5 -.7l-.5 -.7l-.9 -1.5l-.5 -.8l-.5 -.8l-.9 -1.7l-1 -1.8l-.5 -1l-.4 -1l-1 -2l-.4 -1.1l-.5 -1l-.5 -1.2l-.4 -1.1l-.9 -2.4l-.9 -2.5l-.9 -2.5l-.9 -2.7l-.5 -1.4l-.4 -1.4l-.9 -3l-.9 -2.9l-.9 -3.2l-.8 -3.2l-.9 -3.3l-.8 -3.5" class="gb_73"/>
<path d="M234.8 932.1l-.4 -.1l-.4 -.3l-.3 -.2l-.3 -.4l-.1 -.4l-.2 -.4v-.9l.2 -.4l.1 -.4l.3 -.3l.3 -.3l.4 -.2l.4 -.2h1l.4 .2l.3 .2l.4 .3l.3 .3l.2 .4l.1 .4v.9l-.1 .4l-.1 .2l-.1 .2l-.3 .4l-.4 .2l-.2 .1l-.1 .1v.1l-.4 .1h-.3l-.2 .1Z" class="gc_73"/>
<path d="M269.7 1140.2l-1.3 3.4l-1.2 3.3L266 1150l-1.2 3.1l-1.2 2.9l-.7 1.4l-.6 1.4l-1.2 2.7l-.6 1.4l-.5 1.3l-.6 1.2l-.6 1.3l-1.2 2.4l-.6 1.1l-.6 1.2l-1.2 2.2l-1.1 2l-.6 1l-.6 1l-1.2 1.8l-1.1 1.8l-.6 .9l-.5 .8l-1.2 1.5l-.6 .7l-.5 .7l-1.1 1.3l-1.2 1.2l-.5 .6l-.6 .5l-1.1 1l-1 .9l-1.2 .8l-1 .7l-1.1 .5l-1.1 .5l-1.1 .3l-1 .2l-.6 .1l-.5 .1h-1l-1.1 -.1l-1 -.2l-1.1 -.3l-1 -.4l-1 -.6l-1 -.6l-.5 -.3l-.5 -.4l-1 -.8l-1 -1l-.5 -.5l-.5 -.6l-1 -1.2l-.5 -.6l-.5 -.6l-.5 -.7l-.5 -.7l-.9 -1.5l-.5 -.8l-.5 -.8l-.9 -1.7l-1 -1.9l-.5 -.9l-.4 -1l-1 -2l-.4 -1.1l-.5 -1.1l-.4 -1.1l-.5 -1.1l-.9 -2.4l-.9 -2.5l-.9 -2.5l-.9 -2.7l-.5 -1.4l-.4 -1.4l-.9 -3l-.9 -2.9l-.9 -3.2l-.8 -3.2l-.9 -3.3l-.8 -3.5" class="gb_73"/>
<path d="M234.4 1196.2l-.4 -.1l-.4 -.3l-.3 -.2l-.3 -.4l-.1 -.4l-.2 -.4v-.9l.2 -.4l.1 -.4l.3 -.4l.3 -.3l.4 -.1l.4 -.2h1l.4 .2l.3 .1l.4 .3l.3 .4l.2 .4l.1 .4v.9l-.1 .4l-.1 .2l-.1 .2l-.3 .4l-.4 .2l-.2 .1l-.1 .1v.1l-.4 .1h-.5Z" class="gc_73"/>
<path d="M194.1 1114.6H204v-23.8h61.8v24H275l-39.5 11Z" class="gd_73"/>
<path d="M265.8 1106.8v8H275l-39.5 11l-41.4 -11.2H204v-23.8h61.8v16" class="ga_73"/>
<path d="M203.1 983V959.3h-9.8L234.6 948l39.6 11.1H265V983Z" class="gd_73"/>
<path d="M265 967v-7.9h9.2L234.6 948l-41.3 11.3h9.8V983H265V967" class="ga_73"/>
<image clip-path="url(#c1_73)" preserveAspectRatio="none" x="0" y="0" width="914" height="151" xlink:href="img/2.jpg"/>
<image clip-path="url(#c2_73)" preserveAspectRatio="none" x="23" y="153" width="1038" height="49" xlink:href="img/3.png"/>
</svg>