<?xml version="1.0" encoding="UTF-8" standalone="no"?>
<!DOCTYPE svg PUBLIC "-//W3C//DTD SVG 1.1//EN"
"http://www.w3.org/Graphics/SVG/1.1/DTD/svg11.dtd">
<svg viewBox="0 0 909 1286" version="1.1" xmlns="http://www.w3.org/2000/svg" xmlns:xlink="http://www.w3.org/1999/xlink">
<defs>
<clipPath id="c0_4"><path d="M-.2 1286.6v-75.1h910v75.1Z"/></clipPath>
<clipPath id="c1_4"><path d="M696.6 197.9V54.4H833.1V197.9Z"/></clipPath>
<style type="text/css"><![CDATA[
.g0_4{
fill: #000;
}
]]></style>
</defs>
<image clip-path="url(#c0_4)" preserveAspectRatio="none" x="-2" y="1212" width="930" height="127" xlink:href="img/1.jpg"/>
<path d="M111.6 401.4h36.6v-.9H111.6v.9Z" class="g0_4"/>
<path d="M144.9 425.2h36.7v-.9H144.9v.9Z" class="g0_4"/>
<path d="M547.4 425.2H584v-.9H547.4v.9Z" class="g0_4"/>
<path d="M821.9 425.2h36.7v-.9H821.9v.9Z" class="g0_4"/>
<path d="M165.6 693.4h36.6v-1H165.6v1Z" class="g0_4"/>
<path d="M651.9 717.2h36.7v-.9H651.9v.9Z" class="g0_4"/>
<image clip-path="url(#c1_4)" preserveAspectRatio="none" x="697" y="55" width="136" height="143" xlink:href="img/2.png"/>
<image preserveAspectRatio="none" x="43" y="90" width="57" height="57" xlink:href="img/3.jpg"/>
<image preserveAspectRatio="none" x="43" y="254" width="57" height="57" xlink:href="img/4.jpg"/>
<image preserveAspectRatio="none" x="720" y="232" width="125" height="116" xlink:href="img/5.jpg"/>
<image preserveAspectRatio="none" x="43" y="399" width="57" height="57" xlink:href="img/6.jpg"/>
<image preserveAspectRatio="none" x="43" y="545" width="57" height="57" xlink:href="img/7.jpg"/>
<image preserveAspectRatio="none" x="736" y="675" width="90" height="111" xlink:href="img/8.jpg"/>
<image preserveAspectRatio="none" x="43" y="691" width="57" height="57" xlink:href="img/9.jpg"/>
<image preserveAspectRatio="none" x="43" y="861" width="57" height="56" xlink:href="img/10.jpg"/>
</svg>