<?xml version="1.0" encoding="UTF-8" standalone="no"?>
<!DOCTYPE svg PUBLIC "-//W3C//DTD SVG 1.1//EN"
"http://www.w3.org/Graphics/SVG/1.1/DTD/svg11.dtd">
<svg viewBox="0 0 909 1286" version="1.1" xmlns="http://www.w3.org/2000/svg" xmlns:xlink="http://www.w3.org/1999/xlink">
<defs>
<clipPath id="c0_11"><path d="M-.2 1286.6v-74.9h910v74.9Z"/></clipPath>
<clipPath id="c1_11"><path d="M639.6 350.3v-93H857.2v93Z"/></clipPath>
<clipPath id="c2_11"><path d="M730.5 668V564.2H863.7V668Z"/></clipPath>
<style type="text/css"><![CDATA[
.g0_11{
fill: none;
stroke: #000;
stroke-width: 0.765;
stroke-linecap: square;
stroke-miterlimit: 10;
}
.g1_11{
fill: none;
stroke: #000;
stroke-width: 0.763;
stroke-linecap: square;
stroke-miterlimit: 10;
}
.g2_11{
fill: #000;
}
.g3_11{
fill: none;
stroke: #000;
stroke-width: 0.762;
stroke-linecap: square;
stroke-miterlimit: 10;
}
.g4_11{
fill: none;
stroke: #000;
stroke-width: 0.761;
stroke-linecap: square;
stroke-miterlimit: 10;
}
.g5_11{
fill: #FFF;
}
.g6_11{
fill: none;
stroke: #000;
stroke-width: 1.145;
stroke-linecap: round;
stroke-miterlimit: 8;
}
]]></style>
</defs>
<image clip-path="url(#c0_11)" preserveAspectRatio="none" x="-4" y="1212" width="952" height="131" xlink:href="img/1.jpg"/>
<path d="M296.5 74.2h23.2" class="g0_11"/>
<path d="M345.4 74h24.9" class="g1_11"/>
<path d="M395.9 74h24M192.5 101.7h24.1m102.4 .2h23.2" class="g0_11"/>
<path d="M368 101.7h24.9" class="g1_11"/>
<path d="M163.6 153.4h24" class="g0_11"/>
<path d="M582.3 153.4h24M162.5 181.3h24.9m117.2 0h24" class="g1_11"/>
<path d="M605 181.3h24.1m43.2 0h24.1" class="g0_11"/>
<path d="M517 256.4h25.2m17.5 27.8h25.2" class="g1_11"/>
<path d="M134.9 305.2h36.7v-.9H134.9v.9Z" class="g2_11"/>
<path d="M210.8 498.4h11.1m182.6 74.7h24.3" class="g1_11"/>
<path d="M445.1 573.1h24.5m62.6 0h24.4" class="g0_11"/>
<path d="M263.3 619.3h36.6v-.9H263.3v.9Z" class="g2_11"/>
<path d="M263.3 621.1h36.6v-.9H263.3v.9Z" class="g2_11"/>
<path d="M145.2 626h30.1" class="g1_11"/>
<path d="M200.2 626h26.3" class="g3_11"/>
<path d="M285.6 626h30.1" class="g1_11"/>
<path d="M332.6 626h22.3" class="g4_11"/>
<path d="M413.4 626h30.1" class="g1_11"/>
<path d="M468.4 626h26" class="g3_11"/>
<path d="M391.7 723.1h24m79.8 0H521m25 0h24.9" class="g1_11"/>
<path d="M119.7 751.1H143" class="g0_11"/>
<image preserveAspectRatio="none" x="43" y="96" width="57" height="56" xlink:href="img/2.jpg"/>
<path fill-rule="evenodd" d="M754 91.4l-24.6 62.4H833.6Z" class="g5_11"/>
<path d="M754 91.4l-24.6 62.4H833.6L754 91.4Z" class="g6_11"/>
<image clip-path="url(#c1_11)" preserveAspectRatio="none" x="640" y="258" width="217" height="92" xlink:href="img/3.jpg"/>
<image preserveAspectRatio="none" x="43" y="277" width="57" height="57" xlink:href="img/4.jpg"/>
<image preserveAspectRatio="none" x="43" y="446" width="57" height="56" xlink:href="img/5.jpg"/>
<image clip-path="url(#c2_11)" preserveAspectRatio="none" x="731" y="565" width="132" height="103" xlink:href="img/6.jpg"/>
<image preserveAspectRatio="none" x="43" y="593" width="57" height="56" xlink:href="img/7.jpg"/>
<image preserveAspectRatio="none" x="720" y="723" width="142" height="100" xlink:href="img/8.jpg"/>
<image preserveAspectRatio="none" x="43" y="745" width="57" height="56" xlink:href="img/9.jpg"/>
</svg>