<?xml version="1.0" encoding="UTF-8" standalone="no"?>
<!DOCTYPE svg PUBLIC "-//W3C//DTD SVG 1.1//EN"
"http://www.w3.org/Graphics/SVG/1.1/DTD/svg11.dtd">
<svg viewBox="0 0 909 1286" version="1.1" xmlns="http://www.w3.org/2000/svg" xmlns:xlink="http://www.w3.org/1999/xlink">
<defs>
<clipPath id="c0_10"><path d="M-.2 1286.6v-74.9h910v74.9Z"/></clipPath>
<clipPath id="c1_10"><path d="M696.3 547.7V461.4H852.7v86.3Z"/></clipPath>
<style type="text/css"><![CDATA[
.g0_10{
fill: none;
stroke: #000;
stroke-width: 0.764;
stroke-linecap: square;
stroke-miterlimit: 10;
}
.g1_10{
fill: none;
stroke: #000;
stroke-width: 0.76;
stroke-linecap: square;
stroke-miterlimit: 10;
}
.g2_10{
fill: none;
stroke: #000;
stroke-width: 0.763;
stroke-linecap: square;
stroke-miterlimit: 10;
}
.g3_10{
fill: none;
stroke: #000;
stroke-width: 0.761;
stroke-linecap: square;
stroke-miterlimit: 10;
}
.g4_10{
fill: none;
stroke: #000;
stroke-width: 0.766;
stroke-linecap: square;
stroke-miterlimit: 10;
}
.g5_10{
fill: none;
stroke: #000;
stroke-width: 0.767;
stroke-linecap: square;
stroke-miterlimit: 10;
}
.g6_10{
fill: none;
stroke: #000;
stroke-width: 0.77;
stroke-linecap: square;
stroke-miterlimit: 10;
}
.g7_10{
fill: none;
stroke: #000;
stroke-width: 0.723;
stroke-linecap: square;
stroke-miterlimit: 10;
}
.g8_10{
fill: #000;
}
.g9_10{
fill: none;
stroke: #000;
stroke-width: 0.721;
stroke-linecap: square;
stroke-miterlimit: 10;
}
.ga_10{
fill: none;
stroke: #000;
stroke-width: 0.765;
stroke-linecap: square;
stroke-miterlimit: 10;
}
.gb_10{
fill: none;
stroke: #000;
stroke-width: 0.907;
stroke-linecap: square;
stroke-miterlimit: 10;
}
.gc_10{
fill: none;
stroke: #000;
stroke-width: 0.904;
stroke-linecap: square;
stroke-miterlimit: 10;
}
.gd_10{
fill: none;
stroke: #000;
stroke-width: 0.902;
stroke-linecap: square;
stroke-miterlimit: 10;
}
.ge_10{
fill: none;
stroke: #000;
stroke-width: 0.911;
stroke-linecap: square;
stroke-miterlimit: 10;
}
]]></style>
</defs>
<image clip-path="url(#c0_10)" preserveAspectRatio="none" x="-4" y="1212" width="952" height="131" xlink:href="img/1.jpg"/>
<path d="M299.6 73.9h23.2m20.4 0h25m20.3 0h24.1" class="g0_10"/>
<path d="M370.7 101.7h24m120.7 -.3h23.1" class="g1_10"/>
<path d="M564.1 101.7h25" class="g2_10"/>
<path d="M159 152.8h23.9m395.4 0h23.9" class="g1_10"/>
<path d="M157.9 180.3h24.9" class="g2_10"/>
<path d="M300 180.3h23.9m280.9 0h24" class="g1_10"/>
<path d="M671.9 180.3h24" class="g3_10"/>
<path d="M295.7 254.9H321m17.8 0H363" class="g4_10"/>
<path d="M386.2 254.9h23.3m19.4 0h26.2" class="g5_10"/>
<path d="M172.7 306.2h25" class="g2_10"/>
<path d="M153.3 333.5h24M190 361.4h23.1m25.6 .3h24.2m163.6 -.4h24.2" class="g1_10"/>
<path d="M191.1 391.5h25.2" class="g2_10"/>
<path d="M241.5 390.3h23.9" class="g1_10"/>
<path d="M430.3 391.5h27" class="g5_10"/>
<path d="M168.7 469.9h25.2" class="g2_10"/>
<path d="M452.2 471.7l-.1 -.5l-.1 -.4l-.2 -.4l-.3 -.4l-.4 -.4l-.4 -.4l-.5 -.3l-.6 -.3l-.6 -.3l-.6 -.3l-.7 -.2l-.8 -.2l-1.6 -.2l-1.7 -.1l-1.8 .1l-1.6 .2l-.7 .2l-.7 .2l-.7 .3l-.6 .3l-.6 .3l-.5 .3l-.4 .4l-.3 .4l-.3 .4l-.2 .4l-.2 .4v.5" class="g6_10"/>
<path d="M568.9 471.6l-.2 -.9l-.5 -.7l-.8 -.8l-1 -.7l-1.3 -.6l-1.5 -.3l-1.4 -.2l-1.8 -.2l-1.6 .2l-1.7 .2l-1.4 .3l-1.3 .6l-1.1 .7l-.7 .8l-.5 .7l-.2 .9" class="g7_10"/>
<path d="M165.5 498.8v-.4l-.1 -.5l-.3 -.4l-.2 -.4l-.4 -.4l-.4 -.3l-.5 -.4l-.6 -.3l-.6 -.3l-.7 -.2l-.6 -.3l-.8 -.1l-1.6 -.3l-1.8 -.1l-1.7 .1l-1.6 .3l-.7 .1l-.7 .3l-.7 .2l-.6 .3l-.6 .3l-.5 .4l-.4 .3l-.3 .4l-.3 .4l-.2 .4l-.2 .5v.4" class="g6_10"/>
<path d="M201.6 498.8v-.4l-.2 -.5l-.2 -.4l-.3 -.4l-.3 -.4l-.4 -.3l-.5 -.4l-.6 -.3l-.6 -.3l-.7 -.2l-.7 -.3l-.7 -.1l-1.6 -.3l-1.8 -.1l-1.7 .1l-1.6 .3l-.7 .1l-.7 .3l-.7 .2l-.6 .3l-.6 .3l-.5 .4l-.4 .3l-.3 .4l-.3 .4l-.2 .4l-.2 .5v.4" class="g5_10"/>
<path d="M463.1 518.3h36.7v-.9H463.1v.9Z" class="g8_10"/>
<path d="M463.1 520.1h36.7v-.9H463.1v.9Z" class="g8_10"/>
<path d="M317.7 526.1l-.2 -.9l-.5 -.8l-.7 -.7l-1.1 -.7l-1.3 -.6l-1.4 -.4l-1.5 -.1l-1.8 -.2l-1.6 .2L306 522l-1.5 .4l-1.2 .6l-1.1 .7l-.8 .7l-.5 .8l-.2 .9" class="g7_10"/>
<path d="M481.3 524.6h24" class="g3_10"/>
<path d="M601.7 526.1l-.2 -.9l-.5 -.8l-.8 -.7l-1 -.7l-1.3 -.6l-1.4 -.4l-1.5 -.1l-1.8 -.2l-1.6 .2L590 522l-1.5 .4l-1.2 .6l-1.1 .7l-.8 .7l-.5 .8l-.2 .9" class="g9_10"/>
<path d="M192 552.1h23.9" class="g1_10"/>
<path d="M367.4 553.6l-.2 -.9l-.5 -.8l-.8 -.7l-1.1 -.7l-1.2 -.6l-1.5 -.4l-1.4 -.1l-1.8 -.2l-1.7 .2l-1.6 .1l-1.4 .4l-1.3 .6l-1.1 .7l-.7 .7l-.5 .8l-.2 .9" class="g7_10"/>
<path d="M526.9 552.1h24" class="g1_10"/>
<path d="M757.3 553.6l-.1 -.9l-.6 -.8l-.7 -.7l-1.1 -.7l-1.3 -.6l-1.4 -.4l-1.4 -.1l-1.9 -.2l-1.6 .2l-1.6 .1l-1.5 .4l-1.2 .6l-1.1 .7l-.7 .7l-.6 .8l-.2 .9" class="g7_10"/>
<path d="M523.7 626.8h22.2" class="g3_10"/>
<path d="M571 627h23.2" class="ga_10"/>
<path d="M619.9 626.8h22.3" class="g3_10"/>
<path d="M659 627h23.2M128.9 678.7h24.4m24.6 0h23.5m-47 27.8h23.3" class="ga_10"/>
<path d="M258.4 706.4h22.2" class="g3_10"/>
<path d="M162.5 734.2h23.2m-32.4 27.9h23.2" class="g2_10"/>
<path d="M167.1 860.7H192" class="gb_10"/>
<path d="M675.2 881.6h36.7v-.9H675.2v.9Z" class="g8_10"/>
<path d="M675.2 883.5h36.7v-.9H675.2v.9Z" class="g8_10"/>
<path d="M359 912.1h24.2" class="gc_10"/>
<path d="M444.4 912.1h23.1" class="gd_10"/>
<path d="M493.2 912.4h24" class="gc_10"/>
<path d="M542 912.4h24.2m24.5 -.3h23.4" class="gd_10"/>
<path d="M691.7 940h23.2" class="gc_10"/>
<path d="M738.1 940.3h24" class="gd_10"/>
<path d="M784.7 940.3H809" class="gc_10"/>
<path d="M831.3 940h23.3M686.8 976.1h23.1" class="gd_10"/>
<path d="M734.8 976.4h24" class="gc_10"/>
<path d="M783.1 976.4h24.2m24 -.3h23.3M556.8 1004h23.1" class="gd_10"/>
<path d="M597.3 1004.3h26.2" class="ge_10"/>
<path d="M685.7 1004h23.1" class="gc_10"/>
<path d="M734.1 1004.3H758" class="gd_10"/>
<path d="M782.5 1004.3h24.2" class="gc_10"/>
<path d="M831.3 1004h23.3" class="gd_10"/>
<image preserveAspectRatio="none" x="98" y="1029" width="101" height="103" xlink:href="img/2.jpg"/>
<image preserveAspectRatio="none" x="236" y="1027" width="104" height="105" xlink:href="img/3.jpg"/>
<image preserveAspectRatio="none" x="377" y="1031" width="102" height="101" xlink:href="img/4.jpg"/>
<image preserveAspectRatio="none" x="516" y="1045" width="101" height="87" xlink:href="img/5.jpg"/>
<image preserveAspectRatio="none" x="43" y="95" width="57" height="57" xlink:href="img/6.jpg"/>
<image preserveAspectRatio="none" x="668" y="67" width="185" height="107" xlink:href="img/7.jpg"/>
<image preserveAspectRatio="none" x="705" y="284" width="140" height="124" xlink:href="img/8.jpg"/>
<image preserveAspectRatio="none" x="43" y="273" width="57" height="56" xlink:href="img/9.jpg"/>
<image preserveAspectRatio="none" x="43" y="491" width="57" height="57" xlink:href="img/10.jpg"/>
<image clip-path="url(#c1_10)" preserveAspectRatio="none" x="697" y="462" width="155" height="85" xlink:href="img/11.jpg"/>
<image preserveAspectRatio="none" x="721" y="632" width="123" height="138" xlink:href="img/12.jpg"/>
<image preserveAspectRatio="none" x="43" y="647" width="57" height="56" xlink:href="img/13.jpg"/>
<image preserveAspectRatio="none" x="43" y="881" width="57" height="56" xlink:href="img/14.jpg"/>
</svg>