<?xml version="1.0" encoding="UTF-8" standalone="no"?>
<!DOCTYPE svg PUBLIC "-//W3C//DTD SVG 1.1//EN"
"http://www.w3.org/Graphics/SVG/1.1/DTD/svg11.dtd">
<svg viewBox="0 0 909 1286" version="1.1" xmlns="http://www.w3.org/2000/svg" xmlns:xlink="http://www.w3.org/1999/xlink">
<defs>
<clipPath id="c0_3"><path d="M-.2 1286.6v-74.9h910v74.9Z"/></clipPath>
<clipPath id="c1_3"><path d="M704.7 177.9V61.9h128v116Z"/></clipPath>
<clipPath id="c2_3"><path d="M718.3 558.9V509.3H866.6v49.6Z"/></clipPath>
<clipPath id="c3_3"><path d="M671.5 1064.4V925.1H811.7v139.3Z"/></clipPath>
<style type="text/css"><![CDATA[
.g0_3{
fill: none;
stroke: #000;
stroke-width: 0.761;
stroke-linecap: square;
stroke-miterlimit: 10;
}
.g1_3{
fill: none;
stroke: #000;
stroke-width: 0.763;
stroke-linecap: square;
stroke-miterlimit: 10;
}
.g2_3{
fill: none;
stroke: #000;
stroke-width: 0.765;
stroke-linecap: square;
stroke-miterlimit: 10;
}
.g3_3{
fill: none;
stroke: #000;
stroke-width: 0.907;
stroke-linecap: square;
stroke-miterlimit: 10;
}
.g4_3{
fill: none;
stroke: #000;
stroke-width: 0.152;
stroke-linecap: square;
stroke-miterlimit: 10;
}
.g5_3{
fill: #000;
}
]]></style>
</defs>
<image clip-path="url(#c0_3)" preserveAspectRatio="none" x="-4" y="1212" width="952" height="131" xlink:href="img/1.jpg"/>
<path d="M306 357.6h22.3" class="g0_3"/>
<path d="M110.5 409.3h29.1" class="g1_3"/>
<path d="M187.9 505.4h23.3" class="g2_3"/>
<path d="M236.9 505.3h24.9M373.9 557h24.9M211.4 584.7h24.9m218 0h24.9" class="g1_3"/>
<path d="M312.8 1085.6H336" class="g3_3"/>
<path d="M458.1 1097.7l1.9 -1m0 0l4.4 7.2m0 0l4.9 -19.1m0 0h10.5" class="g4_3"/>
<path d="M464 1103.9l-4.5 -6.6l-1.2 .7l-.3 -.5l2.5 -1.4l4 5.9l4.4 -17.7h10.9v1H469.6l-4.7 18.6Z" class="g5_3"/>
<path d="M523.7 1085.6h25.2" class="g3_3"/>
<path d="M146.8 1150l1.9 -1m0 0l4.4 7.2m0 0l4.9 -19.1m0 0h10.5" class="g4_3"/>
<path d="M152.7 1156.2l-4.5 -6.6l-1.3 .7l-.2 -.5l2.5 -1.4l4 5.9l4.4 -17.6h10.9v.9H158.3l-4.7 18.6Z" class="g5_3"/>
<path d="M145.2 1161.7H170" class="g3_3"/>
<path d="M230.8 1150l1.9 -1m0 0l4.4 7.2m0 0l4.8 -19.1m0 0h10.6" class="g4_3"/>
<path d="M236.6 1156.2l-4.4 -6.6l-1.3 .7l-.3 -.5l2.5 -1.4l4 5.9l4.5 -17.6h10.9v.9H242.3l-4.8 18.6Z" class="g5_3"/>
<path d="M229.2 1161.7h24.7" class="g3_3"/>
<path d="M322.7 1161.5l1.9 -1m0 0l4.4 7.2m0 0l4.9 -19.1m0 0h10.6" class="g4_3"/>
<path d="M328.6 1167.7l-4.4 -6.6l-1.3 .7l-.3 -.5l2.5 -1.4l4 5.9l4.5 -17.6h10.9v.9H334.2l-4.7 18.6Z" class="g5_3"/>
<path d="M412.7 1161.5l1.9 -1m0 0l4.4 7.2m0 0l4.9 -19.1m0 0h10.5" class="g4_3"/>
<path d="M418.6 1167.7l-4.5 -6.6l-1.2 .7l-.3 -.5l2.5 -1.4l4 5.9l4.5 -17.6h10.8v.9H424.2l-4.7 18.6Z" class="g5_3"/>
<image preserveAspectRatio="none" x="43" y="90" width="57" height="57" xlink:href="img/2.jpg"/>
<image clip-path="url(#c1_3)" preserveAspectRatio="none" x="705" y="62" width="127" height="116" xlink:href="img/3.jpg"/>
<image clip-path="url(#c2_3)" preserveAspectRatio="none" x="719" y="510" width="147" height="49" xlink:href="img/4.jpg"/>
<image preserveAspectRatio="none" x="43" y="526" width="57" height="56" xlink:href="img/5.jpg"/>
<image preserveAspectRatio="none" x="43" y="679" width="57" height="56" xlink:href="img/6.jpg"/>
<image preserveAspectRatio="none" x="735" y="650" width="133" height="123" xlink:href="img/7.jpg"/>
<image preserveAspectRatio="none" x="43" y="833" width="57" height="57" xlink:href="img/8.jpg"/>
<image preserveAspectRatio="none" x="43" y="954" width="57" height="57" xlink:href="img/9.jpg"/>
<image clip-path="url(#c3_3)" preserveAspectRatio="none" x="672" y="925" width="139" height="139" xlink:href="img/10.jpg"/>
<image preserveAspectRatio="none" x="724" y="211" width="84" height="114" xlink:href="img/11.jpg"/>
<image preserveAspectRatio="none" x="43" y="235" width="57" height="57" xlink:href="img/12.jpg"/>
<image preserveAspectRatio="none" x="43" y="377" width="57" height="56" xlink:href="img/13.jpg"/>
<image preserveAspectRatio="none" x="632" y="360" width="224" height="102" xlink:href="img/14.jpg"/>
<image preserveAspectRatio="none" x="743" y="1074" width="58" height="123" xlink:href="img/15.jpg"/>
<image preserveAspectRatio="none" x="43" y="1105" width="57" height="56" xlink:href="img/16.jpg"/>
</svg>