<?xml version="1.0" encoding="UTF-8" standalone="no"?>
<!DOCTYPE svg PUBLIC "-//W3C//DTD SVG 1.1//EN"
"http://www.w3.org/Graphics/SVG/1.1/DTD/svg11.dtd">
<svg viewBox="0 0 909 1286" version="1.1" xmlns="http://www.w3.org/2000/svg" xmlns:xlink="http://www.w3.org/1999/xlink">
<defs>
<clipPath id="c0_3"><path d="M0 1286.3v-57.1H909.5v57.1Z"/></clipPath>
<style type="text/css"><![CDATA[
.g0_3{
fill: #CFC;
}
.g1_3{
fill: #70AD47;
}
.g2_3{
fill: #CFF;
}
.g3_3{
fill: none;
stroke: #000;
stroke-width: 1.245;
stroke-linecap: square;
stroke-miterlimit: 10;
}
.g4_3{
fill: none;
stroke: #F00;
stroke-width: 1.245;
stroke-linecap: square;
stroke-miterlimit: 10;
}
.g5_3{
fill: none;
stroke: #000;
stroke-width: 1.232;
stroke-linecap: square;
stroke-miterlimit: 10;
}
.g6_3{
fill: none;
stroke: #F00;
stroke-width: 1.232;
stroke-linecap: square;
stroke-miterlimit: 10;
}
.g7_3{
fill: #FFC;
}
.g8_3{
fill: none;
stroke: #000;
stroke-width: 1.242;
stroke-linecap: square;
stroke-miterlimit: 10;
}
.g9_3{
fill: none;
stroke: #F00;
stroke-width: 1.242;
stroke-linecap: square;
stroke-miterlimit: 10;
}
.ga_3{
fill: #FCF;
}
.gb_3{
fill: none;
stroke: #000;
stroke-width: 1.233;
stroke-linecap: square;
stroke-miterlimit: 10;
}
.gc_3{
fill: none;
stroke: #F00;
stroke-width: 1.233;
stroke-linecap: square;
stroke-miterlimit: 10;
}
.gd_3{
fill: #9CF;
}
.ge_3{
fill: none;
stroke: #000;
stroke-width: 1.236;
stroke-linecap: square;
stroke-miterlimit: 10;
}
.gf_3{
fill: none;
stroke: #F00;
stroke-width: 1.236;
stroke-linecap: square;
stroke-miterlimit: 10;
}
.gg_3{
fill: #FC9;
}
.gh_3{
fill: none;
stroke: #000;
stroke-width: 1.24;
stroke-linecap: square;
stroke-miterlimit: 10;
}
.gi_3{
fill: none;
stroke: #F00;
stroke-width: 1.24;
stroke-linecap: square;
stroke-miterlimit: 10;
}
.gj_3{
fill: #F0F0FF;
}
.gk_3{
fill: #FFEAFF;
}
.gl_3{
fill: #FFFFE3;
}
.gm_3{
fill: none;
stroke: #000;
stroke-width: 0.551;
stroke-linecap: square;
stroke-miterlimit: 10;
}
.gn_3{
fill: #B3E7FF;
}
.go_3{
fill: none;
stroke: #6CF;
stroke-width: 0.551;
stroke-linecap: square;
stroke-miterlimit: 10;
}
.gp_3{
fill: none;
stroke: #FC9;
stroke-width: 0.551;
stroke-linecap: square;
stroke-miterlimit: 10;
}
.gq_3{
fill: none;
stroke: #F9F;
stroke-width: 0.551;
stroke-linecap: square;
stroke-miterlimit: 10;
}
.gr_3{
fill: #060;
}
.gs_3{
fill: none;
stroke: #060;
stroke-width: 1.669;
stroke-linecap: square;
stroke-miterlimit: 10;
}
.gt_3{
fill: none;
stroke: #060;
stroke-width: 0.551;
stroke-linecap: square;
stroke-miterlimit: 10;
}
]]></style>
</defs>
<image clip-path="url(#c0_3)" preserveAspectRatio="none" x="-2" y="1229" width="930" height="128" xlink:href="img/1.jpg"/>
<path fill-rule="evenodd" d="M71.1 99h74.3V71.5H71.1V99Z" class="g0_3"/>
<path d="M79 99h58.5V71.5H79V99Z" class="g0_3"/>
<path fill-rule="evenodd" d="M146.1 99H262.4V71.5H146.1V99Z" class="g0_3"/>
<path d="M154 99H254.5V71.5H154V99Z" class="g0_3"/>
<path fill-rule="evenodd" d="M263.1 99h90.5V71.5H263.1V99Z" class="g0_3"/>
<path d="M271 99h74.8V71.5H271V99Z" class="g0_3"/>
<path fill-rule="evenodd" d="M354.4 99H436V71.5H354.4V99Z" class="g0_3"/>
<path d="M362.3 99h65.8V71.5H362.3V99Z" class="g0_3"/>
<path fill-rule="evenodd" d="M436.9 99H517V71.5H436.9V99Z" class="g0_3"/>
<path d="M444.6 99h64.5V71.5H444.6V99Z" class="g0_3"/>
<path fill-rule="evenodd" d="M517.7 99H647.2V71.5H517.7V99Z" class="g0_3"/>
<path d="M525.6 99H639.3V71.5H525.6V99Z" class="g0_3"/>
<path fill-rule="evenodd" d="M647.9 99H760.1V71.5H647.9V99Z" class="g0_3"/>
<path d="M655.8 99h96.4V71.5H655.8V99Z" class="g0_3"/>
<path fill-rule="evenodd" d="M760.8 99H874.1V71.5H760.8V99Z" class="g0_3"/>
<path d="M768.7 99h97.6V71.5H768.7V99Z" class="g0_3"/>
<path d="M70.4 71.5h.7v-.7h-.7v.7Z" class="g1_3"/>
<path d="M70.4 71.5h.7v-.7h-.7v.7Z" class="g1_3"/>
<path d="M71.1 71.5h74.3v-.7H71.1v.7Z" class="g1_3"/>
<path d="M145.4 71.5h.7v-.7h-.7v.7Z" class="g1_3"/>
<path d="M146.1 71.5H262.4v-.7H146.1v.7Z" class="g1_3"/>
<path d="M262.4 71.5h.7v-.7h-.7v.7Z" class="g1_3"/>
<path d="M263.1 71.5h90.5v-.7H263.1v.7Z" class="g1_3"/>
<path d="M353.6 71.5h.8v-.7h-.8v.7Z" class="g1_3"/>
<path d="M354.4 71.5H436v-.7H354.4v.7Z" class="g1_3"/>
<path d="M436 71.5h.7v-.7H436v.7Z" class="g1_3"/>
<path d="M436.7 71.5H517v-.7H436.7v.7Z" class="g1_3"/>
<path d="M517 71.5h.7v-.7H517v.7Z" class="g1_3"/>
<path d="M517.7 71.5H647v-.7H517.7v.7Z" class="g1_3"/>
<path d="M647 71.5h.7v-.7H647v.7Z" class="g1_3"/>
<path d="M647.7 71.5H760.1v-.7H647.7v.7Z" class="g1_3"/>
<path d="M760.1 71.5h.7v-.7h-.7v.7Z" class="g1_3"/>
<path d="M760.8 71.5H873.9v-.7H760.8v.7Z" class="g1_3"/>
<path d="M873.9 71.5h.8v-.7h-.8v.7Z" class="g1_3"/>
<path d="M873.9 71.5h.8v-.7h-.8v.7Z" class="g1_3"/>
<path d="M70.4 99h.7V71.5h-.7V99Z" class="g1_3"/>
<path d="M145.4 99h.7V71.5h-.7V99Z" class="g1_3"/>
<path d="M262.4 99h.7V71.5h-.7V99Z" class="g1_3"/>
<path d="M353.6 99h.8V71.5h-.8V99Z" class="g1_3"/>
<path d="M436 99h.7V71.5H436V99Z" class="g1_3"/>
<path d="M517 99h.7V71.5H517V99Z" class="g1_3"/>
<path d="M647 99h.7V71.5H647V99Z" class="g1_3"/>
<path d="M760.1 99h.7V71.5h-.7V99Z" class="g1_3"/>
<path d="M873.9 99h.8V71.5h-.8V99Z" class="g1_3"/>
<path fill-rule="evenodd" d="M71.1 198.2h74.3V99.9H71.1v98.3Z" class="g0_3"/>
<path fill-rule="evenodd" d="M79 162.8h58.5V135.3H79v27.5Z" class="g0_3"/>
<path d="M160.4 168.4l43.2 -40.3l.1 .1v40.2Z" class="g2_3"/>
<path d="M203.7 168.4V128.2L247 168.4Z" class="g2_3"/>
<path d="M203.6 128.1l-43.2 40.3H247L203.7 128.2l-.1 -.1" class="g3_3"/>
<path d="M203.7 177v-2.6m0 -2.6v-2.5m0 -2.6v-2.6m0 -2.5V159m0 -2.6v-2.6m0 -2.5v-2.6m0 -2.5v-2.6m0 -2.6v-2.5m0 -2.6v-2.6m0 -2.6v-2.5m0 -2.6V123" class="g4_3"/>
<path d="M306.1 123.3h24.3v.4l-24.3 25.1Z" class="g0_3"/>
<path d="M306.1 149.8v-1l24.3 -25.1v26.1Z" class="g0_3"/>
<path d="M306.1 150.5v-.7h24.3V175Z" class="g0_3"/>
<path d="M305.4 149.8h.7v.7Z" class="g0_3"/>
<path d="M305.4 149.8l-.1 -.2l.8 -.8v1Z" class="g0_3"/>
<path d="M280.4 124.3v-1h25.7v25.5l-.8 .8Z" class="g0_3"/>
<path d="M280.8 175l24.4 -25.2h.2l.7 .7V175Z" class="g0_3"/>
<path d="M305.2 149.8l.1 -.2l.1 .2Z" class="g0_3"/>
<path d="M280.4 149.8V124.3l24.9 25.3l-.1 .2Z" class="g0_3"/>
<path d="M306.1 175V150.5L330.4 175Z" class="g0_3"/>
<path d="M280.4 175V149.8h24.8L280.8 175Z" class="g0_3"/>
<path d="M306.1 123.3H280.4V175h50V123.3H306.1" class="g5_3"/>
<path d="M306.1 148.8v-2.6m0 -2.6v-2.5m0 -2.6V136m0 -2.6v-2.6m0 -2.6v-2.5m0 -2.6v-2.6m0 -2.5v-2.6m0 35.1v-.7m0 0v-1m0 1h-.7m.7 -1l-.8 .8m.8 .9l-.7 -.7m0 0h-.2m.1 -.2l-.1 .2m.2 0l-.1 -.2m.8 34.2v-2.6m0 -2.5v-2.6m0 -2.6v-2.6m0 -2.6v-2.5m0 -2.6v-2.6m0 -2.6v-2.5m0 -2.6v-2.4m29.5 29.9l-1.7 -1.8m-1.7 -1.8L330.4 175m-1.8 -1.8l-1.7 -1.8m-1.8 -1.8l-1.7 -1.8M321.7 166l-1.8 -1.8m-1.7 -1.8l-1.7 -1.8m-1.8 -1.8L312.8 157m-1.7 -1.8l-1.9 -1.8m-1.8 -1.8l-1.3 -1.1m35.1 -.7h-2.5m-2.5 0h-2.4m-2.5 0h-2.4m-2.5 0h-2.5m-2.5 0h-2.5m-2.4 0H314m-2.5 0H309m-2.5 0h-.4m29.2 -31.2l-1.7 1.8m-1.8 1.8l-1.4 1.5l-.3 .3m-1.7 1.8l-1.8 1.8m-1.7 1.8l-1.8 1.8m-1.7 1.8l-1.7 1.8m-1.8 1.8l-1.7 1.8m-1.7 1.8l-1.8 1.8m-1.7 1.8l-1.8 1.8m-1.7 1.8l-1.4 1.4m-.9 1h-2.5m-2.5 0h-2.4m-2.5 0h-2.5m-2.5 0h-2.5m-2.5 0h-2.5m-2.4 0h-2.5m-2.5 0h-1.2m31 0l-1.7 1.7m-1.8 1.9l-1.7 1.8m-1.7 1.7l-1.8 1.9m-1.7 1.7l-1.8 1.9m-1.7 1.7l-1.7 1.8m-1.8 1.9l-1.7 1.7m-1.7 1.9l-1.8 1.7m-1.9 2l-1.8 1.8m-1.8 1.9l-.5 .5m28.7 -29.7l-1.7 -1.8M301.8 146l-1.7 -1.8m-1.7 -1.8l-1.8 -1.8m-1.7 -1.8l-1.7 -1.7m-1.8 -1.9l-1.7 -1.8m-1.8 -1.8l-1.8 -1.8m-1.9 -1.7l-1.9 -1.9m-1.8 -1.8l-.1 -.1l-1.6 -1.7M277 120.8l-1.6 -1.6" class="g6_3"/>
<path d="M393.4 149V110.6l.5 -.8L418.4 149Z" class="g7_3"/>
<path d="M369.3 149.2l.1 -.2h24v38.8Z" class="g7_3"/>
<path d="M393.4 187.8V149h25l.1 .2l-24.6 39.3Z" class="g7_3"/>
<path d="M369.4 149l24 -38.4V149Z" class="g7_3"/>
<path d="M393.4 110.6l-24 38.4l-.1 .2l24.1 38.6l.5 .7l24.6 -39.3l-.1 -.2L393.9 109.8l-.5 .8" class="g8_3"/>
<path d="M393.4 149h-2.5m-2.5 0h-2.5m-2.5 0h-2.5m-2.5 0h-2.5m-2.5 0h-2.6m-2.5 0h-2.5m27.6 45.1v-2.6m0 -2.6v-2.6m0 -2.5v-2.6m0 -2.6V176m0 -2.5v-2.6m0 -2.6v-2.5m0 -2.6v-2.6m0 -2.6v-2.5m0 -2.6v-2.6M423.8 149h-2.5m-2.5 0h-2.5m-2.6 0h-2.4m-2.6 0h-2.4m-2.6 0h-2.5m-2.5 0h-2.5m-2.5 0h-.3m0 0v-2.5m0 -2.6v-2.6m0 -2.5v-2.6m0 -2.6V131m0 -2.5v-2.6m0 -2.6v-2.6m0 -2.5v-2.6m0 -2.6v-2.5m0 -2.6v-2.6" class="g9_3"/>
<path d="M452 136.6l24.7 -25.8l.1 .1l-1.1 71.2Z" class="ga_3"/>
<path d="M475.7 182.1l1.1 -71.2l23.9 25.7l-24.6 46.3Z" class="ga_3"/>
<path d="M476.7 110.8L452 136.6l23.7 45.5l.4 .8l24.6 -46.3L476.8 110.9l-.1 -.1" class="gb_3"/>
<path d="M475.6 190v-2.5m0 -2.6l.1 -2.6m0 -2.6v-2.6m0 -2.5V172m0 -2.5v-2.6m0 -2.6v-2.5m0 -2.6v-2.6m.1 -2.5v-2.6m.1 -2.6v-2.5m.1 -2.6v-2.5m.1 -2.6v-2.6m.2 -2.5V131m.1 -2.6v-2.5m.1 -2.6v-2.5m.1 -2.6v-2.6m.2 -2.5v-2.5m0 -2.5V107" class="gc_3"/>
<path d="M548.8 174.6l8.7 -52.4h24v52.4Z" class="gd_3"/>
<path d="M581.5 174.6V122.2h25.9l7.5 52.4Z" class="gd_3"/>
<path d="M557.5 122.2l-8.7 52.4h66.1l-7.5 -52.4H557.5" class="ge_3"/>
<path d="M581.5 181v-2.6m0 -2.6v-2.5m0 -2.6v-2.5m0 -2.6V163m0 -2.6v-2.5m0 -2.6v-2.6m0 -2.5v-2.6m0 -2.6v-2.5m0 -2.6v-2.6m0 -2.6v-2.5m0 -2.6v-2.5m0 -2.6v-2.6m0 -2.6v-2.6" class="gf_3"/>
<path d="M703.4 149.2h36.9v24.1H703.4V149.2Z" class="gg_3"/>
<path d="M665.6 149.2h37.8v24.1H665.6V149.2Z" class="gg_3"/>
<path d="M703.4 122.5h36.9v26.7H703.4V122.5Z" class="gg_3"/>
<path d="M665.6 122.5h37.8v26.7H665.6V122.5Z" class="gg_3"/>
<path d="M740.3 149.2V122.5H665.6v50.8h74.7V149.2" class="gh_3"/>
<path d="M703.4 179v-2.5m0 -2.5v-2.6m0 -2.5v-2.5m0 -2.6v-2.6m0 -2.5v-2.5m0 -2.6v-2.5m44.4 -1.9h-2.5m-2.5 0h-2.5m-2.5 0h-2.5m-2.5 0h-2.5m-2.5 0h-2.5m-2.5 0h-2.5m-2.5 0h-2.5m-2.5 0h-2.5m-2.5 0h-2.5m-1.9 0h-2.5m-2.5 0h-2.5m-2.5 0h-2.5m-2.5 0h-2.5m-2.5 0h-2.5m-2.5 0h-2.5m-2.5 0h-2.5m-2.5 0h-2.5m-2.5 0h-2.5m42.5 0v-2.6m0 -2.5v-2.6m0 -2.5v-2.6m0 -2.5v-2.5m0 -2.6v-2.5m0 -2.6v-2.5m0 -2.6v-.9" class="gi_3"/>
<path d="M817.3 119.4h16.1l.2 .3l-15.7 27.7l-.6 .3Z" class="gj_3"/>
<path d="M800.8 120l.4 -.6h16.1v28.3l-.5 .3Z" class="gj_3"/>
<path d="M817.2 148.7v-.2h.1v.4Z" class="gj_3"/>
<path d="M817.2 148.5l.1 -.1v.1Z" class="gj_3"/>
<path d="M817.3 148.5v-.1h32l-8.1 14.1Z" class="gj_3"/>
<path d="M832.8 176.2L817.3 148.9v-.4l23.9 14l-7.8 13.7Z" class="gj_3"/>
<path d="M817.3 147.7l.6 -.3l-.6 1Z" class="gj_3"/>
<path d="M817 148.4l-.2 -.4l.5 -.3v.7Z" class="gj_3"/>
<path d="M817.3 148.4l.6 -1l23.6 -13.8l8.1 14.2l-.3 .6Z" class="gj_3"/>
<path d="M817 148.4h.3l-.1 .1Z" class="gj_3"/>
<path d="M816.2 148.4l.4 -.3l.4 .3Z" class="gj_3"/>
<path d="M816.6 148.1l.2 -.1l.2 .4Z" class="gj_3"/>
<path d="M785.4 148.4l-.3 -.6l7.7 -13.7l23.8 14l-.4 .3Z" class="gj_3"/>
<path d="M792.8 134.1l8 -14.1l16 28l-.2 .1Z" class="gj_3"/>
<path d="M801.2 176.2L793.1 162l23.1 -13.6h.8l.2 .3l-15.7 27.5Z" class="gj_3"/>
<path d="M817 148.4l.2 .1v.2Z" class="gj_3"/>
<path d="M801.5 176.2l15.7 -27.5l.1 .2v27.3Z" class="gj_3"/>
<path d="M833.6 119.7l7.9 13.9l-23.6 13.8Z" class="gj_3"/>
<path d="M817.3 176.2V148.9l15.5 27.3Z" class="gj_3"/>
<path d="M785.4 148.4h30.8L793.1 162Z" class="gj_3"/>
<path d="M833.4 119.4H801.2l-.4 .6l-8 14.1l-7.7 13.7l.3 .6l7.7 13.6l8.1 14.2h32.2l7.8 -13.7l8.1 -14.1l.3 -.6l-8.1 -14.2l-7.9 -13.9l-.2 -.3" class="g8_3"/>
<path d="M817.9 147.4l1.2 -2.2m1.3 -2.1l1.2 -2.2m1.3 -2.2l1.2 -2.1m1.3 -2.2l1.3 -2.2m1.2 -2.2l1.2 -2.1m1.3 -2.3l1.3 -2.3m1.1 -2.2l.8 -1.4l.6 -1m-16.9 29v-2.5m0 -2.6v-2.5m0 -2.6V135m0 -2.6v-2.5m0 -2.6v-2.5m0 -2.6v-2.5m0 -2.5v-2.5m-.5 33.3l-1.2 -2.1m-1.3 -2.2l-1.2 -2.2m-1.3 -2.1l-1.3 -2.2M809.3 135l-1.2 -2.1m-1.3 -2.3l-1.3 -2.1m-1.2 -2.2L803.1 124m-1.3 -2.3l-1 -1.7l-.3 -.7m16.7 29.2h.1m0 0v-.1m0 .5v-.4m0 -.1v-.7m0 .7l.6 -1m-.7 1.1l.1 -.1m0 -.7l.6 -.3m-1.3 .7l.4 .3m-.8 0l.4 -.3m0 0l.2 -.1m-.6 .4h.8m.2 .3l-.2 -.3m0 0l-.2 -.4m.5 .9l-.1 -.2m-.4 -.7l.5 -.3m-.3 .7l.2 .1m0 .2v-.2m-.2 -.1h.3m.6 -1l2.1 -1.3m2.1 -1.2l2.2 -1.3m2.1 -1.3l2.1 -1.3m2.2 -1.3l2.1 -1.2m2.2 -1.3l2.1 -1.2m2.3 -1.1l2.1 -1.3l.2 -.1m2.2 -1.3l2.2 -1.3m-28.8 17.5h2.5m2.5 0h2.5m2.5 0h2.5m2.5 0h2.6m2.4 0h2.6m2.4 0h2.6m2.5 0h2.5m-16.3 29.2l-.8 -1.4l-.5 -.9m-1.2 -2.1L829.8 171m-1.2 -2.1l-1.3 -2.2m-1.2 -2.2l-1.3 -2.1m-1.2 -2.2L822.3 158m-1.2 -2.2l-1.3 -2.2m-1.2 -2.3l-1.3 -2.4m0 -.4l2.1 1.3m2.2 1.3l2.1 1.3m2.1 1.2l2.2 1.3m2.1 1.3l2.1 1.3m2.2 1.2l2.2 1.3m2.3 1.3l2.2 1.1m2.3 1.4l2.1 1.3m2.2 1.3l.2 .1m-47.2 11.1l.8 -1.4l.5 -.8m1.2 -2.2l1.3 -2.1m1.2 -2.2l1.3 -2.2m1.2 -2.1l1.3 -2.2m1.3 -2.2l1.2 -2.1m1.2 -2.2l1.3 -2.3m1.2 -2.3l1.2 -2.1m.4 33.8v-2.5m0 -2.5v-2.6m0 -2.5v-2.6m0 -2.5v-2.6m0 -2.5v-2.6m0 -2.5V155m0 -2.5V150M788.8 131.8l2.1 1.3m2.3 1.2l2.1 1.3m2.2 1.3l2.1 1.3m2.1 1.3l2.2 1.2M806 142l2.1 1.2m2.2 1.3l2.2 1.3m2.3 1.3l1.8 1m-33.6 .3h2.4m2.5 0h2.5m2.5 0h2.5m2.5 0h2.5m2.5 0h2.5m2.5 0h2.5m2.5 0h2.5M788 165l2.1 -1.3m2.1 -1.2l.9 -.5l1.4 -.8m2.1 -1.3l2.1 -1.3m2.1 -1.2l2.2 -1.3m2.1 -1.3l2.1 -1.2m2.2 -1.3l2.2 -1.3m2.1 -1.3l2.1 -1.2" class="g9_3"/>
<path d="M70.4 99.7h.7V99h-.7v.7Z" class="g1_3"/>
<path d="M71.1 99.7h74.3V99H71.1v.7Z" class="g1_3"/>
<path d="M145.4 99.7h.7V99h-.7v.7Z" class="g1_3"/>
<path d="M146.1 99.7H262.4V99H146.1v.7Z" class="g1_3"/>
<path d="M262.4 99.7h.7V99h-.7v.7Z" class="g1_3"/>
<path d="M263.1 99.7h90.5V99H263.1v.7Z" class="g1_3"/>
<path d="M353.6 99.7h.8V99h-.8v.7Z" class="g1_3"/>
<path d="M354.4 99.7H436V99H354.4v.7Z" class="g1_3"/>
<path d="M436 99.7h.7V99H436v.7Z" class="g1_3"/>
<path d="M436.7 99.7H517V99H436.7v.7Z" class="g1_3"/>
<path d="M517 99.7h.7V99H517v.7Z" class="g1_3"/>
<path d="M517.7 99.7H647V99H517.7v.7Z" class="g1_3"/>
<path d="M647 99.7h.7V99H647v.7Z" class="g1_3"/>
<path d="M647.7 99.7H760.1V99H647.7v.7Z" class="g1_3"/>
<path d="M760.1 99.7h.7V99h-.7v.7Z" class="g1_3"/>
<path d="M760.8 99.7H873.9V99H760.8v.7Z" class="g1_3"/>
<path d="M873.9 99.7h.8V99h-.8v.7Z" class="g1_3"/>
<path d="M70.4 198.2h.7V99.7h-.7v98.5Z" class="g1_3"/>
<path d="M145.4 198.2h.7V99.7h-.7v98.5Z" class="g1_3"/>
<path d="M262.4 198.2h.7V99.7h-.7v98.5Z" class="g1_3"/>
<path d="M353.6 198.2h.8V99.7h-.8v98.5Z" class="g1_3"/>
<path d="M436 198.2h.7V99.7H436v98.5Z" class="g1_3"/>
<path d="M517 198.2h.7V99.7H517v98.5Z" class="g1_3"/>
<path d="M647 198.2h.7V99.7H647v98.5Z" class="g1_3"/>
<path d="M760.1 198.2h.7V99.7h-.7v98.5Z" class="g1_3"/>
<path d="M873.9 198.2h.8V99.7h-.8v98.5Z" class="g1_3"/>
<path fill-rule="evenodd" d="M71.1 226.4h74.3V198.9H71.1v27.5Z" class="g0_3"/>
<path d="M79 226.4h58.5V198.9H79v27.5Z" class="g0_3"/>
<path d="M70.4 198.9h.7v-.7h-.7v.7Z" class="g1_3"/>
<path d="M71.1 198.9h74.3v-.7H71.1v.7Z" class="g1_3"/>
<path d="M145.4 198.9h.7v-.7h-.7v.7Z" class="g1_3"/>
<path d="M146.1 198.9H262.4v-.7H146.1v.7Z" class="g1_3"/>
<path d="M262.4 198.9h.7v-.7h-.7v.7Z" class="g1_3"/>
<path d="M263.1 198.9h90.5v-.7H263.1v.7Z" class="g1_3"/>
<path d="M353.6 198.9h.8v-.7h-.8v.7Z" class="g1_3"/>
<path d="M354.4 198.9H436v-.7H354.4v.7Z" class="g1_3"/>
<path d="M436 198.9h.7v-.7H436v.7Z" class="g1_3"/>
<path d="M436.7 198.9H517v-.7H436.7v.7Z" class="g1_3"/>
<path d="M517 198.9h.7v-.7H517v.7Z" class="g1_3"/>
<path d="M517.7 198.9H647v-.7H517.7v.7Z" class="g1_3"/>
<path d="M647 198.9h.7v-.7H647v.7Z" class="g1_3"/>
<path d="M647.7 198.9H760.1v-.7H647.7v.7Z" class="g1_3"/>
<path d="M760.1 198.9h.7v-.7h-.7v.7Z" class="g1_3"/>
<path d="M760.8 198.9H873.9v-.7H760.8v.7Z" class="g1_3"/>
<path d="M873.9 198.9h.8v-.7h-.8v.7Z" class="g1_3"/>
<path d="M70.4 226.6h.7V198.9h-.7v27.7Z" class="g1_3"/>
<path d="M70.4 227.3h.7v-.7h-.7v.7Z" class="g1_3"/>
<path d="M70.4 227.3h.7v-.7h-.7v.7Z" class="g1_3"/>
<path d="M71.1 227.3h74.3v-.7H71.1v.7Z" class="g1_3"/>
<path d="M145.4 226.6h.7V198.9h-.7v27.7Z" class="g1_3"/>
<path d="M145.4 227.3h.7v-.7h-.7v.7Z" class="g1_3"/>
<path d="M146.1 227.3H262.4v-.7H146.1v.7Z" class="g1_3"/>
<path d="M262.4 226.6h.7V198.9h-.7v27.7Z" class="g1_3"/>
<path d="M262.4 227.3h.7v-.7h-.7v.7Z" class="g1_3"/>
<path d="M263.1 227.3h90.5v-.7H263.1v.7Z" class="g1_3"/>
<path d="M353.6 226.6h.8V198.9h-.8v27.7Z" class="g1_3"/>
<path d="M353.6 227.3h.8v-.7h-.8v.7Z" class="g1_3"/>
<path d="M354.4 227.3H436v-.7H354.4v.7Z" class="g1_3"/>
<path d="M436 226.6h.7V198.9H436v27.7Z" class="g1_3"/>
<path d="M436 227.3h.7v-.7H436v.7Z" class="g1_3"/>
<path d="M436.7 227.3H517v-.7H436.7v.7Z" class="g1_3"/>
<path d="M517 226.6h.7V198.9H517v27.7Z" class="g1_3"/>
<path d="M517 227.3h.7v-.7H517v.7Z" class="g1_3"/>
<path d="M517.7 227.3H647v-.7H517.7v.7Z" class="g1_3"/>
<path d="M647 226.6h.7V198.9H647v27.7Z" class="g1_3"/>
<path d="M647 227.3h.7v-.7H647v.7Z" class="g1_3"/>
<path d="M647.7 227.3H760.1v-.7H647.7v.7Z" class="g1_3"/>
<path d="M760.1 226.6h.7V198.9h-.7v27.7Z" class="g1_3"/>
<path d="M760.1 227.3h.7v-.7h-.7v.7Z" class="g1_3"/>
<path d="M760.8 227.3H873.9v-.7H760.8v.7Z" class="g1_3"/>
<path d="M873.9 226.6h.8V198.9h-.8v27.7Z" class="g1_3"/>
<path d="M873.9 227.3h.8v-.7h-.8v.7Z" class="g1_3"/>
<path d="M873.9 227.3h.8v-.7h-.8v.7Z" class="g1_3"/>
<path fill-rule="evenodd" d="M41.6 363.7H114V336.2H41.6v27.5Z" class="g0_3"/>
<path fill-rule="evenodd" d="M49.5 361.9h56.7V338.1H49.5v23.8Z" class="g0_3"/>
<path d="M40.7 336.2h.7v-.7h-.7v.7Z" class="g1_3"/>
<path d="M40.7 336.2h.7v-.7h-.7v.7Z" class="g1_3"/>
<path d="M41.4 336.2H114v-.7H41.4v.7Z" class="g1_3"/>
<path d="M114 336.2h.8v-.7H114v.7Z" class="g1_3"/>
<path d="M114.8 336.2H867.9v-.7H114.8v.7Z" class="g1_3"/>
<path d="M867.9 336.2h.7v-.7h-.7v.7Z" class="g1_3"/>
<path d="M867.9 336.2h.7v-.7h-.7v.7Z" class="g1_3"/>
<path d="M40.7 363.7h.7V336.2h-.7v27.5Z" class="g1_3"/>
<path d="M114 363.7h.8V336.2H114v27.5Z" class="g1_3"/>
<path d="M867.9 363.7h.7V336.2h-.7v27.5Z" class="g1_3"/>
<path fill-rule="evenodd" d="M41.6 447H114V364.5H41.6V447Z" class="g0_3"/>
<path fill-rule="evenodd" d="M49.5 417.6h56.7V393.8H49.5v23.8Z" class="g0_3"/>
<path d="M40.7 364.5h.7v-.8h-.7v.8Z" class="g1_3"/>
<path d="M41.4 364.5H114v-.8H41.4v.8Z" class="g1_3"/>
<path d="M114 364.5h.8v-.8H114v.8Z" class="g1_3"/>
<path d="M114.8 364.5H867.9v-.8H114.8v.8Z" class="g1_3"/>
<path d="M867.9 364.5h.7v-.8h-.7v.8Z" class="g1_3"/>
<path d="M40.7 447h.7V364.5h-.7V447Z" class="g1_3"/>
<path d="M114 447h.8V364.5H114V447Z" class="g1_3"/>
<path d="M867.9 447h.7V364.5h-.7V447Z" class="g1_3"/>
<path fill-rule="evenodd" d="M41.6 502.7H114v-55H41.6v55Z" class="g0_3"/>
<path fill-rule="evenodd" d="M49.5 487.1h56.7V463.3H49.5v23.8Z" class="g0_3"/>
<path d="M40.7 447.7h.7V447h-.7v.7Z" class="g1_3"/>
<path d="M41.4 447.7H114V447H41.4v.7Z" class="g1_3"/>
<path d="M114 447.7h.8V447H114v.7Z" class="g1_3"/>
<path d="M114.8 447.7H867.9V447H114.8v.7Z" class="g1_3"/>
<path d="M867.9 447.7h.7V447h-.7v.7Z" class="g1_3"/>
<path d="M40.7 502.7h.7v-55h-.7v55Z" class="g1_3"/>
<path d="M114 502.7h.8v-55H114v55Z" class="g1_3"/>
<path d="M867.9 502.7h.7v-55h-.7v55Z" class="g1_3"/>
<path fill-rule="evenodd" d="M41.6 805.9H114V503.4H41.6V805.9Z" class="g0_3"/>
<path fill-rule="evenodd" d="M49.5 666.6h56.7V642.8H49.5v23.8Z" class="g0_3"/>
<path d="M361.9 706V684l16.8 7.9v21.9Z" class="g2_3"/>
<path d="M378.7 691.9L361.9 684l21.9 -5.2l16.9 7.9l-22 5.2Z" class="gk_3"/>
<path d="M378.7 691.9l22 -5.2v21.9l-22 5.2Z" class="gl_3"/>
<path d="M400.7 686.7l-16.9 -7.9L361.9 684m38.8 2.7l-22 5.2v21.9l22 -5.2V686.7M361.9 684v22l16.8 7.8V691.9L361.9 684" class="gm_3"/>
<path d="M395.4 699.7l-16.8 -7.8l21.9 -5.2l16.8 7.8l-21.9 5.2Z" class="gk_3"/>
<path d="M395.4 699.7l21.9 -5.2v22l-21.9 5.2Z" class="gl_3"/>
<path d="M378.6 713.8V691.9l16.8 7.8v22Z" class="g2_3"/>
<path d="M417.3 694.5l-21.9 5.2v22l21.9 -5.2v-22m-38.7 -2.6v21.9l16.8 7.9v-22l-16.8 -7.8m38.7 2.6l-16.8 -7.8l-21.9 5.2" class="gm_3"/>
<path d="M340.3 711.4v-22l16.8 7.8v22Z" class="gn_3"/>
<path d="M357.1 697.2l-16.8 -7.8l21.9 -5.2l16.8 7.9l-21.9 5.2Z" class="gk_3"/>
<path d="M357.1 697.3L379 692.1V714l-21.9 5.2Z" class="gl_3"/>
<path d="M379 692.1l-16.8 -7.9l-21.9 5.2m38.7 2.7l-21.9 5.2v21.9L379 714V692.1m-38.7 -2.7v22l16.8 7.8v-22l-16.8 -7.8" class="gm_3"/>
<path d="M356.8 719.1V697.2l16.8 7.8v21.9Z" class="g2_3"/>
<path d="M373.6 705l-16.8 -7.8L378.7 692l16.8 7.8L373.6 705Z" class="gk_3"/>
<path d="M373.6 705l21.9 -5.2v22L373.6 727Z" class="gl_3"/>
<path d="M395.5 699.8L378.7 692l-21.9 5.2m38.7 2.6L373.6 705v22l21.9 -5.2v-22m-38.7 -2.6v21.9l16.8 7.8V705l-16.8 -7.8" class="gm_3"/>
<path d="M390.5 712.8l22 -5.2v21.9l-22 5.2Z" class="gl_3"/>
<path d="M390.5 712.8l-16.8 -7.9l22 -5.2l16.8 7.9l-22 5.2Z" class="gk_3"/>
<path d="M373.7 726.9v-22l16.8 7.9v21.9Z" class="gn_3"/>
<path d="M373.7 704.9v22l16.8 7.8V712.8l-16.8 -7.9m38.8 2.7l-16.8 -7.9l-22 5.2m38.8 2.7l-22 5.2v21.9l22 -5.2V707.6" class="gm_3"/>
<path d="M351.9 710.2l-16.8 -7.8L357 697.3l16.8 7.8l-21.9 5.2Z" class="gk_3"/>
<path d="M335.1 724.4v-22l16.8 7.8v22Z" class="gn_3"/>
<path d="M351.9 710.3l21.9 -5.2V727l-21.9 5.2Z" class="gl_3"/>
<path d="M373.8 705.1l-21.9 5.2v21.9L373.8 727V705.1m0 0L357 697.3l-21.9 5.1m0 0v22l16.8 7.8v-22l-16.8 -7.8" class="gm_3"/>
<path d="M340.3 689.4V667.5l16.8 7.8v21.9Z" class="gn_3"/>
<path d="M357.1 675.3l-16.8 -7.8l21.9 -5.2l16.8 7.8l-21.9 5.2Z" class="gk_3"/>
<path d="M357.1 675.3L379 670.1v22l-21.9 5.2Z" class="gl_3"/>
<path d="M379 670.1l-16.8 -7.8l-21.9 5.2m38.7 2.6l-21.9 5.2v22L379 692.1v-22m-38.7 -2.6v21.9l16.8 7.8V675.3l-16.8 -7.8" class="gm_3"/>
<path d="M357.1 653.3L379 648.1v22l-21.9 5.2Z" class="gl_3"/>
<path d="M357.1 653.3l-16.8 -7.8l21.9 -5.2l16.8 7.8l-21.9 5.2Z" class="gk_3"/>
<path d="M340.3 667.5v-22l16.8 7.8v22Z" class="gn_3"/>
<path d="M340.3 645.5v22l16.8 7.8v-22l-16.8 -7.8m38.7 2.6l-16.8 -7.8l-21.9 5.2m38.7 2.6l-21.9 5.2v22L379 670.1v-22" class="gm_3"/>
<path d="M339.6 646.2l-1.7 .4m-1.6 .4l-1.6 .4m-1.6 .4l-1.6 .4m-1.6 .3l-1.6 .4m-1.6 .4l-1.6 .4m-1.7 .4l-1.6 .4m-1.6 .4l-1.6 .4m-1.6 .4l-1.6 .3m-1.6 .4l-1.6 .4m-1.6 .4l-1.7 .4m-1.6 .4l-1.6 .4m-1.6 .4l-1.6 .3m-1.6 .4l-1.6 .4m-1.6 .4l-1.7 .4m-1.6 .4l-1.6 .4m-1.6 .4l-1.6 .4m-1.6 .4l-1.6 .3m-1.6 .4l-1.6 .4m-1.6 .4l-1.7 .4m-1.6 .4l-1.6 .4m-1.6 .4l-1.6 .4m-1.6 .4l-1.6 .3m-1.6 .4l-1.6 .4m-1.7 .3l-1.6 .4m-1.6 .3l-1.6 .4m-1.6 .3l-1.6 .4m-1.6 .4l-1.6 .3m-1.7 .4l-1.6 .3M356.8 653.7l-1.6 .4m-1.7 .4l-1.6 .4m-1.6 .4l-1.6 .4m-1.6 .3l-1.6 .4m-1.6 .4l-1.6 .4m-1.7 .4L339 658m-1.6 .4l-1.6 .4m-1.6 .3l-1.6 .4m-1.6 .4l-1.6 .4m-1.6 .4l-1.7 .4m-1.6 .4l-1.6 .4m-1.6 .4l-1.6 .4m-1.6 .3l-1.6 .4m-1.6 .4l-1.6 .4m-1.6 .4L310 665m-1.6 .4l-1.6 .4m-1.6 .4l-1.6 .3m-1.6 .4l-1.6 .4m-1.6 .4l-1.7 .4m-1.6 .4l-1.6 .4m-1.6 .4l-1.6 .4m-1.6 .4l-1.6 .3m-1.6 .4l-1.7 .4m-1.6 .3l-1.6 .4m-1.6 .4l-1.6 .3m-1.6 .4l-1.6 .3m-1.6 .4l-1.6 .4m-1.7 .3l-1.6 .4m88.6 .6l-1.6 .4m-1.6 .4l-1.6 .4m-1.6 .4l-1.6 .3m-1.6 .4l-1.6 .4m-1.7 .4l-1.6 .4m-1.6 .4l-1.6 .4m-1.6 .4l-1.6 .4m-1.6 .3l-1.6 .4m-1.7 .4l-1.6 .4m-1.6 .4l-1.6 .4m-1.6 .4l-1.6 .4m-1.6 .4l-1.6 .3m-1.6 .4l-1.6 .4m-1.7 .4l-1.6 .4m-1.6 .4l-1.6 .4m-1.6 .4l-1.6 .4m-1.6 .4l-1.6 .3m-1.6 .4l-1.7 .4m-1.6 .4l-1.6 .4m-1.6 .4l-1.6 .4m-1.6 .4l-1.6 .4m-1.6 .3l-1.7 .4m-1.6 .4l-1.6 .4m-1.6 .3l-1.6 .4m-1.6 .3l-1.6 .4m-1.6 .4l-1.6 .3m-1.7 .4l-1.6 .3m-1.6 .4l-1.6 .3m87.5 1.5l-1.6 .3m-1.6 .4l-1.6 .4m-1.7 .4l-1.6 .4m-1.6 .4l-1.6 .4m-1.6 .4l-1.6 .4m-1.6 .4l-1.6 .3m-1.6 .4l-1.7 .4m-1.6 .4l-1.6 .4m-1.6 .4l-1.6 .4m-1.6 .4l-1.6 .4m-1.6 .3l-1.7 .4m-1.6 .4l-1.6 .4m-1.6 .4l-1.6 .4m-1.6 .4l-1.6 .4m-1.6 .3l-1.6 .4m-1.7 .4l-1.6 .4m-1.6 .4l-1.6 .4m-1.6 .4l-1.6 .4m-1.6 .4l-1.6 .3m-1.6 .4l-1.6 .4m-1.7 .4l-1.6 .4m-1.6 .4l-1.6 .4m-1.6 .3l-1.6 .4m-1.6 .4l-1.6 .3m-1.7 .4l-1.6 .3m-1.6 .4l-1.6 .3m-1.6 .4l-1.6 .4m-1.6 .3l-1.7 .4m123.3 -5.8l-1.6 .4m-1.6 .4l-1.6 .4m-1.6 .4l-1.6 .4m-1.6 .4l-1.7 .4m-1.6 .3l-1.6 .4m-1.6 .4l-1.6 .4m-1.6 .4l-1.6 .4m-1.6 .4l-1.6 .4m-1.6 .4l-1.7 .3m-1.6 .4l-1.6 .4m-1.6 .4l-1.6 .4m-1.6 .4l-1.6 .4m-1.6 .4l-1.6 .3m-1.7 .4l-1.6 .4m-1.6 .4l-1.6 .4m-1.6 .4l-1.6 .4m-1.6 .4l-1.6 .4m-1.6 .3l-1.7 .4m-1.6 .4l-1.6 .4m-1.6 .4l-1.6 .4m-1.6 .4l-1.6 .4m-1.6 .4l-1.7 .4m-1.6 .3l-1.6 .4m-1.6 .4l-1.6 .4m-1.6 .3l-1.6 .3m-1.6 .4l-1.6 .3m-1.6 .4l-1.7 .4m-1.6 .4l-1.6 .3m89.4 .6l-1.6 .4m-1.6 .4l-1.6 .4m-1.6 .4l-1.6 .4m-1.6 .4l-1.6 .3m-1.7 .4l-1.6 .4m-1.6 .4l-1.6 .4m-1.6 .4l-1.6 .4m-1.6 .4l-1.6 .4m-1.7 .3l-1.6 .4m-1.6 .4l-1.6 .4m-1.6 .4l-1.6 .4m-1.6 .4l-1.6 .4m-1.6 .3l-1.7 .4m-1.6 .4l-1.6 .4m-1.6 .4l-1.6 .4m-1.6 .4l-1.6 .4m-1.6 .4l-1.6 .4m-1.6 .3l-1.7 .4m-1.6 .4l-1.6 .4m-1.6 .4l-1.6 .4m-1.6 .4l-1.6 .4m-1.6 .4l-1.7 .4m-1.6 .3l-1.6 .4m-1.6 .4l-1.6 .4m-1.6 .3l-1.6 .4m-1.6 .3l-1.7 .4m-1.6 .3l-1.6 .4m-1.6 .4l-1.6 .3m-1.6 .4l-1.8 .4m51.2 -45.5l-1.6 .4M347 712l-1.6 .4m-1.6 .4l-1.6 .4m-1.6 .4l-1.7 .4m-1.6 .4l-1.6 .3m-1.6 .4l-1.6 .4m-1.6 .4l-1.6 .4m-1.6 .4l-1.7 .4m-1.6 .4l-1.6 .4m-1.6 .3l-1.6 .4M318 719l-1.6 .4m-1.6 .4l-1.6 .4m-1.6 .4l-1.7 .4m-1.6 .4l-1.6 .4m-1.6 .3l-1.6 .4m-1.6 .4l-1.6 .4m-1.6 .4l-1.6 .4m-1.7 .4l-1.6 .3m-1.6 .3l-1.6 .4m-1.6 .3l-1.6 .4m-1.7 .4l-1.9 .4" class="go_3"/>
<path d="M453.3 698.5l-1.5 -.7m-1.5 -.7l-1.5 -.8m-1.5 -.7l-1.5 -.7m-1.5 -.7l-1.6 -.8m-1.4 -.7l-1.5 -.7m-1.5 -.7l-1.6 -.8m-1.4 -.7l-1.5 -.7m-1.5 -.7l-1.6 -.8m-1.4 -.7l-1.5 -.7m-1.5 -.7l-1.6 -.7m-1.4 -.7l-1.5 -.8m-1.5 -.6l-1.6 -.7m-1.4 -.7l-1.5 -.7m-1.5 -.6l-1.6 -.8m-1.4 -.6l-1.5 -.8m-1.5 -.6l-1.6 -.8m-1.4 -.6l-1.5 -.7m-1.5 -.7l-1.6 -.7m-1.4 -.6l-1.5 -.8m-1.5 -.6l-1.6 -.8m-1.5 -.6l-1.4 -.7m-1.5 -.7l-1.6 -.7m-1.5 -.6l-1.4 -.8m-1.5 -.6l-1.6 -.8m-1.5 -.6l-1.4 -.7m-1.5 -.7l-1.6 -.7m-1.5 -.6l-1.4 -.8m-1.5 -.6l-1.6 -.8m-1.5 -.6l-1.4 -.7m-1.5 -.7l-1.6 -.7m-1.5 -.6l-1.4 -.8m-1.5 -.6l-1.6 -.7m-1.5 -.7l-.7 -.4m118.7 39.8l-1.5 -.8m-1.5 -.7l-1.5 -.7m-1.5 -.7l-1.5 -.7m-1.5 -.8l-1.5 -.7m-1.5 -.7l-1.5 -.7m-1.5 -.8l-1.5 -.7m-1.5 -.7l-1.5 -.7m-1.5 -.8l-1.5 -.7m-1.5 -.7l-1.5 -.7m-1.5 -.7l-1.5 -.8m-1.5 -.7l-1.5 -.6m-1.5 -.7l-1.5 -.7m-1.5 -.7l-1.5 -.7m-1.5 -.7l-1.5 -.7m-1.5 -.7l-1.5 -.6m-1.5 -.8l-1.5 -.6m-1.5 -.7l-1.5 -.7m-1.5 -.7l-1.5 -.7m-1.5 -.7l-1.5 -.6m-1.5 -.8l-1.5 -.6m-1.5 -.7l-1.5 -.7m-1.5 -.7l-1.5 -.7m-1.5 -.7l-1.5 -.6m-1.5 -.8l-1.5 -.6m-1.5 -.7l-1.5 -.7m-1.5 -.7l-1.5 -.7m-1.5 -.7l-1.5 -.6m-1.5 -.8l-1.5 -.6m-1.5 -.8l-1.5 -.6m-1.5 -.7l-1.5 -.7m-1.5 -.7l-1.5 -.6m-1.5 -.8l-1.5 -.6m72.6 71l-1.5 -.8m-1.5 -.7l-1.5 -.7m-1.5 -.7l-1.5 -.7m-1.5 -.8l-1.6 -.7m-1.4 -.7l-1.5 -.7m-1.5 -.8l-1.6 -.7m-1.4 -.7l-1.5 -.7m-1.5 -.8l-1.6 -.7m-1.4 -.7l-1.5 -.7m-1.5 -.7l-1.6 -.8m-1.4 -.7l-1.5 -.7m-1.5 -.7l-1.6 -.6m-1.4 -.7l-1.5 -.7m-1.5 -.7l-1.6 -.7m-1.4 -.7l-1.5 -.7m-1.5 -.7l-1.6 -.7m-1.4 -.6l-1.5 -.7m-1.5 -.7l-1.6 -.7m-1.4 -.7l-1.5 -.7m-1.5 -.7l-1.6 -.7m-1.5 -.6l-1.4 -.7m-1.5 -.7l-1.6 -.7m-1.5 -.7l-1.4 -.7m-1.5 -.7l-1.6 -.7m-1.5 -.7l-1.4 -.6m-1.5 -.7l-1.6 -.7m-1.5 -.7l-1.4 -.7m-1.5 -.7l-1.6 -.7m-1.5 -.7l-1.4 -.6m-1.5 -.7l-1.6 -.7m-1.5 -.7l-1.4 -.7m-1.5 -.7l-1.6 -.6m-1.5 -.8l-.7 -.3m96.7 67.1l-1.5 -.7m-1.5 -.7l-1.5 -.7m-1.5 -.8l-1.5 -.7m-1.5 -.7l-1.5 -.7m-1.5 -.7l-1.5 -.8m-1.5 -.7l-1.5 -.7m-1.5 -.7l-1.5 -.8m-1.5 -.7l-1.5 -.7m-1.5 -.7l-1.5 -.8m-1.5 -.7l-1.5 -.7m-1.5 -.7l-1.5 -.7m-1.5 -.7l-1.5 -.7m-1.5 -.6l-1.5 -.8m-1.5 -.6l-1.5 -.7m-1.5 -.7l-1.5 -.7m-1.5 -.7l-1.5 -.7m-1.5 -.7l-1.5 -.6m-1.5 -.7l-1.5 -.7m-1.5 -.7l-1.5 -.7m-1.5 -.7l-1.5 -.7m-1.5 -.7l-1.5 -.7m-1.5 -.6l-1.5 -.7m-1.5 -.7l-1.5 -.7m-1.5 -.7l-1.5 -.7m-1.5 -.7l-1.5 -.7m-1.5 -.6l-1.5 -.7m-1.5 -.7l-1.5 -.7m-1.5 -.7l-1.5 -.7m-1.5 -.7l-1.5 -.7m-1.5 -.7l-1.5 -.6m-1.5 -.7l-1.5 -.7m-1.5 -.7l-1.5 -.7m72.7 71.1l-1.5 -.7m-1.5 -.7l-1.5 -.7m-1.5 -.8l-1.5 -.7m-1.5 -.7l-1.5 -.7m-1.5 -.7l-1.5 -.8m-1.5 -.7l-1.5 -.7m-1.5 -.7l-1.5 -.8m-1.5 -.7l-1.5 -.7m-1.5 -.7l-1.5 -.7m-1.5 -.7l-1.5 -.7m-1.5 -.7l-1.5 -.7m-1.5 -.7l-1.5 -.7m-1.5 -.7l-1.5 -.6m-1.5 -.7l-1.5 -.7m-1.5 -.7l-1.5 -.7m-1.5 -.7l-1.5 -.7m-1.5 -.6l-1.5 -.7m-1.5 -.7l-1.5 -.7m-1.5 -.7l-1.5 -.7m-1.5 -.7l-1.5 -.6m-1.5 -.7l-1.5 -.7m-1.5 -.7l-1.5 -.7m-1.5 -.7l-1.5 -.7m-1.5 -.7l-1.5 -.6m-1.5 -.8l-1.5 -.6m-1.5 -.7l-1.5 -.7m-1.5 -.7l-.7 -.3M431.1 748l-1.5 -.8m-1.5 -.7l-1.5 -.7m-1.5 -.7l-1.5 -.7m-1.5 -.8l-1.5 -.7m-1.5 -.7l-1.5 -.7m-1.5 -.8l-1.5 -.7m-1.5 -.7l-1.5 -.7m-1.5 -.7l-1.5 -.8m-1.5 -.7l-1.5 -.7m-1.5 -.7l-1.5 -.7m-1.5 -.6l-1.5 -.8m-1.5 -.6l-1.5 -.7m-1.5 -.7l-1.5 -.7m-1.5 -.7l-1.5 -.7m-1.5 -.7l-1.5 -.6m-1.5 -.7l-1.5 -.7m-1.5 -.7l-1.5 -.7m-1.5 -.7l-1.5 -.7m-1.5 -.7l-1.5 -.6m-1.5 -.7l-1.5 -.7m-1.5 -.7l-1.5 -.7m-1.5 -.7l-1.5 -.7m-1.5 -.7l-1.5 -.7m-1.5 -.6l-1.5 -.7m-1.5 -.7l-1.5 -.7m-1.5 -.7l-1.5 -.7m-1.5 -.7l-.6 -.2" class="gp_3"/>
<path d="M431.6 748.2L453.5 743v21.9l-21.9 5.2Z" class="gl_3"/>
<path d="M453.5 743l-21.9 5.2v21.9l21.9 -5.2V743" class="gm_3"/>
<path d="M453.6 699l21.9 -5.2v22L453.6 721Z" class="gl_3"/>
<path d="M453.6 721l21.9 -5.2v-22L453.6 699v22" class="gm_3"/>
<path d="M495.9 752.9l-1.5 -.7m-1.5 -.7l-1.5 -.7m-1.5 -.7l-1.5 -.8m-1.5 -.7l-1.5 -.7m-1.5 -.7l-1.5 -.7m-1.5 -.8l-1.5 -.7m-1.5 -.7l-1.5 -.7m-1.5 -.8l-1.5 -.7m-1.5 -.7l-1.5 -.7m-1.5 -.7l-1.5 -.6m-1.5 -.8l-1.5 -.6m-1.5 -.7l-1.5 -.7m-1.5 -.7l-1.5 -.6m-1.5 -.8l-1.5 -.6m-1.5 -.8l-1.5 -.6m-1.5 -.7l-1.5 -.7m-1.5 -.7l-1.5 -.7m-1.5 -.7l-1.5 -.7m-1.5 -.7l-1.5 -.6m-1.5 -.8l-1.5 -.6m-1.5 -.7l-1.5 -.7m-1.5 -.7l-1.5 -.6m-1.5 -.8l-1.5 -.6m-1.5 -.8l-1.5 -.6m-1.5 -.7l-1.5 -.7m-1.5 -.7l-1.5 -.6m-1.5 -.8l-.9 -.4" class="gp_3"/>
<path d="M453.6 721l21.9 -5.2v22L453.6 743Z" class="gl_3"/>
<path d="M475.5 715.8L453.6 721v22l21.9 -5.2v-22" class="gm_3"/>
<path d="M475.5 737.6l21.9 -5.2v22l-21.9 5.2Z" class="gl_3"/>
<path d="M497.4 732.4l-21.9 5.2v22l21.9 -5.2v-22" class="gm_3"/>
<path d="M453.6 743l21.9 -5.2v21.9l-21.9 5.2Z" class="gl_3"/>
<path d="M453.6 764.9l21.9 -5.2V737.8L453.6 743v21.9" class="gm_3"/>
<path d="M248.9 733.3v-22h.1l16.7 7.8v22Z" class="gn_3"/>
<path d="M248.9 711.3v22l16.8 7.8v-22L249 711.3h-.1" class="gm_3"/>
<path d="M265.7 741.1v-22h.1l16.7 7.9v21.9Z" class="gn_3"/>
<path d="M265.7 719.1v22l16.8 7.8V727l-16.7 -7.9h-.1" class="gm_3"/>
<path d="M282.4 748.9v-22l16.8 7.8v22Z" class="gn_3"/>
<path d="M282.4 726.9v22l16.8 7.8v-22l-16.8 -7.8" class="gm_3"/>
<path d="M248.9 689.4v-22h.1l16.7 7.8v22Z" class="gn_3"/>
<path d="M248.9 667.4v22l16.8 7.8v-22L249 667.4h-.1" class="gm_3"/>
<path d="M248.9 711.3V689.4h.1l16.7 7.8v21.9Z" class="gn_3"/>
<path d="M248.9 689.4v21.9l16.8 7.8V697.2L249 689.4h-.1" class="gm_3"/>
<path d="M340.3 558.3V560m0 1.7v1.6m0 1.7v1.7m0 1.6V570m0 1.7v1.6m0 1.7v1.7m0 1.6V580m0 1.7v1.6m0 1.7v1.7m0 1.6V590m0 1.7v1.6m0 1.7v1.7m0 1.6V600m0 1.7v1.6m0 1.7v1.7m0 1.6V610m0 1.7v1.6m0 1.7v1.7m0 1.7V620m0 1.7v1.6m0 1.7v1.7m0 1.7V630m0 1.7v1.7m0 1.6v1.7m0 1.7V640m0 1.7v1.7m0 1.6v.8m-4.8 -75.9v1.7m0 1.6v1.7m0 1.7v1.6m0 1.7v1.7m0 1.6v1.7m0 1.7v1.6m0 1.7v1.7m0 1.6v1.7m0 1.7v1.6m0 1.7v1.7m0 1.6v1.7m0 1.7v1.6m0 1.7v1.7m0 1.6v1.7m0 1.7v1.6m0 1.7v1.7m0 1.6v1.7m0 1.7v1.6m0 1.7v1.7m0 1.6v1.7m0 1.7v1.7m0 1.6v1.7m0 1.6v1.7m0 1.7v1.7m0 1.6v1.7m0 1.7v1.6m0 1.7v1.7m0 1.6v1.7m0 1.7v1.6m0 1.7v1.7m0 1.6v1.7m0 1.7v1.6m0 1.7v1.7m0 1.6v1.7m0 1.7v1.6m0 1.7v1.7m0 1.6v1.7m0 1.7v1.6m0 1.7v1.7m0 1.7v1.6m17.1 -135v1.7m0 1.6v1.7m0 1.7v1.6m0 1.7v1.7m0 1.6v1.7m0 1.7v1.6m0 1.7v1.7m0 1.6v1.7m0 1.7V595m0 1.6v1.7m0 1.6v1.7m0 1.7V605m0 1.6v1.7m0 1.7v1.6m0 1.7V615m0 1.6v1.7m0 1.7v1.6m0 1.7V625m0 1.6v1.7m0 1.7v1.6m0 1.7V635m0 1.6v1.7m0 1.7v1.6m0 1.7V645m0 1.6v1.7m0 1.7v1.6m0 1.7V655m0 1.7v1.6m0 1.7v1.6m0 1.7V665m0 1.7v1.6m0 1.7v1.7m0 1.6V675m0 1.7v1.6m0 1.7v1.7m0 1.6V685m0 1.7v1.6m0 1.7v1.7m0 1.6V695m0 1.7v1.6m0 1.7v1.7m0 1.6V705m0 1.7v1.6M373.7 561.6v1.7m0 1.7v1.6m0 1.7V570m0 1.6v1.7m0 1.7v1.6m0 1.7V580m0 1.6v1.7m0 1.7v1.6m0 1.7V590m0 1.6v1.7m0 1.7v1.6m0 1.7V600m0 1.6v1.7m0 1.7v1.6m0 1.7V610m0 1.7v1.6m0 1.7v1.6m0 1.7V620m0 1.7v1.6m0 1.7v1.7m0 1.6V630m0 1.7v1.6m0 1.7v1.7m0 1.6V640m0 1.7v1.6m0 1.7v1.7m0 1.6V650m0 1.7v1.6m0 1.7v1.7m0 1.6V660m0 1.7v1.6m0 1.7v1.7m0 1.6V670m0 1.7v1.7m0 1.6v1.7m0 1.6V680m0 1.7v1.7m0 1.6v1.7m0 1.7V690m0 1.7v1.7m0 1.6v1.7m0 1.7V700m0 1.7v1.7m16.7 -134v1.7m0 1.6v1.7m0 1.7v1.6m0 1.7v1.7m0 1.6v1.7m0 1.7v1.6m0 1.7v1.7m0 1.6v1.7m0 1.7v1.7m0 1.6v1.7m0 1.6v1.7m0 1.7v1.7m0 1.6v1.7m0 1.7v1.6m0 1.7v1.7m0 1.6v1.7m0 1.7v1.6m0 1.7v1.7m0 1.6v1.7m0 1.7v1.6m0 1.7v1.7m0 1.6v1.7m0 1.7v1.6m0 1.7v1.7m0 1.6v1.7m0 1.7v1.6m0 1.7v1.7m0 1.7v1.6m0 1.7v1.6m0 1.7v1.7m0 1.7v1.6m0 1.7v1.7m0 1.6v1.7m0 1.7v1.6m0 1.7v1.7m0 1.6v1.7m0 1.7v1.6m0 1.7v1.7m0 1.6v1.7m0 1.7v1.6m0 1.7v1.7m0 1.6v1.7m0 1.7v1.7M417.2 563.3v1.6m0 1.7v1.7m0 1.6v1.7m0 1.7v1.6m0 1.7v1.7m0 1.6v1.7m0 1.7v1.6m0 1.7v1.7m0 1.6v1.7m0 1.7v1.6m0 1.7v1.7m0 1.6v1.7m0 1.7V605m0 1.6v1.7m0 1.6v1.7m0 1.7V615m0 1.6v1.7m0 1.7v1.6m0 1.7V625m0 1.6v1.7m0 1.7v1.6m0 1.7V635m0 1.6v1.7m0 1.7v1.6m0 1.7V645m0 1.6v1.7m0 1.7v1.6m0 1.7V655m0 1.6v1.7m0 1.7v1.6m0 1.7V665m0 1.7v1.6m0 1.7v1.6m0 1.7V675m0 1.7v1.6m0 1.7v1.7m0 1.6V685m0 1.7v1.6m0 1.7v1.7m0 1.6v.7M400.7 555.5v1.7m0 1.7v1.6m0 1.7v1.7m0 1.6v1.7m0 1.7v1.7m0 1.6v1.7m0 1.6v1.7m0 1.7v1.7m0 1.6v1.7m0 1.7v1.6m0 1.7v1.7m0 1.6v1.7m0 1.7v1.6m0 1.7v1.7m0 1.6v1.7m0 1.7v1.6m0 1.7v1.7m0 1.6v1.7m0 1.7v1.6m0 1.7v1.7m0 1.7v1.6m0 1.7v1.6m0 1.7v1.7m0 1.7v1.6m0 1.7v1.7m0 1.6v1.7m0 1.7v1.6m0 1.7v1.7m0 1.6v1.7m0 1.7v1.6m0 1.7v1.7m0 1.6v1.7m0 1.7v1.6m0 1.7v1.7m0 1.6v1.7m0 1.7v1.6m0 1.7v1.7m0 1.6v1.7m0 1.7V684m0 1.6v1" class="gq_3"/>
<path d="M378.8 560.5L362 552.7l21.9 -5.2l16.8 7.9l-21.9 5.2Z" class="gk_3"/>
<path d="M378.8 560.6l21.9 -5.2l-16.8 -7.9L362 552.7l16.8 7.8v.1" class="gm_3"/>
<path d="M373.8 573.5L357 565.7l22 -5.2l16.8 7.8l-22 5.2Z" class="gk_3"/>
<path d="M373.8 573.5l22 -5.2L379 560.5l-22 5.2l16.8 7.8" class="gm_3"/>
<path d="M352.3 578.9L335.5 571l21.9 -5.2l16.8 7.9l-21.9 5.2Z" class="gk_3"/>
<path d="M352.3 578.9l21.9 -5.2l-16.8 -7.9L335.5 571l16.8 7.9" class="gm_3"/>
<path d="M357.1 565.8L340.3 558l21.9 -5.2l16.8 7.8l-21.9 5.2Z" class="gk_3"/>
<path d="M357.1 565.8L379 560.6l-16.8 -7.8L340.3 558l16.8 7.8" class="gm_3"/>
<path d="M395.5 568.3l-16.7 -7.8l21.9 -5.2l16.8 7.8l-22 5.2Z" class="gk_3"/>
<path d="M395.5 568.3l22 -5.2l-16.8 -7.8l-21.9 5.2l16.7 7.8" class="gm_3"/>
<path d="M390.2 581.6l-16.8 -7.8l22 -5.2l16.8 7.8l-22 5.2Z" class="gk_3"/>
<path d="M390.2 581.6l22 -5.2l-16.8 -7.8l-22 5.2l16.8 7.8" class="gm_3"/>
<path d="M363.5 611.8l4.3 .2l4.8 .3l-4.9 7.7Z" class="gr_3"/>
<path d="M368 598.3l-.2 13.7" class="gs_3"/>
<path d="M307.8 695.7l-.9 -4.7l8.7 3l-6.9 6Z" class="gr_3"/>
<path d="M294.5 698.8l13.3 -3.1" class="gs_3"/>
<path d="M426.2 703.2l9.1 -.6l-2 3.9l-2.1 4.3Z" class="gr_3"/>
<path d="M445.8 712.1l-12.5 -5.6" class="gs_3"/>
<path d="M556.7 713.6h22.2v22.2H556.7V713.6Z" class="gl_3"/>
<path d="M556.7 735.8h22.2V713.6H556.7v22.2Z" class="gm_3"/>
<path d="M556.7 735.8h22.2V758H556.7V735.8Z" class="gl_3"/>
<path d="M556.7 758h22.2V735.8H556.7V758Z" class="gm_3"/>
<path d="M556.7 758h22.2v22.3H556.7V758Z" class="gl_3"/>
<path d="M556.7 780.3h22.2V758H556.7v22.3Z" class="gm_3"/>
<path d="M534.5 758h22.2v22.3H534.5V758Z" class="gl_3"/>
<path d="M534.5 780.3h22.2V758H534.5v22.3Z" class="gm_3"/>
<path d="M578.9 758h22.2v22.3H578.9V758Z" class="gl_3"/>
<path d="M578.9 780.3h22.2V758H578.9v22.3Z" class="gm_3"/>
<path d="M467.8 541.4h22.3v22.3H467.8V541.4Z" class="gk_3"/>
<path d="M467.8 563.7h22.3V541.4H467.8v22.3Z" class="gm_3"/>
<path d="M490.1 541.4h22.2v22.3H490.1V541.4Z" class="gk_3"/>
<path d="M490.1 563.7h22.2V541.4H490.1v22.3Z" class="gm_3"/>
<path d="M467.8 563.7h22.3v22.2H467.8V563.7Z" class="gk_3"/>
<path d="M467.8 585.9h22.3V563.7H467.8v22.2Z" class="gm_3"/>
<path d="M490.1 563.7h22.2v22.2H490.1V563.7Z" class="gk_3"/>
<path d="M490.1 585.9h22.2V563.7H490.1v22.2Z" class="gm_3"/>
<path d="M512.3 563.6h22.2v22.3H512.3V563.6Z" class="gk_3"/>
<path d="M512.3 585.9h22.2V563.6H512.3v22.3Z" class="gm_3"/>
<path d="M490.1 585.9h22.2v22.2H490.1V585.9Z" class="gk_3"/>
<path d="M490.1 608.1h22.2V585.9H490.1v22.2Z" class="gm_3"/>
<path d="M143.6 668h22.3v22.2H143.6V668Z" class="gn_3"/>
<path d="M143.6 690.2h22.3V668H143.6v22.2Z" class="gm_3"/>
<path d="M143.6 690.2h22.3v22.2H143.6V690.2Z" class="gn_3"/>
<path d="M165.9 690.2H143.6v22.2h22.3V690.2Z" class="gm_3"/>
<path d="M143.6 712.4h22.3v22.3H143.6V712.4Z" class="gn_3"/>
<path d="M165.9 712.4H143.6v22.3h22.3V712.4Z" class="gm_3"/>
<path d="M165.9 712.4h22.2v22.3H165.9V712.4Z" class="gn_3"/>
<path d="M165.9 734.7h22.2V712.4H165.9v22.3Z" class="gm_3"/>
<path d="M188.1 712.4h22.2v22.3H188.1V712.4Z" class="gn_3"/>
<path d="M210.3 712.4H188.1v22.3h22.2V712.4Z" class="gm_3"/>
<path d="M126.9 647.2h92.5l.2 .1h.3l.3 .1l.2 .1l.2 .1l.2 .2l.3 .2l.1 .2l.2 .2l.2 .3l.1 .2l.1 .3v.2l.1 .3v92.9l-.1 .1v.3l-.1 .1v.2l-.1 .2h-.1v.1l-.1 .1l-.2 .2l-.1 .3l-.3 .1l-.2 .2l-.1 .1h-.1l-.2 .2h-.3l-.3 .1h-.1l-.1 .1H126.7l-.3 -.1l-.3 -.1h-.2l-.3 -.2l-.2 -.1l-.2 -.2l-.2 -.1l-.2 -.3l-.2 -.2l-.1 -.2l-.1 -.2l-.1 -.3l-.1 -.3V649.4l.1 -.2l.1 -.3l.1 -.2l.1 -.3l.4 -.4l.4 -.4l.2 -.1l.3 -.1l.5 -.1l.5 -.1" class="gt_3"/>
<path d="M134 657.4h-.4l-.2 -.1h-.2l-.4 -.2l-.3 -.3l-.1 -.2l-.2 -.1l-.2 -.4l-.1 -.3V641l.1 -.4l.2 -.3l.3 -.3l.3 -.3l.4 -.2l.4 -.1h35.5l.4 .1l.3 .2l.2 .1l.2 .2l.2 .3l.1 .1l.1 .2l.1 .2v.2l.1 .2v14.4l-.1 .2v.1l-.1 .2l-.1 .2l-.1 .2l-.1 .1l-.1 .2l-.2 .1l-.2 .2l-.3 .2h-.2l-.2 .1h-.4Z" class="gr_3"/>
<path d="M520.2 696.1h92.7l.3 .1l.2 .1l.3 .1l.2 .1l.2 .2l.2 .2l.2 .2l.2 .2l.1 .2l.2 .3v.2l.1 .3l.1 .3v92.7l-.1 .2v.1l-.1 .2v.3l-.2 .2v.1h-.1v.2l-.2 .2l-.2 .2l-.2 .2l-.2 .2h-.1l-.1 .1l-.3 .1l-.1 .1h-.1l-.3 .1H519.7l-.3 -.1l-.2 -.1l-.3 -.1l-.2 -.1l-.2 -.2l-.2 -.2l-.3 -.2l-.1 -.2l-.2 -.3l-.1 -.2l-.1 -.3v-.2l-.1 -.3V698.6l.1 -.3V698l.1 -.2l.1 -.3l.2 -.2l.4 -.4l.4 -.4l.2 -.1l.3 -.1l.5 -.2h.5" class="gt_3"/>
<path d="M529 704.7h-.2l-.2 -.1h-.2l-.2 -.1l-.2 -.1l-.2 -.1l-.3 -.2l-.1 -.2l-.2 -.2l-.1 -.3l-.2 -.4V688.2l.2 -.3l.1 -.4l.3 -.3l.3 -.3l.4 -.1l.4 -.1l.4 -.1h34.9l.2 .1l.4 .1l.3 .1l.2 .2l.2 .1l.2 .3l.1 .2l.1 .2l.1 .2v.1l.1 .3v14.3l-.1 .2v.2l-.1 .2l-.1 .1l-.1 .2l-.1 .2l-.1 .2l-.2 .1l-.2 .1l-.2 .1l-.1 .1l-.2 .1h-.2l-.2 .1h-.2Z" class="gr_3"/>
<path d="M451.9 524.9h92.4l.3 .1h.2l.3 .1l.2 .1l.3 .2l.2 .1l.2 .2l.2 .2l.1 .2l.2 .3l.1 .2l.1 .3l.1 .2v93.4l-.1 .2l-.1 .1v.2l-.1 .2h-.1v.1l-.1 .1l-.1 .2l-.2 .3l-.2 .1l-.2 .2l-.2 .1h-.1v.1l-.2 .1H545l-.2 .1h-.3l-.1 .1H451.6l-.3 -.1h-.2l-.3 -.1l-.2 -.1l-.3 -.2l-.2 -.2l-.2 -.1l-.2 -.3l-.1 -.2l-.2 -.2l-.1 -.2l-.1 -.3l-.1 -.2V527.1l.1 -.2l.1 -.3l.1 -.2l.2 -.3l.3 -.4l.4 -.3l.3 -.2l.2 -.1l.5 -.1l.6 -.1" class="gt_3"/>
<path d="M459.6 533.1h-.3l-.2 -.1h-.2l-.2 -.1l-.2 -.1l-.1 -.1l-.3 -.2l-.2 -.2l-.1 -.2l-.2 -.3l-.1 -.4V516.7l.1 -.4l.2 -.4l.3 -.3l.3 -.2l.3 -.2l.4 -.1l.5 -.1h34.9l.2 .1h.1l.2 .1l.4 .2l.1 .1l.2 .1l.3 .3l.1 .2l.1 .2v.2l.1 .2v14.7l-.1 .2v.2l-.1 .1l-.1 .2l-.2 .2l-.1 .2l-.2 .1l-.1 .1l-.2 .1l-.2 .1l-.2 .1h-.1l-.2 .1h-.2Z" class="gr_3"/>
<path d="M40.7 503.4h.7v-.7h-.7v.7Z" class="g1_3"/>
<path d="M41.4 503.4H114v-.7H41.4v.7Z" class="g1_3"/>
<path d="M114 503.4h.8v-.7H114v.7Z" class="g1_3"/>
<path d="M114.8 503.4H867.9v-.7H114.8v.7Z" class="g1_3"/>
<path d="M867.9 503.4h.7v-.7h-.7v.7Z" class="g1_3"/>
<path d="M40.7 805.9h.7V503.4h-.7V805.9Z" class="g1_3"/>
<path d="M40.7 806.7h.7v-.8h-.7v.8Z" class="g1_3"/>
<path d="M40.7 806.7h.7v-.8h-.7v.8Z" class="g1_3"/>
<path d="M41.4 806.7H114v-.8H41.4v.8Z" class="g1_3"/>
<path d="M114 805.9h.8V503.4H114V805.9Z" class="g1_3"/>
<path d="M114 806.7h.8v-.8H114v.8Z" class="g1_3"/>
<path d="M114.8 806.7H867.9v-.8H114.8v.8Z" class="g1_3"/>
<path d="M867.9 805.9h.7V503.4h-.7V805.9Z" class="g1_3"/>
<path d="M867.9 806.7h.7v-.8h-.7v.8Z" class="g1_3"/>
<path d="M867.9 806.7h.7v-.8h-.7v.8Z" class="g1_3"/>
<image preserveAspectRatio="none" x="26" y="264" width="823" height="39" xlink:href="img/2.png"/>
</svg>