<?xml version="1.0" encoding="UTF-8" standalone="no"?>
<!DOCTYPE svg PUBLIC "-//W3C//DTD SVG 1.1//EN"
"http://www.w3.org/Graphics/SVG/1.1/DTD/svg11.dtd">
<svg viewBox="0 0 909 1286" version="1.1" xmlns="http://www.w3.org/2000/svg" xmlns:xlink="http://www.w3.org/1999/xlink">
<defs>
<clipPath id="c0_5"><path d="M-.2 1286.6v-74.9h910v74.9Z"/></clipPath>
<style type="text/css"><![CDATA[
.g0_5{
fill: none;
stroke: #000;
stroke-width: 0.763;
stroke-linecap: square;
stroke-miterlimit: 10;
}
.g1_5{
fill: none;
stroke: #000;
stroke-width: 0.762;
stroke-linecap: square;
stroke-miterlimit: 10;
}
.g2_5{
fill: none;
stroke: #000;
stroke-width: 0.764;
stroke-linecap: square;
stroke-miterlimit: 10;
}
]]></style>
</defs>
<image clip-path="url(#c0_5)" preserveAspectRatio="none" x="-4" y="1212" width="952" height="131" xlink:href="img/1.jpg"/>
<path d="M151.3 213.9H185" class="g0_5"/>
<path d="M210.8 213.9h41.9" class="g1_5"/>
<path d="M356.4 265H417" class="g2_5"/>
<path d="M467.5 265h57.1M479.3 726h25.1M128.9 754.8h22.9m220 -1.2h24.6M183.3 825.7h11.1m97.5 0H303m134.1 0h11.1m135 0h11.1" class="g0_5"/>
<image preserveAspectRatio="none" x="44" y="90" width="56" height="56" xlink:href="img/2.jpg"/>
<image preserveAspectRatio="none" x="44" y="602" width="56" height="56" xlink:href="img/3.jpg"/>
<image preserveAspectRatio="none" x="580" y="699" width="282" height="82" xlink:href="img/4.jpg"/>
<image preserveAspectRatio="none" x="44" y="717" width="56" height="57" xlink:href="img/5.jpg"/>
<image preserveAspectRatio="none" x="44" y="915" width="56" height="57" xlink:href="img/6.jpg"/>
<image preserveAspectRatio="none" x="44" y="221" width="56" height="56" xlink:href="img/7.jpg"/>
<image preserveAspectRatio="none" x="44" y="358" width="56" height="56" xlink:href="img/8.jpg"/>
<image preserveAspectRatio="none" x="44" y="481" width="56" height="57" xlink:href="img/9.jpg"/>
<image preserveAspectRatio="none" x="44" y="1038" width="56" height="56" xlink:href="img/10.jpg"/>
<image preserveAspectRatio="none" x="44" y="1153" width="56" height="57" xlink:href="img/11.jpg"/>
</svg>