<?xml version="1.0" encoding="UTF-8" standalone="no"?>
<!DOCTYPE svg PUBLIC "-//W3C//DTD SVG 1.1//EN"
"http://www.w3.org/Graphics/SVG/1.1/DTD/svg11.dtd">
<svg viewBox="0 0 909 1286" version="1.1" xmlns="http://www.w3.org/2000/svg" xmlns:xlink="http://www.w3.org/1999/xlink">
<defs>
<clipPath id="c0_2"><path d="M-.2 1286.6v-57.8h910v57.8Z"/></clipPath>
<style type="text/css"><![CDATA[
.g0_2{
fill: #CFC;
}
.g1_2{
fill: #70AD47;
}
.g2_2{
fill: none;
stroke: #00F;
stroke-width: 0.878;
stroke-linecap: square;
stroke-miterlimit: 10;
}
.g3_2{
fill: #000;
}
.g4_2{
fill: none;
stroke: #000;
stroke-width: 0.878;
stroke-linecap: square;
stroke-miterlimit: 10;
}
.g5_2{
fill: #F00;
}
.g6_2{
fill: none;
stroke: #00F;
stroke-width: 1.12;
stroke-linecap: square;
stroke-miterlimit: 10;
}
.g7_2{
fill: none;
stroke: #000;
stroke-width: 1.12;
stroke-linecap: square;
stroke-miterlimit: 10;
}
.g8_2{
fill: none;
stroke: #F00;
stroke-width: 1.125;
stroke-linecap: square;
stroke-miterlimit: 10;
}
.g9_2{
fill: none;
stroke: #000;
stroke-width: 1.125;
stroke-linecap: square;
stroke-miterlimit: 10;
}
.ga_2{
fill: none;
stroke: #090;
stroke-width: 1.124;
stroke-linecap: square;
stroke-miterlimit: 10;
}
.gb_2{
fill: none;
stroke: #000;
stroke-width: 1.124;
stroke-linecap: square;
stroke-miterlimit: 10;
}
.gc_2{
fill: none;
stroke: #090;
stroke-width: 1.125;
stroke-linecap: square;
stroke-miterlimit: 10;
}
.gd_2{
fill: #F90;
}
]]></style>
</defs>
<image clip-path="url(#c0_2)" preserveAspectRatio="none" x="-2" y="1229" width="930" height="128" xlink:href="img/1.jpg"/>
<path fill-rule="evenodd" d="M57.4 99h123V71.5H57.4V99Z" class="g0_2"/>
<path d="M65.3 99H172.5V71.5H65.3V99Z" class="g0_2"/>
<path d="M56.7 71.5h.7v-.7h-.7v.7Z" class="g1_2"/>
<path d="M56.7 71.5h.7v-.7h-.7v.7Z" class="g1_2"/>
<path d="M57.4 71.5h123v-.7H57.4v.7Z" class="g1_2"/>
<path d="M180.4 71.5h.7v-.7h-.7v.7Z" class="g1_2"/>
<path d="M181.1 71.5H350.7v-.7H181.1v.7Z" class="g1_2"/>
<path d="M350.7 71.5h.7v-.7h-.7v.7Z" class="g1_2"/>
<path d="M351.4 71.5H521v-.7H351.4v.7Z" class="g1_2"/>
<path d="M521 71.5h.8v-.7H521v.7Z" class="g1_2"/>
<path d="M521.8 71.5H691.5v-.7H521.8v.7Z" class="g1_2"/>
<path d="M691.5 71.5h.8v-.7h-.8v.7Z" class="g1_2"/>
<path d="M692.3 71.5H861.9v-.7H692.3v.7Z" class="g1_2"/>
<path d="M861.9 71.5h.7v-.7h-.7v.7Z" class="g1_2"/>
<path d="M861.9 71.5h.7v-.7h-.7v.7Z" class="g1_2"/>
<path d="M56.7 99h.7V71.5h-.7V99Z" class="g1_2"/>
<path d="M180.4 99h.7V71.5h-.7V99Z" class="g1_2"/>
<path d="M350.7 99h.7V71.5h-.7V99Z" class="g1_2"/>
<path d="M521 99h.8V71.5H521V99Z" class="g1_2"/>
<path d="M691.5 99h.8V71.5h-.8V99Z" class="g1_2"/>
<path d="M861.9 99h.7V71.5h-.7V99Z" class="g1_2"/>
<path fill-rule="evenodd" d="M57.4 127.4h123V99.9H57.4v27.5Z" class="g0_2"/>
<path d="M65.3 127.4H172.5V99.9H65.3v27.5Z" class="g0_2"/>
<path d="M56.7 99.7h.7V99h-.7v.7Z" class="g1_2"/>
<path d="M57.4 99.7h123V99H57.4v.7Z" class="g1_2"/>
<path d="M180.4 99.7h.7V99h-.7v.7Z" class="g1_2"/>
<path d="M181.1 99.7H350.7V99H181.1v.7Z" class="g1_2"/>
<path d="M350.7 99.7h.7V99h-.7v.7Z" class="g1_2"/>
<path d="M351.4 99.7H521V99H351.4v.7Z" class="g1_2"/>
<path d="M521 99.7h.8V99H521v.7Z" class="g1_2"/>
<path d="M521.8 99.7H691.5V99H521.8v.7Z" class="g1_2"/>
<path d="M691.5 99.7h.8V99h-.8v.7Z" class="g1_2"/>
<path d="M692.3 99.7H861.9V99H692.3v.7Z" class="g1_2"/>
<path d="M861.9 99.7h.7V99h-.7v.7Z" class="g1_2"/>
<path d="M56.7 127.4h.7V99.7h-.7v27.7Z" class="g1_2"/>
<path d="M180.4 127.4h.7V99.7h-.7v27.7Z" class="g1_2"/>
<path d="M350.7 127.4h.7V99.7h-.7v27.7Z" class="g1_2"/>
<path d="M521 127.4h.8V99.7H521v27.7Z" class="g1_2"/>
<path d="M691.5 127.4h.8V99.7h-.8v27.7Z" class="g1_2"/>
<path d="M861.9 127.4h.7V99.7h-.7v27.7Z" class="g1_2"/>
<path fill-rule="evenodd" d="M57.4 155.7h123V128.2H57.4v27.5Z" class="g0_2"/>
<path d="M65.3 155.7H172.5V128.2H65.3v27.5Z" class="g0_2"/>
<path d="M56.7 128.2h.7v-.8h-.7v.8Z" class="g1_2"/>
<path d="M57.4 128.2h123v-.8H57.4v.8Z" class="g1_2"/>
<path d="M180.4 128.2h.7v-.8h-.7v.8Z" class="g1_2"/>
<path d="M181.1 128.2H350.7v-.8H181.1v.8Z" class="g1_2"/>
<path d="M350.7 128.2h.7v-.8h-.7v.8Z" class="g1_2"/>
<path d="M351.4 128.2H521v-.8H351.4v.8Z" class="g1_2"/>
<path d="M521 128.2h.8v-.8H521v.8Z" class="g1_2"/>
<path d="M521.8 128.2H691.5v-.8H521.8v.8Z" class="g1_2"/>
<path d="M691.5 128.2h.8v-.8h-.8v.8Z" class="g1_2"/>
<path d="M692.3 128.2H861.9v-.8H692.3v.8Z" class="g1_2"/>
<path d="M861.9 128.2h.7v-.8h-.7v.8Z" class="g1_2"/>
<path d="M56.7 155.7h.7V128.2h-.7v27.5Z" class="g1_2"/>
<path d="M56.7 156.4h.7v-.8h-.7v.8Z" class="g1_2"/>
<path d="M56.7 156.4h.7v-.8h-.7v.8Z" class="g1_2"/>
<path d="M57.4 156.4h123v-.8H57.4v.8Z" class="g1_2"/>
<path d="M180.4 155.7h.7V128.2h-.7v27.5Z" class="g1_2"/>
<path d="M180.4 156.4h.7v-.8h-.7v.8Z" class="g1_2"/>
<path d="M181.1 156.4H350.7v-.8H181.1v.8Z" class="g1_2"/>
<path d="M350.7 155.7h.7V128.2h-.7v27.5Z" class="g1_2"/>
<path d="M350.7 156.4h.7v-.8h-.7v.8Z" class="g1_2"/>
<path d="M351.4 156.4H521v-.8H351.4v.8Z" class="g1_2"/>
<path d="M521 155.7h.8V128.2H521v27.5Z" class="g1_2"/>
<path d="M521 156.4h.8v-.8H521v.8Z" class="g1_2"/>
<path d="M521.8 156.4H691.5v-.8H521.8v.8Z" class="g1_2"/>
<path d="M691.5 155.7h.8V128.2h-.8v27.5Z" class="g1_2"/>
<path d="M691.5 156.4h.8v-.8h-.8v.8Z" class="g1_2"/>
<path d="M692.3 156.4H861.9v-.8H692.3v.8Z" class="g1_2"/>
<path d="M861.9 155.7h.7V128.2h-.7v27.5Z" class="g1_2"/>
<path d="M861.9 156.4h.7v-.8h-.7v.8Z" class="g1_2"/>
<path d="M861.9 156.4h.7v-.8h-.7v.8Z" class="g1_2"/>
<path fill-rule="evenodd" d="M61.4 239.6h54.1V212.1H61.4v27.5Z" class="g0_2"/>
<path d="M65.3 239.6h46.4V212.1H65.3v27.5Z" class="g0_2"/>
<path d="M60.5 212.1h.7v-.7h-.7v.7Z" class="g1_2"/>
<path d="M60.5 212.1h.7v-.7h-.7v.7Z" class="g1_2"/>
<path d="M61.2 212.1h54.3v-.7H61.2v.7Z" class="g1_2"/>
<path d="M115.5 212.1h.7v-.7h-.7v.7Z" class="g1_2"/>
<path d="M116.2 212.1H253v-.7H116.2v.7Z" class="g1_2"/>
<path d="M253 212.1h.7v-.7H253v.7Z" class="g1_2"/>
<path d="M253.7 212.1H486.8v-.7H253.7v.7Z" class="g1_2"/>
<path d="M486.8 212.1h.7v-.7h-.7v.7Z" class="g1_2"/>
<path d="M487.5 212.1h233v-.7h-233v.7Z" class="g1_2"/>
<path d="M720.5 212.1h.7v-.7h-.7v.7Z" class="g1_2"/>
<path d="M721.2 212.1H865.7v-.7H721.2v.7Z" class="g1_2"/>
<path d="M865.7 212.1h.7v-.7h-.7v.7Z" class="g1_2"/>
<path d="M865.7 212.1h.7v-.7h-.7v.7Z" class="g1_2"/>
<path d="M60.5 239.6h.7V212.1h-.7v27.5Z" class="g1_2"/>
<path d="M115.5 239.6h.7V212.1h-.7v27.5Z" class="g1_2"/>
<path d="M253 239.6h.7V212.1H253v27.5Z" class="g1_2"/>
<path d="M486.8 239.6h.7V212.1h-.7v27.5Z" class="g1_2"/>
<path d="M720.5 239.6h.7V212.1h-.7v27.5Z" class="g1_2"/>
<path d="M865.7 239.6h.7V212.1h-.7v27.5Z" class="g1_2"/>
<path fill-rule="evenodd" d="M61.4 267.9h54.1V240.4H61.4v27.5Z" class="g0_2"/>
<path d="M65.3 267.9h46.4V240.4H65.3v27.5Z" class="g0_2"/>
<path d="M60.5 240.4h.7v-.8h-.7v.8Z" class="g1_2"/>
<path d="M61.2 240.4h54.3v-.8H61.2v.8Z" class="g1_2"/>
<path d="M115.5 240.4h.7v-.8h-.7v.8Z" class="g1_2"/>
<path d="M116.2 240.4H253v-.8H116.2v.8Z" class="g1_2"/>
<path d="M253 240.4h.7v-.8H253v.8Z" class="g1_2"/>
<path d="M253.7 240.4H486.8v-.8H253.7v.8Z" class="g1_2"/>
<path d="M486.8 240.4h.7v-.8h-.7v.8Z" class="g1_2"/>
<path d="M487.5 240.4h233v-.8h-233v.8Z" class="g1_2"/>
<path d="M720.5 240.4h.7v-.8h-.7v.8Z" class="g1_2"/>
<path d="M721.2 240.4H865.7v-.8H721.2v.8Z" class="g1_2"/>
<path d="M865.7 240.4h.7v-.8h-.7v.8Z" class="g1_2"/>
<path d="M60.5 267.9h.7V240.4h-.7v27.5Z" class="g1_2"/>
<path d="M60.5 268.6h.7v-.8h-.7v.8Z" class="g1_2"/>
<path d="M60.5 268.6h.7v-.8h-.7v.8Z" class="g1_2"/>
<path d="M61.2 268.6h54.3v-.8H61.2v.8Z" class="g1_2"/>
<path d="M115.5 267.9h.7V240.4h-.7v27.5Z" class="g1_2"/>
<path d="M115.5 268.6h.7v-.8h-.7v.8Z" class="g1_2"/>
<path d="M116.2 268.6H253v-.8H116.2v.8Z" class="g1_2"/>
<path d="M253 267.9h.7V240.4H253v27.5Z" class="g1_2"/>
<path d="M253 268.6h.7v-.8H253v.8Z" class="g1_2"/>
<path d="M253.7 268.6H486.8v-.8H253.7v.8Z" class="g1_2"/>
<path d="M486.8 267.9h.7V240.4h-.7v27.5Z" class="g1_2"/>
<path d="M486.8 268.6h.7v-.8h-.7v.8Z" class="g1_2"/>
<path d="M487.5 268.6h233v-.8h-233v.8Z" class="g1_2"/>
<path d="M720.5 267.9h.7V240.4h-.7v27.5Z" class="g1_2"/>
<path d="M720.5 268.6h.7v-.8h-.7v.8Z" class="g1_2"/>
<path d="M721.2 268.6H865.7v-.8H721.2v.8Z" class="g1_2"/>
<path d="M865.7 267.9h.7V240.4h-.7v27.5Z" class="g1_2"/>
<path d="M865.7 268.6h.7v-.8h-.7v.8Z" class="g1_2"/>
<path d="M865.7 268.6h.7v-.8h-.7v.8Z" class="g1_2"/>
<path fill-rule="evenodd" d="M61.4 324.5h54.1V297H61.4v27.5Z" class="g0_2"/>
<path d="M65.3 324.5h46.4V297H65.3v27.5Z" class="g0_2"/>
<path d="M60.5 296.8h.7v-.7h-.7v.7Z" class="g1_2"/>
<path d="M60.5 296.8h.7v-.7h-.7v.7Z" class="g1_2"/>
<path d="M61.2 296.8h54.3v-.7H61.2v.7Z" class="g1_2"/>
<path d="M115.5 296.8h.7v-.7h-.7v.7Z" class="g1_2"/>
<path d="M116.2 296.8H253v-.7H116.2v.7Z" class="g1_2"/>
<path d="M253 296.8h.7v-.7H253v.7Z" class="g1_2"/>
<path d="M253.7 296.8H486.8v-.7H253.7v.7Z" class="g1_2"/>
<path d="M486.8 296.8h.7v-.7h-.7v.7Z" class="g1_2"/>
<path d="M487.5 296.8h233v-.7h-233v.7Z" class="g1_2"/>
<path d="M720.5 296.8h.7v-.7h-.7v.7Z" class="g1_2"/>
<path d="M721.2 296.8H865.7v-.7H721.2v.7Z" class="g1_2"/>
<path d="M865.7 296.8h.7v-.7h-.7v.7Z" class="g1_2"/>
<path d="M865.7 296.8h.7v-.7h-.7v.7Z" class="g1_2"/>
<path d="M60.5 324.5h.7V296.8h-.7v27.7Z" class="g1_2"/>
<path d="M115.5 324.5h.7V296.8h-.7v27.7Z" class="g1_2"/>
<path d="M253 324.5h.7V296.8H253v27.7Z" class="g1_2"/>
<path d="M486.8 324.5h.7V296.8h-.7v27.7Z" class="g1_2"/>
<path d="M720.5 324.5h.7V296.8h-.7v27.7Z" class="g1_2"/>
<path d="M865.7 324.5h.7V296.8h-.7v27.7Z" class="g1_2"/>
<path fill-rule="evenodd" d="M61.4 352.7h54.1V325.2H61.4v27.5Z" class="g0_2"/>
<path d="M65.3 352.7h46.4V325.2H65.3v27.5Z" class="g0_2"/>
<path d="M60.5 325.2h.7v-.7h-.7v.7Z" class="g1_2"/>
<path d="M61.2 325.2h54.3v-.7H61.2v.7Z" class="g1_2"/>
<path d="M115.5 325.2h.7v-.7h-.7v.7Z" class="g1_2"/>
<path d="M116.2 325.2H253v-.7H116.2v.7Z" class="g1_2"/>
<path d="M253 325.2h.7v-.7H253v.7Z" class="g1_2"/>
<path d="M253.7 325.2H486.8v-.7H253.7v.7Z" class="g1_2"/>
<path d="M486.8 325.2h.7v-.7h-.7v.7Z" class="g1_2"/>
<path d="M487.5 325.2h233v-.7h-233v.7Z" class="g1_2"/>
<path d="M720.5 325.2h.7v-.7h-.7v.7Z" class="g1_2"/>
<path d="M721.2 325.2H865.7v-.7H721.2v.7Z" class="g1_2"/>
<path d="M865.7 325.2h.7v-.7h-.7v.7Z" class="g1_2"/>
<path d="M60.5 352.7h.7V325.2h-.7v27.5Z" class="g1_2"/>
<path d="M60.5 353.5h.7v-.8h-.7v.8Z" class="g1_2"/>
<path d="M60.5 353.5h.7v-.8h-.7v.8Z" class="g1_2"/>
<path d="M61.2 353.5h54.3v-.8H61.2v.8Z" class="g1_2"/>
<path d="M115.5 352.7h.7V325.2h-.7v27.5Z" class="g1_2"/>
<path d="M115.5 353.5h.7v-.8h-.7v.8Z" class="g1_2"/>
<path d="M116.2 353.5H253v-.8H116.2v.8Z" class="g1_2"/>
<path d="M253 352.7h.7V325.2H253v27.5Z" class="g1_2"/>
<path d="M253 353.5h.7v-.8H253v.8Z" class="g1_2"/>
<path d="M253.7 353.5H486.8v-.8H253.7v.8Z" class="g1_2"/>
<path d="M486.8 352.7h.7V325.2h-.7v27.5Z" class="g1_2"/>
<path d="M486.8 353.5h.7v-.8h-.7v.8Z" class="g1_2"/>
<path d="M487.5 353.5h233v-.8h-233v.8Z" class="g1_2"/>
<path d="M720.5 352.7h.7V325.2h-.7v27.5Z" class="g1_2"/>
<path d="M720.5 353.5h.7v-.8h-.7v.8Z" class="g1_2"/>
<path d="M721.2 353.5H865.7v-.8H721.2v.8Z" class="g1_2"/>
<path d="M865.7 352.7h.7V325.2h-.7v27.5Z" class="g1_2"/>
<path d="M865.7 353.5h.7v-.8h-.7v.8Z" class="g1_2"/>
<path d="M865.7 353.5h.7v-.8h-.7v.8Z" class="g1_2"/>
<path fill-rule="evenodd" d="M57.4 534.8H469.1V510.9H57.4v23.9Z" class="g0_2"/>
<path d="M65.3 534.8h396V510.9H65.3v23.9Z" class="g0_2"/>
<path fill-rule="evenodd" d="M469.9 534.8H844.2V510.9H469.9v23.9Z" class="g0_2"/>
<path d="M477.8 534.8H836.4V510.9H477.8v23.9Z" class="g0_2"/>
<path d="M56.7 510.9h.7v-.7h-.7v.7Z" class="g1_2"/>
<path d="M56.7 510.9h.7v-.7h-.7v.7Z" class="g1_2"/>
<path d="M57.4 510.9H469.1v-.7H57.4v.7Z" class="g1_2"/>
<path d="M469.1 510.9h.8v-.7h-.8v.7Z" class="g1_2"/>
<path d="M469.9 510.9H844.2v-.7H469.9v.7Z" class="g1_2"/>
<path d="M844.2 510.9h.8v-.7h-.8v.7Z" class="g1_2"/>
<path d="M844.2 510.9h.8v-.7h-.8v.7Z" class="g1_2"/>
<path d="M56.7 534.8h.7V510.9h-.7v23.9Z" class="g1_2"/>
<path d="M469.1 534.8h.8V510.9h-.8v23.9Z" class="g1_2"/>
<path d="M844.2 534.8h.8V510.9h-.8v23.9Z" class="g1_2"/>
<path d="M300.3 566.2l-.7 2.3l-.8 2.3l-.7 2.3l-.7 2.2l-.8 2.2l-.7 2.1l-.8 2.1l-.7 2.1l-.7 2l-.8 2l-1.4 3.9l-1.5 3.7l-.7 1.8l-.7 1.8l-1.5 3.5l-.7 1.6l-.7 1.7l-.8 1.5l-.7 1.6l-1.4 3l-.7 1.5l-.7 1.4l-1.4 2.7l-.8 1.3l-.7 1.3l-.7 1.2l-.7 1.2l-1.4 2.2l-.7 1.1l-.7 1.1l-.7 1l-.7 .9l-1.4 1.9l-.7 .8l-.7 .8l-1.4 1.6l-.7 .7l-.7 .7l-.7 .6l-.7 .6l-.7 .6l-.7 .5l-.7 .5l-.6 .5l-.7 .4l-.7 .4l-.7 .3l-.7 .4l-.7 .2l-.6 .2l-.7 .3l-.7 .1l-.7 .2l-.7 .1h-2.6l-.7 -.1l-.7 -.2l-.7 -.1l-.7 -.3l-.6 -.2l-.7 -.2l-.7 -.4l-.6 -.3l-.7 -.4l-.6 -.4l-.7 -.5l-.7 -.5l-.6 -.5l-.7 -.6l-.7 -.6l-.6 -.6l-.7 -.7l-.6 -.7l-1.3 -1.6l-.7 -.8l-.6 -.8l-1.3 -1.9l-.7 -.9l-.6 -1l-.7 -1.1l-.6 -1.1l-1.3 -2.2l-.7 -1.2l-.6 -1.2l-.7 -1.3l-.6 -1.3L230 614.8l-.6 -1.4l-.6 -1.5l-1.3 -3l-.7 -1.6l-.6 -1.5l-.6 -1.7l-.6 -1.6L223.7 599l-.6 -1.8l-.6 -1.8l-1.3 -3.7L220 587.8l-.6 -2l-.6 -2l-.7 -2.1l-.6 -2.1l-.6 -2.1l-.6 -2.2l-.6 -2.2l-.6 -2.3l-.6 -2.3l-.6 -2.3" class="g2_2"/>
<path d="M314.4 617.7l.3 -.3l.6 -.6l.2 -.4l.2 -.3l.1 -.3l.1 -.3l.1 -.4l.1 -.4v-.6l-.1 -.5l-.1 -.4l-.2 -.4l-.2 -.3v-.1l-.1 -.1l-.1 -.2l-.3 -.3l-.3 -.4l-.7 -.7l10.6 3.7L314 618Z" class="g3_2"/>
<path d="M193.9 614.6h122" class="g4_2"/>
<path d="M227.2 563.4l-.4 -.4l-.4 -.3l-.4 -.3l-.4 -.3l-.4 -.1l-.4 -.2h-1.1l-.4 .1l-.7 .3l-.8 .4l-.7 .6l-.3 .3l-.3 .4l3.6 -10.8l3.5 10.8Z" class="g3_2"/>
<path d="M224.3 661.1V561.8" class="g4_2"/>
<path d="M254.3 643.9l-.4 -.1l-.4 -.3l-.3 -.2l-.3 -.4l-.2 -.4l-.1 -.4v-.9l.1 -.4l.2 -.4l.3 -.3l.3 -.3l.4 -.2l.4 -.2h.9l.4 .2l.4 .2l.4 .3l.2 .3l.2 .4l.2 .4v.9l-.2 .4l-.1 .2l-.1 .2l-.2 .4l-.4 .2l-.2 .1l-.1 .1l-.1 .1l-.4 .1H255l-.2 .1Z" class="g5_2"/>
<path d="M694.1 641.3l-1.5 -4.7l-1.5 -4.4l-1.4 -4.4l-1.5 -4.1l-1.5 -4.1l-1.4 -3.9L683.8 612l-1.4 -3.6L680.9 605l-1.4 -3.3L678 598.5l-1.4 -3l-1.4 -2.9l-1.5 -2.7l-1.4 -2.6L670.9 585l-1.4 -2.3l-1.4 -2.2l-1.4 -2l-1.4 -1.8L663.9 575l-1.4 -1.5l-1.4 -1.4l-1.4 -1.2l-1.4 -1.1l-1.3 -1l-1.4 -.8l-1.4 -.6l-1.4 -.6l-1.3 -.3l-1.4 -.2l-1.3 -.1l-1.4 .1l-1.3 .2l-1.4 .3l-1.3 .6L642 568l-1.3 .8l-1.3 1l-1.3 1.1l-1.3 1.2l-1.3 1.4l-1.3 1.5l-1.3 1.7l-1.4 1.8l-1.3 2l-1.3 2.2l-1.2 2.3l-1.3 2.3l-1.3 2.6l-1.3 2.7l-1.2 2.9l-1.3 3l-1.3 3.2l-1.2 3.3l-1.3 3.4l-1.2 3.6l-1.3 3.7l-1.2 3.9l-1.3 4.1l-1.2 4.1l-1.2 4.4l-1.2 4.4l-1.2 4.7" class="g2_2"/>
<path d="M708.1 617.7l.4 -.3l.5 -.6l.2 -.4l.2 -.3l.2 -.3l.1 -.3l.1 -.4l.1 -.4v-.6l-.1 -.5l-.2 -.4l-.1 -.4l-.2 -.3l-.1 -.1v-.1l-.1 -.2l-.3 -.3l-.3 -.4l-.7 -.7l10.6 3.7L707.8 618Z" class="g3_2"/>
<path d="M587.7 614.6h122" class="g4_2"/>
<path d="M621 563.4l-.4 -.4l-.4 -.3l-.4 -.3l-.5 -.3l-.4 -.1l-.4 -.2h-1.1l-.4 .1l-.7 .3l-.7 .4l-.7 .6l-.3 .3l-.4 .4l3.6 -10.8l3.6 10.8Z" class="g3_2"/>
<path d="M618.1 661.1V561.8" class="g4_2"/>
<path d="M648.1 568.5l-.4 -.1l-.4 -.2l-.3 -.3l-.3 -.4l-.2 -.4l-.1 -.4v-.9l.1 -.4l.2 -.4l.3 -.3l.3 -.3l.4 -.2l.4 -.1h.9l.4 .1l.4 .2l.4 .3l.2 .3l.2 .4l.2 .4v.9l-.2 .4l-.1 .2l-.1 .2l-.2 .4l-.4 .3l-.2 .1h-.1l-.1 .1l-.4 .1h-.1l-.1 .1h-.2Z" class="g5_2"/>
<path d="M56.7 535.5h.7v-.7h-.7v.7Z" class="g1_2"/>
<path d="M57.4 535.5H469.1v-.7H57.4v.7Z" class="g1_2"/>
<path d="M469.1 535.5h.8v-.7h-.8v.7Z" class="g1_2"/>
<path d="M469.9 535.5H844.2v-.7H469.9v.7Z" class="g1_2"/>
<path d="M844.2 535.5h.8v-.7h-.8v.7Z" class="g1_2"/>
<path d="M56.7 664.4h.7V535.5h-.7V664.4Z" class="g1_2"/>
<path d="M469.1 664.4h.8V535.5h-.8V664.4Z" class="g1_2"/>
<path d="M844.2 664.4h.8V535.5h-.8V664.4Z" class="g1_2"/>
<path d="M56.7 665.1h.7v-.7h-.7v.7Z" class="g1_2"/>
<path d="M57.4 665.1H469.1v-.7H57.4v.7Z" class="g1_2"/>
<path d="M469.1 665.1h.8v-.7h-.8v.7Z" class="g1_2"/>
<path d="M469.9 665.1H844.2v-.7H469.9v.7Z" class="g1_2"/>
<path d="M844.2 665.1h.8v-.7h-.8v.7Z" class="g1_2"/>
<path d="M56.7 689.1h.7v-24h-.7v24Z" class="g1_2"/>
<path d="M469.1 689.1h.8v-24h-.8v24Z" class="g1_2"/>
<path d="M844.2 689.1h.8v-24h-.8v24Z" class="g1_2"/>
<path d="M56.7 689.9h.7v-.8h-.7v.8Z" class="g1_2"/>
<path d="M57.4 689.9H469.1v-.8H57.4v.8Z" class="g1_2"/>
<path d="M469.1 689.9h.8v-.8h-.8v.8Z" class="g1_2"/>
<path d="M469.9 689.9H844.2v-.8H469.9v.8Z" class="g1_2"/>
<path d="M844.2 689.9h.8v-.8h-.8v.8Z" class="g1_2"/>
<path d="M56.7 713.7h.7V689.9h-.7v23.8Z" class="g1_2"/>
<path d="M56.7 714.4h.7v-.7h-.7v.7Z" class="g1_2"/>
<path d="M56.7 714.4h.7v-.7h-.7v.7Z" class="g1_2"/>
<path d="M57.4 714.4H469.1v-.7H57.4v.7Z" class="g1_2"/>
<path d="M469.1 713.7h.8V689.9h-.8v23.8Z" class="g1_2"/>
<path d="M469.1 714.4h.8v-.7h-.8v.7Z" class="g1_2"/>
<path d="M469.9 714.4H844.2v-.7H469.9v.7Z" class="g1_2"/>
<path d="M844.2 713.7h.8V689.9h-.8v23.8Z" class="g1_2"/>
<path d="M844.2 714.4h.8v-.7h-.8v.7Z" class="g1_2"/>
<path d="M844.2 714.4h.8v-.7h-.8v.7Z" class="g1_2"/>
<path fill-rule="evenodd" d="M57.4 900.5H325V876.7H57.4v23.8Z" class="g0_2"/>
<path d="M65.3 900.5H317.2V876.7H65.3v23.8Z" class="g0_2"/>
<path fill-rule="evenodd" d="M325.8 900.5H593.5V876.7H325.8v23.8Z" class="g0_2"/>
<path d="M333.7 900.5H585.6V876.7H333.7v23.8Z" class="g0_2"/>
<path fill-rule="evenodd" d="M594.2 900.5H861.9V876.7H594.2v23.8Z" class="g0_2"/>
<path d="M602.1 900.5H854V876.7H602.1v23.8Z" class="g0_2"/>
<path d="M56.7 876.5h.7v-.7h-.7v.7Z" class="g1_2"/>
<path d="M56.7 876.5h.7v-.7h-.7v.7Z" class="g1_2"/>
<path d="M57.4 876.5H325v-.7H57.4v.7Z" class="g1_2"/>
<path d="M325 876.5h.8v-.7H325v.7Z" class="g1_2"/>
<path d="M325.8 876.5H593.5v-.7H325.8v.7Z" class="g1_2"/>
<path d="M593.5 876.5h.7v-.7h-.7v.7Z" class="g1_2"/>
<path d="M594.2 876.5H861.9v-.7H594.2v.7Z" class="g1_2"/>
<path d="M861.9 876.5h.7v-.7h-.7v.7Z" class="g1_2"/>
<path d="M861.9 876.5h.7v-.7h-.7v.7Z" class="g1_2"/>
<path d="M56.7 900.5h.7v-24h-.7v24Z" class="g1_2"/>
<path d="M325 900.5h.8v-24H325v24Z" class="g1_2"/>
<path d="M593.5 900.5h.7v-24h-.7v24Z" class="g1_2"/>
<path d="M861.9 900.5h.7v-24h-.7v24Z" class="g1_2"/>
<path d="M56.7 901.3h.7v-.8h-.7v.8Z" class="g1_2"/>
<path d="M57.4 901.3H325v-.8H57.4v.8Z" class="g1_2"/>
<path d="M325 901.3h.8v-.8H325v.8Z" class="g1_2"/>
<path d="M325.8 901.3H593.5v-.8H325.8v.8Z" class="g1_2"/>
<path d="M593.5 901.3h.7v-.8h-.7v.8Z" class="g1_2"/>
<path d="M594.2 901.3H861.9v-.8H594.2v.8Z" class="g1_2"/>
<path d="M861.9 901.3h.7v-.8h-.7v.8Z" class="g1_2"/>
<path d="M56.7 925.1h.7V901.3h-.7v23.8Z" class="g1_2"/>
<path d="M325 925.1h.8V901.3H325v23.8Z" class="g1_2"/>
<path d="M593.5 925.1h.7V901.3h-.7v23.8Z" class="g1_2"/>
<path d="M861.9 925.1h.7V901.3h-.7v23.8Z" class="g1_2"/>
<path d="M56.7 925.8h.7v-.7h-.7v.7Z" class="g1_2"/>
<path d="M57.4 925.8H190.8v-.7H57.4v.7Z" class="g1_2"/>
<path d="M190.8 925.8h.8v-.7h-.8v.7Z" class="g1_2"/>
<path d="M191.6 925.8H325.1v-.7H191.6v.7Z" class="g1_2"/>
<path d="M325 925.8h.8v-.7H325v.7Z" class="g1_2"/>
<path d="M325.8 925.8H459.3v-.7H325.8v.7Z" class="g1_2"/>
<path d="M459.3 925.8h.7v-.7h-.7v.7Z" class="g1_2"/>
<path d="M460 925.8H593.5v-.7H460v.7Z" class="g1_2"/>
<path d="M593.5 925.8h.7v-.7h-.7v.7Z" class="g1_2"/>
<path d="M594.2 925.8H727.7v-.7H594.2v.7Z" class="g1_2"/>
<path d="M727.7 925.8h.7v-.7h-.7v.7Z" class="g1_2"/>
<path d="M728.4 925.8H861.9v-.7H728.4v.7Z" class="g1_2"/>
<path d="M861.9 925.8h.7v-.7h-.7v.7Z" class="g1_2"/>
<path d="M56.7 949.7h.7V925.8h-.7v23.9Z" class="g1_2"/>
<path d="M190.8 949.7h.8V925.8h-.8v23.9Z" class="g1_2"/>
<path d="M325 949.7h.8V925.8H325v23.9Z" class="g1_2"/>
<path d="M459.3 949.7h.7V925.8h-.7v23.9Z" class="g1_2"/>
<path d="M593.5 949.7h.7V925.8h-.7v23.9Z" class="g1_2"/>
<path d="M727.7 949.7h.7V925.8h-.7v23.9Z" class="g1_2"/>
<path d="M861.9 949.7h.7V925.8h-.7v23.9Z" class="g1_2"/>
<path d="M56.7 950.4h.7v-.7h-.7v.7Z" class="g1_2"/>
<path d="M57.4 950.4H190.8v-.7H57.4v.7Z" class="g1_2"/>
<path d="M190.8 950.4h.8v-.7h-.8v.7Z" class="g1_2"/>
<path d="M191.6 950.4H325.1v-.7H191.6v.7Z" class="g1_2"/>
<path d="M325 950.4h.8v-.7H325v.7Z" class="g1_2"/>
<path d="M325.8 950.4H459.3v-.7H325.8v.7Z" class="g1_2"/>
<path d="M459.3 950.4h.7v-.7h-.7v.7Z" class="g1_2"/>
<path d="M460 950.4H593.5v-.7H460v.7Z" class="g1_2"/>
<path d="M593.5 950.4h.7v-.7h-.7v.7Z" class="g1_2"/>
<path d="M594.2 950.4H727.7v-.7H594.2v.7Z" class="g1_2"/>
<path d="M727.7 950.4h.7v-.7h-.7v.7Z" class="g1_2"/>
<path d="M728.4 950.4H861.9v-.7H728.4v.7Z" class="g1_2"/>
<path d="M861.9 950.4h.7v-.7h-.7v.7Z" class="g1_2"/>
<path d="M56.7 974.2h.7V950.4h-.7v23.8Z" class="g1_2"/>
<path d="M190.8 974.2h.8V950.4h-.8v23.8Z" class="g1_2"/>
<path d="M325 974.2h.8V950.4H325v23.8Z" class="g1_2"/>
<path d="M459.3 974.2h.7V950.4h-.7v23.8Z" class="g1_2"/>
<path d="M593.5 974.2h.7V950.4h-.7v23.8Z" class="g1_2"/>
<path d="M727.7 974.2h.7V950.4h-.7v23.8Z" class="g1_2"/>
<path d="M861.9 974.2h.7V950.4h-.7v23.8Z" class="g1_2"/>
<path d="M145.5 1019.3l-1.1 3.7l-1.1 3.5l-1.2 3.4l-1.1 3.4l-1.1 3.2l-1.1 3.1l-1.1 2.9l-1.1 2.9l-1.1 2.7l-1.1 2.7l-1.1 2.5l-1.1 2.4l-1.1 2.2l-1.1 2.2l-1 2l-1.1 2l-1.1 1.8l-1.1 1.7l-1.1 1.5l-1 1.5l-1.1 1.3l-1 1.3l-1.1 1.1l-1 1l-1.1 .8l-1 .8l-1.1 .7l-1 .5l-1 .4l-1.1 .3l-1 .2h-2l-1.1 -.2l-1 -.3l-1 -.4l-1 -.5l-1 -.7l-1.1 -.8l-.9 -.8l-1 -1l-1 -1.1l-1.1 -1.3l-.9 -1.3l-1 -1.5l-1 -1.5l-.9 -1.7l-1 -1.8l-1 -2l-.9 -2l-1 -2.2l-1 -2.2l-.9 -2.4l-1 -2.5l-.9 -2.7l-.9 -2.7l-1 -2.9l-.9 -2.9l-1 -3.1l-.9 -3.2l-1 -3.4l-.8 -3.4l-1 -3.5l-.9 -3.7" class="g6_2"/>
<path d="M155.3 1054.6l.4 -.4l.3 -.4l.3 -.4l.3 -.4l.1 -.4l.1 -.4v-.2l.1 -.1v-.3l-.1 -.8l-.1 -.4l-.2 -.3l-.4 -.7l-.2 -.3l-.3 -.4l-.7 -.6l10.1 3.5l-10.1 3.4Z" class="g3_2"/>
<path d="M68.2 1051.7h88.7" class="g7_2"/>
<path d="M105.8 1004.8l-.4 -.3l-.4 -.3l-.4 -.2l-.3 -.2l-.8 -.1h-.3l-.8 .1l-.3 .1l-.3 .2l-.7 .4l-.7 .5l-.6 .7l3.4 -10.3l3.4 10.3Z" class="g3_2"/>
<path d="M103.2 1096v-92.3" class="g7_2"/>
<path d="M279.7 1079l-1.1 -3.7l-1.1 -3.5l-1.2 -3.5l-1.1 -3.3l-1.1 -3.2l-1.1 -3.1l-1.1 -3l-1.1 -2.8l-1.1 -2.8l-1.1 -2.6l-1.1 -2.5l-1.1 -2.4l-1.1 -2.3l-1.1 -2.1l-1.1 -2.1l-1 -1.9l-1.1 -1.8l-1.1 -1.7l-1.1 -1.6l-1 -1.4l-1.1 -1.4l-1.1 -1.2l-1 -1.1l-1 -1l-1.1 -.9l-1.1 -.7l-1 -.7l-1 -.5l-1.1 -.4l-1 -.3l-1 -.2h-2.1l-1 .2l-1 .3l-1 .4l-1.1 .5l-.9 .7l-1.1 .7l-.9 .9l-1.1 1l-.9 1.1l-1.1 1.2l-.9 1.4l-1 1.4l-1 1.6l-.9 1.7l-1 1.8l-1 1.9l-1 2.1l-.9 2.1l-1 2.3l-.9 2.4l-1 2.5l-1 2.6l-.9 2.8l-.9 2.8l-1 3l-.9 3.1l-.9 3.2l-1 3.3l-.9 3.5l-.9 3.5l-.9 3.7" class="g6_2"/>
<path d="M289.5 1054.6l.4 -.4l.3 -.4l.3 -.4l.2 -.4l.2 -.4l.1 -.4v-.2l.1 -.1v-.3l-.1 -.8l-.2 -.4l-.1 -.3l-.4 -.7l-.3 -.3l-.3 -.4l-.6 -.6l10.1 3.5l-10.1 3.4Z" class="g3_2"/>
<path d="M202.4 1051.7h88.7" class="g7_2"/>
<path d="M240 1004.8l-.4 -.3l-.4 -.3l-.4 -.2l-.4 -.2l-.7 -.1h-.3l-.8 .1l-.3 .1l-.3 .2l-.7 .4l-.7 .5l-.6 .7l3.4 -10.3l3.4 10.3Z" class="g3_2"/>
<path d="M237.4 1096v-92.3" class="g7_2"/>
<path d="M414.2 1014.9l-1.1 3.7l-1.1 3.5l-1.1 3.4l-1.1 3.3l-1.1 3.2l-1.1 3.1l-1.1 2.9l-1.1 2.9l-.6 1.6l-.7 1.5l-.6 1.5l-.7 1.5l-1.2 2.8l-1.3 2.7L399 1055l-.6 1.2l-.6 1.2l-1.2 2.2l-1.2 2.1l-1 1.5l-1 1.5l-1.1 1.3l-.9 1.3l-1.1 1.2l-.9 1l-1 1l-1 .8l-1 .8l-1 .6l-.9 .6l-1 .5l-.9 .3l-1 .3l-1 .1l-.9 .1l-1 -.1l-.9 -.1l-1 -.3l-.9 -.3l-1 -.5l-.9 -.6l-1 -.6l-.9 -.8l-.9 -.8l-.9 -1l-1 -1l-.9 -1.2l-.9 -1.3l-.9 -1.3l-.9 -1.5l-.9 -1.5l-1.1 -2.1l-1.2 -2.2l-.6 -1.2l-.5 -1.2l-1.1 -2.5l-1.1 -2.7l-1.1 -2.8l-.6 -1.5L357 1044l-.5 -1.5l-.5 -1.6l-1 -2.9l-1 -2.9l-.9 -3.1l-.9 -3.2l-1 -3.3l-.9 -3.4l-.9 -3.5l-.9 -3.7" class="g8_2"/>
<path d="M424.1 1077.9l.4 -.4l.3 -.4l.3 -.4l.2 -.3l.2 -.4l.1 -.4v-.2l.1 -.2v-.3l-.2 -.8l-.1 -.4l-.2 -.3l-.3 -.6l-.3 -.4l-.3 -.3l-.6 -.7l10.1 3.5l-10.1 3.4Z" class="g3_2"/>
<path d="M336.6 1075h89.1" class="g9_2"/>
<path d="M374.4 1004.8l-.4 -.4l-.4 -.2l-.4 -.2l-.4 -.2l-.4 -.1h-.7l-.7 .1l-.4 .1l-.3 .1l-.6 .4l-.4 .3l-.3 .2l-.7 .8l3.4 -10.3l3.4 10.3Z" class="g3_2"/>
<path d="M371.8 1095.8v-92.1" class="g9_2"/>
<path d="M555.3 1083.3l-1.1 -3.7l-1.1 -3.5l-1.1 -3.4l-1.1 -3.3l-1.2 -3.2l-1.1 -3.1l-1.1 -3l-1 -2.8l-1.3 -3.1l-1.3 -3l-1.3 -2.9l-1.2 -2.6l-1.3 -2.5l-1.2 -2.4l-1.2 -2.2l-1.2 -2.1l-1.1 -1.6l-1 -1.4l-1 -1.4l-1 -1.3l-1 -1.2l-1 -1l-.9 -1l-1 -.8l-1 -.8l-1 -.7l-1 -.5l-.9 -.4l-1 -.4l-.9 -.2l-1 -.2h-1.9l-1 .2l-.9 .2l-1 .4l-.9 .4l-.9 .5l-1 .7l-.9 .8l-1 .8l-.9 1l-.9 1l-.9 1.2l-.9 1.3l-.9 1.4l-.9 1.4l-.9 1.6l-1.2 2.1l-1.1 2.2l-1.1 2.4l-1.1 2.5l-1.1 2.6l-1.1 2.9l-1.1 3l-1.1 3.1l-.9 2.8l-1 3l-1 3.1l-.9 3.2l-.9 3.3l-.9 3.4l-1 3.5l-.9 3.7" class="g8_2"/>
<path d="M558.4 1026.3l.3 -.4l.4 -.4l.3 -.4l.2 -.4l.1 -.4l.1 -.4l.1 -.2v-.5l-.1 -.7l-.1 -.4l-.2 -.4l-.4 -.6l-.2 -.4l-.3 -.3l-.7 -.7l10.1 3.5l-10.1 3.5Z" class="g3_2"/>
<path d="M470.8 1023.4h89.1" class="g9_2"/>
<path d="M515.4 1005l-.4 -.3l-.4 -.2l-.3 -.3l-.4 -.1l-.8 -.1l-.1 -.1l-.1 .1v-.1l-.1 .1v-.1v.1l-.8 .1l-.7 .2l-.6 .4l-.4 .2l-.3 .3l-.6 .7l3.4 -10.2l3.4 10.2Z" class="g3_2"/>
<path d="M512.8 1096.2V1004" class="g9_2"/>
<path d="M688.5 1007.9l-1.1 3.6l-1.1 3.6l-1.1 3.4l-1.1 3.3L683 1025l-1.1 3l-1.1 3l-1.1 2.8l-.6 1.6l-.7 1.5l-.6 1.6l-.7 1.4l-1.3 2.8l-1.2 2.7l-1.3 2.5l-.6 1.2l-.6 1.2l-1.2 2.2l-1.2 2.1l-1 1.6l-1 1.4l-1.1 1.4l-.9 1.3l-1.1 1.1l-.9 1.1l-1 .9l-1 .9l-1 .7l-.9 .7l-1 .5l-1 .5l-.9 .4l-1 .2l-1 .2H653l-.9 -.2l-1 -.2l-.9 -.4l-1 -.5l-.9 -.5l-.9 -.7l-.9 -.7l-1 -.9l-.9 -.9l-.9 -1.1l-.9 -1.1l-1 -1.3l-.9 -1.4l-.9 -1.4l-.9 -1.6l-1.1 -2.1l-1.1 -2.2l-.6 -1.2l-.6 -1.2l-1.1 -2.5l-1.1 -2.7l-1.1 -2.8l-.5 -1.4l-.5 -1.6l-.6 -1.5l-.5 -1.6l-1 -2.8l-.9 -3l-1 -3l-.9 -3.2l-1 -3.3l-.9 -3.4l-.9 -3.6l-.9 -3.6" class="ga_2"/>
<path d="M692.5 1077.9l.3 -.4l.4 -.4l.3 -.4l.2 -.3l.1 -.4l.1 -.4l.1 -.2v-.5l-.1 -.8l-.1 -.4l-.2 -.3l-.4 -.7l-.2 -.3l-.3 -.3l-.7 -.7l10.1 3.5l-10.1 3.4Z" class="g3_2"/>
<path d="M605 1075h89" class="gb_2"/>
<path d="M642.8 1004.8l-.4 -.4l-.4 -.2l-.4 -.2l-.3 -.2l-.4 -.1h-.7l-.8 .1l-.3 .1l-.4 .1l-.6 .4l-.4 .3l-.3 .2l-.6 .8l3.4 -10.3l3.4 10.3Z" class="g3_2"/>
<path d="M640.2 1095.8v-92.1" class="gb_2"/>
<path d="M828.4 1083.4l-1.2 -3.7l-1.1 -3.5l-1.1 -3.4l-1.1 -3.3l-1.1 -3.2l-1.1 -3l-1.1 -3l-1 -2.8l-1.3 -3.2l-1.3 -2.9l-1.3 -2.9l-1.2 -2.6l-1.3 -2.6l-1.2 -2.4l-1.3 -2.2l-1.2 -2l-1 -1.6l-1 -1.5l-1 -1.4l-1 -1.2l-1 -1.2l-1 -1l-1 -1l-.9 -.8l-1 -.8l-1 -.7l-1 -.5l-.9 -.5l-1 -.3l-1 -.3l-.9 -.1l-1 -.1l-.9 .1l-1 .1l-1 .3l-.9 .3l-1 .5l-.9 .5l-.9 .7l-.9 .8l-1 .8l-.9 1l-.9 1l-.9 1.2l-.9 1.2l-.9 1.4l-.9 1.5l-.9 1.6l-1.2 2l-1.1 2.2l-1.2 2.4l-1 2.6l-1.1 2.6l-1.1 2.9l-1.1 2.9l-1.1 3.2l-1 2.8l-.9 3l-1 3l-.9 3.2l-.9 3.3l-.9 3.4l-1 3.5l-.9 3.7" class="gc_2"/>
<path d="M826.7 1018.7l.3 -.4l.4 -.4l.3 -.4l.2 -.4l.1 -.4l.1 -.4l.1 -.2v-.4l-.1 -.8l-.1 -.4l-.2 -.3l-.4 -.7l-.2 -.3l-.3 -.4l-.7 -.6l10.1 3.5l-10.1 3.4Z" class="g3_2"/>
<path d="M739.2 1015.8h89" class="g9_2"/>
<path d="M780.3 1004.8l-.4 -.4l-.3 -.2l-.4 -.2l-.4 -.2l-.4 -.1h-.7l-.7 .1l-.4 .1l-.3 .1l-.7 .4l-.3 .3l-.3 .2l-.7 .8l3.4 -10.3l3.4 10.3Z" class="g3_2"/>
<path d="M777.8 1095.8v-92.1" class="g9_2"/>
<path d="M56.7 975h.7v-.8h-.7v.8Z" class="g1_2"/>
<path d="M57.4 975H190.8v-.8H57.4v.8Z" class="g1_2"/>
<path d="M190.8 975h.8v-.8h-.8v.8Z" class="g1_2"/>
<path d="M191.6 975H325.1v-.8H191.6v.8Z" class="g1_2"/>
<path d="M325 975h.8v-.8H325v.8Z" class="g1_2"/>
<path d="M325.8 975H459.3v-.8H325.8v.8Z" class="g1_2"/>
<path d="M459.3 975h.7v-.8h-.7v.8Z" class="g1_2"/>
<path d="M460 975H593.5v-.8H460v.8Z" class="g1_2"/>
<path d="M593.5 975h.7v-.8h-.7v.8Z" class="g1_2"/>
<path d="M594.2 975H727.7v-.8H594.2v.8Z" class="g1_2"/>
<path d="M727.7 975h.7v-.8h-.7v.8Z" class="g1_2"/>
<path d="M728.4 975H861.9v-.8H728.4v.8Z" class="g1_2"/>
<path d="M861.9 975h.7v-.8h-.7v.8Z" class="g1_2"/>
<path d="M56.7 1100.4h.7V975h-.7v125.4Z" class="g1_2"/>
<path d="M56.7 1101.1h.7v-.7h-.7v.7Z" class="g1_2"/>
<path d="M56.7 1101.1h.7v-.7h-.7v.7Z" class="g1_2"/>
<path d="M57.4 1101.1H190.8v-.7H57.4v.7Z" class="g1_2"/>
<path d="M190.8 1100.4h.8V975h-.8v125.4Z" class="g1_2"/>
<path d="M190.8 1101.1h.8v-.7h-.8v.7Z" class="g1_2"/>
<path d="M191.6 1101.1H325.1v-.7H191.6v.7Z" class="g1_2"/>
<path d="M325 1100.4h.8V975H325v125.4Z" class="g1_2"/>
<path d="M325 1101.1h.8v-.7H325v.7Z" class="g1_2"/>
<path d="M325.8 1101.1H459.3v-.7H325.8v.7Z" class="g1_2"/>
<path d="M459.3 1100.4h.7V975h-.7v125.4Z" class="g1_2"/>
<path d="M459.3 1101.1h.7v-.7h-.7v.7Z" class="g1_2"/>
<path d="M460 1101.1H593.5v-.7H460v.7Z" class="g1_2"/>
<path d="M593.5 1100.4h.7V975h-.7v125.4Z" class="g1_2"/>
<path d="M593.5 1101.1h.7v-.7h-.7v.7Z" class="g1_2"/>
<path d="M594.2 1101.1H727.7v-.7H594.2v.7Z" class="g1_2"/>
<path d="M727.7 1100.4h.7V975h-.7v125.4Z" class="g1_2"/>
<path d="M727.7 1101.1h.7v-.7h-.7v.7Z" class="g1_2"/>
<path d="M728.4 1101.1H861.9v-.7H728.4v.7Z" class="g1_2"/>
<path d="M861.9 1100.4h.7V975h-.7v125.4Z" class="g1_2"/>
<path d="M861.9 1101.1h.7v-.7h-.7v.7Z" class="g1_2"/>
<path d="M861.9 1101.1h.7v-.7h-.7v.7Z" class="g1_2"/>
<path d="M67.2 376.7l-.9 -.1l-.8 -.2l-.8 -.4l-.6 -.6l-.3 -.3l-.3 -.4l-.4 -.7l-.2 -.8V358.9l.2 -.8l.4 -.8l.6 -.6l.6 -.6l.8 -.4l.8 -.2l.9 -.1H79.7l.8 .1l.4 .1l.4 .1l.7 .4l.3 .2l.4 .4l.5 .6l.4 .8l.3 .8l.1 .9v12.6l-.1 .4v.4l-.3 .8l-.2 .4l-.1 .1l-.1 .2l-.2 .4l-.2 .1l-.1 .1v.1l-.4 .3L82 376h-.2l-.2 .2l-.3 .2l-.4 .1h-.2l-.2 .1h-.3l-.1 .1h-.4Z" class="gd_2"/>
<image preserveAspectRatio="none" x="25" y="439" width="823" height="39" xlink:href="img/2.png"/>
<path d="M503.6 805.3l-.9 -.1l-.8 -.2l-.8 -.4l-.6 -.5l-.3 -.4l-.3 -.3l-.3 -.7l-.3 -.9V787.5l.3 -.8l.3 -.8l.6 -.6l.6 -.6l.8 -.4l.8 -.2h14.2l.4 .1l.4 .1l.7 .4l.3 .3l.4 .3l.6 .6l.4 .8l.2 .8l.1 .9V801l-.1 .4v.4l-.2 .9l-.2 .3l-.2 .2v.2l-.3 .3l-.2 .1l-.1 .1v.2l-.4 .2l-.3 .3l-.2 .1l-.2 .1l-.3 .2l-.4 .1h-.1l-.1 .1h-.5l-.1 .1h-.4Z" class="gd_2"/>
<path d="M503.6 830.6l-.9 -.1l-.8 -.2l-.8 -.4l-.6 -.6l-.3 -.3l-.3 -.4l-.3 -.7l-.3 -.8V812.8l.3 -.8l.3 -.8l.6 -.6l.6 -.6l.8 -.4l.8 -.2l.9 -.1h12.5l.8 .1l.4 .1l.4 .1l.7 .4l.3 .2l.4 .4l.6 .6l.4 .8l.2 .8l.1 .9v12.6l-.1 .4v.4l-.2 .8l-.2 .4l-.2 .1v.2l-.3 .4l-.2 .1l-.1 .1v.1l-.4 .3l-.3 .3h-.2l-.2 .2l-.3 .2l-.4 .1h-.2l-.2 .1h-.3l-.1 .1h-.4Z" class="gd_2"/>
</svg>