<?xml version="1.0" encoding="UTF-8" standalone="no"?>
<!DOCTYPE svg PUBLIC "-//W3C//DTD SVG 1.1//EN"
"http://www.w3.org/Graphics/SVG/1.1/DTD/svg11.dtd">
<svg viewBox="0 0 909 1286" version="1.1" xmlns="http://www.w3.org/2000/svg" xmlns:xlink="http://www.w3.org/1999/xlink">
<defs>
<clipPath id="c0_1"><path d="M-.2 1286.6v-75.1h910v75.1Z"/></clipPath>
<clipPath id="c1_1"><path d="M.1 152.6V0H909.8V152.6Z"/></clipPath>
<clipPath id="c2_1"><path d="M23 203.8V154.1H909.8v49.7Z"/></clipPath>
<clipPath id="c3_1"><path d="M727.4 406.8V266.7H850.5V406.8Z"/></clipPath>
<clipPath id="c4_1"><path d="M549 551.6V463.8H859.2v87.8Z"/></clipPath>
<clipPath id="c5_1"><path d="M651.6 496.6v-10h8.1v10Z"/></clipPath>
<clipPath id="c6_1"><path d="M567.7 478.9v-8.7h7v8.7Z"/></clipPath>
<clipPath id="c7_1"><path d="M549 551.6V503.3H859.2v48.3Z"/></clipPath>
<clipPath id="c8_1"><path d="M552.6 520.9v-9.3h8.9v9.3Z"/></clipPath>
<clipPath id="c9_1"><path d="M587.6 498.4v-9.5h8.7v9.5Z"/></clipPath>
<clipPath id="ca_1"><path d="M564 517.5v-9.9h8.2v9.9Z"/></clipPath>
<clipPath id="cb_1"><path d="M593.7 517.1v-9.9h8.2v9.9Z"/></clipPath>
<clipPath id="cc_1"><path d="M614.2 522.9v-8.2h6.4v8.2Z"/></clipPath>
<clipPath id="cd_1"><path d="M576.2 501.4v-9.9h8.1v9.9Z"/></clipPath>
<clipPath id="ce_1"><path d="M607.6 495v-9.9h8.1V495Z"/></clipPath>
<clipPath id="cf_1"><path d="M624.4 482.3V472.2h8.2v10.1Z"/></clipPath>
<clipPath id="cg_1"><path d="M642.9 501.4v-9.9h8.2v9.9Z"/></clipPath>
<clipPath id="ch_1"><path d="M669.5 513.9v-10h8.3v10Z"/></clipPath>
<clipPath id="ci_1"><path d="M661.6 511.9v-10h8.2v10Z"/></clipPath>
<clipPath id="cj_1"><path d="M620.8 515.6v-10h8.1v10Z"/></clipPath>
<clipPath id="ck_1"><path d="M615 497.2v-8.3h6.4v8.3Z"/></clipPath>
<clipPath id="cl_1"><path d="M637.2 503v-8.2h6.4V503Z"/></clipPath>
<clipPath id="cm_1"><path d="M689 496.2v-8.8h7v8.8Z"/></clipPath>
<clipPath id="cn_1"><path d="M731 509v-8.8h7V509Z"/></clipPath>
<clipPath id="co_1"><path d="M686.9 487.1v-6.5h5.3v6.5Z"/></clipPath>
<clipPath id="cp_1"><path d="M677.2 505.1v-6.5h5.3v6.5Z"/></clipPath>
<clipPath id="cq_1"><path d="M710.4 506.2v-8.7h7.1v8.7Z"/></clipPath>
<clipPath id="cr_1"><path d="M707.1 494.2v-8.8h7v8.8Z"/></clipPath>
<clipPath id="cs_1"><path d="M704 504.7V496h7v8.7Z"/></clipPath>
<clipPath id="ct_1"><path d="M684.4 497.6v-7.1h5.8v7.1Z"/></clipPath>
<clipPath id="cu_1"><path d="M569.5 498.4v-8.9h7v8.9Z"/></clipPath>
<clipPath id="cv_1"><path d="M572.5 520.6v-8.8h7.1v8.8Z"/></clipPath>
<clipPath id="cw_1"><path d="M552.5 482.3v-8.9h7v8.9Z"/></clipPath>
<style type="text/css"><![CDATA[
.g0_1{
fill: #000;
}
.g1_1{
fill: none;
stroke: #000;
stroke-width: 0.346;
stroke-linejoin: round;
}
.g2_1{
fill: #FFF;
}
.g3_1{
fill: none;
stroke: #000;
stroke-width: 0.346;
stroke-linecap: round;
stroke-miterlimit: 8;
}
]]></style>
</defs>
<image clip-path="url(#c0_1)" preserveAspectRatio="none" x="-2" y="1212" width="930" height="127" xlink:href="img/1.jpg"/>
<path d="M165.6 283.6h36.6v-.9H165.6v.9Z" class="g0_1"/>
<path d="M603.3 331.4h36.6v-.9H603.3v.9Z" class="g0_1"/>
<path d="M386.6 471.3h36.6v-1H386.6v1Z" class="g0_1"/>
<path d="M441.6 471.3h36.6v-1H441.6v1Z" class="g0_1"/>
<path d="M236.6 518.9h36.7V518H236.6v.9Z" class="g0_1"/>
<path d="M447.4 518.9h36.7V518H447.4v.9Z" class="g0_1"/>
<path d="M126.6 566.6h36.7v-.9H126.6v.9Z" class="g0_1"/>
<path d="M410.8 566.6h36.6v-.9H410.8v.9Z" class="g0_1"/>
<path d="M163.3 590.5h36.6v-.9H163.3v.9Z" class="g0_1"/>
<path d="M438.3 590.5h36.6v-.9H438.3v.9Z" class="g0_1"/>
<path d="M109.8 1090.6h36.8v-1H109.8v1Z" class="g0_1"/>
<path d="M362.9 1162.1h36.8v-1H362.9v1Z" class="g0_1"/>
<image clip-path="url(#c1_1)" preserveAspectRatio="none" x="0" y="0" width="915" height="152" xlink:href="img/2.jpg"/>
<image clip-path="url(#c2_1)" preserveAspectRatio="none" x="23" y="154" width="1038" height="49" xlink:href="img/3.png"/>
<image clip-path="url(#c3_1)" preserveAspectRatio="none" x="728" y="267" width="122" height="139" xlink:href="img/4.jpg"/>
<image preserveAspectRatio="none" x="538" y="662" width="318" height="206" xlink:href="img/5.jpg"/>
<g clip-path="url(#c4_1)">
<image preserveAspectRatio="none" x="549" y="464" width="310" height="87" xlink:href="img/6.jpg"/>
<image preserveAspectRatio="none" x="549" y="464" width="310" height="87" xlink:href="img/7.jpg"/>
</g>
<image clip-path="url(#c5_1)" preserveAspectRatio="none" x="652" y="487" width="7" height="9" xlink:href="img/8.jpg"/>
<image clip-path="url(#c6_1)" preserveAspectRatio="none" x="568" y="470" width="6" height="9" xlink:href="img/9.jpg"/>
<g clip-path="url(#c4_1)">
<image preserveAspectRatio="none" x="549" y="464" width="310" height="87" xlink:href="img/10.jpg"/>
<image preserveAspectRatio="none" x="549" y="464" width="310" height="87" xlink:href="img/11.jpg"/>
</g>
<image clip-path="url(#c7_1)" preserveAspectRatio="none" x="549" y="504" width="310" height="47" xlink:href="img/12.jpg"/>
<g clip-path="url(#c4_1)">
<image preserveAspectRatio="none" x="549" y="464" width="310" height="87" xlink:href="img/13.jpg"/>
<image preserveAspectRatio="none" x="549" y="464" width="310" height="87" xlink:href="img/14.jpg"/>
</g>
<image clip-path="url(#c8_1)" preserveAspectRatio="none" x="553" y="512" width="8" height="9" xlink:href="img/15.jpg"/>
<image clip-path="url(#c9_1)" preserveAspectRatio="none" x="588" y="489" width="8" height="9" xlink:href="img/16.jpg"/>
<image clip-path="url(#ca_1)" preserveAspectRatio="none" x="564" y="508" width="8" height="9" xlink:href="img/17.jpg"/>
<image clip-path="url(#cb_1)" preserveAspectRatio="none" x="594" y="508" width="8" height="9" xlink:href="img/18.jpg"/>
<image clip-path="url(#cc_1)" preserveAspectRatio="none" x="614" y="515" width="6" height="8" xlink:href="img/19.jpg"/>
<image clip-path="url(#cd_1)" preserveAspectRatio="none" x="576" y="492" width="8" height="9" xlink:href="img/20.jpg"/>
<image clip-path="url(#ce_1)" preserveAspectRatio="none" x="608" y="485" width="7" height="10" xlink:href="img/21.jpg"/>
<image clip-path="url(#cf_1)" preserveAspectRatio="none" x="625" y="473" width="7" height="9" xlink:href="img/22.jpg"/>
<image clip-path="url(#cg_1)" preserveAspectRatio="none" x="643" y="492" width="8" height="9" xlink:href="img/23.jpg"/>
<image clip-path="url(#ch_1)" preserveAspectRatio="none" x="670" y="504" width="7" height="10" xlink:href="img/24.jpg"/>
<image clip-path="url(#ci_1)" preserveAspectRatio="none" x="662" y="502" width="7" height="10" xlink:href="img/25.jpg"/>
<image clip-path="url(#cj_1)" preserveAspectRatio="none" x="621" y="506" width="8" height="9" xlink:href="img/26.jpg"/>
<image clip-path="url(#ck_1)" preserveAspectRatio="none" x="615" y="489" width="6" height="8" xlink:href="img/27.jpg"/>
<image clip-path="url(#cl_1)" preserveAspectRatio="none" x="637" y="495" width="6" height="8" xlink:href="img/28.jpg"/>
<image clip-path="url(#cm_1)" preserveAspectRatio="none" x="689" y="488" width="7" height="8" xlink:href="img/29.jpg"/>
<image clip-path="url(#cn_1)" preserveAspectRatio="none" x="731" y="500" width="7" height="9" xlink:href="img/30.jpg"/>
<image clip-path="url(#co_1)" preserveAspectRatio="none" x="687" y="481" width="5" height="6" xlink:href="img/31.jpg"/>
<image clip-path="url(#cp_1)" preserveAspectRatio="none" x="678" y="499" width="4" height="6" xlink:href="img/32.jpg"/>
<image clip-path="url(#cq_1)" preserveAspectRatio="none" x="711" y="498" width="6" height="8" xlink:href="img/33.jpg"/>
<image clip-path="url(#cr_1)" preserveAspectRatio="none" x="707" y="486" width="7" height="8" xlink:href="img/34.jpg"/>
<image clip-path="url(#cs_1)" preserveAspectRatio="none" x="704" y="496" width="7" height="8" xlink:href="img/35.jpg"/>
<image clip-path="url(#ct_1)" preserveAspectRatio="none" x="685" y="491" width="5" height="6" xlink:href="img/36.jpg"/>
<image clip-path="url(#cu_1)" preserveAspectRatio="none" x="570" y="490" width="6" height="8" xlink:href="img/37.jpg"/>
<image clip-path="url(#cv_1)" preserveAspectRatio="none" x="573" y="512" width="6" height="8" xlink:href="img/38.jpg"/>
<image clip-path="url(#cw_1)" preserveAspectRatio="none" x="553" y="474" width="6" height="8" xlink:href="img/39.jpg"/>
<g clip-path="url(#c4_1)">
<image preserveAspectRatio="none" x="549" y="464" width="310" height="87" xlink:href="img/40.jpg"/>
<image preserveAspectRatio="none" x="549" y="464" width="310" height="87" xlink:href="img/41.jpg"/>
<image preserveAspectRatio="none" x="549" y="464" width="310" height="87" xlink:href="img/42.jpg"/>
<image preserveAspectRatio="none" x="549" y="464" width="310" height="87" xlink:href="img/43.jpg"/>
</g>
<path d="M559.2 536.4l-5.1 -9.3" class="g1_1"/>
<path d="M552.8 524.6l3.3 1.9l-3.5 1.9Z" class="g0_1"/>
<path d="M554.3 534.1h31.1v11H554.3v-11Z" class="g2_1"/>
<path d="M554.3 545.1h31.1v-11H554.3v11Z" class="g3_1"/>
<path d="M849.3 536.4l5 -9.3" class="g1_1"/>
<path d="M852.3 526.5l3.1 -1.9l.2 3.8Z" class="g0_1"/>
<path d="M826.4 534.1h29v11h-29v-11Z" class="g2_1"/>
<path d="M826.4 545.1h29v-11h-29v11Z" class="g3_1"/>
</svg>