<?xml version="1.0" encoding="UTF-8" standalone="no"?>
<!DOCTYPE svg PUBLIC "-//W3C//DTD SVG 1.1//EN"
"http://www.w3.org/Graphics/SVG/1.1/DTD/svg11.dtd">
<svg viewBox="0 0 909 1286" version="1.1" xmlns="http://www.w3.org/2000/svg" xmlns:xlink="http://www.w3.org/1999/xlink">
<defs>
<clipPath id="c0_63"><path d="M-.2 1286.6v-57.8h910v57.8Z"/></clipPath>
<style type="text/css"><![CDATA[
.g0_63{
fill: none;
stroke: #000;
stroke-width: 1.127;
stroke-linecap: square;
stroke-miterlimit: 10;
}
.g1_63{
fill: #9FC;
}
.g2_63{
fill: #000;
}
.g3_63{
fill: #CFC;
}
.g4_63{
fill: #70AD47;
}
.g5_63{
fill: #FCF;
}
.g6_63{
fill: none;
stroke: #000;
stroke-width: 0.825;
stroke-linecap: square;
stroke-miterlimit: 10;
}
.g7_63{
fill: #FF9;
}
.g8_63{
fill: none;
stroke: #F00;
stroke-width: 0.825;
stroke-linecap: square;
stroke-miterlimit: 10;
}
.g9_63{
fill: none;
stroke: #00F;
stroke-width: 0.825;
stroke-linecap: square;
stroke-miterlimit: 10;
}
.ga_63{
fill: none;
stroke: #000;
stroke-width: 0.907;
stroke-linecap: square;
stroke-miterlimit: 10;
}
.gb_63{
fill: none;
stroke: #F00;
stroke-width: 0.822;
stroke-linecap: square;
stroke-miterlimit: 10;
}
.gc_63{
fill: none;
stroke: #000;
stroke-width: 0.822;
stroke-linecap: square;
stroke-miterlimit: 10;
}
.gd_63{
fill: none;
stroke: #00F;
stroke-width: 0.822;
stroke-linecap: square;
stroke-miterlimit: 10;
}
.ge_63{
fill: none;
stroke: #000;
stroke-width: 0.821;
stroke-linecap: square;
stroke-miterlimit: 10;
}
.gf_63{
fill: none;
stroke: #00F;
stroke-width: 0.821;
stroke-linecap: square;
stroke-miterlimit: 10;
}
.gg_63{
fill: none;
stroke: #F00;
stroke-width: 0.821;
stroke-linecap: square;
stroke-miterlimit: 10;
}
.gh_63{
fill: none;
stroke: #000;
stroke-width: 0.874;
stroke-linecap: square;
stroke-miterlimit: 10;
}
.gi_63{
fill: none;
stroke: #000;
stroke-width: 0.877;
stroke-linecap: square;
stroke-miterlimit: 10;
}
.gj_63{
fill: none;
stroke: #000;
stroke-width: 0.909;
stroke-linecap: square;
stroke-miterlimit: 10;
}
.gk_63{
fill: none;
stroke: #000;
stroke-width: 0.905;
stroke-linecap: square;
stroke-miterlimit: 10;
}
.gl_63{
fill: none;
stroke: #000;
stroke-width: 0.152;
stroke-linecap: square;
stroke-miterlimit: 10;
}
.gm_63{
fill: none;
stroke: #F00;
stroke-width: 0.909;
stroke-linecap: square;
stroke-miterlimit: 10;
}
.gn_63{
fill: none;
stroke: #F00;
stroke-width: 0.904;
stroke-linecap: square;
stroke-miterlimit: 10;
}
.go_63{
fill: none;
stroke: #F00;
stroke-width: 0.907;
stroke-linecap: square;
stroke-miterlimit: 10;
}
.gp_63{
fill: #F90;
}
.gq_63{
fill: #FFC;
}
.gr_63{
fill: none;
stroke: #000;
stroke-width: 1.218;
stroke-linecap: square;
stroke-miterlimit: 10;
}
.gs_63{
fill: none;
stroke: #00F;
stroke-width: 1.218;
stroke-linecap: square;
stroke-miterlimit: 10;
}
.gt_63{
fill: none;
stroke: #090;
stroke-width: 1.218;
stroke-linecap: square;
stroke-miterlimit: 10;
}
.gu_63{
fill: none;
stroke: #F00;
stroke-width: 1.218;
stroke-linecap: square;
stroke-miterlimit: 10;
}
.gv_63{
fill: none;
stroke: #F6F;
stroke-width: 1.218;
stroke-linecap: square;
stroke-miterlimit: 10;
}
]]></style>
</defs>
<image clip-path="url(#c0_63)" preserveAspectRatio="none" x="-2" y="1229" width="930" height="128" xlink:href="img/1.jpg"/>
<path d="M756.3 956.2l4.4 -87.3" class="g0_63"/>
<path d="M709.4 955l-2.4 -.2l-2.3 -.3l-2.2 -.3l-2.3 -.6L698 953l-2.1 -.7l-2.1 -.8l-2.1 -.9l-2 -1.1l-1.9 -1.2l-1.9 -1.2L684 945.7l-1.8 -1.5l-1.8 -1.6L678.7 941L677 939.1l-.8 -.9l-.8 -.9L674 935.5l-1.3 -2l-1.3 -1.9l-1.1 -2l-1 -2.1l-.9 -2l-.8 -2.2l-.7 -2.2l-.6 -2.2l-.3 -1.2l-.2 -1.1l-.2 -1.2l-.2 -1.2l-.2 -2.3l-.2 -2.4v-5l.2 -2.4l.2 -2.4l.4 -2.3l.5 -2.3l.6 -2.2l.7 -2.2l.8 -2.2l.9 -2.1l1 -2l1.1 -2.1l1.3 -1.9l1.3 -1.9l1.4 -1.9l1.6 -1.8l1.7 -1.8l1.7 -1.7l1.8 -1.6l1.8 -1.5l1.9 -1.3l1.9 -1.3l1.9 -1.1l2 -1.1l2.1 -.9l2.1 -.8L698 861l2.2 -.7l2.3 -.4l2.2 -.4l2.3 -.3l2.4 -.1l2.4 -.1l2.4 .1l2.4 .1l1.1 .1l1.2 .2l1.1 .2l1.1 .2l1.1 .2l1.2 .2l2.2 .7l2.1 .7l2.1 .8l2 .9l2 1.1l1 .5l1 .6l1.9 1.3l1.9 1.3l1.8 1.5l.9 .8l.9 .8L745 873l1.6 1.8l1.6 1.8l1.4 1.9l1.4 1.9l1.2 1.9l1.1 2.1l1 2l1 2.1l.7 2.2l.7 2.2l.6 2.2l.5 2.3l.4 2.3l.3 2.4l.1 2.4l.1 2.5l-.1 2.5l-.1 1.1v1.3l-.3 2.3l-.2 1.2l-.2 1.2l-.2 1.1l-.3 1.2l-.6 2.2l-.7 2.2l-.7 2.2l-.3 .5l-.2 .5l-.5 1l-1 2.1l-1.1 2l-1.2 1.9l-1.4 2l-.7 .9l-.7 .9l-.8 .9l-.8 .9l-.8 .9l-.8 1l-.9 .8l-.9 .8l-.9 .8l-.9 .8l-.9 .8l-.9 .7l-1.9 1.4l-1.9 1.2l-.5 .3l-.3 .1l-.2 .2l-1 .6l-2 1.1l-1 .4l-.5 .3l-.5 .2l-2.1 .8l-2.1 .7l-2.2 .6l-1.2 .3l-1.1 .3l-1.1 .1l-1.1 .2l-1.2 .1l-.6 .1h-.3l-.2 .1l-1.2 .1l-1.2 .1h-2.4Z" class="g1_63"/>
<path d="M745 873l-1.8 -1.7l-.9 -.8l-.9 -.8l-1.8 -1.5l-1.9 -1.3l-1.9 -1.3l-1 -.6l-1 -.5l-2 -1.1l-2 -.9l-2.1 -.8l-2.1 -.7l-2.2 -.7l-1.2 -.2l-1.1 -.2l-1.1 -.2l-1.1 -.2l-1.2 -.2l-1.1 -.1l-2.4 -.1l-2.4 -.1l-2.4 .1l-2.4 .1l-2.3 .3l-2.2 .4l-2.3 .4L698 861l-2.1 .7l-2.1 .8l-2.1 .9l-2 1.1l-1.9 1.1l-1.9 1.3l-1.9 1.3l-1.8 1.5l-1.8 1.6l-1.7 1.7l-1.7 1.8l-1.6 1.8l-1.4 1.9l-1.3 1.9l-1.3 1.9l-1.1 2.1l-1 2l-.9 2.1l-.8 2.2l-.7 2.2l-.6 2.2l-.5 2.3l-.4 2.3l-.2 2.4l-.2 2.4v5l.2 2.4l.2 2.3l.2 1.2l.2 1.2l.2 1.1l.3 1.2l.6 2.2l.7 2.2l.8 2.2l.9 2l1 2.1l1.1 2l1.3 1.9l1.3 2l1.4 1.8l.8 .9l.8 .9l1.7 1.9l1.7 1.6l1.8 1.6l1.8 1.5l1.9 1.4l1.9 1.2l1.9 1.2l2 1.1l2.1 .9l2.1 .8l2.1 .7l2.2 .6l2.3 .6l2.2 .3l2.3 .3l2.4 .2h4.8l1.2 -.1l1.2 -.1l.2 -.1h.3l.6 -.1l1.2 -.1l1.1 -.2l1.1 -.1l1.1 -.3l1.2 -.3l2.2 -.6l2.1 -.7l2.1 -.8l.5 -.2l.5 -.3l1 -.4l2 -1.1l1 -.6l.2 -.2l.3 -.1l.5 -.3l1.9 -1.2l1.9 -1.4l.9 -.7l.9 -.8l.9 -.8l.9 -.8l.9 -.8l.9 -.8l.8 -1l.8 -.9l.8 -.9l.8 -.9l.7 -.9l.7 -.9l1.4 -2l1.2 -1.9l1.1 -2l1 -2.1l.5 -1l.2 -.5l.3 -.5l.7 -2.2l.7 -2.2l.6 -2.2l.3 -1.2l.2 -1.1l.2 -1.2l.2 -1.2l.3 -2.3v-1.3l.1 -1.1l.1 -2.5l-.1 -2.5l-.1 -2.4l-.3 -2.4l-.4 -2.3l-.5 -2.3l-.6 -2.2l-.7 -2.2l-.7 -2.2l-1 -2.1l-1 -2l-1.1 -2.1L751 880.4l-1.4 -1.9l-1.4 -1.9l-1.6 -1.8L745 873" class="g0_63"/>
<path d="M791.4 948.3l-1.7 -.1L788 948l-1.7 -.2l-1.6 -.4l-1.7 -.5l-1.5 -.5l-1.5 -.6l-1.6 -.7l-1.5 -.8l-1.4 -.9l-1.4 -.9l-1.4 -1l-1.3 -1.1l-1.3 -1.2L768.8 938l-1.2 -1.3l-.7 -.7l-.5 -.7l-1.1 -1.4l-.9 -1.4l-1 -1.4l-.8 -1.5l-.7 -1.5l-.7 -1.5l-.6 -1.6l-.3 -.8l-.2 -.8l-.4 -1.7l-.4 -1.6l-.2 -1.7l-.2 -.9v-.9l-.1 -1.8l-.1 -1.7l.1 -1.9l.1 -1.8l.2 -1.7l.2 -1.7l.4 -1.7l.4 -1.7l.5 -1.6l.6 -1.5l.7 -1.6l.7 -1.5l.8 -1.5l1 -1.4l.9 -1.5l1.1 -1.3l1.2 -1.4l1.2 -1.3l1.3 -1.3l1.3 -1.2l1.3 -1l1.4 -1l1.4 -1l1.4 -.8l1.5 -.8l1.6 -.6l1.5 -.7l1.5 -.5l1.7 -.4l1.6 -.4L788 878l1.7 -.2l1.7 -.1H795l1.7 .1l.9 .1l.8 .1l1.7 .3l1.6 .4l1.6 .4l.8 .2l.8 .3l1.6 .7l1.5 .6l1.4 .8l1.5 .8l1.4 1l1.3 1l1.4 1l.6 .6l.7 .6l1.3 1.3l1.2 1.3l1.2 1.4l1 1.3l1 1.5l.9 1.4l.8 1.5l.8 1.5l.7 1.6l.5 1.5l.6 1.6l.4 1.7l.4 1.7l.3 1.7l.2 1.7l.1 1.8v3.6l-.1 1.8l-.1 .9l-.1 .4v.5l-.3 1.7l-.4 1.6l-.4 1.7l-.3 .8l-.3 .8l-.2 .8l-.3 .8l-.7 1.5l-.8 1.5l-.8 1.5l-.9 1.4l-1 1.4l-1 1.4l-.6 .7l-.6 .7l-.6 .6l-.6 .7l-.6 .6l-.7 .6l-.7 .6l-.6 .6l-1.4 1.1l-1.3 1l-1.4 .9l-1.5 .9l-1.4 .8l-1.5 .7l-.8 .3l-.8 .3l-.8 .2l-.8 .3l-1.6 .5l-1.6 .4l-1.7 .2l-.4 .1h-.4l-.9 .1l-1.7 .1l-1.7 .1Z" class="g1_63"/>
<path d="M817.6 888l-1.3 -1.3l-.7 -.6l-.6 -.6l-1.4 -1l-1.3 -1l-1.4 -1l-1.5 -.8l-1.4 -.8l-1.5 -.6l-1.6 -.7l-.8 -.3l-.8 -.2l-1.6 -.4l-1.6 -.4l-1.7 -.3l-.8 -.1l-.9 -.1l-1.7 -.1h-3.6l-1.7 .1L788 878l-1.7 .3l-1.6 .4l-1.7 .4l-1.5 .5l-1.5 .7l-1.6 .6l-1.5 .8l-1.4 .8l-1.4 1l-1.4 1l-1.3 1l-1.3 1.2l-1.3 1.3l-1.2 1.3l-1.2 1.4l-1.1 1.3l-.9 1.5l-1 1.4l-.8 1.5l-.7 1.5l-.7 1.6l-.6 1.5l-.5 1.6l-.4 1.7l-.4 1.7l-.2 1.7l-.2 1.7l-.1 1.8l-.1 1.9l.1 1.7l.1 1.8v.9l.2 .9l.2 1.7l.4 1.6l.4 1.7l.2 .8l.3 .8l.6 1.6l.7 1.5l.7 1.5l.8 1.5l1 1.4l.9 1.4l1.1 1.4l.5 .7l.7 .7l1.2 1.3l1.3 1.2l1.3 1.2l1.3 1.1l1.4 1l1.4 .9l1.4 .9l1.5 .8l1.6 .7l1.5 .6l1.5 .5l1.7 .5l1.6 .4l1.7 .2l1.7 .2l1.7 .1l1.9 .1l1.7 -.1l1.7 -.1l.9 -.1h.4l.4 -.1l1.7 -.2l1.6 -.4l1.6 -.5l.8 -.3l.8 -.2l.8 -.3l.8 -.3l1.5 -.7l1.4 -.8l1.5 -.9l1.4 -.9l1.3 -1l1.4 -1.1l.6 -.6l.7 -.6l.7 -.6l.6 -.6l.6 -.7l.6 -.6l.6 -.7l.6 -.7l1 -1.4l1 -1.4l.9 -1.4l.8 -1.5l.8 -1.5l.7 -1.5l.3 -.8l.2 -.8l.3 -.8l.3 -.8l.4 -1.7l.4 -1.6l.3 -1.7v-.5l.1 -.4l.1 -.9l.1 -1.8v-3.6l-.1 -1.8l-.2 -1.7l-.3 -1.7l-.4 -1.7l-.4 -1.7l-.6 -1.6l-.5 -1.5l-.7 -1.6l-.8 -1.5l-.8 -1.5l-.9 -1.4L821 892l-1 -1.3l-1.2 -1.4L817.6 888" class="g0_63"/>
<path d="M712.1 909.9l-.4 -.1l-.3 -.2l-.4 -.2l-.3 -.4l-.1 -.2v-.2l-.1 -.4l-.1 -.4l.1 -.5l.1 -.4l.1 -.4l.3 -.3l.4 -.3l.3 -.2l.4 -.1h.9l.4 .1l.2 .1l.1 .1l.4 .3l.3 .3l.2 .4l.1 .4v.9l-.1 .2v.2l-.1 .2l-.1 .2l-.2 .2l-.1 .2l-.2 .1l-.2 .1l-.1 .1l-.2 .1l-.4 .1h-.2v.1h-.2Z" class="g2_63"/>
<path d="M794.4 914.5l-.3 -.1l-.4 -.2l-.4 -.2l-.2 -.4l-.2 -.2v-.1l-.1 -.5l-.1 -.4l.1 -.5l.1 -.4l.2 -.4l.2 -.3l.4 -.3l.4 -.2l.3 -.1h.9l.4 .1l.2 .1l.2 .1l.3 .3l.3 .3l.2 .4l.1 .4l.1 .5l-.1 .2v.2l-.1 .2v.3l-.1 .1l-.1 .2l-.2 .2l-.1 .2l-.2 .1l-.1 .1l-.2 .1l-.2 .1l-.4 .1h-.2v.1h-.2Z" class="g2_63"/>
<path d="M831.1 885.1L684.3 850.8" class="g0_63"/>
<path d="M722.4 862.8l-.4 -.1l-.4 -.3l-.3 -.2l-.3 -.4l-.1 -.2l-.1 -.1l-.1 -.5v-.9l.1 -.3l.2 -.4l.3 -.4l.3 -.3l.4 -.2l.4 -.1h.8l.4 .1l.2 .1l.2 .1l.3 .3l.3 .4l.2 .4l.1 .3l.1 .5v.2h-.1v.4h-.1v.3l-.1 .1l-.1 .2l-.1 .2l-.2 .2l-.2 .1l-.1 .1l-.2 .1l-.2 .2l-.4 .1h-.4Z" class="g2_63"/>
<path d="M802.9 881.5l-.4 -.1l-.4 -.2l-.3 -.3l-.3 -.3l-.1 -.2l-.1 -.2l-.1 -.4v-.9l.1 -.4l.2 -.4l.3 -.3l.3 -.3l.4 -.2l.4 -.1l.5 -.1l.4 .1l.4 .1h.1l.2 .2l.4 .3l.2 .3l.3 .4l.1 .4v.9l-.1 .2v.2l-.2 .2l-.1 .2l-.1 .1l-.1 .2l-.2 .1l-.2 .2l-.2 .1l-.1 .1l-.4 .1h-.2l-.2 .1Z" class="g2_63"/>
<path d="M758.3 911.9l-.4 -.1l-.4 -.3l-.3 -.2l-.3 -.4l-.1 -.2l-.1 -.1l-.1 -.4v-.9l.1 -.4l.2 -.4l.3 -.4l.3 -.3l.4 -.2l.4 -.1h.9l.4 .1l.1 .1l.2 .1l.4 .3l.2 .4l.3 .4l.1 .4v.9l-.1 .2v.2l-.2 .1l-.1 .2l-.1 .2l-.1 .2l-.2 .1l-.2 .1l-.2 .1l-.1 .2l-.4 .1h-.4Z" class="g2_63"/>
<path fill-rule="evenodd" d="M57.4 170.7H271.9V99H57.4v71.7Z" class="g3_63"/>
<path fill-rule="evenodd" d="M65.3 146.8H264v-24H65.3v24Z" class="g3_63"/>
<path fill-rule="evenodd" d="M272.8 170.7H359V99H272.8v71.7Z" class="g3_63"/>
<path fill-rule="evenodd" d="M280.5 134.9h70.6v-24H280.5v24Z" class="g3_63"/>
<path fill-rule="evenodd" d="M280.5 158.8h70.6V134.9H280.5v23.9Z" class="g3_63"/>
<path fill-rule="evenodd" d="M359.7 170.7H446V99H359.7v71.7Z" class="g3_63"/>
<path fill-rule="evenodd" d="M367.6 134.9h70.6v-24H367.6v24Z" class="g3_63"/>
<path fill-rule="evenodd" d="M367.6 158.8h70.6V134.9H367.6v23.9Z" class="g3_63"/>
<path fill-rule="evenodd" d="M446.8 170.7H641.7V99H446.8v71.7Z" class="g3_63"/>
<path fill-rule="evenodd" d="M454.7 134.9H633.8v-24H454.7v24Z" class="g3_63"/>
<path fill-rule="evenodd" d="M454.7 158.8H633.8V134.9H454.7v23.9Z" class="g3_63"/>
<path fill-rule="evenodd" d="M642.4 170.7h74.4V99H642.4v71.7Z" class="g3_63"/>
<path fill-rule="evenodd" d="M650.3 134.9h58.8v-24H650.3v24Z" class="g3_63"/>
<path fill-rule="evenodd" d="M650.3 158.8h58.8V134.9H650.3v23.9Z" class="g3_63"/>
<path fill-rule="evenodd" d="M717.7 170.7h74.5V99H717.7v71.7Z" class="g3_63"/>
<path fill-rule="evenodd" d="M725.5 134.9h58.8v-24H725.5v24Z" class="g3_63"/>
<path fill-rule="evenodd" d="M725.5 158.8h58.8V134.9H725.5v23.9Z" class="g3_63"/>
<path fill-rule="evenodd" d="M792.9 170.7h81.2V99H792.9v71.7Z" class="g3_63"/>
<path d="M800.8 122.8h65.5V99H800.8v23.8Z" class="g3_63"/>
<path fill-rule="evenodd" d="M800.8 146.8h65.5v-24H800.8v24Z" class="g3_63"/>
<path d="M800.8 170.7h65.5V146.8H800.8v23.9Z" class="g3_63"/>
<path d="M56.7 99h.7v-.7h-.7V99Z" class="g4_63"/>
<path d="M56.7 99h.7v-.7h-.7V99Z" class="g4_63"/>
<path d="M57.4 99H271.9v-.7H57.4V99Z" class="g4_63"/>
<path d="M271.9 99h.7v-.7h-.7V99Z" class="g4_63"/>
<path d="M272.6 99H359v-.7H272.6V99Z" class="g4_63"/>
<path d="M359 99h.7v-.7H359V99Z" class="g4_63"/>
<path d="M359.7 99h86.2v-.7H359.7V99Z" class="g4_63"/>
<path d="M445.9 99h.7v-.7h-.7V99Z" class="g4_63"/>
<path d="M446.6 99H641.5v-.7H446.6V99Z" class="g4_63"/>
<path d="M641.5 99h.7v-.7h-.7V99Z" class="g4_63"/>
<path d="M642.2 99h74.6v-.7H642.2V99Z" class="g4_63"/>
<path d="M716.8 99h.8v-.7h-.8V99Z" class="g4_63"/>
<path d="M717.6 99h74.6v-.7H717.6V99Z" class="g4_63"/>
<path d="M792.2 99h.7v-.7h-.7V99Z" class="g4_63"/>
<path d="M792.9 99h81v-.7h-81V99Z" class="g4_63"/>
<path d="M873.9 99h.8v-.7h-.8V99Z" class="g4_63"/>
<path d="M873.9 99h.8v-.7h-.8V99Z" class="g4_63"/>
<path d="M56.7 170.7h.7V99h-.7v71.7Z" class="g4_63"/>
<path d="M271.9 170.7h.7V99h-.7v71.7Z" class="g4_63"/>
<path d="M359 170.7h.7V99H359v71.7Z" class="g4_63"/>
<path d="M445.9 170.7h.7V99h-.7v71.7Z" class="g4_63"/>
<path d="M641.5 170.7h.7V99h-.7v71.7Z" class="g4_63"/>
<path d="M716.8 170.7h.8V99h-.8v71.7Z" class="g4_63"/>
<path d="M792.2 170.7h.7V99h-.7v71.7Z" class="g4_63"/>
<path d="M873.9 170.7h.8V99h-.8v71.7Z" class="g4_63"/>
<path d="M113.6 268l-2 -.1l-1.9 -.1l-2.1 -.2l-2 -.3l-2 -.4l-2 -.4l-1.9 -.6l-1.9 -.6L96 264.5l-1.8 -.7l-1.8 -1l-1.8 -1l-1.7 -1l-1.7 -1.2l-1.6 -1.2L84 257.1l-1.6 -1.5l-1.5 -1.5l-.9 -.9l-.8 -.9l-1.6 -1.8l-.6 -.9l-.6 -.8l-1.2 -1.6l-1.1 -1.7l-1 -1.7l-.9 -1.7l-.8 -1.8l-.4 -.9l-.4 -.9l-.7 -1.8l-.6 -1.9l-.2 -.9l-.3 -1L68.4 231l-.2 -1L68 229l-.3 -2l-.2 -2l-.1 -2.1v-2.1l.1 -2.4l.1 -2.4l.3 -2.3l.3 -2.3l.5 -2.3l.6 -2.2l.7 -2.1l.8 -2.1l.8 -2.1l1 -2l1.1 -2L75 194.7l1.3 -1.9l1.4 -1.9l1.6 -1.8l1.6 -1.7l1.7 -1.7l1.8 -1.5l1.8 -1.5L88 181.4l1.9 -1.3L91.8 179l2 -1l2 -.9l2.1 -.8l2.1 -.7l2.1 -.6l2.3 -.5l2.2 -.4l2.3 -.3l2.3 -.1l2.4 -.1h1.2l1.2 .1h1.1l1.2 .1l1.1 .1l1.2 .2l1.1 .2l1.1 .2l1.1 .2l1.1 .3l1.1 .2l1.1 .4l1 .3l1.1 .4l2 .8l1 .4l1 .5l2 1l1 .5l.9 .6l1 .6l.9 .7l.9 .6l1 .7l.9 .7l.9 .8l.8 .7l.9 .8l.9 .9l.9 .8l1.6 1.7l.7 .9l.8 .9l1.4 1.9l.7 .9l.7 1l.6 .9l.6 1l1.1 2l1 2l.5 1l.4 1.1l.4 1l.4 1.1l.7 2.1l.6 2.2l.2 1.1l.2 1.2l.2 1.1l.2 1.2l.3 2.3l.1 2.4l.1 1.2v3.3l-.1 1l-.1 1v.5l-.1 .5l-.1 1l-.1 1l-.1 1l-.4 2l-.4 1.9l-.5 1.9l-.3 .9l-.3 .9l-.2 .5l-.1 .2l-.1 .2l-.3 .9l-.7 1.8l-.8 1.7l-.9 1.8l-1 1.7l-.5 .8l-.6 .8l-.5 .8l-.6 .8l-.6 .8l-.6 .8l-.2 .4l-1.6 1.8l-.9 .9l-.8 .9l-.9 .9l-.9 .8l-.4 .4l-.4 .4l-.9 .7l-.9 .8l-.9 .7l-.9 .6l-.9 .7l-.9 .6l-.5 .3l-.2 .2l-.3 .1l-.9 .6l-1 .6l-1 .5l-.4 .2l-.5 .3l-1 .5l-1 .4l-1 .4l-1.1 .4l-2 .7l-1.1 .3l-1.1 .3l-1.1 .3h-.2l-.3 .1l-.5 .1l-2.2 .4l-1.2 .2l-1.1 .1l-1.1 .1l-1.2 .1h-1.1L114 268Z" class="g5_63"/>
<path d="M146.3 187.4l-.9 -.8l-.9 -.9l-.9 -.8l-.8 -.7l-.9 -.8l-.9 -.7l-1 -.7l-.9 -.6l-.9 -.7l-1 -.6l-.9 -.6l-1 -.5l-2 -1l-1 -.5l-1 -.4l-2 -.8l-1.1 -.4l-1 -.3l-1.1 -.4L125 175l-1.1 -.3l-1.1 -.2l-1.1 -.2l-1.1 -.2l-1.2 -.2l-1.1 -.1l-1.2 -.1H116l-1.2 -.1h-1.2l-2.4 .1l-2.3 .1l-2.3 .3l-2.2 .4l-2.3 .5l-2.1 .6l-2.1 .7l-2.1 .8l-2 .9l-2 1l-1.9 1.1L88 181.4l-1.8 1.3l-1.8 1.5l-1.8 1.5l-1.7 1.7l-1.6 1.7l-1.6 1.8l-1.4 1.9L75 194.7l-1.3 1.9l-1.1 2l-1 2l-.8 2.1l-.8 2.1l-.7 2.1l-.6 2.2l-.5 2.3l-.3 2.3l-.3 2.3l-.1 2.4l-.1 2.4v2.1l.1 2.1l.2 2l.3 2l.2 1l.2 1l.4 1.9l.3 1l.2 .9l.6 1.9l.7 1.8l.4 .9l.4 .9l.8 1.8l.9 1.7l1 1.7l1.1 1.7l1.2 1.6l.6 .8l.6 .9l1.6 1.8l.8 .9l.9 .9l1.5 1.5l1.6 1.5l1.6 1.3l1.6 1.2l1.7 1.2l1.7 1l1.8 1l1.8 1l1.8 .7l1.8 .8l1.9 .6l1.9 .6l2 .4l2 .4l2 .3l2.1 .2l1.9 .1l2 .1h.4l1.2 -.1h1.1l1.2 -.1l1.1 -.1l1.1 -.1l1.2 -.2l2.2 -.4l.5 -.1l.3 -.1h.2l1.1 -.3l1.1 -.3l1.1 -.3l2 -.7l1.1 -.4l1 -.4l1 -.4l1 -.5l.5 -.3l.4 -.2l1 -.5l1 -.6l.9 -.6l.3 -.1l.2 -.2l.5 -.3l.9 -.6l.9 -.7l.9 -.6l.9 -.7l.9 -.8l.9 -.7l.4 -.4l.4 -.4l.9 -.8l.9 -.9l.8 -.9l.9 -.9l1.6 -1.8l.2 -.4l.6 -.8l.6 -.8l.6 -.8l.5 -.8l.6 -.8l.5 -.8l1 -1.7l.9 -1.8l.8 -1.7l.7 -1.8l.3 -.9l.1 -.2l.1 -.2l.2 -.5l.3 -.9l.3 -.9l.5 -1.9l.4 -1.9l.4 -2l.1 -1l.1 -1l.1 -1l.1 -.5v-.5l.1 -1l.1 -1v-3.3l-.1 -1.2l-.1 -2.4l-.3 -2.3l-.2 -1.2l-.2 -1.1l-.2 -1.2l-.2 -1.1l-.6 -2.2l-.7 -2.1l-.4 -1.1l-.4 -1l-.4 -1.1l-.5 -1l-1 -2l-1.1 -2l-.6 -1l-.6 -.9l-.7 -1l-.7 -.9l-1.4 -1.9l-.8 -.9l-.7 -.9l-1.6 -1.7" class="g6_63"/>
<path d="M114.1 224.2l-.3 -.1h-.3l-.2 -.1l-.5 -.3l-.3 -.2l-.2 -.2l-.2 -.2l-.1 -.2l-.2 -.3l-.1 -.2l-.1 -.3l-.1 -.3v-1.2l.2 -.5l.3 -.5l.3 -.5l.5 -.4l.5 -.2l.5 -.2h1.1l.3 .1l.3 .1l.2 .1l.3 .1l.2 .2l.2 .2l.2 .2l.2 .3l.3 .5l.1 .2v.3l.1 .3v.6l-.1 .3v.3l-.1 .3l-.2 .2l-.1 .3l-.1 .1h-.1v.1l-.2 .2l-.2 .2h-.1v.1l-.1 .1l-.3 .1l-.2 .2l-.3 .1h-.3l-.2 .1h-.3Z" class="g2_63"/>
<path d="M228 254.5h-.2l-1.5 -.1l-1.4 -.1l-1.5 -.2l-1.5 -.2l-1.5 -.3l-1.4 -.3l-1.4 -.4l-1.4 -.5l-1.4 -.5l-1.3 -.6l-1.3 -.7l-1.3 -.7l-1.3 -.8l-1.2 -.8l-1.2 -1l-1.2 -.9l-1.1 -1.1l-1.1 -1.1l-.7 -.6l-.6 -.7l-.6 -.7l-.5 -.7l-1 -1.2l-.8 -1.2l-.4 -.6l-.4 -.6l-.8 -1.2l-.6 -1.3l-.6 -1.3l-.4 -.7l-.2 -.6l-.5 -1.4l-.5 -1.4l-.3 -1.4l-.2 -.7l-.2 -.7l-.2 -1.4l-.2 -1.5l-.2 -1.5v-1.5l-.1 -.8l.1 -.7V218l.1 -1.8l.2 -1.7l.2 -1.7l.4 -1.7l.4 -1.6l.5 -1.6l.6 -1.5l.6 -1.5l.8 -1.5l.8 -1.5l.9 -1.4l.9 -1.4l1.1 -1.3l1.1 -1.3l1.3 -1.3l1.2 -1.3l1.3 -1.1l1.3 -1.1l1.4 -1l1.3 -.9l1.5 -.8l1.4 -.8l1.5 -.6l1.5 -.6l1.6 -.5l1.6 -.5l1.6 -.3l1.6 -.3l1.7 -.2l1.7 -.1h3.5l1.7 .1l.9 .1l.8 .1l1.7 .3l1.6 .3l.7 .2l.8 .3l1.6 .5l.7 .3l.8 .3l1.5 .6l1.4 .8l1.4 .8l1.4 .9l.7 .5l.7 .5l1.3 1.1l.7 .5l.6 .6l1.3 1.3l1.2 1.3l1.1 1.3l1 1.3l1 1.4l.9 1.4l.8 1.5l.8 1.5l.6 1.5l.6 1.5l.5 1.6l.5 1.6l.3 1.7l.3 1.7l.2 1.7l.1 1.8v4l-.1 .8l-.1 .7v.7l-.1 .8l-.1 .7l-.2 .7l-.1 .7l-.1 .4l-.1 .1v.2l-.1 .7l-.2 .7l-.2 .7l-.2 .7l-.2 .7l-.1 .3l-.2 .3l-.2 .7l-.3 .7l-.3 .6l-.3 .7l-.1 .1v.2l-.2 .3l-.3 .6l-.1 .2l-.1 .2l-.1 .3l-.4 .6l-.3 .6l-.4 .6l-.4 .7l-.4 .5l-.2 .3l-.2 .3l-.9 1.2l-.2 .2l-.6 .7l-.3 .3l-.3 .4l-.6 .7l-.6 .6l-.3 .3l-.2 .2l-.1 .1l-.7 .7l-1.2 1.1l-1.4 1l-1.3 1.1l-.7 .4l-.2 .1l-.1 .1l-.4 .2l-.7 .5l-.7 .4l-.3 .2l-.4 .1l-.7 .4l-1.5 .7l-1.5 .6l-.2 .1H239l-.3 .2l-.8 .2l-1.6 .5l-.8 .2l-.7 .2h-.7l-.2 .1l-.8 .1l-1.6 .2l-1.7 .2l-1.7 .1Z" class="g7_63"/>
<path d="M251.8 195.2l-1.3 -1.3l-.6 -.6l-.7 -.5l-1.3 -1.1l-.7 -.5l-.7 -.5l-1.4 -.9l-1.4 -.8l-1.4 -.8l-1.5 -.6l-.8 -.3l-.7 -.3l-1.6 -.5l-.8 -.3l-.7 -.2l-1.6 -.3l-1.7 -.3l-.8 -.1l-.9 -.1l-1.7 -.1H226l-1.7 .1l-1.7 .2l-1.6 .3l-1.6 .3l-1.6 .5l-1.6 .5l-1.5 .6l-1.5 .6l-1.4 .8l-1.5 .8l-1.3 .9l-1.4 1l-1.3 1.1l-1.3 1.1l-1.2 1.3l-1.3 1.3l-1.1 1.3l-1.1 1.3l-.9 1.4l-.9 1.4l-.8 1.5l-.8 1.5l-.6 1.5l-.6 1.5l-.5 1.6l-.4 1.6l-.4 1.7l-.2 1.7l-.2 1.7l-.1 1.8v1.8l-.1 .7l.1 .8v1.5l.2 1.5l.2 1.5l.2 1.4l.2 .7l.2 .7l.3 1.4l.5 1.4l.5 1.4l.2 .6l.4 .7l.6 1.3l.6 1.3l.8 1.2l.4 .6l.4 .6l.8 1.2l1 1.2l.5 .7l.6 .7l.6 .7l.7 .6l1.1 1.1l1.1 1.1l1.2 .9l1.2 1l1.2 .8l1.3 .8l1.3 .7l1.3 .7l1.3 .6l1.4 .5l1.4 .5l1.4 .4l1.4 .3l1.5 .3l1.5 .2l1.5 .2l1.4 .1l1.5 .1h.3l1.7 -.1l1.7 -.2l1.6 -.2l.8 -.1l.2 -.1h.7l.7 -.2l.8 -.2l1.6 -.5l.8 -.2l.3 -.2h.2l.2 -.1l1.5 -.6l1.5 -.7l.7 -.4l.4 -.1l.3 -.2l.7 -.4l.7 -.5l.4 -.2l.1 -.1l.2 -.1l.7 -.4l1.3 -1.1l1.4 -1l1.2 -1.1l.7 -.7l.1 -.1l.2 -.2l.3 -.3l.6 -.6l.6 -.7l.3 -.4l.3 -.3l.6 -.7l.2 -.2l.9 -1.2l.2 -.3l.2 -.3l.4 -.5l.4 -.7l.4 -.6l.3 -.6l.4 -.6l.1 -.3l.1 -.2l.1 -.2l.3 -.6l.2 -.3v-.2l.1 -.1l.3 -.7l.3 -.6l.3 -.7l.2 -.7l.2 -.3l.1 -.3l.2 -.7l.2 -.7l.2 -.7l.2 -.7l.1 -.7v-.2l.1 -.1l.1 -.4l.1 -.7l.2 -.7l.1 -.7l.1 -.8v-.7l.1 -.7l.1 -.8v-4l-.1 -1.8l-.2 -1.7l-.3 -1.7l-.3 -1.7l-.5 -1.6l-.5 -1.6l-.6 -1.5l-.6 -1.5l-.8 -1.5l-.8 -1.5l-.9 -1.4l-1 -1.4l-1 -1.3L253 196.5l-1.2 -1.3" class="g6_63"/>
<path d="M227.7 222.9h-.3l-.3 -.1l-.3 -.1l-.5 -.3l-.2 -.2l-.2 -.2l-.2 -.2l-.2 -.2l-.1 -.3l-.1 -.2l-.2 -.3v-1.4l.2 -.6l.2 -.5l.4 -.5l.4 -.4l.5 -.2l.6 -.2h1.1l.3 .1l.3 .1l.2 .1l.3 .1l.2 .2l.2 .2l.2 .3l.2 .2l.2 .5l.1 .3l.1 .3l.1 .2v.6l-.1 .3v.2l-.1 .1l-.1 .3l-.1 .2l-.1 .3l-.1 .1h-.1v.1l-.2 .2l-.2 .2h-.1v.1h-.1v.1l-.3 .2l-.2 .1l-.3 .1h-.2l-.1 .1H228Z" class="g2_63"/>
<path d="M233 185.4l-109.4 -11m106 80.3L117.8 268.3m86.1 -73.5L179 220m0 0l-40 40.6M179 220L144.4 185.9m61.1 60.3L179 220" class="g8_63"/>
<path d="M228 219.4l-114 1.3" class="g9_63"/>
<path d="M495 210.2h34.5" class="ga_63"/>
<path d="M56.7 171.4h.7v-.7h-.7v.7Z" class="g4_63"/>
<path d="M57.4 171.4H271.9v-.7H57.4v.7Z" class="g4_63"/>
<path d="M271.9 171.4h.7v-.7h-.7v.7Z" class="g4_63"/>
<path d="M272.6 171.4H359v-.7H272.6v.7Z" class="g4_63"/>
<path d="M359 171.4h.7v-.7H359v.7Z" class="g4_63"/>
<path d="M359.7 171.4h86.2v-.7H359.7v.7Z" class="g4_63"/>
<path d="M445.9 171.4h.7v-.7h-.7v.7Z" class="g4_63"/>
<path d="M446.6 171.4H641.5v-.7H446.6v.7Z" class="g4_63"/>
<path d="M641.5 171.4h.7v-.7h-.7v.7Z" class="g4_63"/>
<path d="M642.2 171.4h74.6v-.7H642.2v.7Z" class="g4_63"/>
<path d="M716.8 171.4h.8v-.7h-.8v.7Z" class="g4_63"/>
<path d="M717.6 171.4h74.6v-.7H717.6v.7Z" class="g4_63"/>
<path d="M792.2 171.4h.7v-.7h-.7v.7Z" class="g4_63"/>
<path d="M792.9 171.4h81v-.7h-81v.7Z" class="g4_63"/>
<path d="M873.9 171.4h.8v-.7h-.8v.7Z" class="g4_63"/>
<path d="M56.7 270.6h.7V171.4h-.7v99.2Z" class="g4_63"/>
<path d="M271.9 270.6h.7V171.4h-.7v99.2Z" class="g4_63"/>
<path d="M359 270.6h.7V171.4H359v99.2Z" class="g4_63"/>
<path d="M445.9 270.6h.7V171.4h-.7v99.2Z" class="g4_63"/>
<path d="M641.5 270.6h.7V171.4h-.7v99.2Z" class="g4_63"/>
<path d="M716.8 270.6h.8V171.4h-.8v99.2Z" class="g4_63"/>
<path d="M792.2 270.6h.7V171.4h-.7v99.2Z" class="g4_63"/>
<path d="M873.9 270.6h.8V171.4h-.8v99.2Z" class="g4_63"/>
<path d="M212.8 354.5l-36.1 6.4l-38.5 6.8m38.5 -6.8V279.8m36.1 5.1l-36.1 -5.1m0 0l-35.6 -5.1" class="gb_63"/>
<path d="M130.3 367.9l-1.9 -.1l-1.9 -.1l-2.1 -.2l-2.1 -.3l-2 -.4l-1.9 -.4l-1.9 -.6l-1.9 -.6l-1.8 -.8l-1.8 -.8l-1.8 -.9l-1.8 -1l-1.7 -1l-1.6 -1.2l-1.7 -1.2L100.8 357l-1.5 -1.5L97.8 354l-.9 -.9l-.9 -.9l-.8 -1l-.7 -.9l-.7 -.8l-.6 -.8l-1.1 -1.6L91 345.4l-1 -1.7L89.1 342l-.9 -1.8l-.4 -.9l-.3 -.9l-.7 -1.8l-.6 -1.9l-.3 -.9l-.2 -1l-.4 -1.9l-.2 -1l-.2 -1l-.3 -2l-.2 -2l-.1 -2.1v-4.5l.2 -2.4l.2 -2.3l.4 -2.3l.5 -2.3l.6 -2.2l.7 -2.1l.8 -2.1l.8 -2.1l1 -2l1.1 -2l1.2 -1.9l1.4 -1.9l1.4 -1.8l1.5 -1.8l1.7 -1.7l1.6 -1.7l1.8 -1.6l1.8 -1.5l1.8 -1.3l1.9 -1.3l1.9 -1.1l2 -1l2 -.9l2.1 -.8l2 -.7l2.2 -.6l2.2 -.5l2.2 -.4l2.3 -.3l2.3 -.1l2.4 -.1l2.4 .1h1.1l1.2 .1l1.1 .1l1.2 .2l1.1 .2l1.1 .2l1.1 .2l1.1 .3l1.1 .2l1 .4l1.1 .3l1 .4l2.1 .8l1 .4l1 .5l2 1l.9 .5l1 .6l.9 .6l1 .7l.9 .6l.9 .7l.9 .7l.9 .8l.9 .8l.9 .8l.8 .8l.9 .9l1.6 1.7l.7 .9l.8 .9l1.4 1.8l.7 .9l.6 1l1.2 1.9l1.1 2l1 2l.5 1l.5 1.1l.3 1l.4 1.1l.7 2.1l.6 2.2l.3 1.1l.2 1.2l.2 1.1l.1 1.2l.3 2.3l.2 2.4v4.5l-.1 1v1l-.1 .5v.5l-.1 1l-.2 1l-.1 1l-.4 1.9l-.4 2l-.5 1.8l-.6 1.9l-.1 .5l-.1 .2l-.1 .2l-.3 .9l-.8 1.8l-.8 1.7l-.9 1.8l-1 1.7l-.5 .8l-.5 .8l-.6 .8l-.5 .8l-.3 .4l-.3 .4l-.6 .8l-.1 .2l-.2 .1l-.8 .9l-.8 1l-.8 .9l-.8 .9l-.9 .9l-.8 .8l-.5 .4l-.4 .4l-.9 .7l-.9 .8l-.8 .7l-1 .6l-.9 .7l-1.8 1.2l-1 .6l-.9 .6l-1 .5l-.5 .2l-.5 .3l-1 .5l-1 .4l-1 .4l-1 .4l-2.1 .7l-1.1 .3l-1 .3l-1.1 .3h-.3l-.2 .1l-.5 .1l-2.3 .4l-1.1 .2l-1.1 .1l-1.1 .1l-1.2 .1h-1.1l-1.2 .1Z" class="g5_63"/>
<path d="M162.9 287.4l-.9 -.9l-.8 -.8l-.9 -.8l-.9 -.8l-.9 -.8l-.9 -.7l-.9 -.7l-.9 -.6l-1 -.7l-.9 -.6l-1 -.6l-.9 -.5l-2 -1l-1 -.5l-1 -.4l-2.1 -.8l-1 -.4l-1.1 -.3l-1 -.4l-1.1 -.2l-1.1 -.3l-1.1 -.2l-1.1 -.2l-1.1 -.2l-1.2 -.2l-1.1 -.1l-1.2 -.1h-1.1l-2.4 -.1l-2.4 .1l-2.3 .1l-2.3 .3l-2.2 .4l-2.2 .5l-2.2 .6l-2 .7l-2.1 .8l-2 .9l-2 1l-1.9 1.1l-1.9 1.3l-1.8 1.3l-1.8 1.5l-1.8 1.6l-1.6 1.7l-1.7 1.7l-1.5 1.8l-1.4 1.8l-1.4 1.9l-1.2 1.9l-1.1 2l-1 2l-.8 2.1l-.8 2.1l-.7 2.1l-.6 2.2l-.5 2.3l-.4 2.3l-.2 2.3l-.2 2.4v4.5l.1 2.1l.2 2l.3 2l.2 1l.2 1l.4 1.9l.2 1l.3 .9l.6 1.9l.7 1.8l.3 .9l.4 .9l.9 1.8l.9 1.7l1 1.7l1.1 1.7l1.1 1.6l.6 .8l.7 .8l.7 .9l.8 1l.9 .9l.9 .9l1.5 1.5l1.5 1.5l1.6 1.3l1.7 1.2l1.6 1.2l1.7 1l1.8 1l1.8 .9l1.8 .8l1.8 .8l1.9 .6l1.9 .6l1.9 .4l2 .4l2.1 .3l2.1 .2l1.9 .1l1.9 .1h.4l1.2 -.1H133l1.2 -.1l1.1 -.1l1.1 -.1l1.1 -.2l2.3 -.4l.5 -.1l.2 -.1h.3l1.1 -.3l1 -.3l1.1 -.3l2.1 -.7l1 -.4l1 -.4l1 -.4l1 -.5l.5 -.3l.5 -.2l1 -.5l.9 -.6l1 -.6l1.8 -1.2l.9 -.7l1 -.6l.8 -.7l.9 -.8l.9 -.7l.4 -.4l.5 -.4l.8 -.8l.9 -.9l.8 -.9l.8 -.9l.8 -1l.8 -.9l.2 -.1l.1 -.2l.6 -.8l.3 -.4l.3 -.4l.5 -.8l.6 -.8l.5 -.8l.5 -.8l1 -1.7l.9 -1.8l.8 -1.7l.8 -1.8l.3 -.9l.1 -.2l.1 -.2l.1 -.5l.6 -1.9l.5 -1.8l.4 -2l.4 -1.9l.1 -1l.2 -1l.1 -1v-.5l.1 -.5v-1l.1 -1v-4.5l-.2 -2.4l-.3 -2.3l-.1 -1.2l-.2 -1.1l-.2 -1.2L175 309l-.6 -2.2l-.7 -2.1l-.4 -1.1l-.3 -1l-.5 -1.1l-.5 -1l-1 -2l-1.1 -2l-1.2 -1.9l-.6 -1l-.7 -.9L166 290.9l-.8 -.9l-.7 -.9l-1.6 -1.7" class="gc_63"/>
<path d="M130.8 324.1l-.3 -.1h-.2l-.3 -.1l-.5 -.3l-.2 -.2l-.2 -.2l-.3 -.2l-.1 -.2l-.2 -.3l-.1 -.2l-.1 -.3v-.3l-.1 -.3v-.3l.1 -.6l.1 -.5l.3 -.5l.4 -.5l.4 -.4l.5 -.2l.5 -.2h1.2l.3 .1l.2 .1l.3 .1l.2 .1l.2 .2l.3 .2l.2 .2l.1 .3l.3 .5l.1 .3l.1 .2v1.2l-.1 .1v.2l-.1 .3l-.1 .2l-.2 .3l-.1 .1v.1l-.2 .2l-.3 .2l-.1 .1l-.1 .1l-.2 .1l-.3 .2l-.2 .1h-.3l-.3 .1h-.3Z" class="g2_63"/>
<path d="M210.5 354.3h-1.4l-1.4 -.1l-1.6 -.2l-1.4 -.2l-1.5 -.3l-1.4 -.3l-1.5 -.5l-1.3 -.4l-1.4 -.5l-1.3 -.6l-1.3 -.7l-1.3 -.7l-1.3 -.8l-1.2 -.8l-1.2 -1l-1.2 -.9l-1.1 -1.1l-1.1 -1l-1.3 -1.4l-.6 -.7l-.5 -.7l-.9 -1.2l-.9 -1.2l-.4 -.6l-.4 -.6l-.7 -1.2l-.7 -1.3l-.6 -1.3l-.3 -.7l-.3 -.7l-.5 -1.3l-.4 -1.4l-.4 -1.4l-.2 -.7l-.1 -.7l-.3 -1.4l-.2 -1.5l-.1 -1.5l-.1 -1.5v-3.4l.1 -1.7l.2 -1.7l.3 -1.7l.3 -1.7l.4 -1.6l.5 -1.6l.7 -1.5l.6 -1.5l.7 -1.5l.8 -1.5l.9 -1.4l1 -1.4l1 -1.3l1.2 -1.3l1.2 -1.3l1.2 -1.2l1.3 -1.2l1.3 -1.1l1.4 -.9l1.3 -1l1.5 -.8l1.4 -.7l1.5 -.7l1.5 -.6l1.6 -.5l1.5 -.5l1.7 -.3l1.6 -.3l1.7 -.2l1.7 -.1h3.5l1.7 .1l.8 .1l.8 .1l1.7 .3l1.6 .3l.8 .2l.8 .3l1.5 .5l.7 .3l.8 .3l1.5 .7l1.4 .7l1.4 .8l1.4 1l.7 .4l.7 .5l1.3 1.1l.6 .6l.7 .6l1.2 1.2l1.2 1.3l1.1 1.3l1.1 1.3l1 1.4l.8 1.4l.9 1.5l.7 1.5l.7 1.5l.5 1.5l.5 1.6l.5 1.6l.3 1.7l.3 1.7l.2 1.7l.1 1.7l.1 1.9l-.1 .1v2.1l-.1 .8l-.1 .7v.8l-.1 .7l-.1 .7l-.2 .7l-.1 .7l-.1 .4v.1l-.1 .2l-.1 .8l-.2 .6l-.2 .7l-.2 .7l-.2 .7l-.1 .3l-.1 .4l-.3 .6l-.3 .7l-.2 .7l-.3 .6l-.1 .1l-.1 .2l-.1 .3l-.4 .7v.1l-.1 .2l-.2 .3l-.3 .6l-.4 .6l-.4 .6l-.3 .7l-.5 .5l-.2 .3l-.2 .3l-.4 .6l-.4 .6l-.2 .2l-.6 .7l-.3 .3l-.3 .4l-1.3 1.4l-.3 .2l-.2 .2l-.1 .2l-.6 .6l-1.3 1.1l-1.3 1l-1.3 1l-.7 .5l-.2 .1l-.2 .1l-.3 .2l-.7 .4l-.7 .5l-.4 .1l-.3 .2l-.7 .4l-1.5 .7l-1.5 .6h-.2l-.2 .1l-.3 .1l-.8 .3l-1.6 .4l-.8 .2l-.7 .2l-.4 .1h-.3l-.1 .1l-.8 .1l-1.7 .2l-1.7 .2h-1.7Z" class="g7_63"/>
<path d="M234.4 295.1l-1.2 -1.2l-.7 -.6l-.6 -.6l-1.3 -1.1l-.7 -.5l-.7 -.4l-1.4 -1l-1.4 -.8l-1.4 -.7l-1.5 -.7l-.8 -.3l-.7 -.3l-1.5 -.5l-.8 -.3l-.8 -.2l-1.6 -.3l-1.7 -.3l-.8 -.1l-.8 -.1l-1.7 -.1h-3.5l-1.7 .1l-1.7 .2l-1.6 .3l-1.7 .3l-1.5 .5l-1.6 .5l-1.5 .6l-1.5 .7l-1.4 .7l-1.5 .8l-1.3 1l-1.4 .9l-1.3 1.1l-1.3 1.2l-1.2 1.2l-1.2 1.3l-1.2 1.3l-1 1.3l-1 1.4l-.9 1.4l-.8 1.5l-.7 1.5l-.6 1.5l-.7 1.5l-.5 1.6l-.4 1.6l-.3 1.7l-.3 1.7l-.2 1.7l-.1 1.7v3.4l.1 1.5l.1 1.5l.2 1.5l.3 1.4l.1 .7l.2 .7l.4 1.4l.4 1.4l.5 1.3l.3 .7l.3 .7l.6 1.3l.7 1.3l.7 1.2l.4 .6l.4 .6l.9 1.2l.9 1.2l.5 .7l.6 .7l1.3 1.4l1.1 1l1.1 1.1l1.2 .9l1.2 1l1.2 .8l1.3 .8l1.3 .7l1.3 .7l1.3 .6l1.4 .5l1.3 .4l1.5 .5l1.4 .3l1.5 .3l1.4 .2l1.6 .2l1.4 .1h3.4l1.7 -.2l1.7 -.2l.8 -.1l.1 -.1h.3l.4 -.1l.7 -.2l.8 -.2l1.6 -.4l.8 -.3l.3 -.1l.2 -.1h.2l1.5 -.6l1.5 -.7l.7 -.4l.3 -.2l.4 -.1l.7 -.5l.7 -.4l.3 -.2l.2 -.1l.2 -.1l.7 -.5l1.3 -1l1.3 -1l1.3 -1.1l.6 -.6l.1 -.2l.2 -.2l.3 -.2l1.3 -1.4l.3 -.4l.3 -.3l.6 -.7l.2 -.2l.4 -.6l.4 -.6l.2 -.3l.2 -.3l.5 -.5l.3 -.7l.4 -.6l.4 -.6l.3 -.6l.2 -.3l.1 -.2v-.1l.4 -.7l.1 -.3l.1 -.2l.1 -.1l.3 -.6l.2 -.7l.3 -.7l.3 -.6l.1 -.4l.1 -.3l.2 -.7l.2 -.7l.2 -.7l.2 -.6l.1 -.8l.1 -.2v-.1l.1 -.4l.1 -.7l.2 -.7l.1 -.7l.1 -.7v-.8l.1 -.7l.1 -.8v-2.1l.1 -.1l-.1 -1.9l-.1 -1.7l-.2 -1.7l-.3 -1.7l-.3 -1.7l-.5 -1.6l-.5 -1.6l-.5 -1.5l-.7 -1.5l-.7 -1.5l-.9 -1.5l-.8 -1.4l-1 -1.4l-1.1 -1.3l-1.1 -1.3l-1.2 -1.3" class="gc_63"/>
<path d="M210.4 322.8h-.3l-.3 -.1l-.2 -.1l-.5 -.3l-.3 -.2l-.2 -.2l-.2 -.2l-.2 -.2l-.1 -.3L208 321l-.1 -.3l-.1 -.3v-1.1l.2 -.6l.2 -.5l.4 -.4l.5 -.4l.5 -.3l.5 -.2h1.1l.3 .1l.3 .1l.2 .1l.3 .2l.2 .1l.2 .3l.2 .2l.2 .2l.3 .5l.1 .3v.3l.1 .3v.5l-.1 .3v.3l-.1 .3l-.2 .2l-.1 .3l-.1 .1h-.1v.1l-.2 .2l-.2 .2h-.1v.1l-.1 .1l-.3 .1l-.2 .2l-.3 .1h-.1l-.2 .1h-.5Z" class="g2_63"/>
<path d="M211.2 319.7l-80.5 .9" class="gd_63"/>
<path d="M495 310.1h34.5" class="ga_63"/>
<path d="M56.7 271.3h.7v-.7h-.7v.7Z" class="g4_63"/>
<path d="M57.4 271.3H271.9v-.7H57.4v.7Z" class="g4_63"/>
<path d="M271.9 271.3h.7v-.7h-.7v.7Z" class="g4_63"/>
<path d="M272.6 271.3H359v-.7H272.6v.7Z" class="g4_63"/>
<path d="M359 271.3h.7v-.7H359v.7Z" class="g4_63"/>
<path d="M359.7 271.3h86.2v-.7H359.7v.7Z" class="g4_63"/>
<path d="M445.9 271.3h.7v-.7h-.7v.7Z" class="g4_63"/>
<path d="M446.6 271.3H641.5v-.7H446.6v.7Z" class="g4_63"/>
<path d="M641.5 271.3h.7v-.7h-.7v.7Z" class="g4_63"/>
<path d="M642.2 271.3h74.6v-.7H642.2v.7Z" class="g4_63"/>
<path d="M716.8 271.3h.8v-.7h-.8v.7Z" class="g4_63"/>
<path d="M717.6 271.3h74.6v-.7H717.6v.7Z" class="g4_63"/>
<path d="M792.2 271.3h.7v-.7h-.7v.7Z" class="g4_63"/>
<path d="M792.9 271.3h81v-.7h-81v.7Z" class="g4_63"/>
<path d="M873.9 271.3h.8v-.7h-.8v.7Z" class="g4_63"/>
<path d="M56.7 370.5h.7V271.3h-.7v99.2Z" class="g4_63"/>
<path d="M271.9 370.5h.7V271.3h-.7v99.2Z" class="g4_63"/>
<path d="M359 370.5h.7V271.3H359v99.2Z" class="g4_63"/>
<path d="M445.9 370.5h.7V271.3h-.7v99.2Z" class="g4_63"/>
<path d="M641.5 370.5h.7V271.3h-.7v99.2Z" class="g4_63"/>
<path d="M716.8 370.5h.8V271.3h-.8v99.2Z" class="g4_63"/>
<path d="M792.2 370.5h.7V271.3h-.7v99.2Z" class="g4_63"/>
<path d="M873.9 370.5h.8V271.3h-.8v99.2Z" class="g4_63"/>
<path d="M139.5 467.5l-2 -.1l-1.9 -.1l-2.1 -.2l-2 -.3l-2 -.4l-2 -.4l-1.9 -.6l-1.8 -.6l-1.9 -.8l-1.8 -.7l-1.8 -1l-1.7 -.9l-1.7 -1.1l-1.7 -1.2l-1.6 -1.2L110 456.6l-1.6 -1.4l-1.5 -1.5l-.9 -1l-.8 -.9L103.6 450l-.6 -.8l-.6 -.8l-1.2 -1.6l-1.1 -1.7l-.9 -1.7l-1 -1.7l-.8 -1.8L97 439l-.3 -.9L96 436.3l-.6 -1.9l-.3 -.9l-.2 -1l-.5 -1.9l-.2 -1l-.1 -.9l-.3 -2.1l-.2 -2l-.1 -2v-4.5l.2 -2.4l.2 -2.3l.4 -2.3l.5 -2.3l.5 -2.2l.7 -2.1l.8 -2.1l.9 -2.1l1 -2l1.1 -2l1.2 -1.9l1.3 -1.9l1.5 -1.8l1.5 -1.8l1.6 -1.7l1.7 -1.7l1.8 -1.5l1.7 -1.5l1.9 -1.3l1.8 -1.3l2 -1.1l1.9 -1l2.1 -.9l2 -.8l2.1 -.7l2.1 -.6l2.2 -.5l2.3 -.4l2.3 -.3l2.3 -.1h5.8l1.2 .1l1.1 .1l1.2 .2l1.1 .2l1.1 .2l1.1 .2l1.1 .3l1.1 .2l1.1 .4l1 .3l1 .4l2.1 .8l1 .4l1 .5l2 1l.9 .5l1 .6l.9 .6l1 .7l1.8 1.3l.9 .7l.9 .8l.9 .7l.9 .8l.8 .8l.9 .9l1.6 1.7l.8 .9l.7 .9l1.4 1.8l.7 1l.7 .9l1.1 1.9l1.2 2l1 2l.4 1.1l.5 1l.4 1l.3 1.1l.8 2.1l.5 2.2l.3 1.1l.2 1.2l.2 1.1l.2 1.2l.2 2.3l.2 2.4v1.2l.1 1.2l-.1 2l-.1 1v1.1l-.1 .5v.5l-.1 1l-.2 1l-.1 1l-.3 1.9l-.5 1.9l-.5 1.9l-.3 .9l-.2 .9l-.2 .4l-.1 .3l-.1 .2l-.3 .9l-.7 1.8l-.5 .9l-.2 .4l-.2 .4l-.9 1.8l-.9 1.7l-.6 .8l-.5 .8l-.5 .8l-.6 .8l-.3 .4l-.3 .4l-.6 .8l-.2 .3l-1.6 1.8l-.9 .9l-.8 1l-.9 .8l-.8 .8l-.5 .4l-.4 .4l-.8 .8l-.9 .7l-.9 .7l-.9 .7l-.9 .6l-1.9 1.2l-1 .6l-.9 .6l-1 .5l-.5 .2l-.5 .3l-.9 .5l-1 .4l-1.1 .4l-1 .4l-2 .7l-1.1 .3L151 466l-1.1 .3h-.2l-.3 .1l-.5 .1l-2.2 .4l-1.1 .2l-1.1 .1l-1.2 .1l-1.1 .1H141l-1.2 .1Z" class="g5_63"/>
<path d="M172 387.2l-.9 -.9l-.8 -.8l-.9 -.8l-.9 -.7l-.9 -.8l-.9 -.7l-1.8 -1.3l-1 -.7l-.9 -.6l-1 -.6l-.9 -.5l-2 -1l-1 -.5l-1 -.4l-2.1 -.8l-1 -.4l-1 -.3l-1.1 -.4l-1.1 -.2l-1.1 -.3l-1.1 -.2l-1.1 -.2l-1.1 -.2l-1.2 -.2l-1.1 -.1l-1.2 -.1h-5.8l-2.3 .1l-2.3 .3l-2.3 .4l-2.2 .5l-2.1 .6l-2.1 .7l-2 .8l-2.1 .9l-1.9 1l-2 1.1l-1.8 1.3l-1.9 1.3l-1.7 1.5l-1.8 1.5l-1.7 1.7l-1.6 1.7l-1.5 1.8l-1.5 1.8l-1.3 1.9l-1.2 1.9l-1.1 2l-1 2l-.9 2.1l-.8 2.1l-.7 2.1l-.5 2.2l-.5 2.3l-.4 2.3l-.2 2.3l-.2 2.4v4.5l.1 2l.2 2l.3 2.1l.1 .9l.2 1l.5 1.9l.2 1l.3 .9l.6 1.9l.7 1.8l.3 .9l.4 .9l.8 1.8l1 1.7l.9 1.7l1.1 1.7l1.2 1.6l.6 .8l.6 .8l1.6 1.8l.8 .9l.9 1l1.5 1.5l1.6 1.4l1.6 1.3l1.6 1.2l1.7 1.2l1.7 1.1l1.7 .9l1.8 1l1.8 .7l1.9 .8l1.8 .6l1.9 .6l2 .4l2 .4l2 .3l2.1 .2l1.9 .1l2 .1h.3l1.2 -.1h1.2l1.1 -.1l1.2 -.1l1.1 -.1l1.1 -.2l2.2 -.4l.5 -.1l.3 -.1h.2L151 466l1.1 -.3l1.1 -.3l2 -.7l1 -.4l1.1 -.4l1 -.4l.9 -.5l.5 -.3l.5 -.2l1 -.5l.9 -.6l1 -.6l1.9 -1.2l.9 -.6l.9 -.7l.9 -.7l.9 -.7l.8 -.8l.4 -.4l.5 -.4l.8 -.8l.9 -.8l.8 -1l.9 -.9l1.6 -1.8l.2 -.3l.6 -.8l.3 -.4l.3 -.4l.6 -.8l.5 -.8l.5 -.8l.6 -.8l.9 -1.7l.9 -1.8l.2 -.4l.2 -.4l.5 -.9l.7 -1.8l.3 -.9l.1 -.2l.1 -.3l.2 -.4l.2 -.9l.3 -.9l.5 -1.9l.5 -1.9l.3 -1.9l.1 -1l.2 -1l.1 -1v-.5l.1 -.5v-1.1l.1 -1l.1 -2l-.1 -1.2v-1.2l-.2 -2.4l-.2 -2.3l-.2 -1.2l-.2 -1.1l-.2 -1.2l-.3 -1.1l-.5 -2.2l-.8 -2.1l-.3 -1.1l-.4 -1l-.5 -1l-.4 -1.1l-1 -2l-1.2 -2l-1.1 -1.9l-.7 -.9l-.7 -1l-1.4 -1.8l-.7 -.9l-.8 -.9L172 387.2" class="ge_63"/>
<path d="M139.9 423.8h-.2l-.3 -.1l-.3 -.1l-.5 -.3l-.2 -.2l-.2 -.2l-.2 -.2l-.2 -.2l-.2 -.3l-.1 -.2v-.3l-.1 -.3v-1.1l.1 -.6l.3 -.5l.4 -.4l.4 -.4l.5 -.3l.6 -.1l.5 -.1l.6 .1h.3l.3 .1l.2 .1l.2 .2l.3 .2l.2 .2l.2 .2l.1 .2l.3 .5l.1 .3l.1 .3v.3l.1 .3h-.1v.5l-.1 .2v.1l-.1 .3l-.1 .2l-.2 .3l-.1 .1v.1l-.2 .2l-.2 .2H142v.1h-.1l-.1 .1l-.2 .2l-.2 .1l-.3 .1h-.2l-.1 .1h-.6Z" class="g2_63"/>
<path d="M201.4 454l-1.5 -.1l-1.4 -.1l-1.5 -.1l-1.5 -.2l-1.5 -.3l-1.4 -.4l-1.4 -.4l-1.4 -.4l-1.3 -.6l-1.3 -.6l-1.3 -.6l-1.3 -.7l-1.3 -.8l-1.2 -.9l-1.2 -.9l-1.2 -1l-1.2 -1l-1.1 -1.1l-1.2 -1.3l-1.1 -1.4l-1 -1.2l-.8 -1.2l-.4 -.6l-.4 -.6l-.7 -1.2l-.7 -1.3l-.6 -1.3l-.3 -.7l-.3 -.6l-.3 -.7l-.2 -.7l-.4 -1.4l-.4 -1.4l-.2 -.7l-.1 -.7l-.3 -1.4l-.2 -1.5l-.1 -1.5l-.1 -1.5v-3.3l.1 -1.8l.2 -1.7l.3 -1.6l.3 -1.7l.4 -1.6l.5 -1.6l.6 -1.5l.7 -1.5l.7 -1.5l.8 -1.5l.9 -1.3l.9 -1.4l1.1 -1.4l1.1 -1.3l1.2 -1.3l1.3 -1.2l1.3 -1.2l1.3 -1l1.4 -1l1.3 -.9l1.5 -.8l1.4 -.8l1.5 -.7l1.5 -.6l1.5 -.5l1.6 -.4l1.6 -.4l1.7 -.2l1.6 -.2l1.7 -.2h3.5l1.7 .2h.8l.9 .2l1.6 .2l1.6 .4l.8 .2l.8 .2l1.5 .5l.8 .3l.8 .3l1.4 .7l1.5 .8l1.4 .8l1.4 .9l.6 .5l.7 .5l1.3 1l.7 .6l.6 .6l1.3 1.2l1.2 1.3l1.1 1.3l1 1.4l1 1.4l.9 1.3l.8 1.5l.7 1.5l.7 1.5l.6 1.5l.5 1.6l.4 1.6l.4 1.7l.2 1.6l.2 1.7l.1 1.8l.1 1.8v.7l-.1 .8v1.5l-.1 .7l-.1 .4v.4l-.1 .7l-.1 .7l-.1 .7l-.2 .8l-.1 .3v.4l-.2 .7l-.2 .6l-.1 .7l-.3 .7l-.1 .7l-.2 .3l-.1 .4l-.2 .6l-.3 .7l-.3 .7l-.3 .6l-.1 .1v.2l-.2 .3l-.3 .6l-.1 .2l-.1 .2l-.1 .3l-.4 .6l-.3 .6l-.4 .6l-.4 .6l-.4 .6l-.2 .3l-.2 .3l-.9 1.2l-.1 .1l-.1 .1l-.6 .7l-.3 .3l-.3 .4l-.6 .6l-.6 .7L224 445l-1.2 1.1l-1.3 1.1l-1.4 1l-.7 .4l-.2 .1l-.1 .2l-.3 .2l-.8 .4l-.6 .4l-.4 .2l-.4 .2l-.7 .4l-1.4 .7L213 452h-.2l-.2 .1l-.4 .1l-.7 .3l-1.6 .4l-.8 .2l-.8 .2h-.4l-.2 .1h-.2l-.8 .2l-1.6 .2l-1.7 .1l-1.7 .1Z" class="g7_63"/>
<path d="M225.3 394.9L224 393.7l-.6 -.6l-.7 -.6l-1.3 -1l-.7 -.5l-.6 -.5l-1.4 -.9l-1.4 -.8l-1.5 -.8l-1.4 -.7l-.8 -.3l-.8 -.3l-1.5 -.5l-.8 -.2l-.8 -.2l-1.6 -.4l-1.6 -.2l-.9 -.2h-.8l-1.7 -.2h-3.5l-1.7 .2l-1.6 .2l-1.7 .2l-1.6 .4l-1.6 .4l-1.5 .5l-1.5 .6l-1.5 .7l-1.4 .8l-1.5 .8l-1.3 .9l-1.4 1l-1.3 1l-1.3 1.2l-1.3 1.2l-1.2 1.3l-1.1 1.3l-1.1 1.4l-.9 1.4l-.9 1.3l-.8 1.5l-.7 1.5l-.7 1.5l-.6 1.5l-.5 1.6l-.4 1.6l-.3 1.7l-.3 1.6l-.2 1.7l-.1 1.8v3.3l.1 1.5l.1 1.5l.2 1.5l.3 1.4l.1 .7l.2 .7l.4 1.4l.4 1.4l.2 .7l.3 .7l.3 .6l.3 .7l.6 1.3l.7 1.3l.7 1.2l.4 .6l.4 .6l.8 1.2l1 1.2l1.1 1.4l1.2 1.3l1.1 1.1l1.2 1l1.2 1l1.2 .9l1.2 .9l1.3 .8l1.3 .7l1.3 .6l1.3 .6l1.3 .6l1.4 .4l1.4 .4l1.4 .4l1.5 .3l1.5 .2l1.5 .1l1.4 .1l1.5 .1h.3l1.7 -.1l1.7 -.1l1.6 -.2l.8 -.2h.2l.2 -.1h.4l.8 -.2l.8 -.2l1.6 -.4l.7 -.3l.4 -.1l.2 -.1h.2l1.5 -.6l1.4 -.7l.7 -.4l.4 -.2l.4 -.2l.6 -.4l.8 -.4l.3 -.2l.1 -.2l.2 -.1l.7 -.4l1.4 -1l1.3 -1.1L224 445l1.3 -1.2l.6 -.7l.6 -.6l.3 -.4l.3 -.3l.6 -.7l.1 -.1l.1 -.1l.9 -1.2l.2 -.3l.2 -.3l.4 -.6l.4 -.6l.4 -.6l.3 -.6l.4 -.6l.1 -.3l.1 -.2l.1 -.2l.3 -.6l.2 -.3v-.2l.1 -.1l.3 -.6l.3 -.7l.3 -.7l.2 -.6l.1 -.4l.2 -.3l.1 -.7l.3 -.7l.1 -.7l.2 -.6l.2 -.7v-.4l.1 -.3l.2 -.8l.1 -.7l.1 -.7l.1 -.7v-.4l.1 -.4l.1 -.7v-1.5l.1 -.8v-.7l-.1 -1.8l-.1 -1.8l-.2 -1.7l-.2 -1.6l-.4 -1.7l-.4 -1.6l-.5 -1.6l-.6 -1.5l-.7 -1.5l-.7 -1.5l-.8 -1.5l-.9 -1.3l-1 -1.4l-1 -1.4l-1.1 -1.3l-1.2 -1.3" class="ge_63"/>
<path d="M201.3 422.6l-.3 -.1l-.3 -.1l-.3 -.1l-.5 -.2l-.2 -.2l-.2 -.2l-.2 -.2l-.2 -.3L199 421l-.1 -.3l-.1 -.2l-.1 -.3V419l.2 -.5l.2 -.5l.4 -.5l.4 -.4l.5 -.2l.6 -.2h1.1l.3 .1l.3 .1l.2 .1l.3 .1l.2 .2l.2 .2l.2 .2l.2 .3l.2 .5l.1 .2l.1 .3l.1 .3v.6l-.1 .3v.1l-.1 .2l-.1 .2l-.1 .3l-.1 .2l-.1 .1l-.1 .1v.1l-.2 .2l-.2 .2h-.1v.1l-.1 .1l-.3 .1l-.2 .1l-.3 .1l-.2 .1h-.1l-.3 .1h-.2Z" class="g2_63"/>
<path d="M172 387.2l-.9 -.9l-.8 -.8l-.9 -.8l-.9 -.7l-.9 -.8l-.9 -.7l-1.8 -1.3l-1 -.7l-.9 -.6l-1 -.6l-.9 -.5l-2 -1l-1 -.5l-1 -.4l-2.1 -.8l-1 -.4l-1 -.3l-1.1 -.4l-1.1 -.2l-1.1 -.3l-1.1 -.2l-1.1 -.2l-1.1 -.2l-1.2 -.2l-1.1 -.1l-1.2 -.1h-5.8l-2.3 .1l-2.3 .3l-2.3 .4l-2.2 .5l-2.1 .6l-2.1 .7l-2 .8l-2.1 .9l-1.9 1l-2 1.1l-1.8 1.3l-1.9 1.3l-1.7 1.5l-1.8 1.5l-1.7 1.7l-1.6 1.7l-1.5 1.8l-1.5 1.8l-1.3 1.9l-1.2 1.9l-1.1 2l-1 2l-.9 2.1l-.8 2.1l-.7 2.1l-.5 2.2l-.5 2.3l-.4 2.3l-.2 2.3l-.2 2.4v4.5l.1 2l.2 2l.3 2.1l.1 .9l.2 1l.5 1.9l.2 1l.3 .9l.6 1.9l.7 1.8l.3 .9l.4 .9l.8 1.8l1 1.7l.9 1.7l1.1 1.7l1.2 1.6l.6 .8l.6 .8l1.6 1.8l.8 .9l.9 1l1.5 1.5l1.6 1.4l1.6 1.3l1.6 1.2l1.7 1.2l1.7 1.1l1.7 .9l1.8 1l1.8 .7l1.9 .8l1.8 .6l1.9 .6l2 .4l2 .4l2 .3l2.1 .2l1.9 .1l2 .1h.3l1.2 -.1h1.2l1.1 -.1l1.2 -.1l1.1 -.1l1.1 -.2l2.2 -.4l.5 -.1l.3 -.1h.2L151 466l1.1 -.3l1.1 -.3l2 -.7l1 -.4l1.1 -.4l1 -.4l.9 -.5l.5 -.3l.5 -.2l1 -.5l.9 -.6l1 -.6l1.9 -1.2l.9 -.6l.9 -.7l.9 -.7l.9 -.7l.8 -.8l.4 -.4l.5 -.4l.8 -.8l.9 -.8l.8 -1l.9 -.9l1.6 -1.8l.2 -.3l.6 -.8l.3 -.4l.3 -.4l.6 -.8l.5 -.8l.5 -.8l.6 -.8l.9 -1.7l.9 -1.8l.2 -.4l.2 -.4l.5 -.9l.7 -1.8l.3 -.9l.1 -.2l.1 -.3l.2 -.4l.2 -.9l.3 -.9l.5 -1.9l.5 -1.9l.3 -1.9l.1 -1l.2 -1l.1 -1v-.5l.1 -.5v-1.1l.1 -1l.1 -2l-.1 -1.2v-1.2l-.2 -2.4l-.2 -2.3l-.2 -1.2l-.2 -1.1l-.2 -1.2l-.3 -1.1l-.5 -2.2l-.8 -2.1l-.3 -1.1l-.4 -1l-.5 -1l-.4 -1.1l-1 -2l-1.2 -2l-1.1 -1.9l-.7 -.9l-.7 -1l-1.4 -1.8l-.7 -.9l-.8 -.9L172 387.2" class="ge_63"/>
<path d="M207 385.3L145.3 373.5m65 79.6l-63.4 14.4" class="gf_63"/>
<path d="M147.4 374.3l-7.5 46.2" class="gg_63"/>
<path d="M139.9 423.8h-.2l-.3 -.1l-.3 -.1l-.5 -.3l-.2 -.2l-.2 -.2l-.2 -.2l-.2 -.2l-.2 -.3l-.1 -.2v-.3l-.1 -.3v-1.1l.1 -.6l.3 -.5l.4 -.4l.4 -.4l.5 -.3l.6 -.1l.5 -.1l.6 .1h.3l.3 .1l.2 .1l.2 .2l.3 .2l.2 .2l.2 .2l.1 .2l.3 .5l.1 .3l.1 .3v.3l.1 .3h-.1v.5l-.1 .2v.1l-.1 .3l-.1 .2l-.2 .3l-.1 .1v.1l-.2 .2l-.2 .2H142v.1h-.1l-.1 .1l-.2 .2l-.2 .1l-.3 .1h-.2l-.1 .1h-.6Z" class="g2_63"/>
<path d="M206.5 385.3L202 419.6" class="gg_63"/>
<path d="M201.3 422.6l-.3 -.1l-.3 -.1l-.3 -.1l-.5 -.2l-.2 -.2l-.2 -.2l-.2 -.2l-.2 -.3L199 421l-.1 -.3l-.1 -.2l-.1 -.3V419l.2 -.5l.2 -.5l.4 -.5l.4 -.4l.5 -.2l.6 -.2h1.1l.3 .1l.3 .1l.2 .1l.3 .1l.2 .2l.2 .2l.2 .2l.2 .3l.2 .5l.1 .2l.1 .3l.1 .3v.6l-.1 .3v.1l-.1 .2l-.1 .2l-.1 .3l-.1 .2l-.1 .1l-.1 .1v.1l-.2 .2l-.2 .2h-.1v.1l-.1 .1l-.3 .1l-.2 .1l-.3 .1l-.2 .1h-.1l-.3 .1h-.2Z" class="g2_63"/>
<path d="M526.7 409.8h34.5" class="ga_63"/>
<path d="M56.7 371.3h.7v-.8h-.7v.8Z" class="g4_63"/>
<path d="M57.4 371.3H271.9v-.8H57.4v.8Z" class="g4_63"/>
<path d="M271.9 371.3h.7v-.8h-.7v.8Z" class="g4_63"/>
<path d="M272.6 371.3H359v-.8H272.6v.8Z" class="g4_63"/>
<path d="M359 371.3h.7v-.8H359v.8Z" class="g4_63"/>
<path d="M359.7 371.3h86.2v-.8H359.7v.8Z" class="g4_63"/>
<path d="M445.9 371.3h.7v-.8h-.7v.8Z" class="g4_63"/>
<path d="M446.6 371.3H641.5v-.8H446.6v.8Z" class="g4_63"/>
<path d="M641.5 371.3h.7v-.8h-.7v.8Z" class="g4_63"/>
<path d="M642.2 371.3h74.6v-.8H642.2v.8Z" class="g4_63"/>
<path d="M716.8 371.3h.8v-.8h-.8v.8Z" class="g4_63"/>
<path d="M717.6 371.3h74.6v-.8H717.6v.8Z" class="g4_63"/>
<path d="M792.2 371.3h.7v-.8h-.7v.8Z" class="g4_63"/>
<path d="M792.9 371.3h81v-.8h-81v.8Z" class="g4_63"/>
<path d="M873.9 371.3h.8v-.8h-.8v.8Z" class="g4_63"/>
<path d="M56.7 470.1h.7V371.3h-.7v98.8Z" class="g4_63"/>
<path d="M271.9 470.1h.7V371.3h-.7v98.8Z" class="g4_63"/>
<path d="M359 470.1h.7V371.3H359v98.8Z" class="g4_63"/>
<path d="M445.9 470.1h.7V371.3h-.7v98.8Z" class="g4_63"/>
<path d="M641.5 470.1h.7V371.3h-.7v98.8Z" class="g4_63"/>
<path d="M716.8 470.1h.8V371.3h-.8v98.8Z" class="g4_63"/>
<path d="M792.2 470.1h.7V371.3h-.7v98.8Z" class="g4_63"/>
<path d="M873.9 470.1h.8V371.3h-.8v98.8Z" class="g4_63"/>
<path d="M164 573.1h-2.1l-2 -.1l-2.3 -.3l-2.1 -.3l-2.1 -.4l-2.1 -.5l-2 -.6l-2 -.6l-2 -.8l-1.9 -.8l-1.9 -1l-1.9 -1.1l-1.8 -1.1l-1.7 -1.2L134.3 563l-1.7 -1.4L131 560.1l-1.6 -1.6l-1 -1l-.9 -1l-1.6 -1.9l-.7 -.9l-.7 -.8l-1.2 -1.8l-1.2 -1.8l-1 -1.8l-1 -1.8l-.9 -1.9l-.4 -.9l-.4 -1l-.7 -1.9l-.6 -2l-.3 -1l-.3 -1l-.5 -2.1l-.2 -1l-.1 -1l-.3 -2.2l-.2 -2.1l-.2 -2.2v-2.3l.1 -2.5l.1 -2.6l.3 -2.4l.4 -2.5l.5 -2.4l.6 -2.3l.7 -2.3l.9 -2.2l.9 -2.2l1.1 -2.1l1.2 -2.2l1.3 -2l1.4 -2l1.5 -1.9l1.6 -1.9l1.8 -1.9l1.7 -1.7l1.9 -1.7l1.9 -1.6l2 -1.4l2 -1.3l2 -1.2l2.1 -1.1l2.2 -.9l2.1 -.9l2.3 -.7l2.2 -.7l2.4 -.5l2.4 -.4l2.4 -.3l2.5 -.1l2.5 -.1l2.5 .1h1.2l1.3 .1l1.2 .1l1.2 .2l1.2 .2l1.2 .2l1.1 .2l1.2 .3l1.1 .3l1.2 .4l1.1 .3l1.1 .4l2.2 .9l1.1 .4l1 .5l2.1 1.1l1 .6l1.1 .6l1 .6l1 .7l.9 .7l1 .7l1 .8l.9 .8l1 .8l.9 .9l.9 .8l.9 .9l1.7 1.9l.9 .9l.8 1l1.5 1.9l.7 1l.7 1l1.2 2l1.2 2.2l1.1 2.1l.5 1.1l.5 1.1l.4 1.1l.4 1.1l.7 2.3l.6 2.3l.3 1.2l.3 1.2l.2 1.2l.1 1.3l.3 2.4l.2 2.6v1.2l.1 1.3l-.1 2.2l-.1 1.1v1.1l-.1 .5v.6l-.1 1l-.2 1.1l-.1 1l-.4 2.1l-.4 2l-.6 2l-.3 1l-.3 1l-.2 .4l-.1 .3l-.1 .2l-.3 1l-.8 1.9l-.4 .9l-.3 .5l-.2 .5l-.9 1.8l-1.1 1.8l-.5 .8l-.6 .9l-.6 .9l-.6 .9l-.3 .4l-.3 .4l-.6 .9l-.3 .3l-1.7 1.9l-.9 1l-.9 1l-.9 .8l-.9 .9l-.5 .4l-.4 .4l-.9 .9l-1 .7l-.9 .8l-1 .7l-.9 .7l-2 1.3l-1.1 .6l-1 .6l-1 .5l-.5 .3l-.5 .3l-1.1 .5l-1 .5l-1.1 .4l-1.1 .4l-2.2 .8l-1.2 .3l-1.1 .3l-1.1 .3h-.3l-.3 .1l-.6 .2l-2.3 .4l-1.2 .1l-1.2 .2l-1.2 .1h-1.2l-1.3 .1h-1.2Z" class="g5_63"/>
<path d="M198.6 487.7l-.9 -.9l-.9 -.8l-.9 -.9l-1 -.8l-.9 -.8l-1 -.8l-1 -.7l-.9 -.7l-1 -.7l-1 -.6l-1.1 -.6l-1 -.6l-2.1 -1.1l-1 -.5l-1.1 -.4l-2.2 -.9l-1.1 -.4l-1.1 -.3l-1.2 -.4l-1.1 -.3l-1.2 -.3l-1.1 -.2l-1.2 -.2l-1.2 -.2l-1.2 -.2l-1.2 -.1l-1.3 -.1h-1.2l-2.5 -.1l-2.5 .1l-2.5 .1l-2.4 .3l-2.4 .4l-2.4 .5l-2.2 .7l-2.3 .7l-2.1 .9l-2.2 .9l-2.1 1.1l-2 1.2l-2 1.3l-2 1.4l-1.9 1.6l-1.9 1.7l-1.7 1.7l-1.8 1.9l-1.6 1.9l-1.5 1.9l-1.4 2l-1.3 2l-1.2 2.2l-1.1 2.1l-.9 2.2l-.9 2.2l-.7 2.3l-.6 2.3l-.5 2.4l-.4 2.5l-.3 2.4l-.1 2.6l-.1 2.5v2.3l.2 2.2l.2 2.1l.3 2.2l.1 1l.2 1l.5 2.1l.3 1l.3 1l.6 2l.7 1.9l.4 1l.4 .9l.9 1.9l1 1.8l1 1.8l1.2 1.8l1.2 1.8l.7 .8l.7 .9l1.6 1.9l.9 1l1 1l1.6 1.6l1.6 1.5l1.7 1.4l1.8 1.3l1.7 1.2l1.8 1.1l1.9 1.1l1.9 1l1.9 .8l2 .8l2 .6l2 .6l2.1 .5l2.1 .4l2.1 .3l2.3 .3l2 .1h3.7l1.3 -.1h1.2l1.2 -.1l1.2 -.2l1.2 -.1l2.3 -.4l.6 -.2l.3 -.1h.3l1.1 -.3l1.1 -.3l1.2 -.3l2.2 -.8l1.1 -.4l1.1 -.4l1 -.5l1.1 -.5l.5 -.3l.5 -.3l1 -.5l1 -.6l1.1 -.6l2 -1.3l.9 -.7l1 -.7l.9 -.8l1 -.7l.9 -.9l.4 -.4l.5 -.4l.9 -.9l.9 -.8l.9 -1l.9 -1l1.7 -1.9l.3 -.3l.6 -.9l.3 -.4l.3 -.4l.6 -.9l.6 -.9l.6 -.9l.5 -.8l1.1 -1.8l.9 -1.8l.2 -.5l.3 -.5l.4 -.9l.8 -1.9l.3 -1l.1 -.2l.1 -.3l.2 -.4l.3 -1l.3 -1l.6 -2l.4 -2l.4 -2.1l.1 -1l.2 -1.1l.1 -1V528l.1 -.5v-1.1l.1 -1.1l.1 -2.2l-.1 -1.3v-1.2l-.2 -2.6l-.3 -2.4l-.1 -1.3l-.2 -1.2l-.3 -1.2l-.3 -1.2l-.6 -2.3l-.7 -2.3l-.4 -1.1l-.4 -1.1l-.5 -1.1l-.5 -1.1l-1.1 -2.1l-1.2 -2.2l-1.2 -2l-.7 -1l-.7 -1L202 491.5l-.8 -1l-.9 -.9l-1.7 -1.9" class="gh_63"/>
<path d="M164.5 526.7h-.3l-.3 -.1l-.2 -.1l-.6 -.3l-.2 -.2l-.2 -.2l-.3 -.3l-.1 -.2l-.2 -.3l-.1 -.2l-.1 -.3l-.1 -.3V523l.2 -.6l.3 -.6l.4 -.4l.4 -.4l.6 -.3l.5 -.2l.7 -.1h.3l.3 .1h.2l.3 .2l.3 .1l.3 .2l.2 .1l.2 .3l.2 .2l.2 .2l.3 .6l.1 .3l.1 .3v.3l.1 .3l-.1 .1v.5l-.1 .1v.2l-.1 .3l-.1 .2l-.2 .3l-.1 .1v.1h-.1l-.2 .3l-.2 .2h-.1v.1l-.1 .1l-.3 .1l-.3 .2l-.3 .1h-.1l-.1 .1h-.6Z" class="g2_63"/>
<path d="M177.4 560.1h-1.6l-1.5 -.1l-1.6 -.2l-1.6 -.3l-1.5 -.3l-1.5 -.3l-1.6 -.5l-1.4 -.5l-1.5 -.5l-1.4 -.6l-1.4 -.8l-1.3 -.7l-1.4 -.9l-1.3 -.8l-1.3 -1l-1.2 -1l-1.2 -1.1l-1.2 -1.2l-1.3 -1.4l-1.3 -1.5l-.9 -1.3l-.9 -1.2l-.5 -.7l-.4 -.6l-.8 -1.3l-.7 -1.4l-.6 -1.4l-.4 -.7l-.2 -.7l-.3 -.7l-.2 -.7l-.5 -1.5l-.4 -1.5l-.2 -.7l-.2 -.8l-.2 -1.5l-.3 -1.6l-.1 -1.6l-.1 -1.6v-3.5l.1 -1.9l.2 -1.8L142 516l.4 -1.8l.4 -1.7l.6 -1.7l.6 -1.6l.7 -1.6l.7 -1.6l.9 -1.6l1 -1.4l1 -1.5l1.1 -1.5l1.2 -1.4l1.3 -1.3l1.3 -1.3l1.4 -1.2l1.4 -1.2l1.4 -1l1.5 -1l1.5 -.9l1.6 -.8l1.6 -.7l1.5 -.6l1.7 -.6l1.7 -.4l1.7 -.4l1.7 -.3l1.8 -.2l1.8 -.1l1.9 -.1l1.8 .1l1.8 .1l.9 .1l.9 .1l1.8 .3l1.7 .4l.8 .2l.8 .2l1.7 .6l.8 .3l.8 .3l1.5 .7l1.6 .8l1.5 .9l1.5 1l.7 .5l.7 .5l1.4 1.2l.7 .6l.7 .6l1.3 1.3l1.3 1.3l1.2 1.4l1.1 1.5l1 1.5l.9 1.4l.9 1.6l.8 1.6l.7 1.6l.6 1.6l.6 1.7l.4 1.7l.4 1.8l.3 1.7l.2 1.8l.1 1.9l.1 1.9l-.1 .2v2.2l-.1 .8l-.1 .8v.8l-.1 .8l-.1 .8l-.2 .7l-.1 .8l-.1 .3l-.1 .2v.2l-.2 .8l-.2 .7l-.2 .7l-.2 .7l-.2 .8l-.1 .3l-.2 .4l-.2 .7l-.3 .7l-.3 .7l-.3 .6l-.1 .2l-.1 .2l-.1 .3l-.4 .7l-.1 .2l-.1 .1l-.1 .4l-.4 .6l-.4 .7l-.4 .6l-.4 .7l-.4 .6l-.3 .3l-.2 .3l-.4 .7l-.5 .6l-.2 .2l-.6 .7l-.4 .4l-.3 .4l-1.3 1.4l-1.3 1.3l-1.4 1.2l-1.4 1.1l-1.4 1.1l-.7 .4l-.2 .1l-.2 .1l-.3 .3l-.8 .4l-.7 .5l-.4 .2l-.4 .2l-.7 .4l-1.6 .7l-1.6 .6l-.2 .1l-.2 .1l-.4 .1l-.8 .3l-1.7 .5l-.8 .2l-.8 .2h-.7l-.2 .1l-.9 .1l-1.7 .3l-1.8 .1l-1.8 .1Z" class="g7_63"/>
<path d="M202.8 497.3L201.5 496l-.7 -.6l-.7 -.6l-1.4 -1.2l-.7 -.5l-.7 -.5l-1.5 -1l-1.5 -.9l-1.6 -.8l-1.5 -.7l-.8 -.3l-.8 -.3l-1.7 -.6l-.8 -.2l-.8 -.2l-1.7 -.4l-1.8 -.3l-.9 -.1l-.9 -.1l-1.8 -.1l-1.8 -.1l-1.9 .1l-1.8 .1l-1.8 .2l-1.7 .3l-1.7 .4l-1.7 .4l-1.7 .6l-1.5 .6l-1.6 .7l-1.6 .8l-1.5 .9l-1.5 1l-1.4 1l-1.4 1.2l-1.4 1.2l-1.3 1.3l-1.3 1.3l-1.2 1.4l-1.1 1.5l-1 1.5l-1 1.4l-.9 1.6l-.7 1.6l-.7 1.6l-.6 1.6l-.6 1.7l-.4 1.7L142 516l-.3 1.7l-.2 1.8l-.1 1.9v3.5l.1 1.6l.1 1.6l.3 1.6l.2 1.5l.2 .8l.2 .7l.4 1.5l.5 1.5l.2 .7l.3 .7l.2 .7l.4 .7l.6 1.4l.7 1.4l.8 1.3l.4 .6l.5 .7l.9 1.2l.9 1.3l1.3 1.5l1.3 1.4l1.2 1.2l1.2 1.1l1.2 1l1.3 1l1.3 .8l1.4 .9l1.3 .7l1.4 .8l1.4 .6l1.5 .5l1.4 .5l1.6 .5l1.5 .3l1.5 .3l1.6 .3l1.6 .2l1.5 .1h1.9l1.8 -.1l1.8 -.1l1.7 -.3l.9 -.1l.2 -.1h.7l.8 -.2l.8 -.2l1.7 -.5l.8 -.3l.4 -.1l.2 -.1l.2 -.1l1.6 -.6l1.6 -.7l.7 -.4l.4 -.2l.4 -.2l.7 -.5l.8 -.4l.3 -.3l.2 -.1l.2 -.1l.7 -.4l1.4 -1.1l1.4 -1.1l1.4 -1.2l1.3 -1.3l1.3 -1.4l.3 -.4l.4 -.4l.6 -.7l.2 -.2l.5 -.6l.4 -.7l.2 -.3l.3 -.3l.4 -.6l.4 -.7l.4 -.6l.4 -.7l.4 -.6l.1 -.4l.1 -.1l.1 -.2l.4 -.7l.1 -.3l.1 -.2l.1 -.2l.3 -.6l.3 -.7l.3 -.7l.2 -.7l.2 -.4l.1 -.3l.2 -.8l.2 -.7l.2 -.7l.2 -.7l.2 -.8v-.2l.1 -.2l.1 -.3l.1 -.8l.2 -.7l.1 -.8l.1 -.8v-.8l.1 -.8l.1 -.8v-2.2l.1 -.2l-.1 -1.9l-.1 -1.9l-.2 -1.8l-.3 -1.7l-.4 -1.8l-.4 -1.7l-.6 -1.7l-.6 -1.6l-.7 -1.6l-.8 -1.6l-.9 -1.6l-.9 -1.4l-1 -1.5L205.3 500l-1.2 -1.4l-1.3 -1.3" class="gh_63"/>
<path d="M177.2 526.7l-.3 -.1l-.3 -.1l-.2 -.1l-.6 -.3l-.2 -.1l-.2 -.2l-.3 -.3l-.1 -.2l-.2 -.3l-.1 -.3l-.1 -.3l-.1 -.3v-1.2l.2 -.6l.3 -.5l.4 -.5l.4 -.4l.6 -.3l.5 -.2h1.3l.2 .1l.3 .1l.3 .1l.3 .2l.2 .2l.2 .2l.2 .2l.2 .3l.3 .5l.1 .3l.1 .3v.3l.1 .4h-.1v.5l-.1 .2v.1l-.1 .3l-.1 .3l-.2 .3l-.1 .1h-.1v.1l-.2 .3l-.2 .2h-.1l-.1 .1l-.3 .2l-.3 .1l-.3 .1l-.1 .1h-.1l-.3 .1h-.3Z" class="g2_63"/>
<path d="M198.6 487.7l-.9 -.9l-.9 -.8l-.9 -.9l-1 -.8l-.9 -.8l-1 -.8l-1 -.7l-.9 -.7l-1 -.7l-1 -.6l-1.1 -.7l-1 -.5l-2.1 -1.1l-1 -.5l-1.1 -.4l-2.2 -.9l-1.1 -.4l-1.1 -.3l-1.2 -.4l-1.1 -.3l-1.2 -.3l-1.1 -.2l-1.2 -.2l-1.2 -.2l-1.2 -.2l-1.2 -.1l-1.3 -.1h-1.2l-2.5 -.1l-2.5 .1l-2.5 .1l-2.4 .3l-2.4 .4l-2.4 .5l-2.2 .7l-2.3 .7l-2.1 .9l-2.2 .9l-2.1 1.1l-2 1.2l-2 1.3l-2 1.4l-1.9 1.6l-1.9 1.7l-1.7 1.7l-1.8 1.9l-1.6 1.9l-1.5 1.9l-1.4 2l-1.3 2l-1.2 2.2l-1.1 2.1l-.9 2.2l-.9 2.2l-.7 2.3l-.6 2.3l-.5 2.4l-.4 2.5l-.3 2.4l-.1 2.6l-.1 2.5v2.3l.2 2.2l.2 2.1l.3 2.2l.1 1l.2 1l.5 2.1l.3 1l.3 1l.6 2l.7 1.9l.4 1l.4 .9l.9 1.9l1 1.8l1 1.8l1.2 1.8l1.2 1.8l.7 .8l.7 .9l1.6 1.9l.9 1l1 1l1.6 1.6l1.6 1.5l1.7 1.4l1.8 1.3l1.7 1.2l1.8 1.1l1.9 1.1l1.9 1l1.9 .8l2 .8l2 .6l2 .6l2.1 .5l2.1 .4l2.1 .3l2.3 .3l2 .1h3.7l1.3 -.1h1.2l1.2 -.1l1.2 -.2l1.2 -.1l2.3 -.4l.6 -.2l.3 -.1h.3l1.1 -.3l1.1 -.3l1.2 -.3l2.2 -.8l1.1 -.4l1.1 -.4l1 -.5l1.1 -.5l.5 -.3l.5 -.3l1 -.5l1 -.6l1.1 -.6l2 -1.3l.9 -.7l1 -.7l.9 -.8l1 -.7l.9 -.9l.4 -.4l.5 -.4l.9 -.9l.9 -.8l.9 -1l.9 -1l1.7 -1.9l.3 -.3l.6 -.9l.3 -.4l.3 -.4l.6 -.9l.6 -.9l.6 -.9l.5 -.8l1.1 -1.8l.9 -1.8l.2 -.5l.3 -.5l.4 -.9l.8 -1.9l.3 -1l.1 -.2l.1 -.3l.2 -.4l.3 -1l.3 -1l.6 -2l.4 -2l.4 -2.1l.1 -1l.2 -1.1l.1 -1V528l.1 -.5v-1.1l.1 -1.1l.1 -2.2l-.1 -1.3v-1.2l-.2 -2.6l-.3 -2.4l-.1 -1.3l-.2 -1.2l-.3 -1.2l-.3 -1.2l-.6 -2.3l-.7 -2.3l-.4 -1.1l-.4 -1.1l-.5 -1.1l-.5 -1.1l-1.1 -2.1l-1.2 -2.2l-1.2 -2l-.7 -1l-.7 -1L202 491.5l-.8 -1l-.9 -.9l-1.7 -1.9" class="gh_63"/>
<path d="M164.5 526.7h-.3l-.3 -.1l-.2 -.1l-.6 -.3l-.2 -.2l-.2 -.2l-.3 -.3l-.1 -.2l-.2 -.3l-.1 -.2l-.1 -.3l-.1 -.3V523l.2 -.6l.3 -.6l.4 -.4l.4 -.4l.6 -.3l.5 -.2l.7 -.1h.3l.3 .1h.2l.3 .2l.3 .1l.3 .2l.2 .1l.2 .3l.2 .2l.2 .2l.3 .6l.1 .3l.1 .3v.3l.1 .3l-.1 .1v.5l-.1 .1v.2l-.1 .3l-.1 .2l-.2 .3l-.1 .1v.1h-.1l-.2 .3l-.2 .2h-.1v.1l-.1 .1l-.3 .1l-.3 .2l-.3 .1h-.1l-.1 .1h-.6Z" class="g2_63"/>
<path d="M213 523.7H115.3" class="gh_63"/>
<path d="M495 512.4h34.5" class="ga_63"/>
<path d="M56.7 470.8h.7v-.7h-.7v.7Z" class="g4_63"/>
<path d="M57.4 470.8H271.9v-.7H57.4v.7Z" class="g4_63"/>
<path d="M271.9 470.8h.7v-.7h-.7v.7Z" class="g4_63"/>
<path d="M272.6 470.8H359v-.7H272.6v.7Z" class="g4_63"/>
<path d="M359 470.8h.7v-.7H359v.7Z" class="g4_63"/>
<path d="M359.7 470.8h86.2v-.7H359.7v.7Z" class="g4_63"/>
<path d="M445.9 470.8h.7v-.7h-.7v.7Z" class="g4_63"/>
<path d="M446.6 470.8H641.5v-.7H446.6v.7Z" class="g4_63"/>
<path d="M641.5 470.8h.7v-.7h-.7v.7Z" class="g4_63"/>
<path d="M642.2 470.8h74.6v-.7H642.2v.7Z" class="g4_63"/>
<path d="M716.8 470.8h.8v-.7h-.8v.7Z" class="g4_63"/>
<path d="M717.6 470.8h74.6v-.7H717.6v.7Z" class="g4_63"/>
<path d="M792.2 470.8h.7v-.7h-.7v.7Z" class="g4_63"/>
<path d="M792.9 470.8h81v-.7h-81v.7Z" class="g4_63"/>
<path d="M873.9 470.8h.8v-.7h-.8v.7Z" class="g4_63"/>
<path d="M56.7 575.8h.7v-105h-.7v105Z" class="g4_63"/>
<path d="M271.9 575.8h.7v-105h-.7v105Z" class="g4_63"/>
<path d="M359 575.8h.7v-105H359v105Z" class="g4_63"/>
<path d="M445.9 575.8h.7v-105h-.7v105Z" class="g4_63"/>
<path d="M641.5 575.8h.7v-105h-.7v105Z" class="g4_63"/>
<path d="M716.8 575.8h.8v-105h-.8v105Z" class="g4_63"/>
<path d="M792.2 575.8h.7v-105h-.7v105Z" class="g4_63"/>
<path d="M873.9 575.8h.8v-105h-.8v105Z" class="g4_63"/>
<path d="M164.5 679.3h-2.1l-2 -.1l-2.2 -.3l-2.2 -.3l-2.1 -.4l-2.1 -.5l-2 -.6l-2 -.6l-2 -.8l-1.9 -.9l-2 -.9l-1.8 -1.1l-1.8 -1.1l-1.8 -1.2l-1.7 -1.4l-1.7 -1.4l-1.7 -1.5l-1.6 -1.6l-1 -1l-.8 -.9l-.9 -1l-.8 -1l-.7 -.8L125 659l-1.3 -1.7l-1.1 -1.8l-1.1 -1.8l-1 -1.8l-.9 -1.9l-.4 -1l-.4 -.9l-.7 -2l-.6 -2l-.3 -1l-.3 -1l-.4 -2.1l-.2 -1l-.2 -1l-.3 -2.2l-.2 -2.1l-.1 -2.2l-.1 -2.3l.1 -2.5l.1 -2.6l.3 -2.5l.4 -2.4l.5 -2.4l.6 -2.3l.8 -2.3L119 610l.9 -2.2l1.1 -2.2l1.2 -2.1l1.3 -2l1.4 -2.1l1.5 -1.9l1.6 -1.9l1.8 -1.8l1.8 -1.8l1.8 -1.7l2 -1.6l1.9 -1.4l2 -1.3l2.1 -1.2l2.1 -1.1l2.2 -.9l2.1 -.9l2.3 -.7l2.2 -.7l2.4 -.5l2.4 -.4l2.4 -.3l2.5 -.1l2.5 -.1h1.3l1.2 .1h1.3l1.2 .1l1.2 .1l1.2 .2l1.2 .2l1.2 .2l1.2 .2l1.2 .3l1.1 .3l1.1 .4l1.1 .3l1.2 .4l2.2 .9l1 .4l1.1 .5l2.1 1.1l1 .5l1 .7l1 .6l1.1 .7l.9 .7l1 .7l.9 .8l1 .8l1 .8l.9 .9l.9 .8l.9 1l1.7 1.8l.9 .9l.8 1l1.5 1.9l.7 1l.7 1.1l.7 1l.6 1l1.2 2.1l1 2.2l.5 1.1l.5 1.1l.4 1.1l.4 1.1l.8 2.3l.6 2.3l.3 1.2l.2 1.2l.2 1.2l.2 1.2l.3 2.5l.1 2.6l.1 1.2v3.5l-.1 1.1l-.1 1.1v.5l-.1 .6l-.1 1l-.1 1.1l-.2 1.1l-.3 2l-.5 2.1l-.5 1.9l-.3 1l-.3 1l-.2 .5l-.1 .2l-.1 .3l-.4 .9l-.7 1.9l-.5 .9l-.2 .5l-.2 .5l-1 1.8l-1 1.8l-.6 .9l-.5 .9l-.6 .8l-.6 .9l-.7 .9l-.6 .8l-.3 .3l-1.7 2l-.9 .9l-.9 1l-.9 .9l-.9 .9l-.5 .4l-.4 .4l-.9 .8l-1 .8l-.9 .8l-1 .7l-1 .7l-1 .6l-.5 .3l-.2 .2l-.2 .2l-1.1 .6l-1 .6l-1 .5l-.5 .3l-.5 .3l-1.1 .5l-1.1 .5l-1.1 .4l-1 .4l-2.2 .8l-1.2 .3l-1.1 .3l-1.2 .3h-.3l-.2 .1l-.6 .2l-2.4 .4l-1.2 .1l-1.1 .2l-1.3 .1h-1.2l-1.2 .1H165Z" class="g5_63"/>
<path d="M199.2 593.8l-.9 -1l-.9 -.8l-.9 -.9l-1 -.8l-1 -.8l-.9 -.8l-1 -.7l-.9 -.7l-1.1 -.7l-1 -.6l-1 -.7l-1 -.5l-2.1 -1.1l-1.1 -.5l-1 -.4l-2.2 -.9l-1.2 -.4l-1.1 -.3l-1.1 -.4l-1.1 -.3l-1.2 -.3l-1.2 -.2l-1.2 -.2l-1.2 -.2l-1.2 -.2l-1.2 -.1l-1.2 -.1H167l-1.2 -.1h-1.3l-2.5 .1l-2.5 .1l-2.4 .3l-2.4 .4l-2.4 .5l-2.2 .7l-2.3 .7l-2.1 .9l-2.2 .9l-2.1 1.1l-2.1 1.2l-2 1.3l-1.9 1.4l-2 1.6l-1.8 1.7l-1.8 1.8l-1.8 1.8l-1.6 1.9l-1.5 1.9l-1.4 2.1l-1.3 2l-1.2 2.1l-1.1 2.2L119 610l-.8 2.2l-.8 2.3l-.6 2.3l-.5 2.4l-.4 2.4l-.3 2.5l-.1 2.6l-.1 2.5l.1 2.3l.1 2.2l.2 2.1l.3 2.2l.2 1l.2 1l.4 2.1l.3 1l.3 1l.6 2l.7 2l.4 .9l.4 1l.9 1.9l1 1.8l1.1 1.8l1.1 1.8L125 659l.6 .9l.7 .8l.8 1l.9 1l.8 .9l1 1l1.6 1.6l1.7 1.5l1.7 1.4l1.7 1.4l1.8 1.2l1.8 1.1l1.8 1.1l2 .9l1.9 .9l2 .8l2 .6l2 .6l2.1 .5l2.1 .4l2.2 .3l2.2 .3l2 .1h3.8l1.2 -.1h1.2l1.3 -.1l1.1 -.2l1.2 -.1l2.4 -.4l.6 -.2l.2 -.1h.3l1.2 -.3l1.1 -.3l1.2 -.3l2.2 -.8l1 -.4l1.1 -.4l1.1 -.5l1.1 -.5l.5 -.3l.5 -.3l1 -.5l1 -.6l1.1 -.6l.2 -.2l.2 -.2l.5 -.3l1 -.6l1 -.7l1 -.7l.9 -.8l1 -.8l.9 -.8l.4 -.4l.5 -.4l.9 -.9l.9 -.9l.9 -1l.9 -.9l1.7 -2l.3 -.3l.6 -.8l.7 -.9l.6 -.9l.6 -.8l.5 -.9l.6 -.9l1 -1.8l1 -1.8l.2 -.5l.2 -.5l.5 -.9l.7 -1.9l.4 -.9l.1 -.3l.1 -.2l.2 -.5l.3 -1l.3 -1l.5 -1.9l.5 -2.1l.3 -2l.2 -1.1l.1 -1.1l.1 -1l.1 -.6v-.5l.1 -1.1l.1 -1.1v-3.5l-.1 -1.2l-.1 -2.6l-.3 -2.5l-.2 -1.2l-.2 -1.2l-.2 -1.2l-.3 -1.2l-.6 -2.3l-.8 -2.3l-.4 -1.1L210 610l-.5 -1.1l-.5 -1.1l-1 -2.2l-1.2 -2.1l-.6 -1l-.7 -1l-.7 -1.1l-.7 -1l-1.5 -1.9l-.8 -1l-.9 -.9l-1.7 -1.8" class="gi_63"/>
<path d="M165.1 632.8l-.3 -.1h-.4l-.2 -.1l-.6 -.3l-.2 -.2l-.2 -.2l-.3 -.3l-.1 -.2l-.2 -.3l-.1 -.2l-.1 -.4l-.1 -.2V629l.2 -.6l.3 -.5l.4 -.5l.4 -.4l.6 -.3l.6 -.1l.6 -.1l.6 .1h.3l.3 .1l.2 .1l.3 .2l.2 .2l.3 .2l.2 .3l.1 .2l.3 .5l.1 .3l.1 .3l.1 .3v.7l-.1 .3v.1l-.1 .1l-.1 .4l-.1 .2l-.2 .3l-.1 .1v.1l-.2 .3l-.3 .2h-.1v.1l-.1 .1l-.3 .1l-.2 .2l-.3 .1H166l-.3 .1h-.3Z" class="g2_63"/>
<path d="M173.7 666.3l-1.5 -.1l-1.5 -.1l-1.6 -.2l-1.6 -.2l-1.6 -.3l-1.5 -.4l-1.6 -.4l-1.4 -.5l-1.5 -.6l-1.4 -.6l-1.4 -.7l-1.3 -.8l-1.4 -.8l-1.3 -.9l-1.3 -1l-1.2 -1l-1.2 -1.1l-1.2 -1.2L146.8 654l-.6 -.7l-.6 -.8l-.9 -1.2l-1 -1.3l-.4 -.7l-.4 -.6l-.8 -1.3l-.7 -1.4l-.7 -1.4l-.3 -.7l-.3 -.7l-.5 -1.4l-.5 -1.5l-.4 -1.5l-.2 -.7l-.1 -.8l-.3 -1.5l-.2 -1.6l-.2 -1.6V631l-.1 -.8l.1 -.8v-1.9l.1 -1.9l.2 -1.8l.3 -1.8l.3 -1.8l.5 -1.7l.5 -1.7l.7 -1.6l.6 -1.6l.8 -1.6l.9 -1.5l.9 -1.5l1.1 -1.5l1.1 -1.4l1.2 -1.4l1.3 -1.4l1.3 -1.3l1.4 -1.2l1.4 -1.2l1.4 -1l1.5 -1l1.5 -.9l1.6 -.8l1.6 -.7l1.5 -.6l1.7 -.6l1.7 -.4l1.7 -.4l1.7 -.3l1.8 -.2l1.9 -.1l1.8 -.1l1.9 .1l1.8 .1l.9 .1l.9 .1l1.7 .3l1.7 .4l.9 .2l.8 .2l1.7 .6l.8 .3l.8 .3l1.5 .7l1.6 .8l1.5 .9l1.5 1l.7 .5l.7 .5l1.4 1.2l.7 .6l.7 .6l1.3 1.3l1.3 1.4l1.2 1.4l1.1 1.4l1 1.5l1 1.5l.9 1.5l.7 1.6l.8 1.6l.6 1.6l.5 1.7l.5 1.7l.3 1.8l.3 1.8l.2 1.8l.2 1.9V631l-.1 .8v.8l-.1 .8l-.1 .4v.4l-.1 .7l-.1 .8l-.1 .8l-.2 .7l-.1 .4v.2l-.1 .2l-.1 .8l-.2 .7l-.2 .7l-.2 .7l-.2 .8l-.2 .3l-.1 .4l-.3 .7l-.3 .7l-.3 .7l-.3 .6l-.1 .2l-.1 .2l-.1 .3l-.4 .7l-.1 .2v.1l-.2 .4l-.4 .6l-.4 .7l-.4 .6l-.4 .7l-.4 .6l-.3 .3l-.2 .4l-.4 .6l-.5 .6l-.2 .2l-.6 .8l-.3 .3l-.3 .4l-1.4 1.4l-.3 .3l-.2 .2l-.1 .2l-.7 .6l-1.3 1.2l-1.4 1.1l-1.5 1.1l-.7 .4l-.2 .1l-.2 .2l-.3 .2l-.8 .5l-.7 .4l-.4 .2l-.4 .2l-.7 .4l-1.6 .8l-1.6 .6h-.2l-.2 .1l-.4 .2l-.8 .2l-1.7 .5l-.8 .2l-.9 .2l-.4 .1h-.4l-.9 .2l-1.7 .2l-1.8 .2l-1.9 .1Z" class="g7_63"/>
<path d="M199.2 603.3L197.9 602l-.7 -.6l-.7 -.6l-1.4 -1.2l-.7 -.5l-.7 -.5l-1.5 -1l-1.5 -.9l-1.6 -.8l-1.5 -.7l-.8 -.3l-.8 -.3l-1.7 -.6l-.8 -.2l-.9 -.2l-1.7 -.4l-1.7 -.3l-.9 -.1l-.9 -.1l-1.8 -.1l-1.9 -.1l-1.8 .1l-1.9 .1l-1.8 .2l-1.7 .3l-1.7 .4l-1.7 .4l-1.7 .6l-1.5 .6l-1.6 .7l-1.6 .8l-1.5 .9l-1.5 1l-1.4 1l-1.4 1.2l-1.4 1.2l-1.3 1.3l-1.3 1.4l-1.2 1.4l-1.1 1.4l-1.1 1.5l-.9 1.5l-.9 1.5l-.8 1.6l-.6 1.6l-.7 1.6l-.5 1.7l-.5 1.7l-.3 1.8l-.3 1.8l-.2 1.8l-.1 1.9v1.9l-.1 .8l.1 .8v1.6l.2 1.6l.2 1.6l.3 1.5l.1 .8l.2 .7l.4 1.5l.5 1.5l.5 1.4l.3 .7l.3 .7l.7 1.4l.7 1.4l.8 1.3l.4 .6l.4 .7l1 1.3l.9 1.2l.6 .8l.6 .7l1.4 1.4l1.2 1.2l1.2 1.1l1.2 1l1.3 1l1.3 .9l1.4 .8l1.3 .8l1.4 .7l1.4 .6l1.5 .6l1.4 .5l1.6 .4l1.5 .4l1.6 .3l1.6 .2l1.6 .2l1.5 .1l1.5 .1h.3l1.9 -.1l1.8 -.2l1.7 -.2l.9 -.2h.4l.4 -.1l.9 -.2l.8 -.2l1.7 -.5l.8 -.2l.4 -.2l.2 -.1h.2l1.6 -.6l1.6 -.8l.7 -.4l.4 -.2l.4 -.2l.7 -.4l.8 -.5l.3 -.2l.2 -.2l.2 -.1l.7 -.4l1.5 -1.1l1.4 -1.1l1.3 -1.2l.7 -.6l.1 -.2l.2 -.2l.3 -.3l1.4 -1.4l.3 -.4l.3 -.3l.6 -.8l.2 -.2l.5 -.6l.4 -.6l.2 -.4l.3 -.3l.4 -.6l.4 -.7l.4 -.6l.4 -.7l.4 -.6l.2 -.4v-.1l.1 -.2l.4 -.7l.1 -.3l.1 -.2l.1 -.2l.3 -.6l.3 -.7l.3 -.7l.3 -.7l.1 -.4l.2 -.3l.2 -.8l.2 -.7l.2 -.7l.2 -.7l.1 -.8l.1 -.2v-.2l.1 -.4l.2 -.7l.1 -.8l.1 -.8l.1 -.7v-.4l.1 -.4l.1 -.8v-.8l.1 -.8v-3.5l-.2 -1.9l-.2 -1.8l-.3 -1.8l-.3 -1.8l-.5 -1.7l-.5 -1.7l-.6 -1.6l-.8 -1.6l-.7 -1.6l-.9 -1.5l-1 -1.5l-1 -1.5l-1.1 -1.4l-1.2 -1.4l-1.3 -1.4" class="gi_63"/>
<path d="M173.6 632.7h-.3l-.3 -.1l-.3 -.1l-.5 -.3l-.3 -.2l-.2 -.2l-.2 -.2l-.2 -.3l-.2 -.2l-.1 -.3l-.1 -.3v-.3l-.1 -.3v-.3l.1 -.6l.1 -.6l.3 -.5l.4 -.5l.5 -.4l.5 -.3l.6 -.2h1.2l.3 .1l.3 .1l.2 .1l.3 .2l.2 .1l.3 .3l.2 .2l.2 .3l.3 .5l.1 .3v.3l.1 .3v.6l-.1 .3v.3l-.1 .3l-.2 .3l-.1 .2l-.1 .1l-.1 .1v.1l-.2 .2l-.3 .2v.1h-.1l-.1 .1l-.3 .2l-.2 .1l-.3 .1h-.2l-.1 .1h-.3l-.3 .1Z" class="g2_63"/>
<path d="M199.2 593.8l-.9 -1l-.9 -.8l-.9 -.9l-1 -.8l-1 -.8l-.9 -.8l-1 -.7l-.9 -.7l-1.1 -.7l-1 -.6l-1 -.7l-1 -.5l-2.1 -1.1l-1.1 -.5l-1 -.4l-2.2 -.9l-1.2 -.4l-1.1 -.4l-1.1 -.3l-1.1 -.3l-1.2 -.3l-1.2 -.2l-1.2 -.2l-1.2 -.2l-1.2 -.2l-1.2 -.1l-1.2 -.1H167l-1.2 -.1h-1.2l-2.6 .1l-2.5 .1l-2.4 .3l-2.4 .4l-2.4 .5l-2.2 .6l-2.3 .8l-2.1 .9l-2.2 .9l-2.1 1.1l-2.1 1.2l-2 1.3l-1.9 1.4l-2 1.6l-1.8 1.7l-1.8 1.8l-1.8 1.8l-1.6 1.9l-1.5 1.9l-1.4 2.1l-1.3 2l-1.2 2.1l-1.1 2.2L119 610l-.8 2.2l-.8 2.3l-.6 2.3l-.5 2.4l-.4 2.4l-.3 2.5l-.1 2.6l-.1 2.5l.1 2.3l.1 2.2l.2 2.1l.3 2.2l.2 1l.2 1l.4 2.1l.3 1l.3 1l.6 2l.7 2l.4 .9l.4 1l.9 1.9l1 1.8l1.1 1.8l1.1 1.8L125 659l.6 .9l.7 .8l.8 1l.9 1l.8 .9l1 1l1.6 1.6l1.7 1.5l1.7 1.4l1.7 1.4l1.8 1.2l1.8 1.1l1.8 1.1l2 .9l1.9 .9l2 .8l2 .6l2 .6l2.1 .5l2.1 .4l2.2 .3l2.2 .3l2 .1h3.8l1.2 -.1h1.2l1.3 -.1l1.1 -.2l1.2 -.1l2.4 -.5l.6 -.1l.2 -.1h.3l1.2 -.3l1.1 -.3l1.2 -.3l2.2 -.8l1 -.4l1.1 -.4l1.1 -.5l1.1 -.5l.5 -.3l.5 -.3l1 -.5l1 -.6l1.1 -.6l.2 -.2l.2 -.2l.5 -.3l1 -.6l1 -.7l1 -.7l.9 -.8l1 -.8l.9 -.8l.4 -.4l.5 -.4l.9 -.9l.9 -.9l.9 -1l.9 -.9l1.7 -2l.3 -.3l.6 -.9l.7 -.8l.6 -.9l.6 -.8l.5 -.9l.6 -.9l1 -1.8l1 -1.8l.2 -.5l.2 -.5l.5 -.9l.7 -1.9l.4 -.9l.1 -.3l.1 -.2l.2 -.5l.3 -1l.3 -1l.5 -1.9l.5 -2.1l.3 -2l.2 -1.1l.1 -1.1l.1 -1l.1 -.6v-.5l.1 -1.1l.1 -1.1v-3.5l-.1 -1.2l-.1 -2.6l-.3 -2.5l-.2 -1.2l-.2 -1.2l-.2 -1.2l-.3 -1.2l-.6 -2.3l-.8 -2.3l-.4 -1.1L210 610l-.5 -1.1l-.5 -1.1l-1 -2.2l-1.2 -2.1l-.6 -1l-.7 -1l-.7 -1.1l-.7 -1l-1.5 -1.9l-.8 -1l-.9 -.9l-1.7 -1.8" class="gi_63"/>
<path d="M165.1 632.8l-.3 -.1h-.4l-.2 -.1l-.6 -.3l-.2 -.2l-.2 -.2l-.3 -.3l-.1 -.2l-.2 -.3l-.1 -.3l-.1 -.3l-.1 -.2V629l.2 -.6l.3 -.5l.4 -.5l.4 -.4l.6 -.3l.6 -.1l.6 -.1l.6 .1h.3l.3 .1l.2 .1l.3 .2l.2 .2l.3 .2l.2 .3l.1 .2l.3 .5l.1 .3l.1 .3l.1 .3v.7l-.1 .3v.1l-.1 .1l-.1 .3l-.1 .3l-.2 .3l-.1 .1v.1l-.2 .3l-.3 .2h-.1v.1l-.1 .1l-.3 .1l-.2 .2l-.3 .1H166l-.3 .1h-.3Z" class="g2_63"/>
<path d="M213.6 629.8H115.7" class="gi_63"/>
<path d="M508.8 618.4h34.5" class="ga_63"/>
<path d="M56.7 576.6h.7v-.8h-.7v.8Z" class="g4_63"/>
<path d="M57.4 576.6H271.9v-.8H57.4v.8Z" class="g4_63"/>
<path d="M271.9 576.6h.7v-.8h-.7v.8Z" class="g4_63"/>
<path d="M272.6 576.6H359v-.8H272.6v.8Z" class="g4_63"/>
<path d="M359 576.6h.7v-.8H359v.8Z" class="g4_63"/>
<path d="M359.7 576.6h86.2v-.8H359.7v.8Z" class="g4_63"/>
<path d="M445.9 576.6h.7v-.8h-.7v.8Z" class="g4_63"/>
<path d="M446.6 576.6H641.5v-.8H446.6v.8Z" class="g4_63"/>
<path d="M641.5 576.6h.7v-.8h-.7v.8Z" class="g4_63"/>
<path d="M642.2 576.6h74.6v-.8H642.2v.8Z" class="g4_63"/>
<path d="M716.8 576.6h.8v-.8h-.8v.8Z" class="g4_63"/>
<path d="M717.6 576.6h74.6v-.8H717.6v.8Z" class="g4_63"/>
<path d="M792.2 576.6h.7v-.8h-.7v.8Z" class="g4_63"/>
<path d="M792.9 576.6h81v-.8h-81v.8Z" class="g4_63"/>
<path d="M873.9 576.6h.8v-.8h-.8v.8Z" class="g4_63"/>
<path d="M56.7 682h.7V576.6h-.7V682Z" class="g4_63"/>
<path d="M56.7 682.7h.7V682h-.7v.7Z" class="g4_63"/>
<path d="M56.7 682.7h.7V682h-.7v.7Z" class="g4_63"/>
<path d="M57.4 682.7H271.9V682H57.4v.7Z" class="g4_63"/>
<path d="M271.9 682h.7V576.6h-.7V682Z" class="g4_63"/>
<path d="M271.9 682.7h.7V682h-.7v.7Z" class="g4_63"/>
<path d="M272.6 682.7H359V682H272.6v.7Z" class="g4_63"/>
<path d="M359 682h.7V576.6H359V682Z" class="g4_63"/>
<path d="M359 682.7h.7V682H359v.7Z" class="g4_63"/>
<path d="M359.7 682.7h86.2V682H359.7v.7Z" class="g4_63"/>
<path d="M445.9 682h.7V576.6h-.7V682Z" class="g4_63"/>
<path d="M445.9 682.7h.7V682h-.7v.7Z" class="g4_63"/>
<path d="M446.6 682.7H641.5V682H446.6v.7Z" class="g4_63"/>
<path d="M641.5 682h.7V576.6h-.7V682Z" class="g4_63"/>
<path d="M641.5 682.7h.7V682h-.7v.7Z" class="g4_63"/>
<path d="M642.2 682.7h74.6V682H642.2v.7Z" class="g4_63"/>
<path d="M716.8 682h.8V576.6h-.8V682Z" class="g4_63"/>
<path d="M716.8 682.7h.8V682h-.8v.7Z" class="g4_63"/>
<path d="M717.6 682.7h74.6V682H717.6v.7Z" class="g4_63"/>
<path d="M792.2 682h.7V576.6h-.7V682Z" class="g4_63"/>
<path d="M792.2 682.7h.7V682h-.7v.7Z" class="g4_63"/>
<path d="M792.9 682.7h81V682h-81v.7Z" class="g4_63"/>
<path d="M873.9 682h.8V576.6h-.8V682Z" class="g4_63"/>
<path d="M873.9 682.7h.8V682h-.8v.7Z" class="g4_63"/>
<path d="M873.9 682.7h.8V682h-.8v.7Z" class="g4_63"/>
<path d="M113.7 714.5h34.5" class="ga_63"/>
<path d="M173.3 714.7h24.4m42.9 0h29" class="gj_63"/>
<path d="M294.1 714.7h29.8" class="ga_63"/>
<path d="M113.7 745.1h27.4" class="gk_63"/>
<path d="M165.6 745.1h28.3" class="gj_63"/>
<path d="M219.1 745.1h29.4m25.6 0h30.3M444.1 865.6h34.5M363.4 903.8h34.5" class="ga_63"/>
<path d="M351.1 916.9l1.9 -1.6m0 0l4.4 11.7m0 0l4.9 -30.8m0 0h118" class="gl_63"/>
<path d="M357 927l-4.5 -10.8l-1.2 1l-.4 -.5l2.6 -2.2l3.9 9.8l4.5 -28.5H480.3v.9H362.7L357.9 927Z" class="g2_63"/>
<path d="M363.4 943.4h34.5" class="ga_63"/>
<path d="M351.1 956.5L353 955m0 0l4.4 11.7m0 0l4.9 -30.9m0 0H480.5" class="gl_63"/>
<path d="M357 966.7l-4.5 -10.9l-1.2 1l-.4 -.5l2.6 -2.2l3.9 9.9l4.5 -28.7H480.5v1H362.7l-4.8 30.4Z" class="g2_63"/>
<path d="M387.6 975.7h23.3" class="gj_63"/>
<path d="M436.6 975.6h24" class="ga_63"/>
<path d="M138.1 1003.6h23.2" class="gm_63"/>
<path d="M187 1003.4h22.3" class="gn_63"/>
<path d="M234.3 1003.6h22.3" class="go_63"/>
<path d="M63.6 65.1L63.1 65l-.6 -.1L62 64.6l-.4 -.3l-.4 -.5l-.1 -.3L61 63.3L60.9 63l-.1 -.2V48.7l.2 -.6l.2 -.5l.4 -.4l.4 -.4l.5 -.2l.6 -.2H97.2l.3 .2l.5 .2l.4 .4l.4 .4l.3 .5l.1 .6l.1 .5V62.5h-.1v.3l-.1 .2v.3l-.2 .2l-.1 .3l-.4 .5l-.4 .3l-.5 .3l-.3 .1h-.5v.1h-.3Z" class="gp_63"/>
<path d="M59.9 707.8H59l-.8 -.3l-.7 -.4l-.7 -.5l-.3 -.4l-.2 -.3l-.4 -.7l-.3 -.8V690l.3 -.8l.4 -.7l.5 -.7l.7 -.6l.7 -.3l.8 -.3H73.3l.3 .1l.4 .2l.7 .3l.4 .3l.3 .3l.6 .7l.4 .7l.2 .8l.1 .9v13l-.1 .1v.4l-.2 .8l-.2 .3l-.1 .2l-.1 .2l-.3 .3l-.2 .2v.1h-.1v.1l-.3 .2l-.4 .3l-.2 .1l-.1 .1l-.4 .2l-.4 .1h-.1l-.1 .1l-.1 .1h-.9Z" class="gp_63"/>
<path d="M766.3 749.3l.1 -2.7l.1 -1.4v-3.1l-.1 -1.6l-.3 -3.1l-.2 -1.6l-.2 -1.6l-.6 -3l-.9 -3l-.5 -1.4l-.5 -1.4L762 722.5l-1.3 -2.7L783 750.5Z" class="gq_63"/>
<path d="M755.3 775.8l.6 -.8l.2 -.4l.4 -.3l1 -1.5l1 -1.5l1 -1.5l.4 -.8l.5 -.8l.4 -.8l.5 -.8l.3 -.8l.5 -.8l.7 -1.6l.6 -1.7L764 760l.5 -1.8l.5 -1.7l.2 -.9l.2 -.9l.3 -1.7l.3 -1.9l.3 -1.8l16.7 1.2l-27.3 25.6Z" class="gq_63"/>
<path d="M757.8 748.7l2.9 -28.9l1.3 2.7l1.2 2.9l.5 1.4l.5 1.4l.9 3l.6 3l.2 1.6l.2 1.6l.3 3.1l.1 1.6v3.1l-.1 1.4l-.1 2.7Z" class="gq_63"/>
<path d="M780.4 787.8l-1.9 -.1l-1.9 -.2l-1.8 -.3l-1.8 -.4l-1.7 -.5l-1.7 -.6l-1.7 -.6l-1.6 -.7l-1.6 -.8l-1.6 -.9l-1.5 -1l-1.5 -1.1l-1.4 -1.1l-1.4 -1.3l-1.4 -1.3l-.9 -.8l.3 -.3l.4 .3L783 750.5L760.7 719.8l1.1 -.9l1.3 -.8l2.4 -1.3l1.3 -.7l1.3 -.5l2.7 -.9l1.3 -.4l1.4 -.4l1.4 -.3l1.5 -.2l1.4 -.2l1.5 -.1l3 -.1h1.9l1.9 .1l1.8 .2l1.8 .4l1.7 .3l1.8 .5l.8 .2l.9 .4l1.7 .6l1.6 .7l1.6 .8l1.5 .9l1.6 1l1.4 1.1l1.5 1.1l.7 .6l.7 .7l1.4 1.3l1.3 1.4l1.3 1.4l1.1 1.5l1.1 1.5l.9 1.5l.9 1.5l.8 1.7l.8 1.6l.6 1.7l.6 1.7l.4 1.7l.5 1.9l.2 1.8l.3 1.9l.1 1.8l.1 2l-.1 1.9l-.1 1.9l-.3 1.8l-.2 1.8l-.5 1.8l-.4 1.7l-.3 .9l-.3 .8l-.3 .9l-.3 .8l-.8 1.6l-.8 1.7l-.9 1.5l-.9 1.5l-1.1 1.5l-1.1 1.5l-.7 .7l-.6 .7l-.6 .7l-.7 .7l-.7 .7l-.7 .6l-.7 .7l-.7 .6l-1.5 1.1l-1.4 1.1l-1.6 1l-1.5 .9l-1.6 .8l-1.6 .7l-.9 .3l-.8 .3l-.9 .3l-.8 .3l-1.8 .5l-1.7 .4l-1.8 .3l-1.8 .2l-1.9 .1l-1.9 .1Z" class="gq_63"/>
<path d="M713.2 794.6l-2.5 -.2l-2.5 -.3l-2.5 -.4l-2.4 -.5l-2.4 -.6l-2.3 -.8l-2.2 -.8l-2.3 -1.1l-2.1 -1l-2.2 -1.3l-2 -1.3l-2.1 -1.5l-1.9 -1.5l-1.9 -1.7L680 779.8l-1.8 -1.9l-.9 -1l-.8 -.9l-1.6 -2l-1.4 -2.1l-1.4 -2.1l-.6 -1l-.5 -1.1l-1.2 -2.2l-.9 -2.2L668 761l-.7 -2.3l-.7 -2.4l-.3 -1.2l-.2 -1.2l-.2 -1.2l-.2 -1.3l-.2 -1.2l-.1 -1.2l-.1 -2.6l-.1 -2.6l.1 -2.6l.1 -2.6l.3 -2.5l.4 -2.4l.5 -2.5l.7 -2.4l.7 -2.3l.9 -2.3l.9 -2.2l1.2 -2.2l1.1 -2.1l1.4 -2.1l1.4 -2l1.6 -2l1.7 -1.9l1.8 -1.9l1.9 -1.8l1.9 -1.7l1.9 -1.6l2.1 -1.4l2 -1.4l2.2 -1.2l2.1 -1.1l2.3 -.9l2.2 -.9l2.3 -.8l2.4 -.6l2.4 -.5l2.5 -.5l2.5 -.2l2.5 -.2h5.2l2.6 .2l1.2 .1l1.3 .1l1.2 .2l1.2 .3l1.2 .2l1.2 .3l2.4 .6l2.3 .8l2.3 .9l2.2 .9l2.1 1.1l2.1 1.2l2.1 1.4l2 1.4l2 1.6l1 .8l.9 .9l1.9 1.8l1.4 1.4l1.3 1.4l1.2 1.4l1.2 1.6l1 1.5l1.1 1.5l1 1.6l.9 1.6l-.2 .1l-42.9 26l36 28.5l.7 .9l.7 .8l-.8 .9l-.4 .5l-.4 .4l-.9 1l-.2 .2l-.2 .2l-.5 .5l-.9 .9l-1 .9l-.9 .8l-1 .9l-1 .7l-1 .8l-2 1.5l-2.1 1.3l-2.1 1.3l-2.1 1l-1.1 .5l-.6 .3l-.5 .3l-2.3 .8l-2.3 .8l-2.4 .6l-1.2 .3l-1.2 .2l-1.2 .2l-1.2 .2l-1.3 .2h-.6l-.3 .1H721l-1.3 .1l-1.3 .1l-2.5 .1Z" class="gq_63"/>
<path d="M745.1 747.8l.1 -1.7l.2 -1.7l.3 -1.7l.3 -1.6l.4 -1.6l.6 -1.6l.5 -1.5l.7 -1.5l.6 -1.5l.8 -1.5l.9 -1.4l.9 -1.4l1.1 -1.3l1 -1.3l1.2 -1.3l1.2 -1.3l2.3 -2.1l1.1 -1l1.2 -.9l.2 -.1l-2.9 28.9Z" class="gq_63"/>
<path d="M717.6 745.9l42.9 -26l-1.2 .9l-1.1 1l-2.3 2.1l-1.2 1.3l-1.2 1.3l-1 1.3l-1.1 1.3l-.9 1.4l-.9 1.4l-.8 1.5l-.6 1.5l-.7 1.5l-.5 1.5l-.6 1.6l-.4 1.6l-.3 1.6l-.3 1.7l-.2 1.7l-.1 1.7Z" class="gq_63"/>
<path d="M717.6 745.9l27.5 1.9l-.1 1.3v3.1l.1 1.7l.1 1.6l.3 1.6l.2 1.6l.4 1.6l.5 1.5l.5 1.5l.5 1.5l.7 1.4l.7 1.4l.8 1.5l.8 1.3l.9 1.4l1 1.3l1.1 1.3Z" class="gq_63"/>
<path d="M753.6 774.4l-1.1 -1.3l-1 -1.3l-.9 -1.4l-.8 -1.3l-.8 -1.5l-.7 -1.4l-.7 -1.4l-.5 -1.5l-.5 -1.5l-.5 -1.5l-.4 -1.6l-.2 -1.6l-.3 -1.6l-.1 -1.6l-.1 -1.7v-3.1l.1 -1.3l12.7 .9l-2.7 26.9Z" class="gq_63"/>
<path d="M755.1 775.6l2.7 -26.9l8.5 .6l-.3 1.8l-.3 1.9l-.3 1.7l-.2 .9l-.2 .9l-.5 1.7L764 760l-.6 1.7l-.6 1.7l-.7 1.6l-.5 .8l-.3 .8l-.5 .8l-.4 .8l-.5 .8l-.4 .8l-1 1.5l-1 1.5l-1 1.5l-.4 .3l-.2 .4l-.6 .8Z" class="gq_63"/>
<path d="M755.1 775.6l.2 .2l-.3 .3Z" class="gq_63"/>
<path d="M754.3 775.3l-.7 -.9l1.5 1.2l-.1 .5Z" class="gq_63"/>
<path d="M755 776.1l.3 -.3l.6 -.8l.2 -.4l.4 -.3l1 -1.5l1 -1.5l1 -1.5l.4 -.8l.5 -.8l.4 -.8l.5 -.8l.3 -.8l.5 -.8l.7 -1.6l.6 -1.7L764 760l.5 -1.8l.5 -1.7l.2 -.9l.2 -.9l.3 -1.7l.3 -1.9l.3 -1.8l.1 -2.7l.1 -1.4v-3.1l-.1 -1.6l-.3 -3.1l-.2 -1.6l-.2 -1.6l-.6 -3l-.9 -3l-.5 -1.4l-.5 -1.4L762 722.5l-1.3 -2.7M755 776.1l.9 .8l1.4 1.3l1.4 1.3l1.4 1.1l1.5 1.1l1.5 1l1.6 .9l1.6 .8l1.6 .7l1.7 .6l1.7 .6l1.7 .5l1.8 .4l1.8 .3l1.9 .2l1.9 .1l1.9 .1l1.9 -.1l1.9 -.1l1.8 -.2l1.8 -.3l1.7 -.4l1.8 -.5l.8 -.3l.9 -.3l.8 -.3l.9 -.3l1.6 -.7l1.6 -.8l1.5 -.9l1.6 -1l1.4 -1.1l1.5 -1.1l.7 -.6l.7 -.7l.7 -.6l.7 -.7l.7 -.7l.6 -.7l.6 -.7l.7 -.7l1.1 -1.5l1.1 -1.5l.9 -1.5l.9 -1.5l.8 -1.7l.8 -1.6l.3 -.8l.3 -.9l.3 -.9l.3 -.8l.4 -1.7l.5 -1.8l.2 -1.8l.3 -1.8l.1 -1.9l.1 -1.9l-.1 -2l-.1 -1.8l-.3 -1.9l-.2 -1.8l-.5 -1.9l-.4 -1.7l-.6 -1.7l-.6 -1.7l-.8 -1.6l-.8 -1.7l-.9 -1.5l-.9 -1.5l-1.1 -1.5l-1.1 -1.5l-1.3 -1.4l-1.3 -1.4l-1.4 -1.3l-.7 -.7l-.7 -.6l-1.5 -1.1l-1.4 -1.1l-1.6 -1l-1.5 -.9l-1.6 -.8l-1.6 -.7l-1.7 -.6l-.9 -.4l-.8 -.2l-1.8 -.5l-1.7 -.3l-1.8 -.4l-1.8 -.2l-1.9 -.1h-1.9l-3 .1l-1.5 .1l-1.4 .2l-1.5 .2l-1.4 .3l-1.4 .3l-1.3 .5l-2.7 .9l-1.3 .5l-1.3 .7l-2.4 1.3l-1.3 .8l-1.1 .9m-.2 .1l-1.2 .9l-1.1 1l-2.3 2.1l-1.2 1.3l-1.2 1.3l-1 1.3l-1.1 1.3l-.9 1.4l-.9 1.4l-.8 1.5l-.6 1.5l-.7 1.5l-.5 1.5l-.6 1.6l-.4 1.6l-.3 1.6l-.3 1.7l-.2 1.7l-.1 1.7l-.1 1.3v3.1l.1 1.7l.1 1.6l.3 1.6l.2 1.6l.4 1.6l.5 1.5l.5 1.5l.5 1.5l.7 1.4l.7 1.4l.8 1.5l.8 1.3l.9 1.4l1 1.3l1.1 1.3l.7 .9l.7 .8m5.7 -56.3l-.9 -1.6l-1 -1.6l-1.1 -1.5l-1 -1.5L755.5 712l-1.2 -1.4L753 709.2l-1.4 -1.4L749.7 706l-.9 -.9l-1 -.8l-2 -1.6l-2 -1.4l-2.1 -1.4l-2.1 -1.2l-2.1 -1.1l-2.2 -.9l-2.3 -.9l-2.3 -.8l-2.4 -.6l-1.2 -.3l-1.2 -.2l-1.2 -.3l-1.2 -.2l-1.3 -.1l-1.2 -.1l-2.6 -.2h-5.2l-2.5 .2l-2.5 .2l-2.5 .5l-2.4 .5l-2.4 .6l-2.3 .8l-2.2 .9l-2.3 .9l-2.1 1.1l-2.2 1.2l-2 1.4l-2.1 1.4l-1.9 1.6l-1.9 1.7l-1.9 1.8l-1.8 1.9l-1.7 1.9l-1.6 2l-1.4 2l-1.4 2.1l-1.1 2.1l-1.2 2.2l-.9 2.2l-.9 2.3l-.7 2.3l-.7 2.4l-.5 2.5l-.4 2.4l-.3 2.5l-.1 2.6l-.1 2.6l.1 2.6l.1 2.6l.1 1.2l.2 1.2l.2 1.3l.2 1.2l.2 1.2l.3 1.2l.7 2.4l.7 2.3l.9 2.3l.9 2.2l1.2 2.2l.5 1.1l.6 1l1.4 2.1l1.4 2.1l1.6 2l.8 .9l.9 1l1.8 1.9l1.9 1.8l1.9 1.7l1.9 1.5l2.1 1.5l2 1.3l2.2 1.3l2.1 1l2.3 1.1l2.2 .8l2.3 .8l2.4 .6l2.4 .5l2.5 .4l2.5 .3l2.5 .2l2.7 .1l2.5 -.1l1.3 -.1l1.3 -.1h.3l.3 -.1h.6l1.3 -.2l1.2 -.2l1.2 -.2l1.2 -.2l1.2 -.3l2.4 -.6l2.3 -.8l2.3 -.8l.5 -.3l.6 -.3l1.1 -.5l2.1 -1l2.1 -1.3l2.1 -1.3l2 -1.5l1 -.8l1 -.7l1 -.9l.9 -.8l1 -.9l.9 -.9l.5 -.5l.2 -.2l.2 -.2l.9 -1l.4 -.4l.4 -.5l.8 -.9" class="gr_63"/>
<path d="M760.7 719.8l-.2 .1l-42.9 26l36 28.5l1.5 1.2l.2 .2l.4 .3" class="gs_63"/>
<path d="M783 750.5l-16.7 -1.2l-8.5 -.6l-12.7 -.9l-27.5 -1.9" class="gt_63"/>
<path d="M755 776.1l.1 -.5l2.7 -26.9l2.9 -28.9" class="gu_63"/>
<path d="M755.7 776.1L783 750.5L760.7 719.8" class="gv_63"/>
<path d="M760.6 722.3l-.4 -.1l-.4 -.2l-.4 -.3l-.3 -.4l-.1 -.2l-.1 -.2l-.1 -.4v-1l.1 -.4l.2 -.4l.3 -.3l.4 -.3l.4 -.2l.4 -.2h.9l.5 .2h.1l.2 .2l.4 .3l.3 .3l.2 .4l.1 .4l.1 .6v.2h-.1v.2l-.1 .4l-.1 .2l-.1 .2l-.1 .2l-.2 .2l-.2 .1l-.2 .2l-.2 .1l-.1 .1l-.5 .1h-.2v.1h-.2Z" class="g2_63"/>
<path d="M755.1 778.4l-.5 -.1l-.4 -.3l-.3 -.3l-.3 -.3l-.2 -.3V777l-.1 -.5l-.1 -.4l.1 -.5l.1 -.5l.2 -.4l.3 -.3l.3 -.3l.4 -.2l.5 -.1h.9l.4 .1l.2 .1l.2 .1l.4 .3l.3 .3l.2 .4l.1 .5l.1 .5l-.1 .2v.2l-.1 .5l-.1 .1l-.1 .3l-.2 .1l-.1 .2l-.2 .2l-.2 .1l-.2 .1l-.2 .2l-.4 .1h-.5Z" class="g2_63"/>
<path d="M718 748.2l-.4 -.1l-.4 -.2l-.4 -.3l-.3 -.4l-.1 -.2l-.1 -.2l-.1 -.4v-1l.1 -.4l.2 -.4l.3 -.3l.4 -.3l.4 -.2l.4 -.1l.5 -.1l.5 .1l.4 .1h.2l.2 .2l.3 .3l.3 .3l.3 .4l.1 .4v1l-.1 .4l-.2 .2l-.1 .2l-.1 .2l-.2 .2l-.2 .1l-.1 .2l-.2 .1l-.2 .1l-.4 .1h-.3v.1h-.2Z" class="g2_63"/>
<path d="M781.9 752.8l-.4 -.1l-.4 -.2l-.4 -.3l-.3 -.4l-.1 -.2l-.1 -.2l-.1 -.4v-1l.1 -.4l.2 -.4l.3 -.3l.4 -.3l.4 -.2l.4 -.1l.5 -.1l.4 .1l.5 .1h.1l.2 .2l.4 .3l.3 .3l.2 .4l.1 .4l.1 .6v.2h-.1v.2l-.1 .4l-.1 .2l-.1 .2l-.1 .2l-.2 .2l-.2 .2l-.2 .1l-.2 .1l-.1 .1l-.5 .1h-.2v.1h-.2Z" class="g2_63"/>
<path d="M64.4 858.4l-.6 -.1l-.5 -.2l-.5 -.3l-.4 -.3L62 857l-.2 -.2v-.3l-.2 -.2V841.9l.2 -.6l.2 -.5l.4 -.4l.4 -.4l.5 -.2l.5 -.2H97.7l.3 .1l.2 .1l.5 .2l.5 .4l.3 .4l.3 .5l.2 .6l.1 .5v13.1l-.1 .2v.3l-.1 .3l-.1 .2l-.1 .3l-.2 .2l-.3 .5l-.5 .3l-.5 .3l-.2 .1l-.3 .1h-.3l-.2 .1Z" class="gp_63"/>
<path d="M67.1 997.8l-.9 -.1l-.8 -.2l-.8 -.4l-.6 -.5l-.3 -.4l-.3 -.3l-.3 -.7l-.3 -.9V980l.3 -.8l.3 -.8l.6 -.6l.6 -.6l.8 -.4l.8 -.2H80.5l.3 .1l.4 .1l.7 .4l.3 .3l.4 .3l.6 .6l.4 .8l.2 .8l.1 .9v13l-.1 .1v.3l-.2 .9l-.2 .3l-.2 .2v.2l-.3 .3l-.2 .1l-.1 .1v.2l-.4 .2l-.3 .3l-.2 .1l-.2 .1l-.3 .2l-.4 .1h-.1l-.1 .1h-.5l-.1 .1h-.4Z" class="gp_63"/>
</svg>