<?xml version="1.0" encoding="UTF-8" standalone="no"?>
<!DOCTYPE svg PUBLIC "-//W3C//DTD SVG 1.1//EN"
"http://www.w3.org/Graphics/SVG/1.1/DTD/svg11.dtd">
<svg viewBox="0 0 909 1286" version="1.1" xmlns="http://www.w3.org/2000/svg" xmlns:xlink="http://www.w3.org/1999/xlink">
<defs>
<clipPath id="c0_46"><path d="M-.2 1286.6v-57.8h910v57.8Z"/></clipPath>
<clipPath id="c1_46"><path d="M-.2 151.6V-.2h910V151.6Z"/></clipPath>
<clipPath id="c2_46"><path d="M22.5 202.8V153H909.8v49.8Z"/></clipPath>
<style type="text/css"><![CDATA[
.g0_46{
fill: #CFC;
}
.g1_46{
fill: #70AD47;
}
.g2_46{
fill: #0C0;
}
.g3_46{
fill: none;
stroke: #000;
stroke-width: 1.237;
stroke-linecap: square;
stroke-miterlimit: 10;
}
.g4_46{
fill: none;
stroke: #090;
stroke-width: 1.237;
stroke-linecap: square;
stroke-miterlimit: 10;
}
.g5_46{
fill: none;
stroke: #000;
stroke-width: 1.243;
stroke-linecap: square;
stroke-miterlimit: 10;
}
.g6_46{
fill: none;
stroke: #090;
stroke-width: 1.243;
stroke-linecap: square;
stroke-miterlimit: 10;
}
.g7_46{
fill: none;
stroke: #000;
stroke-width: 1.247;
stroke-linecap: square;
stroke-miterlimit: 10;
}
.g8_46{
fill: none;
stroke: #060;
stroke-width: 1.247;
stroke-linecap: square;
stroke-miterlimit: 10;
}
.g9_46{
fill: #090;
}
.ga_46{
fill: none;
stroke: #000;
stroke-width: 1.242;
stroke-linecap: square;
stroke-miterlimit: 10;
}
.gb_46{
fill: none;
stroke: #060;
stroke-width: 1.242;
stroke-linecap: square;
stroke-miterlimit: 10;
}
.gc_46{
fill: #96F;
}
.gd_46{
fill: none;
stroke: #000;
stroke-width: 1.228;
stroke-linecap: square;
stroke-miterlimit: 10;
}
.ge_46{
fill: none;
stroke: #060;
stroke-width: 1.228;
stroke-linecap: square;
stroke-miterlimit: 10;
}
.gf_46{
fill: none;
stroke: #93F;
stroke-width: 1.228;
stroke-linecap: square;
stroke-miterlimit: 10;
}
.gg_46{
fill: none;
stroke: #000;
stroke-width: 1.238;
stroke-linecap: square;
stroke-miterlimit: 10;
}
.gh_46{
fill: none;
stroke: #060;
stroke-width: 1.238;
stroke-linecap: square;
stroke-miterlimit: 10;
}
.gi_46{
fill: none;
stroke: #90F;
stroke-width: 1.238;
stroke-linecap: square;
stroke-miterlimit: 10;
}
.gj_46{
fill: none;
stroke: #030;
stroke-width: 1.242;
stroke-linecap: square;
stroke-miterlimit: 10;
}
.gk_46{
fill: none;
stroke: #90F;
stroke-width: 1.242;
stroke-linecap: square;
stroke-miterlimit: 10;
}
.gl_46{
fill: #FC6;
}
.gm_46{
fill: none;
stroke: #000;
stroke-width: 1.064;
stroke-linecap: square;
stroke-miterlimit: 10;
}
.gn_46{
fill: #CFF;
}
.go_46{
fill: none;
stroke: #000;
stroke-width: 1.249;
stroke-linecap: square;
stroke-miterlimit: 10;
}
.gp_46{
fill: #FCF;
}
.gq_46{
fill: none;
stroke: #000;
stroke-width: 1.241;
stroke-linecap: square;
stroke-miterlimit: 10;
}
.gr_46{
fill: none;
stroke: #F00;
stroke-width: 1.241;
stroke-linecap: square;
stroke-miterlimit: 10;
}
.gs_46{
fill: none;
stroke: #000;
stroke-width: 1.235;
stroke-linecap: square;
stroke-miterlimit: 10;
}
.gt_46{
fill: none;
stroke: #F00;
stroke-width: 1.235;
stroke-linecap: square;
stroke-miterlimit: 10;
}
.gu_46{
fill: #9CF;
}
.gv_46{
fill: none;
stroke: #000;
stroke-width: 1.244;
stroke-linecap: square;
stroke-miterlimit: 10;
}
.gw_46{
fill: none;
stroke: #F00;
stroke-width: 1.244;
stroke-linecap: square;
stroke-miterlimit: 10;
}
.gx_46{
fill: #FFC;
}
.gy_46{
fill: none;
stroke: #F00;
stroke-width: 1.238;
stroke-linecap: square;
stroke-miterlimit: 10;
}
.gz_46{
fill: none;
stroke: #000;
stroke-width: 1.099;
stroke-linecap: square;
stroke-miterlimit: 10;
}
.g10_46{
fill: none;
stroke: #ED7D31;
stroke-width: 1.099;
stroke-linecap: square;
stroke-miterlimit: 10;
}
.g11_46{
fill: #F90;
}
]]></style>
</defs>
<image clip-path="url(#c0_46)" preserveAspectRatio="none" x="-2" y="1229" width="930" height="128" xlink:href="img/1.jpg"/>
<path fill-rule="evenodd" d="M79 264h50.3V240.2H79V264Z" class="g0_46"/>
<path d="M79 264h50.3V240.2H79V264Z" class="g0_46"/>
<path fill-rule="evenodd" d="M130 264H305.3V240.2H130V264Z" class="g0_46"/>
<path d="M130 264H305.3V240.2H130V264Z" class="g0_46"/>
<path fill-rule="evenodd" d="M306 264H481.3V240.2H306V264Z" class="g0_46"/>
<path d="M306 264H481.3V240.2H306V264Z" class="g0_46"/>
<path fill-rule="evenodd" d="M482.2 264H657.3V240.2H482.2V264Z" class="g0_46"/>
<path d="M482.2 264H657.3V240.2H482.2V264Z" class="g0_46"/>
<path fill-rule="evenodd" d="M658.2 264H833.4V240.2H658.2V264Z" class="g0_46"/>
<path d="M665.9 264H825.5V240.2H665.9V264Z" class="g0_46"/>
<path d="M78.3 240.2H79v-.8h-.7v.8Z" class="g1_46"/>
<path d="M78.3 240.2H79v-.8h-.7v.8Z" class="g1_46"/>
<path d="M79 240.2h50.3v-.8H79v.8Z" class="g1_46"/>
<path d="M129.2 240.2h.8v-.8h-.8v.8Z" class="g1_46"/>
<path d="M130 240.2H305.3v-.8H130v.8Z" class="g1_46"/>
<path d="M305.3 240.2h.7v-.8h-.7v.8Z" class="g1_46"/>
<path d="M306 240.2H481.3v-.8H306v.8Z" class="g1_46"/>
<path d="M481.3 240.2h.7v-.8h-.7v.8Z" class="g1_46"/>
<path d="M482 240.2H657.3v-.8H482v.8Z" class="g1_46"/>
<path d="M657.3 240.2h.7v-.8h-.7v.8Z" class="g1_46"/>
<path d="M658 240.2H833.4v-.8H658v.8Z" class="g1_46"/>
<path d="M833.4 240.2h.8v-.8h-.8v.8Z" class="g1_46"/>
<path d="M833.4 240.2h.8v-.8h-.8v.8Z" class="g1_46"/>
<path d="M78.3 264H79V240.2h-.7V264Z" class="g1_46"/>
<path d="M129.2 264h.8V240.2h-.8V264Z" class="g1_46"/>
<path d="M305.3 264h.7V240.2h-.7V264Z" class="g1_46"/>
<path d="M481.3 264h.7V240.2h-.7V264Z" class="g1_46"/>
<path d="M657.3 264h.7V240.2h-.7V264Z" class="g1_46"/>
<path d="M833.4 264h.8V240.2h-.8V264Z" class="g1_46"/>
<path fill-rule="evenodd" d="M79 327.8h50.3V264.9H79v62.9Z" class="g0_46"/>
<path d="M79 308.2h50.3V284.3H79v23.9Z" class="g0_46"/>
<path d="M190.1 312.9l13.7 -13.1l1 .6l1 .7l.9 .7l.8 .7l.6 .8l.6 .7l.4 .8l.3 .8l.3 .8l.1 .9v.9l-.1 .9l-.2 .9l-.3 .9l-.4 1l-.5 1Z" class="g2_46"/>
<path d="M257.9 312.9H190.1l13.7 -13.1l33.1 -31.6" class="g3_46"/>
<path d="M208.3 312.9l.5 -1l.4 -1l.3 -.9l.2 -.9l.1 -.9v-.9l-.1 -.9l-.3 -.8l-.3 -.8l-.4 -.8l-.6 -.7l-.6 -.8l-.8 -.7l-.9 -.7l-1 -.7l-1 -.6" class="g4_46"/>
<path d="M368 311.5h10.3v10.4H368V311.5Z" class="g2_46"/>
<path d="M367.7 269v53.3h51.1" class="g5_46"/>
<path d="M378.3 321.9V311.5H368" class="g6_46"/>
<path d="M557.4 310.8l-8.6 -11.7l1.1 -.1l1.2 -.2l1.1 -.1h4.2l1 .1l.9 .1l1 .2l.9 .1l1 .3l.8 .2l.9 .3l1.7 .7l1.6 .8l.7 .4l.8 .5l.7 .5l.7 .5l.7 .6l.7 .7l.6 .6l.6 .7l1.2 1.5l.5 .7l.6 .9l.5 .8l.5 .9Z" class="g2_46"/>
<path d="M611.5 310.8H557.4l-8.6 -11.7L527.2 269.5" class="g7_46"/>
<path d="M575 310.8l-.5 -.9l-.5 -.8l-.6 -.9l-.5 -.7L571.7 306l-.6 -.7l-.6 -.6l-.7 -.7l-.7 -.6l-.7 -.5l-.7 -.5l-.8 -.5l-.7 -.4l-1.6 -.8l-1.7 -.7l-.9 -.3l-.8 -.2l-1 -.3l-.9 -.1l-1 -.2l-.9 -.1l-1 -.1h-4.2l-1.1 .1l-1.2 .2l-1.1 .1" class="g8_46"/>
<path d="M732.6 299.2l1.4 -1.6l1.3 -1.4l1.4 -1.2l1.4 -.9l1.4 -.8l1.4 -.5l1.5 -.3l1.4 -.1l1.4 .1l1.5 .3l1.5 .5l1.4 .8l1.5 .9l1.5 1.2l1.5 1.4l1.6 1.6Z" class="g9_46"/>
<path d="M774.2 299.2H716.3" class="ga_46"/>
<path d="M755.7 299.2l-1.6 -1.6l-1.5 -1.4L751.1 295l-1.5 -.9l-1.4 -.8l-1.5 -.5l-1.5 -.3l-1.4 -.1l-1.4 .1l-1.5 .3l-1.4 .5l-1.4 .8l-1.4 .9l-1.4 1.2l-1.3 1.4l-1.4 1.6" class="gb_46"/>
<path d="M78.3 264.7H79V264h-.7v.7Z" class="g1_46"/>
<path d="M79 264.7h50.3V264H79v.7Z" class="g1_46"/>
<path d="M129.2 264.7h.8V264h-.8v.7Z" class="g1_46"/>
<path d="M130 264.7H305.3V264H130v.7Z" class="g1_46"/>
<path d="M305.3 264.7h.7V264h-.7v.7Z" class="g1_46"/>
<path d="M306 264.7H481.3V264H306v.7Z" class="g1_46"/>
<path d="M481.3 264.7h.7V264h-.7v.7Z" class="g1_46"/>
<path d="M482 264.7H657.3V264H482v.7Z" class="g1_46"/>
<path d="M657.3 264.7h.7V264h-.7v.7Z" class="g1_46"/>
<path d="M658 264.7H833.4V264H658v.7Z" class="g1_46"/>
<path d="M833.4 264.7h.8V264h-.8v.7Z" class="g1_46"/>
<path d="M78.3 327.8H79V264.7h-.7v63.1Z" class="g1_46"/>
<path d="M129.2 327.8h.8V264.7h-.8v63.1Z" class="g1_46"/>
<path d="M305.3 327.8h.7V264.7h-.7v63.1Z" class="g1_46"/>
<path d="M481.3 327.8h.7V264.7h-.7v63.1Z" class="g1_46"/>
<path d="M657.3 327.8h.7V264.7h-.7v63.1Z" class="g1_46"/>
<path d="M833.4 327.8h.8V264.7h-.8v63.1Z" class="g1_46"/>
<path fill-rule="evenodd" d="M79 352.4h50.3V328.5H79v23.9Z" class="g0_46"/>
<path d="M79 352.4h50.3V328.5H79v23.9Z" class="g0_46"/>
<path d="M78.3 328.5H79v-.7h-.7v.7Z" class="g1_46"/>
<path d="M79 328.5h50.3v-.7H79v.7Z" class="g1_46"/>
<path d="M129.2 328.5h.8v-.7h-.8v.7Z" class="g1_46"/>
<path d="M130 328.5H305.3v-.7H130v.7Z" class="g1_46"/>
<path d="M305.3 328.5h.7v-.7h-.7v.7Z" class="g1_46"/>
<path d="M306 328.5H481.3v-.7H306v.7Z" class="g1_46"/>
<path d="M481.3 328.5h.7v-.7h-.7v.7Z" class="g1_46"/>
<path d="M482 328.5H657.3v-.7H482v.7Z" class="g1_46"/>
<path d="M657.3 328.5h.7v-.7h-.7v.7Z" class="g1_46"/>
<path d="M658 328.5H833.4v-.7H658v.7Z" class="g1_46"/>
<path d="M833.4 328.5h.8v-.7h-.8v.7Z" class="g1_46"/>
<path d="M78.3 352.4H79V328.5h-.7v23.9Z" class="g1_46"/>
<path d="M78.3 353.1H79v-.7h-.7v.7Z" class="g1_46"/>
<path d="M78.3 353.1H79v-.7h-.7v.7Z" class="g1_46"/>
<path d="M79 353.1h50.3v-.7H79v.7Z" class="g1_46"/>
<path d="M129.2 352.4h.8V328.5h-.8v23.9Z" class="g1_46"/>
<path d="M129.2 353.1h.8v-.7h-.8v.7Z" class="g1_46"/>
<path d="M130 353.1H305.3v-.7H130v.7Z" class="g1_46"/>
<path d="M305.3 352.4h.7V328.5h-.7v23.9Z" class="g1_46"/>
<path d="M305.3 353.1h.7v-.7h-.7v.7Z" class="g1_46"/>
<path d="M306 353.1H481.3v-.7H306v.7Z" class="g1_46"/>
<path d="M481.3 352.4h.7V328.5h-.7v23.9Z" class="g1_46"/>
<path d="M481.3 353.1h.7v-.7h-.7v.7Z" class="g1_46"/>
<path d="M482 353.1H657.3v-.7H482v.7Z" class="g1_46"/>
<path d="M657.3 352.4h.7V328.5h-.7v23.9Z" class="g1_46"/>
<path d="M657.3 353.1h.7v-.7h-.7v.7Z" class="g1_46"/>
<path d="M658 353.1H833.4v-.7H658v.7Z" class="g1_46"/>
<path d="M833.4 352.4h.8V328.5h-.8v23.9Z" class="g1_46"/>
<path d="M833.4 353.1h.8v-.7h-.8v.7Z" class="g1_46"/>
<path d="M833.4 353.1h.8v-.7h-.8v.7Z" class="g1_46"/>
<path fill-rule="evenodd" d="M79 432.9h50.3V408.8H79v24.1Z" class="g0_46"/>
<path d="M79 432.9h50.3V408.8H79v24.1Z" class="g0_46"/>
<path fill-rule="evenodd" d="M130 432.9H363.9V408.8H130v24.1Z" class="g0_46"/>
<path d="M130 432.9H363.9V408.8H130v24.1Z" class="g0_46"/>
<path fill-rule="evenodd" d="M364.6 432.9h234V408.8h-234v24.1Z" class="g0_46"/>
<path d="M364.6 432.9h234V408.8h-234v24.1Z" class="g0_46"/>
<path fill-rule="evenodd" d="M599.5 432.9H833.4V408.8H599.5v24.1Z" class="g0_46"/>
<path d="M599.5 432.9H833.4V408.8H599.5v24.1Z" class="g0_46"/>
<path d="M78.3 408.8H79v-.7h-.7v.7Z" class="g1_46"/>
<path d="M78.3 408.8H79v-.7h-.7v.7Z" class="g1_46"/>
<path d="M79 408.8h50.3v-.7H79v.7Z" class="g1_46"/>
<path d="M129.2 408.8h.8v-.7h-.8v.7Z" class="g1_46"/>
<path d="M130 408.8H363.9v-.7H130v.7Z" class="g1_46"/>
<path d="M363.9 408.8h.7v-.7h-.7v.7Z" class="g1_46"/>
<path d="M364.6 408.8h234v-.7h-234v.7Z" class="g1_46"/>
<path d="M598.6 408.8h.7v-.7h-.7v.7Z" class="g1_46"/>
<path d="M599.3 408.8H833.4v-.7H599.3v.7Z" class="g1_46"/>
<path d="M833.4 408.8h.8v-.7h-.8v.7Z" class="g1_46"/>
<path d="M833.4 408.8h.8v-.7h-.8v.7Z" class="g1_46"/>
<path d="M78.3 432.9H79V408.8h-.7v24.1Z" class="g1_46"/>
<path d="M129.2 432.9h.8V408.8h-.8v24.1Z" class="g1_46"/>
<path d="M363.9 432.9h.7V408.8h-.7v24.1Z" class="g1_46"/>
<path d="M598.6 432.9h.7V408.8h-.7v24.1Z" class="g1_46"/>
<path d="M833.4 432.9h.8V408.8h-.8v24.1Z" class="g1_46"/>
<path fill-rule="evenodd" d="M79 506.6h50.3v-73H79v73Z" class="g0_46"/>
<path d="M79 482h50.3V458.1H79V482Z" class="g0_46"/>
<path d="M223.7 500.4v-.5l16.6 -10.6l.8 .4l.7 .5l.7 .5l.6 .6l.4 .6l.5 .6l.3 .7l.3 .7l.2 .7l.1 .7v1.6l-.2 .8l-.1 .9l-.3 .9l-.3 .9Z" class="gc_46"/>
<path d="M223.7 481.1l1.5 -.1l1.3 -.1l1.4 .1h.6l.7 .1l1.2 .2l1.2 .3l1.1 .3l1.1 .5l1 .5l1.1 .6l.9 .7l1 .8l.8 .8l.8 .9l.8 1l.7 1.1l-.6 .5l-16.6 10.6Z" class="g9_46"/>
<path d="M223.7 436.9v63m49.9 -32.2l-32.7 21.1l-.6 .5l-16.6 10.6m0 0v.5h55.7" class="gd_46"/>
<path d="M240.9 488.8l-.7 -1.1l-.8 -1l-.8 -.9l-.8 -.8l-1 -.8l-.9 -.7l-1.1 -.6l-1 -.5l-1.1 -.5l-1.1 -.3l-1.2 -.3l-1.2 -.2l-.7 -.1h-.6l-1.4 -.1l-1.3 .1l-1.5 .1" class="ge_46"/>
<path d="M244 500.4l.3 -.9l.3 -.9l.1 -.9l.2 -.8v-1.6l-.1 -.7l-.2 -.7l-.3 -.7l-.3 -.7l-.5 -.6l-.4 -.6l-.6 -.6l-.7 -.5l-.7 -.5l-.8 -.4" class="gf_46"/>
<path d="M462.3 490.6l.7 -1.7l.8 -1.7l.9 -1.5l1 -1.3l1.1 -1.3L468 482l.7 -.6l.6 -.4l1.4 -.9l1.5 -.8l.7 -.3l.8 -.3l1.6 -.6l1.8 -.3l1.8 -.3l.9 -.1l1 -.1h2l2.1 .1l-8.4 13.2Z" class="g9_46"/>
<path d="M476.5 490.6l8.4 -13.2l1.9 -3.1l1.2 .4l1.2 .4l1 .6l.5 .3l.5 .3l.8 .7l.9 .8l.6 1l.7 .9l.5 1.1l.5 1.1l.2 .6l.2 .6l.3 1.4l.1 1.4l.2 1.5v3.2Z" class="gc_46"/>
<path d="M476.5 490.6H438.8m37.7 0l8.4 -13.2l1.9 -3.1l16.3 -25.5m20 41.8H476.5" class="gg_46"/>
<path d="M484.9 477.4l-2.1 -.1h-2l-1 .1l-.9 .1l-1.8 .3l-1.8 .3l-1.6 .6l-.8 .3l-.7 .3l-1.5 .8l-1.4 .9l-.6 .4l-.7 .6l-1.2 1.1l-1.1 1.3l-1 1.3l-.9 1.5l-.8 1.7l-.7 1.7" class="gh_46"/>
<path d="M496.2 490.6v-3.2l-.2 -1.5l-.1 -1.4l-.3 -1.4l-.2 -.6l-.2 -.6l-.5 -1.1l-.5 -1.1l-.7 -.9l-.6 -1L492 477l-.8 -.7l-.5 -.3l-.5 -.3l-1 -.6l-1.2 -.4l-1.2 -.4" class="gi_46"/>
<path d="M702 478.3l-.6 -1.1l-.5 -1.1l-.4 -1.1l-.4 -1.1l-.2 -1.1l-.2 -1l-.1 -1.1v-2.3l.2 -1.1l.2 -1l.4 -1.1l.3 -1.1l.5 -1.1l.6 -1.1l2.2 1.2l.4 .2l11.6 6.1l-10.9 8.3l-2.4 1.8Z" class="gc_46"/>
<path d="M715.2 481.8h-.7l-.8 -.1l-1.4 -.3l-.7 -.1l-.7 -.3l-.7 -.2l-.8 -.4l-.7 -.3l-.7 -.4l-1.5 -1l-.7 -.5l-.7 -.5L716 469.4l11.4 5.9l-.7 .7l-.6 .7l-.4 .3l-.2 .1l-.1 .2l-.7 .6l-.7 .5l-.6 .5l-1.4 1l-.7 .4l-.3 .1l-.2 .1l-.1 .1l-1.4 .6l-.7 .2h-.4l-.1 .1l-.2 .1l-.7 .1l-.6 .1h-.7Z" class="g9_46"/>
<path d="M704.4 463.3l1.2 -1.2l1.2 -.9l1.2 -.9l1.3 -.7l1.4 -.6l1.3 -.5l1.4 -.4l1.5 -.1l1.4 -.2h1.6l1.5 .2l1.6 .3l1.6 .3l1.6 .5l1.8 .7l1.7 .8L716 469.4Z" class="g9_46"/>
<path d="M727.4 475.3L716 469.4l11.7 -8.8l2 -1.6l.9 1l.9 1.1l.6 1l.6 1.1l.5 1.1l.3 1.1l.3 1.1l.1 1.2v1.1l-.1 1.2l-.2 1.1l-.3 1.2l-.5 1.2l-.6 1.1l-.6 1.3l-.8 1.2Z" class="gc_46"/>
<path d="M745.3 447.1L729.7 459l-2 1.6L716 469.4m-12 -6.3l-2.2 -1.2L681.9 451.6M716 469.4l-11.6 -6.1m45.8 24L730.8 477.1l-3.4 -1.8L716 469.4m0 0l-10.9 8.3l-2.4 1.8l-18.9 14.4" class="ga_46"/>
<path d="M727.4 475.3l-.7 .7l-.6 .7l-.4 .3l-.2 .1l-.1 .2l-.7 .6l-.7 .5l-.6 .6l-1.4 .9l-.7 .4l-.3 .1l-.2 .1l-.1 .1l-1.4 .6l-.7 .2h-.4l-.1 .1l-.2 .1l-.7 .1l-.6 .1h-2.2l-.7 -.1l-1.4 -.3l-.7 -.1l-.7 -.3l-.7 -.2l-.8 -.4l-.7 -.3l-.7 -.4l-1.5 -1l-.7 -.5l-.7 -.5m22.6 -17.1l-1.7 -.8l-1.8 -.7l-1.6 -.5l-1.6 -.3l-1.6 -.3l-1.5 -.2h-1.6l-1.4 .2l-1.5 .1l-1.4 .4l-1.3 .5l-1.4 .6l-1.3 .7l-1.2 .9l-1.2 .9l-1.2 1.2l-.4 -.2" class="gj_46"/>
<path d="M702.7 479.5l-.7 -1.2l-.6 -1.1l-.5 -1.1l-.4 -1.1l-.4 -1.1l-.2 -1.1l-.2 -1l-.1 -1.1v-2.3l.2 -1l.2 -1.1l.4 -1.1l.3 -1.1l.5 -1.1l.6 -1.1m29 15.2l.8 -1.2l.6 -1.2l.6 -1.2l.5 -1.2l.3 -1.2l.2 -1.1l.1 -1.2v-1.1l-.1 -1.2l-.3 -1.1l-.3 -1.1l-.5 -1.1l-.6 -1.1l-.6 -1l-.9 -1.1l-.9 -1" class="gk_46"/>
<path d="M78.3 433.6H79v-.8h-.7v.8Z" class="g1_46"/>
<path d="M79 433.6h50.3v-.8H79v.8Z" class="g1_46"/>
<path d="M129.2 433.6h.8v-.8h-.8v.8Z" class="g1_46"/>
<path d="M130 433.6H363.9v-.8H130v.8Z" class="g1_46"/>
<path d="M363.9 433.6h.7v-.8h-.7v.8Z" class="g1_46"/>
<path d="M364.6 433.6h234v-.8h-234v.8Z" class="g1_46"/>
<path d="M598.6 433.6h.7v-.8h-.7v.8Z" class="g1_46"/>
<path d="M599.3 433.6H833.4v-.8H599.3v.8Z" class="g1_46"/>
<path d="M833.4 433.6h.8v-.8h-.8v.8Z" class="g1_46"/>
<path d="M78.3 506.6H79v-73h-.7v73Z" class="g1_46"/>
<path d="M129.2 506.6h.8v-73h-.8v73Z" class="g1_46"/>
<path d="M363.9 506.6h.7v-73h-.7v73Z" class="g1_46"/>
<path d="M598.6 506.6h.7v-73h-.7v73Z" class="g1_46"/>
<path d="M833.4 506.6h.8v-73h-.8v73Z" class="g1_46"/>
<path fill-rule="evenodd" d="M79 531.1h50.3V507.3H79v23.8Z" class="g0_46"/>
<path d="M79 531.1h50.3V507.3H79v23.8Z" class="g0_46"/>
<path d="M78.3 507.3H79v-.8h-.7v.8Z" class="g1_46"/>
<path d="M79 507.3h50.3v-.8H79v.8Z" class="g1_46"/>
<path d="M129.2 507.3h.8v-.8h-.8v.8Z" class="g1_46"/>
<path d="M130 507.3H363.9v-.8H130v.8Z" class="g1_46"/>
<path d="M363.9 507.3h.7v-.8h-.7v.8Z" class="g1_46"/>
<path d="M364.6 507.3h234v-.8h-234v.8Z" class="g1_46"/>
<path d="M598.6 507.3h.7v-.8h-.7v.8Z" class="g1_46"/>
<path d="M599.3 507.3H833.4v-.8H599.3v.8Z" class="g1_46"/>
<path d="M833.4 507.3h.8v-.8h-.8v.8Z" class="g1_46"/>
<path d="M78.3 531.1H79V507.3h-.7v23.8Z" class="g1_46"/>
<path d="M78.3 531.8H79v-.7h-.7v.7Z" class="g1_46"/>
<path d="M78.3 531.8H79v-.7h-.7v.7Z" class="g1_46"/>
<path d="M79 531.8h50.3v-.7H79v.7Z" class="g1_46"/>
<path d="M129.2 531.1h.8V507.3h-.8v23.8Z" class="g1_46"/>
<path d="M129.2 531.8h.8v-.7h-.8v.7Z" class="g1_46"/>
<path d="M130 531.8H363.9v-.7H130v.7Z" class="g1_46"/>
<path d="M363.9 531.1h.7V507.3h-.7v23.8Z" class="g1_46"/>
<path d="M363.9 531.8h.7v-.7h-.7v.7Z" class="g1_46"/>
<path d="M364.6 531.8h234v-.7h-234v.7Z" class="g1_46"/>
<path d="M598.6 531.1h.7V507.3h-.7v23.8Z" class="g1_46"/>
<path d="M598.6 531.8h.7v-.7h-.7v.7Z" class="g1_46"/>
<path d="M599.3 531.8H833.4v-.7H599.3v.7Z" class="g1_46"/>
<path d="M833.4 531.1h.8V507.3h-.8v23.8Z" class="g1_46"/>
<path d="M833.4 531.8h.8v-.7h-.8v.7Z" class="g1_46"/>
<path d="M833.4 531.8h.8v-.7h-.8v.7Z" class="g1_46"/>
<path d="M83.4 675.8l34 -66.3l83.2 66.3Z" class="gl_46"/>
<path d="M76.9 688.6l6.5 -12.8l34 -66.3m96.5 66.3H83.4m117.2 0L117.4 609.5m0 0L103.5 598.4" class="gm_46"/>
<path fill-rule="evenodd" d="M242.2 615.3H448.3V587.8H242.2v27.5Z" class="g0_46"/>
<path d="M250.1 615.3H440.4V587.8H250.1v27.5Z" class="g0_46"/>
<path fill-rule="evenodd" d="M449 615.3H655.1V587.8H449v27.5Z" class="g0_46"/>
<path d="M456.9 615.3H647.2V587.8H456.9v27.5Z" class="g0_46"/>
<path fill-rule="evenodd" d="M655.8 615.3H861.9V587.8H655.8v27.5Z" class="g0_46"/>
<path d="M663.7 615.3H854V587.8H663.7v27.5Z" class="g0_46"/>
<path d="M56.7 587.6h.7v-.8h-.7v.8Z" class="g1_46"/>
<path d="M56.7 587.6h.7v-.8h-.7v.8Z" class="g1_46"/>
<path d="M57.4 587.6H241.5v-.8H57.4v.8Z" class="g1_46"/>
<path d="M241.4 587.6h.8v-.8h-.8v.8Z" class="g1_46"/>
<path d="M242.2 587.6H448.3v-.8H242.2v.8Z" class="g1_46"/>
<path d="M448.2 587.6h.8v-.8h-.8v.8Z" class="g1_46"/>
<path d="M449 587.6H655.1v-.8H449v.8Z" class="g1_46"/>
<path d="M655.1 587.6h.7v-.8h-.7v.8Z" class="g1_46"/>
<path d="M655.8 587.6H861.9v-.8H655.8v.8Z" class="g1_46"/>
<path d="M861.9 587.6h.7v-.8h-.7v.8Z" class="g1_46"/>
<path d="M861.9 587.6h.7v-.8h-.7v.8Z" class="g1_46"/>
<path d="M56.7 615.3h.7V587.6h-.7v27.7Z" class="g1_46"/>
<path d="M241.4 615.3h.8V587.6h-.8v27.7Z" class="g1_46"/>
<path d="M448.2 615.3h.8V587.6h-.8v27.7Z" class="g1_46"/>
<path d="M655.1 615.3h.7V587.6h-.7v27.7Z" class="g1_46"/>
<path d="M861.9 615.3h.7V587.6h-.7v27.7Z" class="g1_46"/>
<path d="M56.7 616h.7v-.7h-.7v.7Z" class="g1_46"/>
<path d="M241.4 616h.8v-.7h-.8v.7Z" class="g1_46"/>
<path d="M242.2 616H448.3v-.7H242.2v.7Z" class="g1_46"/>
<path d="M448.2 616h.8v-.7h-.8v.7Z" class="g1_46"/>
<path d="M449 616H655.1v-.7H449v.7Z" class="g1_46"/>
<path d="M655.1 616h.7v-.7h-.7v.7Z" class="g1_46"/>
<path d="M655.8 616H861.9v-.7H655.8v.7Z" class="g1_46"/>
<path d="M861.9 616h.7v-.7h-.7v.7Z" class="g1_46"/>
<path d="M56.7 698.9h.7V616h-.7v82.9Z" class="g1_46"/>
<path d="M56.7 699.6h.7v-.7h-.7v.7Z" class="g1_46"/>
<path d="M56.7 699.6h.7v-.7h-.7v.7Z" class="g1_46"/>
<path d="M57.4 699.6H241.5v-.7H57.4v.7Z" class="g1_46"/>
<path d="M241.4 698.9h.8V616h-.8v82.9Z" class="g1_46"/>
<path d="M241.4 699.6h.8v-.7h-.8v.7Z" class="g1_46"/>
<path d="M242.2 699.6H448.3v-.7H242.2v.7Z" class="g1_46"/>
<path d="M448.2 698.9h.8V616h-.8v82.9Z" class="g1_46"/>
<path d="M448.2 699.6h.8v-.7h-.8v.7Z" class="g1_46"/>
<path d="M449 699.6H655.1v-.7H449v.7Z" class="g1_46"/>
<path d="M655.1 698.9h.7V616h-.7v82.9Z" class="g1_46"/>
<path d="M655.1 699.6h.7v-.7h-.7v.7Z" class="g1_46"/>
<path d="M655.8 699.6H861.9v-.7H655.8v.7Z" class="g1_46"/>
<path d="M861.9 698.9h.7V616h-.7v82.9Z" class="g1_46"/>
<path d="M861.9 699.6h.7v-.7h-.7v.7Z" class="g1_46"/>
<path d="M861.9 699.6h.7v-.7h-.7v.7Z" class="g1_46"/>
<path fill-rule="evenodd" d="M57.4 806.7H221.7V782.8H57.4v23.9Z" class="g0_46"/>
<path d="M57.4 806.7H221.7V782.8H57.4v23.9Z" class="g0_46"/>
<path fill-rule="evenodd" d="M222.4 806.7H326.1V782.8H222.4v23.9Z" class="g0_46"/>
<path d="M230.3 806.7h88V782.8h-88v23.9Z" class="g0_46"/>
<path fill-rule="evenodd" d="M326.9 806.7H430.7V782.8H326.9v23.9Z" class="g0_46"/>
<path d="M334.8 806.7h88V782.8h-88v23.9Z" class="g0_46"/>
<path fill-rule="evenodd" d="M431.4 806.7H535.1V782.8H431.4v23.9Z" class="g0_46"/>
<path d="M439.3 806.7h88V782.8h-88v23.9Z" class="g0_46"/>
<path fill-rule="evenodd" d="M535.9 806.7H639.6V782.8H535.9v23.9Z" class="g0_46"/>
<path d="M543.8 806.7h88V782.8h-88v23.9Z" class="g0_46"/>
<path fill-rule="evenodd" d="M640.4 806.7H744.2V782.8H640.4v23.9Z" class="g0_46"/>
<path d="M648.3 806.7h88V782.8h-88v23.9Z" class="g0_46"/>
<path fill-rule="evenodd" d="M744.9 806.7H869.7V782.8H744.9v23.9Z" class="g0_46"/>
<path d="M752.8 806.7H861.9V782.8H752.8v23.9Z" class="g0_46"/>
<path d="M56.7 782.8h.7v-.7h-.7v.7Z" class="g1_46"/>
<path d="M56.7 782.8h.7v-.7h-.7v.7Z" class="g1_46"/>
<path d="M57.4 782.8H221.7v-.7H57.4v.7Z" class="g1_46"/>
<path d="M221.7 782.8h.7v-.7h-.7v.7Z" class="g1_46"/>
<path d="M222.4 782.8H326.1v-.7H222.4v.7Z" class="g1_46"/>
<path d="M326.1 782.8h.8v-.7h-.8v.7Z" class="g1_46"/>
<path d="M326.9 782.8H430.7v-.7H326.9v.7Z" class="g1_46"/>
<path d="M430.7 782.8h.7v-.7h-.7v.7Z" class="g1_46"/>
<path d="M431.4 782.8H535.1v-.7H431.4v.7Z" class="g1_46"/>
<path d="M535.2 782.8h.7v-.7h-.7v.7Z" class="g1_46"/>
<path d="M535.9 782.8H639.6v-.7H535.9v.7Z" class="g1_46"/>
<path d="M639.6 782.8h.8v-.7h-.8v.7Z" class="g1_46"/>
<path d="M640.4 782.8H744.2v-.7H640.4v.7Z" class="g1_46"/>
<path d="M744.1 782.8h.8v-.7h-.8v.7Z" class="g1_46"/>
<path d="M744.9 782.8H869.7v-.7H744.9v.7Z" class="g1_46"/>
<path d="M869.7 782.8h.8v-.7h-.8v.7Z" class="g1_46"/>
<path d="M869.7 782.8h.8v-.7h-.8v.7Z" class="g1_46"/>
<path d="M56.7 806.7h.7V782.8h-.7v23.9Z" class="g1_46"/>
<path d="M221.7 806.7h.7V782.8h-.7v23.9Z" class="g1_46"/>
<path d="M326.1 806.7h.8V782.8h-.8v23.9Z" class="g1_46"/>
<path d="M430.7 806.7h.7V782.8h-.7v23.9Z" class="g1_46"/>
<path d="M535.2 806.7h.7V782.8h-.7v23.9Z" class="g1_46"/>
<path d="M639.6 806.7h.8V782.8h-.8v23.9Z" class="g1_46"/>
<path d="M744.1 806.7h.8V782.8h-.8v23.9Z" class="g1_46"/>
<path d="M869.7 806.7h.8V782.8h-.8v23.9Z" class="g1_46"/>
<path fill-rule="evenodd" d="M57.4 890.6H221.7V807.4H57.4v83.2Z" class="g0_46"/>
<path d="M57.4 860.9H221.7V837.1H57.4v23.8Z" class="g0_46"/>
<path d="M239.2 876.1l44.5 -58.6l25 62.4Z" class="gn_46"/>
<path d="M283.7 817.5l-44.5 58.6l69.5 3.8l-25 -62.4" class="go_46"/>
<path d="M347.7 878.6L353 823.7l56 54.9Z" class="gp_46"/>
<path d="M409 878.6L353 823.7l50.4 -5.1l5.7 60Z" class="gp_46"/>
<path d="M347.7 878.6h61.4l-5.7 -60L353 823.7l-5.3 54.9" class="gq_46"/>
<path d="M409 878.6L353 823.7" class="gr_46"/>
<path d="M482.6 817.5l19.9 62.7l-39.5 .1Z" class="g0_46"/>
<path d="M462.8 880.3L450.1 841.2l32.5 -24.4l32.5 24.1l-12.2 39.3h-.4L482.6 817.5L463 880.3Z" class="g0_46"/>
<path d="M502.5 880.2h.4l12.2 -39.3L482.6 816.8l-32.5 24.4l12.7 39.1h.2l39.5 -.1" class="gs_46"/>
<path d="M463 880.3l19.6 -62.8l19.9 62.7" class="gt_46"/>
<path d="M569.9 817.6l-.6 62.6L551.5 848.7l17.9 -31.8h35.8l18 31.8l-.1 .3L569.6 817.4L623.1 849l-17.7 31.3Z" class="gu_46"/>
<path d="M569.4 880.5l-.1 -.3l.6 -62.6l35.5 62.7l-.2 .2Z" class="gu_46"/>
<path d="M623.2 848.7l-18 -31.8H569.4l-17.9 31.8l17.8 31.5l.1 .3h35.8l.2 -.2L623.1 849l.1 -.3" class="gv_46"/>
<path d="M623.1 849L569.6 817.4m35.8 62.9L569.9 817.6l-.6 62.6" class="gw_46"/>
<path d="M677.1 881.4L658.8 857.9v-.3L692 816.3v.3l-14.6 64.3L692 816.6l13.7 64.3L692 816.6v-.2l32.3 41.3L692 816.4v-.1l-33.2 41.3l6.5 -28.9l26.4 -13.1h.2l26.2 13.1l6.6 29.3l-18.4 23.4Z" class="gx_46"/>
<path d="M691.9 815.6h-.2l-26.4 13.1l-6.5 28.9v.3l18.3 23.5h29.2L724.7 858l-6.6 -29.3L691.9 815.6" class="gg_46"/>
<path d="M692 816.6v-.2m32.3 41.3L692 816.4m-14.6 64.5L692 816.6m13.7 64.3L692 816.6m0 -.2v-.1l-33.2 41.3" class="gy_46"/>
<path d="M769.7 851.4l1.4 -13.2l5.6 -11.9L786 817l11.8 -5.4l12 -.8l-37.3 52.5Z" class="gx_46"/>
<path d="M810.1 811.8l.1 -1h.6l.4 .2l22.3 11.4l7.2 10.9l.1 .4L810.9 811.4l.2 .2L842 859.1L811.1 811.6l32.5 34.2l.1 .4l-1.4 13.2L836.9 871Z" class="gx_46"/>
<path d="M811.2 811v0l11.3 4l-11.3 -4l11.8 3.4l10.5 7.9v.1Zm0 0v0l-.4 -.2l.4 .2Z" class="gx_46"/>
<path d="M809.6 812.4l.1 -.4l.2 -.5l.1 .5l-.2 2.6Z" class="gx_46"/>
<path d="M780 875.3l-.2 -.3l29.9 -63l-.1 .4l-19.3 70.7Z" class="gx_46"/>
<path d="M790.4 883.1h-.1l19.3 -70.7l.2 2.2l-7.3 71.7l7.3 -71.7l5.8 70.9l-5.8 -70.9L810 812l17.5 68.4l-.1 .2l-11.8 5.3l-12.8 .9Z" class="gx_46"/>
<path d="M772.8 864.3l-.3 -1l37.3 -52.5h.4l-.1 1l-.2 -.4v.1l-.2 .5l-29.9 63Z" class="gx_46"/>
<path d="M809.9 811.5v-.1l.2 .4l-.1 .2Z" class="gx_46"/>
<path d="M810 812l.1 -.2L836.9 871l-.2 .4l-9.2 9Z" class="gx_46"/>
<path d="M811.1 811.6l-.2 -.2l29.9 22.3l2.8 12.1Z" class="gx_46"/>
<path d="M772.5 863.3l.3 1l7 10.7l.2 .3l10.3 7.8h.1l12.4 3.7l12.8 -.9l11.8 -5.3l.1 -.2l9.2 -9l.2 -.4l5.4 -11.6l1.4 -13.2l-.1 -.4l-2.8 -12.1l-.1 -.4l-7.2 -10.9v-.1L823 814.4l-12.2 -3.6h-1m0 0l-2.5 .2m-2.5 .1l-2.5 .1m-2.5 .3l-2 .1l-.5 .3m-2.3 1l-2.2 1.1m-2.3 1l-2.3 1m-2.3 1.1l-1.8 1.8m-1.8 1.8l-1.9 1.8m-1.7 1.8l-1.9 1.8m-1.1 2.2l-1.1 2.3m-1.2 2.4l-1.1 2.3m-1 2.4l-.2 .5l-.3 1.8m-.2 2.6l-.3 2.6m-.2 2.6l-.3 2.5m.3 2.5l.6 2.5m.5 2.6l.7 2.5m.5 2.6l.1 .3" class="gg_46"/>
<path d="M811.2 811l-.4 -.2m-1.2 1.6l.1 -.4m.1 2.6l-.2 -2.2m.5 -.6l-.2 -.4v.1m.1 .5l.1 -.2m-.1 .2l-.1 -.5m1.2 .1l-.2 -.2l29.9 22.3M809.7 812l.2 -.5m.2 .3l.1 -1m-.4 3.8L810 812m-37.5 51.3l37.3 -52.5m-30 64.2l29.9 -63m-19.4 71.1l19.3 -70.7m-7.1 73.9l7.3 -71.7M836.9 871L810.1 811.8m17.4 68.6L810 812m5.6 73.5l-5.8 -70.9M842 859.1L811.1 811.6m32.5 34.2L811.1 811.6m22.4 10.8L811.2 811m11.3 4l-11.3 -4" class="gy_46"/>
<path d="M56.7 807.4h.7v-.7h-.7v.7Z" class="g1_46"/>
<path d="M57.4 807.4H221.7v-.7H57.4v.7Z" class="g1_46"/>
<path d="M221.7 807.4h.7v-.7h-.7v.7Z" class="g1_46"/>
<path d="M222.4 807.4H326.1v-.7H222.4v.7Z" class="g1_46"/>
<path d="M326.1 807.4h.8v-.7h-.8v.7Z" class="g1_46"/>
<path d="M326.9 807.4H430.7v-.7H326.9v.7Z" class="g1_46"/>
<path d="M430.7 807.4h.7v-.7h-.7v.7Z" class="g1_46"/>
<path d="M431.4 807.4H535.1v-.7H431.4v.7Z" class="g1_46"/>
<path d="M535.2 807.4h.7v-.7h-.7v.7Z" class="g1_46"/>
<path d="M535.9 807.4H639.6v-.7H535.9v.7Z" class="g1_46"/>
<path d="M639.6 807.4h.8v-.7h-.8v.7Z" class="g1_46"/>
<path d="M640.4 807.4H744.2v-.7H640.4v.7Z" class="g1_46"/>
<path d="M744.1 807.4h.8v-.7h-.8v.7Z" class="g1_46"/>
<path d="M744.9 807.4H869.7v-.7H744.9v.7Z" class="g1_46"/>
<path d="M869.7 807.4h.8v-.7h-.8v.7Z" class="g1_46"/>
<path d="M56.7 890.6h.7V807.4h-.7v83.2Z" class="g1_46"/>
<path d="M221.7 890.6h.7V807.4h-.7v83.2Z" class="g1_46"/>
<path d="M326.1 890.6h.8V807.4h-.8v83.2Z" class="g1_46"/>
<path d="M430.7 890.6h.7V807.4h-.7v83.2Z" class="g1_46"/>
<path d="M535.2 890.6h.7V807.4h-.7v83.2Z" class="g1_46"/>
<path d="M639.6 890.6h.8V807.4h-.8v83.2Z" class="g1_46"/>
<path d="M744.1 890.6h.8V807.4h-.8v83.2Z" class="g1_46"/>
<path d="M869.7 890.6h.8V807.4h-.8v83.2Z" class="g1_46"/>
<path fill-rule="evenodd" d="M57.4 915.2H221.7V891.4H57.4v23.8Z" class="g0_46"/>
<path d="M57.4 915.2H221.7V891.4H57.4v23.8Z" class="g0_46"/>
<path d="M56.7 891.4h.7v-.8h-.7v.8Z" class="g1_46"/>
<path d="M57.4 891.4H221.7v-.8H57.4v.8Z" class="g1_46"/>
<path d="M221.7 891.4h.7v-.8h-.7v.8Z" class="g1_46"/>
<path d="M222.4 891.4H326.1v-.8H222.4v.8Z" class="g1_46"/>
<path d="M326.1 891.4h.8v-.8h-.8v.8Z" class="g1_46"/>
<path d="M326.9 891.4H430.7v-.8H326.9v.8Z" class="g1_46"/>
<path d="M430.7 891.4h.7v-.8h-.7v.8Z" class="g1_46"/>
<path d="M431.4 891.4H535.1v-.8H431.4v.8Z" class="g1_46"/>
<path d="M535.2 891.4h.7v-.8h-.7v.8Z" class="g1_46"/>
<path d="M535.9 891.4H639.6v-.8H535.9v.8Z" class="g1_46"/>
<path d="M639.6 891.4h.8v-.8h-.8v.8Z" class="g1_46"/>
<path d="M640.4 891.4H744.2v-.8H640.4v.8Z" class="g1_46"/>
<path d="M744.1 891.4h.8v-.8h-.8v.8Z" class="g1_46"/>
<path d="M744.9 891.4H869.7v-.8H744.9v.8Z" class="g1_46"/>
<path d="M869.7 891.4h.8v-.8h-.8v.8Z" class="g1_46"/>
<path d="M56.7 915.2h.7V891.4h-.7v23.8Z" class="g1_46"/>
<path d="M221.7 915.2h.7V891.4h-.7v23.8Z" class="g1_46"/>
<path d="M326.1 915.2h.8V891.4h-.8v23.8Z" class="g1_46"/>
<path d="M430.7 915.2h.7V891.4h-.7v23.8Z" class="g1_46"/>
<path d="M535.2 915.2h.7V891.4h-.7v23.8Z" class="g1_46"/>
<path d="M639.6 915.2h.8V891.4h-.8v23.8Z" class="g1_46"/>
<path d="M744.1 915.2h.8V891.4h-.8v23.8Z" class="g1_46"/>
<path d="M869.7 915.2h.8V891.4h-.8v23.8Z" class="g1_46"/>
<path fill-rule="evenodd" d="M57.4 939.9H221.7V916.1H57.4v23.8Z" class="g0_46"/>
<path d="M57.4 939.9H221.7V916.1H57.4v23.8Z" class="g0_46"/>
<path d="M56.7 915.9h.7v-.7h-.7v.7Z" class="g1_46"/>
<path d="M57.4 915.9H221.7v-.7H57.4v.7Z" class="g1_46"/>
<path d="M221.7 915.9h.7v-.7h-.7v.7Z" class="g1_46"/>
<path d="M222.4 915.9H326.1v-.7H222.4v.7Z" class="g1_46"/>
<path d="M326.1 915.9h.8v-.7h-.8v.7Z" class="g1_46"/>
<path d="M326.9 915.9H430.7v-.7H326.9v.7Z" class="g1_46"/>
<path d="M430.7 915.9h.7v-.7h-.7v.7Z" class="g1_46"/>
<path d="M431.4 915.9H535.1v-.7H431.4v.7Z" class="g1_46"/>
<path d="M535.2 915.9h.7v-.7h-.7v.7Z" class="g1_46"/>
<path d="M535.9 915.9H639.6v-.7H535.9v.7Z" class="g1_46"/>
<path d="M639.6 915.9h.8v-.7h-.8v.7Z" class="g1_46"/>
<path d="M640.4 915.9H744.2v-.7H640.4v.7Z" class="g1_46"/>
<path d="M744.1 915.9h.8v-.7h-.8v.7Z" class="g1_46"/>
<path d="M744.9 915.9H869.7v-.7H744.9v.7Z" class="g1_46"/>
<path d="M869.7 915.9h.8v-.7h-.8v.7Z" class="g1_46"/>
<path d="M56.7 939.9h.7v-24h-.7v24Z" class="g1_46"/>
<path d="M221.7 939.9h.7v-24h-.7v24Z" class="g1_46"/>
<path d="M326.1 939.9h.8v-24h-.8v24Z" class="g1_46"/>
<path d="M430.7 939.9h.7v-24h-.7v24Z" class="g1_46"/>
<path d="M535.2 939.9h.7v-24h-.7v24Z" class="g1_46"/>
<path d="M639.6 939.9h.8v-24h-.8v24Z" class="g1_46"/>
<path d="M744.1 939.9h.8v-24h-.8v24Z" class="g1_46"/>
<path d="M869.7 939.9h.8v-24h-.8v24Z" class="g1_46"/>
<path fill-rule="evenodd" d="M57.4 964.5H221.7V940.7H57.4v23.8Z" class="g0_46"/>
<path d="M57.4 964.5H221.7V940.7H57.4v23.8Z" class="g0_46"/>
<path d="M56.7 940.7h.7v-.8h-.7v.8Z" class="g1_46"/>
<path d="M57.4 940.7H221.7v-.8H57.4v.8Z" class="g1_46"/>
<path d="M221.7 940.7h.7v-.8h-.7v.8Z" class="g1_46"/>
<path d="M222.4 940.7H326.1v-.8H222.4v.8Z" class="g1_46"/>
<path d="M326.1 940.7h.8v-.8h-.8v.8Z" class="g1_46"/>
<path d="M326.9 940.7H430.7v-.8H326.9v.8Z" class="g1_46"/>
<path d="M430.7 940.7h.7v-.8h-.7v.8Z" class="g1_46"/>
<path d="M431.4 940.7H535.1v-.8H431.4v.8Z" class="g1_46"/>
<path d="M535.2 940.7h.7v-.8h-.7v.8Z" class="g1_46"/>
<path d="M535.9 940.7H639.6v-.8H535.9v.8Z" class="g1_46"/>
<path d="M639.6 940.7h.8v-.8h-.8v.8Z" class="g1_46"/>
<path d="M640.4 940.7H744.2v-.8H640.4v.8Z" class="g1_46"/>
<path d="M744.1 940.7h.8v-.8h-.8v.8Z" class="g1_46"/>
<path d="M744.9 940.7H869.7v-.8H744.9v.8Z" class="g1_46"/>
<path d="M869.7 940.7h.8v-.8h-.8v.8Z" class="g1_46"/>
<path d="M56.7 964.5h.7V940.7h-.7v23.8Z" class="g1_46"/>
<path d="M221.7 964.5h.7V940.7h-.7v23.8Z" class="g1_46"/>
<path d="M326.1 964.5h.8V940.7h-.8v23.8Z" class="g1_46"/>
<path d="M430.7 964.5h.7V940.7h-.7v23.8Z" class="g1_46"/>
<path d="M535.2 964.5h.7V940.7h-.7v23.8Z" class="g1_46"/>
<path d="M639.6 964.5h.8V940.7h-.8v23.8Z" class="g1_46"/>
<path d="M744.1 964.5h.8V940.7h-.8v23.8Z" class="g1_46"/>
<path d="M869.7 964.5h.8V940.7h-.8v23.8Z" class="g1_46"/>
<path fill-rule="evenodd" d="M57.4 1012.9H221.7V965.2H57.4v47.7Z" class="g0_46"/>
<path d="M57.4 989.1H221.7V965.2H57.4v23.9Z" class="g0_46"/>
<path d="M57.4 1012.9H221.7V989.1H57.4v23.8Z" class="g0_46"/>
<path d="M673.9 989.3h36.7m51.2 .9h90.9" class="gz_46"/>
<path d="M56.7 965.2h.7v-.7h-.7v.7Z" class="g1_46"/>
<path d="M57.4 965.2H221.7v-.7H57.4v.7Z" class="g1_46"/>
<path d="M221.7 965.2h.7v-.7h-.7v.7Z" class="g1_46"/>
<path d="M222.4 965.2H326.1v-.7H222.4v.7Z" class="g1_46"/>
<path d="M326.1 965.2h.8v-.7h-.8v.7Z" class="g1_46"/>
<path d="M326.9 965.2H430.7v-.7H326.9v.7Z" class="g1_46"/>
<path d="M430.7 965.2h.7v-.7h-.7v.7Z" class="g1_46"/>
<path d="M431.4 965.2H535.1v-.7H431.4v.7Z" class="g1_46"/>
<path d="M535.2 965.2h.7v-.7h-.7v.7Z" class="g1_46"/>
<path d="M535.9 965.2H639.6v-.7H535.9v.7Z" class="g1_46"/>
<path d="M639.6 965.2h.8v-.7h-.8v.7Z" class="g1_46"/>
<path d="M640.4 965.2H744.2v-.7H640.4v.7Z" class="g1_46"/>
<path d="M744.1 965.2h.8v-.7h-.8v.7Z" class="g1_46"/>
<path d="M744.9 965.2H869.7v-.7H744.9v.7Z" class="g1_46"/>
<path d="M869.7 965.2h.8v-.7h-.8v.7Z" class="g1_46"/>
<path d="M56.7 1012.9h.7V965.2h-.7v47.7Z" class="g1_46"/>
<path d="M221.7 1012.9h.7V965.2h-.7v47.7Z" class="g1_46"/>
<path d="M326.1 1012.9h.8V965.2h-.8v47.7Z" class="g1_46"/>
<path d="M430.7 1012.9h.7V965.2h-.7v47.7Z" class="g1_46"/>
<path d="M535.2 1012.9h.7V965.2h-.7v47.7Z" class="g1_46"/>
<path d="M639.6 1012.9h.8V965.2h-.8v47.7Z" class="g1_46"/>
<path d="M744.1 1012.9h.8V965.2h-.8v47.7Z" class="g1_46"/>
<path d="M869.7 1012.9h.8V965.2h-.8v47.7Z" class="g1_46"/>
<path fill-rule="evenodd" d="M57.4 1061.5H221.7v-47.9H57.4v47.9Z" class="g0_46"/>
<path d="M57.4 1037.7H221.7v-24.1H57.4v24.1Z" class="g0_46"/>
<path d="M57.4 1061.5H221.7v-23.8H57.4v23.8Z" class="g0_46"/>
<path d="M673.9 1037.7h36.7m78.3 0h36.6" class="gz_46"/>
<path d="M56.7 1013.6h.7v-.7h-.7v.7Z" class="g1_46"/>
<path d="M57.4 1013.6H221.7v-.7H57.4v.7Z" class="g1_46"/>
<path d="M221.7 1013.6h.7v-.7h-.7v.7Z" class="g1_46"/>
<path d="M222.4 1013.6H326.1v-.7H222.4v.7Z" class="g1_46"/>
<path d="M326.1 1013.6h.8v-.7h-.8v.7Z" class="g1_46"/>
<path d="M326.9 1013.6H430.7v-.7H326.9v.7Z" class="g1_46"/>
<path d="M430.7 1013.6h.7v-.7h-.7v.7Z" class="g1_46"/>
<path d="M431.4 1013.6H535.1v-.7H431.4v.7Z" class="g1_46"/>
<path d="M535.2 1013.6h.7v-.7h-.7v.7Z" class="g1_46"/>
<path d="M535.9 1013.6H639.6v-.7H535.9v.7Z" class="g1_46"/>
<path d="M639.6 1013.6h.8v-.7h-.8v.7Z" class="g1_46"/>
<path d="M640.4 1013.6H744.2v-.7H640.4v.7Z" class="g1_46"/>
<path d="M744.1 1013.6h.8v-.7h-.8v.7Z" class="g1_46"/>
<path d="M744.9 1013.6H869.7v-.7H744.9v.7Z" class="g1_46"/>
<path d="M869.7 1013.6h.8v-.7h-.8v.7Z" class="g1_46"/>
<path d="M56.7 1061.5h.7v-47.9h-.7v47.9Z" class="g1_46"/>
<path d="M56.7 1062.2h.7v-.7h-.7v.7Z" class="g1_46"/>
<path d="M56.7 1062.2h.7v-.7h-.7v.7Z" class="g1_46"/>
<path d="M57.4 1062.2H221.7v-.7H57.4v.7Z" class="g1_46"/>
<path d="M221.7 1061.5h.7v-47.9h-.7v47.9Z" class="g1_46"/>
<path d="M221.7 1062.2h.7v-.7h-.7v.7Z" class="g1_46"/>
<path d="M222.4 1062.2H326.1v-.7H222.4v.7Z" class="g1_46"/>
<path d="M326.1 1061.5h.8v-47.9h-.8v47.9Z" class="g1_46"/>
<path d="M326.1 1062.2h.8v-.7h-.8v.7Z" class="g1_46"/>
<path d="M326.9 1062.2H430.7v-.7H326.9v.7Z" class="g1_46"/>
<path d="M430.7 1061.5h.7v-47.9h-.7v47.9Z" class="g1_46"/>
<path d="M430.7 1062.2h.7v-.7h-.7v.7Z" class="g1_46"/>
<path d="M431.4 1062.2H535.1v-.7H431.4v.7Z" class="g1_46"/>
<path d="M535.2 1061.5h.7v-47.9h-.7v47.9Z" class="g1_46"/>
<path d="M535.2 1062.2h.7v-.7h-.7v.7Z" class="g1_46"/>
<path d="M535.9 1062.2H639.6v-.7H535.9v.7Z" class="g1_46"/>
<path d="M639.6 1061.5h.8v-47.9h-.8v47.9Z" class="g1_46"/>
<path d="M639.6 1062.2h.8v-.7h-.8v.7Z" class="g1_46"/>
<path d="M640.4 1062.2H744.2v-.7H640.4v.7Z" class="g1_46"/>
<path d="M744.1 1061.5h.8v-47.9h-.8v47.9Z" class="g1_46"/>
<path d="M744.1 1062.2h.8v-.7h-.8v.7Z" class="g1_46"/>
<path d="M744.9 1062.2H869.7v-.7H744.9v.7Z" class="g1_46"/>
<path d="M869.7 1061.5h.8v-47.9h-.8v47.9Z" class="g1_46"/>
<path d="M869.7 1062.2h.8v-.7h-.8v.7Z" class="g1_46"/>
<path d="M869.7 1062.2h.8v-.7h-.8v.7Z" class="g1_46"/>
<path d="M277 1117.6h61.6" class="g10_46"/>
<image clip-path="url(#c1_46)" preserveAspectRatio="none" x="0" y="0" width="914" height="151" xlink:href="img/2.jpg"/>
<image clip-path="url(#c2_46)" preserveAspectRatio="none" x="23" y="153" width="1038" height="49" xlink:href="img/3.png"/>
<path d="M59.7 723.3l-.8 -.1l-.8 -.3l-.8 -.4l-.6 -.5l-.4 -.4l-.2 -.3l-.4 -.7l-.2 -.8l-.1 -.9V706.3l.1 -.9l.2 -.7l.4 -.8l.6 -.7l.6 -.5l.8 -.4l.8 -.2l.8 -.1H72.3l.8 .1h.4l.4 .2l.7 .4l.3 .2l.4 .3l.5 .7l.4 .8l.3 .7l.1 .9v12.6l-.1 .5v.4l-.3 .8l-.2 .3l-.1 .2l-.1 .2l-.2 .3l-.2 .2l-.1 .1v.1l-.4 .3l-.3 .2l-.2 .1l-.2 .1l-.3 .2l-.4 .2h-.2l-.2 .1h-.4l-.4 .1Z" class="g11_46"/>
<path d="M65 1086.7h-.9l-.7 -.3l-.8 -.4l-.7 -.5l-.3 -.4l-.2 -.3l-.4 -.7l-.2 -.8l-.1 -.9v-12.6l.1 -.9l.2 -.8l.4 -.7l.5 -.7l.7 -.6l.8 -.3l.7 -.3H78.4l.4 .1l.4 .2l.6 .3l.4 .3l.3 .3l.6 .7l.4 .7l.3 .8v14.4l-.3 .8l-.2 .3l-.1 .2l-.1 .2l-.3 .3l-.1 .2h-.2v.2l-.3 .2l-.4 .3l-.2 .1l-.1 .1l-.3 .2l-.4 .1h-.2v.1l-.2 .1h-.9Z" class="g11_46"/>
<path d="M65 1129.8l-.9 -.1l-.7 -.2l-.8 -.4l-.7 -.5l-.3 -.4l-.2 -.3l-.4 -.7l-.2 -.9l-.1 -.8v-12.6l.1 -.9l.2 -.8l.4 -.8l.5 -.6l.7 -.6l.8 -.4l.7 -.2H78.4l.4 .1l.4 .1l.6 .4l.4 .3l.3 .3l.6 .6l.4 .8l.3 .8v14.3l-.3 .9l-.2 .3l-.1 .2l-.1 .2l-.3 .3l-.1 .1l-.1 .1h-.1v.2l-.3 .2l-.4 .3l-.2 .1l-.1 .1l-.3 .2l-.4 .1h-.2v.1H78l-.1 .1h-.4Z" class="g11_46"/>
</svg>