<?xml version="1.0" encoding="UTF-8" standalone="no"?>
<!DOCTYPE svg PUBLIC "-//W3C//DTD SVG 1.1//EN"
"http://www.w3.org/Graphics/SVG/1.1/DTD/svg11.dtd">
<svg viewBox="0 0 909 1286" version="1.1" xmlns="http://www.w3.org/2000/svg" xmlns:xlink="http://www.w3.org/1999/xlink">
<defs>
<clipPath id="c0_17"><path d="M-.2 1286.6v-74.9h910v74.9Z"/></clipPath>
<clipPath id="c1_17"><path d="M693.2 808.4V661.6H832.4V808.4Z"/></clipPath>
<clipPath id="c2_17"><path d="M751 1226.4V1113.5H861.6v112.9Z"/></clipPath>
<style type="text/css"><![CDATA[
.g0_17{
fill: none;
stroke: #000;
stroke-width: 0.765;
stroke-linecap: square;
stroke-miterlimit: 10;
}
.g1_17{
fill: none;
stroke: #000;
stroke-width: 0.763;
stroke-linecap: square;
stroke-miterlimit: 10;
}
.g2_17{
fill: none;
stroke: #000;
stroke-width: 0.761;
stroke-linecap: square;
stroke-miterlimit: 10;
}
.g3_17{
fill: none;
stroke: #000;
stroke-width: 1.523;
stroke-linecap: square;
stroke-miterlimit: 10;
}
.g4_17{
fill: #000;
}
.g5_17{
fill: none;
stroke: #000;
stroke-width: 0.762;
stroke-linecap: square;
stroke-miterlimit: 10;
}
.g6_17{
fill: #FFF;
}
.g7_17{
fill: none;
stroke: #000;
stroke-width: 1.145;
stroke-linecap: round;
stroke-linejoin: round;
}
.g8_17{
fill: none;
stroke: #000;
stroke-width: 0.763;
stroke-linejoin: round;
}
]]></style>
</defs>
<image clip-path="url(#c0_17)" preserveAspectRatio="none" x="-4" y="1212" width="952" height="131" xlink:href="img/1.jpg"/>
<path d="M168.7 74.2H192M168.7 196.9h23.2m141.8 0h23.2" class="g0_17"/>
<path d="M410.1 196.7h25.2" class="g1_17"/>
<path d="M470.1 209.3l2.3 -1.4" class="g2_17"/>
<path d="M472.4 208.3l3.4 6.1" class="g3_17"/>
<path d="M476.2 214.4l4.5 -18.3m0 0h10.9" class="g2_17"/>
<path d="M589.1 338h23.2" class="g0_17"/>
<path d="M630 337.8h26" class="g1_17"/>
<path d="M679.7 338h23.2" class="g0_17"/>
<path d="M720.4 337.8h25.9m42.3 0h24.9" class="g1_17"/>
<path d="M838.8 338h24.3" class="g0_17"/>
<path d="M136.1 398.7H161" class="g1_17"/>
<path d="M186.5 398.9h24.4m58.1 0h23.2" class="g0_17"/>
<path d="M317.9 398.7h22.3" class="g2_17"/>
<path d="M398.8 398.7h24.9m87.7 10.8h11" class="g1_17"/>
<path d="M548 398.9h23.3" class="g0_17"/>
<path d="M597 398.7h24.3" class="g1_17"/>
<path d="M479.4 549.6h36.7v-.9H479.4v.9Z" class="g4_17"/>
<path d="M479.4 551.5h36.7v-1H479.4v1Z" class="g4_17"/>
<path d="M154 842.1h24.9" class="g1_17"/>
<path d="M337.7 893.9h24.4m61.3 0h23.2" class="g0_17"/>
<path d="M472.3 893.7h24.1" class="g1_17"/>
<path d="M521.2 893.7h24.4m24.6 .2h23.5M356.1 945.4h23.2m25.7 -.1h24.2" class="g0_17"/>
<path d="M454 945.3h24.3" class="g1_17"/>
<path d="M502.9 945.4h23.5M300.5 997.1h23.3" class="g0_17"/>
<path d="M349.5 997h24.1" class="g1_17"/>
<path d="M398.4 997h24.4m24.6 .1h23.5m-296.2 51.8h23.2" class="g0_17"/>
<path d="M215.7 1048.6h26" class="g5_17"/>
<path d="M304.2 1048.8h23.3" class="g0_17"/>
<path d="M353.2 1048.6h24" class="g1_17"/>
<path d="M402.1 1048.6h24.4m24.5 .2h23.6" class="g0_17"/>
<path d="M169.6 1123.7h24.9" class="g1_17"/>
<path d="M220 1123.8h24.4" class="g0_17"/>
<path d="M108.2 1168.7h36.6v-.9H108.2v.9Z" class="g4_17"/>
<path d="M108.2 1170.6h36.6v-.9H108.2v.9Z" class="g4_17"/>
<image preserveAspectRatio="none" x="43" y="93" width="57" height="57" xlink:href="img/2.jpg"/>
<path fill-rule="evenodd" d="M808.2 77.2c-24 0 -43.4 19.5 -43.4 43.4c0 24 19.4 43.4 43.4 43.4c24 0 43.4 -19.4 43.4 -43.4c0 -23.9 -19.4 -43.4 -43.4 -43.4Z" class="g6_17"/>
<path d="M808.2 77.2c-24 0 -43.4 19.5 -43.4 43.4c0 24 19.4 43.4 43.4 43.4c24 0 43.4 -19.4 43.4 -43.4c0 -23.9 -19.4 -43.4 -43.4 -43.4Z" class="g7_17"/>
<path d="M764.8 120.7h86.8m-86.8 0L776.4 91.4m-11.6 29.3L807.6 77.2m-42.8 43.5L838.4 89.9m-73.6 30.8L845.2 143m-.1 .2l6.5 -22.5M776.4 91.2l75.2 29.5M807 77.1l44.6 43.6M838.1 89.4l13.5 31.3" class="g8_17"/>
<path fill-rule="evenodd" d="M808.2 118.9c-1 0 -1.8 .7 -1.8 1.7c0 1 .8 1.8 1.8 1.8c1 0 1.8 -.8 1.8 -1.8c0 -1 -.8 -1.7 -1.8 -1.7Z" class="g4_17"/>
<image preserveAspectRatio="none" x="43" y="218" width="57" height="56" xlink:href="img/3.jpg"/>
<image preserveAspectRatio="none" x="711" y="184" width="130" height="121" xlink:href="img/4.jpg"/>
<image preserveAspectRatio="none" x="43" y="358" width="57" height="56" xlink:href="img/5.jpg"/>
<image preserveAspectRatio="none" x="715" y="487" width="137" height="100" xlink:href="img/6.jpg"/>
<image preserveAspectRatio="none" x="43" y="514" width="57" height="57" xlink:href="img/7.jpg"/>
<image preserveAspectRatio="none" x="43" y="692" width="57" height="57" xlink:href="img/8.jpg"/>
<image clip-path="url(#c1_17)" preserveAspectRatio="none" x="694" y="662" width="138" height="146" xlink:href="img/9.jpg"/>
<image preserveAspectRatio="none" x="772" y="854" width="93" height="72" xlink:href="img/10.jpg"/>
<image preserveAspectRatio="none" x="512" y="971" width="85" height="88" xlink:href="img/11.jpg"/>
<image preserveAspectRatio="none" x="607" y="968" width="85" height="93" xlink:href="img/12.jpg"/>
<image preserveAspectRatio="none" x="706" y="966" width="85" height="92" xlink:href="img/13.jpg"/>
<image preserveAspectRatio="none" x="800" y="964" width="82" height="93" xlink:href="img/14.jpg"/>
<image preserveAspectRatio="none" x="43" y="861" width="57" height="57" xlink:href="img/15.jpg"/>
<image clip-path="url(#c2_17)" preserveAspectRatio="none" x="751" y="1114" width="110" height="112" xlink:href="img/16.jpg"/>
<image preserveAspectRatio="none" x="43" y="1144" width="57" height="57" xlink:href="img/17.jpg"/>
</svg>