<?xml version="1.0" encoding="UTF-8" standalone="no"?>
<!DOCTYPE svg PUBLIC "-//W3C//DTD SVG 1.1//EN"
"http://www.w3.org/Graphics/SVG/1.1/DTD/svg11.dtd">
<svg viewBox="0 0 909 1286" version="1.1" xmlns="http://www.w3.org/2000/svg" xmlns:xlink="http://www.w3.org/1999/xlink">
<defs>
<clipPath id="c0_1"><path d="M-.2 1286.6v-74.9h910v74.9Z"/></clipPath>
<clipPath id="c1_1"><path d="M.1 152.6V0H909.8V152.6Z"/></clipPath>
<clipPath id="c2_1"><path d="M23 203.8V154.1H909.8v49.7Z"/></clipPath>
<style type="text/css"><![CDATA[
.g0_1{
fill: none;
stroke: #000;
stroke-width: 1.099;
stroke-linecap: square;
stroke-miterlimit: 10;
}
.g1_1{
fill: none;
stroke: #FFF;
stroke-width: 1.099;
stroke-linecap: square;
stroke-miterlimit: 10;
}
.g2_1{
fill: none;
stroke: #000;
stroke-width: 1.177;
stroke-linecap: round;
stroke-linejoin: round;
}
.g3_1{
fill: none;
stroke: #000;
stroke-width: 1.177;
stroke-linejoin: round;
}
]]></style>
</defs>
<image clip-path="url(#c0_1)" preserveAspectRatio="none" x="-4" y="1212" width="952" height="131" xlink:href="img/1.jpg"/>
<path d="M221.1 267.7H190.8m84.4 0H244m144.1 0H357M209.9 300.8H177.8m87.1 0H232.8m93.2 0H292.8m97.3 0h-32" class="g0_1"/>
<path d="M323.4 359.1H291.1m87.3 0H346.1m-52.4 33.2H263.6m84.2 0H316.6M95.1 450.4h-32m86.1 0H118.3m86.8 0H172m81.9 11l2.2 -1.2m0 0l5.9 11.9m0 0l3.6 -21.5m.1 0h13.7m105.1 -.2H351.3m97.3 0H416.5m96.3 0H480.7" class="g1_1"/>
<path d="M279.8 531.1H248.6m253 0H471.5m85.1 0H524.5M134.6 564.5H104.5m85.1 0H157.5m126.7 0H254.1m85.1 0H307.1" class="g0_1"/>
<path d="M137.7 621.5H104.5m86.2 0H160.6m86.2 0H213.6m88.2 0H269.7m135.5 0H375.1m144.5 0H487.5M94.4 654.9H63.3m691.5 0H721.6m89.3 0h-33M93.3 688.2h-30m85 0H116.2M97.9 721.4H67.8m85.1 0H120.8" class="g1_1"/>
<path d="M337.7 897.4H305.6M99 930.8H67.8m85.1 0H121.7" class="g0_1"/>
<path d="M438.7 1038.6H407.6m85 0h-31" class="g1_1"/>
<image clip-path="url(#c1_1)" preserveAspectRatio="none" x="0" y="0" width="915" height="152" xlink:href="img/2.jpg"/>
<image clip-path="url(#c2_1)" preserveAspectRatio="none" x="23" y="154" width="1038" height="49" xlink:href="img/3.png"/>
<path d="M681.9 320.3l78.5 -41.6l78.1 41.6H681.9Z" class="g2_1"/>
<path d="M760.4 278.7l-27.1 41.6" class="g3_1"/>
<image preserveAspectRatio="none" x="692" y="530" width="163" height="105" xlink:href="img/4.jpg"/>
<image preserveAspectRatio="none" x="688" y="895" width="160" height="128" xlink:href="img/5.jpg"/>
</svg>