<?xml version="1.0" encoding="UTF-8" standalone="no"?>
<!DOCTYPE svg PUBLIC "-//W3C//DTD SVG 1.1//EN"
"http://www.w3.org/Graphics/SVG/1.1/DTD/svg11.dtd">
<svg viewBox="0 0 909 1286" version="1.1" xmlns="http://www.w3.org/2000/svg" xmlns:xlink="http://www.w3.org/1999/xlink">
<defs>
<clipPath id="c0_3"><path d="M-.2 1286.5v-74.7H909.4v74.7Z"/></clipPath>
<clipPath id="c1_3"><path d="M718.5 322.3V200.6h120V322.3Z"/></clipPath>
<style type="text/css"><![CDATA[
.g0_3{
fill: #000;
}
.g1_3{
fill: none;
stroke: #000;
stroke-width: 0.762;
stroke-linecap: round;
stroke-linejoin: round;
}
.g2_3{
fill: none;
stroke: #000;
stroke-width: 0.759;
stroke-linecap: round;
stroke-linejoin: round;
}
.g3_3{
fill: #FFF;
}
]]></style>
</defs>
<image clip-path="url(#c0_3)" preserveAspectRatio="none" x="-3" y="1212" width="951" height="77" xlink:href="img/1.jpg"/>
<image preserveAspectRatio="none" x="124" y="97" width="63" height="62" xlink:href="img/2.jpg"/>
<image preserveAspectRatio="none" x="230" y="104" width="56" height="55" xlink:href="img/3.jpg"/>
<image preserveAspectRatio="none" x="329" y="93" width="50" height="66" xlink:href="img/4.jpg"/>
<image preserveAspectRatio="none" x="423" y="98" width="63" height="61" xlink:href="img/5.jpg"/>
<path d="M165.6 702.6h36.6v-.9H165.6v.9Z" class="g0_3"/>
<image preserveAspectRatio="none" x="147" y="770" width="76" height="76" xlink:href="img/6.jpg"/>
<image preserveAspectRatio="none" x="270" y="770" width="77" height="76" xlink:href="img/7.jpg"/>
<image preserveAspectRatio="none" x="394" y="770" width="76" height="76" xlink:href="img/8.jpg"/>
<image preserveAspectRatio="none" x="519" y="770" width="76" height="76" xlink:href="img/9.jpg"/>
<path d="M594.3 897.2h25.5m24.9 0h23.7" class="g1_3"/>
<path d="M110.6 934.8h24.1" class="g2_3"/>
<path d="M159.4 934.8h25.2m25.2 0h23.5" class="g1_3"/>
<path d="M43.4 145.9H99.6V89.7H43.4v56.2Z" class="g3_3"/>
<image preserveAspectRatio="none" x="43" y="90" width="57" height="56" xlink:href="img/10.png"/>
<g clip-path="url(#c1_3)">
<image preserveAspectRatio="none" x="718" y="204" width="121" height="116" xlink:href="img/11.png"/>
<image preserveAspectRatio="none" x="723" y="318" width="2" height="1" xlink:href="img/12.jpg"/>
</g>
<path d="M43.4 287.1H99.6V230.9H43.4v56.2Z" class="g3_3"/>
<image preserveAspectRatio="none" x="43" y="231" width="57" height="56" xlink:href="img/13.png"/>
<path d="M43.4 430.1H99.6V373.9H43.4v56.2Z" class="g3_3"/>
<image preserveAspectRatio="none" x="43" y="374" width="57" height="56" xlink:href="img/14.png"/>
<image preserveAspectRatio="none" x="695" y="347" width="143" height="40" xlink:href="img/15.jpg"/>
<image preserveAspectRatio="none" x="706" y="402" width="103" height="102" xlink:href="img/16.jpg"/>
<path d="M43.4 758H99.6V701.8H43.4V758Z" class="g3_3"/>
<image preserveAspectRatio="none" x="43" y="702" width="57" height="56" xlink:href="img/17.png"/>
<image preserveAspectRatio="none" x="750" y="684" width="99" height="98" xlink:href="img/18.jpg"/>
<image preserveAspectRatio="none" x="696" y="511" width="132" height="131" xlink:href="img/19.jpg"/>
<path d="M43.4 593.1H99.6V536.9H43.4v56.2Z" class="g3_3"/>
<image preserveAspectRatio="none" x="43" y="537" width="57" height="56" xlink:href="img/20.png"/>
<image preserveAspectRatio="none" x="739" y="1076" width="56" height="48" xlink:href="img/21.jpg"/>
<image preserveAspectRatio="none" x="739" y="1131" width="96" height="68" xlink:href="img/22.jpg"/>
<path d="M43.4 1149.2H99.6V1093H43.4v56.2Z" class="g3_3"/>
<image preserveAspectRatio="none" x="43" y="1093" width="57" height="56" xlink:href="img/23.png"/>
<image preserveAspectRatio="none" x="717" y="893" width="132" height="121" xlink:href="img/24.jpg"/>
<path d="M43.4 970.7H99.6V914.5H43.4v56.2Z" class="g3_3"/>
<image preserveAspectRatio="none" x="43" y="914" width="57" height="57" xlink:href="img/25.png"/>
</svg>