<?xml version="1.0" encoding="UTF-8" standalone="no"?>
<!DOCTYPE svg PUBLIC "-//W3C//DTD SVG 1.1//EN"
"http://www.w3.org/Graphics/SVG/1.1/DTD/svg11.dtd">
<svg viewBox="0 0 909 1286" version="1.1" xmlns="http://www.w3.org/2000/svg" xmlns:xlink="http://www.w3.org/1999/xlink">
<defs>
<clipPath id="c0_6"><path d="M-.2 1286.6v-75.1h910v75.1Z"/></clipPath>
<clipPath id="c1_6"><path d="M632.2 204.2V68.5H858.4V204.2Z"/></clipPath>
<style type="text/css"><![CDATA[
.g0_6{
fill: #000;
}
.g1_6{
fill: none;
stroke: #000;
stroke-width: 1.099;
stroke-linecap: square;
stroke-miterlimit: 10;
}
.g2_6{
fill: #666;
}
.g3_6{
fill: #B3B3B3;
}
]]></style>
</defs>
<image clip-path="url(#c0_6)" preserveAspectRatio="none" x="-2" y="1212" width="930" height="127" xlink:href="img/1.jpg"/>
<path d="M377.1 91.1h35.5v-.9H377.1v.9Z" class="g0_6"/>
<path d="M107.5 162.7H143v-.9H107.5v.9Z" class="g0_6"/>
<path d="M339.5 539.6h9.2M165.1 583.3h9.2m47.3 0h18.3m47.4 0h18.3m48.3 0h18.4M244.6 725.2h9.1m54.3 0h9.2M155.9 1001h18.4m79.4 0h18.4m79.4 0h18.4m80.5 0h18.3m-153.6 96.9h62.1M315 1144.6H422.9m-287.6 43.9h18.3m45.1 0h18.4m45 0h27.5m65.1 0h36.6" class="g1_6"/>
<image preserveAspectRatio="none" x="43" y="410" width="57" height="57" xlink:href="img/2.jpg"/>
<image preserveAspectRatio="none" x="43" y="543" width="57" height="56" xlink:href="img/3.jpg"/>
<image preserveAspectRatio="none" x="43" y="692" width="57" height="56" xlink:href="img/4.jpg"/>
<image preserveAspectRatio="none" x="43" y="829" width="57" height="57" xlink:href="img/5.jpg"/>
<image preserveAspectRatio="none" x="43" y="966" width="57" height="56" xlink:href="img/6.jpg"/>
<image preserveAspectRatio="none" x="43" y="1131" width="57" height="56" xlink:href="img/7.jpg"/>
<path d="M635 195.2v-4.9h93.3l26.1 -22H857v4.9H756.1l-26.1 22Z" class="g2_6"/>
<path d="M635 186.5v-4.9h88.7l30.7 -22.7H856v4.9H756.1l-30.6 22.7Z" class="g3_6"/>
<path d="M738.8 104.5h.3l.3 -.4l-.3 -.3l-.4 -.2v-.2l.4 -3.8L738.7 95V94h-3.5l-.1 .1l-1.6 .2h-.7V94l-.4 -.4h-.3l5.2 -.3L738 93h.7l1 .6l.4 .4v.3l-.4 2.1l.4 4.9v2.8l-.4 1.1l-.6 .3Zm-.3 0h.3l.3 1Zm-9.9 .3l-.3 -.7l.3 -.7v-2.1l.2 -3l.9 -.2v6l-.4 1.1l-.3 .3Zm3.1 0l-.3 -.7l.3 -1l.4 -3.2V95.4L731.7 94v-.4h.4V94l.3 .3h.4v2.1l-.4 6.7v1h-.7l.4 .4h.3v.3l-.3 .4Zm-68.2 -.3l-.3 -1.1l.3 -.7v-1.4l.4 -3.1l-.4 -1.1l-.3 .4l-1.8 2.1l-1 .3l.3 -.3l1.8 -2.1l1.4 -3.2l.7 -1.7v-.3l.7 .3l.7 .4v.3l-.4 .3l-.3 .7l-1.1 2.1v.4l.4 .7v6.3l-.4 .7l-.3 .7Zm48.4 0l-.3 -.7l.3 -.4V97.5l-1 1l-1.1 .7l-.3 .4h-.4l.4 -.4l1 -1l1.1 -1.8l1.3 -2.8l.4 -1.3l.3 -.4h.4l.7 .7l-.4 .4l1.4 .3l.4 .3l.3 .7h-.7L715 94l-.7 -.7l-.3 .3l-.7 1.8h.3l.7 -.4h1.1l.3 .4l-.7 .3h-.7l-.3 .4l-.7 -.4h-.4v.4l-.6 1h.3l2.1 -.3l.3 -.4h.4l.3 .4l.7 .3v.4l-.3 .7l-.7 2.1v.3h-2.8v2.5h.3l1.8 -1.1l-.4 -.3v-.4h.4l1 .4l.4 1l-.4 .4h-.3l-.4 -.7l-2.4 2.1l-.3 .3Zm.7 -4.2l1.4 -.4h.7l.3 -1.4V97.1l-1.4 .4h-.7v1l1.1 -.3h.7l.3 .3l-.3 .4h-2.1Zm-16.4 4.2l-.3 -1.1l.3 -.7v-2.1l.4 -3.1l-.3 -1.4l.4 -.5l.2 .5l.4 .7v6.6l-.4 1.1l-.3 .3Zm42.6 0l-.1 -.7H738l.4 .3l.1 .4h-6.1v-.4l4.2 -.3l1.8 -.4l.3 .2v.2Zm-17.2 -.4l-1.3 -1.4l-1.8 1.1l-1.4 .7l-.7 -.4h.4l1.7 -1l1.4 -1.4l-1.4 -2.1l-.7 -.7v1l-.7 2.1l-1 1.8l-.7 .3l.7 -1.4l.3 -.7l.7 -2.8V95.4l-.3 -.4l-.4 -.3h.4L721 94l.3 -.4l.7 .4l.7 .3l-.7 .4h-2.1l-1.7 .3v2.8h1.4l1.7 -.7h.7l.3 .4l.4 .3v.4l-.4 .7l-1.3 2.8l1.3 1l2.1 1.1h.4l-.4 .3l-2.1 .4Zm-2.4 -4.2l1.1 1.1l.7 -1.4l.3 -1.4h-.7l-1.4 .3h-.7Zm-13.8 3.2h.2l.4 -.4l-.4 -.3l-.1 -.1l.1 -.3V94h-.7l-4.1 .3h-1.1l-.2 -.3l4.7 -.7l1.4 -.3l.7 .3l.4 .3l.3 .4l-.3 .3v8.4l-.4 1.1l-.7 .7Zm-.1 1l-.5 -1h.6l.2 1.4Zm9.7 0h.4Zm-16.3 -.3v-1.4l.3 -2.1V96.1L698.7 94l.3 -.4h.4l.1 .4H699l.4 .3h.3l-.3 8.4l-.4 .4v.3h.4l-.4 .7Zm37.6 -.4l-1.1 -.7v-.3h1.1v-1.8h.7v2.5l-.7 .7Zm-70 0l-.3 -.7l1.7 -.3h1.4V99.2l-2.1 .4h-1.4l-.7 -.4l.4 -.3l3.8 -.4V95.7h-2.4l-.4 -.3l.4 -.4l4.5 -.7l.7 -.3l.7 .3l.7 .7h-.7l-2.5 .4h-.3h.3l.4 .7v2.1h2.1l1.4 -.4l.3 .4l.7 .3l-.3 .4l-4.2 .3l-.4 2.8h3.2l.7 .7v.4h-4.6l-1.7 .3l-.7 .4Zm59.5 0l1.1 -1.4l.3 -1.7l.4 -.7v-.4h.3l.7 .7l-.3 .4v.3l-1.1 1.8l-.7 .7l-.3 .3Zm-26.1 0h-.3v-.7l3.8 -.3l1.7 -.4l.6 .3l-.2 .4l.1 .4l-.1 -.4h-.7l.2 .4h-1.2l-2.8 .3Zm34.5 -2.1h1v.7l-.3 .4Zm-3.2 .4l-.3 -1.1l-.7 -1v-.4h.4l.3 .4l.7 1v1.1Zm-29.9 0v-.4l-.3 -1v-.7l-.4 -.7h.7l-.3 .3h.3l.4 .4v1.3l-.4 .1v.3h.4v.4Zm2.1 -.4h-1.7v-.4l1.4 -.3h.3v.4h.4l.3 -.4l.3 .4v.3Zm30.6 -.3h-.7l-.3 -.4l.3 -.3h1.1l1.7 -.4h.4v.7h-.7l-1.4 .4Zm3.9 -.4H737v-.7h1.4l.3 .4l-.3 .3Zm-34.1 0h-.4l.4 -.7v-.7l-.4 -.3l-.7 .3h-1v.4v-.4l-.4 -.3h.4l.3 -.1v.1h.7l.1 -.2l.6 -.2h1l.7 .7l-.7 1.1l-.3 .3Zm32.7 -.7v-.7l.3 -.2l.4 .2v.7Zm-2.5 0l-.3 -.3l-.4 -.4h1.4l.7 -.1v.1h.7V99h.4v.2l-1.1 .4l-1 .3Zm3.9 -.7l-.4 -.3l-.3 -.4l.2 -.2l.5 .2h.3v.7l-.3 .4Zm-44.2 -.3l1.7 -2.1L696.9 94l.4 -1.7v-.4h.7l.7 .7l-.4 .4l-.3 .6l-1.3 2l-.1 -.2l-.4 .3l.1 .4l-.4 .7l-1.7 1.7l-1.1 .7Zm-14 .3l-1 -.3l-.7 -.4l.3 -.3l2.8 -.4l4.2 -.3l2.4 -.4h1.4l1.1 .4l.3 .3l.4 .4h-3.2l-3.8 .3l-3.5 .7Zm55.7 -.7l.7 -.2V99l-.7 .1Zm1.2 .5l.6 -.1v-.4l.3 .4H737l-.4 .1Zm-.1 -.1l.1 .1h-.1ZM702 97.1h.9l-.3 1.6l-.8 .1Zm34.6 1.1l.4 .3Zm-2.1 .3h-.3l.3 -.3v-.1l.7 -.1v.5Zm-.7 0v-1l-.3 -.7l-.4 -.4h.4l.3 .4l.3 -.1l.1 .1v.3l.1 .3l-.1 .1h.1l.2 .6l-.3 .1v.3Zm-6.2 0h-.7l-.7 -.3h.3l2.4 -.5l-.1 .6l-.9 .2Zm9.4 -.3h-.4h.7l-.1 .1Zm-1.1 -.4H737l-.4 .4h-.3l-.4 .1Zm1.4 .4l-.3 -.4v-.7h.3l-.3 -.3v-.4h-1.1v-.5l.7 -.2h.7l.4 .4l.3 .3v.7Zm-7.6 -.6l.3 -.1h1l.4 .3H731l-1.3 .3Zm5.5 -.1h.7v.3l-.7 .2ZM729 96.1V94l-.4 -1v-.4h.4l.7 .4l.3 .3v.3l-.3 1.4v2.6l-.8 .1Zm6.9 1.4v-.6l.4 -.1h.7v.3h-.4l-.3 .4Zm-.7 0h-.9v-.1l.2 -.3l.7 -.1Zm-7.6 -.7l-.7 -1.4V95l.3 .4l.7 .3l.4 .7v.4l-.4 .3Zm-24.7 .3l.3 -.8l.7 -.2l.7 .3h.3l-.3 .4l-1.4 .3Zm-1.8 0h-.7l-.3 -.3h.3l1.6 -.3v.6Zm34.1 -.7h.7v.5l-.7 .1Zm-4.8 -.7l.3 -1v-.4l.7 .4l.3 .7l-.3 .3l-.7 .4l-.7 .7Zm3.4 .7h-.3l1.7 -.3v.3l-1.1 .3Zm-31.6 -1V94.3h.3l.4 .4l.7 .3l-.4 .4v.9l-.7 .1l-.5 .1Zm33 .2l.7 -.1v.4l-.7 .2Zm-1.4 .1l-.3 -.3h.3l1.4 -.3v.5l-.7 .1Zm2.1 -.7v-.1l.7 -.2l.7 .3v.4h-1l-.4 .1Zm-.7 -.3l-.3 -.4l.2 -.2l.8 -.1v.9l-.3 .1l-.4 .1Z" class="g0_6"/>
<path d="M745 135.2v-5.3l-2.5 .4h-.3l-.7 -.4l-.4 -.3h.4l3.5 -.7v-6.6l-.4 -.4h1.1l.7 .7l-.4 .4v5.9l.7 -.4h.7l.7 .4l.7 .3l-.7 .4H746v1.7l-.3 3.5l-.4 1.1Zm-33.8 0l-3.1 -2.5L706 131l-1.1 1l-.7 1.1l-1 .7l-.7 .3v-.3l1.7 -1.8l1.1 -1.7v-1.8h1l.4 .7l-.4 .7l-.3 .7l.7 .4l1.7 1l-.3 -3.8v-.4l-.4 -.3h-1.4l-.3 -.4h.7l2.1 -.3l1.4 -.3h1l.4 .3l-.4 .3h-1.7l-.4 .4l.4 .3v.4l-.4 .3v1.1l1.8 -.4h1l.4 .4l-.4 .3h-1.4l-.7 .4l-.7 -.4v2.5l2.1 1l3.8 .7l.7 .4l-.3 .3l-1.4 .4l-1.4 .3Zm26.5 -.4l-.4 -1l.4 -.7L738 131v-2.8l-2.1 .3h-.7l-.7 -.3l-.3 -.4h.3l3.5 -.7v-3.4l-.3 -1.1v-.3l.3 -.4l.7 .7l.7 .4l-.3 .3v1.4l-.4 2.4h.7l1 -.3l.7 .3v.4h-.3l-2.1 .3v6.3l-.3 .7l-.4 .4Zm-41.1 -.9l.3 -.1l-.3 -.4l.3 -1.7v-.4l-.3 -1.7h-3.5v-.4h-.3l3.1 -.3l.7 -.4l.7 .4l.7 .3l-.4 .4v1.7l.4 2.1l-.4 1.4l-.7 .4Zm0 .9l-.4 -.8l.4 -.1l.3 1.3Zm-8 .4l-1.4 -1.4v-.4h1.4l.3 -1.7v-1.6l.7 -.5v4.2l-.3 1l-.4 .4Zm-14.3 0l-.3 -.4l-.4 -.3v-1.8l.4 -2.8l-1.8 .4l-.3 1.7l-.7 1.4l-1.1 1.1l-.7 .3l1.1 -1.4l.7 -1.7v-1.4l-.4 .3h-1.7l-.4 -.7h.4l2.1 -.3v-2.1h-.4l-1 -.4v-.3h.3l2.8 -.3l1.4 -.7h.4l.7 .3l.3 .4h-.3l-1.4 .3l.3 .3l.4 .4v1.7l.3 -.3l.7 .3l.4 .4h-.4l-1 .3v5.3Zm-2.1 -6.3v.7l1.8 -.4v-.3l-.4 -1.4v-.7v.3h-1.7l.3 .4l.4 .3h-.4Zm58.5 5.9h-.3l-.4 -.3l-1 -1.1L727.6 131v-.4l-.7 1.4l-1.1 1.4l-.7 .7l-1 .4l-.7 .3v-.3h.3l1.4 -1.1l.7 -1l.4 -1.4l.3 -1.4v-1.4l1.1 .3l.3 .4v.3l-.3 .7v.4L729 132l1 1.1l1.4 .7l.7 .3l.7 .4l-.4 .3Zm-10.8 -.3v-1.1l.4 -1v-3.9l-.4 -.7l-.7 1.1l-1 .7l-.7 .3v-.3l1 -1.1l1.1 -1.7l1.7 -3.1v-1.4l.3 -.4h.4l.7 .7v.4l1.4 .3l.3 .4l.4 .7v.3h-.7l-.7 -.7l-1.1 -.7v.4l-1 2.1l.3 -.4h1.1l.3 -.3l.4 .3h.7l-.7 .4H723l-.7 .3h-.7l-.3 -.3l-.3 .3l-.4 1l2.1 -.3l.7 -.3l.7 .6l.3 .4v.3l-.3 .7l-.4 1.8l-.3 .3v.4l-.4 -.4h-1.4l-.3 .4l-.3 -.4v2.5l2 -.7l-.7 -.7v-.4h.4l.3 .4l1.1 .3v1.4h-.7l-.4 -.7l-2 1.8l-.7 .3Zm2.4 -4.6h.4l.3 .4l.4 -1.4h-.7l-.7 .3h-1v1.1l1 -.4ZM721 127.8v1.1l1.3 -.4h1.1v-.7l-.4 -.3h-2Zm-28.6 6.7l-.3 -.7l.3 -.4v-3.8l-.3 -.4h.7v.4h.3v1.9l-.3 .2l.3 .3v1.4h-.3v.7h.3v.4l-.3 .3Zm-10.1 .3h-.7l-.7 -.3l-.7 -.7l-.3 -.7l-.4 -1.1v-4.5l-.3 .3l-1.1 .4h-.3l-.4 1l.7 .4l.7 .3l.4 .7l-.4 .4l-1 -.7l-.4 -.4l-.3 3.5l1.7 -.3l.4 -.4v.4l-1.4 1l-1.1 .7h-.3l-.7 -.3l-.3 -.4v-.3h1l.7 -7.7l-.4 -.3l-.6 -.4l-.4 -.3h.4l3.8 -1.1h1l.7 .7l-.7 .4h-2.1l-1 .3l.3 .7v.4l-.3 1l1.7 -.7l.4 -.3h.3l.4 .3l.7 .7l-.4 .3l-.3 .4l-.4 1V131l.4 1.7l.7 .7l.7 .4l.7 -.4v-.7l.3 -.7v-.3v.3l.4 .7l.3 1.1v.3l-.3 .7Zm11.9 -.7h-1.1v-.7h2.1l.7 -.3h.3l.4 .3v.5v-.1l-.7 -.4l.3 .6l-.3 .1Zm40 -1.4l.7 -.7l.7 -1.4l.3 -1l.4 -.4h.7l.3 .4l-.3 .3v.4l-.7 .7l-.7 1l-1.1 .7ZM693.8 132h-.7v-.5l.4 -.2l2 -.3h1.1l.3 .3v.1l-.3 .3h-.7l-1.4 .3Zm-7.7 0l-.6 -.3l-.4 -.4V131h.7l3.1 -1.8v.9l-.3 .2l-2.1 1.7Zm54.3 -.7l-.3 -.7l-.7 -1v-.4h.3l.7 .4l.7 .7v1l-.3 .4Zm-50.8 -2.5l1.1 -.6l.7 -.4v.7l-1.8 1.1Zm-35.5 .1l-.7 -.4l.4 -.3h2.8l3.8 -.7h2.8l1.4 -.4l1 .4l.4 .3l.3 .4l-.3 .3h-6.7l-3.4 .7l-1.1 .4Zm34.8 -2l.7 -.1v2l-.7 .4Zm35.9 1.3l1 -1.7l.7 -2.5l.4 -1.4v-.3l.7 .3l.3 .7l-.3 .7l-1.1 2.5l2.5 -.4l.7 -.3l1 .3l.7 .7l-.4 .3l-.3 .4l-1.4 .7H729l.7 -1.4l-.4 -.3l-.7 .3l-1.7 .3h-.7l-.7 .7l-.7 .7Zm18.4 0h-.3l-.7 -1.4h-.4l.4 -.3h.3l1.1 .6l.3 .4l-.3 .7Zm-49.4 -.7h-.7l-.3 -.7l-.4 -.3v-3.9l-.3 -.3h1l.4 .3v.4l-.2 1.4l-.5 .3l.3 .4h.1l-.1 1.4l.4 .3h2.7l.7 -.3l.7 .3l.4 .3l-.4 .4l-2.8 .3Zm10.1 -.4l-.3 -.3v-.7l1 -2.1l.3 .4h3.9l-.7 -1.1l-.7 -1h.3l1.1 .3l.7 .4v1l2.8 -.3h.6l.7 .3l1.1 1.1l-.4 .3H714l-2.4 .7l1 -1.7h-.3l-2.8 .3l-3.5 .4h-.7l-.4 1l-.7 1Zm-17.8 0v-.3l.4 -.3l2.4 -.4v.8l-1.7 .2Zm3.5 -1.2l.7 -.1h.4l.7 .3l.3 .4h-.3l-1.8 .3Zm49.8 .6v-.4l.7 -1l.3 -.7V124l.7 .4l.4 .3v.4l-1.8 1.4Zm-2.8 0h-.3l-1.1 -1.4v-.4h.7l1.1 .7l.3 .7l-.3 .4Zm-47.7 -2.8l-.3 -1.1v-.7h.3l.7 .4l.7 .3l-.3 .4l-.4 1.7v1.2l-.7 .2Zm-16 2.1l1.1 -2.1l.3 -1.4h.7l.7 .7h-.3l-.4 .7l-1.4 1.7l-.3 .4Zm70.7 -.4h-.4l-1 -1V124h.7l1 .4v1Zm-72.8 -.7l-.3 -1h.7l.7 .3l.3 .7l-.3 .4l-.4 .3Zm23 .4h-.6l.1 -.7h.2l2 -.4l.4 -.3l1 .3l.4 .4l-.7 .3h-.7l-1.4 .4Z" class="g0_6"/>
<path d="M794.7 181.9l5.3 -.7l.3 1.1l-5.2 1Z" class="g0_6"/>
<image clip-path="url(#c1_6)" preserveAspectRatio="none" x="633" y="69" width="225" height="135" xlink:href="img/8.jpg"/>
<path d="M820.8 178.4l-1 -1l.4 -.4h.3l-.3 .4l.3 .3l.3 -.7l.4 .4l-.7 .3l.7 .7Zm-1.4 -.7h.1v-.1l.3 -.2v.3l-1 .4Zm-.3 -.7l.4 .4v.2l-.1 .1Zm0 0h-.3l.7 -.3v-.3l-.4 .3v-.3l.7 -.4h1.4v.4h-1.7l.3 .3h.4l.6 -.3h.4l-.4 .3Zm1.1 -.3l-.4 -.3Z" class="g0_6"/>
<path d="M820.2 180.9h.6Zm0 0v-.4Zm-1.1 0v-.4v.4l-.3 -1.1l-.4 1.1v-.4l.4 -1l.3 -1.1v1.1l.4 -.7l-.4 .7v.3v-.3v1l.7 -.3h1v.3h-.6v-.3h-.4v.3l-.3 .4Zm1.7 -.7h-.6v-.4h.3l-.3 -.3h.6v.3h-.3h.3Zm-1.3 0h.3Zm.3 -.4v-.6v.3h.4h-.4v.3h.4Zm-.3 0h.3Zm.3 -.6v-.1h.4v-.7l.3 .4h.3v.3l-.3 -.3l-.3 .3h.6v.4Zm-.3 .3h.3Zm-.7 -.7v.7Zm.7 .3h.3v.1Zm.3 -.3h.4Z" class="g0_6"/>
<path d="M819.5 183.3h1Zm0 0v-.7v.4Zm-.4 -.3v.3Zm-.3 .3V183l.3 .3Zm-.4 0V183l.4 .3Zm-.3 -.3h.3l-.3 .3Zm2.1 0l.3 -.7v.7Zm-.4 0h.4Zm-1.4 -.4h.4v-.7h-.4l.4 .4h-.4v.7h-.3l.3 -1.4l.4 -.7v.3h.7l-.4 .4l.4 .3v-.7h1v.4h-.7l-.3 .3h.7v.7h-.4v-.7l-.3 .7v-.3l-.4 .3v-.7h-.3v.7h.3v.4Zm0 -1h.4l.3 -.4h-.3Zm1.1 1h.3Zm1 -.3v-.7Zm-1.7 0h.3Z" class="g0_6"/>
<path d="M819.8 186.1l-.3 -.3h.3l.4 .3Zm-.7 0v-.7l.4 .7Zm-.7 -.7l.4 .4v.3Zm-.3 0l-.4 .4Zm1 0h.7Zm.7 -.3v-.7h-.7v.3l.7 .4h-.7v.3h-.3v-.3l-.7 -.4h.7l.3 -.3h-.7l-.3 .3v.4l.7 .3h-.7V184h.3l.4 -.3h1v.3l-.3 .4h.3l.4 .3l-.4 .7Zm-1.7 -.7h1l.4 -.4h-1.1Z" class="g0_6"/>
<image clip-path="url(#c1_6)" preserveAspectRatio="none" x="633" y="69" width="225" height="135" xlink:href="img/9.jpg"/>
<path d="M792.7 149.5l-2.8 -1.8l-1.1 .7l-1 .4l-1.1 .7h-2.1v-.4h.4l1.4 -.3l1.4 -.7l1.4 -.7l-2.1 -.7l-.4 -.4V146l.7 -1.1l-2.4 .4h-.7l-1 -.4l-.4 -.3l.4 -.4h4.5l.3 -1.3v-.4h-1.7v.4l-.4 -.4v-.3l-.3 -1.1l-.4 -.7l-.3 -.7h1l1.8 -.3l-.4 -1.1v-.7H786l-.3 -.3h.7l3.1 -.7l2.1 -.4h.4l.7 .4l.3 .3h-.7l-1.4 .4l.4 .7l-.4 1l1.4 -.3h1l.4 .3l.7 .4l-.4 .3l-.3 .7l-.4 1.8l-.6 .3h-.4l-.3 -.3l-1.4 .3h-1.8l.4 .7v.3l-.4 .4h2.1v-.7l.7 .3l.7 .4l2.4 -.4h.7l.7 .4l.7 .3l-.3 .4H792l-.4 .7l-1 1.7h.7l1.7 1.1l.3 .7l.4 .3v.4l-.4 .3Zm-4.9 -3.9l-.4 .4h.4l1.7 .7l.7 -1.1l.7 -1h-2.8Zm-1.4 -5.2l.3 1.8l1.1 -.4v-1.7h-1.4Zm5.6 1.1l.3 .3l.4 -1v-1.4H792l-1.1 .3l-.3 2.1l1 -.3Zm-3.5 -1.4v1.7h1.4l.3 -2.1h-.7Zm-.4 -2.5l.4 .4v1.4h.7l1 -.4v-.7l-.3 -.7v-.3Zm-10.4 10.5l-1.1 -1.4l-1.7 -2.1l-.3 -.4h.7l1.7 1.1l1 .7l.4 .7l.3 1v.4l-.3 .3Zm-10.8 .3l1.7 -1.7l1.4 -1.8l.4 -.7l1 .4h.4l.3 .3l-.3 .4l-1.1 .7l-2.1 1.7l-1 .4l-.4 .3Zm3.5 -5.5l-.4 -.7v-1.4l-.3 -1.4l-.7 -1.1l.3 -.3h.7l.4 .3l2.4 -.3l2.5 -.7h1l.7 .3l.7 .7l-.4 .4l-.3 .7l-.7 2.4l.3 .4l-.3 .3h-1.7l-2.5 .4h-1.4v.3Zm2.4 -4.2l-2.4 .3v.4l.3 2.8l3.5 -.4h.7l.7 -1.7v-1.8h-.7Z" class="g0_6"/>
<path d="M802.7 149.1l-1.7 -.7l-.7 -.7L800 147l-.4 -1l-.3 -1.1l.3 -1l.4 -.7l.7 -.3l1 -.4l.7 .4l.7 .3l.3 .7l.4 .7l-.7 1.4l-.4 1v.4l.7 .7l1.8 .3l1 -.3l.7 -1.1l.7 -1.4v-1.4l-.3 -1.7l-.4 -1.4l-1 -1h-2.8V139h1.7l1.1 -.3l.7 -.7l.7 -1.1v-2.8l-.4 -1l-.7 -1.1l-1 -.3h-.7l-.7 .3l-.4 .4l-.3 .7l.7 .7l.3 .7v1.4l-.7 .7l-.7 .7H801l-.7 -.7l-.3 -.7v-2.1l.3 -.7l.7 -.7l.7 -.7l1.7 -.7l2.1 -.4l2.1 .4l1.8 .7l1 .7l.7 1l.3 1.1v1l-.3 1.4l-.3 1.1l-1.1 .7l-1.4 .7l1.8 .7l1 1l.7 1.4v2.8l-.4 1.4l-.6 .7l-1.1 .7l-2.1 1l-2.8 .4Z" class="g0_6"/>
<path d="M819.5 148.8l-2.1 -.4l-1.4 -.7l-1.1 -1l-.3 -1.1v-1l.3 -.7l.7 -.4l1.1 -.3l.7 .3l.7 .4l.3 .7l.4 .7l-.4 1l-.3 .7l.3 .7h1.8l.6 -.7l.4 -.7l.7 -1.4l.3 -1.7l.4 -2.4l-1.4 1l-1.7 .4h-1.4l-1.1 -.4l-1 -.3l-1.1 -.7l-.3 -1.1l-.7 -.7l-.4 -1.4v-2.4l.4 -1.4l.7 -1.1l1 -1l1.1 -.7l1 -.4l1.1 -.3l1.4 -.4l1.7 .4l1.4 .7l1.4 .7l.7 1.4l.7 1.4l.3 1.4l.4 3.1v2.1l-.4 1.8l-.7 1.3L825 146l-1.4 1l-1 1.1l-1.4 .7Zm0 -17.5l-.4 .4l-.7 1.4l-.3 1.7l-.4 1.8l.4 2.1l.7 1.7l.7 .7h.7l1.3 -.3l1.1 -1.1l-.4 -4.9l-.3 -1.7l-.4 -1.1l-.7 -.7l-.6 -.3Z" class="g0_6"/>
<path d="M837.2 148.4l-1 -.7l-.7 -1v-4.2l-.4 -.7v-.7l-1.4 .4l.4 .7v.3l-.4 .7l-.7 1.4l-.7 1l-.7 1.1l-1 .7l-1.1 .7h-.6l2 -2.1l1.1 -1.4l.3 -1.4l.4 -1.4h-2.5l-.3 -.3h.3l7 -1.4l1.4 -.4l.7 .4l.7 .3l-.4 .4l-3.4 .3h.3l.4 .7v.4l-.4 1l-.3 1.7l.3 1.4l.4 .7l.7 .4h2l.7 -.4l.7 -.7l.4 -1.7v.3l.7 1.4l.3 .7l-.3 .4l-.7 .7l-1.1 .3l-1.7 .4Zm9.1 -.3l-.4 -.7l.4 -.7l.7 -.4l1 .4l.3 .7l-.3 .7l-1 .3Zm.7 -3.2l-.7 -7.6v-.7l.7 -.4l1 .4v.7l-.7 7.6Zm-15 -6.6l-.4 -.3l.7 -.4l2.5 -.3l1.4 -.4h1l.4 .4l-.4 .3l-1.7 .4l-2.5 .3Z" class="g0_6"/>
<image clip-path="url(#c1_6)" preserveAspectRatio="none" x="633" y="69" width="225" height="135" xlink:href="img/10.jpg"/>
<path d="M842.8 126.8h-.4l-.7 -1l-1 -1.1l-.4 -.3h.7l1.1 .3l1 .7v1.4Zm-7 0h-.3l1.4 -1l1 -1.4l.3 -.4v-.3h-.6v.3h-.4l-.3 -1l.3 -1.1v-1.7l-.3 -.7l.3 -.4h.4l3.1 -.3h1l.7 .3l.4 .4V123l-.4 .7l-.3 .7l-.4 -.4l-.3 -.3h-3.2l.7 .3l.4 .4v.3l-.7 .7l-1.7 .7l-.7 .7Zm2.1 -3.5L840 123h1.4v-1.1H841l-.7 .4h-2.4Zm0 -1.4l2.4 -.3h1.1v-1.1l-.4 .4h-2.1l-.7 .3l-.3 -.3Zm3.5 -1.4v-1h-2.1l-1.4 .3v.7l2.4 -.3h1.1Zm-32.7 6l-1.1 -.7l-.7 -.4l-2.1 1.1h-1.7l2.1 -.7l1 -1.1l-.7 -.7l-.3 -.3l-1.4 1l-.7 .4l1 -1.4l.4 -.4h-.7l-.4 -.3h1.4l.4 -.7v-.4l.3 -.3h.4l.3 .7l-.3 .3l2.1 -.3h.7l.3 .7l-.7 1l-.7 .7l.7 .4l2.8 1l1 .4h-.3l-2.1 .3Zm-3.2 -3.2l1.4 1.1l.7 -1.1l.4 -.3l-.4 -.4l-1 .4h-1.1Zm-31.3 3.2l-1.4 -1.1v-.3h.4l1 .3l.4 -.7l.3 -1l-2.4 -.4l-1.8 .4l-1.4 .3v.4L769 124v-1l.3 -1.1l.4 -1.4l-1.8 .4h-1.4l-.6 -.4l-.4 -.3h.4l3.8 -.4l.3 -1l-.3 -1.8v-.3h1v.3l4.2 -.7h.7l1 .4l.4 .3l-.4 .4v1.4l-.3 .7h1.4l1.7 -.4l.7 .4l.4 .7v.3h-1.1l-2.8 -.3h-.3V123h1l.7 .3l.4 .7l.3 .4l-.3 .3l-.7 -.3l-1.8 -.4v1.1l-.6 1.4l-.7 .3Zm1.1 -3.5v-.4l.3 -2.4l-3.8 .3h-1.1L770 123h.4l2.4 -.4Zm-4.2 -5.3l-.4 2.1h2.5l2.4 -.3V117h-.3l-3.5 .4h-.7Zm62.3 8.4v-1.7l.3 -2.1v-4.2l-.3 .3l-1.8 1.8l-1 .7l.3 -.4l1.8 -2.4l1.4 -2.8l.3 -2.1l.4 -.4l.3 .4l.4 .3l.3 .4l-.3 .3l-.4 .7l-1.4 2.5l.4 .3l.7 .7l-.4 .7v6.3l-.3 .7v.4Zm-11.9 0l-1 -.3l-.7 -.4l-.7 -1.4l-.3 -.7l-.4 -.3l.4 -.4l.3 .4l.4 .3l.7 1.1l1 .7l1.7 .3l1.8 -.3h.3l-.7 -1.1v-.3h.4l1.7 1.4l.4 .3l-.4 .4l-.3 .3l-2.5 .4ZM801 125.8l-.3 -.7V124l.3 -1.7v-4.2l-.3 .3l-1.8 1.8l-.7 .3v-.3l1.8 -2.1l1.4 -2.8l.7 -1.8v-.3l.6 .3l.4 .7v.4l-.4 .7l-1.3 2.1h.3l.4 .7v.7l-.4 3.5v3.8l-.3 .4Zm15.7 0h-.4l-.3 -.7l.3 -.4L817 123v-.4l.4 .4v2.1l-.4 .7Zm-33.1 -.4l-.7 -1.4v-.3h.4l1 .7l.3 .7l-.3 .3l-.3 .4Zm19.1 -.3h.4Zm-14.6 0l-.7 -.4l-.7 -.3h.4l2.4 -.4l-.3 -6.6l-.4 -.7v-.4h.4l.7 .4l2.4 -.7l.7 -.4h.3l.7 .4l.4 .3v.7l-.4 1.1l-.3 5.6h1.7l.7 .3l.7 .4l-.3 .3h-5.2l-2.8 .4Zm2.1 -1.1h2.5l.3 -2.8l-.7 .4H792l-.7 .3h-1.1v-.3v.3Zm1.8 -3.1h.7l.3 .3v-2.1h-.7l-.3 .4h-1.8v1.7h.4l1 -.3Zm-1.8 -3.5v1.7h.4l1 -.3H793V117l-.3 -.3l-1.1 .3h-1.4Zm-4.2 7h-.3L784.6 123v-.4h.7l.7 .7l.4 .7v.4Zm41.8 -.4h-.3l-.7 -.7l-1.1 -1h-.3v-.4h.3l1.4 .4l.7 .7l.4 .3v.7Zm-5.9 -.3l-.7 -1.1v-.3h.3l1.1 .3l.3 .7l-.3 .4l-.4 .3Zm-34.5 -.4l-1 -1.4h.7l.7 .4l.3 .3l-.3 .7Zm30.7 -1.4l-.4 -.7h1.8l1.7 -.3v-1.4l-.7 .3h-1v.4h-.4l-.3 -.7v-1.1l-.4 -1.4l-.3 -.7h-.4l.4 -.3h.3l.4 .3l2.4 -.3v-1.1h-2.8v-.3h.4l2 -.4v-1.4l-.3 -.3l.3 -.4l1.1 .4h.3v.7l-.3 .7h1.7v-.4l.7 .4l.4 .3h-.4l-2.1 .7h-.3V116l1.4 -.4l1 -.3l.7 .3l.7 .7l-.7 1.1l-.7 1.7v.4l-.3 .3l-.4 -.3h-1.7v1.4l1.7 -.4v-.3l-.3 -.4h.3l1.1 .4l.3 .7l.4 .3v.4l-.4 .3l-.3 -.3l-.4 -.7H824l-3.5 .7l-1.4 .3l-.3 .4Zm1.4 -2.8h1.7v-1h-1.7Zm2.4 -.3h1.7l.4 -1.1h-2.1Zm-2.8 -1.4l.4 .3l1.7 -.3v-.7h-2.1Zm4.2 -.4h.3l.4 .4V116l-2.1 .3v1.1l.7 -.4Zm-39 5.3l-.3 -.4l-.4 -.3v-.4l1 -1l1.4 -1.8l-1 .4l-.7 .3H784l-.4 -.3l-.3 -.7l.3 -.4l.7 -.3L785 116l1 -2.1v-.4l.7 .4l.4 .3l-.4 .7l-2.1 2.8v.4h1.8l.7 -1.8l.3 -.3l.4 .7l.3 .3l-.3 .7l-1.4 1.4l-1.4 1.8v.3l1.7 -.7h.4l-.4 -.7h.4l.7 .4l.3 .7v.3h-.7l-.3 -.3l-2.5 1.4Zm-11.1 0h-.4l-.7 -1.1v-.3h.4l.7 .3l.3 .7v.4Zm33.4 -.7l-1.1 -.4l-.3 -.7l-.4 -.3l.4 -.4v.4l.7 .3l.3 .4l1.1 .3l.7 -.3v-1.1l.3 .4l.7 .7l.4 .3l-.4 .4l-1.4 .3Zm-2.8 0v-.7l.3 -.7l.4 -.4v.4l.3 .3l-.3 .7l-.4 .4Zm-1.4 -.7v-.7l.7 -1.4v-.4l.3 .4h1.4l-.3 -2.8v-.7h1l.7 -1.1v-.3h-2.1l-.3 -.4h.7l2.4 -.3l1.8 -.4h1v.4l-.3 .3l-1.8 .4h-.7l.4 .3l-.4 .7l-.7 .4l1.4 -.4l.4 -.3h.3l.4 .3l.7 .7l-.4 .4l-.3 2.4h1.7l.7 -.3l.7 .7l.7 .7h-.4l-.3 .3l-1.7 .4l.7 -1.1l-.4 -.3l-6.3 .7h-.7v.7l-.3 .7l-.4 .3Zm3.1 -2.1H808v-1.1h-.7l-1.1 .4h-.7Zm0 -1.1l1.4 -.3H808v-.7h-1.8l-.3 .3h-.4Zm0 -1.4v.4v-.4l1.4 -.3h.4l.7 .3v-.7l-.4 -.3l-1 .3h-1.1Zm3.9 3.9l-1.1 -.7v-.4h.7l.7 .4l.4 .3l-.4 .4l-.3 .3Zm-2.5 .3l-.7 -.7l-.3 -.3h.7l.7 .3v.7Zm-34.1 -1.4l-.7 -1v-.4l.7 .4h.7v1l-.3 .4Zm63.7 -.7v-.3l-.3 -.7l-.4 -1.1l-.3 -.3l.3 -.4h.4v.4h.3l1.4 -.4v-.7l-.3 -.3v-.4h-.7l-.4 -.3h.4l4.1 -.7h1.4l.4 .3l-.7 .4H841l.4 .3l.3 .4l-.3 .7l1 -.4h1.1l.7 .4l.3 .7l-.3 .3l-.4 .4l-.7 1.4h-2.4l-2.1 .3h-1l-.7 -.3v.7Zm2.4 -.7l1.1 -.3l.3 -1.4h-1.4Zm-2 -1v1h1.3l-.3 -1.4h-1Zm4.1 .7h1.4l.4 -1.4H841Zm-2.4 -3.2l.3 .4l-.3 .3v.7l1.7 -.3v-1.4Zm-71 2.8l.5 -.2l-.2 .2Zm1.4 -1.7l1.4 -1.8v-1l.3 -.4h.4l.7 .7v.4l-.4 .3l-.7 1.1l4.2 -1.1h.7l1 .4l.4 .3h-.4l-4.1 .7l-1.4 .4l-.7 -.4l-.7 .7l-1.4 1.1l-.2 .1Z" class="g0_6"/>
</svg>