<?xml version="1.0" encoding="UTF-8" standalone="no"?>
<!DOCTYPE svg PUBLIC "-//W3C//DTD SVG 1.1//EN"
"http://www.w3.org/Graphics/SVG/1.1/DTD/svg11.dtd">
<svg viewBox="0 0 909 1286" version="1.1" xmlns="http://www.w3.org/2000/svg" xmlns:xlink="http://www.w3.org/1999/xlink">
<defs>
<clipPath id="c0_4"><path d="M-.2 1286.6v-75.1h910v75.1Z"/></clipPath>
<clipPath id="c1_4"><path d="M751.5 1169.7v-69.4H860.6v69.4Z"/></clipPath>
<style type="text/css"><![CDATA[
.g0_4{
fill: none;
stroke: #000;
stroke-width: 0.761;
stroke-linecap: square;
stroke-miterlimit: 10;
}
.g1_4{
fill: none;
stroke: #000;
stroke-width: 0.763;
stroke-linecap: square;
stroke-miterlimit: 10;
}
.g2_4{
fill: none;
stroke: #000;
stroke-width: 1.527;
stroke-linecap: square;
stroke-miterlimit: 10;
}
.g3_4{
fill: #000;
}
.g4_4{
fill: none;
stroke: #000;
stroke-width: 0.907;
stroke-linecap: square;
stroke-miterlimit: 10;
}
]]></style>
</defs>
<image clip-path="url(#c0_4)" preserveAspectRatio="none" x="-2" y="1212" width="930" height="127" xlink:href="img/1.jpg"/>
<path d="M592.4 388h23.1" class="g0_4"/>
<path d="M641.2 388h25.1M350.4 428.4l2.3 -1.3" class="g1_4"/>
<path d="M352.7 427.5l3.4 6.1" class="g2_4"/>
<path d="M356.5 433.6L361 415.4m0 0h10.9M469 428.7l2.3 -1.4" class="g1_4"/>
<path d="M471.3 427.7l3.4 6.2" class="g2_4"/>
<path d="M475.1 433.9l4.5 -18.5m0 0h10.1" class="g1_4"/>
<path d="M602.5 621.8h36.7v-.9H602.5v.9Z" class="g3_4"/>
<path d="M766 767.8h36.6v-.9H766v.9Z" class="g3_4"/>
<path d="M766 769.6h36.6v-.9H766v.9Z" class="g3_4"/>
<path d="M172.8 794.5h10.8m152.9 0h10.8m132.8 0H491m152.1 0H654M145.3 1029h10.8m134.4 0h10.9m69.6 0h10.9M136.1 1171.4H147m59.4 0h10.9m59.3 0h18.1m59.4 0h18.1" class="g4_4"/>
<image preserveAspectRatio="none" x="698" y="68" width="130" height="94" xlink:href="img/2.jpg"/>
<image preserveAspectRatio="none" x="44" y="89" width="56" height="57" xlink:href="img/3.jpg"/>
<image preserveAspectRatio="none" x="742" y="216" width="99" height="99" xlink:href="img/4.jpg"/>
<image preserveAspectRatio="none" x="44" y="233" width="56" height="56" xlink:href="img/5.jpg"/>
<image preserveAspectRatio="none" x="712" y="387" width="130" height="79" xlink:href="img/6.jpg"/>
<image preserveAspectRatio="none" x="44" y="406" width="56" height="57" xlink:href="img/7.jpg"/>
<image preserveAspectRatio="none" x="44" y="548" width="56" height="57" xlink:href="img/8.jpg"/>
<image preserveAspectRatio="none" x="44" y="765" width="56" height="57" xlink:href="img/9.jpg"/>
<image preserveAspectRatio="none" x="44" y="884" width="56" height="56" xlink:href="img/10.jpg"/>
<image preserveAspectRatio="none" x="44" y="999" width="56" height="57" xlink:href="img/11.jpg"/>
<image clip-path="url(#c1_4)" preserveAspectRatio="none" x="752" y="1101" width="108" height="68" xlink:href="img/12.jpg"/>
<image preserveAspectRatio="none" x="44" y="1120" width="56" height="56" xlink:href="img/13.jpg"/>
</svg>