<?xml version="1.0" encoding="UTF-8" standalone="no"?>
<!DOCTYPE svg PUBLIC "-//W3C//DTD SVG 1.1//EN"
"http://www.w3.org/Graphics/SVG/1.1/DTD/svg11.dtd">
<svg viewBox="0 0 909 1286" version="1.1" xmlns="http://www.w3.org/2000/svg" xmlns:xlink="http://www.w3.org/1999/xlink">
<defs>
<clipPath id="c0_23"><path d="M-.2 1286.6v-74.9h910v74.9Z"/></clipPath>
<clipPath id="c1_23"><path d="M646.5 675.3V533.6H866V675.3Z"/></clipPath>
<clipPath id="c2_23"><path d="M693.1 187.6V62.5H812.6V187.6Z"/></clipPath>
<clipPath id="c3_23"><path d="M717.5 928.4V750H840.3V928.4Z"/></clipPath>
<style type="text/css"><![CDATA[
.g0_23{
fill: #DCDDDD;
}
.g1_23{
fill: none;
stroke: #000;
stroke-width: 1.17;
stroke-linecap: round;
stroke-miterlimit: 8;
}
.g2_23{
fill: none;
stroke: #000;
stroke-width: 0.92;
stroke-linecap: square;
stroke-miterlimit: 10;
}
.g3_23{
fill: none;
stroke: #000;
stroke-width: 0.918;
stroke-linecap: square;
stroke-miterlimit: 10;
}
.g4_23{
fill: none;
stroke: #000;
stroke-width: 0.763;
stroke-linecap: square;
stroke-miterlimit: 10;
}
.g5_23{
fill: none;
stroke: #000;
stroke-width: 0.767;
stroke-linecap: square;
stroke-miterlimit: 10;
}
.g6_23{
fill: none;
stroke: #000;
stroke-width: 1.527;
stroke-linecap: square;
stroke-miterlimit: 10;
}
.g7_23{
fill: none;
stroke: #000;
stroke-width: 0.764;
stroke-linecap: square;
stroke-miterlimit: 10;
}
.g8_23{
fill: none;
stroke: #000;
stroke-width: 1.529;
stroke-linecap: square;
stroke-miterlimit: 10;
}
.g9_23{
fill: none;
stroke: #000;
stroke-width: 0.915;
stroke-linecap: square;
stroke-miterlimit: 10;
}
.ga_23{
fill: #000;
}
.gb_23{
fill: none;
stroke: #000;
stroke-width: 0.152;
stroke-linecap: square;
stroke-miterlimit: 10;
}
]]></style>
</defs>
<image clip-path="url(#c0_23)" preserveAspectRatio="none" x="-4" y="1212" width="952" height="131" xlink:href="img/1.jpg"/>
<path d="M769.1 398.5l17.3 -17.1l18.4 17.1l-18.4 18.3Z" class="g0_23"/>
<path d="M742.5 398.5L724.1 381.4l18.4 -18.3h26.6l17.3 18.3l-17.3 17.1H742.5Zm62.3 0L786.4 381.4l18.4 -18.3h26.5l18.5 18.3l-18.5 17.1H804.8ZM742.5 434L724.1 416.8l18.4 -18.3h26.6l17.3 18.3L769.1 434H742.5Zm62.3 0L786.4 416.8l18.4 -18.3h26.5l18.5 18.3L831.3 434H804.8Z" class="g1_23"/>
<image clip-path="url(#c1_23)" preserveAspectRatio="none" x="647" y="534" width="219" height="141" xlink:href="img/2.jpg"/>
<path d="M278.2 219.9h23.5" class="g2_23"/>
<path d="M327.5 219.8h24.4" class="g3_23"/>
<path d="M136.8 452.2h11.1" class="g4_23"/>
<path d="M197.9 452.2h10" class="g5_23"/>
<path d="M259.4 468.2l2.3 -1.3" class="g4_23"/>
<path d="M261.7 467.3l3.4 6.1" class="g6_23"/>
<path d="M265.5 473.4L270 455.2m0 -.1h10.9m-23.5 -2.9h25.1" class="g4_23"/>
<path d="M335.2 468.2l2.4 -1.3" class="g7_23"/>
<path d="M337.6 467.3l3.4 6.1" class="g8_23"/>
<path d="M341.3 473.4l4.5 -18.3m0 0h11m-23.5 -2.9h47.1" class="g7_23"/>
<path d="M187.1 529.8h23.5m375.6 0h23.5m-455.3 75h24.5" class="g2_23"/>
<path d="M153.4 632.3h26" class="g9_23"/>
<path d="M153.4 659.6h24.3m-22.5 27.5h24.4" class="g3_23"/>
<path d="M509.3 996.6H546v-.9H509.3v.9Z" class="ga_23"/>
<path d="M509.3 998.4H546v-.9H509.3v.9Z" class="ga_23"/>
<path d="M258.9 1063.4l1.8 -1.1m0 0l4.5 7.4m0 0l4.9 -19.4m0 0h9.4" class="gb_23"/>
<path d="M264.8 1069.7l-4.5 -6.8l-1.3 .8l-.3 -.5l2.6 -1.4l3.9 5.9l4.5 -17.8h9.8v.9h-9.1l-4.7 18.9Z" class="ga_23"/>
<path d="M258.1 1091.1l1.9 -1m0 0l4.4 7.3m0 0l4.9 -19.4m0 0H279" class="gb_23"/>
<path d="M264 1097.4l-4.5 -6.8l-1.2 .8l-.3 -.5l2.5 -1.4l4 6l4.5 -17.9h10v.9h-9.4l-4.7 18.9Z" class="ga_23"/>
<image preserveAspectRatio="none" x="44" y="89" width="56" height="56" xlink:href="img/3.jpg"/>
<image clip-path="url(#c2_23)" preserveAspectRatio="none" x="693" y="63" width="119" height="124" xlink:href="img/4.jpg"/>
<image preserveAspectRatio="none" x="44" y="239" width="56" height="56" xlink:href="img/5.jpg"/>
<image preserveAspectRatio="none" x="703" y="214" width="128" height="109" xlink:href="img/6.jpg"/>
<image preserveAspectRatio="none" x="44" y="377" width="57" height="56" xlink:href="img/7.jpg"/>
<image preserveAspectRatio="none" x="44" y="548" width="56" height="57" xlink:href="img/8.jpg"/>
<image clip-path="url(#c3_23)" preserveAspectRatio="none" x="718" y="750" width="122" height="178" xlink:href="img/9.jpg"/>
<image preserveAspectRatio="none" x="44" y="778" width="56" height="56" xlink:href="img/10.jpg"/>
<image preserveAspectRatio="none" x="44" y="995" width="56" height="56" xlink:href="img/11.jpg"/>
</svg>