<?xml version="1.0" encoding="UTF-8" standalone="no"?>
<!DOCTYPE svg PUBLIC "-//W3C//DTD SVG 1.1//EN"
"http://www.w3.org/Graphics/SVG/1.1/DTD/svg11.dtd">
<svg viewBox="0 0 909 1286" version="1.1" xmlns="http://www.w3.org/2000/svg" xmlns:xlink="http://www.w3.org/1999/xlink">
<defs>
<clipPath id="c0_3"><path d="M-.2 1286.6v-57.8h910v57.8Z"/></clipPath>
<style type="text/css"><![CDATA[
.g0_3{
fill: #CFC;
}
.g1_3{
fill: #70AD47;
}
.g2_3{
fill: #FCF;
}
.g3_3{
fill: #FFF4FF;
}
.g4_3{
fill: #F90;
}
.g5_3{
fill: #FFC;
}
.g6_3{
fill: #FFE3FF;
}
.g7_3{
fill: none;
stroke: #000;
stroke-width: 1.252;
stroke-linecap: square;
stroke-miterlimit: 10;
}
.g8_3{
fill: none;
stroke: #00F;
stroke-width: 1.252;
stroke-linecap: square;
stroke-miterlimit: 10;
}
.g9_3{
fill: none;
stroke: #000;
stroke-width: 0.908;
stroke-linecap: square;
stroke-miterlimit: 10;
}
.ga_3{
fill: none;
stroke: #000;
stroke-width: 0.905;
stroke-linecap: square;
stroke-miterlimit: 10;
}
]]></style>
</defs>
<image clip-path="url(#c0_3)" preserveAspectRatio="none" x="-2" y="1229" width="930" height="128" xlink:href="img/1.jpg"/>
<path fill-rule="evenodd" d="M57.4 91.8H861.9v-24H57.4v24Z" class="g0_3"/>
<path d="M65.3 91.8H854v-24H65.3v24Z" class="g0_3"/>
<path d="M56.7 67.8h.7v-.7h-.7v.7Z" class="g1_3"/>
<path d="M56.7 67.8h.7v-.7h-.7v.7Z" class="g1_3"/>
<path d="M57.4 67.8H861.9v-.7H57.4v.7Z" class="g1_3"/>
<path d="M861.9 67.8h.7v-.7h-.7v.7Z" class="g1_3"/>
<path d="M861.9 67.8h.7v-.7h-.7v.7Z" class="g1_3"/>
<path d="M56.7 91.8h.7v-24h-.7v24Z" class="g1_3"/>
<path d="M861.9 91.8h.7v-24h-.7v24Z" class="g1_3"/>
<path d="M210.5 145.8l-3.7 -.1l-3.8 -.3l-3.6 -.3l-3.7 -.5l-3.7 -.5l-3.6 -.7l-3.6 -.7l-3.7 -.9l-3.5 -.9L174 139.8l-3.6 -1.1l-3.5 -1.3l-3.5 -1.3l-3.5 -1.5l-3.4 -1.5l1.1 -2.3l1.4 -2.2l1.4 -2.3l1.5 -2.1l1.5 -2.2l1.8 -2l1.7 -2.1l2 -2l2.4 -2.5l2.6 -2.2l2.6 -2.2l2.7 -1.9l2.8 -1.9l2.8 -1.6l2.9 -1.5l3 -1.3l2.9 -1.2l3.1 -1.1l3.1 -.9l3.3 -.6l3.2 -.6l3.4 -.4l3.4 -.2l3.4 -.1l3.5 .1l1.6 .1l1.8 .1l1.6 .2l1.7 .2l1.6 .3l1.6 .3l1.6 .3l1.6 .3l3.2 .9l3 1.1l1.5 .5l1.6 .7l1.4 .6l1.5 .7l1.4 .7l1.5 .8l1.4 .8l1.4 .8l1.4 .9l1.4 1l1.3 .9l1.3 1l2.7 2.2l1.2 1.1l1.3 1.1l1.3 1.2l1.3 1.3l1.8 2l1.8 2.1l1.7 2l1.6 2.2l1.5 2.1l1.4 2.3l1.3 2.2l1.3 2.3l-4.1 1.5l-4 1.5l-4 1.3l-3.9 1.3l-4 1.1l-3.9 1.1l-4 .9l-3.9 .9l-3.9 .7l-3.8 .7l-3.9 .5l-3.8 .5l-3.9 .3l-3.8 .3l-3.7 .1l-3.8 .1Z" class="g2_3"/>
<path d="M212.3 206.3l-3.5 -.1l-3.4 -.1l-3.3 -.1l-3.3 -.2l-3.2 -.2l-3.1 -.3l-3.1 -.2l-3 -.4l-2.9 -.4l-2.9 -.4l-2.8 -.5l-2.7 -.5l-2.7 -.5l-2.6 -.6l-2.5 -.5l-1.3 -.4l-1.2 -.3l-2.3 -.7l-1.1 -.4l-1 -.3l-2 -.7l-1.8 -.7l-1.6 -.7l-.8 -.4l-.7 -.4l-1.4 -.7l-1.2 -.8l-.5 -.4l-.5 -.4l-.5 -.4l-.3 -.4l-.7 -.8l-.6 -.9l-.2 -.5l-.2 -.4l-.2 -.8l-.1 -.5v-.9l.1 -.3V188l.2 -.8l.3 -.9l.5 -.8l.7 -.7l.7 -.8l.9 -.8l1.1 -.7l1.2 -.7l1.3 -.7l1.4 -.7l1.6 -.7l1.8 -.6l1.9 -.7l2 -.6l2.1 -.6l2.4 -.6l2.5 -.7l2.6 -.6l2.7 -.5l2.7 -.5l2.8 -.5l2.9 -.4l2.9 -.4l3 -.3l3.1 -.3l3.1 -.3l3.2 -.2l3.3 -.2l3.3 -.1l3.4 -.1l3.5 -.1h7l3.5 .1l3.4 .1l3.3 .1l3.3 .2l3.2 .2l3.1 .3l3.1 .3l3 .3l2.9 .4l2.9 .4l2.8 .5l2.8 .5l2.7 .5l2.6 .6l2.6 .7l2.2 .6l2.2 .6l2 .6l1.9 .7l1.7 .6l1.6 .7l1.4 .7l1.4 .7l1.1 .7l1.1 .7l.9 .8l.8 .8l.6 .7l.5 .8l.3 .9l.3 .8l.1 .2v1.1H215.8v17Z" class="g3_3"/>
<path d="M146.9 188.8l.3 -.7l-.1 .3v.5Z" class="g4_3"/>
<path d="M290 219.3v-1.9l-.1 -1.9v-1.8l-.3 -3.6l-.3 -3.5l-.5 -3.4l-.3 -1.7l-.4 -1.7l-.8 -3.3l-.9 -3.2l-1.1 -3.2V190l-.2 -.4l-.1 -.3l-.1 -.3l-.1 -.2l-.2 -.6l-.1 -.1V188l-.3 -.8l-.3 -.9l-.5 -.8l-.6 -.7L282 184l-.9 -.8l-1.1 -.7l-1.1 -.7l-1.4 -.7l-1.4 -.7l-1.6 -.7l-1.7 -.6l-1.9 -.7l-2 -.6l-2.2 -.6l-2.2 -.6l-2.6 -.7l-2.6 -.6l-2.7 -.5l-2.8 -.5l-2.8 -.5l-2.9 -.4l-2.9 -.4l-3 -.3l-3.1 -.3l-3.1 -.3l-3.2 -.2l-3.3 -.2l-3.3 -.1l-3.4 -.1l-3.5 -.1h-7l-3.5 .1l-3.4 .1l-3.3 .1l-3.3 .2l-3.2 .2l-3.1 .3l-3.1 .3l-3 .3l-2.9 .4l-2.9 .4l-2.8 .5l-2.7 .5l-2.7 .5l-2.6 .6l-2.5 .7l-2.4 .6l-2.1 .6l-2 .6l-1.9 .7l-1.8 .6l-1.6 .7l-1.4 .7l-1.3 .7l-1.2 .7l-1.1 .7l-.9 .8l-.7 .8l-.7 .7l-.5 .8l-.3 .9l-.2 .8v.1l-.3 .7l-1.2 3.3l-1.1 3.4l-.9 3.5l-.7 3.5l-.6 3.6l-.4 3.7l-.2 3.7l-.1 3.9v.9l.1 1h-37l37.3 -62.6H337.9L309 219.3Z" class="g5_3"/>
<path d="M141.8 219.3l-.1 -1v-.9l.1 -3.9l.2 -3.7l.4 -3.7l.6 -3.6l.7 -3.5l.9 -3.5l1.1 -3.4l1.2 -3.3l.2 .1v.4l.1 .5l.2 .8l.2 .4l.2 .5l.6 .9l.7 .8l.3 .4l.5 .4l.5 .4l.5 .4l1.2 .8l1.4 .7l.7 .4l.8 .4l1.6 .7l1.8 .7l2 .7l1 .3l1.1 .4l2.3 .7l1.2 .3l1.3 .4l2.5 .5l2.6 .6l2.7 .5l2.7 .5l2.8 .5l2.9 .4l2.9 .4l3 .4l3.1 .2l3.1 .3l3.2 .2l3.3 .2l3.3 .1l3.4 .1l3.5 .1h3.5v13Z" class="g6_3"/>
<path d="M213.9 293.2H212l-1.9 -.1l-1.8 -.2l-3.7 -.4l-3.6 -.6l-3.5 -.8l-3.5 -1l-1.7 -.5l-1.7 -.6l-1.7 -.6l-1.6 -.7l-1.6 -.7l-1.6 -.8l-1.6 -.8l-1.6 -.8l-3.1 -1.9l-3 -1.9l-3 -2.2l-2.9 -2.4L167.5 275l-1.4 -1.3l-2.7 -2.6l-1.3 -1.4l-1.3 -1.4l-1.2 -1.4l-1.2 -1.4L157.2 264l-1 -1.4l-1.1 -1.5l-1 -1.4l-1 -1.5l-.9 -1.5l-1 -1.6l-.8 -1.5l-1.6 -3.1l-.7 -1.6l-.7 -1.6L146.2 244l-.7 -1.7l-.5 -1.6l-.5 -1.8l-.4 -1.7l-.8 -3.4l-.4 -1.8l-.3 -1.7l-.4 -3.6l-.2 -1.9l-.1 -1.8l-.1 -1.9v-1.8h74v11.8l20.1 -11.8H290l-.1 1.8l-.1 .9v1l-.2 1.8l-.1 1.9l-.5 3.6l-.3 1.7l-.2 .9l-.1 .9l-.4 1.7l-.5 1.7l-.4 1.7l-.2 .4l-.1 .5l-.2 .9l-.6 1.6l-.5 1.7l-.6 1.6l-.7 1.7l-.7 1.6l-.8 1.6l-1.5 3.1l-.5 .8l-.4 .7l-.9 1.6l-1 1.5l-.9 1.5l-.3 .3l-.3 .4l-.5 .7l-1 1.5l-.6 .7l-.5 .7l-1.1 1.5l-1.2 1.4l-1.2 1.4l-.7 .7l-.3 .3l-.3 .4l-1.2 1.4l-1.4 1.3l-1.4 1.3l-1.4 1.3l-1.4 1.2l-1.5 1.2l-1.4 1.2l-1.5 1.1l-1.5 1.1l-.8 .4l-.7 .5l-1.5 1l-1.6 .9l-.8 .5l-.4 .2l-.3 .3l-.5 .1l-.4 .3l-.8 .4l-1.5 .8l-.9 .4l-.7 .4l-1.6 .7l-1.7 .7L241 289l-1.8 .6l-.8 .2l-.8 .3l-.9 .3l-.9 .2l-1.7 .5l-.5 .1l-.4 .1l-.9 .2l-1.7 .4l-1.8 .3l-1.8 .3l-3.6 .4l-1.9 .2l-1.9 .1h-1.9l-1.9 .1Z" class="g2_3"/>
<path d="M284.6 189.3v-.4l.2 -.1l.1 .2l.1 .3Z" class="g6_3"/>
<path d="M284.6 188.5v-.3l.2 .6l-.2 .1Z" class="g4_3"/>
<path d="M284.5 190v-.4l.1 -.3h.4l.1 .3l.2 .4v.1l-1 .6Z" class="g6_3"/>
<path d="M235.9 219.3l32.2 -19l1.7 -.6l1.6 -.5l1.5 -.6l1.5 -.5l1.3 -.6l.6 -.3l.7 -.3l1.1 -.6l.6 -.2l.5 -.3l1 -.7l.8 -.6l.8 -.6l.7 -.6l.6 -.7v-.1h.1l.1 -.2l.3 -.3l.4 -.6l.3 -.7l1 -.6l1.1 3.2l.9 3.2l.8 3.3l.4 1.7l.3 1.7l.5 3.4l.3 3.5l.3 3.6v1.8l.1 1.9v1.9Z" class="g6_3"/>
<path d="M215.8 206.3v-17h68.8l-.1 .3v.4l-.2 .7l-16.2 9.6l-1.8 .4l-1.8 .6l-2.6 .5l-2.6 .6l-2.7 .5l-2.8 .5l-2.8 .5l-2.9 .4l-2.9 .4l-3 .4l-1.6 .1l-1.5 .1l-1.6 .1l-1.5 .2l-3.2 .2l-3.3 .2h-1.6l-1.7 .1l-1.7 .1h-1.7l-3.5 .1h-3.4Z" class="g3_3"/>
<path d="M215.8 219.3v-13h3.5l3.5 -.1h1.7l1.7 -.1l1.7 -.1h1.6l3.3 -.2l3.2 -.2l1.5 -.2l1.6 -.1l1.5 -.1l1.6 -.1l3 -.4l2.9 -.4l2.9 -.4l2.8 -.5l2.8 -.5l2.7 -.5l2.6 -.6l2.6 -.5l1.8 -.6l1.8 -.4l-32.2 19Z" class="g6_3"/>
<path d="M284.3 190.7l-.3 .7l-.4 .6l-.3 .3l-.1 .2h-.1v.1l-.6 .7l-.7 .6l-.8 .6l-.8 .6l-1 .7l-.5 .3l-.6 .2l-1.1 .6l-.7 .3l-.6 .3l-1.3 .6l-1.5 .5l-1.5 .6l-1.6 .5l-1.7 .6Z" class="g3_3"/>
<path d="M215.8 219.3h20.1l-20.1 11.8Z" class="g2_3"/>
<path d="M264.2 115.9l-1.3 -1.3l-1.3 -1.2l-1.3 -1.1l-1.2 -1.1L256.4 109l-1.3 -1l-1.3 -.9l-1.4 -1l-1.4 -.9l-1.4 -.8l-1.4 -.8l-1.5 -.8l-1.4 -.7l-1.5 -.7l-1.4 -.6l-1.6 -.7l-1.5 -.5l-3 -1.1l-3.2 -.9l-1.6 -.3L229.9 97l-1.6 -.3l-1.6 -.3L225 96.2L223.4 96l-1.8 -.1L220 95.8l-3.5 -.1l-3.4 .1l-3.4 .2l-3.4 .4l-3.2 .6l-3.3 .6l-3.1 .9l-3.1 1.1l-2.9 1.2l-3 1.3l-2.9 1.5l-2.8 1.6l-2.8 1.9l-2.7 1.9l-2.6 2.2l-2.6 2.2l-2.4 2.5l-2 2l-1.7 2.1l-1.8 2l-1.5 2.2l-1.5 2.1l-1.4 2.3l-1.4 2.2l-1.1 2.3l3.4 1.5l3.5 1.5l3.5 1.3l3.5 1.3l3.6 1.1l3.6 1.1l3.5 .9l3.7 .9l3.6 .7l3.6 .7l3.7 .5l3.7 .5l3.6 .3l3.8 .3l3.7 .1l3.7 .1l3.8 -.1l3.7 -.1l3.8 -.3l3.9 -.3l3.8 -.5l3.9 -.5l3.8 -.7l3.9 -.7l3.9 -.9l4 -.9l3.9 -1.1l4 -1.1l3.9 -1.3l4 -1.3l4 -1.5l4.1 -1.5l-1.3 -2.3L274 128.6l-1.4 -2.3l-1.5 -2.1L269.5 122l-1.7 -2L266 117.9l-1.8 -2M147.2 188v.1m0 0l-.1 .3v.9l.1 .5l.2 .8l.2 .4l.2 .5l.6 .9l.7 .8l.3 .4l.5 .4l.5 .4l.5 .4l1.2 .8l1.4 .7l.7 .4l.8 .4l1.6 .7l1.8 .7l2 .7l1 .3l1.1 .4l2.3 .7l1.2 .3l1.3 .4l2.5 .5l2.6 .6l2.7 .5l2.7 .5l2.8 .5l2.9 .4l2.9 .4l3 .4l3.1 .2l3.1 .3l3.2 .2l3.3 .2l3.3 .1l3.4 .1l3.5 .1h7l3.5 -.1h1.7l1.7 -.1l1.7 -.1h1.6l3.3 -.2l3.2 -.2l1.5 -.2l1.6 -.1l1.5 -.1l1.6 -.1l3 -.4l2.9 -.4l2.9 -.4l2.8 -.5l2.8 -.5l2.7 -.5l2.6 -.6l2.6 -.5l1.8 -.6l1.8 -.4l1.7 -.6l1.6 -.5l1.5 -.6l1.5 -.5l1.3 -.6l.6 -.3l.7 -.3l1.1 -.6l.6 -.2l.5 -.3l1 -.7l.8 -.6l.8 -.6l.7 -.6l.6 -.7v-.1h.1l.1 -.2l.3 -.3l.4 -.6l.3 -.7l.2 -.7v-.4l.1 -.3M147.2 188.1l-.3 .7m137.7 -.6l-.1 -.1V188l-.3 -.8l-.3 -.9l-.5 -.8l-.6 -.7L282 184l-.9 -.8l-1.1 -.7l-1.1 -.7l-1.4 -.7l-1.4 -.7l-1.6 -.7l-1.7 -.6l-1.9 -.7l-2 -.6l-2.2 -.6l-2.2 -.6l-2.6 -.7l-2.6 -.6l-2.7 -.5l-2.8 -.5l-2.8 -.5l-2.9 -.4l-2.9 -.4l-3 -.3l-3.1 -.3l-3.1 -.3l-3.2 -.2l-3.3 -.2l-3.3 -.1l-3.4 -.1l-3.5 -.1h-7l-3.5 .1l-3.4 .1l-3.3 .1l-3.3 .2l-3.2 .2l-3.1 .3l-3.1 .3l-3 .3l-2.9 .4l-2.9 .4l-2.8 .5l-2.7 .5l-2.7 .5l-2.6 .6l-2.5 .7l-2.4 .6l-2.1 .6l-2 .6l-1.9 .7l-1.8 .6l-1.6 .7l-1.4 .7l-1.3 .7l-1.2 .7l-1.1 .7l-.9 .8l-.7 .8l-.7 .7l-.5 .8l-.3 .9l-.2 .8v.1m-.3 .7l-.9 2.5m-.8 2.4l-.7 2.5m-.7 2.5l-.5 2.6m-.5 2.5l-.4 2.6m-.3 2.6l-.2 2.6m-.1 2.5l-.1 1.3v1.3m.1 2.6v1.8l.1 1.9l.1 1.8l.2 1.9l.4 3.6l.3 1.7l.4 1.8l.8 3.4l.4 1.7l.5 1.8l.5 1.6l.7 1.7l1.2 3.3l.7 1.6l.7 1.6l1.6 3.1l.8 1.5l1 1.6l.9 1.5l1 1.5l1 1.4l1.1 1.5l1 1.4l1.2 1.5l1.2 1.4l1.2 1.4l1.3 1.4l1.3 1.4l2.7 2.6l1.4 1.3l1.4 1.2l2.9 2.4l3 2.2l3 1.9l3.1 1.9l1.6 .8l1.6 .8l1.6 .8l1.6 .7l1.6 .7l1.7 .6l1.7 .6l1.7 .5l3.5 1l3.5 .8l3.6 .6l3.7 .4l1.8 .2l1.9 .1h1.9l1.9 .1l1.9 -.1h1.9l1.9 -.1l1.9 -.2l3.6 -.4l1.8 -.3l1.8 -.3l1.7 -.4l.9 -.2l.4 -.1l.5 -.1l1.7 -.5l.9 -.2l.9 -.3l.8 -.3l.8 -.2L241 289l1.6 -.6l1.7 -.7l1.6 -.7l.7 -.4l.9 -.4l1.5 -.8l.8 -.4l.4 -.3l.5 -.1l.3 -.3l.4 -.2l.8 -.5l1.6 -.9l1.5 -1l.7 -.5l.8 -.4l1.5 -1.1l1.5 -1.1l1.4 -1.2l1.5 -1.2l1.4 -1.2l1.4 -1.3l1.4 -1.3l1.4 -1.3l1.2 -1.4l.3 -.4l.3 -.3l.7 -.7l1.2 -1.4l1.2 -1.4l1.1 -1.5l.5 -.7l.6 -.7l1 -1.5l.5 -.7l.3 -.4l.3 -.3l.9 -1.5l1 -1.5l.9 -1.6l.4 -.7l.5 -.8l1.5 -3.1l.8 -1.6l.7 -1.6l.7 -1.7l.6 -1.6l.5 -1.7l.6 -1.6l.2 -.9l.1 -.5l.2 -.4l.4 -1.7l.5 -1.7l.4 -1.7l.1 -.9l.2 -.9l.3 -1.7l.5 -3.6l.1 -1.9l.2 -1.8v-1l.1 -.9l.1 -1.8m-5.4 -31.1l-.1 -.2m.8 2l-.2 -.4l-.1 -.3l-.1 -.3l-.1 -.2m-.2 .5v-1.1m.4 1.1h-.4m.2 -.5l-.2 -.6m5.4 31.1h19l28.9 -62.6H142.1l-37.3 62.6h37m0 0H290m0 0v-2.7m-.1 -2.6l-.1 -1.3v-1.2m-.2 -2.6l-.2 -1.3l-.1 -1.2m-.4 -2.6l-.4 -2.5m-.6 -2.5l-.7 -2.5m-.7 -2.6l-.4 -1.2l-.4 -1.3m-1.1 -1.9H215.8" class="g7_3"/>
<path d="M285.3 190v.1l-1 .6l-1.1 .7m-2.2 1.2l-2.1 1.3m-2.2 1.3l-2.1 1.3m-2.2 1.3l-2.1 1.3m-2.4 1.3l-2.2 1.3m-2.1 1.3l-2.1 1.3m-2.2 1.3l-2.1 1.3m-2.2 1.2l-2.1 1.4m-2.2 1.2l-2.1 1.3m-2.2 1.3l-2.2 1.3m-2.2 1.3l-2.3 1.3m-2.3 1.2l-1.5 .9l-.8 .4M233 221l-2.2 1.3m-2.1 1.3l-2.1 1.3m-2.2 1.3l-2.1 1.3m-2.3 1.3l-2.3 1.2m-1.9 .6v-2.5m0 -2.6v-2.6m0 -2.6v-2.6m0 -2.6v-2.6m0 -2.5v-2.6m0 -2.6v-2.6m0 -2.6V197m0 -2.6v-2.5" class="g8_3"/>
<path d="M56.7 92.6h.7v-.8h-.7v.8Z" class="g1_3"/>
<path d="M57.4 92.6H386.7v-.8H57.4v.8Z" class="g1_3"/>
<path d="M386.7 92.6h.7v-.8h-.7v.8Z" class="g1_3"/>
<path d="M387.4 92.6H861.9v-.8H387.4v.8Z" class="g1_3"/>
<path d="M861.9 92.6h.7v-.8h-.7v.8Z" class="g1_3"/>
<path d="M56.7 140.2h.7V92.6h-.7v47.6Z" class="g1_3"/>
<path d="M386.7 140.2h.7V92.6h-.7v47.6Z" class="g1_3"/>
<path d="M861.9 140.2h.7V92.6h-.7v47.6Z" class="g1_3"/>
<path d="M563.6 241.2h23.3" class="g9_3"/>
<path d="M676.9 241.2h23.2" class="ga_3"/>
<path d="M56.7 141h.7v-.8h-.7v.8Z" class="g1_3"/>
<path d="M386.7 141h.7v-.8h-.7v.8Z" class="g1_3"/>
<path d="M387.4 141H861.9v-.8H387.4v.8Z" class="g1_3"/>
<path d="M861.9 141h.7v-.8h-.7v.8Z" class="g1_3"/>
<path d="M56.7 297.7h.7V141h-.7V297.7Z" class="g1_3"/>
<path d="M56.7 298.5h.7v-.8h-.7v.8Z" class="g1_3"/>
<path d="M56.7 298.5h.7v-.8h-.7v.8Z" class="g1_3"/>
<path d="M57.4 298.5H386.7v-.8H57.4v.8Z" class="g1_3"/>
<path d="M386.7 297.7h.7V141h-.7V297.7Z" class="g1_3"/>
<path d="M386.7 298.5h.7v-.8h-.7v.8Z" class="g1_3"/>
<path d="M387.4 298.5H861.9v-.8H387.4v.8Z" class="g1_3"/>
<path d="M861.9 297.7h.7V141h-.7V297.7Z" class="g1_3"/>
<path d="M861.9 298.5h.7v-.8h-.7v.8Z" class="g1_3"/>
<path d="M861.9 298.5h.7v-.8h-.7v.8Z" class="g1_3"/>
<path d="M63.4 63.5h-.6l-.5 -.2L61.8 63l-.4 -.3L61 62.2l-.2 -.3l-.1 -.2l-.1 -.2l-.1 -.3V47.1l.2 -.5l.3 -.5l.4 -.4l.4 -.4l.5 -.3l.5 -.1l.6 -.1H97.1l.5 .1h.3l.3 .1l.5 .3l.5 .4l.3 .4l.3 .5l.2 .5l.1 .6v13l-.1 .2v.3l-.1 .3l-.1 .2l-.2 .2l-.1 .3l-.3 .5l-.5 .3l-.5 .3l-.3 .1l-.3 .1h-.5Z" class="g4_3"/>
</svg>