<?xml version="1.0" encoding="UTF-8" standalone="no"?>
<!DOCTYPE svg PUBLIC "-//W3C//DTD SVG 1.1//EN"
"http://www.w3.org/Graphics/SVG/1.1/DTD/svg11.dtd">
<svg viewBox="0 0 909 1286" version="1.1" xmlns="http://www.w3.org/2000/svg" xmlns:xlink="http://www.w3.org/1999/xlink">
<defs>
<clipPath id="c0_53"><path d="M-.2 1286.6v-57.8h910v57.8Z"/></clipPath>
<style type="text/css"><![CDATA[
.g0_53{
fill: none;
stroke: #000;
stroke-width: 0.612;
stroke-linecap: square;
stroke-miterlimit: 10;
}
.g1_53{
fill: none;
stroke: #000;
stroke-width: 0.825;
stroke-linecap: square;
stroke-miterlimit: 10;
}
.g2_53{
fill: none;
stroke: #000;
stroke-width: 0.763;
stroke-linejoin: round;
}
.g3_53{
fill: #FCF;
}
.g4_53{
fill: none;
stroke: #000;
stroke-width: 1.252;
stroke-linecap: square;
stroke-miterlimit: 10;
}
.g5_53{
fill: #000;
}
.g6_53{
fill: #CFF;
}
.g7_53{
fill: none;
stroke: #000;
stroke-width: 1.247;
stroke-linecap: square;
stroke-miterlimit: 10;
}
.g8_53{
fill: #CFC;
}
.g9_53{
fill: #70AD47;
}
.ga_53{
fill: none;
stroke: #000;
stroke-width: 1.068;
stroke-linecap: square;
stroke-miterlimit: 10;
}
.gb_53{
fill: #FFC;
}
.gc_53{
fill: #CCF;
}
.gd_53{
fill: none;
stroke: #000;
stroke-width: 0.751;
stroke-linecap: square;
stroke-miterlimit: 10;
}
.ge_53{
fill: #F90;
}
.gf_53{
fill: none;
stroke: #000;
stroke-width: 0.854;
stroke-linecap: square;
stroke-miterlimit: 10;
}
.gg_53{
fill: #6F9;
}
.gh_53{
fill: none;
stroke: #000;
stroke-width: 0.906;
stroke-linecap: square;
stroke-miterlimit: 10;
}
.gi_53{
fill: none;
stroke: #000;
stroke-width: 1.099;
stroke-linecap: square;
stroke-miterlimit: 10;
}
.gj_53{
fill: #C39;
}
.gk_53{
fill: #0C0;
}
]]></style>
</defs>
<image clip-path="url(#c0_53)" preserveAspectRatio="none" x="-2" y="1229" width="930" height="128" xlink:href="img/1.jpg"/>
<path d="M748.9 595.8h-.1l-21.9 58.5M782.2 625l-55.3 29.3M837.1 595.8L782.2 625m54.9 -29.2H748.9m-22 58.5h88.8m0 0L782.2 625m0 0L748.9 595.8m66.8 58.5h.1l21.6 -58.5h-.3" class="g0_53"/>
<path d="M701.1 712.9h4.8v-5.7m143.6 73.4h-4.2v4.2m-24.6 .4h29.2l-.1 -77.8M700.9 785.1l-.1 .1H820.7m-90.3 -78H700.9v77.9m29.5 -77.9l-29.5 77.9m119.8 .1l29.1 -77.8m0 0v-.2H730.4" class="g1_53"/>
<path d="M821 707.3v77.9" class="g2_53"/>
<path d="M667.2 927L621.1 881.3l-.5 -.5l-.3 -.2L588.9 856.7H690.2l-.1 .4L621 880.5l69.1 -23.4L667.8 927Z" class="g3_53"/>
<path d="M620.3 880.6l.3 .2Z" class="g3_53"/>
<path d="M588.9 856.7l31.4 23.9l.3 .2l-54.1 45.9Z" class="g3_53"/>
<path d="M620.6 880.8v0l.5 .5Z" class="g3_53"/>
<path d="M566.4 927l.1 -.3l54.1 -45.9l.5 .5L667.2 927Z" class="g3_53"/>
<path d="M690.2 856.7H588.9l-22.4 70l-.1 .3H667.8l22.3 -69.9l.1 -.4m-69.6 24.1l-.3 -.2m.3 .2l-.3 -.2m.3 .2v0m.5 .5l-.5 -.5m.5 .5l-.5 -.5M667.2 927L621.1 881.3m69 -24.2L621 880.5m-.7 .1L588.9 856.7m-22.4 70l54.1 -45.9" class="g4_53"/>
<path d="M620.4 883l-.4 -.1l-.4 -.2l-.3 -.3l-.2 -.3l-.2 -.4l-.1 -.4v-.8l.1 -.4l.2 -.4l.2 -.3l.3 -.3l.4 -.2l.4 -.1h.9l.3 .1l.4 .2l.3 .3l.2 .3l.3 .4l.1 .4v.8l-.1 .2v.2l-.3 .4l-.1 .1l-.1 .1v.1h-.1l-.1 .1l-.1 .2h-.1l-.1 .1l-.2 .1h-.2l-.1 .1h-.4v.1Z" class="g5_53"/>
<path d="M771.8 950.3l.1 -.1l.1 .1Z" class="g3_53"/>
<path d="M717.7 996.4v-.2l54.1 -45.9h.2l-14.7 46.1Z" class="g3_53"/>
<path d="M772 950.3v0l.4 .4Z" class="g3_53"/>
<path d="M757.3 996.4L772 950.3l.4 .4l46.1 45.7Z" class="g3_53"/>
<path d="M779.7 926.1h61.8l-.1 .4l-69.3 23.4Z" class="g3_53"/>
<path d="M771.5 950l.4 .2l-.1 .1Z" class="g3_53"/>
<path d="M771.9 950.2l-.4 -.2l-.2 -.1h.8l-.1 .4Z" class="g3_53"/>
<path d="M717.9 995.7l14.7 -45.9l38.7 .1l.2 .1l.3 .3l-54.1 45.9Z" class="g3_53"/>
<path d="M818.5 996.4L772.4 950.7l-.4 -.4l.1 -.4h61.8L819 996.4Z" class="g3_53"/>
<path d="M771.3 949.9L740.2 926.1h39.5l-7.6 23.8Z" class="g3_53"/>
<path d="M772.1 949.9l69.3 -23.4l-7.5 23.4Z" class="g3_53"/>
<path d="M732.6 949.8l7.6 -23.7l31.1 23.8Z" class="g3_53"/>
<path d="M833.9 949.9l7.5 -23.4l.1 -.4H740.2l-7.6 23.7m38.9 .2l-.2 -.1L740.2 926.1m31.7 24.1l-.1 .1m.2 0h-.2m.6 .4l-.4 -.4m0 0l-.1 -.1m.5 .5l-.4 -.4m0 0v0m61.9 -.4H771.3l-38.7 -.1m39.5 .1l-.1 .4m-.1 -.1l-.4 -.2m.3 .3l-.3 -.3m.5 .3l-14.7 46.1M732.6 949.8l-14.7 45.9l-.2 .7H819l14.9 -46.5m-15.4 46.5L772.4 950.7m69 -24.2l-69.3 23.4m7.6 -23.8l-7.6 23.8m-54.4 46.3l54.1 -45.9" class="g4_53"/>
<path d="M771.6 952.4l-.3 -.1l-.4 -.2l-.3 -.3l-.3 -.3l-.2 -.4l-.1 -.4v-.8l.1 -.4l.2 -.4l.3 -.3l.3 -.3l.4 -.2l.3 -.1h.9l.4 .1l.3 .2l.3 .3l.3 .3l.2 .4l.1 .4l.1 .4v.2l-.1 .2l-.1 .2v.2l-.1 .2l-.1 .1v.1l-.2 .1v.1h-.1v.1h-.1v.1l-.2 .2h-.1l-.1 .1l-.1 .1h-.2l-.2 .1h-.3l-.1 .1Z" class="g5_53"/>
<path d="M603.5 1108.3h23.6l-18.4 21.1Z" class="g6_53"/>
<path d="M565 1108.3h-.9l22.4 -70l17 70Z" class="g6_53"/>
<path d="M603.5 1108.3l-17 -70l.1 -.2H687.9l-60.8 70.2Z" class="g6_53"/>
<path d="M627.1 1108.3l60.8 -70.2h.1L665.5 1108l-.5 .3Z" class="g6_53"/>
<path d="M665 1108.3l.5 -.3v.3Z" class="g6_53"/>
<path d="M565 1108.3h38.5l5.2 21.1l-.6 .6Z" class="g6_53"/>
<path d="M608.7 1129.4l18.4 -21.1H665l-56.1 22.2Z" class="g6_53"/>
<path d="M608.1 1130l-.2 .9l1 -.4m-.2 -1.1l-.6 .6m.6 -.6l.2 1.1m-22.4 -92.2l17 70l5.2 21.1m79.2 -91.3l-60.8 70.2l-18.4 21.1M665.5 1108l-.5 .3l-56.1 22.2m-44.4 -22.2h.5l43.1 21.7M565 1108.3H665.5v-.3L688 1038.1H586.6l-.1 .2l-22.4 70h.4" class="g4_53"/>
<path d="M608.3 1132.2l-.4 -.1l-.4 -.2l-.3 -.3l-.2 -.3l-.2 -.3l-.1 -.4v-.9l.1 -.4l.2 -.4l.2 -.3l.3 -.2l.4 -.2l.4 -.1l.5 -.1l.4 .1l.4 .1l.3 .2l.3 .2l.2 .3l.3 .4l.1 .4v.9l-.1 .1v.3l-.1 .1l-.1 .1h-.1v.1l-.1 .1l-.1 .1v.1h-.1v.1H610l-.1 .2h-.1l-.1 .1l-.1 .1h-.3l-.1 .1h-.4v.1Z" class="g5_53"/>
<path d="M763 1173.8h23.5L768.2 1195Z" class="g6_53"/>
<path d="M724.7 1173.8H763l5.2 21.2l-.6 .5Z" class="g6_53"/>
<path d="M763 1173.8l-16.9 -70l.1 -.3H847.1l-60.6 70.3Z" class="g6_53"/>
<path d="M724.7 1173.8H724l3.2 -10.6l18.9 -59.4l16.9 70Z" class="g6_53"/>
<path d="M723.8 1173.8l3.4 -10.6l-3.2 10.6Z" class="g6_53"/>
<path d="M768.2 1195l18.3 -21.2h37.9l-56 22.3Z" class="g6_53"/>
<path d="M824.4 1173.8l.5 -.3l-.1 .3Z" class="g6_53"/>
<path d="M786.5 1173.8l60.6 -70.3h.1l-22.3 70l-.5 .3Z" class="g6_53"/>
<path d="M767.5 1196.5l.9 -.4l56 -22.3h.4l-7.3 22.7Z" class="g6_53"/>
<path d="M716.7 1196.5l7.3 -22.7h.7l42.9 21.7l-.2 1Z" class="g6_53"/>
<path d="M824.9 1173.5l22.3 -70h-101l-.1 .3l-18.9 59.4m-2.5 10.6H824.8l-7.3 22.7m-50 0l.9 -.4m-.9 .4H716.7l7.3 -22.7m44.2 21.2l-.6 .5m.6 -.5l.2 1.1m-.8 -.6l-.2 1h.1m.7 -1.5L763 1173.8l-16.9 -70m101 -.3l-60.6 70.3L768.2 1195m56.7 -21.5l-.5 .3l-56 22.3m49.1 .4h-50m-40.3 -33.3l-3.4 10.6h.2m0 0h.2m3 -10.6l-3.2 10.6m.2 0h.5l42.9 21.7" class="g7_53"/>
<path d="M767.8 1197.7l-.4 -.1l-.3 -.2l-.4 -.2l-.2 -.4l-.2 -.3l-.1 -.4v-.9l.1 -.4l.2 -.3l.2 -.4l.4 -.2l.3 -.2l.4 -.1l.5 -.1l.4 .1l.3 .1l.4 .2l.3 .2l.2 .4l.3 .3l.1 .4v.9l-.1 .2v.2l-.2 .1v.1h-.1v.1l-.1 .2h-.1v.2h-.1l-.1 .1l-.1 .1h-.1l-.1 .1l-.2 .1l-.2 .1h-.1l-.3 .1h-.1Z" class="g5_53"/>
<path fill-rule="evenodd" d="M57.4 95.3h123V71.5H57.4V95.3Z" class="g8_53"/>
<path d="M65.3 95.3H172.5V71.5H65.3V95.3Z" class="g8_53"/>
<path fill-rule="evenodd" d="M181.1 95.3H350.7V71.5H181.1V95.3Z" class="g8_53"/>
<path d="M189 95.3H342.8V71.5H189V95.3Z" class="g8_53"/>
<path fill-rule="evenodd" d="M351.6 95.3H523.8V71.5H351.6V95.3Z" class="g8_53"/>
<path d="M359.3 95.3H515.9V71.5H359.3V95.3Z" class="g8_53"/>
<path fill-rule="evenodd" d="M524.5 95.3H694.1V71.5H524.5V95.3Z" class="g8_53"/>
<path d="M532.4 95.3H686.2V71.5H532.4V95.3Z" class="g8_53"/>
<path fill-rule="evenodd" d="M694.8 95.3H871.4V71.5H694.8V95.3Z" class="g8_53"/>
<path d="M702.7 95.3H863.5V71.5H702.7V95.3Z" class="g8_53"/>
<path d="M56.7 71.5h.7v-.7h-.7v.7Z" class="g9_53"/>
<path d="M56.7 71.5h.7v-.7h-.7v.7Z" class="g9_53"/>
<path d="M57.4 71.5h123v-.7H57.4v.7Z" class="g9_53"/>
<path d="M180.4 71.5h.7v-.7h-.7v.7Z" class="g9_53"/>
<path d="M181.1 71.5H350.7v-.7H181.1v.7Z" class="g9_53"/>
<path d="M350.7 71.5h.7v-.7h-.7v.7Z" class="g9_53"/>
<path d="M351.4 71.5H523.8v-.7H351.4v.7Z" class="g9_53"/>
<path d="M523.8 71.5h.7v-.7h-.7v.7Z" class="g9_53"/>
<path d="M524.5 71.5H694.1v-.7H524.5v.7Z" class="g9_53"/>
<path d="M694.1 71.5h.7v-.7h-.7v.7Z" class="g9_53"/>
<path d="M694.8 71.5H871.2v-.7H694.8v.7Z" class="g9_53"/>
<path d="M871.2 71.5h.7v-.7h-.7v.7Z" class="g9_53"/>
<path d="M871.2 71.5h.7v-.7h-.7v.7Z" class="g9_53"/>
<path d="M56.7 95.3h.7V71.5h-.7V95.3Z" class="g9_53"/>
<path d="M180.4 95.3h.7V71.5h-.7V95.3Z" class="g9_53"/>
<path d="M350.7 95.3h.7V71.5h-.7V95.3Z" class="g9_53"/>
<path d="M523.8 95.3h.7V71.5h-.7V95.3Z" class="g9_53"/>
<path d="M694.1 95.3h.7V71.5h-.7V95.3Z" class="g9_53"/>
<path d="M871.2 95.3h.7V71.5h-.7V95.3Z" class="g9_53"/>
<path fill-rule="evenodd" d="M57.4 120.1h123V96.3H57.4v23.8Z" class="g8_53"/>
<path d="M65.3 120.1H172.5V96.2H65.3v23.9Z" class="g8_53"/>
<path d="M780.5 277.9h-2l-3.8 -.2l-3.9 -.2l-1.9 -.2l-1.8 -.2l-3.7 -.5l-3.6 -.6l-3.5 -.6l-1.7 -.4l-1.7 -.4l-3.4 -.9l-1.7 -.5l-1.6 -.5L743 271.6l-3.1 -1.2l-3.1 -1.3l-1.5 -.7l-1.5 -.7l-1.5 -.8l-1.4 -.7L728 264.6l-2.7 -1.7l-1.4 -.9l-1.2 -.8l-2.4 -1.8l-1.1 -.9l-1.1 -.9l-1 -.9l-1 -1l-1.9 -1.8l-1.6 -2l-.8 -1l-.7 -1l-.7 -1l-.6 -1l-1.2 -2.1l-1 -2.1l-.7 -2.2l-.7 -2.2l-.2 -1.1l-.2 -1.1l-.2 -1.2l-.1 -1.1v-4.7l.3 -2.3l.4 -2.2l.7 -2.2l.7 -2.2l1 -2.1l1.2 -2.1l1.3 -2l1.5 -2l1.6 -1.9l1.9 -2l2 -1.8l2.2 -1.8l2.4 -1.8l2.6 -1.7l2.7 -1.7l2.9 -1.6l2.9 -1.5l1.5 -.7l1.5 -.7l3.1 -1.3l3.1 -1.2l3.2 -1.1l3.3 -1l3.4 -.8l1.7 -.5l1.7 -.3l3.5 -.7l3.6 -.6l3.7 -.4l3.7 -.4l3.9 -.3l3.8 -.1h7.9l3.9 .1l1.9 .1l1.9 .2l3.7 .4l1.8 .2l1.9 .2l3.6 .6l1.7 .3l1.8 .4l1.7 .3l1.7 .5l1.7 .3l1.6 .5l3.4 1l3.2 1.1l1.6 .6l1.5 .6l1.6 .6l1.5 .7l1.5 .7l1.5 .7l2.9 1.5l1.5 .8l1.4 .8l1.4 .8l1.3 .9l1.3 .8l1.3 .9l1.2 .9l1.1 .9l1.2 .9l1.1 .9l2 1.8l.9 1l.9 1l.9 .9l.8 1l1.5 2l.7 1l.6 1l.6 1.1l.6 1l.5 1l.4 1.1l.5 1.1l.3 1.1l.7 2.2l.2 1.1l.2 1.1l.2 1.2l.1 1.1l.1 1.2v2.4l-.1 1.1l-.1 1.1l-.2 1.2l-.2 1.1l-.2 1.1l-.7 2.2l-.3 1.1l-.5 1.1l-.4 1l-.5 1.1l-.6 1l-.6 1.1l-.3 .5l-.3 .5l-.7 1l-.7 1l-.4 .5l-.4 .5l-.8 1l-.9 1l-.9 .9l-.9 .9l-1 1l-.3 .2l-.3 .2l-.4 .5l-1.1 .9l-1.2 .9l-1.1 .9l-1.2 .9l-1.3 .8l-1.3 .9l-1.3 .9l-1.4 .8l-1.4 .8l-1.5 .8l-1.4 .7l-.8 .4l-.3 .2l-.4 .2l-1.5 .7l-.4 .2l-.4 .1l-.7 .4l-1.5 .6l-1.6 .7l-1.5 .6l-1.6 .6l-1.6 .6l-1.6 .5l-1.7 .5l-1.7 .5l-.8 .2l-.8 .2l-1.7 .5l-1.7 .4l-1.7 .4l-1.8 .3h-.5l-.4 .1l-.8 .2l-1 .1l-.4 .1l-.4 .1l-1.8 .3l-1.9 .2l-1.8 .3l-1.9 .2l-1.8 .2l-1.9 .1l-1.9 .1l-2 .1h-1l-.9 .1h-3.9Z" class="g6_53"/>
<path d="M836.9 200.3l-1.4 -.8l-1.5 -.8l-2.9 -1.5l-1.5 -.7l-1.5 -.7l-1.5 -.7l-1.6 -.6l-1.5 -.6l-1.6 -.6l-3.2 -1.1l-3.4 -1l-1.6 -.5l-1.7 -.3l-1.7 -.5l-1.7 -.3l-1.8 -.4l-1.7 -.3l-3.6 -.6l-1.9 -.2l-1.8 -.2l-3.7 -.4l-1.9 -.2l-1.9 -.1l-3.9 -.1h-7.9l-3.8 .1l-3.9 .3l-3.7 .4l-3.7 .4l-3.6 .6l-3.5 .7l-1.7 .3l-1.7 .5l-3.4 .8l-3.3 1l-3.2 1.1l-3.1 1.2l-3.1 1.3l-1.5 .7l-1.5 .7l-2.9 1.5l-2.9 1.6l-2.7 1.7l-2.6 1.7l-2.4 1.8l-2.2 1.8l-2 1.8l-1.9 2l-1.6 1.9l-1.5 2l-1.3 2l-1.2 2.1l-1 2.1l-.7 2.2l-.7 2.2l-.4 2.2l-.3 2.3v4.7l.1 1.1l.2 1.2l.2 1.1l.2 1.1l.7 2.2l.7 2.2l1 2.1l1.2 2.1l.6 1l.7 1l.7 1l.8 1l1.6 2l1.9 1.8l1 1l1 .9l1.1 .9l1.1 .9l2.4 1.8l1.2 .8l1.4 .9l2.7 1.7l2.9 1.6l1.4 .7l1.5 .8l1.5 .7l1.5 .7l3.1 1.3l3.1 1.2l3.2 1.1l1.6 .5l1.7 .5l3.4 .9l1.7 .4l1.7 .4l3.5 .6l3.6 .6l3.7 .5l1.8 .2l1.9 .2l3.9 .2l3.8 .2h7.9l.9 -.1h1l2 -.1l1.9 -.1l1.9 -.1l1.8 -.2l1.9 -.2l1.8 -.3l1.9 -.2l1.8 -.3l.4 -.1l.4 -.1l1 -.1l.8 -.2h.4l.5 -.1l1.8 -.3l1.7 -.4l1.7 -.4l1.7 -.5l.8 -.2l.8 -.2l1.7 -.5l1.7 -.5l1.6 -.5l1.6 -.6l1.6 -.6l1.5 -.6l1.6 -.7l1.5 -.6l.7 -.4l.4 -.1l.4 -.2l1.5 -.7l.4 -.2l.3 -.2l.8 -.4l1.4 -.7l1.5 -.8l1.4 -.8l1.4 -.8l1.3 -.9l1.3 -.9l1.3 -.8l1.2 -.9l1.1 -.9l1.2 -.9l1.1 -.9l.4 -.5l.3 -.2l.3 -.2l1 -1l.9 -.9l.9 -.9l.9 -1l.8 -1l.4 -.5l.4 -.5l.7 -1l.7 -1l.3 -.5l.3 -.5l.6 -1.1l.6 -1l.5 -1.1l.4 -1l.5 -1.1l.3 -1.1l.7 -2.2l.2 -1.1l.2 -1.1l.2 -1.2l.1 -1.1l.1 -1.1v-2.4l-.1 -1.2l-.1 -1.1l-.2 -1.2l-.2 -1.1l-.2 -1.1l-.7 -2.2l-.3 -1.1l-.5 -1.1l-.4 -1.1l-.5 -1l-.6 -1l-.6 -1.1l-.6 -1l-.7 -1l-1.5 -2l-.8 -1l-.9 -.9l-.9 -1l-.9 -1l-2 -1.8l-1.1 -.9l-1.2 -.9l-1.1 -.9l-1.2 -.9l-1.3 -.9l-1.3 -.8l-1.3 -.9l-1.4 -.8" class="ga_53"/>
<path d="M802.8 258.7l-2 -.1l-2 -.1l-1.9 -.1l-1.9 -.2l-1.9 -.2l-1.8 -.3l-1.7 -.2l-1.8 -.4l-1.7 -.4l-1.7 -.4l-1.6 -.4l-1.6 -.5l-1.5 -.5l-1.5 -.6l-1.5 -.6l.1 -.1l1.1 -.8l1.1 -.7l.5 -.4l.5 -.3l1 -.8l.4 -.4l.4 -.4l.8 -.8l.4 -.4l.4 -.4l.6 -.8l.1 -.3l.1 -.1l.1 -.1l.3 -.4l.5 -.9l.2 -.4l.2 -.4l.2 -.5l.2 -.4l.1 -.5l.1 -.5l.1 -.5l.1 -.4l.1 -1v-.8l.1 -.1l-.1 -1.1l-.1 -1.1l-.3 -1l-.3 -1l-.4 -1l-.5 -.9l-.6 -1l-.6 -.9l-.6 -.7l-.7 -.7l-.7 -.6l-.7 -.7l-.8 -.7l-.9 -.6l-.9 -.6l-.9 -.5l1.6 -.7l1.7 -.6l1.7 -.5l1.8 -.5l1.8 -.5l1.8 -.4l1.9 -.4l2 -.3l3.1 -.4l3.2 -.3l3.3 -.1l3.5 -.1h2.1l2 .1l2 .1l2 .2l1.9 .1l1.9 .3l1.9 .2l1.8 .4l1.8 .3l1.7 .4l1.7 .4l1.7 .5l1.6 .5l1.6 .6l1.5 .6l1.6 .7l1.4 .6l1.3 .7l1.3 .7l1.2 .8l1.1 .7l.9 .8l.9 .7l.8 .8l.7 .8l.6 .9l.5 .8l.5 .9l.3 .9l.2 .9l.2 .9v1.8l-.2 1l-.1 .4l-.1 .4l-.3 1l-.5 .8l-.5 .9l-.3 .4l-.3 .4l-.7 .8l-.4 .4l-.2 .2l-.2 .2l-.9 .8l-.5 .4l-.4 .4l-.6 .3l-.3 .2l-.2 .2l-.6 .4l-.6 .3l-1.3 .8l-.6 .3l-.7 .4l-.7 .3l-.7 .4L832 254l-1.5 .6l-1.6 .5l-1.6 .6l-.9 .2l-.8 .2l-.9 .3l-.8 .2l-.9 .2l-.8 .2l-1.8 .4l-1.8 .3l-1 .1l-.9 .1l-1.9 .3h-1l-.9 .2l-2 .1l-2 .1l-2 .1h-2.1Z" class="gb_53"/>
<path d="M751.6 259.1H750l-1.7 -.2l-1.6 -.1l-1.6 -.2l-1.5 -.3l-1.5 -.2l-1.5 -.3l-1.5 -.4l-1.4 -.5l-1.4 -.4L735 256l-1.3 -.6l-1.3 -.5l-1.3 -.7l-1.2 -.6l-1.2 -.8l-1.1 -.7l-.5 -.4l-.5 -.3l-.9 -.8l-.9 -.8L724 249l-.7 -.8l-.7 -.8l-.5 -.9l-.5 -.9l-.3 -.4l-.2 -.4l-.3 -.9l-.3 -1l-.1 -.5l-.1 -.4v-1l-.1 -.9l.1 -1v-1l.2 -1l.3 -.9l.3 -.9l.5 -.9l.5 -.9l.5 -.8l.7 -.8l.7 -.9l.8 -.8l.9 -.7l.9 -.8l1 -.7l1.1 -.7l1.2 -.7l1.2 -.7l1.3 -.7l1.3 -.6l1.3 -.5l1.3 -.5l1.4 -.5l1.4 -.4l1.5 -.3l1.5 -.4l1.5 -.3l1.5 -.2l1.6 -.2l1.6 -.2L750 221h6.7l1.6 .1l1.6 .2l1.6 .2l1.6 .2l1.4 .3l1.5 .4l1.5 .3l1.4 .4l1.4 .5l1.3 .5l1.3 .5l1.4 .6l1.2 .7l1.3 .7l.3 .1l.3 .3l-1.4 .6l-1.5 .6l-1.3 .7l-1.3 .7l-1.2 .8l-1.1 .7l-.9 .8l-.9 .7l-.8 .8l-.7 .8l-.6 .9l-.5 .8l-.4 .9l-.3 .9l-.3 .9l-.1 .9v1.7l.1 .7l.1 .8l.2 .7l.3 .7l.4 .7l.4 .7l.4 .7l.5 .6l.6 .7l.7 .6l.7 .7l.7 .6l.8 .6l.9 .6l1 .6l.9 .5l1 .6l1 .5l1.2 .6l.3 .1l.4 .2l-.5 .2l-.5 .3l-.9 .4l-.9 .4l-1 .5l-.9 .4l-1 .4h-.3l-.2 .1l-.5 .2l-1 .4l-.9 .2l-.9 .3l-1.8 .4l-1.9 .4l-1 .1l-.9 .2H761l-.5 .1l-.9 .1l-1.1 .1H758l-.5 .1l-2 .1h-1.1l-1.1 .1Z" class="gc_53"/>
<path d="M776.3 253.5l-.3 -.1l-1.2 -.6l-1 -.5l-1 -.6l-.9 -.5l-1 -.6L770 250l-.8 -.6l-.7 -.6l-.7 -.7l-.7 -.6l-.6 -.7l-.5 -.6l-.4 -.7l-.4 -.7l-.4 -.7l-.3 -.7l-.2 -.7l-.1 -.8l-.1 -.7v-1.7l.1 -.9l.3 -.9l.3 -.9l.4 -.9l.5 -.8l.6 -.9l.7 -.8l.8 -.8l.9 -.7l.9 -.8l1.1 -.7l1.2 -.8l1.3 -.7l1.3 -.7l1.5 -.6l1.4 -.6l.9 .5l.9 .6l.9 .7l.8 .6l.7 .7l.7 .6l.7 .7l.6 .7l.6 .9l.6 1l.5 .9l.4 1l.3 1l.3 1l.1 1.1l.1 1.1l-.1 .1v.8l-.1 1l-.1 .4l-.1 .5l-.1 .5l-.1 .5l-.2 .4l-.2 .5l-.2 .4l-.2 .4l-.5 .9l-.3 .4l-.1 .1l-.1 .1l-.1 .3l-.6 .8l-.4 .4l-.4 .4l-.8 .8l-.4 .4l-.4 .4l-1 .8l-.5 .3l-.5 .4l-1.1 .7l-1.1 .8l-.1 .1Z" class="g3_53"/>
<path d="M777.4 227l-.3 -.3l-.3 -.1l-1.3 -.7l-1.2 -.7l-1.4 -.6l-1.3 -.5l-1.3 -.5l-1.4 -.5l-1.4 -.4l-1.5 -.3l-1.5 -.4l-1.4 -.3l-1.6 -.2l-1.6 -.2l-1.6 -.2l-1.6 -.1H750l-1.7 .1l-1.6 .2l-1.6 .2l-1.5 .2l-1.5 .3l-1.5 .4l-1.5 .3l-1.4 .4l-1.4 .5l-1.3 .5l-1.3 .5l-1.3 .6l-1.3 .7l-1.2 .7l-1.2 .7l-1.1 .7l-1 .7l-.9 .8l-.9 .7l-.8 .8l-.7 .9l-.7 .8l-.5 .8l-.5 .9l-.5 .9l-.3 .9l-.3 .9l-.2 1v1l-.1 1l.1 .9v1l.1 .4l.1 .5l.3 1l.3 .9l.2 .4l.3 .4l.5 .9l.5 .9l.7 .8l.7 .8l.8 .8l.9 .8l.9 .8l.5 .3l.5 .4l1.1 .7l1.2 .8l1.2 .6l1.3 .7l1.3 .5l1.3 .6l1.3 .5l1.4 .4l1.4 .5l1.5 .4l1.5 .3l1.5 .2l1.5 .3l1.6 .2l1.6 .1l1.7 .2h1.6l1.7 .1l1.1 -.1h1.1l2 -.1l.5 -.1h.5l1.1 -.1l.9 -.1l.5 -.1h.6l.9 -.2l1 -.1l1.9 -.4l1.8 -.4l.9 -.3l.9 -.2l1 -.4l.5 -.2l.2 -.1h.3l1 -.4l.9 -.4l1 -.5l.9 -.4l.9 -.4l.5 -.3l.5 -.2m.7 -26.7l-1.4 .6l-1.5 .6l-1.3 .7l-1.3 .7l-1.2 .8l-1.1 .7l-.9 .8l-.9 .7l-.8 .8l-.7 .8l-.6 .9l-.5 .8l-.4 .9l-.3 .9l-.3 .9l-.1 .9v1.7l.1 .7l.1 .8l.2 .7l.3 .7l.4 .7l.4 .7l.4 .7l.5 .6l.6 .7l.7 .6l.7 .7l.7 .6l.8 .6l.9 .6l1 .6l.9 .5l1 .6l1 .5l1.2 .6l.3 .1l.4 .2m0 0l.1 -.1l1.1 -.8l1.1 -.7l.5 -.4l.5 -.3l1 -.8l.4 -.4l.4 -.4l.8 -.8l.4 -.4l.4 -.4l.6 -.8l.1 -.3l.1 -.1l.1 -.1l.3 -.4l.5 -.9l.2 -.4l.2 -.4l.2 -.5l.2 -.4l.1 -.5l.1 -.5l.1 -.5l.1 -.4l.1 -1v-.8l.1 -.1l-.1 -1.1l-.1 -1.1l-.3 -1l-.3 -1l-.4 -1l-.5 -.9l-.6 -1l-.6 -.9l-.6 -.7l-.7 -.7l-.7 -.6l-.7 -.7l-.8 -.6l-.9 -.7l-.9 -.6l-.9 -.5m-.7 26.7v0l1.5 .6l1.5 .6l1.5 .5l1.6 .5l1.7 .4l1.6 .4l1.7 .4l1.8 .4l1.7 .2l1.9 .3l1.8 .2l1.9 .2l1.9 .1l2 .1l2 .1h4.1l2 -.1l2 -.1l2 -.1l.9 -.2h1l1.9 -.3l.9 -.1l1 -.1l1.8 -.3l1.8 -.4l.8 -.2l.9 -.2l.8 -.2l.9 -.3l.8 -.2l.9 -.2l1.6 -.6l1.6 -.5L832 254l1.6 -.6l.7 -.4l.7 -.3l.7 -.4l.6 -.3l1.3 -.8l.6 -.3l.6 -.4l.2 -.2l.3 -.2l.6 -.3l.4 -.4l.5 -.4l.9 -.8l.2 -.2l.2 -.2l.4 -.4l.7 -.8l.3 -.4l.3 -.4l.5 -.9l.5 -.8l.3 -1l.1 -.4l.1 -.4l.2 -1v-1.8l-.2 -.9l-.2 -.9l-.3 -.9l-.5 -.9l-.5 -.8l-.6 -.9l-.7 -.8l-.8 -.8l-.9 -.7l-.9 -.8l-1.1 -.7l-1.2 -.8l-1.3 -.7l-1.3 -.7l-1.4 -.6l-1.6 -.7l-1.5 -.6l-1.6 -.6l-1.6 -.5l-1.7 -.5l-1.7 -.4l-1.7 -.4l-1.8 -.3l-1.8 -.4l-1.9 -.2l-1.9 -.3l-1.9 -.1l-2 -.2l-2 -.1l-2 -.1h-2.1l-3.5 .1l-3.3 .1l-3.2 .3l-3.1 .4l-2 .3l-1.9 .4l-1.8 .4l-1.8 .5l-1.8 .5l-1.7 .5l-1.7 .6l-1.6 .7" class="ga_53"/>
<path d="M56.7 96.1h.7v-.8h-.7v.8Z" class="g9_53"/>
<path d="M57.4 96.1h123v-.8H57.4v.8Z" class="g9_53"/>
<path d="M180.4 96.1h.7v-.8h-.7v.8Z" class="g9_53"/>
<path d="M181.1 96.1H350.7v-.8H181.1v.8Z" class="g9_53"/>
<path d="M350.7 96.1h.7v-.8h-.7v.8Z" class="g9_53"/>
<path d="M351.4 96.1H523.8v-.8H351.4v.8Z" class="g9_53"/>
<path d="M523.8 96.1h.7v-.8h-.7v.8Z" class="g9_53"/>
<path d="M524.5 96.1H694.1v-.8H524.5v.8Z" class="g9_53"/>
<path d="M694.1 96.1h.7v-.8h-.7v.8Z" class="g9_53"/>
<path d="M694.8 96.1H871.2v-.8H694.8v.8Z" class="g9_53"/>
<path d="M871.2 96.1h.7v-.8h-.7v.8Z" class="g9_53"/>
<path d="M56.7 120.1h.7v-24h-.7v24Z" class="g9_53"/>
<path d="M180.4 120.1h.7v-24h-.7v24Z" class="g9_53"/>
<path d="M350.7 120.1h.7v-24h-.7v24Z" class="g9_53"/>
<path d="M523.8 120.1h.7v-24h-.7v24Z" class="g9_53"/>
<path d="M694.1 120.1h.7v-24h-.7v24Z" class="g9_53"/>
<path d="M871.2 120.1h.7v-24h-.7v24Z" class="g9_53"/>
<path fill-rule="evenodd" d="M57.4 221.3h123V120.8H57.4V221.3Z" class="g8_53"/>
<path fill-rule="evenodd" d="M65.3 183H172.5V159.1H65.3V183Z" class="g8_53"/>
<path d="M210.1 135.1V135H319.9v.4l-55 36.1Z" class="g3_53"/>
<path d="M210.1 207.9v-.5l54.8 -35.9l55 36.4Z" class="g3_53"/>
<path d="M264.9 171.5l55 -36.1v72.5Z" class="g3_53"/>
<path d="M210.1 135.1l54.8 36.4l-54.8 35.9Z" class="g3_53"/>
<path d="M210.1 207.4v.5H319.9m0 0l-55 -36.4m55 -36.1l-55 36.1m55 36.4V135.4m-109.8 -.3v72.3m54.8 -35.9l-54.8 35.9m54.8 -35.9L210.1 135.1m109.8 .3V135H210.1v.1" class="gd_53"/>
<path d="M437.8 170.3h64l.5 .3L437.8 203Z" class="ge_53"/>
<path d="M437.8 170.3V137.6l.2 -.1l63.8 32.8Z" class="ge_53"/>
<path d="M373.2 170.3l-.4 -.1l65 -32.6v32.7Z" class="ge_53"/>
<path d="M373.2 170.3h64.6V203l-.7 .3Z" class="ge_53"/>
<path d="M372.8 170.2l.4 .1h64.6m0 0V137.6m0 65.4V170.3m64 0h-64m-64.6 0l63.9 33l.7 -.3l64.5 -32.4l-.5 -.3L438 137.5l-.2 .1l-65 32.6" class="gf_53"/>
<path d="M570.5 133.5H647l-38.2 38.3Z" class="gg_53"/>
<path d="M570.5 133.5l38.3 38.3l-38.3 38.4Z" class="gg_53"/>
<path d="M570.5 210.2l38.3 -38.4L647 210v.2Z" class="gg_53"/>
<path d="M608.8 171.8L647 133.5V210Z" class="gg_53"/>
<path d="M570.5 210.2H647V210m0 -76.5l-38.2 38.3m0 0l-38.3 38.4M647 210L608.8 171.8M647 210V133.5m0 0H570.5m0 0v76.7m38.3 -38.4L570.5 133.5" class="gd_53"/>
<path d="M56.7 120.8h.7v-.7h-.7v.7Z" class="g9_53"/>
<path d="M57.4 120.8h123v-.7H57.4v.7Z" class="g9_53"/>
<path d="M180.4 120.8h.7v-.7h-.7v.7Z" class="g9_53"/>
<path d="M181.1 120.8H350.7v-.7H181.1v.7Z" class="g9_53"/>
<path d="M350.7 120.8h.7v-.7h-.7v.7Z" class="g9_53"/>
<path d="M351.4 120.8H523.8v-.7H351.4v.7Z" class="g9_53"/>
<path d="M523.8 120.8h.7v-.7h-.7v.7Z" class="g9_53"/>
<path d="M524.5 120.8H694.1v-.7H524.5v.7Z" class="g9_53"/>
<path d="M694.1 120.8h.7v-.7h-.7v.7Z" class="g9_53"/>
<path d="M871.2 120.8h.7v-.7h-.7v.7Z" class="g9_53"/>
<path d="M56.7 221.3h.7V120.8h-.7V221.3Z" class="g9_53"/>
<path d="M180.4 221.3h.7V120.8h-.7V221.3Z" class="g9_53"/>
<path d="M350.7 221.3h.7V120.8h-.7V221.3Z" class="g9_53"/>
<path d="M523.8 221.3h.7V120.8h-.7V221.3Z" class="g9_53"/>
<path d="M694.1 221.3h.7V120.8h-.7V221.3Z" class="g9_53"/>
<path d="M871.2 221.3h.7V120.8h-.7V221.3Z" class="g9_53"/>
<path fill-rule="evenodd" d="M57.4 295.2H97.9V222H57.4v73.2Z" class="g8_53"/>
<path d="M57.4 258.7H97.9V234.8H57.4v23.9Z" class="g8_53"/>
<path d="M57.4 282.5H97.9V258.7H57.4v23.8Z" class="g8_53"/>
<path fill-rule="evenodd" d="M98.6 245.8h81.8V222H98.6v23.8Z" class="g8_53"/>
<path d="M98.6 245.8h81.8V222H98.6v23.8Z" class="g8_53"/>
<path d="M56.7 222h.7v-.7h-.7v.7Z" class="g9_53"/>
<path d="M57.4 222H97.9v-.7H57.4v.7Z" class="g9_53"/>
<path d="M97.9 222h.7v-.7h-.7v.7Z" class="g9_53"/>
<path d="M98.6 222h81.8v-.7H98.6v.7Z" class="g9_53"/>
<path d="M180.4 222h.7v-.7h-.7v.7Z" class="g9_53"/>
<path d="M181.1 222H350.7v-.7H181.1v.7Z" class="g9_53"/>
<path d="M350.7 222h.7v-.7h-.7v.7Z" class="g9_53"/>
<path d="M351.4 222H523.8v-.7H351.4v.7Z" class="g9_53"/>
<path d="M523.8 222h.7v-.7h-.7v.7Z" class="g9_53"/>
<path d="M524.5 222H694.1v-.7H524.5v.7Z" class="g9_53"/>
<path d="M694.1 222h.7v-.7h-.7v.7Z" class="g9_53"/>
<path d="M871.2 222h.7v-.7h-.7v.7Z" class="g9_53"/>
<path d="M56.7 245.8h.7V222h-.7v23.8Z" class="g9_53"/>
<path d="M97.9 245.8h.7V222h-.7v23.8Z" class="g9_53"/>
<path d="M180.4 245.8h.7V222h-.7v23.8Z" class="g9_53"/>
<path d="M350.7 245.8h.7V222h-.7v23.8Z" class="g9_53"/>
<path d="M523.8 245.8h.7V222h-.7v23.8Z" class="g9_53"/>
<path d="M694.1 245.8h.7V222h-.7v23.8Z" class="g9_53"/>
<path d="M871.2 245.8h.7V222h-.7v23.8Z" class="g9_53"/>
<path fill-rule="evenodd" d="M98.6 270.6h81.8V246.8H98.6v23.8Z" class="g8_53"/>
<path d="M98.6 270.6h81.8V246.8H98.6v23.8Z" class="g8_53"/>
<path d="M56.7 246.6h.7v-.8h-.7v.8Z" class="g9_53"/>
<path d="M97.9 246.6h.7v-.8h-.7v.8Z" class="g9_53"/>
<path d="M98.6 246.6h81.8v-.8H98.6v.8Z" class="g9_53"/>
<path d="M180.4 246.6h.7v-.8h-.7v.8Z" class="g9_53"/>
<path d="M181.1 246.6H350.7v-.8H181.1v.8Z" class="g9_53"/>
<path d="M350.7 246.6h.7v-.8h-.7v.8Z" class="g9_53"/>
<path d="M351.4 246.6H523.8v-.8H351.4v.8Z" class="g9_53"/>
<path d="M523.8 246.6h.7v-.8h-.7v.8Z" class="g9_53"/>
<path d="M524.5 246.6H694.1v-.8H524.5v.8Z" class="g9_53"/>
<path d="M694.1 246.6h.7v-.8h-.7v.8Z" class="g9_53"/>
<path d="M871.2 246.6h.7v-.8h-.7v.8Z" class="g9_53"/>
<path d="M56.7 270.6h.7v-24h-.7v24Z" class="g9_53"/>
<path d="M97.9 270.6h.7v-24h-.7v24Z" class="g9_53"/>
<path d="M180.4 270.6h.7v-24h-.7v24Z" class="g9_53"/>
<path d="M350.7 270.6h.7v-24h-.7v24Z" class="g9_53"/>
<path d="M523.8 270.6h.7v-24h-.7v24Z" class="g9_53"/>
<path d="M694.1 270.6h.7v-24h-.7v24Z" class="g9_53"/>
<path d="M871.2 270.6h.7v-24h-.7v24Z" class="g9_53"/>
<path fill-rule="evenodd" d="M98.6 295.2h81.8V271.3H98.6v23.9Z" class="g8_53"/>
<path d="M98.6 295.2h81.8V271.3H98.6v23.9Z" class="g8_53"/>
<path d="M56.7 271.3h.7v-.7h-.7v.7Z" class="g9_53"/>
<path d="M97.9 271.3h.7v-.7h-.7v.7Z" class="g9_53"/>
<path d="M98.6 271.3h81.8v-.7H98.6v.7Z" class="g9_53"/>
<path d="M180.4 271.3h.7v-.7h-.7v.7Z" class="g9_53"/>
<path d="M181.1 271.3H350.7v-.7H181.1v.7Z" class="g9_53"/>
<path d="M350.7 271.3h.7v-.7h-.7v.7Z" class="g9_53"/>
<path d="M351.4 271.3H523.8v-.7H351.4v.7Z" class="g9_53"/>
<path d="M523.8 271.3h.7v-.7h-.7v.7Z" class="g9_53"/>
<path d="M524.5 271.3H694.1v-.7H524.5v.7Z" class="g9_53"/>
<path d="M694.1 271.3h.7v-.7h-.7v.7Z" class="g9_53"/>
<path d="M871.2 271.3h.7v-.7h-.7v.7Z" class="g9_53"/>
<path d="M56.7 295.2h.7V271.3h-.7v23.9Z" class="g9_53"/>
<path d="M97.9 295.2h.7V271.3h-.7v23.9Z" class="g9_53"/>
<path d="M180.4 295.2h.7V271.3h-.7v23.9Z" class="g9_53"/>
<path d="M350.7 295.2h.7V271.3h-.7v23.9Z" class="g9_53"/>
<path d="M523.8 295.2h.7V271.3h-.7v23.9Z" class="g9_53"/>
<path d="M694.1 295.2h.7V271.3h-.7v23.9Z" class="g9_53"/>
<path d="M871.2 295.2h.7V271.3h-.7v23.9Z" class="g9_53"/>
<path fill-rule="evenodd" d="M57.4 345h123V295.9H57.4V345Z" class="g8_53"/>
<path fill-rule="evenodd" d="M65.3 332.4H172.5V308.6H65.3v23.8Z" class="g8_53"/>
<path d="M56.7 295.9h.7v-.7h-.7v.7Z" class="g9_53"/>
<path d="M57.4 295.9H97.9v-.7H57.4v.7Z" class="g9_53"/>
<path d="M97.9 295.9h.7v-.7h-.7v.7Z" class="g9_53"/>
<path d="M98.6 295.9h81.8v-.7H98.6v.7Z" class="g9_53"/>
<path d="M180.4 295.9h.7v-.7h-.7v.7Z" class="g9_53"/>
<path d="M181.1 295.9H350.7v-.7H181.1v.7Z" class="g9_53"/>
<path d="M350.7 295.9h.7v-.7h-.7v.7Z" class="g9_53"/>
<path d="M351.4 295.9H523.8v-.7H351.4v.7Z" class="g9_53"/>
<path d="M523.8 295.9h.7v-.7h-.7v.7Z" class="g9_53"/>
<path d="M524.5 295.9H694.1v-.7H524.5v.7Z" class="g9_53"/>
<path d="M694.1 295.9h.7v-.7h-.7v.7Z" class="g9_53"/>
<path d="M871.2 295.9h.7v-.7h-.7v.7Z" class="g9_53"/>
<path d="M56.7 320.3h.7V295.9h-.7v24.4Z" class="g9_53"/>
<path d="M180.4 320.3h.7V295.9h-.7v24.4Z" class="g9_53"/>
<path d="M350.7 320.3h.7V295.9h-.7v24.4Z" class="g9_53"/>
<path d="M523.8 320.3h.7V295.9h-.7v24.4Z" class="g9_53"/>
<path d="M694.1 320.3h.7V295.9h-.7v24.4Z" class="g9_53"/>
<path d="M871.2 320.3h.7V295.9h-.7v24.4Z" class="g9_53"/>
<path d="M56.7 321h.7v-.7h-.7v.7Z" class="g9_53"/>
<path d="M180.4 321h.7v-.7h-.7v.7Z" class="g9_53"/>
<path d="M181.1 321H350.7v-.7H181.1v.7Z" class="g9_53"/>
<path d="M350.7 321h.7v-.7h-.7v.7Z" class="g9_53"/>
<path d="M351.4 321H523.8v-.7H351.4v.7Z" class="g9_53"/>
<path d="M523.8 321h.7v-.7h-.7v.7Z" class="g9_53"/>
<path d="M524.5 321H694.1v-.7H524.5v.7Z" class="g9_53"/>
<path d="M694.1 321h.7v-.7h-.7v.7Z" class="g9_53"/>
<path d="M871.2 321h.7v-.7h-.7v.7Z" class="g9_53"/>
<path d="M56.7 345h.7V321h-.7v24Z" class="g9_53"/>
<path d="M180.4 345h.7V321h-.7v24Z" class="g9_53"/>
<path d="M350.7 345h.7V321h-.7v24Z" class="g9_53"/>
<path d="M523.8 345h.7V321h-.7v24Z" class="g9_53"/>
<path d="M694.1 345h.7V321h-.7v24Z" class="g9_53"/>
<path d="M871.2 345h.7V321h-.7v24Z" class="g9_53"/>
<path fill-rule="evenodd" d="M57.4 369.6h123V345.8H57.4v23.8Z" class="g8_53"/>
<path d="M65.3 369.6H172.5V345.8H65.3v23.8Z" class="g8_53"/>
<path d="M56.7 345.8h.7V345h-.7v.8Z" class="g9_53"/>
<path d="M57.4 345.8h123V345H57.4v.8Z" class="g9_53"/>
<path d="M180.4 345.8h.7V345h-.7v.8Z" class="g9_53"/>
<path d="M181.1 345.8H350.7V345H181.1v.8Z" class="g9_53"/>
<path d="M350.7 345.8h.7V345h-.7v.8Z" class="g9_53"/>
<path d="M351.4 345.8H523.8V345H351.4v.8Z" class="g9_53"/>
<path d="M523.8 345.8h.7V345h-.7v.8Z" class="g9_53"/>
<path d="M524.5 345.8H694.1V345H524.5v.8Z" class="g9_53"/>
<path d="M694.1 345.8h.7V345h-.7v.8Z" class="g9_53"/>
<path d="M871.2 345.8h.7V345h-.7v.8Z" class="g9_53"/>
<path d="M56.7 369.6h.7V345.8h-.7v23.8Z" class="g9_53"/>
<path d="M56.7 370.3h.7v-.7h-.7v.7Z" class="g9_53"/>
<path d="M56.7 370.3h.7v-.7h-.7v.7Z" class="g9_53"/>
<path d="M57.4 370.3h123v-.7H57.4v.7Z" class="g9_53"/>
<path d="M180.4 369.6h.7V345.8h-.7v23.8Z" class="g9_53"/>
<path d="M180.4 370.3h.7v-.7h-.7v.7Z" class="g9_53"/>
<path d="M181.1 370.3H350.7v-.7H181.1v.7Z" class="g9_53"/>
<path d="M350.7 369.6h.7V345.8h-.7v23.8Z" class="g9_53"/>
<path d="M350.7 370.3h.7v-.7h-.7v.7Z" class="g9_53"/>
<path d="M351.4 370.3H523.8v-.7H351.4v.7Z" class="g9_53"/>
<path d="M523.8 369.6h.7V345.8h-.7v23.8Z" class="g9_53"/>
<path d="M523.8 370.3h.7v-.7h-.7v.7Z" class="g9_53"/>
<path d="M524.5 370.3H694.1v-.7H524.5v.7Z" class="g9_53"/>
<path d="M694.1 369.6h.7V345.8h-.7v23.8Z" class="g9_53"/>
<path d="M694.1 370.3h.7v-.7h-.7v.7Z" class="g9_53"/>
<path d="M694.8 370.3H871.2v-.7H694.8v.7Z" class="g9_53"/>
<path d="M871.2 369.6h.7V345.8h-.7v23.8Z" class="g9_53"/>
<path d="M871.2 370.3h.7v-.7h-.7v.7Z" class="g9_53"/>
<path d="M871.2 370.3h.7v-.7h-.7v.7Z" class="g9_53"/>
<path d="M176.8 924.8h28.9m13.1 0H244m25.9 0h25.7m13.2 0h23.8" class="gh_53"/>
<path d="M207.4 1146h9.1m113.7 0h9.1m116.7 0h9.1" class="gi_53"/>
<path d="M63.2 641.7l-.6 -.1l-.5 -.1l-.5 -.3l-.4 -.4l-.4 -.4l-.3 -.5l-.1 -.3l-.1 -.2V625.1l.2 -.5l.3 -.5l.4 -.4l.4 -.4l.5 -.3l.5 -.2H96.9l.3 .2l.5 .3l.5 .4l.3 .4l.3 .5l.1 .5l.1 .6v13.4h-.1v.5l-.1 .3l-.2 .2l-.1 .3l-.3 .4l-.5 .4l-.5 .3h-.3l-.2 .1h-.3v.1h-.3Z" class="gj_53"/>
<path d="M64.7 614.5l-.5 -.1l-.6 -.2l-.4 -.3l-.5 -.3l-.4 -.5l-.2 -.3v-.2l-.2 -.2V598l.2 -.6l.2 -.5l.4 -.4l.5 -.4l.4 -.2l.6 -.2H98.1l.2 .1l.3 .1l.2 .1l.2 .1l.5 .4l.3 .4l.3 .5l.2 .6l.1 .6v13l-.1 .2v.3l-.1 .3l-.1 .2l-.1 .2l-.2 .3l-.3 .5l-.5 .3l-.2 .2l-.2 .1l-.3 .1l-.2 .1h-.3l-.3 .1Z" class="gk_53"/>
<path d="M64.7 861l-.5 -.1l-.6 -.2l-.4 -.2l-.5 -.4l-.4 -.5l-.2 -.3v-.2l-.2 -.2V844.5l.2 -.6l.2 -.5l.4 -.4l.5 -.4l.4 -.2l.6 -.2H98.1l.2 .1l.3 .1l.2 .1l.2 .1l.5 .4l.3 .4l.3 .5l.2 .6l.1 .6v13l-.1 .2v.3l-.1 .3l-.1 .2l-.1 .2l-.2 .3l-.3 .5l-.5 .4l-.2 .1l-.2 .1l-.3 .1l-.2 .1h-.3l-.3 .1Z" class="gk_53"/>
<path d="M59.9 945l-.6 -.1l-.5 -.2l-.5 -.3l-.4 -.3l-.4 -.5l-.3 -.4l-.1 -.3l-.1 -.3V928.4l.2 -.6l.3 -.5l.4 -.4l.4 -.4l.5 -.3l.5 -.1l.6 -.1h33l.5 .1h.2l.3 .1l.5 .3l.5 .4l.3 .4l.3 .5l.2 .6v14.2l-.1 .3l-.1 .3l-.2 .2l-.1 .2l-.3 .5l-.5 .3l-.5 .3l-.3 .1l-.2 .1h-.3l-.2 .1Z" class="gj_53"/>
<path d="M59.9 1098.7h-.6l-.5 -.2l-.5 -.3l-.4 -.3l-.4 -.5l-.3 -.5l-.1 -.3l-.1 -.2v-14.3l.2 -.5l.3 -.5l.4 -.4l.4 -.4l.5 -.3l.5 -.2H93.4l.2 .1l.3 .1l.5 .3l.5 .4l.3 .4l.3 .5l.2 .5v14.3l-.1 .2l-.1 .3l-.2 .2l-.1 .3l-.3 .5l-.5 .3l-.5 .3l-.3 .1l-.2 .1h-.5Z" class="gj_53"/>
</svg>