<?xml version="1.0" encoding="UTF-8" standalone="no"?>
<!DOCTYPE svg PUBLIC "-//W3C//DTD SVG 1.1//EN"
"http://www.w3.org/Graphics/SVG/1.1/DTD/svg11.dtd">
<svg viewBox="0 0 909 1286" version="1.1" xmlns="http://www.w3.org/2000/svg" xmlns:xlink="http://www.w3.org/1999/xlink">
<defs>
<clipPath id="c0_69"><path d="M-.2 1286.6v-57.8h910v57.8Z"/></clipPath>
<style type="text/css"><![CDATA[
.g0_69{
fill: #CFC;
}
.g1_69{
fill: #70AD47;
}
.g2_69{
fill: none;
stroke: #000;
stroke-width: 1.003;
stroke-linecap: square;
stroke-miterlimit: 10;
}
.g3_69{
fill: none;
stroke: #F00;
stroke-width: 1.003;
stroke-linecap: square;
stroke-miterlimit: 10;
}
.g4_69{
fill: #000;
}
.g5_69{
fill: none;
stroke: #00F;
stroke-width: 1.003;
stroke-linecap: square;
stroke-miterlimit: 10;
}
.g6_69{
fill: none;
stroke: #000;
stroke-width: 0.817;
stroke-linecap: square;
stroke-miterlimit: 10;
}
.g7_69{
fill: none;
stroke: #06F;
stroke-width: 0.817;
stroke-linecap: square;
stroke-miterlimit: 10;
}
.g8_69{
fill: none;
stroke: #F00;
stroke-width: 0.817;
stroke-linecap: square;
stroke-miterlimit: 10;
}
.g9_69{
fill: none;
stroke: #00F;
stroke-width: 0.817;
stroke-linecap: square;
stroke-miterlimit: 10;
}
.ga_69{
fill: none;
stroke: #000;
stroke-width: 0.876;
stroke-linecap: square;
stroke-miterlimit: 10;
}
.gb_69{
fill: none;
stroke: #00F;
stroke-width: 0.876;
stroke-linecap: square;
stroke-miterlimit: 10;
}
.gc_69{
fill: none;
stroke: #000;
stroke-width: 0.907;
stroke-linecap: square;
stroke-miterlimit: 10;
}
.gd_69{
fill: none;
stroke: #000;
stroke-width: 0.904;
stroke-linecap: square;
stroke-miterlimit: 10;
}
.ge_69{
fill: none;
stroke: #000;
stroke-width: 0.909;
stroke-linecap: square;
stroke-miterlimit: 10;
}
.gf_69{
fill: #CFF;
}
.gg_69{
fill: none;
stroke: #000;
stroke-width: 1.006;
stroke-linecap: square;
stroke-miterlimit: 10;
}
.gh_69{
fill: none;
stroke: #03F;
stroke-width: 1.006;
stroke-linecap: square;
stroke-miterlimit: 10;
}
.gi_69{
fill: none;
stroke: #F00;
stroke-width: 1.006;
stroke-linecap: square;
stroke-miterlimit: 10;
}
.gj_69{
fill: #090;
}
.gk_69{
fill: none;
stroke: #090;
stroke-width: 0.747;
stroke-linecap: square;
stroke-miterlimit: 10;
}
.gl_69{
fill: #FFD;
}
.gm_69{
fill: none;
stroke: #000;
stroke-width: 0.754;
stroke-linecap: square;
stroke-miterlimit: 10;
}
.gn_69{
fill: none;
stroke: #03F;
stroke-width: 0.754;
stroke-linecap: square;
stroke-miterlimit: 10;
}
.go_69{
fill: #F96;
}
.gp_69{
fill: none;
stroke: #000;
stroke-width: 0.75;
stroke-linecap: square;
stroke-miterlimit: 10;
}
.gq_69{
fill: none;
stroke: #00F;
stroke-width: 0.75;
stroke-linecap: square;
stroke-miterlimit: 10;
}
.gr_69{
fill: none;
stroke: #03F;
stroke-width: 0.75;
stroke-linecap: square;
stroke-miterlimit: 10;
}
.gs_69{
fill: #FCF;
}
.gt_69{
fill: none;
stroke: #00F;
stroke-width: 0.754;
stroke-linecap: square;
stroke-miterlimit: 10;
}
.gu_69{
fill: #F90;
}
]]></style>
</defs>
<image clip-path="url(#c0_69)" preserveAspectRatio="none" x="-2" y="1229" width="930" height="128" xlink:href="img/1.jpg"/>
<path fill-rule="evenodd" d="M71.1 95.3h54.3V71.5H71.1V95.3Z" class="g0_69"/>
<path d="M79 95.3h38.5V71.5H79V95.3Z" class="g0_69"/>
<path fill-rule="evenodd" d="M126.1 95.3H370.9V71.5H126.1V95.3Z" class="g0_69"/>
<path d="M134 95.3H363V71.5H134V95.3Z" class="g0_69"/>
<path fill-rule="evenodd" d="M371.6 95.3H616.4V71.5H371.6V95.3Z" class="g0_69"/>
<path d="M379.5 95.3h229V71.5h-229V95.3Z" class="g0_69"/>
<path fill-rule="evenodd" d="M617.1 95.3H861.9V71.5H617.1V95.3Z" class="g0_69"/>
<path d="M625 95.3H854V71.5H625V95.3Z" class="g0_69"/>
<path d="M70.4 71.5h.7v-.7h-.7v.7Z" class="g1_69"/>
<path d="M70.4 71.5h.7v-.7h-.7v.7Z" class="g1_69"/>
<path d="M71.1 71.5h54.3v-.7H71.1v.7Z" class="g1_69"/>
<path d="M125.4 71.5h.7v-.7h-.7v.7Z" class="g1_69"/>
<path d="M126.1 71.5H370.9v-.7H126.1v.7Z" class="g1_69"/>
<path d="M370.9 71.5h.7v-.7h-.7v.7Z" class="g1_69"/>
<path d="M371.6 71.5H616.4v-.7H371.6v.7Z" class="g1_69"/>
<path d="M616.4 71.5h.7v-.7h-.7v.7Z" class="g1_69"/>
<path d="M617.1 71.5H861.9v-.7H617.1v.7Z" class="g1_69"/>
<path d="M861.9 71.5h.7v-.7h-.7v.7Z" class="g1_69"/>
<path d="M861.9 71.5h.7v-.7h-.7v.7Z" class="g1_69"/>
<path d="M70.4 95.3h.7V71.5h-.7V95.3Z" class="g1_69"/>
<path d="M125.4 95.3h.7V71.5h-.7V95.3Z" class="g1_69"/>
<path d="M370.9 95.3h.7V71.5h-.7V95.3Z" class="g1_69"/>
<path d="M616.4 95.3h.7V71.5h-.7V95.3Z" class="g1_69"/>
<path d="M861.9 95.3h.7V71.5h-.7V95.3Z" class="g1_69"/>
<path fill-rule="evenodd" d="M71.1 229h54.3V96.3H71.1V229Z" class="g0_69"/>
<path fill-rule="evenodd" d="M79 174.5h38.5V150.7H79v23.8Z" class="g0_69"/>
<path d="M253.3 189.6v-4.3h-5.6" class="g2_69"/>
<path d="M174.1 190.7l1.5 -1.4m1.6 -1.3l1.4 -1.4m1.6 -1.3l1.5 -1.3m1.5 -1.4l1.5 -1.3m1.5 -1.4l1.6 -1.4m1.5 -1.3l1.5 -1.4m1.5 -1.5l1.5 -1.4m1.6 -1.4l1.4 -1.4m1.6 -1.5l1.5 -1.3m1.5 -1.5l1.5 -1.4m1.5 -1.4l1.6 -1.4m1.5 -1.4l1.5 -1.5m1.5 -1.3l1.5 -1.5m1.6 -1.4l1.5 -1.4m1.5 -1.5l1.5 -1.3m1.5 -1.5l1.5 -1.3m1.6 -1.5l1.5 -1.4m1.5 -1.5l1.5 -1.3m1.5 -1.4l1.6 -1.5m1.5 -1.4l1.5 -1.4m1.5 -1.4l1.5 -1.5m1.5 -1.4l1.5 -1.4m1.6 -1.4l1.5 -1.5m1.5 -1.4l1.5 -1.3m1.5 -1.5l.7 -.6M249 124l1.5 1.4m1.5 1.3l1.6 1.4m1.5 1.3l1.5 1.4m1.5 1.3l1.5 1.3m1.5 1.4l1.6 1.3m1.5 1.4l1.5 1.3m1.5 1.4l1.5 1.4m1.6 1.5l1.5 1.4m1.5 1.3l1.5 1.5m1.5 1.3l1.6 1.4m1.4 1.5l1.6 1.4m1.5 1.4l1.5 1.4m1.5 1.5l1.5 1.4m1.6 1.4l1.5 1.4m1.5 1.5l1.5 1.4m1.5 1.3l1.6 1.5m1.5 1.3l1.5 1.5m1.5 1.4l1.5 1.5m1.5 1.3l1.5 1.5m1.6 1.4l1.5 1.5m1.5 1.3l1.5 1.4m1.5 1.5l1.6 1.4m1.5 1.3l1.5 1.5m1.5 1.4l1.5 1.5" class="g3_69"/>
<path d="M173.6 192.9l-.5 -.1l-.4 -.3l-.4 -.3l-.3 -.4l-.2 -.4l-.2 -.5v-1.1l.2 -.4l.2 -.5l.3 -.4l.4 -.3l.4 -.2l.5 -.2h1l.5 .2l.4 .2l.2 .1l.3 .2l.3 .4l.2 .5l.1 .4l.1 .6l-.1 .2v.3l-.1 .5l-.1 .2l-.1 .2l-.3 .4l-.3 .2h-.1l-.1 .1l-.2 .1l-.1 .1h-.1v.1h-.2l-.3 .1h-.2l-.3 .1Z" class="g4_69"/>
<path d="M320.7 192.9l-.4 -.1l-.4 -.3l-.4 -.3l-.4 -.4l-.2 -.4l-.1 -.5v-1.1l.1 -.4l.2 -.5l.4 -.4l.4 -.3l.4 -.2l.4 -.2h1.1l.5 .2l.4 .2l.2 .1l.2 .2l.3 .4l.2 .5l.2 .4v1.1l-.2 .5l-.1 .2l-.1 .2l-.3 .4l-.2 .2h-.2v.1l-.2 .1l-.1 .1h-.1v.1H322l-.2 .1h-.3l-.2 .1Z" class="g4_69"/>
<path d="M322.4 190.4H173.7" class="g2_69"/>
<path d="M247.7 212.4V115.3" class="g5_69"/>
<path d="M247 125.6l-.4 -.2l-.5 -.2l-.3 -.3l-.4 -.4l-.2 -.5l-.1 -.4l-.1 -.5l.1 -.6l.1 -.5l.2 -.4l.4 -.4l.3 -.3l.5 -.2l.4 -.2h1.1l.4 .2l.5 .2l.2 .1l.2 .2l.3 .4l.2 .4l.1 .5l.1 .6v.2l-.1 .1v.2l-.1 .4l-.1 .2l-.1 .3l-.3 .4l-.2 .1l-.1 .1H249v.1l-.3 .1l-.1 .1h-.1l-.2 .1l-.2 .1h-.3l-.2 .1Z" class="g4_69"/>
<path d="M527.7 111.9l-23 14.1l-3 1.8l-58.9 35.8l59.1 36l3 1.9m2 -71.9l-3.1 1.9l-2.1 -3.7m5.3 70.1l-3 -2.1l-2.1 3.8" class="g6_69"/>
<path d="M518.3 184.2L516 182.8l-2.1 -1.3m5.2 .6L517 181l-2 -1.2m1.4 -38l-1.7 .8l-2.4 1.1m3.3 -3.6l-1.9 1l-1.8 .9" class="g7_69"/>
<path d="M458.5 167.1v-.4l-.1 -.2l-.1 -.3l-.2 -.2l-.2 -.2l-.3 -.1l-.2 -.1h-.6l-.3 .1l-.2 .1l-.2 .2l-.2 .2l-.1 .3l-.1 .2v.6l.1 .3l.1 .2l.2 .3l.2 .1l.2 .2l.3 .1h.6l.1 -.1h.1l.3 -.2l.2 -.1l.2 -.3l.1 -.2v-.2l.1 -.1v-.2m46.2 34.7l.2 -.3l.6 -1.1m.9 -1.5l.6 -1l.2 -.5m.9 -1.4l.8 -1.4m.8 -1.4l.9 -1.5m.8 -1.4l.9 -1.4m.9 -1.5l.9 -1.4m.8 -1.4l.9 -1.5m.9 -1.5l.3 -.6l.5 -.8m.9 -1.5l.8 -1.4m.8 -1.4l.9 -1.5m.9 -1.4l.8 -1.4m.9 -1.4l.8 -1.5m.9 -1.4l.8 -1.4M504.7 126l.9 1.4m.8 1.4l.5 .8l.4 .7m.8 1.5l.9 1.4m.9 1.4l.8 1.5m.9 1.4l.8 1.4m.9 1.5l.4 .7l.5 .6m.8 1.5l.8 1.4m.9 1.4l.8 1.5m.8 1.4l.9 1.4m.8 1.4l.9 1.5m.9 1.4l.8 1.4m.9 1.4l.8 1.5m.9 1.4l.8 1.4m-67.5 -3.5l-.2 -.2l-.3 -.1l-.2 -.1h-.6l-.2 .1l-.3 .1l-.2 .2l-.2 .2l-.1 .3l-.1 .2v.6l.1 .3l.1 .2l.2 .2l.2 .2l.3 .2h.2l.3 .1h.1l.2 -.1h.2l.3 -.2l.2 -.2l.2 -.2l.1 -.2l.1 -.2v-.3l.1 -.1l-.1 -.3l-.1 -.2l-.1 -.3l-.2 -.2" class="g8_69"/>
<path d="M544 163.6H444" class="g9_69"/>
<path d="M526.9 165.7l-.4 -.1l-.3 -.3l-.3 -.2l-.3 -.3l-.2 -.4l-.1 -.4v-.8l.1 -.4l.2 -.4l.3 -.3l.3 -.3l.3 -.1l.4 -.2h.8l.4 .2l.4 .1l.1 .2l.2 .1l.3 .3l.1 .4l.2 .4v.8l-.2 .4l-.1 .2v.2l-.3 .3l-.2 .1l-.1 .1l-.2 .1l-.1 .1h-.1v.1h-.2l-.2 .1h-.4Z" class="g4_69"/>
<path d="M527.7 215.4L504.9 201.5" class="g6_69"/>
<path d="M741.4 200.6l34.5 -77.8m0 0l23.4 77.8H741.4m34.5 -77.8l-.1 -.2l-97.1 78h62.7" class="ga_69"/>
<path d="M712.5 204l.1 -3.4l.1 -2.7m1.2 6.4l.1 -3.7v-2.7m57.2 6.4l.1 -3.7l.1 -2.7m-1.6 6.1l.1 -3.4l.1 -2.7" class="gb_69"/>
<path d="M70.4 96.1h.7v-.8h-.7v.8Z" class="g1_69"/>
<path d="M71.1 96.1h54.3v-.8H71.1v.8Z" class="g1_69"/>
<path d="M125.4 96.1h.7v-.8h-.7v.8Z" class="g1_69"/>
<path d="M126.1 96.1H370.9v-.8H126.1v.8Z" class="g1_69"/>
<path d="M370.9 96.1h.7v-.8h-.7v.8Z" class="g1_69"/>
<path d="M371.6 96.1H616.4v-.8H371.6v.8Z" class="g1_69"/>
<path d="M616.4 96.1h.7v-.8h-.7v.8Z" class="g1_69"/>
<path d="M617.1 96.1H861.9v-.8H617.1v.8Z" class="g1_69"/>
<path d="M861.9 96.1h.7v-.8h-.7v.8Z" class="g1_69"/>
<path d="M70.4 229h.7V96.1h-.7V229Z" class="g1_69"/>
<path d="M125.4 229h.7V96.1h-.7V229Z" class="g1_69"/>
<path d="M370.9 229h.7V96.1h-.7V229Z" class="g1_69"/>
<path d="M616.4 229h.7V96.1h-.7V229Z" class="g1_69"/>
<path d="M861.9 229h.7V96.1h-.7V229Z" class="g1_69"/>
<path fill-rule="evenodd" d="M71.1 281.4h54.3V229.7H71.1v51.7Z" class="g0_69"/>
<path fill-rule="evenodd" d="M79 267.5h38.5V243.6H79v23.9Z" class="g0_69"/>
<path d="M780.9 258.2h29.8" class="gc_69"/>
<path d="M70.4 229.7h.7V229h-.7v.7Z" class="g1_69"/>
<path d="M71.1 229.7h54.3V229H71.1v.7Z" class="g1_69"/>
<path d="M125.4 229.7h.7V229h-.7v.7Z" class="g1_69"/>
<path d="M126.1 229.7H370.9V229H126.1v.7Z" class="g1_69"/>
<path d="M370.9 229.7h.7V229h-.7v.7Z" class="g1_69"/>
<path d="M371.6 229.7H616.4V229H371.6v.7Z" class="g1_69"/>
<path d="M616.4 229.7h.7V229h-.7v.7Z" class="g1_69"/>
<path d="M617.1 229.7H861.9V229H617.1v.7Z" class="g1_69"/>
<path d="M861.9 229.7h.7V229h-.7v.7Z" class="g1_69"/>
<path d="M70.4 281.4h.7V229.7h-.7v51.7Z" class="g1_69"/>
<path d="M125.4 281.4h.7V229.7h-.7v51.7Z" class="g1_69"/>
<path d="M370.9 281.4h.7V229.7h-.7v51.7Z" class="g1_69"/>
<path d="M616.4 281.4h.7V229.7h-.7v51.7Z" class="g1_69"/>
<path d="M861.9 281.4h.7V229.7h-.7v51.7Z" class="g1_69"/>
<path fill-rule="evenodd" d="M71.1 333.8h54.3V282.1H71.1v51.7Z" class="g0_69"/>
<path fill-rule="evenodd" d="M79 319.9h38.5V296.1H79v23.8Z" class="g0_69"/>
<path d="M155.5 310.6H177" class="gc_69"/>
<path d="M202.8 310.6h22.3" class="gd_69"/>
<path d="M401 310.6h29" class="ge_69"/>
<path d="M454.5 310.5h25" class="gc_69"/>
<path d="M70.4 282.1h.7v-.7h-.7v.7Z" class="g1_69"/>
<path d="M71.1 282.1h54.3v-.7H71.1v.7Z" class="g1_69"/>
<path d="M125.4 282.1h.7v-.7h-.7v.7Z" class="g1_69"/>
<path d="M126.1 282.1H370.9v-.7H126.1v.7Z" class="g1_69"/>
<path d="M370.9 282.1h.7v-.7h-.7v.7Z" class="g1_69"/>
<path d="M371.6 282.1H616.4v-.7H371.6v.7Z" class="g1_69"/>
<path d="M616.4 282.1h.7v-.7h-.7v.7Z" class="g1_69"/>
<path d="M617.1 282.1H861.9v-.7H617.1v.7Z" class="g1_69"/>
<path d="M861.9 282.1h.7v-.7h-.7v.7Z" class="g1_69"/>
<path d="M70.4 333.8h.7V282.1h-.7v51.7Z" class="g1_69"/>
<path d="M125.4 333.8h.7V282.1h-.7v51.7Z" class="g1_69"/>
<path d="M370.9 333.8h.7V282.1h-.7v51.7Z" class="g1_69"/>
<path d="M616.4 333.8h.7V282.1h-.7v51.7Z" class="g1_69"/>
<path d="M861.9 333.8h.7V282.1h-.7v51.7Z" class="g1_69"/>
<path fill-rule="evenodd" d="M71.1 411.2h54.3V334.6H71.1v76.6Z" class="g0_69"/>
<path fill-rule="evenodd" d="M79 384.8h38.5V361H79v23.8Z" class="g0_69"/>
<path d="M137.1 363h25.2" class="gc_69"/>
<path d="M187.6 363H212m119.5 0h23.2m28 0h23.2m25.5 -.1h24.1" class="ge_69"/>
<path d="M70.4 334.6h.7v-.8h-.7v.8Z" class="g1_69"/>
<path d="M71.1 334.6h54.3v-.8H71.1v.8Z" class="g1_69"/>
<path d="M125.4 334.6h.7v-.8h-.7v.8Z" class="g1_69"/>
<path d="M126.1 334.6H370.9v-.8H126.1v.8Z" class="g1_69"/>
<path d="M370.9 334.6h.7v-.8h-.7v.8Z" class="g1_69"/>
<path d="M371.6 334.6H616.4v-.8H371.6v.8Z" class="g1_69"/>
<path d="M616.4 334.6h.7v-.8h-.7v.8Z" class="g1_69"/>
<path d="M617.1 334.6H861.9v-.8H617.1v.8Z" class="g1_69"/>
<path d="M861.9 334.6h.7v-.8h-.7v.8Z" class="g1_69"/>
<path d="M70.4 411.4h.7V334.6h-.7v76.8Z" class="g1_69"/>
<path d="M70.4 412.1h.7v-.7h-.7v.7Z" class="g1_69"/>
<path d="M70.4 412.1h.7v-.7h-.7v.7Z" class="g1_69"/>
<path d="M71.1 412.1h54.3v-.7H71.1v.7Z" class="g1_69"/>
<path d="M125.4 411.4h.7V334.6h-.7v76.8Z" class="g1_69"/>
<path d="M125.4 412.1h.7v-.7h-.7v.7Z" class="g1_69"/>
<path d="M126.1 412.1H370.9v-.7H126.1v.7Z" class="g1_69"/>
<path d="M370.9 411.4h.7V334.6h-.7v76.8Z" class="g1_69"/>
<path d="M370.9 412.1h.7v-.7h-.7v.7Z" class="g1_69"/>
<path d="M371.6 412.1H616.4v-.7H371.6v.7Z" class="g1_69"/>
<path d="M616.4 411.4h.7V334.6h-.7v76.8Z" class="g1_69"/>
<path d="M616.4 412.1h.7v-.7h-.7v.7Z" class="g1_69"/>
<path d="M617.1 412.1H861.9v-.7H617.1v.7Z" class="g1_69"/>
<path d="M861.9 411.4h.7V334.6h-.7v76.8Z" class="g1_69"/>
<path d="M861.9 412.1h.7v-.7h-.7v.7Z" class="g1_69"/>
<path d="M861.9 412.1h.7v-.7h-.7v.7Z" class="g1_69"/>
<path fill-rule="evenodd" d="M57.4 687.9h65.4V660.4H57.4v27.5Z" class="g0_69"/>
<path d="M65.3 687.9h49.8V660.4H65.3v27.5Z" class="g0_69"/>
<path d="M731.9 728.8l-21 -13.5l2.1 -3.6l-3.2 -2.2l20.7 -32.6l1.5 52Z" class="gf_69"/>
<path d="M707.5 713.1l2.3 -3.6l3.2 2.2l-2.1 3.6Z" class="gf_69"/>
<path d="M707.5 713.1l3.4 2.2l21 13.5l-.1 .4l-.5 .1l-45.6 18.2Z" class="gf_69"/>
<path d="M685.3 748.1l.4 -.6l45.6 -18.2l.3 .3l.1 .1l-4.6 22.5L726 757Z" class="gf_69"/>
<path d="M731.8 729.2l.2 -.1v-.2l-1.5 -52l.2 -.4h.2l19 45.1l-4.2 1.8l-14 6.1Z" class="gf_69"/>
<path d="M731.9 728.8l.1 .1v.2l-.2 .1Z" class="gf_69"/>
<path d="M731.7 729.7v-.2l14 -6.1l1.8 4.3l4.2 -1.9l16.7 39.6l-.2 .3Z" class="gf_69"/>
<path d="M731.6 729.6l.1 -.1v.2Z" class="gf_69"/>
<path d="M731.3 729.3l.5 -.1l-.1 .3l-.1 .1Z" class="gf_69"/>
<path d="M745.7 723.4l4.2 -1.8l1.8 4.2l-4.2 1.9Z" class="gf_69"/>
<path d="M730.4 758l1 -4.9l-4.3 -.9l4.6 -22.5l36.5 36l-.5 .5Z" class="gf_69"/>
<path d="M726 757l1.1 -4.8l4.3 .9l-1 4.9Z" class="gf_69"/>
<path d="M768.4 765.4l-.2 .3l-.5 .5m0 0L730.4 758L726 757l-40.7 -8.9m0 0l.4 -.6l21.8 -34.4l2.3 -3.5L730.5 677l.2 -.5M685.3 748v.1m45.4 -71.6h-.2l-2.5 .1l-2.4 .3l-2.4 .3l-2.3 .5l-2.3 .6l-2.2 .7l-2.2 .7l-2.1 1l-2.1 1l-2 1.1l-2.1 1.2l-1.9 1.3l-1.9 1.4l-1.9 1.6l-1.9 1.6l-1.7 1.8l-1.9 1.9l-1.6 2l-1.6 2l-1.4 2.1l-1.4 2.1l-1.2 2.2l-1.1 2.1l-1 2.4l-.9 2.3l-.7 2.4l-.7 2.4l-.5 2.5l-.4 2.4l-.3 2.7l-.2 2.6V731l.2 2.5l.2 2.5l.2 1.2l.3 1.3l.2 1.1l.2 1.2l.6 2.4l.3 1.1l.4 1.2l.8 2.2l.1 .1v.1l.1 .1m0 .1v0m0 0V748m45.6 -71.5l19 45.1l1.8 4.2l16.7 39.6M685.3 748.1l1 2.3l.5 1.1l.6 1.2l.6 1.1l.6 1.1L690 757l.7 1.1l.7 1l1.6 2.1l.9 1l.8 1l.9 1l1 1l1.9 1.8l.9 .9l1 .8l2 1.6l2 1.5l2.1 1.4l1 .6l1.1 .6l2.2 1.1l2.3 1.1l2.2 .9l2.4 .7l2.3 .7l1.2 .3l1.3 .2l2.4 .5l2.6 .2l2.5 .2l1.3 .1h2.6l1.3 -.1l2.4 -.1l1.2 -.2h.3l.3 -.1h.7l.6 -.1l.2 -.1h.4l1.2 -.2l1.1 -.3l.6 -.1l.6 -.1l2.3 -.6l.3 -.1l.2 -.1l.6 -.2l1.2 -.3l1.1 -.5l1.1 -.4l.5 -.2l.6 -.3l1 -.4l2.2 -1.1l2 -1.2L759 773l1 -.6l1 -.7l1 -.7l1.9 -1.5l1.9 -1.6l.9 -.9l.5 -.4l.5 -.4m.7 -.8l.3 -.2l.9 -1l.2 -.3l.2 -.2l.5 -.5l.8 -1l.5 -.5l.4 -.5l.4 -.5l.4 -.5l.7 -1l1.5 -2l.2 -.3l.1 -.3l.4 -.5l.7 -1.1l.6 -1.1l.6 -1l.5 -1.2l.2 -.3l.1 -.2l.3 -.5l.5 -1.2l.5 -1.1l.9 -2.4l.2 -.6l.2 -.6l.3 -1.1l.3 -1.3l.1 -.3l.1 -.3l.2 -.6l.3 -1.2l.1 -.6l.1 -.6l.2 -1.3l.1 -.6l.1 -.6l.2 -1.3v-1l.1 -.3V733l.1 -.6l.1 -1.3v-1.4l.1 -1.2l-.1 -1.4v-1.3l-.2 -2.6l-.3 -2.7l-.4 -2.4l-.2 -1.3l-.3 -1.2l-.7 -2.4l-.7 -2.4l-.9 -2.3l-1 -2.4L777.8 704l-.6 -1.2l-.6 -1l-1.4 -2.1l-1.5 -2.1l-1.5 -2l-.9 -1l-.8 -1l-1.8 -1.9l-1 -1l-.9 -.9l-1 -.9l-1 -.8l-1 -.8l-.9 -.8l-1.1 -.8l-1 -.7l-1 -.7l-1.1 -.7l-2.1 -1.2l-1.1 -.6l-1.1 -.5l-1.1 -.6l-1.1 -.4l-2.3 -.9l-1.2 -.5l-1.1 -.3l-1.2 -.4l-1.2 -.3l-1.2 -.2l-1.2 -.3l-1.3 -.2l-1.2 -.2l-1.3 -.2l-1.2 -.1l-1.3 -.1l-1.3 -.1h-4.3m0 0h-.2m37 89.7l1.2 .3l-.1 -.3l-.4 -.8" class="gg_69"/>
<path d="M685.2 747.7l.5 -.2L687 747m2 -.7l1.9 -.8m1.9 -.7l1.9 -.7m2 -.7l1.9 -.8m1.9 -.7l2 -.7m1.9 -.8l1.9 -.7m1.9 -.9l1.9 -.7m2 -.8l1.9 -.8m1.9 -.7l1.9 -.9m2 -.8l1.9 -.7m1.9 -.9l2 -.8m1.9 -.7l1.9 -.8m1.1 -54.1v2m.1 2.1l.1 2m.1 2.1l.1 2.1m.1 2l.1 2.1m0 2.1l.1 2m0 2.1l.1 2.1m0 2l.1 2.1m0 2.1l.1 2.1m0 2l.1 2.1m0 2l.1 2.1m0 2.1l.1 2.1m0 2l.1 2.1m0 2.1l.1 2m36.8 38.5l-.6 -.5l-.9 -.8m-1.4 -1.5L764.5 762M763 760.5l-1.4 -1.4m-1.4 -1.5l-1.4 -1.4m-1.4 -1.5l-1.5 -1.4m-1.4 -1.5l-1.4 -1.4m-1.5 -1.5l-1.5 -1.4m-1.5 -1.4l-1.4 -1.5m-1.6 -1.5l-1.4 -1.4m-1.5 -1.5l-1.5 -1.4m-1.6 -1.5l-1.5 -1.4m-1.4 -1.4L735.2 733m-1.5 -1.4l-1.6 -1.5" class="gh_69"/>
<path d="M731.7 729.5l-.1 .1m.3 -.8l.1 .1m-.3 .6l.1 -.3l.1 -.4m41.5 -17.4l-1.9 .8m-1.8 .8l-1.8 .9m-1.8 .8l-1.9 .8m-1.8 .9l-1.8 .8m-1.9 .8l-1.9 .8m-1.9 .7l-1.8 .8m-1.9 .8l-1.3 .5l-.8 .4m-1.8 .8l-1.6 .6l-.3 .1m-1.8 .9l-1.9 .8m-1.9 .8l-1.8 .8m-1.9 .8l-1.8 .9m-2 .7l-.6 .3M730.4 758l1 -4.9l-4.4 -.9m-31.6 -47l1.7 1.2m1.8 1.1l1.7 1.1m1.7 1.2l1.7 1.1m1.8 1.1l1.7 1.2m1.5 .9l1.8 1.1m1.7 1.1l1.7 1.1m1.7 1.2l1.8 1.1m1.7 1.2l1.7 1.1m1.7 1.1l1.8 1.1m1.7 1.1l1.7 1.1m1.8 1.1l1.7 1m20.2 -2.7l-4.2 1.9l-1.8 -4.3m-23.3 51.5l.4 -2.1m.4 -2l.4 -2.1m.4 -2l.4 -2.1m.4 -2.1l.4 -1.9m.6 -2L726 757l.2 -.4m.4 -2l.4 -2.1m.4 -2l.4 -2m.4 -2.1l.4 -2m.4 -2.1l.4 -2.1m.4 -2l.5 -2.1m.4 -2.1l.5 -2m.4 -2.1l.1 -.2v-.2M710.9 715.3l2.1 -3.6l-3.2 -2.1" class="gi_69"/>
<path d="M731.2 731.1l-.3 -.1l-.3 -.2l-.3 -.2l-.3 -.4l-.2 -.3l-.1 -.2v-1l.1 -.4l.2 -.4l.3 -.2l.3 -.3l.3 -.2l.3 -.1h1.1l.2 .1l.3 .2l.3 .3l.2 .2l.2 .4l.1 .4l.1 .4v.2h-.1v.4h-.1v.2l-.2 .3l-.2 .4l-.3 .2l-.3 .2h-.2l-.2 .1l-.4 .1Z" class="g4_69"/>
<path d="M775 690.7l.1 -.5v-.5l-.1 -.4l-.1 -.2v-.2l-.1 -.1l-.1 -.1l-.4 -.4l-.2 -.2l-.3 -.1l-.5 -.2l-.7 -.1l6.5 -1.7l-4.2 5.3Z" class="gj_69"/>
<path d="M733 726.9l.2 -1.2l.3 -1.1l.3 -1.1l.4 -1.1l.5 -1.1l.6 -1.1l.3 -.6l.3 -.6l.7 -1.1l.8 -1.2l.8 -1.1l.9 -1.2l1 -1.1l1.1 -1.2l1.1 -1.1l1.2 -1.2l1.3 -1.2l1.3 -1.2l1.5 -1.2L749 705l1.6 -1.2l1.6 -1.2l1.7 -1.3l1.8 -1.2l1.9 -1.2l.9 -.6l1 -.6l1.9 -1.3l2.1 -1.2l2.1 -1.3l2.2 -1.3l2.3 -1.2l2.3 -1.3l2.5 -1.2" class="gk_69"/>
<path d="M682.1 692.3l6.4 -1.7l-.4 .4l-.4 .4l-.3 .4l-.1 .4l-.1 .3l-.1 .1v.3l.1 .4l.2 .6l.3 .5l.5 .5Z" class="gj_69"/>
<path d="M687.1 692.8h1l.9 .2l1 .1l.9 .2l.9 .1l.8 .3l.8 .2l.8 .4l.7 .2l.7 .4l.6 .4l.7 .4l.5 .4l.6 .5l.5 .5l.6 .5l.4 .6l.4 .5l.4 .6l.4 .7l.3 .6l.3 .7l.2 .7l.3 .8l.1 .8l.2 .8l.1 .8l.1 .9v.9l.1 .9v1l-.1 1" class="gk_69"/>
<path d="M792.5 732.1V731l-.2 -.5v-.2h-.1l-.1 -.1v-.1l-.2 -.2l-.4 -.3l-.4 -.2l-.5 -.2l-.6 -.1l5.6 -1.3l.9 -.2l-4.2 5.2Z" class="gj_69"/>
<path d="M792.3 730.5l-1.1 .6l-1.1 .6l-1.1 .4l-1 .3l-1.1 .2l-1.1 .1l-1.1 .1l-1 -.1" class="gk_69"/>
<path d="M56.7 660.4h.7v-.8h-.7v.8Z" class="g1_69"/>
<path d="M56.7 660.4h.7v-.8h-.7v.8Z" class="g1_69"/>
<path d="M57.4 660.4h65.4v-.8H57.4v.8Z" class="g1_69"/>
<path d="M122.8 660.4h.8v-.8h-.8v.8Z" class="g1_69"/>
<path d="M123.6 660.4H634.2v-.8H123.6v.8Z" class="g1_69"/>
<path d="M634.1 660.4h.8v-.8h-.8v.8Z" class="g1_69"/>
<path d="M634.9 660.4h239v-.8h-239v.8Z" class="g1_69"/>
<path d="M873.9 660.4h.8v-.8h-.8v.8Z" class="g1_69"/>
<path d="M873.9 660.4h.8v-.8h-.8v.8Z" class="g1_69"/>
<path d="M56.7 687.9h.7V660.4h-.7v27.5Z" class="g1_69"/>
<path d="M122.8 687.9h.8V660.4h-.8v27.5Z" class="g1_69"/>
<path d="M634.1 687.9h.8V660.4h-.8v27.5Z" class="g1_69"/>
<path d="M873.9 687.9h.8V660.4h-.8v27.5Z" class="g1_69"/>
<path fill-rule="evenodd" d="M57.4 784.1h65.4V688.6H57.4v95.5Z" class="g0_69"/>
<path fill-rule="evenodd" d="M65.3 750h49.8V722.5H65.3V750Z" class="g0_69"/>
<path d="M56.7 688.6h.7v-.7h-.7v.7Z" class="g1_69"/>
<path d="M57.4 688.6h65.4v-.7H57.4v.7Z" class="g1_69"/>
<path d="M122.8 688.6h.8v-.7h-.8v.7Z" class="g1_69"/>
<path d="M123.6 688.6H634.2v-.7H123.6v.7Z" class="g1_69"/>
<path d="M634.1 688.6h.8v-.7h-.8v.7Z" class="g1_69"/>
<path d="M873.9 688.6h.8v-.7h-.8v.7Z" class="g1_69"/>
<path d="M56.7 784.1h.7V688.6h-.7v95.5Z" class="g1_69"/>
<path d="M122.8 784.1h.8V688.6h-.8v95.5Z" class="g1_69"/>
<path d="M634.1 784.1h.8V688.6h-.8v95.5Z" class="g1_69"/>
<path d="M873.9 784.1h.8V688.6h-.8v95.5Z" class="g1_69"/>
<path fill-rule="evenodd" d="M57.4 952.6h65.4V784.8H57.4V952.6Z" class="g0_69"/>
<path fill-rule="evenodd" d="M65.3 882.6h49.8V855.1H65.3v27.5Z" class="g0_69"/>
<path fill-rule="evenodd" d="M123.8 812.3H359.2V784.8H123.8v27.5Z" class="gl_69"/>
<path d="M131.6 812.3H351.3V784.8H131.6v27.5Z" class="gl_69"/>
<path fill-rule="evenodd" d="M359.9 812.3H634.2V784.8H359.9v27.5Z" class="gl_69"/>
<path d="M367.8 812.3H626.3V784.8H367.8v27.5Z" class="gl_69"/>
<path fill-rule="evenodd" d="M634.9 812.3H874.1V784.8H634.9v27.5Z" class="gl_69"/>
<path d="M642.8 812.3H866.3V784.8H642.8v27.5Z" class="gl_69"/>
<path d="M56.7 784.8h.7v-.7h-.7v.7Z" class="g1_69"/>
<path d="M57.4 784.8h65.4v-.7H57.4v.7Z" class="g1_69"/>
<path d="M122.8 784.8h.8v-.7h-.8v.7Z" class="g1_69"/>
<path d="M123.6 784.8H359.1v-.7H123.6v.7Z" class="g1_69"/>
<path d="M359.2 784.8h.7v-.7h-.7v.7Z" class="g1_69"/>
<path d="M359.9 784.8H634.2v-.7H359.9v.7Z" class="g1_69"/>
<path d="M634.1 784.8h.8v-.7h-.8v.7Z" class="g1_69"/>
<path d="M634.9 784.8h239v-.7h-239v.7Z" class="g1_69"/>
<path d="M873.9 784.8h.8v-.7h-.8v.7Z" class="g1_69"/>
<path d="M56.7 812.3h.7V784.8h-.7v27.5Z" class="g1_69"/>
<path d="M122.8 812.3h.8V784.8h-.8v27.5Z" class="g1_69"/>
<path d="M359.2 812.3h.7V784.8h-.7v27.5Z" class="g1_69"/>
<path d="M634.1 812.3h.8V784.8h-.8v27.5Z" class="g1_69"/>
<path d="M873.9 812.3h.8V784.8h-.8v27.5Z" class="g1_69"/>
<path d="M243.3 878l.6 -.2l-1.4 -49.4l.2 -.4h.1l35.5 84.2l-.2 .1l-.1 .1Z" class="g0_69"/>
<path d="M242.5 828.4l1.4 49.4l-.6 .2l-43.1 17.2Z" class="g0_69"/>
<path d="M199.8 895.8l.4 -.6L243.3 878L278 912.4l-.4 .5Z" class="g0_69"/>
<path d="M199.8 895.8l.4 -.6l42.3 -66.8l.2 -.4m.1 0h-.1m0 0h-.2l-2.4 .1l-2.2 .3l-2.3 .3l-2.1 .4l-2.2 .6l-2.1 .6l-2.1 .8l-2 .8l-2 .9l-1.9 1.1l-1.9 1.1l-1.8 1.3l-1.9 1.4l-1.7 1.4l-1.8 1.6l-1.6 1.6l-.9 .9l-.9 1l-1.6 1.8l-1.5 1.9l-1.3 2l-1.3 2l-1.1 2.1l-1.1 2.1l-.9 2.1l-.8 2.2l-.4 1.1l-.3 1.2l-.7 2.2l-.4 2.4l-.3 1.2l-.1 1.2l-.3 2.4l-.2 2.5v5l.1 1.2l.1 1.2l.1 1.1l.1 1.2l.2 1.2l.2 1.1l.4 2.3l.3 1.1l.3 1.1l.3 1.1l.4 1.1l.3 1.1l.4 1l.1 .1l.1 .2m77.8 17.2L199.8 895.8m78.5 16.4l.2 -.3l.9 -.9l.1 -.2l.3 -.3l.4 -.4l.4 -.5l.2 -.2l.2 -.2l.8 -1l.7 -.9l.8 -1l.7 -1l.7 -.9l.6 -1.1l.6 -1l.3 -.5l.3 -.5l.6 -1l.5 -1.1l.5 -1l.5 -1.1l.5 -1.1l.2 -.5l.2 -.6l.4 -1.1l.2 -.6l.1 -.2l.1 -.3l.3 -1.1l.3 -1.2l.3 -1.1l.3 -1.2l.2 -1.1l.1 -.6l.1 -.3v-.3l.2 -1.2l.1 -.6v-.6l.2 -1.3l.1 -1.2l.1 -1.2v-5.1l-.2 -2.5l-.2 -1.2l-.1 -1.2l-.2 -1.2l-.2 -1.2l-.5 -2.4l-.6 -2.2l-.3 -1.2l-.4 -1.1l-.8 -2.2l-1 -2.1l-.5 -1.1l-.5 -1l-1.2 -2.1l-1.2 -2l-1.4 -2l-.8 -.9l-.7 -1l-1.6 -1.8l-.8 -1l-.9 -.9l-.9 -.9l-.9 -.8l-.9 -.9l-.9 -.7l-1 -.8l-.9 -.8l-1 -.7l-.9 -.7l-1 -.7l-1 -.6l-1 -.6l-1 -.6l-1 -.5l-1 -.5L264 832l-1 -.5l-1.1 -.4l-1.1 -.4l-1.1 -.4l-1.1 -.3l-1.1 -.4l-1.1 -.3l-1.2 -.2l-1.1 -.3l-1.2 -.2l-1.2 -.2l-1.1 -.1l-1.2 -.1l-1.3 -.1l-1.2 -.1l-1.2 -.1h-1.2l-1.7 .1m-43 67.8l.4 1.1l.5 1.1l.5 1l.6 1.1l.5 1l.6 1.1l.6 1l.7 1l.7 1l.7 1l.7 1l.8 1l.8 .9l.8 1l.8 .9l1 .9l.8 .9l.9 .9l1.9 1.6l.9 .8l.9 .7l1.9 1.4l2 1.3l1 .6l1 .6l1.1 .5l1 .6l2.1 .9l2.2 .9l1 .4l1.2 .3l2.2 .6l2.3 .6l1.1 .2l1.2 .1l1.2 .2l1.2 .1l2.4 .2h1.3l1.2 .1l1.2 -.1h1.2l1.1 -.1l1.2 -.1l1.1 -.1l1.2 -.1l1.1 -.2l1.2 -.2L256 925l1.1 -.3l.2 -.1h.3l.6 -.2l.5 -.1l.2 -.1l.3 -.1l1.1 -.3l1 -.4l1.1 -.4l1 -.5l1 -.4l1 -.5l.5 -.3l.5 -.2l.5 -.3l.5 -.3l1 -.5l.9 -.6l.5 -.3l.2 -.2l.3 -.1l.9 -.7l1 -.6l.9 -.8l.9 -.7l.9 -.7l.9 -.8l.9 -.8l.9 -.8M199.8 895.8v-.1m0 .1v0m0 -.1v.1m77.8 17.1l.4 -.5l.1 -.1l.2 -.1m-.7 .7l1.1 .2l-.1 -.2l-.3 -.7M242.8 828l35.5 84.2" class="gm_69"/>
<path d="M242.4 827.6l.1 .4v1.1m0 1.5l.1 1.6m.1 1.5l.1 1.6m0 1.6l.1 1.5m.1 1.6v1.5m0 1.6v1.5m.1 1.6v1.5m.1 1.6v1.6m.1 1.5V854m0 1.5v1.6m.1 1.5v1.6m.1 1.6v1.5m.1 1.6v1.5m0 1.6v1.5m.1 1.6v1.5m.1 1.6v1.6m.1 1.5v.5l-.6 .2m-43.7 17.4l.6 -.2l.9 -.4m1.4 -.5l1.5 -.6m1.4 -.5l1.5 -.6m1.4 -.5l1.5 -.6m1.4 -.5l1.5 -.5m1.4 -.6l1.5 -.5m1.4 -.6l1.5 -.5m1.4 -.6l1.4 -.6m1.5 -.6l1.4 -.6m1.5 -.6l1.4 -.6m1.5 -.6l1.4 -.7m1.5 -.5l1.4 -.6m1.4 -.6l1.5 -.6m1.3 -.6l1.5 -.5m1.4 -.7l1.4 -.5m1.4 -.6l.5 -.2m35.3 34.9l-.6 -.5l-.5 -.5m-1.1 -1.1l-1.1 -1.1m-1 -1.1l-1.1 -1.1m-1.1 -1.1l-1 -1.1m-1.1 -1l-1 -1.1m-1.1 -1.1L266.8 901m-1 -1.1l-1.1 -1.1m-1.2 -1.1l-1.1 -1.1m-1.1 -1l-1.1 -1.1m-1.1 -1.1L258 892.3m-1.1 -1.1l-1.2 -1.1M254.6 889l-1.2 -1.1m-1 -1.1l-1.2 -1.1m-1.1 -1l-1.2 -1.1m-1 -1.1l-1.2 -1.1m-1 -1.1l-1.2 -1m-1 -1.1l-.2 -.2" class="gn_69"/>
<path d="M243.2 879.7l-.3 -.1l-.3 -.2l-.3 -.2l-.3 -.3l-.1 -.2v-.2l-.2 -.3v-.8l.2 -.4l.1 -.3l.3 -.3l.3 -.3l.3 -.1l.3 -.2h.8l.4 .2h.1l.2 .1l.3 .3l.2 .3l.2 .3l.1 .4v.8l-.1 .1v.2l-.1 .2l-.1 .2l-.2 .3l-.3 .2l-.2 .1l-.1 .1h-.2l-.2 .1h-.4Z" class="g4_69"/>
<path d="M515.4 830.1l28.3 45.5l-48.2 .2h-.4l20.2 -45.3l-20.2 45.3H448.5Z" class="go_69"/>
<path d="M544.1 875.6v-.5l-.1 -1.7l-.1 -1.7l-.1 -1.7l-.2 -1.6l-.2 -1.7l-.3 -1.6l-.3 -1.6l-.4 -1.5l-.4 -1.6l-.5 -1.5l-.5 -1.5l-.6 -1.5l-.6 -1.4l-.7 -1.5l-.7 -1.4l-.8 -1.3l-.1 -.2l-.8 -1.3l-.9 -1.3l-.8 -1.2l-.9 -1.2l-1 -1.2l-1 -1.2l-1 -1.2L530 840.4l-.8 -.9l-.9 -.8l-1.7 -1.5l-.9 -.7l-.9 -.7l-.9 -.8l-.9 -.6l-1.8 -1.2l-.9 -.6l-1 -.6l-.9 -.5l-1 -.5l-1 -.5l-.9 -.4m-63.8 63.6l.4 1l.5 1l.4 1l.5 1l.6 1l.5 .9l.6 1l.6 1l.6 .9l.6 1l.7 .9l.7 .9l.8 .9l.7 .9l.8 .9l.8 .9l.8 .8l.9 .9l.9 .9l1.8 1.6l.9 .8l1 .7l1.9 1.4l1.9 1.3l2 1.2l1 .5l1.1 .6l2.1 .9l2.1 .9l1.1 .3l1.1 .4l2.2 .6l2.3 .5l1.1 .2l1.2 .2l1.2 .1l1.2 .2l2.4 .2h4.8l1.2 -.1l1.2 -.1l1.1 -.1l1.2 -.2l1.1 -.2l1.1 -.1l2.2 -.5l1.1 -.3l.2 -.1l.3 -.1l.6 -.1l.5 -.2l.2 -.1h.3l1.1 -.4l1 -.3l1.1 -.4l1 -.5l1 -.4l1 -.5l.5 -.3l.5 -.2l.5 -.3l.5 -.3l.9 -.6l1 -.5l.5 -.4l.2 -.1l.2 -.1l1 -.7l.9 -.7l.9 -.7l.9 -.7l.9 -.7l.9 -.8l.9 -.8l.9 -.8l.4 -.4l.3 -.3l.2 -.3l.8 -.9l.9 -.8l.7 -.9l.8 -.9l.3 -.5l.2 -.2l.2 -.3l.7 -.9l.7 -.9l.7 -.9l.3 -.6l.3 -.4l.6 -1l.1 -.3l.2 -.2l.3 -.5l.5 -1l.5 -1l.6 -1l.4 -1l.5 -1l.1 -.3l.1 -.3l.2 -.5l.4 -1.1l.2 -.5l.2 -.6l.3 -1l.6 -2.2l.2 -.6v-.3l.1 -.2l.3 -1.1l.2 -1.2l.2 -1.1l.2 -1.2l.1 -1.1l.1 -1.2l.1 -.6v-1.2l.1 -.6l.1 -1.2v-.8m0 0h-.4L515.4 830.1m-67.1 45.7v-3.3l.1 -1.3l.1 -1.2l.3 -2.4l.4 -2.4l.5 -2.3l.6 -2.3l.7 -2.2l.8 -2.2l.5 -1.1l.4 -1.1l1.1 -2l1.1 -2.1l1.3 -2l1.3 -1.9l1.5 -2l1.6 -1.8l1.7 -1.8l.5 -.5l.5 -.4l.2 -.2l1.6 -1.6l1.7 -1.4l1.7 -1.3l1.7 -1.2l1.8 -1.2l1.8 -1l1.9 -1l1.9 -.9l1.9 -.8l2 -.6l2 -.7l2 -.4l2.1 -.5l2.2 -.3l2.1 -.2l2.2 -.1h4.6l1.3 .1l1.3 .1l1.2 .1l1.2 .2l1.2 .2l1.2 .3l1.2 .2l1.2 .3l1.2 .3l1.1 .4l1.2 .4l1.1 .4l1.1 .4l1.2 .5m0 0v.1m.1 0l-.1 -.1m.1 .1h-.1m-63.7 63.6l.1 -.1h-.1m63.7 -63.5l-66.9 45.7h-.2m0 0v.8l.1 1.1v1l.1 1.1l.1 1.1l.1 1l.2 1.1l.3 2l.2 1l.3 1l.2 1l.3 1l.3 1l.3 1l.7 1.9l.1 .4v.2l.1 .1m0 0v.1" class="gp_69"/>
<path d="M543.7 875.6h-1.5m-1.6 0h-1.5m-1.5 0h-1.5m-1.5 0h-1.5m-1.5 0H530m-1.5 0H527m-1.5 0H524m-1.5 0H521m-1.5 0h-1.6m-1.5 0h-1.5m-1.5 0h-1.5m-1.5 0h-1.5m-1.6 0h-1.5m-1.5 0h-1.5m-1.5 0l-1.5 .1m-1.5 0l-1.6 .1m18.6 -45.3l-.6 1.4m-.6 1.4l-.6 1.4m-.6 1.4l-.6 1.3m-.6 1.5l-.6 1.3m-.6 1.4l-.7 1.4m-.6 1.4l-.6 1.4m-.6 1.4l-.6 1.4m-.6 1.4l-.6 1.4m-.6 1.4l-.7 1.4m-.6 1.4l-.7 1.4m-.6 1.4l-.6 1.4m-.7 1.4l-.6 1.4m-.6 1.4l-.6 1.4m-.7 1.4l-.6 1.3m-.6 1.5l-.7 1.3m-.6 1.4l-.7 1.4m-.6 1.4l-.3 .7m-.2 0h-1.5m-1.5 0h-1.5m-1.5 0h-1.5m-1.6 0h-1.5m-1.5 0h-1.5m-1.5 0h-1.5m-1.5 0h-1.5m-1.5 0h-1.6m-1.5 0h-1.5m-1.5 0h-1.5m-1.5 0h-1.5m-1.6 0h-1.5m-1.5 0h-1.5m-1.5 0h-1.5m-1.5 0H451m-1.5 0h-1" class="gq_69"/>
<path d="M495.5 875.8h-.6" class="gr_69"/>
<path d="M494.9 877.6l-.3 -.1l-.4 -.2l-.2 -.2l-.3 -.3l-.1 -.2v-.1l-.2 -.4v-.8l.2 -.4l.1 -.3l.3 -.3l.2 -.2l.4 -.2l.3 -.1h.8l.3 .1l.2 .1l.2 .1l.1 .1l.2 .1l.2 .3l.2 .3l.1 .4v.8l-.1 .2v.2l-.1 .1l-.1 .2l-.2 .3l-.2 .1h-.1v.1l-.2 .1l-.2 .1h-.2l-.1 .1h-.4Z" class="g4_69"/>
<path d="M724.7 834.8l74 10.8l.1 .1l.1 .1l-.3 .1l-51.3 14.8Z" class="gs_69"/>
<path d="M709.1 870.6v-.1l15 -35.5l.1 -.2h.5l22.6 25.9l-38.2 10.9Z" class="gs_69"/>
<path d="M798.7 845.6l-.8 -1.3l-.8 -1.3l-.9 -1.2l-.9 -1.2l-1 -1.2l-1 -1.2l-1 -1.2l-1.1 -1.1l-.9 -.9l-.9 -.9l-.9 -.8l-.9 -.8l-.9 -.8l-1 -.7l-.9 -.8l-1 -.6l-1 -.7l-1 -.6l-1 -.6l-1 -.6l-1 -.6l-1 -.5l-1.1 -.4l-1 -.5l-1.1 -.4l-1.1 -.4l-1.1 -.4l-1.1 -.4l-1.1 -.3l-1.1 -.3l-1.2 -.3l-1.1 -.2l-1.2 -.2l-1.1 -.2l-1.2 -.1l-1.2 -.2l-1.2 -.1h-1.2l-1.3 -.1h-1.2l-1.7 .1h-.3l-2.2 .1l-2.2 .2l-2.2 .3l-2 .5l-2.1 .4l-2 .7l-2 .6l-1.9 .8l-2 .9l-1.8 1l-1.9 1l-1.8 1.2l-1.7 1.2l-1.7 1.3l-1.7 1.4l-1.6 1.6m74.9 10.9l-.6 -.1m.2 .2l.4 -.1m-.4 .1l-.3 .1l-51.3 14.8l-38.2 10.9m89.6 -26v0l.1 .1l.1 .1m-86.3 43.4v0h-.1m0 0h.1m0 0l.1 .5l.3 .5l.4 1l.5 1l.5 1l.5 1l.5 1l.6 1l.6 .9l.7 1l.6 .9l.7 1l.7 .9l.7 .9l.8 .9l.7 .9l1.7 1.7l.8 .9l1 .9l1.8 1.6l.9 .8l1 .7l1.9 1.4l1.9 1.3l1 .6l1.1 .6l1 .5l1 .6l2.2 .9l2.1 .9l1.1 .3l1.1 .4l2.2 .6l2.3 .5l1.2 .2l1.1 .2l1.2 .2l1.2 .1l2.4 .2h4.9l1.1 -.1l1.2 -.1l1.2 -.1l1.1 -.2l1.2 -.1l1.1 -.2l2.2 -.5l1.1 -.3l.2 -.1h.3l.6 -.2l.5 -.1l.3 -.1l.2 -.1l1.1 -.4l1 -.3l1.1 -.4l1 -.5l1.1 -.4l.9 -.5l.5 -.3l.6 -.2l.4 -.3l.5 -.3l1 -.5l1 -.6l.4 -.3l.3 -.2l.2 -.1l1 -.7l.9 -.6l.9 -.8l.9 -.7l.9 -.7l.9 -.8l.9 -.8l.4 -.4l.5 -.4l.4 -.4l.2 -.2l.1 -.1l.2 -.3l.9 -.9l.2 -.2l.2 -.2l.4 -.5l.4 -.5l.2 -.2l.2 -.2l.8 -.9l.8 -1l.7 -1l.7 -1l.7 -.9l.6 -1l.6 -1l.3 -.6l.3 -.5l.6 -1l.5 -1l.5 -1.1l.5 -1.1l.5 -1l.2 -.6l.2 -.5l.4 -1.1l.2 -.6l.1 -.3l.1 -.3l.3 -1.1l.3 -1.1l.3 -1.2l.3 -1.1l.2 -1.2l.1 -.6l.1 -.3v-.3l.2 -1.2l.1 -.6l.1 -.6l.1 -1.2l.1 -1.2l.1 -1.3v-4.2l-.1 -1.7l-.1 -1.7l-.2 -1.6l-.2 -1.6l-.3 -1.6l-.3 -1.6l-.4 -1.6l-.4 -1.5l-.5 -1.6l-.6 -1.4l-.5 -1.5L801 850l-.6 -1.4l-.8 -1.4l-.7 -1.4M724.1 835l-.9 .9l-1.7 1.8l-1.6 1.9l-1.5 1.9l-1.4 1.9l-1.2 2l-1.2 2.1l-1 2.1l-.5 1l-.4 1.1l-.9 2.2l-.7 2.2l-.6 2.3l-.5 2.3l-.4 2.4l-.3 2.4l-.1 2.5l-.1 2.5m15.3 -35.7h-.2l-.1 .2m74.6 10.6l-74 -10.8h-.3m-15.3 35.7v1.1m0 0v1.1l.1 1.1l.2 2.2l.1 1.1l.1 1.1l.2 1.1l.2 1.1l.2 1l.2 1l.2 1.1l.3 1l.3 1l.3 1l.4 1l.4 1l.1 .4v.1l.1 .1v.1m-3.4 -18.7l-.4 1M724.1 835l-15 35.5" class="gm_69"/>
<path d="M724.7 834.8l1 1.2m1 1.1l.9 1.2m1 1.2l1 1.1m1 1.2l1 1.2m1 1.1l1 1.2m1 1.2l1 1.1m1 1.2l1 1.2m1.1 1.1l1 1.2m1.1 1.1l1 1.2m1 1.2l1.1 1.1m1.1 1.2l1 1.2m1 1l.3 .4l.7 .7m1 1.2l.9 1.2m1 1.1l1.1 1.2m1 1.2l1.1 1.1m1 1.2l1.1 1.1m1.2 -.4l1.3 -.8m1.3 -.8l1.3 -.7m1.3 -.8l1.2 -.8m1.3 -.8l1.3 -.7m1.3 -.8l1.3 -.8m1.3 -.8l1.3 -.7m1.3 -.8l1.3 -.8m1.3 -.8l1.3 -.7m1.3 -.8l1.3 -.8m1.3 -.8l1.3 -.8m1.3 -.7l1.2 -.8m1.3 -.8l1.3 -.8m1.3 -.7l1.3 -.8m1.4 -.8l1.4 -.8m1.3 -.7l1.3 -.8m1.3 -.8l1.4 -.7m-89.1 25.2l.4 .1h1.1m1.5 0h1.6m1.5 0h1.5m1.5 0h1.5m1.6 0h1.5m1.5 0h1.5m1.6 0h1.5m1.5 0h1.5m1.5 0h1.6m1.5 0h1.5m1.5 0h1.5m1.6 0l1.5 -.1m1.5 0h1.5m1.6 0l1.5 -.1m1.5 0l1.5 -.1m1.5 0l1.6 -.1" class="gt_69"/>
<path d="M756.7 871.2l-.7 .3" class="gn_69"/>
<path d="M755.9 873.2l-.3 -.1l-.3 -.2l-.3 -.2l-.3 -.4l-.1 -.1V872l-.1 -.4l-.1 -.3l.1 -.5l.1 -.3l.1 -.3l.3 -.3l.3 -.3l.3 -.1l.3 -.2h.8l.4 .2h.1l.2 .1l.2 .1l.1 .2l.2 .3l.2 .3l.1 .3l.1 .5l-.1 .1v.4l-.1 .2l-.1 .2l-.1 .1v.1l-.1 .1l-.1 .2l-.1 .1h-.2v.1l-.2 .1l-.1 .1h-.2l-.2 .1h-.4Z" class="g4_69"/>
<path d="M56.7 813.1h.7v-.8h-.7v.8Z" class="g1_69"/>
<path d="M122.8 813.1h.8v-.8h-.8v.8Z" class="g1_69"/>
<path d="M123.6 813.1H359.1v-.8H123.6v.8Z" class="g1_69"/>
<path d="M359.2 813.1h.7v-.8h-.7v.8Z" class="g1_69"/>
<path d="M359.9 813.1H634.2v-.8H359.9v.8Z" class="g1_69"/>
<path d="M634.1 813.1h.8v-.8h-.8v.8Z" class="g1_69"/>
<path d="M634.9 813.1h239v-.8h-239v.8Z" class="g1_69"/>
<path d="M873.9 813.1h.8v-.8h-.8v.8Z" class="g1_69"/>
<path d="M56.7 952.6h.7V813.1h-.7V952.6Z" class="g1_69"/>
<path d="M122.8 952.6h.8V813.1h-.8V952.6Z" class="g1_69"/>
<path d="M359.2 952.6h.7V813.1h-.7V952.6Z" class="g1_69"/>
<path d="M634.1 952.6h.8V813.1h-.8V952.6Z" class="g1_69"/>
<path d="M873.9 952.6h.8V813.1h-.8V952.6Z" class="g1_69"/>
<path fill-rule="evenodd" d="M57.4 981h65.4V953.5H57.4V981Z" class="g0_69"/>
<path d="M65.3 981h49.8V953.5H65.3V981Z" class="g0_69"/>
<path d="M56.7 953.3h.7v-.7h-.7v.7Z" class="g1_69"/>
<path d="M57.4 953.3h65.4v-.7H57.4v.7Z" class="g1_69"/>
<path d="M122.8 953.3h.8v-.7h-.8v.7Z" class="g1_69"/>
<path d="M123.6 953.3H359.1v-.7H123.6v.7Z" class="g1_69"/>
<path d="M359.2 953.3h.7v-.7h-.7v.7Z" class="g1_69"/>
<path d="M359.9 953.3H634.2v-.7H359.9v.7Z" class="g1_69"/>
<path d="M634.1 953.3h.8v-.7h-.8v.7Z" class="g1_69"/>
<path d="M634.9 953.3h239v-.7h-239v.7Z" class="g1_69"/>
<path d="M873.9 953.3h.8v-.7h-.8v.7Z" class="g1_69"/>
<path d="M56.7 981h.7V953.3h-.7V981Z" class="g1_69"/>
<path d="M56.7 981.7h.7V981h-.7v.7Z" class="g1_69"/>
<path d="M56.7 981.7h.7V981h-.7v.7Z" class="g1_69"/>
<path d="M57.4 981.7h65.4V981H57.4v.7Z" class="g1_69"/>
<path d="M122.8 981h.8V953.3h-.8V981Z" class="g1_69"/>
<path d="M122.8 981.7h.8V981h-.8v.7Z" class="g1_69"/>
<path d="M123.6 981.7H359.1V981H123.6v.7Z" class="g1_69"/>
<path d="M359.2 981h.7V953.3h-.7V981Z" class="g1_69"/>
<path d="M359.2 981.7h.7V981h-.7v.7Z" class="g1_69"/>
<path d="M359.9 981.7H634.2V981H359.9v.7Z" class="g1_69"/>
<path d="M634.1 981h.8V953.3h-.8V981Z" class="g1_69"/>
<path d="M634.1 981.7h.8V981h-.8v.7Z" class="g1_69"/>
<path d="M634.9 981.7h239V981h-239v.7Z" class="g1_69"/>
<path d="M873.9 981h.8V953.3h-.8V981Z" class="g1_69"/>
<path d="M873.9 981.7h.8V981h-.8v.7Z" class="g1_69"/>
<path d="M873.9 981.7h.8V981h-.8v.7Z" class="g1_69"/>
<image preserveAspectRatio="none" x="26" y="586" width="823" height="39" xlink:href="img/2.png"/>
<path d="M68.4 1006.4l-.9 -.1l-.8 -.3l-.8 -.4l-.6 -.5l-.3 -.4l-.3 -.3l-.3 -.7l-.3 -.8V988.5l.3 -.7l.3 -.8l.6 -.7l.6 -.5l.8 -.4l.8 -.3H81.8l.3 .1l.4 .2l.7 .4l.3 .2l.4 .3l.6 .7l.4 .8l.2 .7l.1 .9v13l-.1 .1v.4l-.2 .8l-.2 .3l-.2 .2v.2l-.3 .3l-.2 .2l-.1 .1v.1l-.4 .3l-.3 .2l-.2 .1l-.2 .1l-.3 .2l-.4 .2h-.2l-.1 .1h-.5l-.4 .1Z" class="gu_69"/>
<path d="M69.1 435.7h-.9l-.8 -.3l-.8 -.4l-.6 -.5l-.3 -.4l-.3 -.3l-.3 -.7l-.3 -.8V417.9l.3 -.8l.3 -.7l.6 -.7l.6 -.6l.8 -.3l.8 -.3H82.4l.4 .1l.4 .2l.7 .3l.3 .3l.4 .3l.6 .7l.4 .7l.2 .8l.1 .9v12.6l-.1 .4v.5l-.2 .8l-.2 .3l-.2 .2v.2l-.3 .3l-.2 .2l-.1 .1v.1l-.4 .2l-.3 .3l-.2 .1l-.2 .1l-.3 .2l-.4 .1h-.1l-.1 .1l-.2 .1h-.8Z" class="gu_69"/>
</svg>