<?xml version="1.0" encoding="UTF-8" standalone="no"?>
<!DOCTYPE svg PUBLIC "-//W3C//DTD SVG 1.1//EN"
"http://www.w3.org/Graphics/SVG/1.1/DTD/svg11.dtd">
<svg viewBox="0 0 909 1286" version="1.1" xmlns="http://www.w3.org/2000/svg" xmlns:xlink="http://www.w3.org/1999/xlink">
<defs>
<clipPath id="c0_10"><path d="M-.2 1286.6v-75.1h910v75.1Z"/></clipPath>
<style type="text/css"><![CDATA[
.g0_10{
fill: #000;
}
.g1_10{
fill: none;
stroke: #000;
stroke-width: 0.763;
stroke-linecap: square;
stroke-miterlimit: 10;
}
]]></style>
</defs>
<image clip-path="url(#c0_10)" preserveAspectRatio="none" x="-2" y="1212" width="930" height="127" xlink:href="img/1.jpg"/>
<path d="M110.6 91.1h36.6v-.9H110.6v.9Z" class="g0_10"/>
<path d="M165.6 91.1h36.6v-.9H165.6v.9Z" class="g0_10"/>
<path d="M477.2 91.1h36.7v-.9H477.2v.9Z" class="g0_10"/>
<path d="M371.2 114.9h36.6V114H371.2v.9Z" class="g0_10"/>
<path d="M133 138.9h36.7V138H133v.9Z" class="g0_10"/>
<path d="M258.3 138.9H295V138H258.3v.9Z" class="g0_10"/>
<path d="M110.6 209.9h36.6V209H110.6v.9Z" class="g0_10"/>
<path d="M257.2 209.9h36.7V209H257.2v.9Z" class="g0_10"/>
<path d="M312.2 209.9h55V209h-55v.9Z" class="g0_10"/>
<path d="M447.4 233.8h36.7v-.9H447.4v.9Z" class="g0_10"/>
<path d="M447.4 235.7h36.7v-.9H447.4v.9Z" class="g0_10"/>
<path d="M110.6 328.8h18.3v-.9H110.6v.9Z" class="g0_10"/>
<path d="M551.6 447.6h36.6v-.9H551.6v.9Z" class="g0_10"/>
<path d="M165.6 587.5H312.2v-.9H165.6v.9Z" class="g0_10"/>
<path d="M383.1 642h20M211 689.6h11.1m144.3 0h11" class="g1_10"/>
<image preserveAspectRatio="none" x="43" y="89" width="57" height="56" xlink:href="img/2.jpg"/>
<image preserveAspectRatio="none" x="43" y="208" width="57" height="56" xlink:href="img/3.jpg"/>
<image preserveAspectRatio="none" x="43" y="327" width="57" height="56" xlink:href="img/4.jpg"/>
<image preserveAspectRatio="none" x="679" y="420" width="157" height="114" xlink:href="img/5.jpg"/>
<image preserveAspectRatio="none" x="43" y="446" width="57" height="56" xlink:href="img/6.jpg"/>
<image preserveAspectRatio="none" x="699" y="572" width="155" height="114" xlink:href="img/7.jpg"/>
<image preserveAspectRatio="none" x="43" y="588" width="57" height="56" xlink:href="img/8.jpg"/>
</svg>