<?xml version="1.0" encoding="UTF-8" standalone="no"?>
<!DOCTYPE svg PUBLIC "-//W3C//DTD SVG 1.1//EN"
"http://www.w3.org/Graphics/SVG/1.1/DTD/svg11.dtd">
<svg viewBox="0 0 909 1286" version="1.1" xmlns="http://www.w3.org/2000/svg" xmlns:xlink="http://www.w3.org/1999/xlink">
<defs>
<style type="text/css"><![CDATA[
.g0_1{
fill: #DEEAF6;
}
.g1_1{
fill: #9F5FCF;
}
.g2_1{
fill: #E7E6E6;
}
.g3_1{
fill: #FCF;
}
.g4_1{
fill: #E2EFD9;
}
.g5_1{
fill: #F1F1F1;
}
.g6_1{
fill: #F4F9F1;
}
.g7_1{
fill: #EFF5FB;
}
.g8_1{
fill: #FFF2CC;
}
.g9_1{
fill: #FFFCF3;
}
.ga_1{
fill: #FDF;
}
.gb_1{
fill: #FFF7FF;
}
]]></style>
</defs>
<path fill-rule="evenodd" d="M44 86.7H865.3V44H44V86.7Z" class="g0_1"/>
<path d="M44 82.9H865.3v-35H44v35Z" class="g0_1"/>
<path d="M640.7 77.6H841V76.3H640.7v1.3Z" class="g1_1"/>
<path d="M43.3 44H44v-.7h-.7V44Z" class="g2_1"/>
<path d="M43.3 44H44v-.7h-.7V44Z" class="g2_1"/>
<path d="M44 44H865.3v-.7H44V44Z" class="g2_1"/>
<path d="M865.3 44h.8v-.7h-.8V44Z" class="g2_1"/>
<path d="M865.3 44h.8v-.7h-.8V44Z" class="g2_1"/>
<path d="M43.3 86.7H44V44h-.7V86.7Z" class="g2_1"/>
<path d="M865.3 86.7h.8V44h-.8V86.7Z" class="g2_1"/>
<path fill-rule="evenodd" d="M44 114.9h64V87.4H44v27.5Z" class="g3_1"/>
<path d="M44 114.9h64V87.4H44v27.5Z" class="g3_1"/>
<path fill-rule="evenodd" d="M108.7 114.9H811.8V87.4H108.7v27.5Z" class="g3_1"/>
<path d="M108.7 114.9H811.8V87.4H108.7v27.5Z" class="g3_1"/>
<path fill-rule="evenodd" d="M812.5 114.9h52.8V87.4H812.5v27.5Z" class="g3_1"/>
<path d="M812.5 114.9h52.8V87.4H812.5v27.5Z" class="g3_1"/>
<path d="M43.3 87.4H44v-.7h-.7v.7Z" class="g2_1"/>
<path d="M44 87.4h64v-.7H44v.7Z" class="g2_1"/>
<path d="M108 87.4h.7v-.7H108v.7Z" class="g2_1"/>
<path d="M108.7 87.4H811.8v-.7H108.7v.7Z" class="g2_1"/>
<path d="M811.8 87.4h.7v-.7h-.7v.7Z" class="g2_1"/>
<path d="M812.5 87.4h52.8v-.7H812.5v.7Z" class="g2_1"/>
<path d="M865.3 87.4h.8v-.7h-.8v.7Z" class="g2_1"/>
<path d="M43.3 114.9H44V87.4h-.7v27.5Z" class="g2_1"/>
<path d="M108 114.9h.7V87.4H108v27.5Z" class="g2_1"/>
<path d="M811.8 114.9h.7V87.4h-.7v27.5Z" class="g2_1"/>
<path d="M865.3 114.9h.8V87.4h-.8v27.5Z" class="g2_1"/>
<path fill-rule="evenodd" d="M44 482.3h64V115.7H44V482.3Z" class="g0_1"/>
<path d="M44 312.8h64V285.3H44v27.5Z" class="g0_1"/>
<path fill-rule="evenodd" d="M108.7 143.2h75V115.7h-75v27.5Z" class="g4_1"/>
<path d="M108.7 143.2h75V115.7h-75v27.5Z" class="g4_1"/>
<path fill-rule="evenodd" d="M184.4 143.2H811.8V115.7H184.4v27.5Z" class="g4_1"/>
<path d="M184.4 143.2H811.8V115.7H184.4v27.5Z" class="g4_1"/>
<path fill-rule="evenodd" d="M812.5 143.2h52.8V115.7H812.5v27.5Z" class="g5_1"/>
<path d="M812.5 143.2h52.8V115.7H812.5v27.5Z" class="g5_1"/>
<path d="M43.3 115.7H44v-.8h-.7v.8Z" class="g2_1"/>
<path d="M44 115.7h64v-.8H44v.8Z" class="g2_1"/>
<path d="M108 115.7h.7v-.8H108v.8Z" class="g2_1"/>
<path d="M108.7 115.7h75v-.8h-75v.8Z" class="g2_1"/>
<path d="M183.7 115.7h.7v-.8h-.7v.8Z" class="g2_1"/>
<path d="M184.4 115.7H811.8v-.8H184.4v.8Z" class="g2_1"/>
<path d="M811.8 115.7h.7v-.8h-.7v.8Z" class="g2_1"/>
<path d="M812.5 115.7h52.8v-.8H812.5v.8Z" class="g2_1"/>
<path d="M865.3 115.7h.8v-.8h-.8v.8Z" class="g2_1"/>
<path d="M43.3 143.2H44V115.7h-.7v27.5Z" class="g2_1"/>
<path d="M108 143.2h.7V115.7H108v27.5Z" class="g2_1"/>
<path d="M183.7 143.2h.7V115.7h-.7v27.5Z" class="g2_1"/>
<path d="M811.8 143.2h.7V115.7h-.7v27.5Z" class="g2_1"/>
<path d="M865.3 143.2h.8V115.7h-.8v27.5Z" class="g2_1"/>
<path fill-rule="evenodd" d="M108.7 171.4h75V143.9h-75v27.5Z" class="g6_1"/>
<path d="M108.7 171.4h75V143.9h-75v27.5Z" class="g6_1"/>
<path fill-rule="evenodd" d="M184.4 171.4H811.8V143.9H184.4v27.5Z" class="g6_1"/>
<path d="M184.4 171.4H811.8V143.9H184.4v27.5Z" class="g6_1"/>
<path fill-rule="evenodd" d="M812.5 171.4h52.8V143.9H812.5v27.5Z" class="g5_1"/>
<path d="M812.5 171.4h52.8V143.9H812.5v27.5Z" class="g5_1"/>
<path d="M43.3 143.9H44v-.7h-.7v.7Z" class="g2_1"/>
<path d="M108 143.9h.7v-.7H108v.7Z" class="g2_1"/>
<path d="M108.7 143.9h75v-.7h-75v.7Z" class="g2_1"/>
<path d="M183.7 143.9h.7v-.7h-.7v.7Z" class="g2_1"/>
<path d="M184.4 143.9H811.8v-.7H184.4v.7Z" class="g2_1"/>
<path d="M811.8 143.9h.7v-.7h-.7v.7Z" class="g2_1"/>
<path d="M812.5 143.9h52.8v-.7H812.5v.7Z" class="g2_1"/>
<path d="M865.3 143.9h.8v-.7h-.8v.7Z" class="g2_1"/>
<path d="M43.3 171.4H44V143.9h-.7v27.5Z" class="g2_1"/>
<path d="M108 171.4h.7V143.9H108v27.5Z" class="g2_1"/>
<path d="M183.7 171.4h.7V143.9h-.7v27.5Z" class="g2_1"/>
<path d="M811.8 171.4h.7V143.9h-.7v27.5Z" class="g2_1"/>
<path d="M865.3 171.4h.8V143.9h-.8v27.5Z" class="g2_1"/>
<path fill-rule="evenodd" d="M108.7 199.6h75V172.1h-75v27.5Z" class="g6_1"/>
<path d="M108.7 199.6h75V172.1h-75v27.5Z" class="g6_1"/>
<path fill-rule="evenodd" d="M184.4 199.6H811.8V172.1H184.4v27.5Z" class="g6_1"/>
<path d="M184.4 199.6H811.8V172.1H184.4v27.5Z" class="g6_1"/>
<path fill-rule="evenodd" d="M812.5 199.6h52.8V172.1H812.5v27.5Z" class="g5_1"/>
<path d="M812.5 199.6h52.8V172.1H812.5v27.5Z" class="g5_1"/>
<path d="M43.3 172.1H44v-.7h-.7v.7Z" class="g2_1"/>
<path d="M108 172.1h.7v-.7H108v.7Z" class="g2_1"/>
<path d="M108.7 172.1h75v-.7h-75v.7Z" class="g2_1"/>
<path d="M183.7 172.1h.7v-.7h-.7v.7Z" class="g2_1"/>
<path d="M184.4 172.1H811.8v-.7H184.4v.7Z" class="g2_1"/>
<path d="M811.8 172.1h.7v-.7h-.7v.7Z" class="g2_1"/>
<path d="M812.5 172.1h52.8v-.7H812.5v.7Z" class="g2_1"/>
<path d="M865.3 172.1h.8v-.7h-.8v.7Z" class="g2_1"/>
<path d="M43.3 199.6H44V172.1h-.7v27.5Z" class="g2_1"/>
<path d="M108 199.6h.7V172.1H108v27.5Z" class="g2_1"/>
<path d="M183.7 199.6h.7V172.1h-.7v27.5Z" class="g2_1"/>
<path d="M811.8 199.6h.7V172.1h-.7v27.5Z" class="g2_1"/>
<path d="M865.3 199.6h.8V172.1h-.8v27.5Z" class="g2_1"/>
<path fill-rule="evenodd" d="M108.7 227.9h75V200.4h-75v27.5Z" class="g6_1"/>
<path d="M108.7 227.9h75V200.4h-75v27.5Z" class="g6_1"/>
<path fill-rule="evenodd" d="M184.4 227.9H811.8V200.4H184.4v27.5Z" class="g6_1"/>
<path d="M184.4 227.9H811.8V200.4H184.4v27.5Z" class="g6_1"/>
<path fill-rule="evenodd" d="M812.5 227.9h52.8V200.4H812.5v27.5Z" class="g5_1"/>
<path d="M812.5 227.9h52.8V200.4H812.5v27.5Z" class="g5_1"/>
<path d="M43.3 200.4H44v-.8h-.7v.8Z" class="g2_1"/>
<path d="M108 200.4h.7v-.8H108v.8Z" class="g2_1"/>
<path d="M108.7 200.4h75v-.8h-75v.8Z" class="g2_1"/>
<path d="M183.7 200.4h.7v-.8h-.7v.8Z" class="g2_1"/>
<path d="M184.4 200.4H811.8v-.8H184.4v.8Z" class="g2_1"/>
<path d="M811.8 200.4h.7v-.8h-.7v.8Z" class="g2_1"/>
<path d="M812.5 200.4h52.8v-.8H812.5v.8Z" class="g2_1"/>
<path d="M865.3 200.4h.8v-.8h-.8v.8Z" class="g2_1"/>
<path d="M43.3 227.9H44V200.4h-.7v27.5Z" class="g2_1"/>
<path d="M108 227.9h.7V200.4H108v27.5Z" class="g2_1"/>
<path d="M183.7 227.9h.7V200.4h-.7v27.5Z" class="g2_1"/>
<path d="M811.8 227.9h.7V200.4h-.7v27.5Z" class="g2_1"/>
<path d="M865.3 227.9h.8V200.4h-.8v27.5Z" class="g2_1"/>
<path fill-rule="evenodd" d="M108.7 256.3h75V228.8h-75v27.5Z" class="g6_1"/>
<path d="M108.7 256.3h75V228.8h-75v27.5Z" class="g6_1"/>
<path fill-rule="evenodd" d="M184.4 256.3H811.8V228.8H184.4v27.5Z" class="g6_1"/>
<path d="M184.4 256.3H811.8V228.8H184.4v27.5Z" class="g6_1"/>
<path fill-rule="evenodd" d="M812.5 256.3h52.8V228.8H812.5v27.5Z" class="g5_1"/>
<path d="M812.5 256.3h52.8V228.8H812.5v27.5Z" class="g5_1"/>
<path d="M43.3 228.6H44v-.7h-.7v.7Z" class="g2_1"/>
<path d="M108 228.6h.7v-.7H108v.7Z" class="g2_1"/>
<path d="M108.7 228.6h75v-.7h-75v.7Z" class="g2_1"/>
<path d="M183.7 228.6h.7v-.7h-.7v.7Z" class="g2_1"/>
<path d="M184.4 228.6H811.8v-.7H184.4v.7Z" class="g2_1"/>
<path d="M811.8 228.6h.7v-.7h-.7v.7Z" class="g2_1"/>
<path d="M812.5 228.6h52.8v-.7H812.5v.7Z" class="g2_1"/>
<path d="M865.3 228.6h.8v-.7h-.8v.7Z" class="g2_1"/>
<path d="M43.3 256.3H44V228.6h-.7v27.7Z" class="g2_1"/>
<path d="M108 256.3h.7V228.6H108v27.7Z" class="g2_1"/>
<path d="M183.7 256.3h.7V228.6h-.7v27.7Z" class="g2_1"/>
<path d="M811.8 256.3h.7V228.6h-.7v27.7Z" class="g2_1"/>
<path d="M865.3 256.3h.8V228.6h-.8v27.7Z" class="g2_1"/>
<path fill-rule="evenodd" d="M108.7 284.5h75V257h-75v27.5Z" class="g4_1"/>
<path d="M108.7 284.5h75V257h-75v27.5Z" class="g4_1"/>
<path fill-rule="evenodd" d="M184.4 284.5H811.8V257H184.4v27.5Z" class="g4_1"/>
<path d="M184.4 284.5H811.8V257H184.4v27.5Z" class="g4_1"/>
<path fill-rule="evenodd" d="M812.5 284.5h52.8V257H812.5v27.5Z" class="g5_1"/>
<path d="M812.5 284.5h52.8V257H812.5v27.5Z" class="g5_1"/>
<path d="M43.3 257H44v-.7h-.7v.7Z" class="g2_1"/>
<path d="M108 257h.7v-.7H108v.7Z" class="g2_1"/>
<path d="M108.7 257h75v-.7h-75v.7Z" class="g2_1"/>
<path d="M183.7 257h.7v-.7h-.7v.7Z" class="g2_1"/>
<path d="M184.4 257H811.8v-.7H184.4v.7Z" class="g2_1"/>
<path d="M811.8 257h.7v-.7h-.7v.7Z" class="g2_1"/>
<path d="M812.5 257h52.8v-.7H812.5v.7Z" class="g2_1"/>
<path d="M865.3 257h.8v-.7h-.8v.7Z" class="g2_1"/>
<path d="M43.3 284.5H44V257h-.7v27.5Z" class="g2_1"/>
<path d="M108 284.5h.7V257H108v27.5Z" class="g2_1"/>
<path d="M183.7 284.5h.7V257h-.7v27.5Z" class="g2_1"/>
<path d="M811.8 284.5h.7V257h-.7v27.5Z" class="g2_1"/>
<path d="M865.3 284.5h.8V257h-.8v27.5Z" class="g2_1"/>
<path fill-rule="evenodd" d="M108.7 312.8h75V285.3h-75v27.5Z" class="g6_1"/>
<path d="M108.7 312.8h75V285.3h-75v27.5Z" class="g6_1"/>
<path fill-rule="evenodd" d="M184.4 312.8H811.8V285.3H184.4v27.5Z" class="g6_1"/>
<path d="M184.4 312.8H811.8V285.3H184.4v27.5Z" class="g6_1"/>
<path fill-rule="evenodd" d="M812.5 312.8h52.8V285.3H812.5v27.5Z" class="g5_1"/>
<path d="M812.5 312.8h52.8V285.3H812.5v27.5Z" class="g5_1"/>
<path d="M43.3 285.3H44v-.8h-.7v.8Z" class="g2_1"/>
<path d="M108 285.3h.7v-.8H108v.8Z" class="g2_1"/>
<path d="M108.7 285.3h75v-.8h-75v.8Z" class="g2_1"/>
<path d="M183.7 285.3h.7v-.8h-.7v.8Z" class="g2_1"/>
<path d="M184.4 285.3H811.8v-.8H184.4v.8Z" class="g2_1"/>
<path d="M811.8 285.3h.7v-.8h-.7v.8Z" class="g2_1"/>
<path d="M812.5 285.3h52.8v-.8H812.5v.8Z" class="g2_1"/>
<path d="M865.3 285.3h.8v-.8h-.8v.8Z" class="g2_1"/>
<path d="M43.3 312.8H44V285.3h-.7v27.5Z" class="g2_1"/>
<path d="M108 312.8h.7V285.3H108v27.5Z" class="g2_1"/>
<path d="M183.7 312.8h.7V285.3h-.7v27.5Z" class="g2_1"/>
<path d="M811.8 312.8h.7V285.3h-.7v27.5Z" class="g2_1"/>
<path d="M865.3 312.8h.8V285.3h-.8v27.5Z" class="g2_1"/>
<path fill-rule="evenodd" d="M108.7 341h75V313.5h-75V341Z" class="g6_1"/>
<path d="M108.7 341h75V313.5h-75V341Z" class="g6_1"/>
<path fill-rule="evenodd" d="M184.4 341H811.8V313.5H184.4V341Z" class="g6_1"/>
<path d="M184.4 341H811.8V313.5H184.4V341Z" class="g6_1"/>
<path fill-rule="evenodd" d="M812.5 341h52.8V313.5H812.5V341Z" class="g5_1"/>
<path d="M812.5 341h52.8V313.5H812.5V341Z" class="g5_1"/>
<path d="M43.3 313.5H44v-.7h-.7v.7Z" class="g2_1"/>
<path d="M108 313.5h.7v-.7H108v.7Z" class="g2_1"/>
<path d="M108.7 313.5h75v-.7h-75v.7Z" class="g2_1"/>
<path d="M183.7 313.5h.7v-.7h-.7v.7Z" class="g2_1"/>
<path d="M184.4 313.5H811.8v-.7H184.4v.7Z" class="g2_1"/>
<path d="M811.8 313.5h.7v-.7h-.7v.7Z" class="g2_1"/>
<path d="M812.5 313.5h52.8v-.7H812.5v.7Z" class="g2_1"/>
<path d="M865.3 313.5h.8v-.7h-.8v.7Z" class="g2_1"/>
<path d="M43.3 341H44V313.5h-.7V341Z" class="g2_1"/>
<path d="M108 341h.7V313.5H108V341Z" class="g2_1"/>
<path d="M183.7 341h.7V313.5h-.7V341Z" class="g2_1"/>
<path d="M811.8 341h.7V313.5h-.7V341Z" class="g2_1"/>
<path d="M865.3 341h.8V313.5h-.8V341Z" class="g2_1"/>
<path fill-rule="evenodd" d="M108.7 369.2h75V341.7h-75v27.5Z" class="g6_1"/>
<path d="M108.7 369.2h75V341.7h-75v27.5Z" class="g6_1"/>
<path fill-rule="evenodd" d="M184.4 369.2H811.8V341.7H184.4v27.5Z" class="g6_1"/>
<path d="M184.4 369.2H811.8V341.7H184.4v27.5Z" class="g6_1"/>
<path fill-rule="evenodd" d="M812.5 369.2h52.8V341.7H812.5v27.5Z" class="g5_1"/>
<path d="M812.5 369.2h52.8V341.7H812.5v27.5Z" class="g5_1"/>
<path d="M43.3 341.7H44V341h-.7v.7Z" class="g2_1"/>
<path d="M108 341.7h.7V341H108v.7Z" class="g2_1"/>
<path d="M108.7 341.7h75V341h-75v.7Z" class="g2_1"/>
<path d="M183.7 341.7h.7V341h-.7v.7Z" class="g2_1"/>
<path d="M184.4 341.7H811.8V341H184.4v.7Z" class="g2_1"/>
<path d="M811.8 341.7h.7V341h-.7v.7Z" class="g2_1"/>
<path d="M812.5 341.7h52.8V341H812.5v.7Z" class="g2_1"/>
<path d="M865.3 341.7h.8V341h-.8v.7Z" class="g2_1"/>
<path d="M43.3 369.2H44V341.7h-.7v27.5Z" class="g2_1"/>
<path d="M108 369.2h.7V341.7H108v27.5Z" class="g2_1"/>
<path d="M183.7 369.2h.7V341.7h-.7v27.5Z" class="g2_1"/>
<path d="M811.8 369.2h.7V341.7h-.7v27.5Z" class="g2_1"/>
<path d="M865.3 369.2h.8V341.7h-.8v27.5Z" class="g2_1"/>
<path fill-rule="evenodd" d="M108.7 397.5h75V370h-75v27.5Z" class="g4_1"/>
<path d="M108.7 397.5h75V370h-75v27.5Z" class="g4_1"/>
<path fill-rule="evenodd" d="M184.4 397.5H811.8V370H184.4v27.5Z" class="g4_1"/>
<path d="M184.4 397.5H811.8V370H184.4v27.5Z" class="g4_1"/>
<path fill-rule="evenodd" d="M812.5 397.5h52.8V370H812.5v27.5Z" class="g5_1"/>
<path d="M812.5 397.5h52.8V370H812.5v27.5Z" class="g5_1"/>
<path d="M43.3 370H44v-.8h-.7v.8Z" class="g2_1"/>
<path d="M108 370h.7v-.8H108v.8Z" class="g2_1"/>
<path d="M108.7 370h75v-.8h-75v.8Z" class="g2_1"/>
<path d="M183.7 370h.7v-.8h-.7v.8Z" class="g2_1"/>
<path d="M184.4 370H811.8v-.8H184.4v.8Z" class="g2_1"/>
<path d="M811.8 370h.7v-.8h-.7v.8Z" class="g2_1"/>
<path d="M812.5 370h52.8v-.8H812.5v.8Z" class="g2_1"/>
<path d="M865.3 370h.8v-.8h-.8v.8Z" class="g2_1"/>
<path d="M43.3 397.5H44V370h-.7v27.5Z" class="g2_1"/>
<path d="M108 397.5h.7V370H108v27.5Z" class="g2_1"/>
<path d="M183.7 397.5h.7V370h-.7v27.5Z" class="g2_1"/>
<path d="M811.8 397.5h.7V370h-.7v27.5Z" class="g2_1"/>
<path d="M865.3 397.5h.8V370h-.8v27.5Z" class="g2_1"/>
<path fill-rule="evenodd" d="M108.7 425.9h75V398.4h-75v27.5Z" class="g6_1"/>
<path d="M108.7 425.9h75V398.4h-75v27.5Z" class="g6_1"/>
<path fill-rule="evenodd" d="M184.4 425.9H811.8V398.4H184.4v27.5Z" class="g6_1"/>
<path d="M184.4 425.9H811.8V398.4H184.4v27.5Z" class="g6_1"/>
<path fill-rule="evenodd" d="M812.5 425.9h52.8V398.4H812.5v27.5Z" class="g5_1"/>
<path d="M812.5 425.9h52.8V398.4H812.5v27.5Z" class="g5_1"/>
<path d="M43.3 398.2H44v-.7h-.7v.7Z" class="g2_1"/>
<path d="M108 398.2h.7v-.7H108v.7Z" class="g2_1"/>
<path d="M108.7 398.2h75v-.7h-75v.7Z" class="g2_1"/>
<path d="M183.7 398.2h.7v-.7h-.7v.7Z" class="g2_1"/>
<path d="M184.4 398.2H811.8v-.7H184.4v.7Z" class="g2_1"/>
<path d="M811.8 398.2h.7v-.7h-.7v.7Z" class="g2_1"/>
<path d="M812.5 398.2h52.8v-.7H812.5v.7Z" class="g2_1"/>
<path d="M865.3 398.2h.8v-.7h-.8v.7Z" class="g2_1"/>
<path d="M43.3 425.9H44V398.2h-.7v27.7Z" class="g2_1"/>
<path d="M108 425.9h.7V398.2H108v27.7Z" class="g2_1"/>
<path d="M183.7 425.9h.7V398.2h-.7v27.7Z" class="g2_1"/>
<path d="M811.8 425.9h.7V398.2h-.7v27.7Z" class="g2_1"/>
<path d="M865.3 425.9h.8V398.2h-.8v27.7Z" class="g2_1"/>
<path fill-rule="evenodd" d="M108.7 454.1h75V426.6h-75v27.5Z" class="g6_1"/>
<path d="M108.7 454.1h75V426.6h-75v27.5Z" class="g6_1"/>
<path fill-rule="evenodd" d="M184.4 454.1H811.8V426.6H184.4v27.5Z" class="g6_1"/>
<path d="M184.4 454.1H811.8V426.6H184.4v27.5Z" class="g6_1"/>
<path fill-rule="evenodd" d="M812.5 454.1h52.8V426.6H812.5v27.5Z" class="g5_1"/>
<path d="M812.5 454.1h52.8V426.6H812.5v27.5Z" class="g5_1"/>
<path d="M43.3 426.6H44v-.7h-.7v.7Z" class="g2_1"/>
<path d="M108 426.6h.7v-.7H108v.7Z" class="g2_1"/>
<path d="M108.7 426.6h75v-.7h-75v.7Z" class="g2_1"/>
<path d="M183.7 426.6h.7v-.7h-.7v.7Z" class="g2_1"/>
<path d="M184.4 426.6H811.8v-.7H184.4v.7Z" class="g2_1"/>
<path d="M811.8 426.6h.7v-.7h-.7v.7Z" class="g2_1"/>
<path d="M812.5 426.6h52.8v-.7H812.5v.7Z" class="g2_1"/>
<path d="M865.3 426.6h.8v-.7h-.8v.7Z" class="g2_1"/>
<path d="M43.3 454.1H44V426.6h-.7v27.5Z" class="g2_1"/>
<path d="M108 454.1h.7V426.6H108v27.5Z" class="g2_1"/>
<path d="M183.7 454.1h.7V426.6h-.7v27.5Z" class="g2_1"/>
<path d="M811.8 454.1h.7V426.6h-.7v27.5Z" class="g2_1"/>
<path d="M865.3 454.1h.8V426.6h-.8v27.5Z" class="g2_1"/>
<path fill-rule="evenodd" d="M108.7 482.3h75V454.8h-75v27.5Z" class="g6_1"/>
<path d="M108.7 482.3h75V454.8h-75v27.5Z" class="g6_1"/>
<path fill-rule="evenodd" d="M184.4 482.3H811.8V454.8H184.4v27.5Z" class="g6_1"/>
<path d="M184.4 482.3H811.8V454.8H184.4v27.5Z" class="g6_1"/>
<path fill-rule="evenodd" d="M812.5 482.3h52.8V454.8H812.5v27.5Z" class="g5_1"/>
<path d="M812.5 482.3h52.8V454.8H812.5v27.5Z" class="g5_1"/>
<path d="M43.3 454.8H44v-.7h-.7v.7Z" class="g2_1"/>
<path d="M108 454.8h.7v-.7H108v.7Z" class="g2_1"/>
<path d="M108.7 454.8h75v-.7h-75v.7Z" class="g2_1"/>
<path d="M183.7 454.8h.7v-.7h-.7v.7Z" class="g2_1"/>
<path d="M184.4 454.8H811.8v-.7H184.4v.7Z" class="g2_1"/>
<path d="M811.8 454.8h.7v-.7h-.7v.7Z" class="g2_1"/>
<path d="M812.5 454.8h52.8v-.7H812.5v.7Z" class="g2_1"/>
<path d="M865.3 454.8h.8v-.7h-.8v.7Z" class="g2_1"/>
<path d="M43.3 482.3H44V454.8h-.7v27.5Z" class="g2_1"/>
<path d="M108 482.3h.7V454.8H108v27.5Z" class="g2_1"/>
<path d="M183.7 482.3h.7V454.8h-.7v27.5Z" class="g2_1"/>
<path d="M811.8 482.3h.7V454.8h-.7v27.5Z" class="g2_1"/>
<path d="M865.3 482.3h.8V454.8h-.8v27.5Z" class="g2_1"/>
<path fill-rule="evenodd" d="M44 1019.3h64V483.1H44v536.2Z" class="g7_1"/>
<path d="M44 765h64V737.5H44V765Z" class="g7_1"/>
<path fill-rule="evenodd" d="M108.7 510.6h75V483.1h-75v27.5Z" class="g8_1"/>
<path d="M108.7 510.6h75V483.1h-75v27.5Z" class="g8_1"/>
<path fill-rule="evenodd" d="M184.4 510.6H811.8V483.1H184.4v27.5Z" class="g8_1"/>
<path d="M184.4 510.6H811.8V483.1H184.4v27.5Z" class="g8_1"/>
<path fill-rule="evenodd" d="M812.5 510.6h52.8V483.1H812.5v27.5Z" class="g5_1"/>
<path d="M812.5 510.6h52.8V483.1H812.5v27.5Z" class="g5_1"/>
<path d="M43.3 483.1H44v-.8h-.7v.8Z" class="g2_1"/>
<path d="M44 483.1h64v-.8H44v.8Z" class="g2_1"/>
<path d="M108 483.1h.7v-.8H108v.8Z" class="g2_1"/>
<path d="M108.7 483.1h75v-.8h-75v.8Z" class="g2_1"/>
<path d="M183.7 483.1h.7v-.8h-.7v.8Z" class="g2_1"/>
<path d="M184.4 483.1H811.8v-.8H184.4v.8Z" class="g2_1"/>
<path d="M811.8 483.1h.7v-.8h-.7v.8Z" class="g2_1"/>
<path d="M812.5 483.1h52.8v-.8H812.5v.8Z" class="g2_1"/>
<path d="M865.3 483.1h.8v-.8h-.8v.8Z" class="g2_1"/>
<path d="M43.3 510.6H44V483.1h-.7v27.5Z" class="g2_1"/>
<path d="M108 510.6h.7V483.1H108v27.5Z" class="g2_1"/>
<path d="M183.7 510.6h.7V483.1h-.7v27.5Z" class="g2_1"/>
<path d="M811.8 510.6h.7V483.1h-.7v27.5Z" class="g2_1"/>
<path d="M865.3 510.6h.8V483.1h-.8v27.5Z" class="g2_1"/>
<path fill-rule="evenodd" d="M108.7 538.8h75V511.3h-75v27.5Z" class="g9_1"/>
<path d="M108.7 538.8h75V511.3h-75v27.5Z" class="g9_1"/>
<path fill-rule="evenodd" d="M184.4 538.8H811.8V511.3H184.4v27.5Z" class="g9_1"/>
<path d="M184.4 538.8H811.8V511.3H184.4v27.5Z" class="g9_1"/>
<path fill-rule="evenodd" d="M812.5 538.8h52.8V511.3H812.5v27.5Z" class="g5_1"/>
<path d="M812.5 538.8h52.8V511.3H812.5v27.5Z" class="g5_1"/>
<path d="M43.3 511.3H44v-.7h-.7v.7Z" class="g2_1"/>
<path d="M108 511.3h.7v-.7H108v.7Z" class="g2_1"/>
<path d="M108.7 511.3h75v-.7h-75v.7Z" class="g2_1"/>
<path d="M183.7 511.3h.7v-.7h-.7v.7Z" class="g2_1"/>
<path d="M184.4 511.3H811.8v-.7H184.4v.7Z" class="g2_1"/>
<path d="M811.8 511.3h.7v-.7h-.7v.7Z" class="g2_1"/>
<path d="M812.5 511.3h52.8v-.7H812.5v.7Z" class="g2_1"/>
<path d="M865.3 511.3h.8v-.7h-.8v.7Z" class="g2_1"/>
<path d="M43.3 538.8H44V511.3h-.7v27.5Z" class="g2_1"/>
<path d="M108 538.8h.7V511.3H108v27.5Z" class="g2_1"/>
<path d="M183.7 538.8h.7V511.3h-.7v27.5Z" class="g2_1"/>
<path d="M811.8 538.8h.7V511.3h-.7v27.5Z" class="g2_1"/>
<path d="M865.3 538.8h.8V511.3h-.8v27.5Z" class="g2_1"/>
<path fill-rule="evenodd" d="M108.7 567h75V539.5h-75V567Z" class="g9_1"/>
<path d="M108.7 567h75V539.5h-75V567Z" class="g9_1"/>
<path fill-rule="evenodd" d="M184.4 567H811.8V539.5H184.4V567Z" class="g9_1"/>
<path d="M184.4 567H811.8V539.5H184.4V567Z" class="g9_1"/>
<path fill-rule="evenodd" d="M812.5 567h52.8V539.5H812.5V567Z" class="g5_1"/>
<path d="M812.5 567h52.8V539.5H812.5V567Z" class="g5_1"/>
<path d="M43.3 539.5H44v-.7h-.7v.7Z" class="g2_1"/>
<path d="M108 539.5h.7v-.7H108v.7Z" class="g2_1"/>
<path d="M108.7 539.5h75v-.7h-75v.7Z" class="g2_1"/>
<path d="M183.7 539.5h.7v-.7h-.7v.7Z" class="g2_1"/>
<path d="M184.4 539.5H811.8v-.7H184.4v.7Z" class="g2_1"/>
<path d="M811.8 539.5h.7v-.7h-.7v.7Z" class="g2_1"/>
<path d="M812.5 539.5h52.8v-.7H812.5v.7Z" class="g2_1"/>
<path d="M865.3 539.5h.8v-.7h-.8v.7Z" class="g2_1"/>
<path d="M43.3 567H44V539.5h-.7V567Z" class="g2_1"/>
<path d="M108 567h.7V539.5H108V567Z" class="g2_1"/>
<path d="M183.7 567h.7V539.5h-.7V567Z" class="g2_1"/>
<path d="M811.8 567h.7V539.5h-.7V567Z" class="g2_1"/>
<path d="M865.3 567h.8V539.5h-.8V567Z" class="g2_1"/>
<path fill-rule="evenodd" d="M108.7 595.5h75V568h-75v27.5Z" class="g8_1"/>
<path d="M108.7 595.5h75V568h-75v27.5Z" class="g8_1"/>
<path fill-rule="evenodd" d="M184.4 595.5H811.8V568H184.4v27.5Z" class="g8_1"/>
<path d="M184.4 595.5H811.8V568H184.4v27.5Z" class="g8_1"/>
<path fill-rule="evenodd" d="M812.5 595.5h52.8V568H812.5v27.5Z" class="g5_1"/>
<path d="M812.5 595.5h52.8V568H812.5v27.5Z" class="g5_1"/>
<path d="M43.3 567.8H44V567h-.7v.8Z" class="g2_1"/>
<path d="M108 567.8h.7V567H108v.8Z" class="g2_1"/>
<path d="M108.7 567.8h75V567h-75v.8Z" class="g2_1"/>
<path d="M183.7 567.8h.7V567h-.7v.8Z" class="g2_1"/>
<path d="M184.4 567.8H811.8V567H184.4v.8Z" class="g2_1"/>
<path d="M811.8 567.8h.7V567h-.7v.8Z" class="g2_1"/>
<path d="M812.5 567.8h52.8V567H812.5v.8Z" class="g2_1"/>
<path d="M865.3 567.8h.8V567h-.8v.8Z" class="g2_1"/>
<path d="M43.3 595.5H44V567.8h-.7v27.7Z" class="g2_1"/>
<path d="M108 595.5h.7V567.8H108v27.7Z" class="g2_1"/>
<path d="M183.7 595.5h.7V567.8h-.7v27.7Z" class="g2_1"/>
<path d="M811.8 595.5h.7V567.8h-.7v27.7Z" class="g2_1"/>
<path d="M865.3 595.5h.8V567.8h-.8v27.7Z" class="g2_1"/>
<path fill-rule="evenodd" d="M108.7 623.7h75V596.2h-75v27.5Z" class="g9_1"/>
<path d="M108.7 623.7h75V596.2h-75v27.5Z" class="g9_1"/>
<path fill-rule="evenodd" d="M184.4 623.7H811.8V596.2H184.4v27.5Z" class="g9_1"/>
<path d="M184.4 623.7H811.8V596.2H184.4v27.5Z" class="g9_1"/>
<path fill-rule="evenodd" d="M812.5 623.7h52.8V596.2H812.5v27.5Z" class="g5_1"/>
<path d="M812.5 623.7h52.8V596.2H812.5v27.5Z" class="g5_1"/>
<path d="M43.3 596.2H44v-.7h-.7v.7Z" class="g2_1"/>
<path d="M108 596.2h.7v-.7H108v.7Z" class="g2_1"/>
<path d="M108.7 596.2h75v-.7h-75v.7Z" class="g2_1"/>
<path d="M183.7 596.2h.7v-.7h-.7v.7Z" class="g2_1"/>
<path d="M184.4 596.2H811.8v-.7H184.4v.7Z" class="g2_1"/>
<path d="M811.8 596.2h.7v-.7h-.7v.7Z" class="g2_1"/>
<path d="M812.5 596.2h52.8v-.7H812.5v.7Z" class="g2_1"/>
<path d="M865.3 596.2h.8v-.7h-.8v.7Z" class="g2_1"/>
<path d="M43.3 623.7H44V596.2h-.7v27.5Z" class="g2_1"/>
<path d="M108 623.7h.7V596.2H108v27.5Z" class="g2_1"/>
<path d="M183.7 623.7h.7V596.2h-.7v27.5Z" class="g2_1"/>
<path d="M811.8 623.7h.7V596.2h-.7v27.5Z" class="g2_1"/>
<path d="M865.3 623.7h.8V596.2h-.8v27.5Z" class="g2_1"/>
<path fill-rule="evenodd" d="M108.7 651.9h75V624.4h-75v27.5Z" class="g9_1"/>
<path d="M108.7 651.9h75V624.4h-75v27.5Z" class="g9_1"/>
<path fill-rule="evenodd" d="M184.4 651.9H811.8V624.4H184.4v27.5Z" class="g9_1"/>
<path d="M184.4 651.9H811.8V624.4H184.4v27.5Z" class="g9_1"/>
<path fill-rule="evenodd" d="M812.5 651.9h52.8V624.4H812.5v27.5Z" class="g5_1"/>
<path d="M812.5 651.9h52.8V624.4H812.5v27.5Z" class="g5_1"/>
<path d="M43.3 624.4H44v-.7h-.7v.7Z" class="g2_1"/>
<path d="M108 624.4h.7v-.7H108v.7Z" class="g2_1"/>
<path d="M108.7 624.4h75v-.7h-75v.7Z" class="g2_1"/>
<path d="M183.7 624.4h.7v-.7h-.7v.7Z" class="g2_1"/>
<path d="M184.4 624.4H811.8v-.7H184.4v.7Z" class="g2_1"/>
<path d="M811.8 624.4h.7v-.7h-.7v.7Z" class="g2_1"/>
<path d="M812.5 624.4h52.8v-.7H812.5v.7Z" class="g2_1"/>
<path d="M865.3 624.4h.8v-.7h-.8v.7Z" class="g2_1"/>
<path d="M43.3 651.9H44V624.4h-.7v27.5Z" class="g2_1"/>
<path d="M108 651.9h.7V624.4H108v27.5Z" class="g2_1"/>
<path d="M183.7 651.9h.7V624.4h-.7v27.5Z" class="g2_1"/>
<path d="M811.8 651.9h.7V624.4h-.7v27.5Z" class="g2_1"/>
<path d="M865.3 651.9h.8V624.4h-.8v27.5Z" class="g2_1"/>
<path fill-rule="evenodd" d="M108.7 680.2h75V652.7h-75v27.5Z" class="g8_1"/>
<path d="M108.7 680.2h75V652.7h-75v27.5Z" class="g8_1"/>
<path fill-rule="evenodd" d="M184.4 680.2H811.8V652.7H184.4v27.5Z" class="g8_1"/>
<path d="M184.4 680.2H811.8V652.7H184.4v27.5Z" class="g8_1"/>
<path fill-rule="evenodd" d="M812.5 680.2h52.8V652.7H812.5v27.5Z" class="g5_1"/>
<path d="M812.5 680.2h52.8V652.7H812.5v27.5Z" class="g5_1"/>
<path d="M43.3 652.7H44v-.8h-.7v.8Z" class="g2_1"/>
<path d="M108 652.7h.7v-.8H108v.8Z" class="g2_1"/>
<path d="M108.7 652.7h75v-.8h-75v.8Z" class="g2_1"/>
<path d="M183.7 652.7h.7v-.8h-.7v.8Z" class="g2_1"/>
<path d="M184.4 652.7H811.8v-.8H184.4v.8Z" class="g2_1"/>
<path d="M811.8 652.7h.7v-.8h-.7v.8Z" class="g2_1"/>
<path d="M812.5 652.7h52.8v-.8H812.5v.8Z" class="g2_1"/>
<path d="M865.3 652.7h.8v-.8h-.8v.8Z" class="g2_1"/>
<path d="M43.3 680.2H44V652.7h-.7v27.5Z" class="g2_1"/>
<path d="M108 680.2h.7V652.7H108v27.5Z" class="g2_1"/>
<path d="M183.7 680.2h.7V652.7h-.7v27.5Z" class="g2_1"/>
<path d="M811.8 680.2h.7V652.7h-.7v27.5Z" class="g2_1"/>
<path d="M865.3 680.2h.8V652.7h-.8v27.5Z" class="g2_1"/>
<path fill-rule="evenodd" d="M108.7 708.4h75V680.9h-75v27.5Z" class="g9_1"/>
<path d="M108.7 708.4h75V680.9h-75v27.5Z" class="g9_1"/>
<path fill-rule="evenodd" d="M184.4 708.4H811.8V680.9H184.4v27.5Z" class="g9_1"/>
<path d="M184.4 708.4H811.8V680.9H184.4v27.5Z" class="g9_1"/>
<path fill-rule="evenodd" d="M812.5 708.4h52.8V680.9H812.5v27.5Z" class="g5_1"/>
<path d="M812.5 708.4h52.8V680.9H812.5v27.5Z" class="g5_1"/>
<path d="M43.3 680.9H44v-.7h-.7v.7Z" class="g2_1"/>
<path d="M108 680.9h.7v-.7H108v.7Z" class="g2_1"/>
<path d="M108.7 680.9h75v-.7h-75v.7Z" class="g2_1"/>
<path d="M183.7 680.9h.7v-.7h-.7v.7Z" class="g2_1"/>
<path d="M184.4 680.9H811.8v-.7H184.4v.7Z" class="g2_1"/>
<path d="M811.8 680.9h.7v-.7h-.7v.7Z" class="g2_1"/>
<path d="M812.5 680.9h52.8v-.7H812.5v.7Z" class="g2_1"/>
<path d="M865.3 680.9h.8v-.7h-.8v.7Z" class="g2_1"/>
<path d="M43.3 708.4H44V680.9h-.7v27.5Z" class="g2_1"/>
<path d="M108 708.4h.7V680.9H108v27.5Z" class="g2_1"/>
<path d="M183.7 708.4h.7V680.9h-.7v27.5Z" class="g2_1"/>
<path d="M811.8 708.4h.7V680.9h-.7v27.5Z" class="g2_1"/>
<path d="M865.3 708.4h.8V680.9h-.8v27.5Z" class="g2_1"/>
<path fill-rule="evenodd" d="M108.7 736.6h75V709.1h-75v27.5Z" class="g9_1"/>
<path d="M108.7 736.6h75V709.1h-75v27.5Z" class="g9_1"/>
<path fill-rule="evenodd" d="M184.4 736.6H811.8V709.1H184.4v27.5Z" class="g9_1"/>
<path d="M184.4 736.6H811.8V709.1H184.4v27.5Z" class="g9_1"/>
<path fill-rule="evenodd" d="M812.5 736.6h52.8V709.1H812.5v27.5Z" class="g5_1"/>
<path d="M812.5 736.6h52.8V709.1H812.5v27.5Z" class="g5_1"/>
<path d="M43.3 709.1H44v-.7h-.7v.7Z" class="g2_1"/>
<path d="M108 709.1h.7v-.7H108v.7Z" class="g2_1"/>
<path d="M108.7 709.1h75v-.7h-75v.7Z" class="g2_1"/>
<path d="M183.7 709.1h.7v-.7h-.7v.7Z" class="g2_1"/>
<path d="M184.4 709.1H811.8v-.7H184.4v.7Z" class="g2_1"/>
<path d="M811.8 709.1h.7v-.7h-.7v.7Z" class="g2_1"/>
<path d="M812.5 709.1h52.8v-.7H812.5v.7Z" class="g2_1"/>
<path d="M865.3 709.1h.8v-.7h-.8v.7Z" class="g2_1"/>
<path d="M43.3 736.6H44V709.1h-.7v27.5Z" class="g2_1"/>
<path d="M108 736.6h.7V709.1H108v27.5Z" class="g2_1"/>
<path d="M183.7 736.6h.7V709.1h-.7v27.5Z" class="g2_1"/>
<path d="M811.8 736.6h.7V709.1h-.7v27.5Z" class="g2_1"/>
<path d="M865.3 736.6h.8V709.1h-.8v27.5Z" class="g2_1"/>
<path fill-rule="evenodd" d="M108.7 765h75V737.5h-75V765Z" class="g9_1"/>
<path d="M108.7 765h75V737.5h-75V765Z" class="g9_1"/>
<path fill-rule="evenodd" d="M184.4 765H811.8V737.5H184.4V765Z" class="g9_1"/>
<path d="M184.4 765H811.8V737.5H184.4V765Z" class="g9_1"/>
<path fill-rule="evenodd" d="M812.5 765h52.8V737.5H812.5V765Z" class="g5_1"/>
<path d="M812.5 765h52.8V737.5H812.5V765Z" class="g5_1"/>
<path d="M43.3 737.4H44v-.8h-.7v.8Z" class="g2_1"/>
<path d="M108 737.4h.7v-.8H108v.8Z" class="g2_1"/>
<path d="M108.7 737.4h75v-.8h-75v.8Z" class="g2_1"/>
<path d="M183.7 737.4h.7v-.8h-.7v.8Z" class="g2_1"/>
<path d="M184.4 737.4H811.8v-.8H184.4v.8Z" class="g2_1"/>
<path d="M811.8 737.4h.7v-.8h-.7v.8Z" class="g2_1"/>
<path d="M812.5 737.4h52.8v-.8H812.5v.8Z" class="g2_1"/>
<path d="M865.3 737.4h.8v-.8h-.8v.8Z" class="g2_1"/>
<path d="M43.3 765H44V737.4h-.7V765Z" class="g2_1"/>
<path d="M108 765h.7V737.4H108V765Z" class="g2_1"/>
<path d="M183.7 765h.7V737.4h-.7V765Z" class="g2_1"/>
<path d="M811.8 765h.7V737.4h-.7V765Z" class="g2_1"/>
<path d="M865.3 765h.8V737.4h-.8V765Z" class="g2_1"/>
<path fill-rule="evenodd" d="M108.7 793.3h75V765.8h-75v27.5Z" class="g8_1"/>
<path d="M108.7 793.3h75V765.8h-75v27.5Z" class="g8_1"/>
<path fill-rule="evenodd" d="M184.4 793.3H811.8V765.8H184.4v27.5Z" class="g8_1"/>
<path d="M184.4 793.3H811.8V765.8H184.4v27.5Z" class="g8_1"/>
<path fill-rule="evenodd" d="M812.5 793.3h52.8V765.8H812.5v27.5Z" class="g5_1"/>
<path d="M812.5 793.3h52.8V765.8H812.5v27.5Z" class="g5_1"/>
<path d="M43.3 765.8H44V765h-.7v.8Z" class="g2_1"/>
<path d="M108 765.8h.7V765H108v.8Z" class="g2_1"/>
<path d="M108.7 765.8h75V765h-75v.8Z" class="g2_1"/>
<path d="M183.7 765.8h.7V765h-.7v.8Z" class="g2_1"/>
<path d="M184.4 765.8H811.8V765H184.4v.8Z" class="g2_1"/>
<path d="M811.8 765.8h.7V765h-.7v.8Z" class="g2_1"/>
<path d="M812.5 765.8h52.8V765H812.5v.8Z" class="g2_1"/>
<path d="M865.3 765.8h.8V765h-.8v.8Z" class="g2_1"/>
<path d="M43.3 793.3H44V765.8h-.7v27.5Z" class="g2_1"/>
<path d="M108 793.3h.7V765.8H108v27.5Z" class="g2_1"/>
<path d="M183.7 793.3h.7V765.8h-.7v27.5Z" class="g2_1"/>
<path d="M811.8 793.3h.7V765.8h-.7v27.5Z" class="g2_1"/>
<path d="M865.3 793.3h.8V765.8h-.8v27.5Z" class="g2_1"/>
<path fill-rule="evenodd" d="M108.7 821.5h75V794h-75v27.5Z" class="g9_1"/>
<path d="M108.7 821.5h75V794h-75v27.5Z" class="g9_1"/>
<path fill-rule="evenodd" d="M184.4 821.5H811.8V794H184.4v27.5Z" class="g9_1"/>
<path d="M184.4 821.5H811.8V794H184.4v27.5Z" class="g9_1"/>
<path fill-rule="evenodd" d="M812.5 821.5h52.8V794H812.5v27.5Z" class="g5_1"/>
<path d="M812.5 821.5h52.8V794H812.5v27.5Z" class="g5_1"/>
<path d="M43.3 794H44v-.7h-.7v.7Z" class="g2_1"/>
<path d="M108 794h.7v-.7H108v.7Z" class="g2_1"/>
<path d="M108.7 794h75v-.7h-75v.7Z" class="g2_1"/>
<path d="M183.7 794h.7v-.7h-.7v.7Z" class="g2_1"/>
<path d="M184.4 794H811.8v-.7H184.4v.7Z" class="g2_1"/>
<path d="M811.8 794h.7v-.7h-.7v.7Z" class="g2_1"/>
<path d="M812.5 794h52.8v-.7H812.5v.7Z" class="g2_1"/>
<path d="M865.3 794h.8v-.7h-.8v.7Z" class="g2_1"/>
<path d="M43.3 821.5H44V794h-.7v27.5Z" class="g2_1"/>
<path d="M108 821.5h.7V794H108v27.5Z" class="g2_1"/>
<path d="M183.7 821.5h.7V794h-.7v27.5Z" class="g2_1"/>
<path d="M811.8 821.5h.7V794h-.7v27.5Z" class="g2_1"/>
<path d="M865.3 821.5h.8V794h-.8v27.5Z" class="g2_1"/>
<path fill-rule="evenodd" d="M108.7 849.7h75V822.2h-75v27.5Z" class="g9_1"/>
<path d="M108.7 849.7h75V822.2h-75v27.5Z" class="g9_1"/>
<path fill-rule="evenodd" d="M184.4 849.7H811.8V822.2H184.4v27.5Z" class="g9_1"/>
<path d="M184.4 849.7H811.8V822.2H184.4v27.5Z" class="g9_1"/>
<path fill-rule="evenodd" d="M812.5 849.7h52.8V822.2H812.5v27.5Z" class="g5_1"/>
<path d="M812.5 849.7h52.8V822.2H812.5v27.5Z" class="g5_1"/>
<path d="M43.3 822.2H44v-.7h-.7v.7Z" class="g2_1"/>
<path d="M108 822.2h.7v-.7H108v.7Z" class="g2_1"/>
<path d="M108.7 822.2h75v-.7h-75v.7Z" class="g2_1"/>
<path d="M183.7 822.2h.7v-.7h-.7v.7Z" class="g2_1"/>
<path d="M184.4 822.2H811.8v-.7H184.4v.7Z" class="g2_1"/>
<path d="M811.8 822.2h.7v-.7h-.7v.7Z" class="g2_1"/>
<path d="M812.5 822.2h52.8v-.7H812.5v.7Z" class="g2_1"/>
<path d="M865.3 822.2h.8v-.7h-.8v.7Z" class="g2_1"/>
<path d="M43.3 849.7H44V822.2h-.7v27.5Z" class="g2_1"/>
<path d="M108 849.7h.7V822.2H108v27.5Z" class="g2_1"/>
<path d="M183.7 849.7h.7V822.2h-.7v27.5Z" class="g2_1"/>
<path d="M811.8 849.7h.7V822.2h-.7v27.5Z" class="g2_1"/>
<path d="M865.3 849.7h.8V822.2h-.8v27.5Z" class="g2_1"/>
<path fill-rule="evenodd" d="M108.7 878h75V850.5h-75V878Z" class="g8_1"/>
<path d="M108.7 878h75V850.5h-75V878Z" class="g8_1"/>
<path fill-rule="evenodd" d="M184.4 878H811.8V850.5H184.4V878Z" class="g8_1"/>
<path d="M184.4 878H811.8V850.5H184.4V878Z" class="g8_1"/>
<path fill-rule="evenodd" d="M812.5 878h52.8V850.5H812.5V878Z" class="g5_1"/>
<path d="M812.5 878h52.8V850.5H812.5V878Z" class="g5_1"/>
<path d="M43.3 850.5H44v-.8h-.7v.8Z" class="g2_1"/>
<path d="M108 850.5h.7v-.8H108v.8Z" class="g2_1"/>
<path d="M108.7 850.5h75v-.8h-75v.8Z" class="g2_1"/>
<path d="M183.7 850.5h.7v-.8h-.7v.8Z" class="g2_1"/>
<path d="M184.4 850.5H811.8v-.8H184.4v.8Z" class="g2_1"/>
<path d="M811.8 850.5h.7v-.8h-.7v.8Z" class="g2_1"/>
<path d="M812.5 850.5h52.8v-.8H812.5v.8Z" class="g2_1"/>
<path d="M865.3 850.5h.8v-.8h-.8v.8Z" class="g2_1"/>
<path d="M43.3 878H44V850.5h-.7V878Z" class="g2_1"/>
<path d="M108 878h.7V850.5H108V878Z" class="g2_1"/>
<path d="M183.7 878h.7V850.5h-.7V878Z" class="g2_1"/>
<path d="M811.8 878h.7V850.5h-.7V878Z" class="g2_1"/>
<path d="M865.3 878h.8V850.5h-.8V878Z" class="g2_1"/>
<path fill-rule="evenodd" d="M108.7 906.2h75V878.7h-75v27.5Z" class="g9_1"/>
<path d="M108.7 906.2h75V878.7h-75v27.5Z" class="g9_1"/>
<path fill-rule="evenodd" d="M184.4 906.2H811.8V878.7H184.4v27.5Z" class="g9_1"/>
<path d="M184.4 906.2H811.8V878.7H184.4v27.5Z" class="g9_1"/>
<path fill-rule="evenodd" d="M812.5 906.2h52.8V878.7H812.5v27.5Z" class="g5_1"/>
<path d="M812.5 906.2h52.8V878.7H812.5v27.5Z" class="g5_1"/>
<path d="M43.3 878.7H44V878h-.7v.7Z" class="g2_1"/>
<path d="M108 878.7h.7V878H108v.7Z" class="g2_1"/>
<path d="M108.7 878.7h75V878h-75v.7Z" class="g2_1"/>
<path d="M183.7 878.7h.7V878h-.7v.7Z" class="g2_1"/>
<path d="M184.4 878.7H811.8V878H184.4v.7Z" class="g2_1"/>
<path d="M811.8 878.7h.7V878h-.7v.7Z" class="g2_1"/>
<path d="M812.5 878.7h52.8V878H812.5v.7Z" class="g2_1"/>
<path d="M865.3 878.7h.8V878h-.8v.7Z" class="g2_1"/>
<path d="M43.3 906.2H44V878.7h-.7v27.5Z" class="g2_1"/>
<path d="M108 906.2h.7V878.7H108v27.5Z" class="g2_1"/>
<path d="M183.7 906.2h.7V878.7h-.7v27.5Z" class="g2_1"/>
<path d="M811.8 906.2h.7V878.7h-.7v27.5Z" class="g2_1"/>
<path d="M865.3 906.2h.8V878.7h-.8v27.5Z" class="g2_1"/>
<path fill-rule="evenodd" d="M108.7 934.6h75V907.1h-75v27.5Z" class="g9_1"/>
<path d="M108.7 934.6h75V907.1h-75v27.5Z" class="g9_1"/>
<path fill-rule="evenodd" d="M184.4 934.6H811.8V907.1H184.4v27.5Z" class="g9_1"/>
<path d="M184.4 934.6H811.8V907.1H184.4v27.5Z" class="g9_1"/>
<path fill-rule="evenodd" d="M812.5 934.6h52.8V907.1H812.5v27.5Z" class="g5_1"/>
<path d="M812.5 934.6h52.8V907.1H812.5v27.5Z" class="g5_1"/>
<path d="M43.3 906.9H44v-.7h-.7v.7Z" class="g2_1"/>
<path d="M108 906.9h.7v-.7H108v.7Z" class="g2_1"/>
<path d="M108.7 906.9h75v-.7h-75v.7Z" class="g2_1"/>
<path d="M183.7 906.9h.7v-.7h-.7v.7Z" class="g2_1"/>
<path d="M184.4 906.9H811.8v-.7H184.4v.7Z" class="g2_1"/>
<path d="M811.8 906.9h.7v-.7h-.7v.7Z" class="g2_1"/>
<path d="M812.5 906.9h52.8v-.7H812.5v.7Z" class="g2_1"/>
<path d="M865.3 906.9h.8v-.7h-.8v.7Z" class="g2_1"/>
<path d="M43.3 934.6H44V906.9h-.7v27.7Z" class="g2_1"/>
<path d="M108 934.6h.7V906.9H108v27.7Z" class="g2_1"/>
<path d="M183.7 934.6h.7V906.9h-.7v27.7Z" class="g2_1"/>
<path d="M811.8 934.6h.7V906.9h-.7v27.7Z" class="g2_1"/>
<path d="M865.3 934.6h.8V906.9h-.8v27.7Z" class="g2_1"/>
<path fill-rule="evenodd" d="M108.7 962.9h75V935.4h-75v27.5Z" class="g8_1"/>
<path d="M108.7 962.9h75V935.4h-75v27.5Z" class="g8_1"/>
<path fill-rule="evenodd" d="M184.4 962.9H811.8V935.4H184.4v27.5Z" class="g8_1"/>
<path d="M184.4 962.9H811.8V935.4H184.4v27.5Z" class="g8_1"/>
<path fill-rule="evenodd" d="M812.5 962.9h52.8V935.4H812.5v27.5Z" class="g5_1"/>
<path d="M812.5 962.9h52.8V935.4H812.5v27.5Z" class="g5_1"/>
<path d="M43.3 935.4H44v-.8h-.7v.8Z" class="g2_1"/>
<path d="M108 935.4h.7v-.8H108v.8Z" class="g2_1"/>
<path d="M108.7 935.4h75v-.8h-75v.8Z" class="g2_1"/>
<path d="M183.7 935.4h.7v-.8h-.7v.8Z" class="g2_1"/>
<path d="M184.4 935.4H811.8v-.8H184.4v.8Z" class="g2_1"/>
<path d="M811.8 935.4h.7v-.8h-.7v.8Z" class="g2_1"/>
<path d="M812.5 935.4h52.8v-.8H812.5v.8Z" class="g2_1"/>
<path d="M865.3 935.4h.8v-.8h-.8v.8Z" class="g2_1"/>
<path d="M43.3 962.9H44V935.4h-.7v27.5Z" class="g2_1"/>
<path d="M108 962.9h.7V935.4H108v27.5Z" class="g2_1"/>
<path d="M183.7 962.9h.7V935.4h-.7v27.5Z" class="g2_1"/>
<path d="M811.8 962.9h.7V935.4h-.7v27.5Z" class="g2_1"/>
<path d="M865.3 962.9h.8V935.4h-.8v27.5Z" class="g2_1"/>
<path fill-rule="evenodd" d="M108.7 991.1h75V963.6h-75v27.5Z" class="g9_1"/>
<path d="M108.7 991.1h75V963.6h-75v27.5Z" class="g9_1"/>
<path fill-rule="evenodd" d="M184.4 991.1H811.8V963.6H184.4v27.5Z" class="g9_1"/>
<path d="M184.4 991.1H811.8V963.6H184.4v27.5Z" class="g9_1"/>
<path fill-rule="evenodd" d="M812.5 991.1h52.8V963.6H812.5v27.5Z" class="g5_1"/>
<path d="M812.5 991.1h52.8V963.6H812.5v27.5Z" class="g5_1"/>
<path d="M43.3 963.6H44v-.7h-.7v.7Z" class="g2_1"/>
<path d="M108 963.6h.7v-.7H108v.7Z" class="g2_1"/>
<path d="M108.7 963.6h75v-.7h-75v.7Z" class="g2_1"/>
<path d="M183.7 963.6h.7v-.7h-.7v.7Z" class="g2_1"/>
<path d="M184.4 963.6H811.8v-.7H184.4v.7Z" class="g2_1"/>
<path d="M811.8 963.6h.7v-.7h-.7v.7Z" class="g2_1"/>
<path d="M812.5 963.6h52.8v-.7H812.5v.7Z" class="g2_1"/>
<path d="M865.3 963.6h.8v-.7h-.8v.7Z" class="g2_1"/>
<path d="M43.3 991.1H44V963.6h-.7v27.5Z" class="g2_1"/>
<path d="M108 991.1h.7V963.6H108v27.5Z" class="g2_1"/>
<path d="M183.7 991.1h.7V963.6h-.7v27.5Z" class="g2_1"/>
<path d="M811.8 991.1h.7V963.6h-.7v27.5Z" class="g2_1"/>
<path d="M865.3 991.1h.8V963.6h-.8v27.5Z" class="g2_1"/>
<path fill-rule="evenodd" d="M108.7 1019.3h75V991.8h-75v27.5Z" class="g9_1"/>
<path d="M108.7 1019.3h75V991.8h-75v27.5Z" class="g9_1"/>
<path fill-rule="evenodd" d="M184.4 1019.3H811.8V991.8H184.4v27.5Z" class="g9_1"/>
<path d="M184.4 1019.3H811.8V991.8H184.4v27.5Z" class="g9_1"/>
<path fill-rule="evenodd" d="M812.5 1019.3h52.8V991.8H812.5v27.5Z" class="g5_1"/>
<path d="M812.5 1019.3h52.8V991.8H812.5v27.5Z" class="g5_1"/>
<path d="M43.3 991.8H44v-.7h-.7v.7Z" class="g2_1"/>
<path d="M108 991.8h.7v-.7H108v.7Z" class="g2_1"/>
<path d="M108.7 991.8h75v-.7h-75v.7Z" class="g2_1"/>
<path d="M183.7 991.8h.7v-.7h-.7v.7Z" class="g2_1"/>
<path d="M184.4 991.8H811.8v-.7H184.4v.7Z" class="g2_1"/>
<path d="M811.8 991.8h.7v-.7h-.7v.7Z" class="g2_1"/>
<path d="M812.5 991.8h52.8v-.7H812.5v.7Z" class="g2_1"/>
<path d="M865.3 991.8h.8v-.7h-.8v.7Z" class="g2_1"/>
<path d="M43.3 1019.3H44V991.8h-.7v27.5Z" class="g2_1"/>
<path d="M108 1019.3h.7V991.8H108v27.5Z" class="g2_1"/>
<path d="M183.7 1019.3h.7V991.8h-.7v27.5Z" class="g2_1"/>
<path d="M811.8 1019.3h.7V991.8h-.7v27.5Z" class="g2_1"/>
<path d="M865.3 1019.3h.8V991.8h-.8v27.5Z" class="g2_1"/>
<path fill-rule="evenodd" d="M44 1217.1h64v-197H44v197Z" class="g0_1"/>
<path d="M44 1132.4h64v-27.5H44v27.5Z" class="g0_1"/>
<path fill-rule="evenodd" d="M108.7 1047.6h75v-27.5h-75v27.5Z" class="ga_1"/>
<path d="M108.7 1047.6h75v-27.5h-75v27.5Z" class="ga_1"/>
<path fill-rule="evenodd" d="M184.4 1047.6H811.8v-27.5H184.4v27.5Z" class="ga_1"/>
<path d="M184.4 1047.6H811.8v-27.5H184.4v27.5Z" class="ga_1"/>
<path fill-rule="evenodd" d="M812.5 1047.6h52.8v-27.5H812.5v27.5Z" class="g5_1"/>
<path d="M812.5 1047.6h52.8v-27.5H812.5v27.5Z" class="g5_1"/>
<path d="M43.3 1020.1H44v-.8h-.7v.8Z" class="g2_1"/>
<path d="M44 1020.1h64v-.8H44v.8Z" class="g2_1"/>
<path d="M108 1020.1h.7v-.8H108v.8Z" class="g2_1"/>
<path d="M108.7 1020.1h75v-.8h-75v.8Z" class="g2_1"/>
<path d="M183.7 1020.1h.7v-.8h-.7v.8Z" class="g2_1"/>
<path d="M184.4 1020.1H811.8v-.8H184.4v.8Z" class="g2_1"/>
<path d="M811.8 1020.1h.7v-.8h-.7v.8Z" class="g2_1"/>
<path d="M812.5 1020.1h52.8v-.8H812.5v.8Z" class="g2_1"/>
<path d="M865.3 1020.1h.8v-.8h-.8v.8Z" class="g2_1"/>
<path d="M43.3 1047.6H44v-27.5h-.7v27.5Z" class="g2_1"/>
<path d="M108 1047.6h.7v-27.5H108v27.5Z" class="g2_1"/>
<path d="M183.7 1047.6h.7v-27.5h-.7v27.5Z" class="g2_1"/>
<path d="M811.8 1047.6h.7v-27.5h-.7v27.5Z" class="g2_1"/>
<path d="M865.3 1047.6h.8v-27.5h-.8v27.5Z" class="g2_1"/>
<path fill-rule="evenodd" d="M108.7 1075.8h75v-27.5h-75v27.5Z" class="gb_1"/>
<path d="M108.7 1075.8h75v-27.5h-75v27.5Z" class="gb_1"/>
<path fill-rule="evenodd" d="M184.4 1075.8H811.8v-27.5H184.4v27.5Z" class="gb_1"/>
<path d="M184.4 1075.8H811.8v-27.5H184.4v27.5Z" class="gb_1"/>
<path fill-rule="evenodd" d="M812.5 1075.8h52.8v-27.5H812.5v27.5Z" class="g5_1"/>
<path d="M812.5 1075.8h52.8v-27.5H812.5v27.5Z" class="g5_1"/>
<path d="M43.3 1048.3H44v-.7h-.7v.7Z" class="g2_1"/>
<path d="M108 1048.3h.7v-.7H108v.7Z" class="g2_1"/>
<path d="M108.7 1048.3h75v-.7h-75v.7Z" class="g2_1"/>
<path d="M183.7 1048.3h.7v-.7h-.7v.7Z" class="g2_1"/>
<path d="M184.4 1048.3H811.8v-.7H184.4v.7Z" class="g2_1"/>
<path d="M811.8 1048.3h.7v-.7h-.7v.7Z" class="g2_1"/>
<path d="M812.5 1048.3h52.8v-.7H812.5v.7Z" class="g2_1"/>
<path d="M865.3 1048.3h.8v-.7h-.8v.7Z" class="g2_1"/>
<path d="M43.3 1075.8H44v-27.5h-.7v27.5Z" class="g2_1"/>
<path d="M108 1075.8h.7v-27.5H108v27.5Z" class="g2_1"/>
<path d="M183.7 1075.8h.7v-27.5h-.7v27.5Z" class="g2_1"/>
<path d="M811.8 1075.8h.7v-27.5h-.7v27.5Z" class="g2_1"/>
<path d="M865.3 1075.8h.8v-27.5h-.8v27.5Z" class="g2_1"/>
<path fill-rule="evenodd" d="M108.7 1104.2h75v-27.5h-75v27.5Z" class="gb_1"/>
<path d="M108.7 1104.2h75v-27.5h-75v27.5Z" class="gb_1"/>
<path fill-rule="evenodd" d="M184.4 1104.2H811.8v-27.5H184.4v27.5Z" class="gb_1"/>
<path d="M184.4 1104.2H811.8v-27.5H184.4v27.5Z" class="gb_1"/>
<path fill-rule="evenodd" d="M812.5 1104.2h52.8v-27.5H812.5v27.5Z" class="g5_1"/>
<path d="M812.5 1104.2h52.8v-27.5H812.5v27.5Z" class="g5_1"/>
<path d="M43.3 1076.5H44v-.7h-.7v.7Z" class="g2_1"/>
<path d="M108 1076.5h.7v-.7H108v.7Z" class="g2_1"/>
<path d="M108.7 1076.5h75v-.7h-75v.7Z" class="g2_1"/>
<path d="M183.7 1076.5h.7v-.7h-.7v.7Z" class="g2_1"/>
<path d="M184.4 1076.5H811.8v-.7H184.4v.7Z" class="g2_1"/>
<path d="M811.8 1076.5h.7v-.7h-.7v.7Z" class="g2_1"/>
<path d="M812.5 1076.5h52.8v-.7H812.5v.7Z" class="g2_1"/>
<path d="M865.3 1076.5h.8v-.7h-.8v.7Z" class="g2_1"/>
<path d="M43.3 1104.2H44v-27.7h-.7v27.7Z" class="g2_1"/>
<path d="M108 1104.2h.7v-27.7H108v27.7Z" class="g2_1"/>
<path d="M183.7 1104.2h.7v-27.7h-.7v27.7Z" class="g2_1"/>
<path d="M811.8 1104.2h.7v-27.7h-.7v27.7Z" class="g2_1"/>
<path d="M865.3 1104.2h.8v-27.7h-.8v27.7Z" class="g2_1"/>
<path fill-rule="evenodd" d="M108.7 1132.4h75v-27.5h-75v27.5Z" class="ga_1"/>
<path d="M108.7 1132.4h75v-27.5h-75v27.5Z" class="ga_1"/>
<path fill-rule="evenodd" d="M184.4 1132.4H811.8v-27.5H184.4v27.5Z" class="ga_1"/>
<path d="M184.4 1132.4H811.8v-27.5H184.4v27.5Z" class="ga_1"/>
<path fill-rule="evenodd" d="M812.5 1132.4h52.8v-27.5H812.5v27.5Z" class="g5_1"/>
<path d="M812.5 1132.4h52.8v-27.5H812.5v27.5Z" class="g5_1"/>
<path d="M43.3 1104.9H44v-.7h-.7v.7Z" class="g2_1"/>
<path d="M108 1104.9h.7v-.7H108v.7Z" class="g2_1"/>
<path d="M108.7 1104.9h75v-.7h-75v.7Z" class="g2_1"/>
<path d="M183.7 1104.9h.7v-.7h-.7v.7Z" class="g2_1"/>
<path d="M184.4 1104.9H811.8v-.7H184.4v.7Z" class="g2_1"/>
<path d="M811.8 1104.9h.7v-.7h-.7v.7Z" class="g2_1"/>
<path d="M812.5 1104.9h52.8v-.7H812.5v.7Z" class="g2_1"/>
<path d="M865.3 1104.9h.8v-.7h-.8v.7Z" class="g2_1"/>
<path d="M43.3 1132.4H44v-27.5h-.7v27.5Z" class="g2_1"/>
<path d="M108 1132.4h.7v-27.5H108v27.5Z" class="g2_1"/>
<path d="M183.7 1132.4h.7v-27.5h-.7v27.5Z" class="g2_1"/>
<path d="M811.8 1132.4h.7v-27.5h-.7v27.5Z" class="g2_1"/>
<path d="M865.3 1132.4h.8v-27.5h-.8v27.5Z" class="g2_1"/>
<path fill-rule="evenodd" d="M108.7 1160.7h75v-27.5h-75v27.5Z" class="gb_1"/>
<path d="M108.7 1160.7h75v-27.5h-75v27.5Z" class="gb_1"/>
<path fill-rule="evenodd" d="M184.4 1160.7H811.8v-27.5H184.4v27.5Z" class="gb_1"/>
<path d="M184.4 1160.7H811.8v-27.5H184.4v27.5Z" class="gb_1"/>
<path fill-rule="evenodd" d="M812.5 1160.7h52.8v-27.5H812.5v27.5Z" class="g5_1"/>
<path d="M812.5 1160.7h52.8v-27.5H812.5v27.5Z" class="g5_1"/>
<path d="M43.3 1133.2H44v-.8h-.7v.8Z" class="g2_1"/>
<path d="M108 1133.2h.7v-.8H108v.8Z" class="g2_1"/>
<path d="M108.7 1133.2h75v-.8h-75v.8Z" class="g2_1"/>
<path d="M183.7 1133.2h.7v-.8h-.7v.8Z" class="g2_1"/>
<path d="M184.4 1133.2H811.8v-.8H184.4v.8Z" class="g2_1"/>
<path d="M811.8 1133.2h.7v-.8h-.7v.8Z" class="g2_1"/>
<path d="M812.5 1133.2h52.8v-.8H812.5v.8Z" class="g2_1"/>
<path d="M865.3 1133.2h.8v-.8h-.8v.8Z" class="g2_1"/>
<path d="M43.3 1160.7H44v-27.5h-.7v27.5Z" class="g2_1"/>
<path d="M108 1160.7h.7v-27.5H108v27.5Z" class="g2_1"/>
<path d="M183.7 1160.7h.7v-27.5h-.7v27.5Z" class="g2_1"/>
<path d="M811.8 1160.7h.7v-27.5h-.7v27.5Z" class="g2_1"/>
<path d="M865.3 1160.7h.8v-27.5h-.8v27.5Z" class="g2_1"/>
<path fill-rule="evenodd" d="M108.7 1188.9h75v-27.5h-75v27.5Z" class="gb_1"/>
<path d="M108.7 1188.9h75v-27.5h-75v27.5Z" class="gb_1"/>
<path fill-rule="evenodd" d="M184.4 1188.9H811.8v-27.5H184.4v27.5Z" class="gb_1"/>
<path d="M184.4 1188.9H811.8v-27.5H184.4v27.5Z" class="gb_1"/>
<path fill-rule="evenodd" d="M812.5 1188.9h52.8v-27.5H812.5v27.5Z" class="g5_1"/>
<path d="M812.5 1188.9h52.8v-27.5H812.5v27.5Z" class="g5_1"/>
<path d="M43.3 1161.4H44v-.7h-.7v.7Z" class="g2_1"/>
<path d="M108 1161.4h.7v-.7H108v.7Z" class="g2_1"/>
<path d="M108.7 1161.4h75v-.7h-75v.7Z" class="g2_1"/>
<path d="M183.7 1161.4h.7v-.7h-.7v.7Z" class="g2_1"/>
<path d="M184.4 1161.4H811.8v-.7H184.4v.7Z" class="g2_1"/>
<path d="M811.8 1161.4h.7v-.7h-.7v.7Z" class="g2_1"/>
<path d="M812.5 1161.4h52.8v-.7H812.5v.7Z" class="g2_1"/>
<path d="M865.3 1161.4h.8v-.7h-.8v.7Z" class="g2_1"/>
<path d="M43.3 1188.9H44v-27.5h-.7v27.5Z" class="g2_1"/>
<path d="M108 1188.9h.7v-27.5H108v27.5Z" class="g2_1"/>
<path d="M183.7 1188.9h.7v-27.5h-.7v27.5Z" class="g2_1"/>
<path d="M811.8 1188.9h.7v-27.5h-.7v27.5Z" class="g2_1"/>
<path d="M865.3 1188.9h.8v-27.5h-.8v27.5Z" class="g2_1"/>
<path fill-rule="evenodd" d="M108.7 1217.1h75v-27.5h-75v27.5Z" class="gb_1"/>
<path d="M108.7 1217.1h75v-27.5h-75v27.5Z" class="gb_1"/>
<path fill-rule="evenodd" d="M184.4 1217.1H811.8v-27.5H184.4v27.5Z" class="gb_1"/>
<path d="M184.4 1217.1H811.8v-27.5H184.4v27.5Z" class="gb_1"/>
<path fill-rule="evenodd" d="M812.5 1217.1h52.8v-27.5H812.5v27.5Z" class="g5_1"/>
<path d="M812.5 1217.1h52.8v-27.5H812.5v27.5Z" class="g5_1"/>
<path d="M43.3 1189.6H44v-.7h-.7v.7Z" class="g2_1"/>
<path d="M108 1189.6h.7v-.7H108v.7Z" class="g2_1"/>
<path d="M108.7 1189.6h75v-.7h-75v.7Z" class="g2_1"/>
<path d="M183.7 1189.6h.7v-.7h-.7v.7Z" class="g2_1"/>
<path d="M184.4 1189.6H811.8v-.7H184.4v.7Z" class="g2_1"/>
<path d="M811.8 1189.6h.7v-.7h-.7v.7Z" class="g2_1"/>
<path d="M812.5 1189.6h52.8v-.7H812.5v.7Z" class="g2_1"/>
<path d="M865.3 1189.6h.8v-.7h-.8v.7Z" class="g2_1"/>
<path d="M43.3 1217.1H44v-27.5h-.7v27.5Z" class="g2_1"/>
<path d="M43.3 1217.9H44v-.8h-.7v.8Z" class="g2_1"/>
<path d="M43.3 1217.9H44v-.8h-.7v.8Z" class="g2_1"/>
<path d="M44 1217.9h64v-.8H44v.8Z" class="g2_1"/>
<path d="M108 1217.1h.7v-27.5H108v27.5Z" class="g2_1"/>
<path d="M108 1217.9h.7v-.8H108v.8Z" class="g2_1"/>
<path d="M108.7 1217.9h75v-.8h-75v.8Z" class="g2_1"/>
<path d="M183.7 1217.1h.7v-27.5h-.7v27.5Z" class="g2_1"/>
<path d="M183.7 1217.9h.7v-.8h-.7v.8Z" class="g2_1"/>
<path d="M184.4 1217.9H811.8v-.8H184.4v.8Z" class="g2_1"/>
<path d="M811.8 1217.1h.7v-27.5h-.7v27.5Z" class="g2_1"/>
<path d="M811.8 1217.9h.7v-.8h-.7v.8Z" class="g2_1"/>
<path d="M812.5 1217.9h52.8v-.8H812.5v.8Z" class="g2_1"/>
<path d="M865.3 1217.1h.8v-27.5h-.8v27.5Z" class="g2_1"/>
<path d="M865.3 1217.9h.8v-.8h-.8v.8Z" class="g2_1"/>
<path d="M865.3 1217.9h.8v-.8h-.8v.8Z" class="g2_1"/>
</svg>