<?xml version="1.0" encoding="UTF-8" standalone="no"?>
<!DOCTYPE svg PUBLIC "-//W3C//DTD SVG 1.1//EN"
"http://www.w3.org/Graphics/SVG/1.1/DTD/svg11.dtd">
<svg viewBox="0 0 909 1286" version="1.1" xmlns="http://www.w3.org/2000/svg" xmlns:xlink="http://www.w3.org/1999/xlink">
<defs>
<clipPath id="c0_5"><path d="M-.2 1286.6v-75.1h910v75.1Z"/></clipPath>
<clipPath id="c1_5"><path d="M560.1 199.6V76.3H862.2V199.6Z"/></clipPath>
<clipPath id="c2_5"><path d="M622.8 424V286.7H831.6V424Z"/></clipPath>
<clipPath id="c3_5"><path d="M727 1108V971.7H846.3V1108Z"/></clipPath>
<style type="text/css"><![CDATA[
.g0_5{
fill: #000;
}
.g1_5{
fill: none;
stroke: #000;
stroke-width: 0.766;
stroke-linecap: square;
stroke-miterlimit: 10;
}
.g2_5{
fill: none;
stroke: #000;
stroke-width: 0.763;
stroke-linecap: square;
stroke-miterlimit: 10;
}
.g3_5{
fill: none;
stroke: #000;
stroke-width: 0.152;
stroke-linecap: square;
stroke-miterlimit: 10;
}
]]></style>
</defs>
<image clip-path="url(#c0_5)" preserveAspectRatio="none" x="-2" y="1212" width="930" height="127" xlink:href="img/1.jpg"/>
<path d="M149.3 92.2H186v-.9H149.3v.9Z" class="g0_5"/>
<path d="M204.3 92.2H241v-.9H204.3v.9Z" class="g0_5"/>
<path d="M455.9 140h36.6v-.9H455.9v.9Z" class="g0_5"/>
<path d="M510.9 140h36.6v-.9H510.9v.9Z" class="g0_5"/>
<path d="M396.3 163.8h36.6v-.9H396.3v.9Z" class="g0_5"/>
<path d="M111.6 306.4h36.6v-.9H111.6v.9Z" class="g0_5"/>
<path d="M144.2 330.3h36.7v-.9H144.2v.9Z" class="g0_5"/>
<path d="M125.9 378h36.6v-.9H125.9v.9Z" class="g0_5"/>
<path d="M220.6 473.5h110v-1h-110v1Z" class="g0_5"/>
<path d="M107.5 497.4h36.7v-.9H107.5v.9Z" class="g0_5"/>
<path d="M164.4 661.1H256v-.9H164.4v.9Z" class="g0_5"/>
<path d="M730.2 661.1H767v-.9H730.2v.9Z" class="g0_5"/>
<path d="M108.3 684.9h91.6V684H108.3v.9Z" class="g0_5"/>
<path d="M165.6 777.1h36.6v-.9H165.6v.9Z" class="g0_5"/>
<path d="M426.8 775.9h45.3v-1H426.8v1Z" class="g0_5"/>
<path d="M437.5 848.6h36.7v-.9H437.5v.9Z" class="g0_5"/>
<path d="M165.6 991.3h78.8v-.9H165.6v.9Z" class="g0_5"/>
<path d="M450.7 991.9h36.7V991H450.7v.9Z" class="g0_5"/>
<path d="M104 1182.4h18.3" class="g1_5"/>
<path d="M212.5 1182.4h20.2" class="g2_5"/>
<path d="M324 1182.4h18.3" class="g1_5"/>
<path d="M433.6 1182.4h20.2" class="g2_5"/>
<image clip-path="url(#c1_5)" preserveAspectRatio="none" x="560" y="77" width="302" height="122" xlink:href="img/2.jpg"/>
<image preserveAspectRatio="none" x="44" y="95" width="56" height="56" xlink:href="img/3.jpg"/>
<image clip-path="url(#c2_5)" preserveAspectRatio="none" x="623" y="287" width="208" height="137" xlink:href="img/4.jpg"/>
<image preserveAspectRatio="none" x="44" y="303" width="56" height="57" xlink:href="img/5.jpg"/>
<image preserveAspectRatio="none" x="44" y="471" width="56" height="56" xlink:href="img/6.jpg"/>
<image preserveAspectRatio="none" x="673" y="447" width="123" height="163" xlink:href="img/7.jpg"/>
<image preserveAspectRatio="none" x="44" y="659" width="56" height="56" xlink:href="img/8.jpg"/>
<path d="M558.9 759.6H560v1.1h-1.1v-1.1Z" class="g0_5"/>
<path d="M558.9 759.6H560m-1.1 0v1.1" class="g3_5"/>
<path d="M558.9 759.6H560v1.1h-1.1v-1.1Z" class="g0_5"/>
<path d="M558.9 759.6H560m-1.1 0v1.1" class="g3_5"/>
<path d="M560 759.6H701.1v1.1H560v-1.1Z" class="g0_5"/>
<path d="M560 759.6H701.1" class="g3_5"/>
<path d="M701.1 759.6h1.2v1.1h-1.2v-1.1Z" class="g0_5"/>
<path d="M701.1 759.6h1.2m-1.2 0v1.1" class="g3_5"/>
<path d="M702.3 759.6h77.2v1.1H702.3v-1.1Z" class="g0_5"/>
<path d="M702.3 759.6h77.2" class="g3_5"/>
<path d="M779.5 759.6h1.1v1.1h-1.1v-1.1Z" class="g0_5"/>
<path d="M779.5 759.6h1.1m-1.1 0v1.1" class="g3_5"/>
<path d="M780.6 759.6h72.6v1.1H780.6v-1.1Z" class="g0_5"/>
<path d="M780.6 759.6h72.6" class="g3_5"/>
<path d="M853.2 759.6h1.1v1.1h-1.1v-1.1Z" class="g0_5"/>
<path d="M853.2 759.6h1.1m-1.1 0v1.1" class="g3_5"/>
<path d="M853.2 759.6h1.1v1.1h-1.1v-1.1Z" class="g0_5"/>
<path d="M853.2 759.6h1.1m-1.1 0v1.1" class="g3_5"/>
<path d="M558.9 760.7H560v21h-1.1v-21Z" class="g0_5"/>
<path d="M558.9 760.7v21" class="g3_5"/>
<path d="M701.1 760.7h.6v21h-.6v-21Z" class="g0_5"/>
<path d="M701.1 760.7v21" class="g3_5"/>
<path d="M779.5 760.7h.6v21h-.6v-21Z" class="g0_5"/>
<path d="M779.5 760.7v21" class="g3_5"/>
<path d="M853.2 760.7h1.1v21h-1.1v-21Z" class="g0_5"/>
<path d="M853.2 760.7v21" class="g3_5"/>
<path d="M558.9 781.7H560v.5h-1.1v-.5Z" class="g0_5"/>
<path d="M558.9 781.7H560" class="g3_5"/>
<path d="M560 781.7H701.1v.5H560v-.5Z" class="g0_5"/>
<path d="M560 781.7H701.1" class="g3_5"/>
<path d="M701.1 781.7h.6v.5h-.6v-.5Z" class="g0_5"/>
<path d="M701.1 781.7h.6m-.6 0v.5" class="g3_5"/>
<path d="M701.7 781.7h77.8v.5H701.7v-.5Z" class="g0_5"/>
<path d="M701.7 781.7h77.8" class="g3_5"/>
<path d="M779.5 781.7h.6v.5h-.6v-.5Z" class="g0_5"/>
<path d="M779.5 781.7h.6m-.6 0v.5" class="g3_5"/>
<path d="M780.1 781.7h73.1v.5H780.1v-.5Z" class="g0_5"/>
<path d="M780.1 781.7h73.1" class="g3_5"/>
<path d="M853.2 781.7h1.1v.5h-1.1v-.5Z" class="g0_5"/>
<path d="M853.2 781.7h1.1" class="g3_5"/>
<path d="M558.9 782.2H560v21.1h-1.1V782.2Z" class="g0_5"/>
<path d="M558.9 782.2v21.1" class="g3_5"/>
<path d="M701.1 782.2h.6v21.1h-.6V782.2Z" class="g0_5"/>
<path d="M701.1 782.2v21.1" class="g3_5"/>
<path d="M779.5 782.2h.6v21.1h-.6V782.2Z" class="g0_5"/>
<path d="M779.5 782.2v21.1" class="g3_5"/>
<path d="M853.2 782.2h1.1v21.1h-1.1V782.2Z" class="g0_5"/>
<path d="M853.2 782.2v21.1" class="g3_5"/>
<path d="M569.9 820.5h31.7v.7H569.9v-.7Z" class="g0_5"/>
<path d="M558.9 803.3H560v.6h-1.1v-.6Z" class="g0_5"/>
<path d="M558.9 803.3H560" class="g3_5"/>
<path d="M560 803.3H701.1v.6H560v-.6Z" class="g0_5"/>
<path d="M560 803.3H701.1" class="g3_5"/>
<path d="M701.1 803.3h.6v.6h-.6v-.6Z" class="g0_5"/>
<path d="M701.1 803.3h.6m-.6 0v.6" class="g3_5"/>
<path d="M701.7 803.3h77.8v.6H701.7v-.6Z" class="g0_5"/>
<path d="M701.7 803.3h77.8" class="g3_5"/>
<path d="M779.5 803.3h.6v.6h-.6v-.6Z" class="g0_5"/>
<path d="M779.5 803.3h.6m-.6 0v.6" class="g3_5"/>
<path d="M780.1 803.3h73.1v.6H780.1v-.6Z" class="g0_5"/>
<path d="M780.1 803.3h73.1" class="g3_5"/>
<path d="M853.2 803.3h1.1v.6h-1.1v-.6Z" class="g0_5"/>
<path d="M853.2 803.3h1.1" class="g3_5"/>
<path d="M558.9 803.9H560v21h-1.1v-21Z" class="g0_5"/>
<path d="M558.9 803.9v21" class="g3_5"/>
<path d="M701.1 803.9h.6v21h-.6v-21Z" class="g0_5"/>
<path d="M701.1 803.9v21" class="g3_5"/>
<path d="M779.5 803.9h.6v21h-.6v-21Z" class="g0_5"/>
<path d="M779.5 803.9v21" class="g3_5"/>
<path d="M853.2 803.9h1.1v21h-1.1v-21Z" class="g0_5"/>
<path d="M853.2 803.9v21" class="g3_5"/>
<path d="M558.9 824.9H560v.5h-1.1v-.5Z" class="g0_5"/>
<path d="M558.9 824.9H560" class="g3_5"/>
<path d="M560 824.9H701.1v.5H560v-.5Z" class="g0_5"/>
<path d="M560 824.9H701.1" class="g3_5"/>
<path d="M701.1 824.9h.6v.5h-.6v-.5Z" class="g0_5"/>
<path d="M701.1 824.9h.6m-.6 0v.5" class="g3_5"/>
<path d="M701.7 824.9h77.8v.5H701.7v-.5Z" class="g0_5"/>
<path d="M701.7 824.9h77.8" class="g3_5"/>
<path d="M779.5 824.9h.6v.5h-.6v-.5Z" class="g0_5"/>
<path d="M779.5 824.9h.6m-.6 0v.5" class="g3_5"/>
<path d="M780.1 824.9h73.1v.5H780.1v-.5Z" class="g0_5"/>
<path d="M780.1 824.9h73.1" class="g3_5"/>
<path d="M853.2 824.9h1.1v.5h-1.1v-.5Z" class="g0_5"/>
<path d="M853.2 824.9h1.1" class="g3_5"/>
<path d="M558.9 825.4H560v21h-1.1v-21Z" class="g0_5"/>
<path d="M558.9 825.4v21" class="g3_5"/>
<path d="M558.9 846.4H560v1.1h-1.1v-1.1Z" class="g0_5"/>
<path d="M558.9 846.4H560m-1.1 0v1.1" class="g3_5"/>
<path d="M558.9 846.4H560v1.1h-1.1v-1.1Z" class="g0_5"/>
<path d="M558.9 846.4H560m-1.1 0v1.1" class="g3_5"/>
<path d="M560 846.4H853.2v1.1H560v-1.1Z" class="g0_5"/>
<path d="M560 846.4H853.2" class="g3_5"/>
<path d="M853.2 825.4h1.1v21h-1.1v-21Z" class="g0_5"/>
<path d="M853.2 825.4v21" class="g3_5"/>
<path d="M853.2 846.4h1.1v1.1h-1.1v-1.1Z" class="g0_5"/>
<path d="M853.2 846.4h1.1m-1.1 0v1.1" class="g3_5"/>
<path d="M853.2 846.4h1.1v1.1h-1.1v-1.1Z" class="g0_5"/>
<path d="M853.2 846.4h1.1m-1.1 0v1.1" class="g3_5"/>
<image preserveAspectRatio="none" x="44" y="773" width="56" height="57" xlink:href="img/9.jpg"/>
<image clip-path="url(#c3_5)" preserveAspectRatio="none" x="727" y="972" width="119" height="136" xlink:href="img/10.jpg"/>
<image preserveAspectRatio="none" x="44" y="989" width="56" height="56" xlink:href="img/11.jpg"/>
<image preserveAspectRatio="none" x="44" y="1152" width="56" height="57" xlink:href="img/12.jpg"/>
</svg>