<?xml version="1.0" encoding="UTF-8" standalone="no"?>
<!DOCTYPE svg PUBLIC "-//W3C//DTD SVG 1.1//EN"
"http://www.w3.org/Graphics/SVG/1.1/DTD/svg11.dtd">
<svg viewBox="0 0 909 1286" version="1.1" xmlns="http://www.w3.org/2000/svg" xmlns:xlink="http://www.w3.org/1999/xlink">
<defs>
<clipPath id="c0_5"><path d="M-.2 1286.6v-74.9h910v74.9Z"/></clipPath>
<clipPath id="c1_5"><path d="M586.1 573.7V482.8H874.2v90.9Z"/></clipPath>
<clipPath id="c2_5"><path d="M713.5 776V638.7H857.6V776Z"/></clipPath>
<clipPath id="c3_5"><path d="M758.8 1080.4V965.1h99.3v115.3Z"/></clipPath>
<clipPath id="c4_5"><path d="M618.5 899.7V799.5H840.6V899.7Z"/></clipPath>
<style type="text/css"><![CDATA[
.g0_5{
fill: none;
stroke: #000;
stroke-width: 0.909;
stroke-linecap: square;
stroke-miterlimit: 10;
}
.g1_5{
fill: none;
stroke: #000;
stroke-width: 0.907;
stroke-linecap: square;
stroke-miterlimit: 10;
}
.g2_5{
fill: none;
stroke: #000;
stroke-width: 0.765;
stroke-linecap: square;
stroke-miterlimit: 10;
}
.g3_5{
fill: none;
stroke: #000;
stroke-width: 0.152;
stroke-linecap: square;
stroke-miterlimit: 10;
}
.g4_5{
fill: #000;
}
]]></style>
</defs>
<image clip-path="url(#c0_5)" preserveAspectRatio="none" x="-4" y="1212" width="952" height="131" xlink:href="img/1.jpg"/>
<path d="M169.6 218.4h23.3m25.7 -.2H243" class="g0_5"/>
<path d="M395.9 218.2h24.9" class="g1_5"/>
<path d="M446.3 218.4h24.4" class="g0_5"/>
<path d="M205 245.9h24.1" class="g2_5"/>
<path d="M281.4 245.9h24.4m52.1 .1h24.4" class="g0_5"/>
<path d="M202.2 1008.8h10.9m371.6 0h10.9" class="g1_5"/>
<path d="M432.3 1036.2h23.3" class="g0_5"/>
<path d="M215 1076.5l1.9 -1.1m0 0l4.4 7.3m0 0l4.9 -19.3m0 0h19.2" class="g3_5"/>
<path d="M220.9 1082.7l-4.5 -6.7l-1.2 .7l-.3 -.5l2.5 -1.4l4 6l4.5 -17.9h19.5v1H226.5l-4.7 18.8Z" class="g4_5"/>
<path d="M316.9 1076.5l1.9 -1.1m0 0l4.4 7.3m0 0l4.9 -19.3m0 0h19.2" class="g3_5"/>
<path d="M322.8 1082.7l-4.5 -6.7l-1.2 .7l-.3 -.5l2.5 -1.4l4 6l4.5 -17.9h19.5v1H328.4l-4.7 18.8Z" class="g4_5"/>
<path d="M419.8 1076.5l1.9 -1.1m0 0l4.4 7.3m0 0l4.9 -19.3m0 0h18.9" class="g3_5"/>
<path d="M425.7 1082.7l-4.5 -6.7l-1.2 .7l-.3 -.5l2.5 -1.4l4 6l4.5 -17.9h19.2v1H431.3l-4.7 18.8Z" class="g4_5"/>
<image preserveAspectRatio="none" x="43" y="90" width="57" height="57" xlink:href="img/2.jpg"/>
<image preserveAspectRatio="none" x="697" y="63" width="127" height="123" xlink:href="img/3.jpg"/>
<image preserveAspectRatio="none" x="684" y="222" width="140" height="86" xlink:href="img/4.jpg"/>
<image preserveAspectRatio="none" x="43" y="238" width="57" height="57" xlink:href="img/5.jpg"/>
<image preserveAspectRatio="none" x="683" y="339" width="128" height="121" xlink:href="img/6.jpg"/>
<image preserveAspectRatio="none" x="43" y="365" width="57" height="57" xlink:href="img/7.jpg"/>
<image preserveAspectRatio="none" x="43" y="500" width="57" height="56" xlink:href="img/8.jpg"/>
<image clip-path="url(#c1_5)" preserveAspectRatio="none" x="586" y="483" width="288" height="90" xlink:href="img/9.jpg"/>
<image preserveAspectRatio="none" x="43" y="671" width="57" height="56" xlink:href="img/10.jpg"/>
<image clip-path="url(#c2_5)" preserveAspectRatio="none" x="714" y="639" width="143" height="137" xlink:href="img/11.jpg"/>
<image clip-path="url(#c3_5)" preserveAspectRatio="none" x="759" y="965" width="99" height="115" xlink:href="img/12.jpg"/>
<image preserveAspectRatio="none" x="43" y="979" width="57" height="57" xlink:href="img/13.jpg"/>
<image clip-path="url(#c4_5)" preserveAspectRatio="none" x="619" y="800" width="221" height="99" xlink:href="img/14.jpg"/>
<image preserveAspectRatio="none" x="43" y="813" width="57" height="56" xlink:href="img/15.jpg"/>
</svg>