<?xml version="1.0" encoding="UTF-8" standalone="no"?>
<!DOCTYPE svg PUBLIC "-//W3C//DTD SVG 1.1//EN"
"http://www.w3.org/Graphics/SVG/1.1/DTD/svg11.dtd">
<svg viewBox="0 0 909 1286" version="1.1" xmlns="http://www.w3.org/2000/svg" xmlns:xlink="http://www.w3.org/1999/xlink">
<defs>
<clipPath id="c0_5"><path d="M-.2 1286.6v-74.9h910v74.9Z"/></clipPath>
<clipPath id="c1_5"><path d="M462.6 1124.9V992.8H574.7v132.1Z"/></clipPath>
<clipPath id="c2_5"><path d="M739.6 191.8V63.9H854.4V191.8Z"/></clipPath>
<style type="text/css"><![CDATA[
.g0_5{
fill: #000;
}
.g1_5{
fill: none;
stroke: #000;
stroke-width: 1.099;
stroke-linecap: square;
stroke-miterlimit: 10;
}
]]></style>
</defs>
<image clip-path="url(#c0_5)" preserveAspectRatio="none" x="-4" y="1212" width="952" height="131" xlink:href="img/1.jpg"/>
<path d="M254.8 254.8h36.7v-.9H254.8v.9Z" class="g0_5"/>
<path d="M254.8 256.7h36.7v-.9H254.8v.9Z" class="g0_5"/>
<path d="M784.5 570H755.3m108 0H831.1" class="g1_5"/>
<image preserveAspectRatio="none" x="137" y="990" width="111" height="135" xlink:href="img/2.jpg"/>
<image preserveAspectRatio="none" x="296" y="993" width="120" height="132" xlink:href="img/3.jpg"/>
<image clip-path="url(#c1_5)" preserveAspectRatio="none" x="463" y="993" width="111" height="132" xlink:href="img/4.jpg"/>
<image preserveAspectRatio="none" x="623" y="994" width="122" height="131" xlink:href="img/5.jpg"/>
<image preserveAspectRatio="none" x="24" y="449" width="822" height="39" xlink:href="img/6.png"/>
<image preserveAspectRatio="none" x="44" y="91" width="57" height="57" xlink:href="img/7.jpg"/>
<image clip-path="url(#c2_5)" preserveAspectRatio="none" x="740" y="64" width="114" height="128" xlink:href="img/8.jpg"/>
<image preserveAspectRatio="none" x="44" y="231" width="57" height="56" xlink:href="img/9.jpg"/>
<image preserveAspectRatio="none" x="43" y="561" width="57" height="57" xlink:href="img/10.jpg"/>
<image preserveAspectRatio="none" x="43" y="717" width="57" height="57" xlink:href="img/11.jpg"/>
<image preserveAspectRatio="none" x="43" y="863" width="57" height="56" xlink:href="img/12.jpg"/>
</svg>