<?xml version="1.0" encoding="UTF-8" standalone="no"?>
<!DOCTYPE svg PUBLIC "-//W3C//DTD SVG 1.1//EN"
"http://www.w3.org/Graphics/SVG/1.1/DTD/svg11.dtd">
<svg viewBox="0 0 909 1286" version="1.1" xmlns="http://www.w3.org/2000/svg" xmlns:xlink="http://www.w3.org/1999/xlink">
<defs>
<clipPath id="c0_1"><path d="M0 1286.3v-57.1H909.5v57.1Z"/></clipPath>
<clipPath id="c1_1"><path d="M0 151.3V0H909.5V151.3Z"/></clipPath>
<clipPath id="c2_1"><path d="M22.8 202.4V153.3H909.5v49.1Z"/></clipPath>
<style type="text/css"><![CDATA[
.g0_1{
fill: #CFC;
}
.g1_1{
fill: #70AD47;
}
.g2_1{
fill: none;
stroke: #F00;
stroke-width: 1.143;
stroke-linecap: square;
stroke-miterlimit: 10;
}
.g3_1{
fill: #000;
}
.g4_1{
fill: none;
stroke: #000;
stroke-width: 1.143;
stroke-linecap: square;
stroke-miterlimit: 10;
}
.g5_1{
fill: #F00;
}
.g6_1{
fill: #6C3;
}
.g7_1{
fill: #FCF;
}
]]></style>
</defs>
<image clip-path="url(#c0_1)" preserveAspectRatio="none" x="-2" y="1229" width="930" height="128" xlink:href="img/1.jpg"/>
<path fill-rule="evenodd" d="M57.4 432.7H441.7V405.2H57.4v27.5Z" class="g0_1"/>
<path d="M65.3 432.7H433.8V405.2H65.3v27.5Z" class="g0_1"/>
<path fill-rule="evenodd" d="M442.4 432.7H757.9V405.2H442.4v27.5Z" class="g0_1"/>
<path d="M450.3 432.7H750V405.2H450.3v27.5Z" class="g0_1"/>
<path fill-rule="evenodd" d="M758.6 432.7H861.9V405.2H758.6v27.5Z" class="g0_1"/>
<path d="M766.5 432.7H854V405.2H766.5v27.5Z" class="g0_1"/>
<path d="M56.7 405.2h.7v-.8h-.7v.8Z" class="g1_1"/>
<path d="M56.7 405.2h.7v-.8h-.7v.8Z" class="g1_1"/>
<path d="M57.4 405.2H441.7v-.8H57.4v.8Z" class="g1_1"/>
<path d="M441.6 405.2h.8v-.8h-.8v.8Z" class="g1_1"/>
<path d="M442.4 405.2H757.9v-.8H442.4v.8Z" class="g1_1"/>
<path d="M757.9 405.2h.7v-.8h-.7v.8Z" class="g1_1"/>
<path d="M758.6 405.2H861.9v-.8H758.6v.8Z" class="g1_1"/>
<path d="M861.9 405.2h.7v-.8h-.7v.8Z" class="g1_1"/>
<path d="M861.9 405.2h.7v-.8h-.7v.8Z" class="g1_1"/>
<path d="M56.7 432.7h.7V405.2h-.7v27.5Z" class="g1_1"/>
<path d="M441.6 432.7h.8V405.2h-.8v27.5Z" class="g1_1"/>
<path d="M757.9 432.7h.7V405.2h-.7v27.5Z" class="g1_1"/>
<path d="M861.9 432.7h.7V405.2h-.7v27.5Z" class="g1_1"/>
<path d="M56.7 433.4h.7v-.7h-.7v.7Z" class="g1_1"/>
<path d="M57.4 433.4H441.7v-.7H57.4v.7Z" class="g1_1"/>
<path d="M441.6 433.4h.8v-.7h-.8v.7Z" class="g1_1"/>
<path d="M442.4 433.4H757.9v-.7H442.4v.7Z" class="g1_1"/>
<path d="M757.9 433.4h.7v-.7h-.7v.7Z" class="g1_1"/>
<path d="M758.6 433.4H861.9v-.7H758.6v.7Z" class="g1_1"/>
<path d="M861.9 433.4h.7v-.7h-.7v.7Z" class="g1_1"/>
<path d="M56.7 461.1h.7V433.4h-.7v27.7Z" class="g1_1"/>
<path d="M441.6 461.1h.8V433.4h-.8v27.7Z" class="g1_1"/>
<path d="M757.9 461.1h.7V433.4h-.7v27.7Z" class="g1_1"/>
<path d="M861.9 461.1h.7V433.4h-.7v27.7Z" class="g1_1"/>
<path d="M56.7 461.8h.7v-.7h-.7v.7Z" class="g1_1"/>
<path d="M57.4 461.8H441.7v-.7H57.4v.7Z" class="g1_1"/>
<path d="M441.6 461.8h.8v-.7h-.8v.7Z" class="g1_1"/>
<path d="M442.4 461.8H757.9v-.7H442.4v.7Z" class="g1_1"/>
<path d="M757.9 461.8h.7v-.7h-.7v.7Z" class="g1_1"/>
<path d="M758.6 461.8H861.9v-.7H758.6v.7Z" class="g1_1"/>
<path d="M861.9 461.8h.7v-.7h-.7v.7Z" class="g1_1"/>
<path d="M56.7 489.3h.7V461.8h-.7v27.5Z" class="g1_1"/>
<path d="M441.6 489.3h.8V461.8h-.8v27.5Z" class="g1_1"/>
<path d="M757.9 489.3h.7V461.8h-.7v27.5Z" class="g1_1"/>
<path d="M861.9 489.3h.7V461.8h-.7v27.5Z" class="g1_1"/>
<path d="M56.7 490.1h.7v-.8h-.7v.8Z" class="g1_1"/>
<path d="M57.4 490.1H441.7v-.8H57.4v.8Z" class="g1_1"/>
<path d="M441.6 490.1h.8v-.8h-.8v.8Z" class="g1_1"/>
<path d="M442.4 490.1H757.9v-.8H442.4v.8Z" class="g1_1"/>
<path d="M757.9 490.1h.7v-.8h-.7v.8Z" class="g1_1"/>
<path d="M758.6 490.1H861.9v-.8H758.6v.8Z" class="g1_1"/>
<path d="M861.9 490.1h.7v-.8h-.7v.8Z" class="g1_1"/>
<path d="M56.7 517.5h.7V490h-.7v27.5Z" class="g1_1"/>
<path d="M441.6 517.5h.8V490h-.8v27.5Z" class="g1_1"/>
<path d="M757.9 517.5h.7V490h-.7v27.5Z" class="g1_1"/>
<path d="M861.9 517.5h.7V490h-.7v27.5Z" class="g1_1"/>
<path d="M56.7 518.3h.7v-.8h-.7v.8Z" class="g1_1"/>
<path d="M57.4 518.3H441.7v-.8H57.4v.8Z" class="g1_1"/>
<path d="M441.6 518.3h.8v-.8h-.8v.8Z" class="g1_1"/>
<path d="M442.4 518.3H757.9v-.8H442.4v.8Z" class="g1_1"/>
<path d="M757.9 518.3h.7v-.8h-.7v.8Z" class="g1_1"/>
<path d="M758.6 518.3H861.9v-.8H758.6v.8Z" class="g1_1"/>
<path d="M861.9 518.3h.7v-.8h-.7v.8Z" class="g1_1"/>
<path d="M56.7 545.8h.7V518.3h-.7v27.5Z" class="g1_1"/>
<path d="M441.6 545.8h.8V518.3h-.8v27.5Z" class="g1_1"/>
<path d="M757.9 545.8h.7V518.3h-.7v27.5Z" class="g1_1"/>
<path d="M861.9 545.8h.7V518.3h-.7v27.5Z" class="g1_1"/>
<path d="M56.7 546.5h.7v-.7h-.7v.7Z" class="g1_1"/>
<path d="M57.4 546.5H441.7v-.7H57.4v.7Z" class="g1_1"/>
<path d="M441.6 546.5h.8v-.7h-.8v.7Z" class="g1_1"/>
<path d="M442.4 546.5H757.9v-.7H442.4v.7Z" class="g1_1"/>
<path d="M757.9 546.5h.7v-.7h-.7v.7Z" class="g1_1"/>
<path d="M758.6 546.5H861.9v-.7H758.6v.7Z" class="g1_1"/>
<path d="M861.9 546.5h.7v-.7h-.7v.7Z" class="g1_1"/>
<path d="M56.7 574h.7V546.5h-.7V574Z" class="g1_1"/>
<path d="M56.7 574.7h.7V574h-.7v.7Z" class="g1_1"/>
<path d="M56.7 574.7h.7V574h-.7v.7Z" class="g1_1"/>
<path d="M57.4 574.7H441.7V574H57.4v.7Z" class="g1_1"/>
<path d="M441.6 574h.8V546.5h-.8V574Z" class="g1_1"/>
<path d="M441.6 574.7h.8V574h-.8v.7Z" class="g1_1"/>
<path d="M442.4 574.7H757.9V574H442.4v.7Z" class="g1_1"/>
<path d="M757.9 574h.7V546.5h-.7V574Z" class="g1_1"/>
<path d="M757.9 574.7h.7V574h-.7v.7Z" class="g1_1"/>
<path d="M758.6 574.7H861.9V574H758.6v.7Z" class="g1_1"/>
<path d="M861.9 574h.7V546.5h-.7V574Z" class="g1_1"/>
<path d="M861.9 574.7h.7V574h-.7v.7Z" class="g1_1"/>
<path d="M861.9 574.7h.7V574h-.7v.7Z" class="g1_1"/>
<path fill-rule="evenodd" d="M54.6 795.7H194.5V768.2H54.6v27.5Z" class="g0_1"/>
<path d="M62.3 795.7H186.6V768.2H62.3v27.5Z" class="g0_1"/>
<path fill-rule="evenodd" d="M195.3 795.7H466.2V768.2H195.3v27.5Z" class="g0_1"/>
<path d="M203.1 795.7H458.3V768.2H203.1v27.5Z" class="g0_1"/>
<path fill-rule="evenodd" d="M467 795.7H606.7V768.2H467v27.5Z" class="g0_1"/>
<path d="M474.8 795.7h124V768.2h-124v27.5Z" class="g0_1"/>
<path fill-rule="evenodd" d="M607.4 795.7H861.9V768.2H607.4v27.5Z" class="g0_1"/>
<path d="M615.3 795.7H854V768.2H615.3v27.5Z" class="g0_1"/>
<path d="M53.7 768h.7v-.8h-.7v.8Z" class="g1_1"/>
<path d="M53.7 768h.7v-.8h-.7v.8Z" class="g1_1"/>
<path d="M54.4 768H194.5v-.8H54.4v.8Z" class="g1_1"/>
<path d="M194.5 768h.8v-.8h-.8v.8Z" class="g1_1"/>
<path d="M195.3 768H466v-.8H195.3v.8Z" class="g1_1"/>
<path d="M466 768h.8v-.8H466v.8Z" class="g1_1"/>
<path d="M466.8 768H606.6v-.8H466.8v.8Z" class="g1_1"/>
<path d="M606.6 768h.8v-.8h-.8v.8Z" class="g1_1"/>
<path d="M607.4 768H861.9v-.8H607.4v.8Z" class="g1_1"/>
<path d="M861.9 768h.7v-.8h-.7v.8Z" class="g1_1"/>
<path d="M861.9 768h.7v-.8h-.7v.8Z" class="g1_1"/>
<path d="M53.7 795.7h.7V768h-.7v27.7Z" class="g1_1"/>
<path d="M194.5 795.7h.8V768h-.8v27.7Z" class="g1_1"/>
<path d="M466 795.7h.8V768H466v27.7Z" class="g1_1"/>
<path d="M606.6 795.7h.8V768h-.8v27.7Z" class="g1_1"/>
<path d="M861.9 795.7h.7V768h-.7v27.7Z" class="g1_1"/>
<path d="M403.4 810.9H292.7" class="g2_1"/>
<path d="M417.4 827.5l.7 -.7l.5 -.7l.3 -.4l.3 -.3l.4 -.7l.3 -.7l.2 -.7l.1 -.8V822l-.1 -.7l-.1 -.6l-.2 -.7l-.3 -.6l-.4 -.5l-.3 -.6l-.5 -.7l-.5 -.5l-.6 -.6l-.6 -.6L435 822l-18.4 6.2Z" class="g3_1"/>
<path d="M225.9 822H420.2m-134 3.4v-6.9" class="g4_1"/>
<path d="M289.9 806.9l-.4 -.2l-.4 -.3l-.4 -.2l-.3 -.1l-.5 -.2h-.4l-.8 -.1l-.9 .1l-.8 .2l-.8 .3l-.6 .5l-.4 .3l-.6 .7l-.4 .8l-.3 .9l-.1 .9v.5l.1 .5l.1 .5l.2 .5l.2 .4l.2 .4l.3 .4l.3 .3l.4 .4l.4 .3l.8 .4l.4 .2l.5 .1l.5 .1h1l.4 -.1l.5 -.1l.5 -.2l.4 -.2l.1 -.1l.1 -.1h.2l.4 -.3l.4 -.4l.3 -.3l.3 -.4v-.2l.1 -.1l.1 -.1l.2 -.4l.2 -.5l.1 -.4l.1 -.5v-1l-.1 -.4l-.3 -.9l-.4 -.8l-.3 -.4l-.3 -.4L290 807l-.1 -.1" class="g2_1"/>
<path d="M821.5 826.3l.7 -.7l.5 -.7l.3 -.4l.3 -.3l.4 -.7l.3 -.7l.2 -.7l.1 -.7v-.6l-.1 -.7l-.1 -.6l-.2 -.6l-.3 -.6l-.4 -.6l-.3 -.6l-.5 -.6l-.5 -.6l-.6 -.6l-.6 -.6l18.4 6.2L820.7 827Z" class="g3_1"/>
<path d="M630 820.8H824.3m-41.2 3.4v-6.9" class="g4_1"/>
<path d="M669.8 809.8H777.3m2.6 -4l.6 -.5l.8 -.4l.8 -.2h1.8l.4 .1l.4 .1l.4 .2l.4 .2l.3 .2l.3 .3l.2 .1l.2 .2l.6 .7l.4 .8l.3 .8l.1 1v.5l-.1 .5l-.1 .4l-.2 .5l-.1 .2l-.1 .1v.1l-.1 .2l-.1 .1v.1l-.1 .1l-.1 .1l-.1 .2l-.3 .4l-.4 .3l-.4 .3h-.1l-.1 .1l-.2 .1l-.4 .3l-.5 .1l-.4 .1l-.5 .1h-1l-.5 -.1l-.9 -.2l-.8 -.5l-.4 -.3l-.3 -.3l-.4 -.4l-.3 -.4l-.2 -.4l-.2 -.4l-.2 -.4l-.1 -.5l-.1 -.4v-.5l.1 -1l.3 -.9l.4 -.8l.7 -.7l.1 -.2l.2 -.1m-118.2 .3l.7 -.5l.7 -.3l.9 -.2l.8 -.1l.9 .1h.4l.4 .2l.4 .1l.4 .2l.3 .3l.3 .2l.2 .1l.2 .2l.6 .7l.5 .8l.2 .9l.1 .9v.5l-.1 .5l-.1 .5l-.1 .5l-.2 .2v.1l-.1 .1l-.1 .2l-.1 .1v.1l-.1 .1l-.1 .1l-.1 .2l-.3 .3l-.4 .4l-.4 .3h-.1l-.1 .1l-.2 .1l-.4 .2l-.5 .1l-.4 .2h-.5l-.5 .1l-.5 -.1h-.5l-.9 -.3l-.8 -.4l-.4 -.3l-.3 -.4l-.4 -.3l-.3 -.4l-.2 -.4l-.2 -.4l-.2 -.5l-.1 -.4l-.1 -.5v-.4l.1 -1l.3 -.9l.4 -.8l.7 -.8l.1 -.2l.2 -.1" class="g2_1"/>
<path d="M664.9 824.2v-6.9" class="g4_1"/>
<path d="M53.7 796.4h.7v-.7h-.7v.7Z" class="g1_1"/>
<path d="M54.4 796.4H194.5v-.7H54.4v.7Z" class="g1_1"/>
<path d="M194.5 796.4h.8v-.7h-.8v.7Z" class="g1_1"/>
<path d="M195.3 796.4H466v-.7H195.3v.7Z" class="g1_1"/>
<path d="M466 796.4h.8v-.7H466v.7Z" class="g1_1"/>
<path d="M466.8 796.4H606.6v-.7H466.8v.7Z" class="g1_1"/>
<path d="M606.6 796.4h.8v-.7h-.8v.7Z" class="g1_1"/>
<path d="M607.4 796.4H861.9v-.7H607.4v.7Z" class="g1_1"/>
<path d="M861.9 796.4h.7v-.7h-.7v.7Z" class="g1_1"/>
<path d="M53.7 851.4h.7v-55h-.7v55Z" class="g1_1"/>
<path d="M194.5 851.4h.8v-55h-.8v55Z" class="g1_1"/>
<path d="M466 851.4h.8v-55H466v55Z" class="g1_1"/>
<path d="M606.6 851.4h.8v-55h-.8v55Z" class="g1_1"/>
<path d="M861.9 851.4h.7v-55h-.7v55Z" class="g1_1"/>
<path d="M417.4 883.2l.7 -.7l.5 -.7l.3 -.4l.3 -.3l.4 -.7l.3 -.7l.2 -.8l.1 -.7v-.5l-.1 -.7l-.1 -.6l-.2 -.7l-.3 -.6l-.4 -.6l-.3 -.5l-.5 -.7l-.5 -.6l-.6 -.5l-.6 -.6l18.4 6.1l-18.4 6.2Z" class="g3_1"/>
<path d="M225.9 877.7H420.2M360.6 881v-6.8" class="g4_1"/>
<path d="M243.2 866.6H353.9m2.8 -4l.7 -.5l.8 -.3l.8 -.2l.9 -.1l.9 .1h.4l.4 .2l.3 .1l.4 .2l.4 .2l.3 .3l.2 .1l.2 .2l.6 .7l.4 .8l.3 .9l.1 .9l-.1 .5v.5l-.1 .5l-.2 .5l-.1 .1l-.1 .1v.2l-.1 .2l-.1 .1v.1l-.1 .1l-.1 .1l-.1 .1l-.3 .4l-.4 .4l-.4 .2l-.1 .1h-.1l-.2 .2l-.4 .2l-.5 .2l-.4 .1l-.5 .1h-1l-.5 -.1l-.5 -.1l-.4 -.2l-.8 -.5l-.4 -.2l-.4 -.4l-.3 -.4l-.3 -.3l-.3 -.5l-.1 -.3l-.2 -.5l-.1 -.4l-.1 -.5v-.5l.1 -1l.3 -.8l.4 -.8l.6 -.8l.2 -.2l.1 -.1" class="g2_1"/>
<path d="M821.5 882.1l.7 -.7l.5 -.7l.3 -.4l.3 -.3l.4 -.7l.3 -.7l.2 -.8l.1 -.7v-.5l-.1 -.7l-.1 -.6l-.2 -.7l-.3 -.6l-.4 -.5l-.3 -.6l-.5 -.7l-.5 -.5l-.6 -.6l-.6 -.6l18.4 6.1l-18.4 6.2Z" class="g3_1"/>
<path d="M630 876.6H824.3m-41.2 3.3v-6.8" class="g4_1"/>
<path d="M669.9 865.5H777.3m2.6 -3.9l.6 -.6l.8 -.3l.8 -.2l.9 -.1l.9 .1l.4 .1l.4 .1l.4 .1l.4 .2l.3 .3l.3 .3l.2 .1l.2 .1l.6 .7l.4 .8l.3 .9l.1 .9v.5l-.1 .5l-.1 .5l-.2 .5l-.1 .2l-.1 .1v.1l-.1 .2l-.1 .1v.1l-.1 .1l-.1 .1l-.1 .2l-.3 .4l-.4 .3l-.4 .3h-.1l-.1 .1l-.2 .1l-.4 .2l-.5 .1l-.4 .2h-.5l-.5 .1l-.5 -.1H782l-.9 -.3l-.8 -.4l-.4 -.3l-.3 -.3l-.4 -.4l-.3 -.4l-.2 -.4l-.2 -.4l-.2 -.5l-.1 -.4l-.1 -.5v-.4l.1 -1l.3 -.9l.4 -.8l.7 -.8l.1 -.1l.2 -.1" class="g2_1"/>
<path d="M664.3 870.4l-.4 -.1l-.9 -.2l-.8 -.5l-.4 -.3l-.4 -.3l-.4 -.4l-.3 -.4l-.2 -.4l-.2 -.4l-.2 -.4l-.1 -.5l-.1 -.5v-.4l.1 -1l.3 -.9l.4 -.8l.7 -.7l.3 -.3l.7 -.5l.8 -.4l.8 -.2h1.7l.4 .1l.4 .1l.4 .1l.4 .3l.3 .2l.4 .3l.3 .3l.6 .6l.5 .9l.2 .8l.1 1v.4l-.1 .6l-.1 .4l-.1 .5l-.2 .2v.1l-.1 .1l-.1 .2l-.1 .1v.1l-.3 .4l-.3 .4l-.4 .3l-.4 .3l-.1 .1h-.1l-.2 .1l-.4 .3l-.5 .1l-.4 .1l-.5 .1h-.5Z" class="g5_1"/>
<path d="M668.3 869l-.4 .3l-.4 .3l-.1 .1h-.1l-.2 .1l-.4 .3l-.5 .1l-.4 .1l-.5 .1h-1l-.4 -.1l-.9 -.2l-.8 -.5l-.4 -.3l-.4 -.3l-.4 -.4l-.3 -.4l-.2 -.4l-.2 -.4l-.2 -.4l-.1 -.5l-.1 -.5v-.4l.1 -1l.3 -.9l.4 -.8l.7 -.7l.3 -.3l.7 -.5l.8 -.4l.8 -.2h1.7l.4 .1l.4 .1l.4 .1l.4 .3l.3 .2l.4 .3l.3 .3l.6 .6l.5 .9l.2 .8l.1 1v.4l-.1 .6l-.1 .4l-.1 .5l-.2 .2v.1l-.1 .1l-.1 .2l-.1 .1v.1l-.3 .4l-.3 .4" class="g2_1"/>
<path d="M664.9 879.9v-6.8" class="g4_1"/>
<path d="M53.7 852.1h.7v-.7h-.7v.7Z" class="g1_1"/>
<path d="M54.4 852.1H194.5v-.7H54.4v.7Z" class="g1_1"/>
<path d="M194.5 852.1h.8v-.7h-.8v.7Z" class="g1_1"/>
<path d="M195.3 852.1H466v-.7H195.3v.7Z" class="g1_1"/>
<path d="M466 852.1h.8v-.7H466v.7Z" class="g1_1"/>
<path d="M466.8 852.1H606.6v-.7H466.8v.7Z" class="g1_1"/>
<path d="M606.6 852.1h.8v-.7h-.8v.7Z" class="g1_1"/>
<path d="M607.4 852.1H861.9v-.7H607.4v.7Z" class="g1_1"/>
<path d="M861.9 852.1h.7v-.7h-.7v.7Z" class="g1_1"/>
<path d="M53.7 907.1h.7v-55h-.7v55Z" class="g1_1"/>
<path d="M194.5 907.1h.8v-55h-.8v55Z" class="g1_1"/>
<path d="M466 907.1h.8v-55H466v55Z" class="g1_1"/>
<path d="M606.6 907.1h.8v-55h-.8v55Z" class="g1_1"/>
<path d="M861.9 907.1h.7v-55h-.7v55Z" class="g1_1"/>
<path d="M403.4 922.4H292.7" class="g2_1"/>
<path d="M417.4 938.9l.7 -.7l.5 -.7l.3 -.4l.3 -.3l.4 -.7l.3 -.7l.2 -.7l.1 -.7v-.6l-.1 -.7l-.1 -.6l-.2 -.7l-.3 -.5l-.4 -.6l-.3 -.6l-.5 -.6l-.5 -.6l-.6 -.6l-.6 -.6l18.4 6.1l-18.4 6.2Z" class="g3_1"/>
<path d="M225.9 933.4H420.2m-134 3.4v-6.9" class="g4_1"/>
<path d="M286.2 926.9l-.5 -.1l-.9 -.2l-.8 -.5l-.4 -.3l-.4 -.3l-.3 -.4l-.3 -.3l-.2 -.5l-.2 -.4l-.2 -.5l-.1 -.4l-.1 -.5v-.6l.1 -.9l.3 -.9l.4 -.8l.6 -.6l.4 -.3l.6 -.6l.8 -.3l.8 -.2l.9 -.1l.8 .1l.4 .1l.5 .1l.3 .1l.4 .2l.4 .3l.4 .3l.3 .3l.3 .3l.3 .4l.4 .8l.3 .9l.1 .5v.9l-.1 .5l-.1 .5l-.2 .4l-.2 .4l-.1 .2l-.1 .1v.1l-.3 .4l-.3 .4l-.4 .3l-.4 .3h-.2l-.1 .1l-.1 .1l-.4 .3l-.5 .1l-.5 .1l-.4 .1h-.5Z" class="g5_1"/>
<path d="M289.9 918.4l-.4 -.3l-.4 -.3l-.4 -.2l-.3 -.1l-.5 -.1l-.4 -.1l-.8 -.1l-.9 .1l-.8 .2l-.8 .3l-.6 .6l-.4 .3l-.6 .6l-.4 .8l-.3 .9l-.1 .9v.6l.1 .5l.1 .4l.2 .5l.2 .4l.2 .5l.3 .3l.3 .4l.4 .3l.4 .3l.8 .5l.9 .2l.5 .1h1l.4 -.1l.5 -.1l.5 -.1l.4 -.3l.1 -.1l.1 -.1h.2l.4 -.3l.4 -.3l.3 -.4l.3 -.4v-.1l.1 -.1l.1 -.2l.2 -.4l.2 -.4l.1 -.5l.1 -.5v-.9l-.1 -.5l-.3 -.9l-.4 -.8l-.3 -.4l-.3 -.3l-.3 -.3" class="g2_1"/>
<path d="M821.5 937.8l.7 -.7l.5 -.8l.3 -.3l.3 -.3l.4 -.7l.3 -.8l.2 -.7l.1 -.7v-.5l-.1 -.7l-.1 -.6l-.2 -.7l-.3 -.6l-.4 -.6l-.3 -.5l-.5 -.7l-.5 -.6l-.6 -.5l-.6 -.6l18.4 6.1l-18.4 6.2Z" class="g3_1"/>
<path d="M630 932.3H824.3m-41.2 3.3v-6.8" class="g4_1"/>
<path d="M669.9 921.2H777.3" class="g2_1"/>
<path d="M782.5 925.7H782l-.9 -.3l-.8 -.4l-.4 -.3l-.3 -.4l-.4 -.3l-.3 -.4l-.2 -.5l-.2 -.3l-.2 -.5l-.1 -.4l-.1 -.5v-1l.1 -.4l.3 -.9l.4 -.8l.7 -.8l.1 -.2l.2 -.1l.7 -.5l.8 -.3l.7 -.3h1.8l.4 .1l.4 .2l.4 .1l.4 .2l.3 .3l.4 .2l.3 .3l.6 .7l.4 .8l.3 .9l.1 .9v.5l-.1 .5l-.1 .5l-.2 .5l-.1 .2l-.1 .1v.1l-.1 .2l-.1 .1v.1l-.1 .1l-.1 .1l-.1 .2l-.3 .3l-.4 .4l-.4 .3h-.1l-.1 .1l-.2 .1l-.4 .2l-.5 .1l-.4 .2h-.5l-.5 .1Z" class="g5_1"/>
<path d="M779.9 917.2l.7 -.5l.8 -.3l.7 -.3h1.8l.4 .1l.4 .2l.4 .1l.4 .2l.3 .3l.4 .2l.3 .3l.6 .7l.4 .8l.3 .9l.1 .9v.5l-.1 .5l-.1 .5l-.2 .5l-.1 .2l-.1 .1v.1l-.1 .2l-.1 .1v.1l-.1 .1l-.1 .1l-.1 .2l-.3 .3l-.4 .4l-.4 .3h-.1l-.1 .1l-.2 .1l-.4 .2l-.5 .1l-.4 .2h-.5l-.5 .1l-.5 -.1H782l-.9 -.3l-.8 -.4l-.4 -.3l-.3 -.4l-.4 -.3l-.3 -.4l-.2 -.5l-.2 -.3l-.2 -.5l-.1 -.4l-.1 -.5v-1l.1 -.4l.3 -.9l.4 -.8l.7 -.8l.1 -.2l.2 -.1m-118.2 .4l.7 -.5l.7 -.4l.9 -.2l.8 -.1l.9 .1l.4 .1l.4 .1l.4 .1l.4 .3l.3 .2l.3 .3l.2 .1l.2 .2l.6 .6l.5 .8l.2 .9l.1 .9v.5l-.1 .5l-.1 .5l-.1 .5l-.2 .2v.1l-.1 .1l-.1 .2l-.1 .1v.1l-.1 .1l-.1 .1l-.1 .2l-.3 .4l-.4 .3l-.4 .3h-.1l-.1 .1l-.2 .1l-.4 .2l-.5 .2l-.4 .1l-.5 .1h-1l-.5 -.1l-.9 -.3l-.8 -.4l-.4 -.3l-.3 -.3l-.4 -.4l-.3 -.4l-.2 -.4l-.2 -.4l-.2 -.5l-.1 -.4l-.1 -.5v-.4l.1 -1l.3 -.9l.4 -.8l.7 -.7l.1 -.2l.2 -.1" class="g2_1"/>
<path d="M664.9 935.6v-6.8" class="g4_1"/>
<path d="M53.7 907.9h.7v-.8h-.7v.8Z" class="g1_1"/>
<path d="M54.4 907.9H194.5v-.8H54.4v.8Z" class="g1_1"/>
<path d="M194.5 907.9h.8v-.8h-.8v.8Z" class="g1_1"/>
<path d="M195.3 907.9H466v-.8H195.3v.8Z" class="g1_1"/>
<path d="M466 907.9h.8v-.8H466v.8Z" class="g1_1"/>
<path d="M466.8 907.9H606.6v-.8H466.8v.8Z" class="g1_1"/>
<path d="M606.6 907.9h.8v-.8h-.8v.8Z" class="g1_1"/>
<path d="M607.4 907.9H861.9v-.8H607.4v.8Z" class="g1_1"/>
<path d="M861.9 907.9h.7v-.8h-.7v.8Z" class="g1_1"/>
<path d="M53.7 962.9h.7v-55h-.7v55Z" class="g1_1"/>
<path d="M194.5 962.9h.8v-55h-.8v55Z" class="g1_1"/>
<path d="M466 962.9h.8v-55H466v55Z" class="g1_1"/>
<path d="M606.6 962.9h.8v-55h-.8v55Z" class="g1_1"/>
<path d="M861.9 962.9h.7v-55h-.7v55Z" class="g1_1"/>
<path d="M417.4 994.6l.7 -.7l.6 -.7l.2 -.4l.3 -.3l.4 -.7l.3 -.7l.2 -.7l.1 -.7v-1.2l-.2 -.7l-.2 -.6l-.3 -.6l-.3 -.6l-.4 -.6l-.5 -.6l-.5 -.6l-.6 -.6l-.6 -.6l18.5 6.2l-18.5 6.1Z" class="g3_1"/>
<path d="M225.9 989.1H420.2m-59.6 3.4v-6.9" class="g4_1"/>
<path d="M243.2 978.1H353.9" class="g2_1"/>
<path d="M359.4 982.6l-.5 -.1l-.9 -.2l-.8 -.5l-.4 -.3l-.3 -.3l-.4 -.4l-.3 -.4l-.2 -.4l-.2 -.4l-.2 -.4l-.1 -.5l-.1 -.5v-1l.1 -.4l.3 -.9l.4 -.8l.7 -.7l.3 -.3l.7 -.5l.7 -.4l.9 -.2h1.7l.4 .1l.4 .1l.4 .1l.4 .3l.3 .2l.4 .3l.1 .1l.2 .2l.6 .7l.4 .8l.2 .4l.1 .4l.1 1v.5l-.1 .5l-.1 .4l-.1 .1v.1l-.1 .3l-.1 .2l-.1 .1v.1l-.1 .2l-.1 .1v.1l-.1 .1l-.1 .1l-.1 .2l-.3 .4l-.4 .3l-.4 .3h-.1l-.1 .1l-.2 .1l-.4 .3l-.5 .1l-.4 .1l-.5 .1h-.5Z" class="g5_1"/>
<path d="M363.1 974.1l.1 .1l.2 .2l.6 .7l.4 .8l.2 .4l.1 .4l.1 1v.5l-.1 .5l-.1 .4l-.1 .1v.1l-.1 .3l-.1 .2l-.1 .1v.1l-.1 .2l-.1 .1v.1l-.1 .1l-.1 .1l-.1 .2l-.3 .4l-.4 .3l-.4 .3h-.1l-.1 .1l-.2 .1l-.4 .3l-.5 .1l-.4 .1l-.5 .1h-1l-.5 -.1l-.9 -.2l-.8 -.5l-.4 -.3l-.3 -.3l-.4 -.4l-.3 -.4l-.2 -.4l-.2 -.4l-.2 -.4l-.1 -.5l-.1 -.5v-1l.1 -.4l.3 -.9l.4 -.8l.7 -.7l.3 -.3l.7 -.5l.7 -.4l.9 -.2h1.7l.4 .1l.4 .1l.4 .1l.4 .3l.3 .2l.4 .3" class="g2_1"/>
<path d="M821.5 993.5l.7 -.7l.5 -.7l.3 -.3l.3 -.4l.4 -.7l.3 -.7l.2 -.7l.1 -.7V988l-.1 -.7l-.1 -.6l-.2 -.6l-.3 -.6l-.4 -.6l-.3 -.6l-.5 -.6l-.5 -.6l-.6 -.6l-.6 -.6l18.4 6.2l-18.4 6.1Z" class="g3_1"/>
<path d="M630 988H824.3m-41.2 3.4v-6.9" class="g4_1"/>
<path d="M669.8 977H777.3" class="g2_1"/>
<path d="M782.5 981.5l-.5 -.1l-.9 -.2l-.8 -.5l-.4 -.3l-.3 -.3l-.4 -.4l-.3 -.4l-.2 -.4l-.2 -.4l-.2 -.4l-.1 -.5l-.1 -.5v-.9l.1 -.5l.3 -.9l.4 -.8l.7 -.7l.1 -.2l.2 -.1l.7 -.5l.8 -.4l.7 -.2l.9 -.1l.9 .1l.4 .1l.4 .1l.4 .2l.4 .2l.3 .2l.4 .3l.3 .3l.6 .7l.4 .8l.3 .9l.1 .9v.5l-.1 .5l-.1 .4l-.2 .5l-.1 .2l-.1 .1v.1l-.1 .2l-.1 .1v.2H787l-.1 .1l-.1 .2l-.3 .4l-.4 .3l-.4 .3l-.1 .1h-.1l-.2 .1l-.4 .3l-.5 .1l-.4 .1l-.5 .1H783Z" class="g5_1"/>
<path d="M779.9 973l.7 -.5l.8 -.4l.7 -.2l.9 -.1l.9 .1l.4 .1l.4 .1l.4 .2l.4 .2l.3 .2l.4 .3l.3 .3l.6 .7l.4 .8l.3 .9l.1 .9v.5l-.1 .5l-.1 .4l-.2 .5l-.1 .2l-.1 .1v.1l-.1 .2l-.1 .1v.2H787l-.1 .1l-.1 .2l-.3 .4l-.4 .3l-.4 .3l-.1 .1h-.1l-.2 .1l-.4 .3l-.5 .1l-.4 .1l-.5 .1h-1l-.5 -.1l-.9 -.2l-.8 -.5l-.4 -.3l-.3 -.3l-.4 -.4l-.3 -.4l-.2 -.4l-.2 -.4l-.2 -.4l-.1 -.5l-.1 -.5v-.9l.1 -.5l.3 -.9l.4 -.8l.7 -.7l.1 -.2l.2 -.1" class="g2_1"/>
<path d="M664.3 981.8h-.5l-.9 -.3l-.8 -.4l-.4 -.3l-.3 -.3l-.4 -.4l-.3 -.4l-.2 -.4l-.2 -.4l-.2 -.5L660 978l-.1 -.5V977l.1 -1l.3 -.8l.4 -.8l.7 -.8l.3 -.3l.7 -.5l.7 -.3l.9 -.2l.8 -.1l.9 .1h.4l.4 .2l.4 .1l.4 .2l.3 .2l.4 .3l.3 .3l.6 .7l.5 .8l.2 .9l.1 .9v.5l-.1 .5l-.1 .5l-.1 .4l-.2 .2v.1l-.1 .2l-.1 .2l-.1 .1v.1l-.3 .4l-.3 .4l-.4 .3l-.4 .3h-.1l-.1 .1l-.2 .1l-.4 .2l-.5 .2l-.4 .1h-.5l-.5 .1Z" class="g5_1"/>
<path d="M661.7 973.3l.7 -.5l.7 -.3l.9 -.2l.8 -.1l.9 .1h.4l.4 .2l.4 .1l.4 .2l.3 .2l.4 .3l.3 .3l.6 .7l.5 .8l.2 .9l.1 .9v.5l-.1 .5l-.1 .5l-.1 .4l-.2 .2v.1l-.1 .2l-.1 .2l-.1 .1v.1l-.3 .4l-.3 .4l-.4 .3l-.4 .3h-.1l-.1 .1l-.2 .1l-.4 .2l-.5 .2l-.4 .1h-.5l-.5 .1l-.5 -.1h-.5l-.9 -.3l-.8 -.4l-.4 -.3l-.3 -.3l-.4 -.4l-.3 -.4l-.2 -.4l-.2 -.4l-.2 -.5L660 978l-.1 -.5V977l.1 -1l.3 -.8l.4 -.8l.7 -.8l.3 -.3" class="g2_1"/>
<path d="M664.9 991.4v-6.9" class="g4_1"/>
<path d="M53.7 963.6h.7v-.7h-.7v.7Z" class="g1_1"/>
<path d="M54.4 963.6H194.5v-.7H54.4v.7Z" class="g1_1"/>
<path d="M194.5 963.6h.8v-.7h-.8v.7Z" class="g1_1"/>
<path d="M195.3 963.6H466v-.7H195.3v.7Z" class="g1_1"/>
<path d="M466 963.6h.8v-.7H466v.7Z" class="g1_1"/>
<path d="M466.8 963.6H606.6v-.7H466.8v.7Z" class="g1_1"/>
<path d="M606.6 963.6h.8v-.7h-.8v.7Z" class="g1_1"/>
<path d="M607.4 963.6H861.9v-.7H607.4v.7Z" class="g1_1"/>
<path d="M861.9 963.6h.7v-.7h-.7v.7Z" class="g1_1"/>
<path d="M53.7 1018.6h.7v-55h-.7v55Z" class="g1_1"/>
<path d="M53.7 1019.3h.7v-.7h-.7v.7Z" class="g1_1"/>
<path d="M53.7 1019.3h.7v-.7h-.7v.7Z" class="g1_1"/>
<path d="M54.4 1019.3H194.5v-.7H54.4v.7Z" class="g1_1"/>
<path d="M194.5 1018.6h.8v-55h-.8v55Z" class="g1_1"/>
<path d="M194.5 1019.3h.8v-.7h-.8v.7Z" class="g1_1"/>
<path d="M195.3 1019.3H466v-.7H195.3v.7Z" class="g1_1"/>
<path d="M466 1018.6h.8v-55H466v55Z" class="g1_1"/>
<path d="M466 1019.3h.8v-.7H466v.7Z" class="g1_1"/>
<path d="M466.8 1019.3H606.6v-.7H466.8v.7Z" class="g1_1"/>
<path d="M606.6 1018.6h.8v-55h-.8v55Z" class="g1_1"/>
<path d="M606.6 1019.3h.8v-.7h-.8v.7Z" class="g1_1"/>
<path d="M607.4 1019.3H861.9v-.7H607.4v.7Z" class="g1_1"/>
<path d="M861.9 1018.6h.7v-55h-.7v55Z" class="g1_1"/>
<path d="M861.9 1019.3h.7v-.7h-.7v.7Z" class="g1_1"/>
<path d="M861.9 1019.3h.7v-.7h-.7v.7Z" class="g1_1"/>
<image clip-path="url(#c1_1)" preserveAspectRatio="none" x="0" y="0" width="914" height="151" xlink:href="img/2.jpg"/>
<image clip-path="url(#c2_1)" preserveAspectRatio="none" x="23" y="153" width="1038" height="49" xlink:href="img/3.png"/>
<path d="M57.5 346.6l-.9 -.1l-.8 -.3l-.7 -.4l-.7 -.5l-.3 -.4l-.3 -.3l-.3 -.7l-.3 -.8V328.7l.3 -.7l.3 -.8l.6 -.7l.7 -.5l.7 -.4l.8 -.3H70.9l.3 .1l.4 .2l.7 .4l.3 .2l.4 .3l.6 .7l.4 .8l.2 .7l.1 .9v13.1h-.1v.4l-.2 .8l-.2 .3l-.1 .2l-.1 .2l-.3 .3l-.2 .2v.1H73v.1l-.4 .3l-.3 .2l-.2 .1L72 346l-.4 .2l-.4 .2H71l-.1 .1h-.5l-.4 .1Z" class="g6_1"/>
<path d="M450.2 457.9l-.9 -.1l-.8 -.3l-.7 -.4l-.7 -.5l-.3 -.4l-.2 -.3l-.4 -.7l-.2 -.8l-.1 -.9V440.9l.1 -.9l.2 -.7l.4 -.8l.5 -.7l.7 -.5l.7 -.4l.8 -.3h14.3l.3 .1l.4 .2l.7 .4l.4 .2l.3 .3l.6 .7l.4 .8l.2 .7l.1 .9v13l-.1 .1v.4l-.2 .8l-.2 .3l-.1 .2l-.1 .2l-.3 .3l-.2 .2v.1h-.1v.1l-.3 .3l-.4 .2l-.2 .1l-.1 .1l-.4 .2l-.4 .2h-.2l-.1 .1h-.5l-.4 .1Z" class="g6_1"/>
<path d="M450.2 486.4l-.9 -.1l-.8 -.3l-.7 -.4l-.7 -.5l-.3 -.4l-.2 -.3l-.4 -.7l-.2 -.8l-.1 -.9V469.4l.1 -.9l.2 -.7l.4 -.8l.5 -.7l.7 -.5l.7 -.4l.8 -.3h14.3l.3 .1l.4 .2l.7 .4l.4 .2l.3 .3l.6 .7l.4 .8l.2 .7l.1 .9v13l-.1 .1v.4l-.2 .8l-.2 .3l-.1 .2l-.1 .2l-.3 .3l-.2 .2v.1h-.1v.1l-.3 .2l-.4 .3l-.2 .1l-.1 .1l-.4 .2l-.4 .2h-.2l-.1 .1h-.5l-.4 .1Z" class="g6_1"/>
<path d="M450.2 515.4l-.9 -.1l-.8 -.2l-.7 -.4l-.7 -.6l-.3 -.3l-.2 -.4l-.4 -.7l-.2 -.8l-.1 -.8V498.5l.1 -.9l.2 -.8l.4 -.8l.5 -.6l.7 -.6l.7 -.4l.8 -.2l.9 -.1h12.5l.9 .1l.3 .1l.4 .1l.7 .4l.4 .2l.3 .4l.6 .6l.4 .8l.2 .8l.1 .9v13l-.1 .1v.3l-.2 .8l-.2 .4l-.1 .1l-.1 .2l-.3 .4l-.2 .1v.1h-.1v.1l-.3 .3l-.4 .3h-.2l-.1 .2l-.4 .2l-.4 .1h-.2l-.1 .1h-.4l-.1 .1h-.4Z" class="g6_1"/>
<path d="M450.2 542.4h-.9l-.8 -.3l-.7 -.4l-.7 -.5l-.3 -.4l-.2 -.3l-.4 -.7L446 539l-.1 -.9V525.5l.1 -.9l.2 -.8l.4 -.7l.5 -.7l.7 -.6l.7 -.3l.8 -.3h14.3l.3 .1l.4 .2l.7 .3l.4 .3l.3 .3l.6 .7l.4 .7l.2 .8l.1 .9v13l-.1 .1v.4l-.2 .8l-.2 .3l-.1 .2l-.1 .2l-.3 .3l-.2 .2h-.1v.2l-.3 .2l-.4 .3l-.2 .1l-.1 .1l-.4 .2l-.4 .1h-.1l-.1 .1l-.1 .1h-.9Z" class="g6_1"/>
<path d="M449.7 571.1l-.9 -.1l-.8 -.2l-.8 -.5l-.6 -.5l-.3 -.4l-.3 -.3l-.3 -.7l-.3 -.8V553.3l.3 -.8l.3 -.8l.6 -.7l.6 -.5l.8 -.4l.8 -.2l.9 -.1h12.5l.8 .1h.4l.4 .2l.7 .4l.3 .2l.4 .3l.6 .7l.4 .8l.2 .8l.1 .9v12.5l-.1 .5v.4l-.2 .8l-.2 .4l-.2 .1v.2l-.3 .3l-.2 .2l-.1 .1v.1l-.4 .3l-.3 .2l-.2 .1l-.2 .2l-.3 .2l-.4 .1h-.2l-.2 .1h-.4l-.4 .1Z" class="g6_1"/>
<path d="M59.7 681.6l-.9 -.1l-.8 -.2l-.7 -.4l-.7 -.5l-.3 -.4l-.2 -.3l-.4 -.7l-.2 -.9l-.1 -.8V664.7l.1 -.9l.2 -.8l.4 -.8l.5 -.6l.7 -.6l.7 -.4l.8 -.2H73.1l.3 .1l.5 .1l.6 .4l.4 .3l.3 .3l.6 .6l.4 .8l.2 .8l.1 .9v13l-.1 .1v.3l-.2 .9l-.2 .3l-.1 .2l-.1 .2l-.3 .3l-.2 .1v.1h-.1v.2l-.3 .2l-.4 .3l-.2 .1l-.1 .1l-.3 .2l-.5 .1h-.1l-.1 .1h-.5l-.1 .1h-.4Z" class="g6_1"/>
<path d="M58.7 1043.9l-.9 -.1l-.7 -.2l-.6 -.4l-.6 -.6l-.3 -.3l-.2 -.3l-.3 -.8l-.2 -.9v-14.1l.2 -.9l.3 -.8l.5 -.6l.6 -.6l.6 -.4l.7 -.3H90.9l.3 .1l.4 .2l.3 .2l.3 .2l.3 .2l.3 .4l.5 .6l.4 .8l.2 .9l.1 .9v12.8h-.1v.4l-.1 .4l-.1 .2v.3l-.1 .1l-.1 .2l-.2 .5l-.2 .3l-.2 .1l-.1 .2l-.3 .3l-.1 .1l-.2 .2l-.3 .2l-.2 .1l-.1 .1h-.2l-.2 .1l-.3 .1l-.7 .1Z" class="g7_1"/>
<image preserveAspectRatio="none" x="31" y="1138" width="823" height="39" xlink:href="img/4.png"/>
</svg>