<?xml version="1.0" encoding="UTF-8" standalone="no"?>
<!DOCTYPE svg PUBLIC "-//W3C//DTD SVG 1.1//EN"
"http://www.w3.org/Graphics/SVG/1.1/DTD/svg11.dtd">
<svg viewBox="0 0 909 1286" version="1.1" xmlns="http://www.w3.org/2000/svg" xmlns:xlink="http://www.w3.org/1999/xlink">
<defs>
<clipPath id="c0_13"><path d="M-.2 1286.6v-74.9h910v74.9Z"/></clipPath>
<clipPath id="c1_13"><path d="M333.2 569v-3.7h25.4V569Z"/></clipPath>
<clipPath id="c2_13"><path d="M376.6 569v-3.7H402V569Z"/></clipPath>
<clipPath id="c3_13"><path d="M420 569v-3.7h25.4V569Z"/></clipPath>
<clipPath id="c4_13"><path d="M715.4 182.3V66.7H849.1V182.3Z"/></clipPath>
<clipPath id="c5_13"><path d="M715.4 534.8V409H836.9V534.8Z"/></clipPath>
<clipPath id="c6_13"><path d="M724.8 830.4V702.5H860V830.4Z"/></clipPath>
<style type="text/css"><![CDATA[
.g0_13{
fill: none;
stroke: #000;
stroke-width: 0.765;
stroke-linecap: square;
stroke-miterlimit: 10;
}
.g1_13{
fill: none;
stroke: #000;
stroke-width: 0.763;
stroke-linecap: square;
stroke-miterlimit: 10;
}
.g2_13{
fill: none;
stroke: #000;
stroke-width: 1.527;
stroke-linecap: square;
stroke-miterlimit: 10;
}
.g3_13{
fill: none;
stroke: #000;
stroke-width: 0.761;
stroke-linecap: square;
stroke-miterlimit: 10;
}
.g4_13{
fill: none;
stroke: #000;
stroke-width: 0.762;
stroke-linecap: square;
stroke-miterlimit: 10;
}
.g5_13{
fill: none;
stroke: #000;
stroke-width: 0.908;
stroke-linecap: square;
stroke-miterlimit: 10;
}
.g6_13{
fill: none;
stroke: #000;
stroke-width: 0.907;
stroke-linecap: square;
stroke-miterlimit: 10;
}
.g7_13{
fill: #000;
}
]]></style>
</defs>
<image clip-path="url(#c0_13)" preserveAspectRatio="none" x="-4" y="1212" width="952" height="131" xlink:href="img/1.jpg"/>
<path d="M168.7 74.3h24.4m-78 26.8h24.1" class="g0_13"/>
<path d="M280.7 101.3H305M186 357.8l2.3 -1.4" class="g1_13"/>
<path d="M188.3 356.8l3.4 5.6" class="g2_13"/>
<path d="M192.1 362.4l4.5 -17m0 0h9.8m226.5 73.8h23.2" class="g1_13"/>
<path d="M110.6 445.4h23.2" class="g0_13"/>
<path d="M140.6 492.2h28.8m67.3 0h28.8" class="g3_13"/>
<path d="M332.8 492.2h28.8m68.3 0h28.8" class="g4_13"/>
<image clip-path="url(#c1_13)" preserveAspectRatio="none" x="334" y="566" width="24" height="3" xlink:href="img/2.jpg"/>
<image clip-path="url(#c2_13)" preserveAspectRatio="none" x="377" y="566" width="25" height="3" xlink:href="img/3.jpg"/>
<image clip-path="url(#c3_13)" preserveAspectRatio="none" x="420" y="566" width="25" height="3" xlink:href="img/4.jpg"/>
<image preserveAspectRatio="none" x="131" y="592" width="25" height="3" xlink:href="img/5.jpg"/>
<path d="M653.6 593.5h23.2M374.4 744.1h23.8m93.9 0H516" class="g0_13"/>
<path d="M110.6 887.5h33.6" class="g5_13"/>
<path d="M168.7 887.5h38.4" class="g6_13"/>
<path d="M572.9 1029.8h36.7v-.9H572.9v.9Z" class="g7_13"/>
<image clip-path="url(#c4_13)" preserveAspectRatio="none" x="716" y="67" width="133" height="115" xlink:href="img/6.jpg"/>
<image preserveAspectRatio="none" x="758" y="232" width="98" height="107" xlink:href="img/7.jpg"/>
<image preserveAspectRatio="none" x="647" y="232" width="98" height="107" xlink:href="img/8.jpg"/>
<image clip-path="url(#c5_13)" preserveAspectRatio="none" x="716" y="409" width="121" height="125" xlink:href="img/9.jpg"/>
<image preserveAspectRatio="none" x="700" y="561" width="113" height="128" xlink:href="img/10.jpg"/>
<image preserveAspectRatio="none" x="43" y="586" width="57" height="56" xlink:href="img/11.jpg"/>
<image clip-path="url(#c6_13)" preserveAspectRatio="none" x="725" y="703" width="135" height="127" xlink:href="img/12.jpg"/>
<image preserveAspectRatio="none" x="43" y="733" width="57" height="56" xlink:href="img/13.jpg"/>
<image preserveAspectRatio="none" x="43" y="878" width="57" height="56" xlink:href="img/14.jpg"/>
<image preserveAspectRatio="none" x="686" y="854" width="127" height="125" xlink:href="img/15.jpg"/>
<image preserveAspectRatio="none" x="742" y="1004" width="82" height="110" xlink:href="img/16.jpg"/>
<image preserveAspectRatio="none" x="43" y="1029" width="57" height="56" xlink:href="img/17.jpg"/>
</svg>