<?xml version="1.0" encoding="UTF-8" standalone="no"?>
<!DOCTYPE svg PUBLIC "-//W3C//DTD SVG 1.1//EN"
"http://www.w3.org/Graphics/SVG/1.1/DTD/svg11.dtd">
<svg viewBox="0 0 909 1286" version="1.1" xmlns="http://www.w3.org/2000/svg" xmlns:xlink="http://www.w3.org/1999/xlink">
<defs>
<clipPath id="c0_1"><path d="M-.2 1286.6v-74.9h910v74.9Z"/></clipPath>
<clipPath id="c1_1"><path d="M.1 152.6V0H909.8V152.6Z"/></clipPath>
<clipPath id="c2_1"><path d="M23 203.8V154.1H909.8v49.7Z"/></clipPath>
<style type="text/css"><![CDATA[
.g0_1{
fill: none;
stroke: #000;
stroke-width: 1.099;
stroke-linecap: square;
stroke-miterlimit: 10;
}
.g1_1{
fill: none;
stroke: #000;
stroke-width: 0.763;
stroke-linecap: square;
stroke-miterlimit: 10;
}
.g2_1{
fill: none;
stroke: #000;
stroke-width: 1.527;
stroke-linecap: square;
stroke-miterlimit: 10;
}
.g3_1{
fill: none;
stroke: #000;
stroke-width: 0.762;
stroke-linecap: square;
stroke-miterlimit: 10;
}
.g4_1{
fill: none;
stroke: #000;
stroke-width: 1.525;
stroke-linecap: square;
stroke-miterlimit: 10;
}
.g5_1{
fill: none;
stroke: #000;
stroke-width: 1.526;
stroke-linecap: square;
stroke-miterlimit: 10;
}
]]></style>
</defs>
<image clip-path="url(#c0_1)" preserveAspectRatio="none" x="-4" y="1212" width="952" height="131" xlink:href="img/1.jpg"/>
<path d="M111.5 275.9l2.2 -1.3m0 0l5.8 11.9m0 0l3.7 -21.4m0 0h39" class="g0_1"/>
<path d="M362.3 519.4l2.4 -1.3" class="g1_1"/>
<path d="M364.7 518.5l3.4 5.6" class="g2_1"/>
<path d="M368.4 524.1l4.5 -17m0 0h19.6" class="g1_1"/>
<path d="M151.8 617.8l2.2 -1.2m0 0l5.9 11.9m0 0L163.5 607m0 0h20.7M196 617.8l2.2 -1.2m0 0l5.8 11.9m0 0L207.7 607m0 0h20.7M152.7 744.3l2.6 -1.4m0 0l6.4 13.2m0 0l4 -23.7m0 0H284.9M359 859.6l2.2 -1.2m0 0l5.8 11.9m0 0l3.7 -21.5m0 0h20.7m84 10.8l2.2 -1.2m0 0l5.9 11.9m0 0l3.6 -21.5m0 0h20.7m75.9 10.8l2.2 -1.2m0 0l5.9 11.9m0 0l3.7 -21.5m0 0h20.7" class="g0_1"/>
<path d="M136.4 1011l2.4 -1.4" class="g3_1"/>
<path d="M138.8 1010l3.4 5.6" class="g4_1"/>
<path d="M142.5 1015.6l4.5 -17m0 0h33.9" class="g3_1"/>
<path d="M231 1011l2.4 -1.4" class="g1_1"/>
<path d="M233.4 1010l3.3 5.6" class="g2_1"/>
<path d="M237.1 1015.6l4.5 -17m0 0h42.8m50.4 12.4l2.4 -1.4" class="g1_1"/>
<path d="M337.2 1010l3.3 5.6" class="g5_1"/>
<path d="M340.9 1015.6l4.5 -17m0 0h51.9m51.6 12.4l2.3 -1.4" class="g1_1"/>
<path d="M451.2 1010l3.4 5.6" class="g5_1"/>
<path d="M455 1015.6l4.5 -17m0 0h61" class="g1_1"/>
<path d="M153.3 1127.1l2.2 -1.3m0 0l5.8 12m0 0l3.7 -21.5m0 0h20.7" class="g0_1"/>
<image clip-path="url(#c1_1)" preserveAspectRatio="none" x="0" y="0" width="915" height="152" xlink:href="img/2.jpg"/>
<image clip-path="url(#c2_1)" preserveAspectRatio="none" x="23" y="154" width="1038" height="49" xlink:href="img/3.png"/>
<image preserveAspectRatio="none" x="44" y="382" width="56" height="57" xlink:href="img/4.jpg"/>
<image preserveAspectRatio="none" x="618" y="493" width="224" height="32" xlink:href="img/5.jpg"/>
<image preserveAspectRatio="none" x="44" y="499" width="56" height="56" xlink:href="img/6.jpg"/>
<image preserveAspectRatio="none" x="44" y="626" width="56" height="56" xlink:href="img/7.jpg"/>
<image preserveAspectRatio="none" x="44" y="752" width="56" height="56" xlink:href="img/8.jpg"/>
<image preserveAspectRatio="none" x="44" y="868" width="56" height="57" xlink:href="img/9.jpg"/>
<image preserveAspectRatio="none" x="44" y="990" width="56" height="57" xlink:href="img/10.jpg"/>
<image preserveAspectRatio="none" x="644" y="1095" width="200" height="42" xlink:href="img/11.jpg"/>
<image preserveAspectRatio="none" x="44" y="1108" width="56" height="56" xlink:href="img/12.jpg"/>
</svg>