<?xml version="1.0" encoding="UTF-8" standalone="no"?>
<!DOCTYPE svg PUBLIC "-//W3C//DTD SVG 1.1//EN"
"http://www.w3.org/Graphics/SVG/1.1/DTD/svg11.dtd">
<svg viewBox="0 0 909 1286" version="1.1" xmlns="http://www.w3.org/2000/svg" xmlns:xlink="http://www.w3.org/1999/xlink">
<defs>
<clipPath id="c0_9"><path d="M-.2 1286.6v-74.9h910v74.9Z"/></clipPath>
<clipPath id="c1_9"><path d="M561.7 1137.1v-94.9H849.5v94.9Z"/></clipPath>
<style type="text/css"><![CDATA[
.g0_9{
fill: none;
stroke: #000;
stroke-width: 0.765;
stroke-linecap: square;
stroke-miterlimit: 10;
}
.g1_9{
fill: none;
stroke: #000;
stroke-width: 0.763;
stroke-linecap: square;
stroke-miterlimit: 10;
}
.g2_9{
fill: none;
stroke: #000;
stroke-width: 0.767;
stroke-linecap: square;
stroke-miterlimit: 10;
}
.g3_9{
fill: none;
stroke: #000;
stroke-width: 0.761;
stroke-linecap: square;
stroke-miterlimit: 10;
}
.g4_9{
fill: none;
stroke: #000;
stroke-width: 1.527;
stroke-linecap: square;
stroke-miterlimit: 10;
}
.g5_9{
fill: #FFF;
}
.g6_9{
fill: none;
stroke: #000;
stroke-width: 1.145;
stroke-linecap: round;
stroke-miterlimit: 8;
}
.g7_9{
fill: none;
stroke: #000;
stroke-width: 0.763;
stroke-linejoin: round;
}
.g8_9{
fill: #FFF;
fill-opacity: 0;
}
.g9_9{
fill: none;
stroke: #000;
stroke-width: 0.763;
stroke-linecap: round;
stroke-miterlimit: 8;
}
]]></style>
</defs>
<image clip-path="url(#c0_9)" preserveAspectRatio="none" x="-4" y="1212" width="952" height="131" xlink:href="img/1.jpg"/>
<path d="M154.4 121.6h23.8" class="g0_9"/>
<path d="M136.1 523h11m59.2 0h11m59.2 0h11" class="g1_9"/>
<path d="M347.8 523h10" class="g2_9"/>
<path d="M388.9 597.6H413" class="g1_9"/>
<path d="M490.3 597.8h23.2" class="g0_9"/>
<path d="M594.2 597.8h25.3" class="g1_9"/>
<path d="M644.7 597.6h22.8" class="g3_9"/>
<path d="M218 625.6h25.2" class="g1_9"/>
<path d="M268.5 625.6h24.3m-182.2 120h23.2" class="g0_9"/>
<path d="M169.1 758.1l2.3 -1.3" class="g1_9"/>
<path d="M171.4 757.1l3.4 6.3" class="g4_9"/>
<path d="M175.2 763.4l4.5 -18.6m0 0h9.8M345.6 786l2.3 -1.4" class="g1_9"/>
<path d="M347.9 785l3.4 6.2" class="g4_9"/>
<path d="M351.7 791.2l4.5 -18.5m0 0H366M494.9 786l2.3 -1.4" class="g1_9"/>
<path d="M497.2 785l3.4 6.2" class="g4_9"/>
<path d="M501 791.2l4.5 -18.5m0 0h9.8" class="g1_9"/>
<path d="M168.7 869.7H192m25.7 -.2h24m24.9 0h24.1" class="g0_9"/>
<path d="M315.6 869.5h24.9m127.8 .2H498" class="g1_9"/>
<path d="M578.3 869.7h23.2" class="g0_9"/>
<path d="M627.2 869.7h24.3M440.8 898.4h24.9" class="g1_9"/>
<path d="M136.1 950.2h22.1" class="g3_9"/>
<path d="M183.3 950.2h20.1m50.8 .2h23.1" class="g1_9"/>
<path d="M303.1 950.2h24m67.9 .2h23.2" class="g0_9"/>
<path d="M443.9 950.4h24.9" class="g1_9"/>
<path d="M539.4 950.4h23.3" class="g0_9"/>
<path d="M597.5 950.2h21.4m-419.7 76.4H229m194.5 27.7h24.9m-86.5 27.9h24.9m-250 51.7h24.9m43.9 -.1h24m49.3 .1h24.9m43.9 0h29.8m-241.8 27.7h24.9" class="g1_9"/>
<path d="M204.4 1161.6h23.3" class="g0_9"/>
<path d="M278.9 1161.6h24.9m43.9 -.2h24.8" class="g1_9"/>
<image preserveAspectRatio="none" x="43" y="91" width="57" height="57" xlink:href="img/2.jpg"/>
<image preserveAspectRatio="none" x="683" y="75" width="152" height="109" xlink:href="img/3.jpg"/>
<image preserveAspectRatio="none" x="43" y="285" width="57" height="56" xlink:href="img/4.jpg"/>
<image preserveAspectRatio="none" x="705" y="255" width="124" height="120" xlink:href="img/5.jpg"/>
<image preserveAspectRatio="none" x="774" y="403" width="81" height="141" xlink:href="img/6.jpg"/>
<image preserveAspectRatio="none" x="43" y="423" width="57" height="56" xlink:href="img/7.jpg"/>
<path fill-rule="evenodd" d="M848.7 613.4v46.9h-130Z" class="g5_9"/>
<path d="M848.7 613.4v46.9h-130l130 -46.9Z" class="g6_9"/>
<path d="M792.7 660.2l55.9 -46.8m-64.8 23.4l65 23.4" class="g7_9"/>
<path fill-rule="evenodd" d="M844.1 660.4h4.4V656h-4.4v4.4Z" class="g8_9"/>
<path d="M844.1 660.4h4.4V656h-4.4v4.4Z" class="g9_9"/>
<image preserveAspectRatio="none" x="43" y="620" width="57" height="56" xlink:href="img/8.jpg"/>
<image preserveAspectRatio="none" x="43" y="738" width="57" height="56" xlink:href="img/9.jpg"/>
<image preserveAspectRatio="none" x="702" y="709" width="125" height="118" xlink:href="img/10.jpg"/>
<image preserveAspectRatio="none" x="723" y="865" width="129" height="101" xlink:href="img/11.jpg"/>
<image preserveAspectRatio="none" x="43" y="890" width="57" height="56" xlink:href="img/12.jpg"/>
<image clip-path="url(#c1_9)" preserveAspectRatio="none" x="562" y="1042" width="287" height="95" xlink:href="img/13.jpg"/>
<image preserveAspectRatio="none" x="43" y="1047" width="57" height="56" xlink:href="img/14.jpg"/>
</svg>