<?xml version="1.0" encoding="UTF-8" standalone="no"?>
<!DOCTYPE svg PUBLIC "-//W3C//DTD SVG 1.1//EN"
"http://www.w3.org/Graphics/SVG/1.1/DTD/svg11.dtd">
<svg viewBox="0 0 909 1286" version="1.1" xmlns="http://www.w3.org/2000/svg" xmlns:xlink="http://www.w3.org/1999/xlink">
<defs>
<clipPath id="c0_4"><path d="M-.2 1286.5v-74.7H909.4v74.7Z"/></clipPath>
<clipPath id="c1_4"><path d="M23.2 727.7V688.1H846.8v39.6Z"/></clipPath>
<style type="text/css"><![CDATA[
.g0_4{
fill: none;
stroke: #000;
stroke-width: 0.759;
stroke-linecap: round;
stroke-linejoin: round;
}
.g1_4{
fill: none;
stroke: #000;
stroke-width: 0.762;
stroke-linecap: round;
stroke-linejoin: round;
}
.g2_4{
fill: #FFF;
}
.g3_4{
fill: none;
stroke: #000;
stroke-width: 0.664;
stroke-linejoin: round;
}
.g4_4{
fill: none;
stroke: #000;
stroke-width: 0.664;
stroke-linecap: round;
stroke-linejoin: round;
}
.g5_4{
fill: none;
stroke: #000;
stroke-width: 0.443;
stroke-linejoin: round;
}
.g6_4{
fill: #000;
}
]]></style>
</defs>
<image clip-path="url(#c0_4)" preserveAspectRatio="none" x="-3" y="1212" width="951" height="77" xlink:href="img/1.jpg"/>
<path d="M459 189.5h24.3" class="g0_4"/>
<path d="M507.7 189.5h23.2" class="g1_4"/>
<path d="M556.6 189.5h24.2" class="g0_4"/>
<path d="M136 240h24.1m49.3 -.1h24.4m48.8 0h23.2M357 240h24.9M258.2 384.4h11.1m60.2 0h11.1" class="g1_4"/>
<g clip-path="url(#c1_4)">
<image preserveAspectRatio="none" x="21" y="690" width="826" height="40" xlink:href="img/2.png"/>
<image preserveAspectRatio="none" x="24" y="727" width="820" height="1" xlink:href="img/3.png"/>
</g>
<path fill-rule="evenodd" d="M739.3 839.2v24.4l14 9.1l23.1 -5.5V843l-14.5 -8.8l-22.6 5Z" class="g2_4"/>
<path d="M753.3 848.5l-14 -9.3m14 33.5V848.5L776.4 843m-37.1 -3.8v24.4l14 9.1l23.1 -5.5V843l-14.5 -8.8l-22.6 5" class="g3_4"/>
<path fill-rule="evenodd" d="M739.3 815v24.2l14 9.3L776.4 843V818.8L761.9 810l-22.6 5Z" class="g2_4"/>
<path d="M739.3 815v24.2l14 9.3L776.4 843V818.8L761.9 810l-22.6 5Z" class="g4_4"/>
<path fill-rule="evenodd" d="M753.3 848.5V824.1l23.1 -5.3l-23.1 29.7Z" class="g2_4"/>
<path d="M753.3 824.1l-14 -9.1m14 33.5V824.1l23.1 -5.3" class="g3_4"/>
<path fill-rule="evenodd" d="M739.3 790.6V815l14 9.1l23.1 -5.3V794.7l-14.5 -8.9l-22.6 4.8Z" class="g2_4"/>
<path d="M753.3 799.9l-14 -9.3m14 33.5V799.9l23.1 -5.2m-37.1 -4.1V815l14 9.1l23.1 -5.3V794.7l-14.5 -8.9l-22.6 4.8" class="g3_4"/>
<path fill-rule="evenodd" d="M753.3 848.3v24.4l13.9 9.3l23.7 -5.6V852.2l-15.2 -8.8l-22.4 4.9Z" class="g2_4"/>
<path d="M753.3 848.3v24.4l13.9 9.3l23.7 -5.6V852.2l-15.2 -8.8l-22.4 4.9Z" class="g4_4"/>
<path fill-rule="evenodd" d="M767.3 882V857.5l23.6 -5.3L767.3 882Z" class="g2_4"/>
<path d="M767.3 857.5l-14 -9.2m14 33.7V857.5l23.6 -5.3" class="g3_4"/>
<path fill-rule="evenodd" d="M753.3 824.1v24.4l13.9 9l23.7 -5.3V827.6l-14.5 -8.8l-23.1 5.3Z" class="g2_4"/>
<path d="M767.3 833.3l-14 -9.2m14 33.4V833.3l23.6 -5.7m-37.6 -3.5v24.4l14 9l23.6 -5.3V827.6l-14.5 -8.8l-23.1 5.3" class="g3_4"/>
<path fill-rule="evenodd" d="M716.2 844.8V869l13.7 9.3l23.4 -5.6V848.5l-14 -9.3l-23.1 5.6Z" class="g2_4"/>
<path d="M729.9 853.9l-13.7 -9.1m13.7 33.5V853.9l23.4 -5.4m-37.1 -3.7V869l13.7 9.3l23.4 -5.6V848.5l-14 -9.3l-23.1 5.6" class="g3_4"/>
<path fill-rule="evenodd" d="M729.9 853.9v24.4l14.1 9L767.1 882V857.5l-13.8 -9.2l-23.4 5.6Z" class="g2_4"/>
<path d="M744 863.1l-14.1 -9.2M744 887.3V863.1l23.1 -5.6m-37.2 -3.6v24.4l14.1 9L767.1 882V857.5l-13.8 -9.2l-23.4 5.6" class="g3_4"/>
<path fill-rule="evenodd" d="M692.8 850.1v24.5l14 9.1l23.1 -5.4V854.1l-14.6 -8.8l-22.5 4.8Z" class="g2_4"/>
<path d="M706.8 859.5l-14 -9.4m14 33.6V859.5l23.1 -5.4m-37.1 -4v24.5l14 9.1l23.1 -5.4V854.1l-14.6 -8.8l-22.5 4.8" class="g3_4"/>
<path fill-rule="evenodd" d="M692.8 825.9v24.5l14 9.1l23.1 -5.4V829.7l-14.6 -8.8l-22.5 5Z" class="g2_4"/>
<path d="M692.8 825.9v24.5l14 9.1l23.1 -5.4V829.7l-14.6 -8.8l-22.5 5Z" class="g4_4"/>
<path fill-rule="evenodd" d="M706.8 859.5V835.3l23.1 -5.6l-23.1 29.8Z" class="g2_4"/>
<path d="M706.8 835.3l-14 -9.4m14 33.6V835.3l23.1 -5.6" class="g3_4"/>
<path fill-rule="evenodd" d="M692.8 801.8v24.4l14 9.1l23.1 -5.6V805.6l-14.6 -8.9l-22.5 5.1Z" class="g2_4"/>
<path d="M706.8 811.2l-14 -9.4m14 33.5V811.2l23.1 -5.6m-37.1 -3.8v24.4l14 9.1l23.1 -5.6V805.6l-14.6 -8.9l-22.5 5.1" class="g3_4"/>
<path fill-rule="evenodd" d="M744 863.1v24.4l14 9.1l23.1 -5.5V866.8l-13.9 -9.3L744 863.1Z" class="g2_4"/>
<path d="M758 872.5l-14 -9.4m14 33.5V872.5l23.1 -5.7M744 863.1v24.4l14 9.1l23.1 -5.5V866.8l-13.8 -9.3L744 863.1" class="g3_4"/>
<path fill-rule="evenodd" d="M720.9 868.7v24.2l13.7 9.3L758 896.6V872.5l-14 -9.4l-23.1 5.6Z" class="g2_4"/>
<path d="M734.6 877.8l-13.7 -9.1m13.7 33.5V877.8L758 872.5m-37.1 -3.8v24.2l13.7 9.3L758 896.6V872.5l-14 -9.4l-23.1 5.6" class="g3_4"/>
<path d="M727.6 884.8l-8.8 23.7m53.1 -81.1L802.5 815M758 792.5l26.6 -14.9m-36 78.3l50.6 36.8" class="g5_4"/>
<path fill-rule="evenodd" d="M699.6 892.4l-22.4 5.7l3.2 2.3L701.7 895l-2.1 -2.6Z" class="g6_4"/>
<path fill-rule="evenodd" d="M692.2 891.7l8.8 6.5l5.8 -6.5H692.2Z" class="g6_4"/>
<path d="M43.4 145.9H99.6V89.7H43.4v56.2Z" class="g2_4"/>
<image preserveAspectRatio="none" x="43" y="90" width="57" height="56" xlink:href="img/4.png"/>
<image preserveAspectRatio="none" x="760" y="183" width="95" height="95" xlink:href="img/5.jpg"/>
<image preserveAspectRatio="none" x="660" y="186" width="94" height="81" xlink:href="img/6.jpg"/>
<path d="M43.4 264.8H99.6V208.6H43.4v56.2Z" class="g2_4"/>
<image preserveAspectRatio="none" x="43" y="209" width="57" height="56" xlink:href="img/7.png"/>
<image preserveAspectRatio="none" x="724" y="311" width="108" height="111" xlink:href="img/8.jpg"/>
<path d="M43.4 389H99.6V332.8H43.4V389Z" class="g2_4"/>
<image preserveAspectRatio="none" x="43" y="333" width="57" height="56" xlink:href="img/9.png"/>
<path d="M43.4 530.2H99.6V474H43.4v56.2Z" class="g2_4"/>
<image preserveAspectRatio="none" x="43" y="474" width="57" height="56" xlink:href="img/10.png"/>
<image preserveAspectRatio="none" x="676" y="455" width="179" height="42" xlink:href="img/11.jpg"/>
<image preserveAspectRatio="none" x="714" y="501" width="81" height="63" xlink:href="img/12.jpg"/>
</svg>