<?xml version="1.0" encoding="UTF-8" standalone="no"?>
<!DOCTYPE svg PUBLIC "-//W3C//DTD SVG 1.1//EN"
"http://www.w3.org/Graphics/SVG/1.1/DTD/svg11.dtd">
<svg viewBox="0 0 909 1286" version="1.1" xmlns="http://www.w3.org/2000/svg" xmlns:xlink="http://www.w3.org/1999/xlink">
<defs>
<clipPath id="c0_9"><path d="M-.2 1286.6v-74.9h910v74.9Z"/></clipPath>
<clipPath id="c1_9"><path d="M681.8 445.4V349.8H853.4v95.6Z"/></clipPath>
<style type="text/css"><![CDATA[
.g0_9{
fill: none;
stroke: #000;
stroke-width: 0.765;
stroke-linecap: square;
stroke-miterlimit: 10;
}
.g1_9{
fill: none;
stroke: #000;
stroke-width: 0.763;
stroke-linecap: square;
stroke-miterlimit: 10;
}
.g2_9{
fill: none;
stroke: #000;
stroke-width: 0.761;
stroke-linecap: square;
stroke-miterlimit: 10;
}
.g3_9{
fill: none;
stroke: #000;
stroke-width: 1.523;
stroke-linecap: square;
stroke-miterlimit: 10;
}
.g4_9{
fill: #DDD;
}
.g5_9{
fill: none;
stroke: #000;
stroke-width: 1.145;
stroke-linecap: round;
stroke-miterlimit: 8;
}
.g6_9{
fill: #FFF;
}
.g7_9{
fill: none;
stroke: #000;
stroke-width: 1.145;
stroke-linecap: round;
stroke-linejoin: round;
}
.g8_9{
fill: none;
stroke: #000;
stroke-width: 1.145;
stroke-linejoin: round;
}
.g9_9{
fill: #000;
}
]]></style>
</defs>
<image clip-path="url(#c0_9)" preserveAspectRatio="none" x="-4" y="1212" width="952" height="131" xlink:href="img/1.jpg"/>
<path d="M168.7 74.2H192m141.7 0H357" class="g0_9"/>
<path d="M410.1 74h25.3" class="g1_9"/>
<path d="M470.1 86.6l2.3 -1.3" class="g2_9"/>
<path d="M472.4 85.6l3.4 6.2" class="g3_9"/>
<path d="M476.2 91.8l4.5 -18.3m0 0h10.9m-247.5 127h22.3m150.7 0h22.3" class="g2_9"/>
<path d="M554.1 676.5h24.4m-301.8 29H300" class="g0_9"/>
<path d="M325.7 705.5h22.2" class="g2_9"/>
<path d="M376.2 998.8h25" class="g1_9"/>
<path d="M454.2 999h23.2m-339.3 27.6h24.1" class="g0_9"/>
<path d="M317.4 1026.8h23.2m25.7 -.2h24.9" class="g1_9"/>
<path d="M649.4 1026.8h23.3" class="g0_9"/>
<path d="M119.7 1054.5h24.9m.6 48h20m68.6 0h19.9m68.6 0h20.2m69.5 0h19.9" class="g1_9"/>
<image preserveAspectRatio="none" x="43" y="94" width="57" height="57" xlink:href="img/2.jpg"/>
<path fill-rule="evenodd" d="M764.3 105.7v39.2H725.2Z" class="g4_9"/>
<path d="M764.3 105.7v39.2H725.2l39.1 -39.2Z" class="g5_9"/>
<path fill-rule="evenodd" d="M764.3 66.6c-21.6 0 -39.1 17.5 -39.1 39.1c0 21.6 17.5 39.1 39.1 39.1c21.6 0 39.2 -17.5 39.2 -39.1c0 -21.6 -17.6 -39.1 -39.2 -39.1Z" class="g6_9"/>
<path d="M764.3 66.6c-21.6 0 -39.1 17.5 -39.1 39.1c0 21.6 17.5 39.1 39.1 39.1c21.6 0 39.2 -17.5 39.2 -39.1c0 -21.6 -17.6 -39.1 -39.2 -39.1Z" class="g7_9"/>
<path d="M725.2 144.8l39.1 -39.2" class="g8_9"/>
<path fill-rule="evenodd" d="M764.3 104.1c-.9 0 -1.6 .7 -1.6 1.6c0 .9 .7 1.6 1.6 1.6c.9 0 1.6 -.7 1.6 -1.6c0 -.9 -.7 -1.6 -1.6 -1.6Z" class="g9_9"/>
<path fill-rule="evenodd" d="M764.3 143.3c-.9 0 -1.6 .7 -1.6 1.6c0 .8 .7 1.5 1.6 1.5c.9 0 1.6 -.7 1.6 -1.5c0 -.9 -.7 -1.6 -1.6 -1.6Z" class="g9_9"/>
<path d="M718.9 144.9h79.4" class="g8_9"/>
<image preserveAspectRatio="none" x="43" y="220" width="57" height="56" xlink:href="img/3.jpg"/>
<image preserveAspectRatio="none" x="754" y="190" width="79" height="117" xlink:href="img/4.jpg"/>
<image clip-path="url(#c1_9)" preserveAspectRatio="none" x="682" y="350" width="171" height="95" xlink:href="img/5.jpg"/>
<image preserveAspectRatio="none" x="43" y="365" width="57" height="56" xlink:href="img/6.jpg"/>
<image preserveAspectRatio="none" x="712" y="675" width="138" height="109" xlink:href="img/7.jpg"/>
<image preserveAspectRatio="none" x="43" y="696" width="57" height="57" xlink:href="img/8.jpg"/>
<image preserveAspectRatio="none" x="739" y="819" width="124" height="135" xlink:href="img/9.jpg"/>
<image preserveAspectRatio="none" x="43" y="846" width="57" height="56" xlink:href="img/10.jpg"/>
<image preserveAspectRatio="none" x="718" y="507" width="135" height="124" xlink:href="img/11.jpg"/>
<image preserveAspectRatio="none" x="43" y="530" width="57" height="56" xlink:href="img/12.jpg"/>
<image preserveAspectRatio="none" x="43" y="1019" width="57" height="56" xlink:href="img/13.jpg"/>
<image preserveAspectRatio="none" x="712" y="998" width="139" height="88" xlink:href="img/14.jpg"/>
</svg>