<?xml version="1.0" encoding="UTF-8" standalone="no"?>
<!DOCTYPE svg PUBLIC "-//W3C//DTD SVG 1.1//EN"
"http://www.w3.org/Graphics/SVG/1.1/DTD/svg11.dtd">
<svg viewBox="0 0 909 1286" version="1.1" xmlns="http://www.w3.org/2000/svg" xmlns:xlink="http://www.w3.org/1999/xlink">
<defs>
<clipPath id="c0_6"><path d="M-.2 1286.6v-74.9h910v74.9Z"/></clipPath>
<clipPath id="c1_6"><path d="M701.2 203.2V106.3H854.8v96.9Z"/></clipPath>
<style type="text/css"><![CDATA[
.g0_6{
fill: none;
stroke: #000;
stroke-width: 1.099;
stroke-linecap: square;
stroke-miterlimit: 10;
}
]]></style>
</defs>
<image clip-path="url(#c0_6)" preserveAspectRatio="none" x="-4" y="1212" width="952" height="131" xlink:href="img/1.jpg"/>
<path d="M233 122.8H200.9m128.4 0H297.2m-28.6 33.4H236.3m85.3 0H291.5m-61.6 33.2H199.8m84.2 0H252.8M384.3 293.9H354.2m120.8 0H443.9m354.3 0H768m84.3 0H821.1M319.7 351.1H288.6M168.8 384.3H138.6m162.6 0H270.1m47.4 33.3h-30M319.7 451H288.6m1.8 80.5H260.3m179.7 0H409.9m158.8 0H538.6m93.4 0H600.8m216.9 0H787.6M243.5 588.7H211.2m88.4 0H266.4m87.2 0H322.5m84 0H376.4M480.2 622H450.1M198.4 655.4h-31m84.9 0H221.1m217.3 0H408.3M183.1 783.7h-30m89.1 0H211m209.4 57.1h-31M251 874.1H219.8m287.1 0h-31" class="g0_6"/>
<image clip-path="url(#c1_6)" preserveAspectRatio="none" x="701" y="107" width="153" height="96" xlink:href="img/2.jpg"/>
<image preserveAspectRatio="none" x="710" y="324" width="144" height="145" xlink:href="img/3.jpg"/>
<image preserveAspectRatio="none" x="43" y="313" width="57" height="57" xlink:href="img/4.jpg"/>
<image preserveAspectRatio="none" x="703" y="580" width="167" height="131" xlink:href="img/5.jpg"/>
<image preserveAspectRatio="none" x="43" y="551" width="57" height="56" xlink:href="img/6.jpg"/>
<image preserveAspectRatio="none" x="638" y="821" width="222" height="52" xlink:href="img/7.jpg"/>
<image preserveAspectRatio="none" x="43" y="803" width="57" height="56" xlink:href="img/8.jpg"/>
<image preserveAspectRatio="none" x="649" y="955" width="174" height="103" xlink:href="img/9.jpg"/>
<image preserveAspectRatio="none" x="43" y="970" width="57" height="56" xlink:href="img/10.jpg"/>
</svg>