<?xml version="1.0" encoding="UTF-8" standalone="no"?>
<!DOCTYPE svg PUBLIC "-//W3C//DTD SVG 1.1//EN"
"http://www.w3.org/Graphics/SVG/1.1/DTD/svg11.dtd">
<svg viewBox="0 0 909 1286" version="1.1" xmlns="http://www.w3.org/2000/svg" xmlns:xlink="http://www.w3.org/1999/xlink">
<defs>
<clipPath id="c0_9"><path d="M-.2 1286.6v-74.9h910v74.9Z"/></clipPath>
<clipPath id="c1_9"><path d="M635 1105.2V1022H842.5v83.2Z"/></clipPath>
<style type="text/css"><![CDATA[
.g0_9{
fill: none;
stroke: #000;
stroke-width: 0.765;
stroke-linecap: square;
stroke-miterlimit: 10;
}
.g1_9{
fill: none;
stroke: #000;
stroke-width: 0.763;
stroke-linecap: square;
stroke-miterlimit: 10;
}
.g2_9{
fill: none;
stroke: #000;
stroke-width: 0.761;
stroke-linecap: square;
stroke-miterlimit: 10;
}
.g3_9{
fill: none;
stroke: #000;
stroke-width: 0.764;
stroke-linecap: square;
stroke-miterlimit: 10;
}
.g4_9{
fill: none;
stroke: #000;
stroke-width: 1.529;
stroke-linecap: square;
stroke-miterlimit: 10;
}
.g5_9{
fill: none;
stroke: #000;
stroke-width: 1.099;
stroke-linecap: square;
stroke-miterlimit: 10;
}
.g6_9{
fill: none;
stroke: #000;
stroke-width: 0.755;
stroke-linecap: square;
stroke-miterlimit: 10;
}
.g7_9{
fill: none;
stroke: #000;
stroke-width: 0.753;
stroke-linecap: square;
stroke-miterlimit: 10;
}
.g8_9{
fill: none;
stroke: #000;
stroke-width: 1.527;
stroke-linecap: square;
stroke-miterlimit: 10;
}
.g9_9{
fill: none;
stroke: #000;
stroke-width: 0.777;
stroke-linecap: square;
stroke-miterlimit: 10;
}
.ga_9{
fill: none;
stroke: #000;
stroke-width: 0.775;
stroke-linecap: square;
stroke-miterlimit: 10;
}
.gb_9{
fill: none;
stroke: #000;
stroke-width: 0.907;
stroke-linecap: square;
stroke-miterlimit: 10;
}
.gc_9{
fill: none;
stroke: #000;
stroke-width: 0.909;
stroke-linecap: square;
stroke-miterlimit: 10;
}
.gd_9{
fill: none;
stroke: #000;
stroke-width: 0.905;
stroke-linecap: square;
stroke-miterlimit: 10;
}
.ge_9{
fill: none;
stroke: #000;
stroke-width: 0.152;
stroke-linecap: square;
stroke-miterlimit: 10;
}
.gf_9{
fill: #000;
}
]]></style>
</defs>
<image clip-path="url(#c0_9)" preserveAspectRatio="none" x="-4" y="1212" width="952" height="131" xlink:href="img/1.jpg"/>
<path d="M509.5 97.5h23.9" class="g0_9"/>
<path d="M184.6 123.7h21m24.9 0H256" class="g1_9"/>
<path d="M280.9 123.7h22.5" class="g2_9"/>
<path d="M328.2 123.7H352" class="g0_9"/>
<path d="M561.5 123.7h20.1" class="g1_9"/>
<path d="M249 176.5h37.5" class="g0_9"/>
<path d="M339.1 164.7l2.4 -1.4" class="g3_9"/>
<path d="M341.5 163.7l3.3 7.3" class="g4_9"/>
<path d="M345.2 171l4.5 -21.2m0 0H400m-62.8 26.6h64.3" class="g3_9"/>
<path d="M379.1 288.8l2.6 -1.5m0 0l6.4 13.2m0 0l4 -23.7m0 0h58.2" class="g5_9"/>
<path d="M460 404.1h21.2" class="g1_9"/>
<path d="M505.9 404.2h28.4" class="g0_9"/>
<path d="M596.1 404.2h23.2" class="g1_9"/>
<path d="M645 404.1h24.1M119.7 431.7h24.4" class="g0_9"/>
<path d="M168.7 431.9h24.9" class="g1_9"/>
<path d="M110.5 746.1h26.1" class="g6_9"/>
<path d="M198.7 746.2h27.2" class="g7_9"/>
<path d="M145.6 793.5l2.4 -1.3" class="g1_9"/>
<path d="M148 792.6l3.3 6.2" class="g8_9"/>
<path d="M151.7 798.8l4.5 -18.5m0 0H166m59 13.2l2.3 -1.3" class="g1_9"/>
<path d="M227.3 792.6l3.4 6.2" class="g8_9"/>
<path d="M231.1 798.8l4.5 -18.5m0 0h9.8" class="g1_9"/>
<path d="M294.9 793.4h19.9" class="g9_9"/>
<path d="M365.1 793.4h20" class="ga_9"/>
<path d="M299.1 871.2h25.2" class="gb_9"/>
<path d="M341.4 871.1h24.1m24.9 0h24.4" class="gc_9"/>
<path d="M439.3 871.1h24.1m61.5 .1h25.2" class="gb_9"/>
<path d="M602.8 871.1h24.1m52.4 0h24.4" class="gc_9"/>
<path d="M222.6 899h24.9m62.2 0h24.9" class="gb_9"/>
<path d="M168.7 926.6h24.4" class="gc_9"/>
<path d="M254.3 926.6h26.9" class="gd_9"/>
<path d="M150 1110.1l1.8 -1m0 0l4.5 7.3m0 0l4.8 -19.3m0 0h9.4" class="ge_9"/>
<path d="M155.8 1116.4l-4.5 -6.7l-1.2 .7l-.3 -.5l2.5 -1.4l4 6l4.5 -17.9h9.7v.9h-9l-4.8 18.9Z" class="gf_9"/>
<path d="M243.1 1110.1l1.8 -1m0 0l4.5 7.3m0 0l4.8 -19.3m0 0h9.5" class="ge_9"/>
<path d="M248.9 1116.4l-4.4 -6.7l-1.3 .7l-.3 -.5l2.6 -1.4l3.9 6l4.5 -17.9h9.8v.9h-9.1l-4.7 18.9Z" class="gf_9"/>
<image preserveAspectRatio="none" x="712" y="71" width="138" height="135" xlink:href="img/2.jpg"/>
<image preserveAspectRatio="none" x="43" y="91" width="57" height="56" xlink:href="img/3.jpg"/>
<image preserveAspectRatio="none" x="43" y="270" width="57" height="56" xlink:href="img/4.jpg"/>
<image preserveAspectRatio="none" x="43" y="396" width="57" height="56" xlink:href="img/5.jpg"/>
<image preserveAspectRatio="none" x="703" y="367" width="124" height="171" xlink:href="img/6.jpg"/>
<image preserveAspectRatio="none" x="672" y="553" width="184" height="118" xlink:href="img/7.jpg"/>
<image preserveAspectRatio="none" x="43" y="570" width="57" height="56" xlink:href="img/8.jpg"/>
<image preserveAspectRatio="none" x="728" y="717" width="110" height="123" xlink:href="img/9.jpg"/>
<image preserveAspectRatio="none" x="43" y="738" width="57" height="57" xlink:href="img/10.jpg"/>
<image preserveAspectRatio="none" x="751" y="861" width="71" height="127" xlink:href="img/11.jpg"/>
<image preserveAspectRatio="none" x="43" y="892" width="57" height="56" xlink:href="img/12.jpg"/>
<image clip-path="url(#c1_9)" preserveAspectRatio="none" x="635" y="1022" width="207" height="83" xlink:href="img/13.jpg"/>
<image preserveAspectRatio="none" x="43" y="1042" width="57" height="56" xlink:href="img/14.jpg"/>
</svg>