<?xml version="1.0" encoding="UTF-8" standalone="no"?>
<!DOCTYPE svg PUBLIC "-//W3C//DTD SVG 1.1//EN"
"http://www.w3.org/Graphics/SVG/1.1/DTD/svg11.dtd">
<svg viewBox="0 0 909 1286" version="1.1" xmlns="http://www.w3.org/2000/svg" xmlns:xlink="http://www.w3.org/1999/xlink">
<defs>
<clipPath id="c0_7"><path d="M-.2 1286.6v-74.9h910v74.9Z"/></clipPath>
<style type="text/css"><![CDATA[
.g0_7{
fill: #000;
}
.g1_7{
fill: none;
stroke: #000;
stroke-width: 0.547;
stroke-linecap: square;
stroke-miterlimit: 10;
}
.g2_7{
fill: none;
stroke: #000;
stroke-width: 0.82;
stroke-linecap: square;
stroke-miterlimit: 10;
}
]]></style>
</defs>
<image clip-path="url(#c0_7)" preserveAspectRatio="none" x="-4" y="1212" width="952" height="131" xlink:href="img/1.jpg"/>
<path d="M785.2 213.2h55v-.9h-55v.9Z" class="g0_7"/>
<path d="M785.2 215.1h55v-1h-55v1Z" class="g0_7"/>
<path d="M165.6 621.5h36.6v-.9H165.6v.9Z" class="g0_7"/>
<path d="M495.5 621.5h36.7v-.9H495.5v.9Z" class="g0_7"/>
<path d="M348.2 645.3h36.6v-.9H348.2v.9Z" class="g0_7"/>
<path d="M110.6 804.1h73.3v-.9H110.6v.9Z" class="g0_7"/>
<image preserveAspectRatio="none" x="43" y="89" width="57" height="57" xlink:href="img/2.jpg"/>
<image preserveAspectRatio="none" x="43" y="213" width="57" height="56" xlink:href="img/3.jpg"/>
<image preserveAspectRatio="none" x="43" y="331" width="57" height="56" xlink:href="img/4.jpg"/>
<image preserveAspectRatio="none" x="43" y="475" width="57" height="57" xlink:href="img/5.jpg"/>
<image preserveAspectRatio="none" x="43" y="619" width="57" height="57" xlink:href="img/6.jpg"/>
<image preserveAspectRatio="none" x="688" y="603" width="158" height="124" xlink:href="img/7.jpg"/>
<image preserveAspectRatio="none" x="43" y="803" width="57" height="56" xlink:href="img/8.jpg"/>
<path d="M719.6 822.1l49.5 28.7l-49.8 29.6l-.8 -1.1l-1.6 -3.9L715.8 873l-1.1 -3l-1.1 -3.6l-.8 -3.8l-.8 -4.1l-.6 -4.7v-4.6L712 844l.8 -5.2l1.6 -5.5l2.2 -5.5l1.4 -3l1.6 -2.7Z" class="g1_7"/>
<path d="M826.6 851.1v0l-.3 6l-.8 5.8l-1.4 5.4l-1.9 5.2l-2.5 5.2l-3 4.7l-3.3 4.4l-3.5 4.1l-4.1 3.8l-4.4 3.3l-4.9 3l-5 2.2l-5.4 2.2l-5.5 1.3l-5.7 .9l-5.8 .2l-6 -.2l-5.7 -.9l-5.5 -1.3l-5.2 -2.2L741.5 902l-4.7 -3l-4.3 -3.3l-4.1 -3.8l-3.9 -4.1l-3.2 -4.4l-3.1 -4.7l-2.1 -5.2l-2.2 -5.2l-1.4 -5.4l-.8 -5.8l-.3 -6l.3 -5.8l.8 -5.7l1.4 -5.5l2.2 -5.4l2.1 -5l3.1 -4.6l3.2 -4.7l3.9 -4.1l4.1 -3.5l4.3 -3.3l4.7 -3l5.2 -2.5l5.2 -1.9l5.5 -1.4l5.7 -.8l6 -.3l5.8 .3l5.7 .8l5.5 1.4l5.4 1.9l5 2.5l4.9 3l4.4 3.3l4.1 3.5l3.5 4.1l3.3 4.7l3 4.6l2.5 5l1.9 5.4l1.4 5.5l.8 5.7l.3 5.8Z" class="g2_7"/>
<path d="M769.1 793.6v57.5l-49.8 29.3m49.8 -29.3L750.5 796.6m-30.9 25.5l49.5 29" class="g1_7"/>
<path d="M778.1 860.9l1.4 -.2l1.4 -.6l1.3 -.5l1.1 -.8l.9 -1.1l.5 -.9l.8 .3l.3 .3h-.5l-.9 1.1l-1.1 .8l-1.1 .8l-1.3 .6l-2.8 .5Zm3.6 -1.9l-.3 -.2l-1.1 -.3v-.3H782v-2.5h-4.1l-.3 -.5l1.1 .3h.8v-2.8l.6 .3h.2l-.2 .6v1.9H782v-3.3h.8l.3 .3l-.6 .2v.9h1.7l.5 -.6l.8 .6v.2h-3v1.7h3l.6 -.6l.8 .6l-.3 .2h-4.1v3.1l-.3 .2Zm-4.1 0l1.1 -.8l.8 -1.1l.6 -.8l.5 .3l.3 .2l-.6 .3l-.5 .8l-1.1 .6l-.8 .5Z" class="g0_7"/>
<path d="M793.5 860.7l-1.4 -.3v-.3H794v-4.6h-2.2l-1.1 .2v-.5h4.7l.5 -.5l.8 .5v.3h-1.9v4.6l-.2 .6v.2l-.9 .3Zm-4.4 .5h-.3v-4.6l-1.4 .8v-.3l1.1 -.8l.9 -1.1l.5 -1.4l.8 .6h.3l-.5 .3l-.9 1l-.2 .3l.2 .3h.3l-.5 .3v4.6Zm-1.7 -6.5l.9 -.9l.8 -.8l.5 -.8l.9 .3v.2l-.6 .3l-.5 .6l-.9 .8l-.8 .5Zm5 -1.4h-1.1l-.3 -.6l1.4 .3h2.4l.6 -.5l.8 .5v.3Z" class="g0_7"/>
<path d="M799.5 856.3h7.9v.3h-7.9v-.3Z" class="g0_7"/>
<path d="M729.7 861.8h7.7v.2h-7.7v-.2Z" class="g0_7"/>
<path d="M752.4 833.9h8v.2h-8v-.2Z" class="g0_7"/>
<path d="M771.9 783.2h8.4v.3h-8.4v-.3Z" class="g0_7"/>
<path d="M734.7 788.4l-.3 -.2l-.3 -.3l-.5 -.3v-.3l1.3 .3l.3 -.3l.3 -.8l-.3 -.8l-1.6 1.1l-1.4 .8l-1.4 .3v-.3l1.1 -.5l1.4 -.6l1.1 -.8l.8 -.8l-.3 -.3v-.3l-1.6 1.1l-1.1 .3l-1.1 .3l-.3 -.3l1.1 -.3l1.1 -.5l1.7 -1.1l-.6 -.8l-1.4 .8l-1.6 .5v-.2l1.6 -.9l1.4 -.8h-2.2v-.5l1.1 .2h3.8l.6 -.5l.8 .5l-.3 .3h-3l-.5 .3l.8 1.1l.3 .5l.2 .3l1.4 -.8l1.1 -.8l.6 .5h.2l-.2 .3h-.3l-1.4 .5l-1.1 .6l.6 .5l1.3 1.1l2 .6v.2l-.6 .3l-.3 .3l-1.6 -1.1l-1.1 -1.1l-.3 -.3v1.9l-.5 .6l-.3 .5Zm-3.9 -6.3h-.2l.2 -.2l.3 -.6l.3 -1.1h.2v.6h3.3v-.6l-.2 -.8h.8l.2 .3l-.2 .5v.6h3l.3 -.6l.5 .6l.3 .2l-.6 .3l-.8 .6l-.3 -.3l.6 -.6h-6.9v.6l-.2 .5l-.6 .3Z" class="g0_7"/>
<path d="M740.9 788.2l-.5 -.9l1.6 -.2v-2.8h-1.6v-.2h1.9v-3.6l-.3 -1.1l.9 .5H747l.5 -.5l.8 .5v.3h-5.4v1.1h3.8l.3 -.5l.8 .5v.3h-4.9v1.1h3.8l.3 -.6l.8 .6v.3h-4.9v1.1h5.2l.5 -.6l.8 .6v.2H745l.6 1.1l.5 .6l.9 -.6l.8 -.8l.5 .5l.3 .3h-.5l-.9 .6l-.8 .2l.3 .3l1.4 .8l1.3 .3v.3h-.2l-.3 .3l-.8 -.3l-1.7 -1.1l-1.1 -1.1l-.8 -1.4h-1.6v2.8l2.1 -.9v.6l-1.9 .5l-1.9 .6v.5Z" class="g0_7"/>
<path d="M752.7 788.2l1.1 -.3l1.1 -.3l1.1 -.5l-1.7 -.9l-.2 .6h-.3l-.3 -.3l.6 -.8l.5 -.8H753v-.6l1.1 .3h.5l.6 -1.4l.8 .3h.3v.3H756l-.3 .3l-.3 .5h2.5l.6 -.5l.8 .5v.3h-1.7l-.2 1.3l-.6 .6l1.4 .8h.3l.2 .3l-.2 .3h-.3l-1.7 -1.1l-1.3 .8l-1.4 .3l-1.1 .2Zm2.2 -2.8l-.3 .6l1.7 .5l.2 -.5l.6 -1.1h-1.9Zm-3.8 2.8l-.9 -.3v-.3h1.4v-3l-.8 .3v.2l-.3 -.2l-.3 -.6l1.4 -.2v-2.2h-1.1l-.3 -.3h1.4v-2.2h.8l.3 .3l-.5 .5v1.4h.2l.6 -.6l.5 .6v.3h-1.3v1.9l1.1 -.3l.2 .3l-1.3 .5v3.6l-.3 .3l-.6 .2Zm3 -5H753v-.5l1.1 .3h2.4l.3 -.6l.3 -.8l.3 -.6l.8 .3v.3l-.3 .3l-.5 .5l-.3 .6h.8l.6 -.6l.8 .6v.2Zm1.1 -.5l-.3 -.3l-.6 -1.1l.3 -.3l.6 .9l.2 .2v.6Zm3.5 -1.9h-5.2l-.2 -.3h2.4v-1.1h.8l.3 .3l-.3 .2v.6h1.1l.6 -.6l.8 .6v.3Z" class="g0_7"/>
<path d="M767.2 788.2H765l-1.6 -.3l-.8 -.3l-.9 -.8l-.8 1.1l-.3 .3l-.5 -.6l.5 -.5l.9 -.6v-1.9h-1.4v-.5l1.1 .2h.3l.2 -.5l.6 .5v.3l-.3 .3v1.6l.3 .3l1.3 .5l2.5 .3l3 -.3v.3l-.3 .3v.3Zm-4.4 -1.7l1.1 -.8l.8 -.8l.6 -.8h-2.5v-.3h2.5v-1.7h-1.9l-.3 -.2h4.1l.6 -.6l.8 .6v.2h-2.5l-.3 1.4v.3h2l.5 -.6l.5 .6l.3 .3h-3.3l-.2 .5l1.9 .8l.8 .6v.5H768l-.2 -.3l-.9 -.5l-1.3 -.8l-1.1 1.1l-1.7 .8Zm-1.3 -3.8l-.6 -.6l-.8 -.5h.3l1.1 .3l.5 .5v.3l-.3 .3Zm4.6 -1.1l.6 -.8l.5 -.6l.3 -.8l.5 .3l.3 .2l-.5 .3l-.6 .8l-.8 .9Zm-1.4 0v-.3l-.5 -.8l-.8 -.6v-.2l1.3 1.1l.6 .5l-.3 .3Zm-3 -.8l-.2 -.3l-.9 -.6v-.2l1.4 .5l.3 .3v.3l-.3 .2Z" class="g0_7"/>
<path d="M756.3 789.3v0l-.9 1.3l-1.1 1.7v1.6l.3 .6l.8 .2l2 .3l1.6 .8l1.1 .8l.3 .9v.5l.2 10.1" class="g1_7"/>
<path d="M759 807l3.6 -.2l-1.7 6.5Z" class="g0_7"/>
<path d="M733.6 823.2l-.3 -.3v-.3H730v.6h-.5v-3.3l.5 .5h3l.6 -.5l.5 .5l-.3 .6v2.2Zm-3.6 -.8h3.3v-1.7H730v1.7Zm-3.3 .5l-.8 -.3v-.2H727l.3 -.3v-2.5l-.6 .3l-.3 .3l-.2 -.3l-.3 -.5l1.4 -.3v-2.2h-1.4v-.3h1.4v-1.4l-.3 -.8l.8 .3h.3l-.3 .5v1.4l.6 -.3l.5 .3l.3 .3h-1.4v1.9l.8 -.5l.3 .2l-1.1 .9v3l-.3 .2v.3l-.5 .3Zm1.4 -3.3l1.4 -.8l1.1 -1.1l.8 -1.1h.5l.3 .3l-.3 .3l.8 .5l1.1 .8l1.4 .6v.3h-.5l-.3 .2l-1.1 -.8l-1.1 -.8l-.6 -.8l-.8 .8l-1.1 1.1l-1.3 .8Zm2.2 -.5h1.6l.6 -.3l.5 .3v.3h-1.6l-1.1 .2Zm2.2 -2.5v-.5h-1.7v.5l-.2 .3l-.6 -.3l.3 -.5h-1.7v-.6l1.1 .3h.6v-.6l-.3 -.8l.8 .3h.3l-.3 .3v.8h1.7v-1.4l.5 .3h.3l-.3 .5v.6h.8l.6 -.6l.5 .6h.3l-.3 .3H733v.5l-.3 .3Z" class="g0_7"/>
<path d="M743.1 822.6l-.2 -.5l-3 .3l-2.8 .2l-.3 .6l-.2 -.3l-.3 -.8h1.4l1.1 -2.2l.5 -1.9l.8 .3l.3 .2l-.5 .3l-.9 1.6l-1.1 1.7l2 -.3l2.7 -.3l-.3 -.2l-.8 -1.4l1.9 1.6l.3 .9v.5l-.3 .3Zm-.5 -4.6l-.8 -1.7l-.3 -1.1h-1.6l-.3 -.5l1.3 .3h.3l.3 -.6l.5 .6h.3l-.5 .2l.5 1.1l1.1 1.4l.8 .6l.8 .5l-.8 .6Zm-6.9 1.1l1.1 -1.1l1.1 -1.7l.6 -1.3l.8 .5l-.5 .3l-.6 1.4l-1.1 1.1l-1.1 1.1Z" class="g0_7"/>
<path d="M750.2 823.5H750v-2h-4.1l-.3 -.2H750v-1.1h-2.5v.2l-.3 .3l-.2 -.3v-3.8l.8 .3H750v-1.1h-3l-.9 .3l-.2 -.6H750v-1.3l.8 .2l.3 .3l-.6 .3v.5H753l.5 -.5l.8 .5v.3h-3.8v1.1h2.2l.3 -.3l.8 .3v.3l-.5 .2v2.2l.2 .6l-.2 .2h-.6v-.2h-2.2v1.1h2.8l.5 -.6l.8 .6v.2h-4.1v2Zm.3 -3.6h2.2v-1.1h-2.2v1.1Zm-3 0H750v-1.1h-2.5v1.1Zm3 -1.4h2.2v-1.3h-2.2v1.3Zm-3 0H750v-1.3h-2.5v1.3Z" class="g0_7"/>
<path d="M721 851.4l-1.1 -.6v-.3l1.4 .3h.2V847h-3.8v-.6l1.1 .3h3.3l.5 -.5l.6 .5v.3h-1.1v4.1l-.3 .3l-.5 .2Zm-4.7 0l-.5 -.6v-.3l.8 .3l.3 -.3l.2 -.5l.3 -1.9H715l-.3 .3h-.3v-5l-.3 -.5l.9 .3h1.9l.2 -.3l.9 .3v.2h-1.7v1.4h.3l.5 -.5l.6 .5l-.3 .3h-1.1v1.1h.3l.5 -.6l.6 .6l-.3 .2h-1.1v1.4h.8l.6 -.5l.5 .5v.3l-.2 .3l-.3 2.1l-.3 .6l-.3 .3l-.5 .2ZM715 847.8h.8v-1.4H715v1.4Zm0 -1.6h.8v-1.1H715v1.1Zm0 -1.4h.8v-1.4H715v1.4Zm-1.1 5.7l.2 -.2l.3 -.6v-.8h.3V850l-.3 .5l-.3 .3Zm6.3 -.5v-.3h-1.1v.6h-.3l-.3 -.3v-2.5l.6 .3h1.1l.2 -.3l.6 .3l-.3 .3v1.4l.3 .5h-.3l-.3 .3Zm-1.1 -.5h1.1v-1.4h-1.1v1.4Zm-3.3 .5l-.3 -1.1v-.3l.6 .9l.2 .2l-.2 .3v.3Zm-.8 .3v-1.4h.2l.3 1.1l-.3 .3Zm1.6 -.6l-.5 -1.1h.2l.6 .6v.5Zm1.4 -3.8l.8 -.3l.5 -.8l.6 -.8h-.8l-1.1 .3l-.3 -.6h2.2v-.8h.8l.3 .3l-.6 .2v.3h1.1l.6 -.5l.8 .5v.3h-2.5l-.2 .3l1.3 .5l.6 .5l.2 .3l-.2 .3h-.3l-.8 -.8l-.8 -.6l-.6 .8l-.5 .6l-1.1 .3Z" class="g0_7"/>
<path d="M725.1 851.6V844l.5 .3h1.7l.2 -.3l.3 -.8v-.6l.8 .3v.3l-.2 .2l-.3 .6l-.6 .3h3.3l.3 -.3l.8 .3v.2l-.3 .3v6.6l-.2 .2h-.3l-.3 -.2v-.3h-5.2v.5l-.2 .3Zm.5 -.8h5.2v-2.2h-5.2v2.2Zm0 -2.4h5.2v-1.7h-5.2v1.7Zm0 -2h5.2v-1.9h-5.2v1.9Z" class="g0_7"/>
<path d="M734.9 851.6l.3 -.8v-3.3l-.3 -.5v.3l-1.1 .8l-.2 -.3l1.1 -1.1l1 -1.1l.6 -1.1l.5 .3l.3 .3l-.5 .2l-.6 .9l-.5 .5h.2l.3 .3l-.3 .3v4.3h-.2v.3Zm4.7 -.2l-1.4 -.3l.3 -.6l1.6 .3l.3 -.3v-4.3h-3.6v-.3h4.7l.5 -.6l.9 .6v.3h-2v4.9l-.2 .3l-.8 .2Zm-6 -6.3l1.1 -.6l.5 -1.1l.5 -.8l.9 .6l-.3 .2l-.8 .9l-.8 .5l-.9 .5Zm3.5 -1.7h4.1l.6 -.5l.5 .5l.3 .3h-4.1l-1.1 .3Z" class="g0_7"/>
<path d="M748.1 851.9h-.3V850h-4.1l-.3 -.5l1.4 .2h3v-1.1h-2.2l-.3 .3h-.5l.2 -.8v-2.5l-.2 -.5l.8 .2h2.2v-1H744l-.3 -.3h4.1v-1.4l.8 .3l.3 .3l-.6 .2v.6h2.8l.5 -.6l.6 .6v.3h-3.9v1h2.2l.3 -.2l.8 .2v.3l-.3 .3v3h-.5l-.3 -.3h-2.2v1.1h2.8l.8 -.5l.5 .5h.3l-.3 .3h-4.1v1.9Zm.2 -3.5h2.2V847h-2.2v1.4Zm-2.7 0h2.2V847h-2.2v1.4Zm2.7 -1.7h2.2v-1.1h-2.2v1.1Zm-2.7 0h2.2v-1.1h-2.2v1.1Z" class="g0_7"/>
<path d="M774.9 782.1v-.2h.2l.6 -.3h.3v-5.5h-1.4v-.3h.3l.8 -.2h.5l.6 -.3v6.3h.3l.5 .3h.3v.2Zm3 -.2h.2Zm-3.3 0h.3Z" class="g0_7"/>
<path d="M801.9 854.9l.3 -1.1l.6 -.8l.8 -.8l.5 -.8l.6 -.9v-1.6l-.6 -.5h-.8l-.5 .2l-.3 .3l.3 .3v.8l-.3 .3h-.3l-.3 -.3v-.8l.6 -.6l.3 -.2l.5 -.3h.8l.6 .3l.5 .5l.3 .8l-.3 .8l-.2 .6l-.6 .5l-1.1 1.1l-.5 .9l-.3 .5h2.2l.3 -.3l.2 -.2l.3 -.6v.6l-.3 .5v.8Z" class="g0_7"/>
<path d="M803.6 864.5h-.8l-.6 -.5l-.3 -.3v-.8h.9V864l.2 .2h1.1l.6 -.5v-.6l.3 -.5l-.3 -.3v-.5l-.3 -.3l-.3 -.3h-.2l-.3 -.3l-.3 .3H803v-.5h1.1l.3 -.6l.3 -.5V859l-.3 -.8l-.3 -.3h-.8l-.3 .3l-.2 .3v.8h-.6v-.8l.6 -.6l.5 -.2h.8l.6 .2l.5 .6l.3 .8l-.3 .6l-.2 .2l-.6 .6l-.5 .2h.2l.6 .3l.3 .3l.2 .3l.3 .5v1.1l-.3 .6l-.5 .2l-.6 .3Z" class="g0_7"/>
<path d="M755.2 831.7v-.3h1.1v-.3h.2v-4.9l-.2 -.3h-1.1v-.3l.8 -.2l.5 -.3h.6v5.7l.3 .3l.2 .3h.9v.3Z" class="g0_7"/>
<path d="M756.3 842.3H756l-.3 -.2l-.3 -.3l-.2 -.3v-.3l.5 -.2h.3v.8l.3 .3h.5v-.3l.6 -.6l.2 -.2v-.6l.3 -.5v-1.1l-.5 .5l-.6 .3H756l-.6 -.3l-.2 -.5l-.3 -.6v-1.3l.5 -.9l.6 -.5h.5l.3 -.3l.3 .3h.5l.6 .8l.3 1.1l.2 1.4l-.2 .8v.8l-.3 .6l-.3 .2l-.3 .6l-.5 .3l-.3 .2ZM756 836l-.3 .6v1.9l.3 .6l.5 .2l.6 -.2l.5 -.3l.3 -.3v-.8l-.3 -.8v-.6l-.2 -.3l-.3 -.2h-.8Z" class="g0_7"/>
<path d="M735.2 860.7h-3v-.3h.8l.3 -.3v-.2l.3 -.3v-4.4l-.3 -.3v-.2h-1.1v-.3h.8l.6 -.3l.5 -.3v6.3l.3 .3h1.1v.3Z" class="g0_7"/>
<path d="M733.8 870l-.8 -.3l-.5 -.3l-.3 -.8l-.3 -1.1v-1.6l.3 -1.1l.5 -.8l.6 -.6l.5 -.3h1.1l.3 .3l.3 .6l-.3 .2h-.5l-.3 -.2v-.6h-.6l-.2 .3l-.6 .3v.5l-.3 .3v.8l-.2 .8h.2l.6 -.5l.8 -.3l.6 .3l.2 .2l.6 .6v1.6l-.3 .6l-.3 .5l-.5 .3l-.3 .3Zm-.8 -3.6l-.3 .3v.3l-.2 .2l.2 .3v.8l.3 .9l.3 .2l.3 .3h.2l.3 -.3l.3 -.2l.3 -.6l.2 -.5v-.6l-.2 -.5v-.6l-.3 -.3h-.8Z" class="g0_7"/>
<path d="M775.4 791.7h-3.3l.3 -.3h.8l.3 -.2V786l-.3 -.3h-.8v-.3h.8l.6 -.3l.5 -.2v6.3l.3 .2h.8l.3 .3Zm-3.3 -6h.3Z" class="g0_7"/>
<path d="M778.4 791.7h-.8l-.5 -.3l-.3 -.5v-1.4l.5 -.5l.3 -.6h.3l-.3 -.2l-.3 -.6l-.2 -.3l-.3 -.5v-.3l.3 -.5l.2 -.6l.6 -.3l.5 -.2h.3l.5 .2l.6 .3l.3 .6v.8l-.3 .5l-.6 .6v.3h.3l.3 .5l.5 .3v1.6l-.2 .6l-.3 .2l-.6 .3Zm-.8 -2.7l-.3 .8v.8l.3 .6l.3 .2h1.3l.6 -.5v-1.4l-.6 -.5l-.5 -.3l-.6 -.3Zm0 -3.3l-.3 .3v.5l.3 .3l.3 .5l.5 .3l.3 .3h.3l.2 -.6l.3 -.5V786l-.3 -.6l-.2 -.3h-.9Z" class="g0_7"/>
</svg>