<?xml version="1.0" encoding="UTF-8" standalone="no"?>
<!DOCTYPE svg PUBLIC "-//W3C//DTD SVG 1.1//EN"
"http://www.w3.org/Graphics/SVG/1.1/DTD/svg11.dtd">
<svg viewBox="0 0 909 1286" version="1.1" xmlns="http://www.w3.org/2000/svg" xmlns:xlink="http://www.w3.org/1999/xlink">
<defs>
<clipPath id="c0_8"><path d="M-.2 1286.6v-74.9h910v74.9Z"/></clipPath>
<clipPath id="c1_8"><path d="M565.2 964.5V890.3H853.3v74.2Z"/></clipPath>
<style type="text/css"><![CDATA[
.g0_8{
fill: #000;
}
.g1_8{
fill: none;
stroke: #000;
stroke-width: 1.145;
stroke-linecap: round;
stroke-miterlimit: 8;
}
.g2_8{
fill: none;
stroke: #888;
stroke-width: 1.891;
stroke-linejoin: round;
stroke-dasharray: 8,6;
}
.g3_8{
fill: none;
stroke: #000;
stroke-width: 0.324;
stroke-linejoin: round;
}
.g4_8{
fill: #DCDDDD;
}
.g5_8{
fill: none;
stroke: #000;
stroke-width: 0.405;
stroke-linecap: round;
stroke-linejoin: round;
}
.g6_8{
fill: none;
stroke: #000;
stroke-width: 0.675;
stroke-linecap: round;
stroke-linejoin: round;
}
.g7_8{
fill: none;
stroke: #000;
stroke-width: 0.405;
stroke-linecap: round;
stroke-miterlimit: 8;
}
.g8_8{
fill: none;
stroke: #000;
stroke-width: 0.946;
stroke-linejoin: round;
}
.g9_8{
fill: none;
stroke: #000;
stroke-width: 0.405;
stroke-linejoin: round;
}
.ga_8{
fill: none;
stroke: #B5B5B6;
stroke-width: 1.351;
stroke-linejoin: round;
}
.gb_8{
fill: none;
stroke: #000;
stroke-width: 1.621;
stroke-linejoin: round;
}
.gc_8{
fill: #FFF;
}
]]></style>
</defs>
<image clip-path="url(#c0_8)" preserveAspectRatio="none" x="-4" y="1212" width="952" height="131" xlink:href="img/1.jpg"/>
<image preserveAspectRatio="none" x="511" y="520" width="346" height="38" xlink:href="img/2.jpg"/>
<path d="M138.4 385.2h36.7v-.9H138.4v.9Z" class="g0_8"/>
<path d="M137.3 409h54.8v-.9H137.3v.9Z" class="g0_8"/>
<path d="M137.3 432.9h36.5v-1H137.3v1Z" class="g0_8"/>
<path d="M138.2 456.7h36.7v-.9H138.2v.9Z" class="g0_8"/>
<image preserveAspectRatio="none" x="137" y="758" width="106" height="83" xlink:href="img/3.jpg"/>
<image preserveAspectRatio="none" x="272" y="758" width="105" height="83" xlink:href="img/4.jpg"/>
<image preserveAspectRatio="none" x="415" y="758" width="105" height="83" xlink:href="img/5.jpg"/>
<image preserveAspectRatio="none" x="550" y="757" width="105" height="84" xlink:href="img/6.jpg"/>
<path d="M110.6 910.4h36.6v-.9H110.6v.9Z" class="g0_8"/>
<image preserveAspectRatio="none" x="24" y="50" width="822" height="39" xlink:href="img/7.png"/>
<path d="M47.2 243.1H848v-102H47.2v102Z" class="g1_8"/>
<path d="M691 216.9h.7v-.8H691v.8Z" class="g0_8"/>
<path d="M691 216.9h.7v-.8H691v.8Z" class="g0_8"/>
<path d="M691.7 216.9H842.4v-.8H691.7v.8Z" class="g0_8"/>
<path d="M842.4 216.9h.8v-.8h-.8v.8Z" class="g0_8"/>
<path d="M842.4 216.9h.8v-.8h-.8v.8Z" class="g0_8"/>
<path d="M691 240.7h.7V216.9H691v23.8Z" class="g0_8"/>
<path d="M842.4 240.7h.8V216.9h-.8v23.8Z" class="g0_8"/>
<path d="M691 241.4h.7v-.7H691v.7Z" class="g0_8"/>
<path d="M691 241.4h.7v-.7H691v.7Z" class="g0_8"/>
<path d="M691.7 241.4H842.4v-.7H691.7v.7Z" class="g0_8"/>
<path d="M842.4 241.4h.8v-.7h-.8v.7Z" class="g0_8"/>
<path d="M842.4 241.4h.8v-.7h-.8v.7Z" class="g0_8"/>
<path d="M782.1 363.9H510.5M782.1 323H510.5m271.6 15.5H510.5" class="g2_8"/>
<path d="M557.3 351.6l2.4 1.5m-4.4 -1.2l2 1.6m-4.8 -1.3l2.2 1.6m-4.4 -1.4l2.1 1.6m-4.3 -1.2l2.2 1.5m-4.5 -1.2l2.2 1.6m-4.5 -1.3l2.3 1.6m-4.5 -1.2l2.2 1.5M539 354l2.1 1.4m-4.8 -1.1l2.9 1.6m-4.9 -1.2l2.6 1.6M532.1 355l2.2 1.3m-4.5 -1l2.1 1.9m-4.6 -1.5l2.3 1.6m-4.5 -1.4l2.3 1.9m-4.6 -1.5l2.3 1.8m-4.7 -1.5l2.4 1.6m-5 -1.6l2.3 1.6m-4.6 -1l2.6 1.6m-4.7 -1.5l1.9 1.7m-4.5 -1.4l1.9 1.6" class="g3_8"/>
<path d="M510.5 382v-1.4h.3l19.5 -1.8l19.3 -.7l19.2 -1.9l19.6 -2.8l19.1 -2.9l19.6 -4.4l19.2 -6l19.6 -5.6L685.1 348l19.6 -10l19.2 -15.7L743.3 306l19.4 -15.6l19.4 -14.9V278l-17.8 13.9l-19.5 15.6l-19.3 16.2l-19.7 16.2l-20.7 10.4l-19.2 6.6l-19.6 5.8l-19.2 5.9l-19.6 4.2l-19.1 2.9l-19.6 2.8l-19.2 1.9l-19.3 .7l-19.5 2.1Z" class="g4_8"/>
<path d="M510.8 380.6l19.5 -1.8l19.3 -.7l19.2 -1.9l19.6 -2.8l19.1 -2.9l19.6 -4.4l19.2 -6l19.6 -5.6L685.1 348l19.6 -10l19.2 -15.7L743.3 306l19.4 -15.6l19.4 -14.9V278l-17.8 13.9l-19.5 15.6l-19.3 16.2l-19.7 16.2l-20.7 10.4l-19.2 6.6l-19.6 5.8l-19.2 5.9l-19.6 4.2l-19.1 2.9l-19.6 2.8l-19.2 1.9l-19.3 .7l-19.5 2.1l-.3 -1.2v-1.4h.3Z" class="g5_8"/>
<path d="M515.7 255.2h-5.2v136H782.1v-136H515.7Z" class="g6_8"/>
<path d="M788.8 307.5h54.3V255.2H788.8v52.3Z" class="g7_8"/>
<path d="M791.9 289.1h11.7m-11.7 -2.7h11.7" class="g8_8"/>
<path d="M800.9 286.4l2.4 2.7m-7 -2.7l2.6 2.7M792 286.4l2.7 2.7" class="g9_8"/>
<path d="M791.9 262.5h11.7" class="ga_8"/>
<path d="M791.9 299.4h11.7v2.4H791.9v-2.4Z" class="g4_8"/>
<path d="M791.9 301.8h11.7m-11.7 -2.4h11.7" class="g9_8"/>
<path d="M791.9 274.9h11.7M510.8 352.8l19.5 -2.9L550 346.5l18.8 -1.4L588.4 338l19.1 -4.9l19.6 -5l19.2 -4.7l19.6 -1.6l19.2 -3.3l19.6 -5.9L723.9 306l19.4 -10.8l19.4 -6l19.4 -5.1" class="gb_8"/>
<path d="M510.5 346.8l19.8 -1.7l19.3 -1.2l19.2 2.3l19.6 -3.5l20 -3.8l18.7 -2L646.3 335l19.6 -.8l19.2 -7l20 -7.3l18.8 -5l19.4 -6.1l19.4 -5.4l19.4 -3.2" class="ga_8"/>
<path d="M502.1 258.7v-1.9h-2.8v-.5l3 -4.7h.5v4.5h1v.7h-1v1.9Zm-2.4 -2.6h2.4v-3.3Z" class="g0_8"/>
<path d="M506.1 258.7l-.4 -.3l-.9 -.6l-.1 -1.2l-.3 -1.3v-1l.4 -1l.3 -.8l.6 -.4l.4 -.3l.5 -.2l.7 .2l.7 .7l.5 1.2l.1 1.5v1.1l-.1 .9l-.5 .8l-.5 .4l-.5 .3l-.4 .1Zm0 -6.3l-.4 .4v.9l-.3 1.6l.3 1.5l.1 1l.3 .6h.5l.4 -.2l.5 -.7l.2 -1.2v-1.4l-.2 -1.9l-.5 -.6l-.4 -.3h-.3Z" class="g0_8"/>
<path d="M500.7 292.3h-1l-.3 -.4l.3 -.2h.6l.4 .2h.2l.4 .2l.6 -.2l.4 -.2l.3 -.6v-.4l-.3 -.7l-.2 -.5l-.5 -.4l-.7 -.3h-.2l.6 -.2l.8 -.7v-1.2l-.2 -.4l-.3 -.3h-.4l-.8 .3l-.7 .6v-.2l.3 -.4l.4 -.6l.5 -.1l.4 -.3l.8 .3l.5 .1l.2 .6l.3 .4l-.3 .6l-.7 1l.5 .3l.5 .5l.1 .4V291l-.4 .7l-.9 .6Z" class="g0_8"/>
<path d="M506.6 292.3h-.5l-.4 -.2l-.9 -.7l-.1 -1.2l-.3 -1.1v-1.2l.4 -1l.3 -.6l.6 -.6l.4 -.1l.5 -.3l.7 .3l.7 .7l.5 1l.1 1.5V290l-.1 1l-.5 .7l-.5 .4l-.5 .2Zm-.5 -6.3l-.4 .4v.9l-.3 1.8l.3 1.3l.1 1l.3 .5l.5 .2l.4 -.2l.5 -.8l.2 -1.1v-1.4l-.2 -1.9l-.5 -1h-.7Z" class="g0_8"/>
<path d="M499.3 326.2V326l1.6 -1.4l1 -1.2l.4 -1l.3 -.9l-.3 -.7l-.2 -.4l-.5 -.2l-.4 -.3l-.5 .3l-.4 .2l-.3 .2l-.3 .5h-.3l.3 -.7l.6 -.8l.4 -.1l.6 -.3l.8 .3l.7 .1l.4 .8v.7l-.1 .9l-.5 1l-.7 .9l-1.5 1.7h1.7l.7 -.3h.4l.3 -.4h.3l-.6 1.3Z" class="g0_8"/>
<path d="M506.6 326.2h-.5l-.4 -.2l-.9 -.7l-.1 -1.2l-.3 -1.1v-1.2l.4 -1l.3 -.6l.6 -.6l.4 -.1l.5 -.3l.7 .3l.7 .7l.5 1.2l.1 1.3v1.2l-.1 1l-.5 .7l-.5 .4l-.5 .2Zm-.5 -6.3l-.4 .5v1l-.3 1.6l.3 1.3l.1 1l.3 .5l.5 .2l.4 -.2l.5 -.8l.2 -1.1v-1.5l-.2 -1.8l-.5 -1h-.7Z" class="g0_8"/>
<path d="M500.4 341.4v-.3h.8v-.3l.1 -.7v-3.7l-.1 -1v-.3h-.9l1.6 -.9h.2v6.6l.2 .3h.5v.3Z" class="g0_8"/>
<path d="M507 341.4v-1.9h-2.8v-.7l3.1 -4.6h.4v4.6h.9v.7h-.9v1.9Zm-2.3 -2.6H507v-3.4Z" class="g0_8"/>
<path d="M500.4 358.8v-.3l.8 -.3l.1 -.9v-3.5l-.1 -1v-.2l-.3 -.2l-.5 .2l-.1 -.2l1.6 -.8h.2v6.5l.2 .1l.5 .3v.3Z" class="g0_8"/>
<path d="M506.6 358.8h-.5l-.4 -.3l-.9 -.9l-.1 -1l-.3 -1.3v-1l.4 -.9l.3 -1l.6 -.5l.4 -.3h.5l.7 .3l.7 .5l.5 1.1l.1 1.8v.9l-.1 1l-.5 .6l-.5 .4l-.5 .6Zm-.3 -6.6l-.2 .2l-.4 .4v.7l-.3 1.9l.3 1.2l.1 1.2l.3 .4l.5 .3l.4 -.3l.5 -.9l.2 -1V355l-.2 -2.2l-.5 -.6l-.4 -.3Z" class="g0_8"/>
<path d="M505.7 367.3l2 -6.2h-2.6l-.4 .5l-.3 .1h-.2l.6 -1.6h3.7v.3l-2.2 6.9Z" class="g0_8"/>
<path d="M516.6 355.9h-6.1M516.6 323h-6.1m6.1 -33.8h-6.1m241.4 102v-3.3m-7.7 3.3v-3.3m3.6 3.3v-3.3m27.3 3.3v-3.3m-3.8 3.3v-3.3m-3.9 3.3v-3.3m-3.8 3.3v-3.3m-4 3.3v-3.3m19.6 3.3v-3.3m-23.3 3.3v-3.3m-43.1 3.3v-3.3m-7.7 3.3v-3.3m4.1 3.3v-3.3m27.1 3.3v-3.3m-3.9 3.3v-3.3m-3.8 3.3v-3.3m-4 3.3v-3.3m-3.7 3.3v-3.3m19.2 3.3v-3.3m-23.2 3.3v-3.3m27.3 3.1v-5.2M674 391.2v-3.3m-3.9 3.3v-3.3m27.3 3.3v-3.3m-3.8 3.3v-3.3m-4 3.3v-3.3m-3.8 3.3v-3.3m-3.9 3.3v-3.3m19.4 3.3v-3.3m-23.5 3.3v-3.3m27.3 3.1v-5.2m-70 5.4v-3.3m-7.8 3.3v-3.3m4 3.3v-3.3m27.3 3.3v-3.3m-4 3.3v-3.3m-3.8 3.3v-3.3m-3.9 3.3v-3.3m-4.1 3.3v-3.3m19.6 3.3v-3.3M639 391.2v-3.3m27.3 3.1v-5.2m-70 5.4v-3.3m-7.8 3.3v-3.3m3.8 3.3v-3.3m27.3 3.3v-3.3m-4.1 3.3v-3.3m-3.6 3.3v-3.3m-4.1 3.3v-3.3m-3.8 3.3v-3.3m19.6 3.3v-3.3m-23.5 3.3v-3.3m27.2 3.1v-5.2m-70 5.4v-3.3m-7.7 3.3v-3.3m3.9 3.3v-3.3m27 3.3v-3.3m-3.6 3.3v-3.3m-4.1 3.3v-3.3m-3.8 3.3v-3.3m-3.9 3.3v-3.3m19.5 3.3v-3.3m-23.3 3.3v-3.3m27.2 3.1v-5.2m-70 5.4v-3.3m-8 3.3v-3.3m4.1 3.3v-3.3m27.1 3.3v-3.3m-3.9 3.3v-3.3m-3.8 3.3v-3.3m-4 3.3v-3.3m-3.7 3.3v-3.3m19.2 3.3v-3.3m-23.2 3.3v-3.3m27.3 3.1v-5.2" class="g9_8"/>
<path d="M510.5 357.6l19.3 -2.2l19.5 -2.8l19.1 -2.3l19 -1.9l8.7 -.4l6.9 -.3h4.8l4.2 .4l5.4 .3l11.4 .2h13.3l4.8 -.2l5.4 -.3l5.8 -.7l6.3 -.9l21 -6.4l18.8 -7l20 -6.9l18.2 -4.8l20.8 -3.1l18.9 -.7v1.6l-18.8 .7l-20.4 3.2l-18.5 5.3l-20 6.6l-18.3 7L665 348.6l-6.4 1l-6.2 .4l-5.4 .5l-4.9 .2H628.5l-5.4 -.2l-6.1 -.2l-9.9 -.7h-4.7l-6.7 .3l-8.3 .6l-19.3 1.7L549 354.5l-19.4 2.8l-19.1 2.4Z" class="gc_8"/>
<path d="M782.1 319.2l-18.8 .7l-20.4 3.2l-18.5 5.3l-20 6.6l-18.3 7L665 348.6l-6.4 1l-6.2 .4l-5.4 .5l-4.9 .2H628.5l-5.4 -.2l-6.1 -.2l-9.9 -.7h-4.7l-6.7 .3l-8.3 .6l-19.3 1.7L549 354.5l-19.4 2.8l-19.1 2.4v-2.1l19.3 -2.2l19.5 -2.8l19.1 -2.3l19 -1.9l8.7 -.4l6.9 -.3h4.8l4.2 .4l5.4 .3l11.4 .2h13.3l4.8 -.2l5.4 -.3l5.8 -.7l6.3 -.9l21 -6.4l18.8 -7l20 -6.9l18.2 -4.8l20.8 -3.1l18.9 -.7" class="g9_8"/>
<path d="M665 346.2l2.3 1.5m-4.5 -.9l2.2 1.8m-4.3 -1.4l2.1 1.7m-4.4 -1.5l2.3 1.9M781 317.6l1.1 .7m-3.2 -.7l1.9 1.6m-4.1 -1.6l1.9 1.6m-3.9 -1.5l1.6 1.8m-4 -1.8l1.7 1.8M770.2 318l1.7 1.6m-3.8 -1.3l1.6 1.3m-3.8 -1.3l1.8 1.6m-4.1 -1.6l1.9 1.6m-4 -1.4l2.1 1.4m-4.2 -1l2.1 1.5m-4.2 -1.2l2.1 1.4m-4.3 -1.1l2.2 1.3m-4.5 -.9l2.2 1.2m-4.4 -.9l1.9 1.3m-3.9 -.9l1.9 1.4m-4 -1.2l2.1 1.5m-4.4 -1.2l2.3 1.3m-4.8 -.9l1.9 1.5m-3.9 -.7l1.9 1.1m-4.1 -.7l2.2 1.2m-4.3 -.5l2.1 1.2m-4.2 -.7l2.1 1.1m-4.5 -.7l2.9 1.5M729 325l2.5 1.2m-4.8 -.6l2.3 1.3m-4.6 -.7l2.6 1.5m-4.5 -.8l2.3 1.2m-4.4 -.4l2.3 1.1m-4.5 -.4l1.5 .4m-3.5 .3l1.3 .5m-3.2 .1l1.3 .6m-3.5 .2l1.5 .5m-3.8 .2l3 1m-4.9 -.3l2.6 .9m-4.7 -.5l2.6 1m-4.6 -.2l2.3 1m-4.2 0l2 .9m-4.2 -.3l2.2 1m-4.4 -.3l2.2 1m-4.2 0l2 .9m-4.4 -.3l2.4 1m-4.4 -.2l2.5 1.1m-4.7 -.1l2.3 1.1m-4.2 -.4l2.3 .9m-4.2 -.3l2.4 1.3m-4.7 -.6l2.6 1.2m-5 -.5l2.8 1.2m-4.8 -.4l2.2 1.1m-4.7 -.4l2.6 1.2m-4.9 -.6l2.6 1.3m-4.5 -.6l2.6 1.5m-4.7 -.7l2.1 1.4m-4.4 -.7l2.3 1.4m-13.4 .5l2.8 1.9M654.2 348l2 1.9M651.6 348l2.3 1.9m-5 -1.8L652 350m-5.4 -1.6l2.8 1.9m-5.1 -1.7l2.6 1.7m-5 -1.7l2.4 1.9m-4.7 -1.6l2.3 1.8m-4.5 -1.8l2.2 1.8m-4.8 -2.1l2.6 2.1m-4.9 -2.1l2.3 2.1m-4.7 -2.1l2.4 2.1m-4.7 -2.1l2.3 2.1m-4.7 -2.1l2.1 2.1m-4.4 -2.1l2.1 1.9m-4.4 -1.9l2.3 1.9m-4.9 -2.1l1.6 1.9m-4 -2.2l1.6 1.9m-3.6 -1.9l1.6 1.9m-4.1 -2l1.5 2m-4 -2.3l1.9 2.2m-4.2 -2.2l1.9 2.2m-4.1 -2.2l1.6 1.9m-4.2 -1.9l2.2 1.9M599.3 348l2.4 1.6M597.3 348l2.3 1.6M594.8 348l2.5 1.6m-5 -1.5l2.4 1.8M590 348.1l2.1 1.9m-4.4 -1.6l2.3 1.9m-5 -1.7l2.4 1.9M583 348.9l2 1.8M580.8 349l2.2 1.9m-4.5 -1.6l2 1.6m-4.6 -1.3l2.1 1.6m-4 -1.3l1.9 1.6M571.6 350l2.4 1.6M569 350l2.5 1.9m-5 -1.4l2.3 1.7m-4.5 -1.5l2.2 1.5M562 350.9l2.3 1.7m-4.6 -1.1l2.3 1.3" class="g3_8"/>
<image preserveAspectRatio="none" x="43" y="530" width="57" height="56" xlink:href="img/8.jpg"/>
<image preserveAspectRatio="none" x="651" y="678" width="211" height="105" xlink:href="img/9.jpg"/>
<image preserveAspectRatio="none" x="43" y="697" width="57" height="56" xlink:href="img/10.jpg"/>
<image clip-path="url(#c1_8)" preserveAspectRatio="none" x="566" y="891" width="287" height="73" xlink:href="img/11.jpg"/>
<image preserveAspectRatio="none" x="43" y="910" width="57" height="56" xlink:href="img/12.jpg"/>
<image preserveAspectRatio="none" x="586" y="1034" width="267" height="116" xlink:href="img/13.jpg"/>
<image preserveAspectRatio="none" x="43" y="1053" width="57" height="56" xlink:href="img/14.jpg"/>
</svg>