<?xml version="1.0" encoding="UTF-8" standalone="no"?>
<!DOCTYPE svg PUBLIC "-//W3C//DTD SVG 1.1//EN"
"http://www.w3.org/Graphics/SVG/1.1/DTD/svg11.dtd">
<svg viewBox="0 0 909 1286" version="1.1" xmlns="http://www.w3.org/2000/svg" xmlns:xlink="http://www.w3.org/1999/xlink">
<defs>
<clipPath id="c0_6"><path d="M-.2 1286.6v-75.1h910v75.1Z"/></clipPath>
<style type="text/css"><![CDATA[
.g0_6{
fill: #CFC;
}
.g1_6{
fill: #70AD47;
}
.g2_6{
fill: #6C3;
}
]]></style>
</defs>
<image clip-path="url(#c0_6)" preserveAspectRatio="none" x="-2" y="1212" width="930" height="127" xlink:href="img/1.jpg"/>
<path fill-rule="evenodd" d="M57.4 126.5H166.7v-55H57.4v55Z" class="g0_6"/>
<path d="M65.3 99h93.5V71.5H65.3V99Z" class="g0_6"/>
<path d="M56.7 71.5h.7v-.7h-.7v.7Z" class="g1_6"/>
<path d="M56.7 71.5h.7v-.7h-.7v.7Z" class="g1_6"/>
<path d="M57.4 71.5H166.7v-.7H57.4v.7Z" class="g1_6"/>
<path d="M166.7 71.5h.7v-.7h-.7v.7Z" class="g1_6"/>
<path d="M167.4 71.5H861.9v-.7H167.4v.7Z" class="g1_6"/>
<path d="M861.9 71.5h.7v-.7h-.7v.7Z" class="g1_6"/>
<path d="M861.9 71.5h.7v-.7h-.7v.7Z" class="g1_6"/>
<path d="M56.7 126.5h.7v-55h-.7v55Z" class="g1_6"/>
<path d="M166.7 126.5h.7v-55h-.7v55Z" class="g1_6"/>
<path d="M861.9 126.5h.7v-55h-.7v55Z" class="g1_6"/>
<path fill-rule="evenodd" d="M57.4 154.9H166.7V127.4H57.4v27.5Z" class="g0_6"/>
<path d="M65.3 154.9h93.5V127.4H65.3v27.5Z" class="g0_6"/>
<path d="M56.7 127.2h.7v-.7h-.7v.7Z" class="g1_6"/>
<path d="M57.4 127.2H166.7v-.7H57.4v.7Z" class="g1_6"/>
<path d="M166.7 127.2h.7v-.7h-.7v.7Z" class="g1_6"/>
<path d="M167.4 127.2H861.9v-.7H167.4v.7Z" class="g1_6"/>
<path d="M861.9 127.2h.7v-.7h-.7v.7Z" class="g1_6"/>
<path d="M56.7 154.9h.7V127.2h-.7v27.7Z" class="g1_6"/>
<path d="M56.7 155.7h.7v-.8h-.7v.8Z" class="g1_6"/>
<path d="M56.7 155.7h.7v-.8h-.7v.8Z" class="g1_6"/>
<path d="M57.4 155.7H166.7v-.8H57.4v.8Z" class="g1_6"/>
<path d="M166.7 154.9h.7V127.2h-.7v27.7Z" class="g1_6"/>
<path d="M166.7 155.7h.7v-.8h-.7v.8Z" class="g1_6"/>
<path d="M167.4 155.7H861.9v-.8H167.4v.8Z" class="g1_6"/>
<path d="M861.9 154.9h.7V127.2h-.7v27.7Z" class="g1_6"/>
<path d="M861.9 155.7h.7v-.8h-.7v.8Z" class="g1_6"/>
<path d="M861.9 155.7h.7v-.8h-.7v.8Z" class="g1_6"/>
<path d="M543.9 95.7l-.9 -.1l-.7 -.2l-.8 -.4l-.6 -.6l-.4 -.3l-.2 -.3l-.4 -.7l-.2 -.9l-.1 -.8V78.8l.1 -.9l.2 -.8l.4 -.8l.6 -.6l.6 -.6l.8 -.4l.7 -.2l.9 -.1h12.6l.8 .1l.4 .1l.4 .1l.7 .4l.3 .2l.4 .4l.5 .6l.4 .8l.3 .8l.1 .9V91.4l-.1 .4v.4l-.3 .9l-.2 .3l-.1 .1l-.1 .3l-.3 .3l-.1 .1l-.1 .1v.1l-.4 .3l-.3 .3l-.2 .1l-.2 .1l-.3 .2l-.4 .1h-.1l-.1 .1h-.6v.1h-.4Z" class="g2_6"/>
<path d="M543.9 124.4H543l-.7 -.3l-.8 -.4l-.6 -.5l-.4 -.4l-.2 -.3l-.4 -.7l-.2 -.8l-.1 -.9V107.5l.1 -.9l.2 -.8l.4 -.7l.6 -.7l.6 -.6l.8 -.3l.7 -.3h14.3l.4 .1l.4 .2l.7 .3l.3 .3l.4 .3l.5 .7l.4 .7l.3 .8l.1 .9v12.6l-.1 .4v.5l-.3 .8l-.2 .3l-.1 .2l-.1 .2l-.3 .3l-.1 .2h-.1v.2l-.4 .2l-.3 .3l-.2 .1l-.2 .1l-.3 .2l-.4 .1h-.1l-.1 .1l-.2 .1h-.8Z" class="g2_6"/>
<path d="M543.4 151.5l-.9 -.1l-.8 -.2l-.7 -.5l-.7 -.5l-.3 -.4l-.2 -.3l-.4 -.7l-.3 -.8V133.6l.3 -.7l.4 -.8l.5 -.7l.7 -.5l.7 -.4l.8 -.2l.9 -.1h12.5l.9 .1h.3l.4 .2l.7 .4l.4 .2l.3 .3l.6 .7l.4 .8l.2 .7l.1 .9v13.1h-.1v.4l-.2 .8l-.2 .3l-.1 .2l-.1 .2l-.3 .3l-.2 .2v.1h-.1v.1l-.3 .3l-.4 .2l-.2 .1l-.1 .1l-.4 .3l-.4 .1h-.2l-.1 .1h-.5l-.4 .1Z" class="g2_6"/>
<image preserveAspectRatio="none" x="27" y="190" width="822" height="39" xlink:href="img/2.png"/>
<path d="M49.7 293.2l-.9 -.1l-.8 -.2l-.7 -.5l-.7 -.5l-.3 -.4l-.2 -.3l-.4 -.7l-.3 -.8V275.3l.3 -.7l.4 -.8l.5 -.7l.7 -.5l.7 -.4l.8 -.2l.9 -.1H62.2l.9 .1h.3l.4 .2l.7 .4l.4 .2l.3 .3l.6 .7l.4 .8l.2 .7l.1 .9v13.1h-.1v.4l-.2 .8l-.2 .3l-.1 .2l-.1 .2l-.3 .3l-.2 .2v.1h-.1v.1l-.3 .3l-.4 .2l-.2 .1l-.1 .1l-.4 .3l-.4 .1h-.2l-.1 .1h-.5l-.4 .1Z" class="g2_6"/>
<path d="M169.1 361.1l-.9 -.1l-.8 -.2l-.7 -.4l-.7 -.6l-.3 -.3l-.3 -.4l-.3 -.7l-.3 -.8V343.3l.3 -.8l.3 -.8l.6 -.7l.7 -.5l.7 -.4l.8 -.2l.9 -.1h12.5l.9 .1h.3l.4 .2l.7 .4l.4 .2l.3 .3l.6 .7l.4 .8l.2 .8l.1 .9v13h-.1v.4l-.2 .8l-.2 .4l-.1 .1l-.1 .2l-.3 .4l-.2 .1v.1h-.1v.1l-.3 .3l-.4 .3h-.2l-.1 .2l-.4 .2l-.4 .1h-.2l-.1 .1H182l-.4 .1Z" class="g2_6"/>
<path d="M168.1 409.1h-.9l-.8 -.3l-.7 -.4l-.7 -.5l-.3 -.4l-.2 -.3l-.4 -.7l-.3 -.8V391.3l.3 -.8l.4 -.7l.5 -.7l.7 -.6l.7 -.3l.8 -.3h14.3l.3 .1l.4 .2l.7 .3l.4 .3l.3 .3l.6 .7l.4 .7l.2 .8l.1 .9v13l-.1 .1v.4l-.2 .8l-.2 .3l-.1 .2l-.1 .2l-.3 .3l-.2 .2h-.1v.2l-.3 .2l-.4 .3l-.2 .1l-.1 .1l-.4 .2l-.4 .1h-.1l-.1 .1l-.1 .1h-.9Z" class="g2_6"/>
<path d="M76.9 509.8l-.9 -.1l-.8 -.2l-.7 -.4l-.7 -.5l-.3 -.4l-.3 -.3l-.3 -.7l-.3 -.9V492l.3 -.8l.3 -.8l.6 -.6l.7 -.6l.7 -.4l.8 -.2H90.3l.3 .1l.4 .1l.7 .4l.4 .3l.3 .3l.6 .6l.4 .8l.2 .8l.1 .9v13l-.1 .1v.3l-.2 .9l-.2 .3l-.1 .2l-.1 .2l-.3 .3l-.2 .1v.1h-.1v.2l-.3 .2l-.4 .3l-.2 .1l-.1 .1l-.4 .2l-.4 .1h-.1l-.1 .1h-.5l-.1 .1h-.4Z" class="g2_6"/>
<path d="M76.9 559.4l-.9 -.1l-.8 -.2l-.7 -.4l-.7 -.6l-.3 -.3l-.3 -.4l-.3 -.7l-.3 -.8V541.6l.3 -.8l.3 -.8l.6 -.6l.7 -.6l.7 -.4l.8 -.2l.9 -.1H89.4l.9 .1l.3 .1l.4 .1l.7 .4l.4 .2l.3 .4l.6 .6l.4 .8l.2 .8l.1 .9v13l-.1 .1v.3l-.2 .8l-.2 .4l-.1 .1l-.1 .2l-.3 .4l-.2 .1v.1h-.1v.1l-.3 .3l-.4 .3h-.2l-.1 .2l-.4 .2l-.4 .1h-.2l-.1 .1h-.4l-.1 .1h-.4Z" class="g2_6"/>
</svg>