<?xml version="1.0" encoding="UTF-8" standalone="no"?>
<!DOCTYPE svg PUBLIC "-//W3C//DTD SVG 1.1//EN"
"http://www.w3.org/Graphics/SVG/1.1/DTD/svg11.dtd">
<svg viewBox="0 0 909 1286" version="1.1" xmlns="http://www.w3.org/2000/svg" xmlns:xlink="http://www.w3.org/1999/xlink">
<defs>
<clipPath id="c0_1"><path d="M-.2 1286.6v-75.1h910v75.1Z"/></clipPath>
<clipPath id="c1_1"><path d="M.1 152.6V0H909.8V152.6Z"/></clipPath>
<clipPath id="c2_1"><path d="M23 203.8V154.1H909.8v49.7Z"/></clipPath>
<clipPath id="c3_1"><path d="M661.4 645.5V605.4H841.3v40.1Z"/></clipPath>
<style type="text/css"><![CDATA[
.g0_1{
fill: #000;
}
.g1_1{
fill: none;
stroke: #000;
stroke-width: 1.099;
stroke-linecap: square;
stroke-miterlimit: 10;
}
.g2_1{
fill: none;
stroke: #000;
stroke-width: 0.152;
stroke-linecap: square;
stroke-miterlimit: 10;
}
]]></style>
</defs>
<image clip-path="url(#c0_1)" preserveAspectRatio="none" x="-2" y="1212" width="930" height="127" xlink:href="img/1.jpg"/>
<path d="M147.2 450.2h91.7v-.9H147.2v.9Z" class="g0_1"/>
<path d="M367.2 450.2h55v-.9h-55v.9Z" class="g0_1"/>
<path d="M235.9 474h55v-.9h-55v.9Z" class="g0_1"/>
<path d="M163 622.9H131.9m113.6 0H213.4m87.1 0h-32" class="g1_1"/>
<path d="M109.9 1130.9h36.7v-.9H109.9v.9Z" class="g0_1"/>
<path d="M140 1180.7h18.3m22.9 0h18.4m97.7 0h18.3m22.9 0h18.4m97.8 0H473m20.6 0h44.9m57.5 0h44.8m20.7 0h18.3" class="g1_1"/>
<image clip-path="url(#c1_1)" preserveAspectRatio="none" x="0" y="0" width="915" height="152" xlink:href="img/2.jpg"/>
<image clip-path="url(#c2_1)" preserveAspectRatio="none" x="23" y="154" width="1038" height="49" xlink:href="img/3.png"/>
<image preserveAspectRatio="none" x="43" y="449" width="57" height="56" xlink:href="img/4.jpg"/>
<image preserveAspectRatio="none" x="671" y="424" width="124" height="137" xlink:href="img/5.jpg"/>
<image clip-path="url(#c3_1)" preserveAspectRatio="none" x="662" y="606" width="179" height="39" xlink:href="img/6.jpg"/>
<image preserveAspectRatio="none" x="43" y="613" width="57" height="56" xlink:href="img/7.jpg"/>
<image preserveAspectRatio="none" x="43" y="767" width="57" height="57" xlink:href="img/8.jpg"/>
<path d="M679.7 904.8h.7v.7h-.7v-.7Z" class="g0_1"/>
<path d="M679.7 904.8h.7m-.7 0v.7" class="g2_1"/>
<path d="M679.7 904.8h.7v.7h-.7v-.7Z" class="g0_1"/>
<path d="M679.7 904.8h.7m-.7 0v.7" class="g2_1"/>
<path d="M680.4 904.8H746v.7H680.4v-.7Z" class="g0_1"/>
<path d="M680.4 904.8H746" class="g2_1"/>
<path d="M746 904.8h.8v.7H746v-.7Z" class="g0_1"/>
<path d="M746 904.8h.8m-.8 0v.7" class="g2_1"/>
<path d="M746.8 904.8h85.3v.7H746.8v-.7Z" class="g0_1"/>
<path d="M746.8 904.8h85.3" class="g2_1"/>
<path d="M832.1 904.8h.7v.7h-.7v-.7Z" class="g0_1"/>
<path d="M832.1 904.8h.7m-.7 0v.7" class="g2_1"/>
<path d="M832.1 904.8h.7v.7h-.7v-.7Z" class="g0_1"/>
<path d="M832.1 904.8h.7m-.7 0v.7" class="g2_1"/>
<path d="M679.7 905.5h.7v27.4h-.7V905.5Z" class="g0_1"/>
<path d="M679.7 905.5v27.4" class="g2_1"/>
<path d="M746 905.5h.8v27.4H746V905.5Z" class="g0_1"/>
<path d="M746 905.5v27.4" class="g2_1"/>
<path d="M832.1 905.5h.7v27.4h-.7V905.5Z" class="g0_1"/>
<path d="M832.1 905.5v27.4" class="g2_1"/>
<path d="M679.7 932.9h.7v.7h-.7v-.7Z" class="g0_1"/>
<path d="M679.7 932.9h.7m-.7 0v.7" class="g2_1"/>
<path d="M680.4 932.9H746v.7H680.4v-.7Z" class="g0_1"/>
<path d="M680.4 932.9H746" class="g2_1"/>
<path d="M746 932.9h.8v.7H746v-.7Z" class="g0_1"/>
<path d="M746 932.9h.8m-.8 0v.7" class="g2_1"/>
<path d="M746.8 932.9h85.3v.7H746.8v-.7Z" class="g0_1"/>
<path d="M746.8 932.9h85.3" class="g2_1"/>
<path d="M832.1 932.9h.7v.7h-.7v-.7Z" class="g0_1"/>
<path d="M832.1 932.9h.7m-.7 0v.7" class="g2_1"/>
<path d="M679.7 933.6h.7v27.5h-.7V933.6Z" class="g0_1"/>
<path d="M679.7 933.6v27.5" class="g2_1"/>
<path d="M746 933.6h.8v27.5H746V933.6Z" class="g0_1"/>
<path d="M746 933.6v27.5" class="g2_1"/>
<path d="M832.1 933.6h.7v27.5h-.7V933.6Z" class="g0_1"/>
<path d="M832.1 933.6v27.5" class="g2_1"/>
<path d="M679.7 961.1h.7v.7h-.7v-.7Z" class="g0_1"/>
<path d="M679.7 961.1h.7m-.7 0v.7" class="g2_1"/>
<path d="M680.4 961.1H746v.7H680.4v-.7Z" class="g0_1"/>
<path d="M680.4 961.1H746" class="g2_1"/>
<path d="M746 961.1h.8v.7H746v-.7Z" class="g0_1"/>
<path d="M746 961.1h.8m-.8 0v.7" class="g2_1"/>
<path d="M746.8 961.1h85.3v.7H746.8v-.7Z" class="g0_1"/>
<path d="M746.8 961.1h85.3" class="g2_1"/>
<path d="M832.1 961.1h.7v.7h-.7v-.7Z" class="g0_1"/>
<path d="M832.1 961.1h.7m-.7 0v.7" class="g2_1"/>
<path d="M679.7 961.8h.7v27.6h-.7V961.8Z" class="g0_1"/>
<path d="M679.7 961.8v27.6" class="g2_1"/>
<path d="M746.1 961.8h.7v27.6h-.7V961.8Z" class="g0_1"/>
<path d="M746.1 961.8v27.6" class="g2_1"/>
<path d="M832.1 961.8h.7v27.6h-.7V961.8Z" class="g0_1"/>
<path d="M832.1 961.8v27.6" class="g2_1"/>
<path d="M679.7 989.4h.7v.7h-.7v-.7Z" class="g0_1"/>
<path d="M679.7 989.4h.7m-.7 0v.7" class="g2_1"/>
<path d="M680.4 989.4h65.7v.7H680.4v-.7Z" class="g0_1"/>
<path d="M680.4 989.4h65.7" class="g2_1"/>
<path d="M746.1 989.4h.7v.7h-.7v-.7Z" class="g0_1"/>
<path d="M746.1 989.4h.7m-.7 0v.7" class="g2_1"/>
<path d="M746.8 989.4h85.3v.7H746.8v-.7Z" class="g0_1"/>
<path d="M746.8 989.4h85.3" class="g2_1"/>
<path d="M832.1 989.4h.7v.7h-.7v-.7Z" class="g0_1"/>
<path d="M832.1 989.4h.7m-.7 0v.7" class="g2_1"/>
<path d="M679.7 990.1h.7v27.4h-.7V990.1Z" class="g0_1"/>
<path d="M679.7 990.1v27.4" class="g2_1"/>
<path d="M679.7 1017.5h.7v.7h-.7v-.7Z" class="g0_1"/>
<path d="M679.7 1017.5h.7m-.7 0v.7" class="g2_1"/>
<path d="M679.7 1017.5h.7v.7h-.7v-.7Z" class="g0_1"/>
<path d="M679.7 1017.5h.7m-.7 0v.7" class="g2_1"/>
<path d="M680.4 1017.5h65.7v.7H680.4v-.7Z" class="g0_1"/>
<path d="M680.4 1017.5h65.7" class="g2_1"/>
<path d="M746.1 990.1h.7v27.4h-.7V990.1Z" class="g0_1"/>
<path d="M746.1 990.1v27.4" class="g2_1"/>
<path d="M746.1 1017.5h.7v.7h-.7v-.7Z" class="g0_1"/>
<path d="M746.1 1017.5h.7m-.7 0v.7" class="g2_1"/>
<path d="M746.8 1017.5h85.3v.7H746.8v-.7Z" class="g0_1"/>
<path d="M746.8 1017.5h85.3" class="g2_1"/>
<path d="M832.1 990.1h.7v27.4h-.7V990.1Z" class="g0_1"/>
<path d="M832.1 990.1v27.4" class="g2_1"/>
<path d="M832.1 1017.5h.7v.7h-.7v-.7Z" class="g0_1"/>
<path d="M832.1 1017.5h.7m-.7 0v.7" class="g2_1"/>
<path d="M832.1 1017.5h.7v.7h-.7v-.7Z" class="g0_1"/>
<path d="M832.1 1017.5h.7m-.7 0v.7" class="g2_1"/>
<image preserveAspectRatio="none" x="43" y="892" width="57" height="57" xlink:href="img/9.jpg"/>
<image preserveAspectRatio="none" x="43" y="1129" width="57" height="56" xlink:href="img/10.jpg"/>
</svg>