<?xml version="1.0" encoding="UTF-8" standalone="no"?>
<!DOCTYPE svg PUBLIC "-//W3C//DTD SVG 1.1//EN"
"http://www.w3.org/Graphics/SVG/1.1/DTD/svg11.dtd">
<svg viewBox="0 0 909 1286" version="1.1" xmlns="http://www.w3.org/2000/svg" xmlns:xlink="http://www.w3.org/1999/xlink">
<defs>
<clipPath id="c0_21"><path d="M-.2 1286.6v-74.9h910v74.9Z"/></clipPath>
<clipPath id="c1_21"><path d="M654.5 537.5v-7.7h35.4v7.7Z"/></clipPath>
<style type="text/css"><![CDATA[
.g0_21{
fill: none;
stroke: #000;
stroke-width: 1.099;
stroke-linecap: square;
stroke-miterlimit: 10;
}
.g1_21{
fill: #000;
}
.g2_21{
fill: none;
stroke: #000;
stroke-width: 0.763;
stroke-linecap: square;
stroke-miterlimit: 10;
}
.g3_21{
fill: none;
stroke: #000;
stroke-width: 0.765;
stroke-linecap: square;
stroke-miterlimit: 10;
}
.g4_21{
fill: none;
stroke: #000;
stroke-width: 0.662;
stroke-linejoin: round;
}
.g5_21{
fill: none;
stroke: #000;
stroke-width: 0.735;
stroke-linejoin: round;
stroke-dasharray: 3,3;
}
.g6_21{
fill: none;
stroke: #000;
stroke-width: 0.662;
stroke-linecap: round;
stroke-linejoin: round;
}
.g7_21{
fill: none;
stroke: #9FA0A0;
stroke-width: 0.826;
stroke-linecap: round;
stroke-miterlimit: 8;
}
.g8_21{
fill: none;
stroke: #9FA0A0;
stroke-width: 0.826;
stroke-linejoin: round;
}
.g9_21{
fill: none;
stroke: #000;
stroke-width: 0.619;
stroke-linejoin: round;
}
.ga_21{
fill: none;
stroke: #000;
stroke-width: 1.652;
stroke-linejoin: round;
stroke-dasharray: 7,5;
}
.gb_21{
fill: none;
stroke: #000;
stroke-width: 1.652;
stroke-linejoin: round;
}
.gc_21{
fill: none;
stroke: #000;
stroke-width: 0.152;
stroke-linecap: square;
stroke-miterlimit: 10;
}
.gd_21{
fill: none;
stroke: #000;
stroke-width: 0.578;
stroke-linecap: round;
stroke-linejoin: round;
}
.ge_21{
fill: none;
stroke: #000;
stroke-width: 1.725;
stroke-linejoin: round;
stroke-dasharray: 7,6;
}
.gf_21{
fill: none;
stroke: #000;
stroke-width: 1.725;
stroke-linejoin: round;
}
.gg_21{
fill: #FFF;
}
.gh_21{
fill: none;
stroke: #000;
stroke-width: 0.864;
stroke-linecap: round;
stroke-linejoin: round;
}
.gi_21{
fill: #B5B5B5;
}
.gj_21{
fill: #9F9F9F;
}
.gk_21{
fill: none;
stroke: #000;
stroke-width: 0.864;
stroke-linejoin: round;
}
.gl_21{
fill: #DDD;
}
.gm_21{
fill: none;
stroke: #000;
stroke-width: 0.216;
stroke-linejoin: round;
}
.gn_21{
fill: #C9C9C9;
}
.go_21{
fill: none;
stroke: #000;
stroke-width: 0.432;
stroke-linecap: round;
stroke-linejoin: round;
}
.gp_21{
fill: #707070;
}
]]></style>
</defs>
<image clip-path="url(#c0_21)" preserveAspectRatio="none" x="-4" y="1212" width="952" height="131" xlink:href="img/1.jpg"/>
<image preserveAspectRatio="none" x="731" y="996" width="130" height="84" xlink:href="img/2.jpg"/>
<path d="M141 186.1H109.8m84 0H163.7m83.1 0H216.5m142.8 0h-30" class="g0_21"/>
<path d="M43.3 381.3H79.9v-.9H43.3v.9Z" class="g1_21"/>
<path d="M299.9 500.5h36.7v-.9H299.9v.9Z" class="g1_21"/>
<path d="M299.9 502.3h36.7v-.9H299.9v.9Z" class="g1_21"/>
<path d="M289.5 627.2H258.3m85.1 0h-31m83.8 0H366.1" class="g0_21"/>
<path d="M260.6 963.4h23.1" class="g2_21"/>
<path d="M309.5 963.5h23.8m25.1 -.1h24.1m151.6 0h23.1m-397.7 50.1h23.8m116.9 0h23.1" class="g3_21"/>
<path d="M254.2 1039.7h23.7" class="g2_21"/>
<path d="M431.4 1039.7h23.2" class="g3_21"/>
<image preserveAspectRatio="none" x="27" y="64" width="823" height="39" xlink:href="img/3.png"/>
<path d="M805.2 236.2V302M717.9 213.9v63.4L805.2 302l33 -64.1V170.1L717.9 213.9" class="g4_21"/>
<path d="M717.9 277.3L838.2 237.9" class="g5_21"/>
<path d="M717.9 213.9l87.3 22.3l33 -66.1" class="g4_21"/>
<path d="M805.2 236.2l-5.8 -1.6l2.3 -5.1l5.9 1.7l-2.4 5Z" class="g6_21"/>
<image preserveAspectRatio="none" x="717" y="617" width="143" height="123" xlink:href="img/4.jpg"/>
<path d="M673.7 480.9H790V362.8H673.7V480.9Z" class="g7_21"/>
<path d="M697 362.8V480.9M720.2 362.8V480.9M743.5 362.8V480.9M766.7 362.8V480.9m-93 -94.7H790M673.7 409.9H790M673.7 433.6H790M673.7 457.2H790" class="g8_21"/>
<path d="M673.7 480.9L697 410.1l23.2 -23.7L790 362.8" class="g9_21"/>
<path d="M673.7 480.9L697 457.2l23.2 -70.8h23.3L790 362.8" class="ga_21"/>
<path d="M790 362.8l-23.3 70.8l-93 47.3" class="gb_21"/>
<path d="M558.2 509.3h.4v.5h-.4v-.5Z" class="g1_21"/>
<path d="M558.2 509.3h.4m-.4 0v.5" class="gc_21"/>
<path d="M558.2 509.3h.4v.5h-.4v-.5Z" class="g1_21"/>
<path d="M558.2 509.3h.4m-.4 0v.5" class="gc_21"/>
<path d="M558.6 509.3h61.6v.5H558.6v-.5Z" class="g1_21"/>
<path d="M558.6 509.3h61.6" class="gc_21"/>
<path d="M620.2 509.3h.4v.5h-.4v-.5Z" class="g1_21"/>
<path d="M620.2 509.3h.4m-.4 0v.5" class="gc_21"/>
<path d="M620.6 509.3h29.9v.5H620.6v-.5Z" class="g1_21"/>
<path d="M620.6 509.3h29.9" class="gc_21"/>
<path d="M650.5 509.3h.4v.5h-.4v-.5Z" class="g1_21"/>
<path d="M650.5 509.3h.4m-.4 0v.5" class="gc_21"/>
<path d="M650.9 509.3h41.3v.5H650.9v-.5Z" class="g1_21"/>
<path d="M650.9 509.3h41.3" class="gc_21"/>
<path d="M692.2 509.3h.4v.5h-.4v-.5Z" class="g1_21"/>
<path d="M692.2 509.3h.4m-.4 0v.5" class="gc_21"/>
<path d="M692.6 509.3H772v.5H692.6v-.5Z" class="g1_21"/>
<path d="M692.6 509.3H772" class="gc_21"/>
<path d="M772 509.3h.4v.5H772v-.5Z" class="g1_21"/>
<path d="M772 509.3h.4m-.4 0v.5" class="gc_21"/>
<path d="M772 509.3h.4v.5H772v-.5Z" class="g1_21"/>
<path d="M772 509.3h.4m-.4 0v.5" class="gc_21"/>
<path d="M558.2 509.8h.4v15.6h-.4V509.8Z" class="g1_21"/>
<path d="M558.2 509.8v15.6" class="gc_21"/>
<path d="M620.2 509.8h.4v15.6h-.4V509.8Z" class="g1_21"/>
<path d="M620.2 509.8v15.6" class="gc_21"/>
<path d="M650.5 509.8h.4v15.6h-.4V509.8Z" class="g1_21"/>
<path d="M650.5 509.8v15.6" class="gc_21"/>
<path d="M692.2 509.8h.4v15.6h-.4V509.8Z" class="g1_21"/>
<path d="M692.2 509.8v15.6" class="gc_21"/>
<path d="M772 509.8h.4v15.6H772V509.8Z" class="g1_21"/>
<path d="M772 509.8v15.6" class="gc_21"/>
<path clip-path="url(#c1_21)" d="M654 532h30.6" class="gd_21"/>
<path d="M558.2 525.4h.4v.4h-.4v-.4Z" class="g1_21"/>
<path d="M558.2 525.4h.4m-.4 0v.4" class="gc_21"/>
<path d="M558.6 525.4h61.6v.4H558.6v-.4Z" class="g1_21"/>
<path d="M558.6 525.4h61.6" class="gc_21"/>
<path d="M620.2 525.4h.4v.4h-.4v-.4Z" class="g1_21"/>
<path d="M620.2 525.4h.4m-.4 0v.4" class="gc_21"/>
<path d="M620.6 525.4h29.9v.4H620.6v-.4Z" class="g1_21"/>
<path d="M620.6 525.4h29.9" class="gc_21"/>
<path d="M650.5 525.4h.4v.4h-.4v-.4Z" class="g1_21"/>
<path d="M650.5 525.4h.4m-.4 0v.4" class="gc_21"/>
<path d="M650.9 525.4h41.3v.4H650.9v-.4Z" class="g1_21"/>
<path d="M650.9 525.4h41.3" class="gc_21"/>
<path d="M692.2 525.4h.4v.4h-.4v-.4Z" class="g1_21"/>
<path d="M692.2 525.4h.4m-.4 0v.4" class="gc_21"/>
<path d="M692.6 525.4H772v.4H692.6v-.4Z" class="g1_21"/>
<path d="M692.6 525.4H772" class="gc_21"/>
<path d="M772 525.4h.4v.4H772v-.4Z" class="g1_21"/>
<path d="M772 525.4h.4m-.4 0v.4" class="gc_21"/>
<path d="M558.2 525.8h.4v15.6h-.4V525.8Z" class="g1_21"/>
<path d="M558.2 525.8v15.6" class="gc_21"/>
<path d="M620.2 525.8h.4v15.6h-.4V525.8Z" class="g1_21"/>
<path d="M620.2 525.8v15.6" class="gc_21"/>
<path d="M650.5 525.8h.4v15.6h-.4V525.8Z" class="g1_21"/>
<path d="M650.5 525.8v15.6" class="gc_21"/>
<path d="M692.2 525.8h.4v15.6h-.4V525.8Z" class="g1_21"/>
<path d="M692.2 525.8v15.6" class="gc_21"/>
<path d="M772 525.8h.4v15.6H772V525.8Z" class="g1_21"/>
<path d="M772 525.8v15.6" class="gc_21"/>
<path d="M654.4 547.9h34.3" class="ge_21"/>
<path d="M558.2 541.4h.4v.4h-.4v-.4Z" class="g1_21"/>
<path d="M558.2 541.4h.4m-.4 0v.4" class="gc_21"/>
<path d="M558.6 541.4h61.6v.4H558.6v-.4Z" class="g1_21"/>
<path d="M558.6 541.4h61.6" class="gc_21"/>
<path d="M620.2 541.4h.4v.4h-.4v-.4Z" class="g1_21"/>
<path d="M620.2 541.4h.4m-.4 0v.4" class="gc_21"/>
<path d="M620.6 541.4h29.9v.4H620.6v-.4Z" class="g1_21"/>
<path d="M620.6 541.4h29.9" class="gc_21"/>
<path d="M650.5 541.4h.4v.4h-.4v-.4Z" class="g1_21"/>
<path d="M650.5 541.4h.4m-.4 0v.4" class="gc_21"/>
<path d="M650.9 541.4h41.3v.4H650.9v-.4Z" class="g1_21"/>
<path d="M650.9 541.4h41.3" class="gc_21"/>
<path d="M692.2 541.4h.4v.4h-.4v-.4Z" class="g1_21"/>
<path d="M692.2 541.4h.4m-.4 0v.4" class="gc_21"/>
<path d="M692.6 541.4H772v.4H692.6v-.4Z" class="g1_21"/>
<path d="M692.6 541.4H772" class="gc_21"/>
<path d="M772 541.4h.4v.4H772v-.4Z" class="g1_21"/>
<path d="M772 541.4h.4m-.4 0v.4" class="gc_21"/>
<path d="M558.2 541.8h.4v15.6h-.4V541.8Z" class="g1_21"/>
<path d="M558.2 541.8v15.6" class="gc_21"/>
<path d="M620.2 541.8h.4v15.6h-.4V541.8Z" class="g1_21"/>
<path d="M620.2 541.8v15.6" class="gc_21"/>
<path d="M650.5 541.8h.4v15.6h-.4V541.8Z" class="g1_21"/>
<path d="M650.5 541.8v15.6" class="gc_21"/>
<path d="M692.2 541.8h.4v15.6h-.4V541.8Z" class="g1_21"/>
<path d="M692.2 541.8v15.6" class="gc_21"/>
<path d="M772 541.8h.4v15.6H772V541.8Z" class="g1_21"/>
<path d="M772 541.8v15.6" class="gc_21"/>
<path d="M654.4 563.9h31.8" class="gf_21"/>
<path d="M558.2 557.4h.4v.4h-.4v-.4Z" class="g1_21"/>
<path d="M558.2 557.4h.4m-.4 0v.4" class="gc_21"/>
<path d="M558.6 557.4h61.6v.4H558.6v-.4Z" class="g1_21"/>
<path d="M558.6 557.4h61.6" class="gc_21"/>
<path d="M620.2 557.4h.4v.4h-.4v-.4Z" class="g1_21"/>
<path d="M620.2 557.4h.4m-.4 0v.4" class="gc_21"/>
<path d="M620.6 557.4h29.9v.4H620.6v-.4Z" class="g1_21"/>
<path d="M620.6 557.4h29.9" class="gc_21"/>
<path d="M650.5 557.4h.4v.4h-.4v-.4Z" class="g1_21"/>
<path d="M650.5 557.4h.4m-.4 0v.4" class="gc_21"/>
<path d="M650.9 557.4h41.3v.4H650.9v-.4Z" class="g1_21"/>
<path d="M650.9 557.4h41.3" class="gc_21"/>
<path d="M692.2 557.4h.4v.4h-.4v-.4Z" class="g1_21"/>
<path d="M692.2 557.4h.4m-.4 0v.4" class="gc_21"/>
<path d="M692.6 557.4H772v.4H692.6v-.4Z" class="g1_21"/>
<path d="M692.6 557.4H772" class="gc_21"/>
<path d="M772 557.4h.4v.4H772v-.4Z" class="g1_21"/>
<path d="M772 557.4h.4m-.4 0v.4" class="gc_21"/>
<path d="M558.2 557.8h.4v15.6h-.4V557.8Z" class="g1_21"/>
<path d="M558.2 557.8v15.6" class="gc_21"/>
<path d="M558.2 573.4h.4v.4h-.4v-.4Z" class="g1_21"/>
<path d="M558.2 573.4h.4m-.4 0v.4" class="gc_21"/>
<path d="M558.2 573.4h.4v.4h-.4v-.4Z" class="g1_21"/>
<path d="M558.2 573.4h.4m-.4 0v.4" class="gc_21"/>
<path d="M558.6 573.4h61.6v.4H558.6v-.4Z" class="g1_21"/>
<path d="M558.6 573.4h61.6" class="gc_21"/>
<path d="M620.2 557.8h.4v15.6h-.4V557.8Z" class="g1_21"/>
<path d="M620.2 557.8v15.6" class="gc_21"/>
<path d="M620.2 573.4h.4v.4h-.4v-.4Z" class="g1_21"/>
<path d="M620.2 573.4h.4m-.4 0v.4" class="gc_21"/>
<path d="M620.6 573.4h29.9v.4H620.6v-.4Z" class="g1_21"/>
<path d="M620.6 573.4h29.9" class="gc_21"/>
<path d="M650.5 557.8h.4v15.6h-.4V557.8Z" class="g1_21"/>
<path d="M650.5 557.8v15.6" class="gc_21"/>
<path d="M650.5 573.4h.4v.4h-.4v-.4Z" class="g1_21"/>
<path d="M650.5 573.4h.4m-.4 0v.4" class="gc_21"/>
<path d="M650.9 573.4h41.3v.4H650.9v-.4Z" class="g1_21"/>
<path d="M650.9 573.4h41.3" class="gc_21"/>
<path d="M692.2 557.8h.4v15.6h-.4V557.8Z" class="g1_21"/>
<path d="M692.2 557.8v15.6" class="gc_21"/>
<path d="M692.2 573.4h.4v.4h-.4v-.4Z" class="g1_21"/>
<path d="M692.2 573.4h.4m-.4 0v.4" class="gc_21"/>
<path d="M692.6 573.4H772v.4H692.6v-.4Z" class="g1_21"/>
<path d="M692.6 573.4H772" class="gc_21"/>
<path d="M772 557.8h.4v15.6H772V557.8Z" class="g1_21"/>
<path d="M772 557.8v15.6" class="gc_21"/>
<path d="M772 573.4h.4v.4H772v-.4Z" class="g1_21"/>
<path d="M772 573.4h.4m-.4 0v.4" class="gc_21"/>
<path d="M772 573.4h.4v.4H772v-.4Z" class="g1_21"/>
<path d="M772 573.4h.4m-.4 0v.4" class="gc_21"/>
<path d="M586.8 503.1v-3.2l12.8 2.8V506l-5.5 1.7Z" class="gg_21"/>
<path d="M586.8 499.9v3.2l7.3 4.6l5.5 -1.7v-3.3l-12.8 -2.8Z" class="gh_21"/>
<path d="M586.8 499.9l7.8 .2l5 2.6l-5.5 1.7Z" class="gg_21"/>
<path d="M586.8 499.9l7.3 4.5l5.5 -1.7l-5 -2.6l-7.8 -.2Z" class="gh_21"/>
<path d="M589.6 490.7l5 -1.3v10.7l-5 1.5Z" class="gi_21"/>
<path d="M594.6 500.1l-5 1.5V490.7l5 -1.3v10.7Z" class="gh_21"/>
<path d="M586.8 499.9V489l3 1.7v10.9Z" class="gj_21"/>
<path d="M594.1 504.4v3.3m-7.3 -7.8l3 1.7V490.7l-3 -1.7v10.9" class="gk_21"/>
<path d="M578.3 505.5V502l14.1 3.1v3.5l-6.1 1.9Z" class="gg_21"/>
<path d="M578.3 502v3.5l8 5l6.1 -1.9v-3.5L578.3 502Z" class="gh_21"/>
<path d="M578.3 502l8.5 -.2l5.6 3.3l-6.1 1.7Z" class="gg_21"/>
<path d="M578.3 502l8 4.8l6.1 -1.7l-5.6 -3.3l-8.5 .2Z" class="gh_21"/>
<path d="M581.4 491.8l5.6 -1.5V502l-5.6 2Z" class="gi_21"/>
<path d="M587 502l-5.6 2V491.8l5.6 -1.5V502Z" class="gh_21"/>
<path d="M578.3 502V489.9l3.3 1.9V504Z" class="gj_21"/>
<path d="M578.3 502l3.3 2V491.8l-3.3 -1.9V502Z" class="gh_21"/>
<path d="M593.3 473l1.7 -4l10.4 6.1l-2.2 3.9Z" class="gi_21"/>
<path d="M595 469l10.4 6.1l-2.2 3.9l-9.9 -6l1.7 -4Z" class="gh_21"/>
<path d="M606.3 480.3l-.5 -.4l-.4 -.4h-.7l-.8 .2l-.7 .6l-.6 -1.1l-.2 -.6l-.2 -.7v-.6l.2 -.7l.6 -1.2l1.1 -.7l.6 -.2l.7 -.2h.6l.7 .2l1.3 .6l.6 1.1l.3 .7l.2 .6l-.2 1.3l-.5 1.1l-.8 .6l-1.1 .5Z" class="gg_21"/>
<path d="M604.7 479.5v0l-.8 .2l-.7 .6l-.6 -1.1l-.2 -.6l-.2 -.7v-.6l.2 -.7l.6 -1.2l1.1 -.7l.6 -.2l.7 -.2h.6l.7 .2l1.3 .6l.6 1.1l.3 .7l.2 .6l-.2 1.3l-.5 1.1l-.8 .6l-1.1 .5l-.2 -.7l-.5 -.4l-.4 -.4h-.7Z" class="gh_21"/>
<path d="M582.5 470.3l13.3 -2.8V491l-13.3 3.7Z" class="gi_21"/>
<path d="M595.8 491l-13.3 3.7V470.3l13.3 -2.8V491Z" class="gh_21"/>
<path d="M575.1 490.7V466.4l7.4 3.9v24.4Z" class="gj_21"/>
<path d="M575.1 490.7l7.4 4V470.3l-7.4 -3.9v24.3Z" class="gh_21"/>
<path d="M595.8 461.7l-1 -.7l-.7 -1.1l-.2 -1.1v-1l.4 -1.1l.9 -.7l.6 -.2h1.3l.5 .2l4.8 2.2l-3.7 2.8l-.6 .5l-1.2 .2Z" class="gi_21"/>
<path d="M595.2 456v0l.6 -.2h1.3l.5 .2l4.8 2.2l-3.7 2.8l-.6 .5l-1.2 .2h-1.1l-1 -.7l-.7 -1.1l-.2 -1.1v-1l.4 -1.1l.9 -.7Z" class="gh_21"/>
<path d="M580.1 457.1l18.2 -3.7V468l-18.2 3.9Z" class="gg_21"/>
<path d="M598.3 468l-18.2 3.9V457.1l18.2 -3.7V468Z" class="gh_21"/>
<path d="M571.4 454.1l19 -3.9l7.9 3.2l-18.2 3.7Z" class="gl_21"/>
<path d="M580.1 457.1l-8.7 -3l19 -3.9l7.9 3.2l-18.2 3.7Z" class="gh_21"/>
<path d="M571.4 467.1v-13l8.7 3v14.8Z" class="gl_21"/>
<path d="M580.1 471.9l-8.7 -4.8v-13l8.7 3v14.8Z" class="gh_21"/>
<path d="M585.3 462.8l-.5 -.2l-.4 -.7v-1.3l.4 -.5l.5 -.2l.6 -.2l.4 .2l.5 .2l.4 .5v1.3l-.4 .7l-.5 .2l-.4 .2Z" class="gg_21"/>
<path d="M587.2 461.3v.6l-.4 .7l-.5 .2l-.4 .2l-.6 -.2l-.5 -.2l-.4 -.7v-1.3l.4 -.5l.5 -.2l.6 -.2l.4 .2l.5 .2l.4 .5v.7Z" class="gh_21"/>
<path d="M580.1 448.9l-.7 -.5l-.4 -.6v-1.5l.4 -.7l.7 -.4l.6 -.2l.9 .2l.6 .4l.3 .7l.2 .6l-.2 .9l-.3 .6l-.6 .5l-.9 .2Z" class="gi_21"/>
<path d="M582.7 446.9v0l-.2 .9l-.3 .6l-.6 .5l-.9 .2l-.6 -.2l-.7 -.5l-.4 -.6v-1.5l.4 -.7l.7 -.4l.6 -.2l.9 .2l.6 .4l.3 .7l.2 .6Z" class="gh_21"/>
<path d="M593.3 461.3h-.7l-.4 -.5l-.5 -.4v-1.3l.5 -.5l.4 -.4h1.1l.6 .4l.3 .5l.2 .6l-.2 .7l-.3 .4l-.6 .5Z" class="gg_21"/>
<path d="M594.8 459.7v0l-.2 .7l-.3 .4l-.6 .5h-1.1l-.4 -.5l-.5 -.4v-1.3l.5 -.5l.4 -.4h1.1l.6 .4l.3 .5l.2 .6Z" class="gh_21"/>
<path d="M581.6 451.9l8 3.3v14.5" class="gm_21"/>
<path d="M589.4 468h-.9l-.9 -.3l-.8 -.4l-1.3 -.6l-.7 -.9l10 -2.2l-.2 .7l-.7 1.3l-.6 .6l-.7 .7l-1.1 .6l-1.1 .5Z" class="gn_21"/>
<path d="M584.8 465.8l10 -2.2l-.2 .7l-.7 1.3l-.6 .6l-.7 .7l-1.1 .6l-1.1 .5h-1.9l-.9 -.3l-.8 -.4l-1.3 -.6l-.7 -.9Z" class="go_21"/>
<path d="M585.3 453.4v0v-.8l-.5 -1.5l-.6 -1.2l-.7 -1l-1 -1.1l-1.3 -.9" class="gk_21"/>
<path d="M573.8 465.8l-4.6 -.6l3.3 -4.2l.4 -.4l.4 -.5l.7 -.2h.7l.8 .2l.9 .7l.7 .9l.2 1.3l-.2 1.1l-.7 1.1l-.9 .6l-.8 .2Z" class="gi_21"/>
<path d="M574.7 459.9v0H574l-.7 .2l-.4 .5l-.4 .4l-3.3 4.2l4.6 .6l.9 .2l.8 -.2l.9 -.6l.7 -1.1l.2 -1.1l-.2 -1.3l-.7 -.9l-.9 -.7l-.8 -.2Z" class="gh_21"/>
<path d="M565.6 482.7l8.4 -8.9l3.1 3.1l-8.1 8.9Z" class="gi_21"/>
<path d="M574 473.8l-8.4 8.9l3.4 3.1l8.1 -8.9L574 473.8Z" class="gh_21"/>
<path d="M565.3 489l-1.3 -.6l-.6 -.9l-.6 -1.1v-1.5l.2 -.6l.2 -.7l.4 -.7l.4 -.4l.7 -.2l.9 -.5h1.3l.6 .3l.7 .2l.6 .4l.4 .7l.5 .4l.2 .9l.2 .6l-.2 .7v.6l-.5 .7l-.6 -.4h-1.1l-.6 .4l-.5 .4l-.2 .7v.8Z" class="gg_21"/>
<path d="M567.7 486.9v0h1.1l.6 .4l.5 -.7V486l.2 -.7l-.2 -.6l-.2 -.9l-.5 -.4l-.4 -.7l-.6 -.4l-.7 -.2l-.6 -.3h-1.3l-.9 .5l-.7 .2l-.4 .4l-.4 .7l-.2 .7l-.2 .6v1.5l.6 1.1l.6 .9l1.3 .6l1.1 .2v-.8l.2 -.7l.5 -.4l.6 -.4Z" class="gh_21"/>
<path d="M575.8 477.1l-.9 -.2l-.9 -.7l-.4 -1.1v-1l.2 -.9l.9 -.9l.8 -.4h1.1l.9 .4l.8 .7l.5 .8v1.1l-.5 1.1l-.6 .6l-.9 .5Z" class="gp_21"/>
<path d="M586.3 506.8v3.7m-7.5 -36.7v1.1l-.5 1.1l-.6 .6l-.9 .5h-1l-.9 -.2l-.9 -.7l-.4 -1.1v-1l.2 -.9l.9 -.9l.8 -.4h1.1l.9 .4l.8 .7l.5 .8" class="gk_21"/>
<image preserveAspectRatio="none" x="44" y="649" width="56" height="56" xlink:href="img/5.jpg"/>
<image preserveAspectRatio="none" x="44" y="791" width="56" height="57" xlink:href="img/6.jpg"/>
<image preserveAspectRatio="none" x="731" y="786" width="121" height="109" xlink:href="img/7.jpg"/>
<image preserveAspectRatio="none" x="44" y="982" width="56" height="56" xlink:href="img/8.jpg"/>
</svg>