<?xml version="1.0" encoding="UTF-8" standalone="no"?>
<!DOCTYPE svg PUBLIC "-//W3C//DTD SVG 1.1//EN"
"http://www.w3.org/Graphics/SVG/1.1/DTD/svg11.dtd">
<svg viewBox="0 0 909 1286" version="1.1" xmlns="http://www.w3.org/2000/svg" xmlns:xlink="http://www.w3.org/1999/xlink">
<defs>
<clipPath id="c0_1"><path d="M-.2 1286.6v-75.1h910v75.1Z"/></clipPath>
<clipPath id="c1_1"><path d="M.1 152.6V0H909.8V152.6Z"/></clipPath>
<clipPath id="c2_1"><path d="M23 203.8V154.1H909.8v49.7Z"/></clipPath>
<clipPath id="c3_1"><path d="M653.7 884.2V838.6H865.9v45.6Z"/></clipPath>
<clipPath id="c4_1"><path d="M633.6 1019.4V962.3H851.5v57.1Z"/></clipPath>
<clipPath id="c5_1"><path d="M43.4 1035V972.4H106V1035Z"/></clipPath>
<style type="text/css"><![CDATA[
.g0_1{
fill: none;
stroke: #000;
stroke-width: 1.099;
stroke-linecap: square;
stroke-miterlimit: 10;
}
.g1_1{
fill: #CCC;
}
.g2_1{
fill: #888;
}
.g3_1{
fill: none;
stroke: #000;
stroke-width: 0.342;
stroke-linejoin: round;
}
.g4_1{
fill: #FFF;
}
.g5_1{
fill: none;
stroke: #000;
stroke-width: 0.342;
stroke-linecap: round;
stroke-linejoin: round;
}
.g6_1{
fill: none;
stroke: #000;
stroke-width: 0.342;
stroke-linecap: round;
stroke-miterlimit: 8;
}
.g7_1{
fill: #000;
}
.g8_1{
fill: none;
stroke: #000;
stroke-width: 0.684;
stroke-linejoin: round;
}
.g9_1{
fill: none;
stroke: #696969;
stroke-width: 0.513;
stroke-linecap: round;
stroke-linejoin: round;
}
.ga_1{
fill: none;
stroke: #000;
stroke-width: 1.026;
stroke-linejoin: round;
}
.gb_1{
fill: none;
stroke: #000;
stroke-width: 1.142;
stroke-linejoin: round;
}
.gc_1{
fill: none;
stroke: #000;
stroke-width: 1.15;
stroke-linejoin: round;
}
]]></style>
</defs>
<image clip-path="url(#c0_1)" preserveAspectRatio="none" x="-2" y="1212" width="930" height="127" xlink:href="img/1.jpg"/>
<path d="M284.7 283h9.2m81.5 0h9.1M165.1 1020.8h9.2m88.6 0h9.2m88.6 0h9.2m89.6 0h9.2" class="g0_1"/>
<image preserveAspectRatio="none" x="143" y="1140" width="130" height="26" xlink:href="img/2.jpg"/>
<image preserveAspectRatio="none" x="325" y="1139" width="130" height="27" xlink:href="img/3.jpg"/>
<image preserveAspectRatio="none" x="507" y="1139" width="130" height="27" xlink:href="img/4.jpg"/>
<image preserveAspectRatio="none" x="681" y="1139" width="130" height="27" xlink:href="img/5.jpg"/>
<image clip-path="url(#c1_1)" preserveAspectRatio="none" x="0" y="0" width="915" height="152" xlink:href="img/6.jpg"/>
<image clip-path="url(#c2_1)" preserveAspectRatio="none" x="23" y="154" width="1038" height="49" xlink:href="img/7.png"/>
<path d="M725.3 649.6H833.2v8.6H725.3v-8.6Z" class="g1_1"/>
<path d="M760.5 522V480.3h32.1v3.6H764.8v40.9Z" class="g2_1"/>
<path d="M760.5 522V480.3h32.1v3.6H764.8v40.9" class="g3_1"/>
<path d="M725.3 589.2v-3.7h41V563.7h3.4v25.5Z" class="g1_1"/>
<path d="M725.3 585.5h41V563.7h3.4v25.5H725.3" class="g3_1"/>
<path d="M725.3 524.8v-3.7h41V499.4h3.4v25.4Z" class="g1_1"/>
<path d="M725.3 521.1h41V499.4h3.4v25.4H725.3" class="g3_1"/>
<path d="M778.5 470.4h10.3v6.1H778.5v-6.1Z" class="g4_1"/>
<path d="M783.9 506.5l-.4 -.3l-.3 -.6l-.2 -.8v-1.1l.4 -2.6l.9 -2.9l1.2 -2.8l1.2 -2.2l.6 -.9l.6 -.6l.5 -.3h.5l.5 .3l-.5 .2l-.5 .4l-.7 .5l-.5 .9l-1.2 2l-1.1 2.8l-.8 2.6l-.4 2.5v1.9l.2 .5l.4 .5Z" class="g4_1"/>
<path d="M784.9 498.5v0l1.1 -2.8l1.2 -2l.5 -.9l.7 -.5l.5 -.4l.5 -.2l-.5 -.3h-.5l-.5 .3l-.6 .6l-.6 .9l-1.2 2.2l-1.2 2.8l-.9 2.9l-.4 2.6v1.1l.2 .8l.3 .6l.4 .3h.4l-.4 -.5l-.2 -.5v-1.9l.4 -2.5l.8 -2.6Z" class="g5_1"/>
<path d="M784.6 506.7l-.3 -.2l.5 -.1l.5 -.4l.5 -.7l.7 -.9l1 -2.1l1.1 -2.5l.8 -2.7l.4 -2.4V493l-.2 -.7l-.2 -.6h.2l.3 .4l.4 .5v.9l.2 1l-.4 2.5l-.8 3.1l-1.2 2.8l-1.3 2.2l-.7 .7l-.5 .7l-.5 .2Z" class="g4_1"/>
<path d="M789.6 491.7v0h-.2l.2 .6l.2 .7v1.7l-.4 2.4l-.8 2.7l-1.1 2.5l-1 2.1l-.7 .9l-.5 .7l-.5 .4l-.5 .1l.3 .2h.5l.5 -.2l.5 -.7l.7 -.7l1.3 -2.2l1.2 -2.8l.8 -3.1l.4 -2.5l-.2 -1v-.9l-.4 -.5l-.3 -.4Z" class="g5_1"/>
<path d="M790.3 491.9h.7V636.1h-.7V491.9Z" class="g4_1"/>
<path d="M790.3 636.1h.7V491.9h-.7V636.1Z" class="g6_1"/>
<path d="M795.3 649.5l.4 -.4l.1 -.7v-1.5l-.3 -2.1l-.7 -2.4l-.9 -2.4l-1.2 -2l-.5 -.7l-.5 -.5l-.3 -.3h-.6l.3 -.4h.6l.5 .4l.5 .3l.5 .9l1.1 1.9l1 2.6l.9 2.6l.2 2.3v1.5l-.4 .5l-.3 .4Z" class="g4_1"/>
<path d="M794.8 642.4v0l-.9 -2.4l-1.2 -2l-.5 -.7l-.5 -.5l-.3 -.3h-.6l.3 -.4h.6l.5 .4l.5 .3l.5 .9l1.1 1.9l1 2.6l.9 2.6l.2 2.3v1.5l-.4 .5l-.3 .4h-.4l.4 -.4l.1 -.7v-1.5l-.3 -2.1l-.7 -2.4Z" class="g5_1"/>
<path d="M794.6 649.6l-.3 -.3l-.7 -.3l-.5 -.9L792 646.2l-1 -2.4l-.7 -2.6l-.4 -2.3V638l.2 -.8l.2 -.5l.3 -.2h.2l-.2 .3l-.1 .7v1.6l.3 2.1l.7 2.2l.9 2.4l1 1.8l1 1.4l.6 .3l.3 .2l-.1 .1Z" class="g4_1"/>
<path d="M753.4 496.6V482.2m36 9H775.6m15 144.9h-15M760.5 480.3h-8.9m39 156.2v0h.2l-.2 .3l-.1 .7v1.6l.3 2.1l.7 2.2l.9 2.4l1 1.8l1 1.4l.6 .3l.3 .2l-.1 .1h-.6l-.3 -.3l-.7 -.3l-.5 -.9L792 646.2l-1 -2.4l-.7 -2.6l-.4 -2.3V638l.2 -.8l.2 -.5l.3 -.2" class="g3_1"/>
<path d="M752.1 482.6l1.3 -2.3l1.4 2.3Z" class="g7_1"/>
<path d="M778.9 487.8v-5.6M768 517.5V534h-6.1" class="g3_1"/>
<path d="M777.5 482.6l1.4 -2.3l1.4 2.3Z" class="g7_1"/>
<path d="M778.9 486.9v2.3" class="g3_1"/>
<path d="M777.5 488.8h2.8l-1.4 2.4Z" class="g7_1"/>
<path d="M753.4 519V504.6" class="g3_1"/>
<path d="M752.1 518.7h2.7l-1.4 2.2Z" class="g7_1"/>
<path d="M778.9 640.1V638" class="g3_1"/>
<path d="M777.5 638.5l1.4 -2.4l1.4 2.4Z" class="g7_1"/>
<path d="M778.9 647.8v-2.1" class="g3_1"/>
<path d="M777.5 647.4h2.8l-1.4 2.5Z" class="g7_1"/>
<path d="M793.9 638.9h6.8l5.5 -6.3M788.1 541.9h8m-8.4 -40.1h11.1M764.7 480.3L760 472.7M730.1 583.5V523.2M792 490.4l11.8 2.1M792 485.9l12.1 -2" class="g3_1"/>
<path d="M728.7 583h2.8l-1.4 2.4Z" class="g7_1"/>
<path d="M728.7 523.6l1.4 -2.5l1.4 2.5Z" class="g7_1"/>
<path d="M730.1 647.8V587.5" class="g3_1"/>
<path d="M728.7 647.4h2.8l-1.4 2.5Z" class="g7_1"/>
<path d="M728.7 587.8l1.4 -2.4l1.4 2.4Z" class="g7_1"/>
<path d="M726.5 598.3h7v33.2h-7V598.3Z" class="g4_1"/>
<path d="M778.9 634V493.2" class="g3_1"/>
<path d="M777.5 633.7h2.8l-1.4 2.4Z" class="g7_1"/>
<path d="M777.5 493.7l1.4 -2.5l1.4 2.5Z" class="g7_1"/>
<path d="M833.6 649.6H725.3" class="g8_1"/>
<path d="M791.9 486.2v0l-.2 .5l-.2 .4l-.4 .3l-.5 .2l-.5 -.2l-.3 -.3l-.2 -.4l-.2 -.5l.2 -.5l.2 -.6l.3 -.3h1l.4 .3l.2 .6l.2 .5Z" class="g9_1"/>
<path d="M790.8 489.9h-2.2" class="ga_1"/>
<path d="M792 489.9v0l-.1 .6l-.4 .6l-.5 .3l-.7 .2l-.7 -.2l-.5 -.3l-.3 -.6l-.2 -.6l.2 -.7l.3 -.6l.5 -.3l.7 -.2l.7 .2l.5 .3l.4 .6l.1 .7Zm.7 0v0l-.1 .8l-.4 .7l-.7 .3l-.9 .2l-.8 -.2l-.7 -.3l-.3 -.7l-.2 -.8l.2 -.9l.3 -.7l.7 -.4l.8 -.1l.9 .1l.7 .4l.4 .7l.1 .9Z" class="g5_1"/>
<path d="M790.6 482.4v2.7" class="ga_1"/>
<path d="M778.9 486.2h5.2v-8.5" class="g3_1"/>
<path d="M726.5 533h7v34h-7V533Z" class="g4_1"/>
<path d="M772.3 534.9h7.1v51.8h-7.1V534.9Z" class="g4_1"/>
<path d="M520.3 722.1h311" class="gb_1"/>
<path d="M829.8 719.5l9.1 2.6l-9.1 2.3Z" class="g7_1"/>
<path d="M560.7 724l-.4 -.3l-.7 -.8v-1.5l.7 -.8l.4 -.3l1.1 -.4l.8 .4l.8 .3l.3 .8v1.5l-.3 .8l-.8 .3l-.8 .4Z" class="g7_1"/>
<path d="M619.8 724l-.7 -.3l-.4 -.8v-1.5l.4 -.8l.7 -.3l.8 -.4l.7 .4l.8 .3l.4 .8l.4 .7l-.4 .8l-.4 .8l-.8 .3l-.7 .4Z" class="g7_1"/>
<path d="M679.6 724l-.4 -.3l-.7 -.8v-1.5l.7 -.8l.4 -.3l1.2 -.4l.7 .4l.8 .3l.4 .8v1.5l-.4 .8l-.8 .3l-.7 .4Z" class="g7_1"/>
<path d="M697.9 724l-.7 -.3l-.4 -.8l-.4 -.8l.4 -.7l.4 -.8l.7 -.3l.8 -.4l.7 .4l.8 .3l.4 .8l.4 .7l-.4 .8l-.4 .8l-.8 .3l-.7 .4Z" class="g7_1"/>
<path d="M777.6 724l-.8 -.3l-.3 -.8v-1.5l.3 -.8l.8 -.3l.8 -.4l.7 .4l.8 .3l.4 .8l.4 .7l-.4 .8l-.4 .8l-.8 .3l-.7 .4Z" class="g7_1"/>
<path clip-path="url(#c3_1)" d="M653.9 860.2H863.6" class="gc_1"/>
<path d="M677.3 862.1h-.7l-.8 -.3l-.4 -.8l-.4 -.8l.4 -1.1l.4 -.4l.8 -.7h1.5l.8 .7l.3 .4l.4 1.1l-.4 .8l-.3 .8l-.8 .3Z" class="g7_1"/>
<path d="M707.6 862.1h-1.1l-.4 -.3l-.8 -.8v-1.9l.8 -.4l.4 -.7h1.9l.7 .7l.4 .4V861l-.4 .8l-.7 .3Z" class="g7_1"/>
<path d="M796.9 862.1h-.7l-.8 -.3L795 861l-.4 -.8l.4 -1.1l.4 -.4l.8 -.7h1.5l.8 .7l.3 .4l.4 1.1l-.4 .8l-.3 .8l-.8 .3Z" class="g7_1"/>
<path d="M825.3 862.1h-.8l-.7 -.3l-.4 -.8l-.4 -.8l.4 -1.1l.4 -.4l.7 -.7h1.6l.7 .7l.4 .4V861l-.4 .8l-.7 .3Z" class="g7_1"/>
<image clip-path="url(#c4_1)" preserveAspectRatio="none" x="634" y="963" width="217" height="56" xlink:href="img/8.jpg"/>
<image clip-path="url(#c5_1)" preserveAspectRatio="none" x="44" y="973" width="62" height="62" xlink:href="img/9.jpg"/>
<image preserveAspectRatio="none" x="44" y="1113" width="62" height="61" xlink:href="img/10.jpg"/>
</svg>