<?xml version="1.0" encoding="UTF-8" standalone="no"?>
<!DOCTYPE svg PUBLIC "-//W3C//DTD SVG 1.1//EN"
"http://www.w3.org/Graphics/SVG/1.1/DTD/svg11.dtd">
<svg viewBox="0 0 909 1286" version="1.1" xmlns="http://www.w3.org/2000/svg" xmlns:xlink="http://www.w3.org/1999/xlink">
<defs>
<clipPath id="c0_9"><path d="M-.2 1286.6v-75.1h910v75.1Z"/></clipPath>
<clipPath id="c1_9"><path d="M647.4 598.1V495.6H841.2V598.1Z"/></clipPath>
<clipPath id="c2_9"><path d="M693.8 995.3V900.9H842.5v94.4Z"/></clipPath>
<style type="text/css"><![CDATA[
.g0_9{
fill: none;
stroke: #000;
stroke-width: 0.76;
stroke-linecap: square;
stroke-miterlimit: 10;
}
.g1_9{
fill: none;
stroke: #000;
stroke-width: 0.763;
stroke-linecap: square;
stroke-miterlimit: 10;
}
.g2_9{
fill: #000;
}
]]></style>
</defs>
<image clip-path="url(#c0_9)" preserveAspectRatio="none" x="-2" y="1212" width="930" height="127" xlink:href="img/1.jpg"/>
<path d="M582.8 94h9.9" class="g0_9"/>
<path d="M775.9 94h10m43.7 0h11" class="g1_9"/>
<path d="M611 102.8h36.6v-1H611v1Z" class="g2_9"/>
<path d="M523.8 141.4h11.1" class="g1_9"/>
<path d="M612.4 150.1h36.7v-.9H612.4v.9Z" class="g2_9"/>
<path d="M108.7 281.3h36.8v-.9H108.7v.9Z" class="g2_9"/>
<path d="M675.3 281.3H712v-.9H675.3v.9Z" class="g2_9"/>
<path d="M199.9 305.2h36.7v-.9H199.9v.9Z" class="g2_9"/>
<path d="M110 397.4h36.7v-.9H110v.9Z" class="g2_9"/>
<path d="M164.5 397.4h36.6v-.9H164.5v.9Z" class="g2_9"/>
<path d="M475.6 397.4h36.6v-.9H475.6v.9Z" class="g2_9"/>
<path d="M676 397.4h36.7v-.9H676v.9Z" class="g2_9"/>
<path d="M840.4 397.4h18.2v-.9H840.4v.9Z" class="g2_9"/>
<path d="M108.3 421.3h18.3v-.9H108.3v.9Z" class="g2_9"/>
<path d="M144.9 421.3h36.7v-.9H144.9v.9Z" class="g2_9"/>
<path d="M260.3 519.6h9.9" class="g1_9"/>
<path d="M368.8 519.6h9.8" class="g0_9"/>
<path d="M456.8 659.1h36.6v-.9H456.8v.9Z" class="g2_9"/>
<path d="M107.5 944h36.7v-.9H107.5v.9Z" class="g2_9"/>
<path d="M180.9 967.9h36.6V967H180.9v.9Z" class="g2_9"/>
<path d="M111.6 1066.2h36.6v-.9H111.6v.9Z" class="g2_9"/>
<path d="M571.2 1090h36.6v-.9H571.2v.9Z" class="g2_9"/>
<path d="M782 1090h36.7v-.9H782v.9Z" class="g2_9"/>
<path d="M263.6 1113.8h36.7v-.9H263.6v.9Z" class="g2_9"/>
<path d="M400.8 1113.8h36.5v-.9H400.8v.9Z" class="g2_9"/>
<image preserveAspectRatio="none" x="43" y="280" width="57" height="56" xlink:href="img/2.jpg"/>
<image preserveAspectRatio="none" x="43" y="100" width="57" height="56" xlink:href="img/3.jpg"/>
<image preserveAspectRatio="none" x="43" y="395" width="57" height="56" xlink:href="img/4.jpg"/>
<image clip-path="url(#c1_9)" preserveAspectRatio="none" x="648" y="496" width="193" height="102" xlink:href="img/5.jpg"/>
<image preserveAspectRatio="none" x="43" y="527" width="57" height="56" xlink:href="img/6.jpg"/>
<image preserveAspectRatio="none" x="43" y="658" width="57" height="56" xlink:href="img/7.jpg"/>
<image preserveAspectRatio="none" x="720" y="779" width="88" height="87" xlink:href="img/8.jpg"/>
<image preserveAspectRatio="none" x="43" y="800" width="57" height="56" xlink:href="img/9.jpg"/>
<image clip-path="url(#c2_9)" preserveAspectRatio="none" x="694" y="901" width="148" height="94" xlink:href="img/10.jpg"/>
<image preserveAspectRatio="none" x="43" y="918" width="57" height="56" xlink:href="img/11.jpg"/>
<image preserveAspectRatio="none" x="43" y="1066" width="57" height="56" xlink:href="img/12.jpg"/>
</svg>