<?xml version="1.0" encoding="UTF-8" standalone="no"?>
<!DOCTYPE svg PUBLIC "-//W3C//DTD SVG 1.1//EN"
"http://www.w3.org/Graphics/SVG/1.1/DTD/svg11.dtd">
<svg viewBox="0 0 909 1286" version="1.1" xmlns="http://www.w3.org/2000/svg" xmlns:xlink="http://www.w3.org/1999/xlink">
<defs>
<clipPath id="c0_7"><path d="M-.2 1286.6v-75.1h910v75.1Z"/></clipPath>
<clipPath id="c1_7"><path d="M573.1 549.5V473.8H809.9v75.7Z"/></clipPath>
<clipPath id="c2_7"><path d="M612.7 938.8V861.5H866.4v77.3Z"/></clipPath>
<style type="text/css"><![CDATA[
.g0_7{
fill: #000;
}
.g1_7{
fill: none;
stroke: #000;
stroke-width: 1.099;
stroke-linecap: square;
stroke-miterlimit: 10;
}
.g2_7{
fill: none;
stroke: #000;
stroke-width: 0.763;
stroke-linecap: square;
stroke-miterlimit: 10;
}
.g3_7{
fill: none;
stroke: #000;
stroke-width: 0.733;
stroke-linecap: square;
stroke-miterlimit: 10;
}
]]></style>
</defs>
<image clip-path="url(#c0_7)" preserveAspectRatio="none" x="-2" y="1212" width="930" height="127" xlink:href="img/1.jpg"/>
<path d="M183.9 91.1h36.7v-.9H183.9v.9Z" class="g0_7"/>
<path d="M275.6 91.1h18.3v-.9H275.6v.9Z" class="g0_7"/>
<path d="M784.3 91.1h18.3v-.9H784.3v.9Z" class="g0_7"/>
<path d="M327.5 114.9h36.7V114H327.5v.9Z" class="g0_7"/>
<path d="M437.6 114.9H456V114H437.6v.9Z" class="g0_7"/>
<path d="M108.6 252.1h36.7v-.9H108.6v.9Z" class="g0_7"/>
<path d="M715.7 252.1h37v-.9h-37v.9Z" class="g0_7"/>
<path d="M488.7 276h36.6v-.9H488.7v.9Z" class="g0_7"/>
<path d="M229.6 453.8h-32m338.9 0H504.4M164 487.2H131.9m85 0h-30m140.1 0H295m84.9 0h-30M164 520.5H131.9m108.3 0h-30m126.3 0h-32m126.5 0H401" class="g1_7"/>
<path d="M197.2 739.4h36.6v-.9H197.2v.9Z" class="g0_7"/>
<path d="M276.7 1102.4h18.8m60.1 0h18.8" class="g2_7"/>
<image preserveAspectRatio="none" x="44" y="91" width="56" height="57" xlink:href="img/2.jpg"/>
<image preserveAspectRatio="none" x="44" y="254" width="56" height="56" xlink:href="img/3.jpg"/>
<image preserveAspectRatio="none" x="44" y="473" width="56" height="57" xlink:href="img/4.jpg"/>
<image clip-path="url(#c1_7)" preserveAspectRatio="none" x="573" y="474" width="237" height="75" xlink:href="img/5.jpg"/>
<path d="M614.9 680.3h.7v-.8h-.7v.8Z" class="g0_7"/>
<path d="M614.9 680.3h.7v-.8h-.7v.8Z" class="g0_7"/>
<path d="M615.6 680.3h53.6v-.8H615.6v.8Z" class="g0_7"/>
<path d="M669.2 680.3h.7v-.8h-.7v.8Z" class="g0_7"/>
<path d="M669.9 680.3H852.6v-.8H669.9v.8Z" class="g0_7"/>
<path d="M852.6 680.3h.7v-.8h-.7v.8Z" class="g0_7"/>
<path d="M852.6 680.3h.7v-.8h-.7v.8Z" class="g0_7"/>
<path d="M614.9 704.1h.7V680.3h-.7v23.8Z" class="g0_7"/>
<path d="M669.2 704.1h1.4V680.3h-1.4v23.8Z" class="g0_7"/>
<path d="M615.3 680.3L669.9 704" class="g3_7"/>
<path d="M852.6 704.1h.7V680.3h-.7v23.8Z" class="g0_7"/>
<path d="M614.9 705.6h.7v-1.5h-.7v1.5Z" class="g0_7"/>
<path d="M615.6 705.6h53.6v-1.5H615.6v1.5Z" class="g0_7"/>
<path d="M669.2 705.6h1.4v-1.5h-1.4v1.5Z" class="g0_7"/>
<path d="M670.6 705.6h182v-1.5h-182v1.5Z" class="g0_7"/>
<path d="M852.6 705.6h.7v-1.5h-.7v1.5Z" class="g0_7"/>
<path d="M614.9 729.5h.7V705.6h-.7v23.9Z" class="g0_7"/>
<path d="M669.2 729.5h1.4V705.6h-1.4v23.9Z" class="g0_7"/>
<path d="M852.6 729.5h.7V705.6h-.7v23.9Z" class="g0_7"/>
<path d="M614.9 730.2h.7v-.7h-.7v.7Z" class="g0_7"/>
<path d="M615.6 730.2h53.6v-.7H615.6v.7Z" class="g0_7"/>
<path d="M669.2 730.2h1.4v-.7h-1.4v.7Z" class="g0_7"/>
<path d="M670.6 730.2h182v-.7h-182v.7Z" class="g0_7"/>
<path d="M852.6 730.2h.7v-.7h-.7v.7Z" class="g0_7"/>
<path d="M614.9 754.1h.7V730.2h-.7v23.9Z" class="g0_7"/>
<path d="M669.2 754.1h1.4V730.2h-1.4v23.9Z" class="g0_7"/>
<path d="M852.6 754.1h.7V730.2h-.7v23.9Z" class="g0_7"/>
<path d="M614.9 754.8h.7V754h-.7v.8Z" class="g0_7"/>
<path d="M615.6 754.8h53.6V754H615.6v.8Z" class="g0_7"/>
<path d="M669.2 754.8h1.4V754h-1.4v.8Z" class="g0_7"/>
<path d="M670.6 754.8h182V754h-182v.8Z" class="g0_7"/>
<path d="M852.6 754.8h.7V754h-.7v.8Z" class="g0_7"/>
<path d="M614.9 778.2h.7V754.8h-.7v23.4Z" class="g0_7"/>
<path d="M669.2 778.2h1.4V754.8h-1.4v23.4Z" class="g0_7"/>
<path d="M852.6 778.2h.7V754.8h-.7v23.4Z" class="g0_7"/>
<image preserveAspectRatio="none" x="44" y="689" width="56" height="57" xlink:href="img/6.jpg"/>
<image clip-path="url(#c2_7)" preserveAspectRatio="none" x="613" y="862" width="253" height="76" xlink:href="img/7.jpg"/>
<image preserveAspectRatio="none" x="44" y="879" width="56" height="57" xlink:href="img/8.jpg"/>
</svg>