<?xml version="1.0" encoding="UTF-8" standalone="no"?>
<!DOCTYPE svg PUBLIC "-//W3C//DTD SVG 1.1//EN"
"http://www.w3.org/Graphics/SVG/1.1/DTD/svg11.dtd">
<svg viewBox="0 0 909 1286" version="1.1" xmlns="http://www.w3.org/2000/svg" xmlns:xlink="http://www.w3.org/1999/xlink">
<defs>
<clipPath id="c0_2"><path d="M-.2 1286.6v-57.8h910v57.8Z"/></clipPath>
<style type="text/css"><![CDATA[
.g0_2{
fill: #CFC;
}
.g1_2{
fill: #70AD47;
}
.g2_2{
fill: none;
stroke: #000;
stroke-width: 0.152;
stroke-linecap: square;
stroke-miterlimit: 10;
}
.g3_2{
fill: #FCF;
}
.g4_2{
fill: #FFDFFF;
}
.g5_2{
fill: none;
stroke: #000;
stroke-width: 1.255;
stroke-linecap: square;
stroke-miterlimit: 10;
}
.g6_2{
fill: #000;
}
.g7_2{
fill: none;
stroke: #000;
stroke-width: 2.546;
stroke-linecap: square;
stroke-miterlimit: 10;
}
.g8_2{
fill: #CCF;
}
.g9_2{
fill: #A6A6FF;
}
.ga_2{
fill: none;
stroke: #000;
stroke-width: 1.236;
stroke-linecap: square;
stroke-miterlimit: 10;
}
.gb_2{
fill: #FC9;
}
.gc_2{
fill: #FB7;
}
.gd_2{
fill: none;
stroke: #000;
stroke-width: 1.233;
stroke-linecap: square;
stroke-miterlimit: 10;
}
.ge_2{
fill: #6FF;
}
.gf_2{
fill: none;
stroke: #000;
stroke-width: 1.246;
stroke-linecap: square;
stroke-miterlimit: 10;
}
.gg_2{
fill: #C6FFFF;
}
.gh_2{
fill: none;
stroke: #000;
stroke-width: 1.254;
stroke-linecap: square;
stroke-miterlimit: 10;
}
.gi_2{
fill: none;
stroke: #000;
stroke-width: 2.545;
stroke-linecap: square;
stroke-miterlimit: 10;
}
.gj_2{
fill: none;
stroke: #000;
stroke-width: 0.911;
stroke-linecap: square;
stroke-miterlimit: 10;
}
.gk_2{
fill: none;
stroke: #000;
stroke-width: 1.257;
stroke-linecap: square;
stroke-miterlimit: 10;
}
.gl_2{
fill: none;
stroke: #00F;
stroke-width: 1.257;
stroke-linecap: square;
stroke-miterlimit: 10;
}
.gm_2{
fill: none;
stroke: #000;
stroke-width: 2.55;
stroke-linecap: square;
stroke-miterlimit: 10;
}
.gn_2{
fill: #F90;
}
]]></style>
</defs>
<image clip-path="url(#c0_2)" preserveAspectRatio="none" x="-2" y="1229" width="930" height="128" xlink:href="img/1.jpg"/>
<path fill-rule="evenodd" d="M57.4 91.8H865.5v-24H57.4v24Z" class="g0_2"/>
<path d="M65.3 91.8H857.6v-24H65.3v24Z" class="g0_2"/>
<path d="M56.7 67.8h.7v-.7h-.7v.7Z" class="g1_2"/>
<path d="M56.7 67.8h.7v-.7h-.7v.7Z" class="g1_2"/>
<path d="M57.4 67.8H865.5v-.7H57.4v.7Z" class="g1_2"/>
<path d="M865.5 67.8h.8v-.7h-.8v.7Z" class="g1_2"/>
<path d="M865.5 67.8h.8v-.7h-.8v.7Z" class="g1_2"/>
<path d="M56.7 91.8h.7v-24h-.7v24Z" class="g1_2"/>
<path d="M865.5 91.8h.8v-24h-.8v24Z" class="g1_2"/>
<path d="M365.1 204.7l1 -2.2l.4 -1.1l.3 -.6l.2 -.5l.8 -2.2l.8 -2.2l.2 -.6V195l.1 -.1v-.1l.4 -1.1l.6 -2.2l.5 -2.3l.3 -1.1l.2 -1.1m.8 -24l-.5 -2.6l-.1 -.6l-.1 -.3v-.3l-.3 -1.3l-.6 -2.5l-.7 -2.6l-.9 -2.6l-.8 -2.6l-1 -2.6l-.5 -1.4l-.5 -1.2M183.3 162.6l-.4 -2.6l-.2 -.6l-.1 -.4v-.3l-.2 -1.2l-.7 -2.6l-.7 -2.5l-.8 -2.7l-.9 -2.5l-.9 -2.7l-.5 -1.3l-.5 -1.3m0 60.3l.9 -2.2l.5 -1.1l.2 -.5l.3 -.5l.8 -2.2l.8 -2.2l.2 -.6v-.3l.1 -.2l.1 -.1l.3 -1.1l.6 -2.2l.6 -2.2l.2 -1.2l.2 -1.1" class="g2_2"/>
<path d="M142.2 155.5l-3 -.1l-1.5 -.2l-1.4 -.1l-1.4 -.3l-1.3 -.1l-1.3 -.3l-1.3 -.3l-2.5 -.6l-2.4 -.8l-1.2 -.5l-1 -.4l-1.1 -.5l-1 -.4l-1 -.5l-.8 -.5l-.8 -.5l-.8 -.6l-.6 -.5l-.6 -.5l-.5 -.6l-.5 -.6l-.7 -1.2l-.2 -.6l-.2 -.6l-.1 -.7v-.6l.1 -1.3l.2 -.7l.2 -.6l.7 -1.2l.5 -.6l.5 -.5l.5 -.6l.7 -.6l1.6 -1l.8 -.5l.9 -.6l2.2 -.9l2.2 -.9l2.4 -.7l2.5 -.7l1.3 -.3l1.3 -.2l1.3 -.2l1.4 -.2l2.9 -.3l3 -.2h6.2l2.9 .2l2.9 .3l1.4 .2l1.4 .2l1.3 .2l1.3 .3l1.2 .3l1.3 .4l1.2 .3l1.2 .4l2.3 .9l1.8 .8l.9 .5l.7 .4l.8 .5l.6 .4l1.3 1l.5 .5l.4 .5l.8 1l.6 1.1l.2 .5l.2 .6l.1 .5v.9l-.1 .6l-.1 .7l-.2 .6l-.1 .2l-.1 .2v.2l-.3 .6l-.4 .5l-.2 .2l-.1 .1l-.2 .3l-.5 .6l-.6 .5l-.7 .5l-.7 .6l-.2 .1l-.2 .1l-.4 .3l-.4 .2l-.5 .3l-.9 .5l-.9 .4l-1.1 .5l-.3 .1l-.3 .1l-.6 .2l-1.1 .5l-1.2 .4H163l-.3 .1l-.6 .3l-.6 .1l-.4 .1l-.3 .1l-.6 .1l-.3 .1l-.3 .1l-.4 .1h-.3l-.6 .2l-1.3 .3h-.7l-.4 .1h-.3l-1.4 .3l-1.4 .1l-1.5 .2h-1.9l-.3 .1h-1.9l-.4 .1l-1.5 .1Z" class="g3_2"/>
<path d="M115 142.9v.6l.1 .7l.2 .6l.2 .6l.7 1.2l.5 .6l.5 .6l.6 .5l.6 .5l.8 .6l.8 .5l.8 .5l1 .5l1 .4l1.1 .5l1 .4l1.2 .5l2.4 .8l2.5 .6l1.3 .3l1.3 .3l1.3 .1l1.4 .3l1.4 .1l1.5 .2l3 .1l3.1 .2l1.5 -.1l.4 -.1h1.9l.3 -.1h1.9l1.5 -.2l1.4 -.1l1.4 -.3h.3l.4 -.1h.7l1.3 -.3l.6 -.2h.3l.4 -.1l.3 -.1l.3 -.1l.6 -.1l.3 -.1l.4 -.1l.6 -.1l.6 -.3l.3 -.1h.3l1.2 -.4l1.1 -.5l.6 -.2l.3 -.1l.3 -.1l1.1 -.5l.9 -.4l.9 -.5l.5 -.3l.4 -.2l.4 -.3l.2 -.1l.2 -.1l.7 -.6l.7 -.5l.6 -.5l.5 -.6l.2 -.3l.1 -.1l.2 -.2l.4 -.5l.3 -.6v-.2l.1 -.2l.1 -.2l.2 -.6l.1 -.7l.1 -.6l-.2 56.1l-.2 -.6l-.2 -.5l-.3 -.5l-.3 -.5l-.8 -1l-.4 -.5l-.6 -.5l-.5 -.5l-.6 -.4l-.7 -.5l-.7 -.4l-1.6 -.9l-.9 -.4l-.9 -.3l-2.3 -.9l-1.2 -.4l-1.2 -.4l-1.3 -.3l-1.2 -.3l-1.3 -.3l-1.3 -.2l-1.4 -.3l-1.4 -.2l-2.9 -.2l-2.9 -.2l-3.1 -.1l-3.1 .1l-3 .2l-2.9 .2l-1.4 .2l-1.3 .3l-1.3 .2l-1.3 .3l-2.5 .6l-2.4 .8l-2.2 .9l-1.1 .4l-1 .5l-1 .5l-.8 .5l-1.6 1l-.6 .5l-.6 .6l-.5 .5l-.5 .6l-.7 1.2l-.2 .6l-.2 .6l-.1 .7v.6Z" class="g4_2"/>
<path d="M142.2 213.3l-3 -.2l-1.5 -.1l-1.4 -.2l-1.4 -.2l-1.3 -.2l-1.3 -.3l-1.3 -.2l-2.5 -.7l-2.4 -.8l-1.2 -.4l-1 -.4l-1.1 -.5l-1.1 -.5l-.9 -.5l-.8 -.5l-.9 -.5l-.7 -.6l-.7 -.5l-.5 -.6l-.5 -.5l-.5 -.6l-.7 -1.2l-.2 -.7l-.2 -.5l-.1 -1.3v-.8l.1 -.7l.2 -.6l.2 -.6l.7 -1.2l.5 -.6l.5 -.5l.6 -.6l.6 -.5l1.6 -1l.8 -.5l1 -.5l1 -.5l1.1 -.4l2.2 -.9l2.4 -.8l2.5 -.6l1.3 -.3l1.3 -.2l1.3 -.3l1.4 -.2l2.9 -.2l3 -.2l3.1 -.1l3.1 .1l2.9 .2l2.9 .2l1.4 .2l1.4 .3l1.3 .2l1.3 .3l1.2 .3l1.3 .3l1.2 .4l1.2 .4l2.3 .9l.9 .3l.9 .4l1.6 .9l.7 .4l.7 .5l.6 .4l.5 .5l.6 .5l.4 .5l.8 1l.3 .5l.3 .5l.2 .5l.2 .6l.1 .7l.1 .8v.6l-.2 .7l-.1 .5l-.3 .7l-.3 .6l-.4 .6l-.5 .6l-.4 .5l-.6 .6l-.7 .5l-.8 .6l-.2 .1l-.2 .1l-.3 .3l-.5 .2l-.4 .3l-.9 .5l-1 .5l-1.1 .5l-.3 .1l-.3 .1l-.6 .2l-1.1 .4l-1.2 .4l-.3 .1l-.3 .1l-.6 .2l-.6 .1l-.4 .1l-.3 .1l-.6 .2h-.3l-.3 .2h-.4l-.3 .1l-.6 .1l-1.3 .3l-.7 .1h-.4l-.3 .1l-1.4 .2l-1.4 .2l-1.5 .1l-1.5 .1h-.7l-.7 .1h-1.6l-1.5 .1Z" class="g4_2"/>
<path d="M175.5 199.1l-.2 -.6l-.3 -.6l-.3 -.6l-.3 -.5m-1.8 -1.9l-1 -.7l-1.1 -.8m-2.2 -1.2l-1.5 -.6l-.9 -.4m-2.3 -.9l-2.4 -.7m-2.5 -.6l-1.2 -.2l-1.3 -.2m-2.5 -.3l-2.5 -.3m-2.6 -.1l-2.5 -.1m-2.8 0l-2.5 .1m-2.4 .3l-1.3 .1l-1.3 .2m-2.4 .3l-2.5 .5m-2.5 .7l-1.3 .3l-1.3 .5m-1.9 .8l-1.2 .5l-1.1 .5m-2.1 1.3l-1.1 .7l-.9 .9m-1.7 2l-.3 .6l-.2 .6l-.4 1.3m.1 -57.1v57.7l.1 1.3l.2 .5l.2 .7l.7 1.2l.5 .6l.5 .5l.5 .6l.7 .5l.7 .6l.9 .5l.8 .5l.9 .5l1.1 .5l1.1 .5l1 .4l1.2 .4l2.4 .8l2.5 .7l1.3 .2l1.3 .3l1.3 .2l1.4 .2l1.4 .2l1.5 .1l3 .2l3.1 .1l1.5 -.1h1.6l.7 -.1h.7l1.5 -.1l1.5 -.1l1.4 -.2l1.4 -.2l.3 -.1h.4l.7 -.1l1.3 -.3l.6 -.1l.3 -.1h.4l.3 -.2h.3l.6 -.2l.3 -.1l.4 -.1l.6 -.1l.6 -.2l.3 -.1l.3 -.1l1.2 -.4l1.1 -.4l.6 -.2l.3 -.1l.3 -.1l1.1 -.5l1 -.5l.9 -.5l.4 -.3l.5 -.2l.3 -.3l.2 -.1l.2 -.1l.8 -.6l.7 -.5l.6 -.6l.4 -.5l.5 -.6l.4 -.6l.3 -.6l.3 -.7l.1 -.5l.2 -.7v-.6l-.1 -.8l-.1 -.7l.2 -56.1M115 142.9v.6l.1 .7l.2 .6l.2 .6l.7 1.2l.5 .6l.5 .6l.6 .5l.6 .5l.8 .6l.8 .5l.8 .5l1 .5l1 .4l1.1 .5l1 .4l1.2 .5l2.4 .8l2.5 .6l1.3 .3l1.3 .3l1.3 .1l1.4 .3l1.4 .1l1.5 .2l3 .1l3.1 .2l1.5 -.1l.4 -.1h1.9l.3 -.1h1.9l1.5 -.2l1.4 -.1l1.4 -.3h.3l.4 -.1h.7l1.3 -.3l.6 -.2h.3l.4 -.1l.3 -.1l.3 -.1l.6 -.1l.3 -.1l.4 -.1l.6 -.1l.6 -.3l.3 -.1h.3l1.2 -.4l1.1 -.5l.6 -.2l.3 -.1l.3 -.1l1.1 -.5l.9 -.4l.9 -.5l.5 -.3l.4 -.2l.4 -.3l.2 -.1l.2 -.1l.7 -.6l.7 -.5l.6 -.5l.5 -.6l.2 -.3l.1 -.1l.2 -.2l.4 -.5l.3 -.6v-.2l.1 -.2l.1 -.2l.2 -.6l.1 -.7l.1 -.6m0 0v-.9l-.1 -.5l-.2 -.6l-.2 -.5l-.6 -1.1l-.8 -1l-.4 -.5l-.5 -.5l-1.3 -1L171 136l-.8 -.5l-.7 -.4l-.9 -.5l-1.8 -.8l-2.3 -.9l-1.2 -.4l-1.2 -.3l-1.3 -.4l-1.2 -.3l-1.3 -.3L157 131l-1.4 -.2l-1.4 -.2l-2.9 -.3l-2.9 -.2h-6.2l-3 .2l-2.9 .3l-1.4 .2l-1.3 .2l-1.3 .2l-1.3 .3l-2.5 .7l-2.4 .7l-2.2 .9l-2.2 .9l-.9 .6l-.8 .5l-1.6 1l-.7 .6l-.5 .6l-.5 .5l-.5 .6l-.7 1.2l-.2 .6l-.2 .7l-.1 1.3" class="g5_2"/>
<path d="M253.1 140.7H363.7v65.9H253.1V140.7Z" class="g3_2"/>
<path d="M253.1 206.6H363.7V140.7H253.1v65.9Z" class="g5_2"/>
<path d="M290.4 140.3h-1.1l-1.1 -.2l-1 -.2l-2.1 -.5l-1 -.3l-1 -.4l-.9 -.4l-1 -.5l-.9 -.5l-.8 -.6l-.9 -.7l-.9 -.6l-.8 -.8l-.8 -.7l-.8 -.9l-.7 -.9l-.7 -.8l-.6 -.9l-.6 -.9l-.5 -.9l-.5 -1l-.4 -.9l-.3 -1.1l-.4 -1l-.3 -1l-.1 -1l-.2 -1.1l-.2 -1.1v-4.5l.4 -2.2l.4 -2.1l.7 -2l.9 -1.9l1.1 -1.9l.6 -.9l.7 -.9l1.5 -1.6l1.6 -1.6l.9 -.7l.9 -.6l.8 -.6l.9 -.5l1.9 -.9l2 -.7l2.1 -.5l2.1 -.3l2.2 -.1h1.1l1.1 .1l1.1 .1l1.1 .2l1 .2l1 .3l1 .3l1 .4l.9 .4l.9 .5l.9 .5l1 .6l.8 .6l.8 .7l.9 .7l.8 .9l.8 .8l.7 .8l.6 .9l.7 .9l.6 .9l.5 1l.9 1.9l.4 1l.3 1l.5 2.1l.2 1.1l.1 1.1l.1 1.1v2.3l-.1 1.1l-.1 1.1l-.2 1.1l-.2 1l-.2 .5v.2l-.1 .3l-.1 .3l-.1 .2l-.1 .5l-.4 1.1l-.4 .9l-.5 1l-.3 .4l-.1 .2l-.1 .1v.2l-.6 .9l-.7 .9l-.6 .8l-.7 .9l-.8 .9l-.8 .7l-.9 .8l-.8 .6l-.8 .7l-1 .6h-.1l-.1 .1l-.2 .1l-.5 .3l-.9 .5l-.9 .4l-1 .4l-.5 .2h-.3l-.2 .1l-.3 .1h-.2l-.5 .2l-1 .2l-1.1 .2l-1.1 .2h-1.1l-1.1 .1Z" class="g3_2"/>
<path d="M306.9 102.4l-.8 -.9l-.9 -.7l-.8 -.7l-.8 -.6l-1 -.6l-.9 -.5l-.9 -.5l-.9 -.4l-1 -.4l-1 -.3l-1 -.3l-1 -.2l-1.1 -.2L293.7 96l-1.1 -.1h-1.1l-2.2 .1l-2.1 .3l-2.1 .5l-2 .7l-1.9 .9l-.9 .5l-.8 .6l-.9 .6l-.9 .7l-1.6 1.6l-1.5 1.6l-.7 .9l-.6 .9l-1.1 1.9l-.9 1.9l-.7 2l-.4 2.1l-.4 2.2v4.5l.2 1.1l.2 1.1l.1 1l.3 1l.4 1l.3 1.1l.4 .9l.5 1l.5 .9l.6 .9l.6 .9l.7 .8l.7 .9l.8 .9l.8 .7l.8 .8l.9 .6l.9 .7l.8 .6l.9 .5l1 .5l.9 .4l1 .4l1 .3l2.1 .5l1 .2l1.1 .2h1.1l1.1 .1l1.1 -.1h1.1l1.1 -.2l1.1 -.2l1 -.2l.5 -.2h.2l.3 -.1l.2 -.1h.3l.5 -.2l1 -.4l.9 -.4l.9 -.5l.5 -.3l.2 -.1l.1 -.1h.1l1 -.6l.8 -.7l.8 -.6l.9 -.8l.8 -.7l.8 -.9l.7 -.9l.6 -.8l.7 -.9l.6 -.9v-.2l.1 -.1l.1 -.2l.3 -.4l.5 -1l.4 -.9l.4 -1.1l.1 -.5l.1 -.2l.1 -.3l.1 -.3v-.2l.2 -.5l.2 -1l.2 -1.1l.1 -1.1l.1 -1.1V117l-.1 -1.1l-.1 -1.1l-.2 -1.1l-.5 -2.1l-.3 -1l-.4 -1l-.9 -1.9l-.5 -1l-.6 -.9l-.7 -.9l-.6 -.9l-.7 -.8l-.8 -.8" class="g5_2"/>
<path d="M342.6 252.1h-1.1l-1.1 -.2l-1 -.2l-2.1 -.5l-1 -.3l-1 -.4l-.9 -.4l-1 -.5l-.9 -.5l-.9 -.6l-.9 -.7l-.8 -.6l-.8 -.8l-.8 -.7l-.8 -.9l-.7 -.9l-.7 -.8l-.6 -.9l-.6 -.9l-.5 -1l-.5 -.9l-.4 -1l-.4 -1l-.3 -1l-.3 -1l-.1 -1.1l-.3 -1.1l-.1 -1v-4.6l.4 -2.1l.4 -2.1l.7 -2l.9 -2l1.1 -1.8l.6 -.9l.7 -.9l1.5 -1.6l1.6 -1.6l.8 -.7l.9 -.6l.9 -.6l.9 -.5l1.9 -.9l2 -.7l2.1 -.5l2.1 -.3l2.2 -.1h1.1l1.1 .1l1.1 .1l1.1 .2l1 .2l1 .3l1 .3l1 .4l.9 .4l.9 .5l.9 .5l.9 .6l.9 .6l.8 .7l.9 .7l.8 .9l.8 .8l.7 .8l.6 .9l.7 .9l.6 .9l.5 .9l.9 2l.4 1l.3 1l.5 2.1l.2 1l.1 1.1l.1 1.2V231l-.1 1.2l-.1 1l-.2 1.1l-.2 1.1l-.2 .5l-.1 .2v.3l-.1 .2l-.1 .3l-.1 .5l-.4 1l-.4 1l-.5 .9l-.3 .5l-.1 .2l-.1 .1v.2l-.6 .9l-.7 .9l-.6 .8l-.7 .9l-.8 .9l-.8 .7l-.9 .8l-.8 .6l-.9 .7l-.9 .6h-.1l-.1 .1l-.3 .1l-.4 .3l-.9 .5l-.9 .4l-1 .4l-.5 .1l-.3 .1l-.2 .1l-.3 .1h-.2l-.5 .2l-1 .2l-1.1 .2l-1.1 .2h-1.1l-1.1 .1Z" class="g3_2"/>
<path d="M359.1 214.2l-.8 -.9l-.9 -.7l-.8 -.7l-.9 -.6l-.9 -.6l-.9 -.5l-.9 -.5l-.9 -.4l-1 -.4l-1 -.3l-1 -.3l-1 -.2l-1.1 -.2l-1.1 -.1l-1.1 -.1h-1.1l-2.2 .1l-2.1 .3l-2.1 .5l-2 .7l-1.9 .9l-.9 .5l-.9 .6l-.9 .6l-.8 .7l-1.6 1.6l-1.5 1.6l-.7 .9l-.6 .9l-1.1 1.8l-.9 2l-.7 2l-.4 2.1l-.4 2.1v4.6l.1 1l.3 1.1l.1 1.1l.3 1l.3 1l.4 1l.4 1l.5 .9l.5 1l.6 .9l.6 .9l.7 .8l.7 .9l.8 .9l.8 .7l.8 .8l.8 .6l.9 .7l.9 .6l.9 .5l1 .5l.9 .4l1 .4l1 .3l2.1 .5l1 .2l1.1 .2h1.1l1.1 .1l1.1 -.1h1.1l1.1 -.2l1.1 -.2l1 -.2l.5 -.2h.2l.3 -.1l.2 -.1l.3 -.1l.5 -.1l1 -.4l.9 -.4l.9 -.5l.4 -.3l.3 -.1l.1 -.1h.1l.9 -.6l.9 -.7l.8 -.6l.9 -.8l.8 -.7l.8 -.9l.7 -.9l.6 -.8l.7 -.9l.6 -.9v-.2l.1 -.1l.1 -.2l.3 -.5l.5 -.9l.4 -1l.4 -1l.1 -.5l.1 -.3l.1 -.2v-.3l.1 -.2l.2 -.5l.2 -1.1l.2 -1.1l.1 -1l.1 -1.2v-2.2l-.1 -1.2l-.1 -1.1l-.2 -1l-.5 -2.1l-.3 -1l-.4 -1l-.9 -2l-.5 -.9l-.6 -.9l-.7 -.9l-.6 -.9l-.7 -.8l-.8 -.8" class="g5_2"/>
<path d="M171.2 131v-.6l-.1 -.7l-.1 -.4l-.2 -.4l-.1 -.3h-.1l-.1 -.2l-.1 -.1l-.2 -.1L170 128l-.5 -.3l-.7 -.2l-.7 -.1h-.8l8.4 -3.6l-4.5 8Z" class="g6_2"/>
<path d="M157.6 140.3l13 -11.7" class="g5_2"/>
<path d="M100.7 171.8l2.2 -.8l2.2 -.7l4.2 -1.5l-.6 .6l-.4 .6l-.4 .6l-.1 .6l-.1 .5v.7l.1 .4l.1 .2l.1 .3l.4 .5l.4 .5l.5 .5Z" class="g6_2"/>
<path d="M125.1 172.1H107.7m67.8 29.2h-29M313.1 118.6H292.8" class="g5_2"/>
<path d="M299.2 149.4l-5.8 -.4l-5.6 -.4l-2.9 -.3l-2.8 -.3l-5.7 -.8l-5.7 -.9l-5.7 -1l-5.6 -1.2l-5.7 -1.3m110.1 0l-2.7 .6l-1.4 .3l-.7 .1l-.6 .2l-5.4 1.1l-5.4 1.1l-5.4 .9l-2.7 .3l-2.7 .4l-5.4 .6l-5.4 .5l-5.3 .4" class="g2_2"/>
<path d="M231.1 191.9l.2 -.4l.2 -.5l.3 -.9l.3 -.9l.1 -.6v-1.4l-.1 -.9l-.2 -1.1l-.3 -1l-.1 -.3l-.1 -.2v-.1l-.3 -.5l-.5 -1l8.6 5.4l-8.6 5.4Z" class="g6_2"/>
<path d="M202.7 187.5h29.5" class="g7_2"/>
<path d="M56.7 92.6h.7v-.8h-.7v.8Z" class="g1_2"/>
<path d="M57.4 92.6H390.3v-.8H57.4v.8Z" class="g1_2"/>
<path d="M390.3 92.6h.7v-.8h-.7v.8Z" class="g1_2"/>
<path d="M391.1 92.6H865.5v-.8H391.1v.8Z" class="g1_2"/>
<path d="M865.5 92.6h.8v-.8h-.8v.8Z" class="g1_2"/>
<path d="M56.7 116.4h.7V92.6h-.7v23.8Z" class="g1_2"/>
<path d="M390.3 116.4h.7V92.6h-.7v23.8Z" class="g1_2"/>
<path d="M865.5 116.4h.8V92.6h-.8v23.8Z" class="g1_2"/>
<path d="M56.7 117.1h.7v-.7h-.7v.7Z" class="g1_2"/>
<path d="M390.3 117.1h.7v-.7h-.7v.7Z" class="g1_2"/>
<path d="M391.1 117.1H865.5v-.7H391.1v.7Z" class="g1_2"/>
<path d="M865.5 117.1h.8v-.7h-.8v.7Z" class="g1_2"/>
<path d="M56.7 141h.7V117.1h-.7V141Z" class="g1_2"/>
<path d="M390.3 141h.7V117.1h-.7V141Z" class="g1_2"/>
<path d="M865.5 141h.8V117.1h-.8V141Z" class="g1_2"/>
<path d="M56.7 141.7h.7V141h-.7v.7Z" class="g1_2"/>
<path d="M390.3 141.7h.7V141h-.7v.7Z" class="g1_2"/>
<path d="M391.1 141.7H865.5V141H391.1v.7Z" class="g1_2"/>
<path d="M865.5 141.7h.8V141h-.8v.7Z" class="g1_2"/>
<path d="M56.7 165.5h.7V141.7h-.7v23.8Z" class="g1_2"/>
<path d="M390.3 165.5h.7V141.7h-.7v23.8Z" class="g1_2"/>
<path d="M865.5 165.5h.8V141.7h-.8v23.8Z" class="g1_2"/>
<path d="M56.7 166.3h.7v-.8h-.7v.8Z" class="g1_2"/>
<path d="M390.3 166.3h.7v-.8h-.7v.8Z" class="g1_2"/>
<path d="M391.1 166.3H865.5v-.8H391.1v.8Z" class="g1_2"/>
<path d="M865.5 166.3h.8v-.8h-.8v.8Z" class="g1_2"/>
<path d="M56.7 190.3h.7v-24h-.7v24Z" class="g1_2"/>
<path d="M390.3 190.3h.7v-24h-.7v24Z" class="g1_2"/>
<path d="M865.5 190.3h.8v-24h-.8v24Z" class="g1_2"/>
<path d="M56.7 191h.7v-.7h-.7v.7Z" class="g1_2"/>
<path d="M390.3 191h.7v-.7h-.7v.7Z" class="g1_2"/>
<path d="M391.1 191H865.5v-.7H391.1v.7Z" class="g1_2"/>
<path d="M865.5 191h.8v-.7h-.8v.7Z" class="g1_2"/>
<path d="M56.7 256.3h.7V191h-.7v65.3Z" class="g1_2"/>
<path d="M56.7 257h.7v-.7h-.7v.7Z" class="g1_2"/>
<path d="M56.7 257h.7v-.7h-.7v.7Z" class="g1_2"/>
<path d="M57.4 257H390.3v-.7H57.4v.7Z" class="g1_2"/>
<path d="M390.3 256.3h.7V191h-.7v65.3Z" class="g1_2"/>
<path d="M390.3 257h.7v-.7h-.7v.7Z" class="g1_2"/>
<path d="M391.1 257H865.5v-.7H391.1v.7Z" class="g1_2"/>
<path d="M865.5 256.3h.8V191h-.8v65.3Z" class="g1_2"/>
<path d="M865.5 257h.8v-.7h-.8v.7Z" class="g1_2"/>
<path d="M865.5 257h.8v-.7h-.8v.7Z" class="g1_2"/>
<path fill-rule="evenodd" d="M57.4 439.3h95.3V415.4H57.4v23.9Z" class="g0_2"/>
<path d="M65.3 438h79.5V416.9H65.3V438Z" class="g0_2"/>
<path fill-rule="evenodd" d="M153.6 439.3H271V415.4H153.6v23.9Z" class="g0_2"/>
<path d="M161.3 439.3H263.1V415.4H161.3v23.9Z" class="g0_2"/>
<path fill-rule="evenodd" d="M271.7 439.3H389.2V415.4H271.7v23.9Z" class="g0_2"/>
<path d="M279.6 439.3H381.3V415.4H279.6v23.9Z" class="g0_2"/>
<path fill-rule="evenodd" d="M390 439.3H507.3V415.4H390v23.9Z" class="g0_2"/>
<path d="M397.8 439.3H499.4V415.4H397.8v23.9Z" class="g0_2"/>
<path fill-rule="evenodd" d="M508 439.3H625.5V415.4H508v23.9Z" class="g0_2"/>
<path d="M515.9 439.3H617.7V415.4H515.9v23.9Z" class="g0_2"/>
<path fill-rule="evenodd" d="M626.3 439.3H743.6V415.4H626.3v23.9Z" class="g0_2"/>
<path d="M634.1 439.3H735.7V415.4H634.1v23.9Z" class="g0_2"/>
<path fill-rule="evenodd" d="M744.3 439.3H861.9V415.4H744.3v23.9Z" class="g0_2"/>
<path d="M752.2 439.3H854V415.4H752.2v23.9Z" class="g0_2"/>
<path d="M56.7 415.4h.7v-.7h-.7v.7Z" class="g1_2"/>
<path d="M56.7 415.4h.7v-.7h-.7v.7Z" class="g1_2"/>
<path d="M57.4 415.4h95.3v-.7H57.4v.7Z" class="g1_2"/>
<path d="M152.7 415.4h.8v-.7h-.8v.7Z" class="g1_2"/>
<path d="M153.5 415.4H271v-.7H153.5v.7Z" class="g1_2"/>
<path d="M271 415.4h.7v-.7H271v.7Z" class="g1_2"/>
<path d="M271.7 415.4H389v-.7H271.7v.7Z" class="g1_2"/>
<path d="M389 415.4h.8v-.7H389v.7Z" class="g1_2"/>
<path d="M389.8 415.4H507.3v-.7H389.8v.7Z" class="g1_2"/>
<path d="M507.3 415.4h.7v-.7h-.7v.7Z" class="g1_2"/>
<path d="M508 415.4H625.5v-.7H508v.7Z" class="g1_2"/>
<path d="M625.5 415.4h.8v-.7h-.8v.7Z" class="g1_2"/>
<path d="M626.3 415.4H743.6v-.7H626.3v.7Z" class="g1_2"/>
<path d="M743.6 415.4h.7v-.7h-.7v.7Z" class="g1_2"/>
<path d="M744.3 415.4H861.9v-.7H744.3v.7Z" class="g1_2"/>
<path d="M861.9 415.4h.7v-.7h-.7v.7Z" class="g1_2"/>
<path d="M861.9 415.4h.7v-.7h-.7v.7Z" class="g1_2"/>
<path d="M56.7 439.3h.7V415.4h-.7v23.9Z" class="g1_2"/>
<path d="M152.7 439.3h.8V415.4h-.8v23.9Z" class="g1_2"/>
<path d="M271 439.3h.7V415.4H271v23.9Z" class="g1_2"/>
<path d="M389 439.3h.8V415.4H389v23.9Z" class="g1_2"/>
<path d="M507.3 439.3h.7V415.4h-.7v23.9Z" class="g1_2"/>
<path d="M625.5 439.3h.8V415.4h-.8v23.9Z" class="g1_2"/>
<path d="M743.6 439.3h.7V415.4h-.7v23.9Z" class="g1_2"/>
<path d="M861.9 439.3h.7V415.4h-.7v23.9Z" class="g1_2"/>
<path fill-rule="evenodd" d="M57.4 524.3h95.3V440H57.4v84.3Z" class="g0_2"/>
<path fill-rule="evenodd" d="M65.3 494.1h79.5V470.2H65.3v23.9Z" class="g0_2"/>
<path d="M187.3 490.8h29.8l1.3 27l-.2 .3Z" class="g8_2"/>
<path d="M236 490.8h.1v.2Z" class="g8_2"/>
<path d="M217.1 490.8H236l.1 .2l-17.7 26.8Z" class="g9_2"/>
<path d="M217.1 490.8l-2 -45.3L236 490.8Z" class="g9_2"/>
<path d="M187.4 490.8l27.7 -45.3l2 45.3Z" class="g8_2"/>
<path d="M187.3 490.8l30.9 27.3l.2 -.3L236.1 491v-.2H236m.1 .2l-.1 -.2L215.1 445.5l2 45.3l1.3 27m17.6 -27h-2.5m-2.5 0h-2.4m-2.6 0h-2.4m-2.5 0h-2.5m-2.6 0h-2.5m-2.5 0h-2.5m-2.4 0h-2.6m-2.4 0h-2.5m-2.5 0h-2.5m-2.5 0h-2.5m26.5 -45.3l-27.7 45.3h-.1" class="ga_2"/>
<path d="M322.5 448.8l-.2 1.6H322Z" class="gb_2"/>
<path d="M323 449.3l.8 .9l-.5 .1Z" class="gb_2"/>
<path d="M337 491.9L323.3 450.3l.5 -.1l35.7 41.7Z" class="gc_2"/>
<path d="M315.4 491.9l6.9 -41.5l1 -.1L337 491.9Z" class="gb_2"/>
<path d="M322 450.4h.3l-6.9 41.5l-15.7 22.7Z" class="gb_2"/>
<path d="M299.7 514.6l15.7 -22.7H337l7.5 22.7h-.1Z" class="gb_2"/>
<path d="M337 491.9h22.5l.3 .3l.1 .1l-15.4 22.3Z" class="gc_2"/>
<path d="M322.3 450.4l.2 -1.6l-.5 1.6m1.8 -.2l-.5 .1m0 0l-1 .1m1 -.1l-.3 -1l.8 .9m-1.5 .2H322m37.5 41.5H357m-2.4 0h-2.5m-2.5 0h-2.5m-2.5 0h-2.5m-2.5 0h-2.5m-2.5 0h-2.4m-2.5 0h-2.5m-2.5 0h-2.5m-2.5 0h-2.5m-2.2 .6l-1.5 2m-1.5 2.1l-1.4 2m-1.5 2l-1.4 2.1m-1.3 2.1l-1.4 2m-1.5 2.1l-1.3 2.1m-1.6 2.1l-.9 1.5m59.8 -22.7l.3 .3m0 0l.1 .1m-15.4 22.3L337 491.9L323.3 450.3m.5 -.1l35.7 41.7M322.3 450.4l-.4 2.5m-.4 2.6l-.3 2.5m-.5 2.6l-.4 2.6m-.5 2.5l-.3 2.6m-.5 2.6l-.4 2.6m-.5 2.5l-.4 2.6m-.5 2.5l-.5 2.6m-.3 2.6l-.5 2.6m-.4 2.5l-.1 .5m-15.7 22.7h44.8l15.4 -22.3M322 450.4l-22.3 64.2" class="gd_2"/>
<path d="M429.6 519.2L418.4 499l18 -7.6l-6.7 27.8Z" class="ge_2"/>
<path d="M429.7 519.4v-.2l6.7 -27.8l11.5 -4.9l.1 -.1l.1 .1l11.3 4.8l6.9 28.1Z" class="ge_2"/>
<path d="M459.4 491.3L447.9 444v-.2L477.6 499Z" class="ge_2"/>
<path d="M448.1 486.5l-.1 -.1h-.1V444l11.5 47.3Z" class="ge_2"/>
<path d="M447.6 443.3l.3 .5v.2l-11.5 47.4l-18 7.6Z" class="ge_2"/>
<path d="M466.3 519.4l-6.9 -28.1l18.2 7.7l-11.2 20.4Z" class="ge_2"/>
<path d="M447.9 444v42.5l-11.5 4.9Z" class="ge_2"/>
<path d="M418.4 499l11.2 20.2h.1m0 0v.2h36.6m0 0l-6.9 -28.1L447.9 444v-.2v.2l-11.5 47.4l-6.7 27.8m18.2 -75.4v.2m29.7 55L447.9 443.8m0 0l-.3 -.5L418.4 499m59.3 0l-2.4 -1m-2.2 -1l-2.3 -1m-2.4 -1l-2.4 -.9m-2.2 -1l-2.4 -.9m-2.1 -1l-2.3 -1m-2.4 -1l-2.4 -1m-2.3 -.9l-1.8 -.8m-29.7 12.6l2.3 -1.1m2.3 -1l2.3 -1m2.4 -.9l2.2 -1m2.4 -1l2.4 -.9m2.1 -.9l2.3 -1m2.2 -1l2.4 -1m2.2 -1l2 -.8l.1 -.1m.1 .1l-.1 -.1M447.9 444v2.5m0 2.6v2.5m0 2.6v2.5m0 2.6v2.5m0 2.6v2.5m0 2.5V472m0 2.5v2.6m0 2.6v2.5m0 2.6v1.7m18.4 32.9h.1L477.6 499" class="gd_2"/>
<path d="M582.7 482.5h-.1l-17 -33.7l-.4 -2.5v-.4l29.6 54.6Z" class="g0_2"/>
<path d="M564.6 446.7l.3 .7l-7.5 34.8h-3.2l-.3 .4Z" class="g0_2"/>
<path d="M564.5 446.4l.1 .3l-10.7 35.9L538 499.8Z" class="g0_2"/>
<path d="M538 499.8l15.9 -17.2l.3 -.4h3.2l-7.5 35.2Z" class="g0_2"/>
<path d="M578 518.1l-6.3 -35.7l10.9 .1h.1l12.1 18l-16.3 17.6Z" class="g0_2"/>
<path d="M571.7 482.4l-6.1 -33.6l17 33.7Z" class="g0_2"/>
<path d="M557.4 482.2l7.5 -34.8l.7 1.4l6.1 33.6Z" class="g0_2"/>
<path d="M550.1 517.8l-.2 -.4l7.5 -35.2l14.3 .2l6.3 35.7Z" class="g0_2"/>
<path d="M565.2 445.9v.4m0 0l-.1 -.7l.1 .3m-.6 .8l.3 -1.2l-.4 .9m.1 .3l.3 .7m-.4 -1l.1 .3m.6 -.4l-.3 1.1m-11 35.2l-1.7 1.9m-1.8 1.9l-1.8 1.8m-1.7 2l-1.7 1.9m-1.8 1.9l-1.8 1.9m-1.7 1.9l-1.7 1.9m16 -17.5l-.3 .4m28.7 -.1h-2.5m-2.5 0H575m-2.5 -.1H570m-2.5 0H565m-2.5 -.1H560m-2.6 -.1h-2.5m39.9 18.3l-1.3 -2.1m-1.4 -2.1l-1.4 -2m-1.4 -2.1l-1.4 -2m-1.5 -2.1l-1.3 -2M583.7 484l-1 -1.5m0 0h-.1m-17 -33.7l6.1 33.6l6.3 35.7M565.6 448.8l1.1 2.3m1.2 2.3l1.1 2.3m1.2 2.3l1.1 2.3m1.1 2.3l1.1 2.3m1.2 2.3l1.1 2.3m1.1 2.4l1.3 2.2m1.1 2.4l1.3 2.3m1.2 2.3l.8 1.4M565.2 445.9l29.6 54.6M565.2 446.3l.4 2.5m-1.1 -2.4L538 499.8m26.6 -53.1l-.7 2.5m-.8 2.4l-.7 2.4m-.8 2.5l-.7 2.4m-.8 2.4l-.8 2.5m-.7 2.4l-.8 2.5m-.6 2.4l-.8 2.4m-.6 2.5l-.7 2.4m-.7 2.5l-.5 1.7m11 -35.2l-7.5 34.8l-7.5 35.2m15 -70l.7 1.4m-27.6 51l11.9 17.6l.2 .4l27.9 .3h.5l16.3 -17.6" class="gf_2"/>
<path d="M56.7 440h.7v-.7h-.7v.7Z" class="g1_2"/>
<path d="M57.4 440h95.3v-.7H57.4v.7Z" class="g1_2"/>
<path d="M152.7 440h.8v-.7h-.8v.7Z" class="g1_2"/>
<path d="M153.5 440H271v-.7H153.5v.7Z" class="g1_2"/>
<path d="M271 440h.7v-.7H271v.7Z" class="g1_2"/>
<path d="M271.7 440H389v-.7H271.7v.7Z" class="g1_2"/>
<path d="M389 440h.8v-.7H389v.7Z" class="g1_2"/>
<path d="M389.8 440H507.3v-.7H389.8v.7Z" class="g1_2"/>
<path d="M507.3 440h.7v-.7h-.7v.7Z" class="g1_2"/>
<path d="M508 440H625.5v-.7H508v.7Z" class="g1_2"/>
<path d="M625.5 440h.8v-.7h-.8v.7Z" class="g1_2"/>
<path d="M626.3 440H743.6v-.7H626.3v.7Z" class="g1_2"/>
<path d="M743.6 440h.7v-.7h-.7v.7Z" class="g1_2"/>
<path d="M744.3 440H861.9v-.7H744.3v.7Z" class="g1_2"/>
<path d="M861.9 440h.7v-.7h-.7v.7Z" class="g1_2"/>
<path d="M56.7 524.3h.7V440h-.7v84.3Z" class="g1_2"/>
<path d="M152.7 524.3h.8V440h-.8v84.3Z" class="g1_2"/>
<path d="M271 524.3h.7V440H271v84.3Z" class="g1_2"/>
<path d="M389 524.3h.8V440H389v84.3Z" class="g1_2"/>
<path d="M507.3 524.3h.7V440h-.7v84.3Z" class="g1_2"/>
<path d="M625.5 524.3h.8V440h-.8v84.3Z" class="g1_2"/>
<path d="M743.6 524.3h.7V440h-.7v84.3Z" class="g1_2"/>
<path d="M861.9 524.3h.7V440h-.7v84.3Z" class="g1_2"/>
<path fill-rule="evenodd" d="M57.4 548.9h95.3V525.1H57.4v23.8Z" class="g0_2"/>
<path d="M65.3 548.9h79.5V525.1H65.3v23.8Z" class="g0_2"/>
<path d="M56.7 525.1h.7v-.8h-.7v.8Z" class="g1_2"/>
<path d="M57.4 525.1h95.3v-.8H57.4v.8Z" class="g1_2"/>
<path d="M152.7 525.1h.8v-.8h-.8v.8Z" class="g1_2"/>
<path d="M153.5 525.1H271v-.8H153.5v.8Z" class="g1_2"/>
<path d="M271 525.1h.7v-.8H271v.8Z" class="g1_2"/>
<path d="M271.7 525.1H389v-.8H271.7v.8Z" class="g1_2"/>
<path d="M389 525.1h.8v-.8H389v.8Z" class="g1_2"/>
<path d="M389.8 525.1H507.3v-.8H389.8v.8Z" class="g1_2"/>
<path d="M507.3 525.1h.7v-.8h-.7v.8Z" class="g1_2"/>
<path d="M508 525.1H625.5v-.8H508v.8Z" class="g1_2"/>
<path d="M625.5 525.1h.8v-.8h-.8v.8Z" class="g1_2"/>
<path d="M626.3 525.1H743.6v-.8H626.3v.8Z" class="g1_2"/>
<path d="M743.6 525.1h.7v-.8h-.7v.8Z" class="g1_2"/>
<path d="M744.3 525.1H861.9v-.8H744.3v.8Z" class="g1_2"/>
<path d="M861.9 525.1h.7v-.8h-.7v.8Z" class="g1_2"/>
<path d="M56.7 548.9h.7V525.1h-.7v23.8Z" class="g1_2"/>
<path d="M152.7 548.9h.8V525.1h-.8v23.8Z" class="g1_2"/>
<path d="M271 548.9h.7V525.1H271v23.8Z" class="g1_2"/>
<path d="M389 548.9h.8V525.1H389v23.8Z" class="g1_2"/>
<path d="M507.3 548.9h.7V525.1h-.7v23.8Z" class="g1_2"/>
<path d="M625.5 548.9h.8V525.1h-.8v23.8Z" class="g1_2"/>
<path d="M743.6 548.9h.7V525.1h-.7v23.8Z" class="g1_2"/>
<path d="M861.9 548.9h.7V525.1h-.7v23.8Z" class="g1_2"/>
<path fill-rule="evenodd" d="M57.4 573.5h95.3V549.6H57.4v23.9Z" class="g0_2"/>
<path d="M65.3 573.5h79.5V549.6H65.3v23.9Z" class="g0_2"/>
<path d="M56.7 549.6h.7v-.7h-.7v.7Z" class="g1_2"/>
<path d="M57.4 549.6h95.3v-.7H57.4v.7Z" class="g1_2"/>
<path d="M152.7 549.6h.8v-.7h-.8v.7Z" class="g1_2"/>
<path d="M153.5 549.6H271v-.7H153.5v.7Z" class="g1_2"/>
<path d="M271 549.6h.7v-.7H271v.7Z" class="g1_2"/>
<path d="M271.7 549.6H389v-.7H271.7v.7Z" class="g1_2"/>
<path d="M389 549.6h.8v-.7H389v.7Z" class="g1_2"/>
<path d="M389.8 549.6H507.3v-.7H389.8v.7Z" class="g1_2"/>
<path d="M507.3 549.6h.7v-.7h-.7v.7Z" class="g1_2"/>
<path d="M508 549.6H625.5v-.7H508v.7Z" class="g1_2"/>
<path d="M625.5 549.6h.8v-.7h-.8v.7Z" class="g1_2"/>
<path d="M626.3 549.6H743.6v-.7H626.3v.7Z" class="g1_2"/>
<path d="M743.6 549.6h.7v-.7h-.7v.7Z" class="g1_2"/>
<path d="M744.3 549.6H861.9v-.7H744.3v.7Z" class="g1_2"/>
<path d="M861.9 549.6h.7v-.7h-.7v.7Z" class="g1_2"/>
<path d="M56.7 573.5h.7V549.6h-.7v23.9Z" class="g1_2"/>
<path d="M152.7 573.5h.8V549.6h-.8v23.9Z" class="g1_2"/>
<path d="M271 573.5h.7V549.6H271v23.9Z" class="g1_2"/>
<path d="M389 573.5h.8V549.6H389v23.9Z" class="g1_2"/>
<path d="M507.3 573.5h.7V549.6h-.7v23.9Z" class="g1_2"/>
<path d="M625.5 573.5h.8V549.6h-.8v23.9Z" class="g1_2"/>
<path d="M743.6 573.5h.7V549.6h-.7v23.9Z" class="g1_2"/>
<path d="M861.9 573.5h.7V549.6h-.7v23.9Z" class="g1_2"/>
<path fill-rule="evenodd" d="M57.4 598h95.3V574.2H57.4V598Z" class="g0_2"/>
<path d="M65.3 598h79.5V574.2H65.3V598Z" class="g0_2"/>
<path d="M56.7 574.2h.7v-.7h-.7v.7Z" class="g1_2"/>
<path d="M57.4 574.2h95.3v-.7H57.4v.7Z" class="g1_2"/>
<path d="M152.7 574.2h.8v-.7h-.8v.7Z" class="g1_2"/>
<path d="M153.5 574.2H271v-.7H153.5v.7Z" class="g1_2"/>
<path d="M271 574.2h.7v-.7H271v.7Z" class="g1_2"/>
<path d="M271.7 574.2H389v-.7H271.7v.7Z" class="g1_2"/>
<path d="M389 574.2h.8v-.7H389v.7Z" class="g1_2"/>
<path d="M389.8 574.2H507.3v-.7H389.8v.7Z" class="g1_2"/>
<path d="M507.3 574.2h.7v-.7h-.7v.7Z" class="g1_2"/>
<path d="M508 574.2H625.5v-.7H508v.7Z" class="g1_2"/>
<path d="M625.5 574.2h.8v-.7h-.8v.7Z" class="g1_2"/>
<path d="M626.3 574.2H743.6v-.7H626.3v.7Z" class="g1_2"/>
<path d="M743.6 574.2h.7v-.7h-.7v.7Z" class="g1_2"/>
<path d="M744.3 574.2H861.9v-.7H744.3v.7Z" class="g1_2"/>
<path d="M861.9 574.2h.7v-.7h-.7v.7Z" class="g1_2"/>
<path d="M56.7 598h.7V574.2h-.7V598Z" class="g1_2"/>
<path d="M152.7 598h.8V574.2h-.8V598Z" class="g1_2"/>
<path d="M271 598h.7V574.2H271V598Z" class="g1_2"/>
<path d="M389 598h.8V574.2H389V598Z" class="g1_2"/>
<path d="M507.3 598h.7V574.2h-.7V598Z" class="g1_2"/>
<path d="M625.5 598h.8V574.2h-.8V598Z" class="g1_2"/>
<path d="M743.6 598h.7V574.2h-.7V598Z" class="g1_2"/>
<path d="M861.9 598h.7V574.2h-.7V598Z" class="g1_2"/>
<path fill-rule="evenodd" d="M57.4 646.6h95.3V598.8H57.4v47.8Z" class="g0_2"/>
<path d="M65.3 622.8h79.5v-24H65.3v24Z" class="g0_2"/>
<path d="M65.3 646.6h79.5V622.8H65.3v23.8Z" class="g0_2"/>
<path d="M56.7 598.8h.7V598h-.7v.8Z" class="g1_2"/>
<path d="M57.4 598.8h95.3V598H57.4v.8Z" class="g1_2"/>
<path d="M152.7 598.8h.8V598h-.8v.8Z" class="g1_2"/>
<path d="M153.5 598.8H271V598H153.5v.8Z" class="g1_2"/>
<path d="M271 598.8h.7V598H271v.8Z" class="g1_2"/>
<path d="M271.7 598.8H389V598H271.7v.8Z" class="g1_2"/>
<path d="M389 598.8h.8V598H389v.8Z" class="g1_2"/>
<path d="M389.8 598.8H507.3V598H389.8v.8Z" class="g1_2"/>
<path d="M507.3 598.8h.7V598h-.7v.8Z" class="g1_2"/>
<path d="M508 598.8H625.5V598H508v.8Z" class="g1_2"/>
<path d="M625.5 598.8h.8V598h-.8v.8Z" class="g1_2"/>
<path d="M626.3 598.8H743.6V598H626.3v.8Z" class="g1_2"/>
<path d="M743.6 598.8h.7V598h-.7v.8Z" class="g1_2"/>
<path d="M744.3 598.8H861.9V598H744.3v.8Z" class="g1_2"/>
<path d="M861.9 598.8h.7V598h-.7v.8Z" class="g1_2"/>
<path d="M56.7 646.6h.7V598.8h-.7v47.8Z" class="g1_2"/>
<path d="M56.7 647.3h.7v-.7h-.7v.7Z" class="g1_2"/>
<path d="M56.7 647.3h.7v-.7h-.7v.7Z" class="g1_2"/>
<path d="M57.4 647.3h95.3v-.7H57.4v.7Z" class="g1_2"/>
<path d="M152.7 646.6h.8V598.8h-.8v47.8Z" class="g1_2"/>
<path d="M152.7 647.3h.8v-.7h-.8v.7Z" class="g1_2"/>
<path d="M153.5 647.3H271v-.7H153.5v.7Z" class="g1_2"/>
<path d="M271 646.6h.7V598.8H271v47.8Z" class="g1_2"/>
<path d="M271 647.3h.7v-.7H271v.7Z" class="g1_2"/>
<path d="M271.7 647.3H389v-.7H271.7v.7Z" class="g1_2"/>
<path d="M389 646.6h.8V598.8H389v47.8Z" class="g1_2"/>
<path d="M389 647.3h.8v-.7H389v.7Z" class="g1_2"/>
<path d="M389.8 647.3H507.3v-.7H389.8v.7Z" class="g1_2"/>
<path d="M507.3 646.6h.7V598.8h-.7v47.8Z" class="g1_2"/>
<path d="M507.3 647.3h.7v-.7h-.7v.7Z" class="g1_2"/>
<path d="M508 647.3H625.5v-.7H508v.7Z" class="g1_2"/>
<path d="M625.5 646.6h.8V598.8h-.8v47.8Z" class="g1_2"/>
<path d="M625.5 647.3h.8v-.7h-.8v.7Z" class="g1_2"/>
<path d="M626.3 647.3H743.6v-.7H626.3v.7Z" class="g1_2"/>
<path d="M743.6 646.6h.7V598.8h-.7v47.8Z" class="g1_2"/>
<path d="M743.6 647.3h.7v-.7h-.7v.7Z" class="g1_2"/>
<path d="M744.3 647.3H861.9v-.7H744.3v.7Z" class="g1_2"/>
<path d="M861.9 646.6h.7V598.8h-.7v47.8Z" class="g1_2"/>
<path d="M861.9 647.3h.7v-.7h-.7v.7Z" class="g1_2"/>
<path d="M861.9 647.3h.7v-.7h-.7v.7Z" class="g1_2"/>
<path fill-rule="evenodd" d="M57.4 716.8H874.1V693H57.4v23.8Z" class="g0_2"/>
<path d="M65.3 716.8h801V693H65.3v23.8Z" class="g0_2"/>
<path d="M56.7 693h.7v-.7h-.7v.7Z" class="g1_2"/>
<path d="M56.7 693h.7v-.7h-.7v.7Z" class="g1_2"/>
<path d="M57.4 693H873.9v-.7H57.4v.7Z" class="g1_2"/>
<path d="M873.9 693h.8v-.7h-.8v.7Z" class="g1_2"/>
<path d="M873.9 693h.8v-.7h-.8v.7Z" class="g1_2"/>
<path d="M56.7 716.8h.7V693h-.7v23.8Z" class="g1_2"/>
<path d="M873.9 716.8h.8V693h-.8v23.8Z" class="g1_2"/>
<path d="M317.6 783.4v0l-.2 .6Z" class="gg_2"/>
<path d="M308 813.1l-.1 -.1l9.5 -29l.2 -.6l.1 -.2l30.3 .3v.1l.6 .5l9.1 29.2l.1 .1l-24.9 18.1l-.2 .2Z" class="gg_2"/>
<path d="M254.2 778.8l63.4 4.6l-.2 .6l-9.5 29v.1Z" class="gg_2"/>
<path d="M317.6 783.4v-.2h.1l-.1 .2Z" class="gg_2"/>
<path d="M307.9 813v.1Z" class="ge_2"/>
<path d="M307.9 813.1h.1l24.7 18.6l-48.8 42Z" class="gg_2"/>
<path d="M348.6 784.1l-.1 -.6l63.2 -4.6l-53.9 34.3l-.1 .1Z" class="gg_2"/>
<path d="M348 783.6l.4 -.1l.2 .6Z" class="gg_2"/>
<path d="M348 783.5h.4l-.4 .1Z" class="gg_2"/>
<path d="M332.9 831.5l24.9 -18.1l.1 -.1l23.8 60.1Z" class="gg_2"/>
<path d="M317.7 783.2l15.2 -62.3L348 783.5Z" class="gg_2"/>
<path d="M317.6 783.4l-.2 .6m0 0l.2 -.6m.1 -.2l-.1 .2m0 0v-.2h.1m-.1 .2v0m15.1 48.3l-48.8 42l24 -60.6L254.2 778.8l63.4 4.6m15.1 48.3L308 813.1l-.1 -.1l9.5 -29m31 -.5h.1l63.2 -4.6l-53.9 34.3l.1 .1l23.8 60.1L332.9 831.5m15.7 -47.4l-.6 -.5m.4 -.1l.2 .6m-.6 -.5v-.1m0 0h.4m-.4 .1l.4 -.1m.2 .6l9.1 29.2l.1 .1l-24.9 18.1m0 0l-.2 .2M348 783.5L332.9 720.9l-15.2 62.3m0 0l30.3 .3" class="gh_2"/>
<path d="M122.9 850.3L111.5 829.8l18.2 -7.7l-6.8 28.2Z" class="ge_2"/>
<path d="M123 850.5l-.1 -.2l6.8 -28.2l11.8 -5l.1 -.1l.1 .1l11.5 4.8l7 28.6Z" class="ge_2"/>
<path d="M141.7 817.1l-.1 -.1h-.1V773.9l11.7 48Z" class="ge_2"/>
<path d="M153.2 821.9l-11.7 -48v-.1l30.2 56Z" class="ge_2"/>
<path d="M141.2 773.2l.3 .5v.2l-11.8 48.2l-18.2 7.7Z" class="ge_2"/>
<path d="M160.2 850.5l-7 -28.6l18.5 7.9l-11.4 20.7Z" class="ge_2"/>
<path d="M141.5 773.9v43.2l-11.8 5Z" class="ge_2"/>
<path d="M111.5 829.8l11.4 20.5m37.3 .2l-7 -28.6l-11.7 -48v-.1v.1l-11.8 48.2l-6.8 28.2m0 0l.1 .2h37.2M141.5 773.7v.2m-30 55.9l29.7 -56.6l.3 .5m0 0v.1l30.2 56m0 0l-2.3 -1.1m-2.3 -1l-2.4 -1m-2.4 -1l-2.4 -.9m-2.3 -1l-2.4 -1m-2.1 -1l-2.4 -1m-2.4 -1l-2.4 -1m-2.4 -.9l-1.8 -.8m-30.2 12.7l2.3 -1m2.3 -1.1l2.4 -1m2.4 -.9l2.3 -1m2.4 -1l2.4 -1m2.1 -.9l2.4 -1m2.3 -1l2.4 -1m2.2 -1l2.1 -.8l.1 -.1m-.1 -43.1v2.6m0 2.6v2.6m0 2.6v2.6m0 2.5V792m0 2.6v2.6m0 2.6v2.6m0 2.5v2.6m0 2.6v2.6m0 2.6v1.8m.1 -.1l.1 .1m18.5 33.4h.1l11.4 -20.7" class="gh_2"/>
<path d="M224.9 813.6l.5 -.9l.3 -.9l.2 -.9l.1 -.7l.1 -.6v-.7l-.1 -.2V808l-.1 -.6l-.2 -.5l-.3 -1l-.1 -.3l-.1 -.2v-.1l-.2 -.5l-.6 -1l4.3 2.7l4.3 2.7l-8.6 5.4Z" class="g6_2"/>
<path d="M196.5 809.1h29.6" class="gi_2"/>
<path d="M163 779l.3 -.6l.1 -.6l.1 -.6l-.1 -.4l-.1 -.3l-.1 -.2v-.1l-.2 -.6l-.5 -.4l-.5 -.4l-.6 -.4l-.8 -.3l4.6 -.2l4.6 -.2l-7.1 5.9Z" class="g6_2"/>
<path d="M147.1 782.8l16.2 -6.3" class="gh_2"/>
<path d="M122.4 768.8L118.7 766l9.1 -.1l-.7 .3l-.5 .3l-.5 .4l-.4 .4l-.2 .3l-.1 .4l-.1 .2v.1l-.1 .6v.6l.1 .6l.3 .7l.3 .8Z" class="g6_2"/>
<path d="M141.9 773.6L125.4 768" class="gh_2"/>
<path d="M179.4 842.8l-4.5 -.1l.7 -.4l.3 -.2l.1 -.1l.2 -.1l.5 -.5l.4 -.4l.1 -.2l.2 -.2v-.3l.1 -.1l.1 -.3v-.4l-.1 -.6l-.1 -.6l-.1 -.3l-.1 -.3l-.2 -.3l-.1 -.3l7 5.8Z" class="g6_2"/>
<path d="M161.3 834l16.2 6.2" class="gh_2"/>
<path d="M100.6 809.9l4.4 -1.5l4.2 -1.5l-.6 .5l-.4 .6l-.4 .6l-.1 .6l-.1 .5v.8l.1 .3l.1 .2l.2 .3l.3 .5l.4 .5l.5 .5Z" class="g6_2"/>
<path d="M125 810.1H107.6" class="gh_2"/>
<path d="M56.7 717.6h.7v-.8h-.7v.8Z" class="g1_2"/>
<path d="M57.4 717.6H424v-.8H57.4v.8Z" class="g1_2"/>
<path d="M424 717.6h.8v-.8H424v.8Z" class="g1_2"/>
<path d="M424.8 717.6H874v-.8H424.8v.8Z" class="g1_2"/>
<path d="M873.9 717.6h.8v-.8h-.8v.8Z" class="g1_2"/>
<path d="M56.7 765.2h.7V717.6h-.7v47.6Z" class="g1_2"/>
<path d="M424 765.2h.8V717.6H424v47.6Z" class="g1_2"/>
<path d="M873.9 765.2h.8V717.6h-.8v47.6Z" class="g1_2"/>
<path d="M56.7 766h.7v-.8h-.7v.8Z" class="g1_2"/>
<path d="M424 766h.8v-.8H424v.8Z" class="g1_2"/>
<path d="M424.8 766H874v-.8H424.8v.8Z" class="g1_2"/>
<path d="M873.9 766h.8v-.8h-.8v.8Z" class="g1_2"/>
<path d="M56.7 790h.7V766h-.7v24Z" class="g1_2"/>
<path d="M424 790h.8V766H424v24Z" class="g1_2"/>
<path d="M873.9 790h.8V766h-.8v24Z" class="g1_2"/>
<path d="M56.7 790.7h.7V790h-.7v.7Z" class="g1_2"/>
<path d="M424 790.7h.8V790H424v.7Z" class="g1_2"/>
<path d="M424.8 790.7H874V790H424.8v.7Z" class="g1_2"/>
<path d="M873.9 790.7h.8V790h-.8v.7Z" class="g1_2"/>
<path d="M56.7 814.5h.7V790.7h-.7v23.8Z" class="g1_2"/>
<path d="M424 814.5h.8V790.7H424v23.8Z" class="g1_2"/>
<path d="M873.9 814.5h.8V790.7h-.8v23.8Z" class="g1_2"/>
<path d="M490.8 839.8h9.8" class="gj_2"/>
<path d="M56.7 815.3h.7v-.8h-.7v.8Z" class="g1_2"/>
<path d="M424 815.3h.8v-.8H424v.8Z" class="g1_2"/>
<path d="M424.8 815.3H874v-.8H424.8v.8Z" class="g1_2"/>
<path d="M873.9 815.3h.8v-.8h-.8v.8Z" class="g1_2"/>
<path d="M56.7 862.6h.7V815.3h-.7v47.3Z" class="g1_2"/>
<path d="M424 862.6h.8V815.3H424v47.3Z" class="g1_2"/>
<path d="M873.9 862.6h.8V815.3h-.8v47.3Z" class="g1_2"/>
<path d="M56.7 863.3h.7v-.7h-.7v.7Z" class="g1_2"/>
<path d="M424 863.3h.8v-.7H424v.7Z" class="g1_2"/>
<path d="M424.8 863.3H874v-.7H424.8v.7Z" class="g1_2"/>
<path d="M873.9 863.3h.8v-.7h-.8v.7Z" class="g1_2"/>
<path d="M56.7 887.3h.7v-24h-.7v24Z" class="g1_2"/>
<path d="M56.7 888.1h.7v-.8h-.7v.8Z" class="g1_2"/>
<path d="M56.7 888.1h.7v-.8h-.7v.8Z" class="g1_2"/>
<path d="M57.4 888.1H424v-.8H57.4v.8Z" class="g1_2"/>
<path d="M424 887.3h.8v-24H424v24Z" class="g1_2"/>
<path d="M424 888.1h.8v-.8H424v.8Z" class="g1_2"/>
<path d="M424.8 888.1H874v-.8H424.8v.8Z" class="g1_2"/>
<path d="M873.9 887.3h.8v-24h-.8v24Z" class="g1_2"/>
<path d="M873.9 888.1h.8v-.8h-.8v.8Z" class="g1_2"/>
<path d="M873.9 888.1h.8v-.8h-.8v.8Z" class="g1_2"/>
<path fill-rule="evenodd" d="M57.4 981.4H874.1V957.5H57.4v23.9Z" class="g0_2"/>
<path d="M65.3 981.4h801V957.5H65.3v23.9Z" class="g0_2"/>
<path d="M56.7 957.5h.7v-.7h-.7v.7Z" class="g1_2"/>
<path d="M56.7 957.5h.7v-.7h-.7v.7Z" class="g1_2"/>
<path d="M57.4 957.5H873.9v-.7H57.4v.7Z" class="g1_2"/>
<path d="M873.9 957.5h.8v-.7h-.8v.7Z" class="g1_2"/>
<path d="M873.9 957.5h.8v-.7h-.8v.7Z" class="g1_2"/>
<path d="M56.7 981.4h.7V957.5h-.7v23.9Z" class="g1_2"/>
<path d="M873.9 981.4h.8V957.5h-.8v23.9Z" class="g1_2"/>
<path d="M104.4 1008.2l.2 .5v80.6h-2.5l-1.8 .1l-1.8 .1l-1.7 .1l-1.7 .2l-1.6 .2l-1.7 .3l-1.5 .3l-1.6 .3l-1.5 .3l-2.9 .9l-1.4 .5l-1.4 .6l-1.3 .5l-1.3 .6l-1.7 .9l-1.5 .8l-1.4 1l-1.2 1l-1.1 .9l-1 1l-.8 1.1l-.6 1.1Z" class="g8_2"/>
<path d="M101.3 1123.5l-2.5 -.1l-2.5 -.2l-2.3 -.3l-2.3 -.4l-2.3 -.4l-2.2 -.6l-2 -.5l-1.7 -.6l-1.6 -.6l-1.6 -.6l-1.4 -.7l-1.3 -.6l-1.1 -.7l-1.2 -.6l-.9 -.7l-1 -.7l-.8 -.7l-.8 -.8l-.7 -.7l-.6 -.8l-.5 -.7l-.5 -.8l-.3 -.8l-.3 -.9l-.2 -.8l-.1 -.9v-2.2l.1 -.8l.3 -.7l.2 -.8l.4 -.7l.6 -1.1l.8 -1.1l1 -1l1.1 -.9l1.2 -1l1.4 -1l1.5 -.8l1.7 -.9l1.3 -.6l1.3 -.5l1.4 -.6l1.4 -.5l2.9 -.9l1.5 -.3l1.6 -.3l1.5 -.3l1.7 -.3l1.6 -.2l1.7 -.2l1.7 -.1l1.8 -.1l1.8 -.1h2.5v18.1v-18.1h1.7l1.8 .1l1.6 .1l1.7 .2l1.6 .1l1.6 .2l1.6 .3l1.6 .3l1.4 .3l1.5 .4l1.4 .4l1.5 .5l1.3 .4l1.4 .6l1.3 .5l1.3 .6l1.6 .9l1.5 .8l1.4 1l.6 .4l.7 .5l1 1l1 1l.8 1l.3 .5l.3 .5l.1 .1l.3 .8l.4 .8l.1 .8l.2 .9l.1 .6v1l-.1 .4l-.1 .9l-.2 .8l-.3 .9l-.2 .4h-.1v.1l-.1 .3l-.4 .8l-.3 .3l-.2 .2l-.1 .2l-.5 .8l-.4 .4l-.4 .3l-.7 .8l-.3 .1l-.2 .2l-.4 .4l-.9 .7l-1 .7l-.3 .1l-.2 .1l-.1 .1l-.5 .3l-.6 .3l-.6 .4l-1.2 .6l-1.5 .7l-1.5 .6l-1.6 .6l-1.6 .6l-1.1 .2l-1 .3l-.6 .1l-.5 .2l-1.1 .3l-1.2 .2l-1.1 .2l-2.3 .4l-1.2 .1l-1.2 .2l-1.2 .1h-.6l-.6 .1l-2.5 .1h-2.3l-.3 .1Z" class="g8_2"/>
<path d="M138.1 1101.9l-.3 -.5l-.3 -.5l-.8 -1l-1 -1l-1 -1l-.7 -.5l-.6 -.4l-1.4 -1l-1.5 -.8l-1.6 -.9l-1.3 -.6l-1.3 -.5l-1.4 -.6l-1.3 -.4l-1.5 -.5l-1.4 -.4l-1.5 -.4l-1.4 -.3l-1.6 -.3l-1.6 -.3l-1.6 -.2l-1.6 -.1l-1.7 -.2l-1.6 -.1l-1.8 -.1h-1.7v-80.6l33.6 93.2Z" class="g8_2"/>
<path d="M275.1 1081.3l-2.1 -.1l-2.2 -.2l-2 -.1l-2.1 -.3l-2 -.2l-4 -.7l-2 -.4l-1.9 -.5l-2 -.5l-1.9 -.5l-3.8 -1.3l-1.8 -.7l-1.8 -.7l-1.9 -.8l-1.8 -.8l-3.5 -1.9l-3.5 -2l-3.3 -2.2l-3.4 -2.4l-1.6 -1.3l-1.6 -1.3l-3.1 -2.8l-1.5 -1.5l-1.6 -1.5l-2.2 -2.3l-2.1 -2.3l-1.9 -2.3l-1.8 -2.2l-1.7 -2.2l-1.5 -2.1L206 1041l-1.2 -2l-1.1 -2.2l-1 -2l-.9 -2.1l-.7 -1.9l-.6 -2l-.5 -2l-.3 -1.9l-.2 -1.8l76.6 -27.4l80.7 26.3l-.8 2.2l-.7 2.3l-.5 1.1l-.4 1.1l-.9 2.3l-1.1 2.2l-.5 1.1l-.3 .6l-.3 .5l-.3 .6l-.3 .5l-.6 1.1l-1.2 2.2l-1.4 2.1l-.7 1.1l-.7 1.1l-1.6 2.1l-1.5 2.1l-1.8 2.1l-.9 1l-.8 1.1l-1.9 2l-1 1l-.9 1.1l-1.6 1.5l-1.5 1.5L331 1061l-1.5 1.4l-1.7 1.3l-.4 .3l-.4 .3l-.8 .7l-1.6 1.2l-.9 .6l-.7 .6l-1.8 1.1l-1.7 1.1l-1.7 1l-1.7 1l-1.8 .9l-.9 .5l-.9 .5l-1.8 .8l-1.7 .8l-1.9 .7l-1.9 .7l-.9 .3l-1 .4l-1.8 .6l-2 .5l-1.9 .5l-1.9 .5l-2 .4l-1 .2l-1 .1l-2 .4h-.6l-.5 .1l-1 .1l-2 .3l-2.1 .1l-2.1 .2l-2.1 .1h-2.1Z" class="g8_2"/>
<path d="M272.2 1142.9l-1.5 -.1l-1.5 -.2l-1.4 -.2l-1.5 -.4l-1.4 -.3l-1.3 -.5l-1.3 -.5l-1.3 -.6l-1.3 -.7l-1.3 -.7l-1.2 -.8L256 1137l-1.2 -.9l-1.1 -1l-1.1 -1l-1.1 -1.2l-1 -1.2l-.9 -1.2l-.8 -1.1l-.8 -1.3l-.7 -1.3l-.6 -1.3l-.6 -1.3l-.5 -1.3l-.5 -1.4l-.3 -1.4l-.3 -1.5l-.2 -1.5l-.2 -1.4l-.1 -1.6v-1.5l.1 -3.1l.2 -1.5l.2 -1.5l.3 -1.4l.3 -1.5l.5 -1.4l.5 -1.3l1.2 -2.7l.7 -1.2l.8 -1.2l.8 -1.3l.9 -1.2l1 -1.1l1.1 -1.1l1.1 -1.1l1.1 -1l1.2 -1l1.2 -.8l1.2 -.9l1.3 -.7l2.6 -1.2l1.3 -.5l1.3 -.5l1.4 -.4l1.5 -.2l1.4 -.3l1.5 -.1l3 -.2h1.6l1.5 .2l1.4 .1l1.5 .3l1.4 .2l1.4 .4l1.3 .5l1.4 .5l1.2 .6l1.3 .6l1.2 .7l1.3 .9l1.1 .8l1.2 1l1.1 1l1.2 1.1l1 1.1l1 1.1l.9 1.2l.9 1.3l.7 1.2l.8 1.2l.6 1.4l.6 1.3l.5 1.3l.5 1.4l.3 1.5l.3 1.4l.3 1.5l.2 1.5l.1 1.5v3.1l-.1 1.6l-.2 1.4l-.1 .8l-.1 .3l-.1 .2v.4l-.1 .2v.3l-.2 .8l-.3 1.4l-.3 .7l-.2 .7l-.5 1.3l-.1 .3l-.2 .4l-.3 .6l-.6 1.3l-.8 1.3l-.2 .3l-.1 .1l-.1 .2l-.3 .7l-.9 1.1l-.5 .6l-.4 .6l-.5 .6l-.5 .6l-1 1.2l-1.2 1l-.6 .5l-.5 .5l-.6 .4l-.6 .5l-1.1 .9l-1.3 .8l-1.2 .7l-1.3 .7l-.6 .3l-.3 .1l-.3 .2l-1.4 .5l-.7 .2l-.6 .3l-1.4 .3l-.7 .2l-.4 .1h-.2l-.1 .1h-.4l-.4 .1l-.7 .1l-1.4 .2l-1.5 .1l-1.6 .1Z" class="g8_2"/>
<path d="M67.9 1100l.6 -4.6l.7 -4.6l.8 -4.6l.9 -4.4l1 -4.5l1.1 -4.4l1.2 -4.4l1.3 -4.3M79 1050.5l1.8 -4.4l1.9 -4.4l2 -4.2l2.1 -4.3l2.3 -4.1l2.3 -4.1l2.4 -4.1l2.6 -4.1l2.6 -4l2.8 -3.9" class="g2_2"/>
<path d="M138.1 1101.9l-.3 -.5l-.3 -.6l-.8 -1m-1.9 -1.8l-1 -.8l-1.2 -.8m-2.2 -1.3l-.8 -.4l-.7 -.4l-.9 -.4m-2.3 -.9l-1.1 -.5l-1.2 -.4m-2.4 -.7l-1.2 -.3l-1.2 -.3m-2.4 -.4l-2.6 -.4m-2.5 -.3l-1.3 -.2h-1.3m-2.5 -.2h-3.1m-2.5 .1l-2.4 .2m-2.6 .3l-2.4 .3m-2.6 .4l-2.4 .6m-2.5 .6l-2.5 .8m-2.4 1l-1.7 .7l-.6 .3m-2.1 1.2l-1.1 .6l-1 .8m-1.9 1.6l-1 .9l-.8 1.1m67.8 1.2l-.1 -.1m114.5 -10.8l-1.1 1.1l-1 1.1l-.9 1.2l-.8 1.3l-.8 1.2l-.7 1.2l-1.2 2.7l-.5 1.3l-.5 1.4l-.3 1.5l-.3 1.4l-.2 1.5l-.2 1.5l-.1 3.1v1.5l.1 1.6l.2 1.4l.2 1.5l.3 1.5l.3 1.4l.5 1.4l.5 1.3l.6 1.3l.6 1.3l.7 1.3l.8 1.3l.8 1.1l.9 1.2l1 1.2l1.1 1.2l1.1 1l1.1 1l1.2 .9l1.2 .9l1.2 .8l1.3 .7l1.3 .7l1.3 .6l1.3 .5l1.3 .5l1.4 .3l1.5 .4l1.4 .2l1.5 .2l1.5 .1l1.5 .1l1.6 -.1l1.5 -.1l1.4 -.2l.7 -.1l.4 -.1h.4l.1 -.1h.2l.4 -.1l.7 -.2l1.4 -.3l.6 -.3l.7 -.2l1.4 -.5l.3 -.2l.3 -.1l.6 -.3l1.3 -.7l1.2 -.7l1.3 -.8l1.1 -.9l.6 -.5l.6 -.4l.5 -.5l.6 -.5l1.2 -1l1 -1.2l.5 -.6l.5 -.6l.4 -.6l.5 -.6l.9 -1.1l.3 -.7l.1 -.2l.1 -.1l.2 -.3l.8 -1.3l.6 -1.3l.3 -.6l.2 -.4l.1 -.3l.5 -1.3l.2 -.7l.3 -.7l.3 -1.4l.2 -.8v-.3l.1 -.2v-.4l.1 -.2l.1 -.3l.1 -.8l.2 -1.4l.1 -1.6V1111l-.1 -1.5l-.2 -1.5l-.3 -1.5l-.3 -1.4l-.3 -1.5l-.5 -1.4l-.5 -1.3l-.6 -1.3l-.6 -1.4l-.8 -1.2l-.7 -1.2l-.9 -1.3l-.9 -1.2l-1 -1.1l-1 -1.1l-1.2 -1.1l-1.1 -1l-1.2 -1l-1.1 -.8l-1.3 -.9l-1.2 -.7l-1.3 -.6l-1.2 -.6l-1.4 -.5l-1.3 -.5l-1.4 -.4l-1.4 -.2l-1.5 -.3l-1.4 -.1l-1.5 -.2h-1.6l-3 .2l-1.5 .1l-1.4 .3l-1.5 .2l-1.4 .4l-1.3 .5l-1.3 .5l-2.6 1.2l-1.3 .7l-1.2 .9l-1.2 .8l-1.2 1l-1.1 1l-1.1 1.1m-53.1 -68l.2 1.8l.3 1.9l.5 2l.6 2l.7 1.9l.9 2.1l1 2l1.1 2.2l1.2 2l1.5 2.2l1.5 2.1l1.7 2.2l1.8 2.2l1.9 2.3l2.1 2.3l2.2 2.3l1.6 1.5l1.5 1.5l3.1 2.8l1.6 1.3l1.6 1.3l3.4 2.4l3.3 2.2l3.5 2l3.5 1.9l1.8 .8l1.9 .8l1.8 .7l1.8 .7l3.8 1.3l1.9 .5l2 .5l1.9 .5l2 .4l4 .7l2 .2l2.1 .3l2 .1l2.2 .2l2.1 .1h4.2l2.1 -.1l2.1 -.2l2.1 -.1l2 -.3l1 -.1l.5 -.1h.6l2 -.4l1 -.1l1 -.2l2 -.4l1.9 -.5l1.9 -.5l2 -.5l1.8 -.6l1 -.4l.9 -.3l1.9 -.7l1.9 -.7l1.7 -.8l1.8 -.8l.9 -.5l.9 -.5l1.8 -.9l1.7 -1l1.7 -1l1.7 -1.1l1.8 -1.1l.7 -.6l.9 -.6l1.6 -1.2l.8 -.7l.4 -.3l.4 -.3l1.7 -1.3L331 1061l1.6 -1.4l1.5 -1.5l1.6 -1.5l.9 -1.1l1 -1l1.9 -2l.8 -1.1l.9 -1l1.8 -2.1l1.5 -2.1l1.6 -2.1l.7 -1.1l.7 -1.1l1.4 -2.1l1.2 -2.2l.6 -1.1l.3 -.5l.3 -.6l.3 -.5l.3 -.6l.5 -1.1l1.1 -2.2l.9 -2.3l.4 -1.1l.5 -1.1l.7 -2.3l.8 -2.2L276.1 995.7l-76.6 27.4M138.2 1102l.3 .8l.4 .8l.1 .8l.2 .9l.1 .6v1l-.1 .4l-.1 .9l-.2 .8l-.3 .9l-.2 .4h-.1v.1l-.1 .3l-.4 .8l-.3 .3l-.1 .2l-.2 .2l-.5 .8l-.4 .4l-.4 .3l-.7 .8l-.3 .1l-.2 .2l-.4 .4l-.9 .7l-1 .7l-.3 .1l-.2 .1l-.1 .1l-.5 .3l-.6 .3l-.6 .4l-1.2 .6l-1.5 .7l-1.5 .6l-1.6 .6l-1.6 .6l-1.1 .2l-1 .3l-.6 .1l-.5 .2l-1.1 .3l-1.2 .2l-1.1 .2l-2.3 .4l-1.2 .1l-1.2 .2l-1.2 .1h-.6l-.6 .1l-2.5 .1h-2.3l-.3 .1l-2.6 -.1l-2.5 -.1l-2.5 -.2l-2.3 -.3l-2.3 -.4l-2.3 -.4l-2.2 -.6l-2 -.5l-1.7 -.6l-1.6 -.6l-1.6 -.6l-1.4 -.7l-1.3 -.6l-1.1 -.7l-1.2 -.6l-.9 -.7l-1 -.7l-.8 -.7l-.8 -.8l-.7 -.7l-.6 -.8l-.5 -.7l-.5 -.8l-.3 -.8l-.3 -.9l-.2 -.8l-.1 -.9v-2.2l.1 -.8l.3 -.7l.2 -.8l.4 -.7l34.8 -93.9l.2 .5l33.6 93.2v.1" class="gk_2"/>
<path d="M104.6 1107.4v-98.7m33.5 98.4H104.3" class="gl_2"/>
<path d="M347.4 1067.7l.1 -.1h.7l.4 -.1h.3l.3 -.1l.2 -.1h.1l.3 -.2l.3 -.1l.2 -.1l.2 -.2l.1 -.1l.1 -.1v-.1h.1l.1 -.3l.2 -.3v-.3l.1 -.3l.1 -.5v-1.4l4.5 8Z" class="g6_2"/>
<path d="M337.7 1054.7l13 11.7" class="gk_2"/>
<path d="M303.6 1112.9H277" class="gl_2"/>
<path d="M185.1 1085.7l.4 -.9l.3 -.9l.3 -.9l.1 -.7V1080l-.2 -.5l-.1 -.5l-.3 -1l-.2 -.3v-.2l-.1 -.1l-.2 -.5l-.5 -1l4.3 2.7l4.3 2.7l-8.6 5.3Z" class="g6_2"/>
<path d="M156.6 1081.2h29.6" class="gm_2"/>
<path d="M56.7 982.1h.7v-.7h-.7v.7Z" class="g1_2"/>
<path d="M57.4 982.1h343v-.7H57.4v.7Z" class="g1_2"/>
<path d="M400.4 982.1h.7v-.7h-.7v.7Z" class="g1_2"/>
<path d="M401.1 982.1H874v-.7H401.1v.7Z" class="g1_2"/>
<path d="M873.9 982.1h.8v-.7h-.8v.7Z" class="g1_2"/>
<path d="M56.7 1005.9h.7V982.1h-.7v23.8Z" class="g1_2"/>
<path d="M400.4 1005.9h.7V982.1h-.7v23.8Z" class="g1_2"/>
<path d="M873.9 1005.9h.8V982.1h-.8v23.8Z" class="g1_2"/>
<path d="M56.7 1006.7h.7v-.8h-.7v.8Z" class="g1_2"/>
<path d="M400.4 1006.7h.7v-.8h-.7v.8Z" class="g1_2"/>
<path d="M401.1 1006.7H874v-.8H401.1v.8Z" class="g1_2"/>
<path d="M873.9 1006.7h.8v-.8h-.8v.8Z" class="g1_2"/>
<path d="M56.7 1030.7h.7v-24h-.7v24Z" class="g1_2"/>
<path d="M400.4 1030.7h.7v-24h-.7v24Z" class="g1_2"/>
<path d="M873.9 1030.7h.8v-24h-.8v24Z" class="g1_2"/>
<path d="M56.7 1031.4h.7v-.7h-.7v.7Z" class="g1_2"/>
<path d="M400.4 1031.4h.7v-.7h-.7v.7Z" class="g1_2"/>
<path d="M401.1 1031.4H874v-.7H401.1v.7Z" class="g1_2"/>
<path d="M873.9 1031.4h.8v-.7h-.8v.7Z" class="g1_2"/>
<path d="M56.7 1055.3h.7v-23.9h-.7v23.9Z" class="g1_2"/>
<path d="M400.4 1055.3h.7v-23.9h-.7v23.9Z" class="g1_2"/>
<path d="M873.9 1055.3h.8v-23.9h-.8v23.9Z" class="g1_2"/>
<path d="M467.1 1080.5h9.8" class="gj_2"/>
<path d="M56.7 1056h.7v-.7h-.7v.7Z" class="g1_2"/>
<path d="M400.4 1056h.7v-.7h-.7v.7Z" class="g1_2"/>
<path d="M401.1 1056H874v-.7H401.1v.7Z" class="g1_2"/>
<path d="M873.9 1056h.8v-.7h-.8v.7Z" class="g1_2"/>
<path d="M56.7 1103.3h.7V1056h-.7v47.3Z" class="g1_2"/>
<path d="M400.4 1103.3h.7V1056h-.7v47.3Z" class="g1_2"/>
<path d="M873.9 1103.3h.8V1056h-.8v47.3Z" class="g1_2"/>
<path d="M56.7 1104h.7v-.7h-.7v.7Z" class="g1_2"/>
<path d="M400.4 1104h.7v-.7h-.7v.7Z" class="g1_2"/>
<path d="M401.1 1104H874v-.7H401.1v.7Z" class="g1_2"/>
<path d="M873.9 1104h.8v-.7h-.8v.7Z" class="g1_2"/>
<path d="M56.7 1151.9h.7V1104h-.7v47.9Z" class="g1_2"/>
<path d="M56.7 1152.6h.7v-.7h-.7v.7Z" class="g1_2"/>
<path d="M56.7 1152.6h.7v-.7h-.7v.7Z" class="g1_2"/>
<path d="M57.4 1152.6h343v-.7H57.4v.7Z" class="g1_2"/>
<path d="M400.4 1151.9h.7V1104h-.7v47.9Z" class="g1_2"/>
<path d="M400.4 1152.6h.7v-.7h-.7v.7Z" class="g1_2"/>
<path d="M401.1 1152.6H874v-.7H401.1v.7Z" class="g1_2"/>
<path d="M873.9 1151.9h.8V1104h-.8v47.9Z" class="g1_2"/>
<path d="M873.9 1152.6h.8v-.7h-.8v.7Z" class="g1_2"/>
<path d="M873.9 1152.6h.8v-.7h-.8v.7Z" class="g1_2"/>
<path d="M60 279.2l-.9 -.1l-.8 -.2l-.8 -.4l-.6 -.5l-.3 -.4l-.3 -.3l-.3 -.7l-.3 -.8V261.4l.3 -.8l.3 -.8l.6 -.6l.6 -.6l.8 -.4l.8 -.2H73.3l.4 .1l.4 .1l.7 .4l.3 .3l.4 .3l.6 .6l.4 .8l.2 .8l.1 .9v13l-.1 .1v.4l-.2 .8l-.2 .3l-.2 .2v.2l-.3 .3l-.2 .2h-.1v.2l-.4 .2l-.3 .3l-.2 .1l-.2 .1l-.3 .2l-.4 .1h-.1l-.1 .1H73l-.1 .1h-.4Z" class="gn_2"/>
<image preserveAspectRatio="none" x="27" y="345" width="823" height="38" xlink:href="img/2.png"/>
<path d="M60 910.6l-.9 -.1l-.8 -.2l-.8 -.5l-.6 -.5l-.3 -.4l-.3 -.3l-.3 -.7l-.3 -.8V892.8L56 892l.3 -.8l.6 -.7l.6 -.5l.8 -.4l.8 -.2l.9 -.1H72.5l.8 .1h.4l.4 .2l.7 .4l.3 .2l.4 .3l.6 .7l.4 .8l.2 .8l.1 .9v13h-.1v.4l-.2 .8l-.2 .4l-.2 .1v.2l-.3 .3l-.2 .2l-.1 .1v.1l-.4 .3l-.3 .2l-.2 .1l-.2 .2l-.3 .2l-.4 .1h-.2l-.2 .1h-.4l-.4 .1Z" class="gn_2"/>
<path d="M60 1175.1l-.9 -.1l-.8 -.2l-.8 -.4l-.6 -.5l-.3 -.4l-.3 -.3l-.3 -.7l-.3 -.9v-14.3l.3 -.8l.3 -.8l.6 -.6l.6 -.6l.8 -.4l.8 -.2H73.3l.4 .1l.4 .1l.7 .4l.3 .3l.4 .3l.6 .6l.4 .8l.2 .8l.1 .9v13l-.1 .1v.3l-.2 .9l-.2 .3l-.2 .2v.2l-.3 .3l-.2 .1l-.1 .1v.2l-.4 .2l-.3 .3l-.2 .1l-.2 .1l-.3 .2l-.4 .1h-.1l-.1 .1H73l-.1 .1h-.4Z" class="gn_2"/>
</svg>