<?xml version="1.0" encoding="UTF-8" standalone="no"?>
<!DOCTYPE svg PUBLIC "-//W3C//DTD SVG 1.1//EN"
"http://www.w3.org/Graphics/SVG/1.1/DTD/svg11.dtd">
<svg viewBox="0 0 909 1286" version="1.1" xmlns="http://www.w3.org/2000/svg" xmlns:xlink="http://www.w3.org/1999/xlink">
<defs>
<clipPath id="c0_1"><path d="M-.2 1286.5v-74.7H909.4v74.7Z"/></clipPath>
<clipPath id="c1_1"><path d="M151 760.3V708.2h98.1v52.1Z"/></clipPath>
<clipPath id="c2_1"><path d="M417.7 770.9V714.1H522.6v56.8Z"/></clipPath>
<clipPath id="c3_1"><path d="M575 781.7v-74h56.8v74Z"/></clipPath>
<clipPath id="c4_1"><path d="M.1 152.7V0H909.4V152.7Z"/></clipPath>
<clipPath id="c5_1"><path d="M23 203.8V154H909.4v49.8Z"/></clipPath>
<clipPath id="c6_1"><path d="M908.3 189.5v-1.7h1.1v1.7Z"/></clipPath>
<clipPath id="c7_1"><path d="M908.3 190.6v-1.7h1.1v1.7Z"/></clipPath>
<clipPath id="c8_1"><path d="M907.2 191.7V190h2.2v1.7Z"/></clipPath>
<clipPath id="c9_1"><path d="M907.2 192.8v-1.7h2.2v1.7Z"/></clipPath>
<clipPath id="ca_1"><path d="M906.1 193.9v-1.7h3.3v1.7Z"/></clipPath>
<clipPath id="cb_1"><path d="M906.1 195v-1.7h3.3V195Z"/></clipPath>
<clipPath id="cc_1"><path d="M905 196.1v-1.7h4.4v1.7Z"/></clipPath>
<clipPath id="cd_1"><path d="M905 197.2v-1.7h4.4v1.7Z"/></clipPath>
<clipPath id="ce_1"><path d="M869.8 198.3v-1.7h39.6v1.7Z"/></clipPath>
<clipPath id="cf_1"><path d="M729 199.4v-1.7H909.4v1.7Z"/></clipPath>
<clipPath id="cg_1"><path d="M697.1 200.5v-1.7H909.4v1.7Z"/></clipPath>
<clipPath id="ch_1"><path d="M622.3 201.6v-1.7H909.4v1.7Z"/></clipPath>
<clipPath id="ci_1"><path d="M459.5 202.7V201H909.4v1.7Z"/></clipPath>
<clipPath id="cj_1"><path d="M23.9 203.8v-1.7H909.4v1.7Z"/></clipPath>
<style type="text/css"><![CDATA[
.g0_1{
fill: #000;
}
.g1_1{
fill: none;
stroke: #727171;
stroke-width: 0.609;
stroke-linecap: round;
stroke-linejoin: round;
}
.g2_1{
fill: none;
stroke: #000;
stroke-width: 0.913;
stroke-linecap: round;
stroke-linejoin: round;
}
.g3_1{
fill: none;
stroke: #000;
stroke-width: 0.609;
stroke-linecap: round;
stroke-linejoin: round;
}
.g4_1{
fill: none;
stroke: #000;
stroke-width: 0.915;
stroke-linecap: round;
stroke-linejoin: round;
}
.g5_1{
fill: none;
stroke: #000;
stroke-width: 11.076;
stroke-linejoin: round;
}
.g6_1{
fill: none;
stroke: #000;
stroke-width: 10.974;
stroke-linecap: round;
stroke-linejoin: round;
}
.g7_1{
fill: none;
stroke: #000;
stroke-width: 10.974;
stroke-linejoin: round;
}
.g8_1{
fill: none;
stroke: #000;
stroke-width: 10.332;
stroke-linejoin: round;
}
.g9_1{
fill: none;
stroke: #000;
stroke-width: 10.26;
stroke-linejoin: round;
}
.ga_1{
fill: none;
stroke: #1A1A1A;
stroke-width: 1.15;
stroke-linecap: round;
stroke-linejoin: round;
}
.gb_1{
fill: none;
stroke: #000;
stroke-width: 1.15;
stroke-linecap: round;
stroke-linejoin: round;
}
.gc_1{
fill: none;
stroke: #000;
stroke-width: 1.099;
stroke-linecap: round;
stroke-linejoin: round;
}
.gd_1{
fill: #FFF;
}
]]></style>
</defs>
<image clip-path="url(#c0_1)" preserveAspectRatio="none" x="-3" y="1212" width="951" height="77" xlink:href="img/1.jpg"/>
<path d="M348.4 497.8h36.7v-.9H348.4v.9Z" class="g0_1"/>
<path d="M348.4 499.7h36.7v-.9H348.4v.9Z" class="g0_1"/>
<path d="M803.6 497.8h36.7v-.9H803.6v.9Z" class="g0_1"/>
<path d="M803.6 499.7h36.7v-.9H803.6v.9Z" class="g0_1"/>
<path d="M205.1 543.6l-1.9 .9c-3.6 1.5 -8.2 1.5 -11.9 0l-1.8 -.9" class="g1_1"/>
<path d="M197.5 530.1l25 43.5L247.1 617H147.4l50.1 -86.9Z" class="g2_1"/>
<path d="M247.1 617l1 -.6c3 -5.3 -2.9 -18.9 -5.6 -23.3l-2.6 -5.2M197.4 530.1l.7 -.3c6.3 -.4 14.3 12.3 17.6 16.3l3.1 4.8M197.4 530.1l-1 -.3c-4.9 -.7 -15.3 12.7 -17.3 16.3l-3 4.8M147.4 617l-.6 -.6c-3.7 -4.8 3.2 -18.9 5.2 -23.3l2.7 -5.2" class="g3_1"/>
<path d="M411.9 614.6v-2.1c.5 -3.6 2.9 -8.4 6.1 -10.4l1.6 -1" class="g1_1"/>
<path d="M377.4 527.8l25 43.5l24.8 43.3H327.3l25.1 -43.3l25 -43.5Z" class="g2_1"/>
<path d="M427.2 614.6l.9 -.5l.5 -1.9L429 611l-.4 -3.1l-.5 -3.6l-1.3 -4.1L425 595.6l-2.4 -4.8l-2.8 -5.2M377.4 527.8l.6 -.3c6.7 -.4 14 12.1 17.7 16.2l3.1 4.9M377.4 527.8l-.9 -.3c-5.5 -.7 -14.9 12.5 -17.4 16.2l-3.1 4.9m-28.7 66l-.5 -.5c-3.7 -4.8 3.3 -18.8 5.1 -23.3l2.8 -5.2" class="g3_1"/>
<path d="M569 537.2l-1.9 .9c-3.6 1.5 -8.1 1.4 -11.8 0l-1.8 -.9m-26.6 78.2l-.3 -2.2l-.2 -2.2l-.7 -1.8l-.9 -1.8l-1.2 -1.9L522.4 604l-1.5 -1.2l-1.9 -.9" class="g1_1"/>
<path d="M561.4 528.5l25 43.4L611 615.4H511.4l25 -43.5l25 -43.4Z" class="g4_1"/>
<path d="M711.2 617l-.2 -2.1c.1 -3.2 -3 -8.8 -5.8 -10.5l-1.8 -.9" class="g1_1"/>
<path d="M745.7 530.2l24.9 43.5L795.4 617H695.7l25.1 -43.3l24.9 -43.5Z" class="g4_1"/>
<path d="M795.4 617l.9 -.5c2.8 -6.2 -2.6 -18 -5.5 -23.3l-2.7 -5.3M745.7 530.2l.6 -.3c6.6 -.4 13.9 12.1 17.7 16.2l3 4.9" class="g3_1"/>
<path clip-path="url(#c1_1)" d="M162.2 750.6l2.1 -2.8c28.4 -28.6 49.4 18.6 72.5 -4.8l3.1 -3.1M160.1 729l2.1 -2.7l2.8 -2.8c7 -6.5 17.7 -9.2 26.9 -5.8l6.8 2.4l6.4 3.1l5.8 2.3l2.8 1.1l2.7 1.1l2.8 .3h2.7l2.8 -.3l2.7 -.8l2.8 -1.4l3.1 -2l3.2 -2.4l3.1 -3.4" class="g5_1"/>
<path d="M351.1 748.1l-.3 -2.4l.3 -2.1c1.2 -10.2 16.7 -13.5 22.3 -4l.7 2l.4 2.4v2l-.8 2.1l-1 2l-1.4 1.7l-1.7 1.3l-1.7 1.5l-2.4 .6l-2.4 .8l-2.4 -.4l-2 -.4l-2.1 -.6l-1.8 -1.5l-1.6 -1.3l-1.1 -1.7l-1 -2Z" class="g6_1"/>
<path d="M336 772l1.7 .8l4 1.3c7.2 1.7 15.6 2.6 22.1 -1.7l1.7 -1.1l1.3 -1.4c5.3 -6.4 6.2 -9.7 7.7 -17.8l.2 -3.7v-4.1" class="g7_1"/>
<path d="M337 743l.3 2l-.3 2l-.7 2.1l-1.4 1.6l-1.3 1.8l-1.8 1.4l-2 1.1l-2.5 .6L325 756l-2.4 -.4l-2 -.6l-2.1 -1.1l-1.8 -1l-1.4 -1.8l-1 -2l-.6 -2.1v-4.4l1 -1.7l1 -2.1l1.4 -1.6l2.1 -1.5l2 -1l2 -.4l2.5 -.2l2.4 .2l2 .4l2.1 1l1.7 1.5l1.3 1.6l1.1 1.8l.7 2.4Z" class="g6_1"/>
<path d="M354.2 720.4l-1.4 -1c-21.7 -10.2 -35.3 -2 -39.1 20.8l-.4 4.1" class="g7_1"/>
<path clip-path="url(#c2_1)" d="M491.2 733.8l1.8 -.4l2.4 -.3l2.4 -1.1l2.7 -1.3l2.7 -1.7l2.4 -2.7l1 -1.8l1.1 -1.7l.7 2.1l1.4 4.8l1.1 3.1l1.3 3.1l2.1 3l2.1 2.5M425.9 729l1 -1.1c16.8 -16.1 19 12.4 19 23.4v10l.2 -8.3l.7 -7.8l1.4 -9l.7 -4.1l.6 -3.8l1.1 -3.1l1.4 -2.4l1.4 -1.4h1.4l1 .4l.7 .6l1.7 2.8l4.8 36.1l1 -8.3l1.4 -8.2l1.7 -8.9c1.1 -4.2 2.6 -11.8 5.9 -14.9h1.4c4.9 2.7 4.2 17.9 5.1 21.8l.7 6.8l.7 3.1l.7 3.1l1.4 2.1l1 2l1.1 .4l.6 .6h3.5l1 -.2l3.2 -1.8c7 -5.9 10 -12.9 12.2 -21.6l1 -5.5l.4 -4.5l.4 -4.1" class="g8_1"/>
<path clip-path="url(#c3_1)" d="M582 743.8h41.7m3 -29.9l-1.6 1l-3.8 3.1c-6.8 5.5 -11 14.1 -12 22.7v5.1l.4 2.7l.6 2.8l1.1 2.8l1.4 3.1l1.6 3.1l1.8 3.4l2.4 3.1l2.7 3.4l3 3.5M579.6 713.9l1.4 1l3.7 3.1c6.9 5.5 11.5 13.9 12.3 22.7V743l-.3 2.8c-.2 5.7 -5.4 17.1 -9.3 21l-2.4 3.4l-3.4 3.5" class="g9_1"/>
<path d="M129.9 853.2h36.7v-.9H129.9v.9Z" class="g0_1"/>
<path d="M364.9 877.1h36.7v-.9H364.9v.9Z" class="g0_1"/>
<path d="M364.9 878.9h36.7V878H364.9v.9Z" class="g0_1"/>
<path d="M201.8 1013.4L153.1 985.7V930l48.7 -27.8L250.6 930v55.3l-48.8 28.1M250.6 930l-48.8 83.4m0 -111.2l-48.7 83.5" class="ga_1"/>
<path d="M361.8 1013.1L313.2 985.3v-56l48.6 -27.8l48.6 27.8V985l-48.6 28.1m0 -111.6l-48.6 83.8m0 -56L410.4 985m116.3 29.3L478.1 986.4V930.5l48.6 -27.9l48.6 27.9v55.6l-48.6 28.2m0 -111.7l-48.6 83.8h97.2m114.6 27.4L641.1 986V930.4l48.8 -27.8l48.4 27.8V986l-48.4 27.8ZM641.1 986l48.8 -83.4v111.2" class="gb_1"/>
<path d="M297.9 1110.8H255.7m113.4 0H320.8m119.7 0H392.1m113.6 0H463.5m107.4 0H528.6" class="gc_1"/>
<path d="M180.9 1132.5h36.6v-1H180.9v1Z" class="g0_1"/>
<path d="M629 1132.5h36.7v-1H629v1Z" class="g0_1"/>
<path d="M400.9 1160h36.6v-.9H400.9v.9Z" class="g0_1"/>
<path d="M400.9 1161.9h36.6v-.9H400.9v.9Z" class="g0_1"/>
<path d="M181.3 1168H139.2m145.5 0H242.5m145.6 0H345.9m146.5 0H450.2" class="gc_1"/>
<image clip-path="url(#c4_1)" preserveAspectRatio="none" x="0" y="0" width="915" height="152" xlink:href="img/2.jpg"/>
<image clip-path="url(#c5_1)" preserveAspectRatio="none" x="23" y="157" width="871" height="36" xlink:href="img/3.png"/>
<image clip-path="url(#c6_1)" preserveAspectRatio="none" x="909" y="188" width="1" height="1" xlink:href="img/4.jpg"/>
<image clip-path="url(#c5_1)" preserveAspectRatio="none" x="21" y="186" width="874" height="8" xlink:href="img/5.png"/>
<image clip-path="url(#c7_1)" preserveAspectRatio="none" x="909" y="189" width="2" height="1" xlink:href="img/6.jpg"/>
<image clip-path="url(#c5_1)" preserveAspectRatio="none" x="21" y="187" width="877" height="8" xlink:href="img/7.png"/>
<image clip-path="url(#c8_1)" preserveAspectRatio="none" x="908" y="190" width="3" height="1" xlink:href="img/8.jpg"/>
<image clip-path="url(#c5_1)" preserveAspectRatio="none" x="21" y="188" width="878" height="8" xlink:href="img/9.png"/>
<image clip-path="url(#c9_1)" preserveAspectRatio="none" x="908" y="191" width="3" height="2" xlink:href="img/10.jpg"/>
<image clip-path="url(#c5_1)" preserveAspectRatio="none" x="21" y="189" width="880" height="8" xlink:href="img/11.png"/>
<image clip-path="url(#ca_1)" preserveAspectRatio="none" x="906" y="193" width="6" height="1" xlink:href="img/12.jpg"/>
<image clip-path="url(#c5_1)" preserveAspectRatio="none" x="21" y="190" width="881" height="8" xlink:href="img/13.png"/>
<image clip-path="url(#cb_1)" preserveAspectRatio="none" x="906" y="194" width="6" height="1" xlink:href="img/14.jpg"/>
<image clip-path="url(#c5_1)" preserveAspectRatio="none" x="21" y="191" width="883" height="8" xlink:href="img/15.png"/>
<image clip-path="url(#cc_1)" preserveAspectRatio="none" x="905" y="195" width="7" height="1" xlink:href="img/16.jpg"/>
<image clip-path="url(#c5_1)" preserveAspectRatio="none" x="21" y="193" width="884" height="7" xlink:href="img/17.png"/>
<image clip-path="url(#cd_1)" preserveAspectRatio="none" x="905" y="196" width="21" height="1" xlink:href="img/18.jpg"/>
<image clip-path="url(#c5_1)" preserveAspectRatio="none" x="21" y="194" width="851" height="7" xlink:href="img/19.png"/>
<image clip-path="url(#ce_1)" preserveAspectRatio="none" x="870" y="197" width="163" height="1" xlink:href="img/20.jpg"/>
<g clip-path="url(#c5_1)">
<image preserveAspectRatio="none" x="24" y="198" width="359" height="1" xlink:href="img/21.jpg"/>
<image preserveAspectRatio="none" x="385" y="198" width="28" height="1" xlink:href="img/22.jpg"/>
<image preserveAspectRatio="none" x="415" y="198" width="22" height="1" xlink:href="img/23.jpg"/>
<image preserveAspectRatio="none" x="442" y="198" width="11" height="1" xlink:href="img/24.jpg"/>
<image preserveAspectRatio="none" x="463" y="198" width="31" height="1" xlink:href="img/25.jpg"/>
<image preserveAspectRatio="none" x="497" y="198" width="16" height="1" xlink:href="img/26.jpg"/>
<image preserveAspectRatio="none" x="514" y="198" width="52" height="1" xlink:href="img/27.jpg"/>
<image preserveAspectRatio="none" x="568" y="198" width="16" height="1" xlink:href="img/28.jpg"/>
<image preserveAspectRatio="none" x="586" y="198" width="32" height="1" xlink:href="img/29.jpg"/>
<image preserveAspectRatio="none" x="626" y="198" width="13" height="1" xlink:href="img/30.jpg"/>
<image preserveAspectRatio="none" x="645" y="198" width="21" height="1" xlink:href="img/31.jpg"/>
<image preserveAspectRatio="none" x="669" y="198" width="27" height="1" xlink:href="img/32.jpg"/>
<image preserveAspectRatio="none" x="699" y="198" width="29" height="1" xlink:href="img/33.jpg"/>
</g>
<image clip-path="url(#cf_1)" preserveAspectRatio="none" x="729" y="198" width="329" height="1" xlink:href="img/34.jpg"/>
<g clip-path="url(#c5_1)">
<image preserveAspectRatio="none" x="24" y="199" width="359" height="1" xlink:href="img/35.jpg"/>
<image preserveAspectRatio="none" x="385" y="199" width="70" height="1" xlink:href="img/36.jpg"/>
<image preserveAspectRatio="none" x="461" y="199" width="157" height="1" xlink:href="img/37.jpg"/>
<image preserveAspectRatio="none" x="625" y="199" width="17" height="1" xlink:href="img/38.jpg"/>
<image preserveAspectRatio="none" x="644" y="199" width="52" height="1" xlink:href="img/39.jpg"/>
</g>
<image clip-path="url(#cg_1)" preserveAspectRatio="none" x="697" y="199" width="361" height="1" xlink:href="img/40.jpg"/>
<g clip-path="url(#c5_1)">
<image preserveAspectRatio="none" x="24" y="200" width="434" height="1" xlink:href="img/41.jpg"/>
<image preserveAspectRatio="none" x="461" y="200" width="158" height="1" xlink:href="img/42.jpg"/>
</g>
<image clip-path="url(#ch_1)" preserveAspectRatio="none" x="623" y="200" width="435" height="1" xlink:href="img/43.jpg"/>
<image clip-path="url(#c5_1)" preserveAspectRatio="none" x="24" y="201" width="435" height="1" xlink:href="img/44.jpg"/>
<image clip-path="url(#ci_1)" preserveAspectRatio="none" x="460" y="201" width="598" height="1" xlink:href="img/45.jpg"/>
<image clip-path="url(#cj_1)" preserveAspectRatio="none" x="24" y="202" width="887" height="2" xlink:href="img/46.jpg"/>
<image preserveAspectRatio="none" x="516" y="266" width="45" height="79" xlink:href="img/47.jpg"/>
<image preserveAspectRatio="none" x="632" y="271" width="69" height="69" xlink:href="img/48.jpg"/>
<image preserveAspectRatio="none" x="761" y="271" width="68" height="69" xlink:href="img/49.jpg"/>
<path d="M43.4 751.4H99.6V695.2H43.4v56.2Z" class="gd_1"/>
<image preserveAspectRatio="none" x="43" y="695" width="57" height="56" xlink:href="img/50.png"/>
<path d="M43.4 908H99.6V851.8H43.4V908Z" class="gd_1"/>
<image preserveAspectRatio="none" x="43" y="852" width="57" height="56" xlink:href="img/51.png"/>
<image preserveAspectRatio="none" x="713" y="1078" width="144" height="139" xlink:href="img/52.jpg"/>
<path d="M43.4 1157H99.6v-56.2H43.4V1157Z" class="gd_1"/>
<image preserveAspectRatio="none" x="43" y="1101" width="57" height="56" xlink:href="img/53.png"/>
</svg>