<?xml version="1.0" encoding="UTF-8" standalone="no"?>
<!DOCTYPE svg PUBLIC "-//W3C//DTD SVG 1.1//EN"
"http://www.w3.org/Graphics/SVG/1.1/DTD/svg11.dtd">
<svg viewBox="0 0 909 1286" version="1.1" xmlns="http://www.w3.org/2000/svg" xmlns:xlink="http://www.w3.org/1999/xlink">
<defs>
<clipPath id="c0_10"><path d="M-.2 1286.6v-74.9h910v74.9Z"/></clipPath>
<clipPath id="c1_10"><path d="M132.6 549.6V493.2h78.6v56.4Z"/></clipPath>
<clipPath id="c2_10"><path d="M278.2 549.6V493.2H362v56.4Z"/></clipPath>
<clipPath id="c3_10"><path d="M714.9 363.4V266.6H829.8v96.8Z"/></clipPath>
<clipPath id="c4_10"><path d="M663.9 990.1V914.4H836.6v75.7Z"/></clipPath>
<style type="text/css"><![CDATA[
.g0_10{
fill: none;
stroke: #000;
stroke-width: 0.763;
stroke-linecap: square;
stroke-miterlimit: 10;
}
.g1_10{
fill: none;
stroke: #000;
stroke-width: 0.765;
stroke-linecap: square;
stroke-miterlimit: 10;
}
.g2_10{
fill: #000;
}
.g3_10{
fill: none;
stroke: #000;
stroke-width: 1.099;
stroke-linecap: square;
stroke-miterlimit: 10;
}
.g4_10{
fill: none;
stroke: #000;
stroke-width: 1.163;
stroke-linecap: round;
stroke-linejoin: round;
}
]]></style>
</defs>
<image clip-path="url(#c0_10)" preserveAspectRatio="none" x="-4" y="1212" width="952" height="131" xlink:href="img/1.jpg"/>
<path d="M431.1 74h24M480 74h24.9M220.5 101.7h25" class="g0_10"/>
<path d="M271 101.7h24.1m157.2 .2h23.3M154.4 153.6h23.2" class="g1_10"/>
<path d="M392.2 153.4h24.9" class="g0_10"/>
<path d="M497.6 153.6h23.3" class="g1_10"/>
<path d="M153.3 181.3h24.1" class="g0_10"/>
<path d="M257.2 181.4h23.3m245.7 0h23.3M168.7 259.6H192m139.7 -.2h24.1M183.9 287.3H208" class="g1_10"/>
<path d="M344.9 287.5h23.2" class="g0_10"/>
<path d="M382.4 332.4h36.7v-.9H382.4v.9Z" class="g2_10"/>
<path d="M382.4 334.2h36.7v-.9H382.4v.9Z" class="g2_10"/>
<path d="M154.4 339h24.1m113.9 .1h23.3" class="g1_10"/>
<path d="M619.9 339H644M153.3 366.8h24.4" class="g0_10"/>
<path d="M275.6 366.6h24.1" class="g1_10"/>
<path d="M399.9 366.8h23.2m183.6 -.2h24.9" class="g0_10"/>
<path d="M657.1 366.6h24.1m100.2 .2h23.3M549 445.3h37.4" class="g1_10"/>
<image clip-path="url(#c1_10)" preserveAspectRatio="none" x="133" y="494" width="78" height="55" xlink:href="img/2.jpg"/>
<image clip-path="url(#c2_10)" preserveAspectRatio="none" x="279" y="494" width="83" height="55" xlink:href="img/3.jpg"/>
<image preserveAspectRatio="none" x="441" y="494" width="91" height="55" xlink:href="img/4.jpg"/>
<image preserveAspectRatio="none" x="613" y="494" width="55" height="55" xlink:href="img/5.jpg"/>
<path d="M438.4 941.8H407.2m207.7 137.3H583.7" class="g3_10"/>
<image preserveAspectRatio="none" x="24" y="819" width="822" height="39" xlink:href="img/6.png"/>
<path d="M717.6 172.5L817.4 98m0 0v74.5m0 0H717.6" class="g4_10"/>
<path fill-rule="evenodd" d="M767.6 133.5c-1.3 0 -2.3 1.1 -2.3 2.3c0 1.3 1 2.3 2.3 2.3c1.3 0 2.3 -1 2.3 -2.3c0 -1.2 -1 -2.3 -2.3 -2.3Z" class="g2_10"/>
<image preserveAspectRatio="none" x="43" y="95" width="57" height="56" xlink:href="img/7.jpg"/>
<image preserveAspectRatio="none" x="43" y="280" width="57" height="56" xlink:href="img/8.jpg"/>
<image clip-path="url(#c3_10)" preserveAspectRatio="none" x="715" y="267" width="114" height="96" xlink:href="img/9.jpg"/>
<image preserveAspectRatio="none" x="43" y="466" width="57" height="57" xlink:href="img/10.jpg"/>
<image clip-path="url(#c4_10)" preserveAspectRatio="none" x="664" y="915" width="172" height="75" xlink:href="img/11.jpg"/>
</svg>