<?xml version="1.0" encoding="UTF-8" standalone="no"?>
<!DOCTYPE svg PUBLIC "-//W3C//DTD SVG 1.1//EN"
"http://www.w3.org/Graphics/SVG/1.1/DTD/svg11.dtd">
<svg viewBox="0 0 909 1286" version="1.1" xmlns="http://www.w3.org/2000/svg" xmlns:xlink="http://www.w3.org/1999/xlink">
<defs>
<clipPath id="c0_1"><path d="M-.2 1286.6v-57.8h910v57.8Z"/></clipPath>
<clipPath id="c1_1"><path d="M-.2 151.6V-.2h910V151.6Z"/></clipPath>
<clipPath id="c2_1"><path d="M22.5 202.8V153H909.8v49.8Z"/></clipPath>
<clipPath id="c3_1"><path d="M31.5 645.4V605.8H855v39.6Z"/></clipPath>
<style type="text/css"><![CDATA[
.g0_1{
fill: #CFC;
}
.g1_1{
fill: #70AD47;
}
.g2_1{
fill: #FEF;
}
.g3_1{
fill: #FFFFE8;
}
.g4_1{
fill: none;
stroke: #000;
stroke-width: 1.027;
stroke-linecap: square;
stroke-miterlimit: 10;
}
.g5_1{
fill: #FFF4E3;
}
.g6_1{
fill: #DDF4FF;
}
.g7_1{
fill: none;
stroke: #F00;
stroke-width: 1.82;
stroke-linecap: square;
stroke-miterlimit: 10;
}
.g8_1{
fill: none;
stroke: #000;
stroke-width: 1.028;
stroke-linecap: square;
stroke-miterlimit: 10;
}
.g9_1{
fill: none;
stroke: #090;
stroke-width: 1.821;
stroke-linecap: square;
stroke-miterlimit: 10;
}
.ga_1{
fill: none;
stroke: #F00;
stroke-width: 1.821;
stroke-linecap: square;
stroke-miterlimit: 10;
}
.gb_1{
fill: #AAF;
}
.gc_1{
fill: #CCF;
}
.gd_1{
fill: none;
stroke: #000;
stroke-width: 1.231;
stroke-linecap: square;
stroke-miterlimit: 10;
}
.ge_1{
fill: #FCF;
}
.gf_1{
fill: #F9F;
}
.gg_1{
fill: none;
stroke: #000;
stroke-width: 1.249;
stroke-linecap: square;
stroke-miterlimit: 10;
}
.gh_1{
fill: #59FF59;
}
.gi_1{
fill: #A8FFA8;
}
.gj_1{
fill: none;
stroke: #000;
stroke-width: 1.233;
stroke-linecap: square;
stroke-miterlimit: 10;
}
.gk_1{
fill: #CFF;
}
.gl_1{
fill: #80FFFF;
}
.gm_1{
fill: none;
stroke: #000;
stroke-width: 1.232;
stroke-linecap: square;
stroke-miterlimit: 10;
}
.gn_1{
fill: none;
stroke: #000;
stroke-width: 1.256;
stroke-linecap: square;
stroke-miterlimit: 10;
}
.go_1{
fill: #000;
}
.gp_1{
fill: none;
stroke: #000;
stroke-width: 2.549;
stroke-linecap: square;
stroke-miterlimit: 10;
}
.gq_1{
fill: #F90;
}
]]></style>
</defs>
<image clip-path="url(#c0_1)" preserveAspectRatio="none" x="-2" y="1229" width="930" height="128" xlink:href="img/1.jpg"/>
<path fill-rule="evenodd" d="M35.4 267.7H69.5V240.2H35.4v27.5Z" class="g0_1"/>
<path d="M43.3 267.7H61.6V240.2H43.3v27.5Z" class="g0_1"/>
<path fill-rule="evenodd" d="M70.2 267.7H324.5V240.2H70.2v27.5Z" class="g0_1"/>
<path d="M78.1 267.7H316.6V240.2H78.1v27.5Z" class="g0_1"/>
<path fill-rule="evenodd" d="M325.2 267.7H601V240.2H325.2v27.5Z" class="g0_1"/>
<path d="M333.1 267.7h260V240.2h-260v27.5Z" class="g0_1"/>
<path fill-rule="evenodd" d="M601.7 267.7H866.8V240.2H601.7v27.5Z" class="g0_1"/>
<path d="M609.6 267.7H858.9V240.2H609.6v27.5Z" class="g0_1"/>
<path d="M34.7 240.2h.7v-.8h-.7v.8Z" class="g1_1"/>
<path d="M34.7 240.2h.7v-.8h-.7v.8Z" class="g1_1"/>
<path d="M35.4 240.2H69.5v-.8H35.4v.8Z" class="g1_1"/>
<path d="M69.5 240.2h.7v-.8h-.7v.8Z" class="g1_1"/>
<path d="M70.2 240.2H324.5v-.8H70.2v.8Z" class="g1_1"/>
<path d="M324.5 240.2h.7v-.8h-.7v.8Z" class="g1_1"/>
<path d="M325.2 240.2H601v-.8H325.2v.8Z" class="g1_1"/>
<path d="M601 240.2h.7v-.8H601v.8Z" class="g1_1"/>
<path d="M601.7 240.2H866.6v-.8H601.7v.8Z" class="g1_1"/>
<path d="M866.6 240.2h.7v-.8h-.7v.8Z" class="g1_1"/>
<path d="M866.6 240.2h.7v-.8h-.7v.8Z" class="g1_1"/>
<path d="M34.7 267.7h.7V240.2h-.7v27.5Z" class="g1_1"/>
<path d="M69.5 267.7h.7V240.2h-.7v27.5Z" class="g1_1"/>
<path d="M324.5 267.7h.7V240.2h-.7v27.5Z" class="g1_1"/>
<path d="M601 267.7h.7V240.2H601v27.5Z" class="g1_1"/>
<path d="M866.6 267.7h.7V240.2h-.7v27.5Z" class="g1_1"/>
<path fill-rule="evenodd" d="M35.4 337.3H69.5V268.6H35.4v68.7Z" class="g0_1"/>
<path fill-rule="evenodd" d="M43.3 302.9H61.6V275.4H43.3v27.5Z" class="g0_1"/>
<path fill-rule="evenodd" d="M43.3 330.4H61.6V302.9H43.3v27.5Z" class="g0_1"/>
<path d="M34.7 268.4h.7v-.7h-.7v.7Z" class="g1_1"/>
<path d="M35.4 268.4H69.5v-.7H35.4v.7Z" class="g1_1"/>
<path d="M69.5 268.4h.7v-.7h-.7v.7Z" class="g1_1"/>
<path d="M70.2 268.4H324.5v-.7H70.2v.7Z" class="g1_1"/>
<path d="M324.5 268.4h.7v-.7h-.7v.7Z" class="g1_1"/>
<path d="M325.2 268.4H601v-.7H325.2v.7Z" class="g1_1"/>
<path d="M601 268.4h.7v-.7H601v.7Z" class="g1_1"/>
<path d="M601.7 268.4H866.6v-.7H601.7v.7Z" class="g1_1"/>
<path d="M866.6 268.4h.7v-.7h-.7v.7Z" class="g1_1"/>
<path d="M34.7 337.3h.7V268.4h-.7v68.9Z" class="g1_1"/>
<path d="M69.5 337.3h.7V268.4h-.7v68.9Z" class="g1_1"/>
<path d="M324.5 337.3h.7V268.4h-.7v68.9Z" class="g1_1"/>
<path d="M601 337.3h.7V268.4H601v68.9Z" class="g1_1"/>
<path d="M866.6 337.3h.7V268.4h-.7v68.9Z" class="g1_1"/>
<path fill-rule="evenodd" d="M35.4 542.8H69.5V338.1H35.4V542.8Z" class="g0_1"/>
<path fill-rule="evenodd" d="M43.3 440.4H61.6V412.9H43.3v27.5Z" class="g0_1"/>
<path fill-rule="evenodd" d="M43.3 467.9H61.6V440.4H43.3v27.5Z" class="g0_1"/>
<path d="M132.8 472.3l45.3 -42.4h39.2v42.4Z" class="g2_1"/>
<path d="M217.3 429.9h45.6l-45.6 42.4Z" class="g2_1"/>
<path d="M132.4 472.3V400.8H178l.1 29.1l-45.3 42.4Z" class="g3_1"/>
<path d="M132.6 400.8l45.3 -42.4l.1 42.4Z" class="g3_1"/>
<path d="M217.3 400.8h.3l45.2 -42.3m-130 113.8l2.3 -2.2m2.3 -2.1l2.2 -2.2m2.3 -2.1l2.3 -2.1m2.3 -2.1l2.3 -2.2m2.2 -2.2l2.3 -2.1m2.3 -2.1l2.3 -2.2m2.3 -2.1l2.2 -2.2m2.3 -2l2.3 -2.2m2.3 -2.1l2.3 -2.1m2.2 -2.1l2.3 -2.2m2.1 -1.8h3.1m3.1 0h3.1m3.1 0h3.1m3.1 0h3.1m3.1 0h3.2m3.1 0h3.1m3.1 0h3.1m3.1 0h3.1m3.1 0H231m3.1 0h3.1m3.1 0h3.2m3.1 0h3.1m3.1 0h3.1m3.1 0h3.1m-84 0v-3.2m0 -3.1v-3.1m0 -3.1v-3.1m0 -3.1v-3.1m0 -3.1l-.1 -3.1m0 -3.1v-3.1m0 -3.1v-3.1m0 -3.2v-3.1m0 -3.1V377m0 -3.1v-3.1m0 -3.1v-3.1m-.1 -3.1v-3.1m39.4 113.9V400.8m-84.7 0h84.7m-84.7 0h-.2v71.5h84.9m0 0l45.6 -42.4l-.1 -71.4m0 0v-.1H177.9l-45.3 42.4" class="g4_1"/>
<path d="M398.7 472.3l45.2 -42.4h39.3v42.4Z" class="g5_1"/>
<path d="M483.2 429.9h45.6l-45.6 42.4Z" class="g5_1"/>
<path d="M483.2 400.8L443.8 358.4h84.8v.1l-45.1 42.3Z" class="g6_1"/>
<path d="M443.9 400.8l-.1 -42.4l39.4 42.4Z" class="g6_1"/>
<path d="M398.5 400.8l45.2 -42.4h.1l.1 42.4Z" class="g6_1"/>
<path d="M398.5 400.8h-.3v71.5h85M528.6 358.5l.1 -.1h-85l-45.2 42.4m84.7 71.5l45.6 -42.4l-.2 -71.4m-84.7 71.4v-3.2m0 -3.1v-3.1m0 -3.1v-3.1m0 -3.1v-3.1m0 -3.1v-3.1m0 -3.1v-3.1m0 -3.1v-3.1m0 -3.2v-3.1m0 -3.1V377m0 -3.1v-3.1m0 -3.1v-3.1m-.1 -3.1v-3.1m39.4 42.4h.3l45.1 -42.3M483.2 472.3V400.8m-84.7 0h84.7m-84.5 71.5l2.2 -2.2m2.3 -2.1l2.3 -2.2m2.3 -2.1l2.2 -2.2m2.3 -2l2.3 -2.2m2.3 -2.2l2.3 -2.1m2.2 -2.1l2.3 -2.2m2.3 -2.1l2.3 -2.2m2.3 -2l2.2 -2.2m2.3 -2.1l2.3 -2.1m2.3 -2.1l2.3 -2.2m2 -1.8h3.1m3.2 0h3.1m3.1 0h3.1m3.1 0h3.1m3.1 0H472m3.1 0h3.1m3.1 0h3.1m3.2 0h3.1m3.1 0h3.1m3.1 0h3.1m3.1 0h3.1m3.1 0h3.1m3.1 0h3.1m3.2 0H528" class="g4_1"/>
<path d="M483.2 400.8L443.8 358.4" class="g7_1"/>
<path d="M799.8 358.5v-.1h-85l-45.2 42.4m0 0h-.3M715 429.9v-3.2m0 -3.1v-3.1m0 -3.1v-3.1m0 -3.1v-3.1m0 -3.1v-3.1m0 -3.1v-3.1m0 -3.1v-3.1m0 -3.2v-3.1m0 -3.1V377m0 -3.1v-3.1m0 -3.1v-3.1m-.1 -3.1v-3.1m-45.3 42.4h84.7m-85 71.5h85m0 0L800 429.9l-.2 -71.4M669.7 472.3l2.3 -2.2m2.3 -2.1l2.3 -2.2m2.3 -2.1l2.2 -2.2m2.3 -2l2.3 -2.2m2.3 -2.2l2.3 -2.1m2.2 -2.1l2.3 -2.2m2.3 -2.1l2.3 -2.2m2.3 -2l2.2 -2.2m2.3 -2.1l2.3 -2.1m2.3 -2.1l2.3 -2.2m2 -1.8h3.1m3.2 0h3.1m3.1 0h3.1m3.1 0h3.1m3.1 0h3.1m3.2 0h3.1m3.1 0h3.1m3.1 0h3.1m3.1 0H768m3.1 0h3.1m3.1 0h3.2m3.1 0h3.1m3.1 0h3.1m3.1 0h3.1M754.3 400.8h.3l45.2 -42.3m-45.5 42.3v71.5" class="g8_1"/>
<path d="M669.3 400.8v71.5" class="g9_1"/>
<path d="M754.3 400.8L714.9 358.4" class="ga_1"/>
<path d="M34.7 338.1h.7v-.8h-.7v.8Z" class="g1_1"/>
<path d="M35.4 338.1H69.5v-.8H35.4v.8Z" class="g1_1"/>
<path d="M69.5 338.1h.7v-.8h-.7v.8Z" class="g1_1"/>
<path d="M70.2 338.1H324.5v-.8H70.2v.8Z" class="g1_1"/>
<path d="M324.5 338.1h.7v-.8h-.7v.8Z" class="g1_1"/>
<path d="M325.2 338.1H601v-.8H325.2v.8Z" class="g1_1"/>
<path d="M601 338.1h.7v-.8H601v.8Z" class="g1_1"/>
<path d="M601.7 338.1H866.6v-.8H601.7v.8Z" class="g1_1"/>
<path d="M866.6 338.1h.7v-.8h-.7v.8Z" class="g1_1"/>
<path d="M34.7 542.8h.7V338.1h-.7V542.8Z" class="g1_1"/>
<path d="M34.7 543.6h.7v-.8h-.7v.8Z" class="g1_1"/>
<path d="M34.7 543.6h.7v-.8h-.7v.8Z" class="g1_1"/>
<path d="M35.4 543.6H69.5v-.8H35.4v.8Z" class="g1_1"/>
<path d="M69.5 542.8h.7V338.1h-.7V542.8Z" class="g1_1"/>
<path d="M69.5 543.6h.7v-.8h-.7v.8Z" class="g1_1"/>
<path d="M70.2 543.6H324.5v-.8H70.2v.8Z" class="g1_1"/>
<path d="M324.5 542.8h.7V338.1h-.7V542.8Z" class="g1_1"/>
<path d="M324.5 543.6h.7v-.8h-.7v.8Z" class="g1_1"/>
<path d="M325.2 543.6H601v-.8H325.2v.8Z" class="g1_1"/>
<path d="M601 542.8h.7V338.1H601V542.8Z" class="g1_1"/>
<path d="M601 543.6h.7v-.8H601v.8Z" class="g1_1"/>
<path d="M601.7 543.6H866.6v-.8H601.7v.8Z" class="g1_1"/>
<path d="M866.6 542.8h.7V338.1h-.7V542.8Z" class="g1_1"/>
<path d="M866.6 543.6h.7v-.8h-.7v.8Z" class="g1_1"/>
<path d="M866.6 543.6h.7v-.8h-.7v.8Z" class="g1_1"/>
<path fill-rule="evenodd" d="M57.4 702h95.3V678.1H57.4V702Z" class="g0_1"/>
<path fill-rule="evenodd" d="M65.3 700.7h79.5V679.6H65.3v21.1Z" class="g0_1"/>
<path fill-rule="evenodd" d="M153.6 702H271V678.1H153.6V702Z" class="g0_1"/>
<path d="M161.3 702H263.1V678.1H161.3V702Z" class="g0_1"/>
<path fill-rule="evenodd" d="M271.7 702H389.2V678.1H271.7V702Z" class="g0_1"/>
<path d="M279.6 702H381.3V678.1H279.6V702Z" class="g0_1"/>
<path fill-rule="evenodd" d="M390 702H507.3V678.1H390V702Z" class="g0_1"/>
<path d="M397.8 702H499.4V678.1H397.8V702Z" class="g0_1"/>
<path fill-rule="evenodd" d="M508 702H625.5V678.1H508V702Z" class="g0_1"/>
<path d="M515.9 702H617.7V678.1H515.9V702Z" class="g0_1"/>
<path fill-rule="evenodd" d="M626.3 702H743.6V678.1H626.3V702Z" class="g0_1"/>
<path d="M634.1 702H735.7V678.1H634.1V702Z" class="g0_1"/>
<path fill-rule="evenodd" d="M744.3 702H861.9V678.1H744.3V702Z" class="g0_1"/>
<path d="M752.2 702H854V678.1H752.2V702Z" class="g0_1"/>
<path d="M56.7 678.1h.7v-.7h-.7v.7Z" class="g1_1"/>
<path d="M56.7 678.1h.7v-.7h-.7v.7Z" class="g1_1"/>
<path d="M57.4 678.1h95.3v-.7H57.4v.7Z" class="g1_1"/>
<path d="M152.7 678.1h.8v-.7h-.8v.7Z" class="g1_1"/>
<path d="M153.5 678.1H271v-.7H153.5v.7Z" class="g1_1"/>
<path d="M271 678.1h.7v-.7H271v.7Z" class="g1_1"/>
<path d="M271.7 678.1H389v-.7H271.7v.7Z" class="g1_1"/>
<path d="M389 678.1h.8v-.7H389v.7Z" class="g1_1"/>
<path d="M389.8 678.1H507.3v-.7H389.8v.7Z" class="g1_1"/>
<path d="M507.3 678.1h.7v-.7h-.7v.7Z" class="g1_1"/>
<path d="M508 678.1H625.5v-.7H508v.7Z" class="g1_1"/>
<path d="M625.5 678.1h.8v-.7h-.8v.7Z" class="g1_1"/>
<path d="M626.3 678.1H743.6v-.7H626.3v.7Z" class="g1_1"/>
<path d="M743.6 678.1h.7v-.7h-.7v.7Z" class="g1_1"/>
<path d="M744.3 678.1H861.9v-.7H744.3v.7Z" class="g1_1"/>
<path d="M861.9 678.1h.7v-.7h-.7v.7Z" class="g1_1"/>
<path d="M861.9 678.1h.7v-.7h-.7v.7Z" class="g1_1"/>
<path d="M56.7 702h.7V678.1h-.7V702Z" class="g1_1"/>
<path d="M152.7 702h.8V678.1h-.8V702Z" class="g1_1"/>
<path d="M271 702h.7V678.1H271V702Z" class="g1_1"/>
<path d="M389 702h.8V678.1H389V702Z" class="g1_1"/>
<path d="M507.3 702h.7V678.1h-.7V702Z" class="g1_1"/>
<path d="M625.5 702h.8V678.1h-.8V702Z" class="g1_1"/>
<path d="M743.6 702h.7V678.1h-.7V702Z" class="g1_1"/>
<path d="M861.9 702h.7V678.1h-.7V702Z" class="g1_1"/>
<path fill-rule="evenodd" d="M57.4 810.5h95.3V702.7H57.4V810.5Z" class="g0_1"/>
<path fill-rule="evenodd" d="M65.3 768.5h79.5V744.7H65.3v23.8Z" class="g0_1"/>
<path d="M217.9 776.2l-.1 -39.8l.3 .2l17.8 -27.3v66.9Z" class="gb_1"/>
<path d="M217.8 736.4L187.3 709.1h48.6v.2l-17.8 27.3Z" class="gc_1"/>
<path d="M217.9 776.2h18L218 803.6Z" class="gb_1"/>
<path d="M187.3 776.3v-.1h30.6l.1 27.4Z" class="gc_1"/>
<path d="M187.3 776.2V709.1l30.5 27.3l.1 39.8Z" class="gc_1"/>
<path d="M217.8 736.4l.3 .2l17.8 -27.3m0 0v-.2m0 .2l.1 -.2h-.1M218 803.6l-.1 -27.4l-.1 -39.8m18.1 39.8h-2.5m-2.5 0h-2.4m-2.5 0h-2.5m-2.5 0h-2.5m-2.5 0h-2.5m-2.4 0h-2.5m-2.5 0h-2.5m-2.5 0h-2.4m-2.5 0h-2.5m-2.5 0h-2.5m-1.4 -67.1v67.2L218 803.6m0 0l17.9 -27.4V709.3m0 -.2H187.3m0 0l30.5 27.3" class="gd_1"/>
<path d="M315.6 734.2V711.4h45.1L344.9 734l-.1 .2Z" class="ge_1"/>
<path d="M299.5 734.2l15.9 -22.8h.2v22.8Z" class="ge_1"/>
<path d="M345.1 778.4l-.2 -44.2V734l15.8 -22.6l.2 67Z" class="gf_1"/>
<path d="M315.9 778.4l-.3 -44.2h29.3l.2 44.2Z" class="ge_1"/>
<path d="M299.5 734.2h16.1l.3 44.2h-.3l-16 22.8Z" class="ge_1"/>
<path d="M299.6 801.2l16 -22.8h29.5l.2 22.5l-.3 .3Z" class="ge_1"/>
<path d="M345.1 778.4h15.8v.1l-15.6 22.4Z" class="gf_1"/>
<path d="M360.9 778.4h.1l-.1 .1Z" class="ge_1"/>
<path d="M360.7 711.4v0H315.4l-15.9 22.8m45.8 66.7l-.2 -22.5l-.2 -44.3V734m-45.4 .1h45.3l.1 -.1M361 778.4h-2.7m-2.5 0h-2.5m-2.5 0h-2.5m-2.6 0h-2.4m-2.5 0h-2.5m-2.6 0h-2.5m-2.5 0h-2.5m-2.5 0h-2.6m-2.5 0h-2.5m-2.2 -.2v-2.6m0 -2.6v-2.6m0 -2.5v-2.6m0 -2.6v-2.6m0 -2.6V755m0 -2.6v-2.6m0 -2.6v-2.5m0 -2.6l-.1 -2.6m0 -2.6l-.2 -2.6m0 -2.6v-2.6m0 -2.6V724m0 -2.6v-2.6m0 -2.6v-2.5m.3 64.7h-.3M299.5 734.1l.1 67.1H345l.3 -.3M315.6 778.4l-1.5 2.1m-1.5 2.1l-1.5 2m-1.5 2.1l-1.4 2m-1.4 2.1l-1.5 2.1m-1.4 2l-1.4 2.1m-1.3 2.2l-1.6 2m61.3 -22.7v-.1l-.2 -67m.2 67.1l.1 -.1M344.9 734l15.8 -22.6m-15.4 89.5l15.6 -22.4" class="gg_1"/>
<path d="M429.8 739.3L418.4 718.8L448 706l.1 .1v33.2Z" class="g0_1"/>
<path d="M466.3 739.3H448.1V706.1l29.6 12.7l-11.3 20.5Z" class="g0_1"/>
<path d="M448.1 773V739.3h18.2v41.5Z" class="g0_1"/>
<path d="M466.3 780.8V739.3h.1l11.3 -20.5v66.8Z" class="gh_1"/>
<path d="M429.8 739.3h18.3v33.6H448l-18.4 7.9Z" class="g0_1"/>
<path d="M418.4 718.8l11.4 20.5l-.2 41.5l-11.2 4.9Z" class="gi_1"/>
<path d="M418.4 785.7l11.2 -4.9V806Z" class="gi_1"/>
<path d="M429.8 806.2l-.2 -.2V780.8L448 772.9l.1 .1l18.2 7.8v25.4Z" class="g0_1"/>
<path d="M466.3 806.2V780.8l11.4 4.8l-11.3 20.6Z" class="gh_1"/>
<path d="M477.7 718.8L448.1 706.1L448 706l-29.6 12.8m47.9 20.5H429.8M448.1 773v-2.6m0 -2.6v-2.5m0 -2.6v-2.6m0 -2.6V755m0 -2.6v-2.6m0 -2.6v-2.5m0 -2.6v-2.5m0 -2.6v-2.6m0 -2.6v-2.6m0 -2.5v-2.6m0 -2.5V719m0 -2.6v-2.6m0 -2.5v-2.6m0 -2.6v0m29.6 12.7l-11.3 20.5h-.1m-36.5 0l-.2 41.5V806M418.4 718.8l11.4 20.5M418.4 718.8v66.9L429.6 806m36.7 .2H429.8l-.2 -.2M448 772.9l-2.2 1m-2.4 1l-2.3 1.1m-2.3 .9l-2.2 1.1m-2.4 .9l-2.2 1m-2.4 .9l-2.2 1m-2.2 1l-2.3 1m-2.3 .9l-2.2 .9m47.9 20.6h.1l11.3 -20.6V718.8m0 66.7l-2.4 -.9m-2.2 -1l-2.3 -.9m-2.3 -1.1l-2.2 -.9h-.1m-2.3 -1l-2.2 -1m-2.4 -1l-2.2 -1m-2.4 -.9l-2.2 -1m-2.4 -.9l-2 -.9m-.1 -.1l.1 .1m18.2 -33.7v66.9" class="gj_1"/>
<path d="M557.9 742.4l-.1 -32.3l.2 -.2l28.3 4.4l.3 .7l-.2 22.1L574 744.9Z" class="gk_1"/>
<path d="M545.6 740.5v0l-7.9 -17.2l-.1 -.3l20.2 -12.9l.1 32.3Z" class="gk_1"/>
<path d="M545.6 740.5l12.3 1.9v24.7l-12.4 8.1Z" class="gk_1"/>
<path d="M537.7 723.3l7.9 17.2l-.1 34.7l-7.8 4.9Z" class="gk_1"/>
<path d="M586.6 771.8l-.1 -.3h-.1l-.2 -.1l.2 -34.3l7.7 -5l.2 56.6Z" class="gl_1"/>
<path d="M586.6 715l7.8 16.9l-.3 .2l-7.7 5Z" class="gk_1"/>
<path d="M574 769.5V744.9l12.4 -7.8l-.2 34.3Z" class="gl_1"/>
<path d="M558.1 767h-.2V742.4l16.1 2.5v24.6Z" class="gk_1"/>
<path d="M586.2 771.5v-.1l.2 .1h.1l.1 .3Z" class="gk_1"/>
<path d="M574 802V769.5l12.2 1.9v.1l.4 .3l7.7 16.9v.4L574.1 802Z" class="gl_1"/>
<path d="M594.3 788.7l.2 .3l-.2 .1Z" class="gk_1"/>
<path d="M545.7 797.6l-.2 -.3l-.1 -.7l.1 -21.4l12.4 -8.1l.2 -.1l15.9 2.5V802Z" class="gk_1"/>
<path d="M545.3 796.7l-.3 -.6l-7.3 -16l7.8 -4.9l-.1 21.4l.1 .7Z" class="gk_1"/>
<path d="M594.1 732.1l.3 -.2L586.6 715l-.3 -.7L558 709.9l-.2 .2L537.6 723l.1 .3m7.9 17.2l12.3 1.9l16.1 2.5M537.7 723.3l7.9 17.2m-7.9 39.6l2.2 -1.4m2.1 -1.3l2.1 -1.4m2.2 -1.3l2.1 -1.4m2.1 -1.4l2.1 -1.4m2.1 -1.4l2.1 -1.2m1.1 -1.9v-2.5m0 -2.6v-2.5m0 -2.6v-2.6m0 -2.5v-2.6m0 -2.5V743m0 -2.6v-2.6m0 -2.5v-2.6m0 -2.5v-2.6m0 -2.6v-2.5m0 -2.6v-2.5m0 -2.6l-.1 -2.6M574 744.9l12.4 -7.8l7.7 -5m-7.9 39.3v-2.6m0 -2.5v-2.6m0 -2.6v-2.5m0 -2.6v-2.5m0 -2.6v-2.6m0 -2.5l.1 -2.6m0 -2.5l.1 -2.6m0 -2.6v-2.6m0 -2.6v-2.5m0 -2.6l.1 -2.5m0 -2.6l.1 -2.6m7.7 71.1l-1.1 -2.3m-1 -2.3l-1.1 -2.3m-1 -2.3L589 777.1m-1 -2.3l-1.1 -2.3m-.3 -.7l-.1 -.3h-.1l-.2 -.1m0 0l-2.5 -.4m-2.5 -.4l-2.5 -.4m-2.4 -.4l-2.3 -.3m-2.5 -.4l-2.5 -.4m-2.5 -.4l-2.5 -.4m-2.4 -.4l-2.5 -.4M574 802h.1l20.2 -12.9m0 0l.2 -.1l-.2 -.3m0 .4v-.4M574 802V744.9M558.1 767l-.2 .1M545.6 740.5l-.1 34.7l-.1 21.4l.1 .7m-.2 -.6l.2 .6m0 0l.2 .3L574 802M537.8 723.3v56.8l7.2 16m49.4 -7.4l-.3 -56.6" class="gm_1"/>
<path d="M56.7 702.7h.7V702h-.7v.7Z" class="g1_1"/>
<path d="M57.4 702.7h95.3V702H57.4v.7Z" class="g1_1"/>
<path d="M152.7 702.7h.8V702h-.8v.7Z" class="g1_1"/>
<path d="M153.5 702.7H271V702H153.5v.7Z" class="g1_1"/>
<path d="M271 702.7h.7V702H271v.7Z" class="g1_1"/>
<path d="M271.7 702.7H389V702H271.7v.7Z" class="g1_1"/>
<path d="M389 702.7h.8V702H389v.7Z" class="g1_1"/>
<path d="M389.8 702.7H507.3V702H389.8v.7Z" class="g1_1"/>
<path d="M507.3 702.7h.7V702h-.7v.7Z" class="g1_1"/>
<path d="M508 702.7H625.5V702H508v.7Z" class="g1_1"/>
<path d="M625.5 702.7h.8V702h-.8v.7Z" class="g1_1"/>
<path d="M626.3 702.7H743.6V702H626.3v.7Z" class="g1_1"/>
<path d="M743.6 702.7h.7V702h-.7v.7Z" class="g1_1"/>
<path d="M744.3 702.7H861.9V702H744.3v.7Z" class="g1_1"/>
<path d="M861.9 702.7h.7V702h-.7v.7Z" class="g1_1"/>
<path d="M56.7 810.5h.7V702.7h-.7V810.5Z" class="g1_1"/>
<path d="M152.7 810.5h.8V702.7h-.8V810.5Z" class="g1_1"/>
<path d="M271 810.5h.7V702.7H271V810.5Z" class="g1_1"/>
<path d="M389 810.5h.8V702.7H389V810.5Z" class="g1_1"/>
<path d="M507.3 810.5h.7V702.7h-.7V810.5Z" class="g1_1"/>
<path d="M625.5 810.5h.8V702.7h-.8V810.5Z" class="g1_1"/>
<path d="M743.6 810.5h.7V702.7h-.7V810.5Z" class="g1_1"/>
<path d="M861.9 810.5h.7V702.7h-.7V810.5Z" class="g1_1"/>
<path fill-rule="evenodd" d="M57.4 835.1h95.3V811.2H57.4v23.9Z" class="g0_1"/>
<path d="M65.3 835.1h79.5V811.2H65.3v23.9Z" class="g0_1"/>
<path d="M56.7 811.2h.7v-.7h-.7v.7Z" class="g1_1"/>
<path d="M57.4 811.2h95.3v-.7H57.4v.7Z" class="g1_1"/>
<path d="M152.7 811.2h.8v-.7h-.8v.7Z" class="g1_1"/>
<path d="M153.5 811.2H271v-.7H153.5v.7Z" class="g1_1"/>
<path d="M271 811.2h.7v-.7H271v.7Z" class="g1_1"/>
<path d="M271.7 811.2H389v-.7H271.7v.7Z" class="g1_1"/>
<path d="M389 811.2h.8v-.7H389v.7Z" class="g1_1"/>
<path d="M389.8 811.2H507.3v-.7H389.8v.7Z" class="g1_1"/>
<path d="M507.3 811.2h.7v-.7h-.7v.7Z" class="g1_1"/>
<path d="M508 811.2H625.5v-.7H508v.7Z" class="g1_1"/>
<path d="M625.5 811.2h.8v-.7h-.8v.7Z" class="g1_1"/>
<path d="M626.3 811.2H743.6v-.7H626.3v.7Z" class="g1_1"/>
<path d="M743.6 811.2h.7v-.7h-.7v.7Z" class="g1_1"/>
<path d="M744.3 811.2H861.9v-.7H744.3v.7Z" class="g1_1"/>
<path d="M861.9 811.2h.7v-.7h-.7v.7Z" class="g1_1"/>
<path d="M56.7 835.1h.7V811.2h-.7v23.9Z" class="g1_1"/>
<path d="M152.7 835.1h.8V811.2h-.8v23.9Z" class="g1_1"/>
<path d="M271 835.1h.7V811.2H271v23.9Z" class="g1_1"/>
<path d="M389 835.1h.8V811.2H389v23.9Z" class="g1_1"/>
<path d="M507.3 835.1h.7V811.2h-.7v23.9Z" class="g1_1"/>
<path d="M625.5 835.1h.8V811.2h-.8v23.9Z" class="g1_1"/>
<path d="M743.6 835.1h.7V811.2h-.7v23.9Z" class="g1_1"/>
<path d="M861.9 835.1h.7V811.2h-.7v23.9Z" class="g1_1"/>
<path fill-rule="evenodd" d="M57.4 859.6h95.3V835.8H57.4v23.8Z" class="g0_1"/>
<path d="M65.3 859.6h79.5V835.8H65.3v23.8Z" class="g0_1"/>
<path d="M56.7 835.8h.7v-.7h-.7v.7Z" class="g1_1"/>
<path d="M57.4 835.8h95.3v-.7H57.4v.7Z" class="g1_1"/>
<path d="M152.7 835.8h.8v-.7h-.8v.7Z" class="g1_1"/>
<path d="M153.5 835.8H271v-.7H153.5v.7Z" class="g1_1"/>
<path d="M271 835.8h.7v-.7H271v.7Z" class="g1_1"/>
<path d="M271.7 835.8H389v-.7H271.7v.7Z" class="g1_1"/>
<path d="M389 835.8h.8v-.7H389v.7Z" class="g1_1"/>
<path d="M389.8 835.8H507.3v-.7H389.8v.7Z" class="g1_1"/>
<path d="M507.3 835.8h.7v-.7h-.7v.7Z" class="g1_1"/>
<path d="M508 835.8H625.5v-.7H508v.7Z" class="g1_1"/>
<path d="M625.5 835.8h.8v-.7h-.8v.7Z" class="g1_1"/>
<path d="M626.3 835.8H743.6v-.7H626.3v.7Z" class="g1_1"/>
<path d="M743.6 835.8h.7v-.7h-.7v.7Z" class="g1_1"/>
<path d="M744.3 835.8H861.9v-.7H744.3v.7Z" class="g1_1"/>
<path d="M861.9 835.8h.7v-.7h-.7v.7Z" class="g1_1"/>
<path d="M56.7 859.6h.7V835.8h-.7v23.8Z" class="g1_1"/>
<path d="M152.7 859.6h.8V835.8h-.8v23.8Z" class="g1_1"/>
<path d="M271 859.6h.7V835.8H271v23.8Z" class="g1_1"/>
<path d="M389 859.6h.8V835.8H389v23.8Z" class="g1_1"/>
<path d="M507.3 859.6h.7V835.8h-.7v23.8Z" class="g1_1"/>
<path d="M625.5 859.6h.8V835.8h-.8v23.8Z" class="g1_1"/>
<path d="M743.6 859.6h.7V835.8h-.7v23.8Z" class="g1_1"/>
<path d="M861.9 859.6h.7V835.8h-.7v23.8Z" class="g1_1"/>
<path fill-rule="evenodd" d="M57.4 884.4h95.3V860.6H57.4v23.8Z" class="g0_1"/>
<path d="M65.3 884.4h79.5V860.6H65.3v23.8Z" class="g0_1"/>
<path d="M56.7 860.4h.7v-.8h-.7v.8Z" class="g1_1"/>
<path d="M57.4 860.4h95.3v-.8H57.4v.8Z" class="g1_1"/>
<path d="M152.7 860.4h.8v-.8h-.8v.8Z" class="g1_1"/>
<path d="M153.5 860.4H271v-.8H153.5v.8Z" class="g1_1"/>
<path d="M271 860.4h.7v-.8H271v.8Z" class="g1_1"/>
<path d="M271.7 860.4H389v-.8H271.7v.8Z" class="g1_1"/>
<path d="M389 860.4h.8v-.8H389v.8Z" class="g1_1"/>
<path d="M389.8 860.4H507.3v-.8H389.8v.8Z" class="g1_1"/>
<path d="M507.3 860.4h.7v-.8h-.7v.8Z" class="g1_1"/>
<path d="M508 860.4H625.5v-.8H508v.8Z" class="g1_1"/>
<path d="M625.5 860.4h.8v-.8h-.8v.8Z" class="g1_1"/>
<path d="M626.3 860.4H743.6v-.8H626.3v.8Z" class="g1_1"/>
<path d="M743.6 860.4h.7v-.8h-.7v.8Z" class="g1_1"/>
<path d="M744.3 860.4H861.9v-.8H744.3v.8Z" class="g1_1"/>
<path d="M861.9 860.4h.7v-.8h-.7v.8Z" class="g1_1"/>
<path d="M56.7 884.4h.7v-24h-.7v24Z" class="g1_1"/>
<path d="M152.7 884.4h.8v-24h-.8v24Z" class="g1_1"/>
<path d="M271 884.4h.7v-24H271v24Z" class="g1_1"/>
<path d="M389 884.4h.8v-24H389v24Z" class="g1_1"/>
<path d="M507.3 884.4h.7v-24h-.7v24Z" class="g1_1"/>
<path d="M625.5 884.4h.8v-24h-.8v24Z" class="g1_1"/>
<path d="M743.6 884.4h.7v-24h-.7v24Z" class="g1_1"/>
<path d="M861.9 884.4h.7v-24h-.7v24Z" class="g1_1"/>
<path fill-rule="evenodd" d="M57.4 932.8h95.3V885.1H57.4v47.7Z" class="g0_1"/>
<path d="M65.3 909h79.5V885.1H65.3V909Z" class="g0_1"/>
<path d="M65.3 932.8h79.5V909H65.3v23.8Z" class="g0_1"/>
<path d="M56.7 885.1h.7v-.7h-.7v.7Z" class="g1_1"/>
<path d="M57.4 885.1h95.3v-.7H57.4v.7Z" class="g1_1"/>
<path d="M152.7 885.1h.8v-.7h-.8v.7Z" class="g1_1"/>
<path d="M153.5 885.1H271v-.7H153.5v.7Z" class="g1_1"/>
<path d="M271 885.1h.7v-.7H271v.7Z" class="g1_1"/>
<path d="M271.7 885.1H389v-.7H271.7v.7Z" class="g1_1"/>
<path d="M389 885.1h.8v-.7H389v.7Z" class="g1_1"/>
<path d="M389.8 885.1H507.3v-.7H389.8v.7Z" class="g1_1"/>
<path d="M507.3 885.1h.7v-.7h-.7v.7Z" class="g1_1"/>
<path d="M508 885.1H625.5v-.7H508v.7Z" class="g1_1"/>
<path d="M625.5 885.1h.8v-.7h-.8v.7Z" class="g1_1"/>
<path d="M626.3 885.1H743.6v-.7H626.3v.7Z" class="g1_1"/>
<path d="M743.6 885.1h.7v-.7h-.7v.7Z" class="g1_1"/>
<path d="M744.3 885.1H861.9v-.7H744.3v.7Z" class="g1_1"/>
<path d="M861.9 885.1h.7v-.7h-.7v.7Z" class="g1_1"/>
<path d="M56.7 932.8h.7V885.1h-.7v47.7Z" class="g1_1"/>
<path d="M56.7 933.5h.7v-.7h-.7v.7Z" class="g1_1"/>
<path d="M56.7 933.5h.7v-.7h-.7v.7Z" class="g1_1"/>
<path d="M57.4 933.5h95.3v-.7H57.4v.7Z" class="g1_1"/>
<path d="M152.7 932.8h.8V885.1h-.8v47.7Z" class="g1_1"/>
<path d="M152.7 933.5h.8v-.7h-.8v.7Z" class="g1_1"/>
<path d="M153.5 933.5H271v-.7H153.5v.7Z" class="g1_1"/>
<path d="M271 932.8h.7V885.1H271v47.7Z" class="g1_1"/>
<path d="M271 933.5h.7v-.7H271v.7Z" class="g1_1"/>
<path d="M271.7 933.5H389v-.7H271.7v.7Z" class="g1_1"/>
<path d="M389 932.8h.8V885.1H389v47.7Z" class="g1_1"/>
<path d="M389 933.5h.8v-.7H389v.7Z" class="g1_1"/>
<path d="M389.8 933.5H507.3v-.7H389.8v.7Z" class="g1_1"/>
<path d="M507.3 932.8h.7V885.1h-.7v47.7Z" class="g1_1"/>
<path d="M507.3 933.5h.7v-.7h-.7v.7Z" class="g1_1"/>
<path d="M508 933.5H625.5v-.7H508v.7Z" class="g1_1"/>
<path d="M625.5 932.8h.8V885.1h-.8v47.7Z" class="g1_1"/>
<path d="M625.5 933.5h.8v-.7h-.8v.7Z" class="g1_1"/>
<path d="M626.3 933.5H743.6v-.7H626.3v.7Z" class="g1_1"/>
<path d="M743.6 932.8h.7V885.1h-.7v47.7Z" class="g1_1"/>
<path d="M743.6 933.5h.7v-.7h-.7v.7Z" class="g1_1"/>
<path d="M744.3 933.5H861.9v-.7H744.3v.7Z" class="g1_1"/>
<path d="M861.9 932.8h.7V885.1h-.7v47.7Z" class="g1_1"/>
<path d="M861.9 933.5h.7v-.7h-.7v.7Z" class="g1_1"/>
<path d="M861.9 933.5h.7v-.7h-.7v.7Z" class="g1_1"/>
<path fill-rule="evenodd" d="M57.4 1003H874.1V979.2H57.4V1003Z" class="g0_1"/>
<path d="M65.3 1003h801V979.2H65.3V1003Z" class="g0_1"/>
<path d="M56.7 979.2h.7v-.8h-.7v.8Z" class="g1_1"/>
<path d="M56.7 979.2h.7v-.8h-.7v.8Z" class="g1_1"/>
<path d="M57.4 979.2H873.9v-.8H57.4v.8Z" class="g1_1"/>
<path d="M873.9 979.2h.8v-.8h-.8v.8Z" class="g1_1"/>
<path d="M873.9 979.2h.8v-.8h-.8v.8Z" class="g1_1"/>
<path d="M56.7 1003h.7V979.2h-.7V1003Z" class="g1_1"/>
<path d="M873.9 1003h.8V979.2h-.8V1003Z" class="g1_1"/>
<path d="M174.9 1078.3H156.4v-33.5l30.1 12.8L175 1078.3Z" class="g0_1"/>
<path d="M174.9 1120.1v-41.8h.1l11.5 -20.7v67.3Z" class="gh_1"/>
<path d="M137.7 1078.3l-11.6 -20.7l30.2 -12.9l.1 .1v33.5Z" class="g0_1"/>
<path d="M156.4 1112.2v0v-33.9h18.5v41.8Z" class="g0_1"/>
<path d="M137.7 1078.3h18.7v33.9h-.1l-18.8 7.9Z" class="g0_1"/>
<path d="M126.1 1057.6l11.6 20.7l-.2 41.8l-11.4 4.9Z" class="gi_1"/>
<path d="M137.7 1145.7l-.2 -.3v-25.3l18.8 -7.9h.1l18.5 7.9v25.6Z" class="g0_1"/>
<path d="M126.1 1125l11.4 -4.9v25.3Z" class="gi_1"/>
<path d="M174.9 1145.7v-25.6l11.6 4.8L175 1145.7Z" class="gh_1"/>
<path d="M186.5 1057.6l-30.1 -12.8l-.1 -.1l-30.2 12.9m48.8 20.7h.1l11.5 -20.7m-30.1 54.6v0v-2.5m0 -2.7v-2.5m0 -2.6v-2.6m0 -2.6v-2.6m0 -2.6v-2.6m0 -2.6v-2.6m0 -2.5v-2.6m0 -2.6v-2.6m0 -2.6v-2.6m0 -2.6V1063m0 -2.6v-2.6m0 -2.6v-2.5m0 -2.6v-2.6m0 -2.6v-.1m18.5 33.5H137.7m0 0l-.2 41.8v25.3m-11.4 -87.8l11.6 20.7m37.2 67.4H137.7l-.2 -.3m-11.4 -87.8V1125l11.4 20.4m18.8 -33.2l-2.3 1m-2.4 1l-2.4 1.1m-2.3 1l-2.3 1m-2.4 .9l-2.3 1m-2.4 .9l-2.2 1m-2.3 1l-2.3 1.1m-2.4 .9l-2.2 .9m30.2 -12.8h.1m18.5 33.5h.1l11.5 -20.8v-67.3m-11.6 20.7v67.4m11.6 -20.8l-2.3 -.9m-2.3 -1.1l-2.4 -.9m-2.3 -1l-2.3 -.9h-.1m-2.3 -1l-2.3 -1.1m-2.4 -1l-2.3 -1m-2.4 -.9l-2.3 -1m-2.4 -1l-2 -.9" class="gn_1"/>
<path d="M267.8 1062.2h36.1v68.3H267.8v-68.3Z" class="g0_1"/>
<path d="M267.8 1130.5h36.1v-68.3H267.8v68.3Z" class="gn_1"/>
<path d="M303.8 1062.1h36.1v68.4H303.8v-68.4Z" class="g0_1"/>
<path d="M303.8 1130.5h36.1v-68.4H303.8v68.4Z" class="gn_1"/>
<path d="M339.9 1062.2H376v68.3H339.9v-68.3Z" class="g0_1"/>
<path d="M339.9 1130.5H376v-68.3H339.9v68.3Z" class="gn_1"/>
<path d="M376 1062.1h36.1v68.4H376v-68.4Z" class="g0_1"/>
<path d="M376 1130.5h36.1v-68.4H376v68.4Z" class="gn_1"/>
<path d="M412.2 1062.1h36v68.4h-36v-68.4Z" class="g0_1"/>
<path d="M412.2 1130.5h36v-68.4h-36v68.4Z" class="gn_1"/>
<path d="M329.2 1028.6l28.5 -21.5l28.8 21l-10.7 34.4l-35.4 .3Z" class="g0_1"/>
<path d="M386.5 1028.1l-28.8 -21l-28.5 21.5l11.2 34.2l35.4 -.3l10.7 -34.4" class="gn_1"/>
<path d="M329.2 1164.7l11.2 -34.2l35.4 .3l10.7 34.4l-28.8 21Z" class="g0_1"/>
<path d="M386.5 1165.2l-28.8 21l-28.5 -21.5l11.2 -34.2l35.4 .3l10.7 34.4" class="gn_1"/>
<path d="M239.7 1108.7l.5 -.8l.3 -1l.3 -.9l.1 -.6v-2.3l-.2 -.6l-.1 -.5l-.3 -1l-.2 -.3v-.2H240v-.1l-.2 -.5l-.5 -1l4.3 2.7l4.3 2.7l-8.6 5.4Z" class="go_1"/>
<path d="M211.3 1104.3h29.6" class="gp_1"/>
<path d="M203.1 1068.3l.2 -.3l.2 -.2l.3 -.5l.3 -.5l.1 -.4v-1.2l-.2 -.6l-.4 -.6l-.4 -.6l-.3 -.3l-.3 -.3l8.6 3l-8.6 3Z" class="go_1"/>
<path d="M186.8 1066.1h17.4" class="gn_1"/>
<path d="M106 1052.2l-3.7 -2.8l9.1 -.1l-.7 .3l-.5 .3l-.5 .4l-.4 .4l-.2 .3l-.1 .4l-.1 .2v.1l-.1 .5v.6l.1 .7l.3 .7l.4 .8Z" class="go_1"/>
<path d="M125.5 1057L109 1051.4" class="gn_1"/>
<path d="M172.8 1047.6l.1 -.6l-.1 -.6l-.2 -.6l-.1 -.3l-.2 -.2l-.2 -.3H172l-.1 -.3l-.3 -.1l-.5 -.3l-.6 -.2l-.8 -.1l-.8 -.1l4.2 -1.8l4.2 -1.8l-4.5 8.1Z" class="go_1"/>
<path d="M159.3 1057l13 -11.7" class="gn_1"/>
<path d="M106.4 1097l8.7 -2.9l-.7 .5l-.4 .6l-.3 .6l-.2 .6l-.1 .5v.4l.1 .7l.2 .5l.4 .5l.2 .2l.2 .3l.6 .5Z" class="go_1"/>
<path d="M130.8 1097.3H113.4" class="gn_1"/>
<path d="M56.7 1003.7h.7v-.7h-.7v.7Z" class="g1_1"/>
<path d="M57.4 1003.7H460v-.7H57.4v.7Z" class="g1_1"/>
<path d="M460 1003.7h.7v-.7H460v.7Z" class="g1_1"/>
<path d="M460.7 1003.7H874v-.7H460.7v.7Z" class="g1_1"/>
<path d="M873.9 1003.7h.8v-.7h-.8v.7Z" class="g1_1"/>
<path d="M56.7 1051.6h.7v-47.9h-.7v47.9Z" class="g1_1"/>
<path d="M460 1051.6h.7v-47.9H460v47.9Z" class="g1_1"/>
<path d="M873.9 1051.6h.8v-47.9h-.8v47.9Z" class="g1_1"/>
<path d="M56.7 1052.3h.7v-.7h-.7v.7Z" class="g1_1"/>
<path d="M460 1052.3h.7v-.7H460v.7Z" class="g1_1"/>
<path d="M460.7 1052.3H874v-.7H460.7v.7Z" class="g1_1"/>
<path d="M873.9 1052.3h.8v-.7h-.8v.7Z" class="g1_1"/>
<path d="M56.7 1076.2h.7v-23.9h-.7v23.9Z" class="g1_1"/>
<path d="M460 1076.2h.7v-23.9H460v23.9Z" class="g1_1"/>
<path d="M873.9 1076.2h.8v-23.9h-.8v23.9Z" class="g1_1"/>
<path d="M56.7 1076.9h.7v-.7h-.7v.7Z" class="g1_1"/>
<path d="M460 1076.9h.7v-.7H460v.7Z" class="g1_1"/>
<path d="M460.7 1076.9H874v-.7H460.7v.7Z" class="g1_1"/>
<path d="M873.9 1076.9h.8v-.7h-.8v.7Z" class="g1_1"/>
<path d="M56.7 1100.7h.7v-23.8h-.7v23.8Z" class="g1_1"/>
<path d="M460 1100.7h.7v-23.8H460v23.8Z" class="g1_1"/>
<path d="M873.9 1100.7h.8v-23.8h-.8v23.8Z" class="g1_1"/>
<path d="M56.7 1101.5h.7v-.8h-.7v.8Z" class="g1_1"/>
<path d="M460 1101.5h.7v-.8H460v.8Z" class="g1_1"/>
<path d="M460.7 1101.5H874v-.8H460.7v.8Z" class="g1_1"/>
<path d="M873.9 1101.5h.8v-.8h-.8v.8Z" class="g1_1"/>
<path d="M56.7 1125.3h.7v-23.8h-.7v23.8Z" class="g1_1"/>
<path d="M460 1125.3h.7v-23.8H460v23.8Z" class="g1_1"/>
<path d="M873.9 1125.3h.8v-23.8h-.8v23.8Z" class="g1_1"/>
<path d="M56.7 1126h.7v-.7h-.7v.7Z" class="g1_1"/>
<path d="M460 1126h.7v-.7H460v.7Z" class="g1_1"/>
<path d="M460.7 1126H874v-.7H460.7v.7Z" class="g1_1"/>
<path d="M873.9 1126h.8v-.7h-.8v.7Z" class="g1_1"/>
<path d="M56.7 1190.2h.7V1126h-.7v64.2Z" class="g1_1"/>
<path d="M56.7 1190.9h.7v-.7h-.7v.7Z" class="g1_1"/>
<path d="M56.7 1190.9h.7v-.7h-.7v.7Z" class="g1_1"/>
<path d="M57.4 1190.9H460v-.7H57.4v.7Z" class="g1_1"/>
<path d="M460 1190.2h.7V1126H460v64.2Z" class="g1_1"/>
<path d="M460 1190.9h.7v-.7H460v.7Z" class="g1_1"/>
<path d="M460.7 1190.9H874v-.7H460.7v.7Z" class="g1_1"/>
<path d="M873.9 1190.2h.8V1126h-.8v64.2Z" class="g1_1"/>
<path d="M873.9 1190.9h.8v-.7h-.8v.7Z" class="g1_1"/>
<path d="M873.9 1190.9h.8v-.7h-.8v.7Z" class="g1_1"/>
<image clip-path="url(#c1_1)" preserveAspectRatio="none" x="0" y="0" width="914" height="151" xlink:href="img/2.jpg"/>
<image clip-path="url(#c2_1)" preserveAspectRatio="none" x="23" y="153" width="1038" height="49" xlink:href="img/3.png"/>
<image clip-path="url(#c3_1)" preserveAspectRatio="none" x="32" y="606" width="823" height="39" xlink:href="img/4.png"/>
<path d="M60.1 1213.5h-.9l-.7 -.3l-.8 -.4l-.7 -.5l-.3 -.4l-.2 -.3l-.4 -.7l-.2 -.8l-.1 -.9v-12.6l.1 -.9l.2 -.8l.4 -.7l.5 -.7l.7 -.6l.8 -.3l.7 -.3H73.5l.4 .1l.4 .2l.7 .3l.3 .3l.3 .3l.6 .7l.4 .7l.3 .8v14.4l-.3 .8l-.2 .3l-.1 .2l-.1 .2l-.3 .3l-.1 .2l-.1 .1h-.1v.1l-.3 .2l-.3 .3l-.2 .1l-.2 .1l-.3 .2l-.4 .1h-.2v.1l-.2 .1h-.8Z" class="gq_1"/>
</svg>