<?xml version="1.0" encoding="UTF-8" standalone="no"?>
<!DOCTYPE svg PUBLIC "-//W3C//DTD SVG 1.1//EN"
"http://www.w3.org/Graphics/SVG/1.1/DTD/svg11.dtd">
<svg viewBox="0 0 909 1286" version="1.1" xmlns="http://www.w3.org/2000/svg" xmlns:xlink="http://www.w3.org/1999/xlink">
<defs>
<clipPath id="c0_4"><path d="M-.2 1286.6v-74.9h910v74.9Z"/></clipPath>
<style type="text/css"><![CDATA[
.g0_4{
fill: none;
stroke: #000;
stroke-width: 1.099;
stroke-linecap: square;
stroke-miterlimit: 10;
}
.g1_4{
fill: #000;
}
.g2_4{
fill: none;
stroke: #000;
stroke-width: 0.761;
stroke-linecap: square;
stroke-miterlimit: 10;
}
.g3_4{
fill: none;
stroke: #000;
stroke-width: 1.523;
stroke-linecap: square;
stroke-miterlimit: 10;
}
.g4_4{
fill: none;
stroke: #000;
stroke-width: 0.763;
stroke-linecap: square;
stroke-miterlimit: 10;
}
.g5_4{
fill: none;
stroke: #000;
stroke-width: 1.527;
stroke-linecap: square;
stroke-miterlimit: 10;
}
.g6_4{
fill: none;
stroke: #000;
stroke-width: 0.765;
stroke-linecap: square;
stroke-miterlimit: 10;
}
.g7_4{
fill: none;
stroke: #000;
stroke-width: 1.531;
stroke-linecap: square;
stroke-miterlimit: 10;
}
.g8_4{
fill: none;
stroke: #000;
stroke-width: 0.762;
stroke-linecap: square;
stroke-miterlimit: 10;
}
.g9_4{
fill: none;
stroke: #000;
stroke-width: 1.524;
stroke-linecap: square;
stroke-miterlimit: 10;
}
]]></style>
</defs>
<image clip-path="url(#c0_4)" preserveAspectRatio="none" x="-4" y="1212" width="952" height="131" xlink:href="img/1.jpg"/>
<path d="M151.8 83.4L154 82.1m0 0L159.9 94m0 0l3.6 -21.4m0 0h29.9M145 110.4l2.2 -1.3m0 0l5.9 11.9m0 0l3.6 -21.4m0 -.1h11.6m74.1 10.9l2.2 -1.3m0 0l5.8 11.9m0 0l3.7 -21.4m0 -.1h11.6m64.9 10.9l2.2 -1.3m0 0l5.8 11.9m0 0l3.7 -21.4m0 -.1H363m65.8 10.9l2.2 -1.3m0 0l5.9 11.9m0 0l3.6 -21.4m0 -.1h20.8M151.8 182l2.2 -1.2m0 0l5.9 11.9m0 0l3.6 -21.5m0 0h20.7M204 182l2.3 -1.2m0 0l5.8 11.9m0 0l3.7 -21.5m0 0h20.7M256.3 182l2.2 -1.2m0 0l5.9 11.9m0 0L268 171.2m0 0h20.8M308.6 182l2.2 -1.2m-.1 0l5.9 11.9m0 0l3.7 -21.5m0 0H341M146.7 208.8l2.2 -1.3m0 0l5.8 11.9m0 0L158.4 198m0 0h20.7m76.3 10.8l2.2 -1.3m0 0l5.9 11.9m0 0L267.1 198m0 0h20.7m76.3 10.8l2.2 -1.3m0 0l5.9 11.9m0 0L375.8 198m0 0h11.6m28.9 10.8l2.2 -1.3m0 0l5.9 11.9m0 0L428.1 198m0 0h11.5m86.6 10.8l2.2 -1.3m0 0l5.8 11.9m0 0L537.9 198m0 0h11.5m30.1 10.8l2.2 -1.3m0 0l5.9 11.9m0 0L591.3 198m0 0h11.5m-451 88.4l2.2 -1.3m0 0l5.9 11.9m0 0l3.6 -21.5m0 0h13.8m19.8 10.9l2.2 -1.3m0 0l5.8 11.9m0 0l3.7 -21.5m0 0h22.9m19.8 10.9l2.2 -1.3m0 0l5.9 11.9m0 0l3.7 -21.5m0 0h22.9M146.7 313.3l2.2 -1.3m0 0l5.8 11.9m0 0l3.7 -21.4m0 0h13.8m85.4 10.8l2.2 -1.3m0 0l5.8 11.9m.1 0l3.6 -21.4m0 0h13.8m103.7 10.8L389 312m0 0l5.9 11.9m0 0l3.7 -21.4m0 0h13.7m114 10.8l2.2 -1.3m0 0l5.9 11.9m0 0l3.7 -21.4m0 0h13.7" class="g0_4"/>
<path d="M220.6 395.1h55v-.9h-55v.9Z" class="g1_4"/>
<path d="M220.6 396.9h55V396h-55v.9Z" class="g1_4"/>
<path d="M146.7 411.2l2.2 -1.3m0 0l5.8 11.9m0 0l3.7 -21.4m0 0h13.8m28.9 10.8l2.2 -1.3m0 0l5.9 11.9m0 0l3.6 -21.4m.1 0h13.7m29 10.8l2.2 -1.3m0 0l5.8 11.9m0 0l3.7 -21.4m0 0h13.8M339 411.2l2.2 -1.3m0 0l5.9 11.9m0 0l3.6 -21.4m0 0h13.8m28.9 10.8l2.2 -1.3m0 0l5.9 11.9m0 0l3.7 -21.4m0 0h13.7m29 10.8l2.2 -1.3m0 0l5.9 11.9m0 0l3.6 -21.4m0 0h13.8m57.9 10.8l2.2 -1.3m0 0l5.9 11.9m0 0L543 400.4m0 0h13.8m21.1 10.8l2.2 -1.3m0 0l5.8 11.9m0 0l3.7 -21.4m0 0h13.8m28.9 10.8l2.2 -1.3m0 0l5.9 11.9m0 0l3.7 -21.4m0 0h13.7m59 10.8l2.2 -1.3m0 0l5.9 11.9m0 0l3.7 -21.4m0 0h13.7M763 411.2l2.2 -1.3m0 0l5.9 11.9m0 0l3.7 -21.4m0 0h13.7M151.8 488.8l2.2 -1.3m0 0l5.9 11.9m0 0L163.5 478m0 -.1h11.6m18 10.9l2.2 -1.3m0 0l5.8 11.9m0 0L204.8 478m0 -.1h20.5m19.8 10.9l2.2 -1.3m0 0l5.9 11.9m0 0L256.8 478m0 -.1h20.6M146.7 515.5l2.2 -1.3m0 0l5.8 12m0 0l3.7 -21.5m0 0h11.5m67.3 10.8l2.2 -1.3m0 0l5.9 12m0 0L249 504.7m0 0h11.5m67.3 10.8l2.2 -1.3m0 0l5.9 12m0 0l3.6 -21.5m0 0h20.6m68.2 10.8l2.2 -1.3m0 0l5.8 12m0 0L440 504.7m0 0h11.6m29.1 10.8l2.2 -1.3m0 0l5.9 12m0 0l3.6 -21.5m0 0H504M133.5 617.5l2.2 -1.3m0 0l5.8 11.9m0 0l3.7 -21.5m0 0h27.5m29 10.9l2.2 -1.3m0 0l5.8 11.9m0 0l3.7 -21.5m0 0h18.3m19.8 10.9l2.2 -1.3m0 0l5.9 11.9m0 0l3.7 -21.5m0 0h27.5m28.9 10.9l2.2 -1.3m0 0l5.9 11.9m0 0l3.7 -21.5m0 0h18.3M152.7 742.5l2.2 -1.3m0 0l5.9 11.9m0 0l3.7 -21.4m0 0h12.2m18 23.3l2.2 -1.3m0 0l5.9 11.9m0 0l3.6 -21.5m0 0h12.3m-24.2 -3.3H220m-82.5 40l2.2 -1.3m0 0l5.9 11.9m0 0L149.2 770m0 0h12.3m19.8 10.8l2.2 -1.3m0 0l5.9 11.9m0 0L193.1 770m0 0h12.2m48.8 10.8l2.2 -1.3m0 0l5.9 11.9m0 0L265.8 770m0 0h12.3m103.8 10.8l2.2 -1.3m0 0l5.8 11.9m.1 0L393.6 770m0 0h12.3M137.5 882.2l2.2 -1.3m0 0l5.9 11.9m0 0l3.6 -21.4m0 0h15.3m76.4 10.8l2.2 -1.3m0 0l5.9 11.9m0 0l3.6 -21.4m0 0h15.3m76.4 10.8l2.2 -1.3m0 0l5.9 11.9m0 0L356 871.4m0 0h15.3m77.5 10.8l2.2 -1.3m0 0l5.9 11.9m0 0l3.6 -21.4m0 0h15.2" class="g0_4"/>
<path d="M312.2 985.2h55v-.9h-55v.9Z" class="g1_4"/>
<path d="M312.2 987.1h55v-1h-55v1Z" class="g1_4"/>
<path d="M135.1 1001.2l2.2 -1.3m0 0l5.9 11.9m0 0l3.7 -21.4m0 0h17.6m80.2 11.7l2.6 -1.5m0 0l6.4 13.2m0 0l4.1 -23.6m0 0h48m110.9 11l2.2 -1.3m0 0l5.9 11.9m0 0l3.7 -21.4m0 0h49.3m106.7 11.7l2.5 -1.5m0 0l6.5 13.2m0 0l4 -23.6m0 0H701.8" class="g0_4"/>
<path d="M170 1098.8l2.3 -1.4" class="g2_4"/>
<path d="M172.3 1097.8l3.4 5.6" class="g3_4"/>
<path d="M176.1 1103.4l4.4 -17m0 0h10.7" class="g2_4"/>
<path d="M217.3 1098.8l2.3 -1.4" class="g4_4"/>
<path d="M219.6 1097.8l3.4 5.6" class="g5_4"/>
<path d="M223.4 1103.4l4.5 -17m0 0H246" class="g4_4"/>
<path d="M264.4 1098.8l2.3 -1.4" class="g6_4"/>
<path d="M266.7 1097.8l3.4 5.6" class="g7_4"/>
<path d="M270.5 1103.4l4.5 -17m0 0h17.9" class="g6_4"/>
<path d="M328.2 1098.8l2.3 -1.4" class="g4_4"/>
<path d="M330.5 1097.8l3.4 5.6" class="g5_4"/>
<path d="M334.3 1103.4l4.5 -17m0 0h9.8" class="g4_4"/>
<path d="M150.2 1124.9l2.3 -1.3" class="g8_4"/>
<path d="M152.5 1124l3.4 5.4" class="g9_4"/>
<path d="M156.3 1129.4l4.5 -16.6m0 0h20.1" class="g8_4"/>
<path d="M253.9 1125l2.4 -1.3" class="g4_4"/>
<path d="M256.3 1124l3.4 5.7" class="g5_4"/>
<path d="M260 1129.7l4.5 -17.1m0 0h10.1m72.5 12.4l2.4 -1.3" class="g4_4"/>
<path d="M349.5 1124l3.4 5.7" class="g5_4"/>
<path d="M353.2 1129.7l4.5 -17m0 0h17.6" class="g4_4"/>
<path d="M449 1124.9l2.4 -1.3" class="g2_4"/>
<path d="M451.4 1124l3.3 5.4" class="g3_4"/>
<path d="M455.1 1129.4l4.5 -16.6m0 0h10.9" class="g2_4"/>
<image preserveAspectRatio="none" x="44" y="497" width="56" height="57" xlink:href="img/2.jpg"/>
<image preserveAspectRatio="none" x="44" y="626" width="56" height="57" xlink:href="img/3.jpg"/>
<image preserveAspectRatio="none" x="44" y="752" width="56" height="56" xlink:href="img/4.jpg"/>
<image preserveAspectRatio="none" x="44" y="863" width="56" height="56" xlink:href="img/5.jpg"/>
<image preserveAspectRatio="none" x="44" y="983" width="56" height="56" xlink:href="img/6.jpg"/>
<image preserveAspectRatio="none" x="44" y="1103" width="56" height="57" xlink:href="img/7.jpg"/>
</svg>