<?xml version="1.0" encoding="UTF-8" standalone="no"?>
<!DOCTYPE svg PUBLIC "-//W3C//DTD SVG 1.1//EN"
"http://www.w3.org/Graphics/SVG/1.1/DTD/svg11.dtd">
<svg viewBox="0 0 909 1286" version="1.1" xmlns="http://www.w3.org/2000/svg" xmlns:xlink="http://www.w3.org/1999/xlink">
<defs>
<clipPath id="c0_40"><path d="M-.2 1286.6v-57.8h910v57.8Z"/></clipPath>
<style type="text/css"><![CDATA[
.g0_40{
fill: #FFFFF3;
}
.g1_40{
fill: #090;
}
.g2_40{
fill: #390;
}
.g3_40{
fill: #E2FFDD;
}
.g4_40{
fill: none;
stroke: #090;
stroke-width: 1.249;
stroke-linecap: square;
stroke-miterlimit: 10;
}
.g5_40{
fill: #CFC;
}
.g6_40{
fill: #70AD47;
}
.g7_40{
fill: none;
stroke: #000;
stroke-width: 0.764;
stroke-linecap: square;
stroke-miterlimit: 10;
}
.g8_40{
fill: none;
stroke: #000;
stroke-width: 1.528;
stroke-linecap: square;
stroke-miterlimit: 10;
}
.g9_40{
fill: none;
stroke: #000;
stroke-width: 0.763;
stroke-linecap: square;
stroke-miterlimit: 10;
}
.ga_40{
fill: none;
stroke: #000;
stroke-width: 1.527;
stroke-linecap: square;
stroke-miterlimit: 10;
}
.gb_40{
fill: #96F;
}
]]></style>
</defs>
<image clip-path="url(#c0_40)" preserveAspectRatio="none" x="-2" y="1229" width="930" height="128" xlink:href="img/1.jpg"/>
<path fill-rule="evenodd" d="M105.8 347.3c-.9 0 -1.7 .7 -1.7 1.6v53.8c0 1 .8 1.7 1.7 1.7H857.1c.9 0 1.7 -.7 1.7 -1.7V348.9c0 -.9 -.8 -1.6 -1.7 -1.6Z" class="g0_40"/>
<path d="M813.7 623.6l-8.9 -41.2l12.6 41.5l-13 42.5Z" class="g1_40"/>
<path d="M662.5 594.4h-.6V567.6H793.7v26.8Z" class="g2_40"/>
<path d="M662.5 683V594.4H794.1V567.6H662.5v-5.7H800.3v.1l4.5 20.4l8.9 41.2l-9.3 42.8l-3.6 16.5v.1Z" class="g3_40"/>
<path d="M804.8 582.4l8.9 41.2l-9.3 42.8m.4 -84l12.6 41.5l-13 42.5m0 0l-3.6 16.5v.1H662.5V594.4m142.3 -12L800.3 562v-.1H662.5v5.7" class="g4_40"/>
<path d="M665.3 623.6l-9 -41.2L669 623.9l-13 42.5Z" class="g1_40"/>
<path d="M514.1 594.4h-.7V567.6H645.3v26.8Z" class="g2_40"/>
<path d="M514.1 683V594.4H645.6V567.6H514.1v-5.7H651.9v.1l4.4 20.4l9 41.2L656 666.4l-3.6 16.5v.1Z" class="g3_40"/>
<path d="M656.3 582.4l9 41.2L656 666.4m.3 -84L669 623.9l-13 42.5m0 0l-3.6 16.5v.1H514.1V594.4m142.2 -12L651.9 562v-.1H514.1v5.7" class="g4_40"/>
<path d="M514 623.6l-8.9 -41.2l12.6 41.5l-12.9 42.5Z" class="g1_40"/>
<path d="M362.8 594.4h-.6V567.6H494.1v26.8Z" class="g2_40"/>
<path d="M362.8 683V594.4H494.4V567.6H362.8v-5.7H500.7v.1l4.4 20.4l8.9 41.2l-9.2 42.8l-3.6 16.5v.1Z" class="g3_40"/>
<path d="M505.1 582.4l8.9 41.2l-9.2 42.8m.3 -84l12.6 41.5l-12.9 42.5m0 0l-3.6 16.5v.1H362.8V594.4m142.3 -12L500.7 562v-.1H362.8v5.7" class="g4_40"/>
<path d="M362.8 623.6l-9 -41.2l12.7 41.5l-13 42.5Z" class="g1_40"/>
<path d="M211.6 594.4h-.7V567.6H342.8v26.8Z" class="g2_40"/>
<path d="M211.6 683V594.4H343.1V567.6H211.6v-5.7H349.4v.1l4.4 20.4l9 41.2l-9.3 42.8l-3.6 16.5v.1Z" class="g3_40"/>
<path d="M353.8 582.4l9 41.2l-9.3 42.8m.3 -84l12.7 41.5l-13 42.5m0 0l-3.6 16.5v.1H211.6V594.4m142.2 -12L349.4 562v-.1H211.6v5.7" class="g4_40"/>
<path d="M211.5 623.6l-8.9 -41.2l12.6 41.5l-12.9 42.5Z" class="g1_40"/>
<path d="M60.3 594.4h-.6V567.6H191.6v26.8Z" class="g2_40"/>
<path d="M60.3 683V594.4H191.9V567.6H60.3v-5.7H198.2v.1l4.4 20.4l8.9 41.2l-9.2 42.8l-3.6 16.5v.1Z" class="g3_40"/>
<path d="M202.6 582.4l8.9 41.2l-9.2 42.8m.3 -84l12.6 41.5l-12.9 42.5m0 0l-3.6 16.5v.1H60.3V594.4m142.3 -12L198.2 562v-.1H60.3v5.7" class="g4_40"/>
<path fill-rule="evenodd" d="M71.1 99H510.4V71.5H71.1V99Z" class="g5_40"/>
<path d="M79 99H502.5V71.5H79V99Z" class="g5_40"/>
<path fill-rule="evenodd" d="M511.1 99H861.9V71.5H511.1V99Z" class="g5_40"/>
<path d="M519 99H854V71.5H519V99Z" class="g5_40"/>
<path d="M70.4 71.5h.7v-.7h-.7v.7Z" class="g6_40"/>
<path d="M70.4 71.5h.7v-.7h-.7v.7Z" class="g6_40"/>
<path d="M71.1 71.5H510.4v-.7H71.1v.7Z" class="g6_40"/>
<path d="M510.4 71.5h.7v-.7h-.7v.7Z" class="g6_40"/>
<path d="M511.1 71.5H861.9v-.7H511.1v.7Z" class="g6_40"/>
<path d="M861.9 71.5h.7v-.7h-.7v.7Z" class="g6_40"/>
<path d="M861.9 71.5h.7v-.7h-.7v.7Z" class="g6_40"/>
<path d="M70.4 99h.7V71.5h-.7V99Z" class="g6_40"/>
<path d="M510.4 99h.7V71.5h-.7V99Z" class="g6_40"/>
<path d="M861.9 99h.7V71.5h-.7V99Z" class="g6_40"/>
<path fill-rule="evenodd" d="M71.1 154.9h81.8v-55H71.1v55Z" class="g5_40"/>
<path d="M79 127.4h66V99.9H79v27.5Z" class="g5_40"/>
<path d="M665.1 257.2l2.4 -1.3" class="g7_40"/>
<path d="M667.5 256.3l3.4 6.2" class="g8_40"/>
<path d="M671.2 262.5L675.7 244m0 0H695m-71.3 24.2h72.9" class="g7_40"/>
<path d="M70.4 99.7h.7V99h-.7v.7Z" class="g6_40"/>
<path d="M71.1 99.7h81.8V99H71.1v.7Z" class="g6_40"/>
<path d="M152.9 99.7h.7V99h-.7v.7Z" class="g6_40"/>
<path d="M153.6 99.7H510.4V99H153.6v.7Z" class="g6_40"/>
<path d="M510.4 99.7h.7V99h-.7v.7Z" class="g6_40"/>
<path d="M511.1 99.7H861.9V99H511.1v.7Z" class="g6_40"/>
<path d="M861.9 99.7h.7V99h-.7v.7Z" class="g6_40"/>
<path d="M70.4 154.9h.7V99.7h-.7v55.2Z" class="g6_40"/>
<path d="M152.9 154.9h.7V99.7h-.7v55.2Z" class="g6_40"/>
<path d="M510.4 154.9h.7V99.7h-.7v55.2Z" class="g6_40"/>
<path d="M861.9 154.9h.7V99.7h-.7v55.2Z" class="g6_40"/>
<path fill-rule="evenodd" d="M71.1 210.7h81.8v-55H71.1v55Z" class="g5_40"/>
<path d="M79 183.2h66V155.7H79v27.5Z" class="g5_40"/>
<path d="M70.4 155.7h.7v-.8h-.7v.8Z" class="g6_40"/>
<path d="M71.1 155.7h81.8v-.8H71.1v.8Z" class="g6_40"/>
<path d="M152.9 155.7h.7v-.8h-.7v.8Z" class="g6_40"/>
<path d="M153.6 155.7H510.4v-.8H153.6v.8Z" class="g6_40"/>
<path d="M510.4 155.7h.7v-.8h-.7v.8Z" class="g6_40"/>
<path d="M861.9 155.7h.7v-.8h-.7v.8Z" class="g6_40"/>
<path d="M70.4 210.7h.7v-55h-.7v55Z" class="g6_40"/>
<path d="M152.9 210.7h.7v-55h-.7v55Z" class="g6_40"/>
<path d="M510.4 210.7h.7v-55h-.7v55Z" class="g6_40"/>
<path d="M861.9 210.7h.7v-55h-.7v55Z" class="g6_40"/>
<path fill-rule="evenodd" d="M71.1 321.4h81.8v-110H71.1v110Z" class="g5_40"/>
<path d="M79 238.9h66V211.4H79v27.5Z" class="g5_40"/>
<path d="M271.4 258.4l2.4 -1.4" class="g9_40"/>
<path d="M273.8 257.4l3.4 7.2" class="ga_40"/>
<path d="M277.5 264.6L282 243.7m0 0h62.8M229.5 270.3H346.3" class="g9_40"/>
<path d="M70.4 211.4h.7v-.8h-.7v.8Z" class="g6_40"/>
<path d="M71.1 211.4h81.8v-.8H71.1v.8Z" class="g6_40"/>
<path d="M152.9 211.4h.7v-.8h-.7v.8Z" class="g6_40"/>
<path d="M153.6 211.4H510.4v-.8H153.6v.8Z" class="g6_40"/>
<path d="M510.4 211.4h.7v-.8h-.7v.8Z" class="g6_40"/>
<path d="M861.9 211.4h.7v-.8h-.7v.8Z" class="g6_40"/>
<path d="M70.4 321.4h.7v-110h-.7v110Z" class="g6_40"/>
<path d="M70.4 322.1h.7v-.7h-.7v.7Z" class="g6_40"/>
<path d="M70.4 322.1h.7v-.7h-.7v.7Z" class="g6_40"/>
<path d="M71.1 322.1h81.8v-.7H71.1v.7Z" class="g6_40"/>
<path d="M152.9 321.4h.7v-110h-.7v110Z" class="g6_40"/>
<path d="M152.9 322.1h.7v-.7h-.7v.7Z" class="g6_40"/>
<path d="M153.6 322.1H510.4v-.7H153.6v.7Z" class="g6_40"/>
<path d="M510.4 321.4h.7v-110h-.7v110Z" class="g6_40"/>
<path d="M510.4 322.1h.7v-.7h-.7v.7Z" class="g6_40"/>
<path d="M511.1 322.1H861.9v-.7H511.1v.7Z" class="g6_40"/>
<path d="M861.9 321.4h.7v-110h-.7v110Z" class="g6_40"/>
<path d="M861.9 322.1h.7v-.7h-.7v.7Z" class="g6_40"/>
<path d="M861.9 322.1h.7v-.7h-.7v.7Z" class="g6_40"/>
<path d="M48.4 373.6l-.6 -.1h-.6l-1 -.3l-.9 -.4l-.8 -.5l-.4 -.4l-.3 -.3l-.3 -.4l-.2 -.4l-.2 -.4l-.1 -.5l-.1 -.4V356.6l.1 -.9l.3 -.9l.5 -.8l.7 -.6l.8 -.6l.9 -.4l1 -.3h48l.5 .1l.6 .2l.4 .2l.5 .2l.4 .3l.5 .3l.4 .3l.3 .3l.3 .4l.2 .4l.2 .4l.1 .5l.1 .4l.1 .5v12.5l-.1 .4l-.1 .4l-.1 .5l-.2 .4l-.2 .4l-.3 .4l-.3 .3l-.2 .2l-.2 .2l-.5 .2l-.4 .3l-.5 .2l-.2 .1h-.1v.1H96v.1l-.3 .1l-.5 .1h-.8l-.2 .1Z" class="gb_40"/>
<image preserveAspectRatio="none" x="30" y="475" width="823" height="39" xlink:href="img/2.png"/>
</svg>