<?xml version="1.0" encoding="UTF-8" standalone="no"?>
<!DOCTYPE svg PUBLIC "-//W3C//DTD SVG 1.1//EN"
"http://www.w3.org/Graphics/SVG/1.1/DTD/svg11.dtd">
<svg viewBox="0 0 909 1286" version="1.1" xmlns="http://www.w3.org/2000/svg" xmlns:xlink="http://www.w3.org/1999/xlink">
<defs>
<clipPath id="c0_7"><path d="M-.2 1286.6v-74.9h910v74.9Z"/></clipPath>
<clipPath id="c1_7"><path d="M755.1 876.4V740h90.5V876.4Z"/></clipPath>
<style type="text/css"><![CDATA[
.g0_7{
fill: none;
stroke: #000;
stroke-width: 0.763;
stroke-linecap: square;
stroke-miterlimit: 10;
}
.g1_7{
fill: none;
stroke: #000;
stroke-width: 0.766;
stroke-linecap: square;
stroke-miterlimit: 10;
}
.g2_7{
fill: none;
stroke: #000;
stroke-width: 0.762;
stroke-linecap: square;
stroke-miterlimit: 10;
}
.g3_7{
fill: none;
stroke: #000;
stroke-width: 0.765;
stroke-linecap: square;
stroke-miterlimit: 10;
}
.g4_7{
fill: #000;
}
]]></style>
</defs>
<image clip-path="url(#c0_7)" preserveAspectRatio="none" x="-4" y="1212" width="952" height="131" xlink:href="img/1.jpg"/>
<path d="M789.8 334.9h17.7" class="g0_7"/>
<path d="M517.6 382.4h18.5" class="g1_7"/>
<path d="M129.6 409.7h26.3m25.6 0h26.3" class="g2_7"/>
<path d="M233.4 409.6h28.1" class="g3_7"/>
<path d="M136.1 437.4h26.3m25.5 0h26.3" class="g2_7"/>
<path d="M239.8 437.2h28.1" class="g3_7"/>
<path d="M317.7 437.4h26.4" class="g0_7"/>
<path d="M369.7 437.4h26.2" class="g2_7"/>
<path d="M421.5 437.2h28.2" class="g3_7"/>
<path d="M499.4 437.4h26.3m25.6 0h26.3" class="g2_7"/>
<path d="M603.2 437.2h28.1" class="g3_7"/>
<path d="M682.2 437.4h26.3m25.6 0h26.3" class="g2_7"/>
<path d="M786 437.2h28.1" class="g3_7"/>
<path d="M110.4 767.8H147v-.9H110.4v.9Z" class="g4_7"/>
<image preserveAspectRatio="none" x="43" y="88" width="57" height="57" xlink:href="img/2.jpg"/>
<image preserveAspectRatio="none" x="43" y="212" width="57" height="57" xlink:href="img/3.jpg"/>
<image preserveAspectRatio="none" x="43" y="342" width="57" height="56" xlink:href="img/4.jpg"/>
<image preserveAspectRatio="none" x="43" y="530" width="57" height="57" xlink:href="img/5.jpg"/>
<image preserveAspectRatio="none" x="43" y="647" width="57" height="57" xlink:href="img/6.jpg"/>
<image preserveAspectRatio="none" x="43" y="767" width="57" height="57" xlink:href="img/7.jpg"/>
<image preserveAspectRatio="none" x="617" y="749" width="90" height="127" xlink:href="img/8.jpg"/>
<image clip-path="url(#c1_7)" preserveAspectRatio="none" x="755" y="740" width="90" height="136" xlink:href="img/9.jpg"/>
<image preserveAspectRatio="none" x="43" y="984" width="57" height="56" xlink:href="img/10.jpg"/>
<image preserveAspectRatio="none" x="680" y="956" width="176" height="132" xlink:href="img/11.jpg"/>
<image preserveAspectRatio="none" x="43" y="1128" width="57" height="56" xlink:href="img/12.jpg"/>
</svg>