<?xml version="1.0" encoding="UTF-8" standalone="no"?>
<!DOCTYPE svg PUBLIC "-//W3C//DTD SVG 1.1//EN"
"http://www.w3.org/Graphics/SVG/1.1/DTD/svg11.dtd">
<svg viewBox="0 0 909 1286" version="1.1" xmlns="http://www.w3.org/2000/svg" xmlns:xlink="http://www.w3.org/1999/xlink">
<defs>
<clipPath id="c0_3"><path d="M-.2 1286.6v-74.9h910v74.9Z"/></clipPath>
<style type="text/css"><![CDATA[
.g0_3{
fill: none;
stroke: #000;
stroke-width: 1.099;
stroke-linecap: square;
stroke-miterlimit: 10;
}
]]></style>
</defs>
<image clip-path="url(#c0_3)" preserveAspectRatio="none" x="-4" y="1212" width="952" height="131" xlink:href="img/1.jpg"/>
<path d="M192.5 197.4l2.2 -1.2m0 0l5.9 11.9m0 0l3.6 -21.5m0 0h29.9m-96 23.9h97.3M344.1 197.4l2.2 -1.2m0 0l5.9 11.9m0 0l3.7 -21.5m0 0h29.8m-96 23.9H387m92.6 -13.1l2.2 -1.2m0 0l5.9 11.9m0 0l3.6 -21.5m0 0h29.9m-77.7 23.9h79.2m91.1 -13.1l2.2 -1.2m0 0l5.9 11.9m0 0l3.6 -21.5m0 0h29.9m-77.7 23.9h79M135.8 325.2H145m63.5 0h9.1m65.6 0h9.2m66.8 0h9.1M330.7 436.3l2.2 -1.2m0 0l5.9 11.9m0 0l3.7 -21.5m0 0H354m118.6 10.8l2.2 -1.2m0 0l5.9 11.9m0 0l3.7 -21.5m0 0h11.5M439.5 760.1h9.1m19.3 0H477m4.6 1.6l2.2 -1.2m0 0l5.9 11.9m0 0l3.6 -21.5m.1 0h11.5M139.7 803.7h9.2m54.2 0h9.2" class="g0_3"/>
<image preserveAspectRatio="none" x="24" y="69" width="822" height="39" xlink:href="img/2.png"/>
<image preserveAspectRatio="none" x="44" y="515" width="56" height="56" xlink:href="img/3.jpg"/>
<image preserveAspectRatio="none" x="44" y="637" width="56" height="56" xlink:href="img/4.jpg"/>
<image preserveAspectRatio="none" x="44" y="770" width="56" height="57" xlink:href="img/5.jpg"/>
<image preserveAspectRatio="none" x="44" y="893" width="56" height="57" xlink:href="img/6.jpg"/>
<image preserveAspectRatio="none" x="44" y="1017" width="56" height="56" xlink:href="img/7.jpg"/>
<image preserveAspectRatio="none" x="44" y="1129" width="56" height="57" xlink:href="img/8.jpg"/>
</svg>