<?xml version="1.0" encoding="UTF-8" standalone="no"?>
<!DOCTYPE svg PUBLIC "-//W3C//DTD SVG 1.1//EN"
"http://www.w3.org/Graphics/SVG/1.1/DTD/svg11.dtd">
<svg viewBox="0 0 909 1286" version="1.1" xmlns="http://www.w3.org/2000/svg" xmlns:xlink="http://www.w3.org/1999/xlink">
<defs>
<clipPath id="c0_25"><path d="M-.2 1286.6v-57.8h910v57.8Z"/></clipPath>
<clipPath id="c1_25"><path d="M-.2 151.6V-.2h910V151.6Z"/></clipPath>
<clipPath id="c2_25"><path d="M22.5 202.8V153H909.8v49.8Z"/></clipPath>
<style type="text/css"><![CDATA[
.g0_25{
fill: none;
stroke: #000;
stroke-width: 1.238;
stroke-linecap: square;
stroke-miterlimit: 10;
}
.g1_25{
fill: none;
stroke: #F00;
stroke-width: 1.238;
stroke-linecap: square;
stroke-miterlimit: 10;
}
.g2_25{
fill: #000;
}
.g3_25{
fill: #CFC;
}
.g4_25{
fill: none;
stroke: #000;
stroke-width: 0.763;
stroke-linecap: square;
stroke-miterlimit: 10;
}
.g5_25{
fill: none;
stroke: #000;
stroke-width: 0.764;
stroke-linecap: square;
stroke-miterlimit: 10;
}
.g6_25{
fill: #70AD47;
}
.g7_25{
fill: none;
stroke: #000;
stroke-width: 1.14;
stroke-linecap: square;
stroke-miterlimit: 10;
}
.g8_25{
fill: none;
stroke: #000;
stroke-width: 1.137;
stroke-linecap: square;
stroke-miterlimit: 10;
}
.g9_25{
fill: none;
stroke: #000;
stroke-width: 0.762;
stroke-linecap: square;
stroke-miterlimit: 10;
}
.ga_25{
fill: none;
stroke: #000;
stroke-width: 0.761;
stroke-linecap: square;
stroke-miterlimit: 10;
}
.gb_25{
fill: #0C0;
}
.gc_25{
fill: none;
stroke: #000;
stroke-width: 1.237;
stroke-linecap: square;
stroke-miterlimit: 10;
}
.gd_25{
fill: none;
stroke: #090;
stroke-width: 1.237;
stroke-linecap: square;
stroke-miterlimit: 10;
}
.ge_25{
fill: none;
stroke: #000;
stroke-width: 1.243;
stroke-linecap: square;
stroke-miterlimit: 10;
}
.gf_25{
fill: none;
stroke: #090;
stroke-width: 1.243;
stroke-linecap: square;
stroke-miterlimit: 10;
}
.gg_25{
fill: none;
stroke: #000;
stroke-width: 1.247;
stroke-linecap: square;
stroke-miterlimit: 10;
}
.gh_25{
fill: none;
stroke: #060;
stroke-width: 1.247;
stroke-linecap: square;
stroke-miterlimit: 10;
}
.gi_25{
fill: #090;
}
.gj_25{
fill: none;
stroke: #000;
stroke-width: 1.242;
stroke-linecap: square;
stroke-miterlimit: 10;
}
.gk_25{
fill: none;
stroke: #060;
stroke-width: 1.242;
stroke-linecap: square;
stroke-miterlimit: 10;
}
.gl_25{
fill: #96F;
}
.gm_25{
fill: none;
stroke: #000;
stroke-width: 1.226;
stroke-linecap: square;
stroke-miterlimit: 10;
}
.gn_25{
fill: none;
stroke: #060;
stroke-width: 1.226;
stroke-linecap: square;
stroke-miterlimit: 10;
}
.go_25{
fill: none;
stroke: #93F;
stroke-width: 1.226;
stroke-linecap: square;
stroke-miterlimit: 10;
}
.gp_25{
fill: none;
stroke: #060;
stroke-width: 1.238;
stroke-linecap: square;
stroke-miterlimit: 10;
}
.gq_25{
fill: none;
stroke: #90F;
stroke-width: 1.238;
stroke-linecap: square;
stroke-miterlimit: 10;
}
.gr_25{
fill: none;
stroke: #030;
stroke-width: 1.242;
stroke-linecap: square;
stroke-miterlimit: 10;
}
.gs_25{
fill: none;
stroke: #90F;
stroke-width: 1.242;
stroke-linecap: square;
stroke-miterlimit: 10;
}
.gt_25{
fill: #FC0;
}
.gu_25{
fill: #9FF;
}
.gv_25{
fill: none;
stroke: #000;
stroke-width: 1.241;
stroke-linecap: square;
stroke-miterlimit: 10;
}
.gw_25{
fill: #FCF;
}
.gx_25{
fill: #9CF;
}
.gy_25{
fill: none;
stroke: #000;
stroke-width: 1.236;
stroke-linecap: square;
stroke-miterlimit: 10;
}
.gz_25{
fill: none;
stroke: #000;
stroke-width: 1.249;
stroke-linecap: square;
stroke-miterlimit: 10;
}
.g10_25{
fill: none;
stroke: #F00;
stroke-width: 1.249;
stroke-linecap: square;
stroke-miterlimit: 10;
}
.g11_25{
fill: none;
stroke: #000;
stroke-width: 1.252;
stroke-linecap: square;
stroke-miterlimit: 10;
}
.g12_25{
fill: none;
stroke: #F00;
stroke-width: 1.252;
stroke-linecap: square;
stroke-miterlimit: 10;
}
.g13_25{
fill: #CF9;
}
.g14_25{
fill: none;
stroke: #000;
stroke-width: 1.245;
stroke-linecap: square;
stroke-miterlimit: 10;
}
.g15_25{
fill: none;
stroke: #F00;
stroke-width: 1.245;
stroke-linecap: square;
stroke-miterlimit: 10;
}
.g16_25{
fill: #FFC;
}
.g17_25{
fill: none;
stroke: #000;
stroke-width: 1.233;
stroke-linecap: square;
stroke-miterlimit: 10;
}
.g18_25{
fill: none;
stroke: #F00;
stroke-width: 1.233;
stroke-linecap: square;
stroke-miterlimit: 10;
}
.g19_25{
fill: none;
stroke: #000;
stroke-width: 1.248;
stroke-linecap: square;
stroke-miterlimit: 10;
}
.g1a_25{
fill: none;
stroke: #F00;
stroke-width: 1.248;
stroke-linecap: square;
stroke-miterlimit: 10;
}
.g1b_25{
fill: #CCF;
}
.g1c_25{
fill: none;
stroke: #000;
stroke-width: 1.232;
stroke-linecap: square;
stroke-miterlimit: 10;
}
.g1d_25{
fill: none;
stroke: #00F;
stroke-width: 1.232;
stroke-linecap: square;
stroke-miterlimit: 10;
}
.g1e_25{
fill: none;
stroke: #F00;
stroke-width: 1.232;
stroke-linecap: square;
stroke-miterlimit: 10;
}
.g1f_25{
fill: #F90;
}
]]></style>
</defs>
<image clip-path="url(#c0_25)" preserveAspectRatio="none" x="-2" y="1229" width="930" height="128" xlink:href="img/1.jpg"/>
<path d="M794 423.7l-2.7 -5.1l-5.1 3.1" class="g0_25"/>
<path d="M788.8 426.6l-2.6 -4.9L771.3 393" class="g1_25"/>
<path d="M771 394.9l-.3 -.1l-.4 -.2l-.2 -.1l-.2 -.3l-.2 -.3l-.1 -.4v-.7l.1 -.3l.4 -.6l.2 -.2l.4 -.2l.3 -.1h.7l.3 .1l.3 .2l.3 .2l.2 .3l.2 .3l.1 .3v.7l-.1 .4l-.2 .3l-.2 .3l-.3 .1l-.3 .2l-.3 .1h-.2l-.1 .1Z" class="g2_25"/>
<path d="M756 445.2l66.8 -37.5" class="g0_25"/>
<path fill-rule="evenodd" d="M71.1 269.3h68.1V240.2H71.1v29.1Z" class="g3_25"/>
<path d="M79 264h52.3V240.2H79V264Z" class="g3_25"/>
<path d="M187.5 245.1h22.7" class="g4_25"/>
<path d="M388.3 245.5H371l.4 1.2l-3 -1.6l3 -1.5l-.4 1.2h17.3l-.5 -1.2l3.1 1.5l-3.1 1.6Z" class="g2_25"/>
<path d="M568.9 245.5H549v-.7h19.9l-.5 -1.2l3.1 1.5l-3.1 1.6Z" class="g2_25"/>
<path d="M766.4 312.3h56.5" class="g5_25"/>
<path d="M70.4 240.2h.7v-.8h-.7v.8Z" class="g6_25"/>
<path d="M70.4 240.2h.7v-.8h-.7v.8Z" class="g6_25"/>
<path d="M71.1 240.2h68.1v-.8H71.1v.8Z" class="g6_25"/>
<path d="M139.2 240.2h.7v-.8h-.7v.8Z" class="g6_25"/>
<path d="M139.9 240.2H319.7v-.8H139.9v.8Z" class="g6_25"/>
<path d="M319.7 240.2h.8v-.8h-.8v.8Z" class="g6_25"/>
<path d="M320.5 240.2h180v-.8h-180v.8Z" class="g6_25"/>
<path d="M500.5 240.2h.7v-.8h-.7v.8Z" class="g6_25"/>
<path d="M501.2 240.2H681.1v-.8H501.2v.8Z" class="g6_25"/>
<path d="M681.1 240.2h.7v-.8h-.7v.8Z" class="g6_25"/>
<path d="M681.8 240.2H861.9v-.8H681.8v.8Z" class="g6_25"/>
<path d="M861.9 240.2h.7v-.8h-.7v.8Z" class="g6_25"/>
<path d="M861.9 240.2h.7v-.8h-.7v.8Z" class="g6_25"/>
<path d="M70.4 269.3h.7V240.2h-.7v29.1Z" class="g6_25"/>
<path d="M139.2 269.3h.7V240.2h-.7v29.1Z" class="g6_25"/>
<path d="M319.7 269.3h.8V240.2h-.8v29.1Z" class="g6_25"/>
<path d="M500.5 269.3h.7V240.2h-.7v29.1Z" class="g6_25"/>
<path d="M681.1 269.3h.7V240.2h-.7v29.1Z" class="g6_25"/>
<path d="M861.9 269.3h.7V240.2h-.7v29.1Z" class="g6_25"/>
<path fill-rule="evenodd" d="M71.1 302.9h68.1V270.1H71.1v32.8Z" class="g3_25"/>
<path d="M79 293.9h52.3V270H79v23.9Z" class="g3_25"/>
<path d="M185.4 276h87.3" class="g7_25"/>
<path d="M185 279.9h-.4l-.7 -.2l-.6 -.4l-.6 -.4l-.3 -.3l-.2 -.3L182 278l-.1 -.3l-.1 -.4l-.1 -.3l-.1 -.7l.1 -.8l.2 -.7l.3 -.6l.5 -.5l.6 -.5l.6 -.4l.7 -.2h1.5l.3 .1l.4 .1l.3 .2l.3 .2l.6 .5l.5 .5l.1 .3l.2 .3l.2 .7l.1 .4v.7l-.1 .4l-.1 .3l-.1 .2v.2l-.1 .1l-.1 .2l-.1 .3l-.2 .1v.1h-.1v.1l-.2 .3l-.6 .4l-.3 .2l-.2 .1l-.1 .1h-.2l-.2 .1l-.3 .1h-.7v.1Z" class="g2_25"/>
<path d="M272.3 279.7h-.4l-.7 -.2l-.6 -.3l-.6 -.5l-.3 -.3l-.2 -.3l-.2 -.3l-.1 -.3l-.1 -.4l-.1 -.3l-.1 -.7l.1 -.8l.2 -.7l.3 -.6l.5 -.5l.6 -.5l.6 -.4l.7 -.2h1.5l.3 .1l.4 .1l.3 .2l.3 .2l.6 .5l.4 .5l.2 .3l.2 .3l.2 .7l.1 .4v.7l-.1 .4l-.1 .3l-.1 .2v.2l-.1 .1l-.1 .2l-.2 .3l-.1 .1v.1h-.1v.1l-.2 .3l-.6 .5l-.3 .1l-.2 .1l-.1 .1h-.2l-.2 .1l-.3 .1h-.7v.1Z" class="g2_25"/>
<path d="M335.2 276H485.1" class="g7_25"/>
<path d="M364.4 279.9H364l-.7 -.2l-.6 -.4l-.6 -.4l-.3 -.3l-.2 -.3l-.2 -.3l-.1 -.3l-.1 -.4l-.1 -.3l-.1 -.7l.1 -.8l.2 -.7l.3 -.6l.5 -.5l.6 -.5l.6 -.4l.7 -.2h1.5l.3 .1l.4 .1l.3 .2l.3 .2l.3 .2l.3 .3l.5 .5l.3 .6l.2 .7l.1 .4v.7l-.1 .4l-.1 .3l-.1 .2v.2l-.1 .1l-.1 .2l-.1 .3l-.1 .1l-.1 .1v.1l-.3 .3l-.3 .2H367v.1h-.1l-.1 .1l-.3 .2l-.2 .1l-.1 .1H366l-.2 .1l-.3 .1h-.7v.1Z" class="g2_25"/>
<path d="M451.7 279.7h-.4l-.7 -.2l-.6 -.3l-.6 -.5l-.3 -.3l-.2 -.3l-.2 -.3l-.1 -.3l-.1 -.4l-.1 -.3l-.1 -.7l.1 -.8l.2 -.7l.3 -.6l.5 -.5l.6 -.5l.6 -.4l.7 -.2h1.5l.3 .1l.4 .1l.3 .2l.3 .2l.3 .2l.3 .3l.5 .5l.3 .6l.2 .7l.1 .4v.7l-.1 .4l-.1 .3l-.1 .2v.2l-.1 .1l-.1 .2l-.1 .3l-.2 .1v.1h-.1v.1l-.2 .3l-.3 .2h-.1v.1h-.1l-.1 .2l-.3 .1l-.2 .1l-.1 .1h-.2l-.2 .1l-.3 .1h-.7l-.1 .1Z" class="g2_25"/>
<path d="M533.5 276H653.7" class="g8_25"/>
<path d="M533.1 279.9h-.3l-.7 -.2l-.7 -.4l-.5 -.4l-.3 -.3l-.2 -.3l-.2 -.3l-.1 -.3l-.2 -.4V277l-.1 -.7l.1 -.8l.2 -.7l.3 -.6l.5 -.5l.5 -.5l.7 -.4l.7 -.2h1.5l.3 .1l.4 .1l.2 .2l.4 .2l.6 .5l.4 .5l.2 .3l.2 .3l.2 .7v.4l.1 .4l-.1 .3v.4l-.1 .3l-.1 .2v.2l-.1 .1l-.1 .2l-.2 .3l-.1 .1l-.1 .1v.1l-.2 .3l-.6 .4l-.4 .2l-.1 .1l-.1 .1h-.2l-.2 .1l-.3 .1h-.7l-.1 .1Z" class="g2_25"/>
<path d="M620.2 279.7h-.3l-.7 -.2l-.7 -.3l-.5 -.5l-.3 -.3l-.2 -.3l-.2 -.3l-.1 -.3l-.2 -.4v-.3l-.1 -.7l.1 -.8l.2 -.7l.3 -.6l.5 -.5l.5 -.5l.7 -.4l.7 -.2h1.5l.3 .1l.3 .1l.3 .2l.4 .2l.6 .5l.4 .5l.2 .3l.2 .3l.2 .7v.4l.1 .4l-.1 .3v.4l-.1 .3l-.1 .2v.2l-.1 .1l-.1 .2l-.2 .3l-.1 .1l-.1 .1v.1l-.2 .3l-.6 .5l-.4 .1l-.1 .1l-.2 .1h-.1l-.2 .1l-.3 .1h-.7l-.1 .1Z" class="g2_25"/>
<path d="M70.4 270.1h.7v-.8h-.7v.8Z" class="g6_25"/>
<path d="M71.1 270.1h68.1v-.8H71.1v.8Z" class="g6_25"/>
<path d="M139.2 270.1h.7v-.8h-.7v.8Z" class="g6_25"/>
<path d="M139.9 270.1H319.7v-.8H139.9v.8Z" class="g6_25"/>
<path d="M319.7 270.1h.8v-.8h-.8v.8Z" class="g6_25"/>
<path d="M320.5 270.1h180v-.8h-180v.8Z" class="g6_25"/>
<path d="M500.5 270.1h.7v-.8h-.7v.8Z" class="g6_25"/>
<path d="M501.2 270.1H681.1v-.8H501.2v.8Z" class="g6_25"/>
<path d="M681.1 270.1h.7v-.8h-.7v.8Z" class="g6_25"/>
<path d="M861.9 270.1h.7v-.8h-.7v.8Z" class="g6_25"/>
<path d="M70.4 302.9h.7V270.1h-.7v32.8Z" class="g6_25"/>
<path d="M139.2 302.9h.7V270.1h-.7v32.8Z" class="g6_25"/>
<path d="M319.7 302.9h.8V270.1h-.8v32.8Z" class="g6_25"/>
<path d="M500.5 302.9h.7V270.1h-.7v32.8Z" class="g6_25"/>
<path d="M681.1 302.9h.7V270.1h-.7v32.8Z" class="g6_25"/>
<path d="M861.9 302.9h.7V270.1h-.7v32.8Z" class="g6_25"/>
<path fill-rule="evenodd" d="M71.1 359.1h68.1V303.6H71.1v55.5Z" class="g3_25"/>
<path d="M79 327.4h52.3V303.6H79v23.8Z" class="g3_25"/>
<path d="M350 308.6h22.6" class="g9_25"/>
<path d="M530.6 308.6h22.6" class="ga_25"/>
<path d="M70.4 303.6h.7v-.7h-.7v.7Z" class="g6_25"/>
<path d="M71.1 303.6h68.1v-.7H71.1v.7Z" class="g6_25"/>
<path d="M139.2 303.6h.7v-.7h-.7v.7Z" class="g6_25"/>
<path d="M139.9 303.6H319.7v-.7H139.9v.7Z" class="g6_25"/>
<path d="M319.7 303.6h.8v-.7h-.8v.7Z" class="g6_25"/>
<path d="M320.5 303.6h180v-.7h-180v.7Z" class="g6_25"/>
<path d="M500.5 303.6h.7v-.7h-.7v.7Z" class="g6_25"/>
<path d="M501.2 303.6H681.1v-.7H501.2v.7Z" class="g6_25"/>
<path d="M681.1 303.6h.7v-.7h-.7v.7Z" class="g6_25"/>
<path d="M861.9 303.6h.7v-.7h-.7v.7Z" class="g6_25"/>
<path d="M70.4 359.1h.7V303.6h-.7v55.5Z" class="g6_25"/>
<path d="M70.4 359.9h.7v-.8h-.7v.8Z" class="g6_25"/>
<path d="M70.4 359.9h.7v-.8h-.7v.8Z" class="g6_25"/>
<path d="M71.1 359.9h68.1v-.8H71.1v.8Z" class="g6_25"/>
<path d="M139.2 359.1h.7V303.6h-.7v55.5Z" class="g6_25"/>
<path d="M139.2 359.9h.7v-.8h-.7v.8Z" class="g6_25"/>
<path d="M139.9 359.9H319.7v-.8H139.9v.8Z" class="g6_25"/>
<path d="M319.7 359.1h.8V303.6h-.8v55.5Z" class="g6_25"/>
<path d="M319.7 359.9h.8v-.8h-.8v.8Z" class="g6_25"/>
<path d="M320.5 359.9h180v-.8h-180v.8Z" class="g6_25"/>
<path d="M500.5 359.1h.7V303.6h-.7v55.5Z" class="g6_25"/>
<path d="M500.5 359.9h.7v-.8h-.7v.8Z" class="g6_25"/>
<path d="M501.2 359.9H681.1v-.8H501.2v.8Z" class="g6_25"/>
<path d="M681.1 359.1h.7V303.6h-.7v55.5Z" class="g6_25"/>
<path d="M681.1 359.9h.7v-.8h-.7v.8Z" class="g6_25"/>
<path d="M681.8 359.9H861.9v-.8H681.8v.8Z" class="g6_25"/>
<path d="M861.9 359.1h.7V303.6h-.7v55.5Z" class="g6_25"/>
<path d="M861.9 359.9h.7v-.8h-.7v.8Z" class="g6_25"/>
<path d="M861.9 359.9h.7v-.8h-.7v.8Z" class="g6_25"/>
<path fill-rule="evenodd" d="M79 494.4h50.3V470.6H79v23.8Z" class="g3_25"/>
<path d="M79 494.4h50.3V470.6H79v23.8Z" class="g3_25"/>
<path fill-rule="evenodd" d="M130 494.4H241.8V470.6H130v23.8Z" class="g3_25"/>
<path d="M130 494.4H241.8V470.6H130v23.8Z" class="g3_25"/>
<path fill-rule="evenodd" d="M242.5 494.4h58.2V470.6H242.5v23.8Z" class="g3_25"/>
<path d="M242.5 494.4h58.2V470.6H242.5v23.8Z" class="g3_25"/>
<path fill-rule="evenodd" d="M301.4 494.4h134V470.6h-134v23.8Z" class="g3_25"/>
<path d="M301.4 494.4h134V470.6h-134v23.8Z" class="g3_25"/>
<path fill-rule="evenodd" d="M436.2 494.4H517V470.6H436.2v23.8Z" class="g3_25"/>
<path d="M444 494.4h65.1V470.6H444v23.8Z" class="g3_25"/>
<path fill-rule="evenodd" d="M517.9 494.4H650.8V470.6H517.9v23.8Z" class="g3_25"/>
<path d="M517.9 494.4H650.8V470.6H517.9v23.8Z" class="g3_25"/>
<path fill-rule="evenodd" d="M651.6 494.4h134V470.6h-134v23.8Z" class="g3_25"/>
<path d="M651.6 494.4h134V470.6h-134v23.8Z" class="g3_25"/>
<path fill-rule="evenodd" d="M786.5 494.4h79.8V470.6H786.5v23.8Z" class="g3_25"/>
<path d="M786.5 494.4h79.8V470.6H786.5v23.8Z" class="g3_25"/>
<path d="M78.3 470.6H79v-.7h-.7v.7Z" class="g6_25"/>
<path d="M78.3 470.6H79v-.7h-.7v.7Z" class="g6_25"/>
<path d="M79 470.6h50.3v-.7H79v.7Z" class="g6_25"/>
<path d="M129.2 470.6h.8v-.7h-.8v.7Z" class="g6_25"/>
<path d="M130 470.6H241.8v-.7H130v.7Z" class="g6_25"/>
<path d="M241.8 470.6h.7v-.7h-.7v.7Z" class="g6_25"/>
<path d="M242.5 470.6h58.2v-.7H242.5v.7Z" class="g6_25"/>
<path d="M300.7 470.6h.7v-.7h-.7v.7Z" class="g6_25"/>
<path d="M301.4 470.6h134v-.7h-134v.7Z" class="g6_25"/>
<path d="M435.4 470.6h.8v-.7h-.8v.7Z" class="g6_25"/>
<path d="M436.2 470.6H517v-.7H436.2v.7Z" class="g6_25"/>
<path d="M517 470.6h.7v-.7H517v.7Z" class="g6_25"/>
<path d="M517.7 470.6H650.8v-.7H517.7v.7Z" class="g6_25"/>
<path d="M650.8 470.6h.8v-.7h-.8v.7Z" class="g6_25"/>
<path d="M651.6 470.6h134v-.7h-134v.7Z" class="g6_25"/>
<path d="M785.6 470.6h.7v-.7h-.7v.7Z" class="g6_25"/>
<path d="M786.3 470.6h79.8v-.7H786.3v.7Z" class="g6_25"/>
<path d="M866.1 470.6h.7v-.7h-.7v.7Z" class="g6_25"/>
<path d="M866.1 470.6h.7v-.7h-.7v.7Z" class="g6_25"/>
<path d="M78.3 494.4H79V470.6h-.7v23.8Z" class="g6_25"/>
<path d="M129.2 494.4h.8V470.6h-.8v23.8Z" class="g6_25"/>
<path d="M241.8 494.4h.7V470.6h-.7v23.8Z" class="g6_25"/>
<path d="M300.7 494.4h.7V470.6h-.7v23.8Z" class="g6_25"/>
<path d="M435.4 494.4h.8V470.6h-.8v23.8Z" class="g6_25"/>
<path d="M517 494.4h.7V470.6H517v23.8Z" class="g6_25"/>
<path d="M650.8 494.4h.8V470.6h-.8v23.8Z" class="g6_25"/>
<path d="M785.6 494.4h.7V470.6h-.7v23.8Z" class="g6_25"/>
<path d="M866.1 494.4h.7V470.6h-.7v23.8Z" class="g6_25"/>
<path fill-rule="evenodd" d="M79 568.3h50.3V495.2H79v73.1Z" class="g3_25"/>
<path d="M79 543.8h50.3V519.9H79v23.9Z" class="g3_25"/>
<path d="M158.4 548.3l13.7 -13.1l1 .7l1 .6l.9 .7l.8 .8l.6 .7l.6 .7l.4 .8l.3 .9l.3 .8l.1 .8v.9l-.1 .9l-.2 .9l-.3 1l-.4 .9l-.5 1Z" class="gb_25"/>
<path d="M226.2 548.3H158.4l13.7 -13.1l33.1 -31.6" class="gc_25"/>
<path d="M176.6 548.3l.5 -1l.4 -.9l.3 -1l.2 -.9l.1 -.9v-.9l-.1 -.8l-.3 -.8l-.3 -.9l-.4 -.8l-.6 -.7l-.6 -.7l-.8 -.8l-.9 -.7l-1 -.6l-1 -.7" class="gd_25"/>
<path d="M246.1 546.8h10.3v10.5H246.1V546.8Z" class="gb_25"/>
<path d="M245.8 504.3v53.3h51.1" class="ge_25"/>
<path d="M256.4 557.3V546.8H246.1" class="gf_25"/>
<path d="M356.1 546.2l-8.6 -11.7l1.1 -.1l1.2 -.2l1.1 -.1h4.2l1 .1l.9 .1l1 .2l.9 .1l1 .3l.8 .2l.9 .3l1.7 .7l1.6 .8l.8 .4l.7 .5l.7 .5l.7 .5l.7 .6l.7 .7l.6 .6l.6 .7l1.2 1.5l.5 .7l.6 .9l.5 .8l.5 .9Z" class="gb_25"/>
<path d="M410.2 546.2H356.1l-8.6 -11.7L325.9 504.9" class="gg_25"/>
<path d="M373.7 546.2l-.5 -.9l-.5 -.8l-.6 -.9l-.5 -.7l-1.2 -1.5l-.6 -.7l-.6 -.6l-.7 -.7l-.7 -.6l-.7 -.5l-.7 -.5l-.7 -.5l-.8 -.4l-1.6 -.8l-1.7 -.7l-.9 -.3l-.8 -.2l-1 -.3l-.9 -.1l-1 -.2l-.9 -.1l-1 -.1h-4.2l-1.1 .1l-1.2 .2l-1.1 .1" class="gh_25"/>
<path d="M463.6 534.8l1.4 -1.6l1.4 -1.4l1.4 -1.2l1.4 -.9l1.4 -.8l1.4 -.5l1.4 -.3l1.5 -.1l1.4 .1l1.4 .3l1.5 .5l1.5 .8l1.5 .9l1.5 1.2l1.5 1.4l1.5 1.6Z" class="gi_25"/>
<path d="M505.2 534.8H447.3" class="gj_25"/>
<path d="M486.7 534.8l-1.5 -1.6l-1.5 -1.4l-1.5 -1.2l-1.5 -.9l-1.5 -.8l-1.5 -.5l-1.4 -.3l-1.4 -.1l-1.5 .1l-1.4 .3l-1.4 .5l-1.4 .8l-1.4 .9l-1.4 1.2l-1.4 1.4l-1.4 1.6" class="gk_25"/>
<path d="M561.3 562.1v-.5l16.5 -10.7l.8 .4l.7 .5l.7 .5l.6 .6l.4 .6l.5 .6l.3 .7l.3 .7l.2 .7l.1 .7v1.6l-.1 .8l-.2 .9l-.3 .9l-.3 1Z" class="gl_25"/>
<path d="M561.3 542.7l1.4 -.1l1.4 -.1l1.3 .1h.6l.7 .1l1.2 .2l1.2 .3l1.1 .4l1.2 .4l1 .5l1 .6l.9 .7l1 .8l.8 .8l.9 .9l.7 1l.8 1.2l-.7 .4l-16.5 10.7Z" class="gi_25"/>
<path d="M561.3 498.4v63.2m49.8 -32.3l-32.6 21.2l-.7 .4l-16.5 10.7m0 0v.5h55.6" class="gm_25"/>
<path d="M578.5 550.5l-.8 -1.2l-.7 -1l-.9 -.9l-.8 -.8l-1 -.8l-.9 -.7l-1 -.6l-1 -.5l-1.2 -.4l-1.1 -.4l-1.2 -.3l-1.2 -.2l-.7 -.1h-.6l-1.3 -.1l-1.4 .1l-1.4 .1" class="gn_25"/>
<path d="M581.5 562.1l.3 -1l.3 -.9l.2 -.9l.1 -.8v-1.6l-.1 -.7l-.2 -.7l-.3 -.7l-.3 -.7l-.5 -.6l-.4 -.6l-.6 -.6l-.7 -.5l-.7 -.5l-.8 -.4" class="go_25"/>
<path d="M699.2 552.3l.7 -1.8l.8 -1.6l.9 -1.6l1 -1.3l1.1 -1.3l1.2 -1.1l.6 -.5l.7 -.5l1.4 -.9L709 541l.8 -.4l.8 -.3l1.6 -.5l1.8 -.4l1.8 -.3l.9 -.1h1l2 -.1l2.1 .1l-8.4 13.3Z" class="gi_25"/>
<path d="M713.4 552.3L721.8 539l1.9 -3.1l1.2 .4l1.2 .4l1 .6l.5 .3l.5 .3l.8 .7l.8 .9l.7 .9l.7 1l.5 1l.5 1.1l.2 .6l.1 .7l.4 1.3l.1 1.4l.2 1.5v3.3Z" class="gl_25"/>
<path d="M713.4 552.3H675.7m37.7 0L721.8 539l1.9 -3.1L740 510.4m19.9 41.9H713.4" class="g0_25"/>
<path d="M721.8 539l-2.1 -.1l-2 .1h-1l-.9 .1l-1.8 .3l-1.8 .4l-1.6 .5l-.8 .3l-.8 .4l-1.4 .7l-1.4 .9l-.7 .5l-.6 .5l-1.2 1.1l-1.1 1.3l-1 1.3l-.9 1.6l-.8 1.6l-.7 1.8" class="gp_25"/>
<path d="M733.1 552.3V549l-.2 -1.5l-.1 -1.4l-.4 -1.3l-.1 -.7l-.2 -.6l-.5 -1.1l-.5 -1l-.7 -1l-.7 -.9l-.8 -.9l-.8 -.7l-.5 -.3l-.5 -.3l-1 -.6l-1.2 -.4l-1.2 -.4" class="gq_25"/>
<path d="M811.8 539.9l-.6 -1.1l-.5 -1.1l-.4 -1.1l-.4 -1.1l-.3 -1.1l-.1 -1.1l-.1 -1.1l-.1 -1.1l.1 -1.1l.2 -1.1l.2 -1.1l.3 -1l.4 -1.1l.5 -1.1l.6 -1.1l2.1 1.2l.5 .1l11.6 6.2l-10.9 8.3l-2.4 1.7Z" class="gl_25"/>
<path d="M824.9 543.4h-.7l-.7 -.1l-1.4 -.3l-.7 -.2l-.7 -.2l-.8 -.3l-.7 -.3l-.7 -.4l-.7 -.4l-1.5 -.9l-.7 -.5l-.7 -.5L825.8 531l11.4 5.9l-.7 .7l-.7 .6l-.3 .3l-.2 .2l-.1 .2l-.7 .6l-.7 .5l-.6 .5l-1.4 1l-.7 .3l-.3 .2h-.2l-.2 .1l-1.3 .6l-.7 .2l-.4 .1h-.2l-.1 .1l-.7 .2l-.6 .1h-.8Z" class="gi_25"/>
<path d="M814.2 524.8l1.1 -1.1l1.3 -1l1.2 -.8l1.3 -.7l1.3 -.7l1.4 -.4l1.4 -.4l1.4 -.2l1.5 -.1h1.5l1.6 .2l1.6 .2l1.6 .4l1.6 .5l1.7 .6l1.8 .8L825.8 531Z" class="gi_25"/>
<path d="M837.2 536.9L825.8 531l11.7 -8.9l2 -1.6l.9 1l.8 1.1l.7 1.1l.6 1.1l.5 1.1l.3 1.1l.3 1.1l.1 1.1v1.2l-.1 1.1l-.2 1.2l-.4 1.2l-.4 1.1l-.6 1.2l-.7 1.2l-.7 1.3Z" class="gl_25"/>
<path d="M855.1 508.7l-15.6 11.8l-2 1.6L825.8 531m-12.1 -6.3l-2.1 -1.2L791.7 513.1M825.8 531l-11.6 -6.2m45.8 24L840.6 538.7l-3.4 -1.8L825.8 531m0 0l-10.9 8.3l-2.4 1.7l-18.9 14.4" class="gj_25"/>
<path d="M837.2 536.9l-.7 .7l-.7 .6l-.3 .3l-.2 .2l-.1 .2l-.7 .6l-.7 .5l-.6 .5l-1.4 1l-.7 .3l-.3 .2h-.2l-.2 .1l-1.3 .6l-.7 .2l-.4 .1h-.2l-.1 .1l-.7 .2l-.6 .1h-2.2l-.7 -.1l-1.4 -.3l-.7 -.2l-.7 -.2l-.8 -.3l-.7 -.3l-.7 -.4l-.7 -.4l-1.5 -.9l-.7 -.5l-.7 -.5m22.6 -17.2l-1.8 -.8l-1.7 -.6l-1.6 -.5l-1.6 -.4l-1.6 -.2l-1.6 -.2h-1.5l-1.5 .1l-1.4 .2l-1.4 .4l-1.4 .4l-1.3 .7l-1.3 .7l-1.2 .8l-1.3 1l-1.1 1.1l-.5 -.1" class="gr_25"/>
<path d="M812.5 541l-.7 -1.1l-.6 -1.1l-.5 -1.1l-.4 -1.1l-.4 -1.1l-.3 -1.1l-.1 -1.1l-.1 -1.1l-.1 -1.1l.1 -1.1l.2 -1.1l.2 -1.1l.3 -1l.4 -1.1l.5 -1.1l.6 -1.1m29 15.2l.7 -1.3l.7 -1.2l.6 -1.2l.4 -1.1l.4 -1.2l.2 -1.2l.1 -1.1v-1.2l-.1 -1.1l-.3 -1.1l-.3 -1.1l-.5 -1.1l-.6 -1.1l-.7 -1.1l-.8 -1.1l-.9 -1" class="gs_25"/>
<path d="M78.3 495.2H79v-.8h-.7v.8Z" class="g6_25"/>
<path d="M79 495.2h50.3v-.8H79v.8Z" class="g6_25"/>
<path d="M129.2 495.2h.8v-.8h-.8v.8Z" class="g6_25"/>
<path d="M130 495.2H241.8v-.8H130v.8Z" class="g6_25"/>
<path d="M241.8 495.2h.7v-.8h-.7v.8Z" class="g6_25"/>
<path d="M242.5 495.2h58.2v-.8H242.5v.8Z" class="g6_25"/>
<path d="M300.7 495.2h.7v-.8h-.7v.8Z" class="g6_25"/>
<path d="M301.4 495.2h134v-.8h-134v.8Z" class="g6_25"/>
<path d="M435.4 495.2h.8v-.8h-.8v.8Z" class="g6_25"/>
<path d="M436.2 495.2H517v-.8H436.2v.8Z" class="g6_25"/>
<path d="M517 495.2h.7v-.8H517v.8Z" class="g6_25"/>
<path d="M517.7 495.2H650.8v-.8H517.7v.8Z" class="g6_25"/>
<path d="M650.8 495.2h.8v-.8h-.8v.8Z" class="g6_25"/>
<path d="M651.6 495.2h134v-.8h-134v.8Z" class="g6_25"/>
<path d="M785.6 495.2h.7v-.8h-.7v.8Z" class="g6_25"/>
<path d="M786.3 495.2h79.8v-.8H786.3v.8Z" class="g6_25"/>
<path d="M866.1 495.2h.7v-.8h-.7v.8Z" class="g6_25"/>
<path d="M78.3 568.3H79V495.2h-.7v73.1Z" class="g6_25"/>
<path d="M129.2 568.3h.8V495.2h-.8v73.1Z" class="g6_25"/>
<path d="M241.8 568.3h.7V495.2h-.7v73.1Z" class="g6_25"/>
<path d="M300.7 568.3h.7V495.2h-.7v73.1Z" class="g6_25"/>
<path d="M435.4 568.3h.8V495.2h-.8v73.1Z" class="g6_25"/>
<path d="M517 568.3h.7V495.2H517v73.1Z" class="g6_25"/>
<path d="M650.8 568.3h.8V495.2h-.8v73.1Z" class="g6_25"/>
<path d="M785.6 568.3h.7V495.2h-.7v73.1Z" class="g6_25"/>
<path d="M866.1 568.3h.7V495.2h-.7v73.1Z" class="g6_25"/>
<path fill-rule="evenodd" d="M79 616.7h50.3V569.1H79v47.6Z" class="g3_25"/>
<path d="M79 604.8h50.3V581H79v23.8Z" class="g3_25"/>
<path d="M78.3 569.1H79v-.8h-.7v.8Z" class="g6_25"/>
<path d="M79 569.1h50.3v-.8H79v.8Z" class="g6_25"/>
<path d="M129.2 569.1h.8v-.8h-.8v.8Z" class="g6_25"/>
<path d="M130 569.1H241.8v-.8H130v.8Z" class="g6_25"/>
<path d="M241.8 569.1h.7v-.8h-.7v.8Z" class="g6_25"/>
<path d="M242.5 569.1h58.2v-.8H242.5v.8Z" class="g6_25"/>
<path d="M300.7 569.1h.7v-.8h-.7v.8Z" class="g6_25"/>
<path d="M301.4 569.1h134v-.8h-134v.8Z" class="g6_25"/>
<path d="M435.4 569.1h.8v-.8h-.8v.8Z" class="g6_25"/>
<path d="M436.2 569.1H517v-.8H436.2v.8Z" class="g6_25"/>
<path d="M517 569.1h.7v-.8H517v.8Z" class="g6_25"/>
<path d="M517.7 569.1H650.8v-.8H517.7v.8Z" class="g6_25"/>
<path d="M650.8 569.1h.8v-.8h-.8v.8Z" class="g6_25"/>
<path d="M651.6 569.1h134v-.8h-134v.8Z" class="g6_25"/>
<path d="M785.6 569.1h.7v-.8h-.7v.8Z" class="g6_25"/>
<path d="M786.3 569.1h79.8v-.8H786.3v.8Z" class="g6_25"/>
<path d="M866.1 569.1h.7v-.8h-.7v.8Z" class="g6_25"/>
<path d="M78.3 616.7H79V569.1h-.7v47.6Z" class="g6_25"/>
<path d="M78.3 617.5H79v-.8h-.7v.8Z" class="g6_25"/>
<path d="M78.3 617.5H79v-.8h-.7v.8Z" class="g6_25"/>
<path d="M79 617.5h50.3v-.8H79v.8Z" class="g6_25"/>
<path d="M129.2 616.7h.8V569.1h-.8v47.6Z" class="g6_25"/>
<path d="M129.2 617.5h.8v-.8h-.8v.8Z" class="g6_25"/>
<path d="M130 617.5H241.8v-.8H130v.8Z" class="g6_25"/>
<path d="M241.8 616.7h.7V569.1h-.7v47.6Z" class="g6_25"/>
<path d="M241.8 617.5h.7v-.8h-.7v.8Z" class="g6_25"/>
<path d="M242.5 617.5h58.2v-.8H242.5v.8Z" class="g6_25"/>
<path d="M300.7 616.7h.7V569.1h-.7v47.6Z" class="g6_25"/>
<path d="M300.7 617.5h.7v-.8h-.7v.8Z" class="g6_25"/>
<path d="M301.4 617.5h134v-.8h-134v.8Z" class="g6_25"/>
<path d="M435.4 616.7h.8V569.1h-.8v47.6Z" class="g6_25"/>
<path d="M435.4 617.5h.8v-.8h-.8v.8Z" class="g6_25"/>
<path d="M436.2 617.5H517v-.8H436.2v.8Z" class="g6_25"/>
<path d="M517 616.7h.7V569.1H517v47.6Z" class="g6_25"/>
<path d="M517 617.5h.7v-.8H517v.8Z" class="g6_25"/>
<path d="M517.7 617.5H650.8v-.8H517.7v.8Z" class="g6_25"/>
<path d="M650.8 616.7h.8V569.1h-.8v47.6Z" class="g6_25"/>
<path d="M650.8 617.5h.8v-.8h-.8v.8Z" class="g6_25"/>
<path d="M651.6 617.5h134v-.8h-134v.8Z" class="g6_25"/>
<path d="M785.6 616.7h.7V569.1h-.7v47.6Z" class="g6_25"/>
<path d="M785.6 617.5h.7v-.8h-.7v.8Z" class="g6_25"/>
<path d="M786.3 617.5h79.8v-.8H786.3v.8Z" class="g6_25"/>
<path d="M866.1 616.7h.7V569.1h-.7v47.6Z" class="g6_25"/>
<path d="M866.1 617.5h.7v-.8h-.7v.8Z" class="g6_25"/>
<path d="M866.1 617.5h.7v-.8h-.7v.8Z" class="g6_25"/>
<path fill-rule="evenodd" d="M71.1 697.2h68.1v-24H71.1v24Z" class="g3_25"/>
<path d="M79 697.2h52.3v-24H79v24Z" class="g3_25"/>
<path fill-rule="evenodd" d="M139.9 697.2H283.8v-24H139.9v24Z" class="g3_25"/>
<path d="M147.8 697.2H275.9v-24H147.8v24Z" class="g3_25"/>
<path fill-rule="evenodd" d="M284.5 697.2H428.3v-24H284.5v24Z" class="g3_25"/>
<path d="M292.4 697.2h128v-24h-128v24Z" class="g3_25"/>
<path fill-rule="evenodd" d="M429 697.2H572.7v-24H429v24Z" class="g3_25"/>
<path d="M436.9 697.2h128v-24h-128v24Z" class="g3_25"/>
<path fill-rule="evenodd" d="M573.5 697.2H717.4v-24H573.5v24Z" class="g3_25"/>
<path d="M581.3 697.2H709.5v-24H581.3v24Z" class="g3_25"/>
<path fill-rule="evenodd" d="M718.1 697.2H861.9v-24H718.1v24Z" class="g3_25"/>
<path d="M726 697.2H854v-24H726v24Z" class="g3_25"/>
<path d="M70.4 673.2h.7v-.7h-.7v.7Z" class="g6_25"/>
<path d="M70.4 673.2h.7v-.7h-.7v.7Z" class="g6_25"/>
<path d="M71.1 673.2h68.1v-.7H71.1v.7Z" class="g6_25"/>
<path d="M139.2 673.2h.7v-.7h-.7v.7Z" class="g6_25"/>
<path d="M139.9 673.2H283.6v-.7H139.9v.7Z" class="g6_25"/>
<path d="M283.6 673.2h.7v-.7h-.7v.7Z" class="g6_25"/>
<path d="M284.3 673.2h144v-.7h-144v.7Z" class="g6_25"/>
<path d="M428.3 673.2h.7v-.7h-.7v.7Z" class="g6_25"/>
<path d="M429 673.2H572.7v-.7H429v.7Z" class="g6_25"/>
<path d="M572.7 673.2h.8v-.7h-.8v.7Z" class="g6_25"/>
<path d="M573.5 673.2H717.2v-.7H573.5v.7Z" class="g6_25"/>
<path d="M717.2 673.2h.7v-.7h-.7v.7Z" class="g6_25"/>
<path d="M717.9 673.2h144v-.7h-144v.7Z" class="g6_25"/>
<path d="M861.9 673.2h.7v-.7h-.7v.7Z" class="g6_25"/>
<path d="M861.9 673.2h.7v-.7h-.7v.7Z" class="g6_25"/>
<path d="M70.4 697.2h.7v-24h-.7v24Z" class="g6_25"/>
<path d="M139.2 697.2h.7v-24h-.7v24Z" class="g6_25"/>
<path d="M283.6 697.2h.7v-24h-.7v24Z" class="g6_25"/>
<path d="M428.3 697.2h.7v-24h-.7v24Z" class="g6_25"/>
<path d="M572.7 697.2h.8v-24h-.8v24Z" class="g6_25"/>
<path d="M717.2 697.2h.7v-24h-.7v24Z" class="g6_25"/>
<path d="M861.9 697.2h.7v-24h-.7v24Z" class="g6_25"/>
<path fill-rule="evenodd" d="M71.1 811.8h68.1V698H71.1V811.8Z" class="g3_25"/>
<path fill-rule="evenodd" d="M79 766.7h52.3V742.9H79v23.8Z" class="g3_25"/>
<path d="M170.6 782.2l45.6 -57.4l35.2 59Z" class="gt_25"/>
<path d="M170.6 782.2l45.6 -57.4l35.2 59l-80.8 -1.6" class="g0_25"/>
<path d="M341.1 781.3v-6.1h-6V706.9l55 74.4Z" class="gu_25"/>
<path d="M335.1 775.2h6v6.1h-6v-6.1Z" class="gu_25"/>
<path d="M335.1 775.2v6.1h6m0 0h49l-55 -74.4v68.3m6 6.1v-6.1h-6" class="gv_25"/>
<path d="M448.3 771.3l62.1 -33.8L552 771.3Z" class="gw_25"/>
<path d="M448.3 771.3H552L510.4 737.5l-62.1 33.8" class="gv_25"/>
<path d="M668.6 785.3l-.3 -.7l-.2 -.7l-.1 -.7v-.6l.1 -.6l.1 -.5l.2 -.6l.3 -.4l.4 -.6l.4 -.4l.6 -.4l.6 -.4l.6 -.3l.8 -.4l.8 -.3l1 -.2l3.2 7.8Z" class="gx_25"/>
<path d="M644.3 720.7h-.5l-.6 -.2l-.6 -.2l-.5 -.3l-.6 -.4l-.6 -.4l-.5 -.4L645 707.3l4.7 11.1l-.7 .6l-.5 .4l-.6 .4l-.6 .4l-.6 .2l-.6 .2l-.6 .1l-.5 .1Z" class="gx_25"/>
<path d="M621.9 785.3l.3 -.9l.2 -.8v-.8l.1 -.7l-.1 -.7l-.1 -.6l-.3 -.6l-.3 -.5l-.4 -.5l-.5 -.4l-.5 -.4l-.6 -.3l-.8 -.4l-.7 -.2l-.9 -.2l-1 -.1l24.1 -58.4l.5 .4l.6 .4l.6 .4l.5 .3l.6 .2l.6 .2h.5l.7 .1l.5 -.1l.6 -.1l.6 -.2l.6 -.2l.6 -.4l.6 -.4l.5 -.4l.7 -.6l24.2 59.1l-1 .2l-.8 .3l-.8 .4l-.6 .3l-.6 .4l-.6 .4l-.4 .4l-.4 .6l-.3 .4l-.2 .6l-.1 .5l-.1 .6v.6l.1 .7l.2 .7l.3 .7Z" class="gx_25"/>
<path d="M613 785.3l3.3 -8.1l1 .1l.9 .2l.7 .2l.8 .4l.6 .3l.5 .4l.5 .4l.4 .5l.3 .5l.3 .6l.1 .6l.1 .7l-.1 .7v.8l-.2 .8l-.3 .9Z" class="gx_25"/>
<path d="M649.7 718.4l-.7 .6l-.5 .4l-.6 .4l-.6 .4l-.6 .2l-.6 .2l-.6 .1l-.5 .1l-.7 -.1h-.5l-.6 -.2l-.6 -.2l-.5 -.3l-.6 -.4l-.6 -.4l-.5 -.4m28.2 66.5H621.9m0 0l.3 -.9l.2 -.8v-.8l.1 -.7l-.1 -.7l-.1 -.6l-.3 -.6l-.3 -.5l-.4 -.5l-.5 -.4l-.5 -.4l-.6 -.3l-.8 -.4l-.7 -.2l-.9 -.2l-1 -.1m5.6 8.1H613m55.6 0l-.3 -.7l-.2 -.7l-.1 -.7v-.6l.1 -.6l.1 -.5l.2 -.6l.3 -.4l.4 -.6l.4 -.4l.6 -.4l.6 -.4l.6 -.3l.8 -.4l.8 -.3l1 -.2m3.2 7.8h-8.5m8.5 0l-3.2 -7.8L649.7 718.4L645 707.3l-4.6 11.5l-24.1 58.4l-3.3 8.1" class="gy_25"/>
<path d="M743 794l46.9 -82.3l46.5 82.6Z" class="g3_25"/>
<path d="M789.9 711.7L743 794l93.4 .3L789.9 711.7" class="gz_25"/>
<path d="M765.4 759.1l-4.1 -2.9m5.6 1L762.2 754m51.9 4.5l4.2 -3.9m-5.7 1.9l3.8 -3.4m-27.2 43.3l.8 -5m1.6 5.6l.7 -5.7" class="g10_25"/>
<path d="M70.4 698h.7v-.8h-.7v.8Z" class="g6_25"/>
<path d="M71.1 698h68.1v-.8H71.1v.8Z" class="g6_25"/>
<path d="M139.2 698h.7v-.8h-.7v.8Z" class="g6_25"/>
<path d="M139.9 698H283.6v-.8H139.9v.8Z" class="g6_25"/>
<path d="M283.6 698h.7v-.8h-.7v.8Z" class="g6_25"/>
<path d="M284.3 698h144v-.8h-144v.8Z" class="g6_25"/>
<path d="M428.3 698h.7v-.8h-.7v.8Z" class="g6_25"/>
<path d="M429 698H572.7v-.8H429v.8Z" class="g6_25"/>
<path d="M572.7 698h.8v-.8h-.8v.8Z" class="g6_25"/>
<path d="M573.5 698H717.2v-.8H573.5v.8Z" class="g6_25"/>
<path d="M717.2 698h.7v-.8h-.7v.8Z" class="g6_25"/>
<path d="M717.9 698h144v-.8h-144v.8Z" class="g6_25"/>
<path d="M861.9 698h.7v-.8h-.7v.8Z" class="g6_25"/>
<path d="M70.4 811.8h.7V698h-.7V811.8Z" class="g6_25"/>
<path d="M139.2 811.8h.7V698h-.7V811.8Z" class="g6_25"/>
<path d="M283.6 811.8h.7V698h-.7V811.8Z" class="g6_25"/>
<path d="M428.3 811.8h.7V698h-.7V811.8Z" class="g6_25"/>
<path d="M572.7 811.8h.8V698h-.8V811.8Z" class="g6_25"/>
<path d="M717.2 811.8h.7V698h-.7V811.8Z" class="g6_25"/>
<path d="M861.9 811.8h.7V698h-.7V811.8Z" class="g6_25"/>
<path fill-rule="evenodd" d="M71.1 860.2h68.1V812.5H71.1v47.7Z" class="g3_25"/>
<path fill-rule="evenodd" d="M79 848.3h52.3V824.4H79v23.9Z" class="g3_25"/>
<path d="M70.4 812.5h.7v-.7h-.7v.7Z" class="g6_25"/>
<path d="M71.1 812.5h68.1v-.7H71.1v.7Z" class="g6_25"/>
<path d="M139.2 812.5h.7v-.7h-.7v.7Z" class="g6_25"/>
<path d="M139.9 812.5H283.6v-.7H139.9v.7Z" class="g6_25"/>
<path d="M283.6 812.5h.7v-.7h-.7v.7Z" class="g6_25"/>
<path d="M284.3 812.5h144v-.7h-144v.7Z" class="g6_25"/>
<path d="M428.3 812.5h.7v-.7h-.7v.7Z" class="g6_25"/>
<path d="M429 812.5H572.7v-.7H429v.7Z" class="g6_25"/>
<path d="M572.7 812.5h.8v-.7h-.8v.7Z" class="g6_25"/>
<path d="M573.5 812.5H717.2v-.7H573.5v.7Z" class="g6_25"/>
<path d="M717.2 812.5h.7v-.7h-.7v.7Z" class="g6_25"/>
<path d="M717.9 812.5h144v-.7h-144v.7Z" class="g6_25"/>
<path d="M861.9 812.5h.7v-.7h-.7v.7Z" class="g6_25"/>
<path d="M70.4 860.2h.7V812.5h-.7v47.7Z" class="g6_25"/>
<path d="M70.4 860.9h.7v-.7h-.7v.7Z" class="g6_25"/>
<path d="M70.4 860.9h.7v-.7h-.7v.7Z" class="g6_25"/>
<path d="M71.1 860.9h68.1v-.7H71.1v.7Z" class="g6_25"/>
<path d="M139.2 860.2h.7V812.5h-.7v47.7Z" class="g6_25"/>
<path d="M139.2 860.9h.7v-.7h-.7v.7Z" class="g6_25"/>
<path d="M139.9 860.9H283.6v-.7H139.9v.7Z" class="g6_25"/>
<path d="M283.6 860.2h.7V812.5h-.7v47.7Z" class="g6_25"/>
<path d="M283.6 860.9h.7v-.7h-.7v.7Z" class="g6_25"/>
<path d="M284.3 860.9h144v-.7h-144v.7Z" class="g6_25"/>
<path d="M428.3 860.2h.7V812.5h-.7v47.7Z" class="g6_25"/>
<path d="M428.3 860.9h.7v-.7h-.7v.7Z" class="g6_25"/>
<path d="M429 860.9H572.7v-.7H429v.7Z" class="g6_25"/>
<path d="M572.7 860.2h.8V812.5h-.8v47.7Z" class="g6_25"/>
<path d="M572.7 860.9h.8v-.7h-.8v.7Z" class="g6_25"/>
<path d="M573.5 860.9H717.2v-.7H573.5v.7Z" class="g6_25"/>
<path d="M717.2 860.2h.7V812.5h-.7v47.7Z" class="g6_25"/>
<path d="M717.2 860.9h.7v-.7h-.7v.7Z" class="g6_25"/>
<path d="M717.9 860.9h144v-.7h-144v.7Z" class="g6_25"/>
<path d="M861.9 860.2h.7V812.5h-.7v47.7Z" class="g6_25"/>
<path d="M861.9 860.9h.7v-.7h-.7v.7Z" class="g6_25"/>
<path d="M861.9 860.9h.7v-.7h-.7v.7Z" class="g6_25"/>
<path fill-rule="evenodd" d="M71.1 995.7h68.1V971.8H71.1v23.9Z" class="g3_25"/>
<path d="M79 995.7h52.3V971.8H79v23.9Z" class="g3_25"/>
<path fill-rule="evenodd" d="M139.9 995.7H259.6V971.8H139.9v23.9Z" class="g3_25"/>
<path d="M147.8 995.7H251.7V971.8H147.8v23.9Z" class="g3_25"/>
<path fill-rule="evenodd" d="M260.3 995.7H380V971.8H260.3v23.9Z" class="g3_25"/>
<path d="M268.2 995.7h104V971.8h-104v23.9Z" class="g3_25"/>
<path fill-rule="evenodd" d="M380.8 995.7H500.5V971.8H380.8v23.9Z" class="g3_25"/>
<path d="M388.7 995.7H492.6V971.8H388.7v23.9Z" class="g3_25"/>
<path fill-rule="evenodd" d="M501.2 995.7H621V971.8H501.2v23.9Z" class="g3_25"/>
<path d="M509.1 995.7h104V971.8h-104v23.9Z" class="g3_25"/>
<path fill-rule="evenodd" d="M621.7 995.7H747.8V971.8H621.7v23.9Z" class="g3_25"/>
<path d="M629.6 995.7H739.9V971.8H629.6v23.9Z" class="g3_25"/>
<path fill-rule="evenodd" d="M748.5 995.7H868.3V971.8H748.5v23.9Z" class="g3_25"/>
<path d="M756.4 995.7h104V971.8h-104v23.9Z" class="g3_25"/>
<path d="M70.4 971.7h.7v-.8h-.7v.8Z" class="g6_25"/>
<path d="M70.4 971.7h.7v-.8h-.7v.8Z" class="g6_25"/>
<path d="M71.1 971.7h68.1v-.8H71.1v.8Z" class="g6_25"/>
<path d="M139.2 971.7h.7v-.8h-.7v.8Z" class="g6_25"/>
<path d="M139.9 971.7H259.6v-.8H139.9v.8Z" class="g6_25"/>
<path d="M259.6 971.7h.7v-.8h-.7v.8Z" class="g6_25"/>
<path d="M260.3 971.7H380v-.8H260.3v.8Z" class="g6_25"/>
<path d="M380 971.7h.8v-.8H380v.8Z" class="g6_25"/>
<path d="M380.8 971.7H500.5v-.8H380.8v.8Z" class="g6_25"/>
<path d="M500.5 971.7h.7v-.8h-.7v.8Z" class="g6_25"/>
<path d="M501.2 971.7H621v-.8H501.2v.8Z" class="g6_25"/>
<path d="M621 971.7h.7v-.8H621v.8Z" class="g6_25"/>
<path d="M621.7 971.7H747.8v-.8H621.7v.8Z" class="g6_25"/>
<path d="M747.8 971.7h.8v-.8h-.8v.8Z" class="g6_25"/>
<path d="M748.5 971.7H868.3v-.8H748.5v.8Z" class="g6_25"/>
<path d="M868.3 971.7h.7v-.8h-.7v.8Z" class="g6_25"/>
<path d="M868.3 971.7h.7v-.8h-.7v.8Z" class="g6_25"/>
<path d="M70.4 995.7h.7v-24h-.7v24Z" class="g6_25"/>
<path d="M139.2 995.7h.7v-24h-.7v24Z" class="g6_25"/>
<path d="M259.6 995.7h.7v-24h-.7v24Z" class="g6_25"/>
<path d="M380 995.7h.8v-24H380v24Z" class="g6_25"/>
<path d="M500.5 995.7h.7v-24h-.7v24Z" class="g6_25"/>
<path d="M621 995.7h.7v-24H621v24Z" class="g6_25"/>
<path d="M747.8 995.7h.8v-24h-.8v24Z" class="g6_25"/>
<path d="M868.3 995.7h.7v-24h-.7v24Z" class="g6_25"/>
<path fill-rule="evenodd" d="M71.1 1100.9h68.1V996.4H71.1v104.5Z" class="g3_25"/>
<path d="M79 1020.2h52.3V996.4H79v23.8Z" class="g3_25"/>
<path d="M236.5 1023.6l.2 -6.1h6.7v6.1Z" class="gu_25"/>
<path d="M161.6 1078.4v-6.6l-6 .1v-47.6H162v-6.8h74.7l-.2 6.1h6.9v48H237l-.1 6.8Z" class="gu_25"/>
<path d="M236.9 1078.4l.1 -6.8h6.4v6.8Z" class="gu_25"/>
<path d="M155.6 1017.5H162v6.8h-6.4v-6.8Z" class="gu_25"/>
<path d="M155.6 1078.4v-6.5l6 -.1v6.6Z" class="gu_25"/>
<path d="M243.4 1023.6v-6.1h-6.7m6.7 6.1h-6.9l.2 -6.1m.2 60.9l.1 -6.8h6.4m-6.5 6.8h6.5v-6.8m0 0v-48M162 1017.5h-6.4v6.8m6.4 -6.8v6.8h-6.4m6 54.1v-6.6l-6 .1m0 0v6.5h6m-6 -54.1v47.6m81.1 -54.4H162m-.4 60.9h75.3" class="g11_25"/>
<path d="M158.8 1047.1h-6m6 3.2h-6m93.4 1.6h-6m6 -3.2h-6m-39.1 -27.9l.9 -5.8m-.9 66.9l.9 -5.8" class="g12_25"/>
<path d="M285.8 1075.3h6.6v6.5h-6.6v-6.5Z" class="g13_25"/>
<path d="M285.8 1014.6h7.5v6.6h-7.5v-6.6Z" class="g13_25"/>
<path d="M343.9 1014.6h7.5v7.6h-7.5v-7.6Z" class="g13_25"/>
<path d="M292.4 1081.8v-6.5h-6.6v-54.1h7.5v-6.6h50.6v7.6h7.5v52l-7.9 -.1v7.7Z" class="g13_25"/>
<path d="M343.5 1081.8v-7.7l7.9 .1v7.6Z" class="g13_25"/>
<path d="M351.4 1014.6H285.8v67.2h65.6v-67.2m-65.6 6.6h7.5v-6.6m-7.5 60.7h6.6v6.5m51.1 0v-7.7l7.9 .1m0 -52h-7.5v-7.6" class="g14_25"/>
<path d="M355.7 1043.7h-6m6 3.3h-6m-59.6 1h-6m6 -3.3h-6M322 1018.1l1.1 -5.9m-4.2 5.3l1.2 -5.9m-1.8 73.1l1.1 -6m1.9 6.6l1.2 -6" class="g15_25"/>
<path d="M412.8 1047.9L440 1000.6l27.3 47.3L440 1095.2Z" class="g16_25"/>
<path d="M440 1000.6l-27.2 47.3l27.2 47.3l27.3 -47.3L440 1000.6" class="g17_25"/>
<path d="M452.1 1027l4 -4.5m-1.7 6.6l4 -4.5m-33.9 48.9l3.9 -4.5m-6.2 2.3l3.9 -4.4m-2.4 -43l5 3.2m-6.6 -.5l5 3.2m25 39.9l5 3.1m-3.4 -5.9l5 3.2" class="g18_25"/>
<path d="M530.3 1022.1v-.1h77.2l-.1 .1l-46.7 26.1Z" class="gw_25"/>
<path d="M514 1074.3l46.7 -26.1l30.4 26.1Z" class="gw_25"/>
<path d="M530.3 1022.1l30.4 26.1L514 1074.3Z" class="gw_25"/>
<path d="M560.7 1048.2l46.7 -26.1l-16.3 52.2Z" class="gw_25"/>
<path d="M591.1 1074.3l-30.4 -26.1m46.7 -26.1l-46.7 26.1m0 0L514 1074.3m46.7 -26.1l-30.4 -26.1m0 0L514 1074.3h77.1l16.3 -52.2l.1 -.1H530.3v.1" class="g19_25"/>
<path d="M566.9 1024.8l1.1 -5.9m1.9 6.6l1.2 -6m-14.7 58.3l1.1 -6m-4.2 5.4l1.2 -6m-29.6 -23l-5.3 -1m82.5 2l-5.3 -1" class="g1a_25"/>
<path d="M638.8 1076.7L658.2 1019h59.2l2.1 57.7Z" class="gt_25"/>
<path d="M658.2 1019l-19.4 57.7h80.7L717.4 1019H658.2" class="gv_25"/>
<path d="M805.9 1095.9l1.9 -59.2l5 .2l30.5 1.1l.1 .2l-37.2 58.3Z" class="g1b_25"/>
<path d="M771.7 1035.3v0l37 -35.6l.2 .2l-1 32.4l-.1 4.4Z" class="g1b_25"/>
<path d="M812.8 1036.9l.1 -4.6h-5l1 -32.4l34.4 38.1Z" class="g1b_25"/>
<path d="M807.8 1036.7l.1 -4.4h5l-.1 4.6Z" class="g1b_25"/>
<path d="M771.7 1035.3l36.1 1.4l-1.9 59.2Z" class="g1b_25"/>
<path d="M808.7 999.7l-37 35.6l34.2 60.6l.3 .6l37.2 -58.3l-.1 -.2L808.9 999.9" class="g1c_25"/>
<path d="M812.8 1036.9l-5 -.2m0 0l.1 -4.4m0 0l1 -32.4m-1.1 36.8l-36.1 -1.4m71.6 2.7l-30.5 -1.1m-6.9 59l1.9 -59.2m5 .2l.1 -4.6h-5" class="g1d_25"/>
<path d="M827.4 1024l3.7 -4.7M825 1022l3.7 -4.7m-37.9 4.1l-3.6 -4.7m6 2.7l-3.6 -4.7m.5 48.4l-4.5 2.2m43.4 .7l-4 -3" class="g1e_25"/>
<path d="M70.4 996.4h.7v-.7h-.7v.7Z" class="g6_25"/>
<path d="M71.1 996.4h68.1v-.7H71.1v.7Z" class="g6_25"/>
<path d="M139.2 996.4h.7v-.7h-.7v.7Z" class="g6_25"/>
<path d="M139.9 996.4H259.6v-.7H139.9v.7Z" class="g6_25"/>
<path d="M259.6 996.4h.7v-.7h-.7v.7Z" class="g6_25"/>
<path d="M260.3 996.4H380v-.7H260.3v.7Z" class="g6_25"/>
<path d="M380 996.4h.8v-.7H380v.7Z" class="g6_25"/>
<path d="M380.8 996.4H500.5v-.7H380.8v.7Z" class="g6_25"/>
<path d="M500.5 996.4h.7v-.7h-.7v.7Z" class="g6_25"/>
<path d="M501.2 996.4H621v-.7H501.2v.7Z" class="g6_25"/>
<path d="M621 996.4h.7v-.7H621v.7Z" class="g6_25"/>
<path d="M621.7 996.4H747.8v-.7H621.7v.7Z" class="g6_25"/>
<path d="M747.8 996.4h.8v-.7h-.8v.7Z" class="g6_25"/>
<path d="M748.5 996.4H868.3v-.7H748.5v.7Z" class="g6_25"/>
<path d="M868.3 996.4h.7v-.7h-.7v.7Z" class="g6_25"/>
<path d="M70.4 1100.9h.7V996.4h-.7v104.5Z" class="g6_25"/>
<path d="M139.2 1100.9h.7V996.4h-.7v104.5Z" class="g6_25"/>
<path d="M259.6 1100.9h.7V996.4h-.7v104.5Z" class="g6_25"/>
<path d="M380 1100.9h.8V996.4H380v104.5Z" class="g6_25"/>
<path d="M500.5 1100.9h.7V996.4h-.7v104.5Z" class="g6_25"/>
<path d="M621 1100.9h.7V996.4H621v104.5Z" class="g6_25"/>
<path d="M747.8 1100.9h.8V996.4h-.8v104.5Z" class="g6_25"/>
<path d="M868.3 1100.9h.7V996.4h-.7v104.5Z" class="g6_25"/>
<path fill-rule="evenodd" d="M71.1 1173.1h68.1v-71.5H71.1v71.5Z" class="g3_25"/>
<path d="M79 1125.5h52.3v-23.9H79v23.9Z" class="g3_25"/>
<path d="M70.4 1101.6h.7v-.7h-.7v.7Z" class="g6_25"/>
<path d="M71.1 1101.6h68.1v-.7H71.1v.7Z" class="g6_25"/>
<path d="M139.2 1101.6h.7v-.7h-.7v.7Z" class="g6_25"/>
<path d="M139.9 1101.6H259.6v-.7H139.9v.7Z" class="g6_25"/>
<path d="M259.6 1101.6h.7v-.7h-.7v.7Z" class="g6_25"/>
<path d="M260.3 1101.6H380v-.7H260.3v.7Z" class="g6_25"/>
<path d="M380 1101.6h.8v-.7H380v.7Z" class="g6_25"/>
<path d="M380.8 1101.6H500.5v-.7H380.8v.7Z" class="g6_25"/>
<path d="M500.5 1101.6h.7v-.7h-.7v.7Z" class="g6_25"/>
<path d="M501.2 1101.6H621v-.7H501.2v.7Z" class="g6_25"/>
<path d="M621 1101.6h.7v-.7H621v.7Z" class="g6_25"/>
<path d="M621.7 1101.6H747.8v-.7H621.7v.7Z" class="g6_25"/>
<path d="M747.8 1101.6h.8v-.7h-.8v.7Z" class="g6_25"/>
<path d="M748.5 1101.6H868.3v-.7H748.5v.7Z" class="g6_25"/>
<path d="M868.3 1101.6h.7v-.7h-.7v.7Z" class="g6_25"/>
<path d="M70.4 1173.1h.7v-71.5h-.7v71.5Z" class="g6_25"/>
<path d="M70.4 1173.9h.7v-.8h-.7v.8Z" class="g6_25"/>
<path d="M70.4 1173.9h.7v-.8h-.7v.8Z" class="g6_25"/>
<path d="M71.1 1173.9h68.1v-.8H71.1v.8Z" class="g6_25"/>
<path d="M139.2 1173.1h.7v-71.5h-.7v71.5Z" class="g6_25"/>
<path d="M139.2 1173.9h.7v-.8h-.7v.8Z" class="g6_25"/>
<path d="M139.9 1173.9H259.6v-.8H139.9v.8Z" class="g6_25"/>
<path d="M259.6 1173.1h.7v-71.5h-.7v71.5Z" class="g6_25"/>
<path d="M259.6 1173.9h.7v-.8h-.7v.8Z" class="g6_25"/>
<path d="M260.3 1173.9H380v-.8H260.3v.8Z" class="g6_25"/>
<path d="M380 1173.1h.8v-71.5H380v71.5Z" class="g6_25"/>
<path d="M380 1173.9h.8v-.8H380v.8Z" class="g6_25"/>
<path d="M380.8 1173.9H500.5v-.8H380.8v.8Z" class="g6_25"/>
<path d="M500.5 1173.1h.7v-71.5h-.7v71.5Z" class="g6_25"/>
<path d="M500.5 1173.9h.7v-.8h-.7v.8Z" class="g6_25"/>
<path d="M501.2 1173.9H621v-.8H501.2v.8Z" class="g6_25"/>
<path d="M621 1173.1h.7v-71.5H621v71.5Z" class="g6_25"/>
<path d="M621 1173.9h.7v-.8H621v.8Z" class="g6_25"/>
<path d="M621.7 1173.9H747.8v-.8H621.7v.8Z" class="g6_25"/>
<path d="M747.8 1173.1h.8v-71.5h-.8v71.5Z" class="g6_25"/>
<path d="M747.8 1173.9h.8v-.8h-.8v.8Z" class="g6_25"/>
<path d="M748.5 1173.9H868.3v-.8H748.5v.8Z" class="g6_25"/>
<path d="M868.3 1173.1h.7v-71.5h-.7v71.5Z" class="g6_25"/>
<path d="M868.3 1173.9h.7v-.8h-.7v.8Z" class="g6_25"/>
<path d="M868.3 1173.9h.7v-.8h-.7v.8Z" class="g6_25"/>
<image clip-path="url(#c1_25)" preserveAspectRatio="none" x="0" y="0" width="914" height="151" xlink:href="img/2.jpg"/>
<image clip-path="url(#c2_25)" preserveAspectRatio="none" x="23" y="153" width="1038" height="49" xlink:href="img/3.png"/>
<path d="M86.3 884.5h-.9l-.8 -.3l-.8 -.4l-.6 -.5l-.4 -.4l-.2 -.3l-.4 -.7l-.2 -.8V866.7l.2 -.8l.4 -.8l.6 -.6l.6 -.6l.8 -.3l.8 -.3H99.6l.4 .1l.4 .2l.7 .3l.3 .3l.4 .3l.5 .6l.4 .8l.3 .8l.1 .9v12.6l-.1 .4v.5l-.3 .8l-.2 .3l-.1 .2l-.1 .2l-.2 .3l-.2 .2h-.1v.2l-.4 .2l-.3 .3l-.2 .1l-.2 .1l-.3 .2l-.4 .1h-.1l-.1 .1l-.2 .1h-.8Z" class="g1f_25"/>
<path d="M78.6 1197.2l-.9 -.1l-.7 -.2l-.8 -.4l-.7 -.6l-.3 -.3l-.2 -.4l-.4 -.7l-.2 -.8l-.1 -.8v-12.6l.1 -.9l.2 -.8l.4 -.8l.5 -.6l.7 -.6l.8 -.4l.7 -.2l.9 -.1H91.1l.9 .1h.4l.4 .2l.6 .4l.4 .2l.3 .4l.6 .6l.4 .8l.3 .8v14.3l-.3 .8l-.2 .4l-.1 .1l-.1 .2l-.3 .4l-.1 .1l-.1 .1h-.1v.1l-.3 .3l-.4 .3h-.2l-.1 .2l-.3 .2l-.4 .1h-.3l-.1 .1h-.4l-.1 .1h-.4Z" class="g1f_25"/>
</svg>