<?xml version="1.0" encoding="UTF-8" standalone="no"?>
<!DOCTYPE svg PUBLIC "-//W3C//DTD SVG 1.1//EN"
"http://www.w3.org/Graphics/SVG/1.1/DTD/svg11.dtd">
<svg viewBox="0 0 909 1286" version="1.1" xmlns="http://www.w3.org/2000/svg" xmlns:xlink="http://www.w3.org/1999/xlink">
<defs>
<clipPath id="c0_3"><path d="M-.2 1286.6v-74.9h910v74.9Z"/></clipPath>
<style type="text/css"><![CDATA[
.g0_3{
fill: none;
stroke: #000;
stroke-width: 0.872;
stroke-linecap: square;
stroke-miterlimit: 10;
}
.g1_3{
fill: none;
stroke: #000;
stroke-width: 0.848;
stroke-linecap: square;
stroke-miterlimit: 10;
}
.g2_3{
fill: none;
stroke: #000;
stroke-width: 0.87;
stroke-linecap: square;
stroke-miterlimit: 10;
}
.g3_3{
fill: none;
stroke: #000;
stroke-width: 0.859;
stroke-linecap: square;
stroke-miterlimit: 10;
}
.g4_3{
fill: none;
stroke: #000;
stroke-width: 0.765;
stroke-linecap: square;
stroke-miterlimit: 10;
}
.g5_3{
fill: none;
stroke: #000;
stroke-width: 1.531;
stroke-linecap: square;
stroke-miterlimit: 10;
}
.g6_3{
fill: none;
stroke: #000;
stroke-width: 0.763;
stroke-linecap: square;
stroke-miterlimit: 10;
}
.g7_3{
fill: none;
stroke: #000;
stroke-width: 1.527;
stroke-linecap: square;
stroke-miterlimit: 10;
}
.g8_3{
fill: none;
stroke: #000;
stroke-width: 0.764;
stroke-linecap: square;
stroke-miterlimit: 10;
}
.g9_3{
fill: none;
stroke: #000;
stroke-width: 1.529;
stroke-linecap: square;
stroke-miterlimit: 10;
}
.ga_3{
fill: none;
stroke: #000;
stroke-width: 0.761;
stroke-linecap: square;
stroke-miterlimit: 10;
}
.gb_3{
fill: none;
stroke: #000;
stroke-width: 1.523;
stroke-linecap: square;
stroke-miterlimit: 10;
}
.gc_3{
fill: none;
stroke: #000;
stroke-width: 0.762;
stroke-linecap: square;
stroke-miterlimit: 10;
}
.gd_3{
fill: none;
stroke: #000;
stroke-width: 1.524;
stroke-linecap: square;
stroke-miterlimit: 10;
}
.ge_3{
fill: none;
stroke: #000;
stroke-width: 0.773;
stroke-linecap: square;
stroke-miterlimit: 10;
}
.gf_3{
fill: #000;
}
.gg_3{
fill: none;
stroke: #000;
stroke-width: 0.382;
stroke-linecap: square;
stroke-miterlimit: 10;
}
]]></style>
</defs>
<image clip-path="url(#c0_3)" preserveAspectRatio="none" x="-4" y="1212" width="952" height="131" xlink:href="img/1.jpg"/>
<path d="M169.6 73.4h24.5m-14.8 50h24.5" class="g0_3"/>
<path d="M179.3 149.5h21.9" class="g1_3"/>
<path d="M226.3 149.8h24.2" class="g2_3"/>
<path d="M275.1 175.6h24.4" class="g0_3"/>
<path d="M179.3 201.5h21.9" class="g1_3"/>
<path d="M226.3 201.8h23.3" class="g2_3"/>
<path d="M275.5 201.8h20.6" class="g3_3"/>
<path d="M297.4 336.1l2.3 -1.3" class="g4_3"/>
<path d="M299.7 335.2l3.4 6.2" class="g5_3"/>
<path d="M303.5 341.4L308 322.9m0 0h17.9" class="g4_3"/>
<path d="M350.9 336.1l2.4 -1.3" class="g6_3"/>
<path d="M353.3 335.2l3.4 6.2" class="g7_3"/>
<path d="M357.1 341.4l4.4 -18.5m0 0h9.9" class="g6_3"/>
<path d="M388.5 336.5l2.4 -1.4" class="g8_3"/>
<path d="M390.9 335.5l3.4 6.5" class="g9_3"/>
<path d="M394.7 342l4.4 -19.1m0 0h40.3" class="g8_3"/>
<path d="M193.4 363.9l2.4 -1.3" class="g4_3"/>
<path d="M195.8 363l3.4 6.2" class="g5_3"/>
<path d="M199.6 369.2l4.5 -18.5m0 0H222" class="g4_3"/>
<path d="M247 363.9l2.3 -1.3" class="g6_3"/>
<path d="M249.3 363l3.4 6.2" class="g7_3"/>
<path d="M253.1 369.2l4.5 -18.5m0 0H268m52.3 13.2l2.4 -1.3" class="g6_3"/>
<path d="M322.7 363l3.3 6.2" class="g7_3"/>
<path d="M326.4 369.2l4.5 -18.5m0 0h9.8" class="g6_3"/>
<path d="M366.1 363.8l2.4 -1.3" class="ga_3"/>
<path d="M368.5 362.8l3.4 6.2" class="gb_3"/>
<path d="M372.2 369l4.5 -18.3m0 0h11" class="ga_3"/>
<path d="M477.6 363.9l2.4 -1.3" class="g4_3"/>
<path d="M480 363l3.3 6.2" class="g5_3"/>
<path d="M483.7 369.2l4.5 -18.5m0 0h17.9" class="g4_3"/>
<path d="M531.1 363.9l2.4 -1.3" class="g6_3"/>
<path d="M533.5 363l3.4 6.2" class="g7_3"/>
<path d="M537.3 369.2l4.4 -18.5m0 0h9.9" class="g6_3"/>
<path d="M175.1 392l2.3 -1.3" class="g8_3"/>
<path d="M177.4 391l3.4 6.5" class="g9_3"/>
<path d="M181.2 397.5l4.5 -19.1m0 0H226" class="g8_3"/>
<path d="M251.6 391.7l2.3 -1.4" class="g6_3"/>
<path d="M253.9 390.7l3.4 6.2" class="g7_3"/>
<path d="M257.7 396.9l4.5 -18.5m0 0h19.5" class="g6_3"/>
<path d="M306.6 391.7l2.3 -1.4" class="gc_3"/>
<path d="M308.9 390.7l3.4 6.2" class="gd_3"/>
<path d="M312.7 396.9l4.4 -18.5m0 0H337" class="gc_3"/>
<path d="M427.2 391.7l2.3 -1.4" class="g4_3"/>
<path d="M429.5 390.7l3.4 6.2" class="g5_3"/>
<path d="M433.3 396.9l4.5 -18.5m0 0h17.9" class="g4_3"/>
<path d="M480.7 391.7l2.4 -1.4" class="g6_3"/>
<path d="M483.1 390.7l3.4 6.2" class="g7_3"/>
<path d="M486.8 396.9l4.5 -18.5m0 0h9.9" class="g6_3"/>
<path d="M554.1 392l2.3 -1.3" class="g8_3"/>
<path d="M556.4 391l3.4 6.5" class="g9_3"/>
<path d="M560.2 397.5l4.5 -19.1m0 0h40.2" class="g8_3"/>
<path d="M630.5 391.7l2.4 -1.4" class="g4_3"/>
<path d="M632.9 390.7l3.4 6.2" class="g5_3"/>
<path d="M636.7 396.9l4.5 -18.5m0 0h17.9" class="g4_3"/>
<path d="M684.1 391.7l2.3 -1.4" class="g6_3"/>
<path d="M686.4 390.7l3.4 6.2" class="g7_3"/>
<path d="M690.2 396.9l4.5 -18.5m0 0h9.8" class="g6_3"/>
<path d="M721.7 392l2.3 -1.3" class="g8_3"/>
<path d="M724 391l3.4 6.5" class="g9_3"/>
<path d="M727.8 397.5l4.5 -19.1m0 0h40.2" class="g8_3"/>
<path d="M431.8 419.5l2.3 -1.3" class="g4_3"/>
<path d="M434.1 418.6l3.4 6.2" class="g5_3"/>
<path d="M437.9 424.8l4.5 -18.5m0 0h17.9m-175.2 41l2.4 -1.3" class="g4_3"/>
<path d="M287.5 446.4l3.3 6.2" class="g5_3"/>
<path d="M291.2 452.6l4.5 -18.5m0 0h17.9" class="g4_3"/>
<path d="M369.3 447.3l2.3 -1.3" class="g6_3"/>
<path d="M371.6 446.4l3.4 6.2" class="g7_3"/>
<path d="M375.4 452.6l4.5 -18.5m0 0h9.8" class="g6_3"/>
<path d="M575.5 447.7l2.4 -1.4" class="g8_3"/>
<path d="M577.9 446.7l3.4 6.5" class="g9_3"/>
<path d="M581.7 453.2l4.4 -19.1m0 0h40.3m-433 41.3l2.4 -1.3" class="g8_3"/>
<path d="M195.8 474.5l3.4 6.4" class="g9_3"/>
<path d="M199.6 480.9L204 461.8m0 0h40.3" class="g8_3"/>
<path d="M269.9 475.1l2.3 -1.4" class="g4_3"/>
<path d="M272.2 474.1l3.4 6.2" class="g5_3"/>
<path d="M276 480.3l4.5 -18.5m0 0h17.9" class="g4_3"/>
<path d="M323.4 475.1l2.4 -1.4" class="g6_3"/>
<path d="M325.8 474.1l3.4 6.2" class="g7_3"/>
<path d="M329.6 480.3L334 461.8m0 0h9.9" class="g6_3"/>
<path d="M552.6 475.1l2.4 -1.4" class="g4_3"/>
<path d="M555 474.1l3.4 6.2" class="g5_3"/>
<path d="M558.7 480.3l4.5 -18.5m0 0h17.9" class="g4_3"/>
<path d="M606.2 475.1l2.3 -1.4" class="g6_3"/>
<path d="M608.5 474.1l3.4 6.2" class="g7_3"/>
<path d="M612.3 480.3l4.5 -18.5m0 0h9.8" class="g6_3"/>
<path d="M652 475.4l2.3 -1.3" class="g8_3"/>
<path d="M654.3 474.5l3.4 6.4" class="g9_3"/>
<path d="M658.1 480.9l4.5 -19.1m0 0h40.3" class="g8_3"/>
<path d="M175.1 503l2.4 -1.4" class="g4_3"/>
<path d="M177.5 502l3.3 6.2" class="g5_3"/>
<path d="M181.2 508.2l4.5 -18.5m0 0h17.9" class="g4_3"/>
<path d="M228.6 503l2.4 -1.4" class="g6_3"/>
<path d="M231 502l3.4 6.2" class="g7_3"/>
<path d="M234.8 508.2l4.4 -18.5m0 0h9.9" class="g6_3"/>
<path d="M266.2 503.3l2.4 -1.3" class="g8_3"/>
<path d="M268.6 502.3l3.4 6.5" class="g9_3"/>
<path d="M272.4 508.8l4.4 -19.1m0 0h40.3" class="g8_3"/>
<path d="M450.4 613h24.3" class="ge_3"/>
<path d="M261.6 701.4L264 700" class="ga_3"/>
<path d="M264 700.4l3.4 6.1" class="gb_3"/>
<path d="M267.7 706.5l4.5 -18.3m0 0h11" class="ga_3"/>
<path d="M365.5 701.5l2.3 -1.3" class="g6_3"/>
<path d="M367.8 700.5l3.4 6.2" class="g7_3"/>
<path d="M371.6 706.7l4.5 -18.5m0 0h9.8m59.2 79.2h25" class="g6_3"/>
<path d="M110.6 795.2h23.7m209.1 0h23.8" class="g4_3"/>
<path d="M392.3 795.2h24.6" class="g6_3"/>
<path d="M364.7 846.8h23.2" class="g4_3"/>
<path d="M413.7 846.8h25.1M223.9 874.6h24.9" class="g6_3"/>
<path d="M302.9 874.6h23.8" class="g4_3"/>
<path d="M176.7 918.3H525.1v-.9H176.7v.9Z" class="gf_3"/>
<path d="M163.6 974h24.9" class="g6_3"/>
<path d="M242.6 974h23.7" class="g4_3"/>
<path d="M428.3 974h25m25.4 0h23.8m-340 27.7h24.9" class="g6_3"/>
<path d="M241.5 1001.7h23.8" class="g4_3"/>
<image preserveAspectRatio="none" x="696" y="97" width="146" height="147" xlink:href="img/2.jpg"/>
<image preserveAspectRatio="none" x="43" y="94" width="57" height="56" xlink:href="img/3.jpg"/>
<image preserveAspectRatio="none" x="43" y="342" width="57" height="56" xlink:href="img/4.jpg"/>
<image preserveAspectRatio="none" x="721" y="609" width="141" height="101" xlink:href="img/5.jpg"/>
<image preserveAspectRatio="none" x="43" y="633" width="57" height="56" xlink:href="img/6.jpg"/>
<image preserveAspectRatio="none" x="43" y="786" width="57" height="57" xlink:href="img/7.jpg"/>
<path d="M687.8 891.7h5.3v5m38.7 -4.2l4.2 -2.7l2.7 4.2m56.3 3.1v-5.4h5m-129.1 5.4H813m-125.2 -64v64M800 853.4v43.7" class="gg_3"/>
<path d="M688.2 833.5l67 -45.9L800 853.4l-65.1 43.3L688.2 833.5Z" class="g4_3"/>
<path d="M680.9 912.4V912h.8l.7 -.4v-.3l.4 -.4l1.9 -7.3l.4 -1.2v-.3l-.4 -.4H684v-.4h8l.4 2.3l.4 .4h-.4l-.4 -.4l-.4 -.8l-.4 -.4l-.7 -.3l-.8 -.4H687l-.4 .4l-.3 .3l-1.2 3.9h3.1l.4 -.4l.3 -.8l.4 -.4h.4v.4l-1.1 3.1v.4l-.4 .4v-1.2l-.4 -.4L687 907h-1.9l-1.1 3.5V912h4.6l.7 -.7l.8 -.4l.7 -.8l.4 -.4h.4l-.8 1.6l-.7 1.1Z" class="gf_3"/>
<path d="M690.1 850.7h-.4v-.3h1.5l.4 -.4v-7.3h-1.9v-.4l1.1 -.4l1.2 -.3h.8v8h-.4l.4 .4l.3 .4h1.2v.3Z" class="gf_3"/>
<path d="M697.4 892.5l-.8 -.4l-.8 -.4v-1.1l.4 -.4h.4l.4 .4v1.1l.4 .4l.7 .4l.4 -.4l.8 -.4l.4 -.4v-1.1l.3 -.4l-.3 -.8v-.7l-.4 -.8l-.8 -.4h-.8l-.7 .4l-.4 .4l-.4 .4v-5h4.6l-.4 .4v.4h-3.8v3.4l.8 -.8h1.5l.8 .4l.7 .4l.4 .8v2.3l-.4 1.1l-.7 .4l-.8 .4l-.8 .4Z" class="gf_3"/>
<path d="M719.9 895.6l.8 -1.2l.8 -1.1l.7 -1.6l1.2 -1.1l.4 -.8l.4 -1.1v-.4l-.4 -.8l-.4 -.8h-1.2l-.7 .4l-.4 .4v.4l.4 .4v.7h-.4l-.4 .4l-.4 -.4v-1.5l.4 -.4l.8 -.7h1.9l.8 .3l.7 .4l.4 1.6l-.4 .7l-.4 1.2l-.7 .7l-1.6 1.6l-.7 .7l-.8 1.2h3.1l.7 -.4l.4 -.8v-.3h.4v.3l-.4 1.2v.8Z" class="gf_3"/>
<path d="M737.2 886.4h-.4l-.4 -.4v-.8l.4 -1.5l.4 -1.2l.4 -1.1l.7 -.8l.8 -1.9l.4 -.4l.4 -.4H736l-.4 .8v.8h-.3l.3 -2.7h4.6v1.1l-1.1 1.6l-.8 2.3l-.4 1.5v2.3l-.3 .4v.4Z" class="gf_3"/>
<path d="M756.3 895.2h-1.5l-1.2 -.4l-.3 -.8v-1.1h.7l.4 .4v1.1l.4 .4h1.5l.8 -.4l.4 -.8v-1.5l-.4 -.4l-.4 -.7l-.4 -.4h-1.5v-.8h.4l.4 .4l.7 -.4l.8 -.8v-1.5l-.4 -1.1l-.4 -.4h-1.1l-.4 .4v1.5h-.4v.4H754l-.4 -.4v-1.2l.8 -.7l.8 -.4h1.1l1.2 .8l.4 .7l.3 .8l-.3 .8l-.4 .7l-.8 .4l-.8 .4h.8l.4 .4l.4 .4l.4 .3l.3 .8l.4 .8l-.4 .7l-.3 .8l-.8 .8Z" class="gf_3"/>
<path d="M795 869.5v-.4h.4l.7 -.4v-1.5h-3v-.4l3.8 -6.5v-.4h.4v6.9h1.1v.4h-1.1v1.9h.8v.4Zm-1.2 -3.4l-.3 .7h2.6v-.7l.4 -4.3h-.4Z" class="gf_3"/>
<path d="M789.6 893.6l-.7 -.3l-.8 -.4l-.8 -1.2l-.3 -1.5v-2.3l.3 -1.5l.8 -1.2l.8 -.8l1.1 -.3h1.5l.4 .3v1.2h-1.1v-.8l-.4 -.4h-.8l-.4 .4l-.3 .4l-.4 .8v.4l-.4 .7v1.6l.8 -.8l1.1 -.4l.8 .4l.7 .4l.4 .7l.4 1.2v.4l-.4 .7l-.4 .8l-.3 .8l-.8 .4l-.4 .3Zm-.7 -4.9l-.8 .3v2.3l.4 1.2l.4 .4l.3 .4h.4l.8 -.4l.4 -.4l.4 -.8v-2.3l-.4 -.7l-.4 -.4h-.8Z" class="gf_3"/>
<path d="M740.6 912.4h-4.2V912h1.2l.3 -.4v-3h-5.3l-.8 1.1l-1.1 1.6v.3l.4 .4h1.1v.4h-3.8V912h.7l.8 -.4l.4 -.7l.4 -.4l.4 -.4l.7 -1.5l5 -7.3h.8l.3 -.4h.4v1.5l.4 1.2l.4 5.4v1.1l.4 1.5l.4 .4H741v.4Zm-3.8 -10l-3.8 5.4h4.6l-.4 -6.1Z" class="gf_3"/>
<path d="M797.3 912.4h-3.8V912h1.1l.4 -.4v-.3l.4 -.4l2.3 -8.1v-.7h-.4l-.4 -.4h-.8v-.4h9.2l.4 2.7h-.4l-.4 -.4v-.4l-.7 -.8l-.8 -.3H803l-.4 -.4H800l-.8 .4l-.4 .3l-1.1 3.9l.4 .4l1.1 -.4h1.9l.4 -.8l.4 -.4l.4 -.4v.4l-.4 2.3l-.4 .8v.8h-.4v-.8l-.4 -.4v-.4l-.3 -.4h-2.7l-1.2 4.3v.7h1.6v.4Z" class="gf_3"/>
<path d="M815.7 902.8h-.4v-.4h1.5l.4 -.3v-.8l.4 -.4l1.9 -8h.4v-.4l-.4 -.4h-1.2v-.4h4.6v.4h-1.1l-.8 .4v.4l-2.3 8.8v.4l.4 .3h3.1l.7 -.3l1.2 -.4l.8 -.8l1.1 -.8l-.8 1.6l-.3 1.1Z" class="gf_3"/>
<path d="M674 835.4V835h.8l.4 -.3l.3 -.4l.4 -.4l2.3 -8.4v-.8h-1.1v-.4h5.7l.8 .4l.7 .8l.8 .7l.4 .8l.4 .8v1.1l-.4 1.5l-.4 1.2l-.4 .8l-.7 1.1l-.8 .8l-.8 .4l-1.9 .3l-1.5 .4Zm5.7 -10.3l-.3 1.1l-.4 .8l-1.2 4.6l-.4 1.1l-.3 1.6v.7H679l1.1 -.3l1.6 -.4l1.1 -.8l.4 -1.1l.8 -1.2l.3 -1.1v-1.2l.4 -1.1l-.4 -.4v-1.2l-.7 -.7l-.8 -.4l-.8 -.4h-1.9Z" class="gf_3"/>
<path d="M756.7 784.1h-.4l-1.9 -.4l-.8 -.4l-.7 -.7l-.4 -1.2l-.4 -1.5v-.8l.4 -1.5l.8 -1.5l.7 -1.2l1.2 -1.1l1.5 -.8l1.2 -.4h1.5l1.9 .4h.4l.4 -.4l.3 .4v2.7h-.3l-.4 -.8l-.4 -.8l-.8 -.7l-.7 -.4h-1.6l-1.1 .4l-1.2 .7l-1.5 2.3l-.8 2.7v.8l.4 1.5l.4 .8l.4 .8l1.1 .3h2l.7 -.3l1.2 -.4l.7 -.8l.4 -.4l.4 -.4h.4l-.8 1.2l-1.1 .8l-1.2 .7l-1.5 .4Z" class="gf_3"/>
<path d="M810.3 859.2h-6.1v-.4h.7l.8 -.4v-.8l2.7 -8.4v-.8h-1.5v-.3h6.9l.7 .3l.4 .4l.4 .4l.4 .8v.4l-.4 1.1l-.8 .8l-1.1 .4l-1.2 .3l.8 .4l.8 .4l.7 .8l.4 .7v.4l-.4 1.2l-.4 .7l-1.1 .8l-1.5 .8Zm-3.1 -1.6v.8l.4 .4h1.9l1.2 -.4h1.1l.8 -.8l.8 -1.1v-2.3l-.8 -.4l-1.1 -.4h-3.1Zm2.7 -8.8l-.4 .4l-.3 1.9l-.4 1.2l-.4 .7h3.1l.7 -.3h.4l.8 -.8l.4 -.4l.3 -.8v-1.9h-.3l-.8 -.4h-2.7Z" class="gf_3"/>
</svg>