<?xml version="1.0" encoding="UTF-8" standalone="no"?>
<!DOCTYPE svg PUBLIC "-//W3C//DTD SVG 1.1//EN"
"http://www.w3.org/Graphics/SVG/1.1/DTD/svg11.dtd">
<svg viewBox="0 0 909 1286" version="1.1" xmlns="http://www.w3.org/2000/svg" xmlns:xlink="http://www.w3.org/1999/xlink">
<defs>
<clipPath id="c0_1"><path d="M-.2 1286.6v-74.9h910v74.9Z"/></clipPath>
<clipPath id="c1_1"><path d="M.1 152.6V0H909.8V152.6Z"/></clipPath>
<clipPath id="c2_1"><path d="M23 203.8V154.1H909.8v49.7Z"/></clipPath>
<clipPath id="c3_1"><path d="M573.1 867V791.3H809.9V867Z"/></clipPath>
<style type="text/css"><![CDATA[
.g0_1{
fill: #000;
}
.g1_1{
fill: none;
stroke: #000;
stroke-width: 1.099;
stroke-linecap: square;
stroke-miterlimit: 10;
}
.g2_1{
fill: none;
stroke: #000;
stroke-width: 0.733;
stroke-linecap: square;
stroke-miterlimit: 10;
}
]]></style>
</defs>
<image clip-path="url(#c0_1)" preserveAspectRatio="none" x="-4" y="1212" width="952" height="131" xlink:href="img/1.jpg"/>
<path d="M183.9 429.5h36.7v-.9H183.9v.9Z" class="g0_1"/>
<path d="M275.6 429.5h18.3v-.9H275.6v.9Z" class="g0_1"/>
<path d="M784.3 429.5h18.3v-.9H784.3v.9Z" class="g0_1"/>
<path d="M327.4 453.4h36.7v-.9H327.4v.9Z" class="g0_1"/>
<path d="M437.4 453.4h18.4v-.9H437.4v.9Z" class="g0_1"/>
<path d="M108.5 569.4h36.7v-.9H108.5v.9Z" class="g0_1"/>
<path d="M715.2 569.4H752v-.9H715.2v.9Z" class="g0_1"/>
<path d="M488.6 593.3h36.6v-1H488.6v1Z" class="g0_1"/>
<path d="M229.7 770.9H197.5m339.1 0H504.5M164.1 804.3H132m85.1 0H187m140.1 0H295m85 0H350M164.1 837.6H132m108.4 0H210.3m126.3 0H304.5m126.7 0H401.1" class="g1_1"/>
<path d="M197.3 1056.7h36.6v-.9H197.3v.9Z" class="g0_1"/>
<image clip-path="url(#c1_1)" preserveAspectRatio="none" x="0" y="0" width="915" height="152" xlink:href="img/2.jpg"/>
<image clip-path="url(#c2_1)" preserveAspectRatio="none" x="23" y="154" width="1038" height="49" xlink:href="img/3.png"/>
<image preserveAspectRatio="none" x="44" y="430" width="56" height="56" xlink:href="img/4.jpg"/>
<image preserveAspectRatio="none" x="44" y="571" width="56" height="56" xlink:href="img/5.jpg"/>
<image preserveAspectRatio="none" x="44" y="791" width="56" height="56" xlink:href="img/6.jpg"/>
<image clip-path="url(#c3_1)" preserveAspectRatio="none" x="573" y="792" width="237" height="75" xlink:href="img/7.jpg"/>
<path d="M614.7 997.7h.7V997h-.7v.7Z" class="g0_1"/>
<path d="M614.7 997.7h.7V997h-.7v.7Z" class="g0_1"/>
<path d="M615.4 997.7h53.8V997H615.4v.7Z" class="g0_1"/>
<path d="M669.2 997.7h.7V997h-.7v.7Z" class="g0_1"/>
<path d="M669.9 997.7H852.5V997H669.9v.7Z" class="g0_1"/>
<path d="M852.5 997.7h.7V997h-.7v.7Z" class="g0_1"/>
<path d="M852.5 997.7h.7V997h-.7v.7Z" class="g0_1"/>
<path d="M614.7 1021.5h.7V997.7h-.7v23.8Z" class="g0_1"/>
<path d="M669.2 1021.5h1.4V997.7h-1.4v23.8Z" class="g0_1"/>
<path d="M615.4 997.7l53.8 23.8" class="g2_1"/>
<path d="M852.5 1021.5h.7V997.7h-.7v23.8Z" class="g0_1"/>
<path d="M614.7 1023h.7v-1.5h-.7v1.5Z" class="g0_1"/>
<path d="M615.4 1023h53.8v-1.5H615.4v1.5Z" class="g0_1"/>
<path d="M669.2 1023h1.4v-1.5h-1.4v1.5Z" class="g0_1"/>
<path d="M670.6 1023H852.5v-1.5H670.6v1.5Z" class="g0_1"/>
<path d="M852.5 1023h.7v-1.5h-.7v1.5Z" class="g0_1"/>
<path d="M614.7 1046.8h.7V1023h-.7v23.8Z" class="g0_1"/>
<path d="M669.2 1046.8h1.4V1023h-1.4v23.8Z" class="g0_1"/>
<path d="M852.5 1046.8h.7V1023h-.7v23.8Z" class="g0_1"/>
<path d="M614.7 1047.6h.7v-.8h-.7v.8Z" class="g0_1"/>
<path d="M615.4 1047.6h53.8v-.8H615.4v.8Z" class="g0_1"/>
<path d="M669.2 1047.6h1.4v-.8h-1.4v.8Z" class="g0_1"/>
<path d="M670.6 1047.6H852.5v-.8H670.6v.8Z" class="g0_1"/>
<path d="M852.5 1047.6h.7v-.8h-.7v.8Z" class="g0_1"/>
<path d="M614.7 1071.4h.7v-23.8h-.7v23.8Z" class="g0_1"/>
<path d="M669.2 1071.4h1.4v-23.8h-1.4v23.8Z" class="g0_1"/>
<path d="M852.5 1071.4h.7v-23.8h-.7v23.8Z" class="g0_1"/>
<path d="M614.7 1072.1h.7v-.7h-.7v.7Z" class="g0_1"/>
<path d="M615.4 1072.1h53.8v-.7H615.4v.7Z" class="g0_1"/>
<path d="M669.2 1072.1h1.4v-.7h-1.4v.7Z" class="g0_1"/>
<path d="M670.6 1072.1H852.5v-.7H670.6v.7Z" class="g0_1"/>
<path d="M852.5 1072.1h.7v-.7h-.7v.7Z" class="g0_1"/>
<path d="M614.7 1095.6h.7v-23.5h-.7v23.5Z" class="g0_1"/>
<path d="M669.2 1095.6h1.4v-23.5h-1.4v23.5Z" class="g0_1"/>
<path d="M852.5 1095.6h.7v-23.5h-.7v23.5Z" class="g0_1"/>
<image preserveAspectRatio="none" x="44" y="1007" width="56" height="56" xlink:href="img/8.jpg"/>
</svg>