<?xml version="1.0" encoding="UTF-8" standalone="no"?>
<!DOCTYPE svg PUBLIC "-//W3C//DTD SVG 1.1//EN"
"http://www.w3.org/Graphics/SVG/1.1/DTD/svg11.dtd">
<svg viewBox="0 0 909 1286" version="1.1" xmlns="http://www.w3.org/2000/svg" xmlns:xlink="http://www.w3.org/1999/xlink">
<defs>
<clipPath id="c0_3"><path d="M-.2 1286.6v-74.9h910v74.9Z"/></clipPath>
<clipPath id="c1_3"><path d="M652.7 851.8V704.1H834.4V851.8Z"/></clipPath>
<style type="text/css"><![CDATA[
.g0_3{
fill: none;
stroke: #000;
stroke-width: 1.099;
stroke-linecap: square;
stroke-miterlimit: 10;
}
.g1_3{
fill: none;
stroke: #000;
stroke-width: 0.765;
stroke-linecap: square;
stroke-miterlimit: 10;
}
.g2_3{
fill: none;
stroke: #000;
stroke-width: 0.763;
stroke-linecap: square;
stroke-miterlimit: 10;
}
.g3_3{
fill: none;
stroke: #000;
stroke-width: 0.761;
stroke-linecap: square;
stroke-miterlimit: 10;
}
.g4_3{
fill: none;
stroke: #000;
stroke-width: 1.527;
stroke-linecap: square;
stroke-miterlimit: 10;
}
.g5_3{
fill: none;
stroke: #000;
stroke-width: 1.143;
stroke-linecap: round;
stroke-linejoin: round;
}
.g6_3{
fill: none;
stroke: #000;
stroke-width: 1.143;
stroke-linejoin: round;
}
]]></style>
</defs>
<image clip-path="url(#c0_3)" preserveAspectRatio="none" x="-4" y="1212" width="952" height="131" xlink:href="img/1.jpg"/>
<path d="M388.7 164.3H355.5m127.8 0H453.2m84.2 0H506.2M201.5 191.8H169.4m85.1 0H224.4m101.7 0h-30m85 0h-32m142.1 0H459.1m87.1 0H514.1M192.9 219.3H161.7m274.5 0H403m-178 55H192.9m86.1 0H247.9m154.2 0H370m86.1 0H425.2m153.9 0h-32m86.1 0H602.1m155.3 0H725.1m86.3 0H780.3" class="g0_3"/>
<path d="M494.6 354.9h23.8m25.2 .1h23.2M390 381.1h23.8" class="g1_3"/>
<path d="M525.5 381.3h20.9m52.4 0h20.9M111.3 407.7H137M395.3 526.1h23.2" class="g2_3"/>
<path d="M221.3 552.3h24.4" class="g1_3"/>
<path d="M366 552.1h24" class="g2_3"/>
<path d="M416.4 578.5h21.4m25.9 .1h21.4" class="g3_3"/>
<path d="M578.7 997.4h23.7" class="g2_3"/>
<path d="M202.4 1025.2h21.8" class="g3_3"/>
<path d="M286.4 1025.2h23.8" class="g1_3"/>
<path d="M344.5 1025.2h25.2m-233.3 64l2.4 -1.3" class="g2_3"/>
<path d="M138.8 1088.3l3.4 6.2" class="g4_3"/>
<path d="M142.6 1094.5L147 1076m0 0h9.9m255.7 13.2l2.4 -1.3" class="g2_3"/>
<path d="M415 1088.3l3.4 6.2" class="g4_3"/>
<path d="M418.8 1094.5l4.4 -18.5m0 0h9.9" class="g2_3"/>
<image preserveAspectRatio="none" x="24" y="69" width="822" height="39" xlink:href="img/2.png"/>
<image preserveAspectRatio="none" x="43" y="185" width="57" height="56" xlink:href="img/3.jpg"/>
<path d="M694.3 170.7v74h128l-128 -74Z" class="g5_3"/>
<path d="M758.3 244.7v-37m0 0l-64 37" class="g6_3"/>
<image preserveAspectRatio="none" x="43" y="374" width="57" height="56" xlink:href="img/4.jpg"/>
<image preserveAspectRatio="none" x="683" y="347" width="131" height="123" xlink:href="img/5.jpg"/>
<image preserveAspectRatio="none" x="747" y="526" width="105" height="80" xlink:href="img/6.jpg"/>
<image preserveAspectRatio="none" x="628" y="526" width="105" height="80" xlink:href="img/7.jpg"/>
<image preserveAspectRatio="none" x="43" y="545" width="57" height="56" xlink:href="img/8.jpg"/>
<image preserveAspectRatio="none" x="43" y="715" width="57" height="56" xlink:href="img/9.jpg"/>
<image clip-path="url(#c1_3)" preserveAspectRatio="none" x="653" y="704" width="181" height="147" xlink:href="img/10.jpg"/>
<image preserveAspectRatio="none" x="663" y="989" width="161" height="122" xlink:href="img/11.jpg"/>
<image preserveAspectRatio="none" x="43" y="1016" width="57" height="56" xlink:href="img/12.jpg"/>
</svg>