<?xml version="1.0" encoding="UTF-8" standalone="no"?>
<!DOCTYPE svg PUBLIC "-//W3C//DTD SVG 1.1//EN"
"http://www.w3.org/Graphics/SVG/1.1/DTD/svg11.dtd">
<svg viewBox="0 0 909 1286" version="1.1" xmlns="http://www.w3.org/2000/svg" xmlns:xlink="http://www.w3.org/1999/xlink">
<defs>
<clipPath id="c0_3"><path d="M-.2 1286.6v-74.9h910v74.9Z"/></clipPath>
<clipPath id="c1_3"><path d="M43.4 790.7V733.3h57.5v57.4Z"/></clipPath>
<clipPath id="c2_3"><path d="M740.5 1015.8V896.1H829v119.7Z"/></clipPath>
<style type="text/css"><![CDATA[
.g0_3{
fill: #000;
}
.g1_3{
fill: none;
stroke: #000;
stroke-width: 1.099;
stroke-linecap: square;
stroke-miterlimit: 10;
}
]]></style>
</defs>
<image clip-path="url(#c0_3)" preserveAspectRatio="none" x="-4" y="1212" width="952" height="131" xlink:href="img/1.jpg"/>
<path d="M682.9 233.8h36.7v-1H682.9v1Z" class="g0_3"/>
<path d="M682.9 235.6h36.7v-.9H682.9v.9Z" class="g0_3"/>
<path d="M330.4 349.1h9.1m-63 60.7l2.2 -1.3m0 0l5.8 11.9m0 0l3.7 -21.5m0 0h11.5m185.8 10.9l2.2 -1.3m0 0l5.8 11.9m0 0l3.7 -21.5m0 0h11.6m237 324.3h18.3M446.4 766.9h18.4" class="g1_3"/>
<path d="M110.4 911.7H147v-.9H110.4v.9Z" class="g0_3"/>
<image preserveAspectRatio="none" x="44" y="90" width="57" height="56" xlink:href="img/2.jpg"/>
<image preserveAspectRatio="none" x="700" y="81" width="159" height="92" xlink:href="img/3.jpg"/>
<image preserveAspectRatio="none" x="44" y="235" width="57" height="56" xlink:href="img/4.jpg"/>
<image preserveAspectRatio="none" x="44" y="362" width="57" height="57" xlink:href="img/5.jpg"/>
<image preserveAspectRatio="none" x="44" y="488" width="57" height="57" xlink:href="img/6.jpg"/>
<image preserveAspectRatio="none" x="44" y="608" width="57" height="57" xlink:href="img/7.jpg"/>
<image clip-path="url(#c1_3)" preserveAspectRatio="none" x="44" y="734" width="57" height="56" xlink:href="img/8.jpg"/>
<image clip-path="url(#c2_3)" preserveAspectRatio="none" x="741" y="896" width="88" height="119" xlink:href="img/9.jpg"/>
<image preserveAspectRatio="none" x="644" y="896" width="88" height="115" xlink:href="img/10.jpg"/>
<image preserveAspectRatio="none" x="44" y="911" width="57" height="57" xlink:href="img/11.jpg"/>
</svg>