<?xml version="1.0" encoding="UTF-8" standalone="no"?>
<!DOCTYPE svg PUBLIC "-//W3C//DTD SVG 1.1//EN"
"http://www.w3.org/Graphics/SVG/1.1/DTD/svg11.dtd">
<svg viewBox="0 0 909 1286" version="1.1" xmlns="http://www.w3.org/2000/svg" xmlns:xlink="http://www.w3.org/1999/xlink">
<defs>
<clipPath id="c0_5"><path d="M-.2 1286.6v-75.1h910v75.1Z"/></clipPath>
<style type="text/css"><![CDATA[
.g0_5{
fill: #000;
}
.g1_5{
fill: none;
stroke: #000;
stroke-width: 0.763;
stroke-linecap: square;
stroke-miterlimit: 10;
}
.g2_5{
fill: none;
stroke: #000;
stroke-width: 0.76;
stroke-linecap: square;
stroke-miterlimit: 10;
}
]]></style>
</defs>
<image clip-path="url(#c0_5)" preserveAspectRatio="none" x="-2" y="1212" width="930" height="127" xlink:href="img/1.jpg"/>
<path d="M109.9 91.1h36.7v-.9H109.9v.9Z" class="g0_5"/>
<path d="M151.8 209.9h36.7V209H151.8v.9Z" class="g0_5"/>
<path d="M151.8 211.7h36.7v-.9H151.8v.9Z" class="g0_5"/>
<path d="M188 448.2h11" class="g1_5"/>
<path d="M281.7 448.2h9.9" class="g2_5"/>
<path d="M364.6 448.2h11.1M136.1 495.6h16.8m58.1 0h18.3m58 0H307m59.3 0h20.2" class="g1_5"/>
<path d="M547.9 587.4h36.7v-.9H547.9v.9Z" class="g0_5"/>
<image preserveAspectRatio="none" x="43" y="89" width="57" height="57" xlink:href="img/2.jpg"/>
<image preserveAspectRatio="none" x="43" y="208" width="57" height="56" xlink:href="img/3.jpg"/>
<image preserveAspectRatio="none" x="43" y="328" width="57" height="56" xlink:href="img/4.jpg"/>
<image preserveAspectRatio="none" x="43" y="455" width="57" height="56" xlink:href="img/5.jpg"/>
<image preserveAspectRatio="none" x="695" y="612" width="142" height="136" xlink:href="img/6.jpg"/>
<image preserveAspectRatio="none" x="43" y="585" width="57" height="57" xlink:href="img/7.jpg"/>
</svg>