<?xml version="1.0" encoding="UTF-8" standalone="no"?>
<!DOCTYPE svg PUBLIC "-//W3C//DTD SVG 1.1//EN"
"http://www.w3.org/Graphics/SVG/1.1/DTD/svg11.dtd">
<svg viewBox="0 0 909 1286" version="1.1" xmlns="http://www.w3.org/2000/svg" xmlns:xlink="http://www.w3.org/1999/xlink">
<defs>
<clipPath id="c0_4"><path d="M-.2 1286.6v-75.1h910v75.1Z"/></clipPath>
<style type="text/css"><![CDATA[
.g0_4{
fill: #CFC;
}
.g1_4{
fill: #70AD47;
}
.g2_4{
fill: #6C3;
}
.g3_4{
fill: #6CF;
}
.g4_4{
fill: #F90;
}
]]></style>
</defs>
<image clip-path="url(#c0_4)" preserveAspectRatio="none" x="-2" y="1212" width="930" height="127" xlink:href="img/1.jpg"/>
<path fill-rule="evenodd" d="M71.1 236.5h40.6v-110H71.1v110Z" class="g0_4"/>
<path d="M79 144.8h24.8V126.5H79v18.3Z" class="g0_4"/>
<path fill-rule="evenodd" d="M79 163.2h24.8V144.8H79v18.4Z" class="g0_4"/>
<path fill-rule="evenodd" d="M79 181.5h24.8V163.2H79v18.3Z" class="g0_4"/>
<path fill-rule="evenodd" d="M79 199.8h24.8V181.5H79v18.3Z" class="g0_4"/>
<path fill-rule="evenodd" d="M79 218.2h24.8V199.8H79v18.4Z" class="g0_4"/>
<path d="M79 236.5h24.8V218.2H79v18.3Z" class="g0_4"/>
<path d="M70.4 126.5h.7v-.7h-.7v.7Z" class="g1_4"/>
<path d="M70.4 126.5h.7v-.7h-.7v.7Z" class="g1_4"/>
<path d="M71.1 126.5h40.6v-.7H71.1v.7Z" class="g1_4"/>
<path d="M111.7 126.5h.7v-.7h-.7v.7Z" class="g1_4"/>
<path d="M112.4 126.5H524.1v-.7H112.4v.7Z" class="g1_4"/>
<path d="M524.1 126.5h.8v-.7h-.8v.7Z" class="g1_4"/>
<path d="M524.9 126.5h337v-.7h-337v.7Z" class="g1_4"/>
<path d="M861.9 126.5h.7v-.7h-.7v.7Z" class="g1_4"/>
<path d="M861.9 126.5h.7v-.7h-.7v.7Z" class="g1_4"/>
<path d="M70.4 236.5h.7v-110h-.7v110Z" class="g1_4"/>
<path d="M111.7 236.5h.7v-110h-.7v110Z" class="g1_4"/>
<path d="M524.1 236.5h.8v-110h-.8v110Z" class="g1_4"/>
<path d="M861.9 236.5h.7v-110h-.7v110Z" class="g1_4"/>
<path fill-rule="evenodd" d="M71.1 347.4h40.6v-110H71.1v110Z" class="g0_4"/>
<path d="M79 255.7h24.8V237.4H79v18.3Z" class="g0_4"/>
<path fill-rule="evenodd" d="M79 274.1h24.8V255.7H79v18.4Z" class="g0_4"/>
<path fill-rule="evenodd" d="M79 292.4h24.8V274.1H79v18.3Z" class="g0_4"/>
<path fill-rule="evenodd" d="M79 310.7h24.8V292.4H79v18.3Z" class="g0_4"/>
<path fill-rule="evenodd" d="M79 329.1h24.8V310.7H79v18.4Z" class="g0_4"/>
<path d="M79 347.4h24.8V329.1H79v18.3Z" class="g0_4"/>
<path d="M70.4 237.2h.7v-.7h-.7v.7Z" class="g1_4"/>
<path d="M71.1 237.2h40.6v-.7H71.1v.7Z" class="g1_4"/>
<path d="M111.7 237.2h.7v-.7h-.7v.7Z" class="g1_4"/>
<path d="M112.4 237.2H524.1v-.7H112.4v.7Z" class="g1_4"/>
<path d="M524.1 237.2h.8v-.7h-.8v.7Z" class="g1_4"/>
<path d="M524.9 237.2h337v-.7h-337v.7Z" class="g1_4"/>
<path d="M861.9 237.2h.7v-.7h-.7v.7Z" class="g1_4"/>
<path d="M70.4 347.4h.7V237.2h-.7V347.4Z" class="g1_4"/>
<path d="M70.4 348.2h.7v-.8h-.7v.8Z" class="g1_4"/>
<path d="M70.4 348.2h.7v-.8h-.7v.8Z" class="g1_4"/>
<path d="M71.1 348.2h40.6v-.8H71.1v.8Z" class="g1_4"/>
<path d="M111.7 347.4h.7V237.2h-.7V347.4Z" class="g1_4"/>
<path d="M111.7 348.2h.7v-.8h-.7v.8Z" class="g1_4"/>
<path d="M112.4 348.2H524.1v-.8H112.4v.8Z" class="g1_4"/>
<path d="M524.1 347.4h.8V237.2h-.8V347.4Z" class="g1_4"/>
<path d="M524.1 348.2h.8v-.8h-.8v.8Z" class="g1_4"/>
<path d="M524.9 348.2h337v-.8h-337v.8Z" class="g1_4"/>
<path d="M861.9 347.4h.7V237.2h-.7V347.4Z" class="g1_4"/>
<path d="M861.9 348.2h.7v-.8h-.7v.8Z" class="g1_4"/>
<path d="M861.9 348.2h.7v-.8h-.7v.8Z" class="g1_4"/>
<path fill-rule="evenodd" d="M71.1 761.4H194.2v-55H71.1v55Z" class="g0_4"/>
<path fill-rule="evenodd" d="M79 747.6H186.3V720.1H79v27.5Z" class="g0_4"/>
<path d="M70.4 706.4h.7v-.8h-.7v.8Z" class="g1_4"/>
<path d="M70.4 706.4h.7v-.8h-.7v.8Z" class="g1_4"/>
<path d="M71.1 706.4H194.2v-.8H71.1v.8Z" class="g1_4"/>
<path d="M194.2 706.4h.7v-.8h-.7v.8Z" class="g1_4"/>
<path d="M194.9 706.4h667v-.8h-667v.8Z" class="g1_4"/>
<path d="M861.9 706.4h.7v-.8h-.7v.8Z" class="g1_4"/>
<path d="M861.9 706.4h.7v-.8h-.7v.8Z" class="g1_4"/>
<path d="M70.4 761.4h.7v-55h-.7v55Z" class="g1_4"/>
<path d="M194.2 761.4h.7v-55h-.7v55Z" class="g1_4"/>
<path d="M861.9 761.4h.7v-55h-.7v55Z" class="g1_4"/>
<path fill-rule="evenodd" d="M71.1 817.1H194.2v-55H71.1v55Z" class="g0_4"/>
<path fill-rule="evenodd" d="M79 803.4H186.3V775.9H79v27.5Z" class="g0_4"/>
<path d="M70.4 762.1h.7v-.7h-.7v.7Z" class="g1_4"/>
<path d="M71.1 762.1H194.2v-.7H71.1v.7Z" class="g1_4"/>
<path d="M194.2 762.1h.7v-.7h-.7v.7Z" class="g1_4"/>
<path d="M194.9 762.1h667v-.7h-667v.7Z" class="g1_4"/>
<path d="M861.9 762.1h.7v-.7h-.7v.7Z" class="g1_4"/>
<path d="M70.4 817.1h.7v-55h-.7v55Z" class="g1_4"/>
<path d="M194.2 817.1h.7v-55h-.7v55Z" class="g1_4"/>
<path d="M861.9 817.1h.7v-55h-.7v55Z" class="g1_4"/>
<path fill-rule="evenodd" d="M71.1 872.8H194.2v-55H71.1v55Z" class="g0_4"/>
<path fill-rule="evenodd" d="M79 859.1H186.3V831.6H79v27.5Z" class="g0_4"/>
<path d="M70.4 817.8h.7v-.7h-.7v.7Z" class="g1_4"/>
<path d="M71.1 817.8H194.2v-.7H71.1v.7Z" class="g1_4"/>
<path d="M194.2 817.8h.7v-.7h-.7v.7Z" class="g1_4"/>
<path d="M194.9 817.8h667v-.7h-667v.7Z" class="g1_4"/>
<path d="M861.9 817.8h.7v-.7h-.7v.7Z" class="g1_4"/>
<path d="M70.4 872.8h.7v-55h-.7v55Z" class="g1_4"/>
<path d="M194.2 872.8h.7v-55h-.7v55Z" class="g1_4"/>
<path d="M861.9 872.8h.7v-55h-.7v55Z" class="g1_4"/>
<path fill-rule="evenodd" d="M71.1 956.1H194.2V873.6H71.1v82.5Z" class="g0_4"/>
<path fill-rule="evenodd" d="M79 914.8H186.3V887.3H79v27.5Z" class="g0_4"/>
<path fill-rule="evenodd" d="M79 942.3H186.3V914.8H79v27.5Z" class="g0_4"/>
<path d="M70.4 873.6h.7v-.8h-.7v.8Z" class="g1_4"/>
<path d="M71.1 873.6H194.2v-.8H71.1v.8Z" class="g1_4"/>
<path d="M194.2 873.6h.7v-.8h-.7v.8Z" class="g1_4"/>
<path d="M194.9 873.6h667v-.8h-667v.8Z" class="g1_4"/>
<path d="M861.9 873.6h.7v-.8h-.7v.8Z" class="g1_4"/>
<path d="M70.4 956.1h.7V873.6h-.7v82.5Z" class="g1_4"/>
<path d="M194.2 956.1h.7V873.6h-.7v82.5Z" class="g1_4"/>
<path d="M861.9 956.1h.7V873.6h-.7v82.5Z" class="g1_4"/>
<path fill-rule="evenodd" d="M71.1 1012H194.2V957H71.1v55Z" class="g0_4"/>
<path fill-rule="evenodd" d="M79 998.2H186.3V970.7H79v27.5Z" class="g0_4"/>
<path d="M70.4 956.8h.7v-.7h-.7v.7Z" class="g1_4"/>
<path d="M71.1 956.8H194.2v-.7H71.1v.7Z" class="g1_4"/>
<path d="M194.2 956.8h.7v-.7h-.7v.7Z" class="g1_4"/>
<path d="M194.9 956.8h667v-.7h-667v.7Z" class="g1_4"/>
<path d="M861.9 956.8h.7v-.7h-.7v.7Z" class="g1_4"/>
<path d="M70.4 1012h.7V956.8h-.7V1012Z" class="g1_4"/>
<path d="M194.2 1012h.7V956.8h-.7V1012Z" class="g1_4"/>
<path d="M861.9 1012h.7V956.8h-.7V1012Z" class="g1_4"/>
<path fill-rule="evenodd" d="M71.1 1122.7H194.2v-110H71.1v110Z" class="g0_4"/>
<path fill-rule="evenodd" d="M79 1081.5H186.3V1054H79v27.5Z" class="g0_4"/>
<path d="M70.4 1012.7h.7v-.7h-.7v.7Z" class="g1_4"/>
<path d="M71.1 1012.7H194.2v-.7H71.1v.7Z" class="g1_4"/>
<path d="M194.2 1012.7h.7v-.7h-.7v.7Z" class="g1_4"/>
<path d="M194.9 1012.7h667v-.7h-667v.7Z" class="g1_4"/>
<path d="M861.9 1012.7h.7v-.7h-.7v.7Z" class="g1_4"/>
<path d="M70.4 1122.7h.7v-110h-.7v110Z" class="g1_4"/>
<path d="M70.4 1123.5h.7v-.8h-.7v.8Z" class="g1_4"/>
<path d="M70.4 1123.5h.7v-.8h-.7v.8Z" class="g1_4"/>
<path d="M71.1 1123.5H194.2v-.8H71.1v.8Z" class="g1_4"/>
<path d="M194.2 1122.7h.7v-110h-.7v110Z" class="g1_4"/>
<path d="M194.2 1123.5h.7v-.8h-.7v.8Z" class="g1_4"/>
<path d="M194.9 1123.5h667v-.8h-667v.8Z" class="g1_4"/>
<path d="M861.9 1122.7h.7v-110h-.7v110Z" class="g1_4"/>
<path d="M861.9 1123.5h.7v-.8h-.7v.8Z" class="g1_4"/>
<path d="M861.9 1123.5h.7v-.8h-.7v.8Z" class="g1_4"/>
<path d="M532.2 151l-.8 -.1l-.8 -.2l-.8 -.4l-.6 -.5l-.4 -.4l-.2 -.3l-.4 -.7l-.2 -.9V133.2l.2 -.8l.4 -.8l.6 -.6l.6 -.6l.8 -.4l.8 -.2h14.2l.4 .1l.4 .1l.7 .4l.3 .3l.4 .3l.5 .6l.4 .8l.3 .8l.1 .9v12.6l-.1 .4v.4l-.3 .9l-.2 .3l-.1 .2l-.1 .2l-.2 .3l-.2 .1l-.1 .1v.2l-.4 .2l-.3 .3l-.2 .1l-.2 .1l-.3 .2l-.4 .1h-.1l-.1 .1h-.5l-.1 .1h-.4Z" class="g2_4"/>
<path d="M532.5 178.7l-.9 -.1l-.7 -.2l-.8 -.4l-.6 -.6l-.3 -.3l-.3 -.4l-.4 -.7l-.2 -.8V160.9l.2 -.8l.4 -.8l.6 -.6l.6 -.6l.8 -.4l.7 -.2l.9 -.1H545l.9 .1l.4 .1l.4 .1l.6 .4l.4 .2l.3 .4l.6 .6l.4 .8l.3 .8v14.3l-.3 .8l-.2 .4l-.1 .1l-.1 .2l-.3 .4l-.1 .1l-.1 .1H548v.1l-.3 .3l-.4 .3h-.2l-.1 .2l-.3 .2l-.4 .1h-.2l-.2 .1h-.4l-.1 .1H545Z" class="g3_4"/>
<path d="M532.1 260.8l-.9 -.1l-.8 -.2l-.7 -.4l-.7 -.6l-.3 -.3l-.3 -.4l-.3 -.7l-.3 -.8V243l.3 -.8l.3 -.8l.6 -.6l.7 -.6l.7 -.4l.8 -.2l.9 -.1h12.5l.9 .1h.3l.4 .2l.7 .4l.4 .2l.3 .4l.6 .6l.4 .8l.2 .8l.1 .9v13h-.1v.4l-.2 .8l-.2 .4l-.1 .1l-.1 .2l-.3 .4l-.2 .1v.1h-.1v.1l-.3 .3l-.4 .3h-.2l-.1 .2l-.4 .2l-.4 .1h-.2l-.1 .1h-.4l-.1 .1h-.4Z" class="g2_4"/>
<path d="M531.8 287.9h-.9l-.8 -.3l-.8 -.4l-.6 -.5l-.3 -.4l-.3 -.3l-.3 -.7l-.3 -.8V270.1l.3 -.8l.3 -.7l.6 -.7l.6 -.6l.8 -.3l.8 -.3h14.2l.4 .1l.4 .2l.7 .3l.3 .3l.4 .3l.5 .7l.4 .7l.3 .8l.1 .9v12.6l-.1 .4v.5l-.3 .8l-.2 .3l-.1 .2l-.1 .2l-.2 .3l-.2 .2h-.1v.2l-.4 .2l-.3 .3l-.2 .1l-.2 .1l-.3 .2l-.4 .1h-.1l-.1 .1l-.2 .1h-.8Z" class="g3_4"/>
<path d="M118.9 344.4l-.8 -.1l-.8 -.2l-.8 -.4l-.6 -.6l-.4 -.3l-.2 -.4l-.4 -.7l-.2 -.8V326.6l.2 -.8l.4 -.8l.6 -.7l.6 -.5l.8 -.4l.8 -.2l.8 -.1h12.6l.8 .1h.4l.4 .2l.7 .4l.3 .2l.4 .3l.5 .7l.4 .8l.3 .8l.1 .9v12.6l-.1 .4v.4l-.3 .8l-.2 .4l-.1 .1l-.1 .2l-.2 .4l-.2 .1l-.1 .1v.1l-.4 .3l-.3 .3h-.2l-.2 .2l-.3 .2l-.4 .1h-.2l-.2 .1h-.4l-.4 .1Z" class="g4_4"/>
<path d="M322.7 455.4l-.9 -.1l-.7 -.3l-.8 -.4l-.7 -.5l-.3 -.4l-.2 -.3l-.4 -.7l-.2 -.8l-.1 -.9V438.4l.1 -.9l.2 -.8l.4 -.7l.5 -.7l.7 -.6l.8 -.3l.7 -.3h14.3l.4 .1l.4 .2l.6 .3l.4 .3l.3 .3l.6 .7l.4 .7l.3 .8v14.4l-.3 .8l-.2 .3l-.1 .2l-.1 .2l-.3 .3l-.1 .2l-.1 .1h-.1v.1l-.3 .2l-.4 .3l-.2 .1l-.1 .1l-.3 .2l-.4 .1h-.2l-.1 .1l-.1 .1h-.5l-.4 .1Z" class="g2_4"/>
<path d="M179.5 537.6l-.9 -.1l-.8 -.2l-.7 -.4l-.7 -.5l-.3 -.4l-.3 -.3l-.3 -.7l-.3 -.9V519.8l.3 -.8l.3 -.8l.6 -.6l.7 -.6l.7 -.4l.8 -.2h14.3l.3 .1l.4 .1l.7 .4l.3 .3l.4 .3l.6 .6l.4 .8l.2 .8l.1 .9v13l-.1 .1v.3l-.2 .9l-.2 .3l-.1 .2l-.1 .2l-.3 .3l-.2 .2H195v.2l-.4 .2l-.3 .3l-.2 .1l-.1 .1l-.4 .2l-.4 .1h-.1l-.1 .1h-.5l-.1 .1H192Z" class="g2_4"/>
<path d="M179 564.6l-.9 -.1l-.7 -.2l-.8 -.4l-.7 -.6l-.3 -.3l-.2 -.4l-.4 -.7l-.2 -.8l-.1 -.8V547.7l.1 -.9l.2 -.8l.4 -.8l.5 -.7l.7 -.5l.8 -.4l.7 -.2l.9 -.1h12.5l.9 .1h.4l.4 .2l.7 .4l.3 .2l.3 .3l.6 .7l.4 .8l.3 .8v14.3l-.3 .8l-.2 .4l-.1 .1l-.1 .2l-.3 .4l-.1 .1l-.1 .1h-.1v.1l-.3 .3l-.3 .3h-.2l-.2 .2l-.3 .2l-.4 .1h-.2l-.2 .1H192l-.5 .1Z" class="g2_4"/>
<path d="M177.6 647.3l-.9 -.1l-.8 -.2l-.8 -.4l-.6 -.5l-.3 -.4l-.3 -.3l-.3 -.7l-.3 -.9V629.5l.3 -.8l.3 -.8l.6 -.6l.6 -.6l.8 -.4l.8 -.2h14.2l.4 .1l.4 .1l.7 .4l.3 .3l.4 .3l.6 .6l.4 .8l.2 .8l.1 .9v13l-.1 .1v.3l-.2 .9l-.2 .3l-.2 .2v.2l-.3 .3l-.2 .1l-.1 .1v.2l-.4 .2l-.3 .3l-.2 .1l-.2 .1l-.3 .2l-.4 .1h-.1l-.1 .1h-.5l-.1 .1h-.4Z" class="g2_4"/>
<path d="M358.2 731.4l-.9 -.1l-.7 -.2l-.8 -.4l-.6 -.5l-.4 -.4l-.2 -.3l-.4 -.7l-.2 -.9l-.1 -.8V714.5l.1 -.9l.2 -.8l.4 -.8l.6 -.6l.6 -.6l.8 -.4l.7 -.2h14.3l.4 .1l.4 .1l.7 .4l.3 .3l.4 .3l.5 .6l.4 .8l.3 .8l.1 .9v12.6l-.1 .4v.4l-.3 .9l-.2 .3l-.1 .2l-.1 .2l-.3 .3l-.1 .2h-.1v.2l-.4 .2l-.3 .3l-.2 .1l-.2 .1l-.3 .2l-.4 .1h-.1l-.1 .1h-.6v.1h-.4Z" class="g2_4"/>
<path d="M355.6 786h-.9l-.8 -.3l-.8 -.4l-.6 -.5l-.3 -.4l-.3 -.3l-.4 -.7l-.2 -.8V768.2l.2 -.8l.4 -.7l.6 -.7l.6 -.6l.8 -.3l.8 -.3h14.2l.4 .1l.4 .2l.7 .3l.3 .3l.4 .3l.5 .7l.5 .7l.2 .8l.1 .9v12.6l-.1 .4v.5l-.2 .8l-.2 .3l-.2 .2l-.1 .2l-.2 .3l-.2 .2l-.1 .1v.1l-.4 .2l-.3 .3l-.2 .1l-.2 .1l-.3 .2l-.4 .1h-.1l-.1 .1l-.2 .1h-.8Z" class="g2_4"/>
<path d="M562.4 786h-.9l-.7 -.3l-.8 -.4l-.7 -.5l-.3 -.4l-.2 -.3l-.4 -.7l-.2 -.8l-.1 -.9V769.1l.1 -.9l.2 -.8l.4 -.7l.5 -.7l.7 -.6l.8 -.3l.7 -.3h14.3l.4 .1l.4 .2l.7 .3l.3 .3l.3 .3l.6 .7l.4 .7l.3 .8v14.4l-.3 .8l-.2 .3l-.1 .2l-.1 .2l-.3 .3l-.1 .2l-.1 .1h-.1v.1l-.3 .2l-.3 .3l-.2 .1l-.2 .1l-.3 .2l-.4 .1H576v.1l-.2 .1h-.9Z" class="g2_4"/>
<path d="M541 841.7l-.9 -.1l-.8 -.2l-.8 -.4l-.6 -.5l-.3 -.4l-.3 -.3l-.4 -.7l-.2 -.8V823.9l.2 -.8l.4 -.8l.6 -.6l.6 -.6l.8 -.4l.8 -.2h14.2l.4 .1l.4 .1l.7 .4l.3 .3l.4 .3l.5 .6l.5 .8l.2 .8l.1 .9v12.6l-.1 .4v.5l-.2 .8l-.3 .3l-.1 .2l-.1 .2l-.2 .3l-.2 .2h-.1v.2l-.4 .2l-.3 .3l-.2 .1l-.2 .1l-.3 .2l-.4 .1h-.1l-.1 .1H554l-.1 .1h-.4Z" class="g2_4"/>
<path d="M355 813.8l-.9 -.1l-.7 -.3l-.8 -.4l-.7 -.5l-.3 -.4l-.2 -.3l-.4 -.7l-.2 -.8l-.1 -.9V796.8l.1 -.9l.2 -.7l.4 -.8l.5 -.7l.7 -.5l.8 -.4l.7 -.3h14.3l.4 .1l.4 .2l.7 .4l.3 .2l.3 .3l.6 .7l.4 .8l.3 .7v14.4l-.3 .8l-.2 .3l-.1 .2l-.1 .2l-.3 .3l-.1 .2l-.1 .1h-.1v.1l-.3 .2l-.3 .3l-.2 .1l-.2 .1l-.3 .2l-.4 .2h-.2l-.2 .1H368l-.5 .1Z" class="g2_4"/>
<path d="M562.3 813.5h-.9l-.8 -.3l-.8 -.4l-.6 -.5l-.3 -.4l-.3 -.3l-.3 -.7l-.3 -.8V795.7l.3 -.8l.3 -.7l.6 -.7l.6 -.6l.8 -.3l.8 -.3h14.2l.4 .1l.4 .2l.7 .3l.3 .3l.4 .3l.6 .7l.4 .7l.2 .8l.1 .9v12.6l-.1 .4v.5l-.2 .8l-.2 .3l-.2 .2v.2l-.3 .3l-.2 .2l-.1 .1v.1l-.4 .2l-.3 .3l-.2 .1l-.2 .1l-.3 .2l-.4 .1h-.1l-.1 .1l-.2 .1h-.8Z" class="g2_4"/>
<path d="M541 869.2l-.9 -.1l-.8 -.2l-.8 -.4l-.6 -.5l-.3 -.4l-.3 -.3l-.4 -.7l-.2 -.8V851.4l.2 -.8l.4 -.8l.6 -.6l.6 -.6l.8 -.4l.8 -.2h14.2l.4 .1l.4 .1l.7 .4l.3 .3l.4 .3l.5 .6l.5 .8l.2 .8l.1 .9v12.6l-.1 .4v.5l-.2 .8l-.3 .3l-.1 .2l-.1 .2l-.2 .3l-.2 .2h-.1v.2l-.4 .2l-.3 .3l-.2 .1l-.2 .1l-.3 .2l-.4 .1h-.1l-.1 .1H554l-.1 .1h-.4Z" class="g2_4"/>
<path d="M452.5 980.8l-.9 -.1l-.8 -.3l-.7 -.4l-.7 -.5l-.3 -.4l-.2 -.3l-.4 -.7l-.3 -.8V962.9l.3 -.8l.4 -.7l.5 -.7l.7 -.6l.7 -.3l.8 -.3h14.3l.3 .1l.4 .2l.7 .3l.4 .3l.3 .3l.6 .7l.4 .7l.2 .8l.1 .9v13l-.1 .1v.4l-.2 .8l-.2 .3l-.1 .2l-.1 .2l-.3 .3l-.2 .2v.1H468v.1l-.3 .2l-.4 .3l-.2 .1l-.1 .1l-.4 .2l-.4 .2H466l-.1 .1h-.5l-.4 .1Z" class="g2_4"/>
<path d="M452 1006.9l-.9 -.1l-.7 -.2l-.8 -.5l-.6 -.5l-.4 -.4l-.2 -.3l-.4 -.7l-.2 -.8l-.1 -.9V989.9l.1 -.8l.2 -.8l.4 -.8l.6 -.7l.6 -.5l.8 -.4l.7 -.2l.9 -.1h12.6l.8 .1h.4l.4 .2l.7 .4l.3 .2l.4 .3l.5 .7l.4 .8l.3 .8l.1 .8v12.6l-.1 .5v.4l-.3 .8l-.2 .4l-.1 .1l-.1 .2l-.3 .3l-.1 .2l-.1 .1v.1l-.4 .3l-.3 .2l-.2 .1l-.2 .2l-.3 .2l-.4 .1h-.2l-.2 .1H465l-.4 .1Z" class="g2_4"/>
<path d="M77.8 1147.5h-.9l-.8 -.3l-.8 -.4l-.6 -.5l-.3 -.4l-.3 -.3l-.3 -.7l-.3 -.8v-14.4l.3 -.8l.3 -.7l.6 -.7l.6 -.6l.8 -.3l.8 -.3H91.1l.4 .1l.4 .2l.7 .3l.3 .3l.4 .3l.6 .7l.4 .7l.2 .8l.1 .9v13l-.1 .1v.4l-.2 .8l-.2 .3l-.2 .2v.2l-.3 .3l-.2 .2l-.1 .1v.1l-.4 .2l-.3 .3l-.2 .1l-.2 .1l-.3 .2l-.4 .1h-.1l-.1 .1l-.2 .1h-.8Z" class="g4_4"/>
<path d="M426.9 1063.6H426l-.8 -.3l-.7 -.4l-.7 -.5l-.3 -.4l-.2 -.3l-.4 -.7l-.2 -.8l-.1 -.9v-12.6l.1 -.9l.2 -.8l.4 -.7l.5 -.7l.7 -.6l.7 -.3l.8 -.3h14.3l.3 .1l.5 .2l.6 .3l.4 .3l.3 .3l.6 .7l.4 .7l.2 .8l.1 .9v13l-.1 .1v.4l-.2 .8l-.2 .3l-.1 .2l-.1 .2l-.3 .3l-.1 .2h-.2v.2l-.3 .2l-.4 .3l-.2 .1l-.1 .1l-.3 .2l-.5 .1h-.1l-.1 .1l-.1 .1h-.9Z" class="g2_4"/>
<path d="M427.4 1090.4l-.9 -.1l-.8 -.3l-.8 -.4l-.6 -.5l-.3 -.4l-.3 -.3l-.3 -.7l-.3 -.8v-14.4l.3 -.7l.3 -.8l.6 -.7l.6 -.5l.8 -.4l.8 -.3h14.2l.4 .1l.4 .2l.7 .4l.3 .2l.4 .3l.6 .7l.4 .8l.2 .7l.1 .9V1086l-.1 .4v.5l-.2 .8l-.2 .3l-.2 .2v.2l-.3 .3l-.2 .2l-.1 .1v.1l-.4 .3l-.3 .2l-.2 .1l-.2 .1l-.3 .2l-.4 .2h-.2l-.2 .1h-.4l-.4 .1Z" class="g2_4"/>
<path d="M427.4 1117.6l-.9 -.1l-.8 -.3l-.8 -.4l-.6 -.5l-.3 -.4l-.3 -.3l-.3 -.7l-.3 -.8v-14.4l.3 -.7l.3 -.8l.6 -.7l.6 -.5l.8 -.4l.8 -.3h14.2l.4 .1l.4 .2l.7 .4l.3 .2l.4 .3l.6 .7l.4 .8l.2 .7l.1 .9v12.6l-.1 .4v.5l-.2 .8l-.2 .3l-.2 .2v.2l-.3 .3l-.2 .2l-.1 .1v.1l-.4 .2l-.3 .3l-.2 .1l-.2 .1l-.3 .2l-.4 .2h-.2l-.2 .1h-.4l-.4 .1Z" class="g2_4"/>
<path d="M426.9 1037.4l-.9 -.1l-.8 -.3l-.7 -.4l-.7 -.5l-.3 -.4l-.2 -.3l-.4 -.7l-.2 -.8l-.1 -.9v-12.6l.1 -.9l.2 -.7l.4 -.8l.5 -.7l.7 -.6l.7 -.3l.8 -.3h14.3l.3 .1l.5 .2l.6 .3l.4 .3l.3 .3l.6 .7l.4 .8l.2 .7l.1 .9v13l-.1 .1v.4l-.2 .8l-.2 .3l-.1 .2l-.1 .2l-.3 .3l-.1 .2l-.1 .1h-.1v.1l-.3 .2l-.4 .3l-.2 .1l-.1 .1l-.3 .2l-.5 .2h-.2l-.1 .1h-.5l-.4 .1Z" class="g2_4"/>
<path d="M76.6 1176l-.9 -.1l-.8 -.3l-.8 -.4l-.6 -.5l-.4 -.4l-.2 -.3l-.4 -.7l-.2 -.8v-14.4l.2 -.8l.4 -.7l.6 -.7l.6 -.6l.8 -.3l.8 -.3H89.9l.4 .1l.4 .2l.7 .3l.3 .3l.4 .3l.5 .7l.4 .7l.3 .8l.1 .9v12.6l-.1 .4v.5l-.3 .8l-.2 .3l-.1 .2l-.1 .2l-.2 .3l-.2 .2l-.1 .1v.1l-.4 .2l-.3 .3l-.2 .1l-.2 .1l-.3 .2l-.4 .2h-.2l-.2 .1h-.4l-.4 .1Z" class="g4_4"/>
<image preserveAspectRatio="none" x="25" y="48" width="823" height="39" xlink:href="img/2.png"/>
</svg>