<?xml version="1.0" encoding="UTF-8" standalone="no"?>
<!DOCTYPE svg PUBLIC "-//W3C//DTD SVG 1.1//EN"
"http://www.w3.org/Graphics/SVG/1.1/DTD/svg11.dtd">
<svg viewBox="0 0 909 1286" version="1.1" xmlns="http://www.w3.org/2000/svg" xmlns:xlink="http://www.w3.org/1999/xlink">
<defs>
<clipPath id="c0_8"><path d="M-.2 1286.6v-75.1h910v75.1Z"/></clipPath>
<style type="text/css"><![CDATA[
.g0_8{
fill: #000;
}
.g1_8{
fill: none;
stroke: #000;
stroke-width: 0.763;
stroke-linecap: square;
stroke-miterlimit: 10;
}
.g2_8{
fill: none;
stroke: #000;
stroke-width: 0.765;
stroke-linecap: square;
stroke-miterlimit: 10;
}
]]></style>
</defs>
<image clip-path="url(#c0_8)" preserveAspectRatio="none" x="-2" y="1212" width="930" height="127" xlink:href="img/1.jpg"/>
<path d="M110.6 91.1h36.6v-.9H110.6v.9Z" class="g0_8"/>
<path d="M111.6 204.4h36.6v-.9H111.6v.9Z" class="g0_8"/>
<path d="M401.6 228.2h36.7v-.9H401.6v.9Z" class="g0_8"/>
<path d="M166.6 635.7h36.6v-.9H166.6v.9Z" class="g0_8"/>
<path d="M205.3 852.8H239" class="g1_8"/>
<path d="M264.9 852.8h40.6" class="g2_8"/>
<path d="M346.6 1037.2h36.7v-.9H346.6v.9Z" class="g0_8"/>
<path d="M722.4 1037.2h36.7v-.9H722.4v.9Z" class="g0_8"/>
<path d="M722.4 1039h36.7v-.9H722.4v.9Z" class="g0_8"/>
<image preserveAspectRatio="none" x="43" y="89" width="57" height="56" xlink:href="img/2.jpg"/>
<image preserveAspectRatio="none" x="43" y="322" width="57" height="56" xlink:href="img/3.jpg"/>
<image preserveAspectRatio="none" x="43" y="201" width="57" height="57" xlink:href="img/4.jpg"/>
<image preserveAspectRatio="none" x="43" y="516" width="57" height="56" xlink:href="img/5.jpg"/>
<image preserveAspectRatio="none" x="43" y="860" width="57" height="56" xlink:href="img/6.jpg"/>
<image preserveAspectRatio="none" x="43" y="988" width="57" height="56" xlink:href="img/7.jpg"/>
<image preserveAspectRatio="none" x="43" y="634" width="57" height="57" xlink:href="img/8.jpg"/>
<image preserveAspectRatio="none" x="485" y="620" width="366" height="139" xlink:href="img/9.jpg"/>
</svg>