<?xml version="1.0" encoding="UTF-8" standalone="no"?>
<!DOCTYPE svg PUBLIC "-//W3C//DTD SVG 1.1//EN"
"http://www.w3.org/Graphics/SVG/1.1/DTD/svg11.dtd">
<svg viewBox="0 0 909 1286" version="1.1" xmlns="http://www.w3.org/2000/svg" xmlns:xlink="http://www.w3.org/1999/xlink">
<defs>
<clipPath id="c0_6"><path d="M-.2 1286.6v-74.9h910v74.9Z"/></clipPath>
<clipPath id="c1_6"><path d="M680.5 561.1V480H856v81.1Z"/></clipPath>
<style type="text/css"><![CDATA[
.g0_6{
fill: #000;
}
.g1_6{
fill: none;
stroke: #000;
stroke-width: 0.763;
stroke-linecap: square;
stroke-miterlimit: 10;
}
.g2_6{
fill: none;
stroke: #000;
stroke-width: 0.761;
stroke-linecap: square;
stroke-miterlimit: 10;
}
.g3_6{
fill: none;
stroke: #000;
stroke-width: 1.523;
stroke-linecap: square;
stroke-miterlimit: 10;
}
]]></style>
</defs>
<image clip-path="url(#c0_6)" preserveAspectRatio="none" x="-4" y="1212" width="952" height="131" xlink:href="img/1.jpg"/>
<path d="M685.9 773.1h36.6v-.9H685.9v.9Z" class="g0_6"/>
<path d="M685.9 774.9h36.6V774H685.9v.9Z" class="g0_6"/>
<path d="M333 994.9h11.1" class="g1_6"/>
<path d="M305 1058.6l2.3 -1.3" class="g2_6"/>
<path d="M307.3 1057.7l3.4 6.1" class="g3_6"/>
<path d="M311 1063.8l4.5 -18.3m0 0h11m236.2 13.1l2.3 -1.3" class="g2_6"/>
<path d="M565 1057.7l3.4 6.1" class="g3_6"/>
<path d="M568.8 1063.8l4.5 -18.3m0 0h10.9" class="g2_6"/>
<image preserveAspectRatio="none" x="43" y="88" width="57" height="57" xlink:href="img/2.jpg"/>
<image preserveAspectRatio="none" x="43" y="213" width="57" height="56" xlink:href="img/3.jpg"/>
<image preserveAspectRatio="none" x="716" y="327" width="101" height="120" xlink:href="img/4.jpg"/>
<image clip-path="url(#c1_6)" preserveAspectRatio="none" x="681" y="480" width="175" height="81" xlink:href="img/5.jpg"/>
<image preserveAspectRatio="none" x="43" y="499" width="57" height="56" xlink:href="img/6.jpg"/>
<image preserveAspectRatio="none" x="43" y="648" width="57" height="56" xlink:href="img/7.jpg"/>
<image preserveAspectRatio="none" x="43" y="772" width="57" height="56" xlink:href="img/8.jpg"/>
<image preserveAspectRatio="none" x="43" y="889" width="57" height="57" xlink:href="img/9.jpg"/>
<image preserveAspectRatio="none" x="43" y="1004" width="57" height="56" xlink:href="img/10.jpg"/>
<image preserveAspectRatio="none" x="43" y="1138" width="57" height="57" xlink:href="img/11.jpg"/>
</svg>