<?xml version="1.0" encoding="UTF-8" standalone="no"?>
<!DOCTYPE svg PUBLIC "-//W3C//DTD SVG 1.1//EN"
"http://www.w3.org/Graphics/SVG/1.1/DTD/svg11.dtd">
<svg viewBox="0 0 909 1286" version="1.1" xmlns="http://www.w3.org/2000/svg" xmlns:xlink="http://www.w3.org/1999/xlink">
<defs>
<clipPath id="c0_5"><path d="M-.2 1286.6v-74.9h910v74.9Z"/></clipPath>
<clipPath id="c1_5"><path d="M137.9 535.3V487.9H240.3v47.4Z"/></clipPath>
<clipPath id="c2_5"><path d="M577 535.3V475.6h93.6v59.7Z"/></clipPath>
<clipPath id="c3_5"><path d="M722.9 334.3V214.5H844.6V334.3Z"/></clipPath>
<style type="text/css"><![CDATA[
.g0_5{
fill: none;
stroke: #000;
stroke-width: 0.765;
stroke-linecap: square;
stroke-miterlimit: 10;
}
.g1_5{
fill: none;
stroke: #000;
stroke-width: 0.761;
stroke-linecap: square;
stroke-miterlimit: 10;
}
.g2_5{
fill: none;
stroke: #000;
stroke-width: 0.763;
stroke-linecap: square;
stroke-miterlimit: 10;
}
.g3_5{
fill: none;
stroke: #000;
stroke-width: 0.767;
stroke-linecap: square;
stroke-miterlimit: 10;
}
.g4_5{
fill: none;
stroke: #000;
stroke-width: 0.762;
stroke-linecap: square;
stroke-miterlimit: 10;
}
.g5_5{
fill: none;
stroke: #000;
stroke-width: 0.909;
stroke-linecap: square;
stroke-miterlimit: 10;
}
.g6_5{
fill: none;
stroke: #000;
stroke-width: 0.904;
stroke-linecap: square;
stroke-miterlimit: 10;
}
]]></style>
</defs>
<image clip-path="url(#c0_5)" preserveAspectRatio="none" x="-4" y="1212" width="952" height="131" xlink:href="img/1.jpg"/>
<image preserveAspectRatio="none" x="514" y="1066" width="356" height="109" xlink:href="img/2.jpg"/>
<path d="M177.9 258.8h24.3" class="g0_5"/>
<path d="M226.8 258.8h22.6" class="g1_5"/>
<path d="M177.9 285.2h24.4m232.8 0h23.7M156.4 311.5H185" class="g0_5"/>
<image clip-path="url(#c1_5)" preserveAspectRatio="none" x="138" y="488" width="102" height="47" xlink:href="img/3.jpg"/>
<image preserveAspectRatio="none" x="287" y="488" width="102" height="47" xlink:href="img/4.jpg"/>
<image preserveAspectRatio="none" x="436" y="476" width="93" height="59" xlink:href="img/5.jpg"/>
<image clip-path="url(#c2_5)" preserveAspectRatio="none" x="577" y="476" width="93" height="59" xlink:href="img/6.jpg"/>
<path d="M110.6 610.8h25.1" class="g2_5"/>
<path d="M197.6 610.8h23.3" class="g0_5"/>
<path d="M257.2 662.5h25.2m25.2 -.2H330m-21.4 73h11" class="g2_5"/>
<path d="M402.8 735.3h10" class="g3_5"/>
<path d="M550 813.2h24.1m25 0h24.5" class="g0_5"/>
<path d="M110.5 841.3h27.2m24.8 -.2h24m24.9 0h25.4" class="g2_5"/>
<path d="M261.8 841.1h24.4" class="g0_5"/>
<path d="M329.1 841.3h27.1" class="g4_5"/>
<path d="M381 841.1h24.8m25.6 0h25.4m-176.7 28h27.2m52.3 -.1H385" class="g2_5"/>
<path d="M395.9 896.8h26.2" class="g4_5"/>
<path d="M447.7 896.6h25.2" class="g2_5"/>
<path d="M532.8 896.6h26" class="g4_5"/>
<path d="M584.7 896.6h24.6" class="g2_5"/>
<path d="M445.5 1022.8h23.3m-35.3 27.9h23.2" class="g5_5"/>
<path d="M519.1 1050.5h22" class="g6_5"/>
<path d="M566.4 1050.5h19.5" class="g5_5"/>
<image preserveAspectRatio="none" x="691" y="72" width="161" height="109" xlink:href="img/7.jpg"/>
<image preserveAspectRatio="none" x="43" y="90" width="57" height="56" xlink:href="img/8.jpg"/>
<image clip-path="url(#c3_5)" preserveAspectRatio="none" x="723" y="215" width="121" height="119" xlink:href="img/9.jpg"/>
<image preserveAspectRatio="none" x="43" y="228" width="57" height="56" xlink:href="img/10.jpg"/>
<image preserveAspectRatio="none" x="43" y="449" width="57" height="57" xlink:href="img/11.jpg"/>
<image preserveAspectRatio="none" x="533" y="588" width="327" height="71" xlink:href="img/12.jpg"/>
<image preserveAspectRatio="none" x="43" y="601" width="57" height="56" xlink:href="img/13.jpg"/>
<image preserveAspectRatio="none" x="701" y="811" width="140" height="106" xlink:href="img/14.jpg"/>
<image preserveAspectRatio="none" x="43" y="834" width="57" height="56" xlink:href="img/15.jpg"/>
<image preserveAspectRatio="none" x="43" y="992" width="57" height="56" xlink:href="img/16.jpg"/>
</svg>