<?xml version="1.0" encoding="UTF-8" standalone="no"?>
<!DOCTYPE svg PUBLIC "-//W3C//DTD SVG 1.1//EN"
"http://www.w3.org/Graphics/SVG/1.1/DTD/svg11.dtd">
<svg viewBox="0 0 909 1286" version="1.1" xmlns="http://www.w3.org/2000/svg" xmlns:xlink="http://www.w3.org/1999/xlink">
<defs>
<clipPath id="c0_2"><path d="M-.2 1286.6v-74.9h910v74.9Z"/></clipPath>
<clipPath id="c1_2"><path d="M651.1 777.3V728.2H851.5v49.1Z"/></clipPath>
<style type="text/css"><![CDATA[
.g0_2{
fill: none;
stroke: #000;
stroke-width: 1.099;
stroke-linecap: square;
stroke-miterlimit: 10;
}
.g1_2{
fill: none;
stroke: #000;
stroke-width: 0.763;
stroke-linecap: square;
stroke-miterlimit: 10;
}
.g2_2{
fill: none;
stroke: #000;
stroke-width: 1.527;
stroke-linecap: square;
stroke-miterlimit: 10;
}
.g3_2{
fill: none;
stroke: #000;
stroke-width: 0.765;
stroke-linecap: square;
stroke-miterlimit: 10;
}
.g4_2{
fill: none;
stroke: #000;
stroke-width: 1.531;
stroke-linecap: square;
stroke-miterlimit: 10;
}
]]></style>
</defs>
<image clip-path="url(#c0_2)" preserveAspectRatio="none" x="-4" y="1212" width="952" height="131" xlink:href="img/1.jpg"/>
<path d="M151.8 94.2l4.8 -2.4m0 0l11.9 24.3m0 -.1l7.1 -43.6m0 0h39.1M191 93.3h18.4m25.1 .9l4.7 -2.4m.1 0l11.9 24.3m0 -.1l7.1 -43.6m0 0h39.1M273.7 93.3h18.4M146.7 136.9H165m61.1 0h18.3m61 0h18.4m62.1 0h18.4m244.5 87.3l2.2 -1.3m0 0l5.9 11.9m0 0l3.6 -21.4m0 0H695" class="g0_2"/>
<image preserveAspectRatio="none" x="107" y="237" width="288" height="46" xlink:href="img/2.jpg"/>
<path d="M150.7 368.7l2.4 -1.3" class="g1_2"/>
<path d="M153.1 367.8l3.4 6.2" class="g2_2"/>
<path d="M156.8 374l4.5 -18.5m0 0H199m-21.3 40.9l2.3 -1.3" class="g1_2"/>
<path d="M180 395.4l3.4 6.2" class="g2_2"/>
<path d="M183.8 401.6l4.5 -18.5m0 0h37.6m136.6 13.3l2.3 -1.3" class="g1_2"/>
<path d="M364.8 395.4l3.4 6.2" class="g2_2"/>
<path d="M368.6 401.6l4.5 -18.5m0 0h37.6m136.8 13.3l2.3 -1.3" class="g1_2"/>
<path d="M549.8 395.4l3.4 6.2" class="g2_2"/>
<path d="M553.6 401.6l4.5 -18.5m0 0h37.6m137.6 13.3l2.4 -1.3" class="g1_2"/>
<path d="M735.7 395.4l3.4 6.2" class="g2_2"/>
<path d="M739.5 401.6l4.4 -18.5m0 0h37.7M114.1 615.3l2.3 -1.3" class="g1_2"/>
<path d="M116.4 614.4l3.4 6.2" class="g2_2"/>
<path d="M120.2 620.6l4.5 -18.5m0 0h18.1M220.9 759l2.4 -1.3" class="g1_2"/>
<path d="M223.3 758.1l3.4 6.2" class="g2_2"/>
<path d="M227 764.3l4.5 -18.6m0 0h27.3M150.3 1102.5h11.1m38 -.1h11.1m-23.1 4.3l2.3 -1.3" class="g1_2"/>
<path d="M189.7 1105.7l3.4 16.3" class="g2_2"/>
<path d="M193.5 1122l4.5 -44m0 0h14m27.3 40.3l2.4 -1.3" class="g1_2"/>
<path d="M241.7 1117.4l3.4 6.1" class="g2_2"/>
<path d="M245.5 1123.5l4.4 -18.2m0 0h11m-23.5 -3h25" class="g1_2"/>
<path d="M289.8 1091.4l2.3 -1.3" class="g3_2"/>
<path d="M292.1 1090.5l3.4 6.2" class="g4_2"/>
<path d="M295.9 1096.7l4.5 -18.6m0 0h10.1m-22.6 24.4h24.2" class="g3_2"/>
<path d="M136.1 1157.5h11m71.6 -.1h11.1m-23.2 4.3l2.4 -1.3" class="g1_2"/>
<path d="M209 1160.7l3.4 16.3" class="g2_2"/>
<path d="M212.8 1177l4.4 -44m0 0h14.1m60.8 40.3l2.4 -1.3" class="g1_2"/>
<path d="M294.5 1172.4l3.4 6.1" class="g2_2"/>
<path d="M298.2 1178.5l4.5 -18.2m0 0h11m-23.5 -3h25" class="g1_2"/>
<path d="M377.2 1146.4l2.4 -1.3" class="g3_2"/>
<path d="M379.6 1145.5l3.4 6.2" class="g4_2"/>
<path d="M383.4 1151.7l4.5 -18.6m0 0H398m-22.7 24.4h24.2" class="g3_2"/>
<image preserveAspectRatio="none" x="44" y="104" width="56" height="56" xlink:href="img/3.jpg"/>
<image preserveAspectRatio="none" x="44" y="232" width="56" height="56" xlink:href="img/4.jpg"/>
<image preserveAspectRatio="none" x="44" y="375" width="56" height="57" xlink:href="img/5.jpg"/>
<image preserveAspectRatio="none" x="44" y="502" width="56" height="56" xlink:href="img/6.jpg"/>
<image preserveAspectRatio="none" x="44" y="621" width="56" height="56" xlink:href="img/7.jpg"/>
<image preserveAspectRatio="none" x="44" y="741" width="56" height="56" xlink:href="img/8.jpg"/>
<image clip-path="url(#c1_2)" preserveAspectRatio="none" x="651" y="729" width="200" height="48" xlink:href="img/9.jpg"/>
<image preserveAspectRatio="none" x="44" y="857" width="56" height="57" xlink:href="img/10.jpg"/>
<image preserveAspectRatio="none" x="44" y="980" width="56" height="56" xlink:href="img/11.jpg"/>
<image preserveAspectRatio="none" x="44" y="1111" width="56" height="56" xlink:href="img/12.jpg"/>
</svg>