<?xml version="1.0" encoding="UTF-8" standalone="no"?>
<!DOCTYPE svg PUBLIC "-//W3C//DTD SVG 1.1//EN"
"http://www.w3.org/Graphics/SVG/1.1/DTD/svg11.dtd">
<svg viewBox="0 0 909 1286" version="1.1" xmlns="http://www.w3.org/2000/svg" xmlns:xlink="http://www.w3.org/1999/xlink">
<defs>
<clipPath id="c0_4"><path d="M-.2 1286.6v-74.9h910v74.9Z"/></clipPath>
<style type="text/css"><![CDATA[
.g0_4{
fill: none;
stroke: #000;
stroke-width: 1.099;
stroke-linecap: square;
stroke-miterlimit: 10;
}
.g1_4{
fill: none;
stroke: #000;
stroke-width: 1.133;
stroke-linejoin: round;
}
.g2_4{
fill: #000;
}
.g3_4{
fill: none;
stroke: #000;
stroke-width: 1.133;
stroke-linecap: round;
stroke-linejoin: round;
}
.g4_4{
fill: none;
stroke: #000;
stroke-width: 0.91;
stroke-linecap: round;
stroke-linejoin: round;
}
.g5_4{
fill: none;
stroke: #000;
stroke-width: 0.607;
stroke-linejoin: round;
}
.g6_4{
fill: none;
stroke: #000;
stroke-width: 0.91;
stroke-linejoin: round;
}
.g7_4{
fill: none;
stroke: #000;
stroke-width: 0.687;
stroke-linecap: round;
stroke-miterlimit: 8;
}
.g8_4{
fill: none;
stroke: #000;
stroke-width: 1.03;
stroke-linejoin: round;
}
.g9_4{
fill: none;
stroke: #000;
stroke-width: 0.866;
stroke-linejoin: round;
}
.ga_4{
fill: none;
stroke: #000;
stroke-width: 1.003;
stroke-linecap: round;
stroke-linejoin: round;
}
]]></style>
</defs>
<image clip-path="url(#c0_4)" preserveAspectRatio="none" x="-4" y="1212" width="952" height="131" xlink:href="img/1.jpg"/>
<path d="M554 165.7H522.3m-358 98.8h9.1m370 0h18.3m-175 82H353.5M146.1 381.7H109.6m482.2 0H559.7m-418 35H109.6M488.8 546h-33M212.1 581H176.7m119.2 0H261.6m91.7 0h-33m114.2 0H402.6m119.2 0H488.6m121.5 0H575.8M174 616H139.9m-4.8 43.4l2.2 -1.2m0 0l5.9 11.9m0 0l3.7 -21.5m0 0h22.9m64.9 10.8l2.2 -1.2m0 0l5.8 11.9m0 0l3.7 -21.5m0 0h22.9m74.1 10.8l2.2 -1.2m0 0l5.8 11.9m0 0l3.7 -21.5m0 0h13.8m74.9 10.8l2.2 -1.2m0 0l5.9 11.9m0 0l3.7 -21.5m0 0h13.7m111.5 80.7H550.7m84.2 0h-31M331.3 762.7H299m87.3 0H354m112.8 0H436.5m186.7 0h-31M134.9 835.1h18.4m63.6 0h18.3M496.5 917H464.6m88.3 0H520.7m22.2 35.2H508.8" class="g0_4"/>
<image preserveAspectRatio="none" x="24" y="69" width="822" height="39" xlink:href="img/2.png"/>
<path d="M632.7 273H826.3" class="g1_4"/>
<path d="M824.4 270.3l9.8 2.7l-9.8 2.7Z" class="g2_4"/>
<path d="M737.3 310.8V177.1" class="g1_4"/>
<path d="M735 179l2.3 -9.9l2.6 9.9Z" class="g2_4"/>
<path d="M818.4 211.1L652.8 273H798.1l20.3 -61.9Z" class="g3_4"/>
<path d="M681 197.8l148.3 51.1" class="g1_4"/>
<path d="M759.7 362.9l79.5 96.2H646.1L759.7 362.9ZM719.3 431v3.1l.6 2.7l.6 2.8l.9 2.7l1.2 2.4l1.5 2.5l1.6 2.1l1.8 2.1l2.1 1.9l2.1 1.5l2.5 1.6l2.4 1.2l2.7 .9l2.8 .6l2.7 .6h6.1l2.7 -.6l2.8 -.6l2.7 -.9l2.4 -1.2l2.5 -1.6l2.1 -1.5l2.1 -1.9l1.8 -2.1l1.6 -2.1l1.5 -2.5l1.2 -2.4l.9 -2.7l.6 -2.8l.6 -2.7v-5.8l-.6 -3.1l-.6 -2.7l-.9 -2.8l-1.2 -2.4l-1.5 -2.4L770 412.7l-1.8 -1.9l-2.1 -2.1L764 407.2l-2.5 -1.6l-2.4 -1.2l-2.7 -.9l-2.8 -.6l-2.7 -.6h-6.1l-2.7 .6l-2.8 .6l-2.7 .9l-2.4 1.2l-2.5 1.6l-2.1 1.5l-2.1 2.1l-1.8 1.9l-1.6 2.2l-1.5 2.4l-1.2 2.4l-.9 2.8l-.6 2.7l-.6 3.1V431Z" class="g4_4"/>
<path d="M747.3 432.5l-.3 -.3l-.6 -.6v-1.2l.6 -.6l.3 -.3l.9 -.3l.6 .3l.6 .3l.3 .6v1.2l-.3 .6l-.6 .3l-.6 .3Z" class="g2_4"/>
<path d="M724.4 414.9l-.6 -.4l-.3 -.6v-1.2l.3 -.7l.6 -.3l.7 -.3l.9 .3l.3 .3l.6 .7v1.2l-.6 .6l-.3 .4l-.9 .3Z" class="g2_4"/>
<path d="M775.5 425.8h-.6l-.6 -.3l-.3 -.6l-.3 -.6l.3 -.6l.3 -.6l.6 -.3l.6 -.3l.6 .3l.6 .3l.3 .6v1.2l-.3 .6l-.6 .3Z" class="g2_4"/>
<path d="M742.1 460.7h-.7l-.6 -.4l-.3 -.6l-.3 -.6l.3 -.9l.3 -.3l.6 -.6h1.3l.6 .6l.3 .3l.3 .9l-.3 .6l-.3 .6l-.6 .4Z" class="g2_4"/>
<path d="M765.8 386.7v0l.9 .3l2.4 -.3l1.5 -.3l1.9 -.6l1.8 -.9l1.8 -1.2m-41.6 .6v0l.3 .6l1.2 1.5l1.2 1l1.2 .9l1.2 .9l1.8 .6m90 59.2v0l-.6 .3l-1.3 1.8l-.6 1.3l-.3 1.8l-.3 2.2l.3 2.7M658 449v0l.6 .3l1.2 1.8l.3 1.3l.6 1.8v2.2l-.3 2.7" class="g5_4"/>
<path d="M726.3 412l33.4 -49.1m15.2 58.4L759.7 362.9" class="g6_4"/>
<path d="M780.4 661h4.8v-4.8h-4.8V661Z" class="g7_4"/>
<path d="M785.2 627.2V661M768 661L818.9 560.6M701 661L818.9 560.6L835.1 661H701" class="g8_4"/>
<path d="M744.9 813.4h71.9m-85.5 44.8L765.1 743.6l66.1 89.3l-99.9 25.3" class="g9_4"/>
<path d="M776.4 814.9l-.6 -.3l-.3 -.6v-1.2l.3 -.5l.6 -.3l.5 -.3l.6 .3l.6 .3l.6 .5V814l-.6 .6l-.6 .3l-.6 .3Z" class="g2_4"/>
<path d="M719.5 963.7l55.8 -27.3l8.7 52.2L719.5 963.7ZM704.4 928l39.1 94l94.7 -77.8L704.4 928Z" class="ga_4"/>
</svg>