<?xml version="1.0" encoding="UTF-8" standalone="no"?>
<!DOCTYPE svg PUBLIC "-//W3C//DTD SVG 1.1//EN"
"http://www.w3.org/Graphics/SVG/1.1/DTD/svg11.dtd">
<svg viewBox="0 0 909 1286" version="1.1" xmlns="http://www.w3.org/2000/svg" xmlns:xlink="http://www.w3.org/1999/xlink">
<defs>
<clipPath id="c0_2"><path d="M-.2 1286.6v-75.1h910v75.1Z"/></clipPath>
<style type="text/css"><![CDATA[
.g0_2{
fill: #000;
}
]]></style>
</defs>
<image clip-path="url(#c0_2)" preserveAspectRatio="none" x="-2" y="1212" width="930" height="127" xlink:href="img/1.jpg"/>
<path d="M110.6 91.1h36.6v-.9H110.6v.9Z" class="g0_2"/>
<path d="M111.6 329.3h36.6v-1H111.6v1Z" class="g0_2"/>
<path d="M802.6 329.3h55v-1h-55v1Z" class="g0_2"/>
<path d="M802.6 331.1h55v-.9h-55v.9Z" class="g0_2"/>
<path d="M276.6 585.3h36.6v-.9H276.6v.9Z" class="g0_2"/>
<path d="M276.6 587.1h36.6v-.9H276.6v.9Z" class="g0_2"/>
<path d="M110.6 698.6h36.6v-.9H110.6v.9Z" class="g0_2"/>
<path d="M110.4 931.1h36.7v-.9H110.4v.9Z" class="g0_2"/>
<image preserveAspectRatio="none" x="43" y="92" width="57" height="56" xlink:href="img/2.jpg"/>
<image preserveAspectRatio="none" x="43" y="207" width="57" height="57" xlink:href="img/3.jpg"/>
<image preserveAspectRatio="none" x="43" y="329" width="57" height="56" xlink:href="img/4.jpg"/>
<image preserveAspectRatio="none" x="43" y="445" width="57" height="56" xlink:href="img/5.jpg"/>
<image preserveAspectRatio="none" x="43" y="584" width="57" height="57" xlink:href="img/6.jpg"/>
<image preserveAspectRatio="none" x="43" y="699" width="57" height="56" xlink:href="img/7.jpg"/>
<image preserveAspectRatio="none" x="43" y="818" width="57" height="56" xlink:href="img/8.jpg"/>
<image preserveAspectRatio="none" x="43" y="930" width="57" height="56" xlink:href="img/9.jpg"/>
<image preserveAspectRatio="none" x="43" y="1101" width="57" height="56" xlink:href="img/10.jpg"/>
</svg>