<?xml version="1.0" encoding="UTF-8" standalone="no"?>
<!DOCTYPE svg PUBLIC "-//W3C//DTD SVG 1.1//EN"
"http://www.w3.org/Graphics/SVG/1.1/DTD/svg11.dtd">
<svg viewBox="0 0 909 1286" version="1.1" xmlns="http://www.w3.org/2000/svg" xmlns:xlink="http://www.w3.org/1999/xlink">
<defs>
<clipPath id="c0_3"><path d="M-.2 1286.6v-75.1h910v75.1Z"/></clipPath>
<style type="text/css"><![CDATA[
.g0_3{
fill: #000;
}
]]></style>
</defs>
<image clip-path="url(#c0_3)" preserveAspectRatio="none" x="-2" y="1212" width="930" height="127" xlink:href="img/1.jpg"/>
<path d="M110.6 181.5h36.6v-.9H110.6v.9Z" class="g0_3"/>
<path d="M291.6 229.3h36.7v-1H291.6v1Z" class="g0_3"/>
<path d="M380.2 394.7h1.5v-1.5h-1.5v1.5Z" class="g0_3"/>
<path d="M380.2 394.6h1.5v-1.4h-1.5v1.4Z" class="g0_3"/>
<path d="M381.7 394.6h63.9v-1.4H381.7v1.4Z" class="g0_3"/>
<path d="M445.6 394.7h.7v-.1h-.7v.1Z" class="g0_3"/>
<path d="M445.6 394.6h1.5v-1.4h-1.5v1.4Z" class="g0_3"/>
<path d="M447.1 394.6H640.5v-1.4H447.1v1.4Z" class="g0_3"/>
<path d="M640.5 394.7h.7v-.1h-.7v.1Z" class="g0_3"/>
<path d="M640.5 394.6h1.4v-1.4h-1.4v1.4Z" class="g0_3"/>
<path d="M641.9 394.6h193v-1.4h-193v1.4Z" class="g0_3"/>
<path d="M834.9 394.7h1.5v-1.5h-1.5v1.5Z" class="g0_3"/>
<path d="M834.9 394.6h1.5v-1.4h-1.5v1.4Z" class="g0_3"/>
<path d="M380.2 422.2h1.5V394.7h-1.5v27.5Z" class="g0_3"/>
<path d="M445.6 422.2h.7V394.7h-.7v27.5Z" class="g0_3"/>
<path d="M640.5 422.2h.7V394.7h-.7v27.5Z" class="g0_3"/>
<path d="M834.9 422.2h1.5V394.7h-1.5v27.5Z" class="g0_3"/>
<path d="M380.2 422.9h1.5v-.7h-1.5v.7Z" class="g0_3"/>
<path d="M381.7 422.9h63.9v-.7H381.7v.7Z" class="g0_3"/>
<path d="M445.6 422.9h.7v-.7h-.7v.7Z" class="g0_3"/>
<path d="M446.3 422.9H640.5v-.7H446.3v.7Z" class="g0_3"/>
<path d="M640.5 422.9h.7v-.7h-.7v.7Z" class="g0_3"/>
<path d="M641.2 422.9H834.9v-.7H641.2v.7Z" class="g0_3"/>
<path d="M834.9 422.9h1.5v-.7h-1.5v.7Z" class="g0_3"/>
<path d="M380.2 450.4h1.5V422.9h-1.5v27.5Z" class="g0_3"/>
<path d="M445.6 450.4h.7V422.9h-.7v27.5Z" class="g0_3"/>
<path d="M640.5 450.4h.7V422.9h-.7v27.5Z" class="g0_3"/>
<path d="M834.9 450.4h1.5V422.9h-1.5v27.5Z" class="g0_3"/>
<path d="M380.2 451.2h1.5v-.8h-1.5v.8Z" class="g0_3"/>
<path d="M381.7 451.2h63.9v-.8H381.7v.8Z" class="g0_3"/>
<path d="M445.6 451.2h.7v-.8h-.7v.8Z" class="g0_3"/>
<path d="M446.3 451.2H640.5v-.8H446.3v.8Z" class="g0_3"/>
<path d="M640.5 451.2h.7v-.8h-.7v.8Z" class="g0_3"/>
<path d="M641.2 451.2H834.9v-.8H641.2v.8Z" class="g0_3"/>
<path d="M834.9 451.2h1.5v-.8h-1.5v.8Z" class="g0_3"/>
<path d="M380.2 478.8h1.5V451.2h-1.5v27.6Z" class="g0_3"/>
<path d="M445.6 478.8h.7V451.2h-.7v27.6Z" class="g0_3"/>
<path d="M640.5 478.8h.7V451.2h-.7v27.6Z" class="g0_3"/>
<path d="M834.9 478.8h1.5V451.2h-1.5v27.6Z" class="g0_3"/>
<path d="M380.2 479.5h1.5v-.7h-1.5v.7Z" class="g0_3"/>
<path d="M381.7 479.5h63.9v-.7H381.7v.7Z" class="g0_3"/>
<path d="M445.6 479.5h.7v-.7h-.7v.7Z" class="g0_3"/>
<path d="M446.3 479.5H640.5v-.7H446.3v.7Z" class="g0_3"/>
<path d="M640.5 479.5h.7v-.7h-.7v.7Z" class="g0_3"/>
<path d="M641.2 479.5H834.9v-.7H641.2v.7Z" class="g0_3"/>
<path d="M834.9 479.5h1.5v-.7h-1.5v.7Z" class="g0_3"/>
<path d="M380.2 507h1.5V479.5h-1.5V507Z" class="g0_3"/>
<path d="M380.2 508.5h1.5V507h-1.5v1.5Z" class="g0_3"/>
<path d="M380.2 508.5h1.5V507h-1.5v1.5Z" class="g0_3"/>
<path d="M381.7 508.5h63.9V507H381.7v1.5Z" class="g0_3"/>
<path d="M445.6 507h.7V479.5h-.7V507Z" class="g0_3"/>
<path d="M445.6 508.5h1.5V507h-1.5v1.5Z" class="g0_3"/>
<path d="M447.1 508.5H640.5V507H447.1v1.5Z" class="g0_3"/>
<path d="M640.5 507h.7V479.5h-.7V507Z" class="g0_3"/>
<path d="M640.5 508.5h1.4V507h-1.4v1.5Z" class="g0_3"/>
<path d="M641.9 508.5h193V507h-193v1.5Z" class="g0_3"/>
<path d="M834.9 507h1.5V479.5h-1.5V507Z" class="g0_3"/>
<path d="M834.9 508.5h1.5V507h-1.5v1.5Z" class="g0_3"/>
<path d="M834.9 508.5h1.5V507h-1.5v1.5Z" class="g0_3"/>
<path d="M52 393.2h.7v-.8H52v.8Z" class="g0_3"/>
<path d="M52 393.2h.7v-.8H52v.8Z" class="g0_3"/>
<path d="M52.7 393.2H844.3v-.8H52.7v.8Z" class="g0_3"/>
<path d="M844.3 393.2h.8v-.8h-.8v.8Z" class="g0_3"/>
<path d="M844.3 393.2h.8v-.8h-.8v.8Z" class="g0_3"/>
<path d="M52 515.5h.7V393.2H52V515.5Z" class="g0_3"/>
<path d="M52 516.3h.7v-.8H52v.8Z" class="g0_3"/>
<path d="M52 516.3h.7v-.8H52v.8Z" class="g0_3"/>
<path d="M52.7 516.3H844.3v-.8H52.7v.8Z" class="g0_3"/>
<path d="M844.3 515.5h.8V393.2h-.8V515.5Z" class="g0_3"/>
<path d="M844.3 516.3h.8v-.8h-.8v.8Z" class="g0_3"/>
<path d="M844.3 516.3h.8v-.8h-.8v.8Z" class="g0_3"/>
<path d="M346.6 868.6h36.7v-.9H346.6v.9Z" class="g0_3"/>
<path d="M377.2 892.5h18.3v-1H377.2v1Z" class="g0_3"/>
<path d="M364.9 916.3h18.4v-.9H364.9v.9Z" class="g0_3"/>
<path d="M218.3 964h18.3v-1H218.3v1Z" class="g0_3"/>
<path d="M199.9 987.9h36.7V987H199.9v.9Z" class="g0_3"/>
<path d="M271.2 1011.7h36.7v-.9H271.2v.9Z" class="g0_3"/>
<path d="M535.3 1011.7H572v-.9H535.3v.9Z" class="g0_3"/>
<path d="M288.6 1035.6h36.6v-1H288.6v1Z" class="g0_3"/>
<path d="M518 1035.6h36.7v-1H518v1Z" class="g0_3"/>
<image preserveAspectRatio="none" x="24" y="69" width="822" height="39" xlink:href="img/2.png"/>
<path d="M656.8 163.6h1.5v-1.5h-1.5v1.5Z" class="g0_3"/>
<path d="M656.8 163.5h1.5v-1.4h-1.5v1.4Z" class="g0_3"/>
<path d="M658.3 163.5H851.7v-1.4H658.3v1.4Z" class="g0_3"/>
<path d="M851.7 163.6h1.4v-1.5h-1.4v1.5Z" class="g0_3"/>
<path d="M851.7 163.5h1.4v-1.4h-1.4v1.4Z" class="g0_3"/>
<path d="M656.8 270.9h1.5V163.6h-1.5V270.9Z" class="g0_3"/>
<path d="M656.8 272.3h1.5v-1.4h-1.5v1.4Z" class="g0_3"/>
<path d="M656.8 272.3h1.5v-1.4h-1.5v1.4Z" class="g0_3"/>
<path d="M658.3 272.3H851.7v-1.4H658.3v1.4Z" class="g0_3"/>
<path d="M851.7 270.9h1.4V163.6h-1.4V270.9Z" class="g0_3"/>
<path d="M851.7 272.3h1.4v-1.4h-1.4v1.4Z" class="g0_3"/>
<path d="M851.7 272.3h1.4v-1.4h-1.4v1.4Z" class="g0_3"/>
<path d="M575.9 551.6h1.4v-1.5h-1.4v1.5Z" class="g0_3"/>
<path d="M575.9 551.6h1.4v-1.5h-1.4v1.5Z" class="g0_3"/>
<path d="M577.3 551.6H788.5v-1.5H577.3v1.5Z" class="g0_3"/>
<path d="M788.5 551.6h.7h-.7Z" class="g0_3"/>
<path d="M788.5 551.6H790v-1.5h-1.5v1.5Z" class="g0_3"/>
<path d="M790 551.6h45.8v-1.5H790v1.5Z" class="g0_3"/>
<path d="M835.8 551.6h1.5v-1.5h-1.5v1.5Z" class="g0_3"/>
<path d="M835.8 551.6h1.5v-1.5h-1.5v1.5Z" class="g0_3"/>
<path d="M575.9 569.5h1.4V551.6h-1.4v17.9Z" class="g0_3"/>
<path d="M788.5 569.5h.7V551.6h-.7v17.9Z" class="g0_3"/>
<path d="M835.8 569.5h1.5V551.6h-1.5v17.9Z" class="g0_3"/>
<path d="M575.9 570.3h1.4v-.8h-1.4v.8Z" class="g0_3"/>
<path d="M577.3 570.3H788.5v-.8H577.3v.8Z" class="g0_3"/>
<path d="M788.5 570.3h.7v-.8h-.7v.8Z" class="g0_3"/>
<path d="M789.2 570.3h46.6v-.8H789.2v.8Z" class="g0_3"/>
<path d="M835.8 570.3h1.5v-.8h-1.5v.8Z" class="g0_3"/>
<path d="M575.9 588.2h1.4V570.3h-1.4v17.9Z" class="g0_3"/>
<path d="M788.5 588.2h.7V570.3h-.7v17.9Z" class="g0_3"/>
<path d="M835.8 588.2h1.5V570.3h-1.5v17.9Z" class="g0_3"/>
<path d="M575.9 589h1.4v-.8h-1.4v.8Z" class="g0_3"/>
<path d="M577.3 589H788.5v-.8H577.3v.8Z" class="g0_3"/>
<path d="M788.5 589h.7v-.8h-.7v.8Z" class="g0_3"/>
<path d="M789.2 589h46.6v-.8H789.2v.8Z" class="g0_3"/>
<path d="M835.8 589h1.5v-.8h-1.5v.8Z" class="g0_3"/>
<path d="M575.9 606.9h1.4V589h-1.4v17.9Z" class="g0_3"/>
<path d="M788.5 606.9h.7V589h-.7v17.9Z" class="g0_3"/>
<path d="M835.8 606.9h1.5V589h-1.5v17.9Z" class="g0_3"/>
<path d="M575.9 607.7h1.4v-.8h-1.4v.8Z" class="g0_3"/>
<path d="M577.3 607.7H788.5v-.8H577.3v.8Z" class="g0_3"/>
<path d="M788.5 607.7h.7v-.8h-.7v.8Z" class="g0_3"/>
<path d="M789.2 607.7h46.6v-.8H789.2v.8Z" class="g0_3"/>
<path d="M835.8 607.7h1.5v-.8h-1.5v.8Z" class="g0_3"/>
<path d="M575.9 625.5h1.4V607.7h-1.4v17.8Z" class="g0_3"/>
<path d="M788.5 625.5h.7V607.7h-.7v17.8Z" class="g0_3"/>
<path d="M835.8 625.5h1.5V607.7h-1.5v17.8Z" class="g0_3"/>
<path d="M575.9 626.3h1.4v-.8h-1.4v.8Z" class="g0_3"/>
<path d="M577.3 626.3H788.5v-.8H577.3v.8Z" class="g0_3"/>
<path d="M788.5 626.3h.7v-.8h-.7v.8Z" class="g0_3"/>
<path d="M789.2 626.3h46.6v-.8H789.2v.8Z" class="g0_3"/>
<path d="M835.8 626.3h1.5v-.8h-1.5v.8Z" class="g0_3"/>
<path d="M575.9 644.2h1.4V626.3h-1.4v17.9Z" class="g0_3"/>
<path d="M788.5 644.2h.7V626.3h-.7v17.9Z" class="g0_3"/>
<path d="M835.8 644.2h1.5V626.3h-1.5v17.9Z" class="g0_3"/>
<path d="M575.9 645h1.4v-.8h-1.4v.8Z" class="g0_3"/>
<path d="M577.3 645H788.5v-.8H577.3v.8Z" class="g0_3"/>
<path d="M788.5 645h.7v-.8h-.7v.8Z" class="g0_3"/>
<path d="M789.2 645h46.6v-.8H789.2v.8Z" class="g0_3"/>
<path d="M835.8 645h1.5v-.8h-1.5v.8Z" class="g0_3"/>
<path d="M575.9 662.9h1.4V645h-1.4v17.9Z" class="g0_3"/>
<path d="M575.9 664.4h1.4v-1.5h-1.4v1.5Z" class="g0_3"/>
<path d="M575.9 664.4h1.4v-1.5h-1.4v1.5Z" class="g0_3"/>
<path d="M577.3 664.4H788.5v-1.5H577.3v1.5Z" class="g0_3"/>
<path d="M788.5 662.9h.7V645h-.7v17.9Z" class="g0_3"/>
<path d="M788.5 664.4H790v-1.5h-1.5v1.5Z" class="g0_3"/>
<path d="M790 664.4h45.8v-1.5H790v1.5Z" class="g0_3"/>
<path d="M835.8 662.9h1.5V645h-1.5v17.9Z" class="g0_3"/>
<path d="M835.8 664.4h1.5v-1.5h-1.5v1.5Z" class="g0_3"/>
<path d="M835.8 664.4h1.5v-1.5h-1.5v1.5Z" class="g0_3"/>
<path d="M497.7 790.6h1.5v-1.5h-1.5v1.5Z" class="g0_3"/>
<path d="M497.7 790.5h1.5v-1.4h-1.5v1.4Z" class="g0_3"/>
<path d="M499.2 790.5H662.7v-1.4H499.2v1.4Z" class="g0_3"/>
<path d="M662.7 790.6h.7v-.1h-.7v.1Z" class="g0_3"/>
<path d="M662.7 790.5h1.4v-1.4h-1.4v1.4Z" class="g0_3"/>
<path d="M664.1 790.5H844.2v-1.4H664.1v1.4Z" class="g0_3"/>
<path d="M844.2 790.6h1.4v-1.5h-1.4v1.5Z" class="g0_3"/>
<path d="M844.2 790.5h1.4v-1.4h-1.4v1.4Z" class="g0_3"/>
<path d="M497.7 810.5h1.5V790.6h-1.5v19.9Z" class="g0_3"/>
<path d="M662.7 810.5h.7V790.6h-.7v19.9Z" class="g0_3"/>
<path d="M844.2 810.5h1.4V790.6h-1.4v19.9Z" class="g0_3"/>
<path d="M497.7 811.2h1.5v-.7h-1.5v.7Z" class="g0_3"/>
<path d="M499.2 811.2H662.7v-.7H499.2v.7Z" class="g0_3"/>
<path d="M662.7 811.2h.7v-.7h-.7v.7Z" class="g0_3"/>
<path d="M663.4 811.2H844.2v-.7H663.4v.7Z" class="g0_3"/>
<path d="M844.2 811.2h1.4v-.7h-1.4v.7Z" class="g0_3"/>
<path d="M497.7 831.1h1.5V811.3h-1.5v19.8Z" class="g0_3"/>
<path d="M662.7 831.1h.7V811.3h-.7v19.8Z" class="g0_3"/>
<path d="M844.2 831.1h1.4V811.3h-1.4v19.8Z" class="g0_3"/>
<path d="M497.7 831.9h1.5v-.8h-1.5v.8Z" class="g0_3"/>
<path d="M499.2 831.9H662.7v-.8H499.2v.8Z" class="g0_3"/>
<path d="M662.7 831.9h.7v-.8h-.7v.8Z" class="g0_3"/>
<path d="M663.4 831.9H844.2v-.8H663.4v.8Z" class="g0_3"/>
<path d="M844.2 831.9h1.4v-.8h-1.4v.8Z" class="g0_3"/>
<path d="M497.7 871.7h1.5V831.9h-1.5v39.8Z" class="g0_3"/>
<path d="M662.7 871.7h.7V831.9h-.7v39.8Z" class="g0_3"/>
<path d="M844.2 871.7h1.4V831.9h-1.4v39.8Z" class="g0_3"/>
<path d="M497.7 872.4h1.5v-.7h-1.5v.7Z" class="g0_3"/>
<path d="M499.2 872.4H662.7v-.7H499.2v.7Z" class="g0_3"/>
<path d="M662.7 872.4h.7v-.7h-.7v.7Z" class="g0_3"/>
<path d="M663.4 872.4H844.2v-.7H663.4v.7Z" class="g0_3"/>
<path d="M844.2 872.4h1.4v-.7h-1.4v.7Z" class="g0_3"/>
<path d="M497.7 892.3h1.5V872.4h-1.5v19.9Z" class="g0_3"/>
<path d="M497.7 893.7h1.5v-1.4h-1.5v1.4Z" class="g0_3"/>
<path d="M497.7 893.7h1.5v-1.4h-1.5v1.4Z" class="g0_3"/>
<path d="M499.2 893.7H662.7v-1.4H499.2v1.4Z" class="g0_3"/>
<path d="M662.7 892.3h.7V872.4h-.7v19.9Z" class="g0_3"/>
<path d="M662.7 893.7h1.4v-1.4h-1.4v1.4Z" class="g0_3"/>
<path d="M664.1 893.7H844.2v-1.4H664.1v1.4Z" class="g0_3"/>
<path d="M844.2 892.3h1.4V872.4h-1.4v19.9Z" class="g0_3"/>
<path d="M844.2 893.7h1.4v-1.4h-1.4v1.4Z" class="g0_3"/>
<path d="M844.2 893.7h1.4v-1.4h-1.4v1.4Z" class="g0_3"/>
<path d="M497.7 915.3h1.5v-1.6h-1.5v1.6Z" class="g0_3"/>
<path d="M497.7 915.2h1.5v-1.5h-1.5v1.5Z" class="g0_3"/>
<path d="M499.2 915.2h68.2v-1.5H499.2v1.5Z" class="g0_3"/>
<path d="M567.4 915.3h.8v-.1h-.8v.1Z" class="g0_3"/>
<path d="M567.4 915.2h1.5v-1.5h-1.5v1.5Z" class="g0_3"/>
<path d="M568.9 915.2H671.4v-1.5H568.9v1.5Z" class="g0_3"/>
<path d="M671.4 915.3h.7v-.1h-.7v.1Z" class="g0_3"/>
<path d="M671.4 915.2h1.4v-1.5h-1.4v1.5Z" class="g0_3"/>
<path d="M672.8 915.2H844.2v-1.5H672.8v1.5Z" class="g0_3"/>
<path d="M844.2 915.3h1.5v-1.6h-1.5v1.6Z" class="g0_3"/>
<path d="M844.2 915.2h1.5v-1.5h-1.5v1.5Z" class="g0_3"/>
<path d="M497.7 935.1h1.5V915.3h-1.5v19.8Z" class="g0_3"/>
<path d="M567.4 935.1h.8V915.3h-.8v19.8Z" class="g0_3"/>
<path d="M671.4 935.1h.7V915.3h-.7v19.8Z" class="g0_3"/>
<path d="M844.2 935.1h1.5V915.3h-1.5v19.8Z" class="g0_3"/>
<path d="M497.7 935.8h1.5v-.7h-1.5v.7Z" class="g0_3"/>
<path d="M499.2 935.8h68.2v-.7H499.2v.7Z" class="g0_3"/>
<path d="M567.4 935.8h.8v-.7h-.8v.7Z" class="g0_3"/>
<path d="M568.2 935.8H671.4v-.7H568.2v.7Z" class="g0_3"/>
<path d="M671.4 935.8h.7v-.7h-.7v.7Z" class="g0_3"/>
<path d="M672.1 935.8H844.3v-.7H672.1v.7Z" class="g0_3"/>
<path d="M844.2 935.8h1.5v-.7h-1.5v.7Z" class="g0_3"/>
<path d="M497.7 955.7h1.5V935.8h-1.5v19.9Z" class="g0_3"/>
<path d="M567.4 955.7h.8V935.8h-.8v19.9Z" class="g0_3"/>
<path d="M671.4 955.7h.7V935.8h-.7v19.9Z" class="g0_3"/>
<path d="M844.2 955.7h1.5V935.8h-1.5v19.9Z" class="g0_3"/>
<path d="M497.7 956.4h1.5v-.7h-1.5v.7Z" class="g0_3"/>
<path d="M499.2 956.4h68.2v-.7H499.2v.7Z" class="g0_3"/>
<path d="M567.4 956.4h.8v-.7h-.8v.7Z" class="g0_3"/>
<path d="M568.2 956.4H671.4v-.7H568.2v.7Z" class="g0_3"/>
<path d="M671.4 956.4h.7v-.7h-.7v.7Z" class="g0_3"/>
<path d="M672.1 956.4H844.3v-.7H672.1v.7Z" class="g0_3"/>
<path d="M844.2 956.4h1.5v-.7h-1.5v.7Z" class="g0_3"/>
<path d="M497.7 976.3h1.5V956.4h-1.5v19.9Z" class="g0_3"/>
<path d="M497.7 977.8h1.5v-1.5h-1.5v1.5Z" class="g0_3"/>
<path d="M497.7 977.8h1.5v-1.5h-1.5v1.5Z" class="g0_3"/>
<path d="M499.2 977.8h68.2v-1.5H499.2v1.5Z" class="g0_3"/>
<path d="M567.4 976.3h.8V956.4h-.8v19.9Z" class="g0_3"/>
<path d="M567.4 977.8h1.5v-1.5h-1.5v1.5Z" class="g0_3"/>
<path d="M568.9 977.8H671.4v-1.5H568.9v1.5Z" class="g0_3"/>
<path d="M671.4 976.3h.7V956.4h-.7v19.9Z" class="g0_3"/>
<path d="M671.4 977.8h1.4v-1.5h-1.4v1.5Z" class="g0_3"/>
<path d="M672.8 977.8H844.2v-1.5H672.8v1.5Z" class="g0_3"/>
<path d="M844.2 976.3h1.5V956.4h-1.5v19.9Z" class="g0_3"/>
<path d="M844.2 977.8h1.5v-1.5h-1.5v1.5Z" class="g0_3"/>
<path d="M844.2 977.8h1.5v-1.5h-1.5v1.5Z" class="g0_3"/>
</svg>