<?xml version="1.0" encoding="UTF-8" standalone="no"?>
<!DOCTYPE svg PUBLIC "-//W3C//DTD SVG 1.1//EN"
"http://www.w3.org/Graphics/SVG/1.1/DTD/svg11.dtd">
<svg viewBox="0 0 909 1286" version="1.1" xmlns="http://www.w3.org/2000/svg" xmlns:xlink="http://www.w3.org/1999/xlink">
<defs>
<clipPath id="c0_3"><path d="M-.2 1286.6v-74.9h910v74.9Z"/></clipPath>
<clipPath id="c1_3"><path d="M614.1 179.2V71.1H853.9V179.2Z"/></clipPath>
<clipPath id="c2_3"><path d="M771.1 340.5V240.1H857V340.5Z"/></clipPath>
<clipPath id="c3_3"><path d="M725.1 734.1V624.3h87.2V734.1Z"/></clipPath>
<clipPath id="c4_3"><path d="M699.8 872.3V783h140v89.3Z"/></clipPath>
<clipPath id="c5_3"><path d="M728.7 1038.4V934.6H857v103.8Z"/></clipPath>
<clipPath id="c6_3"><path d="M721.4 1183.3v-108H857v108Z"/></clipPath>
<style type="text/css"><![CDATA[
.g0_3{
fill: none;
stroke: #000;
stroke-width: 0.907;
stroke-linecap: square;
stroke-miterlimit: 10;
}
.g1_3{
fill: none;
stroke: #000;
stroke-width: 0.909;
stroke-linecap: square;
stroke-miterlimit: 10;
}
.g2_3{
fill: none;
stroke: #000;
stroke-width: 0.904;
stroke-linecap: square;
stroke-miterlimit: 10;
}
.g3_3{
fill: #000;
}
]]></style>
</defs>
<image clip-path="url(#c0_3)" preserveAspectRatio="none" x="-4" y="1212" width="952" height="131" xlink:href="img/1.jpg"/>
<path d="M625.4 240.4h24.4m-521.1 28h25.2m384.4 51.5h25.2" class="g0_3"/>
<path d="M183.9 347.7h24.4" class="g1_3"/>
<path d="M556.7 375.7h25.2" class="g0_3"/>
<path d="M183.9 403.2h24.4" class="g1_3"/>
<path d="M417.1 658.6h22.3" class="g2_3"/>
<path d="M456.4 658.8h23.2" class="g1_3"/>
<path d="M505.3 658.6h24.1m16.8 .2h25.2m-199 123.1h24.4" class="g0_3"/>
<path d="M110.6 809.8h23.2m135.7 0h24.4m147.8 0H465" class="g1_3"/>
<path d="M518.2 809.7h24" class="g0_3"/>
<path d="M162.4 1117.8h36.7v-.9H162.4v.9Z" class="g3_3"/>
<path d="M162.4 1119.6h36.7v-.9H162.4v.9Z" class="g3_3"/>
<image clip-path="url(#c1_3)" preserveAspectRatio="none" x="614" y="71" width="240" height="108" xlink:href="img/2.jpg"/>
<image preserveAspectRatio="none" x="43" y="89" width="57" height="56" xlink:href="img/3.jpg"/>
<image preserveAspectRatio="none" x="597" y="416" width="15" height="22" xlink:href="img/4.jpg"/>
<image preserveAspectRatio="none" x="683" y="406" width="130" height="122" xlink:href="img/5.jpg"/>
<image preserveAspectRatio="none" x="642" y="461" width="26" height="13" xlink:href="img/6.jpg"/>
<image preserveAspectRatio="none" x="510" y="400" width="114" height="135" xlink:href="img/7.jpg"/>
<image preserveAspectRatio="none" x="326" y="427" width="130" height="83" xlink:href="img/8.jpg"/>
<image preserveAspectRatio="none" x="161" y="427" width="94" height="83" xlink:href="img/9.jpg"/>
<image preserveAspectRatio="none" x="276" y="461" width="26" height="13" xlink:href="img/10.jpg"/>
<image clip-path="url(#c2_3)" preserveAspectRatio="none" x="771" y="240" width="86" height="100" xlink:href="img/11.jpg"/>
<image preserveAspectRatio="none" x="43" y="261" width="57" height="56" xlink:href="img/12.jpg"/>
<image preserveAspectRatio="none" x="624" y="627" width="87" height="109" xlink:href="img/13.jpg"/>
<image clip-path="url(#c3_3)" preserveAspectRatio="none" x="725" y="625" width="87" height="109" xlink:href="img/14.jpg"/>
<image preserveAspectRatio="none" x="43" y="649" width="57" height="57" xlink:href="img/15.jpg"/>
<image clip-path="url(#c4_3)" preserveAspectRatio="none" x="700" y="783" width="140" height="89" xlink:href="img/16.jpg"/>
<image preserveAspectRatio="none" x="43" y="802" width="57" height="56" xlink:href="img/17.jpg"/>
<image clip-path="url(#c5_3)" preserveAspectRatio="none" x="729" y="935" width="128" height="103" xlink:href="img/18.jpg"/>
<image preserveAspectRatio="none" x="43" y="946" width="57" height="57" xlink:href="img/19.jpg"/>
<image clip-path="url(#c6_3)" preserveAspectRatio="none" x="722" y="1076" width="135" height="107" xlink:href="img/20.jpg"/>
<image preserveAspectRatio="none" x="43" y="1093" width="57" height="56" xlink:href="img/21.jpg"/>
</svg>