<?xml version="1.0" encoding="UTF-8" standalone="no"?>
<!DOCTYPE svg PUBLIC "-//W3C//DTD SVG 1.1//EN"
"http://www.w3.org/Graphics/SVG/1.1/DTD/svg11.dtd">
<svg viewBox="0 0 909 1286" version="1.1" xmlns="http://www.w3.org/2000/svg" xmlns:xlink="http://www.w3.org/1999/xlink">
<defs>
<clipPath id="c0_7"><path d="M-.2 1286.6v-74.9h910v74.9Z"/></clipPath>
<clipPath id="c1_7"><path d="M723.9 176.5V77.1H846v99.4Z"/></clipPath>
<clipPath id="c2_7"><path d="M639.5 794.8V694.3H839.2V794.8Z"/></clipPath>
<clipPath id="c3_7"><path d="M618.5 1079.1v-70.9H851.8v70.9Z"/></clipPath>
<style type="text/css"><![CDATA[
.g0_7{
fill: none;
stroke: #000;
stroke-width: 0.907;
stroke-linecap: square;
stroke-miterlimit: 10;
}
.g1_7{
fill: none;
stroke: #000;
stroke-width: 0.909;
stroke-linecap: square;
stroke-miterlimit: 10;
}
.g2_7{
fill: none;
stroke: #000;
stroke-width: 0.763;
stroke-linecap: square;
stroke-miterlimit: 10;
}
.g3_7{
fill: #000;
}
.g4_7{
fill: none;
stroke: #000;
stroke-width: 0.152;
stroke-linecap: square;
stroke-miterlimit: 10;
}
]]></style>
</defs>
<image clip-path="url(#c0_7)" preserveAspectRatio="none" x="-4" y="1212" width="952" height="131" xlink:href="img/1.jpg"/>
<path d="M315.3 233.9h10.9" class="g0_7"/>
<path d="M163.6 285.1H188m168.1 -.2h24.1" class="g1_7"/>
<path d="M162.5 313h23.2m170.4 -.2H381m69.9 227.1h21.2" class="g0_7"/>
<path d="M496.7 540.1h28.4M110.6 568h23.2m25.7 -.2h24.1m24.9 0h24.4" class="g1_7"/>
<path d="M257.4 568h25" class="g0_7"/>
<path d="M424.3 714.6h25.2m95.9 -.5H570M177.8 788.8h11.1m101 0H301m136.5 0h11.1m137.5 0h11.1" class="g2_7"/>
<path d="M107.4 904.6h36.7v-1H107.4v1Z" class="g3_7"/>
<path d="M168.3 931.2l1.9 -1m0 0l4.4 7.3m0 0l4.9 -19.3m0 0h9.4" class="g4_7"/>
<path d="M174.2 937.5l-4.5 -6.7l-1.3 .7l-.3 -.5l2.6 -1.4l3.9 6l4.5 -17.9h9.8v.9h-9.1l-4.7 18.9Z" class="g3_7"/>
<path d="M256.7 931.3h10.9" class="g0_7"/>
<path d="M302.7 931.2l1.8 -1m0 0l4.5 7.3m0 0l4.8 -19.3m0 0h9.4" class="g4_7"/>
<path d="M308.5 937.5L304 930.8l-1.2 .7l-.3 -.5l2.5 -1.4l4 6l4.5 -17.9h9.7v.9h-9l-4.8 18.9Z" class="g3_7"/>
<path d="M395.8 931.1l1.9 -1m0 0l4.4 7.2m0 0l4.8 -19.1m0 0h10.6" class="g4_7"/>
<path d="M401.6 937.3l-4.4 -6.6l-1.3 .7l-.3 -.5l2.6 -1.4l3.9 5.9l4.5 -17.7h10.9v1H407.3l-4.7 18.6Z" class="g3_7"/>
<image preserveAspectRatio="none" x="690" y="212" width="107" height="116" xlink:href="img/2.jpg"/>
<image preserveAspectRatio="none" x="43" y="240" width="57" height="56" xlink:href="img/3.jpg"/>
<image preserveAspectRatio="none" x="710" y="383" width="106" height="89" xlink:href="img/4.jpg"/>
<image preserveAspectRatio="none" x="43" y="415" width="57" height="56" xlink:href="img/5.jpg"/>
<image preserveAspectRatio="none" x="725" y="504" width="92" height="153" xlink:href="img/6.jpg"/>
<image preserveAspectRatio="none" x="43" y="531" width="57" height="56" xlink:href="img/7.jpg"/>
<image clip-path="url(#c1_7)" preserveAspectRatio="none" x="724" y="77" width="122" height="99" xlink:href="img/8.jpg"/>
<image preserveAspectRatio="none" x="43" y="89" width="57" height="56" xlink:href="img/9.jpg"/>
<image preserveAspectRatio="none" x="43" y="705" width="57" height="57" xlink:href="img/10.jpg"/>
<image clip-path="url(#c2_7)" preserveAspectRatio="none" x="640" y="695" width="199" height="99" xlink:href="img/11.jpg"/>
<image clip-path="url(#c3_7)" preserveAspectRatio="none" x="619" y="1009" width="232" height="70" xlink:href="img/12.jpg"/>
<image preserveAspectRatio="none" x="43" y="1023" width="57" height="56" xlink:href="img/13.jpg"/>
<image preserveAspectRatio="none" x="43" y="879" width="57" height="56" xlink:href="img/14.jpg"/>
<image preserveAspectRatio="none" x="751" y="860" width="101" height="100" xlink:href="img/15.jpg"/>
</svg>