<?xml version="1.0" encoding="UTF-8" standalone="no"?>
<!DOCTYPE svg PUBLIC "-//W3C//DTD SVG 1.1//EN"
"http://www.w3.org/Graphics/SVG/1.1/DTD/svg11.dtd">
<svg viewBox="0 0 909 1286" version="1.1" xmlns="http://www.w3.org/2000/svg" xmlns:xlink="http://www.w3.org/1999/xlink">
<defs>
<clipPath id="c0_4"><path d="M-.2 1286.6v-74.9h910v74.9Z"/></clipPath>
<clipPath id="c1_4"><path d="M284 871.3V790.2H384.4v81.1Z"/></clipPath>
<clipPath id="c2_4"><path d="M172.2 295.3V196.9H394v98.4Z"/></clipPath>
<style type="text/css"><![CDATA[
.g0_4{
fill: #000;
}
]]></style>
</defs>
<image clip-path="url(#c0_4)" preserveAspectRatio="none" x="-4" y="1212" width="952" height="131" xlink:href="img/1.jpg"/>
<path d="M110.6 476.3h36.6v-.9H110.6v.9Z" class="g0_4"/>
<image preserveAspectRatio="none" x="137" y="791" width="100" height="80" xlink:href="img/2.jpg"/>
<image clip-path="url(#c1_4)" preserveAspectRatio="none" x="284" y="791" width="100" height="80" xlink:href="img/3.jpg"/>
<image preserveAspectRatio="none" x="431" y="790" width="103" height="81" xlink:href="img/4.jpg"/>
<image preserveAspectRatio="none" x="583" y="790" width="97" height="81" xlink:href="img/5.jpg"/>
<image preserveAspectRatio="none" x="43" y="363" width="57" height="56" xlink:href="img/6.jpg"/>
<image preserveAspectRatio="none" x="719" y="208" width="132" height="63" xlink:href="img/7.jpg"/>
<image preserveAspectRatio="none" x="718" y="141" width="132" height="63" xlink:href="img/8.jpg"/>
<image clip-path="url(#c2_4)" preserveAspectRatio="none" x="172" y="197" width="222" height="101" xlink:href="img/9.jpg"/>
<image preserveAspectRatio="none" x="44" y="89" width="56" height="56" xlink:href="img/10.jpg"/>
<image preserveAspectRatio="none" x="593" y="460" width="256" height="92" xlink:href="img/11.jpg"/>
<image preserveAspectRatio="none" x="44" y="474" width="56" height="56" xlink:href="img/12.jpg"/>
<image preserveAspectRatio="none" x="647" y="926" width="212" height="43" xlink:href="img/13.jpg"/>
<image preserveAspectRatio="none" x="44" y="937" width="56" height="57" xlink:href="img/14.jpg"/>
<image preserveAspectRatio="none" x="580" y="678" width="274" height="70" xlink:href="img/15.jpg"/>
<image preserveAspectRatio="none" x="43" y="692" width="57" height="56" xlink:href="img/16.jpg"/>
</svg>