<?xml version="1.0" encoding="UTF-8" standalone="no"?>
<!DOCTYPE svg PUBLIC "-//W3C//DTD SVG 1.1//EN"
"http://www.w3.org/Graphics/SVG/1.1/DTD/svg11.dtd">
<svg viewBox="0 0 909 1286" version="1.1" xmlns="http://www.w3.org/2000/svg" xmlns:xlink="http://www.w3.org/1999/xlink">
<defs>
<clipPath id="c0_1"><path d="M-.2 1286.6v-75.1h910v75.1Z"/></clipPath>
<clipPath id="c1_1"><path d="M.1 152.6V0H909.8V152.6Z"/></clipPath>
<clipPath id="c2_1"><path d="M23 203.8V154.1H909.8v49.7Z"/></clipPath>
<style type="text/css"><![CDATA[
.g0_1{
fill: #000;
}
]]></style>
</defs>
<image clip-path="url(#c0_1)" preserveAspectRatio="none" x="-2" y="1212" width="930" height="127" xlink:href="img/1.jpg"/>
<path d="M579.1 587.9h36.6V587H579.1v.9Z" class="g0_1"/>
<path d="M634.1 587.9h36.6V587H634.1v.9Z" class="g0_1"/>
<path d="M218.3 611.8h36.6v-.9H218.3v.9Z" class="g0_1"/>
<path d="M502.4 611.8h36.7v-.9H502.4v.9Z" class="g0_1"/>
<image clip-path="url(#c1_1)" preserveAspectRatio="none" x="0" y="0" width="915" height="152" xlink:href="img/2.jpg"/>
<image clip-path="url(#c2_1)" preserveAspectRatio="none" x="23" y="154" width="1038" height="49" xlink:href="img/3.png"/>
<image preserveAspectRatio="none" x="43" y="468" width="57" height="56" xlink:href="img/4.jpg"/>
<image preserveAspectRatio="none" x="43" y="591" width="57" height="56" xlink:href="img/5.jpg"/>
<image preserveAspectRatio="none" x="45" y="708" width="56" height="56" xlink:href="img/6.jpg"/>
<image preserveAspectRatio="none" x="43" y="950" width="57" height="56" xlink:href="img/7.jpg"/>
<image preserveAspectRatio="none" x="43" y="1067" width="57" height="57" xlink:href="img/8.jpg"/>
<image preserveAspectRatio="none" x="43" y="1185" width="57" height="56" xlink:href="img/9.jpg"/>
</svg>