<?xml version="1.0" encoding="UTF-8" standalone="no"?>
<!DOCTYPE svg PUBLIC "-//W3C//DTD SVG 1.1//EN"
"http://www.w3.org/Graphics/SVG/1.1/DTD/svg11.dtd">
<svg viewBox="0 0 909 1286" version="1.1" xmlns="http://www.w3.org/2000/svg" xmlns:xlink="http://www.w3.org/1999/xlink">
<defs>
<clipPath id="c0_6"><path d="M-.2 1286.6v-57.8h910v57.8Z"/></clipPath>
<style type="text/css"><![CDATA[
.g0_6{
fill: #CFC;
}
.g1_6{
fill: none;
stroke: #000;
stroke-width: 1.099;
stroke-linecap: square;
stroke-miterlimit: 10;
}
.g2_6{
fill: #F0FFF0;
}
.g3_6{
fill: #FFE4CA;
}
.g4_6{
fill: none;
stroke: #000;
stroke-width: 1.08;
stroke-linecap: square;
stroke-miterlimit: 10;
}
.g5_6{
fill: none;
stroke: #00F;
stroke-width: 1.08;
stroke-linecap: square;
stroke-miterlimit: 10;
}
.g6_6{
fill: none;
stroke: #F00;
stroke-width: 1.08;
stroke-linecap: square;
stroke-miterlimit: 10;
}
.g7_6{
fill: #000;
}
.g8_6{
fill: #70AD47;
}
.g9_6{
fill: #EAFFEA;
}
.ga_6{
fill: #EEF;
}
.gb_6{
fill: none;
stroke: #000;
stroke-width: 1.074;
stroke-linecap: square;
stroke-miterlimit: 10;
}
.gc_6{
fill: none;
stroke: #00F;
stroke-width: 1.074;
stroke-linecap: square;
stroke-miterlimit: 10;
}
.gd_6{
fill: none;
stroke: #F00;
stroke-width: 1.074;
stroke-linecap: square;
stroke-miterlimit: 10;
}
.ge_6{
fill: #FFE8FF;
}
.gf_6{
fill: #E8FFE8;
}
.gg_6{
fill: none;
stroke: #000;
stroke-width: 1.077;
stroke-linecap: square;
stroke-miterlimit: 10;
}
.gh_6{
fill: none;
stroke: #00F;
stroke-width: 1.077;
stroke-linecap: square;
stroke-miterlimit: 10;
}
.gi_6{
fill: none;
stroke: #F00;
stroke-width: 1.077;
stroke-linecap: square;
stroke-miterlimit: 10;
}
.gj_6{
fill: none;
stroke: #000;
stroke-width: 0.873;
stroke-linecap: square;
stroke-miterlimit: 10;
}
.gk_6{
fill: none;
stroke: #F60;
stroke-width: 0.873;
stroke-linecap: square;
stroke-miterlimit: 10;
}
.gl_6{
fill: #F90;
}
]]></style>
</defs>
<image clip-path="url(#c0_6)" preserveAspectRatio="none" x="-2" y="1229" width="930" height="128" xlink:href="img/1.jpg"/>
<path fill-rule="evenodd" d="M57.4 294.6H97.9V71.5H57.4V294.6Z" class="g0_6"/>
<path fill-rule="evenodd" d="M65.3 121.9H90V91.5H65.3v30.4Z" class="g0_6"/>
<path fill-rule="evenodd" d="M65.3 152.5H90V121.9H65.3v30.6Z" class="g0_6"/>
<path fill-rule="evenodd" d="M65.3 183.2H90V152.5H65.3v30.7Z" class="g0_6"/>
<path fill-rule="evenodd" d="M65.3 213.6H90V183.2H65.3v30.4Z" class="g0_6"/>
<path fill-rule="evenodd" d="M65.3 244.2H90V213.6H65.3v30.6Z" class="g0_6"/>
<path fill-rule="evenodd" d="M65.3 274.8H90V244.2H65.3v30.6Z" class="g0_6"/>
<path d="M178.4 107.4l2.2 -1.3m0 0l5.8 12m.1 0l3.6 -21.5m0 0h9.2m-20.9 21.8h22.4m91.6 -11l2.2 -1.3m0 0l5.9 12m0 0l3.6 -21.5m.1 0h9.1m-20.9 21.8h22.4m91.1 65.8h9.2m10.2 -11l2.2 -1.2m0 0l5.9 11.9m0 0l3.7 -21.5m0 0h9.1m-20.9 21.8h22.4m27.5 -11l2.2 -1.2m0 0l5.9 11.9m0 0l3.6 -21.5m0 0h9.2m-20.9 21.8h22.4m-94.8 36.7H412m10.2 -11l2.2 -1.3m0 0l5.9 11.9m0 0L434 199.1m0 0h9.1m-20.9 21.8h22.4m27.5 -11l2.2 -1.3m0 0l5.9 11.9m0 0l3.6 -21.4m0 0H493m-21.1 21.8h22.6" class="g1_6"/>
<path d="M769.4 249l-1.9 -.1l-1.8 -.1l-1.7 -.1l-3.6 -.5l-3.4 -.5l-1.7 -.4l-1.7 -.4l-1.7 -.4l-1.6 -.5L747 244.9l-1.6 -.6l-1.5 -.6l-3.1 -1.5l-3.1 -1.5l-3 -1.8L731.9 237l-1.5 -1L729 234.9l-1.4 -1.1l-1.3 -1.1l-2.7 -2.4L722.3 229L721 227.7l-1.4 -1.3L718.4 225l-1.2 -1.4l-1.1 -1.3l-1.2 -1.4l-1 -1.5L712.8 218l-.9 -1.4l-1 -1.6l-.9 -1.4l-.9 -1.6l-.8 -1.5l-.8 -1.5l-.8 -1.6l-.7 -1.6l-.6 -1.5l-.7 -1.7l-.5 -1.6l-.6 -1.6l-.5 -1.7l-.5 -1.7l-.4 -1.7l-.4 -1.7l-.3 -1.7l-.3 -1.8l-.3 -1.7l-.2 -1.8l-.2 -1.8l-.1 -1.8l-.1 -1.9l-.1 -1.8v-1.9l.1 -3.7l.1 -1.9l.1 -1.8l.2 -1.8l.2 -1.8l.6 -3.5l.3 -1.7l.4 -1.7l.9 -3.4l1.1 -3.3l.5 -1.7l.7 -1.6l1.3 -3.1l1.6 -3.2l1.7 -3l1.9 -3l2 -2.9l2.2 -2.8l2.3 -2.7l2.6 -2.7l2.6 -2.6l2.7 -2.4l2.7 -2.3l1.4 -1.1l1.5 -1l2.8 -1.9l3 -1.7l3.1 -1.6l3.1 -1.4l1.5 -.7l1.6 -.6l3.3 -1l3.3 -.9l1.7 -.5l1.7 -.3l3.4 -.6l3.6 -.4l1.7 -.1l1.8 -.1l3.7 -.1H773l1.8 .1l1.8 .1l1.8 .1l1.7 .2l1.8 .2l1.7 .3l1.7 .3l1.7 .3l1.7 .5l1.6 .4l1.7 .5l1.6 .5l1.7 .5l1.5 .6l1.6 .7l1.5 .7l1.6 .7l1.5 .7l1.5 .9l1.5 .8l1.5 .9l1.4 .9l1.5 1l1.4 1l1.4 1.1l1.4 1.1l1.4 1.2l1.3 1.1l1.4 1.3l1.3 1.2l1.3 1.4l1.3 1.3l1.2 1.4l1.2 1.3l1.2 1.4l1.1 1.4l1.1 1.4l2 2.9l1.9 3l1.7 3l1.6 3.2l1.4 3.1l.6 1.6l.6 1.7l1 3.3l.5 1.7l.4 1.7l.4 1.7l.4 1.7l.5 3.5l.2 1.8l.3 1.8l.1 1.8l.1 1.9l.1 1.9v3.1l-.1 1.2v1.3l-.1 1.2l-.1 1.2v.6l-.1 .7l-.1 1.2l-.1 1.2l-.2 1.2l-.2 1.2l-.1 .5v.3l-.1 .3l-.2 1.2l-.2 1.2l-.3 1.1l-.2 1.2l-.3 1.1l-.2 .6l-.1 .5l-.3 1.2l-.2 .5l-.2 .6l-.3 1.1l-.4 1.1l-.1 .2l-.1 .3l-.2 .6l-.8 2.2l-.5 1l-.5 1.1l-.5 1.1l-.5 1l-1 2.1l-1.2 2.1l-.6 .9l-.3 .5l-.3 .5l-.6 1l-.6 .9l-.7 1l-.6 .9l-1.4 1.9l-1.5 1.8l-1.5 1.9l-1.6 1.7l-.9 .9l-.8 .9l-.6 .7l-.4 .3l-.3 .3l-1.3 1.3l-1.4 1.2l-1.3 1.2l-1.4 1.1l-.4 .3l-.3 .3l-.7 .5l-1.4 1.1l-.7 .5l-.7 .5l-1.5 1l-1.4 .9l-1.5 .9l-1.5 .9l-1.5 .8l-.8 .3l-.7 .4l-1.6 .8l-.4 .1l-.3 .2l-.8 .4l-1.6 .6l-.8 .3l-.7 .3l-.9 .3l-.8 .3L792 246l-1.7 .5l-1.6 .4l-1.7 .4l-1.7 .4l-1.7 .3l-1.7 .2l-.5 .1H781l-.9 .2l-1.7 .2l-1.8 .1l-1.8 .1L773 249h-1.8ZM771 104.8l-30.4 54.1l-30.4 54h.5l60.3 -.1l61.5 -.1L801.6 158.2L771.2 104.5Z" class="g2_6"/>
<path d="M771 141.1h2.1l.8 .1l.9 .1l1.8 .1l1.6 .3l1.7 .4l.8 .2l.8 .2l1.6 .6l.8 .2l.8 .4l1.4 .7l1.5 .7l1.5 .9l.7 .4l.7 .5l1.4 1.1l1.3 1.1l1.4 1.1l1.3 1.3l1.5 1.6l1.4 1.7l.7 .9l.6 .9l1.1 1.8L771 176.6Z" class="g3_6"/>
<path d="M771.2 212.3H771V176.7l30.5 17.8l-.6 1l-.6 1l-.3 .4l-.3 .5l-.7 .9l-.8 .9l-.7 .9l-1.6 1.8l-.7 .6l-.6 .6l-.7 .6l-.2 .1l-.1 .2l-.4 .3l-1.3 1.1l-1.4 1l-.7 .5l-.4 .2l-.3 .2l-.8 .5l-.7 .4l-1.5 .8l-1.4 .7l-.8 .3l-.4 .1l-.4 .1l-.8 .3l-.4 .1l-.4 .2l-.4 .1l-.4 .1l-.8 .2l-.8 .2l-.9 .2l-.8 .2l-.8 .1l-1.8 .2l-.9 .1h-1.3l-.4 .1h-.9Z" class="g3_6"/>
<path d="M771 176.7v-.1l30.2 -18.2l.6 1l.6 1l.9 2.2l.5 1l.4 1.1l.3 1.1l.4 1.2l.3 1.1l.2 1.2l.2 1.2l.2 1.2l.1 1.2l.1 1.2l.1 2.6v1.2l-.1 1.2v.6l-.1 .1v.5l-.1 1.2l-.2 1.1l-.2 1.2l-.2 1.1l-.3 1.2l-.3 1l-.2 .6l-.1 .6l-.4 1l-.1 .3l-.1 .1v.2l-.2 .5l-.5 1l-.2 .5l-.1 .3l-.1 .1v.2l-.6 1l-.2 .5l-.3 .5Z" class="g3_6"/>
<path d="M741 159.1l.6 -1.1l.6 -.9l1.3 -2l1.5 -1.8l.8 -.9l.9 -.9l1.3 -1.2l1.3 -1.2l1.3 -1.1l1.4 -1l1.4 -1l1.5 -.8l1.4 -.8l1.5 -.7l1.6 -.6l1.5 -.5l1.6 -.5l1.7 -.3l1.6 -.4l1.7 -.1l1.7 -.2H771v35.5h-.1Z" class="g3_6"/>
<path d="M769.2 212.2l-1.7 -.1l-1.7 -.2l-1.6 -.3l-1.7 -.4l-1.6 -.5l-1.5 -.5l-1.6 -.6l-1.5 -.7l-1.4 -.8l-1.5 -.8l-1.4 -.9l-1.4 -1.1l-1.3 -1L748 203.1l-1.3 -1.2l-1.6 -1.8l-.8 -.9l-.7 -.9l-.7 -.9l-.6 -.9l-.7 -1l-.5 -1l29.8 -17.9l.1 .1v35.6Z" class="g3_6"/>
<path d="M740.5 193.5l-.5 -1l-.5 -1.1l-.4 -1l-.4 -1.1l-.4 -1l-.4 -1.2l-.2 -1l-.3 -1.2l-.3 -1.1l-.2 -1.2l-.1 -1.1l-.2 -1.2v-1.2l-.1 -1.2v-1.2l.1 -2.5l.2 -2.3l.3 -2.3l.5 -2.2l.7 -2.2l.7 -2.1l.9 -2.1l1.1 -1.9l29.9 17.5l-29.8 17.9Z" class="g3_6"/>
<path d="M770.9 176.6h.1v.1Z" class="g3_6"/>
<path d="M771 141.1h-1.8l-1.7 .2l-1.7 .1l-1.6 .4l-1.7 .3l-1.6 .5l-1.5 .5l-1.5 .6l-1.6 .7l-1.4 .8l-1.5 .8l-1.4 1l-1.4 1l-1.3 1.1l-1.3 1.2l-1.3 1.2l-.9 .9l-.8 .9l-1.5 1.8l-1.3 2l-.6 1l-.6 1l-1.1 1.9l-.9 2.1l-.7 2.1l-.7 2.2l-.5 2.2l-.3 2.3l-.2 2.3l-.1 2.5v1.2l.1 1.2v1.2l.2 1.2l.1 1.1l.2 1.2l.3 1.1l.3 1.2l.2 1l.4 1.2l.4 1l.4 1.1l.4 1l.5 1.1l.5 1l.6 1l.5 1l.7 1l.6 .9l.7 .9l.7 .9l.8 .9l1.6 1.8l1.3 1.2l1.3 1.2l1.3 1l1.4 1.1l1.4 .9l1.5 .8l1.4 .8l1.6 .7l1.5 .6l1.5 .5l1.6 .5l1.7 .4l1.6 .3l1.7 .2l1.7 .1l1.8 .1h1.2l.4 -.1h1.3l.9 -.1l1.8 -.2l.8 -.1l.8 -.2l.9 -.2l.8 -.2l.8 -.2l.4 -.1l.4 -.1l.4 -.2l.4 -.1l.8 -.3l.4 -.1l.4 -.1l.8 -.3l1.4 -.7l1.5 -.8l.7 -.4l.8 -.5l.3 -.2l.4 -.2l.7 -.5l1.4 -1l1.3 -1.1l.4 -.3l.1 -.2l.2 -.1l.7 -.6l.6 -.6l.7 -.6l1.6 -1.8l.7 -.9l.8 -.9l.7 -.9l.3 -.5l.3 -.4l.6 -1l.6 -1l.3 -.5l.2 -.5l.6 -1v-.2l.1 -.1l.1 -.3l.2 -.5l.5 -1l.2 -.5v-.2l.1 -.1l.1 -.3l.4 -1l.1 -.6l.2 -.6l.3 -1l.3 -1.2l.2 -1.1l.2 -1.2l.2 -1.1l.1 -1.2v-.5l.1 -.1v-.6l.1 -1.2v-1.2l-.1 -2.6l-.1 -1.2l-.1 -1.2l-.2 -1.2l-.2 -1.2l-.2 -1.2l-.3 -1.1l-.4 -1.2l-.3 -1.1l-.4 -1.1l-.5 -1l-.9 -2.2l-.6 -1l-.6 -1l-1.1 -1.8l-.6 -.9l-.7 -.9l-1.4 -1.7l-1.5 -1.6l-1.3 -1.3l-1.4 -1.1L791.9 148l-1.4 -1.1l-.7 -.5l-.7 -.4l-1.5 -.9l-1.5 -.7l-1.4 -.7l-.8 -.4l-.8 -.2l-1.6 -.6l-.8 -.2l-.8 -.2l-1.7 -.4l-1.6 -.3l-1.8 -.1l-.9 -.1l-.8 -.1H771m0 -36.3l-30.4 54.1l-30.4 54h.5l60.3 -.1l61.5 -.1L801.6 158.2L771.2 104.5l-.2 .3m71.2 71.6v-1.8l-.1 -1.9l-.1 -1.9l-.1 -1.8l-.3 -1.8l-.2 -1.8l-.5 -3.5l-.4 -1.7l-.4 -1.7l-.4 -1.7l-.5 -1.7l-1 -3.3l-.6 -1.7l-.6 -1.5l-1.4 -3.2L834 142.2l-1.7 -3l-1.9 -3l-2 -2.9l-1.1 -1.4l-1.1 -1.4L825 129.1l-1.2 -1.3l-1.2 -1.4l-1.3 -1.3L820 123.7l-1.3 -1.2l-1.4 -1.3L816 120.1l-1.4 -1.2l-1.4 -1.1l-1.4 -1.1l-1.4 -1l-1.5 -1l-1.4 -.9l-1.5 -.9l-1.5 -.8l-1.5 -.9l-1.5 -.7l-1.6 -.7l-1.5 -.7l-1.6 -.7l-1.5 -.6l-1.7 -.5l-1.6 -.5l-1.7 -.5l-1.6 -.4l-1.7 -.5l-1.7 -.3l-1.7 -.3l-1.7 -.3l-1.8 -.2l-1.7 -.2l-1.8 -.1l-1.8 -.1l-1.8 -.1h-1.8l-3.7 .1l-1.8 .1l-1.7 .1l-3.6 .4l-3.4 .6l-1.7 .3l-1.7 .5l-3.3 .9l-3.3 1l-1.6 .6l-1.5 .7l-3.1 1.4l-3.1 1.6l-3 1.7l-2.8 1.9l-1.5 1l-1.4 1.1l-2.7 2.3l-2.7 2.4l-2.6 2.6l-2.6 2.7l-2.3 2.7l-2.2 2.8l-2 2.9l-1.9 3l-1.7 3l-1.6 3.2l-1.3 3.2l-.7 1.5l-.5 1.7l-1.1 3.3l-.9 3.4l-.4 1.7l-.3 1.7l-.6 3.5l-.2 1.8l-.2 1.8l-.1 1.8l-.1 1.9l-.1 3.7v1.9l.1 1.8l.1 1.9l.1 1.8l.2 1.8l.2 1.8l.3 1.7l.3 1.8l.3 1.7l.4 1.7l.4 1.7l.5 1.7l.5 1.7l.6 1.6l.5 1.6l.7 1.7l.6 1.5l.7 1.6l.8 1.6l.8 1.5l.8 1.5l.9 1.6l.9 1.4l1 1.6l.9 1.4l1.1 1.4l1 1.5l1.2 1.4l1.1 1.3l1.2 1.4l1.2 1.4l1.4 1.3l1.3 1.3l1.3 1.3l2.7 2.4l1.3 1.1l1.4 1.1l1.4 1.1l1.5 1l2.8 1.9l3 1.8l3.1 1.5l3.1 1.5l1.5 .6l1.6 .6l3.3 1.1l1.6 .5l1.7 .4l1.7 .4l1.7 .4l3.4 .5l3.6 .5l1.7 .1l1.8 .1l1.9 .1H773l1.8 -.1l1.8 -.1l1.8 -.1l1.7 -.2l.9 -.2h.4l.5 -.1l1.7 -.2l1.7 -.3l1.7 -.4l1.7 -.4l1.6 -.4L792 246l1.6 -.5l.8 -.3l.9 -.3l.7 -.3l.8 -.3l1.6 -.6l.8 -.4l.3 -.2l.4 -.1l1.6 -.8l.7 -.4l.8 -.3l1.5 -.8l1.5 -.9l1.5 -.9l1.4 -.9l1.5 -1l.7 -.5l.7 -.5l1.4 -1.1l.7 -.5l.3 -.3l.4 -.3l1.4 -1.1l1.3 -1.2l1.4 -1.2L820 229l.3 -.3l.4 -.3l.6 -.7l.8 -.9l.9 -.9l1.6 -1.7l1.5 -1.9l1.5 -1.8l1.4 -1.9l.6 -.9l.7 -1l.6 -.9l.6 -1l.3 -.5l.3 -.5l.7 -.9l1.1 -2.1l1 -2.1l.5 -1l.5 -1.1l.5 -1.1l.5 -1l.8 -2.2l.2 -.6l.1 -.3l.1 -.2l.4 -1.1l.3 -1.1l.2 -.6l.2 -.5l.3 -1.2l.1 -.5l.2 -.6l.3 -1.1l.2 -1.2l.3 -1.1l.2 -1.2l.2 -1.2l.1 -.3v-.3l.1 -.5l.2 -1.2l.2 -1.2l.1 -1.2l.1 -1.2l.1 -.7v-.6l.1 -1.2l.1 -1.2v-1.3l.1 -1.2v-1.3" class="g4_6"/>
<path d="M771 176.6V104.8m30.6 53.4l-.4 .2m-60.6 .5l.4 .2m30 17.5h-.1m.1 .1v-.1m-.1 0l.1 .1m-.1 -.1l-29.8 17.9l-30.4 18.4M771 176.7l30.5 17.8l30 17.5m-60.5 .8v-.5" class="g5_6"/>
<path d="M771 212.3V176.7m30.2 -18.3L771 176.6M741 159.1l29.9 17.5" class="g6_6"/>
<path d="M770.9 178.7l-.3 -.1l-.4 -.3l-.3 -.2l-.2 -.3l-.2 -.3l-.1 -.4v-.8l.1 -.4l.2 -.3l.2 -.3l.3 -.3l.4 -.2l.3 -.1h.8l.4 .1l.3 .2l.3 .3l.2 .3l.3 .3l.1 .4v.8l-.1 .4l-.3 .3l-.2 .3l-.3 .2l-.3 .3l-.4 .1h-.3Z" class="g7_6"/>
<path d="M56.7 71.5h.7v-.7h-.7v.7Z" class="g8_6"/>
<path d="M56.7 71.5h.7v-.7h-.7v.7Z" class="g8_6"/>
<path d="M57.4 71.5H97.9v-.7H57.4v.7Z" class="g8_6"/>
<path d="M97.9 71.5h.7v-.7h-.7v.7Z" class="g8_6"/>
<path d="M98.6 71.5H684.8v-.7H98.6v.7Z" class="g8_6"/>
<path d="M684.8 71.5h.7v-.7h-.7v.7Z" class="g8_6"/>
<path d="M685.5 71.5H873.9v-.7H685.5v.7Z" class="g8_6"/>
<path d="M873.9 71.5h.8v-.7h-.8v.7Z" class="g8_6"/>
<path d="M873.9 71.5h.8v-.7h-.8v.7Z" class="g8_6"/>
<path d="M56.7 294.6h.7V71.5h-.7V294.6Z" class="g8_6"/>
<path d="M97.9 294.6h.7V71.5h-.7V294.6Z" class="g8_6"/>
<path d="M684.8 294.6h.7V71.5h-.7V294.6Z" class="g8_6"/>
<path d="M873.9 294.6h.8V71.5h-.8V294.6Z" class="g8_6"/>
<path fill-rule="evenodd" d="M57.4 481.8H97.9V295.4H57.4V481.8Z" class="g0_6"/>
<path fill-rule="evenodd" d="M65.3 342.8H90V312.2H65.3v30.6Z" class="g0_6"/>
<path fill-rule="evenodd" d="M65.3 373.3H90V342.8H65.3v30.5Z" class="g0_6"/>
<path fill-rule="evenodd" d="M65.3 403.9H90V373.3H65.3v30.6Z" class="g0_6"/>
<path fill-rule="evenodd" d="M65.3 434.5H90V403.9H65.3v30.6Z" class="g0_6"/>
<path fill-rule="evenodd" d="M65.3 464.9H90V434.5H65.3v30.4Z" class="g0_6"/>
<path d="M455.2 366.7l2.2 -1.3m0 0l5.9 11.9m0 0l3.6 -21.5m.1 0h9.1m-20.9 21.9h22.4M306.2 409.4h9.1M162.1 441.6l2.2 -1.2m0 0l5.8 11.9m0 0l3.7 -21.5m0 0H183" class="g1_6"/>
<path d="M765 450.1h-1.8l-1.8 -.2l-1.8 -.1l-1.7 -.2l-1.8 -.2l-3.4 -.6l-1.7 -.4l-1.6 -.3l-1.7 -.5l-1.6 -.5l-3.2 -1l-1.6 -.6l-1.6 -.7l-3.1 -1.4l-3 -1.6l-3 -1.7l-2.9 -1.9l-2.8 -2.1L723.5 435l-1.3 -1.1l-1.4 -1.2l-1.3 -1.3l-1.3 -1.2l-1.3 -1.3v-.2h99.6v-102l.2 -.2l.1 .1l1.2 1.3l1.2 1.3l2.4 2.8l1.1 1.4l1.1 1.4l2 2.9l1.8 2.9l.9 1.5l.8 1.6l.8 1.5l.8 1.6l1.4 3.1l.6 1.6l.6 1.7l1 3.3l.5 1.6l.4 1.7l.7 3.5l.6 3.5l.2 1.7l.2 1.8l.3 3.7l.1 3.7V379l-.1 1.3v1.2l-.1 1.3l-.1 1.2v.6l-.1 .6l-.1 1.2l-.1 1.2l-.2 1.2l-.2 1.2l-.1 .5v.3l-.1 .3l-.2 1.2l-.2 1.2l-.3 1.1l-.2 1.2l-.3 1.1l-.2 .6l-.1 .5l-.3 1.2l-.2 .5l-.2 .6l-.3 1.1l-.4 1.1l-.4 1.1l-.8 2.2l-.5 1l-.4 1.1l-.5 1l-.5 1.1l-1.1 2.1l-1.1 2l-.6 1l-.3 .5l-.3 .5l-.6 .9l-.6 1l-.7 .9l-.7 .9l-1.3 1.9l-1.5 1.8l-1.5 1.9l-1.6 1.7l-1.6 1.8l-.7 .6l-.4 .3l-.3 .4l-1.3 1.2l-1.3 1.3l-1.3 1.2l-1.4 1.1l-.4 .3l-.3 .2l-.7 .6l-1.4 1l-.7 .5l-.7 .6l-1.5 .9l-1.4 1l-1.5 .8l-1.5 .9l-1.5 .8l-.8 .4l-.7 .4l-1.5 .7l-.4 .2l-.4 .2l-.8 .3l-1.5 .7l-.8 .3l-.8 .3l-.8 .2l-.8 .3l-1.6 .5l-1.7 .5l-1.6 .5l-1.7 .3l-1.7 .4l-1.7 .3l-1.7 .3H777l-.4 .1l-.9 .1l-1.7 .2l-1.8 .1l-1.7 .2h-1.9l-1.7 .1Z" class="g9_6"/>
<path d="M716.9 326.7v-.1l2.6 -2.6l2.7 -2.4l2.7 -2.3l2.8 -2l2.9 -2l3 -1.7l3 -1.6l3.1 -1.4l1.6 -.6l1.6 -.6l3.2 -1.1l3.3 -.9L751 307l1.7 -.3l3.4 -.6l1.8 -.3l1.7 -.1l1.8 -.2l1.8 -.1h7.3l1.7 .1l1.8 .2l1.7 .1l1.8 .3l1.7 .2l1.7 .4l1.7 .3l1.6 .4l1.7 .4l1.6 .5l1.6 .5l1.7 .6l1.5 .6l1.6 .6l1.5 .7l1.6 .7l1.5 .8l1.5 .8l1.4 .8l1.5 .9l1.5 .9l1.4 1l1.4 1l1.4 1.1l1.4 1l1.4 1.2l1.3 1.2l1.4 1.2l1.3 1.3l1.3 1.3l-.2 .2Z" class="g9_6"/>
<path d="M764.2 428.4l-2.5 -.2l-2.5 -.3l-2.3 -.4l-2.4 -.6l-2.3 -.6l-2.3 -.7l-2.2 -.9l-2.2 -1l-2.1 -1.1l-2.1 -1.2l-2 -1.3l-2 -1.5L735.4 417l-1.9 -1.7l-1.8 -1.8l-.9 -.9l-.9 -1l-1.7 -1.9l-.8 -1l-.7 -1l-1.4 -2L724 403.6l-.6 -1.1l-.6 -1l-.6 -1.1l-.5 -1.1l-.9 -2.2l-.5 -1.1l-.4 -1.2l-.7 -2.3l-.7 -2.4l-.5 -2.4l-.2 -1.2l-.2 -1.2l-.1 -1.3l-.1 -1.2l-.2 -1.3v-1.3l-.1 -2.6V377l.1 -2.6l.2 -2.5l.3 -2.4l.4 -2.4l.5 -2.4l.6 -2.3l.8 -2.3l.8 -2.2l1 -2.2l1 -2.1l1.2 -2.1l1.3 -2l1.4 -2l1.5 -1.9l1.6 -1.9l1.8 -1.9L767 377.4L731.6 341.8l.1 -.1l1.8 -1.8l1.9 -1.7l1.9 -1.6l2 -1.4l2 -1.4l2.1 -1.2l2.1 -1.1l2.2 -.9l2.2 -.9l2.3 -.8l2.3 -.6l2.4 -.5l2.3 -.5l2.5 -.2l2.5 -.2h6.3l1.3 .2l1.2 .1l1.2 .1l2.4 .5l2.3 .5l2.3 .6l1.1 .4l1.2 .4l1.1 .4l1.1 .5l2.2 .9l1 .5l1.1 .6l1 .6l1 .6l2.1 1.4l1.9 1.4l1 .8l1 .8l1.9 1.7l.9 .9l.9 .9l1.8 1.9l1.6 1.9l1.6 2l1.4 2l1.3 2.1l1.2 2.1l1.1 2.2l1 2.2l.8 2.3l.7 2.3l.7 2.4l.5 2.4l.4 2.4l.3 2.5l.2 2.6v2.7H766.7h49.6v2.6l-.1 1.2l-.1 .7v.6l-.1 .3v.3l-.1 .7l-.1 1.2l-.4 2.5l-.5 2.4l-.3 1.1l-.4 1.2l-.3 1.2l-.4 1.1l-.4 1.2l-.2 .5l-.2 .6l-1 2.2l-.6 1.1l-.5 1.1l-.6 1l-.6 1.1l-1.3 2.1l-1.4 2l-.3 .2l-.1 .3l-.4 .5l-.8 1l-1.6 1.9l-.9 1l-.9 .9l-.9 .9l-.9 .9L798 417l-1 .8l-.5 .4l-.2 .2l-.3 .2l-1.9 1.5l-2.1 1.3l-1 .6l-1 .6l-.6 .3l-.2 .1l-.3 .1l-1 .6l-2.2 1l-.6 .2l-.5 .2l-1.1 .5l-1.2 .3l-1.1 .4l-1.1 .3l-1.2 .3l-2.3 .6l-2.4 .4L773 428l-.6 .1h-.3l-.3 .1h-.7l-.6 .1l-1.2 .1l-2.5 .1Z" class="ga_6"/>
<path d="M716.6 326.9l.2 -.3l.1 .1v.5Z" class="g9_6"/>
<path d="M715.5 427.5l-1.2 -1.3l-1.2 -1.4l-1.2 -1.4L710.8 422l-1.1 -1.4l-1 -1.5l-.9 -1.4l-1 -1.5l-.9 -1.5l-.9 -1.5l-.8 -1.5l-.8 -1.5l-.7 -1.6l-.7 -1.5l-.7 -1.6l-.6 -1.6l-.6 -1.6l-.5 -1.7l-.5 -1.6l-.5 -1.7l-.4 -1.7l-.4 -1.7l-.3 -1.7l-.4 -1.8l-.2 -1.7l-.2 -1.8l-.2 -1.8l-.1 -1.8l-.1 -1.8l-.1 -1.9v-2.7l.1 -3.7l.3 -3.5l.4 -3.5l.6 -3.4l.7 -3.4l.9 -3.3l1 -3.3l1.3 -3.1l1.3 -3.1l.7 -1.5l.8 -1.5l1.6 -3l1.9 -2.9l1.9 -2.8l2.2 -2.8l2.3 -2.6l2.4 -2.6l.3 .3V428.7l-.1 .2Z" class="g9_6"/>
<path d="M716.8 428.9l.1 -.2v.2Z" class="g0_6"/>
<path d="M816.5 326.7H716.9v102h99.6v-102m-.2 50.9V375l-.2 -2.6l-.3 -2.5l-.4 -2.4l-.5 -2.4l-.7 -2.4l-.7 -2.3l-.8 -2.3l-1 -2.2l-1.1 -2.2l-1.2 -2.1l-1.3 -2.1l-1.4 -2l-1.6 -2l-1.6 -1.9l-1.8 -1.9l-.9 -.9l-.9 -.9L798 338.2l-1 -.8l-1 -.8l-1.9 -1.4L792 333.8l-1 -.6l-1 -.6l-1.1 -.6l-1 -.5l-2.2 -.9l-1.1 -.5l-1.1 -.4l-1.2 -.4l-1.1 -.4l-2.3 -.6l-2.3 -.5l-2.4 -.5l-1.2 -.1l-1.2 -.1l-1.3 -.2h-6.3l-2.5 .2l-2.5 .2l-2.3 .5l-2.4 .5l-2.3 .6l-2.3 .8l-2.2 .9l-2.2 .9l-2.1 1.1l-2.1 1.2l-2 1.4l-2 1.4l-1.9 1.6l-1.9 1.7l-1.8 1.8l-.1 .1l-1.8 1.9l-1.6 1.9l-1.5 1.9l-1.4 2l-1.3 2l-1.2 2.1l-1 2.1l-1 2.2l-.8 2.2l-.8 2.3l-.6 2.3l-.5 2.4l-.4 2.4l-.3 2.4l-.2 2.5l-.1 2.6v.6l.1 2.6v1.3l.2 1.3l.1 1.2l.1 1.3l.2 1.2l.2 1.2l.5 2.4l.7 2.4l.7 2.3l.4 1.2l.5 1.1l.9 2.2l.5 1.1l.6 1.1l.6 1l.6 1.1l1.3 2.1l1.4 2l.7 1l.8 1l1.7 1.9l.9 1l.9 .9l1.8 1.8l1.9 1.7l1.9 1.6l2 1.5l2 1.3l2.1 1.2l2.1 1.1l2.2 1l2.2 .9l2.3 .7l2.3 .6l2.4 .6l2.3 .4l2.5 .3l2.5 .2l2.6 .1l2.5 -.1l1.2 -.1l.6 -.1h.7l.3 -.1h.3l.6 -.1l1.2 -.1l2.4 -.4l2.3 -.6l1.2 -.3l1.1 -.3l1.1 -.4l1.2 -.3l1.1 -.5l.5 -.2l.6 -.2l2.2 -1l1 -.6l.3 -.1l.2 -.1l.6 -.3l1 -.6l1 -.6l2.1 -1.3l1.9 -1.5l.3 -.2l.2 -.2l.5 -.4l1 -.8l1.9 -1.7l.9 -.9l.9 -.9l.9 -.9l.9 -1l1.6 -1.9l.8 -1l.4 -.5l.1 -.3l.3 -.2l1.4 -2l1.3 -2.1l.6 -1.1l.6 -1l.5 -1.1l.6 -1.1l1 -2.2l.2 -.6l.2 -.5l.4 -1.2l.4 -1.1l.3 -1.2l.4 -1.2l.3 -1.1l.5 -2.4l.4 -2.5l.1 -1.2l.1 -.7v-.3l.1 -.3v-.6l.1 -.7l.1 -1.2v-2.7m21.2 .1l-.1 -3.7l-.3 -3.7l-.2 -1.8l-.2 -1.7l-.6 -3.5l-.7 -3.5l-.4 -1.7l-.5 -1.6l-1 -3.3l-.6 -1.7l-.6 -1.6l-1.4 -3.1l-.8 -1.6l-.8 -1.5l-.8 -1.6l-.9 -1.5l-1.8 -2.9l-2 -2.9l-1.1 -1.4L821.6 332l-2.4 -2.8L818 327.9l-1.2 -1.3l-.1 -.1l-1.3 -1.3l-1.3 -1.3l-1.4 -1.2l-1.3 -1.2L810 320.3l-1.4 -1l-1.4 -1.1l-1.4 -1l-1.4 -1l-1.5 -.9l-1.5 -.9l-1.4 -.8l-1.5 -.8L797 312l-1.6 -.7l-1.5 -.7l-1.6 -.6l-1.5 -.6l-1.7 -.6l-1.6 -.5l-1.6 -.5l-1.7 -.4l-1.6 -.4l-1.7 -.3l-1.7 -.4l-1.7 -.2l-1.8 -.3l-1.7 -.1l-1.8 -.2l-1.7 -.1h-7.3l-1.8 .1l-1.8 .2l-1.7 .1l-1.8 .3l-3.4 .6L751 307l-1.6 .4l-3.3 .9l-3.2 1.1l-1.6 .6l-1.6 .6l-3.1 1.4l-3 1.6l-3 1.7l-2.9 2l-2.8 2l-2.7 2.3l-2.7 2.4l-2.6 2.6h-.1l-.2 .3l-2.4 2.6l-2.3 2.6l-2.2 2.8l-1.9 2.8l-1.9 2.9l-1.6 3l-.8 1.5l-.7 1.5l-1.3 3.1l-1.3 3.1l-1 3.3l-.9 3.3l-.7 3.4l-.6 3.4l-.4 3.5l-.3 3.5l-.1 3.7v2.7l.1 1.9l.1 1.8l.1 1.8l.2 1.8l.2 1.8l.2 1.7l.4 1.8l.3 1.7l.4 1.7l.4 1.7l.5 1.7l.5 1.6l.5 1.7l.6 1.6l.6 1.6l.7 1.6l.7 1.5l.7 1.6l.8 1.5l.8 1.5l.9 1.5l.9 1.5l1 1.5l.9 1.4l1 1.5l1.1 1.4l1.1 1.4l1.2 1.4l1.2 1.4l1.2 1.3l1.3 1.4h.1l1.3 1.3l1.3 1.2l1.3 1.3l1.4 1.2l1.3 1.1l1.4 1.1l2.8 2.1l2.9 1.9l3 1.7l3 1.6l3.1 1.4l1.6 .7l1.6 .6l3.2 1l1.6 .5l1.7 .5l1.6 .3l1.7 .4l3.4 .6l1.8 .2l1.7 .2l1.8 .1l1.8 .2H765l1.9 .1l1.7 -.1h1.9l1.7 -.2l1.8 -.1l1.7 -.2l.9 -.1l.4 -.1h.5l1.7 -.3l1.7 -.3l1.7 -.4l1.7 -.3l1.6 -.5l1.7 -.5l1.6 -.5l.8 -.3l.8 -.2l.8 -.3l.8 -.3l1.5 -.7l.8 -.3l.4 -.2l.4 -.2l1.5 -.7l.7 -.4l.8 -.4l1.5 -.8l1.5 -.9l1.5 -.8l1.4 -1l1.5 -.9l.7 -.6l.7 -.5l1.4 -1l.7 -.6l.3 -.2l.4 -.3l1.4 -1.1l1.3 -1.2l1.3 -1.3l1.3 -1.2l.3 -.4l.4 -.3l.7 -.6l1.6 -1.8l1.6 -1.7l1.5 -1.9l1.5 -1.8l1.3 -1.9l.7 -.9l.7 -.9l.6 -1l.6 -.9l.3 -.5l.3 -.5l.6 -1l1.1 -2l1.1 -2.1l.5 -1.1l.5 -1l.4 -1.1l.5 -1l.8 -2.2l.4 -1.1l.4 -1.1l.3 -1.1l.2 -.6l.2 -.5l.3 -1.2l.1 -.5l.2 -.6l.3 -1.1l.2 -1.2l.3 -1.1l.2 -1.2l.2 -1.2l.1 -.3v-.3l.1 -.5l.2 -1.2l.2 -1.2l.1 -1.2l.1 -1.2l.1 -.6V384l.1 -1.2l.1 -1.3v-1.2l.1 -1.3v-1.3" class="gb_6"/>
<path d="M716.9 377h.2m99.4 .7H766.7" class="gc_6"/>
<path d="M716.6 326.9l.3 .3l14.7 14.6L767 377.4" class="gd_6"/>
<path d="M766.4 379.8l-.3 -.1l-.4 -.2l-.3 -.2l-.3 -.3l-.1 -.2l-.1 -.2l-.1 -.4v-.8l.1 -.4l.2 -.4l.3 -.3l.3 -.3l.4 -.2l.3 -.1h.9l.1 .1h.3l.1 .1l.2 .1l.3 .3l.3 .3l.2 .4l.1 .4v.8l-.1 .2v.2l-.2 .2v.2l-.2 .1l-.1 .2l-.1 .1l-.2 .1l-.2 .1l-.1 .1h-.3v.1H767v.1h-.1Z" class="g7_6"/>
<path d="M56.7 295.4h.7v-.8h-.7v.8Z" class="g8_6"/>
<path d="M57.4 295.4H97.9v-.8H57.4v.8Z" class="g8_6"/>
<path d="M97.9 295.4h.7v-.8h-.7v.8Z" class="g8_6"/>
<path d="M98.6 295.4H684.8v-.8H98.6v.8Z" class="g8_6"/>
<path d="M684.8 295.4h.7v-.8h-.7v.8Z" class="g8_6"/>
<path d="M685.5 295.4H873.9v-.8H685.5v.8Z" class="g8_6"/>
<path d="M873.9 295.4h.8v-.8h-.8v.8Z" class="g8_6"/>
<path d="M56.7 481.8h.7V295.4h-.7V481.8Z" class="g8_6"/>
<path d="M97.9 481.8h.7V295.4h-.7V481.8Z" class="g8_6"/>
<path d="M684.8 481.8h.7V295.4h-.7V481.8Z" class="g8_6"/>
<path d="M873.9 481.8h.8V295.4h-.8V481.8Z" class="g8_6"/>
<path fill-rule="evenodd" d="M57.4 678.1H97.9V482.5H57.4V678.1Z" class="g0_6"/>
<path fill-rule="evenodd" d="M65.3 519.2H90V488.6H65.3v30.6Z" class="g0_6"/>
<path fill-rule="evenodd" d="M65.3 549.8H90V519.2H65.3v30.6Z" class="g0_6"/>
<path fill-rule="evenodd" d="M65.3 580.2H90V549.8H65.3v30.4Z" class="g0_6"/>
<path fill-rule="evenodd" d="M65.3 610.9H90V580.2H65.3v30.7Z" class="g0_6"/>
<path fill-rule="evenodd" d="M65.3 641.5H90V610.9H65.3v30.6Z" class="g0_6"/>
<path fill-rule="evenodd" d="M65.3 671.9H90V641.5H65.3v30.4Z" class="g0_6"/>
<path d="M308.2 584.3l2.2 -1.3m0 0l5.9 11.9m0 0l3.6 -21.4m0 0h9.2m-20.9 21.8h22.4M162.1 646.1l2.2 -1.3m0 0l5.8 11.9m0 0l3.7 -21.5m0 0H183m-20.9 -3.3h22.3m62.7 31.9h9.2" class="g1_6"/>
<path d="M727.9 630.1v0l.1 -.1l-.1 .1Z" class="g0_6"/>
<path d="M727.7 527.9l.1 -.1l.1 -.1l.1 .1v.5Z" class="g9_6"/>
<path d="M748.3 525.4l1.6 -1l1.7 -.9l1.7 -.9l1.8 -.8l1.8 -.7l1.8 -.6l1.9 -.6l1.9 -.6l1.8 -.5l1.9 -.4l2 -.3l2 -.3l2 -.2l2 -.2l2 -.1h3.6l1.6 .1l3 .2l1.4 .1l1.5 .2l1.5 .2l1.5 .3l2.8 .6l1.4 .4l1.4 .4l1.3 .4l1.4 .5l1.3 .5l1.4 .6l1.3 .5l1.3 .6l1.3 .7l1.3 .7l1.2 .7l1.3 .7l2.4 1.7l1.2 .8l1.2 .9l1.2 .9l1.2 1l2.2 2.1l1.2 1l1.1 1.2l1.2 1.3l1.2 1.3l1.2 1.4l1.1 1.4l1.1 1.4l1 1.4l1 1.5l.9 1.4l-50.9 32.3Z" class="ge_6"/>
<path d="M775.2 639.8l-3 -.1l-3 -.4l-1.4 -.2l-1.4 -.3l-1.5 -.3l-1.4 -.4l-2.8 -.7l-2.7 -1l-2.7 -1l-1.3 -.6l-1.3 -.6l-2.6 -1.3l-1.3 -.7l-1.2 -.8l-2.4 -1.6l-2.4 -1.7l-2.4 -1.9l-1.1 -1l-1.1 -1.1L736 622l-1.1 -1.2l-1.1 -1.1l-2 -2.4L730 615l-.9 -1.3l-.8 -1.2L726.7 610l-.8 -1.3l-.7 -1.2l-.7 -1.4l-.6 -1.3l-.6 -1.3l-.5 -1.3l-.6 -1.4l-.5 -1.4l-.5 -1.4l-.4 -1.4l-.4 -1.4l-.3 -1.5l-.6 -2.9l-.3 -1.5l-.2 -1.4l-.3 -3.1l-.2 -3.1l-.1 -1.5v-1.6l.1 -3.2l.2 -3.1l.3 -3l.5 -2.9l.6 -3l.7 -2.8l.9 -2.8l1.1 -2.7l1.1 -2.7l1.3 -2.6l1.5 -2.6l1.6 -2.5l1.7 -2.5l1.8 -2.4l2 -2.3l2.2 -2.2l1.4 -1.5l1.5 -1.4l1.5 -1.3l1.5 -1.3l1.5 -1.2l1.6 -1.1l1.6 -1.1l1.7 -1l30.2 53.3l-.3 .1l.3 -.1l50.9 -32.3l1.1 1.8l1 1.8l.9 1.9l.9 1.9l.7 1.8l.8 2l.6 2l.6 2l.5 2l.5 2l.3 2.1l.4 2.2l.2 2.1l.2 2.1l.1 2.3v3.8l-.1 1.5l-.1 3.1l-.4 3.1l-.1 .7l-.1 .7l-.3 1.5l-.3 1.5l-.3 1.4l-.4 1.5l-.4 1.4l-.4 1.4l-.3 .7l-.1 .3l-.1 .4l-.5 1.4l-.5 1.4l-.5 1.3l-.7 1.3l-.3 .7l-.3 .6l-.7 1.4l-.7 1.2l-.7 1.3l-1.5 2.5l-.9 1.2l-.9 1.3l-1.8 2.3l-1 1.2l-1 1.2l-1.1 1.1l-1 1.2l-1.1 1l-1.2 1.1l-1.1 1.1l-1.1 1l-1.2 .9l-1.2 1l-1.2 .8l-1.2 .9l-2.4 1.6l-1.3 .8l-1.2 .7l-1.3 .6l-.7 .4l-.6 .3l-1.3 .6l-1.3 .6l-1.4 .5l-1.3 .5l-.3 .1l-.4 .2l-.7 .2l-1.3 .5l-1.4 .4l-1.4 .3l-1.4 .4l-1.4 .3l-1.5 .3l-.8 .1l-.7 .1l-1.5 .2l-1.4 .2l-3 .1l-1.6 .1l-1.5 .1Z" class="ge_6"/>
<path d="M776.2 651.4l-1.8 -.1l-1.8 -.1l-1.8 -.1l-1.8 -.2l-1.7 -.2l-3.4 -.6l-1.7 -.4l-1.7 -.4l-1.6 -.4l-1.7 -.5L754 647.3l-1.6 -.6l-1.6 -.6l-3.1 -1.4l-3 -1.6l-3 -1.8l-2.9 -1.9l-2.8 -2l-1.4 -1.1l-1.4 -1.2l-1.3 -1.2l-1.3 -1.2l-1.4 -1.3l-1.3 -1.3l.1 -.1l-.1 .1l-1.3 -1.4l-1.3 -1.3L724.1 626L723 624.6l-1.1 -1.4l-1.1 -1.4l-1 -1.5l-1 -1.4l-1 -1.5l-.9 -1.5l-.9 -1.5l-.8 -1.5l-.8 -1.5l-.7 -1.6l-.7 -1.6l-.6 -1.5l-.7 -1.6l-.6 -1.6l-.5 -1.7l-.5 -1.7l-.5 -1.7l-.4 -1.6l-.4 -1.7l-.3 -1.7l-.3 -1.8l-.3 -1.8l-.2 -1.8l-.2 -1.7l-.1 -1.9l-.1 -1.7l-.1 -1.9l.1 -1.8l-.1 -.5l.1 -.5l.1 -3.6l.2 -3.6l.4 -3.5l.6 -3.4l.7 -3.4l.9 -3.3l1.1 -3.2l1.2 -3.1l1.3 -3.2l.7 -1.5l.8 -1.5l1.7 -3l1.8 -2.8l2 -2.9l2.1 -2.8l1.1 -1.3l1.2 -1.4l2.5 -2.6l.3 .4v-.5l-.1 -.1l1.8 -1.8l1.8 -1.7l1.7 -1.6l1.9 -1.5l1.8 -1.4l1.9 -1.4l2 -1.3l2 -1.2l.5 .9H743l-35 62.2L743.2 641l70.1 -.1l35 -62.3L829.9 546.2L813.1 516.5l-69.8 .2l-.5 -.9l1.9 -1.1l2 -1.1l2.1 -1l2 -.9l2.1 -.9l2.2 -.7l2.1 -.7l2.2 -.6l2.2 -.6l2.3 -.5l2.2 -.4l2.4 -.3l2.3 -.3l2.4 -.1l2.4 -.1l2.5 -.1h1.7l1.9 .1l1.7 .1l1.8 .1l1.7 .2l1.8 .3l1.7 .2l1.7 .4l1.7 .3l1.7 .4l1.6 .4l1.7 .5l1.6 .5l1.6 .6l1.6 .6l1.6 .6l1.5 .7l1.5 .7l1.5 .8l1.6 .8l1.5 .8l1.4 .9l1.5 .9l1.5 1l1.3 1l1.5 1.1l1.3 1.1l1.4 1.2l1.3 1.1l1.4 1.3l1.3 1.2l1.4 1.4l1.2 1.3l1.3 1.3l2.3 2.8l1.1 1.4l1.1 1.4l1 1.4l1 1.5l1.9 2.9l1.7 3.1l.8 1.5l.7 1.6l.7 1.5l.7 1.6l.6 1.6l.6 1.7l1.1 3.3l.4 1.6l.5 1.7l.7 3.5l.6 3.5l.2 1.7l.2 1.9l.2 3.6l.2 3.7v.2l-.1 .3v2.2l-.1 1.2v1.2l-.1 1.2l-.1 .6v.7l-.1 1.2l-.2 1.2l-.1 1.2l-.2 1.2l-.1 .5l-.1 .3v.3l-.2 1.2l-.2 1.2l-.3 1.1l-.3 1.2l-.2 1.1l-.2 .6l-.2 .5l-.3 1.2l-.1 .5l-.2 .6l-.3 1.1l-.4 1.1l-.4 1.1l-.8 2.2l-.5 1l-.5 1.1l-.5 1l-.4 1.1l-1.1 2.1l-1.1 2.1l-.6 .9l-.4 .5l-.2 .5l-.7 .9l-.6 1l-.7 .9l-.6 1l-1.4 1.9l-1.5 1.8l-1.5 1.8l-1.6 1.8l-1.6 1.7l-.7 .7l-.3 .3l-.3 .3l-1.4 1.3l-1.3 1.2l-1.3 1.2l-1.4 1.2l-.4 .2l-.3 .3l-.7 .6l-1.4 1l-.7 .5l-.7 .5l-1.5 1l-1.4 .9l-1.5 .9l-1.5 .9l-1.5 .8l-.8 .4l-.7 .4l-1.6 .7l-.4 .1l-.4 .2l-.7 .4l-1.6 .6l-.8 .3l-.8 .3l-.8 .3l-.8 .3l-1.6 .5l-1.7 .5l-1.6 .4l-1.7 .4l-1.6 .4l-1.8 .3l-1.7 .3h-.9l-.8 .2l-1.8 .2l-1.8 .1l-1.7 .1l-1.9 .1h-1.7Z" class="gf_6"/>
<path d="M820.7 535.3l-1.1 -1.2l-1.2 -1L816.2 531L815 530l-1.2 -.9l-1.2 -.9l-1.2 -.8L809 525.7l-1.3 -.7l-1.2 -.7l-1.3 -.7l-1.3 -.7l-1.3 -.6l-1.3 -.5l-1.4 -.6l-1.3 -.5l-1.4 -.5l-1.3 -.4l-1.4 -.4l-1.4 -.4l-2.8 -.6l-1.5 -.3l-1.5 -.2l-1.5 -.2l-1.4 -.1l-3 -.2l-1.6 -.1h-3.6l-2 .1l-2 .2l-2 .2l-2 .3l-2 .3l-1.9 .4l-1.8 .5l-1.9 .6l-1.9 .6l-1.8 .6l-1.8 .7l-1.8 .8l-1.7 .9l-1.7 .9l-1.6 1l-1.7 1l-1.6 1.1l-1.6 1.1l-1.5 1.2l-1.5 1.3l-1.5 1.3l-1.5 1.4l-1.4 1.5l-2.2 2.2l-2 2.3l-1.8 2.4l-1.7 2.5l-1.6 2.5l-1.5 2.6l-1.3 2.6l-1.1 2.7l-1.1 2.7l-.9 2.8l-.7 2.8l-.6 3l-.5 2.9l-.3 3.1l-.2 3l-.1 3.2v1.6l.1 1.5l.2 3.1l.3 3.1l.2 1.4l.3 1.5l.6 2.9l.3 1.5l.4 1.4l.4 1.4l.5 1.4l.5 1.4l.6 1.4l.5 1.3l.6 1.3l.6 1.3l.7 1.4l.7 1.2l.8 1.3l1.6 2.5l.8 1.2l.9 1.3l1.8 2.3l2 2.4l1.1 1.1L736 622l2.2 2.1l1.1 1.1l1.1 1l2.4 1.9l2.4 1.7l2.4 1.6l1.2 .8l1.3 .7l2.6 1.3l1.3 .6l1.3 .6l2.7 1l2.7 1l2.8 .7l1.4 .4l1.5 .3l1.4 .3l1.4 .2l3 .4l3 .1l3.1 .2l1.5 -.1l1.6 -.1l3 -.1l1.4 -.2l1.5 -.2l.7 -.1l.8 -.1l1.5 -.3l1.4 -.3l1.4 -.4l1.4 -.3l1.4 -.4l1.3 -.5l.7 -.2l.4 -.2l.3 -.1l1.3 -.5l1.4 -.5l1.3 -.6l1.3 -.6l.6 -.3l.7 -.4l1.3 -.6l1.2 -.7l1.3 -.8l2.4 -1.6l1.2 -.9l1.2 -.8l1.2 -1l1.2 -.9l1.1 -1l1.1 -1.1l1.2 -1.1l1.1 -1l1 -1.2l1.1 -1.1l1 -1.2l1 -1.2l1.8 -2.3l.9 -1.3l.9 -1.2l1.5 -2.5l.7 -1.3l.7 -1.2l.7 -1.4l.3 -.6l.3 -.7l.7 -1.3l.5 -1.3l.5 -1.4l.5 -1.4l.1 -.4l.1 -.3l.3 -.7l.4 -1.4l.4 -1.4l.4 -1.5l.3 -1.4l.3 -1.5l.3 -1.5l.1 -.7l.1 -.7l.4 -3.1l.1 -3.1l.1 -1.5v-3.8l-.1 -2.3l-.2 -2.1l-.2 -2.1l-.4 -2.2l-.3 -2.1l-.5 -2l-.5 -2l-.6 -2l-.6 -2l-.8 -2l-.7 -1.8l-.9 -1.9l-.9 -1.9l-1 -1.8l-1.1 -1.8l-.9 -1.4l-1 -1.5l-1 -1.4l-1.1 -1.4l-1.1 -1.4l-1.2 -1.4l-1.2 -1.3l-1.2 -1.3m-7.6 -18.8l-69.8 .2H743l-35 62.2L743.2 641l70.1 -.1l35 -62.3L829.9 546.2L813.1 516.5m35.8 62.3l-.2 -3.7l-.2 -3.6l-.2 -1.9l-.2 -1.7l-.6 -3.5l-.7 -3.5l-.5 -1.7l-.4 -1.6l-1.1 -3.3l-.6 -1.7l-.6 -1.6l-.7 -1.6l-.7 -1.5l-.7 -1.6l-.8 -1.5L839 541.7l-1.9 -2.9l-1 -1.5l-1 -1.4L834 534.5l-1.1 -1.4l-2.3 -2.8L829.3 529l-1.2 -1.3l-1.4 -1.4l-1.3 -1.2L824 523.8l-1.3 -1.1l-1.4 -1.2L820 520.4l-1.5 -1.1l-1.3 -1l-1.5 -1l-1.5 -.9l-1.4 -.9l-1.5 -.8l-1.6 -.8l-1.5 -.8l-1.5 -.7l-1.5 -.7l-1.6 -.6l-1.6 -.6l-1.6 -.6l-1.6 -.5l-1.7 -.5l-1.6 -.4l-1.7 -.4l-1.7 -.3l-1.7 -.4l-1.7 -.2l-1.8 -.3l-1.7 -.2l-1.8 -.1l-1.7 -.1l-1.9 -.1h-1.7l-2.5 .1l-2.4 .1l-2.4 .1l-2.3 .3l-2.4 .3l-2.2 .4l-2.3 .5l-2.2 .6l-2.2 .6l-2.1 .7l-2.2 .7l-2.1 .9l-2 .9l-2.1 1l-2 1.1l-1.9 1.1l-2 1.2l-2 1.3l-1.9 1.4l-1.8 1.4l-1.9 1.5l-1.7 1.6l-1.8 1.7l-1.8 1.8l-.1 .1l-.1 .1l-2.5 2.6l-1.2 1.4l-1.1 1.3l-2.1 2.8l-2 2.9l-1.8 2.8l-1.7 3l-.8 1.5l-.7 1.5l-1.3 3.2l-1.2 3.1l-1.1 3.2l-.9 3.3l-.7 3.4l-.6 3.4l-.4 3.5l-.2 3.6l-.1 3.6l-.1 .5l.1 .5l-.1 1.8l.1 1.9l.1 1.8l.1 1.8l.2 1.7l.2 1.8l.3 1.8l.3 1.8l.3 1.7l.4 1.7l.4 1.6l.5 1.7l.5 1.7l.5 1.7l.6 1.6l.7 1.6l.6 1.5l.7 1.6l.7 1.6l.8 1.5l.8 1.5l.9 1.5l.9 1.5l1 1.5l1 1.4l1 1.5l1.1 1.4l1.1 1.4l1.1 1.4l1.2 1.4l1.3 1.3l1.3 1.4l1.3 1.3l1.4 1.3l1.3 1.2l1.3 1.2l1.4 1.2l1.4 1.1l2.8 2l2.9 1.9l3 1.8l3 1.6l3.1 1.4l1.6 .6l1.6 .6l3.2 1.1l1.7 .5l1.6 .4l1.7 .4l1.7 .4l3.4 .6l1.7 .2l1.8 .2l1.8 .1l1.8 .1l1.8 .1h3.6l1.9 -.1l1.7 -.1l1.8 -.1l1.8 -.2l.8 -.2h.9l1.7 -.3l1.8 -.3l1.6 -.4l1.7 -.4l1.6 -.4l1.7 -.5l1.6 -.5l.8 -.3l.8 -.3l.8 -.3l.8 -.3l1.6 -.6l.7 -.4l.4 -.2l.4 -.1l1.6 -.7l.7 -.4l.8 -.4l1.5 -.8l1.5 -.9l1.5 -.9l1.4 -.9l1.5 -1l.7 -.5l.7 -.5l1.4 -1l.7 -.6l.3 -.3l.4 -.2l1.4 -1.2l1.3 -1.2l1.3 -1.2l1.4 -1.3l.3 -.3l.3 -.3l.7 -.7l1.6 -1.7l1.6 -1.8l1.5 -1.8l1.5 -1.8l1.4 -1.9l.6 -1l.7 -.9l.6 -1l.7 -.9l.2 -.5l.4 -.5l.6 -.9l1.1 -2.1l1.1 -2.1l.4 -1.1l.5 -1l.5 -1.1l.5 -1l.8 -2.2l.4 -1.1l.4 -1.1l.3 -1.1l.2 -.6l.1 -.5l.3 -1.2l.2 -.5l.2 -.6l.2 -1.1l.3 -1.2l.3 -1.1l.2 -1.2l.2 -1.2V592l.1 -.3l.1 -.5l.2 -1.2l.1 -1.2l.2 -1.2l.1 -1.2v-.7l.1 -.6l.1 -1.2v-1.2l.1 -1.2v-2.2l.1 -.3v-.2" class="gg_6"/>
<path d="M742.8 515.8l.5 .9l5 8.7l30.2 53.3" class="gh_6"/>
<path d="M829.9 546.2l-.5 .2l-50.9 32.3l-.3 .1" class="gi_6"/>
<path d="M778 580.7l-.3 -.1l-.3 -.2l-.3 -.2l-.3 -.3l-.2 -.4v-.3l-.1 -.4l.1 -.4v-.3l.2 -.4l.3 -.2l.3 -.3l.3 -.2l.3 -.1h.8l.3 .1l.3 .2l.3 .3l.3 .2l.2 .4l.1 .3v.8l-.1 .1v.2l-.2 .4l-.3 .3l-.3 .2l-.3 .2l-.2 .1h-.1l-.2 .1h-.2Z" class="g7_6"/>
<path d="M56.7 482.5h.7v-.7h-.7v.7Z" class="g8_6"/>
<path d="M57.4 482.5H97.9v-.7H57.4v.7Z" class="g8_6"/>
<path d="M97.9 482.5h.7v-.7h-.7v.7Z" class="g8_6"/>
<path d="M98.6 482.5H684.8v-.7H98.6v.7Z" class="g8_6"/>
<path d="M684.8 482.5h.7v-.7h-.7v.7Z" class="g8_6"/>
<path d="M685.5 482.5H873.9v-.7H685.5v.7Z" class="g8_6"/>
<path d="M873.9 482.5h.8v-.7h-.8v.7Z" class="g8_6"/>
<path d="M56.7 678.1h.7V482.5h-.7V678.1Z" class="g8_6"/>
<path d="M56.7 678.9h.7v-.8h-.7v.8Z" class="g8_6"/>
<path d="M56.7 678.9h.7v-.8h-.7v.8Z" class="g8_6"/>
<path d="M57.4 678.9H97.9v-.8H57.4v.8Z" class="g8_6"/>
<path d="M97.9 678.1h.7V482.5h-.7V678.1Z" class="g8_6"/>
<path d="M97.9 678.9h.7v-.8h-.7v.8Z" class="g8_6"/>
<path d="M98.6 678.9H684.8v-.8H98.6v.8Z" class="g8_6"/>
<path d="M684.8 678.1h.7V482.5h-.7V678.1Z" class="g8_6"/>
<path d="M684.8 678.9h.7v-.8h-.7v.8Z" class="g8_6"/>
<path d="M685.5 678.9H873.9v-.8H685.5v.8Z" class="g8_6"/>
<path d="M873.9 678.1h.8V482.5h-.8V678.1Z" class="g8_6"/>
<path d="M873.9 678.9h.8v-.8h-.8v.8Z" class="g8_6"/>
<path d="M873.9 678.9h.8v-.8h-.8v.8Z" class="g8_6"/>
<path fill-rule="evenodd" d="M71.1 817.1H180.4v-55H71.1v55Z" class="g0_6"/>
<path d="M79 789.6h93.5V762.1H79v27.5Z" class="g0_6"/>
<path d="M79 817.1h93.5V789.6H79v27.5Z" class="g0_6"/>
<path d="M70.4 762.1h.7v-.7h-.7v.7Z" class="g8_6"/>
<path d="M70.4 762.1h.7v-.7h-.7v.7Z" class="g8_6"/>
<path d="M71.1 762.1H180.4v-.7H71.1v.7Z" class="g8_6"/>
<path d="M180.4 762.1h.7v-.7h-.7v.7Z" class="g8_6"/>
<path d="M181.1 762.1H861.9v-.7H181.1v.7Z" class="g8_6"/>
<path d="M861.9 762.1h.7v-.7h-.7v.7Z" class="g8_6"/>
<path d="M861.9 762.1h.7v-.7h-.7v.7Z" class="g8_6"/>
<path d="M70.4 817.1h.7v-55h-.7v55Z" class="g8_6"/>
<path d="M180.4 817.1h.7v-55h-.7v55Z" class="g8_6"/>
<path d="M861.9 817.1h.7v-55h-.7v55Z" class="g8_6"/>
<path fill-rule="evenodd" d="M71.1 845.3H180.4V817.8H71.1v27.5Z" class="g0_6"/>
<path d="M79 845.3h93.5V817.8H79v27.5Z" class="g0_6"/>
<path d="M70.4 817.8h.7v-.7h-.7v.7Z" class="g8_6"/>
<path d="M71.1 817.8H180.4v-.7H71.1v.7Z" class="g8_6"/>
<path d="M180.4 817.8h.7v-.7h-.7v.7Z" class="g8_6"/>
<path d="M181.1 817.8H861.9v-.7H181.1v.7Z" class="g8_6"/>
<path d="M861.9 817.8h.7v-.7h-.7v.7Z" class="g8_6"/>
<path d="M70.4 845.3h.7V817.8h-.7v27.5Z" class="g8_6"/>
<path d="M180.4 845.3h.7V817.8h-.7v27.5Z" class="g8_6"/>
<path d="M861.9 845.3h.7V817.8h-.7v27.5Z" class="g8_6"/>
<path fill-rule="evenodd" d="M71.1 873.6H180.4V846.1H71.1v27.5Z" class="g0_6"/>
<path d="M79 873.6h93.5V846.1H79v27.5Z" class="g0_6"/>
<path d="M70.4 846.1h.7v-.8h-.7v.8Z" class="g8_6"/>
<path d="M71.1 846.1H180.4v-.8H71.1v.8Z" class="g8_6"/>
<path d="M180.4 846.1h.7v-.8h-.7v.8Z" class="g8_6"/>
<path d="M181.1 846.1H861.9v-.8H181.1v.8Z" class="g8_6"/>
<path d="M861.9 846.1h.7v-.8h-.7v.8Z" class="g8_6"/>
<path d="M70.4 873.6h.7V846.1h-.7v27.5Z" class="g8_6"/>
<path d="M180.4 873.6h.7V846.1h-.7v27.5Z" class="g8_6"/>
<path d="M861.9 873.6h.7V846.1h-.7v27.5Z" class="g8_6"/>
<path fill-rule="evenodd" d="M71.1 902H180.4V874.5H71.1V902Z" class="g0_6"/>
<path d="M79 902h93.5V874.5H79V902Z" class="g0_6"/>
<path d="M70.4 874.3h.7v-.7h-.7v.7Z" class="g8_6"/>
<path d="M71.1 874.3H180.4v-.7H71.1v.7Z" class="g8_6"/>
<path d="M180.4 874.3h.7v-.7h-.7v.7Z" class="g8_6"/>
<path d="M181.1 874.3H861.9v-.7H181.1v.7Z" class="g8_6"/>
<path d="M861.9 874.3h.7v-.7h-.7v.7Z" class="g8_6"/>
<path d="M70.4 902h.7V874.3h-.7V902Z" class="g8_6"/>
<path d="M180.4 902h.7V874.3h-.7V902Z" class="g8_6"/>
<path d="M861.9 902h.7V874.3h-.7V902Z" class="g8_6"/>
<path fill-rule="evenodd" d="M71.1 1067.7H180.4v-165H71.1v165Z" class="g0_6"/>
<path d="M79 930.2h93.5V902.7H79v27.5Z" class="g0_6"/>
<path d="M232.9 948.3l-.5 -.1m.5 -.1h-.3l-.2 .1m.9 -.2h-.2l-.2 .1m0 .2l.4 -.3m-.4 .3v0m.1 0h-.1m0 0h.1m-.1 -.2v.2m50 10.5L282 958l-.9 -.8l-.9 -.8l-.9 -.7l-1 -.7l-1 -.7l-.9 -.6l-1 -.7l-2 -1.2l-1 -.5l-1 -.6l-1.1 -.5l-1 -.4l-2.1 -.9l-1.1 -.4l-1 -.4l-2.2 -.7l-1.2 -.3l-1.1 -.2l-1.1 -.3l-1.1 -.2l-1.2 -.2l-1.2 -.1l-1.2 -.2l-1.1 -.1l-1.3 -.1h-1.1l-1.3 -.1h-3.2l-2 .1l-2 .2l-2 .3l-1.9 .3l-1.9 .4l-1.9 .5l-1.8 .6m-.9 .2l-1.4 .5l-1.3 .5l-1.4 .5l-1.3 .7l-1.3 .6l-1.3 .7l-1.2 .8l-1.3 .7l-2.4 1.7l-1.2 .9l-1.2 1l-2.3 2l-1.2 1l-1.1 1.2l-1 1l-.9 1l-1.8 2.1l-1.7 2.2l-.7 1.1l-.7 1.2l-1.4 2.2l-.7 1.2l-.6 1.2l-.6 1.2l-.5 1.2l-1 2.5m0 0l-.8 2.2l-.7 2.3l-.6 2.3l-.4 2.3l-.4 2.4l-.3 2.5l-.1 2.5l-.1 2.6v1.3l.1 1.3v1.4l.2 1.3l.1 1.3l.1 1.3l.2 1.2l.3 1.3l.2 1.2l.3 1.3l.3 1.2l.3 1.2l.4 1.2l.4 1.2l.4 1.2l.5 1.2l.4 1.1l.5 1.1l.6 1.1l.5 1.2l.6 1l.7 1.1l.6 1.1l.7 1.1l.7 1l.7 1.1l.8 1l.8 1.1l.8 .9l.9 1l.9 1l.9 1M200.9 979.1l.6 -.6m10.9 56.7l.1 .1l1.9 1.9l2 1.7l1 .8l1 .8l2 1.6l1 .6l1.1 .7l2.2 1.3l2.1 1.1l1.2 .6l1.1 .5l2.3 .8l1.1 .4l1.2 .4l2.4 .7l2.5 .6l2.4 .4l2.6 .3l1.3 .1h1.3l1.3 .1h2.8l1.5 -.1l1.4 -.1l1.4 -.1l1.4 -.2l1.4 -.2h.4l.3 -.1l.7 -.1l1.4 -.3m-47.8 -14.3L201.5 978.5m96.7 34.5v-.2l.2 -.9l.2 -.9l.2 -.9l.2 -.9l.4 -1.8l.2 -1.7v-.4l.1 -.1v-.5l.1 -.9l.2 -1.9l.1 -1.8v-3.3l-.1 -1.4v-1.3l-.1 -1.3l-.3 -2.6l-.4 -2.6l-.6 -2.5l-.6 -2.4l-.4 -1.2l-.4 -1.2l-.8 -2.3l-.5 -1.2l-.6 -1.2l-1.1 -2.2L293 971.2l-.7 -1.1l-.6 -1l-1.5 -2.2l-.8 -1l-.8 -1l-1.7 -2L285.1 961l-1 -1.1m0 0l-1.1 -.2m-22.8 89.8l.9 -.2l.8 -.2l.9 -.2l.2 -.1l.2 -.1l.5 -.1l.4 -.1l.2 -.1l.2 -.1l.8 -.2l.9 -.3l.8 -.3l.8 -.4l.4 -.2l.4 -.1l.8 -.4l.8 -.3l1.6 -.8l1.6 -.9l.8 -.5l.8 -.4l.7 -.5l.4 -.3l.4 -.2l1.5 -1l.7 -.6l.8 -.5l.7 -.6l.3 -.4l.2 -.1l.2 -.1l.7 -.7l.3 -.3l.2 -.1l.2 -.1l1.4 -1.3l1.4 -1.4l.1 -.2l.2 -.1l.3 -.3l.6 -.6l.5 -.7l.6 -.6l.5 -.6l.6 -.7l1 -1.3l1 -1.3l.9 -1.3l.9 -1.4l.2 -.4l.1 -.1l.1 -.2l.5 -.7l.7 -1.4l.8 -1.4l.1 -.4l.2 -.3l.4 -.8l.1 -.3l.2 -.4l.3 -.7l.3 -.8l.3 -.7l.6 -1.5l.5 -1.5l.2 -.8l.3 -.8m0 0L283 959.7m1.1 .2l-.6 -.5l-.5 -.6m0 .9v-.9m-70.6 76.4l47.5 13.7M201.5 978.5l31.4 -30.2M283 959.7L233 948.3m27.2 101.2l38 -36.5" class="gj_6"/>
<path d="M233 948.3l.6 1.8m.6 1.7l.6 1.7m.6 1.7l.7 1.7m.6 1.7l.6 1.8m.6 1.7l.6 1.7m.6 1.7l.6 1.7m.7 1.7l.6 1.7m.6 1.8l.6 1.7m.6 1.7l.6 1.7m.6 1.7l.5 1.7m.7 1.7l.5 1.8m.6 1.7l.5 1.7m.7 1.7l.5 1.7m.6 1.7l.5 1.7m.7 1.7l.1 .6" class="gk_6"/>
<path d="M249.8 999.2l-.4 -.1l-.4 -.2l-.3 -.3l-.3 -.4l-.2 -.3l-.1 -.4L248 997l.1 -.4l.1 -.5l.2 -.3l.3 -.4l.3 -.3l.4 -.2l.4 -.1h.9l.4 .1l.3 .2l.4 .3l.3 .4l.2 .3l.1 .5l.1 .4l-.1 .2v.3l-.1 .4l-.2 .3l-.3 .4l-.4 .3l-.3 .2l-.4 .1h-.1l-.1 .1h-.2Z" class="g7_6"/>
<path d="M70.4 902.7h.7V902h-.7v.7Z" class="g8_6"/>
<path d="M71.1 902.7H180.4V902H71.1v.7Z" class="g8_6"/>
<path d="M180.4 902.7h.7V902h-.7v.7Z" class="g8_6"/>
<path d="M181.1 902.7H861.9V902H181.1v.7Z" class="g8_6"/>
<path d="M861.9 902.7h.7V902h-.7v.7Z" class="g8_6"/>
<path d="M70.4 1067.7h.7v-165h-.7v165Z" class="g8_6"/>
<path d="M70.4 1068.5h.7v-.8h-.7v.8Z" class="g8_6"/>
<path d="M70.4 1068.5h.7v-.8h-.7v.8Z" class="g8_6"/>
<path d="M71.1 1068.5H180.4v-.8H71.1v.8Z" class="g8_6"/>
<path d="M180.4 1067.7h.7v-165h-.7v165Z" class="g8_6"/>
<path d="M180.4 1068.5h.7v-.8h-.7v.8Z" class="g8_6"/>
<path d="M181.1 1068.5H861.9v-.8H181.1v.8Z" class="g8_6"/>
<path d="M861.9 1067.7h.7v-165h-.7v165Z" class="g8_6"/>
<path d="M861.9 1068.5h.7v-.8h-.7v.8Z" class="g8_6"/>
<path d="M861.9 1068.5h.7v-.8h-.7v.8Z" class="g8_6"/>
<path d="M68.6 702.7l-.9 -.1l-.8 -.3l-.7 -.4l-.7 -.5l-.3 -.4l-.2 -.3l-.4 -.7l-.2 -.8l-.1 -.9V685.7l.1 -.9l.2 -.8l.4 -.7l.5 -.7l.7 -.6l.7 -.3l.8 -.3H82l.3 .1l.5 .2l.6 .3l.4 .3l.3 .3l.6 .7l.4 .7l.2 .8l.1 .9v13l-.1 .1v.4l-.2 .8l-.2 .3l-.1 .2l-.1 .2l-.3 .3l-.2 .2v.1h-.1v.1l-.3 .2l-.4 .3l-.2 .1l-.1 .1l-.3 .2l-.5 .1h-.1l-.1 .1l-.1 .1h-.5l-.4 .1Z" class="gl_6"/>
<path d="M71.6 1091.6l-.9 -.1l-.8 -.2l-.7 -.4l-.7 -.5l-.3 -.4l-.3 -.3l-.3 -.7l-.3 -.9v-14.3l.3 -.8l.3 -.8l.6 -.6l.7 -.6l.7 -.4l.8 -.2H85l.3 .1l.4 .1l.7 .4l.3 .3l.4 .3l.6 .6l.4 .8l.2 .8l.1 .9v13l-.1 .1v.3l-.2 .9l-.2 .3l-.1 .2l-.1 .2l-.3 .3l-.2 .2h-.1v.2l-.4 .2l-.3 .3l-.2 .1l-.1 .1l-.4 .2l-.4 .1h-.1l-.1 .1h-.5l-.1 .1h-.4Z" class="gl_6"/>
</svg>