<?xml version="1.0" encoding="UTF-8" standalone="no"?>
<!DOCTYPE svg PUBLIC "-//W3C//DTD SVG 1.1//EN"
"http://www.w3.org/Graphics/SVG/1.1/DTD/svg11.dtd">
<svg viewBox="0 0 909 1286" version="1.1" xmlns="http://www.w3.org/2000/svg" xmlns:xlink="http://www.w3.org/1999/xlink">
<defs>
<clipPath id="c0_6"><path d="M-.2 1286.6v-74.9h910v74.9Z"/></clipPath>
<clipPath id="c1_6"><path d="M688.8 201.6V68H828.5V201.6Z"/></clipPath>
<clipPath id="c2_6"><path d="M714.2 337.5V209.8H843.5V337.5Z"/></clipPath>
<clipPath id="c3_6"><path d="M684.5 598.8V495.1H837.2V598.8Z"/></clipPath>
<style type="text/css"><![CDATA[
.g0_6{
fill: #000;
}
.g1_6{
fill: none;
stroke: #000;
stroke-width: 0.907;
stroke-linecap: square;
stroke-miterlimit: 10;
}
.g2_6{
fill: none;
stroke: #000;
stroke-width: 0.909;
stroke-linecap: square;
stroke-miterlimit: 10;
}
.g3_6{
fill: none;
stroke: #000;
stroke-width: 0.765;
stroke-linecap: square;
stroke-miterlimit: 10;
}
.g4_6{
fill: none;
stroke: #000;
stroke-width: 0.905;
stroke-linecap: square;
stroke-miterlimit: 10;
}
.g5_6{
fill: none;
stroke: #000;
stroke-width: 0.763;
stroke-linecap: square;
stroke-miterlimit: 10;
}
.g6_6{
fill: none;
stroke: #000;
stroke-width: 0.761;
stroke-linecap: square;
stroke-miterlimit: 10;
}
.g7_6{
fill: none;
stroke: #000;
stroke-width: 1.527;
stroke-linecap: square;
stroke-miterlimit: 10;
}
.g8_6{
fill: none;
stroke: #000;
stroke-width: 0.762;
stroke-linecap: square;
stroke-miterlimit: 10;
}
.g9_6{
fill: none;
stroke: #000;
stroke-width: 1.524;
stroke-linecap: square;
stroke-miterlimit: 10;
}
.ga_6{
fill: #FFF;
fill-opacity: 0;
}
.gb_6{
fill: none;
stroke: #000;
stroke-width: 1.145;
stroke-linecap: round;
stroke-linejoin: round;
}
.gc_6{
fill: none;
stroke: #000;
stroke-width: 0.763;
stroke-linejoin: round;
}
.gd_6{
fill: none;
stroke: #000;
stroke-width: 0.763;
stroke-linecap: round;
stroke-linejoin: round;
}
.ge_6{
fill: none;
stroke: #000;
stroke-width: 1.145;
stroke-linejoin: round;
}
.gf_6{
fill: none;
stroke: #000;
stroke-width: 0.763;
stroke-linejoin: round;
stroke-dasharray: 4,3;
}
]]></style>
</defs>
<image clip-path="url(#c0_6)" preserveAspectRatio="none" x="-4" y="1212" width="952" height="131" xlink:href="img/1.jpg"/>
<path d="M185.5 114.9h36.7V114H185.5v.9Z" class="g0_6"/>
<path d="M185.5 116.8h36.7v-.9H185.5v.9Z" class="g0_6"/>
<path d="M110.5 244.2h22.4" class="g1_6"/>
<path d="M257.2 272.1h23.3" class="g2_6"/>
<path d="M128.9 704.7h24.4" class="g3_6"/>
<path d="M136.1 733.7h24.4" class="g2_6"/>
<path d="M176.8 733.7h34.5m42.9 0h28.6" class="g1_6"/>
<path d="M299.6 733.7H331" class="g4_6"/>
<path d="M371.3 733.7h28.6" class="g2_6"/>
<path d="M424.8 733.7h34.5" class="g1_6"/>
<path d="M511.9 733.7h31.3" class="g4_6"/>
<path d="M568.3 733.7h34.6" class="g1_6"/>
<path d="M259.8 813.4h23.3" class="g3_6"/>
<path d="M336.3 813.2h24.9" class="g5_6"/>
<path d="M414.2 813.2h24.1" class="g3_6"/>
<path d="M397.8 841.3h22.9" class="g6_6"/>
<path d="M210.8 888.9h20m69 2l2.3 -1.4" class="g5_6"/>
<path d="M302.1 889.9l3.4 6.2" class="g7_6"/>
<path d="M305.9 896.1l4.5 -18.5m0 0h19.8" class="g5_6"/>
<path d="M400.1 890.9l2.3 -1.4" class="g8_6"/>
<path d="M402.4 889.9l3.4 6.2" class="g9_6"/>
<path d="M406.2 896.1l4.4 -18.5m0 0h19.9" class="g8_6"/>
<path d="M136.1 1031.2h11m70.4 0h9.9m70.1 16.1l2.3 -1.3" class="g5_6"/>
<path d="M299.8 1046.4l3.4 6.1" class="g7_6"/>
<path d="M303.6 1052.5l4.5 -18.3m0 0h11M295.6 1031h25m83.2 16.3l2.3 -1.3" class="g5_6"/>
<path d="M406.1 1046.4l3.4 6.1" class="g7_6"/>
<path d="M409.9 1052.5l4.5 -18.3m0 0h11M401.9 1031h43.6" class="g5_6"/>
<path d="M375.5 1108.6h24.4m-234.3 26.2h23.8m135.1 0h24.4m146.9 0h23.8" class="g3_6"/>
<path d="M572.2 1134.8h23.2" class="g5_6"/>
<image preserveAspectRatio="none" x="43" y="90" width="57" height="57" xlink:href="img/2.jpg"/>
<image clip-path="url(#c1_6)" preserveAspectRatio="none" x="689" y="68" width="139" height="133" xlink:href="img/3.jpg"/>
<image preserveAspectRatio="none" x="43" y="384" width="57" height="56" xlink:href="img/4.jpg"/>
<image clip-path="url(#c2_6)" preserveAspectRatio="none" x="715" y="210" width="128" height="127" xlink:href="img/5.jpg"/>
<image preserveAspectRatio="none" x="43" y="236" width="57" height="56" xlink:href="img/6.jpg"/>
<image preserveAspectRatio="none" x="43" y="697" width="57" height="56" xlink:href="img/7.jpg"/>
<path fill-rule="evenodd" d="M732.2 701.7c-16.8 0 -30.3 13.6 -30.3 30.3c0 16.8 13.5 30.4 30.3 30.4c16.7 0 30.3 -13.6 30.3 -30.4c0 -16.7 -13.6 -30.3 -30.3 -30.3Z" class="ga_6"/>
<path d="M732.2 701.7c-16.8 0 -30.3 13.6 -30.3 30.3c0 16.8 13.5 30.4 30.3 30.4c16.7 0 30.3 -13.6 30.3 -30.4c0 -16.7 -13.6 -30.3 -30.3 -30.3Z" class="gb_6"/>
<path fill-rule="evenodd" d="M823.1 697.4c-19.1 0 -34.6 15.5 -34.6 34.6c0 19.1 15.5 34.6 34.6 34.6c19.2 0 34.7 -15.5 34.7 -34.6c0 -19.1 -15.5 -34.6 -34.7 -34.6Z" class="ga_6"/>
<path d="M823.1 697.4c-19.1 0 -34.6 15.5 -34.6 34.6c0 19.1 15.5 34.6 34.6 34.6c19.2 0 34.7 -15.5 34.7 -34.6c0 -19.1 -15.5 -34.6 -34.7 -34.6Z" class="gb_6"/>
<path fill-rule="evenodd" d="M732.2 729.8c-1.2 0 -2.2 1 -2.2 2.2c0 1.2 1 2.2 2.2 2.2c1.2 0 2.2 -1 2.2 -2.2c0 -1.2 -1 -2.2 -2.2 -2.2Z" class="g0_6"/>
<path fill-rule="evenodd" d="M823.1 729.8c-1.2 0 -2.1 1 -2.1 2.2c0 1.2 .9 2.2 2.1 2.2c1.2 0 2.2 -1 2.2 -2.2c0 -1.2 -1 -2.2 -2.2 -2.2Z" class="g0_6"/>
<path d="M732.2 732h91M728.9 701.3L821.3 697m-90.6 4.8l1.3 29.6m89.1 -34l1.7 34.7" class="gc_6"/>
<image preserveAspectRatio="none" x="43" y="835" width="57" height="56" xlink:href="img/8.jpg"/>
<path fill-rule="evenodd" d="M750 824.4c-24.1 0 -43.6 19.5 -43.6 43.6c0 24.2 19.5 43.7 43.6 43.7c24.1 0 43.7 -19.5 43.7 -43.7c0 -24.1 -19.6 -43.6 -43.7 -43.6Z" class="ga_6"/>
<path d="M750 824.4c-24.1 0 -43.6 19.5 -43.6 43.6c0 24.2 19.5 43.7 43.6 43.7c24.1 0 43.7 -19.5 43.7 -43.7c0 -24.1 -19.6 -43.6 -43.7 -43.6Z" class="gd_6"/>
<path d="M701.9 824.4H811.4M793.7 802.5V917.7M758.4 806.4l48.8 65" class="ge_6"/>
<path fill-rule="evenodd" d="M750 866.2c-1 0 -1.8 .8 -1.8 1.8c0 1 .8 1.8 1.8 1.8c1 0 1.8 -.8 1.8 -1.8c0 -1 -.8 -1.8 -1.8 -1.8Z" class="g0_6"/>
<path d="M771.9 824.4l21.8 43.5" class="gf_6"/>
<image clip-path="url(#c3_6)" preserveAspectRatio="none" x="685" y="495" width="152" height="104" xlink:href="img/9.jpg"/>
<image preserveAspectRatio="none" x="43" y="506" width="57" height="56" xlink:href="img/10.jpg"/>
<image preserveAspectRatio="none" x="686" y="1112" width="149" height="63" xlink:href="img/11.jpg"/>
<image preserveAspectRatio="none" x="43" y="1127" width="57" height="56" xlink:href="img/12.jpg"/>
<image preserveAspectRatio="none" x="713" y="969" width="132" height="64" xlink:href="img/13.jpg"/>
<image preserveAspectRatio="none" x="43" y="980" width="57" height="56" xlink:href="img/14.jpg"/>
</svg>