<?xml version="1.0" encoding="UTF-8" standalone="no"?>
<!DOCTYPE svg PUBLIC "-//W3C//DTD SVG 1.1//EN"
"http://www.w3.org/Graphics/SVG/1.1/DTD/svg11.dtd">
<svg viewBox="0 0 909 1286" version="1.1" xmlns="http://www.w3.org/2000/svg" xmlns:xlink="http://www.w3.org/1999/xlink">
<defs>
<clipPath id="c0_5"><path d="M-.2 1286.6v-74.9h910v74.9Z"/></clipPath>
<style type="text/css"><![CDATA[
.g0_5{
fill: none;
stroke: #000;
stroke-width: 0.765;
stroke-linecap: square;
stroke-miterlimit: 10;
}
.g1_5{
fill: none;
stroke: #000;
stroke-width: 1.531;
stroke-linecap: square;
stroke-miterlimit: 10;
}
.g2_5{
fill: none;
stroke: #000;
stroke-width: 0.763;
stroke-linecap: square;
stroke-miterlimit: 10;
}
.g3_5{
fill: none;
stroke: #000;
stroke-width: 1.527;
stroke-linecap: square;
stroke-miterlimit: 10;
}
.g4_5{
fill: none;
stroke: #000;
stroke-width: 0.762;
stroke-linecap: square;
stroke-miterlimit: 10;
}
.g5_5{
fill: none;
stroke: #000;
stroke-width: 1.525;
stroke-linecap: square;
stroke-miterlimit: 10;
}
.g6_5{
fill: none;
stroke: #000;
stroke-width: 0.761;
stroke-linecap: square;
stroke-miterlimit: 10;
}
.g7_5{
fill: none;
stroke: #000;
stroke-width: 1.523;
stroke-linecap: square;
stroke-miterlimit: 10;
}
.g8_5{
fill: none;
stroke: #000;
stroke-width: 1.526;
stroke-linecap: square;
stroke-miterlimit: 10;
}
.g9_5{
fill: none;
stroke: #000;
stroke-width: 1.524;
stroke-linecap: square;
stroke-miterlimit: 10;
}
.ga_5{
fill: none;
stroke: #000;
stroke-width: 1.099;
stroke-linecap: square;
stroke-miterlimit: 10;
}
.gb_5{
fill: none;
stroke: #000;
stroke-width: 1.53;
stroke-linecap: square;
stroke-miterlimit: 10;
}
.gc_5{
fill: #000;
}
.gd_5{
fill: none;
stroke: #000;
stroke-width: 0.152;
stroke-linecap: square;
stroke-miterlimit: 10;
}
]]></style>
</defs>
<image clip-path="url(#c0_5)" preserveAspectRatio="none" x="-4" y="1212" width="952" height="131" xlink:href="img/1.jpg"/>
<path d="M150.7 85.5l2.4 -1.3" class="g0_5"/>
<path d="M153.1 84.6l3.4 5.7" class="g1_5"/>
<path d="M156.9 90.3l4.5 -17.4m0 0h17.8" class="g0_5"/>
<path d="M196.2 85.5l2.3 -1.3" class="g2_5"/>
<path d="M198.5 84.6l3.4 5.7" class="g3_5"/>
<path d="M202.3 90.3l4.5 -17.4m0 0h20.1m68.9 131l2.3 -1.3" class="g2_5"/>
<path d="M298.1 203l3.4 5.8" class="g3_5"/>
<path d="M301.9 208.8l4.5 -17.5m0 0h27" class="g2_5"/>
<path d="M367.6 203.9l2.4 -1.3" class="g0_5"/>
<path d="M370 203l3.3 5.8" class="g1_5"/>
<path d="M373.7 208.8l4.5 -17.5m0 0h17.9" class="g0_5"/>
<path d="M420.2 203.9l2.4 -1.3" class="g4_5"/>
<path d="M422.6 203l3.3 5.8" class="g5_5"/>
<path d="M426.3 208.8l4.5 -17.5m0 0h29.3" class="g4_5"/>
<path d="M504.2 203.9l2.3 -1.4" class="g2_5"/>
<path d="M506.5 202.9l3.4 5.7" class="g3_5"/>
<path d="M510.3 208.6l4.5 -17.1m0 0h16.4m24.2 12.4l2.3 -1.3" class="g2_5"/>
<path d="M557.7 203l3.4 5.8" class="g3_5"/>
<path d="M561.5 208.8L566 191.3m0 0h27.3" class="g2_5"/>
<path d="M628.7 203.9l2.3 -1.4" class="g6_5"/>
<path d="M631 202.9l3.4 5.7" class="g7_5"/>
<path d="M634.8 208.6l4.5 -17.1m0 0h11.8" class="g6_5"/>
<path d="M151.6 330.8l2.4 -1.3" class="g2_5"/>
<path d="M154 329.9l3.4 6.7" class="g8_5"/>
<path d="M157.8 336.6l4.4 -19.7m0 0h116" class="g2_5"/>
<path d="M357 450.2l2.3 -1.3" class="g0_5"/>
<path d="M359.3 449.2l3.4 5.8" class="g1_5"/>
<path d="M363.1 455l4.5 -17.4m0 0h17.9" class="g0_5"/>
<path d="M473.6 450.2l2.4 -1.3" class="g2_5"/>
<path d="M476 449.2l3.4 5.8" class="g3_5"/>
<path d="M479.7 455l4.5 -17.4m0 0h18.5m89.9 12.6l2.3 -1.3" class="g2_5"/>
<path d="M594.9 449.2l3.4 5.8" class="g3_5"/>
<path d="M598.7 455l4.5 -17.4m0 0h18.1M150.7 571.5l2.4 -1.4" class="g2_5"/>
<path d="M153.1 570.5l3.4 5.7" class="g3_5"/>
<path d="M156.8 576.2l4.5 -17.1m0 0h27.6m26 12.4l2.3 -1.4" class="g2_5"/>
<path d="M217.2 570.5l3.4 5.7" class="g3_5"/>
<path d="M221 576.2l4.5 -17.1m0 0h19.6" class="g2_5"/>
<path d="M269.9 571.5l2.3 -1.4" class="g4_5"/>
<path d="M272.2 570.5l3.4 5.7" class="g9_5"/>
<path d="M276 576.2l4.5 -17.1m0 0h20.4" class="g4_5"/>
<path d="M150.2 597.7l2.3 -1.3" class="g2_5"/>
<path d="M152.5 596.7l3.4 5.7" class="g3_5"/>
<path d="M156.3 602.4l4.5 -17.1m0 0h9.8m72.7 12.4l2.4 -1.3" class="g2_5"/>
<path d="M245.7 596.7l3.3 5.7" class="g3_5"/>
<path d="M249.4 602.4l4.5 -17.1m0 0h9.8" class="g2_5"/>
<path d="M327.3 597.7l2.3 -1.4" class="g0_5"/>
<path d="M329.6 596.7l3.4 5.5" class="g1_5"/>
<path d="M333.4 602.2l4.5 -16.7m0 0h16.7m65.5 12.2l2.3 -1.4" class="g0_5"/>
<path d="M422.4 596.7l3.4 5.5" class="g1_5"/>
<path d="M426.2 602.2l4.5 -16.7m0 0h16.8" class="g0_5"/>
<path d="M264.2 669l2.2 -1.3m0 0l5.8 11.9m0 0l3.7 -21.4m0 0h11.6m-41.7 37.7l2.3 -1.3m0 0l5.8 12m0 0l3.7 -21.5m0 0h11.5m82 10.8l2.2 -1.3m0 0l5.9 12m0 0l3.6 -21.5m0 0h11.6" class="ga_5"/>
<path d="M156.1 776.7l2.4 -1.3" class="g0_5"/>
<path d="M158.5 775.7l3.4 5.7" class="gb_5"/>
<path d="M162.3 781.4l4.5 -17m0 0h10.4M152.3 802l2.3 -1.3" class="g0_5"/>
<path d="M154.6 801.1l3.4 5.4" class="gb_5"/>
<path d="M158.4 806.5l4.5 -16.6m0 0h18.2m-30.7 -2.8h32.2m30.1 0h19.7m-31.8 4.6l2.4 -1.4" class="g0_5"/>
<path d="M203 790.7l3.4 15.9" class="gb_5"/>
<path d="M206.7 806.6l4.5 -43m0 0h22.7" class="g0_5"/>
<path d="M262.7 787.1h10.8m-22.9 5l2.4 -1.3" class="g2_5"/>
<path d="M253 791.1l3.4 15.7" class="g3_5"/>
<path d="M256.8 806.8l4.4 -42.4m0 0H275" class="g2_5"/>
<path d="M138 828.6l2.3 -1.4" class="g0_5"/>
<path d="M140.3 827.6l3.4 5.7" class="g1_5"/>
<path d="M144.1 833.3l4.5 -17m0 0h9.9M136.1 839H160m51.3 -10.4l2.4 -1.4" class="g0_5"/>
<path d="M213.7 827.6l3.4 5.7" class="g1_5"/>
<path d="M217.4 833.3l4.5 -17m0 0h9.9M209.4 839h23.9m51.4 -10.4l2.3 -1.4" class="g0_5"/>
<path d="M287 827.6l3.4 5.7" class="g1_5"/>
<path d="M290.8 833.3l4.5 -17m0 0h9.8M282.7 839h24m60.7 -10.7l2.3 -1.3" class="g0_5"/>
<path d="M369.7 827.3l3.4 6" class="gb_5"/>
<path d="M373.5 833.3L378 815.5m0 0h9.8M357.1 839h32.3" class="g0_5"/>
<path d="M348.9 930.8h36.7v-.9H348.9v.9Z" class="gc_5"/>
<path d="M348.9 932.6h36.7v-.9H348.9v.9Z" class="gc_5"/>
<path d="M136.2 949.7l1.9 -1m0 0l4.4 7.3m0 0l4.9 -19.4m0 0h18.8" class="gd_5"/>
<path d="M142.1 956l-4.5 -6.7l-1.2 .7l-.3 -.5l2.5 -1.4l4 6L147 936.2h19.2v.9H147.7L143 956Z" class="gc_5"/>
<path d="M191.2 949.6l1.9 -1m0 0l4.4 7.2m0 0l4.8 -19.1m0 0h10.6" class="gd_5"/>
<path d="M197.1 955.8l-4.5 -6.6l-1.3 .7l-.2 -.6l2.5 -1.3l3.9 5.8L202 936.2h10.9v.9H202.7L198 955.8Z" class="gc_5"/>
<path d="M272 949.7l1.9 -1m0 0l4.4 7.3m0 0l4.9 -19.4m0 0h18.9" class="gd_5"/>
<path d="M277.9 956l-4.5 -6.7l-1.2 .7l-.3 -.5l2.5 -1.4l4 6l4.5 -17.9h19.2v.9H283.5L278.8 956Z" class="gc_5"/>
<path d="M319.1 949.6l2 -1m0 0l4.3 7.2m0 0l4.9 -19.1m0 0h10.5" class="gd_5"/>
<path d="M325 955.8l-4.4 -6.6l-1.3 .7l-.3 -.6l2.5 -1.3l4 5.8L330 936.2h10.8v.9H330.6l-4.7 18.7Z" class="gc_5"/>
<path d="M400.1 949.7l1.8 -1m0 0l4.5 7.3m0 0l4.8 -19.4m0 0h26.9" class="gd_5"/>
<path d="M405.9 956l-4.5 -6.7l-1.2 .7l-.3 -.5l2.5 -1.4l4 6l4.5 -17.9h27.2v.9H411.6L406.8 956Z" class="gc_5"/>
<path d="M462.7 949.6l1.9 -1m0 0l4.4 7.2m0 0l4.9 -19.1m0 0h10.5" class="gd_5"/>
<path d="M468.6 955.8l-4.5 -6.6l-1.3 .7l-.3 -.6l2.6 -1.3l3.9 5.8l4.5 -17.6h10.9v.9H474.2l-4.7 18.7Z" class="gc_5"/>
<path d="M544.7 949.7l1.8 -1m0 0L551 956m0 0l4.9 -19.4m0 0h26.9" class="gd_5"/>
<path d="M550.5 956l-4.4 -6.7l-1.3 .7l-.3 -.5l2.6 -1.4l3.9 6l4.5 -17.9h27.3v.9H556.2L551.5 956Z" class="gc_5"/>
<path d="M599.1 949.6l1.9 -1m0 0l4.4 7.2m0 0l4.9 -19.1m0 0h10.5" class="gd_5"/>
<path d="M605 955.8l-4.5 -6.6l-1.2 .7l-.3 -.6l2.5 -1.3l3.9 5.8l4.5 -17.6h10.9v.9H610.6l-4.7 18.7Z" class="gc_5"/>
<path d="M170.9 1063.2h18.2m-38.4 4.9l2.4 -1.3" class="g4_5"/>
<path d="M153.1 1067.2l3.3 15.9" class="g5_5"/>
<path d="M156.8 1083.1l4.5 -43m0 0h29.4" class="g4_5"/>
<path d="M240 1063.2h19.9m-43.6 4.9l2.4 -1.3" class="g2_5"/>
<path d="M218.7 1067.2l3.4 15.9" class="g3_5"/>
<path d="M222.5 1083.1l4.4 -43m0 0h34.6" class="g2_5"/>
<path d="M149.8 1112.2H168" class="g6_5"/>
<path d="M230.6 1112.2h18.3" class="g2_5"/>
<path d="M311.5 1112.2h18.2m63.8 0h18.2" class="g6_5"/>
<image preserveAspectRatio="none" x="44" y="91" width="56" height="57" xlink:href="img/2.jpg"/>
<image preserveAspectRatio="none" x="44" y="210" width="56" height="56" xlink:href="img/3.jpg"/>
<image preserveAspectRatio="none" x="44" y="338" width="56" height="56" xlink:href="img/4.jpg"/>
<image preserveAspectRatio="none" x="44" y="457" width="57" height="56" xlink:href="img/5.jpg"/>
<image preserveAspectRatio="none" x="44" y="677" width="56" height="56" xlink:href="img/6.jpg"/>
<image preserveAspectRatio="none" x="44" y="794" width="56" height="56" xlink:href="img/7.jpg"/>
<image preserveAspectRatio="none" x="44" y="929" width="56" height="56" xlink:href="img/8.jpg"/>
<image preserveAspectRatio="none" x="44" y="1070" width="56" height="56" xlink:href="img/9.jpg"/>
</svg>