<?xml version="1.0" encoding="UTF-8" standalone="no"?>
<!DOCTYPE svg PUBLIC "-//W3C//DTD SVG 1.1//EN"
"http://www.w3.org/Graphics/SVG/1.1/DTD/svg11.dtd">
<svg viewBox="0 0 909 1286" version="1.1" xmlns="http://www.w3.org/2000/svg" xmlns:xlink="http://www.w3.org/1999/xlink">
<defs>
<clipPath id="c0_12"><path d="M-.2 1286.6v-74.9h910v74.9Z"/></clipPath>
<clipPath id="c1_12"><path d="M752.9 948.4V831.6H854.8V948.4Z"/></clipPath>
<style type="text/css"><![CDATA[
.g0_12{
fill: none;
stroke: #000;
stroke-width: 1.099;
stroke-linecap: square;
stroke-miterlimit: 10;
}
.g1_12{
fill: none;
stroke: #000;
stroke-width: 0.765;
stroke-linecap: square;
stroke-miterlimit: 10;
}
.g2_12{
fill: none;
stroke: #000;
stroke-width: 0.763;
stroke-linecap: square;
stroke-miterlimit: 10;
}
.g3_12{
fill: none;
stroke: #000;
stroke-width: 0.825;
stroke-linejoin: round;
}
.g4_12{
fill: #000;
}
.g5_12{
fill: none;
stroke: #000;
stroke-width: 1.027;
stroke-linejoin: round;
}
.g6_12{
fill: none;
stroke: #000;
stroke-width: 1.027;
stroke-linecap: round;
stroke-linejoin: round;
}
]]></style>
</defs>
<image clip-path="url(#c0_12)" preserveAspectRatio="none" x="-4" y="1212" width="952" height="131" xlink:href="img/1.jpg"/>
<path d="M161.9 122.8H132.7m119 0H221.5M197.3 384.1H167.2m205.2 0H341.2m207.2 0H517.2" class="g0_12"/>
<path d="M450.9 537.4h23.2" class="g1_12"/>
<path d="M308.2 694.4H332m254.9 0h25.2" class="g2_12"/>
<path d="M638.4 694.6h24.1M147.2 722.1h23.2m25.8 0h24.4" class="g1_12"/>
<image preserveAspectRatio="none" x="43" y="90" width="57" height="56" xlink:href="img/2.jpg"/>
<path d="M717.4 83.7v0l5 .3l4.9 .8l4.7 1.1l4.4 1.7l4.1 2.2l4.1 2.5l3.6 2.7l3.7 3.4l3 3.6l2.7 3.8l2.5 4.1l1.9 4.4l1.7 4.5l1.4 4.9l.5 5l.3 5l-.3 5.2l-.5 5l-1.4 4.7l-1.7 4.7l-1.9 4.1l-2.5 4.2l-2.7 3.8l-3 3.6l-3.7 3.3l-3.6 2.8l-4.1 2.5l-4.1 2.2l-4.4 1.6l-4.7 1.4l-4.9 .6l-5 .2l-4.9 -.2l-4.7 -.6l-4.7 -1.4l-4.4 -1.6l-4.5 -2.2l-3.8 -2.5l-3.9 -2.8L683.2 169l-3 -3.6l-3 -3.8L675 157.4l-2.2 -4.1l-1.7 -4.7L670 143.9l-.8 -5l-.3 -5.2l.3 -5l.8 -5l1.1 -4.9l1.7 -4.5l2.2 -4.4l2.2 -4.1l3 -3.8l3 -3.6L686.5 95l3.9 -2.7l3.8 -2.5l4.5 -2.2l4.4 -1.7l4.7 -1.1l4.7 -.8l4.9 -.3m78.5 21.8v0l3.3 .3l2.8 .2l3 .9l2.8 .8l2.7 1.4l2.5 1.4l2.2 1.6l2.2 1.7l1.9 2.2l1.7 2.2l1.6 2.2l1.4 2.5l.8 2.8l.8 2.7l.6 2.8V137l-.6 2.8l-.8 2.7L824 145l-1.4 2.5L821 150l-1.7 2.2l-1.9 1.9l-2.2 2l-2.2 1.6l-2.5 1.4l-2.7 1.1l-2.8 1.1l-3 .6l-2.8 .5h-6.4l-3 -.5l-2.7 -.6l-2.8 -1.1l-2.7 -1.1l-2.5 -1.4l-2.5 -1.6l-1.9 -2l-2.2 -1.9L770.8 150l-1.3 -2.5L768.1 145L767 142.5l-.6 -2.7l-.5 -2.8l-.3 -3l.3 -2.8l.5 -2.8l.6 -2.7l1.1 -2.8l1.4 -2.5l1.3 -2.2l1.7 -2.2l2.2 -2.2l1.9 -1.7l2.5 -1.6l2.5 -1.4l2.7 -1.4l2.8 -.8l2.7 -.9l3 -.2l3.1 -.3M680.2 101.7l4.1 68.7l-4.1 -68.7m136.1 53.5l.3 -42M766.2 89v89.7" class="g3_12"/>
<path d="M765.9 137h-.6l-.5 -.3l-.6 -.5v-1.4l.6 -.6l.5 -.2l.6 -.3l.8 .3l.6 .2l.2 .6v1.4l-.2 .5l-.6 .3Z" class="g4_12"/>
<path d="M680.2 101.7l136.1 53.5l2.2 -2.5M684.3 170.4L816.6 113" class="g3_12"/>
<path d="M786.3 292.6l-47.9 13m47.9 -13l47.9 13m-95.8 0l27 32.2m0 0l33.5 2.8m0 0l35.3 -35" class="g5_12"/>
<path d="M786.3 294.6h-.7l-.7 -.7l-.7 -.3v-1.7l.7 -.7l.7 -.3l.7 -.4l.6 .4l.7 .3l.4 .7l.3 .7l-.3 1l-.4 .3l-.7 .7Z" class="g4_12"/>
<path d="M786.4 242.9c-27.5 0 -49.8 22.2 -49.8 49.7c0 27.5 22.3 49.8 49.8 49.8c27.4 0 49.7 -22.3 49.7 -49.8c0 -27.5 -22.3 -49.7 -49.7 -49.7Z" class="g6_12"/>
<image preserveAspectRatio="none" x="43" y="281" width="57" height="56" xlink:href="img/3.jpg"/>
<image preserveAspectRatio="none" x="43" y="405" width="57" height="57" xlink:href="img/4.jpg"/>
<image preserveAspectRatio="none" x="698" y="375" width="148" height="111" xlink:href="img/5.jpg"/>
<image preserveAspectRatio="none" x="698" y="531" width="113" height="113" xlink:href="img/6.jpg"/>
<image preserveAspectRatio="none" x="43" y="565" width="57" height="57" xlink:href="img/7.jpg"/>
<image preserveAspectRatio="none" x="707" y="686" width="139" height="87" xlink:href="img/8.jpg"/>
<image preserveAspectRatio="none" x="43" y="723" width="57" height="57" xlink:href="img/9.jpg"/>
<image clip-path="url(#c1_12)" preserveAspectRatio="none" x="753" y="832" width="101" height="116" xlink:href="img/10.jpg"/>
<image preserveAspectRatio="none" x="43" y="855" width="57" height="56" xlink:href="img/11.jpg"/>
<image preserveAspectRatio="none" x="703" y="1036" width="101" height="114" xlink:href="img/12.jpg"/>
<image preserveAspectRatio="none" x="43" y="1055" width="57" height="57" xlink:href="img/13.jpg"/>
</svg>