<?xml version="1.0" encoding="UTF-8" standalone="no"?>
<!DOCTYPE svg PUBLIC "-//W3C//DTD SVG 1.1//EN"
"http://www.w3.org/Graphics/SVG/1.1/DTD/svg11.dtd">
<svg viewBox="0 0 909 1286" version="1.1" xmlns="http://www.w3.org/2000/svg" xmlns:xlink="http://www.w3.org/1999/xlink">
<defs>
<clipPath id="c0_14"><path d="M-.2 1286.6v-74.9h910v74.9Z"/></clipPath>
<clipPath id="c1_14"><path d="M702.4 328.3V200.9H851.9V328.3Z"/></clipPath>
<clipPath id="c2_14"><path d="M732.6 824.2V690.3h99.9V824.2Z"/></clipPath>
<style type="text/css"><![CDATA[
.g0_14{
fill: none;
stroke: #000;
stroke-width: 0.763;
stroke-linecap: square;
stroke-miterlimit: 10;
}
.g1_14{
fill: none;
stroke: #000;
stroke-width: 0.765;
stroke-linecap: square;
stroke-miterlimit: 10;
}
.g2_14{
fill: none;
stroke: #000;
stroke-width: 0.762;
stroke-linecap: square;
stroke-miterlimit: 10;
}
.g3_14{
fill: none;
stroke: #000;
stroke-width: 0.907;
stroke-linecap: square;
stroke-miterlimit: 10;
}
.g4_14{
fill: none;
stroke: #000;
stroke-width: 0.909;
stroke-linecap: square;
stroke-miterlimit: 10;
}
]]></style>
</defs>
<image clip-path="url(#c0_14)" preserveAspectRatio="none" x="-4" y="1212" width="952" height="131" xlink:href="img/1.jpg"/>
<path d="M202.2 237.6h16.1" class="g0_14"/>
<path d="M243.5 237.6h24.4" class="g1_14"/>
<path d="M292.4 237.7h26.3" class="g2_14"/>
<path d="M560.9 360.6h23.7" class="g1_14"/>
<path d="M609.8 360.6H633" class="g0_14"/>
<path d="M658.7 360.6h24.1" class="g1_14"/>
<path d="M398.8 701.3h24.9" class="g3_14"/>
<path d="M449.2 701.3h24.1m61.5 .2h23.3" class="g4_14"/>
<path d="M583.8 701.3h24.9" class="g3_14"/>
<path d="M634.2 701.3h24.4" class="g4_14"/>
<path d="M683.2 701.5h24.9" class="g3_14"/>
<path d="M281.3 986.3H305" class="g1_14"/>
<path d="M330.2 986.3h23.2" class="g0_14"/>
<path d="M583 986.3h23.8M110.6 1135.1h24m24.9 .1h23.2" class="g1_14"/>
<path d="M245.1 1135.2h25.2m179.1 0h25.1m25.3 0h23.7" class="g0_14"/>
<image preserveAspectRatio="none" x="44" y="89" width="56" height="56" xlink:href="img/2.jpg"/>
<image preserveAspectRatio="none" x="742" y="63" width="76" height="118" xlink:href="img/3.jpg"/>
<image clip-path="url(#c1_14)" preserveAspectRatio="none" x="703" y="201" width="149" height="127" xlink:href="img/4.jpg"/>
<image preserveAspectRatio="none" x="44" y="229" width="56" height="56" xlink:href="img/5.jpg"/>
<image preserveAspectRatio="none" x="714" y="360" width="120" height="112" xlink:href="img/6.jpg"/>
<image preserveAspectRatio="none" x="44" y="379" width="56" height="56" xlink:href="img/7.jpg"/>
<image preserveAspectRatio="none" x="713" y="508" width="128" height="136" xlink:href="img/8.jpg"/>
<image preserveAspectRatio="none" x="44" y="526" width="56" height="56" xlink:href="img/9.jpg"/>
<image clip-path="url(#c2_14)" preserveAspectRatio="none" x="733" y="691" width="99" height="133" xlink:href="img/10.jpg"/>
<image preserveAspectRatio="none" x="44" y="720" width="56" height="56" xlink:href="img/11.jpg"/>
<image preserveAspectRatio="none" x="44" y="888" width="56" height="57" xlink:href="img/12.jpg"/>
<image preserveAspectRatio="none" x="699" y="978" width="125" height="98" xlink:href="img/13.jpg"/>
<image preserveAspectRatio="none" x="44" y="1004" width="56" height="57" xlink:href="img/14.jpg"/>
<image preserveAspectRatio="none" x="678" y="1110" width="181" height="87" xlink:href="img/15.jpg"/>
<image preserveAspectRatio="none" x="44" y="1126" width="56" height="56" xlink:href="img/16.jpg"/>
</svg>