<?xml version="1.0" encoding="UTF-8" standalone="no"?>
<!DOCTYPE svg PUBLIC "-//W3C//DTD SVG 1.1//EN"
"http://www.w3.org/Graphics/SVG/1.1/DTD/svg11.dtd">
<svg viewBox="0 0 909 1286" version="1.1" xmlns="http://www.w3.org/2000/svg" xmlns:xlink="http://www.w3.org/1999/xlink">
<defs>
<clipPath id="c0_11"><path d="M-.2 1286.6v-75.1h910v75.1Z"/></clipPath>
<style type="text/css"><![CDATA[
.g0_11{
fill: none;
stroke: #000;
stroke-width: 0.762;
stroke-linecap: square;
stroke-miterlimit: 10;
}
.g1_11{
fill: none;
stroke: #000;
stroke-width: 0.763;
stroke-linecap: square;
stroke-miterlimit: 10;
}
.g2_11{
fill: none;
stroke: #000;
stroke-width: 0.764;
stroke-linecap: square;
stroke-miterlimit: 10;
}
.g3_11{
fill: none;
stroke: #000;
stroke-width: 0.76;
stroke-linecap: square;
stroke-miterlimit: 10;
}
.g4_11{
fill: none;
stroke: #000;
stroke-width: 0.781;
stroke-linecap: square;
stroke-miterlimit: 10;
}
.g5_11{
fill: none;
stroke: #000;
stroke-width: 0.784;
stroke-linecap: square;
stroke-miterlimit: 10;
}
.g6_11{
fill: none;
stroke: #000;
stroke-width: 0.775;
stroke-linecap: square;
stroke-miterlimit: 10;
}
.g7_11{
fill: none;
stroke: #000;
stroke-width: 0.777;
stroke-linecap: square;
stroke-miterlimit: 10;
}
]]></style>
</defs>
<image clip-path="url(#c0_11)" preserveAspectRatio="none" x="-2" y="1212" width="930" height="127" xlink:href="img/1.jpg"/>
<path d="M125.1 212.8H135m26 0h11.1" class="g0_11"/>
<path d="M160.7 260.2h10m39.2 0H221m91.7 0h9.9m53.8 0h11.1m91.4 0h9.9m41.3 0h11.1m91.2 0h10m51.8 0h11.1" class="g1_11"/>
<path d="M260.6 354.8h10.6m18.3 0h9.9" class="g2_11"/>
<path d="M157.5 473.3h11.1m23.3 0h20.3m17.6 0h10.8" class="g1_11"/>
<path d="M282.6 473.3h10.2" class="g3_11"/>
<path d="M276.7 520.6h29.1m78.8 0h29.1M196.1 615.3h10m81.3 0h10m89.3 0h10M168.6 733.5h11m244.4 0h11.1" class="g1_11"/>
<path d="M661.3 733.5h10.1" class="g4_11"/>
<path d="M164.4 804.4h11m68.4 0h11.1m25.6 0h11" class="g1_11"/>
<path d="M387.4 804.4h10.2" class="g5_11"/>
<path d="M466.8 804.4h11.1" class="g1_11"/>
<path d="M503.5 804.4h10.2" class="g4_11"/>
<path d="M160.5 898.6h11m25.6 0h11.1m23.7 0H243" class="g1_11"/>
<path d="M274.8 898.6H285" class="g4_11"/>
<path d="M310.3 898.6h11" class="g1_11"/>
<path d="M252.3 945.7h20" class="g6_11"/>
<path d="M358.1 945.7h18.8" class="g7_11"/>
<path d="M465 945.7h20" class="g6_11"/>
<path d="M166.6 1040.1h9.9" class="g3_11"/>
<path d="M205.7 1040.1h9.9m50.7 0h10m-121.9 47.4h11.1" class="g1_11"/>
<path d="M252.3 1087.5h9.9m86.3 0h9.9" class="g3_11"/>
<path d="M445.8 1087.5H464" class="g1_11"/>
<image preserveAspectRatio="none" x="43" y="92" width="57" height="57" xlink:href="img/2.jpg"/>
<image preserveAspectRatio="none" x="43" y="221" width="57" height="56" xlink:href="img/3.jpg"/>
<image preserveAspectRatio="none" x="43" y="363" width="57" height="56" xlink:href="img/4.jpg"/>
<image preserveAspectRatio="none" x="43" y="482" width="57" height="57" xlink:href="img/5.jpg"/>
<image preserveAspectRatio="none" x="43" y="625" width="57" height="56" xlink:href="img/6.jpg"/>
<image preserveAspectRatio="none" x="43" y="745" width="57" height="56" xlink:href="img/7.jpg"/>
<image preserveAspectRatio="none" x="43" y="907" width="57" height="56" xlink:href="img/8.jpg"/>
<image preserveAspectRatio="none" x="43" y="1048" width="57" height="57" xlink:href="img/9.jpg"/>
</svg>