<?xml version="1.0" encoding="UTF-8" standalone="no"?>
<!DOCTYPE svg PUBLIC "-//W3C//DTD SVG 1.1//EN"
"http://www.w3.org/Graphics/SVG/1.1/DTD/svg11.dtd">
<svg viewBox="0 0 909 1286" version="1.1" xmlns="http://www.w3.org/2000/svg" xmlns:xlink="http://www.w3.org/1999/xlink">
<defs>
<clipPath id="c0_3"><path d="M-.2 1286.6v-75.1h910v75.1Z"/></clipPath>
<clipPath id="c1_3"><path d="M363.6 1167.9V1056.5h75.1v111.4Z"/></clipPath>
<clipPath id="c2_3"><path d="M252.2 1172.5V1061.1h75.1v111.4Z"/></clipPath>
<clipPath id="c3_3"><path d="M137.4 1172.5V1061.1h75.1v111.4Z"/></clipPath>
<clipPath id="c4_3"><path d="M484.9 962.5v-109h94.4v109Z"/></clipPath>
<clipPath id="c5_3"><path d="M725.4 752V626.4H846.9V752Z"/></clipPath>
<clipPath id="c6_3"><path d="M750.2 897.8V788.2h94.4V897.8Z"/></clipPath>
<style type="text/css"><![CDATA[
.g0_3{
fill: #000;
}
.g1_3{
fill: #FFF;
stroke: #000;
stroke-width: 1.145;
stroke-linecap: round;
stroke-miterlimit: 8;
}
]]></style>
</defs>
<image clip-path="url(#c0_3)" preserveAspectRatio="none" x="-2" y="1212" width="930" height="127" xlink:href="img/1.jpg"/>
<image preserveAspectRatio="none" x="472" y="1057" width="75" height="111" xlink:href="img/2.jpg"/>
<image clip-path="url(#c1_3)" preserveAspectRatio="none" x="364" y="1057" width="74" height="111" xlink:href="img/3.jpg"/>
<image clip-path="url(#c2_3)" preserveAspectRatio="none" x="253" y="1061" width="74" height="111" xlink:href="img/4.jpg"/>
<image clip-path="url(#c3_3)" preserveAspectRatio="none" x="138" y="1061" width="74" height="111" xlink:href="img/5.jpg"/>
<path d="M294.9 487.1h36.7v-.9H294.9v.9Z" class="g0_3"/>
<path d="M125.9 534.9h36.6V534H125.9v.9Z" class="g0_3"/>
<image preserveAspectRatio="none" x="133" y="853" width="94" height="109" xlink:href="img/6.jpg"/>
<image preserveAspectRatio="none" x="251" y="853" width="97" height="109" xlink:href="img/7.jpg"/>
<image preserveAspectRatio="none" x="372" y="854" width="88" height="108" xlink:href="img/8.jpg"/>
<image clip-path="url(#c4_3)" preserveAspectRatio="none" x="485" y="854" width="94" height="108" xlink:href="img/9.jpg"/>
<path fill-rule="evenodd" d="M46.4 218.3H846.2V73.4H46.4V218.3Z" class="g1_3"/>
<image preserveAspectRatio="none" x="43" y="244" width="57" height="56" xlink:href="img/10.jpg"/>
<image preserveAspectRatio="none" x="685" y="74" width="160" height="139" xlink:href="img/11.jpg"/>
<image preserveAspectRatio="none" x="43" y="366" width="57" height="56" xlink:href="img/12.jpg"/>
<image preserveAspectRatio="none" x="698" y="456" width="152" height="135" xlink:href="img/13.jpg"/>
<image preserveAspectRatio="none" x="43" y="486" width="57" height="57" xlink:href="img/14.jpg"/>
<image clip-path="url(#c5_3)" preserveAspectRatio="none" x="726" y="627" width="121" height="125" xlink:href="img/15.jpg"/>
<image preserveAspectRatio="none" x="43" y="656" width="57" height="57" xlink:href="img/16.jpg"/>
<image preserveAspectRatio="none" x="43" y="800" width="57" height="56" xlink:href="img/17.jpg"/>
<image clip-path="url(#c6_3)" preserveAspectRatio="none" x="751" y="788" width="93" height="109" xlink:href="img/18.jpg"/>
<image preserveAspectRatio="none" x="638" y="787" width="94" height="109" xlink:href="img/19.jpg"/>
<image preserveAspectRatio="none" x="43" y="1037" width="57" height="57" xlink:href="img/20.jpg"/>
</svg>