<?xml version="1.0" encoding="UTF-8" standalone="no"?>
<!DOCTYPE svg PUBLIC "-//W3C//DTD SVG 1.1//EN"
"http://www.w3.org/Graphics/SVG/1.1/DTD/svg11.dtd">
<svg viewBox="0 0 909 1286" version="1.1" xmlns="http://www.w3.org/2000/svg" xmlns:xlink="http://www.w3.org/1999/xlink">
<defs>
<clipPath id="c0_30"><path d="M-.2 1286.6v-57.8h910v57.8Z"/></clipPath>
<clipPath id="c1_30"><path d="M-.2 151.6V-.2h910V151.6Z"/></clipPath>
<clipPath id="c2_30"><path d="M22.5 202.8V153H909.8v49.8Z"/></clipPath>
<style type="text/css"><![CDATA[
.g0_30{
fill: #CFC;
}
.g1_30{
fill: #70AD47;
}
.g2_30{
fill: none;
stroke: #000;
stroke-width: 1.099;
stroke-linecap: square;
stroke-miterlimit: 10;
}
.g3_30{
fill: #6C3;
}
.g4_30{
fill: #F90;
}
.g5_30{
fill: #F00;
}
.g6_30{
fill: #FCF;
}
]]></style>
</defs>
<image clip-path="url(#c0_30)" preserveAspectRatio="none" x="-2" y="1229" width="930" height="128" xlink:href="img/1.jpg"/>
<path fill-rule="evenodd" d="M65.5 295.2h129v-55H65.5v55Z" class="g0_30"/>
<path fill-rule="evenodd" d="M67.1 281.4H192.9V253.9H67.1v27.5Z" class="g0_30"/>
<path fill-rule="evenodd" d="M195.3 295.2H380.4v-55H195.3v55Z" class="g0_30"/>
<path d="M197.1 267.7H378.8V240.2H197.1v27.5Z" class="g0_30"/>
<path d="M197.1 295.2H378.8V267.7H197.1v27.5Z" class="g0_30"/>
<path d="M64.5 240.2h.8v-.8h-.8v.8Z" class="g1_30"/>
<path d="M64.5 240.2h.8v-.8h-.8v.8Z" class="g1_30"/>
<path d="M65.3 240.2H194.5v-.8H65.3v.8Z" class="g1_30"/>
<path d="M194.5 240.2h.8v-.8h-.8v.8Z" class="g1_30"/>
<path d="M195.3 240.2H380.4v-.8H195.3v.8Z" class="g1_30"/>
<path d="M380.4 240.2h.7v-.8h-.7v.8Z" class="g1_30"/>
<path d="M381.1 240.2H867.9v-.8H381.1v.8Z" class="g1_30"/>
<path d="M867.9 240.2h.7v-.8h-.7v.8Z" class="g1_30"/>
<path d="M867.9 240.2h.7v-.8h-.7v.8Z" class="g1_30"/>
<path d="M64.5 295.2h.8v-55h-.8v55Z" class="g1_30"/>
<path d="M194.5 295.2h.8v-55h-.8v55Z" class="g1_30"/>
<path d="M380.4 295.2h.7v-55h-.7v55Z" class="g1_30"/>
<path d="M867.9 295.2h.7v-55h-.7v55Z" class="g1_30"/>
<path fill-rule="evenodd" d="M65.5 323.6h129V296.1H65.5v27.5Z" class="g0_30"/>
<path d="M67.1 323.6H192.9V296.1H67.1v27.5Z" class="g0_30"/>
<path fill-rule="evenodd" d="M195.3 323.6H380.4V296.1H195.3v27.5Z" class="g0_30"/>
<path d="M197.1 323.6H378.8V296.1H197.1v27.5Z" class="g0_30"/>
<path d="M64.5 295.9h.8v-.7h-.8v.7Z" class="g1_30"/>
<path d="M65.3 295.9H194.5v-.7H65.3v.7Z" class="g1_30"/>
<path d="M194.5 295.9h.8v-.7h-.8v.7Z" class="g1_30"/>
<path d="M195.3 295.9H380.4v-.7H195.3v.7Z" class="g1_30"/>
<path d="M380.4 295.9h.7v-.7h-.7v.7Z" class="g1_30"/>
<path d="M381.1 295.9H867.9v-.7H381.1v.7Z" class="g1_30"/>
<path d="M867.9 295.9h.7v-.7h-.7v.7Z" class="g1_30"/>
<path d="M64.5 323.6h.8V295.9h-.8v27.7Z" class="g1_30"/>
<path d="M194.5 323.6h.8V295.9h-.8v27.7Z" class="g1_30"/>
<path d="M380.4 323.6h.7V295.9h-.7v27.7Z" class="g1_30"/>
<path d="M867.9 323.6h.7V295.9h-.7v27.7Z" class="g1_30"/>
<path fill-rule="evenodd" d="M65.5 351.8h129V324.3H65.5v27.5Z" class="g0_30"/>
<path d="M67.1 351.8H192.9V324.3H67.1v27.5Z" class="g0_30"/>
<path fill-rule="evenodd" d="M195.3 351.8H380.4V324.3H195.3v27.5Z" class="g0_30"/>
<path d="M197.1 351.8H378.8V324.3H197.1v27.5Z" class="g0_30"/>
<path d="M64.5 324.3h.8v-.7h-.8v.7Z" class="g1_30"/>
<path d="M65.3 324.3H194.5v-.7H65.3v.7Z" class="g1_30"/>
<path d="M194.5 324.3h.8v-.7h-.8v.7Z" class="g1_30"/>
<path d="M195.3 324.3H380.4v-.7H195.3v.7Z" class="g1_30"/>
<path d="M380.4 324.3h.7v-.7h-.7v.7Z" class="g1_30"/>
<path d="M381.1 324.3H867.9v-.7H381.1v.7Z" class="g1_30"/>
<path d="M867.9 324.3h.7v-.7h-.7v.7Z" class="g1_30"/>
<path d="M64.5 351.8h.8V324.3h-.8v27.5Z" class="g1_30"/>
<path d="M194.5 351.8h.8V324.3h-.8v27.5Z" class="g1_30"/>
<path d="M380.4 351.8h.7V324.3h-.7v27.5Z" class="g1_30"/>
<path d="M867.9 351.8h.7V324.3h-.7v27.5Z" class="g1_30"/>
<path fill-rule="evenodd" d="M65.5 380.1h129V352.6H65.5v27.5Z" class="g0_30"/>
<path d="M67.1 380.1H192.9V352.6H67.1v27.5Z" class="g0_30"/>
<path fill-rule="evenodd" d="M195.3 380.1H380.4V352.6H195.3v27.5Z" class="g0_30"/>
<path d="M197.1 380.1H378.8V352.6H197.1v27.5Z" class="g0_30"/>
<path d="M64.5 352.6h.8v-.8h-.8v.8Z" class="g1_30"/>
<path d="M65.3 352.6H194.5v-.8H65.3v.8Z" class="g1_30"/>
<path d="M194.5 352.6h.8v-.8h-.8v.8Z" class="g1_30"/>
<path d="M195.3 352.6H380.4v-.8H195.3v.8Z" class="g1_30"/>
<path d="M380.4 352.6h.7v-.8h-.7v.8Z" class="g1_30"/>
<path d="M381.1 352.6H867.9v-.8H381.1v.8Z" class="g1_30"/>
<path d="M867.9 352.6h.7v-.8h-.7v.8Z" class="g1_30"/>
<path d="M64.5 380.1h.8V352.6h-.8v27.5Z" class="g1_30"/>
<path d="M64.5 380.8h.8V380h-.8v.8Z" class="g1_30"/>
<path d="M64.5 380.8h.8V380h-.8v.8Z" class="g1_30"/>
<path d="M65.3 380.8H194.5V380H65.3v.8Z" class="g1_30"/>
<path d="M194.5 380.1h.8V352.6h-.8v27.5Z" class="g1_30"/>
<path d="M194.5 380.8h.8V380h-.8v.8Z" class="g1_30"/>
<path d="M195.3 380.8H380.4V380H195.3v.8Z" class="g1_30"/>
<path d="M380.4 380.1h.7V352.6h-.7v27.5Z" class="g1_30"/>
<path d="M380.4 380.8h.7V380h-.7v.8Z" class="g1_30"/>
<path d="M381.1 380.8H867.9V380H381.1v.8Z" class="g1_30"/>
<path d="M867.9 380.1h.7V352.6h-.7v27.5Z" class="g1_30"/>
<path d="M867.9 380.8h.7V380h-.7v.8Z" class="g1_30"/>
<path d="M867.9 380.8h.7V380h-.7v.8Z" class="g1_30"/>
<path d="M64.5 491.5h.8v-.7h-.8v.7Z" class="g1_30"/>
<path d="M64.5 491.5h.8v-.7h-.8v.7Z" class="g1_30"/>
<path d="M65.3 491.5H418.4v-.7H65.3v.7Z" class="g1_30"/>
<path d="M418.4 491.5h.7v-.7h-.7v.7Z" class="g1_30"/>
<path d="M419.1 491.5h447v-.7h-447v.7Z" class="g1_30"/>
<path d="M866.1 491.5h.7v-.7h-.7v.7Z" class="g1_30"/>
<path d="M866.1 491.5h.7v-.7h-.7v.7Z" class="g1_30"/>
<path d="M64.5 519h.8V491.5h-.8V519Z" class="g1_30"/>
<path d="M418.4 519h.7V491.5h-.7V519Z" class="g1_30"/>
<path d="M866.1 519h.7V491.5h-.7V519Z" class="g1_30"/>
<path d="M64.5 519.7h.8V519h-.8v.7Z" class="g1_30"/>
<path d="M65.3 519.7H418.4V519H65.3v.7Z" class="g1_30"/>
<path d="M418.4 519.7h.7V519h-.7v.7Z" class="g1_30"/>
<path d="M419.1 519.7h447V519h-447v.7Z" class="g1_30"/>
<path d="M866.1 519.7h.7V519h-.7v.7Z" class="g1_30"/>
<path d="M64.5 547.2h.8V519.7h-.8v27.5Z" class="g1_30"/>
<path d="M418.4 547.2h.7V519.7h-.7v27.5Z" class="g1_30"/>
<path d="M866.1 547.2h.7V519.7h-.7v27.5Z" class="g1_30"/>
<path d="M64.5 548h.8v-.8h-.8v.8Z" class="g1_30"/>
<path d="M65.3 548H418.4v-.8H65.3v.8Z" class="g1_30"/>
<path d="M418.4 548h.7v-.8h-.7v.8Z" class="g1_30"/>
<path d="M419.1 548h447v-.8h-447v.8Z" class="g1_30"/>
<path d="M866.1 548h.7v-.8h-.7v.8Z" class="g1_30"/>
<path d="M64.5 575.7h.8V548h-.8v27.7Z" class="g1_30"/>
<path d="M64.5 576.4h.8v-.7h-.8v.7Z" class="g1_30"/>
<path d="M64.5 576.4h.8v-.7h-.8v.7Z" class="g1_30"/>
<path d="M65.3 576.4H418.4v-.7H65.3v.7Z" class="g1_30"/>
<path d="M418.4 575.7h.7V548h-.7v27.7Z" class="g1_30"/>
<path d="M418.4 576.4h.7v-.7h-.7v.7Z" class="g1_30"/>
<path d="M419.1 576.4h447v-.7h-447v.7Z" class="g1_30"/>
<path d="M866.1 575.7h.7V548h-.7v27.7Z" class="g1_30"/>
<path d="M866.1 576.4h.7v-.7h-.7v.7Z" class="g1_30"/>
<path d="M866.1 576.4h.7v-.7h-.7v.7Z" class="g1_30"/>
<path fill-rule="evenodd" d="M71.1 659.6h54.3V632.1H71.1v27.5Z" class="g0_30"/>
<path d="M79 659.6h38.5V632.1H79v27.5Z" class="g0_30"/>
<path fill-rule="evenodd" d="M126.1 659.6H359.2V632.1H126.1v27.5Z" class="g0_30"/>
<path d="M134 659.6H351.3V632.1H134v27.5Z" class="g0_30"/>
<path fill-rule="evenodd" d="M359.9 659.6h233V632.1h-233v27.5Z" class="g0_30"/>
<path d="M367.8 659.6H585V632.1H367.8v27.5Z" class="g0_30"/>
<path fill-rule="evenodd" d="M593.6 659.6H861.9V632.1H593.6v27.5Z" class="g0_30"/>
<path d="M601.5 659.6H854V632.1H601.5v27.5Z" class="g0_30"/>
<path d="M70.4 632.1h.7v-.7h-.7v.7Z" class="g1_30"/>
<path d="M70.4 632.1h.7v-.7h-.7v.7Z" class="g1_30"/>
<path d="M71.1 632.1h54.3v-.7H71.1v.7Z" class="g1_30"/>
<path d="M125.4 632.1h.7v-.7h-.7v.7Z" class="g1_30"/>
<path d="M126.1 632.1H359.2v-.7H126.1v.7Z" class="g1_30"/>
<path d="M359.2 632.1h.7v-.7h-.7v.7Z" class="g1_30"/>
<path d="M359.9 632.1h233v-.7h-233v.7Z" class="g1_30"/>
<path d="M592.9 632.1h.7v-.7h-.7v.7Z" class="g1_30"/>
<path d="M593.6 632.1H861.9v-.7H593.6v.7Z" class="g1_30"/>
<path d="M861.9 632.1h.7v-.7h-.7v.7Z" class="g1_30"/>
<path d="M861.9 632.1h.7v-.7h-.7v.7Z" class="g1_30"/>
<path d="M70.4 659.6h.7V632.1h-.7v27.5Z" class="g1_30"/>
<path d="M125.4 659.6h.7V632.1h-.7v27.5Z" class="g1_30"/>
<path d="M359.2 659.6h.7V632.1h-.7v27.5Z" class="g1_30"/>
<path d="M592.9 659.6h.7V632.1h-.7v27.5Z" class="g1_30"/>
<path d="M861.9 659.6h.7V632.1h-.7v27.5Z" class="g1_30"/>
<path fill-rule="evenodd" d="M71.1 687.9h54.3V660.4H71.1v27.5Z" class="g0_30"/>
<path d="M79 687.9h38.5V660.4H79v27.5Z" class="g0_30"/>
<path fill-rule="evenodd" d="M126.1 687.9H359.2V660.4H126.1v27.5Z" class="g0_30"/>
<path d="M134 687.9H351.3V660.4H134v27.5Z" class="g0_30"/>
<path fill-rule="evenodd" d="M359.9 687.9h233V660.4h-233v27.5Z" class="g0_30"/>
<path d="M367.8 687.9H585V660.4H367.8v27.5Z" class="g0_30"/>
<path fill-rule="evenodd" d="M593.6 687.9H861.9V660.4H593.6v27.5Z" class="g0_30"/>
<path d="M601.5 687.9H854V660.4H601.5v27.5Z" class="g0_30"/>
<path d="M70.4 660.4h.7v-.8h-.7v.8Z" class="g1_30"/>
<path d="M71.1 660.4h54.3v-.8H71.1v.8Z" class="g1_30"/>
<path d="M125.4 660.4h.7v-.8h-.7v.8Z" class="g1_30"/>
<path d="M126.1 660.4H359.2v-.8H126.1v.8Z" class="g1_30"/>
<path d="M359.2 660.4h.7v-.8h-.7v.8Z" class="g1_30"/>
<path d="M359.9 660.4h233v-.8h-233v.8Z" class="g1_30"/>
<path d="M592.9 660.4h.7v-.8h-.7v.8Z" class="g1_30"/>
<path d="M593.6 660.4H861.9v-.8H593.6v.8Z" class="g1_30"/>
<path d="M861.9 660.4h.7v-.8h-.7v.8Z" class="g1_30"/>
<path d="M70.4 687.9h.7V660.4h-.7v27.5Z" class="g1_30"/>
<path d="M125.4 687.9h.7V660.4h-.7v27.5Z" class="g1_30"/>
<path d="M359.2 687.9h.7V660.4h-.7v27.5Z" class="g1_30"/>
<path d="M592.9 687.9h.7V660.4h-.7v27.5Z" class="g1_30"/>
<path d="M861.9 687.9h.7V660.4h-.7v27.5Z" class="g1_30"/>
<path fill-rule="evenodd" d="M71.1 755.9h54.3V688.6H71.1v67.3Z" class="g0_30"/>
<path fill-rule="evenodd" d="M79 722.3h38.5V694.8H79v27.5Z" class="g0_30"/>
<path fill-rule="evenodd" d="M79 749.8h38.5V722.3H79v27.5Z" class="g0_30"/>
<path d="M694.6 707.3h9.2M664.2 741h9.2" class="g2_30"/>
<path d="M70.4 688.6h.7v-.7h-.7v.7Z" class="g1_30"/>
<path d="M71.1 688.6h54.3v-.7H71.1v.7Z" class="g1_30"/>
<path d="M125.4 688.6h.7v-.7h-.7v.7Z" class="g1_30"/>
<path d="M126.1 688.6H359.2v-.7H126.1v.7Z" class="g1_30"/>
<path d="M359.2 688.6h.7v-.7h-.7v.7Z" class="g1_30"/>
<path d="M359.9 688.6h233v-.7h-233v.7Z" class="g1_30"/>
<path d="M592.9 688.6h.7v-.7h-.7v.7Z" class="g1_30"/>
<path d="M593.6 688.6H861.9v-.7H593.6v.7Z" class="g1_30"/>
<path d="M861.9 688.6h.7v-.7h-.7v.7Z" class="g1_30"/>
<path d="M70.4 755.9h.7V688.6h-.7v67.3Z" class="g1_30"/>
<path d="M125.4 755.9h.7V688.6h-.7v67.3Z" class="g1_30"/>
<path d="M359.2 755.9h.7V688.6h-.7v67.3Z" class="g1_30"/>
<path d="M592.9 755.9h.7V688.6h-.7v67.3Z" class="g1_30"/>
<path d="M861.9 755.9h.7V688.6h-.7v67.3Z" class="g1_30"/>
<path fill-rule="evenodd" d="M71.1 894.1h54.3V756.6H71.1V894.1Z" class="g0_30"/>
<path fill-rule="evenodd" d="M79 839.1h38.5V811.6H79v27.5Z" class="g0_30"/>
<path d="M249.5 853.4l2.2 -1.3m0 0l5.9 11.9m0 .1l3.7 -21.5m0 0h18.3m203.7 10.8l2.2 -1.3m0 0l5.8 11.9m0 .1L495 842.6m0 0h18.3M694.6 810.9h9.2m-39.6 55h9.2" class="g2_30"/>
<path d="M70.4 756.6h.7v-.7h-.7v.7Z" class="g1_30"/>
<path d="M71.1 756.6h54.3v-.7H71.1v.7Z" class="g1_30"/>
<path d="M125.4 756.6h.7v-.7h-.7v.7Z" class="g1_30"/>
<path d="M126.1 756.6H359.2v-.7H126.1v.7Z" class="g1_30"/>
<path d="M359.2 756.6h.7v-.7h-.7v.7Z" class="g1_30"/>
<path d="M359.9 756.6h233v-.7h-233v.7Z" class="g1_30"/>
<path d="M592.9 756.6h.7v-.7h-.7v.7Z" class="g1_30"/>
<path d="M593.6 756.6H861.9v-.7H593.6v.7Z" class="g1_30"/>
<path d="M861.9 756.6h.7v-.7h-.7v.7Z" class="g1_30"/>
<path d="M70.4 894.1h.7V756.6h-.7V894.1Z" class="g1_30"/>
<path d="M70.4 894.8h.7v-.7h-.7v.7Z" class="g1_30"/>
<path d="M70.4 894.8h.7v-.7h-.7v.7Z" class="g1_30"/>
<path d="M71.1 894.8h54.3v-.7H71.1v.7Z" class="g1_30"/>
<path d="M125.4 894.1h.7V756.6h-.7V894.1Z" class="g1_30"/>
<path d="M125.4 894.8h.7v-.7h-.7v.7Z" class="g1_30"/>
<path d="M126.1 894.8H359.2v-.7H126.1v.7Z" class="g1_30"/>
<path d="M359.2 894.1h.7V756.6h-.7V894.1Z" class="g1_30"/>
<path d="M359.2 894.8h.7v-.7h-.7v.7Z" class="g1_30"/>
<path d="M359.9 894.8h233v-.7h-233v.7Z" class="g1_30"/>
<path d="M592.9 894.1h.7V756.6h-.7V894.1Z" class="g1_30"/>
<path d="M592.9 894.8h.7v-.7h-.7v.7Z" class="g1_30"/>
<path d="M593.6 894.8H861.9v-.7H593.6v.7Z" class="g1_30"/>
<path d="M861.9 894.1h.7V756.6h-.7V894.1Z" class="g1_30"/>
<path d="M861.9 894.8h.7v-.7h-.7v.7Z" class="g1_30"/>
<path d="M861.9 894.8h.7v-.7h-.7v.7Z" class="g1_30"/>
<path fill-rule="evenodd" d="M71.1 966.9h54.3V923.1H71.1v43.8Z" class="g0_30"/>
<path fill-rule="evenodd" d="M79 958.6h38.5V931.1H79v27.5Z" class="g0_30"/>
<path fill-rule="evenodd" d="M126.1 966.9H359.2V923.1H126.1v43.8Z" class="g0_30"/>
<path d="M134 966.9H351.3V923.1H134v43.8Z" class="g0_30"/>
<path d="M160.2 944h9.2" class="g2_30"/>
<path fill-rule="evenodd" d="M359.9 966.9h233V923.1h-233v43.8Z" class="g0_30"/>
<path d="M367.8 966.9H585V923.1H367.8v43.8Z" class="g0_30"/>
<path d="M394 944h9.2" class="g2_30"/>
<path fill-rule="evenodd" d="M593.6 966.9H861.9V923.1H593.6v43.8Z" class="g0_30"/>
<path fill-rule="evenodd" d="M601.5 957H854V933H601.5v24Z" class="g0_30"/>
<path d="M70.4 923.1h.7v-.8h-.7v.8Z" class="g1_30"/>
<path d="M70.4 923.1h.7v-.8h-.7v.8Z" class="g1_30"/>
<path d="M71.1 923.1h54.3v-.8H71.1v.8Z" class="g1_30"/>
<path d="M125.4 923.1h.7v-.8h-.7v.8Z" class="g1_30"/>
<path d="M126.1 923.1H359.2v-.8H126.1v.8Z" class="g1_30"/>
<path d="M359.2 923.1h.7v-.8h-.7v.8Z" class="g1_30"/>
<path d="M359.9 923.1h233v-.8h-233v.8Z" class="g1_30"/>
<path d="M592.9 923.1h.7v-.8h-.7v.8Z" class="g1_30"/>
<path d="M593.6 923.1H861.9v-.8H593.6v.8Z" class="g1_30"/>
<path d="M861.9 923.1h.7v-.8h-.7v.8Z" class="g1_30"/>
<path d="M861.9 923.1h.7v-.8h-.7v.8Z" class="g1_30"/>
<path d="M70.4 966.9h.7V923.1h-.7v43.8Z" class="g1_30"/>
<path d="M125.4 966.9h.7V923.1h-.7v43.8Z" class="g1_30"/>
<path d="M359.2 966.9h.7V923.1h-.7v43.8Z" class="g1_30"/>
<path d="M592.9 966.9h.7V923.1h-.7v43.8Z" class="g1_30"/>
<path d="M861.9 966.9h.7V923.1h-.7v43.8Z" class="g1_30"/>
<path fill-rule="evenodd" d="M71.1 1011.3h54.3V967.6H71.1v43.7Z" class="g0_30"/>
<path fill-rule="evenodd" d="M79 1003.2h38.5V975.7H79v27.5Z" class="g0_30"/>
<path fill-rule="evenodd" d="M126.1 1011.3H359.2V967.6H126.1v43.7Z" class="g0_30"/>
<path d="M134 1011.3H351.3V967.6H134v43.7Z" class="g0_30"/>
<path d="M166.8 988.5h14.1" class="g2_30"/>
<path fill-rule="evenodd" d="M359.9 1011.3h233V967.6h-233v43.7Z" class="g0_30"/>
<path d="M367.8 1011.3H585V967.6H367.8v43.7Z" class="g0_30"/>
<path d="M400.6 988.5h14.1" class="g2_30"/>
<path fill-rule="evenodd" d="M593.6 1011.3H861.9V967.6H593.6v43.7Z" class="g0_30"/>
<path fill-rule="evenodd" d="M601.5 1001.4H854V977.5H601.5v23.9Z" class="g0_30"/>
<path d="M70.4 967.6h.7v-.7h-.7v.7Z" class="g1_30"/>
<path d="M71.1 967.6h54.3v-.7H71.1v.7Z" class="g1_30"/>
<path d="M125.4 967.6h.7v-.7h-.7v.7Z" class="g1_30"/>
<path d="M126.1 967.6H359.2v-.7H126.1v.7Z" class="g1_30"/>
<path d="M359.2 967.6h.7v-.7h-.7v.7Z" class="g1_30"/>
<path d="M359.9 967.6h233v-.7h-233v.7Z" class="g1_30"/>
<path d="M592.9 967.6h.7v-.7h-.7v.7Z" class="g1_30"/>
<path d="M593.6 967.6H861.9v-.7H593.6v.7Z" class="g1_30"/>
<path d="M861.9 967.6h.7v-.7h-.7v.7Z" class="g1_30"/>
<path d="M70.4 1011.3h.7V967.6h-.7v43.7Z" class="g1_30"/>
<path d="M125.4 1011.3h.7V967.6h-.7v43.7Z" class="g1_30"/>
<path d="M359.2 1011.3h.7V967.6h-.7v43.7Z" class="g1_30"/>
<path d="M592.9 1011.3h.7V967.6h-.7v43.7Z" class="g1_30"/>
<path d="M861.9 1011.3h.7V967.6h-.7v43.7Z" class="g1_30"/>
<path fill-rule="evenodd" d="M71.1 1067h54.3v-55H71.1v55Z" class="g0_30"/>
<path d="M79 1039.5h38.5V1012H79v27.5Z" class="g0_30"/>
<path d="M79 1067h38.5v-27.5H79V1067Z" class="g0_30"/>
<path d="M166.8 1038.6h14.1m50.6 0h9.2m159.9 0h14.1m50.6 0h9.2" class="g2_30"/>
<path d="M70.4 1012h.7v-.7h-.7v.7Z" class="g1_30"/>
<path d="M71.1 1012h54.3v-.7H71.1v.7Z" class="g1_30"/>
<path d="M125.4 1012h.7v-.7h-.7v.7Z" class="g1_30"/>
<path d="M126.1 1012H359.2v-.7H126.1v.7Z" class="g1_30"/>
<path d="M359.2 1012h.7v-.7h-.7v.7Z" class="g1_30"/>
<path d="M359.9 1012h233v-.7h-233v.7Z" class="g1_30"/>
<path d="M592.9 1012h.7v-.7h-.7v.7Z" class="g1_30"/>
<path d="M593.6 1012H861.9v-.7H593.6v.7Z" class="g1_30"/>
<path d="M861.9 1012h.7v-.7h-.7v.7Z" class="g1_30"/>
<path d="M70.4 1067h.7v-55h-.7v55Z" class="g1_30"/>
<path d="M125.4 1067h.7v-55h-.7v55Z" class="g1_30"/>
<path d="M359.2 1067h.7v-55h-.7v55Z" class="g1_30"/>
<path d="M592.9 1067h.7v-55h-.7v55Z" class="g1_30"/>
<path d="M861.9 1067h.7v-55h-.7v55Z" class="g1_30"/>
<path fill-rule="evenodd" d="M71.1 1155.2h54.3v-87.5H71.1v87.5Z" class="g0_30"/>
<path fill-rule="evenodd" d="M79 1125.3h38.5v-27.5H79v27.5Z" class="g0_30"/>
<path d="M201.5 1088.6h9.2m-21 43.8h14.2m231.3 -43.8h9.2m-20.9 43.8h14.1" class="g2_30"/>
<path d="M70.4 1067.7h.7v-.7h-.7v.7Z" class="g1_30"/>
<path d="M71.1 1067.7h54.3v-.7H71.1v.7Z" class="g1_30"/>
<path d="M125.4 1067.7h.7v-.7h-.7v.7Z" class="g1_30"/>
<path d="M126.1 1067.7H359.2v-.7H126.1v.7Z" class="g1_30"/>
<path d="M359.2 1067.7h.7v-.7h-.7v.7Z" class="g1_30"/>
<path d="M359.9 1067.7h233v-.7h-233v.7Z" class="g1_30"/>
<path d="M592.9 1067.7h.7v-.7h-.7v.7Z" class="g1_30"/>
<path d="M593.6 1067.7H861.9v-.7H593.6v.7Z" class="g1_30"/>
<path d="M861.9 1067.7h.7v-.7h-.7v.7Z" class="g1_30"/>
<path d="M70.4 1155.2h.7v-87.5h-.7v87.5Z" class="g1_30"/>
<path d="M70.4 1155.9h.7v-.7h-.7v.7Z" class="g1_30"/>
<path d="M70.4 1155.9h.7v-.7h-.7v.7Z" class="g1_30"/>
<path d="M71.1 1155.9h54.3v-.7H71.1v.7Z" class="g1_30"/>
<path d="M125.4 1155.2h.7v-87.5h-.7v87.5Z" class="g1_30"/>
<path d="M125.4 1155.9h.7v-.7h-.7v.7Z" class="g1_30"/>
<path d="M126.1 1155.9H359.2v-.7H126.1v.7Z" class="g1_30"/>
<path d="M359.2 1155.2h.7v-87.5h-.7v87.5Z" class="g1_30"/>
<path d="M359.2 1155.9h.7v-.7h-.7v.7Z" class="g1_30"/>
<path d="M359.9 1155.9h233v-.7h-233v.7Z" class="g1_30"/>
<path d="M592.9 1155.2h.7v-87.5h-.7v87.5Z" class="g1_30"/>
<path d="M592.9 1155.9h.7v-.7h-.7v.7Z" class="g1_30"/>
<path d="M593.6 1155.9H861.9v-.7H593.6v.7Z" class="g1_30"/>
<path d="M861.9 1155.2h.7v-87.5h-.7v87.5Z" class="g1_30"/>
<path d="M861.9 1155.9h.7v-.7h-.7v.7Z" class="g1_30"/>
<path d="M861.9 1155.9h.7v-.7h-.7v.7Z" class="g1_30"/>
<image clip-path="url(#c1_30)" preserveAspectRatio="none" x="0" y="0" width="914" height="151" xlink:href="img/2.jpg"/>
<image clip-path="url(#c2_30)" preserveAspectRatio="none" x="23" y="153" width="1038" height="49" xlink:href="img/3.png"/>
<path d="M387.4 263.9l-.9 -.1l-.7 -.2l-.8 -.4l-.7 -.5l-.3 -.4l-.2 -.3l-.4 -.7l-.2 -.9l-.1 -.8V247l.1 -.9l.2 -.8l.4 -.8l.5 -.6l.7 -.6l.8 -.4l.7 -.2h14.3l.4 .1l.4 .1l.6 .4l.4 .3l.3 .3l.6 .6l.4 .8l.3 .8v14.3l-.3 .9l-.2 .3l-.1 .2l-.1 .2l-.3 .3l-.1 .2h-.2v.2l-.3 .2l-.4 .3l-.2 .1l-.1 .1l-.3 .2l-.4 .1H401v.1h-.6l-.1 .1h-.4Z" class="g3_30"/>
<path d="M387.4 319.6l-.9 -.1l-.7 -.2l-.8 -.4l-.7 -.6L384 318l-.2 -.4l-.4 -.6l-.2 -.9l-.1 -.8V302.7l.1 -.9l.2 -.8l.4 -.8l.5 -.6l.7 -.6l.8 -.4l.7 -.2l.9 -.1h12.5l.9 .1l.4 .1l.4 .1l.6 .4l.4 .2l.3 .4l.6 .6l.4 .8l.3 .8v14.3l-.3 .9l-.2 .3l-.1 .1l-.1 .2l-.3 .4l-.1 .1l-.1 .1h-.1v.1l-.3 .3l-.4 .3l-.2 .1l-.1 .1l-.3 .2l-.4 .1H401l-.2 .1h-.4l-.1 .1h-.4Z" class="g3_30"/>
<path d="M387.4 348.5l-.9 -.1l-.7 -.2l-.8 -.5l-.7 -.5l-.3 -.3l-.2 -.4l-.4 -.7l-.2 -.8l-.1 -.8V331.6l.1 -.9l.2 -.8l.4 -.8l.5 -.7l.7 -.5l.8 -.4l.7 -.2l.9 -.1h12.5l.9 .1h.4l.4 .2l.6 .4l.4 .2l.3 .3l.6 .7l.4 .8l.3 .8V345l-.3 .8l-.2 .4l-.1 .1l-.1 .2l-.3 .4l-.1 .1l-.1 .1h-.1v.1l-.3 .3l-.4 .2l-.2 .1l-.1 .2l-.3 .2l-.4 .1H401l-.2 .1h-.5l-.4 .1Z" class="g3_30"/>
<path d="M387.4 376.1h-.9l-.7 -.3l-.8 -.4l-.7 -.5l-.3 -.4l-.2 -.3l-.4 -.7l-.2 -.8l-.1 -.9V359.2l.1 -.9l.2 -.8l.4 -.7l.5 -.7l.7 -.6l.8 -.3l.7 -.3h14.3l.4 .1l.4 .2l.6 .3l.4 .3l.3 .3l.6 .7l.4 .7l.3 .8v14.4l-.3 .8l-.2 .3l-.1 .2l-.1 .2l-.3 .3l-.1 .2h-.2v.2l-.3 .2l-.4 .3l-.2 .1l-.1 .1l-.3 .2l-.4 .1H401v.1l-.2 .1h-.9Z" class="g3_30"/>
<path d="M86.5 431.5l-.9 -.1l-.8 -.3l-.8 -.4l-.6 -.5l-.3 -.4l-.3 -.3l-.3 -.7l-.3 -.8V413.6l.3 -.7l.3 -.8l.6 -.7l.6 -.5l.8 -.4l.8 -.3H99.9l.3 .1l.4 .2l.7 .4l.3 .2l.4 .3l.6 .7l.4 .8l.2 .7l.1 .9v13l-.1 .1v.4l-.2 .8l-.2 .3l-.1 .2l-.1 .2l-.3 .3l-.2 .2l-.1 .1v.1l-.4 .2l-.3 .3l-.2 .1l-.2 .1l-.3 .2l-.4 .2H100l-.1 .1h-.5l-.4 .1Z" class="g4_30"/>
<path d="M70.3 486.1l-.4 -.1l-.4 -.1l-.8 -.2l-.7 -.4l-.6 -.5l-.3 -.3l-.3 -.4l-.3 -.7l-.2 -.4v-.4l-.1 -.8V470.4l.1 -.9l.2 -.8l.3 -.7l.6 -.7l.6 -.5l.7 -.4l.8 -.2l.8 -.1h79.8l.4 .1h.4l.4 .2l.3 .1l.4 .3l.3 .2l.3 .3l.5 .5l.3 .6l.3 .7l.2 .7v12l-.1 .4v.4l-.1 .4l-.1 .2v.2l-.2 .2v.2l-.2 .3l-.3 .4l-.2 .1v.1h-.1v.1h-.1l-.1 .1l-.1 .2l-.3 .2l-.2 .1l-.2 .1l-.3 .2l-.4 .1h-.1l-.1 .1h-.2l-.4 .1l-.4 .1Z" class="g5_30"/>
<path d="M68.7 404.7l-.8 -.1l-.7 -.2l-.6 -.4l-.6 -.6l-.3 -.3l-.2 -.4l-.3 -.7l-.2 -.9l-.1 -.5l.1 -.4V386.9l.2 -.8l.3 -.8l.5 -.6l.6 -.6l.6 -.4l.7 -.3l.8 -.1h31.6l.7 .1l.3 .1l.4 .2l.3 .1l.3 .3l.3 .2l.3 .4l.5 .6l.4 .8l.2 .8l.1 1v12.3l-.1 .4v.5l-.1 .4l-.1 .2v.3l-.2 .1v.2l-.2 .4l-.3 .4l-.1 .1l-.1 .2l-.3 .3l-.2 .1l-.1 .2l-.3 .2h-.2l-.1 .1v.1h-.2l-.2 .1l-.3 .1l-.7 .1Z" class="g6_30"/>
</svg>