<?xml version="1.0" encoding="UTF-8" standalone="no"?>
<!DOCTYPE svg PUBLIC "-//W3C//DTD SVG 1.1//EN"
"http://www.w3.org/Graphics/SVG/1.1/DTD/svg11.dtd">
<svg viewBox="0 0 909 1286" version="1.1" xmlns="http://www.w3.org/2000/svg" xmlns:xlink="http://www.w3.org/1999/xlink">
<defs>
<clipPath id="c0_72"><path d="M-.2 1286.6v-57.8h910v57.8Z"/></clipPath>
<style type="text/css"><![CDATA[
.g0_72{
fill: #CFC;
}
.g1_72{
fill: #70AD47;
}
.g2_72{
fill: none;
stroke: #000;
stroke-width: 0.998;
stroke-linecap: square;
stroke-miterlimit: 10;
}
.g3_72{
fill: none;
stroke: #F00;
stroke-width: 0.998;
stroke-linecap: square;
stroke-miterlimit: 10;
}
.g4_72{
fill: #000;
}
.g5_72{
fill: #F90;
}
]]></style>
</defs>
<image clip-path="url(#c0_72)" preserveAspectRatio="none" x="-2" y="1229" width="930" height="128" xlink:href="img/1.jpg"/>
<path fill-rule="evenodd" d="M71.1 126.5H180.4v-55H71.1v55Z" class="g0_72"/>
<path d="M79 99h93.5V71.5H79V99Z" class="g0_72"/>
<path d="M79 126.5h93.5V99H79v27.5Z" class="g0_72"/>
<path d="M70.4 71.5h.7v-.7h-.7v.7Z" class="g1_72"/>
<path d="M70.4 71.5h.7v-.7h-.7v.7Z" class="g1_72"/>
<path d="M71.1 71.5H180.4v-.7H71.1v.7Z" class="g1_72"/>
<path d="M180.4 71.5h.7v-.7h-.7v.7Z" class="g1_72"/>
<path d="M181.1 71.5H861.9v-.7H181.1v.7Z" class="g1_72"/>
<path d="M861.9 71.5h.7v-.7h-.7v.7Z" class="g1_72"/>
<path d="M861.9 71.5h.7v-.7h-.7v.7Z" class="g1_72"/>
<path d="M70.4 126.5h.7v-55h-.7v55Z" class="g1_72"/>
<path d="M180.4 126.5h.7v-55h-.7v55Z" class="g1_72"/>
<path d="M861.9 126.5h.7v-55h-.7v55Z" class="g1_72"/>
<path fill-rule="evenodd" d="M71.1 154.9H180.4V127.4H71.1v27.5Z" class="g0_72"/>
<path d="M79 154.9h93.5V127.4H79v27.5Z" class="g0_72"/>
<path d="M70.4 127.2h.7v-.7h-.7v.7Z" class="g1_72"/>
<path d="M71.1 127.2H180.4v-.7H71.1v.7Z" class="g1_72"/>
<path d="M180.4 127.2h.7v-.7h-.7v.7Z" class="g1_72"/>
<path d="M181.1 127.2H861.9v-.7H181.1v.7Z" class="g1_72"/>
<path d="M861.9 127.2h.7v-.7h-.7v.7Z" class="g1_72"/>
<path d="M70.4 154.9h.7V127.2h-.7v27.7Z" class="g1_72"/>
<path d="M180.4 154.9h.7V127.2h-.7v27.7Z" class="g1_72"/>
<path d="M861.9 154.9h.7V127.2h-.7v27.7Z" class="g1_72"/>
<path fill-rule="evenodd" d="M71.1 183.2H180.4V155.7H71.1v27.5Z" class="g0_72"/>
<path d="M79 183.2h93.5V155.7H79v27.5Z" class="g0_72"/>
<path d="M70.4 155.7h.7v-.8h-.7v.8Z" class="g1_72"/>
<path d="M71.1 155.7H180.4v-.8H71.1v.8Z" class="g1_72"/>
<path d="M180.4 155.7h.7v-.8h-.7v.8Z" class="g1_72"/>
<path d="M181.1 155.7H861.9v-.8H181.1v.8Z" class="g1_72"/>
<path d="M861.9 155.7h.7v-.8h-.7v.8Z" class="g1_72"/>
<path d="M70.4 183.2h.7V155.7h-.7v27.5Z" class="g1_72"/>
<path d="M180.4 183.2h.7V155.7h-.7v27.5Z" class="g1_72"/>
<path d="M861.9 183.2h.7V155.7h-.7v27.5Z" class="g1_72"/>
<path fill-rule="evenodd" d="M71.1 211.4H180.4V183.9H71.1v27.5Z" class="g0_72"/>
<path d="M79 211.4h93.5V183.9H79v27.5Z" class="g0_72"/>
<path d="M70.4 183.9h.7v-.8h-.7v.8Z" class="g1_72"/>
<path d="M71.1 183.9H180.4v-.8H71.1v.8Z" class="g1_72"/>
<path d="M180.4 183.9h.7v-.8h-.7v.8Z" class="g1_72"/>
<path d="M181.1 183.9H861.9v-.8H181.1v.8Z" class="g1_72"/>
<path d="M861.9 183.9h.7v-.8h-.7v.8Z" class="g1_72"/>
<path d="M70.4 211.4h.7V183.9h-.7v27.5Z" class="g1_72"/>
<path d="M180.4 211.4h.7V183.9h-.7v27.5Z" class="g1_72"/>
<path d="M861.9 211.4h.7V183.9h-.7v27.5Z" class="g1_72"/>
<path fill-rule="evenodd" d="M71.1 404.6H180.4V212.1H71.1V404.6Z" class="g0_72"/>
<path d="M79 239.6h93.5V212.1H79v27.5Z" class="g0_72"/>
<path d="M203.8 289.2l66.5 -24.3l39.9 64l-45.5 49.8l-23 -7.5L236 369.3L203.8 358.7V289.2m14 68.2l2 2l1.1 .9l1.1 .9l1 .9l1.1 .8l1.2 .8l1.1 .8l1.1 .7l1.2 .7l2.4 1.2l1.2 .6l1.2 .5l1.2 .4l1.3 .5l1.4 .5l1.5 .4l1.4 .3l1.5 .4l2.2 .3l2.3 .3l2.2 .1l2.4 .1h1.2l1.2 -.1h.6l.2 -.1h1.6l1.1 -.2l.6 -.1h.6l2.2 -.4l1.1 -.3l.3 -.1h.3l.5 -.1l2.2 -.6l1.1 -.4l1.1 -.3l2.1 -.9l1 -.4l1 -.5l2 -1l1 -.6l1 -.6l.4 -.3l.5 -.3l1 -.7l.9 -.7l.9 -.7l1.9 -1.4l.4 -.4l.4 -.4l.9 -.8l.9 -.9l.2 -.2l.2 -.2l.5 -.4l.4 -.5l.2 -.2l.2 -.2l.8 -.9l.8 -.9l.4 -.5l.4 -.4l1.4 -1.9l.7 -1l.7 -.9l.6 -1l.6 -1l.6 -1l.6 -1l1 -2.1l.4 -1l.5 -1l.8 -2.2l.3 -1.1l.4 -1.1l.3 -1.1l.2 -1.2l.2 -.5v-.3l.1 -.3l.3 -1.1l.3 -2.4l.1 -.6l.1 -.6l.1 -1.1l.2 -2.4v-5l-.2 -2.4l-.3 -2.4l-.3 -2.3l-.6 -2.3l-.5 -2.2l-.7 -2.2l-.8 -2.2l-.9 -2.1l-1 -2l-1.2 -2.1L290 296.8l-1.4 -1.9L287.2 293l-1.6 -1.8L284 289.4l-1.8 -1.7l-.9 -.8l-.8 -.8l-1.9 -1.5l-.9 -.7l-.9 -.6l-1 -.7l-.9 -.6l-2 -1.2l-2 -1l-2 -.9l-2.1 -.9l-1.1 -.4l-1.1 -.3l-2.2 -.6l-1.1 -.3l-1.1 -.2l-2.2 -.4l-2.3 -.2l-1.2 -.2h-6l-2.3 .2l-2.4 .2l-2.2 .4l-2.3 .5l-2.2 .6L235 278l-2.1 .9l-2 .9l-2 1l-2 1.2l-1.9 1.3l-1.9 1.3l-1.8 1.5l-1.8 1.6l-1.7 1.7l-1.7 1.8l-1.5 1.8l-1.5 1.9l-1.3 1.9l-1.2 1.9l-1.1 2.1l-1.1 2l-.9 2.1l-.8 2.2l-.7 2.2l-.6 2.2l-.4 2.3l-.4 2.3l-.3 2.4l-.2 2.4v5l.2 2.4l.3 2.3l.4 2.4l.2 1.1l.2 1.1l.6 2.3l.3 1.1l.4 1.1l.8 2.2l.9 2l1.1 2.1l1.1 2l.6 1l.6 1l.6 .9l.7 1l1.5 1.9l.7 .9l.8 .9l1.7 1.8" class="g2_72"/>
<path d="M236 369.3v-.2l.6 -1.7m.7 -2l.6 -1.9m.7 -2l.6 -1.9m.6 -2l.6 -2m.7 -1.9l.7 -2m.6 -2l.7 -1.9m.6 -2l.7 -2m.6 -1.9l.8 -2m.6 -2l.7 -1.9m.6 -2l.7 -1.9m.6 -2l.7 -2m.6 -1.9l.7 -2m.6 -2l.5 -1.3m-10.4 50.3l.1 -.5l1.9 -6.1l-5.6 -1.7" class="g3_72"/>
<path d="M251.5 323.8l-.4 -.1l-.5 -.3l-.3 -.3l-.4 -.4l-.2 -.4l-.2 -.5v-1l.2 -.5l.2 -.4l.4 -.4l.3 -.4l.5 -.2l.4 -.1l.6 -.1l.4 .1l.5 .1l.4 .2l.4 .4l.3 .4l.3 .4l.1 .5l.1 .5l-.1 .3v.2l-.1 .5l-.3 .4l-.3 .4l-.4 .3l-.4 .3l-.5 .1h-.1l-.1 .1h-.2Z" class="g4_72"/>
<path d="M70.4 212.1h.7v-.7h-.7v.7Z" class="g1_72"/>
<path d="M71.1 212.1H180.4v-.7H71.1v.7Z" class="g1_72"/>
<path d="M180.4 212.1h.7v-.7h-.7v.7Z" class="g1_72"/>
<path d="M181.1 212.1H861.9v-.7H181.1v.7Z" class="g1_72"/>
<path d="M861.9 212.1h.7v-.7h-.7v.7Z" class="g1_72"/>
<path d="M70.4 404.6h.7V212.1h-.7V404.6Z" class="g1_72"/>
<path d="M70.4 405.4h.7v-.8h-.7v.8Z" class="g1_72"/>
<path d="M70.4 405.4h.7v-.8h-.7v.8Z" class="g1_72"/>
<path d="M71.1 405.4H180.4v-.8H71.1v.8Z" class="g1_72"/>
<path d="M180.4 404.6h.7V212.1h-.7V404.6Z" class="g1_72"/>
<path d="M180.4 405.4h.7v-.8h-.7v.8Z" class="g1_72"/>
<path d="M181.1 405.4H861.9v-.8H181.1v.8Z" class="g1_72"/>
<path d="M861.9 404.6h.7V212.1h-.7V404.6Z" class="g1_72"/>
<path d="M861.9 405.4h.7v-.8h-.7v.8Z" class="g1_72"/>
<path d="M861.9 405.4h.7v-.8h-.7v.8Z" class="g1_72"/>
<path d="M69.8 429.3h-.9l-.8 -.3l-.8 -.4l-.6 -.5l-.4 -.4l-.2 -.3l-.4 -.7l-.2 -.8V411.5l.2 -.8l.4 -.8l.6 -.6l.6 -.6l.8 -.3l.8 -.3H83.1l.4 .1l.4 .2l.7 .3l.3 .3l.4 .3l.5 .6l.4 .8l.3 .8l.1 .9V425l-.1 .4v.5l-.3 .8L86 427l-.1 .2l-.1 .2l-.2 .3l-.2 .2h-.1v.2l-.4 .2l-.3 .3l-.2 .1l-.2 .1l-.3 .2l-.4 .1h-.1l-.1 .1l-.2 .1h-.8Z" class="g5_72"/>
</svg>