<?xml version="1.0" encoding="UTF-8" standalone="no"?>
<!DOCTYPE svg PUBLIC "-//W3C//DTD SVG 1.1//EN"
"http://www.w3.org/Graphics/SVG/1.1/DTD/svg11.dtd">
<svg viewBox="0 0 909 1286" version="1.1" xmlns="http://www.w3.org/2000/svg" xmlns:xlink="http://www.w3.org/1999/xlink">
<defs>
<clipPath id="c0_2"><path d="M0 1286.2v-57H909.1v57Z"/></clipPath>
<clipPath id="c1_2"><path d="M531.9 583.8V559.2h13.3v24.6Z"/></clipPath>
<clipPath id="c2_2"><path d="M543.9 583.8v-44h8.6v44Z"/></clipPath>
<clipPath id="c3_2"><path d="M25.2 329.2v-39H848.1v39Z"/></clipPath>
<style type="text/css"><![CDATA[
.g0_2{
fill: none;
stroke: #000;
stroke-width: 1.099;
stroke-linecap: round;
stroke-linejoin: round;
}
.g1_2{
fill: none;
stroke: #000;
stroke-width: 0.905;
stroke-linecap: round;
stroke-linejoin: round;
}
.g2_2{
fill: #CFC;
}
.g3_2{
fill: #70AD47;
}
.g4_2{
fill: none;
stroke: #ED7C31;
stroke-width: 1.099;
stroke-linecap: round;
stroke-linejoin: round;
}
.g5_2{
fill: #65CC33;
}
.g6_2{
fill: #F00;
}
.g7_2{
fill: #FF9A00;
}
]]></style>
</defs>
<image clip-path="url(#c0_2)" preserveAspectRatio="none" x="-2" y="1229" width="930" height="60" xlink:href="img/1.jpg"/>
<path d="M349.2 64.3h9.1" class="g0_2"/>
<path d="M197.6 111.5h10.9" class="g1_2"/>
<path d="M396.3 109.4l2.3 -1.2l5.8 11.8L408 98.6h9.2M286.5 169.5l2.3 -1.2l5.8 11.8l3.6 -21.3h9.2m50.9 190l2.3 -1.2l5.9 11.8l3.6 -21.3h9.1m11.9 10.7l2.3 -1.2l5.9 11.8l3.6 -21.3H412m19.9 10.8l2.3 -1.2l5.9 11.8l3.6 -21.3h28.7m120.7 10.7l2.3 -1.2l5.8 11.8l3.6 -21.3H614m11.9 10.7l2.3 -1.2l5.9 11.8l3.5 -21.3h9.2m19.9 10.7l2.3 -1.2l5.9 11.8l3.5 -21.3h28.7M727 348.9l2.3 -1.2l5.9 11.8l3.5 -21.3h9.2M361.4 408.9l2.2 -1.2l5.9 11.9l3.6 -21.4h9.2m11.6 10.7l2.3 -1.2l5.9 11.9l3.5 -21.4h9.2m19.9 -1.5l2.3 -1.2l5.8 11.9L446.4 386h9.2m-20.8 35.4l2.3 -1.2l5.8 11.8l3.6 -21.3h9.2m-20.8 -3.1h22.3m18.3 .8l4.7 -2.5l12 24.2l7.2 -43.5h9.2m-7.6 21h9.1m82.4 1.4l2.3 -1.2l5.9 11.8l3.6 -21.3h9.1M625.1 409l2.3 -1.2l5.8 11.8l3.6 -21.3H646m19.9 -1.6l2.3 -1.2l5.8 11.9L677.6 386h9.2m-20.9 35.4l2.3 -1.2L674 432l3.6 -21.3h9.2m-20.9 -3.1h22.4m18.4 1l4.7 -2.5l11.9 24.2l7.3 -43.6h9.2m-7.7 20.9h9.2m-432 60.6l2.3 -1.2l5.8 11.9L321 457.5h9.2m144 37.6l2.3 -1.2l5.9 11.8l3.5 -21.3h9.2" class="g0_2"/>
<path d="M57.5 536H427.9V509.1H57.5V536Z" class="g2_2"/>
<path d="M65.4 534.5H420V510.7H65.4v23.8Z" class="g2_2"/>
<path d="M464.1 522.9l2.3 -1.2l5.9 11.8l3.5 -21.4h18.4m19.9 10.8l2.3 -1.2l5.8 11.8l3.6 -21.4h34.7m29.1 10.8l2.3 -1.2l5.9 11.8l3.5 -21.4h9.2" class="g0_2"/>
<path d="M56.7 509.1h.8v-.7h-.8v.7Z" class="g3_2"/>
<path d="M56.7 509.1H862.6v-.7H56.7v.7Z" class="g3_2"/>
<path d="M861.9 509.1h.7v-.7h-.7v.7Z" class="g3_2"/>
<path d="M56.7 536h.8V509.1h-.8V536Z" class="g3_2"/>
<path d="M428 536h.7V509.1H428V536Z" class="g3_2"/>
<path d="M861.9 536h.7V509.1h-.7V536Z" class="g3_2"/>
<path d="M57.5 583.8H427.9v-47H57.5v47Z" class="g2_2"/>
<path d="M65.4 572.2H420V548.3H65.4v23.9Z" class="g2_2"/>
<path d="M464.1 562.7l2.3 -1.1l5.9 11.8L475.8 552h32.1m19.9 10.3l4.8 -2.5" class="g0_2"/>
<path clip-path="url(#c1_2)" d="M532.6 559.8L544.5 584" class="g0_2"/>
<path clip-path="url(#c2_2)" d="M544.5 584l7.2 -43.5" class="g0_2"/>
<path d="M551.7 540.5h27.5m-25.9 20.8h27.5M599 550.5l2.3 -1.2l5.9 11.8l3.6 -21.4h9.1M599 561.3h22.5" class="g0_2"/>
<path d="M56.7 536.7H862.6V536H56.7v.7Z" class="g3_2"/>
<path d="M56.7 583.8h.8V536.7h-.8v47.1Z" class="g3_2"/>
<path d="M428 583.8h.7V536.7H428v47.1Z" class="g3_2"/>
<path d="M861.9 583.8h.7V536.7h-.7v47.1Z" class="g3_2"/>
<path d="M57.5 635H427.9V584.6H57.5V635Z" class="g2_2"/>
<path d="M65.4 621.7H420V597.9H65.4v23.8Z" class="g2_2"/>
<path d="M464.1 622.9l2.3 -1.2l5.9 11.8l3.5 -21.3H485M464.1 609h22.5M531 598.2l2.3 -1.2l5.9 11.8l3.6 -21.3h9.1M505 622.9l2.3 -1.2l5.9 11.8l3.5 -21.3h9.2m11.9 10.7l2.3 -1.2l5.9 11.8l3.5 -21.3h9.2M505.1 609h55.2m27.3 -10.8l2.3 -1.2l5.8 11.8l3.6 -21.3h9.2M578.4 609H610" class="g0_2"/>
<path d="M56.7 584.6H862.6v-.8H56.7v.8Z" class="g3_2"/>
<path d="M56.7 635.8h.8V584.6h-.8v51.2Z" class="g3_2"/>
<path d="M56.7 635.8H428v-.7H56.7v.7Z" class="g3_2"/>
<path d="M428 635.8h.7V584.6H428v51.2Z" class="g3_2"/>
<path d="M428.7 635.8H861.9v-.7H428.7v.7Z" class="g3_2"/>
<path d="M861.9 635.8h.7V584.6h-.7v51.2Z" class="g3_2"/>
<path d="M861.9 635.8h.7v-.7h-.7v.7Z" class="g3_2"/>
<path d="M89.2 661.3l2.3 -1.2l5.9 11.8l3.5 -21.3h18.4m19.9 10.2l4.7 -2.4l11.9 24.2L163.1 639h9.1m-7.6 20.8h9.2m18.2 1.5l2.3 -1.2l5.9 11.8l3.6 -21.3h22.9M401 717.1l2.3 -1.2l5.9 11.8l3.6 -21.3h8.1m-40.8 35.4l2.3 -1.2l5.9 11.8L391.9 731H401m19.9 10.8l2.3 -1.2l5.9 11.8L432.7 731h9.1m-61.7 -3.1h63.3" class="g0_2"/>
<path d="M71.2 780.9H180.4V757.1H71.2v23.8Z" class="g2_2"/>
<path d="M79.1 780.9h93.4V757.1H79.1v23.8Z" class="g2_2"/>
<path d="M181.2 780.9H496.7V757.1H181.2v23.8Z" class="g2_2"/>
<path d="M189.1 780.9H488.8V757.1H189.1v23.8Z" class="g2_2"/>
<path d="M497.5 780.9H861.9V757.1H497.5v23.8Z" class="g2_2"/>
<path d="M505.4 780.9H854V757.1H505.4v23.8Z" class="g2_2"/>
<path d="M70.5 757.1h.7v-.8h-.7v.8Z" class="g3_2"/>
<path d="M70.5 757.1H862.6v-.8H70.5v.8Z" class="g3_2"/>
<path d="M861.9 757.1h.7v-.8h-.7v.8Z" class="g3_2"/>
<path d="M70.5 780.9h.7V757.1h-.7v23.8Z" class="g3_2"/>
<path d="M180.5 780.9h.7V757.1h-.7v23.8Z" class="g3_2"/>
<path d="M496.7 780.9h.8V757.1h-.8v23.8Z" class="g3_2"/>
<path d="M861.9 780.9h.7V757.1h-.7v23.8Z" class="g3_2"/>
<path d="M71.2 832.1H180.4V781.7H71.2v50.4Z" class="g2_2"/>
<path d="M79.1 830.2h93.4V783.6H79.1v46.6Z" class="g2_2"/>
<path d="M108.5 808.4l4.8 -2.5l11.9 24.2l7.3 -43.5h9.1m-7.6 21h9.2M335.8 795.4l2.3 -1.2l5.8 11.8l3.6 -21.3h9.2m148.7 35.4l2.3 -1.2l5.8 11.8l3.6 -21.4h9.2m-20.9 -3.1h22.4m44.5 -10.8l2.3 -1.2l5.8 11.8L584 784.7h9.2m-47 35.4l2.3 -1.2l5.9 11.8L558 809.3h9.1m12 10.8l2.2 -1.2l5.9 11.8l3.6 -21.4H600m-53.7 -3.1h55.2m27.3 -10.8l2.3 -1.2L637 806l3.6 -21.3h9.1m-30 21.5h31.6" class="g0_2"/>
<path d="M70.5 781.6H862.6v-.7H70.5v.7Z" class="g3_2"/>
<path d="M70.5 832.1h.7V781.6h-.7v50.5Z" class="g3_2"/>
<path d="M180.5 832.1h.7V781.6h-.7v50.5Z" class="g3_2"/>
<path d="M496.7 832.1h.8V781.6h-.8v50.5Z" class="g3_2"/>
<path d="M861.9 832.1h.7V781.6h-.7v50.5Z" class="g3_2"/>
<path d="M71.2 888.2H180.4V832.9H71.2v55.3Z" class="g2_2"/>
<path d="M79.1 887h93.4V834.1H79.1V887Z" class="g2_2"/>
<path d="M115.1 847.7l2.3 -1.2l5.9 11.9L126.9 837H135M94.3 872.4l2.3 -1.2l5.9 11.8l3.6 -21.3h9.1m19.9 10.7l2.3 -1.2l5.9 11.8l3.6 -21.3H156M94.4 858.5h63.2m178.2 -12l2.3 -1.1l5.8 11.8l3.6 -21.4h9.2m19.9 10.7l2.3 -1.1l5.8 11.8l3.6 -21.4h9.2m107.9 37.8l2.3 -1.2l5.8 11.8l3.6 -21.3h9.2m19.9 10.7l2.2 -1.2l5.9 11.8l3.6 -21.3h9.2m-61.7 -3.2h63.2m66.6 -13.1l2.3 -1.2l5.9 11.9L647 835.9h9.1M676 846.6l2.3 -1.2l5.9 11.9l3.6 -21.4h9.1M593 873.6l2.3 -1.2l5.9 11.8l3.5 -21.3h9.2m19.9 10.7l2.3 -1.2l5.8 11.8l3.6 -21.3h9.2m13.7 10.7l2.3 -1.2l5.9 11.8l3.6 -21.3h9.1m19.9 10.7l2.3 -1.2l5.9 11.8L721 862.9h9.1M586.9 859.7H737.8m33.5 1.5l2.3 -1.2l5.8 11.8L783 850.5h9.2m19.9 10.7l2.3 -1.2l5.8 11.8l3.6 -21.3H833" class="g0_2"/>
<path d="M70.5 832.9H862.6v-.8H70.5v.8Z" class="g3_2"/>
<path d="M70.5 888.2h.7V832.9h-.7v55.3Z" class="g3_2"/>
<path d="M180.5 888.2h.7V832.9h-.7v55.3Z" class="g3_2"/>
<path d="M496.7 888.2h.8V832.9h-.8v55.3Z" class="g3_2"/>
<path d="M861.9 888.2h.7V832.9h-.7v55.3Z" class="g3_2"/>
<path d="M71.2 944.3H180.4V889H71.2v55.3Z" class="g2_2"/>
<path d="M79.1 943.1h93.4V890.2H79.1v52.9Z" class="g2_2"/>
<path d="M115.1 903.8l2.3 -1.2l5.9 11.9l3.6 -21.4H135M94.3 928.5l2.3 -1.2l5.9 11.8l3.6 -21.3h9.1m19.9 10.7l2.3 -1.2l5.9 11.8l3.6 -21.3H156M94.4 914.6h63.2m178.2 -12l2.3 -1.1l5.8 11.8l3.6 -21.4h9.2m19.9 10.7l2.3 -1.1l5.8 11.8l3.6 -21.4h9.2m107.9 37.8l2.3 -1.2l5.8 11.8L517.1 919h9.2m19.9 10.7l2.2 -1.2l5.9 11.8L557.9 919h9.2m-61.7 -3.2h63.2m71.9 -13.1l2.3 -1.2l5.8 11.9L652.2 892h9.2m19.9 10.7l2.3 -1.2l5.8 11.9L693 892h9.2M593 929.7l2.3 -1.2l5.9 11.8L604.7 919h9.2m19.9 10.7l2.3 -1.2l5.8 11.8L645.5 919h9.2m24.1 10.7l2.3 -1.2l5.8 11.8L690.5 919h9.2m19.9 10.7l2.3 -1.2l5.8 11.8L731.3 919h9.2M586.9 915.8H748.2m33.4 -13.1l2.3 -1.2l5.9 11.9L793.4 892h9.1m19.9 10.7l2.3 -1.2l5.9 11.9L834.2 892h9.1m-76.9 23.8h84.5" class="g0_2"/>
<path d="M70.5 888.9H862.6v-.7H70.5v.7Z" class="g3_2"/>
<path d="M70.5 945h.7V888.9h-.7V945Z" class="g3_2"/>
<path d="M70.5 945h110v-.7H70.5v.7Z" class="g3_2"/>
<path d="M180.5 945h.7V888.9h-.7V945Z" class="g3_2"/>
<path d="M181.2 945H496.7v-.7H181.2v.7Z" class="g3_2"/>
<path d="M496.7 945h.8V888.9h-.8V945Z" class="g3_2"/>
<path d="M497.5 945H861.9v-.7H497.5v.7Z" class="g3_2"/>
<path d="M861.9 945h.7V888.9h-.7V945Z" class="g3_2"/>
<path d="M861.9 945h.7v-.7h-.7v.7Z" class="g3_2"/>
<path d="M378 979.8l2.3 -1.2l5.9 11.9l3.6 -21.4h9.1M98.4 1006.8l2.2 -1.2l5.9 11.8L110.1 996h18.3m19.9 10.8l2.3 -1.2l5.9 11.8L160.1 996h34.7" class="g0_2"/>
<path d="M223.9 1006.6l2.2 -1.2l5.9 11.8l3.6 -21.3h9.2" class="g4_2"/>
<path d="M283 1006.8l2.3 -1.2l5.8 11.8L294.7 996H313m19.9 10.8l2.3 -1.2l5.9 11.8L344.7 996h60.4" class="g0_2"/>
<path d="M434.1 1006.6l2.3 -1.2l5.9 11.8l3.6 -21.3H455" class="g4_2"/>
<path d="M502.4 1006.8l2.3 -1.2l5.9 11.8L514.2 996h18.3m19.9 10.8l2.3 -1.2l5.8 11.8L564.1 996h18.3m-484 82.6l2.2 -1.2l5.9 11.8l3.6 -21.4h9.2m19.9 10.8l2.2 -1.2l5.9 11.8l3.6 -21.4h18.3m19.9 10.8l2.3 -1.2l5.9 11.8l3.5 -21.4h18.4m19.9 10.8l2.3 -1.2l5.8 11.8l3.6 -21.4h18.3m29.1 10.8l2.3 -1.2l5.8 11.8l3.6 -21.4h9.2m29.1 10.8l2.2 -1.2l5.9 11.8l3.6 -21.4H369m29.1 10.8l2.3 -1.2l5.9 11.8l3.5 -21.4H419m29.1 10.8l2.3 -1.2l5.8 11.8l3.6 -21.4H469m29 10.8l2.3 -1.2l5.9 11.8l3.6 -21.4h9.1m29.1 10.8l2.3 -1.2l5.8 11.8l3.6 -21.4h9.2" class="g0_2"/>
<path fill-rule="evenodd" d="M74.4 101.1l-.3 -.4l-.4 -.2l-1.1 -.6l-.4 -.1H57.5l-.8 .3l-.9 .4l-1.3 1.2l-.3 .9l-.2 .8l-.1 .9v13l.1 .9l.2 .9l.3 .7l.7 .6l.6 .6l.9 .5l.8 .2l.9 .1H71.3l.4 -.1h.5l.2 -.2H73l.3 -.2l.2 -.2l.2 -.1l.4 -.3l.3 -.3l.1 -.1c1 -.9 .2 -.6 .9 -1.2l.2 -.9v-.4l.1 -.1V104.3l-.1 -.9l-.2 -.8l-.4 -.9l-.6 -.6Z" class="g5_2"/>
<path fill-rule="evenodd" d="M119.9 53.5V38.9l-.1 -.7l-.1 -.4l-.3 -.6l-.3 -.4l-.5 -.3l-.3 -.2l-.1 -.1l-.3 -.1l-.2 -.1H70.3l-.5 .2l-.5 .3l-.7 .7l-.3 .6l-.2 .4V54.1l.1 .2l.1 .2l.1 .2l.2 .3l.3 .5l.4 .3l.5 .3l.5 .2h47.4l.2 -.1l.3 -.1l.1 -.2l.3 -.1l.5 -.3l.3 -.5l.1 -.3l.2 -.2v-.2l.1 -.2v-.4h.1v-.2Z" class="g6_2"/>
<g clip-path="url(#c3_2)">
<image preserveAspectRatio="none" x="23" y="292" width="826" height="40" xlink:href="img/2.png"/>
<image preserveAspectRatio="none" x="26" y="329" width="820" height="1" xlink:href="img/3.jpg"/>
</g>
<path fill-rule="evenodd" d="M588 338.1l-.3 -.4l-.4 -.3l-1.1 -.5l-.4 -.1H571.1l-.8 .3l-.9 .3l-1.2 1.3l-.4 .8l-.2 .9l-.1 .9v13l.1 .9l.2 .8l.4 .8l.6 .6l.6 .6l.9 .4l.8 .3l.9 .1h12.9l.4 -.1h.5l.2 -.2h.2l.4 -.1l.3 -.2l.2 -.1l.2 -.1l.7 -.6v-.1l.1 -.1l.5 -.4l.1 -.3l.1 -.2l.3 -.3l.1 -.8v-.4l.1 -.1V341.3l-.1 -.9l-.1 -.9l-.5 -.8l-.6 -.6Z" class="g5_2"/>
<path fill-rule="evenodd" d="M588.7 399.1l-.4 -.3l-.4 -.3l-1.1 -.6l-.3 -.1H571.7l-.8 .3l-.8 .4l-1.3 1.3l-.4 .8l-.2 .8v14.9l.2 .8l.4 .7l.6 .7l.7 .5l.8 .5l.8 .2l.9 .1h13l.3 -.1h.6l.2 -.1h.1l.4 -.1l.4 -.2l.2 -.2l.1 -.1l.8 -.5v-.1l.5 -.6l.1 -.3l.1 -.1l.3 -.3l.2 -.8v-.5l.1 -.1V402.3l-.1 -.9l-.2 -.8l-.5 -.8l-.5 -.7Z" class="g5_2"/>
<path fill-rule="evenodd" d="M455.1 512.6l-.3 -.4l-.4 -.2l-1.1 -.6l-.4 -.1H438.2l-.9 .3l-.8 .4l-1.3 1.2l-.3 .9l-.2 .8l-.1 .9v13l.1 .9l.2 .9l.3 .7l.7 .6l.6 .6l.8 .4l.9 .3l.9 .1H452l.4 -.1h.5l.1 -.1l.1 -.1h.2l.4 -.1l.3 -.1l.2 -.2l.2 -.1l.7 -.6v-.1h.1l.5 -.5l.1 -.3l.1 -.2l.2 -.2l.2 -.9v-.4l.1 -.1V515.8l-.1 -.9l-.2 -.8l-.4 -.9l-.6 -.6Z" class="g5_2"/>
<path fill-rule="evenodd" d="M455.8 550.5l-.4 -.4l-.4 -.3l-1.1 -.5l-.3 -.1H438.8l-.8 .2l-.8 .4l-1.3 1.3l-.4 .8l-.2 .8l-.1 1v13l.1 .9l.2 .8l.4 .8l.6 .6l.7 .5l.8 .5l.8 .3l.9 .1h13l.3 -.1h.6l.2 -.2h.1l.4 -.1l.4 -.2l.2 -.2l.1 -.1l.8 -.5v-.1l.1 -.1l.4 -.4l.1 -.3l.1 -.2l.3 -.3l.2 -.8v-.5l.1 -.1V553.7l-.1 -1l-.2 -.8l-.5 -.8l-.5 -.6Z" class="g5_2"/>
<path fill-rule="evenodd" d="M455.1 600.3l-.3 -.3l-.4 -.3l-1.1 -.6l-.4 -.1H438.2l-.9 .3l-.8 .4l-1.3 1.3l-.3 .8l-.2 .8l-.1 .9v13.1l.1 .9l.2 .8l.3 .7l.7 .7l.6 .5l.8 .5l.9 .3h14.7l.2 -.2h.2l.4 -.1l.3 -.2l.2 -.2l.2 -.1l.7 -.5v-.1l.1 -.1l.5 -.5l.1 -.2l.1 -.2l.2 -.3l.2 -.8V617l.1 -.1V603.5l-.1 -.9l-.2 -.8l-.4 -.8l-.6 -.7Z" class="g5_2"/>
<path fill-rule="evenodd" d="M84.6 652.8l-.4 -.3l-.2 -.3l-.8 -.4l-.4 -.1l-.4 -.1l-.8 -.1h-13l-1 .1l-.7 .2l-.8 .4l-.6 .6l-.7 .7l-.4 .7l-.2 .9v14.8l.2 .8l.4 .8l.3 .3l.4 .4l.6 .5l.8 .5l.7 .3H82.4l.2 -.1l.1 -.1h.1l.4 -.1l.4 -.3l.1 -.1l.3 -.1l.2 -.2l.4 -.3v-.1h.1l.1 -.1c.5 -.4 .5 -.7 .8 -1.3l.3 -.8v-.4l.1 -.1V656l-.1 -.9l-.3 -.9l-.4 -.7l-.6 -.7Z" class="g7_2"/>
<path fill-rule="evenodd" d="M91.9 993.7l-.3 -.4l-.4 -.3l-1.1 -.5l-.4 -.1H75l-.8 .3l-.9 .3l-1.2 1.3l-.4 .8l-.2 .9l-.1 .9v13l.1 .9l.2 .8l.4 .8l.6 .6l.6 .6l.9 .4l.8 .3l.9 .1H88.8l.4 -.1h.5l.2 -.2h.2l.4 -.1l.3 -.2l.2 -.1l.2 -.1l.7 -.6v-.1l.6 -.5l.1 -.3l.1 -.2l.3 -.3l.1 -.8v-.5h.1V996.9l-.1 -.9l-.1 -.9l-.5 -.8l-.6 -.6Z" class="g5_2"/>
<path fill-rule="evenodd" d="M90.7 1068.1l-.4 -.4l-.4 -.2l-1.1 -.6l-.3 -.1H73.7l-.8 .3l-.8 .4l-1.3 1.2l-.4 .9l-.2 .8l-.1 .9v13l.1 .9l.2 .9l.4 .7l.6 .6l.7 .6l.8 .5l.8 .2l.9 .1H87.5l.4 -.1h.6l.1 -.2h.6l.4 -.2l.1 -.2l.2 -.1l.8 -.6l.1 -.1c.9 -.9 .1 -.6 .9 -1.2l.1 -.9v-.4l.1 -.1v-13.4l-.1 -.9l-.1 -.8l-.5 -.9l-.5 -.6Z" class="g5_2"/>
</svg>