<?xml version="1.0" encoding="UTF-8" standalone="no"?>
<!DOCTYPE svg PUBLIC "-//W3C//DTD SVG 1.1//EN"
"http://www.w3.org/Graphics/SVG/1.1/DTD/svg11.dtd">
<svg viewBox="0 0 909 1286" version="1.1" xmlns="http://www.w3.org/2000/svg" xmlns:xlink="http://www.w3.org/1999/xlink">
<defs>
<clipPath id="c0_9"><path d="M-.2 1286.6v-74.9h910v74.9Z"/></clipPath>
<style type="text/css"><![CDATA[
.g0_9{
fill: #000;
}
.g1_9{
fill: none;
stroke: #000;
stroke-width: 0.909;
stroke-linecap: square;
stroke-miterlimit: 10;
}
.g2_9{
fill: none;
stroke: #000;
stroke-width: 0.907;
stroke-linecap: square;
stroke-miterlimit: 10;
}
.g3_9{
fill: none;
stroke: #000;
stroke-width: 0.905;
stroke-linecap: square;
stroke-miterlimit: 10;
}
.g4_9{
fill: none;
stroke: #000;
stroke-width: 0.904;
stroke-linecap: square;
stroke-miterlimit: 10;
}
.g5_9{
fill: none;
stroke: #000;
stroke-width: 0.762;
stroke-linecap: square;
stroke-miterlimit: 10;
}
.g6_9{
fill: none;
stroke: #000;
stroke-width: 1.524;
stroke-linecap: square;
stroke-miterlimit: 10;
}
.g7_9{
fill: none;
stroke: #000;
stroke-width: 0.763;
stroke-linecap: square;
stroke-miterlimit: 10;
}
.g8_9{
fill: none;
stroke: #000;
stroke-width: 0.76;
stroke-linecap: square;
stroke-miterlimit: 10;
}
.g9_9{
fill: none;
stroke: #000;
stroke-width: 0.761;
stroke-linecap: square;
stroke-miterlimit: 10;
}
.ga_9{
fill: none;
stroke: #000;
stroke-width: 0.757;
stroke-linecap: square;
stroke-miterlimit: 10;
}
.gb_9{
fill: none;
stroke: #000;
stroke-width: 0.489;
stroke-linecap: square;
stroke-miterlimit: 10;
}
.gc_9{
fill: #E6E6E6;
}
.gd_9{
fill: none;
stroke: #000;
stroke-width: 1.148;
stroke-linecap: square;
stroke-miterlimit: 10;
}
.ge_9{
fill: none;
stroke: #000;
stroke-width: 0.765;
stroke-linecap: square;
stroke-miterlimit: 10;
}
.gf_9{
fill: none;
stroke: #000;
stroke-width: 0.382;
stroke-linecap: square;
stroke-miterlimit: 10;
}
]]></style>
</defs>
<image clip-path="url(#c0_9)" preserveAspectRatio="none" x="-4" y="1212" width="952" height="131" xlink:href="img/1.jpg"/>
<path d="M614.9 91.1h36.7v-.9H614.9v.9Z" class="g0_9"/>
<path d="M255.2 145.6h23.3" class="g1_9"/>
<path d="M542.5 166.6h36.6v-.9H542.5v.9Z" class="g0_9"/>
<path d="M248 173.5h25.3m-23.2 28.8H275" class="g2_9"/>
<path d="M249.2 230.1h24.1" class="g1_9"/>
<path d="M247 257.8h24.9" class="g2_9"/>
<path d="M248.1 285.7h24.1" class="g1_9"/>
<path d="M465 360.9h24.3" class="g2_9"/>
<path d="M513.9 360.7H538m24.9 0h24.4M136.1 412.4h24.1m49.2 .1h24.4m48.9 0H306" class="g1_9"/>
<path d="M357.1 412.4h25" class="g2_9"/>
<path d="M588.7 506.6H613m28.9 0h26" class="g3_9"/>
<path d="M165.6 558h25.2" class="g2_9"/>
<path d="M183.9 586h24.3" class="g4_9"/>
<path d="M232.7 586.3h24.9" class="g2_9"/>
<path d="M147.2 756.7h23.2m20.2 12.6l2.3 -1.3" class="g5_9"/>
<path d="M192.9 768.4l3.4 6.3" class="g6_9"/>
<path d="M196.7 774.7l4.4 -18.8m0 0h8.4" class="g5_9"/>
<path d="M270.8 757.3h24.8" class="g7_9"/>
<path d="M147.2 784.8h23.2m20.2 12.6l2.3 -1.4" class="g5_9"/>
<path d="M192.9 796.4l3.4 6.3" class="g6_9"/>
<path d="M196.7 802.7L201.1 784m0 0h8.4" class="g5_9"/>
<path d="M270.8 785.3h23.9" class="g8_9"/>
<path d="M147.2 812.8h23.2m20.2 12.7l2.3 -1.4" class="g5_9"/>
<path d="M192.9 824.5l3.4 6.3" class="g6_9"/>
<path d="M196.7 830.8L201.1 812m0 0h8.4" class="g5_9"/>
<path d="M270.8 813.4h24.9" class="g7_9"/>
<path d="M390 813.4h23.9" class="g8_9"/>
<path d="M147.2 841h23.2m20.2 12.7l2.3 -1.4" class="g5_9"/>
<path d="M192.9 852.7l3.4 6.3" class="g6_9"/>
<path d="M196.7 859l4.4 -18.8m0 0h8.4" class="g5_9"/>
<path d="M270.8 841.6h23.9" class="g8_9"/>
<path d="M345.8 886h36.6v-.9H345.8v.9Z" class="g0_9"/>
<path d="M345.8 887.9h36.6V887H345.8v.9Z" class="g0_9"/>
<path d="M242.9 963.8h23.2" class="g9_9"/>
<path d="M291.7 964.1H316m24.5 -.3h23.6M159 1015.5h23.1" class="g8_9"/>
<path d="M262.7 1015.8H287" class="g9_9"/>
<path d="M157.9 1067.2H181m25.6 .3h24.3" class="g8_9"/>
<path d="M255.4 1067.2h23.7" class="g9_9"/>
<path d="M156.4 1095.3h28.4" class="ga_9"/>
<path d="M264.6 1095.1h24.9" class="g7_9"/>
<path d="M214 1122.9h23.1" class="g8_9"/>
<path d="M262.7 1123.2H287m150.3 -.3h23.1" class="g9_9"/>
<path d="M486.1 1122.9h23.6" class="g8_9"/>
<image preserveAspectRatio="none" x="733" y="109" width="111" height="180" xlink:href="img/2.jpg"/>
<image preserveAspectRatio="none" x="43" y="89" width="57" height="57" xlink:href="img/3.jpg"/>
<image preserveAspectRatio="none" x="43" y="382" width="57" height="56" xlink:href="img/4.jpg"/>
<image preserveAspectRatio="none" x="683" y="360" width="169" height="105" xlink:href="img/5.jpg"/>
<path d="M796 628.9H750L768.6 590h46L796 628.9Zm0 0L853.2 509.2" class="gb_9"/>
<path d="M852.7 510.4l-.5 -.2l-.2 -.5v-1l.2 -.5l.5 -.2l.5 -.3l.7 .3l.3 .2l.5 .5v1l-.5 .5l-.3 .2l-.7 .3Z" class="g0_9"/>
<path d="M770.1 587.3v-.2h.5l.2 -.3l.2 -.2v-.5l-.2 -1.2h-2.9l-.5 .7l-.8 1v.2h.5l.5 .3v.2h-2.4v-.2h.5l.2 -.3l.3 -.2l.2 -.3l.2 -.2l.3 -.3l.5 -.7l2.9 -4.4v-.3h1v1.8l.5 2.9v1.5l.2 .2h.3l.2 .3h.3v.2Zm.2 -6.1l-2.2 3.4h2.7l-.2 -3.7Z" class="g0_9"/>
<path d="M743.4 631.9h-2.9v-.3h.5l.2 -.2h.3v-.3l1.4 -5.1v-.5h-.7v-.2h4.2l.7 .4l.2 .5v.3l-.2 .7l-.5 .5l-.5 .3l-.7 .2l.5 .2l.5 .3l.2 .5l.2 .2v.5l-.2 .5l-.2 .7l-.8 .5h-.7l-.7 .3Zm-1.2 -.8v.3h.2l.3 .2h1.2l.5 -.2h.7l.5 -.5l.3 -.5l.2 -.5v-.7l-.2 -.3l-.5 -.2l-.5 -.3h-2Zm1.7 -5.4v.3l-.5 1.2l-.2 .5v.5h1.7l.5 -.2h.2l.5 -.3l.3 -.5l.2 -.2v-1l-.2 -.3l-.3 -.2h-1.9Z" class="g0_9"/>
<path d="M801.6 633.1l-1.2 -.3l-.5 -.4l-.5 -.3l-.2 -.7l-.3 -1v-.2h.3l.2 -1l.3 -1l.4 -.7l.8 -.8l.7 -.5l1 -.2h1l.9 .5l.3 -.3h.2v.8l.3 .7v.3H805l-.2 -.5l-.3 -.5l-.4 -.3l-.5 -.2l-.3 -.3h-.7l-.7 .3l-.5 .5l-1 1.4l-.5 1.5v.5l.2 1l.3 .5l.2 .2l.8 .3l.5 .2h.4l.5 -.2l.8 -.3l.5 -.7h.2l.2 -.3l-.4 .8l-.5 .5l-.8 .4l-.9 .3Z" class="g0_9"/>
<path d="M817.3 592.7H817l.3 -.3h.2l.5 -.2V592l.2 -.3l1.5 -4.9v-.5H819v-.2h3.4l.5 .2l.5 .3l.5 .5l.2 .4v2l-.5 1l-.2 .5l-.3 .5l-.5 .2l-.5 .5l-.9 .2l-1.3 .3Zm3.1 -6.1v.5l-.2 .4l-.7 2.7l-.3 .8l-.2 1v.2l.2 .2h.7l1 -.2l.8 -.2l.7 -.5l.2 -.8l.5 -.7v-.7l.3 -.5v-1.5l-.5 -.7l-.5 -.3h-1.7Z" class="g0_9"/>
<path d="M852.2 505H852l.2 -.2h.3l.5 -.3v-.2l.2 -.3l1.2 -4.6v-.3l.3 -.2l-.3 -.2h-.7v-.3h4.1l.3 .3l.2 .2l.3 .5l.2 .5l-.2 .7l-.5 .7l-.7 .3l-.8 .2h-1.9l-.3 .5l-.5 1.5v.7l.3 .3h.5v.2Zm3.2 -6.1l-.2 1l-.5 1.7h1.9l.5 -.3l.5 -.4v-.5l.2 -.5v-.8l-.2 -.2l-.2 -.2h-2Z" class="g0_9"/>
<image preserveAspectRatio="none" x="43" y="527" width="57" height="56" xlink:href="img/6.jpg"/>
<path d="M664.1 827.8L777.8 756.9l40.9 70.9Z" class="gc_9"/>
<path d="M664.1 827.8H818.7L777.8 756.9L664.1 827.8Z" class="gd_9"/>
<path d="M780.8 762.7l-5.3 3.4L772 760.4l5.4 -3.5l3.4 5.8Zm34.5 39.5l.7 1.1m.4 1.5l.4 1.2v.4m.4 1.5l.4 1.5m.3 1.6l.4 1.5m0 1.2l.4 1.5m0 1.5v1.6m.4 1.5v1.5m0 1.6v1.5m-.4 1.5v1.6M778.1 756.9l1.6 .4m1.1 .4l1.2 .4l.4 .4m1.1 .7l.8 .4l.7 .4m1.2 .8l1.1 .3l.4 .4m1.2 1.2l1.1 .7m1.2 .8l1.1 1.2m1.2 1.1l1.1 1.2m1.2 1.1l.7 .8m1.2 1.5l.7 1.2M686.3 800.2l-.8 .8m-1.1 1.2l-1.2 1.1m-1.1 1.2l-1.2 .7m-1.1 1.2l-1.2 1.1m-1.1 1.2l-.8 1.1m-1.1 1.2l-1.2 1.1m-.7 1.2l-1.2 1.1m-.8 1.2l-1.1 1.1m-.8 1.2h-.3l-.8 1.1m-.8 1.6l-.7 .7v.4m-.8 1.5l-.8 1.2m-.7 1.5l-.8 1.2M777.8 756.9h-1.6m-1.5 0h-1.5m-1.6 .4l-1.5 .4m-1.5 0h-.8l-.8 .4m-1.5 .4H764m-1.5 .3l-1.6 .4m-1.1 .4l-1.6 .4m-1.5 .4l-1.5 .4m-1.5 .3l-1.2 .8h-.4m-1.1 .4l-1.6 .4m-1.5 .7h-.8l-.7 .4m-1.2 .4l-1.5 .8m-1.5 .7l-1.6 .4m-1.1 .8l-1.5 .4m-1.6 .7H736m36.8 72.9l1.5 -.4m1.5 0l1.6 -.4m1.5 -.4h1.5m1.2 -.4l1.5 -.3m1.6 -.4h1.5m1.5 -.4h.4l1.1 -.4m1.6 -.4l1.5 -.4m1.5 -.3l1.6 -.4m1.5 -.4l1.1 -.4m1.6 -.4l1.5 -.4m1.5 -.3l1.6 -.4m1.5 -.4l1.1 -.4m1.6 -.8l1.5 -.3m1.5 -.4l1.2 -.8m1.5 -.4l1.6 -.7m1.1 -.8l1.5 -.8m-154.6 0l1.5 .8m1.2 .8l1.1 .3h.4m1.6 .8l1.1 .4m1.5 .8h.8l.8 .3m1.5 .4l1.5 .4m1.2 .4l1.5 .4m1.5 .4l1.6 .3m1.5 .4l1.5 .4m1.6 .4h1.5m1.5 .4l1.6 .4m1.5 0l1.1 .3m1.6 .4h1.5m1.5 .4l1.6 .4m1.5 0l.7 .4h.8m1.5 .4h1.6m1.5 .3h1.5m1.6 .4h1.5m1.5 .4h1.6m1.5 .4h.8" class="ge_9"/>
<path d="M679.8 818.3v0l.8 .7l.7 .8l1.2 2.3l.3 3.1v1.1l-.3 1.2M810.7 814v0l-1.2 .8l-.7 1.5l-1.6 3.5l-1.1 4.2v3.8" class="gf_9"/>
<path d="M780.1 752.7v-.4h.7l.4 -.4v-3h-5l-.7 1.1l-.8 1.2v.7h.8l.3 .4v.4h-3.4v-.4l.4 -.4h.4l.7 -.3l.4 -.4l.4 -.4v-.4l.8 -1.1l4.6 -6.9l.3 -.4h1.2l.4 1.1v1.6l.4 4.6v1.1l.3 1.2l.4 .3l.4 .4h.8l-.4 .4Zm0 -9.6l-3.5 5.4h4.6l-.8 -5.8Z" class="g0_9"/>
<path d="M655.3 833.6h-5.7v-.4h.7l.8 -.4v-.4l2.3 -8v-.8h-1.2v-.4H658l.7 .4h.4l.4 .4l.4 .4l.4 .8v.3l-.4 .8l-.8 .8l-.7 .7l-1.2 .4l.8 .4l.7 .4l.4 .4l.4 .7v.4l-.4 1.2l-.4 .7l-1.1 .8l-1.2 .4Zm-1.9 -5l-1.2 3.8v.4l.4 .4h3.1l1.1 -.4l.8 -.7l.4 -.8v-.8l.4 -.4v-.3l-.4 -.4l-.8 -.8l-.8 -.4h-2.6Zm1.1 -4.2l-.4 1.9l-.3 .8v.7h3.4l.4 -.3l.8 -.4l.3 -.4v-.8l.4 -.7v-.4l-.4 -.4l-.3 -.4l-.4 -.4h-2.7v.4h-.4Zm-2.7 -.8h.4Z" class="g0_9"/>
<path d="M827.1 833.6l-1.9 -.4l-.7 -.8l-.8 -.3l-.4 -1.2l-.4 -1.5V829h.4l.4 -1.5l.4 -1.6l.7 -1.1l1.2 -1.2l1.1 -.7l1.6 -.4h1.5l1.5 .7l.4 -.3h.4V824l.4 1.2v.3h-.4l-.4 -.7l-.4 -.8l-.7 -.4l-.8 -.4l-.4 -.3h-1.1l-1.2 .3l-.7 .8l-1.6 2.3l-.7 2.3v.8l.3 1.5l.4 .8l.4 .4l1.2 .3l.7 .4l.8 -.4h.7l1.2 -.3l.8 -1.2h.3l.4 -.4l-.7 1.2l-.8 .7l-1.2 .8h-1.5v.4Z" class="g0_9"/>
<path d="M692.8 824.8l-1.1 -.4l-1.2 -.4l-.4 -.8v-1.1h.8l.4 .4V824h.4l.7 .4h.4l.8 -.4l.7 -.4v-.7l.4 -.8v-.8l-.4 -.7l-.4 -.4l-.3 -.4l-.4 -.4h-1.5V819h.7l1.2 -.4l.3 -.7l.4 -.4v-1.2l-.4 -1.1l-.3 -.4h-1.2l-.7 .4v1.1l-.4 .4v.4h-.4l-.4 -.4v-1.1l.8 -.8l1.1 -.4h1.2l1.1 .4l.4 .8l.4 1.1l-.4 .8l-.4 .8l-.8 .7h-.7l.4 .4l.7 .4h.4l.8 .8v.7l.4 .8l-.4 .8l-.4 1.1l-.8 .4l-.7 .4Z" class="g0_9"/>
<path d="M698.9 824.4l-.7 -.4l-.8 -1.5l-.4 -1.9v-.8l.4 -2.3l.4 -1.5l1.1 -1.2l.4 -.4h1.2l1.1 .8l.4 1.1l.7 1.6v3l-.3 1.6l-.4 .7l-.4 .8l-.8 .4l-1.1 .4Zm.4 -9.2l-.4 .4l-.4 1.5l-.3 1.9v1.2l.3 1.9v1.1l.4 .8l.8 .4h.8l.3 -.8l.4 -.7l.4 -.8v-4.6l-.4 -.8V816l-.4 -.8l-.3 -.4h-.8Z" class="g0_9"/>
<path d="M704.3 816l-.4 -1.2l.4 -.8l.7 -.3l1.2 .3l.4 .8l-.4 1.2l-1.2 .3Zm.4 -1.6l-.4 .4l.4 .8l.3 .4l.8 -.4l.4 -.8l-.4 -.4L705 814Z" class="g0_9"/>
<path d="M792.3 824.8h-.4l-.7 -.4l-.8 -.4l-.8 -1.5l-.4 -1.2v-2.7l.4 -1.5l.8 -1.5l.8 -.8l1.1 -.4h1.5l.4 .4l.4 .8l-.4 .4v.3h-.7l-.4 -.3v-.8l-.4 -.4h-.8l-.4 .4l-.3 .8l-.4 .3v.8l-.4 .8v1.5l.8 -.8l1.1 -.3h1.2l.3 .7l.8 .8l.4 1.1v.4l-.4 .4v.8l-.4 .7l-.4 .8l-1.1 .8Zm-1.1 -5.4l-.8 .4v2.7l.4 1.1l.4 .4l.3 .4h.4l.8 -.4l.4 -.4l.4 -.7l.3 -.8v-.8l-.3 -1.1l-.4 -.8l-.4 -.4h-.8Z" class="g0_9"/>
<path d="M798 824.4l-.7 -.4l-.8 -1.5l-.4 -1.9v-.8l.4 -2.3l.4 -1.5l1.1 -1.2l.4 -.4h1.2l1.1 .8l.4 1.1l.4 1.6l.4 1.5v1.5l-.4 1.6l-.4 .7l-.4 .8l-.7 .4l-1.2 .4Zm.4 -9.2l-.4 .4l-.3 1.5l-.4 1.9v1.2l.4 1.9v1.1l.3 .8l.4 .4h1.2l.4 -.8l.3 -.7v-.8l.4 -1.2v-3.4l-.4 -.8V816l-.3 -.8l-.4 -.4h-.8Z" class="g0_9"/>
<path d="M803.4 816l-.4 -1.2l.4 -.8l.8 -.3l1.1 .3l.4 .8l-.4 1.2l-1.1 .3Zm.4 -1.6l-.4 .4l.4 .8l.4 .4l.7 -.4l.4 -.8l-.4 -.4l-.7 -.4Z" class="g0_9"/>
<path d="M726.5 846.2l.7 -1.5l.8 -1.1l1.2 -1.6l.7 -1.1l.8 -1.2l.4 -1.1v-.4l-.4 -1.2l-.4 -.3l-.4 -.4h-.7l-.4 .4h-.4l-.4 .7V839l-.4 .3h-.4l-.3 -.3v-1.6l.7 -.7l.4 -.4l.8 -.4h1.5l.8 .4l.7 .7l.4 1.6l-.4 1.1l-.3 .8l-.8 .8l-1.9 1.9l-.8 1.1l-.4 1.2h2.7l.4 -.4l.8 -.4l.3 -.4v-.7h.4v.7l-.4 .8v1.1Z" class="g0_9"/>
<path d="M744.5 847.8l-.4 -1.2l-.5 -.7l-3 .7l-3 .4l-2.3 .4l-.4 .4l-.8 -1.2l1.7 -.2l1.4 -1.7L738 842l.7 -1.5h.8l.4 .4h-.4l-.4 .4l-1.5 3l-1.2 2l.8 -.1h3.1l3.1 -.7l-.5 -.8l-1.1 -1.5v-.4l.8 .8l.7 .7l.8 1.2l.7 .7v1.6Zm-.4 -7.3l-1.5 -1.9l-.8 -2.3h-2.3l-.4 -.4h2.3l.4 -.4l.8 .4v.4l-.4 .4l.4 1.5l1.5 1.5l1.1 1.2l1.6 .7l-.4 .4l-.4 .4ZM733.4 842l1.1 -1.1L736 839l.8 -2l.4 -1.1l1.1 .8v.3H738l-1.2 1.6l-.8 1.5l-1.1 1.2l-1.5 1.1Z" class="g0_9"/>
<path d="M747.5 847.8l1.9 -1.2l1.2 -1.1l.8 -1.2l.3 -1.5l.3 -1.5h-2.6v-.4h7.3l.4 -.4l.8 .4l.3 .4l-.7 .3v3.1l-.8 2.3l-.4 .4l-.4 .4h-.7v-.4h-.4l-1.5 -.4l.4 -.4l1.9 .4h.3l.4 -.4v-.4l.4 -1.9v-3h-3.9l-.3 1.9l-.8 1.5l-.7 1.2l-1.2 1.1l-1.9 1.2Zm-.4 -5.8l1.6 -1.5l1.5 -1.9l1.2 -1.9v-.8l1.1 .4l.4 .4h-.8l-1.1 1.5l-.8 1.5l-1.1 1.2l-1.6 1.1Zm13.1 -.4l-2.3 -1.5l-1.2 -1.9l-1.1 -2.3h-.4l-1.2 .4l-.3 -.8h1.9l.3 -.4l.8 .8l-.4 .4l.4 1.5l1.2 1.5l1.5 1.2l1.5 .4v.4l-.4 .3Z" class="g0_9"/>
<path d="M801.9 789.9v-.4h1.5l.4 -.4v-8h-1.9v-.4l1.1 -.4l1.2 -.4h.7v9.2l.4 .4h1.5v.4Z" class="g0_9"/>
<path d="M808.8 790.3h2.1l.9 -1.9l1.2 -2.3l.4 -2l1.1 .4v.4h-.4l-1.5 3.1l-1.6 2.3h1.2l2.7 -.4l3.4 -.4l-.4 -.8l-1.5 -1.9l1.2 .8l.3 .4l1.2 1.1l.4 .8l.4 .8v.7h-.8l-.4 -1.1l-.2 -.4l-3.2 .4l-2.7 .4l-2.7 .3l-.4 .8Zm9.9 -5.8l-1.5 -2.3l-.8 -2.3h-1.1l-1.2 .4l-.4 -.8h2.7l.4 -.3l.4 .7v.4h-.4l.8 1.5l1.1 1.6l1.2 1.1l1.9 .8v.4H821l-.4 .4ZM808 786.1l1.5 -1.6l1.2 -1.5l1.1 -2.3v-.8l1.6 .4v.4h-.8l-.8 1.5l-1.1 1.6l-1.2 1.1l-1.1 1.2Z" class="g0_9"/>
<path d="M829.8 791.4l-.4 -.4l-1.1 -.3l1.9 .3l.4 -.3h.4l.3 -.8V788l.4 -3.1h-6.1l-1.1 .4l-.4 -.8h7.6l.4 -.4l.8 .8l-.8 .4v3.1l-.4 2.3l-.4 .7H831l-1.2 .4Zm-5.7 -.7l1.1 -1.2l.8 -1.1l.8 -1.6l.3 -1.9h.4l-.4 1.9l-.3 1.6l-1.2 1.5l-1.1 1.1l-2 .8Zm-1.9 -5l1.5 -1.6l1.1 -1.5l1.2 -1.9l.4 -1.2l1.1 .8l-.4 .4h-.3l-.8 1.5l-1.2 1.2l-1.1 1.5l-1.2 1.2Zm10.7 -1.6l-1.6 -2.3l-.7 -1.9h-1.9v-.4h1.5l.8 -.3l.3 .3v.4l-.3 .4l.7 1.5l1.2 1.2l1.1 1.1l1.9 .8v.4h-.7l-.4 .4Z" class="g0_9"/>
<path d="M681.3 781.8l-.7 .4v-.4l1.5 -1.1l1.1 3.8L689 773h9.5v.4h-9.1l-6.6 13Z" class="g0_9"/>
<path d="M710 785.7l-.4 -.8l-.2 -.7l-3.2 .7l-2.7 .4h-2.7l-.3 .8l-.8 -1.2l2 -.2l1 -2.1l1.2 -2.3l.4 -1.9l1.1 .4v.4h-.7l-1.6 3l-1.4 2.5l1.4 -.2l2.7 -.4l3.4 -.3l-.3 -.8l-1.6 -1.5v-.4l.8 .7l.8 .8l1.1 1.2l.4 .7v.4l.4 .8h-.4v.4Zm-11.1 -5.4l1.6 -1.5l1.1 -1.6l1.1 -1.9v-1.1l1.2 .4l.4 .3h-.4l-.4 .4l-.8 1.6l-1.1 1.1l-1.1 1.5l-1.6 1.2Zm12.7 0l-2 -1.5l-1.5 -1.9l-.8 -2.3H705l-.3 -.4H707l.7 -.4l.4 .4v.4h-.4l.8 1.9l1.1 1.5l1.2 1.2l1.9 .7l-.8 .4Z" class="g0_9"/>
<path d="M713.1 786.1l1.9 -1.2l1.1 -1.1l.8 -1.2l.8 -1.5v-1.6h-2.3l-.4 -.3h7.3l.7 -.4l.8 .4l-.8 .7V783l-.3 2.3l-.4 .4l-.4 .4h-1.2v-.4h-.3l-1.2 -.4v-.4l1.9 .4h.4l.4 -.4l.4 -.8v-1.5l.4 -3.1h-4.3l-.3 1.6l-.4 1.9l-1.2 1.1l-1.1 1.2l-1.9 1.1Zm0 -6.2l1.5 -1.1l1.2 -1.9l1.1 -2v-.7l1.5 .4l-.3 .3h-.4l-.8 1.6l-1.1 1.5l-1.2 1.2l-1.5 1.1Zm10.7 -1.5l-1.5 -1.9l-.8 -2.3h-1.9l-.4 -.4h1.9l.4 -.4l.8 .4v.4l-.4 .4l.8 1.5l1.1 1.5l1.1 .8l1.6 .8v.3h-.4l-.4 .4Z" class="g0_9"/>
<path d="M693.2 786.1l-1.2 -.4l-1.1 -.4l-.4 -.8v-1.1h1.2v1.5l.3 .4l.4 .4h.4l1.1 -.4l.4 -.4l.4 -.8v-2.3l-.4 -.3l-.4 -.8h.8l.4 .4l.4 .7l.4 .4v1.9l-.8 .8l-.8 .8l-.7 .4Zm.4 -5.4h-1.2l-.4 -.4h.8l.8 -.4l.7 -.7l.4 -.8v-1.2l-.8 -.7l-.3 -.4h-1.2l-.4 .4v1.1l-.3 .4h-.8v-1.1l.8 -.8l1.1 -.4l.4 -.4l.7 .4l.8 .4l.8 .8l.4 1.1l-.4 .8l-.4 .7l-.8 .4l-.7 .4l.3 .4Z" class="g0_9"/>
<image preserveAspectRatio="none" x="43" y="725" width="57" height="56" xlink:href="img/7.jpg"/>
<image preserveAspectRatio="none" x="698" y="972" width="158" height="128" xlink:href="img/8.jpg"/>
<image preserveAspectRatio="none" x="43" y="986" width="57" height="57" xlink:href="img/9.jpg"/>
</svg>