<?xml version="1.0" encoding="UTF-8" standalone="no"?>
<!DOCTYPE svg PUBLIC "-//W3C//DTD SVG 1.1//EN"
"http://www.w3.org/Graphics/SVG/1.1/DTD/svg11.dtd">
<svg viewBox="0 0 909 1286" version="1.1" xmlns="http://www.w3.org/2000/svg" xmlns:xlink="http://www.w3.org/1999/xlink">
<defs>
<clipPath id="c0_5"><path d="M-.2 1286.6v-74.9h910v74.9Z"/></clipPath>
<clipPath id="c1_5"><path d="M706.3 929.4V803.9H852.9V929.4Z"/></clipPath>
<style type="text/css"><![CDATA[
.g0_5{
fill: none;
stroke: #000;
stroke-width: 1.099;
stroke-linecap: square;
stroke-miterlimit: 10;
}
.g1_5{
fill: #000;
}
]]></style>
</defs>
<image clip-path="url(#c0_5)" preserveAspectRatio="none" x="-4" y="1212" width="952" height="131" xlink:href="img/1.jpg"/>
<path d="M480 216.5H449.7m144.3 0H562.8M360.8 244H328.7m-34.4 27.5h-31m381.5 0H614.5M294.6 299h-30m184 55h-30m83 0H471.5m-101 159.9h-31m83.8 0H393.2m84.2 0H446.2" class="g0_5"/>
<path d="M498.5 535.7h36.7v-.9H498.5v.9Z" class="g1_5"/>
<path d="M327.1 544.3H295.9m-112 30.6H151.8m164.5 0H285.1m-82.9 30.6H170.1m2.6 61.1H140.6m86.2 0h-31m116.2 0H280m88.9 0H338.8m125.8 0H431.4m88.2 0H487.5m128.9 0H583.2m88.2 0H639.3M195.4 747.8h-30m526.7 0H660.9m83.8 0H713.5m142.1 0H825.4M488.6 778.2H458.5M194 808.9H162.8m180.6 0H313.3m58.9 30.6H342.1m31.2 30.4h-31m-57.4 30.6H254.8m459.7 30.6H684.4m-279.8 76.5h-31m254.9 0H597.3m84 0H651.2m-348.1 33.5H270.8m87.3 0H325.8m189.9 0h-30m84.1 0H538.6" class="g0_5"/>
<image preserveAspectRatio="none" x="43" y="90" width="57" height="57" xlink:href="img/2.jpg"/>
<image preserveAspectRatio="none" x="730" y="67" width="108" height="108" xlink:href="img/3.jpg"/>
<image preserveAspectRatio="none" x="694" y="256" width="153" height="117" xlink:href="img/4.jpg"/>
<image preserveAspectRatio="none" x="43" y="242" width="57" height="56" xlink:href="img/5.jpg"/>
<image preserveAspectRatio="none" x="679" y="513" width="163" height="103" xlink:href="img/6.jpg"/>
<image preserveAspectRatio="none" x="43" y="534" width="57" height="57" xlink:href="img/7.jpg"/>
<image clip-path="url(#c1_5)" preserveAspectRatio="none" x="707" y="804" width="146" height="125" xlink:href="img/8.jpg"/>
<image preserveAspectRatio="none" x="43" y="765" width="57" height="56" xlink:href="img/9.jpg"/>
<image preserveAspectRatio="none" x="747" y="1007" width="104" height="155" xlink:href="img/10.jpg"/>
<image preserveAspectRatio="none" x="43" y="1029" width="57" height="56" xlink:href="img/11.jpg"/>
</svg>