<?xml version="1.0" encoding="UTF-8" standalone="no"?>
<!DOCTYPE svg PUBLIC "-//W3C//DTD SVG 1.1//EN"
"http://www.w3.org/Graphics/SVG/1.1/DTD/svg11.dtd">
<svg viewBox="0 0 909 1286" version="1.1" xmlns="http://www.w3.org/2000/svg" xmlns:xlink="http://www.w3.org/1999/xlink">
<defs>
<clipPath id="c0_5"><path d="M-.2 1286.6v-74.9h910v74.9Z"/></clipPath>
<clipPath id="c1_5"><path d="M655.1 692.6V604.8H802.4v87.8Z"/></clipPath>
<clipPath id="c2_5"><path d="M305.7 855V795.3h73.4V855Z"/></clipPath>
<clipPath id="c3_5"><path d="M430.5 855V787.5h45.2V855Z"/></clipPath>
<clipPath id="c4_5"><path d="M527.8 855V804h37.6v51Z"/></clipPath>
<clipPath id="c5_5"><path d="M706.7 560V439.4H836.4V560Z"/></clipPath>
<clipPath id="c6_5"><path d="M744.2 860V778H846.3v82Z"/></clipPath>
<clipPath id="c7_5"><path d="M672.3 1174.2V1057.1H826.2v117.1Z"/></clipPath>
<style type="text/css"><![CDATA[
.g0_5{
fill: none;
stroke: #000;
stroke-width: 0.765;
stroke-linecap: square;
stroke-miterlimit: 10;
}
.g1_5{
fill: none;
stroke: #000;
stroke-width: 0.763;
stroke-linecap: square;
stroke-miterlimit: 10;
}
.g2_5{
fill: #000;
}
.g3_5{
fill: none;
stroke: #000;
stroke-width: 0.761;
stroke-linecap: square;
stroke-miterlimit: 10;
}
.g4_5{
fill: none;
stroke: #000;
stroke-width: 0.762;
stroke-linecap: square;
stroke-miterlimit: 10;
}
.g5_5{
fill: #FFF;
fill-opacity: 0;
}
.g6_5{
fill: none;
stroke: #000;
stroke-width: 1.145;
stroke-linecap: round;
stroke-linejoin: round;
}
.g7_5{
fill: none;
stroke: #000;
stroke-width: 1.145;
stroke-linejoin: round;
}
]]></style>
</defs>
<image clip-path="url(#c0_5)" preserveAspectRatio="none" x="-4" y="1212" width="952" height="131" xlink:href="img/1.jpg"/>
<image preserveAspectRatio="none" x="720" y="907" width="102" height="103" xlink:href="img/2.jpg"/>
<path d="M229.2 98h23.2" class="g0_5"/>
<path d="M278.1 98h25.3" class="g1_5"/>
<path d="M265.9 125.5h24" class="g0_5"/>
<path d="M267 153.4h24.3" class="g1_5"/>
<path d="M348.9 603h36.7v-.9H348.9v.9Z" class="g2_5"/>
<path d="M348.9 604.8h36.7v-.9H348.9v.9Z" class="g2_5"/>
<image preserveAspectRatio="none" x="142" y="605" width="124" height="87" xlink:href="img/3.jpg"/>
<image preserveAspectRatio="none" x="291" y="632" width="148" height="60" xlink:href="img/4.jpg"/>
<image preserveAspectRatio="none" x="464" y="620" width="129" height="72" xlink:href="img/5.jpg"/>
<image clip-path="url(#c1_5)" preserveAspectRatio="none" x="655" y="605" width="147" height="87" xlink:href="img/6.jpg"/>
<image preserveAspectRatio="none" x="151" y="767" width="101" height="88" xlink:href="img/7.jpg"/>
<image clip-path="url(#c2_5)" preserveAspectRatio="none" x="306" y="796" width="73" height="59" xlink:href="img/8.jpg"/>
<image clip-path="url(#c3_5)" preserveAspectRatio="none" x="431" y="788" width="44" height="67" xlink:href="img/9.jpg"/>
<image clip-path="url(#c4_5)" preserveAspectRatio="none" x="528" y="804" width="37" height="51" xlink:href="img/10.jpg"/>
<path d="M262.7 1057.3h23.2" class="g0_5"/>
<path d="M455.8 1057h24.7" class="g1_5"/>
<path d="M561.2 1056.9h21.4m25.9 0h22.3" class="g3_5"/>
<path d="M110.5 1085h26.3m80.7 -.1h24.6m44.1 .2h23.2" class="g1_5"/>
<path d="M335.1 1084.9h24.2m24.8 0h24.4" class="g0_5"/>
<path d="M433.1 1085.2H458" class="g1_5"/>
<path d="M501.8 1085h22.9" class="g3_5"/>
<path d="M128.9 1113.7h21.4" class="g1_5"/>
<path d="M176.2 1113.8h22.3" class="g3_5"/>
<path d="M223.5 1113.9h26.2" class="g4_5"/>
<path d="M136.8 1163h11.1m101.8 0h11.1" class="g1_5"/>
<image preserveAspectRatio="none" x="43" y="89" width="57" height="57" xlink:href="img/11.jpg"/>
<path fill-rule="evenodd" d="M706.8 96.5L696.3 212.4h88.1V107.9Z" class="g5_5"/>
<path d="M706.8 96.5L696.3 212.4h88.1V107.9L706.8 96.5Z" class="g6_5"/>
<path d="M684.1 154.2H809M746.7 83.5V224.6" class="g7_5"/>
<image preserveAspectRatio="none" x="661" y="297" width="172" height="122" xlink:href="img/12.jpg"/>
<image preserveAspectRatio="none" x="43" y="317" width="57" height="56" xlink:href="img/13.jpg"/>
<image clip-path="url(#c5_5)" preserveAspectRatio="none" x="707" y="440" width="129" height="120" xlink:href="img/14.jpg"/>
<image preserveAspectRatio="none" x="43" y="459" width="57" height="56" xlink:href="img/15.jpg"/>
<image preserveAspectRatio="none" x="43" y="602" width="57" height="57" xlink:href="img/16.jpg"/>
<image clip-path="url(#c6_5)" preserveAspectRatio="none" x="745" y="778" width="101" height="82" xlink:href="img/17.jpg"/>
<image preserveAspectRatio="none" x="43" y="765" width="57" height="56" xlink:href="img/18.jpg"/>
<image preserveAspectRatio="none" x="43" y="926" width="57" height="56" xlink:href="img/19.jpg"/>
<image preserveAspectRatio="none" x="43" y="1076" width="57" height="57" xlink:href="img/20.jpg"/>
<image clip-path="url(#c7_5)" preserveAspectRatio="none" x="673" y="1057" width="153" height="117" xlink:href="img/21.jpg"/>
</svg>