<?xml version="1.0" encoding="UTF-8" standalone="no"?>
<!DOCTYPE svg PUBLIC "-//W3C//DTD SVG 1.1//EN"
"http://www.w3.org/Graphics/SVG/1.1/DTD/svg11.dtd">
<svg viewBox="0 0 909 1286" version="1.1" xmlns="http://www.w3.org/2000/svg" xmlns:xlink="http://www.w3.org/1999/xlink">
<defs>
<clipPath id="c0_15"><path d="M-.2 1286.6v-74.9h910v74.9Z"/></clipPath>
<clipPath id="c1_15"><path d="M693.7 742.4V626.9H831.4V742.4Z"/></clipPath>
<clipPath id="c2_15"><path d="M710.9 865.7V758H823V865.7Z"/></clipPath>
<clipPath id="c3_15"><path d="M699.7 1154.8V1028.6H827v126.2Z"/></clipPath>
<style type="text/css"><![CDATA[
.g0_15{
fill: #000;
}
.g1_15{
fill: none;
stroke: #000;
stroke-width: 0.775;
stroke-linecap: square;
stroke-miterlimit: 10;
}
.g2_15{
fill: none;
stroke: #000;
stroke-width: 0.771;
stroke-linecap: square;
stroke-miterlimit: 10;
}
.g3_15{
fill: none;
stroke: #000;
stroke-width: 0.907;
stroke-linecap: square;
stroke-miterlimit: 10;
}
.g4_15{
fill: none;
stroke: #000;
stroke-width: 0.904;
stroke-linecap: square;
stroke-miterlimit: 10;
}
.g5_15{
fill: none;
stroke: #000;
stroke-width: 0.909;
stroke-linecap: square;
stroke-miterlimit: 10;
}
.g6_15{
fill: none;
stroke: #000;
stroke-width: 0.763;
stroke-linecap: square;
stroke-miterlimit: 10;
}
]]></style>
</defs>
<image clip-path="url(#c0_15)" preserveAspectRatio="none" x="-4" y="1212" width="952" height="131" xlink:href="img/1.jpg"/>
<path d="M147.2 91.1h36.7v-.9H147.2v.9Z" class="g0_15"/>
<path d="M236.5 114.9h55V114h-55v.9Z" class="g0_15"/>
<path d="M236.5 116.8h55v-.9h-55v.9Z" class="g0_15"/>
<path d="M497.8 192h24.6" class="g1_15"/>
<path d="M547.1 192.2H570" class="g2_15"/>
<path d="M384.3 335.9H409m25.7 -.2h25" class="g3_15"/>
<path d="M485.2 335.9H508" class="g4_15"/>
<path d="M532.5 335.7h24.1" class="g5_15"/>
<path d="M110.6 470.2h36.6v-.9H110.6v.9Z" class="g0_15"/>
<path d="M314.3 640.6h24.1" class="g5_15"/>
<path d="M538.9 640.8h25.7" class="g3_15"/>
<path d="M589.3 640.6h24.9" class="g6_15"/>
<path d="M147.2 945.7h24.4m24.6 -.2h24.1" class="g5_15"/>
<path d="M285.6 1109.5h11.1m69.4 0h11.1" class="g6_15"/>
<image preserveAspectRatio="none" x="44" y="89" width="56" height="57" xlink:href="img/2.jpg"/>
<image preserveAspectRatio="none" x="44" y="210" width="56" height="56" xlink:href="img/3.jpg"/>
<image preserveAspectRatio="none" x="717" y="185" width="123" height="112" xlink:href="img/4.jpg"/>
<image preserveAspectRatio="none" x="691" y="327" width="163" height="94" xlink:href="img/5.jpg"/>
<image preserveAspectRatio="none" x="44" y="355" width="56" height="56" xlink:href="img/6.jpg"/>
<image preserveAspectRatio="none" x="732" y="458" width="121" height="111" xlink:href="img/7.jpg"/>
<image preserveAspectRatio="none" x="44" y="468" width="56" height="57" xlink:href="img/8.jpg"/>
<image preserveAspectRatio="none" x="44" y="659" width="56" height="57" xlink:href="img/9.jpg"/>
<image clip-path="url(#c1_15)" preserveAspectRatio="none" x="694" y="627" width="137" height="115" xlink:href="img/10.png"/>
<image preserveAspectRatio="none" x="44" y="776" width="56" height="57" xlink:href="img/11.jpg"/>
<image clip-path="url(#c2_15)" preserveAspectRatio="none" x="711" y="758" width="112" height="107" xlink:href="img/12.jpg"/>
<image preserveAspectRatio="none" x="684" y="887" width="124" height="123" xlink:href="img/13.jpg"/>
<image preserveAspectRatio="none" x="44" y="914" width="56" height="57" xlink:href="img/14.jpg"/>
<image preserveAspectRatio="none" x="44" y="1059" width="56" height="56" xlink:href="img/15.jpg"/>
<image clip-path="url(#c3_15)" preserveAspectRatio="none" x="700" y="1029" width="127" height="125" xlink:href="img/16.jpg"/>
</svg>