<?xml version="1.0" encoding="UTF-8" standalone="no"?>
<!DOCTYPE svg PUBLIC "-//W3C//DTD SVG 1.1//EN"
"http://www.w3.org/Graphics/SVG/1.1/DTD/svg11.dtd">
<svg viewBox="0 0 909 1286" version="1.1" xmlns="http://www.w3.org/2000/svg" xmlns:xlink="http://www.w3.org/1999/xlink">
<defs>
<clipPath id="c0_2"><path d="M-.2 1286.6v-74.9h910v74.9Z"/></clipPath>
<clipPath id="c1_2"><path d="M753.6 565.4V427.5H856.9V565.4Z"/></clipPath>
<style type="text/css"><![CDATA[
.g0_2{
fill: none;
stroke: #000;
stroke-width: 0.762;
stroke-linecap: square;
stroke-miterlimit: 10;
}
.g1_2{
fill: #000;
}
.g2_2{
fill: none;
stroke: #000;
stroke-width: 0.766;
stroke-linecap: square;
stroke-miterlimit: 10;
}
.g3_2{
fill: none;
stroke: #000;
stroke-width: 0.765;
stroke-linecap: square;
stroke-miterlimit: 10;
}
.g4_2{
fill: none;
stroke: #000;
stroke-width: 0.906;
stroke-linecap: square;
stroke-miterlimit: 10;
}
]]></style>
</defs>
<image clip-path="url(#c0_2)" preserveAspectRatio="none" x="-4" y="1212" width="952" height="131" xlink:href="img/1.jpg"/>
<path d="M284 329.9h27.4" class="g0_2"/>
<path d="M166.5 448.8h36.6v-.9H166.5v.9Z" class="g1_2"/>
<path d="M141.2 964.1h19.7m62.4 0H243" class="g2_2"/>
<path d="M150.4 1101h28.9" class="g3_2"/>
<path d="M203.9 1101h73" class="g4_2"/>
<path d="M285.6 1148.3h28.9m68.5 0h28.9" class="g3_2"/>
<image preserveAspectRatio="none" x="44" y="88" width="56" height="57" xlink:href="img/2.jpg"/>
<image preserveAspectRatio="none" x="44" y="211" width="56" height="57" xlink:href="img/3.jpg"/>
<image preserveAspectRatio="none" x="44" y="336" width="56" height="56" xlink:href="img/4.jpg"/>
<image preserveAspectRatio="none" x="44" y="447" width="56" height="57" xlink:href="img/5.jpg"/>
<image clip-path="url(#c1_2)" preserveAspectRatio="none" x="754" y="428" width="103" height="137" xlink:href="img/6.jpg"/>
<image preserveAspectRatio="none" x="44" y="610" width="56" height="56" xlink:href="img/7.jpg"/>
<image preserveAspectRatio="none" x="44" y="727" width="56" height="56" xlink:href="img/8.jpg"/>
<image preserveAspectRatio="none" x="44" y="840" width="56" height="56" xlink:href="img/9.jpg"/>
<image preserveAspectRatio="none" x="44" y="971" width="56" height="57" xlink:href="img/10.jpg"/>
<image preserveAspectRatio="none" x="44" y="1108" width="56" height="56" xlink:href="img/11.jpg"/>
</svg>