<?xml version="1.0" encoding="UTF-8" standalone="no"?>
<!DOCTYPE svg PUBLIC "-//W3C//DTD SVG 1.1//EN"
"http://www.w3.org/Graphics/SVG/1.1/DTD/svg11.dtd">
<svg viewBox="0 0 909 1286" version="1.1" xmlns="http://www.w3.org/2000/svg" xmlns:xlink="http://www.w3.org/1999/xlink">
<defs>
<clipPath id="c0_1"><path d="M0 1286.3v-74.5H909.5v74.5Z"/></clipPath>
<clipPath id="c1_1"><path d="M0 151.3V0H909.5V151.3Z"/></clipPath>
<clipPath id="c2_1"><path d="M22.8 202.4V153.3H909.5v49.1Z"/></clipPath>
<style type="text/css"><![CDATA[
.g0_1{
fill: none;
stroke: #999;
stroke-width: 0.882;
stroke-linecap: square;
stroke-miterlimit: 10;
}
.g1_1{
fill: #000;
}
.g2_1{
fill: none;
stroke: #000;
stroke-width: 0.882;
stroke-linecap: square;
stroke-miterlimit: 10;
}
.g3_1{
fill: #F00;
}
.g4_1{
fill: #00F;
}
.g5_1{
fill: none;
stroke: #00F;
stroke-width: 0.882;
stroke-linecap: square;
stroke-miterlimit: 10;
}
.g6_1{
fill: #090;
}
.g7_1{
fill: none;
stroke: #090;
stroke-width: 0.882;
stroke-linecap: square;
stroke-miterlimit: 10;
}
.g8_1{
fill: none;
stroke: #F30;
stroke-width: 1.069;
stroke-linecap: square;
stroke-miterlimit: 10;
}
.g9_1{
fill: none;
stroke: #000;
stroke-width: 1.069;
stroke-linecap: square;
stroke-miterlimit: 10;
}
.ga_1{
fill: #FFE6CC;
}
.gb_1{
fill: #EEFAE9;
}
.gc_1{
fill: none;
stroke: #000;
stroke-width: 1.469;
stroke-linecap: square;
stroke-miterlimit: 10;
}
.gd_1{
fill: none;
stroke: #000;
stroke-width: 1.099;
stroke-linecap: square;
stroke-miterlimit: 10;
}
.ge_1{
fill: #F90;
}
.gf_1{
fill: #FCF;
}
.gg_1{
fill: #CFC;
}
.gh_1{
fill: #6C3;
}
]]></style>
</defs>
<image clip-path="url(#c0_1)" preserveAspectRatio="none" x="-2" y="1212" width="930" height="127" xlink:href="img/1.jpg"/>
<path d="M706.6 492.5l-1.4 1l-1.4 1l-1.4 .9l-1.4 .8m-22.7 .5l-.7 -.5l-.7 -.4l-1.4 -1l-.7 -.5l-.7 -.6l-1.3 -1.2" class="g0_1"/>
<path d="M835.9 482.9l.5 -.5l.5 -.6l.2 -.3l.2 -.2l.3 -.6l.3 -.6l.1 -.5l.1 -.6v-.4l-.1 -.5l-.1 -.6l-.1 -.5l-.2 -.4l-.3 -.5l-.3 -.4l-.4 -.5l-.4 -.5l-.4 -.5l-.5 -.4l14.3 4.8l-14.3 4.9Z" class="g1_1"/>
<path d="M509.6 478.6H838.1M638 481.2v-5.3m34.6 5.3v-5.3m34.6 5.3v-5.3m34.7 5.3v-5.3m34.6 5.3v-5.3m34.6 5.3v-5.3m-207.8 5.3v-5.3m-34.6 5.3v-5.3m-34.6 5.3v-5.3" class="g2_1"/>
<path d="M672.7 480.6l-.4 -.1l-.3 -.2l-.3 -.2l-.2 -.3l-.1 -.1v-.1l-.1 -.4v-.7l.1 -.3l.1 -.4l.2 -.2l.3 -.3l.3 -.1l.4 -.1h.8l.2 .1l.3 .1l.3 .3l.2 .2l.2 .4l.1 .3v.7l-.1 .2v.2l-.1 .1l-.1 .1l-.1 .2l-.1 .1l-.2 .1l-.1 .1l-.3 .2l-.2 .1h-.3l-.2 .1Z" class="g3_1"/>
<path d="M812.8 473.5l.2 -.3l.3 -.3l.5 -.5l.2 -.3l.2 -.3l.3 -.5l.2 -.6l.2 -.5l.1 -.6v-.5h4.4H815l-.1 -.5l-.1 -.3v-.2l-.2 -.5l-.2 -.5l-.3 -.4l-.2 -.5l-.4 -.5l-.4 -.5l-.4 -.4l-.5 -.5l14.2 4.9L812.2 474Z" class="g4_1"/>
<path d="M686.1 469.1H819.4" class="g5_1"/>
<path d="M521 469.4l14.2 -4.9l-.5 .5l-.4 .5l-.5 .4l-.3 .5l-.3 .5l-.2 .5l-.3 .4l-.1 .5l-.1 .5l-.1 .5H528h4.4v.5l.1 .6l.1 .5l.3 .6l.3 .6l.4 .5l.5 .6l.5 .5l.6 .6Z" class="g4_1"/>
<path d="M528 469.3H661.3" class="g5_1"/>
<path d="M813.6 511.8l.3 -.3l.3 -.3l.4 -.5l.2 -.3l.2 -.3l.3 -.5l.3 -.6l.1 -.5l.1 -.6v-.5h4.4h-4.4v-.5l-.1 -.3v-.2l-.1 -.3l-.1 -.2l-.3 -.5l-.1 -.3l-.2 -.3l-.3 -.5l-.4 -.4l-.3 -.5l-.4 -.4l-.5 -.4l2.5 .8l2.5 .9l4.6 1.6l4.7 1.6L813 512.3Z" class="g6_1"/>
<path d="M820.2 507.4H731.9" class="g7_1"/>
<path d="M519.2 507.5l9.3 -3.2l2.5 -.9l2.5 -.8l-.9 .8l-.7 .9l-.4 .5l-.3 .6l-.2 .5l-.2 .5l-.1 .5v.5h-4.5h4.5v1.1l.2 .5l.2 .6l.3 .5l.4 .6l.5 .5l.5 .6l.7 .5Z" class="g6_1"/>
<path d="M526.2 507.4h88.4" class="g7_1"/>
<path d="M706.9 787.5l-1.7 -.9l-1.7 -.9l-1.7 -.8l-1.6 -.7l-3.4 -1.3l-1.7 -.6l-1.6 -.5l-1.7 -.4l-1.7 -.4l-1.7 -.3l-1.7 -.3l-1.7 -.2l-1.7 -.1l-1.7 -.1h-1.7l-3.5 .1l-1.7 .1l-1.8 .2l-1.7 .3l-1.7 .3l-1.8 .4l-1.7 .4l-1.8 .5l-1.7 .6l-1.8 .6l-1.7 .7l-1.8 .7l-1.8 .8l-1.8 .9l-1.7 .9m110.5 .6l-1.7 -1l-1.7 -.8l-1.6 -.8l-1.7 -.7l-3.4 -1.3l-1.6 -.6l-1.7 -.5l-1.7 -.4l-1.7 -.4l-1.7 -.4l-1.7 -.2l-1.7 -.2l-1.7 -.1l-1.7 -.1h-1.7l-3.5 .1l-1.7 .1l-1.7 .2l-1.8 .2l-1.7 .4l-1.7 .4l-1.8 .4l-1.7 .5l-1.8 .6l-1.8 .6l-1.7 .7l-1.8 .7l-1.8 .8l-1.7 .8l-1.8 1" class="g8_1"/>
<path d="M779.6 795.4l.7 -.6l.5 -.7l.3 -.3l.2 -.3l.4 -.7l.3 -.7l.2 -.7l.1 -.6v-.6l-.1 -.6l-.1 -.6l-.2 -.6l-.3 -.6l-.3 -.5l-.3 -.6l-.5 -.6l-.5 -.5l-.5 -.6l-.6 -.5l17.2 5.8l-17.2 5.8Z" class="g1_1"/>
<path d="M637.3 790.2h145M650 793.4v-6.5m57.6 6.5v-6.5m54.9 6.5v-6.5" class="g9_1"/>
<path d="M519.3 269.8l-.8 -.1l-.6 -.2l-.7 -.3l-.5 -.3l-.5 -.5l-.3 -.3l-.1 -.2l-.1 -.3l-.1 -.2l-.1 -.5V253.3l.1 -.6l.2 -.6l.4 -.5l.5 -.4l.5 -.4l.7 -.3l.6 -.1l.8 -.1h36.2l.7 .1l.7 .1l.3 .1l.3 .2l.6 .4l.5 .4l.3 .5l.2 .6l.1 .6v13.8h-.1v.3l-.1 .2l-.1 .3l-.1 .1l-.1 .1l-.1 .3l-.5 .5l-.6 .3l-.3 .2l-.3 .1l-.7 .2l-.7 .1Z" class="ga_1"/>
<path d="M298.7 269.8l-.8 -.1l-.7 -.2l-.6 -.3l-.5 -.3l-.6 -.5l-.2 -.3l-.1 -.2l-.2 -.3l-.1 -.2V252.7l.3 -.6l.3 -.5l.6 -.4l.5 -.4l.6 -.3l.7 -.1l.8 -.1h36.1l.7 .1l.7 .1l.3 .1l.3 .2l.3 .2l.3 .2l.5 .4l.3 .5l.3 .6v14.7l-.2 .2l-.1 .3l-.1 .2l-.2 .3l-.5 .5l-.3 .2l-.3 .1l-.3 .2l-.3 .1l-.7 .2l-.7 .1Z" class="gb_1"/>
<path d="M663.8 276.2v-8.6l24.3 8.9l-24.3 8.9Z" class="g1_1"/>
<path d="M436.5 276.2v-3.7m0 3.7H221.4m442.4 0H436.5m0 3.6v-3.6" class="gc_1"/>
<path d="M208.3 617.8h9.1m137.5 0h9.2M263.3 661.5h9.1m59.6 0h9.2m68.7 0h9.2m68.8 0H497m77.9 0h9.2m77.9 0h9.2m77.9 0h9.2" class="gd_1"/>
<image clip-path="url(#c1_1)" preserveAspectRatio="none" x="0" y="0" width="914" height="151" xlink:href="img/2.jpg"/>
<image clip-path="url(#c2_1)" preserveAspectRatio="none" x="23" y="153" width="1038" height="49" xlink:href="img/3.png"/>
<path d="M78.5 674.2l-.9 -.1l-.7 -.3l-.8 -.4l-.6 -.5l-.4 -.4l-.2 -.3l-.4 -.7l-.2 -.8l-.1 -.9V657.2l.1 -.9l.2 -.7l.4 -.8l.6 -.7l.6 -.6l.8 -.3l.7 -.3H91.9l.4 .1l.4 .2l.7 .3l.3 .3l.4 .3l.5 .7l.4 .8l.3 .7l.1 .9v12.6l-.1 .4v.5l-.3 .8l-.2 .3l-.1 .2l-.1 .2l-.3 .3l-.1 .2l-.1 .1v.1l-.4 .2l-.3 .3l-.2 .1l-.2 .1l-.3 .2l-.4 .2h-.2l-.2 .1h-.4l-.4 .1Z" class="ge_1"/>
<path d="M77.7 347.5l-.8 -.1l-.7 -.3l-.7 -.4l-.6 -.5l-.3 -.4l-.2 -.3l-.3 -.8l-.2 -.8V329.7l.2 -.8l.3 -.8l.5 -.7l.6 -.5l.7 -.4l.7 -.3l.8 -.1h31.5l.7 .1l.4 .1l.3 .2l.3 .1l.4 .3l.2 .2l.4 .3l.4 .7l.4 .8l.2 .8l.2 1V343l-.1 .4l-.1 .1v.4l-.1 .4l-.1 .2v.2l-.1 .2l-.1 .2l-.2 .4l-.2 .3l-.1 .2l-.1 .2l-.4 .3l-.1 .1l-.1 .1l-.4 .2l-.1 .1l-.1 .1h-.2l-.1 .1l-.1 .1l-.4 .1l-.7 .1Z" class="gf_1"/>
<path d="M112.6 765.6l-.9 -.1l-.8 -.3l-.8 -.4l-.6 -.5l-.3 -.4l-.3 -.3l-.3 -.7l-.3 -.8V747.7l.3 -.7l.3 -.8l.6 -.7l.6 -.5l.8 -.4l.8 -.3h14.2l.4 .1l.4 .2l.7 .4l.3 .2l.4 .3l.6 .7l.4 .8l.2 .7l.1 .9v12.6l-.1 .4v.5l-.2 .8l-.2 .3l-.2 .2v.2l-.3 .3l-.2 .2l-.1 .1v.1l-.4 .2l-.3 .3l-.2 .1l-.2 .1l-.3 .2l-.4 .2h-.2l-.2 .1h-.4l-.4 .1Z" class="gg_1"/>
<path d="M95.9 846.9l-.8 -.1l-.7 -.2l-.6 -.4l-.6 -.6l-.3 -.3l-.2 -.4l-.3 -.7l-.2 -.9l-.1 -.4l.1 -.5V829.2l.2 -.9l.3 -.8l.5 -.6l.6 -.6l.6 -.4l.7 -.3h33.1l.3 .1l.4 .2l.3 .1l.3 .3l.3 .2l.3 .4l.5 .6l.4 .8l.2 .9l.1 .9v12.3l-.1 .5v.4l-.1 .4l-.1 .2v.3l-.2 .1l-.1 .2l-.1 .4l-.3 .4l-.1 .1l-.1 .2l-.3 .3l-.2 .1l-.1 .2l-.3 .2l-.2 .1h-.1v.1h-.2l-.2 .1l-.3 .1l-.8 .1Z" class="gf_1"/>
<path d="M112.6 930.6h-.9l-.8 -.3l-.8 -.4l-.6 -.5l-.3 -.4l-.3 -.3l-.3 -.7l-.3 -.8V912.8l.3 -.8l.3 -.7l.6 -.7l.6 -.6l.8 -.3l.8 -.3h14.2l.4 .1l.4 .2l.7 .3l.3 .3l.4 .3l.6 .7l.4 .7l.2 .8l.1 .9v12.6l-.1 .4v.5l-.2 .8l-.2 .3l-.2 .2v.2l-.3 .3l-.2 .2l-.1 .1v.1l-.4 .2l-.3 .3l-.2 .1l-.2 .1l-.3 .2l-.4 .1h-.1l-.1 .1l-.2 .1h-.8Z" class="gg_1"/>
<path d="M95.9 955.5l-.8 -.1l-.7 -.2l-.6 -.4l-.6 -.5l-.3 -.4l-.2 -.3l-.3 -.8l-.2 -.9l-.1 -.4l.1 -.4V937.8l.2 -.9l.3 -.8l.5 -.6l.6 -.6l.6 -.4l.7 -.2l.8 -.1h31.5l.8 .1h.3l.4 .2l.3 .2l.3 .2l.3 .3l.3 .3l.5 .6l.4 .8l.2 .9l.1 .9v12.4l-.1 .4v.4l-.1 .4l-.1 .2v.3l-.2 .2l-.1 .2l-.1 .4l-.3 .3l-.1 .2l-.1 .2l-.3 .2l-.2 .1l-.1 .2l-.3 .2l-.2 .1h-.1v.1h-.2l-.2 .1l-.3 .1l-.8 .1Z" class="gf_1"/>
<path d="M112.6 1038.7l-.9 -.1l-.8 -.3l-.8 -.4l-.6 -.5l-.3 -.4l-.3 -.3l-.3 -.7l-.3 -.8v-14.4l.3 -.7l.3 -.8l.6 -.7l.6 -.6l.8 -.3l.8 -.3h14.2l.4 .1l.4 .2l.7 .3l.3 .3l.4 .3l.6 .7l.4 .8l.2 .7l.1 .9v12.6l-.1 .4v.5l-.2 .8l-.2 .3l-.2 .2v.2l-.3 .3l-.2 .2l-.1 .1v.1l-.4 .2l-.3 .3l-.2 .1l-.2 .1l-.3 .2l-.4 .2h-.2l-.2 .1h-.4l-.4 .1Z" class="gg_1"/>
<path d="M78.7 630.6l-.9 -.1l-.7 -.2l-.8 -.4l-.7 -.6l-.3 -.3l-.2 -.4l-.4 -.7l-.2 -.8l-.1 -.8V613.7l.1 -.9l.2 -.8l.4 -.8l.5 -.7l.7 -.5l.8 -.4l.7 -.2l.9 -.1H91.2l.9 .1h.4l.4 .2l.7 .4l.3 .2l.3 .3l.6 .7l.4 .8l.3 .8v14.3l-.3 .8l-.2 .4l-.1 .1l-.1 .2l-.3 .4l-.1 .1l-.1 .1h-.1v.1l-.3 .3l-.3 .3h-.2l-.2 .2l-.3 .2l-.4 .1h-.2l-.2 .1h-.4l-.5 .1Z" class="gh_1"/>
<path d="M112.6 765.3l-.9 -.1l-.8 -.3l-.8 -.4l-.6 -.5l-.3 -.4l-.3 -.3l-.3 -.7l-.3 -.8V747.4l.3 -.7l.3 -.8l.6 -.7l.6 -.5l.8 -.4l.8 -.3h14.2l.4 .1l.4 .2l.7 .4l.3 .2l.4 .3l.6 .7l.4 .8l.2 .7l.1 .9v12.6l-.1 .4v.5l-.2 .8l-.2 .3l-.2 .2v.2l-.3 .3l-.2 .2l-.1 .1v.1l-.4 .2l-.3 .3l-.2 .1l-.2 .1l-.3 .2l-.4 .2h-.2l-.2 .1h-.4l-.4 .1Z" class="gh_1"/>
<path d="M112.8 930.8l-.9 -.1l-.8 -.2l-.7 -.4l-.7 -.6l-.3 -.3l-.3 -.4l-.3 -.7l-.3 -.8V913l.3 -.8l.3 -.8l.6 -.6l.7 -.6l.7 -.4l.8 -.2l.9 -.1h12.5l.9 .1l.3 .1l.4 .1l.7 .4l.4 .2l.3 .4l.6 .6l.4 .8l.2 .8l.1 .9v13l-.1 .1v.3l-.2 .8l-.2 .4l-.1 .1l-.1 .2l-.3 .4l-.2 .1v.1h-.1v.1l-.3 .3l-.4 .3h-.2l-.1 .2l-.4 .2l-.4 .1h-.2l-.1 .1h-.4l-.1 .1h-.4Z" class="gh_1"/>
<path d="M112.6 1038.2l-.9 -.1l-.8 -.2l-.8 -.4l-.6 -.6l-.3 -.3l-.3 -.4l-.3 -.7l-.3 -.8v-14.3l.3 -.8l.3 -.8l.6 -.6l.6 -.6l.8 -.4l.8 -.2l.9 -.1h12.5l.8 .1l.4 .1l.4 .1l.7 .4l.3 .2l.4 .4l.6 .6l.4 .8l.2 .8l.1 .9v12.6l-.1 .4v.4l-.2 .8l-.2 .4l-.2 .1v.2l-.3 .4l-.2 .1l-.1 .1v.1l-.4 .3l-.3 .3h-.2l-.2 .2l-.3 .2l-.4 .1h-.2l-.2 .1h-.3l-.1 .1h-.4Z" class="gh_1"/>
</svg>