<?xml version="1.0" encoding="UTF-8" standalone="no"?>
<!DOCTYPE svg PUBLIC "-//W3C//DTD SVG 1.1//EN"
"http://www.w3.org/Graphics/SVG/1.1/DTD/svg11.dtd">
<svg viewBox="0 0 909 1286" version="1.1" xmlns="http://www.w3.org/2000/svg" xmlns:xlink="http://www.w3.org/1999/xlink">
<defs>
<clipPath id="c0_12"><path d="M-.2 1286.6v-74.9h910v74.9Z"/></clipPath>
<clipPath id="c1_12"><path d="M734.4 475.7V365H851.1V475.7Z"/></clipPath>
<style type="text/css"><![CDATA[
.g0_12{
fill: #000;
}
.g1_12{
fill: none;
stroke: #000;
stroke-width: 0.763;
stroke-linecap: square;
stroke-miterlimit: 10;
}
.g2_12{
fill: none;
stroke: #000;
stroke-width: 0.765;
stroke-linecap: square;
stroke-miterlimit: 10;
}
.g3_12{
fill: none;
stroke: #000;
stroke-width: 0.761;
stroke-linecap: square;
stroke-miterlimit: 10;
}
.g4_12{
fill: none;
stroke: #000;
stroke-width: 1.145;
stroke-linecap: round;
stroke-miterlimit: 8;
}
.g5_12{
fill: none;
stroke: #000;
stroke-width: 0.763;
stroke-linecap: round;
stroke-miterlimit: 8;
}
]]></style>
</defs>
<image clip-path="url(#c0_12)" preserveAspectRatio="none" x="-4" y="1212" width="952" height="131" xlink:href="img/1.jpg"/>
<image clip-path="url(#c1_12)" preserveAspectRatio="none" x="735" y="365" width="116" height="110" xlink:href="img/2.jpg"/>
<path d="M455.8 138.8h55v-.9h-55v.9Z" class="g0_12"/>
<path d="M455.8 140.6h55v-.9h-55v.9Z" class="g0_12"/>
<path d="M541.4 220.1H566" class="g1_12"/>
<path d="M610.1 220h24.1m24.9 .1h23.8" class="g2_12"/>
<path d="M206.3 257h24.8" class="g1_12"/>
<path d="M293.4 257.1h23.7M379 257h24.1" class="g2_12"/>
<path d="M464.6 257.1h24.9" class="g1_12"/>
<path d="M560.9 257.1h24.4" class="g2_12"/>
<path d="M609.8 267.8h11.1m7.3 -10.7h23.1m44.1 -.1H720" class="g1_12"/>
<path d="M510.2 512.6h24.4" class="g2_12"/>
<path d="M559.2 512.7h25.1" class="g1_12"/>
<path d="M110.6 540.6h23.8m190.1 0h23.3" class="g2_12"/>
<path d="M410.1 540.6h25m53 0h25.7" class="g1_12"/>
<path d="M229.2 687.7h23.3" class="g2_12"/>
<path d="M278.1 687.7h25.3" class="g1_12"/>
<path d="M265.9 715.4H290" class="g2_12"/>
<path d="M267 743.1h24.3M168.7 893.4h25.2m226.9 0H446" class="g1_12"/>
<path d="M507.8 893.4h22.3" class="g3_12"/>
<path d="M555.1 893.4h23.3" class="g2_12"/>
<path d="M110.6 922.3h24.9m25.5 -.2h24.9m43.8 .2h22.4m52.5 0h24.9m53 0h23.1" class="g1_12"/>
<path d="M477.2 922.3h24.4M187 1047.5h23.3" class="g2_12"/>
<path d="M255.4 1075h25.2" class="g1_12"/>
<path d="M305.8 1075h23.3" class="g2_12"/>
<path d="M425 1096.1h36.6v-.9H425v.9Z" class="g0_12"/>
<path d="M480 1096.1h55v-.9H480v.9Z" class="g0_12"/>
<image preserveAspectRatio="none" x="43" y="90" width="57" height="56" xlink:href="img/3.jpg"/>
<image preserveAspectRatio="none" x="43" y="237" width="57" height="57" xlink:href="img/4.jpg"/>
<path d="M823.7 218.6v96.8H751.1l72.6 -96.8Zm-29 53.3v43.4h58.1L794.7 271.9Z" class="g4_12"/>
<path d="M823.7 315.2h4.8v-4.8h-4.8v4.8Zm-28.9 0h4.8v-4.8h-4.8v4.8Z" class="g5_12"/>
<image preserveAspectRatio="none" x="43" y="381" width="57" height="57" xlink:href="img/5.jpg"/>
<image preserveAspectRatio="none" x="43" y="532" width="57" height="56" xlink:href="img/6.jpg"/>
<image preserveAspectRatio="none" x="672" y="501" width="146" height="138" xlink:href="img/7.png"/>
<image preserveAspectRatio="none" x="43" y="681" width="57" height="56" xlink:href="img/8.jpg"/>
<image preserveAspectRatio="none" x="676" y="655" width="167" height="143" xlink:href="img/9.png"/>
<image preserveAspectRatio="none" x="43" y="912" width="57" height="56" xlink:href="img/10.jpg"/>
<image preserveAspectRatio="none" x="653" y="885" width="176" height="143" xlink:href="img/11.png"/>
<image preserveAspectRatio="none" x="707" y="1044" width="123" height="151" xlink:href="img/12.jpg"/>
<image preserveAspectRatio="none" x="43" y="1066" width="57" height="57" xlink:href="img/13.jpg"/>
</svg>