<?xml version="1.0" encoding="UTF-8" standalone="no"?>
<!DOCTYPE svg PUBLIC "-//W3C//DTD SVG 1.1//EN"
"http://www.w3.org/Graphics/SVG/1.1/DTD/svg11.dtd">
<svg viewBox="0 0 909 1286" version="1.1" xmlns="http://www.w3.org/2000/svg" xmlns:xlink="http://www.w3.org/1999/xlink">
<defs>
<clipPath id="c0_8"><path d="M-.2 1286.6v-74.9h910v74.9Z"/></clipPath>
<clipPath id="c1_8"><path d="M691.6 151.6V74.2H854v77.4Z"/></clipPath>
<style type="text/css"><![CDATA[
.g0_8{
fill: none;
stroke: #000;
stroke-width: 0.763;
stroke-linecap: square;
stroke-miterlimit: 10;
}
.g1_8{
fill: none;
stroke: #000;
stroke-width: 0.765;
stroke-linecap: square;
stroke-miterlimit: 10;
}
.g2_8{
fill: none;
stroke: #000;
stroke-width: 0.762;
stroke-linecap: square;
stroke-miterlimit: 10;
}
.g3_8{
fill: none;
stroke: #000;
stroke-width: 0.761;
stroke-linecap: square;
stroke-miterlimit: 10;
}
.g4_8{
fill: none;
stroke: #000;
stroke-width: 0.904;
stroke-linecap: square;
stroke-miterlimit: 10;
}
.g5_8{
fill: none;
stroke: #000;
stroke-width: 0.773;
stroke-linecap: square;
stroke-miterlimit: 10;
}
.g6_8{
fill: none;
stroke: #000;
stroke-width: 0.775;
stroke-linecap: square;
stroke-miterlimit: 10;
}
]]></style>
</defs>
<image clip-path="url(#c0_8)" preserveAspectRatio="none" x="-4" y="1212" width="952" height="131" xlink:href="img/1.jpg"/>
<path d="M565.8 74.2H589" class="g0_8"/>
<path d="M110.6 101.9h23.2" class="g1_8"/>
<path d="M214.5 101.5h27.2" class="g2_8"/>
<path d="M266.4 101.9h23.3m268 0H581" class="g1_8"/>
<path d="M136.1 129.6h22.2" class="g3_8"/>
<path d="M207.7 129.6h29.8" class="g0_8"/>
<path d="M287.2 129.4h27.1" class="g2_8"/>
<path d="M364.5 129.6h23.2" class="g1_8"/>
<path d="M260.3 580.7h22.3" class="g4_8"/>
<path d="M299.6 841.8h23.8" class="g1_8"/>
<path d="M348.6 841.3h24.3" class="g5_8"/>
<path d="M397.9 841.3h23.5M133.5 869.5H157" class="g6_8"/>
<path d="M278.5 870h23.8" class="g1_8"/>
<path d="M327.5 869.5h24.3" class="g5_8"/>
<path d="M163.6 897.5h23.5" class="g6_8"/>
<path d="M584.7 897.5h23.5M164.9 925.8h24.3" class="g5_8"/>
<path d="M305.8 925.8h23.5m279.4 0h23.5" class="g6_8"/>
<path d="M676.4 925.8h23.4" class="g5_8"/>
<path d="M583.6 1004.8h23.2" class="g1_8"/>
<path d="M624.5 1004.7h26m22.6 .1h23.2m17.4 -.1h26m41.2 -.1h24.9" class="g0_8"/>
<path d="M831.1 1004.8h24.3" class="g1_8"/>
<path d="M136.8 1063.8h24.9m25.5 .3h24.3m49.1 0h23.1m25.8 -.5h22.3m49.4 .2h24.9m87.6 12.5h11.1M518.2 1064h23.2" class="g0_8"/>
<path d="M567.1 1063.8h24.4" class="g1_8"/>
<image preserveAspectRatio="none" x="43" y="92" width="57" height="57" xlink:href="img/2.jpg"/>
<image clip-path="url(#c1_8)" preserveAspectRatio="none" x="692" y="75" width="162" height="76" xlink:href="img/3.jpg"/>
<image preserveAspectRatio="none" x="43" y="218" width="57" height="56" xlink:href="img/4.jpg"/>
<image preserveAspectRatio="none" x="750" y="200" width="48" height="164" xlink:href="img/5.jpg"/>
<image preserveAspectRatio="none" x="43" y="432" width="57" height="57" xlink:href="img/6.jpg"/>
<image preserveAspectRatio="none" x="645" y="401" width="194" height="146" xlink:href="img/7.png"/>
<image preserveAspectRatio="none" x="754" y="717" width="98" height="93" xlink:href="img/8.jpg"/>
<image preserveAspectRatio="none" x="43" y="735" width="57" height="57" xlink:href="img/9.jpg"/>
<image preserveAspectRatio="none" x="43" y="862" width="57" height="57" xlink:href="img/10.jpg"/>
<image preserveAspectRatio="none" x="724" y="841" width="121" height="78" xlink:href="img/11.jpg"/>
<image preserveAspectRatio="none" x="43" y="1025" width="57" height="56" xlink:href="img/12.jpg"/>
<image preserveAspectRatio="none" x="739" y="566" width="72" height="136" xlink:href="img/13.jpg"/>
<image preserveAspectRatio="none" x="43" y="601" width="57" height="56" xlink:href="img/14.jpg"/>
</svg>