<?xml version="1.0" encoding="UTF-8" standalone="no"?>
<!DOCTYPE svg PUBLIC "-//W3C//DTD SVG 1.1//EN"
"http://www.w3.org/Graphics/SVG/1.1/DTD/svg11.dtd">
<svg viewBox="0 0 909 1286" version="1.1" xmlns="http://www.w3.org/2000/svg" xmlns:xlink="http://www.w3.org/1999/xlink">
<defs>
<clipPath id="c0_8"><path d="M-.2 1286.6v-75.1h910v75.1Z"/></clipPath>
<style type="text/css"><![CDATA[
.g0_8{
fill: #000;
}
]]></style>
</defs>
<image clip-path="url(#c0_8)" preserveAspectRatio="none" x="-2" y="1212" width="930" height="127" xlink:href="img/1.jpg"/>
<path d="M110.6 91.1h36.6v-.9H110.6v.9Z" class="g0_8"/>
<path d="M304.5 91.1h91.7v-.9H304.5v.9Z" class="g0_8"/>
<path d="M726.2 91.1h36.7v-.9H726.2v.9Z" class="g0_8"/>
<path d="M110.6 323.2h36.6v-.9H110.6v.9Z" class="g0_8"/>
<image preserveAspectRatio="none" x="44" y="91" width="56" height="56" xlink:href="img/2.jpg"/>
<image preserveAspectRatio="none" x="44" y="206" width="56" height="56" xlink:href="img/3.jpg"/>
<image preserveAspectRatio="none" x="44" y="322" width="56" height="56" xlink:href="img/4.jpg"/>
<image preserveAspectRatio="none" x="44" y="461" width="56" height="56" xlink:href="img/5.jpg"/>
<image preserveAspectRatio="none" x="44" y="586" width="56" height="56" xlink:href="img/6.jpg"/>
<image preserveAspectRatio="none" x="44" y="710" width="56" height="57" xlink:href="img/7.jpg"/>
<image preserveAspectRatio="none" x="44" y="820" width="56" height="56" xlink:href="img/8.jpg"/>
<image preserveAspectRatio="none" x="44" y="939" width="56" height="57" xlink:href="img/9.jpg"/>
<image preserveAspectRatio="none" x="44" y="1059" width="56" height="57" xlink:href="img/10.jpg"/>
<image preserveAspectRatio="none" x="44" y="1172" width="56" height="56" xlink:href="img/11.jpg"/>
</svg>