<?xml version="1.0" encoding="UTF-8" standalone="no"?>
<!DOCTYPE svg PUBLIC "-//W3C//DTD SVG 1.1//EN"
"http://www.w3.org/Graphics/SVG/1.1/DTD/svg11.dtd">
<svg viewBox="0 0 909 1286" version="1.1" xmlns="http://www.w3.org/2000/svg" xmlns:xlink="http://www.w3.org/1999/xlink">
<defs>
<clipPath id="c0_5"><path d="M-.2 1286.6v-75.1h910v75.1Z"/></clipPath>
<style type="text/css"><![CDATA[
.g0_5{
fill: none;
stroke: #000;
stroke-width: 0.905;
stroke-linecap: square;
stroke-miterlimit: 10;
}
.g1_5{
fill: none;
stroke: #000;
stroke-width: 1.099;
stroke-linecap: square;
stroke-miterlimit: 10;
}
.g2_5{
fill: none;
stroke: #ED7D31;
stroke-width: 1.099;
stroke-linecap: square;
stroke-miterlimit: 10;
}
.g3_5{
fill: none;
stroke: #999;
stroke-width: 1.069;
stroke-linecap: square;
stroke-miterlimit: 10;
}
.g4_5{
fill: #000;
}
.g5_5{
fill: none;
stroke: #000;
stroke-width: 1.069;
stroke-linecap: square;
stroke-miterlimit: 10;
}
.g6_5{
fill: #6C3;
}
.g7_5{
fill: #F90;
}
.g8_5{
fill: #FCF;
}
]]></style>
</defs>
<image clip-path="url(#c0_5)" preserveAspectRatio="none" x="-2" y="1212" width="930" height="127" xlink:href="img/1.jpg"/>
<path d="M723.5 260.3h36.6" class="g0_5"/>
<path d="M454.9 311.3h67.2" class="g1_5"/>
<path d="M255.7 875.2H279m24.4 0h13.8M160.8 915h23.6" class="g2_5"/>
<path d="M447.7 915.2h15.4" class="g1_5"/>
<path d="M606 447l-1.6 -.9l-1.5 -.9l-1.7 -.7l-1.5 -.7l-1.7 -.7l-1.6 -.6l-1.6 -.6l-1.7 -.4l-1.6 -.5l-1.7 -.3l-1.7 -.3l-1.7 -.3l-1.7 -.2l-1.7 -.1l-1.7 -.1h-1.7l-3.6 .1l-1.8 .1l-1.8 .2l-1.8 .3l-1.8 .3L567 441l-1.8 .5l-1.9 .4l-1.9 .6l-1.9 .6l-1.9 .7l-1.9 .7l-1.9 .7l-1.9 .9L550 447m114.1 .5l-1.6 -.9l-1.5 -.8l-1.6 -.8l-1.6 -.7l-1.7 -.7l-1.6 -.5l-1.6 -.6l-1.6 -.5l-1.7 -.4l-1.7 -.4l-1.7 -.3l-1.7 -.2l-1.7 -.2l-1.7 -.2l-1.7 -.1h-1.7l-3.6 .1l-1.8 .2l-1.8 .2l-1.8 .2l-1.8 .3l-3.7 .8l-1.9 .5l-1.8 .6l-1.9 .5l-1.9 .7l-1.9 .7l-1.9 .8l-1.9 .8l-1.9 .9" class="g3_5"/>
<path d="M695.5 454.7l.3 -.3l.3 -.3l.6 -.7l.2 -.3l.2 -.3l.4 -.7l.3 -.6l.2 -.7l.1 -.6v-.6L698 449l-.1 -.6l-.2 -.6l-.2 -.5l-.2 -.3l-.1 -.1v-.1l-.1 -.1l-.3 -.5l-.5 -.6l-.4 -.6l-.6 -.5l-.6 -.5l17.3 5.7l-17.3 5.7Z" class="g4_5"/>
<path d="M527.3 449.6H698.1m-148.5 3.2v-6.4m57.5 6.4v-6.4m57.5 6.4v-6.4" class="g5_5"/>
<path d="M69.4 205.4l-.9 -.1l-.8 -.2l-.7 -.4l-.7 -.6l-.3 -.3l-.2 -.4l-.4 -.6l-.2 -.9l-.1 -.8V188.5l.1 -.9l.2 -.8l.4 -.8l.5 -.6l.7 -.6l.7 -.4l.8 -.2l.9 -.1H81.9l.9 .1l.3 .1l.5 .1l.6 .4l.4 .2l.3 .4l.6 .6l.4 .8l.2 .8l.1 .9v13l-.1 .1v.3l-.2 .9l-.2 .3l-.1 .1l-.1 .2l-.3 .4l-.1 .1L85 204h-.1v.1l-.3 .3l-.4 .3l-.2 .1l-.1 .1l-.3 .2l-.5 .1h-.2l-.1 .1h-.4l-.1 .1h-.4Z" class="g6_5"/>
<path d="M68.9 324h-.8l-.8 -.3l-.8 -.4l-.6 -.5l-.4 -.4l-.2 -.3l-.4 -.7l-.2 -.8V306.2l.2 -.8l.4 -.7l.6 -.7l.6 -.6l.8 -.3l.8 -.3H82.3l.4 .1l.4 .2l.7 .3l.3 .3l.4 .3l.5 .7l.4 .7l.3 .8l.1 .9v12.6l-.1 .4v.5l-.3 .8l-.2 .3l-.1 .2l-.1 .2l-.2 .3l-.2 .2l-.1 .1v.1l-.4 .2l-.3 .3l-.2 .1l-.2 .1l-.3 .2l-.4 .1h-.1l-.1 .1l-.2 .1h-.8Z" class="g6_5"/>
<path d="M67.8 362H67l-.8 -.3l-.8 -.4l-.6 -.5l-.4 -.4l-.2 -.3l-.4 -.7l-.2 -.8l-.1 -.9V345.1l.1 -.9l.2 -.8l.4 -.8l.6 -.6l.6 -.6l.8 -.3l.8 -.3H81.2l.4 .1l.4 .2l.7 .3l.3 .3l.4 .3l.5 .6l.4 .8l.3 .8l.1 .9v12.6l-.1 .4v.5l-.3 .8l-.2 .3l-.1 .2l-.1 .2l-.3 .3l-.1 .2h-.1v.2L83 361l-.3 .3l-.2 .1l-.2 .1l-.3 .2l-.4 .1h-.1l-.1 .1l-.2 .1h-.8Z" class="g7_5"/>
<path d="M76.5 501.6l-.9 -.1l-.7 -.3l-.8 -.4l-.7 -.5l-.3 -.4l-.2 -.3l-.4 -.7l-.2 -.8l-.1 -.9V484.6l.1 -.9l.2 -.7l.4 -.8l.5 -.7l.7 -.5l.8 -.4l.7 -.3H89.9l.4 .1l.4 .2l.6 .4l.4 .2l.3 .3l.6 .7l.4 .8l.2 .7l.1 .9v13l-.1 .1v.4l-.2 .8l-.2 .3l-.1 .2l-.1 .2l-.3 .3l-.1 .2l-.1 .1H92v.1l-.3 .2l-.4 .3l-.2 .1L91 501l-.3 .2l-.4 .2H90l-.1 .1h-.5l-.4 .1Z" class="g6_5"/>
<image preserveAspectRatio="none" x="27" y="559" width="823" height="39" xlink:href="img/2.png"/>
<path d="M379.7 717.2l-.9 -.1l-.8 -.2l-.7 -.4l-.7 -.6l-.3 -.3l-.2 -.3l-.4 -.7l-.3 -.9V699.4l.3 -.8l.4 -.8l.5 -.6l.7 -.6l.7 -.4l.8 -.2l.9 -.1h12.5l.9 .1l.3 .1l.4 .1l.7 .4l.4 .2l.3 .4l.6 .6l.4 .8l.2 .8l.1 .9v13l-.1 .1v.3l-.2 .9l-.2 .3l-.1 .1l-.1 .3l-.3 .3l-.2 .1v.1h-.1v.1l-.3 .3l-.4 .3l-.2 .1l-.1 .1l-.4 .2l-.4 .1h-.1l-.1 .1h-.5l-.1 .1h-.4Z" class="g6_5"/>
<path d="M379.5 757.4l-.8 -.1l-.8 -.2l-.8 -.4l-.6 -.6l-.4 -.3l-.2 -.4l-.4 -.7l-.2 -.8V739.6l.2 -.8l.4 -.8l.6 -.6l.6 -.6l.8 -.4l.8 -.2l.8 -.1h12.6l.8 .1l.4 .1l.4 .1l.7 .4l.3 .2l.4 .4l.5 .6l.4 .8l.3 .8l.1 .9v12.6l-.1 .4v.4l-.3 .8l-.2 .4l-.1 .1l-.1 .2l-.2 .4l-.2 .1l-.1 .1v.1l-.4 .3l-.3 .3h-.2l-.2 .2l-.3 .2l-.4 .1h-.2l-.2 .1h-.3l-.1 .1h-.4Z" class="g6_5"/>
<path d="M379.4 797l-.9 -.1l-.8 -.3l-.7 -.4l-.7 -.5l-.3 -.4l-.3 -.3l-.3 -.7l-.3 -.8V779.1l.3 -.7l.3 -.8l.6 -.7l.7 -.5l.7 -.4l.8 -.3h14.3l.3 .1l.4 .2l.7 .4l.4 .2l.3 .3l.6 .7l.4 .8l.2 .7l.1 .9v13l-.1 .1v.4l-.2 .8l-.2 .3l-.1 .2l-.1 .2l-.3 .3l-.2 .2v.1h-.1v.1l-.3 .2l-.4 .3l-.2 .1l-.1 .1l-.4 .2l-.4 .2h-.2l-.1 .1h-.5l-.4 .1Z" class="g6_5"/>
<path d="M379.4 836.7l-.9 -.1l-.8 -.2L377 836l-.7 -.6l-.3 -.3l-.3 -.4l-.3 -.7l-.3 -.8V818.9l.3 -.8l.3 -.8l.6 -.7l.7 -.5l.7 -.4l.8 -.2l.9 -.1h12.5l.9 .1h.3l.4 .2l.7 .4l.4 .2l.3 .3l.6 .7l.4 .8l.2 .8l.1 .9v13h-.1v.4l-.2 .8l-.2 .4l-.1 .1l-.1 .2l-.3 .4l-.2 .1v.1h-.1v.1l-.3 .3l-.4 .3H394l-.1 .2l-.4 .2l-.4 .1h-.2l-.1 .1h-.5l-.4 .1Z" class="g6_5"/>
<path d="M379.2 877l-.9 -.1l-.8 -.2l-.8 -.4l-.6 -.5l-.3 -.4l-.3 -.3l-.3 -.7l-.3 -.9V859.2l.3 -.8l.3 -.8l.6 -.6l.6 -.6l.8 -.4l.8 -.2h14.2l.4 .1l.4 .1l.7 .4l.3 .3l.4 .3l.6 .6l.4 .8l.2 .8l.1 .9v12.6l-.1 .4v.4l-.2 .9l-.2 .3l-.2 .2v.2l-.3 .3l-.2 .1l-.1 .1v.2l-.4 .2l-.3 .3l-.2 .1l-.2 .1l-.3 .2l-.4 .1h-.1l-.1 .1h-.5l-.1 .1h-.4Z" class="g6_5"/>
<path d="M379.2 923.9l-.9 -.1l-.8 -.2l-.8 -.4l-.6 -.5l-.3 -.4l-.3 -.3l-.3 -.7l-.3 -.9V906.1l.3 -.8l.3 -.8l.6 -.6l.6 -.6l.8 -.4l.8 -.2h14.2l.4 .1l.4 .1l.7 .4l.3 .3l.4 .3l.6 .6l.4 .8l.2 .8l.1 .9v12.6l-.1 .4v.4l-.2 .9l-.2 .3l-.2 .2v.2l-.3 .3l-.2 .2h-.1v.2l-.4 .2l-.3 .3l-.2 .1l-.2 .1l-.3 .2l-.4 .1h-.1l-.1 .1h-.5l-.1 .1h-.4Z" class="g6_5"/>
<path d="M379.2 967.2l-.9 -.1l-.7 -.3l-.8 -.4l-.6 -.5l-.4 -.4l-.2 -.3l-.4 -.7l-.2 -.8l-.1 -.9V950.2l.1 -.9l.2 -.7l.4 -.8l.6 -.7l.6 -.6l.8 -.3l.7 -.3h14.3l.4 .1l.4 .2l.7 .3l.3 .3l.4 .3l.5 .7l.4 .8l.3 .7l.1 .9v12.6l-.1 .4v.5l-.3 .8l-.2 .3l-.1 .2l-.1 .2l-.3 .3l-.1 .2l-.1 .1v.1l-.4 .2l-.3 .3l-.2 .1l-.2 .1l-.3 .2l-.4 .2h-.2l-.2 .1h-.4l-.4 .1Z" class="g6_5"/>
<path d="M76.1 1022.4l-.8 -.1l-.7 -.3l-.7 -.4l-.6 -.5l-.3 -.4l-.2 -.3l-.3 -.8l-.2 -.8v-14.2l.2 -.8l.3 -.8l.5 -.7l.6 -.5l.7 -.4l.7 -.3l.8 -.1h31.5l.7 .1l.4 .1l.3 .2l.3 .1l.3 .3l.3 .2l.4 .3l.4 .7l.4 .8l.2 .8l.2 1v12.3l-.1 .4l-.1 .1v.4l-.1 .4l-.1 .2v.2l-.1 .2l-.1 .2l-.2 .4l-.2 .3l-.2 .2v.2l-.4 .2l-.1 .2l-.2 .1l-.3 .2l-.1 .1l-.1 .1h-.2l-.1 .1l-.1 .1l-.4 .1l-.7 .1Z" class="g8_5"/>
<path d="M94.5 1048.1l-.9 -.1l-.7 -.3l-.8 -.4l-.6 -.5l-.4 -.4l-.2 -.3l-.4 -.7l-.2 -.8l-.1 -.9v-12.6l.1 -.9l.2 -.8l.4 -.7l.6 -.7l.6 -.6l.8 -.3l.7 -.3h14.3l.4 .1l.4 .2l.7 .3l.3 .3l.4 .3l.5 .7l.4 .7l.3 .8l.1 .9v12.6l-.1 .4v.5l-.3 .8l-.2 .3l-.1 .2l-.1 .2l-.3 .3l-.1 .2l-.1 .1v.1l-.4 .2l-.3 .3l-.2 .1l-.2 .1l-.3 .2l-.4 .2h-.2l-.2 .1h-.4l-.4 .1Z" class="g6_5"/>
<path d="M77.1 1077.5l-.8 -.1l-.7 -.2l-.6 -.4l-.6 -.5l-.3 -.4l-.2 -.3l-.3 -.8l-.2 -.9v-14.1l.2 -.9l.3 -.8l.5 -.6l.6 -.6l.6 -.4l.7 -.2l.8 -.1h31.6l.7 .1h.3l.4 .2l.3 .2l.3 .2l.3 .3l.3 .3l.5 .6l.4 .8l.2 .9l.1 .9v12.4l-.1 .4v.4l-.1 .4l-.1 .2v.3l-.2 .1v.3l-.2 .4l-.3 .3l-.1 .2l-.1 .2l-.3 .2l-.2 .1l-.1 .2l-.3 .2l-.2 .1h-.1v.1h-.2l-.2 .1l-.3 .1l-.7 .1Z" class="g8_5"/>
<path d="M95.3 1103.8l-.8 -.1l-.8 -.3l-.8 -.4l-.6 -.5l-.4 -.4l-.2 -.3l-.4 -.7l-.2 -.8l-.1 -.9v-12.6l.1 -.9l.2 -.7l.4 -.8l.6 -.7l.6 -.5l.8 -.4l.8 -.3h14.2l.4 .1l.4 .2l.7 .4l.3 .2l.4 .3l.5 .7l.4 .8l.3 .7l.1 .9v12.6l-.1 .4v.5l-.3 .8l-.2 .3l-.1 .2l-.1 .2l-.3 .3l-.1 .2l-.1 .1v.1l-.4 .2l-.3 .3l-.2 .1l-.2 .1l-.3 .2l-.4 .2h-.2l-.2 .1h-.4l-.4 .1Z" class="g7_5"/>
<path d="M95.5 1132.4l-.9 -.1l-.8 -.2l-.7 -.4l-.7 -.6l-.3 -.3l-.3 -.3l-.3 -.7l-.3 -.9v-14.3l.3 -.8l.3 -.8l.6 -.6l.7 -.6l.7 -.4l.8 -.2l.9 -.1H108l.9 .1l.3 .1l.4 .1l.7 .4l.4 .2l.3 .4l.6 .6l.4 .8l.2 .8l.1 .9v13l-.1 .1v.3l-.2 .9l-.2 .3l-.1 .1l-.1 .3l-.3 .3l-.2 .1v.1H111v.1l-.3 .3l-.4 .3l-.2 .1l-.1 .1l-.4 .2l-.4 .1h-.1l-.1 .1h-.5l-.1 .1H108Z" class="g7_5"/>
</svg>