<?xml version="1.0" encoding="UTF-8" standalone="no"?>
<!DOCTYPE svg PUBLIC "-//W3C//DTD SVG 1.1//EN"
"http://www.w3.org/Graphics/SVG/1.1/DTD/svg11.dtd">
<svg viewBox="0 0 909 1286" version="1.1" xmlns="http://www.w3.org/2000/svg" xmlns:xlink="http://www.w3.org/1999/xlink">
<defs>
<clipPath id="c0_7"><path d="M-.2 1286.6v-74.9h910v74.9Z"/></clipPath>
<clipPath id="c1_7"><path d="M687.4 563.6V458H821.3V563.6Z"/></clipPath>
<clipPath id="c2_7"><path d="M703.9 1110v-92.1H815.4V1110Z"/></clipPath>
<clipPath id="c3_7"><path d="M732 1225.7v-92.3h83.4v92.3Z"/></clipPath>
<style type="text/css"><![CDATA[
.g0_7{
fill: none;
stroke: #000;
stroke-width: 0.763;
stroke-linecap: square;
stroke-miterlimit: 10;
}
.g1_7{
fill: none;
stroke: #000;
stroke-width: 0.765;
stroke-linecap: square;
stroke-miterlimit: 10;
}
.g2_7{
fill: none;
stroke: #000;
stroke-width: 0.761;
stroke-linecap: square;
stroke-miterlimit: 10;
}
.g3_7{
fill: none;
stroke: #000;
stroke-width: 1.527;
stroke-linecap: square;
stroke-miterlimit: 10;
}
.g4_7{
fill: #000;
}
.g5_7{
fill: none;
stroke: #000;
stroke-width: 1.531;
stroke-linecap: square;
stroke-miterlimit: 10;
}
.g6_7{
fill: none;
stroke: #000;
stroke-width: 0.764;
stroke-linecap: square;
stroke-miterlimit: 10;
}
.g7_7{
fill: none;
stroke: #000;
stroke-width: 1.529;
stroke-linecap: square;
stroke-miterlimit: 10;
}
.g8_7{
fill: none;
stroke: #000;
stroke-width: 1.523;
stroke-linecap: square;
stroke-miterlimit: 10;
}
.g9_7{
fill: none;
stroke: #000;
stroke-width: 0.762;
stroke-linecap: square;
stroke-miterlimit: 10;
}
.ga_7{
fill: none;
stroke: #000;
stroke-width: 1.524;
stroke-linecap: square;
stroke-miterlimit: 10;
}
]]></style>
</defs>
<image clip-path="url(#c0_7)" preserveAspectRatio="none" x="-4" y="1212" width="952" height="131" xlink:href="img/1.jpg"/>
<path d="M302.1 74.1h25.2" class="g0_7"/>
<path d="M344.3 74.1h23.3" class="g1_7"/>
<path d="M445.7 74.1h23.2" class="g0_7"/>
<path d="M531.3 74.1h23.5m25.5 0h23.2M128.9 100.3h23.7" class="g1_7"/>
<path d="M223.7 99.8h22.5" class="g2_7"/>
<path d="M298.5 100.3h23.8" class="g1_7"/>
<path d="M357 111.9l2.3 -1.4" class="g0_7"/>
<path d="M359.3 110.9l3.4 5.7" class="g3_7"/>
<path d="M363.1 116.6l4.5 -17.1m0 0h9.8m43.4 .8h25.1m-182.8 38l2.3 -1.4" class="g0_7"/>
<path d="M265.4 137.3l3.4 5.5" class="g3_7"/>
<path d="M269.2 142.8l4.5 -16.7m0 0h11m64.9 12.2l2.4 -1.4" class="g0_7"/>
<path d="M352 137.3l3.4 5.7" class="g3_7"/>
<path d="M355.8 143l4.4 -17.1m0 0h9.9" class="g0_7"/>
<path d="M147.2 217.3h36.7v-1H147.2v1Z" class="g4_7"/>
<path d="M202.2 217.3h36.7v-1H202.2v1Z" class="g4_7"/>
<path d="M422.2 217.3h36.7v-1H422.2v1Z" class="g4_7"/>
<path d="M108.2 241.1h73.3v-.9H108.2v.9Z" class="g4_7"/>
<path d="M218.2 241.1h36.6v-.9H218.2v.9Z" class="g4_7"/>
<path d="M474.8 241.1h73.4v-.9H474.8v.9Z" class="g4_7"/>
<path d="M258.1 339.3h73.4v-.9H258.1v.9Z" class="g4_7"/>
<path d="M258.1 341.2h73.4v-.9H258.1v.9Z" class="g4_7"/>
<path d="M353.5 468.1h24.9" class="g0_7"/>
<path d="M477.2 468.4h23.3" class="g1_7"/>
<path d="M526.2 468.2h24.9" class="g0_7"/>
<path d="M604.1 468.2h24.1M128.9 496h23.3" class="g1_7"/>
<path d="M177.8 496h22.3" class="g2_7"/>
<path d="M225.1 495.9h22.4" class="g0_7"/>
<path d="M297.4 604.9l2.3 -1.4" class="g1_7"/>
<path d="M299.7 603.9l3.4 6.2" class="g5_7"/>
<path d="M303.5 610.1L308 591.6m0 0h17.9" class="g1_7"/>
<path d="M350.9 604.9l2.4 -1.4" class="g0_7"/>
<path d="M353.3 603.9l3.4 6.2" class="g3_7"/>
<path d="M357.1 610.1l4.4 -18.5m0 0h9.9" class="g0_7"/>
<path d="M388.5 605.2l2.4 -1.3" class="g6_7"/>
<path d="M390.9 604.2l3.4 6.5" class="g7_7"/>
<path d="M394.7 610.7l4.4 -19.1m0 0h40.3" class="g6_7"/>
<path d="M193.4 632.7l2.4 -1.3" class="g1_7"/>
<path d="M195.8 631.8l3.4 6.2" class="g5_7"/>
<path d="M199.6 638l4.5 -18.5m0 0H222" class="g1_7"/>
<path d="M247 632.7l2.3 -1.3" class="g0_7"/>
<path d="M249.3 631.8l3.4 6.2" class="g3_7"/>
<path d="M253.1 638l4.5 -18.5m0 0H268m52.3 13.2l2.4 -1.3" class="g0_7"/>
<path d="M322.7 631.8L326 638" class="g3_7"/>
<path d="M326.4 638l4.5 -18.5m0 0h9.8" class="g0_7"/>
<path d="M366.1 632.6l2.4 -1.3" class="g2_7"/>
<path d="M368.5 631.6l3.4 6.2" class="g8_7"/>
<path d="M372.2 637.8l4.5 -18.3m0 0h11" class="g2_7"/>
<path d="M463.9 632.7l2.3 -1.3" class="g1_7"/>
<path d="M466.2 631.8l3.4 6.2" class="g5_7"/>
<path d="M470 638l4.5 -18.5m0 0h17.9" class="g1_7"/>
<path d="M517.4 632.7l2.3 -1.3" class="g0_7"/>
<path d="M519.7 631.8l3.4 6.2" class="g3_7"/>
<path d="M523.5 638L528 619.5m0 0h9.8" class="g0_7"/>
<path d="M175.1 660.7l2.3 -1.3" class="g6_7"/>
<path d="M177.4 659.8l3.4 6.4" class="g7_7"/>
<path d="M181.2 666.2l4.5 -19.1m0 0H226" class="g6_7"/>
<path d="M251.6 660.4l2.3 -1.3" class="g0_7"/>
<path d="M253.9 659.4l3.4 6.2" class="g3_7"/>
<path d="M257.7 665.6l4.5 -18.5m0 0h19.5" class="g0_7"/>
<path d="M306.6 660.4l2.3 -1.3" class="g9_7"/>
<path d="M308.9 659.4l3.4 6.2" class="ga_7"/>
<path d="M312.7 665.6l4.4 -18.5m0 0H337" class="g9_7"/>
<path d="M413.4 660.4l2.4 -1.3" class="g1_7"/>
<path d="M415.8 659.4l3.4 6.2" class="g5_7"/>
<path d="M419.6 665.6l4.5 -18.5m0 0H442" class="g1_7"/>
<path d="M467 660.4l2.3 -1.3" class="g0_7"/>
<path d="M469.3 659.4l3.4 6.2" class="g3_7"/>
<path d="M473.1 665.6l4.5 -18.5m0 0h9.8" class="g0_7"/>
<path d="M540.3 660.7l2.4 -1.3" class="g6_7"/>
<path d="M542.7 659.8l3.4 6.4" class="g7_7"/>
<path d="M546.4 666.2l4.5 -19.1m0 0h40.3" class="g6_7"/>
<path d="M616.8 660.4l2.3 -1.3" class="g1_7"/>
<path d="M619.1 659.4l3.4 6.2" class="g5_7"/>
<path d="M622.9 665.6l4.5 -18.5m0 0h17.9" class="g1_7"/>
<path d="M670.3 660.4l2.4 -1.3" class="g0_7"/>
<path d="M672.7 659.4l3.4 6.2" class="g3_7"/>
<path d="M676.4 665.6l4.5 -18.5m0 0h9.9" class="g0_7"/>
<path d="M707.9 660.7l2.4 -1.3" class="g6_7"/>
<path d="M710.3 659.8l3.4 6.4" class="g7_7"/>
<path d="M714 666.2l4.5 -19.1m0 0h40.3" class="g6_7"/>
<path d="M431.8 688.3l2.3 -1.4" class="g1_7"/>
<path d="M434.1 687.3l3.4 6.2" class="g5_7"/>
<path d="M437.9 693.5L442.4 675m0 0h17.9" class="g1_7"/>
<path d="M485.3 688.3l2.4 -1.4" class="g0_7"/>
<path d="M487.7 687.3l3.3 6.2" class="g3_7"/>
<path d="M491.4 693.5L495.9 675m0 0h9.8" class="g0_7"/>
<path d="M285.1 715.9l2.4 -1.3" class="g1_7"/>
<path d="M287.5 715l3.3 6.2" class="g5_7"/>
<path d="M291.2 721.2l4.5 -18.5m0 0h17.9" class="g1_7"/>
<path d="M369.3 715.9l2.3 -1.3" class="g0_7"/>
<path d="M371.6 715l3.4 6.2" class="g3_7"/>
<path d="M375.4 721.2l4.5 -18.5m0 0h9.8" class="g0_7"/>
<path d="M580.1 716.3l2.4 -1.4" class="g6_7"/>
<path d="M582.5 715.3l3.4 6.5" class="g7_7"/>
<path d="M586.2 721.8l4.5 -19.1m0 0H631M193.4 744.1l2.4 -1.3" class="g6_7"/>
<path d="M195.8 743.2l3.4 6.4" class="g7_7"/>
<path d="M199.6 749.6L204 730.5m0 0h40.3" class="g6_7"/>
<path d="M262.4 743.8l2.4 -1.3" class="g1_7"/>
<path d="M264.8 742.9l3.4 6.2" class="g5_7"/>
<path d="M268.5 749.1L273 730.5m0 0h17.9" class="g1_7"/>
<path d="M308.2 743.8l2.4 -1.3" class="g0_7"/>
<path d="M310.6 742.9l3.4 6.2" class="g3_7"/>
<path d="M314.4 749.1l4.4 -18.6m0 0h9.9" class="g0_7"/>
<path d="M537.4 743.8l2.4 -1.3" class="g1_7"/>
<path d="M539.8 742.9l3.4 6.2" class="g5_7"/>
<path d="M543.5 749.1L548 730.5m0 0h17.9" class="g1_7"/>
<path d="M591 743.8l2.3 -1.3" class="g0_7"/>
<path d="M593.3 742.9l3.4 6.2" class="g3_7"/>
<path d="M597.1 749.1l4.5 -18.6m0 0h9.8m25.4 13.6l2.3 -1.3" class="g0_7"/>
<path d="M639.1 743.2l3.4 6.4" class="g3_7"/>
<path d="M642.9 749.6l4.5 -19.1m0 0h40.2" class="g0_7"/>
<path d="M713.2 743.8l2.3 -1.3" class="g1_7"/>
<path d="M715.5 742.9l3.4 6.2" class="g5_7"/>
<path d="M719.3 749.1l4.5 -18.6m0 0h17.9" class="g1_7"/>
<path d="M766.6 743.8l2.3 -1.3" class="g0_7"/>
<path d="M768.9 742.9l3.4 6.2" class="g3_7"/>
<path d="M772.7 749.1l4.5 -18.6m0 0H787" class="g0_7"/>
<path d="M803.9 744.1l2.4 -1.3" class="g6_7"/>
<path d="M806.3 743.2l3.4 6.4" class="g7_7"/>
<path d="M810.1 749.6l4.4 -19.1m0 0h40.3" class="g6_7"/>
<path d="M168.7 1023.9H192m25.7 -.2h24.1" class="g1_7"/>
<path d="M266.6 1023.9h25.2" class="g0_7"/>
<path d="M317 1023.7h24.4" class="g1_7"/>
<path d="M384.3 1023.9h23.2" class="g0_7"/>
<path d="M460.7 1023.7h24.1m52.4 0h24.4" class="g1_7"/>
<path d="M613.6 1023.9h25.3" class="g0_7"/>
<path d="M476.5 1143.8h24.2" class="g1_7"/>
<path d="M525.5 1143.8h24.3m52.1 .1h25.2" class="g0_7"/>
<path d="M679.8 1143.9h23.3m-534.9 51.4h23.2m109.7 0h23.2m109.8 0h23.3m110.8 0h23.3" class="g1_7"/>
<image preserveAspectRatio="none" x="44" y="91" width="56" height="57" xlink:href="img/2.jpg"/>
<image preserveAspectRatio="none" x="686" y="81" width="139" height="58" xlink:href="img/3.jpg"/>
<image preserveAspectRatio="none" x="44" y="215" width="56" height="56" xlink:href="img/4.jpg"/>
<image preserveAspectRatio="none" x="754" y="313" width="105" height="124" xlink:href="img/5.jpg"/>
<image preserveAspectRatio="none" x="649" y="310" width="100" height="125" xlink:href="img/6.jpg"/>
<image preserveAspectRatio="none" x="44" y="337" width="56" height="57" xlink:href="img/7.jpg"/>
<image preserveAspectRatio="none" x="44" y="487" width="56" height="56" xlink:href="img/8.jpg"/>
<image clip-path="url(#c1_7)" preserveAspectRatio="none" x="688" y="458" width="133" height="105" xlink:href="img/9.jpg"/>
<image preserveAspectRatio="none" x="44" y="610" width="56" height="56" xlink:href="img/10.jpg"/>
<image preserveAspectRatio="none" x="673" y="858" width="159" height="110" xlink:href="img/11.jpg"/>
<image preserveAspectRatio="none" x="44" y="871" width="56" height="56" xlink:href="img/12.jpg"/>
<image clip-path="url(#c2_7)" preserveAspectRatio="none" x="704" y="1018" width="111" height="92" xlink:href="img/13.jpg"/>
<image preserveAspectRatio="none" x="44" y="1044" width="56" height="56" xlink:href="img/14.jpg"/>
<image preserveAspectRatio="none" x="44" y="1162" width="56" height="57" xlink:href="img/15.jpg"/>
<image clip-path="url(#c3_7)" preserveAspectRatio="none" x="732" y="1134" width="83" height="91" xlink:href="img/16.jpg"/>
</svg>