<?xml version="1.0" encoding="UTF-8" standalone="no"?>
<!DOCTYPE svg PUBLIC "-//W3C//DTD SVG 1.1//EN"
"http://www.w3.org/Graphics/SVG/1.1/DTD/svg11.dtd">
<svg viewBox="0 0 909 1286" version="1.1" xmlns="http://www.w3.org/2000/svg" xmlns:xlink="http://www.w3.org/1999/xlink">
<defs>
<clipPath id="c0_5"><path d="M-.2 1286.6v-74.9h910v74.9Z"/></clipPath>
<style type="text/css"><![CDATA[
.g0_5{
fill: #000;
}
]]></style>
</defs>
<image clip-path="url(#c0_5)" preserveAspectRatio="none" x="-4" y="1212" width="952" height="131" xlink:href="img/1.jpg"/>
<image preserveAspectRatio="none" x="116" y="115" width="165" height="91" xlink:href="img/2.jpg"/>
<image preserveAspectRatio="none" x="281" y="115" width="165" height="91" xlink:href="img/3.jpg"/>
<image preserveAspectRatio="none" x="446" y="115" width="167" height="91" xlink:href="img/4.jpg"/>
<image preserveAspectRatio="none" x="613" y="115" width="166" height="91" xlink:href="img/5.jpg"/>
<path d="M111.5 278.3h36.6v-.9H111.5v.9Z" class="g0_5"/>
<path d="M401.3 302.1H438v-.9H401.3v.9Z" class="g0_5"/>
<path d="M151.4 427.2h.8v-.8h-.8v.8Z" class="g0_5"/>
<path d="M151.4 427.2h.8v-.8h-.8v.8Z" class="g0_5"/>
<path d="M152.2 427.2H281.6v-.8H152.2v.8Z" class="g0_5"/>
<path d="M281.6 427.2h.7v-.8h-.7v.8Z" class="g0_5"/>
<path d="M282.3 427.2h64v-.8h-64v.8Z" class="g0_5"/>
<path d="M346.3 427.2h.7v-.8h-.7v.8Z" class="g0_5"/>
<path d="M347.1 427.2h64.1v-.8H347.1v.8Z" class="g0_5"/>
<path d="M411.2 427.2h.8v-.8h-.8v.8Z" class="g0_5"/>
<path d="M412 427.2h64.1v-.8H412v.8Z" class="g0_5"/>
<path d="M476.1 427.2h.8v-.8h-.8v.8Z" class="g0_5"/>
<path d="M476.8 427.2h64v-.8h-64v.8Z" class="g0_5"/>
<path d="M540.8 427.2h.8v-.8h-.8v.8Z" class="g0_5"/>
<path d="M541.6 427.2h64.1v-.8H541.6v.8Z" class="g0_5"/>
<path d="M605.7 427.2h.8v-.8h-.8v.8Z" class="g0_5"/>
<path d="M606.5 427.2h64v-.8h-64v.8Z" class="g0_5"/>
<path d="M670.5 427.2h.7v-.8h-.7v.8Z" class="g0_5"/>
<path d="M671.2 427.2h64.2v-.8H671.2v.8Z" class="g0_5"/>
<path d="M735.4 427.2h.7v-.8h-.7v.8Z" class="g0_5"/>
<path d="M735.4 427.2h.7v-.8h-.7v.8Z" class="g0_5"/>
<path d="M151.4 449.3h.8V427.2h-.8v22.1Z" class="g0_5"/>
<path d="M281.6 449.3h.7V427.2h-.7v22.1Z" class="g0_5"/>
<path d="M346.3 449.3h.7V427.2h-.7v22.1Z" class="g0_5"/>
<path d="M411.2 449.3h.8V427.2h-.8v22.1Z" class="g0_5"/>
<path d="M476.1 449.3h.8V427.2h-.8v22.1Z" class="g0_5"/>
<path d="M540.8 449.3h.8V427.2h-.8v22.1Z" class="g0_5"/>
<path d="M605.7 449.3h.8V427.2h-.8v22.1Z" class="g0_5"/>
<path d="M670.5 449.3h.7V427.2h-.7v22.1Z" class="g0_5"/>
<path d="M735.4 449.3h.7V427.2h-.7v22.1Z" class="g0_5"/>
<path d="M151.4 450.1h.8v-.8h-.8v.8Z" class="g0_5"/>
<path d="M152.2 450.1H281.6v-.8H152.2v.8Z" class="g0_5"/>
<path d="M281.6 450.1h.7v-.8h-.7v.8Z" class="g0_5"/>
<path d="M282.3 450.1h64v-.8h-64v.8Z" class="g0_5"/>
<path d="M346.3 450.1h.7v-.8h-.7v.8Z" class="g0_5"/>
<path d="M347.1 450.1h64.1v-.8H347.1v.8Z" class="g0_5"/>
<path d="M411.2 450.1h.8v-.8h-.8v.8Z" class="g0_5"/>
<path d="M412 450.1h64.1v-.8H412v.8Z" class="g0_5"/>
<path d="M476.1 450.1h.8v-.8h-.8v.8Z" class="g0_5"/>
<path d="M476.8 450.1h64v-.8h-64v.8Z" class="g0_5"/>
<path d="M540.8 450.1h.8v-.8h-.8v.8Z" class="g0_5"/>
<path d="M541.6 450.1h64.1v-.8H541.6v.8Z" class="g0_5"/>
<path d="M605.7 450.1h.8v-.8h-.8v.8Z" class="g0_5"/>
<path d="M606.5 450.1h64v-.8h-64v.8Z" class="g0_5"/>
<path d="M670.5 450.1h.7v-.8h-.7v.8Z" class="g0_5"/>
<path d="M671.2 450.1h64.2v-.8H671.2v.8Z" class="g0_5"/>
<path d="M735.4 450.1h.7v-.8h-.7v.8Z" class="g0_5"/>
<path d="M151.4 472.1h.8v-22h-.8v22Z" class="g0_5"/>
<path d="M151.4 472.8h.8v-.7h-.8v.7Z" class="g0_5"/>
<path d="M151.4 472.8h.8v-.7h-.8v.7Z" class="g0_5"/>
<path d="M152.2 472.8H281.6v-.7H152.2v.7Z" class="g0_5"/>
<path d="M281.6 472.1h.7v-22h-.7v22Z" class="g0_5"/>
<path d="M281.6 472.8h.7v-.7h-.7v.7Z" class="g0_5"/>
<path d="M282.3 472.8h64v-.7h-64v.7Z" class="g0_5"/>
<path d="M346.3 472.1h.7v-22h-.7v22Z" class="g0_5"/>
<path d="M346.3 472.8h.7v-.7h-.7v.7Z" class="g0_5"/>
<path d="M347.1 472.8h64.1v-.7H347.1v.7Z" class="g0_5"/>
<path d="M411.2 472.1h.8v-22h-.8v22Z" class="g0_5"/>
<path d="M411.2 472.8h.8v-.7h-.8v.7Z" class="g0_5"/>
<path d="M412 472.8h64.1v-.7H412v.7Z" class="g0_5"/>
<path d="M476.1 472.1h.8v-22h-.8v22Z" class="g0_5"/>
<path d="M476.1 472.8h.8v-.7h-.8v.7Z" class="g0_5"/>
<path d="M476.8 472.8h64v-.7h-64v.7Z" class="g0_5"/>
<path d="M540.8 472.1h.8v-22h-.8v22Z" class="g0_5"/>
<path d="M540.8 472.8h.8v-.7h-.8v.7Z" class="g0_5"/>
<path d="M541.6 472.8h64.1v-.7H541.6v.7Z" class="g0_5"/>
<path d="M605.7 472.1h.8v-22h-.8v22Z" class="g0_5"/>
<path d="M605.7 472.8h.8v-.7h-.8v.7Z" class="g0_5"/>
<path d="M606.5 472.8h64v-.7h-64v.7Z" class="g0_5"/>
<path d="M670.5 472.1h.7v-22h-.7v22Z" class="g0_5"/>
<path d="M670.5 472.8h.7v-.7h-.7v.7Z" class="g0_5"/>
<path d="M671.2 472.8h64.2v-.7H671.2v.7Z" class="g0_5"/>
<path d="M735.4 472.1h.7v-22h-.7v22Z" class="g0_5"/>
<path d="M735.4 472.8h.7v-.7h-.7v.7Z" class="g0_5"/>
<path d="M735.4 472.8h.7v-.7h-.7v.7Z" class="g0_5"/>
<path d="M247.1 613.8h39.8v-.9H247.1v.9Z" class="g0_5"/>
<path d="M247.1 615.6h39.8v-.9H247.1v.9Z" class="g0_5"/>
<path d="M153.1 715h.7v-.7h-.7v.7Z" class="g0_5"/>
<path d="M153.1 715h.7v-.7h-.7v.7Z" class="g0_5"/>
<path d="M153.8 715h45.3v-.7H153.8v.7Z" class="g0_5"/>
<path d="M199.1 715h.7v-.7h-.7v.7Z" class="g0_5"/>
<path d="M199.8 715h498v-.7h-498v.7Z" class="g0_5"/>
<path d="M697.8 715h.7v-.7h-.7v.7Z" class="g0_5"/>
<path d="M697.8 715h.7v-.7h-.7v.7Z" class="g0_5"/>
<path d="M153.1 737h.7V715h-.7v22Z" class="g0_5"/>
<path d="M199.1 737h.7V715h-.7v22Z" class="g0_5"/>
<path d="M697.8 737h.7V715h-.7v22Z" class="g0_5"/>
<path d="M153.1 737.7h.7V737h-.7v.7Z" class="g0_5"/>
<path d="M153.8 737.7h45.3V737H153.8v.7Z" class="g0_5"/>
<path d="M199.1 737.7h.7V737h-.7v.7Z" class="g0_5"/>
<path d="M199.8 737.7h498V737h-498v.7Z" class="g0_5"/>
<path d="M697.8 737.7h.7V737h-.7v.7Z" class="g0_5"/>
<path d="M153.1 759.9h.7V737.7h-.7v22.2Z" class="g0_5"/>
<path d="M199.1 759.9h.7V737.7h-.7v22.2Z" class="g0_5"/>
<path d="M697.8 759.9h.7V737.7h-.7v22.2Z" class="g0_5"/>
<path d="M153.1 760.6h.7v-.7h-.7v.7Z" class="g0_5"/>
<path d="M153.8 760.6h45.3v-.7H153.8v.7Z" class="g0_5"/>
<path d="M199.1 760.6h.7v-.7h-.7v.7Z" class="g0_5"/>
<path d="M199.8 760.6h498v-.7h-498v.7Z" class="g0_5"/>
<path d="M697.8 760.6h.7v-.7h-.7v.7Z" class="g0_5"/>
<path d="M153.1 782.6h.7v-22h-.7v22Z" class="g0_5"/>
<path d="M199.1 782.6h.7v-22h-.7v22Z" class="g0_5"/>
<path d="M697.8 782.6h.7v-22h-.7v22Z" class="g0_5"/>
<path d="M153.1 783.4h.7v-.8h-.7v.8Z" class="g0_5"/>
<path d="M153.8 783.4h45.3v-.8H153.8v.8Z" class="g0_5"/>
<path d="M199.1 783.4h.7v-.8h-.7v.8Z" class="g0_5"/>
<path d="M199.8 783.4h498v-.8h-498v.8Z" class="g0_5"/>
<path d="M697.8 783.4h.7v-.8h-.7v.8Z" class="g0_5"/>
<path d="M153.1 805.4h.7v-22h-.7v22Z" class="g0_5"/>
<path d="M153.1 806.1h.7v-.7h-.7v.7Z" class="g0_5"/>
<path d="M153.1 806.1h.7v-.7h-.7v.7Z" class="g0_5"/>
<path d="M153.8 806.1h45.3v-.7H153.8v.7Z" class="g0_5"/>
<path d="M199.1 805.4h.7v-22h-.7v22Z" class="g0_5"/>
<path d="M199.1 806.1h.7v-.7h-.7v.7Z" class="g0_5"/>
<path d="M199.8 806.1h498v-.7h-498v.7Z" class="g0_5"/>
<path d="M697.8 805.4h.7v-22h-.7v22Z" class="g0_5"/>
<path d="M697.8 806.1h.7v-.7h-.7v.7Z" class="g0_5"/>
<path d="M697.8 806.1h.7v-.7h-.7v.7Z" class="g0_5"/>
<image preserveAspectRatio="none" x="43" y="90" width="57" height="56" xlink:href="img/6.jpg"/>
<image preserveAspectRatio="none" x="43" y="277" width="57" height="56" xlink:href="img/7.jpg"/>
<image preserveAspectRatio="none" x="43" y="400" width="57" height="56" xlink:href="img/8.jpg"/>
<image preserveAspectRatio="none" x="43" y="566" width="57" height="56" xlink:href="img/9.jpg"/>
<image preserveAspectRatio="none" x="43" y="711" width="57" height="57" xlink:href="img/10.jpg"/>
<image preserveAspectRatio="none" x="43" y="899" width="57" height="56" xlink:href="img/11.jpg"/>
<image preserveAspectRatio="none" x="549" y="882" width="146" height="143" xlink:href="img/12.jpg"/>
<image preserveAspectRatio="none" x="698" y="882" width="149" height="143" xlink:href="img/13.jpg"/>
</svg>