<?xml version="1.0" encoding="UTF-8" standalone="no"?>
<!DOCTYPE svg PUBLIC "-//W3C//DTD SVG 1.1//EN"
"http://www.w3.org/Graphics/SVG/1.1/DTD/svg11.dtd">
<svg viewBox="0 0 909 1286" version="1.1" xmlns="http://www.w3.org/2000/svg" xmlns:xlink="http://www.w3.org/1999/xlink">
<defs>
<clipPath id="c0_20"><path d="M-.2 1286.6v-74.9h910v74.9Z"/></clipPath>
<clipPath id="c1_20"><path d="M664.6 313.8V242.1H836.2v71.7Z"/></clipPath>
<clipPath id="c2_20"><path d="M672.2 748.8V606.4H836.6V748.8Z"/></clipPath>
<style type="text/css"><![CDATA[
.g0_20{
fill: none;
stroke: #000;
stroke-width: 0.765;
stroke-linecap: square;
stroke-miterlimit: 10;
}
.g1_20{
fill: none;
stroke: #000;
stroke-width: 0.907;
stroke-linecap: square;
stroke-miterlimit: 10;
}
.g2_20{
fill: none;
stroke: #000;
stroke-width: 0.909;
stroke-linecap: square;
stroke-miterlimit: 10;
}
.g3_20{
fill: none;
stroke: #000;
stroke-width: 0.904;
stroke-linecap: square;
stroke-miterlimit: 10;
}
.g4_20{
fill: none;
stroke: #000;
stroke-width: 0.905;
stroke-linecap: square;
stroke-miterlimit: 10;
}
.g5_20{
fill: none;
stroke: #000;
stroke-width: 0.763;
stroke-linecap: square;
stroke-miterlimit: 10;
}
.g6_20{
fill: #000;
}
]]></style>
</defs>
<image clip-path="url(#c0_20)" preserveAspectRatio="none" x="-4" y="1212" width="952" height="131" xlink:href="img/1.jpg"/>
<path d="M492.7 74h24.4m24.5 .2H566" class="g0_20"/>
<path d="M584.2 244.1h23.2M148.7 271.9h23.2m80.7 -.2h27.2m24.8 .2h23.2" class="g1_20"/>
<path d="M595.9 271.9h23.2" class="g2_20"/>
<path d="M136.1 323.3h22.2" class="g3_20"/>
<path d="M216.9 323.3h29.8" class="g1_20"/>
<path d="M305.5 323.3h27.1" class="g4_20"/>
<path d="M392 323.3h23.2M242.9 396.8h23.3m25.7 -.2h24.4m24.6 .2h23.8M154.4 448.5h23.3m80.7 -.2h24.4" class="g2_20"/>
<path d="M153.3 500h23.2" class="g1_20"/>
<path d="M202.2 499.8h24.4m24.6 .2H275m195.8 -.2h28.7" class="g2_20"/>
<path d="M579.3 500h25" class="g1_20"/>
<path d="M172.7 527.8H196m25.7 -.1h24.4m150.3 .1h23.3m25.7 0h23.8" class="g2_20"/>
<path d="M445.1 606.2h25" class="g5_20"/>
<path d="M111.5 634.1h23.8m209 0h23.8" class="g0_20"/>
<path d="M393.3 634.1h24.6" class="g5_20"/>
<path d="M360.8 685.8H384" class="g0_20"/>
<path d="M409.8 685.8h25.1M216 713.5h24.9" class="g5_20"/>
<path d="M295 713.5h23.8" class="g0_20"/>
<path d="M176.2 757.2H524.5v-1H176.2v1Z" class="g6_20"/>
<path d="M154.4 789h24.9" class="g5_20"/>
<path d="M233.2 789H257" class="g0_20"/>
<path d="M418.9 789h25" class="g5_20"/>
<path d="M469.4 789h23.7" class="g0_20"/>
<path d="M153.3 816.9h24.9" class="g5_20"/>
<path d="M232.3 816.9h23.8" class="g0_20"/>
<image preserveAspectRatio="none" x="704" y="72" width="137" height="137" xlink:href="img/2.jpg"/>
<image preserveAspectRatio="none" x="44" y="94" width="56" height="56" xlink:href="img/3.jpg"/>
<image clip-path="url(#c1_20)" preserveAspectRatio="none" x="665" y="242" width="171" height="71" xlink:href="img/4.jpg"/>
<image preserveAspectRatio="none" x="44" y="263" width="56" height="56" xlink:href="img/5.jpg"/>
<image preserveAspectRatio="none" x="44" y="417" width="56" height="57" xlink:href="img/6.jpg"/>
<image preserveAspectRatio="none" x="705" y="390" width="143" height="110" xlink:href="img/7.jpg"/>
<image clip-path="url(#c2_20)" preserveAspectRatio="none" x="673" y="607" width="163" height="141" xlink:href="img/8.jpg"/>
<image preserveAspectRatio="none" x="44" y="626" width="56" height="56" xlink:href="img/9.jpg"/>
</svg>