<?xml version="1.0" encoding="UTF-8" standalone="no"?>
<!DOCTYPE svg PUBLIC "-//W3C//DTD SVG 1.1//EN"
"http://www.w3.org/Graphics/SVG/1.1/DTD/svg11.dtd">
<svg viewBox="0 0 909 1286" version="1.1" xmlns="http://www.w3.org/2000/svg" xmlns:xlink="http://www.w3.org/1999/xlink">
<defs>
<clipPath id="c0_5"><path d="M-.2 1286.6v-74.9h910v74.9Z"/></clipPath>
<clipPath id="c1_5"><path d="M660.4 799.2V755H856.6v44.2Z"/></clipPath>
<style type="text/css"><![CDATA[
.g0_5{
fill: #000;
}
.g1_5{
fill: none;
stroke: #000;
stroke-width: 1.099;
stroke-linecap: square;
stroke-miterlimit: 10;
}
]]></style>
</defs>
<image clip-path="url(#c0_5)" preserveAspectRatio="none" x="-4" y="1212" width="952" height="131" xlink:href="img/1.jpg"/>
<path d="M331.5 298.6h36.6v-.9H331.5v.9Z" class="g0_5"/>
<path d="M331.5 300.5h36.6v-.9H331.5v.9Z" class="g0_5"/>
<path d="M146.7 321.7h9.1m27.5 0h9.2m27.5 0h9.2m27.5 0h9.1m56.5 0h9.2m27.5 0h9.1m27.5 0h9.2m27.5 0h9.2m56.6 0h9.2m27.5 0H544m27.5 0h9.1m27.5 0h9.2m57.6 0H684m27.5 0h9.2m27.5 0h9.2m27.4 0H794" class="g1_5"/>
<path d="M127.6 513h36.7v-1H127.6v1Z" class="g0_5"/>
<path d="M305.3 536.8h55v-.9h-55v.9Z" class="g0_5"/>
<path d="M305.3 538.6h55v-.9h-55v.9Z" class="g0_5"/>
<path d="M415.2 536.8h36.7v-.9H415.2v.9Z" class="g0_5"/>
<path d="M106.2 632.3h36.6v-.9H106.2v.9Z" class="g0_5"/>
<path d="M161.2 632.3h36.6v-.9H161.2v.9Z" class="g0_5"/>
<path d="M702.4 632.3H739v-.9H702.4v.9Z" class="g0_5"/>
<path d="M506.9 656.1h36.7v-.9H506.9v.9Z" class="g0_5"/>
<path d="M341.9 680h36.7v-.9H341.9v.9Z" class="g0_5"/>
<path d="M575.7 680h36.6v-.9H575.7v.9Z" class="g0_5"/>
<path d="M368.1 891.6h36.7v-1H368.1v1Z" class="g0_5"/>
<path d="M368.1 893.4h36.7v-.9H368.1v.9Z" class="g0_5"/>
<path d="M132.9 907.5l2.2 -1.3m0 0l5.9 11.9m0 0l3.7 -21.4m0 0h11.5M176 907.5l2.2 -1.3m0 0l5.9 11.9m0 0l3.6 -21.4m0 0h11.6m19.8 10.8l2.2 -1.3m0 0l5.8 11.9m0 0l3.7 -21.4m0 0h11.6m19.8 10.8l2.2 -1.3m0 0l5.8 11.9m0 0l3.7 -21.4m0 0h11.5m19.9 10.8l2.2 -1.3m0 0l5.8 11.9m0 0L317 896.7m0 0h11.5m90 10.8l2.2 -1.3m0 0l5.9 11.9m0 0l3.7 -21.4m0 0h11.5m19.8 10.8l2.2 -1.3m0 0l5.9 11.9m0 0l3.7 -21.4m0 0h11.5m19.8 10.8l2.2 -1.3m0 0l5.9 11.9m0 0l3.7 -21.4m0 0H528m19.8 10.8l2.2 -1.3m0 0l5.9 11.9m0 0l3.6 -21.4m0 0h20.7m19.9 10.8l2.2 -1.3m0 0l5.8 11.9m0 0l3.7 -21.4m0 0h20.7M131.8 934.4l2.2 -1.2m0 0l5.9 11.9m0 0l3.6 -21.5m0 0h11.6m29 10.8l2.2 -1.2m0 0l5.8 11.9m0 0l3.7 -21.5m0 0h11.6m28.9 10.8l2.2 -1.2m0 0l5.9 11.9m0 0l3.7 -21.5m0 0h11.5m29 10.8l2.2 -1.2m0 0l5.8 11.9m0 0l3.7 -21.5m0 0h11.5m29 10.8l2.2 -1.2m0 0l5.9 11.9m0 0l3.6 -21.5m0 0h11.6m54.4 10.8l2.2 -1.2m0 0l5.9 11.9m0 0l3.7 -21.5m0 0h11.5m29 10.8l2.2 -1.2m0 0l5.9 11.9m0 0l3.6 -21.5m0 0h11.6M523 934.4l2.2 -1.2m0 0l5.9 11.9m0 0l3.7 -21.5m0 0h11.5m29 10.8l2.2 -1.2m0 0l5.9 11.9m0 0L587 923.6m0 0h11.6m29 10.8l2.2 -1.2m0 0l5.8 11.9m0 0l3.7 -21.5m0 0h11.5" class="g1_5"/>
<image preserveAspectRatio="none" x="24" y="69" width="822" height="39" xlink:href="img/2.png"/>
<image preserveAspectRatio="none" x="44" y="510" width="56" height="56" xlink:href="img/3.jpg"/>
<image preserveAspectRatio="none" x="44" y="628" width="56" height="56" xlink:href="img/4.jpg"/>
<image clip-path="url(#c1_5)" preserveAspectRatio="none" x="661" y="755" width="195" height="44" xlink:href="img/5.jpg"/>
<image preserveAspectRatio="none" x="44" y="769" width="56" height="56" xlink:href="img/6.jpg"/>
<image preserveAspectRatio="none" x="44" y="889" width="56" height="57" xlink:href="img/7.jpg"/>
<image preserveAspectRatio="none" x="44" y="1014" width="56" height="56" xlink:href="img/8.jpg"/>
<image preserveAspectRatio="none" x="44" y="1134" width="56" height="56" xlink:href="img/9.jpg"/>
</svg>