<?xml version="1.0" encoding="UTF-8" standalone="no"?>
<!DOCTYPE svg PUBLIC "-//W3C//DTD SVG 1.1//EN"
"http://www.w3.org/Graphics/SVG/1.1/DTD/svg11.dtd">
<svg viewBox="0 0 909 1286" version="1.1" xmlns="http://www.w3.org/2000/svg" xmlns:xlink="http://www.w3.org/1999/xlink">
<defs>
<clipPath id="c0_4"><path d="M-.2 1286.6v-74.9h910v74.9Z"/></clipPath>
<clipPath id="c1_4"><path d="M98 991.9V858.3H234V991.9Z"/></clipPath>
<clipPath id="c2_4"><path d="M233.4 991.9V858.3H371.7V991.9Z"/></clipPath>
<clipPath id="c3_4"><path d="M371 991.9V877.8H506.8V991.9Z"/></clipPath>
<clipPath id="c4_4"><path d="M655.9 199.2V67.5H818.4V199.2Z"/></clipPath>
<style type="text/css"><![CDATA[
.g0_4{
fill: none;
stroke: #000;
stroke-width: 0.765;
stroke-linecap: square;
stroke-miterlimit: 10;
}
.g1_4{
fill: none;
stroke: #000;
stroke-width: 0.766;
stroke-linecap: square;
stroke-miterlimit: 10;
}
.g2_4{
fill: none;
stroke: #000;
stroke-width: 0.763;
stroke-linecap: square;
stroke-miterlimit: 10;
}
.g3_4{
fill: none;
stroke: #000;
stroke-width: 0.762;
stroke-linecap: square;
stroke-miterlimit: 10;
}
.g4_4{
fill: none;
stroke: #000;
stroke-width: 0.761;
stroke-linecap: square;
stroke-miterlimit: 10;
}
.g5_4{
fill: #FFF;
stroke: #000;
stroke-width: 1.145;
stroke-linecap: round;
stroke-miterlimit: 8;
}
]]></style>
</defs>
<image clip-path="url(#c0_4)" preserveAspectRatio="none" x="-4" y="1212" width="952" height="131" xlink:href="img/1.jpg"/>
<path d="M148 97.9h23.8" class="g0_4"/>
<path d="M197 97.7h19.8" class="g1_4"/>
<path d="M241.3 97.7h23.2m-43.2 27.7h25.5" class="g2_4"/>
<path d="M271.7 125.4h27.2m24.7 .1h26.3" class="g3_4"/>
<path d="M467.1 125.5H491" class="g0_4"/>
<path d="M516.1 125.5h22.3" class="g4_4"/>
<path d="M186.6 275.5h24.9" class="g2_4"/>
<path d="M273.7 275.7h23.2m25.8 -.2h24.1" class="g0_4"/>
<path d="M371.6 275.7h25.3" class="g2_4"/>
<path d="M422.1 275.7h23.2M549.1 398.5h23.8" class="g0_4"/>
<path d="M115.1 426h25.5m29.5 28.1h29.8" class="g2_4"/>
<path d="M225.1 453.9h24.4" class="g0_4"/>
<image clip-path="url(#c1_4)" preserveAspectRatio="none" x="98" y="859" width="136" height="133" xlink:href="img/2.png"/>
<image clip-path="url(#c2_4)" preserveAspectRatio="none" x="234" y="859" width="137" height="133" xlink:href="img/3.png"/>
<image clip-path="url(#c3_4)" preserveAspectRatio="none" x="371" y="878" width="135" height="114" xlink:href="img/4.png"/>
<image preserveAspectRatio="none" x="506" y="878" width="146" height="114" xlink:href="img/5.png"/>
<path d="M457.8 1043.3H483" class="g2_4"/>
<path d="M581.6 1043.3h23.8m-476.5 27.8h23.2" class="g0_4"/>
<path d="M205.3 1071h24.6m53.4 0h24.6" class="g2_4"/>
<image clip-path="url(#c4_4)" preserveAspectRatio="none" x="656" y="68" width="162" height="131" xlink:href="img/6.jpg"/>
<image preserveAspectRatio="none" x="43" y="95" width="57" height="56" xlink:href="img/7.jpg"/>
<image preserveAspectRatio="none" x="43" y="267" width="57" height="56" xlink:href="img/8.jpg"/>
<image preserveAspectRatio="none" x="692" y="241" width="152" height="121" xlink:href="img/9.jpg"/>
<image preserveAspectRatio="none" x="722" y="403" width="119" height="130" xlink:href="img/10.jpg"/>
<image preserveAspectRatio="none" x="599" y="400" width="113" height="142" xlink:href="img/11.jpg"/>
<image preserveAspectRatio="none" x="43" y="417" width="57" height="57" xlink:href="img/12.jpg"/>
<path fill-rule="evenodd" d="M692.2 681.4h31.5V649.8H692.2v31.6Z" class="g5_4"/>
<path fill-rule="evenodd" d="M723.7 681.4h31.6V649.8H723.7v31.6Z" class="g5_4"/>
<path fill-rule="evenodd" d="M755.3 681.4h31.4V649.8H755.3v31.6Z" class="g5_4"/>
<path fill-rule="evenodd" d="M786.7 681.4h31.6V649.8H786.7v31.6Z" class="g5_4"/>
<path fill-rule="evenodd" d="M692.2 712.9h31.5V681.4H692.2v31.5Z" class="g5_4"/>
<path fill-rule="evenodd" d="M723.7 712.9h31.6V681.4H723.7v31.5Z" class="g5_4"/>
<path fill-rule="evenodd" d="M755.3 712.9h31.4V681.4H755.3v31.5Z" class="g5_4"/>
<path fill-rule="evenodd" d="M786.7 712.9h31.6V681.4H786.7v31.5Z" class="g5_4"/>
<path fill-rule="evenodd" d="M692.2 744.5h31.5V712.9H692.2v31.6Z" class="g5_4"/>
<path fill-rule="evenodd" d="M723.7 744.5h31.6V712.9H723.7v31.6Z" class="g5_4"/>
<path fill-rule="evenodd" d="M755.3 744.5h31.4V712.9H755.3v31.6Z" class="g5_4"/>
<path fill-rule="evenodd" d="M786.7 744.5h31.6V712.9H786.7v31.6Z" class="g5_4"/>
<image preserveAspectRatio="none" x="43" y="667" width="57" height="57" xlink:href="img/13.jpg"/>
<image preserveAspectRatio="none" x="591" y="786" width="253" height="102" xlink:href="img/14.png"/>
<image preserveAspectRatio="none" x="43" y="808" width="57" height="56" xlink:href="img/15.jpg"/>
<path fill-rule="evenodd" d="M651.7 1096.2H767.1V1050H651.7v46.2Z" class="g5_4"/>
<path fill-rule="evenodd" d="M767.3 1096.2h77v-30.9h-77v30.9Z" class="g5_4"/>
<image preserveAspectRatio="none" x="43" y="1061" width="57" height="56" xlink:href="img/16.jpg"/>
</svg>