<?xml version="1.0" encoding="UTF-8" standalone="no"?>
<!DOCTYPE svg PUBLIC "-//W3C//DTD SVG 1.1//EN"
"http://www.w3.org/Graphics/SVG/1.1/DTD/svg11.dtd">
<svg viewBox="0 0 909 1286" version="1.1" xmlns="http://www.w3.org/2000/svg" xmlns:xlink="http://www.w3.org/1999/xlink">
<defs>
<clipPath id="c0_2"><path d="M-.2 1286.6v-57.8h910v57.8Z"/></clipPath>
<style type="text/css"><![CDATA[
.g0_2{
fill: none;
stroke: #008000;
stroke-width: 1.099;
stroke-linecap: square;
stroke-miterlimit: 10;
}
.g1_2{
fill: #CFC;
}
.g2_2{
fill: #70AD47;
}
]]></style>
</defs>
<image clip-path="url(#c0_2)" preserveAspectRatio="none" x="-2" y="1229" width="930" height="128" xlink:href="img/1.jpg"/>
<path d="M328 243.1h73.3m-36.7 82.5h110" class="g0_2"/>
<path fill-rule="evenodd" d="M43.6 437.3h86V409.8h-86v27.5Z" class="g1_2"/>
<path d="M45.5 437.3h82.3V409.8H45.5v27.5Z" class="g1_2"/>
<path fill-rule="evenodd" d="M130.4 437.3H367.8V409.8H130.4v27.5Z" class="g1_2"/>
<path d="M132 437.3H366.1V409.8H132v27.5Z" class="g1_2"/>
<path fill-rule="evenodd" d="M368.5 437.3H595.3V409.8H368.5v27.5Z" class="g1_2"/>
<path d="M370.3 437.3H593.5V409.8H370.3v27.5Z" class="g1_2"/>
<path fill-rule="evenodd" d="M596 437.3H865.9V409.8H596v27.5Z" class="g1_2"/>
<path d="M597.7 437.3H864.1V409.8H597.7v27.5Z" class="g1_2"/>
<path d="M42.9 409.8h.7V409h-.7v.8Z" class="g2_2"/>
<path d="M42.9 409.8h.7V409h-.7v.8Z" class="g2_2"/>
<path d="M43.6 409.8h86V409h-86v.8Z" class="g2_2"/>
<path d="M129.6 409.8h.8V409h-.8v.8Z" class="g2_2"/>
<path d="M130.4 409.8H367.8V409H130.4v.8Z" class="g2_2"/>
<path d="M367.8 409.8h.7V409h-.7v.8Z" class="g2_2"/>
<path d="M368.5 409.8H595.3V409H368.5v.8Z" class="g2_2"/>
<path d="M595.3 409.8h.7V409h-.7v.8Z" class="g2_2"/>
<path d="M596 409.8H865.9V409H596v.8Z" class="g2_2"/>
<path d="M865.9 409.8h.7V409h-.7v.8Z" class="g2_2"/>
<path d="M865.9 409.8h.7V409h-.7v.8Z" class="g2_2"/>
<path d="M42.9 437.3h.7V409.8h-.7v27.5Z" class="g2_2"/>
<path d="M129.6 437.3h.8V409.8h-.8v27.5Z" class="g2_2"/>
<path d="M367.8 437.3h.7V409.8h-.7v27.5Z" class="g2_2"/>
<path d="M595.3 437.3h.7V409.8h-.7v27.5Z" class="g2_2"/>
<path d="M865.9 437.3h.7V409.8h-.7v27.5Z" class="g2_2"/>
<path fill-rule="evenodd" d="M43.6 465.7h86V438.2h-86v27.5Z" class="g1_2"/>
<path d="M45.5 465.7h82.3V438.2H45.5v27.5Z" class="g1_2"/>
<path d="M42.9 438h.7v-.8h-.7v.8Z" class="g2_2"/>
<path d="M43.6 438h86v-.8h-86v.8Z" class="g2_2"/>
<path d="M129.6 438h.8v-.8h-.8v.8Z" class="g2_2"/>
<path d="M130.4 438H367.8v-.8H130.4v.8Z" class="g2_2"/>
<path d="M367.8 438h.7v-.8h-.7v.8Z" class="g2_2"/>
<path d="M368.5 438H595.3v-.8H368.5v.8Z" class="g2_2"/>
<path d="M595.3 438h.7v-.8h-.7v.8Z" class="g2_2"/>
<path d="M596 438H865.9v-.8H596v.8Z" class="g2_2"/>
<path d="M865.9 438h.7v-.8h-.7v.8Z" class="g2_2"/>
<path d="M42.9 465.7h.7V438h-.7v27.7Z" class="g2_2"/>
<path d="M129.6 465.7h.8V438h-.8v27.7Z" class="g2_2"/>
<path d="M367.8 465.7h.7V438h-.7v27.7Z" class="g2_2"/>
<path d="M595.3 465.7h.7V438h-.7v27.7Z" class="g2_2"/>
<path d="M865.9 465.7h.7V438h-.7v27.7Z" class="g2_2"/>
<path fill-rule="evenodd" d="M43.6 576.4h86v-110h-86v110Z" class="g1_2"/>
<path fill-rule="evenodd" d="M45.5 535.1h82.3V507.6H45.5v27.5Z" class="g1_2"/>
<path d="M42.9 466.4h.7v-.7h-.7v.7Z" class="g2_2"/>
<path d="M43.6 466.4h86v-.7h-86v.7Z" class="g2_2"/>
<path d="M129.6 466.4h.8v-.7h-.8v.7Z" class="g2_2"/>
<path d="M130.4 466.4H367.8v-.7H130.4v.7Z" class="g2_2"/>
<path d="M367.8 466.4h.7v-.7h-.7v.7Z" class="g2_2"/>
<path d="M368.5 466.4H595.3v-.7H368.5v.7Z" class="g2_2"/>
<path d="M595.3 466.4h.7v-.7h-.7v.7Z" class="g2_2"/>
<path d="M596 466.4H865.9v-.7H596v.7Z" class="g2_2"/>
<path d="M865.9 466.4h.7v-.7h-.7v.7Z" class="g2_2"/>
<path d="M42.9 576.4h.7v-110h-.7v110Z" class="g2_2"/>
<path d="M42.9 577.1h.7v-.7h-.7v.7Z" class="g2_2"/>
<path d="M42.9 577.1h.7v-.7h-.7v.7Z" class="g2_2"/>
<path d="M43.6 577.1h86v-.7h-86v.7Z" class="g2_2"/>
<path d="M129.6 576.4h.8v-110h-.8v110Z" class="g2_2"/>
<path d="M129.6 577.1h.8v-.7h-.8v.7Z" class="g2_2"/>
<path d="M130.4 577.1H367.8v-.7H130.4v.7Z" class="g2_2"/>
<path d="M367.8 576.4h.7v-110h-.7v110Z" class="g2_2"/>
<path d="M367.8 577.1h.7v-.7h-.7v.7Z" class="g2_2"/>
<path d="M368.5 577.1H595.3v-.7H368.5v.7Z" class="g2_2"/>
<path d="M595.3 576.4h.7v-110h-.7v110Z" class="g2_2"/>
<path d="M595.3 577.1h.7v-.7h-.7v.7Z" class="g2_2"/>
<path d="M596 577.1H865.9v-.7H596v.7Z" class="g2_2"/>
<path d="M865.9 576.4h.7v-110h-.7v110Z" class="g2_2"/>
<path d="M865.9 577.1h.7v-.7h-.7v.7Z" class="g2_2"/>
<path d="M865.9 577.1h.7v-.7h-.7v.7Z" class="g2_2"/>
<image preserveAspectRatio="none" x="23" y="65" width="823" height="39" xlink:href="img/2.png"/>
</svg>