<?xml version="1.0" encoding="UTF-8" standalone="no"?>
<!DOCTYPE svg PUBLIC "-//W3C//DTD SVG 1.1//EN"
"http://www.w3.org/Graphics/SVG/1.1/DTD/svg11.dtd">
<svg viewBox="0 0 909 1286" version="1.1" xmlns="http://www.w3.org/2000/svg" xmlns:xlink="http://www.w3.org/1999/xlink">
<defs>
<clipPath id="c0_3"><path d="M0 1286.3v-74.5H909.5v74.5Z"/></clipPath>
<style type="text/css"><![CDATA[
.g0_3{
fill: #FFFFEB;
}
.g1_3{
fill: #090;
}
.g2_3{
fill: #390;
}
.g3_3{
fill: #E2FFDD;
}
.g4_3{
fill: none;
stroke: #090;
stroke-width: 1.249;
stroke-linecap: square;
stroke-miterlimit: 10;
}
.g5_3{
fill: #CFC;
}
.g6_3{
fill: #70AD47;
}
.g7_3{
fill: none;
stroke: #000;
stroke-width: 0.907;
stroke-linecap: square;
stroke-miterlimit: 10;
}
.g8_3{
fill: none;
stroke: #000;
stroke-width: 0.908;
stroke-linecap: square;
stroke-miterlimit: 10;
}
.g9_3{
fill: #96F;
}
]]></style>
</defs>
<image clip-path="url(#c0_3)" preserveAspectRatio="none" x="-2" y="1212" width="930" height="127" xlink:href="img/1.jpg"/>
<path fill-rule="evenodd" d="M108.9 423.4c-1.5 0 -2.8 1.3 -2.8 2.8v90.7c0 1.5 1.3 2.8 2.8 2.8h760c1.6 0 2.9 -1.3 2.9 -2.8V426.2c0 -1.5 -1.3 -2.8 -2.9 -2.8Z" class="g0_3"/>
<path d="M813.7 135.7L804.8 94.6l12.6 41.5l-13 42.5Z" class="g1_3"/>
<path d="M662.5 106.6h-.6V79.8H793.7v26.8Z" class="g2_3"/>
<path d="M662.5 195.2V106.6H794.1V79.8H662.5V74.1H800.3v.1l4.5 20.4l8.9 41.1l-9.3 42.9l-3.6 16.5v.1Z" class="g3_3"/>
<path d="M804.8 94.6l8.9 41.1l-9.3 42.9m.4 -84l12.6 41.5l-13 42.5m0 0l-3.6 16.5v.1H662.5V106.6m142.3 -12L800.3 74.2v-.1H662.5v5.7" class="g4_3"/>
<path d="M665.3 135.7l-9 -41.1L669 136.1l-13 42.5Z" class="g1_3"/>
<path d="M514.1 106.6h-.7V79.8H645.3v26.8Z" class="g2_3"/>
<path d="M514.1 195.2V106.6H645.6V79.8H514.1V74.1H651.9v.1l4.4 20.4l9 41.1L656 178.6l-3.6 16.5v.1Z" class="g3_3"/>
<path d="M656.3 94.6l9 41.1L656 178.6m.3 -84L669 136.1l-13 42.5m0 0l-3.6 16.5v.1H514.1V106.6m142.2 -12L651.9 74.2v-.1H514.1v5.7" class="g4_3"/>
<path d="M514 135.7L505.1 94.6l12.6 41.5l-12.9 42.5Z" class="g1_3"/>
<path d="M362.8 106.6h-.6V79.8H494.1v26.8Z" class="g2_3"/>
<path d="M362.8 195.2V106.6H494.4V79.8H362.8V74.1H500.7v.1l4.4 20.4l8.9 41.1l-9.2 42.9l-3.6 16.5v.1Z" class="g3_3"/>
<path d="M505.1 94.6l8.9 41.1l-9.2 42.9m.3 -84l12.6 41.5l-12.9 42.5m0 0l-3.6 16.5v.1H362.8V106.6m142.3 -12L500.7 74.2v-.1H362.8v5.7" class="g4_3"/>
<path d="M362.8 135.7l-9 -41.1l12.7 41.5l-13 42.5Z" class="g1_3"/>
<path d="M211.6 106.6h-.7V79.8H342.8v26.8Z" class="g2_3"/>
<path d="M211.6 195.2V106.6H343.1V79.8H211.6V74.1H349.4v.1l4.4 20.4l9 41.1l-9.3 42.9l-3.6 16.5v.1Z" class="g3_3"/>
<path d="M353.8 94.6l9 41.1l-9.3 42.9m.3 -84l12.7 41.5l-13 42.5m0 0l-3.6 16.5v.1H211.6V106.6m142.2 -12L349.4 74.2v-.1H211.6v5.7" class="g4_3"/>
<path d="M211.5 135.7L202.6 94.6l12.6 41.5l-12.9 42.5Z" class="g1_3"/>
<path d="M60.3 106.6h-.6V79.8H191.6v26.8Z" class="g2_3"/>
<path d="M60.3 195.2V106.6H191.9V79.8H60.3V74.1H198.2v.1l4.4 20.4l8.9 41.1l-9.2 42.9l-3.6 16.5v.1Z" class="g3_3"/>
<path d="M202.6 94.6l8.9 41.1l-9.2 42.9m.3 -84l12.6 41.5l-12.9 42.5m0 0l-3.6 16.5v.1H60.3V106.6m142.3 -12L198.2 74.2v-.1H60.3v5.7" class="g4_3"/>
<path fill-rule="evenodd" d="M57.4 291.5H325V264H57.4v27.5Z" class="g5_3"/>
<path d="M65.3 291.5H317.2V264H65.3v27.5Z" class="g5_3"/>
<path fill-rule="evenodd" d="M325.8 291.5H593.5V264H325.8v27.5Z" class="g5_3"/>
<path d="M333.7 291.5H585.6V264H333.7v27.5Z" class="g5_3"/>
<path fill-rule="evenodd" d="M594.2 291.5H861.9V264H594.2v27.5Z" class="g5_3"/>
<path d="M602.1 291.5H854V264H602.1v27.5Z" class="g5_3"/>
<path d="M56.7 264h.7v-.7h-.7v.7Z" class="g6_3"/>
<path d="M56.7 264h.7v-.7h-.7v.7Z" class="g6_3"/>
<path d="M57.4 264H325v-.7H57.4v.7Z" class="g6_3"/>
<path d="M325 264h.8v-.7H325v.7Z" class="g6_3"/>
<path d="M325.8 264H593.5v-.7H325.8v.7Z" class="g6_3"/>
<path d="M593.5 264h.7v-.7h-.7v.7Z" class="g6_3"/>
<path d="M594.2 264H861.9v-.7H594.2v.7Z" class="g6_3"/>
<path d="M861.9 264h.7v-.7h-.7v.7Z" class="g6_3"/>
<path d="M861.9 264h.7v-.7h-.7v.7Z" class="g6_3"/>
<path d="M56.7 291.5h.7V264h-.7v27.5Z" class="g6_3"/>
<path d="M325 291.5h.8V264H325v27.5Z" class="g6_3"/>
<path d="M593.5 291.5h.7V264h-.7v27.5Z" class="g6_3"/>
<path d="M861.9 291.5h.7V264h-.7v27.5Z" class="g6_3"/>
<path d="M459.1 346.8h56.7" class="g7_3"/>
<path d="M690.8 346.8H729" class="g8_3"/>
<path d="M56.7 292.2h.7v-.7h-.7v.7Z" class="g6_3"/>
<path d="M57.4 292.2H325v-.7H57.4v.7Z" class="g6_3"/>
<path d="M325 292.2h.8v-.7H325v.7Z" class="g6_3"/>
<path d="M325.8 292.2H593.5v-.7H325.8v.7Z" class="g6_3"/>
<path d="M593.5 292.2h.7v-.7h-.7v.7Z" class="g6_3"/>
<path d="M594.2 292.2H861.9v-.7H594.2v.7Z" class="g6_3"/>
<path d="M861.9 292.2h.7v-.7h-.7v.7Z" class="g6_3"/>
<path d="M56.7 374.9h.7V292.2h-.7v82.7Z" class="g6_3"/>
<path d="M56.7 375.7h.7v-.8h-.7v.8Z" class="g6_3"/>
<path d="M56.7 375.7h.7v-.8h-.7v.8Z" class="g6_3"/>
<path d="M57.4 375.7H325v-.8H57.4v.8Z" class="g6_3"/>
<path d="M325 374.9h.8V292.2H325v82.7Z" class="g6_3"/>
<path d="M325 375.7h.8v-.8H325v.8Z" class="g6_3"/>
<path d="M325.8 375.7H593.5v-.8H325.8v.8Z" class="g6_3"/>
<path d="M593.5 374.9h.7V292.2h-.7v82.7Z" class="g6_3"/>
<path d="M593.5 375.7h.7v-.8h-.7v.8Z" class="g6_3"/>
<path d="M594.2 375.7H861.9v-.8H594.2v.8Z" class="g6_3"/>
<path d="M861.9 374.9h.7V292.2h-.7v82.7Z" class="g6_3"/>
<path d="M861.9 375.7h.7v-.8h-.7v.8Z" class="g6_3"/>
<path d="M861.9 375.7h.7v-.8h-.7v.8Z" class="g6_3"/>
<path d="M49.7 449.5l-.6 -.1h-.5l-1 -.3l-1 -.4l-.8 -.5l-.4 -.4l-.3 -.3l-.3 -.4l-.1 -.4l-.2 -.4l-.1 -.4l-.1 -.5V432.7l.1 -1l.3 -.8l.4 -.8l.7 -.7l.8 -.6l1 -.4l1 -.2l.5 -.1H95.9l.6 .1l.5 .1l.5 .1l.5 .2l.5 .2l.4 .3l.4 .3l.4 .3l.3 .4l.3 .3l.3 .5l.1 .4l.2 .4v.5l.1 .5V445l-.1 .4v.5l-.2 .4l-.1 .4l-.3 .4l-.3 .4l-.3 .3l-.2 .2l-.2 .2l-.4 .2l-.4 .3l-.5 .2l-.3 .1h-.1v.1h-.4v.1l-.2 .1l-.5 .1h-.8l-.3 .1Z" class="g9_3"/>
</svg>