<?xml version="1.0" encoding="UTF-8" standalone="no"?>
<!DOCTYPE svg PUBLIC "-//W3C//DTD SVG 1.1//EN"
"http://www.w3.org/Graphics/SVG/1.1/DTD/svg11.dtd">
<svg viewBox="0 0 909 1286" version="1.1" xmlns="http://www.w3.org/2000/svg" xmlns:xlink="http://www.w3.org/1999/xlink">
<defs>
<clipPath id="c0_2"><path d="M-.2 1286.6v-57.8h910v57.8Z"/></clipPath>
<style type="text/css"><![CDATA[
.g0_2{
fill: #9FC;
}
.g1_2{
fill: none;
stroke: #000;
stroke-width: 0.874;
stroke-linecap: square;
stroke-miterlimit: 10;
}
.g2_2{
fill: #000;
}
.g3_2{
fill: none;
stroke: #000;
stroke-width: 0.872;
stroke-linecap: square;
stroke-miterlimit: 10;
}
.g4_2{
fill: #CFC;
}
.g5_2{
fill: #70AD47;
}
.g6_2{
fill: #F90;
}
.g7_2{
fill: none;
stroke: #000;
stroke-width: 0.877;
stroke-linecap: square;
stroke-miterlimit: 10;
}
.g8_2{
fill: none;
stroke: #00F;
stroke-width: 0.877;
stroke-linecap: square;
stroke-miterlimit: 10;
}
.g9_2{
fill: none;
stroke: #F00;
stroke-width: 0.877;
stroke-linecap: square;
stroke-miterlimit: 10;
}
.ga_2{
fill: none;
stroke: #000;
stroke-width: 0.904;
stroke-linecap: square;
stroke-miterlimit: 10;
}
.gb_2{
fill: none;
stroke: #000;
stroke-width: 0.909;
stroke-linecap: square;
stroke-miterlimit: 10;
}
.gc_2{
fill: #CCF;
}
.gd_2{
fill: none;
stroke: #000;
stroke-width: 0.873;
stroke-linecap: square;
stroke-miterlimit: 10;
}
.ge_2{
fill: none;
stroke: #00F;
stroke-width: 0.873;
stroke-linecap: square;
stroke-miterlimit: 10;
}
.gf_2{
fill: none;
stroke: #000;
stroke-width: 0.907;
stroke-linecap: square;
stroke-miterlimit: 10;
}
.gg_2{
fill: #FCF;
}
.gh_2{
fill: none;
stroke: #000;
stroke-width: 0.939;
stroke-linecap: square;
stroke-miterlimit: 10;
}
.gi_2{
fill: none;
stroke: #30F;
stroke-width: 0.939;
stroke-linecap: square;
stroke-miterlimit: 10;
}
.gj_2{
fill: none;
stroke: #F00;
stroke-width: 0.939;
stroke-linecap: square;
stroke-miterlimit: 10;
}
.gk_2{
fill: none;
stroke: #000;
stroke-width: 0.937;
stroke-linecap: square;
stroke-miterlimit: 10;
}
.gl_2{
fill: none;
stroke: #30F;
stroke-width: 0.937;
stroke-linecap: square;
stroke-miterlimit: 10;
}
.gm_2{
fill: none;
stroke: #F00;
stroke-width: 0.937;
stroke-linecap: square;
stroke-miterlimit: 10;
}
.gn_2{
fill: none;
stroke: #00F;
stroke-width: 0.937;
stroke-linecap: square;
stroke-miterlimit: 10;
}
.go_2{
fill: none;
stroke: #000;
stroke-width: 0.938;
stroke-linecap: square;
stroke-miterlimit: 10;
}
.gp_2{
fill: none;
stroke: #00F;
stroke-width: 0.938;
stroke-linecap: square;
stroke-miterlimit: 10;
}
.gq_2{
fill: none;
stroke: #30F;
stroke-width: 0.938;
stroke-linecap: square;
stroke-miterlimit: 10;
}
.gr_2{
fill: none;
stroke: #00F;
stroke-width: 0.939;
stroke-linecap: square;
stroke-miterlimit: 10;
}
]]></style>
</defs>
<image clip-path="url(#c0_2)" preserveAspectRatio="none" x="-2" y="1229" width="930" height="128" xlink:href="img/1.jpg"/>
<path d="M397.3 254.5l-2.1 -.1l-2 -.3l-1.9 -.3l-2 -.5l-1.9 -.5l-1.8 -.6l-1.8 -.7l-1.8 -.8l-1.7 -1l-1.8 -1l-1.6 -1l-1.6 -1.2l-1.6 -1.3l-1.6 -1.4l-1.4 -1.5l-.8 -.8l-.7 -.8l-1.3 -1.5l-1.3 -1.7l-1.2 -1.6l-.5 -.9l-.6 -.8l-.9 -1.8l-.5 -.9l-.4 -.9l-.8 -1.8l-.3 -.9L361 227l-.6 -1.9l-.5 -2l-.2 -1l-.2 -.9l-.2 -1.1l-.1 -1l-.2 -2l-.1 -1.1l-.1 -1v-4.3l.2 -2.1l.2 -2.1l.3 -2l.4 -2l.5 -1.9l.6 -1.9l.7 -1.9l.8 -1.8l.9 -1.8l.9 -1.8l1.1 -1.6l1.2 -1.7l1.3 -1.6l1.3 -1.6l1.5 -1.6l1.4 -1.4l1.6 -1.4l1.6 -1.3l1.6 -1.2l1.6 -1.2l1.8 -.9l1.7 -1l1.8 -.7l1.8 -.8l1.8 -.6l1.9 -.5l2 -.4l1.9 -.4l2 -.2l2.1 -.1l2.1 -.1l2 .1h1l1 .1l2 .2l1 .2l1 .2l1 .2l.9 .2l1.9 .5l1.9 .6l.9 .4l.9 .4l1.7 .7l.9 .5l.9 .5l1.7 .9l.8 .6l.8 .6l1.6 1.2l1.6 1.3l1.6 1.4l.7 .7l.8 .7l1.4 1.5l1.3 1.6l1.2 1.5l1.1 1.7l1.1 1.6l1 1.7l.8 1.7l.8 1.8l.7 1.8l.6 1.8l.5 1.9l.5 1.9l.3 1.9l.3 2l.2 2l.1 2.1v1.3H402.5h37.4v.8l-.1 1V216l-.2 2l-.1 .9l-.1 .3v.2l-.1 .6l-.3 1.9l-.5 1.9l-.2 .9l-.3 1l-.3 .9l-.3 .9l-.7 1.8l-.8 1.8l-.4 .8l-.4 .9l-.5 .8l-.3 .4l-.1 .2l-.1 .2l-1.1 1.7l-1.1 1.6l-.6 .8l-.6 .8l-1.3 1.5l-.7 .7l-.7 .8l-.8 .7l-.7 .8l-1.6 1.4l-.8 .6l-.4 .3l-.2 .2l-.2 .2l-1.6 1.2l-.8 .5l-.4 .3l-.4 .2l-1.7 1l-.9 .5l-.9 .5l-1.7 .8l-.9 .4l-.9 .3l-1.9 .6l-.9 .3l-1 .2l-.5 .1l-.2 .1l-.2 .1l-1 .2l-1 .2l-1 .1l-2 .3h-1l-1 .1l-1 .1h-1Z" class="g0_2"/>
<path d="M439.9 213.1V167.2m0 44.6l-.1 -2.1l-.2 -2l-.3 -2l-.3 -1.9l-.5 -1.9L438 200l-.6 -1.8l-.7 -1.8l-.8 -1.8l-.8 -1.7l-1 -1.7L433 189.6l-1.1 -1.7l-1.2 -1.5l-1.3 -1.6L428 183.3l-.8 -.7l-.7 -.7l-1.6 -1.4l-1.6 -1.3L421.7 178l-.8 -.6l-.8 -.6l-1.7 -.9l-.9 -.5l-.9 -.5l-1.7 -.7l-.9 -.4l-.9 -.4l-1.9 -.6l-1.9 -.5l-.9 -.2l-1 -.2l-1 -.2l-1 -.2l-2 -.2l-1 -.1h-1l-2 -.1l-2.1 .1l-2.1 .1l-2 .2l-1.9 .4l-2 .4l-1.9 .5l-1.8 .6l-1.8 .8l-1.8 .7l-1.7 1l-1.8 .9l-1.6 1.2l-1.6 1.2l-1.6 1.3l-1.6 1.4l-1.4 1.4l-1.5 1.6l-1.3 1.6l-1.3 1.6l-1.2 1.7l-1.1 1.6l-.9 1.8l-.9 1.8l-.8 1.8l-.7 1.9l-.6 1.9l-.5 1.9l-.4 2l-.3 2l-.2 2.1l-.2 2.1V215l.1 1l.1 1.1l.2 2l.1 1l.2 1.1l.2 .9l.2 1l.5 2l.6 1.9l.4 .9l.3 .9l.8 1.8l.4 .9l.5 .9l.9 1.8l.6 .8l.5 .9l1.2 1.6l1.3 1.7l1.3 1.5l.7 .8l.8 .8l1.4 1.5l1.6 1.4l1.6 1.3l1.6 1.2l1.6 1l1.8 1l1.7 1l1.8 .8l1.8 .7l1.8 .6l1.9 .5l2 .5l1.9 .3l2 .3l2.1 .1l2.1 .1h1l1 -.1l1 -.1h1l2 -.3l1 -.1l1 -.2l1 -.2l.2 -.1l.2 -.1l.5 -.1l1 -.2l.9 -.3l1.9 -.6l.9 -.3l.9 -.4l1.7 -.8l.9 -.5l.9 -.5l1.7 -1l.4 -.2l.4 -.3l.8 -.5l1.6 -1.2l.2 -.2l.2 -.2l.4 -.3l.8 -.6l1.6 -1.4l.7 -.8l.8 -.7l.7 -.8l.7 -.7l1.3 -1.5l.6 -.8l.6 -.8l1.1 -1.6l1.1 -1.7l.1 -.2l.1 -.2l.3 -.4l.5 -.8l.4 -.9l.4 -.8l.8 -1.8l.7 -1.8l.3 -.9l.3 -.9l.3 -1l.2 -.9l.5 -1.9l.3 -1.9l.1 -.6v-.2l.1 -.3l.1 -.9l.2 -2v-1.1l.1 -1m0 -.8H402.5M439.9 251V213.1" class="g1_2"/>
<path d="M402.1 214.6l-.3 -.1l-.3 -.1l-.2 -.2l-.2 -.2l-.1 -.3l-.1 -.3v-.6l.1 -.3l.1 -.2l.2 -.2l.2 -.2l.3 -.1l.3 -.1h.6l.2 .1l.3 .1l.2 .2l.2 .2l.1 .2l.1 .3v.6l-.1 .2v.1l-.1 .3l-.1 .1h-.1v.1h-.1v.1l-.1 .1H403l-.1 .1l-.1 .1h-.4v.1Z" class="g2_2"/>
<path d="M439.5 214.6l-.2 -.1l-.3 -.1l-.2 -.2l-.2 -.2l-.1 -.3l-.1 -.3v-.6l.1 -.3l.1 -.2l.2 -.2l.2 -.2l.3 -.1l.2 -.1h.6l.3 .1l.2 .1l.3 .2l.1 .2l.2 .2l.1 .3v.6l-.1 .2v.1l-.2 .3l-.1 .1v.1h-.1l-.1 .1l-.1 .1h-.1l-.1 .1l-.1 .1h-.4v.1Z" class="g2_2"/>
<path d="M849.4 212.5v-4.3h4.7l.1 1.5v2.8Z" class="g0_2"/>
<path d="M773.3 212.5v-2.4l.2 -2.1l.2 -2l.3 -2l.4 -2l.5 -1.9l.6 -1.9l.7 -1.8l.8 -1.9l.9 -1.7l.9 -1.8l1.1 -1.7l1.2 -1.6l1.2 -1.6l1.4 -1.6l1.4 -1.5l1.5 -1.5l1.5 -1.4l1.6 -1.3l1.7 -1.2l1.6 -1.1l1.7 -1l1.7 -.9l1.8 -.7l1.8 -.7l1.9 -.7l1.8 -.5l2 -.4l1.9 -.4l2 -.2l2.1 -.1h5.1l1 .1l2 .2l1 .2l1 .2l1 .2l.9 .2l1.9 .5l1.8 .7l.9 .3l1 .4l1.7 .7l.9 .5l.8 .4l1.7 1l.8 .6l.9 .5l.8 .6l.8 .6l1.6 1.3l1.5 1.4l.8 .7l.8 .8l1.2 1.3l1.2 1.4l1.1 1.4l1.1 1.5l1 1.4l.9 1.5l.8 1.5l.8 1.6l.7 1.6l.6 1.6l.6 1.7l.5 1.7l.4 1.7l.3 1.8l.3 1.7l.2 1.8h-4.7v4.3Z" class="g0_2"/>
<path d="M811.7 253.6l-2.1 -.2l-2 -.2l-1.9 -.3l-2 -.5l-1.8 -.5l-1.9 -.6l-1.8 -.7l-1.8 -.8l-1.7 -.9l-1.7 -1l-1.6 -1.1l-1.7 -1.2l-1.6 -1.3l-1.5 -1.4l-1.5 -1.4L783.7 240l-1.3 -1.6l-.7 -.8l-.6 -.8L780 235.2l-1.1 -1.7l-.5 -.9l-.5 -.8l-.5 -.9L777 230l-.7 -1.8l-.7 -1.8l-.4 -1l-.2 -.9l-.5 -1.9l-.4 -1.9l-.4 -2l-.2 -2l-.1 -1.1l-.1 -1v-2.1h80.9v1.8l-.1 1l-.1 2l-.2 1v.2l-.1 .3v.5l-.4 1.9l-.4 1.9l-.3 .9l-.2 1l-.3 .9l-.3 .9l-.7 1.8l-.8 1.7l-.5 .9l-.4 .8l-.5 .8l-.2 .4l-.2 .2l-.1 .3l-1 1.6l-1.2 1.6l-.6 .8l-.6 .7l-1.3 1.6l-.7 .7l-.6 .8l-.8 .7l-.8 .7l-1.5 1.4l-.8 .6l-.4 .4l-.2 .1l-.2 .2l-.2 .1l-.2 .2l-.4 .3l-.8 .6l-.9 .5l-.4 .3l-.4 .3l-1.7 1l-.8 .4l-.9 .5l-1.7 .8l-1 .3l-.9 .4l-1.8 .6l-1 .3l-.9 .2l-.5 .1l-.2 .1l-.2 .1l-1 .2l-1 .1l-1 .2l-2 .2h-.2l-.3 .1h-.5l-1 .1h-2Z" class="g0_2"/>
<path d="M854.2 212.5V167m0 83.1V212.5m0 -1.3v-1.5l-.1 -1.5l-.2 -1.8l-.3 -1.7l-.3 -1.8l-.4 -1.7l-.5 -1.7l-.6 -1.7l-.6 -1.6l-.7 -1.6l-.8 -1.6l-.8 -1.5L848 190l-1 -1.4l-1.1 -1.5l-1.1 -1.4l-1.2 -1.4L842.4 183l-.8 -.8l-.8 -.7l-1.5 -1.4l-1.6 -1.3l-.8 -.6l-.8 -.6l-.9 -.5l-.8 -.6l-1.7 -1l-.8 -.4l-.9 -.5l-1.7 -.7l-1 -.4l-.9 -.3l-1.8 -.7l-1.9 -.5l-.9 -.2l-1 -.2l-1 -.2l-1 -.2l-2 -.2l-1 -.1h-5.1l-2.1 .1l-2 .2l-1.9 .4l-2 .4l-1.8 .5l-1.9 .7l-1.8 .7l-1.8 .7l-1.7 .9l-1.7 1l-1.6 1.1l-1.7 1.2l-1.6 1.3l-1.5 1.4l-1.5 1.5l-1.4 1.5l-1.4 1.6l-1.2 1.6l-1.2 1.6l-1.1 1.7l-.9 1.8l-.9 1.7l-.8 1.9l-.7 1.8l-.6 1.9l-.5 1.9l-.4 2l-.3 2l-.2 2l-.2 2.1v4.5l.1 1l.1 1.1l.2 2l.4 2l.4 1.9l.5 1.9l.2 .9l.4 1l.7 1.8l.7 1.8l.4 .9l.5 .9l.5 .8l.5 .9l1.1 1.7l1.1 1.6l.6 .8l.7 .8l1.3 1.6l1.4 1.5l1.5 1.4l1.5 1.4l1.6 1.3l1.7 1.2l1.6 1.1l1.7 1l1.7 .9l1.8 .8l1.8 .7l1.9 .6l1.8 .5l2 .5l1.9 .3l2 .2l2.1 .2h4.1l1 -.1h.5l.3 -.1h.2l2 -.2l1 -.2l1 -.1l1 -.2l.2 -.1l.2 -.1l.5 -.1l.9 -.2l1 -.3l1.8 -.6l.9 -.4l1 -.3l1.7 -.8l.9 -.5l.8 -.4l1.7 -1l.4 -.3l.4 -.3l.9 -.5l.8 -.6l.4 -.3l.2 -.2l.2 -.1l.2 -.2l.2 -.1l.4 -.4l.8 -.6l1.5 -1.4l.8 -.7l.8 -.7l.6 -.8l.7 -.7l1.3 -1.6l.6 -.7l.6 -.8l1.2 -1.6l1 -1.6l.1 -.3l.2 -.2l.2 -.4l.5 -.8l.4 -.8l.5 -.9l.8 -1.7l.7 -1.8l.3 -.9l.3 -.9l.2 -1l.3 -.9l.4 -1.9l.4 -1.9v-.5l.1 -.3v-.2l.2 -1l.1 -2l.1 -1v-1m0 -.8H773.3m76.1 0v-4.3h4.8" class="g3_2"/>
<path d="M816.5 214l-.3 -.1l-.3 -.1l-.2 -.2l-.2 -.2l-.1 -.3l-.1 -.3v-.6l.1 -.3l.1 -.2l.2 -.2l.2 -.2l.3 -.1l.3 -.1h.5l.3 .1l.3 .1l.2 .2l.2 .2l.1 .2l.1 .3v.6l-.1 .2v.1l-.1 .3l-.1 .1h-.1v.1h-.1v.1l-.1 .1l-.3 .1h-.1l-.2 .1h-.2Z" class="g2_2"/>
<path d="M853.9 214l-.3 -.1l-.2 -.1l-.3 -.2l-.1 -.2l-.2 -.3v-.3l-.1 -.2l.1 -.4v-.3l.2 -.2l.1 -.2l.3 -.2l.2 -.1l.3 -.1h.5l.3 .1l.3 .1l.2 .2l.2 .2l.1 .2l.1 .3v.6l-.1 .2v.1l-.1 .3l-.1 .1h-.1v.1h-.1v.1l-.1 .1l-.3 .1h-.1l-.2 .1h-.2Z" class="g2_2"/>
<path d="M773.2 214l-.3 -.1l-.3 -.1l-.2 -.2l-.2 -.2l-.1 -.3l-.1 -.3v-.6l.1 -.3l.1 -.2l.2 -.2l.2 -.2l.3 -.1l.3 -.1h.5l.3 .1l.3 .1l.2 .2l.2 .2l.1 .2l.1 .3v.6l-.1 .2v.1l-.1 .3l-.1 .1h-.1v.1h-.1v.1l-.1 .1l-.3 .1h-.1l-.2 .1h-.2Z" class="g2_2"/>
<path fill-rule="evenodd" d="M71.1 99H448.2V71.5H71.1V99Z" class="g4_2"/>
<path d="M79 99H440.4V71.5H79V99Z" class="g4_2"/>
<path fill-rule="evenodd" d="M449 99H861.9V71.5H449V99Z" class="g4_2"/>
<path d="M456.9 99H854V71.5H456.9V99Z" class="g4_2"/>
<path d="M70.4 71.5h.7v-.7h-.7v.7Z" class="g5_2"/>
<path d="M70.4 71.5h.7v-.7h-.7v.7Z" class="g5_2"/>
<path d="M71.1 71.5H448.2v-.7H71.1v.7Z" class="g5_2"/>
<path d="M448.2 71.5h.8v-.7h-.8v.7Z" class="g5_2"/>
<path d="M449 71.5H861.9v-.7H449v.7Z" class="g5_2"/>
<path d="M861.9 71.5h.7v-.7h-.7v.7Z" class="g5_2"/>
<path d="M861.9 71.5h.7v-.7h-.7v.7Z" class="g5_2"/>
<path d="M70.4 99h.7V71.5h-.7V99Z" class="g5_2"/>
<path d="M448.2 99h.8V71.5h-.8V99Z" class="g5_2"/>
<path d="M861.9 99h.7V71.5h-.7V99Z" class="g5_2"/>
<path d="M70.4 99.7h.7V99h-.7v.7Z" class="g5_2"/>
<path d="M71.1 99.7H448.2V99H71.1v.7Z" class="g5_2"/>
<path d="M448.2 99.7h.8V99h-.8v.7Z" class="g5_2"/>
<path d="M449 99.7H861.9V99H449v.7Z" class="g5_2"/>
<path d="M861.9 99.7h.7V99h-.7v.7Z" class="g5_2"/>
<path d="M70.4 154.9h.7V99.7h-.7v55.2Z" class="g5_2"/>
<path d="M448.2 154.9h.8V99.7h-.8v55.2Z" class="g5_2"/>
<path d="M861.9 154.9h.7V99.7h-.7v55.2Z" class="g5_2"/>
<path d="M70.4 155.7h.7v-.8h-.7v.8Z" class="g5_2"/>
<path d="M71.1 155.7H448.2v-.8H71.1v.8Z" class="g5_2"/>
<path d="M448.2 155.7h.8v-.8h-.8v.8Z" class="g5_2"/>
<path d="M449 155.7H861.9v-.8H449v.8Z" class="g5_2"/>
<path d="M861.9 155.7h.7v-.8h-.7v.8Z" class="g5_2"/>
<path d="M70.4 265.7h.7v-110h-.7v110Z" class="g5_2"/>
<path d="M70.4 266.4h.7v-.8h-.7v.8Z" class="g5_2"/>
<path d="M70.4 266.4h.7v-.8h-.7v.8Z" class="g5_2"/>
<path d="M71.1 266.4H448.2v-.8H71.1v.8Z" class="g5_2"/>
<path d="M448.2 265.7h.8v-110h-.8v110Z" class="g5_2"/>
<path d="M448.2 266.4h.8v-.8h-.8v.8Z" class="g5_2"/>
<path d="M449 266.4H861.9v-.8H449v.8Z" class="g5_2"/>
<path d="M861.9 265.7h.7v-110h-.7v110Z" class="g5_2"/>
<path d="M861.9 266.4h.7v-.8h-.7v.8Z" class="g5_2"/>
<path d="M861.9 266.4h.7v-.8h-.7v.8Z" class="g5_2"/>
<path fill-rule="evenodd" d="M71.1 451.6h40.6V322.1H71.1V451.6Z" class="g4_2"/>
<path fill-rule="evenodd" d="M79 386.8h24.8V363H79v23.8Z" class="g4_2"/>
<path fill-rule="evenodd" d="M79 410.7h24.8V386.8H79v23.9Z" class="g4_2"/>
<path d="M171.7 434.9h-2.2l-2 -.1l-2.2 -.3l-2.2 -.3l-2.1 -.4l-2.1 -.5l-2 -.6l-2 -.7l-2 -.7l-1.9 -.9l-1.9 -.9l-1.9 -1.1l-1.8 -1.1L143.6 426l-1.7 -1.3l-1.7 -1.4l-1.7 -1.5l-1.6 -1.6l-.9 -.9l-.9 -1l-.8 -.9l-.8 -1l-.8 -1l-.7 -1l-.7 -1l-.7 -.9l-.7 -1.1l-.6 -1l-.6 -1.1l-.6 -1L127 406.2l-.5 -1.1l-.4 -1.1l-.8 -2.3l-.4 -1.1l-.4 -1.2l-.3 -1.1l-.3 -1.2l-.3 -1.2l-.2 -1.2l-.2 -1.2l-.2 -1.2l-.2 -1.3l-.1 -1.2l-.1 -1.3v-1.2l-.1 -2.6l.1 -2.6l.1 -2.5l.3 -2.5l.4 -2.5l.5 -2.4l.6 -2.3l.8 -2.3l.8 -2.2l.9 -2.2l1.1 -2.2l1.2 -2.1l1.3 -2l1.4 -2l1.5 -2l1.6 -1.9l1.8 -1.8l1.8 -1.8l1.9 -1.7l1.9 -1.6l1.9 -1.4l2 -1.3l2.1 -1.2l2.1 -1.1l2.2 -1l2.1 -.8l2.3 -.8l2.3 -.6l2.3 -.5l2.4 -.4l2.4 -.3l2.5 -.2h4.3l1.8 .1l1.7 .1l1.7 .2l1.6 .2l1.7 .4l.8 .1l.8 .2l1.6 .5l1.6 .4l1.6 .6l1.5 .6l1.5 .6l1.5 .7l.7 .4l.8 .4l1.4 .8l1.5 .9l.7 .4l-.2 .4l-1.7 2.8l-.5 -.3l.5 .3L172.4 385h.2L195 424.3l-.6 .3l.6 -.3l2 3.5l-.7 .5l-.7 .4l-1.4 .8l-1.5 .7l-1.5 .7l-1.5 .6l-.7 .3l-.7 .3l-.8 .2l-.8 .3l-.4 .1l-.2 .1H186l-.8 .3l-1.6 .4l-.8 .2l-.8 .2h-.4l-.4 .1l-.8 .2l-1.6 .2l-.9 .1l-.8 .1l-1.6 .2l-1.8 .1H172Z" class="g6_2"/>
<path d="M197.7 346.4v-3.9l.2 -.4l1.6 1.1l1.6 1.2l-2 2.9Z" class="g6_2"/>
<path d="M196 345.3l1.7 -2.8v3.9Z" class="g6_2"/>
<path d="M172.6 385h-.2L196 345.3l1.7 1.1l-.3 38.6Z" class="g6_2"/>
<path d="M197.4 385l.3 -38.6l1.4 .9l2 -2.9l1.5 1.3l.9 .8l1 .9l.9 .8l1 1l1.7 1.8l.8 .9l.8 1l1.5 2l.7 1l.7 1l1.3 2l1.2 2.1l1 2.2l.5 1.1l.5 1.1l.4 1.1l.4 1.1l.8 2.3l.6 2.3l.3 1.2l.2 1.2l.2 1.3l.2 1.2l.3 2.5l.2 2.5v3Zm.1 0h4v-4.1h-4V385Z" class="g6_2"/>
<path d="M197.5 380.9h4V385h-4v-4.1Z" class="g6_2"/>
<path d="M198.4 422l-1.3 .9l.3 -37.9l23.3 .1v1.2l-.1 1.3v1.2l-.1 1.3l-.2 1.2l-.2 1.2l-.2 1.2l-.2 1.3l-.2 1.1l-.3 1.2l-.3 1.1l-.3 1.2l-.4 1.1l-.2 .6l-.1 .3v.3l-.4 1.1l-.4 1.1l-.5 1.1l-.5 1.1l-.3 .5l-.2 .5l-.6 1.1l-.6 1l-.6 1.1l-1.2 2l-.7 1l-.7 1l-.8 1l-.7 1l-.8 .9l-.4 .4l-.4 .5l-.9 1l-.8 .9l-.8 .7l-.7 .7l-1.4 1.3l-.7 .6l-.7 .6l-.2 .1l-.2 .2l-.3 .3l-.7 .6Z" class="g6_2"/>
<path d="M172.6 385h24.8l-.3 37.9l-2.1 1.4Z" class="g6_2"/>
<path d="M195 424.3l2.1 -1.4l-.1 4.9Z" class="g6_2"/>
<path d="M197.1 422.9l1.3 -.9l2.3 3.3l-1.8 1.3l-.3 .1l-.2 .2l-.5 .3l-.9 .6Z" class="g6_2"/>
<path d="M202.6 345.7l-1.5 -1.3l-1.6 -1.2l-1.6 -1.1l-.7 -.4l-1.5 -.9l-1.4 -.8l-.8 -.4l-.7 -.4l-1.5 -.7l-1.5 -.6l-1.5 -.6l-1.6 -.6l-1.6 -.4l-1.6 -.5l-.8 -.2l-.8 -.1l-1.7 -.4l-1.6 -.2l-1.7 -.2l-1.7 -.1l-1.8 -.1h-4.3l-2.5 .2l-2.4 .3l-2.4 .4l-2.3 .5l-2.3 .6l-2.3 .8l-2.1 .8l-2.2 1l-2.1 1.1l-2.1 1.2l-2 1.3l-1.9 1.4l-1.9 1.6l-1.9 1.7l-1.8 1.8l-1.8 1.8l-1.6 1.9l-1.5 2l-1.4 2l-1.3 2l-1.2 2.1l-1.1 2.2l-.9 2.2l-.8 2.2l-.8 2.3l-.6 2.3l-.5 2.4l-.4 2.5l-.3 2.5l-.1 2.5l-.1 2.6l.1 2.6v1.2l.1 1.3l.1 1.2l.2 1.3l.2 1.2l.2 1.2l.2 1.2l.3 1.2l.3 1.2l.3 1.1l.4 1.2l.4 1.1l.8 2.3l.4 1.1l.5 1.1l1.1 2.1l.6 1l.6 1.1l.6 1l.7 1.1l.7 .9l.7 1l.7 1l.8 1l.8 1l.8 .9l.9 1l.9 .9l1.6 1.6l1.7 1.5l1.7 1.4l1.7 1.3l1.8 1.3l1.8 1.1l1.9 1.1l1.9 .9l1.9 .9l2 .7l2 .7l2 .6l2.1 .5l2.1 .4l2.2 .3l2.2 .3l2 .1h4.2l1.8 -.1l1.6 -.2l.8 -.1l.9 -.1l1.6 -.2l.8 -.2l.4 -.1h.4l.8 -.2l.8 -.2l1.6 -.4l.8 -.3h.1l.2 -.1l.4 -.1l.8 -.3l.8 -.2l.7 -.3l.7 -.3l1.5 -.6l1.5 -.7l1.5 -.7l1.4 -.8l.7 -.4l.7 -.5l.9 -.6l.5 -.3l.2 -.2l.3 -.1l1.8 -1.3l.7 -.6l.3 -.3l.2 -.2l.2 -.1l.7 -.6l.7 -.6l1.4 -1.3l.7 -.7l.8 -.7l.8 -.9l.9 -1l.4 -.5l.4 -.4l.8 -.9l.7 -1l.8 -1l.7 -1l.7 -1l1.2 -2l.6 -1.1l.6 -1l.6 -1.1l.2 -.5l.3 -.5l.5 -1.1l.5 -1.1l.4 -1.1l.4 -1.1v-.3l.1 -.3l.2 -.6l.4 -1.1l.3 -1.2l.3 -1.1l.3 -1.2l.2 -1.1l.2 -1.3l.2 -1.2l.2 -1.2l.2 -1.2l.1 -1.3v-1.2l.1 -1.3v-4.2l-.2 -2.5l-.3 -2.5l-.2 -1.2l-.2 -1.3l-.2 -1.2l-.3 -1.2l-.6 -2.3l-.8 -2.3l-.4 -1.1l-.4 -1.1l-.5 -1.1l-.5 -1.1l-1 -2.2l-1.2 -2.1l-1.3 -2l-.7 -1l-.7 -1l-1.5 -2l-.8 -1l-.8 -.9l-1.7 -1.8l-1 -1l-.9 -.8l-1 -.9l-.9 -.8m-1.9 79.7v-.1L198.4 422l-1.3 .9l-2.1 1.4l-.6 .3m6.7 -80.2l-2 2.9l-1.4 -.9L196 345.3l-.5 -.3m59.8 39.6L202.6 345.7M197.5 385h4v-4.1h-4V385Zm-1.1 43.5l.6 -.5h.1l3.6 -2.6l54.5 -40.3" class="g7_2"/>
<path d="M197.9 342.1l-.2 .4l-1.2 1.9m-1.4 2.4l-1.4 2.3m-1.4 2.4l-1.5 2.3m-1.4 2.4l-1.3 2.3m-1.4 2.4l-1.5 2.3m-1.3 2.4l-1.4 2.3m-1.4 2.4l-1.4 2.3m-1.4 2.4l-1.4 2.3m-1.4 2.4l-1.3 2.3m-1.4 2.3l-.4 .7m24.7 43H197v-.2l-1.2 -2.1m-1.4 -2.4L193.1 421m-1.3 -2.4l-1.4 -2.3m-1.3 -2.4l-1.3 -2.3m-1.3 -2.4l-1.3 -2.3m-1.4 -2.4l-1.3 -2.3m-1.3 -2.4l-1.4 -2.3m-1.3 -2.4l-1.3 -2.4m-1.4 -2.3l-1.3 -2.3m-1.4 -2.3l-.5 -.8m25.1 -42.5v3.9l-.3 38.6l-.3 37.9l-.1 4.9v.2" class="g8_2"/>
<path d="M255.2 385.1H220.7L197.4 385h-25" class="g9_2"/>
<path d="M172.1 388.3l-.3 -.1h-.3l-.2 -.1l-.6 -.4l-.2 -.1l-.2 -.2l-.3 -.3l-.1 -.2l-.2 -.3l-.1 -.3l-.1 -.3l-.1 -.3v-1.2l.2 -.6l.3 -.5l.4 -.5l.4 -.4l.6 -.3l.5 -.2h1.3l.2 .1l.3 .1l.3 .1l.3 .2l.2 .1l.3 .3l.2 .2l.1 .3l.3 .5l.1 .3l.1 .3l.1 .3v.6l-.1 .3v.2l-.1 .1l-.1 .3l-.1 .3l-.2 .3l-.1 .1v.1l-.2 .3l-.3 .2h-.1l-.1 .1l-.3 .2l-.3 .2l-.3 .1h-.2l-.3 .1h-.3Z" class="g2_2"/>
<path d="M418.2 326.7h21.5m25.8 0h22.3M323.1 354.4h21.4m25.8 0h22.3" class="ga_2"/>
<path d="M604.1 354.2h23.3m80.7 .2h23.2M323.1 382.1h23.2" class="gb_2"/>
<path d="M70.4 322.1h.7v-.7h-.7v.7Z" class="g5_2"/>
<path d="M70.4 322.1h.7v-.7h-.7v.7Z" class="g5_2"/>
<path d="M71.1 322.1h40.6v-.7H71.1v.7Z" class="g5_2"/>
<path d="M111.7 322.1h.7v-.7h-.7v.7Z" class="g5_2"/>
<path d="M112.4 322.1H280.7v-.7H112.4v.7Z" class="g5_2"/>
<path d="M280.7 322.1h.7v-.7h-.7v.7Z" class="g5_2"/>
<path d="M281.4 322.1H865.7v-.7H281.4v.7Z" class="g5_2"/>
<path d="M865.7 322.1h.7v-.7h-.7v.7Z" class="g5_2"/>
<path d="M865.7 322.1h.7v-.7h-.7v.7Z" class="g5_2"/>
<path d="M70.4 451.6h.7V322.1h-.7V451.6Z" class="g5_2"/>
<path d="M70.4 452.3h.7v-.8h-.7v.8Z" class="g5_2"/>
<path d="M70.4 452.3h.7v-.8h-.7v.8Z" class="g5_2"/>
<path d="M71.1 452.3h40.6v-.8H71.1v.8Z" class="g5_2"/>
<path d="M111.7 451.6h.7V322.1h-.7V451.6Z" class="g5_2"/>
<path d="M111.7 452.3h.7v-.8h-.7v.8Z" class="g5_2"/>
<path d="M112.4 452.3H280.7v-.8H112.4v.8Z" class="g5_2"/>
<path d="M280.7 451.6h.7V322.1h-.7V451.6Z" class="g5_2"/>
<path d="M280.7 452.3h.7v-.8h-.7v.8Z" class="g5_2"/>
<path d="M281.4 452.3H865.7v-.8H281.4v.8Z" class="g5_2"/>
<path d="M865.7 451.6h.7V322.1h-.7V451.6Z" class="g5_2"/>
<path d="M865.7 452.3h.7v-.8h-.7v.8Z" class="g5_2"/>
<path d="M865.7 452.3h.7v-.8h-.7v.8Z" class="g5_2"/>
<path fill-rule="evenodd" d="M71.1 640.9h40.6V508H71.1V640.9Z" class="g4_2"/>
<path fill-rule="evenodd" d="M79 574.6h24.8V550.7H79v23.9Z" class="g4_2"/>
<path fill-rule="evenodd" d="M79 598.4h24.8V574.6H79v23.8Z" class="g4_2"/>
<path d="M192.1 628.4l-2.7 -.1h5.5l-2.4 .1Z" class="gc_2"/>
<path d="M189.4 628.3l-1.4 -.1l-2.2 -.2l-2.2 -.3l-2.1 -.4l-2 -.5l-2.1 -.6l-2 -.7l-2 -.7l-1.9 -.9l-1.9 -.9l-1.8 -1.1l-1.9 -1.1l-1.7 -1.2l-1.8 -1.4l-1.6 -1.4l-1.7 -1.5l-1.6 -1.6l-.9 -.9l-.8 -.9l-.9 -1l-.8 -.9l-.8 -1l-.7 -1l-.7 -1l-.7 -1l-.7 -1l-.6 -1l-.6 -1.1l-.6 -1l-1 -2.2l-.5 -1l-.4 -1.1l-.9 -2.3l-.4 -1.1l-.3 -1.1l-.4 -1.2l-.2 -1.2l-.3 -1.2l-.2 -1.1l-.3 -1.3l-.1 -1.2l-.2 -1.2l-.1 -1.2l-.1 -1.3l-.1 -1.3v-5.1l.2 -2.5l.3 -2.5l.4 -2.4l.5 -2.4l.6 -2.4l.7 -2.2l.9 -2.3l.9 -2.2l1 -2.1l1.2 -2.1l1.3 -2l1.4 -2l1.5 -2l1.7 -1.9l1.7 -1.8l1.5 -1.5l1.6 -1.5l1.6 -1.3l1.6 -1.3l1.7 -1.2l1.7 -1.1l1.8 -1l1.8 -.9l1.7 -.9l1.9 -.8l1.9 -.6l1.9 -.6l1.9 -.6l2 -.4l2 -.3l2.1 -.3l.7 5.4l5.9 44.5l-5.9 -44.5l5.9 -.4l-.6 -5.4h1.2l1.2 .1h1.3l1.2 .2l2.4 .2l1.2 .2l1.2 .2l1.1 .3l1.2 .3l1.1 .2l1.2 .4l1.1 .3l1.1 .4l2.2 .9l1 .5l1.1 .5l2.1 1l1 .6l1 .6l1 .7l1.1 .7l.9 .7l1 .7l.9 .7l1 .8l.9 .8l1 .9l.9 .9l.9 .9l1.7 1.8l.8 .9l.8 1l1.5 2l.7 .9l.7 1.1l1.3 2l1.2 2.1l1 2.1l.5 1.1l.5 1.1l.4 1.1l.4 1.2l.8 2.2l.6 2.4l.3 1.1l.2 1.3l.2 1.2l.2 1.2l.3 2.5l.1 2.5l.1 1.3v2.6l-.1 1.2v.6l-.1 .3v1.7l-.2 1.2l-.1 1.2l-.1 .6l-.1 .6l-.2 1.3l-.2 1.1l-.2 .6l-.1 .6l-.3 1.2l-.3 1.2l-.4 1.1l-.2 .5l-.1 .3l-.1 .3l-.4 1.2l-.4 1.1l-.5 1.1l-.5 1l-1 2.2l-.6 1l-.6 1.1l-.6 1l-.4 .5l-.3 .5l-.7 1l-.2 .2l-.1 .3l-.4 .5l-.7 1l-.8 1l-.8 .9l-.8 1l-.9 .9l-.8 .9l-.9 .9l-.8 .8l-.9 .7l-.9 .8l-.9 .7l-.8 .8l-1.8 1.3l-1 .7l-.9 .6l-1.9 1.1l-.5 .3l-.2 .1l-.3 .2l-.9 .5l-2 1l-1 .4l-1 .4l-2 .8l-1.1 .3l-.5 .2l-.5 .2l-.6 .1l-.5 .1l-1 .3l-1.1 .3l-.6 .1h-.3l-.2 .1h-.3l-.3 .1l-.5 .1l-1.1 .2l-2.3 .2l-1.1 .1l-1.1 .1Z" class="gc_2"/>
<path d="M186.2 528.7l1.4 -.2l1.5 -.1l3 -.1h.1l.6 5.4l-5.9 .4Z" class="gc_2"/>
<path d="M194.9 628.3l1.1 -.1l1.1 -.1l2.3 -.2l1.1 -.2l.5 -.1l.3 -.1h.3l.2 -.1h.3l.6 -.1l1.1 -.3l1 -.3l.5 -.1l.6 -.1l.5 -.2l.5 -.2l1.1 -.3l2 -.8l1 -.4l1 -.4l2 -1l.9 -.5l.3 -.2l.2 -.1l.5 -.3l1.9 -1.1l.9 -.6l1 -.7l1.8 -1.3l.8 -.8l.9 -.7l.9 -.8l.9 -.7l.8 -.8l.9 -.9l.8 -.9l.9 -.9l.8 -1l.8 -.9l.8 -1l.7 -1l.4 -.5l.1 -.3l.2 -.2l.7 -1l.3 -.5l.4 -.5l.6 -1l.6 -1.1l.6 -1l1 -2.2l.5 -1l.5 -1.1l.4 -1.1l.4 -1.2l.1 -.3l.1 -.3l.2 -.5l.4 -1.1l.3 -1.2l.3 -1.2l.1 -.6l.2 -.6l.2 -1.1l.2 -1.3l.1 -.6l.1 -.6l.1 -1.2l.2 -1.2v-1.7l.1 -.3v-.6l.1 -1.2v-2.6l-.1 -1.3l-.1 -2.5l-.3 -2.5l-.2 -1.2l-.2 -1.2l-.2 -1.3l-.3 -1.1l-.6 -2.4l-.8 -2.2l-.4 -1.2l-.4 -1.1l-.5 -1.1l-.5 -1.1l-1 -2.1l-1.2 -2.1l-1.3 -2l-.7 -1.1l-.7 -.9l-1.5 -2l-.8 -1l-.8 -.9L226.7 543l-.9 -.9l-.9 -.9l-1 -.9l-.9 -.8l-1 -.8l-.9 -.7l-1 -.7l-.9 -.7l-1.1 -.7l-1 -.7l-1 -.6l-1 -.6L213 533l-1.1 -.5l-1 -.5l-2.2 -.9l-1.1 -.4l-1.1 -.3l-1.2 -.4l-1.1 -.2l-1.2 -.3l-1.1 -.3l-1.2 -.2l-1.2 -.2l-2.4 -.2l-1.2 -.2h-1.3l-1.2 -.1h-1.3l-3 .1l-1.5 .1l-1.4 .2l-2.1 .3l-2 .3l-2 .4l-1.9 .6l-1.9 .6l-1.9 .6l-1.9 .8l-1.7 .9l-1.8 .9l-1.8 1l-1.7 1.1l-1.7 1.2l-1.6 1.3l-1.6 1.3l-1.6 1.5l-1.5 1.5l-1.7 1.8l-1.7 1.9l-1.5 2l-1.4 2l-1.3 2l-1.2 2.1l-1 2.1l-.9 2.2l-.9 2.3l-.7 2.2l-.6 2.4l-.5 2.4l-.4 2.4l-.3 2.5l-.2 2.5v5.1l.1 1.3l.1 1.3l.1 1.2l.2 1.2l.1 1.2l.3 1.3l.2 1.1l.3 1.2l.2 1.2l.4 1.2l.3 1.1l.4 1.1l.9 2.3l.4 1.1l.5 1l1 2.2l.6 1l.6 1.1l.6 1l.7 1l.7 1l.7 1l.7 1l.8 1l.8 .9l.9 1l.8 .9l.9 .9l1.6 1.6l1.7 1.5l1.6 1.4l1.8 1.4l1.7 1.2l1.9 1.1l1.8 1.1l1.9 .9l1.9 .9l2 .7l2 .7l2.1 .6l2 .5l2.1 .4l2.2 .3l2.2 .2l1.4 .1m0 0l2.7 .1h.4l2.4 -.1m-8.7 -99.8v.2m3.2 99.6H134.8l14 -94.5l37.4 -5.3l5.9 -.8L226 522.8l34.3 105.5H194.9m0 0h-5.5m-2.5 -94.2l5.9 -.4l-.6 -5.4l-.1 -.6" class="gd_2"/>
<path d="M186.2 528.7l.7 5.4l5.9 44.5" class="ge_2"/>
<path d="M192.6 582l-.3 -.1l-.3 -.1l-.2 -.1l-.6 -.3l-.2 -.2l-.2 -.2l-.3 -.2l-.1 -.3l-.2 -.2l-.1 -.3l-.1 -.3l-.1 -.3v-1.2l.2 -.6l.3 -.6l.4 -.4l.4 -.4l.6 -.3l.5 -.2h1.3l.2 .1l.3 .1l.3 .1l.3 .2l.2 .1l.2 .3l.2 .2l.2 .2l.3 .6l.1 .3l.1 .3v.3l.1 .3l-.1 .3v.3l-.1 .2v.1l-.1 .3l-.1 .3l-.2 .2l-.1 .1v.1h-.1v.1l-.2 .2l-.2 .2h-.1v.1l-.1 .1l-.3 .2l-.3 .1l-.3 .1h-.1l-.1 .1l-.3 .1H193Z" class="g2_2"/>
<path d="M324.4 536.5h23.2" class="gb_2"/>
<path d="M373.3 536.3h24.4m24.5 .2h25.2" class="gf_2"/>
<path d="M472.6 536.3h24.2m-5.4 47.9h10.9" class="gb_2"/>
<path d="M70.4 508h.7v-.7h-.7v.7Z" class="g5_2"/>
<path d="M70.4 508h.7v-.7h-.7v.7Z" class="g5_2"/>
<path d="M71.1 508h40.6v-.7H71.1v.7Z" class="g5_2"/>
<path d="M111.7 508h.7v-.7h-.7v.7Z" class="g5_2"/>
<path d="M112.4 508H282v-.7H112.4v.7Z" class="g5_2"/>
<path d="M282 508h.7v-.7H282v.7Z" class="g5_2"/>
<path d="M282.7 508H867.2v-.7H282.7v.7Z" class="g5_2"/>
<path d="M867.2 508h.7v-.7h-.7v.7Z" class="g5_2"/>
<path d="M867.2 508h.7v-.7h-.7v.7Z" class="g5_2"/>
<path d="M70.4 640.9h.7V508h-.7V640.9Z" class="g5_2"/>
<path d="M70.4 641.7h.7v-.8h-.7v.8Z" class="g5_2"/>
<path d="M70.4 641.7h.7v-.8h-.7v.8Z" class="g5_2"/>
<path d="M71.1 641.7h40.6v-.8H71.1v.8Z" class="g5_2"/>
<path d="M111.7 640.9h.7V508h-.7V640.9Z" class="g5_2"/>
<path d="M111.7 641.7h.7v-.8h-.7v.8Z" class="g5_2"/>
<path d="M112.4 641.7H282v-.8H112.4v.8Z" class="g5_2"/>
<path d="M282 640.9h.7V508H282V640.9Z" class="g5_2"/>
<path d="M282 641.7h.7v-.8H282v.8Z" class="g5_2"/>
<path d="M282.7 641.7H867.2v-.8H282.7v.8Z" class="g5_2"/>
<path d="M867.2 640.9h.7V508h-.7V640.9Z" class="g5_2"/>
<path d="M867.2 641.7h.7v-.8h-.7v.8Z" class="g5_2"/>
<path d="M867.2 641.7h.7v-.8h-.7v.8Z" class="g5_2"/>
<path fill-rule="evenodd" d="M71.1 745.2H276.7V697.4H71.1v47.8Z" class="g4_2"/>
<path d="M79 721.4H268.8v-24H79v24Z" class="g4_2"/>
<path d="M79 745.2H268.8V721.4H79v23.8Z" class="g4_2"/>
<path fill-rule="evenodd" d="M277.4 745.2h178V697.4h-178v47.8Z" class="g4_2"/>
<path d="M285.3 721.4H447.5v-24H285.3v24Z" class="g4_2"/>
<path d="M285.3 745.2H447.5V721.4H285.3v23.8Z" class="g4_2"/>
<path fill-rule="evenodd" d="M456.1 745.2H689.2V697.4H456.1v47.8Z" class="g4_2"/>
<path d="M464 721.4H681.3v-24H464v24Z" class="g4_2"/>
<path d="M464 745.2H681.3V721.4H464v23.8Z" class="g4_2"/>
<path fill-rule="evenodd" d="M689.9 745.2h172V697.4h-172v47.8Z" class="g4_2"/>
<path d="M697.8 721.4H854v-24H697.8v24Z" class="g4_2"/>
<path d="M697.8 745.2H854V721.4H697.8v23.8Z" class="g4_2"/>
<path d="M70.4 697.4h.7v-.7h-.7v.7Z" class="g5_2"/>
<path d="M70.4 697.4h.7v-.7h-.7v.7Z" class="g5_2"/>
<path d="M71.1 697.4H276.7v-.7H71.1v.7Z" class="g5_2"/>
<path d="M276.7 697.4h.7v-.7h-.7v.7Z" class="g5_2"/>
<path d="M277.4 697.4h178v-.7h-178v.7Z" class="g5_2"/>
<path d="M455.4 697.4h.7v-.7h-.7v.7Z" class="g5_2"/>
<path d="M456.1 697.4H689.2v-.7H456.1v.7Z" class="g5_2"/>
<path d="M689.1 697.4h.8v-.7h-.8v.7Z" class="g5_2"/>
<path d="M689.9 697.4h172v-.7h-172v.7Z" class="g5_2"/>
<path d="M861.9 697.4h.7v-.7h-.7v.7Z" class="g5_2"/>
<path d="M861.9 697.4h.7v-.7h-.7v.7Z" class="g5_2"/>
<path d="M70.4 745.2h.7V697.4h-.7v47.8Z" class="g5_2"/>
<path d="M276.7 745.2h.7V697.4h-.7v47.8Z" class="g5_2"/>
<path d="M455.4 745.2h.7V697.4h-.7v47.8Z" class="g5_2"/>
<path d="M689.1 745.2h.8V697.4h-.8v47.8Z" class="g5_2"/>
<path d="M861.9 745.2h.7V697.4h-.7v47.8Z" class="g5_2"/>
<path d="M165.9 836.4V802.9v33.5H124.5l-.7 -1l-.7 -.9l-1.3 -1.8l-1.3 -2l-1.1 -1.9l-1.1 -2l-.9 -2l-.5 -1l-.4 -1l-.7 -2.1l-.7 -2.2l-.3 -1.1l-.3 -1.1l-.5 -2.2l-.2 -1.1l-.2 -1.1l-.3 -2.3l-.3 -2.3l-.1 -2.4v-5.2l.2 -2.7l.3 -2.7l.4 -2.6l.6 -2.6l.6 -2.5l.8 -2.4l.9 -2.4l1 -2.4l1.1 -2.3l1.3 -2.3l1.4 -2.2l1.5 -2.2l1.6 -2.1l1.8 -2l1.9 -2l1.9 -1.9l2 -1.8l2 -1.7l2.1 -1.5l2.2 -1.5l2.2 -1.3l2.2 -1.1l2.3 -1l2.4 -1l2.4 -.8l2.4 -.7l2.5 -.5l2.6 -.4l2.6 -.4l2.6 -.1l2.8 -.1l2.7 .1h1.3l1.3 .1l1.3 .2l1.3 .2l1.3 .1l1.3 .3l1.2 .2l1.3 .3l1.2 .3l1.2 .4l1.2 .4l1.2 .4l2.4 1l1.1 .4l1.1 .6l2.3 1.1l1.1 .6l1.1 .7l1 .7l1.1 .8l1.1 .7l1 .8l1 .8l1.1 .9l1 .8l1 1l.9 .9l1 1l1.9 2l.9 1l.8 1l1.6 2.1l.8 1.1l.8 1.1l1.3 2.2l1.3 2.3l1.1 2.3l.5 1.1l.6 1.3l.4 1.1l.4 1.3l.8 2.4l.7 2.5l.3 1.3l.3 1.3l.2 1.3l.2 1.3l.3 2.7l.1 2.7l.1 1.4v3.8l-.1 1.1l-.1 1.2v.6l-.1 .5l-.1 1.2l-.2 1.1l-.1 1.2l-.4 2.2l-.5 2.2l-.6 2.1l-.6 2.2l-.2 .5l-.1 .2l-.1 .3l-.4 1l-.8 2.1l-1 2l-1 1.9l-1.1 2l-.6 .9l-.6 1l-.6 .9l-.7 .9l-.3 .4l-.4 .5l-.6 1l-.2 .1l-.1 .2Z" class="gg_2"/>
<path d="M165.5 856.5l-2.3 -.1l-2.2 -.1l-2.4 -.3l-2.3 -.3l-2.2 -.5l-2.2 -.5l-2.2 -.6l-2.2 -.8l-2.1 -.8l-2.1 -.9l-2 -1l-2 -1.2l-2 -1.2l-1.8 -1.3l-1.9 -1.4L131.8 844L130 842.3l-1.7 -1.7l-1.1 -1.1l-.9 -1l-.9 -1.1l-.9 -1h81.9l-.9 1l-1 1.1l-.9 1l-1 1.1l-1 1l-.9 .9l-.5 .4l-.5 .5l-1 .9l-1 .8l-1 .8l-1.1 .8l-1 .8l-2.1 1.3l-1.1 .7l-1.1 .6l-1.1 .6l-.6 .3l-.5 .3l-1.2 .6l-1.1 .5l-1.2 .4l-1.1 .5l-2.4 .8l-1.2 .3l-1.2 .4l-1.3 .3h-.3l-.3 .1l-.6 .2l-2.5 .4l-1.3 .2l-1.2 .2l-1.4 .1h-1.2l-1.4 .1l-1.3 .1Z" class="gg_2"/>
<path d="M124.5 836.4l.9 1l.9 1.1l.9 1l1.1 1.1l1.7 1.7l1.8 1.7l1.8 1.5l1.9 1.4l1.8 1.3l2 1.2l2 1.2l2 1l2.1 .9l2.1 .8l2.2 .8l2.2 .6l2.2 .5l2.2 .5l2.3 .3l2.4 .3l2.2 .1l2.3 .1h.4l1.3 -.1l1.4 -.1h1.2l1.4 -.1l1.2 -.2l1.3 -.2l2.5 -.4l.6 -.2l.3 -.1h.3l1.3 -.3l1.2 -.4l1.2 -.3l2.4 -.8l1.1 -.5l1.2 -.4l1.1 -.5l1.2 -.6l.5 -.3l.6 -.3l1.1 -.6l1.1 -.6l1.1 -.7l2.1 -1.3l1 -.8l1.1 -.8l1 -.8l1 -.8l1 -.9l.5 -.5l.5 -.4l.9 -.9l1 -1l1 -1.1l.9 -1l1 -1.1l.9 -1m27.2 0H206.4m0 0H124.5m-22.5 0h22.5m81.9 0l.1 -.2l.2 -.1l.6 -1l.4 -.5l.3 -.4l.7 -.9l.6 -.9l.6 -1l.6 -.9l1.1 -2l1 -1.9l1 -2l.8 -2.1l.4 -1l.1 -.3l.1 -.2l.2 -.5l.6 -2.2l.6 -2.1l.5 -2.2l.4 -2.2l.1 -1.2l.2 -1.1l.1 -1.2l.1 -.5v-.6l.1 -1.2l.1 -1.1v-3.8l-.1 -1.4l-.1 -2.7l-.3 -2.7l-.2 -1.3l-.2 -1.3l-.3 -1.3l-.3 -1.3l-.7 -2.5l-.8 -2.4l-.4 -1.3l-.4 -1.1l-.6 -1.3l-.5 -1.1L212 777.1l-1.3 -2.3l-1.3 -2.2l-.8 -1.1l-.8 -1.1l-1.6 -2.1l-.8 -1l-.9 -1l-1.9 -2l-1 -1l-.9 -.9l-1 -1l-1 -.8l-1.1 -.9l-1 -.8l-1 -.8l-1.1 -.7l-1.1 -.8l-1 -.7l-1.1 -.7l-1.1 -.6l-2.3 -1.1l-1.1 -.6l-1.1 -.4l-2.4 -1l-1.2 -.4l-1.2 -.4l-1.2 -.4l-1.2 -.3l-1.3 -.3l-1.2 -.2l-1.3 -.3l-1.3 -.1l-1.3 -.2l-1.3 -.2l-1.3 -.1h-1.3l-2.7 -.1l-2.8 .1l-2.6 .1l-2.6 .4l-2.6 .4l-2.5 .5l-2.4 .7l-2.4 .8l-2.4 1l-2.3 1l-2.2 1.1l-2.2 1.3l-2.2 1.5l-2.1 1.5l-2 1.7l-2 1.8l-1.9 1.9l-1.9 2l-1.8 2l-1.6 2.1l-1.5 2.2l-1.4 2.2l-1.3 2.3l-1.1 2.3l-1 2.4l-.9 2.4l-.8 2.4l-.6 2.5l-.6 2.6l-.4 2.6l-.3 2.7l-.2 2.7v5.2l.1 2.4l.3 2.3l.3 2.3l.2 1.1l.2 1.1l.5 2.2l.3 1.1l.3 1.1l.7 2.2l.7 2.1l.4 1l.5 1l.9 2l1.1 2l1.1 1.9l1.3 2l1.3 1.8l.7 .9l.7 1" class="gh_2"/>
<path d="M165.9 836.4V802.9" class="gi_2"/>
<path d="M166 806.3h-.3l-.3 -.1l-.3 -.1l-.6 -.3l-.2 -.2l-.3 -.2l-.2 -.3l-.2 -.3l-.2 -.3l-.1 -.2l-.1 -.4l-.1 -.3v-1.3l.2 -.6l.3 -.6l.4 -.5l.5 -.5l.6 -.3l.6 -.2H167l.3 .1l.3 .1l.3 .1l.3 .2l.2 .2l.3 .3l.2 .2l.2 .3l.3 .6l.1 .3l.1 .3l.1 .3v.7l-.1 .3v.2l-.1 .1l-.1 .4l-.1 .2l-.2 .3l-.1 .1v.1h-.1v.1l-.2 .3l-.3 .2l-.1 .1l-.1 .1l-.3 .1l-.3 .2l-.3 .1h-.1l-.2 .1h-.3l-.3 .1Z" class="g2_2"/>
<path d="M145 837.5V835m1.9 2.5V835m40.5 2.5V835m1.9 2.5V835" class="gj_2"/>
<path d="M358.3 836V802.6V836H317l-.8 -.9l-.7 -.9l-1.3 -1.9L313 830.4l-1.1 -1.9l-1.1 -2l-1 -2l-.4 -1.1l-.4 -1l-.8 -2.1l-.7 -2.1l-.3 -1.1l-.3 -1.1l-.5 -2.2l-.3 -2.3l-.4 -2.3l-.2 -2.3l-.1 -2.4l-.1 -2.3l.1 -2.8l.2 -2.7l.2 -2.7l.5 -2.6l.5 -2.6l.7 -2.5l.8 -2.4l.9 -2.4l1 -2.4l1.1 -2.3l1.3 -2.3l1.4 -2.2l1.5 -2.1l1.6 -2.1l1.7 -2.1l1.9 -1.9l1.9 -2l2 -1.7l2.1 -1.7l2.1 -1.6l2.1 -1.4l2.2 -1.3l2.2 -1.1l2.4 -1l2.3 -1l2.4 -.8l2.4 -.7l2.5 -.5l2.6 -.5l2.6 -.3l2.6 -.1l2.8 -.1h1.3l1.3 .1h1.3l1.4 .1l1.3 .2l1.3 .1l1.2 .2l1.3 .3l1.2 .2l1.3 .3l1.2 .3l1.2 .4l1.2 .4l1.2 .4l2.4 1l1.1 .4l1.2 .6l2.2 1.1l1.1 .6l1.1 .7l1.1 .7l1.1 .7l2.1 1.6l1 .8l1 .9l1 .8l1 .9l1 1l1 1l1.8 1.9l.9 1l.8 1.1l1.7 2.1l.7 1l.8 1.1l1.3 2.2l1.3 2.3l1.1 2.3l.6 1.2l.5 1.2l.4 1.1l.5 1.3l.8 2.4l.6 2.5l.3 1.3l.3 1.3l.2 1.3l.2 1.3l.3 2.7l.2 2.7v5.1l-.1 1.2v1.2l-.1 .5l-.1 .6l-.1 1.1l-.2 1.2l-.1 1.1l-.4 2.2l-.5 2.2l-.6 2.2l-.6 2.1l-.2 .5l-.1 .2l-.1 .3l-.4 1.1l-.8 2l-.9 2l-1.1 1.9l-1.1 2l-.6 .9l-.6 1l-.6 .9l-.7 .9l-.3 .4l-.3 .5l-.7 1L358.3 802.1L399 835.7l-.3 .3Z" class="gg_2"/>
<path d="M357.9 856l-2.3 -.1l-2.2 -.1l-2.4 -.2l-2.3 -.4l-2.3 -.4l-2.1 -.5l-2.2 -.7l-2.2 -.7l-2.1 -.8l-2 -.9l-2.1 -1.1l-2 -1.1l-1.9 -1.2l-1.9 -1.3L326 845l-1.8 -1.5l-1.8 -1.6l-1.7 -1.7l-1 -1.1l-.9 -1L317 836h81.7l-1.8 2.1l-1 1l-.9 1.1l-1 .9l-1 1l-.5 .4l-.5 .5l-.9 .9l-1 .8l-1.1 .8l-1 .8l-1 .7l-2.2 1.4l-1.1 .7l-1 .6l-1.2 .6l-.5 .3l-.6 .3l-1.1 .5l-1.1 .5l-1.2 .5l-1.2 .5l-2.3 .8l-1.2 .3l-1.2 .3l-1.3 .3l-.3 .1l-.3 .1l-.6 .1l-2.5 .5l-1.3 .1l-1.3 .2l-1.3 .1l-1.3 .1l-1.3 .1h-1.3Z" class="gg_2"/>
<path d="M425.9 836H398.7m-104.2 0H317m0 0l1.8 2.1l.9 1l1 1.1l1.7 1.7l1.8 1.6L326 845l1.9 1.5l1.9 1.3l1.9 1.2l2 1.1l2.1 1.1l2 .9l2.1 .8l2.2 .7l2.2 .7l2.1 .5l2.3 .4l2.3 .4l2.4 .2l2.2 .1l2.3 .1h1.7l1.3 -.1l1.3 -.1l1.3 -.1l1.3 -.2l1.3 -.1l2.5 -.5l.6 -.1l.3 -.1l.3 -.1l1.3 -.3l1.2 -.3l1.2 -.3l2.3 -.8l1.2 -.5l1.2 -.5l1.1 -.5l1.1 -.5l.6 -.3l.5 -.3l1.2 -.6l1 -.6l1.1 -.7L387 847l1 -.7l1 -.8l1.1 -.8l1 -.8l.9 -.9l.5 -.5l.5 -.4l1 -1l1 -.9l.9 -1.1l1 -1l1.8 -2.1m0 0H317m81.7 0l.3 -.3l.7 -1l.3 -.4l.3 -.5l.7 -.9l.6 -.9l.6 -1l.6 -.9l1.1 -2l1.1 -1.9l.9 -2l.8 -2l.4 -1.1l.1 -.3l.1 -.2l.2 -.5l.6 -2.1l.6 -2.2l.5 -2.2l.4 -2.2l.1 -1.1l.2 -1.2L410 808l.1 -.6l.1 -.5v-1.2l.1 -1.2v-5.1l-.2 -2.7l-.3 -2.7l-.2 -1.3l-.2 -1.3l-.3 -1.3l-.3 -1.3l-.6 -2.5l-.8 -2.4l-.5 -1.3l-.4 -1.1l-.5 -1.2l-.6 -1.2l-1.1 -2.3L403 774.5l-1.3 -2.2l-.8 -1.1l-.7 -1l-1.7 -2.1l-.8 -1.1l-.9 -1L395 764.1l-1 -1l-1 -1l-1 -.9l-1 -.8l-1 -.9l-1 -.8l-2.1 -1.6l-1.1 -.7l-1.1 -.7l-1.1 -.7l-1.1 -.6l-2.2 -1.1l-1.2 -.6l-1.1 -.4l-2.4 -1l-1.2 -.4l-1.2 -.4l-1.2 -.4l-1.2 -.3l-1.3 -.3l-1.2 -.2L367 749l-1.2 -.2l-1.3 -.1l-1.3 -.2l-1.4 -.1h-1.3l-1.3 -.1h-1.3l-2.8 .1l-2.6 .1l-2.6 .3l-2.6 .5l-2.5 .5l-2.4 .7l-2.4 .8l-2.3 1l-2.4 1l-2.2 1.1l-2.2 1.3l-2.1 1.4l-2.1 1.6l-2.1 1.7l-2 1.7l-1.9 2l-1.9 1.9l-1.7 2.1l-1.6 2.1l-1.5 2.1l-1.4 2.2l-1.3 2.3l-1.1 2.3l-1 2.4l-.9 2.4l-.8 2.4l-.7 2.5l-.5 2.6l-.5 2.6l-.2 2.7l-.2 2.7l-.1 2.8l.1 2.3l.1 2.4l.2 2.3l.4 2.3l.3 2.3l.5 2.2l.3 1.1l.3 1.1l.7 2.1l.8 2.1l.4 1l.4 1.1l1 2l1.1 2l1.1 1.9l1.2 1.9l1.3 1.9l.7 .9l.8 .9" class="gk_2"/>
<path d="M358.3 836V802.6" class="gl_2"/>
<path d="M399.4 836l-.4 -.3L358.3 802.1" class="gm_2"/>
<path d="M358.4 806l-.3 -.1h-.3l-.3 -.1l-.6 -.4l-.3 -.2l-.2 -.2l-.3 -.3l-.1 -.2l-.2 -.3l-.1 -.3l-.1 -.3l-.1 -.3V802l.2 -.7l.3 -.5l.4 -.6l.5 -.4l.6 -.3l.6 -.2h1.3l.3 .1l.3 .1l.3 .1l.3 .2l.2 .2l.3 .2l.2 .3l.2 .3l.3 .5l.1 .3l.1 .4v.3l.1 .3l-.1 .1v.6l-.1 .1v.2l-.1 .3l-.2 .3l-.1 .3l-.1 .1l-.1 .1l-.2 .3l-.3 .2h-.1v.1l-.1 .1l-.3 .2l-.3 .2l-.3 .1h-.3l-.3 .1h-.4Z" class="g2_2"/>
<path d="M368.9 843.2h-7.8" class="gn_2"/>
<path d="M526.3 842.3l-.7 -1l-.7 -.9l-1.3 -1.9l-1.2 -1.9l-1.2 -1.9l-1 -2l-1 -2l-.4 -1l-.4 -1.1l-.8 -2l-.7 -2.2l-.3 -1.1l-.3 -1.1l-.5 -2.2l-.2 -1.1l-.2 -1.1l-.3 -2.3l-.2 -2.3l-.2 -2.4v-2.4l.1 -2.8l.1 -2.7l.3 -2.7l.5 -2.6l.5 -2.6l.7 -2.5l.7 -2.4l.9 -2.4l1 -2.4l1.2 -2.3l1.2 -2.3l1.4 -2.1l1.5 -2.2l1.7 -2.1l1.7 -2.1l1.9 -1.9l1.1 -1.3l1.2 -1.1l1.2 -1.1l1.3 -1l2.5 -2l2.7 -1.7l40.4 15.2l-12.8 31.6v33.4Z" class="gg_2"/>
<path d="M580.5 777.3L540.1 762.1l1.5 -1l1.5 -.8l1.6 -.8l1.6 -.7l1.6 -.7l1.6 -.7l1.7 -.5l1.7 -.5l1.7 -.5l1.7 -.4l1.8 -.3l1.8 -.2l1.8 -.3l1.8 -.1l1.8 -.1h4.6l1.3 .1l1.4 .1l1.2 .1l1.4 .2l1.2 .2l1.3 .3l1.2 .2l1.3 .3l1.2 .3l1.2 .4l1.2 .4l1.2 .4l2.4 .9l1.1 .5l1.2 .6l2.2 1.1l1.1 .6l1.1 .7l1.1 .7l1.1 .7l1 .8l1 .8l1 .8l1.1 .9l1 .8l1 1l1 .9l1 1l1 1.1l1.1 1.2l1 1.2l1 1.2l.9 1.2l.9 1.3l.9 1.3l.8 1.2l.7 1.3l.8 1.4l.7 1.3l.6 1.4l.6 1.3l.6 1.4l.5 1.4l.6 1.5Z" class="gg_2"/>
<path d="M567.7 842.3V808.9l12.8 -31.6L617.1 791l.5 2l.6 2.1l.4 2.1l.4 2.2l.3 2.2l.2 2.2l.2 2.3v4.7l-.1 1.1l-.1 1.2l-.1 .6v.5l-.1 1.2l-.2 1.1l-.1 1.2l-.4 2.2l-.5 2.2l-.6 2.1l-.6 2.2l-.2 .5l-.2 .2v.3l-.4 1l-.8 2.1l-1 1.9l-1 2l-1.1 1.9l-.6 1l-.6 .9l-.6 .9l-.7 1l-.3 .4l-.4 .5l-.6 .9l-.2 .2l-.1 .2Z" class="gg_2"/>
<path d="M567.2 862.3l-2.2 -.1l-2.2 -.1l-2.4 -.2l-2.3 -.4l-2.3 -.4l-2.2 -.5l-2.2 -.7l-2.1 -.7l-2.1 -.8l-2.1 -.9l-2 -1.1l-2 -1.1l-2 -1.2l-1.8 -1.3l-1.9 -1.5l-1.8 -1.5l-1.8 -1.6l-1.7 -1.7l-1 -1.1l-1 -1l-.9 -1.1l-.9 -1h81.8l-.9 1l-.9 1.1l-1 1l-.9 1.1l-1 .9l-1 1l-.5 .4l-.5 .5l-1 .8l-1 .9l-1 .8l-1 .7l-1.1 .8l-2.1 1.4l-1.1 .6L592 856l-1.1 .6l-.6 .3l-.5 .3l-1.1 .5l-1.2 .5l-1.1 .5l-1.2 .4l-2.3 .9l-1.3 .3l-1.2 .3l-1.2 .3l-.3 .1l-.3 .1l-.6 .1l-2.5 .5l-1.3 .1l-1.3 .2l-1.3 .1l-1.3 .1l-1.3 .1h-1.3Z" class="gg_2"/>
<path d="M617.1 791L580.5 777.3L540.1 762.1m77 28.9l-.6 -1.5l-.5 -1.4l-.6 -1.4l-.6 -1.3l-.6 -1.4l-.7 -1.3l-.8 -1.4L612 780l-.8 -1.2l-.9 -1.3l-.9 -1.3l-.9 -1.2l-1 -1.2l-1 -1.2l-1.1 -1.2l-1 -1.1l-1 -1l-1 -.9l-1 -1l-1 -.8l-1.1 -.9l-1 -.8l-1 -.8l-1 -.8l-1.1 -.7l-1.1 -.7l-1.1 -.7l-1.1 -.6l-2.2 -1.1l-1.2 -.6l-1.1 -.5l-2.4 -.9l-1.2 -.4l-1.2 -.4l-1.2 -.4l-1.2 -.3l-1.3 -.3l-1.2 -.2l-1.3 -.3l-1.2 -.2l-1.4 -.2l-1.2 -.1l-1.4 -.1l-1.3 -.1h-4.6l-1.8 .1l-1.8 .1l-1.8 .3l-1.8 .2l-1.8 .3l-1.7 .4l-1.7 .5l-1.7 .5l-1.7 .5l-1.6 .7l-1.6 .7l-1.6 .7l-1.6 .8l-1.5 .8l-1.5 1m68 80.2l.1 -.2l.2 -.2l.6 -.9l.4 -.5l.3 -.4l.7 -1l.6 -.9l.6 -.9l.6 -1l1.1 -1.9l1 -2l1 -1.9l.8 -2.1l.4 -1v-.3l.2 -.2l.2 -.5l.6 -2.2l.6 -2.1l.5 -2.2l.4 -2.2l.1 -1.2l.2 -1.1l.1 -1.2v-.5l.1 -.6l.1 -1.2l.1 -1.1v-4.7l-.2 -2.3l-.2 -2.2l-.3 -2.2l-.4 -2.2l-.4 -2.1l-.6 -2.1l-.5 -2m-90.8 51.3l.9 1l.9 1.1l1 1l1 1.1l1.7 1.7l1.8 1.6l1.8 1.5l1.9 1.5l1.8 1.3l2 1.2l2 1.1l2 1.1l2.1 .9l2.1 .8l2.1 .7l2.2 .7l2.2 .5l2.3 .4l2.3 .4l2.4 .2l2.2 .1l2.2 .1H569l1.3 -.1l1.3 -.1l1.3 -.1l1.3 -.2l1.3 -.1l2.5 -.5l.6 -.1l.3 -.1l.3 -.1l1.2 -.3l1.2 -.3l1.3 -.3l2.3 -.9l1.2 -.4l1.1 -.5l1.2 -.5l1.1 -.5l.5 -.3l.6 -.3L592 856l1.1 -.7l1.1 -.6l2.1 -1.4l1.1 -.8l1 -.7l1 -.8l1 -.9l1 -.8l.5 -.5l.5 -.4l1 -1l1 -.9l.9 -1.1l1 -1l.9 -1.1l.9 -1m0 0H526.3m13.8 -80.2l-2.7 1.7l-2.5 2l-1.3 1l-1.2 1.1l-1.2 1.1l-1.1 1.3l-1.9 1.9l-1.7 2.1l-1.7 2.1l-1.5 2.2l-1.4 2.1l-1.2 2.3l-1.2 2.3l-1 2.4l-.9 2.4l-.7 2.4l-.7 2.5l-.5 2.6l-.5 2.6l-.3 2.7l-.1 2.7l-.1 2.8v2.4l.2 2.4l.2 2.3l.3 2.3l.2 1.1l.2 1.1l.5 2.2l.3 1.1l.3 1.1l.7 2.2l.8 2l.4 1.1l.4 1l1 2l1 2l1.2 1.9l1.2 1.9l1.3 1.9l.7 .9l.7 1" class="go_2"/>
<path d="M580.5 777.3l-12.8 31.6" class="gp_2"/>
<path d="M567.7 842.3V808.9" class="gq_2"/>
<path d="M567.8 812.3l-.3 -.1l-.4 -.1l-.2 -.1l-.6 -.3l-.3 -.2l-.2 -.2l-.3 -.3l-.2 -.3l-.1 -.3l-.1 -.2l-.2 -.4v-.3l-.1 -.3v-.3l.1 -.7l.2 -.6l.2 -.6l.5 -.5l.5 -.5l.6 -.3l.6 -.2h1.3l.2 .1l.4 .1l.2 .1l.3 .2l.3 .2l.2 .3l.3 .2l.1 .3l.4 .6l.1 .3l.1 .3v1.3l-.1 .2v.1l-.1 .4l-.2 .2l-.2 .3l-.1 .1v.2l-.3 .3l-.2 .2h-.1l-.1 .1l-.1 .1l-.3 .1l-.2 .2l-.4 .1h-.1l-.1 .1l-.4 .1h-.3Z" class="g2_2"/>
<path d="M769.9 856.5l-2.3 -.1l-2.1 -.1l-2.4 -.3l-2.3 -.3l-2.3 -.5l-2.2 -.5l-2.2 -.6l-2.1 -.8l-2.2 -.8l-2 -.9l-2.1 -1l-2 -1.2l-1.9 -1.2l-1.9 -1.3L738 845.5L736.2 844l-1.8 -1.7l-1.7 -1.7l-1 -1.1l-1 -1l-.9 -1.1l-.9 -1h81.9l-.9 1l-.9 1.1l-1 1l-.9 1.1l-1 1l-1 .9l-.5 .4l-.5 .5l-1 .9l-1 .8l-1 .8l-1.1 .8l-1 .8l-1 .6l-.6 .4l-.3 .1l-.2 .2l-1.1 .7l-1.1 .6l-1.1 .6l-.6 .3l-.5 .3l-1.1 .6l-1.1 .5l-1.2 .4l-1.2 .5l-2.3 .8l-1.3 .3l-1.2 .4l-1.2 .3h-.3l-.3 .1l-.6 .2l-2.6 .4l-1.2 .2l-1.3 .2l-1.3 .1H773l-1.3 .1l-1.4 .1Z" class="gg_2"/>
<path d="M728.9 836.4l-.7 -1l-.7 -.9l-1.3 -1.8l-1.3 -2l-1.1 -1.9l-1.1 -2l-.9 -2l-.4 -1l-.4 -1l-.8 -2.1l-.7 -2.2l-.3 -1.1l-.3 -1.1l-.5 -2.2l-.2 -1.1l-.2 -1.1l-.3 -2.3l-.2 -2.3l-.2 -2.4v-2.4l.1 -2.8l.1 -2.7l.3 -2.7l.4 -2.6l.6 -2.6l.6 -2.5l.8 -2.4l.9 -2.4l1.1 -2.4l1.1 -2.3l1.2 -2.3l1.4 -2.2l1.5 -2.2l1.7 -2l1.7 -2.1l1.9 -2l.3 -.3l.3 -.3l46 17.2l-9 22.1v33.4Z" class="gg_2"/>
<path d="M779.3 780.9l-46 -17.2l2.2 -2.2l2.4 -1.9l2.3 -1.8l1.3 -.9l1.2 -.7l1.5 -1l1.6 -.9l1.5 -.8l1.6 -.7l1.6 -.7l1.6 -.6l1.7 -.6l1.7 -.5l1.7 -.4l1.8 -.4l1.7 -.4l1.8 -.2l1.8 -.2l1.8 -.2H768l1.9 -.1h1.3l1.4 .1h1.3l1.3 .1l1.3 .2l1.3 .2l1.3 .1l1.3 .3l1.2 .2l1.3 .3l1.2 .3l1.2 .4l1.2 .4l1.2 .4l2.4 1l1.1 .4l1.1 .6l2.3 1.1l1.1 .6l1.1 .7l1 .7l1.1 .8l1.1 .7l1 .8l1 .8l1.1 .9l1 .8l1 1l1 .9l1 1l1.1 1.2l1 1.1l1 1.2l1 1.3l1 1.2l.8 1.2l.9 1.3l.8 1.3l.8 1.3l.7 1.3l.7 1.3l.7 1.4l.6 1.4l.6 1.4l.5 1.4l.5 1.5l.4 1.4l.4 1.4l.4 1.5l.3 1.5l.3 1.5l.2 1.5l.2 1.5l.2 1.6Z" class="gg_2"/>
<path d="M770.3 836.4V803l9 -22.1L822.2 797l.1 1.3l.1 1.4v1.4l.1 1.4l-.1 2.4l-.1 1.1v1.2l-.1 .6l-.1 .5l-.1 1.2l-.1 1.1l-.2 1.2l-.4 2.2l-.5 2.2l-.5 2.1l-.7 2.2l-.2 .5l-.1 .2l-.1 .3l-.4 1l-.8 2.1l-.9 2l-1.1 1.9l-1.1 2l-.6 .9l-.6 1l-.6 .9l-.7 .9l-.7 .9l-.6 1l-.3 .3Z" class="gg_2"/>
<path d="M733.3 763.7l-.3 .3l-.3 .3l-1.9 2l-1.7 2.1l-1.7 2l-1.5 2.2l-1.4 2.2l-1.2 2.3l-1.1 2.3l-1.1 2.4l-.9 2.4l-.8 2.4l-.6 2.5l-.6 2.6l-.4 2.6l-.3 2.7l-.1 2.7l-.1 2.8v2.4l.2 2.4l.2 2.3l.3 2.3l.2 1.1l.2 1.1l.5 2.2l.3 1.1l.3 1.1l.7 2.2l.8 2.1l.4 1l.4 1l.9 2l1.1 2l1.1 1.9l1.3 2l1.3 1.8l.7 .9l.7 1m81.9 0l.3 -.3l.6 -1l.7 -.9l.7 -.9l.6 -.9l.6 -1l.6 -.9l1.1 -2l1.1 -1.9l.9 -2l.8 -2.1l.4 -1l.1 -.3l.1 -.2l.2 -.5l.7 -2.2l.5 -2.1l.5 -2.2l.4 -2.2l.2 -1.2l.1 -1.1l.1 -1.2l.1 -.5l.1 -.6V806l.1 -1.1l.1 -2.4l-.1 -1.4v-1.4l-.1 -1.4l-.1 -1.3m0 0L779.3 780.9l-46 -17.2m77.5 72.7H728.9m0 0l.9 1l.9 1.1l1 1l1 1.1l1.7 1.7l1.8 1.7l1.8 1.5l1.9 1.4l1.9 1.3l1.9 1.2l2 1.2l2.1 1l2 .9l2.2 .8l2.1 .8l2.2 .6l2.2 .5l2.3 .5l2.3 .3l2.4 .3l2.1 .1l2.3 .1h.4l1.4 -.1l1.3 -.1h1.3l1.3 -.1l1.3 -.2l1.2 -.2l2.6 -.4l.6 -.2l.3 -.1h.3l1.2 -.3l1.2 -.4l1.3 -.3l2.3 -.8l1.2 -.5l1.2 -.4l1.1 -.5l1.1 -.6l.5 -.3l.6 -.3l1.1 -.6l1.1 -.6l1.1 -.7l.2 -.2l.3 -.1l.6 -.4l1 -.6l1 -.8l1.1 -.8l1 -.8l1 -.8l1 -.9l.5 -.5l.5 -.4l1 -.9l1 -1l.9 -1.1l1 -1l.9 -1.1l.9 -1M822.2 797l-.2 -1.6l-.2 -1.5l-.2 -1.5l-.3 -1.5l-.3 -1.5l-.4 -1.5l-.4 -1.4l-.4 -1.4l-.5 -1.5l-.5 -1.4l-.6 -1.4l-.6 -1.4l-.7 -1.4l-.7 -1.3l-.7 -1.3l-.8 -1.3l-.8 -1.3l-.9 -1.3l-.8 -1.2l-1 -1.2l-1 -1.3l-1 -1.2l-1 -1.1l-1.1 -1.2l-1 -1l-1 -.9l-1 -1l-1 -.8l-1.1 -.9l-1 -.8l-1 -.8l-1.1 -.7l-1.1 -.8l-1 -.7l-1.1 -.7l-1.1 -.6l-2.3 -1.1l-1.1 -.6l-1.1 -.4l-2.4 -1l-1.2 -.4l-1.2 -.4l-1.2 -.4l-1.2 -.3l-1.3 -.3l-1.2 -.2l-1.3 -.3l-1.3 -.1l-1.3 -.2l-1.3 -.2l-1.3 -.1h-1.3l-1.4 -.1h-1.3l-1.9 .1h-1.9l-1.8 .2l-1.8 .2l-1.8 .2l-1.7 .4l-1.8 .4l-1.7 .4l-1.7 .5l-1.7 .6l-1.6 .6l-1.6 .7l-1.6 .7l-1.5 .8l-1.6 .9l-1.5 1l-1.2 .7l-1.3 .9l-2.3 1.8l-2.4 1.9l-2.2 2.2" class="gh_2"/>
<path d="M779.3 780.9l-9 22.1" class="gr_2"/>
<path d="M770.3 836.4V803" class="gi_2"/>
<path d="M770.4 806.3h-.3l-.3 -.1l-.3 -.1l-.6 -.3l-.2 -.2l-.3 -.2l-.2 -.3l-.2 -.3l-.2 -.3l-.1 -.2l-.1 -.4l-.1 -.3v-1.3l.2 -.6l.3 -.6l.4 -.5l.5 -.5l.6 -.3l.6 -.2h1.3l.3 .1l.4 .1l.2 .1l.3 .2l.3 .2l.2 .3l.2 .2l.2 .3l.4 .6l.1 .3v.3l.1 .3v.7l-.1 .3v.3l-.1 .4l-.2 .2l-.2 .3l-.1 .1v.1h-.1v.1l-.2 .3l-.2 .2h-.1l-.1 .1l-.1 .1l-.3 .1l-.2 .2l-.4 .1h-.1l-.2 .1h-.3l-.3 .1Z" class="g2_2"/>
<path d="M70.4 746h.7v-.8h-.7v.8Z" class="g5_2"/>
<path d="M71.1 746H276.7v-.8H71.1v.8Z" class="g5_2"/>
<path d="M276.7 746h.7v-.8h-.7v.8Z" class="g5_2"/>
<path d="M277.4 746h178v-.8h-178v.8Z" class="g5_2"/>
<path d="M455.4 746h.7v-.8h-.7v.8Z" class="g5_2"/>
<path d="M456.1 746H689.2v-.8H456.1v.8Z" class="g5_2"/>
<path d="M689.1 746h.8v-.8h-.8v.8Z" class="g5_2"/>
<path d="M689.9 746h172v-.8h-172v.8Z" class="g5_2"/>
<path d="M861.9 746h.7v-.8h-.7v.8Z" class="g5_2"/>
<path d="M70.4 865.1h.7V746h-.7V865.1Z" class="g5_2"/>
<path d="M276.7 865.1h.7V746h-.7V865.1Z" class="g5_2"/>
<path d="M455.4 865.1h.7V746h-.7V865.1Z" class="g5_2"/>
<path d="M689.1 865.1h.8V746h-.8V865.1Z" class="g5_2"/>
<path d="M861.9 865.1h.7V746h-.7V865.1Z" class="g5_2"/>
<path d="M82.1 870.3h25" class="gf_2"/>
<path d="M150.9 870.5h23.3" class="gb_2"/>
<path d="M100.5 898.2h24.9" class="gf_2"/>
<path d="M150.9 898.3h23.3" class="gb_2"/>
<path d="M100.5 925.9h24.9" class="gf_2"/>
<path d="M150.9 925.9H175" class="gb_2"/>
<path d="M386.2 938.3H397m70.1 -68h29.8m23.1 0h25.8m42.9 .2h23.2" class="gf_2"/>
<path d="M635.7 870.3h24.4M488.6 922.2h23.3m25.7 -.2H562" class="gb_2"/>
<path d="M597.5 922h29.8m25 0h25.8M488.6 949.7h29.8m25.2 0h25.8" class="gf_2"/>
<path d="M605 949.9h23.3" class="gb_2"/>
<path d="M653.8 949.7h24.4m22.7 -79.4h29.8m25.2 0h25.8" class="gf_2"/>
<path d="M700.9 898.3h23.3m25.7 -.1h24.4" class="gb_2"/>
<path d="M755.9 925.9h29.8m25.2 0h25.8" class="gf_2"/>
<path d="M719.2 953.9h23.3m25.7 -.2h24.4" class="gb_2"/>
<path d="M70.4 865.9h.7v-.8h-.7v.8Z" class="g5_2"/>
<path d="M71.1 865.9H276.7v-.8H71.1v.8Z" class="g5_2"/>
<path d="M276.7 865.9h.7v-.8h-.7v.8Z" class="g5_2"/>
<path d="M277.4 865.9h178v-.8h-178v.8Z" class="g5_2"/>
<path d="M455.4 865.9h.7v-.8h-.7v.8Z" class="g5_2"/>
<path d="M456.1 865.9H689.2v-.8H456.1v.8Z" class="g5_2"/>
<path d="M689.1 865.9h.8v-.8h-.8v.8Z" class="g5_2"/>
<path d="M689.9 865.9h172v-.8h-172v.8Z" class="g5_2"/>
<path d="M861.9 865.9h.7v-.8h-.7v.8Z" class="g5_2"/>
<path d="M70.4 977.2h.7V865.9h-.7V977.2Z" class="g5_2"/>
<path d="M70.4 977.9h.7v-.7h-.7v.7Z" class="g5_2"/>
<path d="M70.4 977.9h.7v-.7h-.7v.7Z" class="g5_2"/>
<path d="M71.1 977.9H276.7v-.7H71.1v.7Z" class="g5_2"/>
<path d="M276.7 977.2h.7V865.9h-.7V977.2Z" class="g5_2"/>
<path d="M276.7 977.9h.7v-.7h-.7v.7Z" class="g5_2"/>
<path d="M277.4 977.9h178v-.7h-178v.7Z" class="g5_2"/>
<path d="M455.4 977.2h.7V865.9h-.7V977.2Z" class="g5_2"/>
<path d="M455.4 977.9h.7v-.7h-.7v.7Z" class="g5_2"/>
<path d="M456.1 977.9H689.2v-.7H456.1v.7Z" class="g5_2"/>
<path d="M689.1 977.2h.8V865.9h-.8V977.2Z" class="g5_2"/>
<path d="M689.1 977.9h.8v-.7h-.8v.7Z" class="g5_2"/>
<path d="M689.9 977.9h172v-.7h-172v.7Z" class="g5_2"/>
<path d="M861.9 977.2h.7V865.9h-.7V977.2Z" class="g5_2"/>
<path d="M861.9 977.9h.7v-.7h-.7v.7Z" class="g5_2"/>
<path d="M861.9 977.9h.7v-.7h-.7v.7Z" class="g5_2"/>
<path d="M70.1 1002l-.9 -.1l-.7 -.2l-.8 -.4l-.6 -.5l-.4 -.4l-.2 -.3l-.4 -.7l-.2 -.9l-.1 -.8V985.1l.1 -.9l.2 -.8l.4 -.8l.6 -.6l.6 -.6l.8 -.4l.7 -.2H83.5l.4 .1l.4 .1l.7 .4l.3 .3l.4 .3l.5 .6l.4 .8l.3 .8l.1 .9v12.6l-.1 .4v.4l-.3 .9l-.2 .3l-.1 .2l-.1 .2l-.3 .3l-.1 .1l-.1 .1v.2l-.4 .2l-.3 .3l-.2 .1l-.2 .1l-.3 .2l-.4 .1h-.1l-.1 .1h-.6v.1h-.4Z" class="g6_2"/>
</svg>