<?xml version="1.0" encoding="UTF-8" standalone="no"?>
<!DOCTYPE svg PUBLIC "-//W3C//DTD SVG 1.1//EN"
"http://www.w3.org/Graphics/SVG/1.1/DTD/svg11.dtd">
<svg viewBox="0 0 909 1286" version="1.1" xmlns="http://www.w3.org/2000/svg" xmlns:xlink="http://www.w3.org/1999/xlink">
<defs>
<clipPath id="c0_1"><path d="M-.2 1286.6v-74.9h910v74.9Z"/></clipPath>
<clipPath id="c1_1"><path d="M.1 152.6V0H909.8V152.6Z"/></clipPath>
<clipPath id="c2_1"><path d="M23 203.8V154.1H909.8v49.7Z"/></clipPath>
<clipPath id="c3_1"><path d="M489 757.9V696.1H852.1v61.8Z"/></clipPath>
<style type="text/css"><![CDATA[
.g0_1{
fill: none;
stroke: #000;
stroke-width: 0.763;
stroke-linecap: square;
stroke-miterlimit: 10;
}
.g1_1{
fill: #000;
}
]]></style>
</defs>
<image clip-path="url(#c0_1)" preserveAspectRatio="none" x="-4" y="1212" width="952" height="131" xlink:href="img/1.jpg"/>
<path d="M285.6 622.2h18m59.4 0h20" class="g0_1"/>
<path d="M281.6 860h.7v-.7h-.7v.7Z" class="g1_1"/>
<path d="M281.6 860h.7v-.7h-.7v.7Z" class="g1_1"/>
<path d="M282.3 860h30.1v-.7H282.3v.7Z" class="g1_1"/>
<path d="M312.4 860h.7v-.7h-.7v.7Z" class="g1_1"/>
<path d="M312.4 860h.7v-.7h-.7v.7Z" class="g1_1"/>
<path d="M281.6 883.8h.7V860h-.7v23.8Z" class="g1_1"/>
<path d="M312.4 883.8h.7V860h-.7v23.8Z" class="g1_1"/>
<path d="M281.6 884.6h.7v-.8h-.7v.8Z" class="g1_1"/>
<path d="M281.6 884.6h.7v-.8h-.7v.8Z" class="g1_1"/>
<path d="M282.3 884.6h30.1v-.8H282.3v.8Z" class="g1_1"/>
<path d="M312.4 884.6h.7v-.8h-.7v.8Z" class="g1_1"/>
<path d="M312.4 884.6h.7v-.8h-.7v.8Z" class="g1_1"/>
<path d="M331.7 860.2h.7v-.7h-.7v.7Z" class="g1_1"/>
<path d="M331.7 860.2h.7v-.7h-.7v.7Z" class="g1_1"/>
<path d="M332.4 860.2h34.3v-.7H332.4v.7Z" class="g1_1"/>
<path d="M366.7 860.2h.7v-.7h-.7v.7Z" class="g1_1"/>
<path d="M366.7 860.2h.7v-.7h-.7v.7Z" class="g1_1"/>
<path d="M331.7 883.1h.7V860.2h-.7v22.9Z" class="g1_1"/>
<path d="M366.7 883.1h.7V860.2h-.7v22.9Z" class="g1_1"/>
<path d="M331.7 883.8h.7v-.7h-.7v.7Z" class="g1_1"/>
<path d="M331.7 883.8h.7v-.7h-.7v.7Z" class="g1_1"/>
<path d="M332.4 883.8h34.3v-.7H332.4v.7Z" class="g1_1"/>
<path d="M366.7 883.8h.7v-.7h-.7v.7Z" class="g1_1"/>
<path d="M366.7 883.8h.7v-.7h-.7v.7Z" class="g1_1"/>
<path d="M385.9 860.2h.8v-.7h-.8v.7Z" class="g1_1"/>
<path d="M385.9 860.2h.8v-.7h-.8v.7Z" class="g1_1"/>
<path d="M386.7 860.2h26.4v-.7H386.7v.7Z" class="g1_1"/>
<path d="M413 860.2h.8v-.7H413v.7Z" class="g1_1"/>
<path d="M413 860.2h.8v-.7H413v.7Z" class="g1_1"/>
<path d="M385.9 883.1h.8V860.2h-.8v22.9Z" class="g1_1"/>
<path d="M413 883.1h.8V860.2H413v22.9Z" class="g1_1"/>
<path d="M385.9 883.8h.8v-.7h-.8v.7Z" class="g1_1"/>
<path d="M385.9 883.8h.8v-.7h-.8v.7Z" class="g1_1"/>
<path d="M386.7 883.8h26.4v-.7H386.7v.7Z" class="g1_1"/>
<path d="M413 883.8h.8v-.7H413v.7Z" class="g1_1"/>
<path d="M413 883.8h.8v-.7H413v.7Z" class="g1_1"/>
<path d="M131.3 885.5h.7v-.7h-.7v.7Z" class="g1_1"/>
<path d="M131.3 885.5h.7v-.7h-.7v.7Z" class="g1_1"/>
<path d="M132 885.5h30.2v-.7H132v.7Z" class="g1_1"/>
<path d="M162.2 885.5h.8v-.7h-.8v.7Z" class="g1_1"/>
<path d="M162.2 885.5h.8v-.7h-.8v.7Z" class="g1_1"/>
<path d="M131.3 909.3h.7V885.5h-.7v23.8Z" class="g1_1"/>
<path d="M162.2 909.3h.8V885.5h-.8v23.8Z" class="g1_1"/>
<path d="M131.3 910.1h.7v-.8h-.7v.8Z" class="g1_1"/>
<path d="M131.3 910.1h.7v-.8h-.7v.8Z" class="g1_1"/>
<path d="M132 910.1h30.2v-.8H132v.8Z" class="g1_1"/>
<path d="M162.2 910.1h.8v-.8h-.8v.8Z" class="g1_1"/>
<path d="M162.2 910.1h.8v-.8h-.8v.8Z" class="g1_1"/>
<path d="M382.6 910.8h.8v-.7h-.8v.7Z" class="g1_1"/>
<path d="M382.6 910.8h.8v-.7h-.8v.7Z" class="g1_1"/>
<path d="M383.4 910.8h30.2v-.7H383.4v.7Z" class="g1_1"/>
<path d="M413.6 910.8h.7v-.7h-.7v.7Z" class="g1_1"/>
<path d="M413.6 910.8h.7v-.7h-.7v.7Z" class="g1_1"/>
<path d="M382.6 934.6h.8V910.8h-.8v23.8Z" class="g1_1"/>
<path d="M413.6 934.6h.7V910.8h-.7v23.8Z" class="g1_1"/>
<path d="M382.6 935.4h.8v-.8h-.8v.8Z" class="g1_1"/>
<path d="M382.6 935.4h.8v-.8h-.8v.8Z" class="g1_1"/>
<path d="M383.4 935.4h30.2v-.8H383.4v.8Z" class="g1_1"/>
<path d="M413.6 935.4h.7v-.8h-.7v.8Z" class="g1_1"/>
<path d="M413.6 935.4h.7v-.8h-.7v.8Z" class="g1_1"/>
<path d="M131.3 936.1h.7v-.7h-.7v.7Z" class="g1_1"/>
<path d="M131.3 936.1h.7v-.7h-.7v.7Z" class="g1_1"/>
<path d="M132 936.1h34.3v-.7H132v.7Z" class="g1_1"/>
<path d="M166.3 936.1h.7v-.7h-.7v.7Z" class="g1_1"/>
<path d="M166.3 936.1h.7v-.7h-.7v.7Z" class="g1_1"/>
<path d="M131.3 958.8h.7V936.1h-.7v22.7Z" class="g1_1"/>
<path d="M166.3 958.8h.7V936.1h-.7v22.7Z" class="g1_1"/>
<path d="M131.3 959.6h.7v-.8h-.7v.8Z" class="g1_1"/>
<path d="M131.3 959.6h.7v-.8h-.7v.8Z" class="g1_1"/>
<path d="M132 959.6h34.3v-.8H132v.8Z" class="g1_1"/>
<path d="M166.3 959.6h.7v-.8h-.7v.8Z" class="g1_1"/>
<path d="M166.3 959.6h.7v-.8h-.7v.8Z" class="g1_1"/>
<path d="M364.3 960.5h.7v-.8h-.7v.8Z" class="g1_1"/>
<path d="M364.3 960.5h.7v-.8h-.7v.8Z" class="g1_1"/>
<path d="M365 960.5h34.5v-.8H365v.8Z" class="g1_1"/>
<path d="M399.5 960.5h.7v-.8h-.7v.8Z" class="g1_1"/>
<path d="M399.5 960.5h.7v-.8h-.7v.8Z" class="g1_1"/>
<path d="M364.3 983.2h.7V960.5h-.7v22.7Z" class="g1_1"/>
<path d="M399.5 983.2h.7V960.5h-.7v22.7Z" class="g1_1"/>
<path d="M364.3 983.9h.7v-.7h-.7v.7Z" class="g1_1"/>
<path d="M364.3 983.9h.7v-.7h-.7v.7Z" class="g1_1"/>
<path d="M365 983.9h34.5v-.7H365v.7Z" class="g1_1"/>
<path d="M399.5 983.9h.7v-.7h-.7v.7Z" class="g1_1"/>
<path d="M399.5 983.9h.7v-.7h-.7v.7Z" class="g1_1"/>
<path d="M131.3 984.7h.7v-.8h-.7v.8Z" class="g1_1"/>
<path d="M131.3 984.7h.7v-.8h-.7v.8Z" class="g1_1"/>
<path d="M132 984.7h26v-.8H132v.8Z" class="g1_1"/>
<path d="M158 984.7h.8v-.8H158v.8Z" class="g1_1"/>
<path d="M158 984.7h.8v-.8H158v.8Z" class="g1_1"/>
<path d="M131.3 1007.4h.7V984.7h-.7v22.7Z" class="g1_1"/>
<path d="M158 1007.4h.8V984.7H158v22.7Z" class="g1_1"/>
<path d="M131.3 1008.1h.7v-.7h-.7v.7Z" class="g1_1"/>
<path d="M131.3 1008.1h.7v-.7h-.7v.7Z" class="g1_1"/>
<path d="M132 1008.1h26v-.7H132v.7Z" class="g1_1"/>
<path d="M158 1008.1h.8v-.7H158v.7Z" class="g1_1"/>
<path d="M158 1008.1h.8v-.7H158v.7Z" class="g1_1"/>
<path d="M336.8 1009.1h.7v-.8h-.7v.8Z" class="g1_1"/>
<path d="M336.8 1009.1h.7v-.8h-.7v.8Z" class="g1_1"/>
<path d="M337.5 1009.1h26.2v-.8H337.5v.8Z" class="g1_1"/>
<path d="M363.7 1009.1h.8v-.8h-.8v.8Z" class="g1_1"/>
<path d="M363.7 1009.1h.8v-.8h-.8v.8Z" class="g1_1"/>
<path d="M336.8 1031.8h.7v-22.7h-.7v22.7Z" class="g1_1"/>
<path d="M363.7 1031.8h.8v-22.7h-.8v22.7Z" class="g1_1"/>
<path d="M336.8 1032.5h.7v-.7h-.7v.7Z" class="g1_1"/>
<path d="M336.8 1032.5h.7v-.7h-.7v.7Z" class="g1_1"/>
<path d="M337.5 1032.5h26.2v-.7H337.5v.7Z" class="g1_1"/>
<path d="M363.7 1032.5h.8v-.7h-.8v.7Z" class="g1_1"/>
<path d="M363.7 1032.5h.8v-.7h-.8v.7Z" class="g1_1"/>
<path d="M327.1 1054.9h36.6v-.9H327.1v.9Z" class="g1_1"/>
<path d="M442.9 1033.3h.8v-.8h-.8v.8Z" class="g1_1"/>
<path d="M442.9 1033.3h.8v-.8h-.8v.8Z" class="g1_1"/>
<path d="M443.7 1033.3h30.4v-.8H443.7v.8Z" class="g1_1"/>
<path d="M474.1 1033.3h.7v-.8h-.7v.8Z" class="g1_1"/>
<path d="M474.1 1033.3h.7v-.8h-.7v.8Z" class="g1_1"/>
<path d="M442.9 1057.1h.8v-23.8h-.8v23.8Z" class="g1_1"/>
<path d="M474.1 1057.1h.7v-23.8h-.7v23.8Z" class="g1_1"/>
<path d="M442.9 1057.8h.8v-.7h-.8v.7Z" class="g1_1"/>
<path d="M442.9 1057.8h.8v-.7h-.8v.7Z" class="g1_1"/>
<path d="M443.7 1057.8h30.4v-.7H443.7v.7Z" class="g1_1"/>
<path d="M474.1 1057.8h.7v-.7h-.7v.7Z" class="g1_1"/>
<path d="M474.1 1057.8h.7v-.7h-.7v.7Z" class="g1_1"/>
<path d="M571.3 1033.4h.7v-.7h-.7v.7Z" class="g1_1"/>
<path d="M571.3 1033.4h.7v-.7h-.7v.7Z" class="g1_1"/>
<path d="M572 1033.4h34.3v-.7H572v.7Z" class="g1_1"/>
<path d="M606.3 1033.4h.7v-.7h-.7v.7Z" class="g1_1"/>
<path d="M606.3 1033.4h.7v-.7h-.7v.7Z" class="g1_1"/>
<path d="M571.3 1056.4h.7v-23h-.7v23Z" class="g1_1"/>
<path d="M606.3 1056.4h.7v-23h-.7v23Z" class="g1_1"/>
<path d="M571.3 1057.1h.7v-.7h-.7v.7Z" class="g1_1"/>
<path d="M571.3 1057.1h.7v-.7h-.7v.7Z" class="g1_1"/>
<path d="M572 1057.1h34.3v-.7H572v.7Z" class="g1_1"/>
<path d="M606.3 1057.1h.7v-.7h-.7v.7Z" class="g1_1"/>
<path d="M606.3 1057.1h.7v-.7h-.7v.7Z" class="g1_1"/>
<path d="M704.7 1033.4h.8v-.7h-.8v.7Z" class="g1_1"/>
<path d="M704.7 1033.4h.8v-.7h-.8v.7Z" class="g1_1"/>
<path d="M705.5 1033.4h26.7v-.7H705.5v.7Z" class="g1_1"/>
<path d="M732.2 1033.4h.8v-.7h-.8v.7Z" class="g1_1"/>
<path d="M732.2 1033.4h.8v-.7h-.8v.7Z" class="g1_1"/>
<path d="M704.7 1056.4h.8v-23h-.8v23Z" class="g1_1"/>
<path d="M732.2 1056.4h.8v-23h-.8v23Z" class="g1_1"/>
<path d="M704.7 1057.1h.8v-.7h-.8v.7Z" class="g1_1"/>
<path d="M704.7 1057.1h.8v-.7h-.8v.7Z" class="g1_1"/>
<path d="M705.5 1057.1h26.7v-.7H705.5v.7Z" class="g1_1"/>
<path d="M732.2 1057.1h.8v-.7h-.8v.7Z" class="g1_1"/>
<path d="M732.2 1057.1h.8v-.7h-.8v.7Z" class="g1_1"/>
<path d="M812.2 1033.3h.7v-.8h-.7v.8Z" class="g1_1"/>
<path d="M812.2 1033.3h.7v-.8h-.7v.8Z" class="g1_1"/>
<path d="M812.9 1033.3h31v-.8h-31v.8Z" class="g1_1"/>
<path d="M843.9 1033.3h.7v-.8h-.7v.8Z" class="g1_1"/>
<path d="M843.9 1033.3h.7v-.8h-.7v.8Z" class="g1_1"/>
<path d="M812.2 1057.1h.7v-23.8h-.7v23.8Z" class="g1_1"/>
<path d="M843.9 1057.1h.7v-23.8h-.7v23.8Z" class="g1_1"/>
<path d="M812.2 1057.8h.7v-.7h-.7v.7Z" class="g1_1"/>
<path d="M812.2 1057.8h.7v-.7h-.7v.7Z" class="g1_1"/>
<path d="M812.9 1057.8h31v-.7h-31v.7Z" class="g1_1"/>
<path d="M843.9 1057.8h.7v-.7h-.7v.7Z" class="g1_1"/>
<path d="M843.9 1057.8h.7v-.7h-.7v.7Z" class="g1_1"/>
<path d="M108.3 1058.7h.8v-.7h-.8v.7Z" class="g1_1"/>
<path d="M108.3 1058.7h.8v-.7h-.8v.7Z" class="g1_1"/>
<path d="M109.1 1058.7h28.2v-.7H109.1v.7Z" class="g1_1"/>
<path d="M137.3 1058.7h.8v-.7h-.8v.7Z" class="g1_1"/>
<path d="M137.3 1058.7h.8v-.7h-.8v.7Z" class="g1_1"/>
<path d="M108.3 1081.5h.8v-22.8h-.8v22.8Z" class="g1_1"/>
<path d="M137.3 1081.5h.8v-22.8h-.8v22.8Z" class="g1_1"/>
<path d="M108.3 1082.2h.8v-.7h-.8v.7Z" class="g1_1"/>
<path d="M108.3 1082.2h.8v-.7h-.8v.7Z" class="g1_1"/>
<path d="M109.1 1082.2h28.2v-.7H109.1v.7Z" class="g1_1"/>
<path d="M137.3 1082.2h.8v-.7h-.8v.7Z" class="g1_1"/>
<path d="M137.3 1082.2h.8v-.7h-.8v.7Z" class="g1_1"/>
<path d="M156.6 1058.7h.7v-.7h-.7v.7Z" class="g1_1"/>
<path d="M156.6 1058.7h.7v-.7h-.7v.7Z" class="g1_1"/>
<path d="M157.3 1058.7h26.2v-.7H157.3v.7Z" class="g1_1"/>
<path d="M183.5 1058.7h.8v-.7h-.8v.7Z" class="g1_1"/>
<path d="M183.5 1058.7h.8v-.7h-.8v.7Z" class="g1_1"/>
<path d="M156.6 1081.5h.7v-22.8h-.7v22.8Z" class="g1_1"/>
<path d="M183.5 1081.5h.8v-22.8h-.8v22.8Z" class="g1_1"/>
<path d="M156.6 1082.2h.7v-.7h-.7v.7Z" class="g1_1"/>
<path d="M156.6 1082.2h.7v-.7h-.7v.7Z" class="g1_1"/>
<path d="M157.3 1082.2h26.2v-.7H157.3v.7Z" class="g1_1"/>
<path d="M183.5 1082.2h.8v-.7h-.8v.7Z" class="g1_1"/>
<path d="M183.5 1082.2h.8v-.7h-.8v.7Z" class="g1_1"/>
<image clip-path="url(#c1_1)" preserveAspectRatio="none" x="0" y="0" width="915" height="152" xlink:href="img/2.jpg"/>
<image clip-path="url(#c2_1)" preserveAspectRatio="none" x="23" y="154" width="1038" height="49" xlink:href="img/3.png"/>
<image preserveAspectRatio="none" x="666" y="260" width="183" height="166" xlink:href="img/4.jpg"/>
<image preserveAspectRatio="none" x="44" y="282" width="56" height="57" xlink:href="img/5.jpg"/>
<image preserveAspectRatio="none" x="44" y="474" width="56" height="57" xlink:href="img/6.jpg"/>
<image preserveAspectRatio="none" x="515" y="461" width="160" height="135" xlink:href="img/7.jpg"/>
<image preserveAspectRatio="none" x="699" y="465" width="147" height="134" xlink:href="img/8.jpg"/>
<image clip-path="url(#c3_1)" preserveAspectRatio="none" x="489" y="696" width="363" height="62" xlink:href="img/9.jpg"/>
<image preserveAspectRatio="none" x="44" y="711" width="56" height="56" xlink:href="img/10.jpg"/>
<image preserveAspectRatio="none" x="43" y="882" width="57" height="56" xlink:href="img/11.jpg"/>
<image preserveAspectRatio="none" x="729" y="861" width="123" height="159" xlink:href="img/12.jpg"/>
</svg>