<?xml version="1.0" encoding="UTF-8" standalone="no"?>
<!DOCTYPE svg PUBLIC "-//W3C//DTD SVG 1.1//EN"
"http://www.w3.org/Graphics/SVG/1.1/DTD/svg11.dtd">
<svg viewBox="0 0 909 1286" version="1.1" xmlns="http://www.w3.org/2000/svg" xmlns:xlink="http://www.w3.org/1999/xlink">
<defs>
<clipPath id="c0_2"><path d="M-.2 1286.6v-74.9h910v74.9Z"/></clipPath>
<clipPath id="c1_2"><path d="M719 563.6V450H845.3V563.6Z"/></clipPath>
<style type="text/css"><![CDATA[
.g0_2{
fill: none;
stroke: #000;
stroke-width: 1.099;
stroke-linecap: square;
stroke-miterlimit: 10;
}
.g1_2{
fill: none;
stroke: #000;
stroke-width: 0.765;
stroke-linecap: square;
stroke-miterlimit: 10;
}
.g2_2{
fill: none;
stroke: #000;
stroke-width: 0.763;
stroke-linecap: square;
stroke-miterlimit: 10;
}
.g3_2{
fill: none;
stroke: #000;
stroke-width: 1.527;
stroke-linecap: square;
stroke-miterlimit: 10;
}
.g4_2{
fill: none;
stroke: #000;
stroke-width: 0.761;
stroke-linecap: square;
stroke-miterlimit: 10;
}
]]></style>
</defs>
<image clip-path="url(#c0_2)" preserveAspectRatio="none" x="-4" y="1212" width="952" height="131" xlink:href="img/1.jpg"/>
<path d="M345 117.3H312.8m175.2 0H456m127.7 0H552.6m85.9 0h-32M143.2 163.2H109.1m116.6 0H193.6m.6 48.5h18.3m47.1 0h18.5m48.4 0h18.4" class="g0_2"/>
<path d="M397.9 678.3h23.7" class="g1_2"/>
<path d="M446.8 678.3H472" class="g2_2"/>
<path d="M552.2 677.7H576M369.4 706.1h23.8m79.4 -.6h23.8" class="g1_2"/>
<path d="M253.9 753.4l2.4 -1.4" class="g2_2"/>
<path d="M256.3 752.4l3.4 6.2" class="g3_2"/>
<path d="M260 758.6l4.5 -18.5m0 0h19.6m54.5 13h16.9" class="g2_2"/>
<path d="M450.9 826.9h23.8" class="g1_2"/>
<path d="M168.7 972.3h24.6" class="g2_2"/>
<path d="M219.1 972.3h24.4" class="g1_2"/>
<path d="M478.9 972.3h22.8m24.5 0h22.4" class="g4_2"/>
<path d="M517 998.4h23.8m25.2 .1h24.4" class="g1_2"/>
<path d="M111.3 1024.7h22.5" class="g4_2"/>
<path d="M136.1 1051h23.8" class="g1_2"/>
<path d="M185 1051.2h22.5" class="g4_2"/>
<path d="M232.3 1051.2h24.4m49 -.2h23.7" class="g1_2"/>
<path d="M354.6 1051.2h22.5" class="g4_2"/>
<path d="M401.9 1051.2h24.4m-290.6 26h23.8m25.2 .2h24.4" class="g1_2"/>
<path d="M233.6 1077.4h22.5" class="g4_2"/>
<path d="M306.4 1077.2h23.7" class="g2_2"/>
<path d="M355.3 1077.4h24.4" class="g1_2"/>
<path d="M404.3 1077.4h22.4" class="g4_2"/>
<image preserveAspectRatio="none" x="706" y="78" width="122" height="118" xlink:href="img/2.jpg"/>
<image preserveAspectRatio="none" x="43" y="106" width="57" height="56" xlink:href="img/3.jpg"/>
<image preserveAspectRatio="none" x="43" y="463" width="57" height="57" xlink:href="img/4.jpg"/>
<image clip-path="url(#c1_2)" preserveAspectRatio="none" x="719" y="450" width="126" height="113" xlink:href="img/5.jpg"/>
<image preserveAspectRatio="none" x="697" y="672" width="108" height="124" xlink:href="img/6.jpg"/>
<image preserveAspectRatio="none" x="43" y="697" width="57" height="56" xlink:href="img/7.jpg"/>
<image preserveAspectRatio="none" x="684" y="832" width="161" height="72" xlink:href="img/8.jpg"/>
<image preserveAspectRatio="none" x="43" y="992" width="57" height="56" xlink:href="img/9.jpg"/>
<image preserveAspectRatio="none" x="638" y="980" width="190" height="85" xlink:href="img/10.jpg"/>
<image preserveAspectRatio="none" x="43" y="1171" width="57" height="57" xlink:href="img/11.jpg"/>
<image preserveAspectRatio="none" x="713" y="290" width="139" height="101" xlink:href="img/12.jpg"/>
<image preserveAspectRatio="none" x="43" y="315" width="57" height="57" xlink:href="img/13.jpg"/>
</svg>