<?xml version="1.0" encoding="UTF-8" standalone="no"?>
<!DOCTYPE svg PUBLIC "-//W3C//DTD SVG 1.1//EN"
"http://www.w3.org/Graphics/SVG/1.1/DTD/svg11.dtd">
<svg viewBox="0 0 909 1286" version="1.1" xmlns="http://www.w3.org/2000/svg" xmlns:xlink="http://www.w3.org/1999/xlink">
<defs>
<clipPath id="c0_2"><path d="M-.2 1286.6v-74.9h910v74.9Z"/></clipPath>
<clipPath id="c1_2"><path d="M713.5 1148.8V1009.7H835v139.1Z"/></clipPath>
<style type="text/css"><![CDATA[
.g0_2{
fill: none;
stroke: #000;
stroke-width: 1.099;
stroke-linecap: square;
stroke-miterlimit: 10;
}
]]></style>
</defs>
<image clip-path="url(#c0_2)" preserveAspectRatio="none" x="-4" y="1212" width="952" height="131" xlink:href="img/1.jpg"/>
<path d="M132.6 188.3l2.5 -1.5m0 0l6.4 13.2m0 0l4.1 -23.6m0 0h48.9m74.1 9.3h36.7" class="g0_2"/>
<image preserveAspectRatio="none" x="662" y="66" width="148" height="150" xlink:href="img/2.jpg"/>
<image preserveAspectRatio="none" x="43" y="90" width="57" height="57" xlink:href="img/3.jpg"/>
<image preserveAspectRatio="none" x="44" y="283" width="56" height="56" xlink:href="img/4.jpg"/>
<image preserveAspectRatio="none" x="574" y="253" width="228" height="224" xlink:href="img/5.jpg"/>
<image preserveAspectRatio="none" x="704" y="507" width="124" height="108" xlink:href="img/6.jpg"/>
<image preserveAspectRatio="none" x="43" y="526" width="57" height="56" xlink:href="img/7.jpg"/>
<image preserveAspectRatio="none" x="669" y="669" width="140" height="116" xlink:href="img/8.jpg"/>
<image preserveAspectRatio="none" x="43" y="860" width="57" height="56" xlink:href="img/9.jpg"/>
<image preserveAspectRatio="none" x="661" y="834" width="161" height="120" xlink:href="img/10.jpg"/>
<image preserveAspectRatio="none" x="43" y="1023" width="57" height="56" xlink:href="img/11.jpg"/>
<image clip-path="url(#c1_2)" preserveAspectRatio="none" x="714" y="1010" width="121" height="139" xlink:href="img/12.jpg"/>
</svg>