<?xml version="1.0" encoding="UTF-8" standalone="no"?>
<!DOCTYPE svg PUBLIC "-//W3C//DTD SVG 1.1//EN"
"http://www.w3.org/Graphics/SVG/1.1/DTD/svg11.dtd">
<svg viewBox="0 0 909 1286" version="1.1" xmlns="http://www.w3.org/2000/svg" xmlns:xlink="http://www.w3.org/1999/xlink">
<defs>
<clipPath id="c0_9"><path d="M-.2 1286.6v-74.9h910v74.9Z"/></clipPath>
<clipPath id="c1_9"><path d="M648.8 164.3V69.5H827.5v94.8Z"/></clipPath>
<clipPath id="c2_9"><path d="M764 775.4V656.3h88.1V775.4Z"/></clipPath>
<clipPath id="c3_9"><path d="M624.2 952.1v-112H843.6v112Z"/></clipPath>
<style type="text/css"><![CDATA[
.g0_9{
fill: none;
stroke: #000;
stroke-width: 0.763;
stroke-linecap: square;
stroke-miterlimit: 10;
}
.g1_9{
fill: none;
stroke: #000;
stroke-width: 0.765;
stroke-linecap: square;
stroke-miterlimit: 10;
}
.g2_9{
fill: none;
stroke: #000;
stroke-width: 0.761;
stroke-linecap: square;
stroke-miterlimit: 10;
}
.g3_9{
fill: none;
stroke: #000;
stroke-width: 0.762;
stroke-linecap: square;
stroke-miterlimit: 10;
}
.g4_9{
fill: none;
stroke: #000;
stroke-width: 0.766;
stroke-linecap: square;
stroke-miterlimit: 10;
}
]]></style>
</defs>
<image clip-path="url(#c0_9)" preserveAspectRatio="none" x="-4" y="1212" width="952" height="131" xlink:href="img/1.jpg"/>
<path d="M303.3 73.3h25.2" class="g0_9"/>
<path d="M345.5 73.5h23.2m161.7 -.2h23.8m25.2 .2h24.4m-474.1 26h23.5" class="g1_9"/>
<path d="M206.1 99.7h22m52.8 0h22" class="g2_9"/>
<path d="M355.7 99.7h21.2M235.1 125.8h25.2" class="g0_9"/>
<path d="M285.5 126h23.2m63.1 97.2h24.1m24.9 .2h24.3" class="g1_9"/>
<path d="M298.5 249.4h25.2" class="g0_9"/>
<path d="M384.9 249.6h23.2" class="g1_9"/>
<path d="M478.9 276.1h22.5" class="g2_9"/>
<path d="M526.2 276.1H550" class="g1_9"/>
<path d="M600.7 276.1h22.4" class="g2_9"/>
<path d="M648 276.1h23.8M439.6 352.6h23.8m25.2 0h24.1" class="g1_9"/>
<path d="M574.2 352.6h25.2" class="g0_9"/>
<path d="M111.3 379h24.1m61.6 -.2h23.5" class="g1_9"/>
<path d="M282.6 379h22.2" class="g2_9"/>
<path d="M115.1 523.9h23.8" class="g1_9"/>
<path d="M156.1 524.1h24.3m1.5 46.9h20.2" class="g0_9"/>
<path d="M316.3 571h18.1" class="g2_9"/>
<path d="M147.2 690.6h23.9m25.1 0H220" class="g1_9"/>
<path d="M245.1 690.6h22.3" class="g2_9"/>
<path d="M292.4 690.4H319" class="g3_9"/>
<path d="M344.3 690.4h27.2" class="g0_9"/>
<path d="M396.2 690.4h26" class="g3_9"/>
<path d="M466.5 690.6h19.8" class="g4_9"/>
<path d="M510.8 690.4h16.1" class="g0_9"/>
<path d="M552.1 690.4h21.4" class="g2_9"/>
<path d="M599.4 690.6h29" class="g1_9"/>
<path d="M652.9 690.4h28.7m24.8 0h25.5" class="g0_9"/>
<path d="M506.8 718.3h19" class="g4_9"/>
<path d="M551.2 718.1h21.2m24.6 .2h24.3" class="g0_9"/>
<path d="M645.9 718.1h28.4m25.1 0h27.9" class="g1_9"/>
<image clip-path="url(#c1_9)" preserveAspectRatio="none" x="649" y="70" width="178" height="94" xlink:href="img/2.jpg"/>
<image preserveAspectRatio="none" x="43" y="92" width="57" height="56" xlink:href="img/3.jpg"/>
<image preserveAspectRatio="none" x="696" y="218" width="137" height="92" xlink:href="img/4.jpg"/>
<image preserveAspectRatio="none" x="713" y="343" width="97" height="118" xlink:href="img/5.jpg"/>
<image preserveAspectRatio="none" x="43" y="520" width="57" height="56" xlink:href="img/6.jpg"/>
<image preserveAspectRatio="none" x="669" y="492" width="180" height="127" xlink:href="img/7.jpg"/>
<image clip-path="url(#c2_9)" preserveAspectRatio="none" x="764" y="657" width="88" height="118" xlink:href="img/8.jpg"/>
<image preserveAspectRatio="none" x="43" y="683" width="57" height="56" xlink:href="img/9.jpg"/>
<image clip-path="url(#c3_9)" preserveAspectRatio="none" x="624" y="840" width="219" height="112" xlink:href="img/10.jpg"/>
<image preserveAspectRatio="none" x="43" y="858" width="57" height="57" xlink:href="img/11.jpg"/>
<image preserveAspectRatio="none" x="44" y="1031" width="56" height="56" xlink:href="img/12.jpg"/>
<image preserveAspectRatio="none" x="699" y="1002" width="139" height="156" xlink:href="img/13.jpg"/>
</svg>