<?xml version="1.0" encoding="UTF-8" standalone="no"?>
<!DOCTYPE svg PUBLIC "-//W3C//DTD SVG 1.1//EN"
"http://www.w3.org/Graphics/SVG/1.1/DTD/svg11.dtd">
<svg viewBox="0 0 909 1286" version="1.1" xmlns="http://www.w3.org/2000/svg" xmlns:xlink="http://www.w3.org/1999/xlink">
<defs>
<clipPath id="c0_67"><path d="M-.2 1286.6v-57.8h910v57.8Z"/></clipPath>
<style type="text/css"><![CDATA[
.g0_67{
fill: #CFC;
}
.g1_67{
fill: #CFF;
}
.g2_67{
fill: none;
stroke: #000;
stroke-width: 1.126;
stroke-linecap: square;
stroke-miterlimit: 10;
}
.g3_67{
fill: none;
stroke: #000;
stroke-width: 1.099;
stroke-linecap: square;
stroke-miterlimit: 10;
}
.g4_67{
fill: #70AD47;
}
.g5_67{
fill: #FC9;
}
.g6_67{
fill: none;
stroke: #000;
stroke-width: 1.125;
stroke-linecap: square;
stroke-miterlimit: 10;
}
.g7_67{
fill: #F00;
}
.g8_67{
fill: none;
stroke: #F00;
stroke-width: 0.836;
stroke-linecap: square;
stroke-miterlimit: 10;
}
.g9_67{
fill: #090;
}
.ga_67{
fill: none;
stroke: #090;
stroke-width: 0.836;
stroke-linecap: square;
stroke-miterlimit: 10;
}
.gb_67{
fill: none;
stroke: #00F;
stroke-width: 1.125;
stroke-linecap: square;
stroke-miterlimit: 10;
}
.gc_67{
fill: #FCF;
}
.gd_67{
fill: none;
stroke: #000;
stroke-width: 1.1;
stroke-linecap: square;
stroke-miterlimit: 10;
}
.ge_67{
fill: none;
stroke: #00F;
stroke-width: 1.1;
stroke-linecap: square;
stroke-miterlimit: 10;
}
.gf_67{
fill: none;
stroke: #F00;
stroke-width: 0.817;
stroke-linecap: square;
stroke-miterlimit: 10;
}
.gg_67{
fill: none;
stroke: #090;
stroke-width: 0.817;
stroke-linecap: square;
stroke-miterlimit: 10;
}
.gh_67{
fill: none;
stroke: #000;
stroke-width: 0.964;
stroke-linecap: square;
stroke-miterlimit: 10;
}
.gi_67{
fill: none;
stroke: #F00;
stroke-width: 1.1;
stroke-linecap: square;
stroke-miterlimit: 10;
}
.gj_67{
fill: none;
stroke: #000;
stroke-width: 1.122;
stroke-linecap: square;
stroke-miterlimit: 10;
}
.gk_67{
fill: none;
stroke: #090;
stroke-width: 0.833;
stroke-linecap: square;
stroke-miterlimit: 10;
}
.gl_67{
fill: none;
stroke: #F00;
stroke-width: 0.833;
stroke-linecap: square;
stroke-miterlimit: 10;
}
.gm_67{
fill: #FC6;
}
.gn_67{
fill: none;
stroke: #000;
stroke-width: 1.064;
stroke-linecap: square;
stroke-miterlimit: 10;
}
.go_67{
fill: none;
stroke: #000;
stroke-width: 1.248;
stroke-linecap: square;
stroke-miterlimit: 10;
}
.gp_67{
fill: none;
stroke: #F00;
stroke-width: 1.248;
stroke-linecap: square;
stroke-miterlimit: 10;
}
]]></style>
</defs>
<image clip-path="url(#c0_67)" preserveAspectRatio="none" x="-2" y="1229" width="930" height="128" xlink:href="img/1.jpg"/>
<path fill-rule="evenodd" d="M57.4 167.6H207.9V44H57.4V167.6Z" class="g0_67"/>
<path fill-rule="evenodd" d="M65.3 105.8H200V82H65.3v23.8Z" class="g0_67"/>
<path fill-rule="evenodd" d="M65.3 129.6H200V105.8H65.3v23.8Z" class="g0_67"/>
<path d="M275.9 65.7l.1 -.1h49.6L301.8 92.5Z" class="g1_67"/>
<path d="M275.9 65.7l25.9 26.8l-11.1 12.8l-39.9 45.1Z" class="g1_67"/>
<path d="M290.7 105.3h23.4l43 44.6l-106.3 .5Z" class="g1_67"/>
<path d="M290.7 105.3L301.8 92.5l12.3 12.8Z" class="g1_67"/>
<path d="M314.1 105.3L301.8 92.5L325.6 65.6h.2v.1l31.3 84.2Z" class="g1_67"/>
<path d="M325.6 65.6H276l-.1 .1l-25.1 84.7l106.3 -.5L325.8 65.7v-.1m-75 84.8l39.9 -45.1m0 0L301.8 92.5m24 -26.9h-.2L301.8 92.5m55.3 57.4l-43 -44.6m0 0H290.7m23.4 0L301.8 92.5m0 0L275.9 65.7" class="g2_67"/>
<path d="M477.6 130.4h9.2" class="g3_67"/>
<path d="M56.7 44h.7v-.7h-.7V44Z" class="g4_67"/>
<path d="M56.7 44h.7v-.7h-.7V44Z" class="g4_67"/>
<path d="M57.4 44H207.9v-.7H57.4V44Z" class="g4_67"/>
<path d="M207.9 44h.7v-.7h-.7V44Z" class="g4_67"/>
<path d="M208.6 44H400.2v-.7H208.6V44Z" class="g4_67"/>
<path d="M400.2 44h.8v-.7h-.8V44Z" class="g4_67"/>
<path d="M401 44H874v-.7H401V44Z" class="g4_67"/>
<path d="M873.9 44h.8v-.7h-.8V44Z" class="g4_67"/>
<path d="M873.9 44h.8v-.7h-.8V44Z" class="g4_67"/>
<path d="M56.7 167.6h.7V44h-.7V167.6Z" class="g4_67"/>
<path d="M207.9 167.6h.7V44h-.7V167.6Z" class="g4_67"/>
<path d="M400.2 167.6h.8V44h-.8V167.6Z" class="g4_67"/>
<path d="M873.9 167.6h.8V44h-.8V167.6Z" class="g4_67"/>
<path fill-rule="evenodd" d="M57.4 302.1H207.9V168.3H57.4V302.1Z" class="g0_67"/>
<path fill-rule="evenodd" d="M65.3 235.2H200V211.4H65.3v23.8Z" class="g0_67"/>
<path fill-rule="evenodd" d="M65.3 259H200V235.2H65.3V259Z" class="g0_67"/>
<path d="M286.3 269.2L253.1 189.8l33.2 79.4H238.7l14 -80.2l127.1 80.2Z" class="g5_67"/>
<path d="M286.3 269.2H238.7l14 -80.2l127.1 80.2H286.3M253.1 189.8l33.2 79.4" class="g6_67"/>
<path d="M230.5 259.6l.8 .3l.4 .2l.4 .1l.4 .1h.7l.4 -.1h.1v-.1h.2l.3 -.2l.1 -.1h.1l.5 -.5l.2 -.2l.2 -.3l.4 -.7l.4 -.7l.3 9.6Z" class="g7_67"/>
<path d="M250.6 189.8l-2 1.4l-1.9 1.5l-1.8 1.6l-1.7 1.6l-1.6 1.6l-1.5 1.7l-1.5 1.8l-1.3 1.8l-1.2 1.8l-1.2 1.9l-1 1.9l-1 2l-.8 2l-.8 2.1l-.6 2.2l-.6 2.2l-.5 2.1l-.4 2.3l-.3 2.3l-.2 2.4l-.1 2.4v2.5l.1 2.5l.2 2.5l.3 2.6l.3 2.7l.5 2.7l.6 2.7l.6 2.8l.7 2.8l.9 2.9l1 3" class="g8_67"/>
<path d="M374.3 261.6l.7 .2h.4l.4 .1h.6l.7 -.1l.3 -.1l.3 -.1l.1 -.1h.2l.2 -.3l.3 -.3l.2 -.3l.2 -.4l.1 -.4l.1 -.2l.1 -.2l.1 -.4l.1 -.5l1.8 9.4Z" class="g7_67"/>
<path d="M257.5 188.9l4.6 .2l2.3 .1l2.3 .2l2.3 .2l2.3 .3l2.2 .2l2.3 .4l2.1 .3l2.3 .4l4.3 .9l4.3 1l2.2 .5l2.1 .6l2.1 .6l2.1 .7l2 .7l2.1 .7l2 .7l2.1 .8l2 .8l2 .9l2 .9l2 .9l1.9 1l2 1l1.9 1l1.9 1l1.9 1.1l1.9 1.2l1.9 1.1l1.8 1.2l3.7 2.5l3.6 2.6l1.8 1.3l1.8 1.4l3.4 2.9l1.7 1.4l1.8 1.6l1.6 1.5l1.7 1.6l3.4 3.3l1.6 1.7l1.6 1.7l1.6 1.7l1.6 1.9l1.6 1.8l1.5 1.8l1.6 1.9l1.6 1.9l3 4l1.5 2l1.5 2.1l1.4 2l1.5 2.2l1.4 2.1l1.5 2.2" class="g8_67"/>
<path d="M278.3 277l.2 -.5l.1 -.4l.1 -.4V275l-.1 -.7v-.2l-.1 -.1v-.1l-.1 -.1l-.1 -.1l-.2 -.3l-.5 -.5l-.5 -.4l-.6 -.4l-.8 -.2L285 271l-6.9 6.4Z" class="g9_67"/>
<path d="M241.2 271l.8 1l.9 1l.8 1l.9 .9l.9 .7l.9 .8l.9 .7l1 .6l1 .6l1 .5l1 .4l1.1 .3l1.1 .3l1.1 .3l1.1 .2l1.2 .1l1.2 .1h1.2l1.2 -.1l1.2 -.1l1.3 -.2l1.3 -.3l1.3 -.3l1.4 -.3l1.3 -.5l1.4 -.5l1.4 -.5l1.4 -.6l1.5 -.7l1.5 -.8l1.5 -.8l1.5 -.8" class="ga_67"/>
<path d="M290.4 270.3l9.1 1.9l-.9 .1l-.6 .3l-.6 .3l-.5 .5l-.2 .3l-.1 .1h-.1v.1h-.1v.2l-.1 .1l-.1 .3l-.1 .4l-.1 .3l.1 .4v.4l.1 .5l.4 .9Z" class="g9_67"/>
<path d="M379.5 270l-2.8 1.2l-2.7 1.1l-2.8 1.1l-2.7 1l-2.7 .9l-2.7 .9l-2.7 .8l-2.7 .8l-2.7 .6l-2.7 .6l-2.6 .5L347 280l-2.6 .3l-2.6 .3l-2.6 .3l-2.6 .2h-7.8l-2.5 -.1l-2.6 -.3l-2.5 -.2l-2.5 -.4l-2.5 -.4l-2.5 -.5l-2.5 -.6l-2.5 -.6l-2.4 -.7l-2.4 -.8l-2.5 -.8l-2.4 -.9l-2.4 -1" class="ga_67"/>
<path d="M266.5 202.7l-.1 -.4l-.1 -.4l-.2 -.4l-.3 -.3l-.3 -.3l-.3 -.1l-.4 -.1h-.7l-.4 .1l-.3 .1l-.3 .3l-.3 .3l-.2 .4l-.1 .4v.7l.1 .4l.2 .3l.3 .4l.3 .2l.3 .3l.4 .1h.7l.2 -.1h.2l.3 -.3l.3 -.2l.3 -.4l.2 -.3l.1 -.2V203l.1 -.1v-.2m-9.6 4.6l-.1 -.4l-.1 -.4l-.2 -.3l-.3 -.3l-.3 -.3l-.3 -.2l-.4 -.1h-.7l-.4 .1l-.3 .2l-.3 .3l-.3 .3l-.2 .3l-.1 .4v.8l.1 .3l.2 .4l.3 .3l.3 .3l.3 .2l.4 .1l.4 .1v-.1h.3l.2 -.1h.2l.3 -.2l.3 -.3l.3 -.3l.2 -.4v-.2l.1 -.1v-.3l.1 -.1" class="gb_67"/>
<path d="M56.7 168.3h.7v-.7h-.7v.7Z" class="g4_67"/>
<path d="M57.4 168.3H207.9v-.7H57.4v.7Z" class="g4_67"/>
<path d="M207.9 168.3h.7v-.7h-.7v.7Z" class="g4_67"/>
<path d="M208.6 168.3H400.2v-.7H208.6v.7Z" class="g4_67"/>
<path d="M400.2 168.3h.8v-.7h-.8v.7Z" class="g4_67"/>
<path d="M401 168.3H874v-.7H401v.7Z" class="g4_67"/>
<path d="M873.9 168.3h.8v-.7h-.8v.7Z" class="g4_67"/>
<path d="M56.7 302.1h.7V168.3h-.7V302.1Z" class="g4_67"/>
<path d="M207.9 302.1h.7V168.3h-.7V302.1Z" class="g4_67"/>
<path d="M400.2 302.1h.8V168.3h-.8V302.1Z" class="g4_67"/>
<path d="M873.9 302.1h.8V168.3h-.8V302.1Z" class="g4_67"/>
<path fill-rule="evenodd" d="M57.4 422H207.9V302.9H57.4V422Z" class="g0_67"/>
<path fill-rule="evenodd" d="M65.3 362.4H200V338.6H65.3v23.8Z" class="g0_67"/>
<path fill-rule="evenodd" d="M65.3 386.3H200V362.4H65.3v23.9Z" class="g0_67"/>
<path d="M232.1 392.3l65.2 -54.2l-.2 1.2l-7.2 53.2Z" class="gc_67"/>
<path d="M289.9 392.5l107.9 .3M297.1 339.3l.2 -1.2m0 0l-65.2 54.2l57.8 .2l7.2 -53.2m22.1 -19.5l-21.9 18.3m100.5 54.7L297.1 339.3" class="gd_67"/>
<path d="M300.9 350.1v.6l.2 .5l.2 .5l.3 .4l.4 .4l.5 .2l.5 .2l.6 .1l.3 -.1h.3l.5 -.2l.1 -.1h.1l.2 -.1l.5 -.4V352l.1 -.1l.2 -.2l.2 -.3l.1 -.2l.1 -.5v-.2l.1 -.1v-.3l-.1 -.6l-.1 -.5l-.3 -.5l-.3 -.4l-.5 -.4l-.4 -.2l-.5 -.2H303l-.5 .2l-.5 .2l-.4 .4l-.3 .4l-.2 .5l-.2 .5v.6M307.2 336l-.4 .4l-.2 .5l-.2 .6v1.1l.2 .5l.2 .5l.2 .2l.2 .2l.4 .4l.5 .3l.5 .1l.6 .1h.2l.1 -.1h.2l.5 -.1v-.1h.1l.1 -.1l.3 -.1l.4 -.4l.1 -.1v-.1h.1l.2 -.2l.1 -.2l.1 -.3l.2 -.5v-1.1l-.2 -.6l-.2 -.5l-.4 -.4l-.4 -.4l-.5 -.2l-.5 -.2h-1.1l-.5 .2l-.5 .2l-.4 .4" class="ge_67"/>
<path d="M232.5 380.9l.2 .5l.2 .4l.5 .7l.5 .5l.3 .2l.3 .2h.2l.2 .1h.1l.2 .1h.3l.6 -.1l.6 -.2l.7 -.2l.7 -.4l-5.3 7.6Z" class="g7_67"/>
<path d="M293.1 340l-2.8 .6l-2.7 .6l-2.7 .6l-2.6 .7l-2.6 .8l-2.4 .8l-2.5 .8l-2.3 1l-2.3 .9l-2.2 1l-2.2 1.1l-2.1 1.1l-2 1.2l-2 1.3l-1.9 1.2l-1.8 1.4l-1.8 1.3l-1.8 1.5l-1.6 1.5l-1.6 1.5l-1.6 1.6l-1.4 1.7l-1.5 1.6l-1.3 1.8l-1.3 1.8l-1.2 1.8l-1.2 1.9l-1.1 2l-1 2l-1 2.1l-.9 2.1l-.8 2.2" class="gf_67"/>
<path d="M295.2 383.1v.8l.2 .8l.2 .6l.1 .2l.2 .3l.1 .1l.1 .2v.1l.2 .1v.1h.1v.1l.2 .1l.2 .1l.4 .1l.3 .1l.3 .1h1.3l.5 -.1l-3.9 2.4l-3.9 2.5Z" class="g7_67"/>
<path d="M298.3 342l.4 1.7l.4 1.7l.2 .8l.2 .8l.4 1.7l.3 1.6l.3 1.6l.3 1.6l.2 1.6l.1 .7l.1 .8v.7l.1 .8l.2 1.5l.1 1.5v5.7l-.1 1.3l-.1 1.4l-.1 .6l-.1 .7l-.1 .6v.7l-.3 1.3l-.3 1.3l-.2 1.2l-.3 1.2l-.4 1.2l-.4 1.2l-.4 1.2l-.5 1.1l-.5 1.1l-.5 1.1l-.6 1.1l-.6 1.1" class="gf_67"/>
<path d="M388.3 399.6l.2 -.4l.2 -.4l.2 -.4l.1 -.4v-.3l.1 -.3V397l-.1 -.2v-.1l-.1 -.3l-.2 -.3l-.3 -.6l-.5 -.4l-.6 -.5l-.6 -.4l9 .8l-7.6 5Z" class="g9_67"/>
<path d="M294.5 396.3l2.2 .9l2.3 .9l2.3 .7l2.4 .8l2.4 .7l2.5 .6l2.5 .5l2.6 .6l2.5 .4l2.7 .4l2.7 .3l2.7 .3l2.8 .2l2.9 .1l2.9 .1l2.9 .1h3l3 -.1l3 -.2l3.2 -.2l3.1 -.2l3.2 -.3l3.3 -.4l3.3 -.4l3.3 -.5l3.4 -.5l3.4 -.6l3.6 -.7l3.4 -.7l3.6 -.7l3.6 -.9l3.8 -.8" class="gg_67"/>
<path d="M387.1 400.4l.2 -.4v-.5l.1 -.4v-.7l-.1 -.4l-.1 -.3v-.1h-.1v-.1l-.1 -.1h.1l-.2 -.2h-.1l-.2 -.3l-.4 -.4l-.6 -.4l-.7 -.3l-.7 -.2l9 -1.6l-3.1 3.4l-3.1 3.5Z" class="g9_67"/>
<path d="M234.6 394.1l1.7 .9l1.8 .9l3.6 1.7l3.7 1.7l3.8 1.5l1.9 .6l1.9 .8l4 1.2l2 .6l2 .6l4.1 1.1l2.1 .5l2.1 .5l4.2 .8l2.2 .4l2.2 .3l4.4 .6l2.2 .3l2.2 .2l4.6 .4l2.3 .1l2.4 .2l4.7 .2h9.7l2.4 -.1l2.5 -.1l5.1 -.3l2.5 -.3l2.6 -.2l5.2 -.5l2.6 -.3l2.6 -.3l5.4 -.7L344 407l2.7 -.5l5.5 -.9L355 405l2.8 -.5l5.7 -1.2l5.8 -1.3l2.9 -.7l2.9 -.8l2.9 -.7l3 -.8l6 -1.6" class="gg_67"/>
<path d="M56.7 302.9h.7v-.8h-.7v.8Z" class="g4_67"/>
<path d="M57.4 302.9H207.9v-.8H57.4v.8Z" class="g4_67"/>
<path d="M207.9 302.9h.7v-.8h-.7v.8Z" class="g4_67"/>
<path d="M208.6 302.9H400.2v-.8H208.6v.8Z" class="g4_67"/>
<path d="M400.2 302.9h.8v-.8h-.8v.8Z" class="g4_67"/>
<path d="M401 302.9H874v-.8H401v.8Z" class="g4_67"/>
<path d="M873.9 302.9h.8v-.8h-.8v.8Z" class="g4_67"/>
<path d="M56.7 422h.7V302.9h-.7V422Z" class="g4_67"/>
<path d="M207.9 422h.7V302.9h-.7V422Z" class="g4_67"/>
<path d="M400.2 422h.8V302.9h-.8V422Z" class="g4_67"/>
<path d="M873.9 422h.8V302.9h-.8V422Z" class="g4_67"/>
<path fill-rule="evenodd" d="M57.4 557.1H207.9V422.8H57.4V557.1Z" class="g0_67"/>
<path fill-rule="evenodd" d="M65.3 501.8H200V478H65.3v23.8Z" class="g0_67"/>
<path d="M264.2 553.5L326.4 440.8M313 527.6v.1l.1 -.1m50 -64.9H228m136.2 64.9H229" class="gh_67"/>
<path d="M56.7 422.8h.7V422h-.7v.8Z" class="g4_67"/>
<path d="M57.4 422.8H207.9V422H57.4v.8Z" class="g4_67"/>
<path d="M207.9 422.8h.7V422h-.7v.8Z" class="g4_67"/>
<path d="M208.6 422.8H400.2V422H208.6v.8Z" class="g4_67"/>
<path d="M400.2 422.8h.8V422h-.8v.8Z" class="g4_67"/>
<path d="M401 422.8H874V422H401v.8Z" class="g4_67"/>
<path d="M873.9 422.8h.8V422h-.8v.8Z" class="g4_67"/>
<path d="M56.7 557.1h.7V422.8h-.7V557.1Z" class="g4_67"/>
<path d="M207.9 557.1h.7V422.8h-.7V557.1Z" class="g4_67"/>
<path d="M400.2 557.1h.8V422.8h-.8V557.1Z" class="g4_67"/>
<path d="M873.9 557.1h.8V422.8h-.8V557.1Z" class="g4_67"/>
<path fill-rule="evenodd" d="M57.4 691.5H207.9V557.9H57.4V691.5Z" class="g0_67"/>
<path fill-rule="evenodd" d="M65.3 624.6H200V600.8H65.3v23.8Z" class="g0_67"/>
<path fill-rule="evenodd" d="M65.3 648.4H200V624.6H65.3v23.8Z" class="g0_67"/>
<path d="M306.3 670.8l15.5 -93l.2 -.2l40.5 93.2Z" class="g1_67"/>
<path d="M245.4 670.8l76.4 -93l-15.5 93Z" class="g1_67"/>
<path d="M322 577.6l40.5 93.2H306.3m0 0l15.5 -93l-76.4 93h60.9" class="gd_67"/>
<path d="M276.4 673v-4.2m2.5 4.2v-4.2m57.6 3.9v-4.2m-2.4 4.2v-4.2" class="gi_67"/>
<path d="M56.7 557.9h.7v-.8h-.7v.8Z" class="g4_67"/>
<path d="M57.4 557.9H207.9v-.8H57.4v.8Z" class="g4_67"/>
<path d="M207.9 557.9h.7v-.8h-.7v.8Z" class="g4_67"/>
<path d="M208.6 557.9H400.2v-.8H208.6v.8Z" class="g4_67"/>
<path d="M400.2 557.9h.8v-.8h-.8v.8Z" class="g4_67"/>
<path d="M401 557.9H874v-.8H401v.8Z" class="g4_67"/>
<path d="M873.9 557.9h.8v-.8h-.8v.8Z" class="g4_67"/>
<path d="M56.7 691.5h.7V557.9h-.7V691.5Z" class="g4_67"/>
<path d="M207.9 691.5h.7V557.9h-.7V691.5Z" class="g4_67"/>
<path d="M400.2 691.5h.8V557.9h-.8V691.5Z" class="g4_67"/>
<path d="M873.9 691.5h.8V557.9h-.8V691.5Z" class="g4_67"/>
<path fill-rule="evenodd" d="M57.4 822.4H207.9V692.3H57.4V822.4Z" class="g0_67"/>
<path fill-rule="evenodd" d="M65.3 769.3H200V745.4H65.3v23.9Z" class="g0_67"/>
<path d="M261.6 720.4H372.5l-.1 .3l-68.5 37.2Z" class="gc_67"/>
<path d="M233.8 796.5l.3 -.7l69.8 -37.9L347 796l-.2 .5Z" class="gc_67"/>
<path d="M303.9 757.9l68.5 -37.2L347 796Z" class="gc_67"/>
<path d="M261 720.4h.6l42.3 37.5l-69.8 37.9Z" class="gc_67"/>
<path d="M261.1 720l.5 .4l42.3 37.5m0 0l-69.8 37.9M372.4 720.7l-68.5 37.2M347 796L303.9 757.9m-70.1 38.6h113l.2 -.5l25.4 -75.3l.1 -.3H261l-26.9 75.4" class="g2_67"/>
<path d="M56.7 692.3h.7v-.8h-.7v.8Z" class="g4_67"/>
<path d="M57.4 692.3H207.9v-.8H57.4v.8Z" class="g4_67"/>
<path d="M207.9 692.3h.7v-.8h-.7v.8Z" class="g4_67"/>
<path d="M208.6 692.3H400.2v-.8H208.6v.8Z" class="g4_67"/>
<path d="M400.2 692.3h.8v-.8h-.8v.8Z" class="g4_67"/>
<path d="M401 692.3H874v-.8H401v.8Z" class="g4_67"/>
<path d="M873.9 692.3h.8v-.8h-.8v.8Z" class="g4_67"/>
<path d="M56.7 822.4h.7V692.3h-.7V822.4Z" class="g4_67"/>
<path d="M207.9 822.4h.7V692.3h-.7V822.4Z" class="g4_67"/>
<path d="M400.2 822.4h.8V692.3h-.8V822.4Z" class="g4_67"/>
<path d="M873.9 822.4h.8V692.3h-.8V822.4Z" class="g4_67"/>
<path fill-rule="evenodd" d="M57.4 933.2H207.9v-110H57.4v110Z" class="g0_67"/>
<path fill-rule="evenodd" d="M65.3 878.2H200V854.3H65.3v23.9Z" class="g0_67"/>
<path fill-rule="evenodd" d="M65.3 902H200V878.2H65.3V902Z" class="g0_67"/>
<path d="M355 929.4L343.9 908m17.1 0H343.9M260.7 844.5l-5 25.4m68.5 0L311.1 844.5m-55.4 25.4h68.5M311.1 844.5H260.7m50.4 0l-7.4 -14.3m-40.3 .9l-2.7 13.4M312.9 908h.1m30.9 0H248.2m-4.3 21.4L248.2 908m12.5 -63.5H234.1M226.5 908h21.7m0 0l7.5 -38.1m0 0H231.4m92.8 0h35.4m-7.3 -25.4H311.1M343.9 908L324.2 869.9" class="gj_67"/>
<path d="M232.9 896.4l.3 .3l.4 .3l.4 .3l.3 .2l.4 .2l.4 .1l.3 .1h.5v-.1h.2l.6 -.1l.2 -.2l.3 -.1l.6 -.4l.2 -.3l.3 -.2l.6 -.7l-2.2 9.3Z" class="g9_67"/>
<path d="M253.1 872.8l-1 .2l-1.1 .3l-1 .3l-1 .4l-.9 .4l-.9 .4l-.9 .5l-.8 .5l-.8 .5l-.7 .6l-.8 .6l-.6 .6l-.7 .7l-.6 .7l-.6 .7l-.5 .8l-.6 .8l-.4 .9l-.5 .8l-.4 .9l-.4 1l-.3 .9l-.3 1l-.3 1.1l-.2 1l-.2 1.1l-.2 1.1l-.1 1.2l-.2 1.2v3.8" class="gk_67"/>
<path d="M240.7 860.4l.3 .4l.4 .3l.7 .4l.3 .2l.4 .1l.7 .1h.4l.6 -.2l.2 -.2l.3 -.1l.6 -.4l.5 -.5l.6 -.7l-2.2 9.4Z" class="g7_67"/>
<path d="M243.5 861.9v0" class="gk_67"/>
<path d="M256.4 845.8l-1 .2l-.9 .3l-1.7 .6l-1.6 .6l-1.5 .7l-1.3 .7l-1.1 .8l-1.1 .9l-.8 1l-.8 1.1l-.3 .5l-.3 .6l-.4 1.1l-.3 1.3l-.2 1.3v2.1l.1 .7l.3 1.6" class="gl_67"/>
<path d="M333.4 859.7l.5 .6l.5 .6l.6 .4l.6 .2l.5 .2h.5l.6 -.1l.7 -.2l.7 -.5l.4 -.3l.3 -.3l-3.7 8.7Z" class="g7_67"/>
<path d="M314.5 845.8l1.4 .1l1.3 .1l1.4 .2l1.2 .2l1.3 .2l1.2 .2l1.1 .3l1.1 .3l1 .2l1 .4l.9 .3l.9 .4l.8 .4l.8 .5l.8 .4l.7 .5l.7 .5l.6 .5l.5 .6l.5 .6l.5 .6l.4 .6l.4 .7l.3 .7l.3 .7l.2 .7l.1 .8l.2 .8v.8l.1 .8v.9l-.1 .9" class="gl_67"/>
<path d="M350.5 897.7l.5 .6l.6 .6l.5 .4l.6 .2l.6 .2h.6l.4 -.1l.3 -.1l.4 -.2l.7 -.4l.4 -.3l.4 -.3l-3.8 8.7Z" class="g9_67"/>
<path d="M327.2 871.3l1.6 .4l1.7 .5l1.5 .5l1.5 .6l1.5 .5l1.4 .6l1.3 .6l1.3 .7l1.2 .7l1.2 .7l1.1 .7l1.1 .8l1 .8l1 .8l.9 .8l.8 .9l.8 .9l.7 .9l.7 1l.6 1l.6 1l.5 1l.4 1.1l.4 1.1l.4 1.1l.3 1.2l.2 1.1l.2 1.3l.1 1.2l.1 1.3v2.6" class="gk_67"/>
<path d="M435.2 901.1h27.9m17.6 0h29.2m30.6 0h28m18.3 0h29m31 0h28m18.6 0h75.3" class="g3_67"/>
<path d="M56.7 823.2h.7v-.8h-.7v.8Z" class="g4_67"/>
<path d="M57.4 823.2H207.9v-.8H57.4v.8Z" class="g4_67"/>
<path d="M207.9 823.2h.7v-.8h-.7v.8Z" class="g4_67"/>
<path d="M208.6 823.2H400.2v-.8H208.6v.8Z" class="g4_67"/>
<path d="M400.2 823.2h.8v-.8h-.8v.8Z" class="g4_67"/>
<path d="M401 823.2H874v-.8H401v.8Z" class="g4_67"/>
<path d="M873.9 823.2h.8v-.8h-.8v.8Z" class="g4_67"/>
<path d="M56.7 933.2h.7v-110h-.7v110Z" class="g4_67"/>
<path d="M207.9 933.2h.7v-110h-.7v110Z" class="g4_67"/>
<path d="M400.2 933.2h.8v-110h-.8v110Z" class="g4_67"/>
<path d="M873.9 933.2h.8v-110h-.8v110Z" class="g4_67"/>
<path fill-rule="evenodd" d="M57.4 1045H207.9V933.9H57.4V1045Z" class="g0_67"/>
<path fill-rule="evenodd" d="M65.3 1001.4H200V977.5H65.3v23.9Z" class="g0_67"/>
<path d="M246.1 1021.9l34 -66.2l83.1 66.2Z" class="gm_67"/>
<path d="M239.5 1034.8l6.6 -12.9l34 -66.2m96.4 66.2H246.1m117.1 0L280.1 955.7m0 0l-14 -11.1" class="gn_67"/>
<path d="M56.7 933.9h.7v-.7h-.7v.7Z" class="g4_67"/>
<path d="M57.4 933.9H207.9v-.7H57.4v.7Z" class="g4_67"/>
<path d="M207.9 933.9h.7v-.7h-.7v.7Z" class="g4_67"/>
<path d="M208.6 933.9H400.2v-.7H208.6v.7Z" class="g4_67"/>
<path d="M400.2 933.9h.8v-.7h-.8v.7Z" class="g4_67"/>
<path d="M401 933.9H874v-.7H401v.7Z" class="g4_67"/>
<path d="M873.9 933.9h.8v-.7h-.8v.7Z" class="g4_67"/>
<path d="M56.7 1045h.7V933.9h-.7V1045Z" class="g4_67"/>
<path d="M207.9 1045h.7V933.9h-.7V1045Z" class="g4_67"/>
<path d="M400.2 1045h.8V933.9h-.8V1045Z" class="g4_67"/>
<path d="M873.9 1045h.8V933.9h-.8V1045Z" class="g4_67"/>
<path fill-rule="evenodd" d="M57.4 1222.8H207.9V1045.9H57.4v176.9Z" class="g0_67"/>
<path fill-rule="evenodd" d="M65.3 1134.3H200v-23.9H65.3v23.9Z" class="g0_67"/>
<path fill-rule="evenodd" d="M65.3 1158.1H200v-23.8H65.3v23.8Z" class="g0_67"/>
<path d="M280.4 1155.2l23.2 -64.5l25.7 71.6l-14.5 6.5Z" class="g1_67"/>
<path d="M272.4 1177.4l3 -8.4l21 8.3l.2 .1Z" class="g1_67"/>
<path d="M314.8 1168.8l14.5 -6.5l5.1 14.3Z" class="g1_67"/>
<path d="M296.6 1177.4l-.2 -.1l18.4 -8.5l19.6 7.8l.1 .2l.1 .6Z" class="g1_67"/>
<path d="M275.4 1169l5 -13.8l34.4 13.6l-18.4 8.5Z" class="g1_67"/>
<path d="M334.5 1176.8l-.1 -.2l-2.1 -.8m-2.4 -.9l-2.4 -.9m-2.4 -.9l-2.3 -1m-2.4 -.9l-2.4 -1.1m-2.4 -.9l-.8 -.4l-1.4 -.5m-2.4 -.9l-2.4 -.9m-2.4 -.9l-2.4 -.9m-2.3 -.9l-2.4 -.9m-2.4 -.9l-2.3 -1m-2.4 -1l-2.4 -.9m-2.3 -1l-2.4 -.9m-2.2 -1.1l-2.3 -.9m16 22.1l.2 .1m37.9 -.6l.1 .6H272.4l3 -8.4l5 -13.8l23.2 -64.5l25.7 71.6l5.1 14.3" class="go_67"/>
<path d="M329.3 1162.3l-2.3 1.1m-2.2 1l-2.3 1m-2.3 1.1l-2.2 1m-2.4 1l-.8 .3l-1.6 .8m-2.3 1.1l-2.3 1m-2.2 1l-2.3 1.1m-2.2 1l-2.3 1m-2.3 1.2l-.9 .3l-1.7 -.6m-2.4 -.9l-2.4 -.9m-2.4 -.9l-2.4 -1m-2.4 -.9l-2.3 -1m-2.3 -.9l-2.3 -1" class="gp_67"/>
<path d="M56.7 1045.7h.7v-.7h-.7v.7Z" class="g4_67"/>
<path d="M57.4 1045.7H207.9v-.7H57.4v.7Z" class="g4_67"/>
<path d="M207.9 1045.7h.7v-.7h-.7v.7Z" class="g4_67"/>
<path d="M208.6 1045.7H400.2v-.7H208.6v.7Z" class="g4_67"/>
<path d="M400.2 1045.7h.8v-.7h-.8v.7Z" class="g4_67"/>
<path d="M401 1045.7H874v-.7H401v.7Z" class="g4_67"/>
<path d="M873.9 1045.7h.8v-.7h-.8v.7Z" class="g4_67"/>
<path d="M56.7 1222.8h.7V1045.7h-.7v177.1Z" class="g4_67"/>
<path d="M56.7 1223.6h.7v-.8h-.7v.8Z" class="g4_67"/>
<path d="M56.7 1223.6h.7v-.8h-.7v.8Z" class="g4_67"/>
<path d="M57.4 1223.6H207.9v-.8H57.4v.8Z" class="g4_67"/>
<path d="M207.9 1222.8h.7V1045.7h-.7v177.1Z" class="g4_67"/>
<path d="M207.9 1223.6h.7v-.8h-.7v.8Z" class="g4_67"/>
<path d="M208.6 1223.6H400.2v-.8H208.6v.8Z" class="g4_67"/>
<path d="M400.2 1222.8h.8V1045.7h-.8v177.1Z" class="g4_67"/>
<path d="M400.2 1223.6h.8v-.8h-.8v.8Z" class="g4_67"/>
<path d="M401 1223.6H874v-.8H401v.8Z" class="g4_67"/>
<path d="M873.9 1222.8h.8V1045.7h-.8v177.1Z" class="g4_67"/>
<path d="M873.9 1223.6h.8v-.8h-.8v.8Z" class="g4_67"/>
<path d="M873.9 1223.6h.8v-.8h-.8v.8Z" class="g4_67"/>
</svg>