<?xml version="1.0" encoding="UTF-8" standalone="no"?>
<!DOCTYPE svg PUBLIC "-//W3C//DTD SVG 1.1//EN"
"http://www.w3.org/Graphics/SVG/1.1/DTD/svg11.dtd">
<svg viewBox="0 0 909 1286" version="1.1" xmlns="http://www.w3.org/2000/svg" xmlns:xlink="http://www.w3.org/1999/xlink">
<defs>
<clipPath id="c0_4"><path d="M-.2 1286.6v-74.9h910v74.9Z"/></clipPath>
<clipPath id="c1_4"><path d="M720.3 852.8V729.6H832.4V852.8Z"/></clipPath>
<style type="text/css"><![CDATA[
.g0_4{
fill: none;
stroke: #000;
stroke-width: 1.099;
stroke-linecap: square;
stroke-miterlimit: 10;
}
]]></style>
</defs>
<image clip-path="url(#c0_4)" preserveAspectRatio="none" x="-4" y="1212" width="952" height="131" xlink:href="img/1.jpg"/>
<path d="M436.5 75.2h-30m217.4 0H592.7M299.2 108.3h-31m218.2 0H455.2M302.9 141.7H270.8m85.1 0H325.8m83 0H378.6m86.3 0H431.8M180.4 175.1H148.3m85.1 0H203.3m123.2 0H294.4m85.1 0H349.4m121.2 0h-30m86.1 0H493.5m125.4 0h-30m86.1 0H641.8M347.4 258.9H315.3m226.6 0H509.7m94.4 0H574M288.4 316.1H256.3m-57 33.3H167.2m55 176H190.1m86.2 0h-31m-22 33.2H190.1m291.7 0H451.7m223.3 0H640.9M572.2 691.5H542.1m84.2 0H595.1M220.9 752.6h-30M222 813.8H190.9" class="g0_4"/>
<image preserveAspectRatio="none" x="43" y="97" width="57" height="57" xlink:href="img/2.jpg"/>
<image preserveAspectRatio="none" x="688" y="72" width="168" height="102" xlink:href="img/3.jpg"/>
<image preserveAspectRatio="none" x="722" y="266" width="137" height="106" xlink:href="img/4.jpg"/>
<image preserveAspectRatio="none" x="731" y="481" width="129" height="123" xlink:href="img/5.jpg"/>
<image preserveAspectRatio="none" x="43" y="493" width="57" height="56" xlink:href="img/6.jpg"/>
<image clip-path="url(#c1_4)" preserveAspectRatio="none" x="721" y="730" width="111" height="122" xlink:href="img/7.jpg"/>
<image preserveAspectRatio="none" x="43" y="715" width="57" height="57" xlink:href="img/8.jpg"/>
<image preserveAspectRatio="none" x="43" y="1004" width="57" height="56" xlink:href="img/9.jpg"/>
<image preserveAspectRatio="none" x="769" y="980" width="88" height="115" xlink:href="img/10.jpg"/>
</svg>