<?xml version="1.0" encoding="UTF-8" standalone="no"?>
<!DOCTYPE svg PUBLIC "-//W3C//DTD SVG 1.1//EN"
"http://www.w3.org/Graphics/SVG/1.1/DTD/svg11.dtd">
<svg viewBox="0 0 909 1286" version="1.1" xmlns="http://www.w3.org/2000/svg" xmlns:xlink="http://www.w3.org/1999/xlink">
<defs>
<clipPath id="c0_3"><path d="M-.2 1286.6v-74.9h910v74.9Z"/></clipPath>
<clipPath id="c1_3"><path d="M363.6 220.6V109.2h75.1V220.6Z"/></clipPath>
<clipPath id="c2_3"><path d="M252.2 225.2V113.8h75.1V225.2Z"/></clipPath>
<clipPath id="c3_3"><path d="M137.4 225.2V113.8h75.1V225.2Z"/></clipPath>
<clipPath id="c4_3"><path d="M109.9 734.4V678H346.6v56.4Z"/></clipPath>
<clipPath id="c5_3"><path d="M132.6 933.3V828.7h100V933.3Z"/></clipPath>
<clipPath id="c6_3"><path d="M256.3 933.3V828.7H356.5V933.3Z"/></clipPath>
<clipPath id="c7_3"><path d="M711.6 1216.2V1098H827.3v118.2Z"/></clipPath>
<style type="text/css"><![CDATA[
.g0_3{
fill: #000;
}
]]></style>
</defs>
<image clip-path="url(#c0_3)" preserveAspectRatio="none" x="-4" y="1212" width="952" height="131" xlink:href="img/1.jpg"/>
<image preserveAspectRatio="none" x="472" y="110" width="75" height="110" xlink:href="img/2.jpg"/>
<image clip-path="url(#c1_3)" preserveAspectRatio="none" x="364" y="110" width="74" height="110" xlink:href="img/3.jpg"/>
<image clip-path="url(#c2_3)" preserveAspectRatio="none" x="253" y="114" width="74" height="111" xlink:href="img/4.jpg"/>
<image clip-path="url(#c3_3)" preserveAspectRatio="none" x="138" y="114" width="74" height="111" xlink:href="img/5.jpg"/>
<path d="M165.6 536.2h36.6v-.9H165.6v.9Z" class="g0_3"/>
<path d="M199.1 560.1h36.7v-.9H199.1v.9Z" class="g0_3"/>
<image clip-path="url(#c4_3)" preserveAspectRatio="none" x="110" y="678" width="236" height="56" xlink:href="img/6.jpg"/>
<image clip-path="url(#c5_3)" preserveAspectRatio="none" x="133" y="829" width="99" height="104" xlink:href="img/7.jpg"/>
<image clip-path="url(#c6_3)" preserveAspectRatio="none" x="257" y="829" width="99" height="104" xlink:href="img/8.jpg"/>
<image preserveAspectRatio="none" x="381" y="829" width="99" height="104" xlink:href="img/9.jpg"/>
<image preserveAspectRatio="none" x="506" y="829" width="99" height="104" xlink:href="img/10.jpg"/>
<image preserveAspectRatio="none" x="43" y="90" width="57" height="56" xlink:href="img/11.jpg"/>
<image preserveAspectRatio="none" x="672" y="255" width="155" height="122" xlink:href="img/12.jpg"/>
<image preserveAspectRatio="none" x="44" y="277" width="56" height="57" xlink:href="img/13.jpg"/>
<image preserveAspectRatio="none" x="44" y="417" width="56" height="57" xlink:href="img/14.jpg"/>
<image preserveAspectRatio="none" x="705" y="513" width="161" height="111" xlink:href="img/15.jpg"/>
<image preserveAspectRatio="none" x="44" y="533" width="56" height="57" xlink:href="img/16.jpg"/>
<image preserveAspectRatio="none" x="44" y="675" width="56" height="56" xlink:href="img/17.jpg"/>
<image preserveAspectRatio="none" x="44" y="825" width="56" height="56" xlink:href="img/18.jpg"/>
<image preserveAspectRatio="none" x="44" y="999" width="56" height="57" xlink:href="img/19.jpg"/>
<image preserveAspectRatio="none" x="576" y="988" width="273" height="55" xlink:href="img/20.jpg"/>
<image preserveAspectRatio="none" x="44" y="1119" width="56" height="56" xlink:href="img/21.jpg"/>
<image clip-path="url(#c7_3)" preserveAspectRatio="none" x="712" y="1098" width="115" height="118" xlink:href="img/22.jpg"/>
</svg>