<?xml version="1.0" encoding="UTF-8" standalone="no"?>
<!DOCTYPE svg PUBLIC "-//W3C//DTD SVG 1.1//EN"
"http://www.w3.org/Graphics/SVG/1.1/DTD/svg11.dtd">
<svg viewBox="0 0 909 1286" version="1.1" xmlns="http://www.w3.org/2000/svg" xmlns:xlink="http://www.w3.org/1999/xlink">
<defs>
<clipPath id="c0_14"><path d="M-.2 1286.6v-74.9h910v74.9Z"/></clipPath>
<clipPath id="c1_14"><path d="M132.6 1197.9v-74.8h66.3v74.8Z"/></clipPath>
<clipPath id="c2_14"><path d="M250.7 1197.9v-44.5h67.7v44.5Z"/></clipPath>
<clipPath id="c3_14"><path d="M351.5 1197.9v-69.4h66.8v69.4Z"/></clipPath>
<clipPath id="c4_14"><path d="M471.8 1197.9v-70.2h98.3v70.2Z"/></clipPath>
<clipPath id="c5_14"><path d="M660.2 607.1V444.3H850.9V607.1Z"/></clipPath>
<style type="text/css"><![CDATA[
.g0_14{
fill: none;
stroke: #000;
stroke-width: 0.765;
stroke-linecap: square;
stroke-miterlimit: 10;
}
.g1_14{
fill: none;
stroke: #000;
stroke-width: 0.763;
stroke-linecap: square;
stroke-miterlimit: 10;
}
.g2_14{
fill: #C0C0C0;
}
.g3_14{
fill: none;
stroke: #000;
stroke-width: 0.703;
stroke-linecap: round;
stroke-linejoin: round;
}
.g4_14{
fill: none;
stroke: #000;
stroke-width: 0.586;
stroke-linecap: round;
stroke-linejoin: round;
stroke-dasharray: 2,3;
}
.g5_14{
fill: none;
stroke: #000;
stroke-width: 0.703;
stroke-linecap: round;
stroke-miterlimit: 8;
}
.g6_14{
fill: #000;
}
.g7_14{
fill: #FFF;
}
.g8_14{
fill: none;
stroke: #000;
stroke-width: 2.775;
stroke-miterlimit: 8;
}
.g9_14{
fill: none;
stroke: #000;
stroke-width: 0.761;
stroke-linecap: square;
stroke-miterlimit: 10;
}
.ga_14{
fill: none;
stroke: #000;
stroke-width: 0.762;
stroke-linecap: square;
stroke-miterlimit: 10;
}
.gb_14{
fill: none;
stroke: #000;
stroke-width: 1.523;
stroke-linecap: square;
stroke-miterlimit: 10;
}
.gc_14{
fill: none;
stroke: #000;
stroke-width: 1.527;
stroke-linecap: square;
stroke-miterlimit: 10;
}
.gd_14{
fill: none;
stroke: #000;
stroke-width: 0.907;
stroke-linecap: square;
stroke-miterlimit: 10;
}
]]></style>
</defs>
<image clip-path="url(#c0_14)" preserveAspectRatio="none" x="-4" y="1212" width="952" height="131" xlink:href="img/1.jpg"/>
<path d="M361.6 220.7h23.2" class="g0_14"/>
<path d="M438 220.7h25.2" class="g1_14"/>
<path d="M488.5 220.7h23.8" class="g0_14"/>
<path d="M583.2 220.7h25.3m25.2 0h23.7m153.5 0h25.2" class="g1_14"/>
<path d="M110.6 248.4h23.8" class="g0_14"/>
<path d="M269.5 248.1h24.7m203.6 0h25.7" class="g1_14"/>
<path d="M352.1 309h46.3l-46.3 46Z" class="g2_14"/>
<path d="M398.4 309H352.1v46l46.3 -46Zm-31.1 30.9V355H352.1l15.2 -15.1Z" class="g3_14"/>
<path d="M367.3 309v30.9" class="g4_14"/>
<path d="M233 309h46.4v46Z" class="g2_14"/>
<path d="M233 309h46.4v46L233 309Z" class="g3_14"/>
<path d="M279.4 355h15.2V309H279.4v46Z" class="g5_14"/>
<path d="M269.7 326.8c3.4 -.7 6.2 -1.4 9.6 -1.4c2.1 0 4.2 0 6.3 .7" class="g3_14"/>
<path d="M285.6 324.7l3.4 1.4l-4.1 .7Z" class="g6_14"/>
<path d="M119.4 309l46.4 46" class="g4_14"/>
<path d="M119.4 309c18.7 -8.3 49.2 -5.5 61.6 0m-61.6 0c-8.3 14.4 -5.5 37.1 0 46.7" class="g3_14"/>
<path d="M147.1 298H154v9.6h-6.9V298Z" class="g7_14"/>
<path d="M110.4 326.1h6.9v9.6h-6.9v-9.6Z" class="g7_14"/>
<path d="M130.5 333.7c2.7 -4.2 6.9 -8.3 11 -11.7" class="g3_14"/>
<path d="M140.2 321.3l4.1 -1.4l-2.8 3.5Z" class="g6_14"/>
<path fill-rule="evenodd" d="M165.8 307.6c-.8 0 -1.4 .6 -1.4 1.4c0 .7 .6 1.3 1.4 1.3c.8 0 1.4 -.6 1.4 -1.3c0 -.8 -.6 -1.4 -1.4 -1.4Z" class="g6_14"/>
<path d="M119.4 355H181V309H119.4v46Z" class="g5_14"/>
<path d="M206 333.7h6.2" class="g8_14"/>
<path d="M211.5 330.3l6.2 3.4l-6.2 3.4Z" class="g6_14"/>
<path d="M317.4 333.7h6.3" class="g8_14"/>
<path d="M323 330.3l6.2 3.4l-6.2 3.4Z" class="g6_14"/>
<path d="M258.9 574H270" class="g1_14"/>
<path d="M279.2 651.9h24.1m134.9 .2h23.2m25.8 -.2h24" class="g0_14"/>
<path d="M129.6 679.7h22.3" class="g9_14"/>
<path d="M204.4 679.7h23.3m53.2 -.1H305" class="g0_14"/>
<path d="M357.4 679.7h26.2" class="ga_14"/>
<path d="M418.8 692.2l2.3 -1.4" class="g9_14"/>
<path d="M421.1 691.2l3.4 6.2" class="gb_14"/>
<path d="M424.9 697.4l4.4 -18.3m0 0h11" class="g9_14"/>
<path d="M318.1 720l2.3 -1.3" class="g1_14"/>
<path d="M320.4 719.1l3.4 6.1" class="gc_14"/>
<path d="M324.2 725.2l4.5 -18.3m0 0h11" class="g1_14"/>
<path d="M432.1 720l2.4 -1.3" class="g9_14"/>
<path d="M434.5 719.1l3.4 6.1" class="gb_14"/>
<path d="M438.2 725.2l4.5 -18.3m0 0h11" class="g9_14"/>
<path d="M294.8 875.5h20M355 950.4h23.2" class="g1_14"/>
<path d="M403.9 951.6h25.2" class="gd_14"/>
<path d="M540.9 950.4h24.4M441.7 977.9h24.4" class="g0_14"/>
<path d="M290.8 1022.8h36.6v-.9H290.8v.9Z" class="g6_14"/>
<path d="M290.8 1024.6h36.6v-.9H290.8v.9Z" class="g6_14"/>
<image clip-path="url(#c1_14)" preserveAspectRatio="none" x="133" y="1123" width="66" height="75" xlink:href="img/2.jpg"/>
<image clip-path="url(#c2_14)" preserveAspectRatio="none" x="251" y="1154" width="67" height="44" xlink:href="img/3.jpg"/>
<image clip-path="url(#c3_14)" preserveAspectRatio="none" x="352" y="1129" width="66" height="69" xlink:href="img/4.jpg"/>
<image clip-path="url(#c4_14)" preserveAspectRatio="none" x="472" y="1128" width="98" height="70" xlink:href="img/5.jpg"/>
<image preserveAspectRatio="none" x="43" y="87" width="57" height="57" xlink:href="img/6.jpg"/>
<image preserveAspectRatio="none" x="43" y="239" width="57" height="57" xlink:href="img/7.jpg"/>
<image preserveAspectRatio="none" x="43" y="472" width="57" height="56" xlink:href="img/8.jpg"/>
<image clip-path="url(#c5_14)" preserveAspectRatio="none" x="661" y="445" width="190" height="162" xlink:href="img/9.jpg"/>
<image preserveAspectRatio="none" x="43" y="671" width="57" height="56" xlink:href="img/10.jpg"/>
<image preserveAspectRatio="none" x="738" y="639" width="75" height="129" xlink:href="img/11.jpg"/>
<image preserveAspectRatio="none" x="657" y="936" width="146" height="93" xlink:href="img/12.jpg"/>
<image preserveAspectRatio="none" x="43" y="969" width="57" height="56" xlink:href="img/13.jpg"/>
<image preserveAspectRatio="none" x="758" y="1100" width="73" height="116" xlink:href="img/14.jpg"/>
<image preserveAspectRatio="none" x="43" y="1118" width="57" height="56" xlink:href="img/15.jpg"/>
<image preserveAspectRatio="none" x="704" y="63" width="113" height="122" xlink:href="img/16.jpg"/>
<image preserveAspectRatio="none" x="43" y="800" width="57" height="56" xlink:href="img/17.jpg"/>
</svg>