<?xml version="1.0" encoding="UTF-8" standalone="no"?>
<!DOCTYPE svg PUBLIC "-//W3C//DTD SVG 1.1//EN"
"http://www.w3.org/Graphics/SVG/1.1/DTD/svg11.dtd">
<svg viewBox="0 0 909 1286" version="1.1" xmlns="http://www.w3.org/2000/svg" xmlns:xlink="http://www.w3.org/1999/xlink">
<defs>
<clipPath id="c0_18"><path d="M-.2 1286.6v-75.1h910v75.1Z"/></clipPath>
<style type="text/css"><![CDATA[
.g0_18{
fill: #FFFFEB;
}
.g1_18{
fill: none;
stroke: #000;
stroke-width: 0.904;
stroke-linecap: square;
stroke-miterlimit: 10;
}
.g2_18{
fill: none;
stroke: #000;
stroke-width: 0.906;
stroke-linecap: square;
stroke-miterlimit: 10;
}
.g3_18{
fill: #CFC;
}
.g4_18{
fill: #70AD47;
}
.g5_18{
fill: none;
stroke: #F00;
stroke-width: 1.067;
stroke-linecap: square;
stroke-miterlimit: 10;
}
.g6_18{
fill: #000;
}
.g7_18{
fill: none;
stroke: #000;
stroke-width: 1.067;
stroke-linecap: square;
stroke-miterlimit: 10;
}
.g8_18{
fill: none;
stroke: #F00;
stroke-width: 1.069;
stroke-linecap: square;
stroke-miterlimit: 10;
}
.g9_18{
fill: none;
stroke: #000;
stroke-width: 1.069;
stroke-linecap: square;
stroke-miterlimit: 10;
}
.ga_18{
fill: none;
stroke: #F00;
stroke-width: 1.07;
stroke-linecap: square;
stroke-miterlimit: 10;
}
.gb_18{
fill: none;
stroke: #000;
stroke-width: 1.07;
stroke-linecap: square;
stroke-miterlimit: 10;
}
.gc_18{
fill: none;
stroke: #000;
stroke-width: 0.907;
stroke-linecap: square;
stroke-miterlimit: 10;
}
.gd_18{
fill: #96F;
}
.ge_18{
fill: #808080;
fill-opacity: 0.5;
}
.gf_18{
fill: #FC9;
}
.gg_18{
fill: none;
stroke: #000;
stroke-width: 1.527;
stroke-linejoin: round;
}
.gh_18{
fill: #F90;
}
]]></style>
</defs>
<image clip-path="url(#c0_18)" preserveAspectRatio="none" x="-2" y="1212" width="930" height="127" xlink:href="img/1.jpg"/>
<path fill-rule="evenodd" d="M106.9 126.7c-1.3 0 -2.4 1 -2.4 2.4v77.6c0 1.4 1.1 2.5 2.4 2.5H856.4c1.3 0 2.4 -1.1 2.4 -2.5V129.1c0 -1.4 -1.1 -2.4 -2.4 -2.4Z" class="g0_18"/>
<path d="M430.7 59.3h22.6" class="g1_18"/>
<path d="M508.4 59.3H531m4.3 0h25.2M724.2 71.6H784m9.8 0h62.1" class="g2_18"/>
<path fill-rule="evenodd" d="M79 726.9H304.2V699.4H79v27.5Z" class="g3_18"/>
<path d="M79 726.9H304.2V699.4H79v27.5Z" class="g3_18"/>
<path fill-rule="evenodd" d="M304.9 726.9H529.3V699.4H304.9v27.5Z" class="g3_18"/>
<path d="M304.9 726.9H529.3V699.4H304.9v27.5Z" class="g3_18"/>
<path fill-rule="evenodd" d="M530 726.9H693.9V699.4H530v27.5Z" class="g3_18"/>
<path d="M530 726.9H693.9V699.4H530v27.5Z" class="g3_18"/>
<path fill-rule="evenodd" d="M694.8 726.9H866.3V699.4H694.8v27.5Z" class="g3_18"/>
<path d="M694.8 726.9H866.3V699.4H694.8v27.5Z" class="g3_18"/>
<path d="M78.3 699.4H79v-.7h-.7v.7Z" class="g4_18"/>
<path d="M78.3 699.4H79v-.7h-.7v.7Z" class="g4_18"/>
<path d="M79 699.4H304.2v-.7H79v.7Z" class="g4_18"/>
<path d="M304.2 699.4h.7v-.7h-.7v.7Z" class="g4_18"/>
<path d="M304.9 699.4H529.3v-.7H304.9v.7Z" class="g4_18"/>
<path d="M529.3 699.4h.7v-.7h-.7v.7Z" class="g4_18"/>
<path d="M530 699.4H693.9v-.7H530v.7Z" class="g4_18"/>
<path d="M693.9 699.4h.8v-.7h-.8v.7Z" class="g4_18"/>
<path d="M694.6 699.4H866.1v-.7H694.6v.7Z" class="g4_18"/>
<path d="M866.1 699.4h.7v-.7h-.7v.7Z" class="g4_18"/>
<path d="M866.1 699.4h.7v-.7h-.7v.7Z" class="g4_18"/>
<path d="M78.3 726.9H79V699.4h-.7v27.5Z" class="g4_18"/>
<path d="M304.2 726.9h.7V699.4h-.7v27.5Z" class="g4_18"/>
<path d="M529.3 726.9h.7V699.4h-.7v27.5Z" class="g4_18"/>
<path d="M693.9 726.9h.8V699.4h-.8v27.5Z" class="g4_18"/>
<path d="M866.1 726.9h.7V699.4h-.7v27.5Z" class="g4_18"/>
<path fill-rule="evenodd" d="M79 755.3H304.2V727.8H79v27.5Z" class="g3_18"/>
<path d="M86.9 755.3H296.3V727.8H86.9v27.5Z" class="g3_18"/>
<path fill-rule="evenodd" d="M304.9 755.3H529.3V727.8H304.9v27.5Z" class="g3_18"/>
<path d="M312.8 755.3H521.4V727.8H312.8v27.5Z" class="g3_18"/>
<path fill-rule="evenodd" d="M530 755.3H693.9V727.8H530v27.5Z" class="g3_18"/>
<path d="M537.9 755.3H686.2V727.8H537.9v27.5Z" class="g3_18"/>
<path fill-rule="evenodd" d="M694.8 755.3H866.3V727.8H694.8v27.5Z" class="g3_18"/>
<path d="M702.5 755.3H858.4V727.8H702.5v27.5Z" class="g3_18"/>
<path d="M78.3 727.6H79v-.7h-.7v.7Z" class="g4_18"/>
<path d="M79 727.6H304.2v-.7H79v.7Z" class="g4_18"/>
<path d="M304.2 727.6h.7v-.7h-.7v.7Z" class="g4_18"/>
<path d="M304.9 727.6H529.3v-.7H304.9v.7Z" class="g4_18"/>
<path d="M529.3 727.6h.7v-.7h-.7v.7Z" class="g4_18"/>
<path d="M530 727.6H693.9v-.7H530v.7Z" class="g4_18"/>
<path d="M693.9 727.6h.8v-.7h-.8v.7Z" class="g4_18"/>
<path d="M694.6 727.6H866.1v-.7H694.6v.7Z" class="g4_18"/>
<path d="M866.1 727.6h.7v-.7h-.7v.7Z" class="g4_18"/>
<path d="M78.3 755.3H79V727.6h-.7v27.7Z" class="g4_18"/>
<path d="M304.2 755.3h.7V727.6h-.7v27.7Z" class="g4_18"/>
<path d="M529.3 755.3h.7V727.6h-.7v27.7Z" class="g4_18"/>
<path d="M693.9 755.3h.8V727.6h-.8v27.7Z" class="g4_18"/>
<path d="M866.1 755.3h.7V727.6h-.7v27.7Z" class="g4_18"/>
<path d="M124.3 835.6h52.2m53.8 0h-49m-4.8 5.3h4.8v-5.3h-4.8v5.3Z" class="g5_18"/>
<path d="M229.5 862.4l.4 -.4l.6 -.7l.3 -.4l.2 -.4l.2 -.4l.2 -.3l.1 -.5l.1 -.5v-.7l-.1 -.7l-.2 -.4l-.2 -.4l-.2 -.4l-.1 -.2l-.1 -.1l-.1 -.1l-.3 -.5l-.4 -.4l-.4 -.4l-.5 -.4l13 4.3l-13 4.4Z" class="g6_18"/>
<path d="M123.8 858.7H231.6" class="g7_18"/>
<path d="M184.9 811.2l-.5 -.5l-.5 -.5l-.4 -.3l-.3 -.2l-.3 -.1l-.5 -.2l-.4 -.2h-1.4l-.5 .2l-.8 .3l-.9 .5l-.8 .7l-.5 .4l-.4 .4l4.4 -12.9l4.3 12.9Z" class="g6_18"/>
<path d="M181.4 913.6V809.2" class="g7_18"/>
<path d="M384.8 912.8V864.1m0 -5.4V807.3m0 56.8h4.8v-5.4h-4.8v5.4Z" class="g5_18"/>
<path d="M455 862.4l.4 -.4l.6 -.7l.3 -.4l.2 -.4l.2 -.4l.2 -.3l.1 -.5l.1 -.5v-.7l-.1 -.7l-.2 -.4l-.2 -.4l-.2 -.4l-.1 -.2l-.1 -.1l-.1 -.1l-.3 -.5l-.4 -.4l-.4 -.4l-.5 -.4l13 4.3l-13 4.4Z" class="g6_18"/>
<path d="M349.3 858.7H457.1" class="g7_18"/>
<path d="M410.4 811.2l-.5 -.5l-.5 -.5l-.4 -.3l-.3 -.2l-.3 -.1l-.5 -.2l-.4 -.2h-1.4l-.5 .2l-.8 .3l-.9 .5l-.8 .7l-.5 .4l-.4 .4l4.4 -12.9l4.3 12.9Z" class="g6_18"/>
<path d="M406.9 913.6V809.2" class="g7_18"/>
<path d="M551.6 890.9l96.2 -58.2" class="g8_18"/>
<path d="M653.1 862.4l.4 -.4l.7 -.7l.3 -.4l.2 -.4l.2 -.4l.1 -.3l.2 -.5l.1 -.5v-.7l-.1 -.7L655 857l-.2 -.4l-.2 -.4l-.1 -.2l-.1 -.1l-.1 -.1l-.3 -.5l-.4 -.4l-.4 -.4l-.5 -.4l13 4.3l-13 4.4Z" class="g6_18"/>
<path d="M547.3 858.7h108" class="g9_18"/>
<path d="M608.6 811.2l-.5 -.5l-.5 -.5l-.5 -.3l-.3 -.2l-.2 -.1l-.5 -.2l-.5 -.2h-1.4l-.5 .2l-.8 .3l-.5 .2l-.4 .3l-.8 .7l-.9 .8l4.4 -12.9l4.4 12.9Z" class="g6_18"/>
<path d="M605 913.6V809.2" class="g9_18"/>
<path d="M735.7 910.6l49.9 -98.3" class="ga_18"/>
<path d="M821.5 875.5l.4 -.3l.7 -.8l.2 -.3l.2 -.4l.2 -.4l.2 -.3l.1 -.5l.1 -.5v-.7l-.1 -.7l-.1 -.4l-.2 -.4l-.3 -.5l-.1 -.1v-.1l-.1 -.1l-.4 -.5l-.4 -.4l-.4 -.4l-.4 -.5l12.9 4.4L821.1 876Z" class="g6_18"/>
<path d="M715.6 871.9h108" class="gb_18"/>
<path d="M776.9 811.2l-.5 -.5l-.5 -.5l-.5 -.3l-.3 -.2l-.2 -.1l-.5 -.2l-.5 -.2h-1.4l-.5 .2l-.8 .3l-.4 .2l-.4 .3l-.9 .7l-.9 .8L773 798.8l4.4 12.9Z" class="g6_18"/>
<path d="M773.4 913.6V809.2" class="gb_18"/>
<path d="M78.3 756.1H79v-.8h-.7v.8Z" class="g4_18"/>
<path d="M79 756.1H304.2v-.8H79v.8Z" class="g4_18"/>
<path d="M304.2 756.1h.7v-.8h-.7v.8Z" class="g4_18"/>
<path d="M304.9 756.1H529.3v-.8H304.9v.8Z" class="g4_18"/>
<path d="M529.3 756.1h.7v-.8h-.7v.8Z" class="g4_18"/>
<path d="M530 756.1H693.9v-.8H530v.8Z" class="g4_18"/>
<path d="M693.9 756.1h.8v-.8h-.8v.8Z" class="g4_18"/>
<path d="M694.6 756.1H866.1v-.8H694.6v.8Z" class="g4_18"/>
<path d="M866.1 756.1h.7v-.8h-.7v.8Z" class="g4_18"/>
<path d="M78.3 941H79V756.1h-.7V941Z" class="g4_18"/>
<path d="M78.3 941.8H79V941h-.7v.8Z" class="g4_18"/>
<path d="M78.3 941.8H79V941h-.7v.8Z" class="g4_18"/>
<path d="M79 941.8H304.2V941H79v.8Z" class="g4_18"/>
<path d="M304.2 941h.7V756.1h-.7V941Z" class="g4_18"/>
<path d="M304.2 941.8h.7V941h-.7v.8Z" class="g4_18"/>
<path d="M304.9 941.8H529.3V941H304.9v.8Z" class="g4_18"/>
<path d="M529.3 941h.7V756.1h-.7V941Z" class="g4_18"/>
<path d="M529.3 941.8h.7V941h-.7v.8Z" class="g4_18"/>
<path d="M530 941.8H693.9V941H530v.8Z" class="g4_18"/>
<path d="M693.9 941h.8V756.1h-.8V941Z" class="g4_18"/>
<path d="M693.9 941.8h.8V941h-.8v.8Z" class="g4_18"/>
<path d="M694.6 941.8H866.1V941H694.6v.8Z" class="g4_18"/>
<path d="M866.1 941h.7V756.1h-.7V941Z" class="g4_18"/>
<path d="M866.1 941.8h.7V941h-.7v.8Z" class="g4_18"/>
<path d="M866.1 941.8h.7V941h-.7v.8Z" class="g4_18"/>
<path d="M712.6 996.1h52.8" class="gc_18"/>
<path d="M49.4 149h-.6l-.5 -.1l-1 -.2l-1 -.4l-.8 -.5l-.4 -.4l-.3 -.3l-.3 -.4l-.1 -.4l-.2 -.5l-.1 -.4L44 145V132.2l.1 -.9l.3 -.9l.4 -.8l.7 -.6l.8 -.6l1 -.4l1 -.2l.5 -.1H95.6l.6 .1h.5l.5 .2l.5 .2l.5 .2l.4 .3l.4 .3l.4 .3l.3 .3l.3 .4l.3 .4l.1 .4l.2 .5v.4l.1 .5v12.4l-.1 .4v.4l-.2 .4l-.1 .5l-.3 .4l-.3 .4l-.3 .3l-.2 .2l-.2 .2l-.4 .2l-.4 .3l-.5 .2l-.3 .1h-.1l-.1 .1h-.3l-.2 .1l-.5 .1h-.3l-.3 .1h-.5Z" class="gd_18"/>
<image preserveAspectRatio="none" x="25" y="288" width="822" height="39" xlink:href="img/2.png"/>
<path fill-rule="evenodd" d="M127.3 408.5H319.8V381H127.3v27.5Z" class="ge_18"/>
<path fill-rule="evenodd" d="M125.8 406.9H318.3V379.4H125.8v27.5Z" class="gf_18"/>
<path fill-rule="evenodd" d="M608.6 408.5H759.8V381H608.6v27.5Z" class="ge_18"/>
<path fill-rule="evenodd" d="M607.1 406.9H758.3V379.4H607.1v27.5Z" class="gf_18"/>
<path fill-rule="evenodd" d="M436.6 408.5h62V381h-62v27.5Z" class="ge_18"/>
<path fill-rule="evenodd" d="M435.1 406.9h62V379.4h-62v27.5Z" class="gf_18"/>
<path d="M339.7 393.2h67.2" class="gg_18"/>
<path fill-rule="evenodd" d="M405.4 388.6l9.2 4.6l-9.2 4.6Z" class="g6_18"/>
<path fill-rule="evenodd" d="M341.2 397.8l-9.1 -4.6l9.1 -4.6Z" class="g6_18"/>
<path d="M518.5 393.2h67.2" class="gg_18"/>
<path fill-rule="evenodd" d="M584.1 388.6l9.2 4.6l-9.2 4.6Z" class="g6_18"/>
<path fill-rule="evenodd" d="M520 397.8l-9.2 -4.6l9.2 -4.6Z" class="g6_18"/>
<path d="M213.5 614.3h-.9l-.7 -.3l-.8 -.4l-.7 -.5l-.3 -.4l-.2 -.3l-.4 -.7l-.2 -.8l-.1 -.9V597.4l.1 -.9l.2 -.8l.4 -.7l.5 -.7l.7 -.6l.8 -.3l.7 -.3h14.3l.4 .1l.4 .2l.6 .3l.4 .3l.3 .3l.6 .7l.4 .7l.3 .8v14.4l-.3 .8l-.2 .3l-.1 .2l-.1 .2l-.3 .3l-.1 .2l-.1 .1H229v.1l-.3 .2l-.4 .3l-.2 .1l-.1 .1l-.3 .2l-.4 .1h-.2v.1l-.2 .1H226Z" class="gh_18"/>
<path d="M213 640l-.9 -.1l-.8 -.2l-.8 -.4l-.6 -.6l-.3 -.3l-.3 -.3l-.3 -.7l-.3 -.9V622.2l.3 -.8l.3 -.8l.6 -.6l.6 -.6l.8 -.4l.8 -.2l.9 -.1h12.5l.9 .1l.3 .1l.4 .1l.7 .4l.3 .2l.4 .4l.6 .6l.4 .8l.2 .8l.1 .9v13l-.1 .1v.3l-.2 .9l-.2 .3l-.1 .1l-.1 .3l-.3 .3l-.2 .1l-.1 .1v.1l-.4 .3l-.3 .3l-.2 .1l-.2 .1l-.3 .2l-.4 .1h-.1l-.1 .1H226l-.1 .1h-.4Z" class="gh_18"/>
<path d="M87.2 939.5l-.8 -.1l-.8 -.3l-.8 -.4l-.6 -.5l-.4 -.4l-.2 -.3l-.4 -.7L83 936l-.1 -.9V922.5l.1 -.9l.2 -.8l.4 -.7l.6 -.7l.6 -.6l.8 -.3l.8 -.3h14.2l.4 .1l.4 .2l.7 .3l.3 .3l.4 .3l.5 .7l.4 .7l.3 .8l.1 .9v12.6l-.1 .4v.5l-.3 .8l-.2 .3l-.1 .2l-.1 .2l-.2 .3l-.2 .2l-.1 .1v.1l-.4 .2l-.3 .3l-.2 .1l-.2 .1l-.3 .2l-.4 .2h-.2l-.2 .1h-.4l-.4 .1Z" class="gh_18"/>
<path d="M312.1 938.9l-.9 -.1l-.8 -.2l-.8 -.4l-.6 -.5l-.3 -.4l-.3 -.3l-.4 -.7l-.2 -.9V921.1l.2 -.8l.4 -.8l.6 -.6l.6 -.6l.8 -.4l.8 -.2h14.2l.4 .1l.4 .1l.7 .4l.3 .3l.4 .3l.5 .6l.5 .8l.2 .8l.1 .9v12.6l-.1 .4v.4l-.2 .9l-.3 .3l-.1 .2l-.1 .2l-.2 .3l-.2 .2h-.1v.2l-.4 .2l-.3 .3l-.2 .1l-.2 .1l-.3 .2l-.4 .1h-.1l-.1 .1h-.5l-.1 .1h-.4Z" class="gh_18"/>
</svg>