<?xml version="1.0" encoding="UTF-8" standalone="no"?>
<!DOCTYPE svg PUBLIC "-//W3C//DTD SVG 1.1//EN"
"http://www.w3.org/Graphics/SVG/1.1/DTD/svg11.dtd">
<svg viewBox="0 0 909 1286" version="1.1" xmlns="http://www.w3.org/2000/svg" xmlns:xlink="http://www.w3.org/1999/xlink">
<defs>
<clipPath id="c0_2"><path d="M-.2 1286.6v-57.8h910v57.8Z"/></clipPath>
<style type="text/css"><![CDATA[
.g0_2{
fill: #FFC;
}
.g1_2{
fill: none;
stroke: #000;
stroke-width: 0.821;
stroke-linecap: square;
stroke-miterlimit: 10;
}
.g2_2{
fill: none;
stroke: #F00;
stroke-width: 0.821;
stroke-linecap: square;
stroke-miterlimit: 10;
}
.g3_2{
fill: #FF9;
}
.g4_2{
fill: #CFF;
}
.g5_2{
fill: none;
stroke: #000;
stroke-width: 0.93;
stroke-linecap: square;
stroke-miterlimit: 10;
}
.g6_2{
fill: #CFC;
}
.g7_2{
fill: #70AD47;
}
.g8_2{
fill: none;
stroke: #000;
stroke-width: 1.099;
stroke-linecap: square;
stroke-miterlimit: 10;
}
.g9_2{
fill: #CAE4FF;
}
.ga_2{
fill: #9CF;
}
.gb_2{
fill: none;
stroke: #000;
stroke-width: 1.247;
stroke-linecap: square;
stroke-miterlimit: 10;
}
.gc_2{
fill: #F00;
}
.gd_2{
fill: none;
stroke: #F00;
stroke-width: 0.926;
stroke-linecap: square;
stroke-miterlimit: 10;
}
.ge_2{
fill: #090;
}
.gf_2{
fill: none;
stroke: #090;
stroke-width: 0.926;
stroke-linecap: square;
stroke-miterlimit: 10;
}
.gg_2{
fill: #9F9;
}
.gh_2{
fill: #E6FFE6;
}
.gi_2{
fill: none;
stroke: #000;
stroke-width: 1.246;
stroke-linecap: square;
stroke-miterlimit: 10;
}
.gj_2{
fill: none;
stroke: #F00;
stroke-width: 0.925;
stroke-linecap: square;
stroke-miterlimit: 10;
}
.gk_2{
fill: none;
stroke: #090;
stroke-width: 0.925;
stroke-linecap: square;
stroke-miterlimit: 10;
}
.gl_2{
fill: #F90;
}
.gm_2{
fill: #FFCF88;
}
.gn_2{
fill: #FFDBFF;
}
.go_2{
fill: #F9F;
}
.gp_2{
fill: none;
stroke: #000;
stroke-width: 1.122;
stroke-linecap: square;
stroke-miterlimit: 10;
}
.gq_2{
fill: none;
stroke: #090;
stroke-width: 0.834;
stroke-linecap: square;
stroke-miterlimit: 10;
}
.gr_2{
fill: none;
stroke: #F00;
stroke-width: 0.834;
stroke-linecap: square;
stroke-miterlimit: 10;
}
.gs_2{
fill: none;
stroke: #000;
stroke-width: 1.121;
stroke-linecap: square;
stroke-miterlimit: 10;
}
.gt_2{
fill: none;
stroke: #090;
stroke-width: 0.833;
stroke-linecap: square;
stroke-miterlimit: 10;
}
.gu_2{
fill: none;
stroke: #F00;
stroke-width: 0.833;
stroke-linecap: square;
stroke-miterlimit: 10;
}
.gv_2{
fill: none;
stroke: #000;
stroke-width: 0.907;
stroke-linecap: square;
stroke-miterlimit: 10;
}
.gw_2{
fill: none;
stroke: #000;
stroke-width: 0.909;
stroke-linecap: square;
stroke-miterlimit: 10;
}
.gx_2{
fill: #FC9;
}
.gy_2{
fill: none;
stroke: #000;
stroke-width: 1.252;
stroke-linecap: square;
stroke-miterlimit: 10;
}
.gz_2{
fill: none;
stroke: #F00;
stroke-width: 0.93;
stroke-linecap: square;
stroke-miterlimit: 10;
}
.g10_2{
fill: none;
stroke: #090;
stroke-width: 0.93;
stroke-linecap: square;
stroke-miterlimit: 10;
}
.g11_2{
fill: none;
stroke: #00F;
stroke-width: 1.252;
stroke-linecap: square;
stroke-miterlimit: 10;
}
.g12_2{
fill: #FCF;
}
.g13_2{
fill: none;
stroke: #000;
stroke-width: 1.25;
stroke-linecap: square;
stroke-miterlimit: 10;
}
.g14_2{
fill: none;
stroke: #00F;
stroke-width: 1.25;
stroke-linecap: square;
stroke-miterlimit: 10;
}
.g15_2{
fill: none;
stroke: #F00;
stroke-width: 0.928;
stroke-linecap: square;
stroke-miterlimit: 10;
}
.g16_2{
fill: none;
stroke: #090;
stroke-width: 0.928;
stroke-linecap: square;
stroke-miterlimit: 10;
}
.g17_2{
fill: none;
stroke: #000;
stroke-width: 1.145;
stroke-linejoin: round;
}
.g18_2{
fill: #6C3;
}
.g19_2{
fill: none;
stroke: #000;
stroke-width: 1.169;
stroke-linecap: square;
stroke-miterlimit: 10;
}
.g1a_2{
fill: none;
stroke: #F00;
stroke-width: 1.169;
stroke-linecap: square;
stroke-miterlimit: 10;
}
.g1b_2{
fill: none;
stroke: #00F;
stroke-width: 1.169;
stroke-linecap: square;
stroke-miterlimit: 10;
}
]]></style>
</defs>
<image clip-path="url(#c0_2)" preserveAspectRatio="none" x="-2" y="1229" width="930" height="128" xlink:href="img/1.jpg"/>
<path d="M755.2 818.9L739.9 779.3h77.5l15.3 39.6Z" class="g0_2"/>
<path d="M731.8 818.9l8 -39.6h.1l15.3 39.6Z" class="g0_2"/>
<path d="M765.5 845.5L755.2 818.9h77.5l10.2 26.6Z" class="g0_2"/>
<path d="M726.5 845.5l5.3 -26.6h23.4l10.3 26.6Z" class="g0_2"/>
<path d="M731.8 818.9H832.7m0 0L817.4 779.3H739.8l-8 39.6l-5.3 26.6H842.9L832.7 818.9" class="g1_2"/>
<path d="M765.5 845.5L755.2 818.9L739.9 779.3" class="g2_2"/>
<path d="M783 178.8l14.9 -64.7l.3 -.2l28.2 64.9Z" class="g3_2"/>
<path d="M694.5 178.8L797.9 114.1L783 178.8Z" class="g4_2"/>
<path d="M797.9 114.1L783 178.8m15.2 -64.9l28.2 64.9H783m0 0H694.5M798.2 113.9l-.3 .2L694.5 178.8" class="g5_2"/>
<path fill-rule="evenodd" d="M57.4 243.8h54.3V217.2H57.4v26.6Z" class="g6_2"/>
<path fill-rule="evenodd" d="M65.3 242.6h38.5V218.7H65.3v23.9Z" class="g6_2"/>
<path fill-rule="evenodd" d="M112.4 243.8H874.1V217.2H112.4v26.6Z" class="g6_2"/>
<path d="M120.3 243.8h746V217.2h-746v26.6Z" class="g6_2"/>
<path d="M56.7 217.3h.7v-.8h-.7v.8Z" class="g7_2"/>
<path d="M56.7 217.3h.7v-.8h-.7v.8Z" class="g7_2"/>
<path d="M57.4 217.3h54.3v-.8H57.4v.8Z" class="g7_2"/>
<path d="M111.7 217.3h.7v-.8h-.7v.8Z" class="g7_2"/>
<path d="M112.4 217.3H874v-.8H112.4v.8Z" class="g7_2"/>
<path d="M873.9 217.3h.8v-.8h-.8v.8Z" class="g7_2"/>
<path d="M873.9 217.3h.8v-.8h-.8v.8Z" class="g7_2"/>
<path d="M56.7 243.8h.7V217.2h-.7v26.6Z" class="g7_2"/>
<path d="M111.7 243.8h.7V217.2h-.7v26.6Z" class="g7_2"/>
<path d="M873.9 243.8h.8V217.2h-.8v26.6Z" class="g7_2"/>
<path fill-rule="evenodd" d="M57.4 294.4h54.3V244.7H57.4v49.7Z" class="g6_2"/>
<path fill-rule="evenodd" d="M65.3 281.4h38.5V257.6H65.3v23.8Z" class="g6_2"/>
<path d="M165.4 268.8h28.9m18 0h28.1m112.7 0h29m17.8 0h28m118.6 0h29m18 0h28m118.8 0h29m17.7 0h28.1" class="g8_2"/>
<path d="M56.7 244.6h.7v-.8h-.7v.8Z" class="g7_2"/>
<path d="M57.4 244.6h54.3v-.8H57.4v.8Z" class="g7_2"/>
<path d="M111.7 244.6h.7v-.8h-.7v.8Z" class="g7_2"/>
<path d="M112.4 244.6H293.3v-.8H112.4v.8Z" class="g7_2"/>
<path d="M293.3 244.6h.8v-.8h-.8v.8Z" class="g7_2"/>
<path d="M294.1 244.6H486.8v-.8H294.1v.8Z" class="g7_2"/>
<path d="M486.8 244.6h.7v-.8h-.7v.8Z" class="g7_2"/>
<path d="M487.5 244.6H680.3v-.8H487.5v.8Z" class="g7_2"/>
<path d="M680.4 244.6h.7v-.8h-.7v.8Z" class="g7_2"/>
<path d="M681.1 244.6H873.9v-.8H681.1v.8Z" class="g7_2"/>
<path d="M873.9 244.6h.8v-.8h-.8v.8Z" class="g7_2"/>
<path d="M56.7 294.4h.7V244.6h-.7v49.8Z" class="g7_2"/>
<path d="M111.7 294.4h.7V244.6h-.7v49.8Z" class="g7_2"/>
<path d="M293.3 294.4h.8V244.6h-.8v49.8Z" class="g7_2"/>
<path d="M486.8 294.4h.7V244.6h-.7v49.8Z" class="g7_2"/>
<path d="M680.4 294.4h.7V244.6h-.7v49.8Z" class="g7_2"/>
<path d="M873.9 294.4h.8V244.6h-.8v49.8Z" class="g7_2"/>
<path fill-rule="evenodd" d="M57.4 427.7h54.3V295.2H57.4V427.7Z" class="g6_2"/>
<path fill-rule="evenodd" d="M65.3 373.5h38.5V349.6H65.3v23.9Z" class="g6_2"/>
<path d="M163.5 409.6l18.7 -32.4H232l8.8 32.4Z" class="g9_2"/>
<path d="M182.2 377.2L216 319.1l16 58.1Z" class="ga_2"/>
<path d="M216 319.1l-33.8 58.1l-18.7 32.4M232 377.2H182.2m49.8 0L216 319.1m-52.5 90.5h77.3L232 377.2" class="gb_2"/>
<path d="M234.5 368l.2 .5l.2 .5l.3 .4l.3 .3l.3 .3l.4 .3l.3 .2l.4 .2l.1 .1h.3l.5 .1l.7 -.1l.7 -.2l.8 -.3l.9 -.4l-3 4.3l-2.9 4.5Z" class="gc_2"/>
<path d="M217.8 319.7l1.5 1.1l1.4 1.3l1.4 1.2l1.3 1.4l1.2 1.2l1.2 1.4l1.1 1.4L228 330l1 1.4l1 1.5l.9 1.4l.9 1.5l.8 1.5l.7 1.6l.8 1.5l.6 1.6l.6 1.6l.5 1.7l.5 1.6l.4 1.7l.3 1.7l.3 1.7l.3 1.8l.2 1.8l.1 1.8l.1 1.8V363l-.1 1.9l-.1 2l-.2 1.9l-.3 2" class="gd_2"/>
<path d="M158.1 398.2l.3 .4l.5 .3l.1 .1l.3 .2l.4 .2l.3 .2l.5 .1l.4 .1h.7l.3 -.1l.4 -.1l.6 -.3l.6 -.4l.3 -.3l.3 -.3l.6 -.8l-1.2 5.2l-1.2 5.2Z" class="ge_2"/>
<path d="M212.8 319.5l-3.4 1.3l-3.3 1.5l-3.3 1.5l-3 1.7l-3 1.6l-2.8 1.8l-2.8 1.8l-2.5 1.9l-2.6 2l-2.3 2l-2.3 2.1l-2.1 2.3l-2 2.2l-1.9 2.4l-1.8 2.3l-1.6 2.6l-1.6 2.5l-1.4 2.6l-1.4 2.7l-1.1 2.8l-1.1 2.8l-1 2.9l-.9 2.9l-.6 3.1l-.7 3.1l-.5 3.2l-.4 3.3l-.2 3.3l-.2 3.4v3.5l.1 3.6l.3 3.6" class="gf_2"/>
<path d="M178.2 367.1l.7 .8l.4 .3l.3 .3l.4 .2l.4 .2l.4 .1l.4 .1h.3l.4 -.1l.3 -.1l.6 -.2l.7 -.4l.6 -.5l.7 -.6l-1.7 5l-1.8 5Z" class="gc_2"/>
<path d="M214.4 319.3l-1.9 .8l-1.8 .8l-1.7 .8l-1.7 1l-1.7 .9l-1.5 1l-1.6 1.1l-1.4 1.2l-1.5 1.1l-1.3 1.2l-1.3 1.3l-1.3 1.3l-1.2 1.4l-1.2 1.4l-1.1 1.5l-1 1.6l-1 1.5l-1 1.7l-.9 1.6l-.9 1.8l-.8 1.8l-.7 1.8l-.7 1.9l-.6 1.9l-.7 2l-.5 2l-.5 2.1l-.4 2.2l-.4 2.2l-.3 2.2l-.3 2.3l-.2 2.4" class="gd_2"/>
<path d="M242.3 396.7l.2 .5l.2 .5l.2 .5l.3 .4l.2 .3l.4 .3l.3 .2l.4 .3h.1l.1 .1h.2l.5 .1h.7l.7 -.1l.8 -.2l.9 -.4l-6.7 8.2Z" class="ge_2"/>
<path d="M218.8 319.8l2.6 1.7l2.5 1.7l2.4 1.8l2.3 1.9l2.1 1.9l2.1 1.9l1.9 2.1l1.9 2l1.6 2.1l1.6 2.2l1.5 2.2l1.3 2.3l1.2 2.3l1.2 2.4l1 2.4l.9 2.5l.7 2.5l.6 2.6l.5 2.6l.4 2.7l.3 2.7l.2 2.8v5.8l-.2 2.9l-.3 3l-.4 3l-.5 3.1l-.7 3.2l-.8 3.2l-.8 3.2l-1 3.3" class="gf_2"/>
<path d="M369.8 377.2l33.8 -58.1l15.9 58.1Z" class="gg_2"/>
<path d="M351.1 409.6l18.7 -32.4h49.7l8.9 32.4Z" class="gh_2"/>
<path d="M419.5 377.2L403.6 319.1m0 0l-33.8 58.1l-18.7 32.4m0 0h77.3l-8.9 -32.4m0 0H369.8" class="gi_2"/>
<path d="M422 368l.3 .5l.2 .5l.3 .4l.3 .3l.3 .3l.4 .3l.3 .2l.4 .2l.1 .1h.3l.5 .1l.7 -.1l.7 -.2l.8 -.3l.9 -.4l-3 4.3l-2.9 4.5Z" class="gc_2"/>
<path d="M405.4 319.7l1.5 1.1l1.4 1.3l1.3 1.2l1.4 1.4l1.2 1.2l1.2 1.4l1.1 1.4l1.1 1.3l1 1.4l1 1.5l.9 1.4l.9 1.5l.8 1.5l.7 1.6l.7 1.5l.7 1.6l.6 1.6l.5 1.7l.5 1.6l.4 1.7l.3 1.7l.3 1.7l.3 1.8l.2 1.8l.1 1.8l.1 1.8V363l-.1 1.9l-.1 2l-.2 1.9l-.3 2" class="gj_2"/>
<path d="M345.7 398.2l.4 .4l.4 .3l.4 .3l.4 .2l.4 .2l.4 .2h.4l.4 .1h.1v-.1h.2l.3 -.1l.4 -.1l.6 -.3l.6 -.4l.3 -.3l.3 -.3l.7 -.8l-1.3 5.2l-1.2 5.2Z" class="ge_2"/>
<path d="M366.2 379.3l-1.2 .3l-1.2 .3l-2.2 .7l-2 .8l-1.9 .9l-.9 .4l-.8 .5l-1.5 1.1l-1.3 1.1l-1.1 1.3l-.6 .6l-.4 .7l-.9 1.5l-.6 1.5l-.3 .7l-.2 .9l-.3 1.6l-.1 1.8l.1 1.9l.1 1l.1 1" class="gk_2"/>
<path d="M365.8 367.1l.7 .8l.4 .3l.4 .3l.3 .2l.5 .2l.3 .1l.4 .1h.3l.4 -.1l.3 -.1l.6 -.2l.7 -.4l.7 -.5l.7 -.6l-1.8 5l-1.8 5Z" class="gc_2"/>
<path d="M402 319.3l-1.9 .8l-1.8 .8l-1.7 .8l-1.7 1l-1.7 .9l-1.5 1l-1.6 1.1l-1.4 1.2l-1.5 1.1l-1.3 1.2l-1.3 1.3l-1.3 1.3l-1.2 1.4l-1.2 1.4l-1.1 1.5l-1 1.6l-1 1.5l-1 1.7l-.9 1.6l-.8 1.8l-.9 1.8l-.7 1.8l-.7 1.9l-.6 1.9l-.7 2l-.5 2l-.5 2.1l-.4 2.2l-.4 2.2l-.3 2.2l-.3 2.3l-.2 2.4" class="gj_2"/>
<path d="M429.9 396.7l.2 .5l.2 .5l.2 .5l.3 .4l.2 .3l.3 .3l.4 .3l.3 .2h.2l.1 .1l.2 .1l.5 .1l.6 -.1l.8 -.1l.7 -.2l.9 -.4l-6.7 8.2Z" class="ge_2"/>
<path d="M423.7 379l1.5 .6l1.3 .8l1.3 .8l1.1 .9l1 1l.4 .5l.5 .6l.3 .6l.4 .6l.7 1.3l.2 .6l.2 .7l.4 1.4l.2 1.5l.1 1.7v1.6l-.1 1.8l-.3 1.9l-.2 1l-.2 1" class="gk_2"/>
<path d="M563.4 377.2l33.7 -58.1l16 58.1Z" class="gl_2"/>
<path d="M544.7 409.6l18.7 -32.4h49.7l8.8 32.4Z" class="gm_2"/>
<path d="M597.1 319.1l16 58.1m0 0H563.4m-18.7 32.4h77.2l-8.8 -32.4m-68.4 32.4l18.7 -32.4l33.7 -58.1" class="gi_2"/>
<path d="M621.7 395.7l.2 .6l.3 .4l.2 .4l.4 .4l.3 .3l.3 .2l.4 .3l.4 .2h.1l.1 .1h1.3l.8 -.2l.8 -.4l.8 -.4l-2.9 4.4l-2.9 4.4Z" class="gc_2"/>
<path d="M598.9 319.7l2.3 2.5l2.2 2.5l2.1 2.4l2.1 2.5l.9 1.2l.9 1.3l1.9 2.5l1.7 2.5l1.6 2.5l1.5 2.4l1.4 2.5l1.4 2.5l1.2 2.5l1.1 2.4l1 2.5l1 2.5l.9 2.5l.7 2.4l.1 .6l.2 .6l.3 1.2l.5 2.5l.5 2.5l.3 2.4l.1 .6v.6l.2 1.2l.1 2.5l.1 2.4l-.1 2.5l-.1 2.4l-.2 2.4l-.4 2.5l-.4 2.4l-.5 2.4l-.7 2.5l-.6 2.5" class="gj_2"/>
<path d="M542.1 396.7l.4 .4l.4 .3l.4 .3l.4 .2l.4 .2l.4 .2h.4l.4 .1h.1v-.1h.3l.3 -.1l.3 -.1l.6 -.3l.6 -.4l.3 -.3l.3 -.3l.7 -.8l-2.5 10.4Z" class="ge_2"/>
<path d="M559.7 379.3l-1.4 .7l-1.3 .9l-1.2 .9l-1.2 1l-1.1 1l-1 1.1l-1 1.1l-.9 1.2l-.9 1.2l-.7 1.3l-.8 1.2l-.6 1.4l-.6 1.4l-.5 1.5l-.4 1.5l-.4 1.6" class="gk_2"/>
<path d="M540.5 398.5l.7 .7l.7 .6l.4 .2l.3 .2l.4 .1l.4 .1l-.1 .7l.1 -.7h.8l.3 -.1l.7 -.2l.6 -.4l.7 -.5l.7 -.6l-3.5 10Z" class="gc_2"/>
<path d="M595.6 319.3l-2.9 1.7l-2.7 1.7l-2.6 1.8l-2.6 1.9l-2.5 1.9l-2.4 2l-2.3 2l-2.3 2.1l-2.2 2.1l-2.1 2.2l-2 2.2l-2 2.3l-1.9 2.4l-1.8 2.4l-1.7 2.4l-1.7 2.6l-1.6 2.5l-1.5 2.6l-1.5 2.7l-1.3 2.7l-1.4 2.8l-1.1 2.8l-1.2 2.9l-1 3l-1.1 2.9l-.9 3.1l-.8 3l-.8 3.2l-.7 3.2l-.6 3.3l-.5 3.3l-.5 3.4l-.1 .7" class="gj_2"/>
<path d="M619.9 394.6l.3 .5l.3 .5l.3 .4l.3 .3l.4 .3l.3 .2l.4 .2l.4 .1h.2l.1 .1h.7l.6 -.2l.7 -.2l.8 -.4l.8 -.6l-5 9.4Z" class="ge_2"/>
<path d="M615.6 379.3l1.1 .7l.9 .8l.9 .9l.8 .9l.8 .9l.6 1.1l.6 1l.6 1.1l.4 1.1l.4 1.2l.2 1.2l.3 1.4l.1 1.3l.1 1.4v1.4l-.1 1.5" class="gk_2"/>
<path d="M738.3 409.6L757 377.2h49.7l8.9 32.4Z" class="gn_2"/>
<path d="M757 377.2l33.7 -58.1l16 58.1Z" class="go_2"/>
<path d="M738.3 409.6L757 377.2l33.7 -58.1m0 0l16 58.1m0 0H757m-18.7 32.4h77.3l-8.9 -32.4" class="gb_2"/>
<path d="M734.1 398.5l.3 .4l.4 .3l.7 .6l.3 .2l.4 .2l.4 .2l.4 .1h.4l.4 -.1l.3 -.1l.6 -.2l.7 -.4l.6 -.5l.7 -.6l-3.4 10Z" class="ge_2"/>
<path d="M789.2 319.4l-3.3 1.4l-3.1 1.5l-3 1.6l-2.9 1.7l-2.9 1.7l-2.7 1.8l-2.6 1.9l-2.4 1.9l-2.5 1.9l-2.3 2.1l-2.2 2.2l-2.1 2.2l-2 2.3l-1.8 2.4l-1.8 2.4l-1.7 2.5l-1.6 2.6l-1.5 2.6l-1.4 2.7l-1.2 2.8l-1.2 2.8l-1 3l-1 2.9l-.8 3.2l-.8 3.1l-.7 3.2l-.5 3.2l-.4 3.4l-.4 3.4l-.3 3.5l-.1 3.5v3.7" class="gf_2"/>
<path d="M753.5 367l.7 .8l.3 .3l.4 .3l.4 .2l.4 .2l.4 .1l.4 .1h.2l.4 -.1l.4 -.1l.6 -.2l.6 -.4l.7 -.5l.7 -.6l-1.8 5l-1.7 5Z" class="gc_2"/>
<path d="M789.7 319.2l-1.9 .8l-1.8 .8l-1.7 .8l-1.7 1l-1.7 .9l-1.6 1l-1.5 1.1l-1.4 1.1l-1.5 1.2l-1.3 1.2l-1.4 1.3l-1.2 1.3l-1.2 1.4l-1.2 1.4l-1.1 1.5l-1 1.6l-1.1 1.5l-.9 1.6l-.9 1.7l-.9 1.8l-.8 1.8l-.7 1.8l-.7 1.9l-.7 1.9l-.6 2l-.5 2l-.5 2.1l-.4 2.2l-.4 2.1l-.3 2.3l-.3 2.3l-.2 2.4" class="gd_2"/>
<path d="M798.7 385.4l.1 -.4l.1 -.9V383l-.1 -.3l-.1 -.5l-.1 -.1l-.1 -.1l-.1 -.2l-.1 -.1l-.3 -.3l-.5 -.5l-.7 -.4l-.7 -.3l-.9 -.2l10.2 -2l-6.9 7.9Z" class="gc_2"/>
<path d="M758.6 378.7l1.2 .9l1.3 .9l1.2 .8l1.3 .8l1.2 .7l1.3 .7l1.2 .5l1.3 .6l1.2 .5l1.3 .4l2.5 .8l2.5 .5l1.2 .2l1.3 .1l1.2 .1H781l1.3 -.1h1.2l1.3 -.2l1.2 -.2l1.2 -.2l1.3 -.3l1.2 -.4l1.3 -.4l1.2 -.5l1.3 -.5l1.2 -.6l.2 -.2l.4 -.1l.6 -.3l1.2 -.7l1.3 -.7" class="gd_2"/>
<path d="M809.5 417.2l.1 -.5v-1.3l-.1 -.4l-.1 -.3l-.1 -.2v-.1l-.1 -.1L809 414l-.3 -.3l-.5 -.5l-.7 -.3l-.7 -.4l-.8 -.2l10.2 -2l-7 8Z" class="ge_2"/>
<path d="M738.9 411.1l2 1.3l2.1 1.3l2 1.2l2.1 1.1l2 1l2.1 1l2.1 .8l2.1 .8l2.1 .7l2.1 .7l2.2 .5l2.1 .5l2.2 .4l2.2 .3l2.2 .2l2.2 .2h4.4l2.2 -.1l2.2 -.1l2.3 -.3l2.2 -.4l2.3 -.4l2.3 -.4l2.3 -.7l2.3 -.6l2.3 -.7l2.4 -.8l2.3 -.9l2.4 -1l2.3 -1.1l2.4 -1.1" class="gf_2"/>
<path d="M56.7 295.2h.7v-.8h-.7v.8Z" class="g7_2"/>
<path d="M57.4 295.2h54.3v-.8H57.4v.8Z" class="g7_2"/>
<path d="M111.7 295.2h.7v-.8h-.7v.8Z" class="g7_2"/>
<path d="M112.4 295.2H293.3v-.8H112.4v.8Z" class="g7_2"/>
<path d="M293.3 295.2h.8v-.8h-.8v.8Z" class="g7_2"/>
<path d="M294.1 295.2H486.8v-.8H294.1v.8Z" class="g7_2"/>
<path d="M486.8 295.2h.7v-.8h-.7v.8Z" class="g7_2"/>
<path d="M487.5 295.2H680.3v-.8H487.5v.8Z" class="g7_2"/>
<path d="M680.4 295.2h.7v-.8h-.7v.8Z" class="g7_2"/>
<path d="M681.1 295.2H873.9v-.8H681.1v.8Z" class="g7_2"/>
<path d="M873.9 295.2h.8v-.8h-.8v.8Z" class="g7_2"/>
<path d="M56.7 427.7h.7V295.2h-.7V427.7Z" class="g7_2"/>
<path d="M56.7 428.5h.7v-.8h-.7v.8Z" class="g7_2"/>
<path d="M56.7 428.5h.7v-.8h-.7v.8Z" class="g7_2"/>
<path d="M57.4 428.5h54.3v-.8H57.4v.8Z" class="g7_2"/>
<path d="M111.7 427.7h.7V295.2h-.7V427.7Z" class="g7_2"/>
<path d="M111.7 428.5h.7v-.8h-.7v.8Z" class="g7_2"/>
<path d="M112.4 428.5H293.3v-.8H112.4v.8Z" class="g7_2"/>
<path d="M293.3 427.7h.8V295.2h-.8V427.7Z" class="g7_2"/>
<path d="M293.3 428.5h.8v-.8h-.8v.8Z" class="g7_2"/>
<path d="M294.1 428.5H486.8v-.8H294.1v.8Z" class="g7_2"/>
<path d="M486.8 427.7h.7V295.2h-.7V427.7Z" class="g7_2"/>
<path d="M486.8 428.5h.7v-.8h-.7v.8Z" class="g7_2"/>
<path d="M487.5 428.5H680.3v-.8H487.5v.8Z" class="g7_2"/>
<path d="M680.4 427.7h.7V295.2h-.7V427.7Z" class="g7_2"/>
<path d="M680.4 428.5h.7v-.8h-.7v.8Z" class="g7_2"/>
<path d="M681.1 428.5H873.9v-.8H681.1v.8Z" class="g7_2"/>
<path d="M873.9 427.7h.8V295.2h-.8V427.7Z" class="g7_2"/>
<path d="M873.9 428.5h.8v-.8h-.8v.8Z" class="g7_2"/>
<path d="M873.9 428.5h.8v-.8h-.8v.8Z" class="g7_2"/>
<path fill-rule="evenodd" d="M57.4 587.8h54.3V563.9H57.4v23.9Z" class="g6_2"/>
<path d="M65.3 587.8h38.5V563.9H65.3v23.9Z" class="g6_2"/>
<path fill-rule="evenodd" d="M112.4 587.8H861.9V563.9H112.4v23.9Z" class="g6_2"/>
<path d="M120.3 587.8H854V563.9H120.3v23.9Z" class="g6_2"/>
<path d="M56.7 563.9h.7v-.7h-.7v.7Z" class="g7_2"/>
<path d="M56.7 563.9h.7v-.7h-.7v.7Z" class="g7_2"/>
<path d="M57.4 563.9h54.3v-.7H57.4v.7Z" class="g7_2"/>
<path d="M111.7 563.9h.7v-.7h-.7v.7Z" class="g7_2"/>
<path d="M112.4 563.9H861.9v-.7H112.4v.7Z" class="g7_2"/>
<path d="M861.9 563.9h.7v-.7h-.7v.7Z" class="g7_2"/>
<path d="M861.9 563.9h.7v-.7h-.7v.7Z" class="g7_2"/>
<path d="M56.7 587.8h.7V563.9h-.7v23.9Z" class="g7_2"/>
<path d="M111.7 587.8h.7V563.9h-.7v23.9Z" class="g7_2"/>
<path d="M861.9 587.8h.7V563.9h-.7v23.9Z" class="g7_2"/>
<path fill-rule="evenodd" d="M57.4 643.3h54.3V588.5H57.4v54.8Z" class="g6_2"/>
<path fill-rule="evenodd" d="M65.3 627.9h38.5V604.1H65.3v23.8Z" class="g6_2"/>
<path d="M184.4 615.1h28.1m18.3 0h29m172.1 0H460m18.3 0h29m166.6 -.2H702m18.5 0h75.3" class="g8_2"/>
<path d="M56.7 588.5h.7v-.7h-.7v.7Z" class="g7_2"/>
<path d="M57.4 588.5h54.3v-.7H57.4v.7Z" class="g7_2"/>
<path d="M111.7 588.5h.7v-.7h-.7v.7Z" class="g7_2"/>
<path d="M112.4 588.5H331.7v-.7H112.4v.7Z" class="g7_2"/>
<path d="M331.7 588.5h.7v-.7h-.7v.7Z" class="g7_2"/>
<path d="M332.4 588.5H606.7v-.7H332.4v.7Z" class="g7_2"/>
<path d="M606.6 588.5h.8v-.7h-.8v.7Z" class="g7_2"/>
<path d="M607.4 588.5H861.9v-.7H607.4v.7Z" class="g7_2"/>
<path d="M861.9 588.5h.7v-.7h-.7v.7Z" class="g7_2"/>
<path d="M56.7 643.3h.7V588.5h-.7v54.8Z" class="g7_2"/>
<path d="M111.7 643.3h.7V588.5h-.7v54.8Z" class="g7_2"/>
<path d="M331.7 643.3h.7V588.5h-.7v54.8Z" class="g7_2"/>
<path d="M606.6 643.3h.8V588.5h-.8v54.8Z" class="g7_2"/>
<path d="M861.9 643.3h.7V588.5h-.7v54.8Z" class="g7_2"/>
<path fill-rule="evenodd" d="M57.4 759.2h54.3V644.1H57.4V759.2Z" class="g6_2"/>
<path d="M65.3 667.9h38.5V644H65.3v23.9Z" class="g6_2"/>
<path d="M272.7 752.9L261.6 731.4m17.1 0H261.6M178.4 668l-5 25.4m68.5 0L228.8 668m-55.4 25.4h68.5M228.8 668H178.4m50.4 0l-7.5 -14.4m-40.3 1L178.4 668m52.2 63.4v.1l.1 -.1m30.9 0H165.9m-4.3 21.5l4.3 -21.5M178.4 668H151.8m-7.7 63.4h21.8m0 0l7.5 -38m0 0H149.1m92.8 0h35.5M270 668H228.8m32.8 63.4l-19.7 -38" class="gp_2"/>
<path d="M150.6 719.9l.3 .3l.4 .3l.3 .3l.4 .2l.3 .1l.4 .2h.4l.4 .1v-.1h.3l.5 -.2l.3 -.1l.3 -.1l.5 -.4l.3 -.3l.3 -.3l.6 -.6l-2.3 9.3Z" class="ge_2"/>
<path d="M170.8 696.2l-1.1 .3l-1 .3l-1 .3l-1 .4l-1 .3l-.8 .5l-.9 .5l-.8 .5l-.8 .5l-.8 .6l-.7 .6l-.7 .6l-.7 .7l-.6 .7l-.5 .7l-.6 .8l-.5 .8l-.5 .8l-.4 .9l-.4 .9l-.4 .9l-.3 1l-.3 1l-.3 1l-.3 1.1l-.1 1.1l-.2 1.1l-.2 1.2l-.1 1.2v1.2l-.1 1.3l.1 1.3" class="gq_2"/>
<path d="M158.4 683.9l.3 .3l.4 .3l.7 .5l.3 .1l.4 .2l.7 .1h.2v-.1h.1l.6 -.1l.3 -.2l.3 -.1l.6 -.4l.5 -.5l.6 -.7l-2.3 9.3Z" class="gc_2"/>
<path d="M161.2 685.3v.1" class="gq_2"/>
<path d="M174.1 669.3l-1 .2l-.9 .3l-1.7 .5l-1.6 .7l-1.5 .6l-1.3 .8l-1.2 .8l-1 .9l-.9 1l-.7 1l-.3 .6l-.3 .5l-.5 1.2l-.2 1.3l-.2 1.3v2.1l.1 .7l.3 1.5" class="gr_2"/>
<path d="M251.1 683.1l.5 .7l.5 .5l.6 .4l.6 .3l.5 .2h.5l.6 -.1l.7 -.3l.7 -.4l.4 -.3l.4 -.4l-3.8 8.8Z" class="gc_2"/>
<path d="M232.2 669.3l1.4 .1l1.3 .1l1.4 .1l1.2 .2l1.3 .2l1.2 .3l1.1 .2l1.1 .3l1 .3l1 .3l.9 .4l.9 .4l.8 .4l.9 .4l.7 .5l.7 .5l.7 .5l.6 .5l.5 .6l.5 .6l.5 .6l.4 .6l.4 .6l.3 .8l.3 .6l.2 .8l.2 .8l.1 .8v.8l.1 .8v.9l-.1 .9" class="gr_2"/>
<path d="M268.3 721.1l.5 .7l.5 .5l.6 .4l.5 .3l.6 .2h.7l.3 -.1l.4 -.1l.3 -.2l.7 -.4l.4 -.3l.4 -.4l-3.7 8.8Z" class="ge_2"/>
<path d="M244.9 694.8l1.6 .4l1.7 .5l1.5 .5l1.5 .5l1.5 .6l1.4 .6l1.3 .6l1.3 .7l1.2 .6l1.2 .7l1.1 .7l1.1 .8l1 .8l1 .8l.9 .9l.8 .9l.8 .9l.7 .9l.7 .9l.6 1l.6 1l.5 1.1l.4 1.1l.5 1.1l.3 1.1l.3 1.1l.2 1.2l.2 1.2l.1 1.2l.1 1.3v2.7" class="gq_2"/>
<path d="M520.1 752.9L509 731.5m0 0h17.1M425.9 668l-5.1 25.4m68.6 0L476.2 668m-7.4 -14.3l7.4 14.3m0 0H425.9m0 0l2.6 -13.4m-7.7 38.8h68.6m-11.3 38.1v0m30.9 0H413.4m-4.3 21.4l4.3 -21.4m-21.8 0h21.8m0 0l7.4 -38.1M399.2 668h26.7m-5.1 25.4H396.6m92.8 0L509 731.5m15.8 -38.1H489.4M476.2 668h41.3" class="gp_2"/>
<path d="M398 719.9l.4 .3l.3 .3l.4 .3l.4 .2l.3 .2l.4 .1l.3 .1h.5v-.1h.2l.6 -.1l.3 -.2l.2 -.1l.6 -.4l.3 -.3l.3 -.2l.5 -.7l-2.2 9.3Z" class="ge_2"/>
<path d="M418.3 696.3l-1.1 .2l-1 .3l-1.1 .3l-.9 .4l-1 .4l-.9 .4l-.8 .5l-.8 .5l-.9 .5l-.7 .6l-.7 .6l-.7 .6l-.7 .7l-.6 .7l-.6 .7l-.5 .8l-.5 .8l-.5 .9l-.5 .8l-.3 .9l-.4 1l-.4 .9l-.3 1l-.2 1.1l-.3 1l-.2 1.1l-.2 1.1l-.1 1.2l-.1 1.2l-.1 1.3v2.5" class="gq_2"/>
<path d="M394 720.9l.3 .3l.4 .3l.7 .5l.3 .2l.4 .1l.7 .1h.4l.2 -.1l.3 -.1l.3 -.1l.3 -.2l.6 -.4l.5 -.5l.6 -.6l-2.3 9.3Z" class="gc_2"/>
<path d="M421.6 669.3h-1l-.9 .1l-1.7 .2l-1.7 .3l-1.6 .5l-1.6 .5l-1.5 .6l-1.4 .7l-1.4 .8l-1.3 .9l-1.2 1l-1.1 1.1l-1 1.2l-1 1.3l-1 1.4l-.8 1.5l-.4 .8l-.4 .8l-.7 1.7l-.7 1.8l-.6 1.9l-.5 2.1l-.5 2l-.3 2.3L397 697l-.2 2.5l-.1 1.2l-.1 1.3l-.1 2.6v5.5l.1 2.9l.1 1.5l.1 1.5l.1 1.5l.2 1.6l.3 3.2" class="gr_2"/>
<path d="M519.5 725.7L518.4 721l.5 .7l.5 .5l.6 .4l.6 .3l.2 .1h.1l.2 .1h.5l.6 -.1l.4 -.1l.3 -.2l.7 -.4l.4 -.3l.3 -.4l-3.7 8.8Z" class="gc_2"/>
<path d="M479.7 669.3l1.1 .1l1.1 .1l1.1 .1l1.1 .1l2.2 .4l1 .2l1.1 .3l1 .2l1 .3l1 .3l1 .3l1.9 .8l1.8 .9l.8 .4l.9 .5l.9 .5l.8 .5l1.7 1.2l1.6 1.2l.7 .7l.8 .6l.7 .7l.7 .8l1.4 1.5l1.4 1.7l.6 .8l.7 .9l.5 .9l.6 .9l.6 1l.6 .9l.5 1l.6 1.1l.5 1l.5 1.1l.4 1.1l.5 1.1l.9 2.3l.4 1.2l.4 1.3l.4 1.2l.4 1.3l.7 2.6l.3 1.3l.3 1.4l.3 1.3l.3 1.5l.2 1.4l.3 1.5l.2 1.4l.3 1.6l.1 1.5l.2 1.6l.2 1.5l.2 1.7" class="gr_2"/>
<path d="M515.7 721.2l.5 .6l.6 .6l.5 .4l.6 .2l.5 .2h.7l.4 -.1l.3 -.1l.4 -.2l.7 -.4l.4 -.3l.4 -.3l-3.8 8.7Z" class="ge_2"/>
<path d="M492.4 694.8l1.6 .4l1.6 .5l1.6 .5l1.5 .6l1.5 .5l1.3 .6l1.4 .6l1.3 .7l1.2 .7l1.2 .7l1.1 .7l1.1 .8l1 .8l.9 .8l.9 .8l.9 .9l.7 .9l.8 .9l.7 1l.6 1l.5 1l.6 1l.4 1.1l.4 1.1l.3 1.1l.3 1.2l.3 1.1l.2 1.3v1.2l.1 1.3l.1 1.3l-.1 1.3" class="gq_2"/>
<path d="M754.3 690.8l1.6 3m-1.5 -3l1.5 3m-1.5 -3h-.1m35.5 0H754.4m30.7 59.4L774 728.8m0 0h17.1m-35.2 -35l18.1 35M690.9 665.4l-5 25.4M664.3 665.4h26.6m-5 25.4H661.6m78.7 -27.2l.8 1.8m-.8 -1.8l.9 1.8m0 0h-.1M733.8 651l6.5 12.6m.8 1.8H690.9m46.8 89.5l-1 -2.1m-1 -2.1l-1 -2.1m-1.1 -2.1l-1.1 -2m-1 -2.1l-1.2 -2m-1.1 -2.1l-1 -2.1M727 734.1L725.9 732m-1 -1.9l-.7 -1.3l-.2 -.5m-1 -2.1l-1 -2m-1 -2.1L719.9 720m-1 -2.1l-1.1 -2m-1 -2.1l-1.2 -2.1m-1.1 -2.1l-1.1 -2.1m-1 -2.1l-1.2 -2m-1.1 -2.1l-1 -2.1m-1.2 -2.1L706.8 695m-1.1 -2l-1 -2.1m-.8 -1.4l-1.1 -2.1m-1 -2.1l-1 -2m-1.1 -2.1l-1.1 -2.1M697.5 677l-1 -2.1m-1.2 -2.1l-1.1 -2m-1 -2.1l-1.2 -2m-6.1 24.1h68.4M690.9 665.4L693.6 652M774 728.8H678.4m64.6 0l.1 .1l.1 -.1m-69.1 21.4l4.3 -21.4m-21.7 0h21.7m0 0l7.5 -38m55.2 -25.4l13.2 25.4M741.2 665.4h41.3" class="gs_2"/>
<path d="M659 718.3l.3 .3l.4 .3l.7 .5l.4 .1l.3 .2l.8 .1h.1v-.1h.5l.3 -.1l.6 -.3l.5 -.4l.5 -.6l.6 -.6l-1.1 4.6l-1.1 4.7Z" class="ge_2"/>
<path d="M686.6 666.7h-.9l-.9 .1L683 667l-1.7 .3l-1.6 .4l-1.6 .5l-1.4 .6l-1.5 .7l-1.3 .8l-1.3 .9l-1.2 1l-1.1 1.1l-1.1 1.3l-1 1.2l-.9 1.5l-.9 1.5l-.4 .7l-.3 .9l-.8 1.7l-.6 1.8l-.6 1.9l-.5 2l-.5 2.1l-.3 2.2l-.3 2.3l-.3 2.4l-.1 1.2v1.3l-.1 2.6l-.1 2.7V706l.1 1.4l.1 2.9l.1 1.5l.1 1.5l.1 1.5l.1 1.6l.4 3.3" class="gt_2"/>
<path d="M669.1 681.3l.3 .3l.4 .3l.7 .5l.3 .1l.4 .2l.7 .1h.2v-.1h.2l.6 -.1l.2 -.2l.3 -.1l.6 -.4l.5 -.5l.6 -.7l-2.2 9.3Z" class="gc_2"/>
<path d="M671.9 682.7v.1" class="gt_2"/>
<path d="M684.8 666.7l-1 .2l-.9 .3l-1.7 .5l-1.6 .6l-1.5 .7l-1.3 .8l-1.1 .8l-1.1 .9l-.8 1l-.8 1l-.3 .5l-.3 .6l-.4 1.2l-.3 1.3l-.2 1.2v2.1l.1 .8l.3 1.5" class="gu_2"/>
<path d="M699 698.6l.1 -.4v-.9l-.1 -.7l-.1 -.4l-.1 -.2v-.1l-.1 -.1l-.1 -.1l-.1 -.1l-.2 -.3l-.2 -.2l-.3 -.2l-.2 -.1l-.7 -.3l-.7 -.3l-.4 -.1h-.4l1.1 -.4l1.2 -.3l2.2 -.6l4.5 -1.4l-5.5 7.7Z" class="gc_2"/>
<path d="M686.7 693.1l.6 1.1l.7 1l.7 1l.7 .8l.7 .5l.7 .6l.7 .4l.8 .2l.7 .1h.8l.8 -.1l.8 -.3l.8 -.5l.8 -.5l.9 -.6l.9 -.8" class="gu_2"/>
<path d="M717.1 736.2l.1 -.5l.1 -.4v-.8l-.1 -.4l-.2 -.6v-.2h-.1v-.1l-.1 -.2h-.1l-.3 -.3l-.5 -.5l-.6 -.3l-.3 -.1l-.4 -.1l-.8 -.2l9.1 -2.2l-5.9 7.4Z" class="ge_2"/>
<path d="M679.4 730.7l.7 1.1l.8 1.1l.9 1l.8 .9l.9 .9l.9 .8l.9 .7l1 .7l.9 .5l1 .6l1.1 .4l1 .4l1.1 .3l1.1 .3l1.2 .2l1.2 .1l1.1 .1l1.2 -.1l1.3 -.1l1.3 -.1l1.2 -.2l1.4 -.3l1.3 -.4l1.4 -.4l1.4 -.6l1.4 -.5l1.4 -.6l1.5 -.7l1.5 -.9l1.5 -.8l1.6 -.9l1.6 -.9" class="gt_2"/>
<path d="M56.7 644.1h.7v-.8h-.7v.8Z" class="g7_2"/>
<path d="M57.4 644.1h54.3v-.8H57.4v.8Z" class="g7_2"/>
<path d="M111.7 644.1h.7v-.8h-.7v.8Z" class="g7_2"/>
<path d="M112.4 644.1H331.7v-.8H112.4v.8Z" class="g7_2"/>
<path d="M331.7 644.1h.7v-.8h-.7v.8Z" class="g7_2"/>
<path d="M332.4 644.1H606.7v-.8H332.4v.8Z" class="g7_2"/>
<path d="M606.6 644.1h.8v-.8h-.8v.8Z" class="g7_2"/>
<path d="M607.4 644.1H861.9v-.8H607.4v.8Z" class="g7_2"/>
<path d="M861.9 644.1h.7v-.8h-.7v.8Z" class="g7_2"/>
<path d="M56.7 759.2h.7V644h-.7V759.2Z" class="g7_2"/>
<path d="M56.7 759.9h.7v-.7h-.7v.7Z" class="g7_2"/>
<path d="M56.7 759.9h.7v-.7h-.7v.7Z" class="g7_2"/>
<path d="M57.4 759.9h54.3v-.7H57.4v.7Z" class="g7_2"/>
<path d="M111.7 759.2h.7V644h-.7V759.2Z" class="g7_2"/>
<path d="M111.7 759.9h.7v-.7h-.7v.7Z" class="g7_2"/>
<path d="M112.4 759.9H331.7v-.7H112.4v.7Z" class="g7_2"/>
<path d="M331.7 759.2h.7V644h-.7V759.2Z" class="g7_2"/>
<path d="M331.7 759.9h.7v-.7h-.7v.7Z" class="g7_2"/>
<path d="M332.4 759.9H606.7v-.7H332.4v.7Z" class="g7_2"/>
<path d="M606.6 759.2h.8V644h-.8V759.2Z" class="g7_2"/>
<path d="M606.6 759.9h.8v-.7h-.8v.7Z" class="g7_2"/>
<path d="M607.4 759.9H861.9v-.7H607.4v.7Z" class="g7_2"/>
<path d="M861.9 759.2h.7V644h-.7V759.2Z" class="g7_2"/>
<path d="M861.9 759.9h.7v-.7h-.7v.7Z" class="g7_2"/>
<path d="M861.9 759.9h.7v-.7h-.7v.7Z" class="g7_2"/>
<path d="M250.1 788.2h25.2" class="gv_2"/>
<path d="M292.4 788.2h23.9m16.9 -.2h24.1m43.2 .2h23.8m11.9 0h23.3m31.7 0H515" class="gw_2"/>
<path d="M540.2 788.2h25.2m24.3 -.2h24m24.9 .2h25.2" class="gv_2"/>
<path d="M246.4 920.7h18.3" class="g8_2"/>
<path fill-rule="evenodd" d="M57.4 1032.5h54.3v-27.7H57.4v27.7Z" class="g6_2"/>
<path d="M65.3 1028.7h38.5v-23.9H65.3v23.9Z" class="g6_2"/>
<path fill-rule="evenodd" d="M112.4 1032.5H486.7v-27.7H112.4v27.7Z" class="g6_2"/>
<path d="M120.3 1032.5H478.9v-27.7H120.3v27.7Z" class="g6_2"/>
<path d="M221.2 1009.3h25.2" class="gv_2"/>
<path fill-rule="evenodd" d="M487.5 1032.5H861.9v-27.7H487.5v27.7Z" class="g6_2"/>
<path d="M495.4 1032.5H854v-27.7H495.4v27.7Z" class="g6_2"/>
<path d="M596.2 1009.3h23.9" class="gw_2"/>
<path d="M56.7 1004.7h.7v-.8h-.7v.8Z" class="g7_2"/>
<path d="M56.7 1004.7h.7v-.8h-.7v.8Z" class="g7_2"/>
<path d="M57.4 1004.7h54.3v-.8H57.4v.8Z" class="g7_2"/>
<path d="M111.7 1004.7h.7v-.8h-.7v.8Z" class="g7_2"/>
<path d="M112.4 1004.7H486.7v-.8H112.4v.8Z" class="g7_2"/>
<path d="M486.8 1004.7h.7v-.8h-.7v.8Z" class="g7_2"/>
<path d="M487.5 1004.7H861.9v-.8H487.5v.8Z" class="g7_2"/>
<path d="M861.9 1004.7h.7v-.8h-.7v.8Z" class="g7_2"/>
<path d="M861.9 1004.7h.7v-.8h-.7v.8Z" class="g7_2"/>
<path d="M56.7 1032.5h.7v-27.8h-.7v27.8Z" class="g7_2"/>
<path d="M111.7 1032.5h.7v-27.8h-.7v27.8Z" class="g7_2"/>
<path d="M486.8 1032.5h.7v-27.8h-.7v27.8Z" class="g7_2"/>
<path d="M861.9 1032.5h.7v-27.8h-.7v27.8Z" class="g7_2"/>
<path fill-rule="evenodd" d="M57.4 1208.7h54.3V1033.3H57.4v175.4Z" class="g6_2"/>
<path d="M65.3 1060.8h38.5v-27.5H65.3v27.5Z" class="g6_2"/>
<path fill-rule="evenodd" d="M65.3 1088.3h38.5v-27.5H65.3v27.5Z" class="g6_2"/>
<path fill-rule="evenodd" d="M65.3 1115.8h38.5v-27.5H65.3v27.5Z" class="g6_2"/>
<path fill-rule="evenodd" d="M65.3 1143.3h38.5v-27.5H65.3v27.5Z" class="g6_2"/>
<path fill-rule="evenodd" d="M65.3 1170.8h38.5v-27.5H65.3v27.5Z" class="g6_2"/>
<path d="M276.4 1145.6l-36.9 -88.4l36.9 88.4h-53L239 1056.3l141.5 89.3Z" class="gx_2"/>
<path d="M276.4 1145.6h-53L239 1056.3l141.5 89.3H276.4m-36.9 -88.4l36.9 88.4" class="gy_2"/>
<path d="M214.3 1134.9l1 .4l.4 .2l.4 .1l.4 .1h.9l.4 -.1h.1v-.1h.2l.3 -.2l.1 -.1l.2 -.1l.5 -.5l.2 -.3l.3 -.3l.4 -.7l.4 -.8l.4 10.6Z" class="gc_2"/>
<path d="M236.7 1057.2l-2.2 1.6l-2.1 1.7l-2 1.7l-1.9 1.8l-1.8 1.8l-1.7 1.9l-1.6 1.9l-1.5 2.1l-1.4 2l-1.2 2.1l-1.2 2.1l-1 2.3l-1 2.2l-.8 2.3l-.8 2.4l-.6 2.5l-.5 2.4l-.5 2.5l-.3 2.6l-.2 2.6l-.2 2.7v2.7l.2 2.8l.2 2.9l.3 2.9l.4 2.9l.5 3l.6 3.1l.7 3.1l.9 3.1l.9 3.3l1.1 3.3" class="gz_2"/>
<path d="M374.4 1137.1l.8 .2l.4 .1l.5 .1h.7l.7 -.1l.4 -.2h.3v-.1h.1l.2 -.1l.3 -.3l.3 -.3l.2 -.4l.2 -.4l.2 -.4v-.3l.1 -.2l.2 -.5l.1 -.5l2 10.5Z" class="gc_2"/>
<path d="M244.4 1056.2l5.2 .2l2.5 .1l2.6 .3l2.5 .2l2.5 .3l2.5 .3l2.5 .3l2.5 .4l2.4 .4l4.9 1l4.8 1.1l2.4 .6l2.4 .7l2.2 .7l2.4 .7l2.3 .8l2.3 .8l2.2 .8l2.3 .9l2.3 .9l2.2 1l2.2 .9l2.2 1.1l2.2 1l2.1 1.2l2.2 1.1l2.1 1.2l2.1 1.2l2.2 1.2l2 1.3l2.1 1.3l4.1 2.8l4 2.9l1.9 1.5l2 1.5l3.9 3.2l1.9 1.7l1.9 1.7l1.9 1.7l1.9 1.8l3.7 3.7l1.8 1.8l1.8 1.9l1.8 2l1.8 2l1.7 2l1.8 2.1l1.7 2.1l1.7 2.1l3.4 4.4l1.6 2.2l1.7 2.3l1.6 2.3l1.7 2.4l1.6 2.4l1.6 2.5" class="gz_2"/>
<path d="M267.6 1154.3l.2 -.5l.1 -.5l.1 -.4l.1 -.5v-.4l-.2 -.7v-.3h-.1v-.1l-.1 -.2l-.1 -.1l-.3 -.3l-.5 -.6l-.5 -.4l-.8 -.4l-.8 -.3l10.4 -1l-7.8 7.2Z" class="ge_2"/>
<path d="M226.3 1147.6l.9 1.2l.9 1.1l.9 1l1 1l1 .9l1 .8l1.1 .8l1.1 .7l1.1 .6l1.1 .6l1.2 .4l1.1 .4l1.2 .4l1.3 .3l1.2 .1l1.3 .2l1.3 .1h1.4l1.3 -.1l1.4 -.2l1.4 -.2l1.5 -.2l1.4 -.4l1.6 -.4l1.5 -.5l1.5 -.5l1.5 -.6l1.6 -.7l1.7 -.8l1.6 -.8l1.7 -1l1.7 -.9" class="g10_2"/>
<path d="M281 1146.8l10.1 2.1l-.9 .2l-.7 .3l-.7 .4l-.5 .5l-.3 .3l-.1 .1v.1h-.1v.1h-.1v.2l-.1 .1l-.1 .3l-.1 .4l-.1 .4v.5l.1 .4l.1 .5l.4 1.1Z" class="ge_2"/>
<path d="M380.2 1146.5l-3.1 1.3l-3.1 1.3l-3 1.2l-3 1.1l-3.1 1.1l-3 .9l-3 .9l-3 .9l-3 .7l-2.9 .6l-3 .6l-2.9 .5l-2.9 .4l-3 .3l-2.9 .3l-2.8 .2l-2.9 .1h-2.9l-2.9 -.1l-2.8 -.1l-2.9 -.2l-2.8 -.3l-2.8 -.4l-2.7 -.5l-2.8 -.6l-2.8 -.6l-2.7 -.7l-2.8 -.7l-2.7 -1l-2.7 -.9l-2.7 -1l-2.7 -1.1" class="g10_2"/>
<path d="M254.4 1071.5l-.1 -.4l-.1 -.4l-.2 -.4l-.3 -.4l-.4 -.3l-.3 -.2l-.4 -.1h-.9l-.4 .1l-.4 .2l-.3 .3l-.3 .4l-.2 .4l-.1 .4v.8l.1 .4l.2 .4l.3 .4l.3 .3l.4 .2l.4 .1l.5 .1h.2l.2 -.1h.2l.2 -.1l.3 -.2l.4 -.3l.3 -.4l.2 -.4l.1 -.2v-.2l.1 -.2v-.2m-10.7 5.2l-.1 -.5l-.1 -.4l-.3 -.4l-.2 -.3l-.4 -.3l-.4 -.2l-.4 -.1l-.3 -.1l-.5 .1l-.4 .1l-.4 .2l-.3 .3l-.3 .3l-.2 .4l-.1 .4l-.1 .5l.1 .4l.1 .4l.2 .4l.3 .3l.3 .3l.4 .3l.4 .1l.5 .1v-.1h.3l.2 -.1h.2l.4 -.3l.4 -.3l.2 -.3l.3 -.4v-.2l.1 -.2v-.3l.1 -.1" class="g11_2"/>
<path d="M579.3 1141.6l74.1 -61.5l-.3 1.4l-8.2 60.3Z" class="g12_2"/>
<path d="M644.9 1141.8l122.6 .4M653.1 1081.5l.3 -1.4m0 0l-74.1 61.5l65.6 .2l8.2 -60.3m25.1 -22.1l-24.8 20.7m114.1 62.1L653.1 1081.5" class="g13_2"/>
<path d="M662.7 1091.5l-.5 -.5l-.5 -.2l-.6 -.2l-.6 -.1l-.6 .1l-.6 .2l-.6 .2l-.5 .5l-.3 .4l-.3 .6l-.2 .6v1.3l.2 .6l.3 .6l.3 .4l.5 .4l.6 .4l.6 .1l.6 .1h.3l.2 -.1h.1l.6 -.1v-.1h.1l.2 -.1l.2 -.2l.5 -.4l.1 -.1l.1 -.1l.2 -.2l.2 -.3l.1 -.3l.2 -.6v-.3l.1 -.3l-.1 -.7l-.2 -.6l-.3 -.6l-.4 -.4m1.9 -13.7l-.5 .5l-.2 .6l-.2 .5v1.4l.2 .5l.2 .6l.2 .2l.3 .3l.4 .4l.6 .3l.5 .2l.7 .1l.3 -.1h.3l.6 -.2v-.1h.1l.1 -.1l.3 -.1l.5 -.4l.1 -.2v-.1h.1l.2 -.2l.2 -.3l.1 -.3l.2 -.5v-.4l.1 -.3l-.1 -.7l-.2 -.5l-.3 -.6l-.4 -.5l-.5 -.4l-.5 -.3l-.6 -.2h-1.3l-.5 .2l-.6 .3l-.4 .4" class="g14_2"/>
<path d="M579.8 1128.7l.2 .5l.2 .5l.5 .8l.6 .6l.4 .2l.3 .2h.3l.1 .1h.1l.2 .1h.5l.6 -.1l.7 -.2l.8 -.3l.8 -.4l-6 8.6Z" class="gc_2"/>
<path d="M648.6 1082.4l-3.2 .6l-3.1 .6l-3.1 .7l-2.9 .9l-2.9 .8l-2.8 1l-2.8 .9l-2.6 1.1l-2.6 1l-2.6 1.2l-2.4 1.2l-2.4 1.3l-2.4 1.3l-2.2 1.4l-2.2 1.5l-2 1.5l-2.1 1.6l-1.9 1.6l-1.9 1.6l-1.8 1.8l-1.8 1.8l-1.7 1.9l-1.6 1.9l-1.5 2l-1.5 2l-1.4 2.1l-1.3 2.2l-1.2 2.2l-1.2 2.3l-1.1 2.4l-1.1 2.3l-.9 2.5" class="g15_2"/>
<path d="M651 1131.2v.9l.2 .8l.2 .7l.2 .3l.2 .3l.1 .2l.1 .2l.2 .2v.1h.2v.1l.1 .1l.3 .2l.4 .1l.3 .1l.5 .1h1.4l.6 -.1l-4.5 2.7l-4.4 2.8Z" class="gc_2"/>
<path d="M654.4 1084.6l.5 1.9l.5 1.9l.2 .9l.3 1l.4 1.9l.4 1.8l.3 1.8l.3 1.8l.3 1.8v.8l.1 .9l.1 .8l.1 .9l.2 1.7l.1 1.7v2.8l.1 .5v1.6l-.1 1.6l-.1 1.5l-.1 1.5l-.1 .8l-.1 .7l-.1 .7l-.1 .8l-.3 1.4l-.3 1.5l-.3 1.4l-.3 1.4l-.5 1.3l-.4 1.4l-.5 1.3l-.5 1.3l-.6 1.3l-.6 1.2l-.6 1.2l-.7 1.2" class="g15_2"/>
<path d="M756.8 1149.8l.2 -.4l.2 -.5l.2 -.4l.1 -.4l.1 -.4v-.8l-.1 -.2v-.1l-.1 -.4l-.2 -.3l-.4 -.6l-.5 -.6l-.6 -.5l-.8 -.4l10.3 .8l-8.7 5.8Z" class="ge_2"/>
<path d="M650.1 1146.2l2.5 .9l2.6 1l2.7 .9l2.7 .8l2.7 .8l2.8 .7l2.9 .6l2.9 .6l3 .5l3 .5l3 .3l3.2 .4l3.1 .2l3.3 .2l3.3 .1h6.7l3.4 -.1l3.5 -.2l3.5 -.2l3.6 -.3l3.6 -.3l3.7 -.4l3.8 -.5l3.8 -.5l3.8 -.6l3.9 -.7l4 -.8l4 -.8l4.1 -.8l4.1 -1l4.2 -.9" class="g16_2"/>
<path d="M755.4 1150.8l.1 -.5l.2 -.5v-1.3l-.1 -.5l-.1 -.3v-.1h-.1l-.1 -.1v-.2l-.1 -.2h-.1l-.3 -.3l-.5 -.5l-.6 -.4l-.8 -.3l-.8 -.3l10.2 -1.8l-3.6 3.9l-3.5 3.9Z" class="ge_2"/>
<path d="M582.1 1143.6l2 1l2 1.1l4.1 1.9l4.2 1.9l4.3 1.7l2.1 .8l2.3 .8l4.4 1.4l2.3 .7l2.3 .7l4.7 1.2l2.3 .5l2.4 .6l4.8 .9l2.4 .4l2.5 .4l5.1 .7l2.5 .3l2.6 .3l5.1 .4l2.6 .2l2.7 .1l5.4 .3h5.4l5.6 -.1l2.8 -.1l2.8 -.1l5.8 -.3l2.8 -.3l3 -.2l5.9 -.6l2.9 -.4l3.1 -.3l6.1 -.8l3 -.5l3.1 -.5l6.3 -1.1l3.1 -.6l3.2 -.6l6.5 -1.4l6.5 -1.5l3.3 -.8l3.4 -.8l3.3 -.8l3.4 -.9l6.8 -1.8" class="g16_2"/>
<path d="M56.7 1033.3h.7v-.8h-.7v.8Z" class="g7_2"/>
<path d="M57.4 1033.3h54.3v-.8H57.4v.8Z" class="g7_2"/>
<path d="M111.7 1033.3h.7v-.8h-.7v.8Z" class="g7_2"/>
<path d="M112.4 1033.3H486.7v-.8H112.4v.8Z" class="g7_2"/>
<path d="M486.8 1033.3h.7v-.8h-.7v.8Z" class="g7_2"/>
<path d="M487.5 1033.3H861.9v-.8H487.5v.8Z" class="g7_2"/>
<path d="M861.9 1033.3h.7v-.8h-.7v.8Z" class="g7_2"/>
<path d="M56.7 1208.9h.7V1033.3h-.7v175.6Z" class="g7_2"/>
<path d="M56.7 1209.6h.7v-.7h-.7v.7Z" class="g7_2"/>
<path d="M56.7 1209.6h.7v-.7h-.7v.7Z" class="g7_2"/>
<path d="M57.4 1209.6h54.3v-.7H57.4v.7Z" class="g7_2"/>
<path d="M111.7 1208.9h.7V1033.3h-.7v175.6Z" class="g7_2"/>
<path d="M111.7 1209.6h.7v-.7h-.7v.7Z" class="g7_2"/>
<path d="M112.4 1209.6H486.7v-.7H112.4v.7Z" class="g7_2"/>
<path d="M486.8 1208.9h.7V1033.3h-.7v175.6Z" class="g7_2"/>
<path d="M486.8 1209.6h.7v-.7h-.7v.7Z" class="g7_2"/>
<path d="M487.5 1209.6H861.9v-.7H487.5v.7Z" class="g7_2"/>
<path d="M861.9 1208.9h.7V1033.3h-.7v175.6Z" class="g7_2"/>
<path d="M861.9 1209.6h.7v-.7h-.7v.7Z" class="g7_2"/>
<path d="M861.9 1209.6h.7v-.7h-.7v.7Z" class="g7_2"/>
<image preserveAspectRatio="none" x="27" y="61" width="823" height="39" xlink:href="img/2.png"/>
<path d="M134.5 438.3c-3.8 0 -6.9 2.6 -6.9 5.7v23c0 3.1 -3 5.7 -6.8 5.7c3.8 0 6.8 2.6 6.8 5.7v22.9c0 3.2 3.1 5.8 6.9 5.8" class="g17_2"/>
<path d="M51.3 159.7l-.9 -.1l-.8 -.2l-.7 -.4l-.7 -.5l-.3 -.4l-.2 -.3l-.4 -.7l-.3 -.8V141.9l.3 -.8l.4 -.8l.5 -.6l.7 -.6l.7 -.4l.8 -.2H64.7l.3 .1l.4 .1l.7 .4l.4 .3l.3 .3l.6 .6l.4 .8l.2 .8l.1 .9v13l-.1 .1v.4l-.2 .8l-.2 .3l-.1 .2l-.1 .2l-.3 .3l-.2 .2h-.1v.2l-.3 .2l-.4 .3l-.2 .1l-.1 .1l-.4 .2l-.4 .1h-.1l-.1 .1h-.5l-.1 .1h-.4Z" class="g18_2"/>
<path d="M79 479.5l-.9 -.1l-.8 -.2l-.7 -.4l-.7 -.5l-.3 -.4l-.3 -.3l-.3 -.7l-.3 -.9V461.7l.3 -.8l.3 -.8l.6 -.6l.7 -.6l.7 -.4l.8 -.2H92.4l.3 .1l.4 .1l.7 .4l.4 .3l.3 .3l.6 .6l.4 .8l.2 .8l.1 .9v13l-.1 .1v.3l-.2 .9l-.2 .3l-.1 .2l-.1 .2l-.3 .3l-.2 .1v.1h-.1v.2l-.3 .2l-.4 .3l-.2 .1l-.1 .1l-.4 .2l-.4 .1h-.1l-.1 .1H92l-.1 .1h-.4Z" class="gl_2"/>
<path d="M78.2 782l-.9 -.1l-.7 -.2l-.8 -.4l-.6 -.5l-.4 -.4l-.2 -.3l-.4 -.7l-.2 -.9l-.1 -.8V765.1l.1 -.9l.2 -.8l.4 -.8l.6 -.6l.6 -.6l.8 -.4l.7 -.2H91.6l.4 .1l.4 .1l.7 .4l.3 .3l.4 .3l.5 .6l.4 .8l.3 .8v14.3l-.3 .9l-.2 .3l-.1 .2l-.1 .2l-.3 .3l-.1 .1l-.1 .1v.2l-.4 .2l-.3 .3l-.2 .1l-.2 .1l-.3 .2l-.4 .1h-.2v.1h-.6v.1h-.4Z" class="gl_2"/>
<path d="M77.6 810.4h-.9l-.7 -.3l-.8 -.4l-.7 -.5l-.3 -.4l-.2 -.3l-.4 -.7l-.2 -.8l-.1 -.9V793.5l.1 -.9l.2 -.8l.4 -.7l.5 -.7l.7 -.6l.8 -.3l.7 -.3H91l.4 .1l.4 .2l.7 .3l.3 .3l.3 .3l.6 .7l.4 .7l.3 .8V807l-.3 .8l-.2 .3l-.1 .2l-.1 .2l-.3 .3l-.1 .2h-.2v.2l-.3 .2l-.3 .3l-.2 .1l-.2 .1l-.3 .2l-.4 .1h-.2v.1l-.2 .1h-.9Z" class="gl_2"/>
<path d="M473.9 889.4l25.6 -42.6l9.6 42.6Z" class="g12_2"/>
<path d="M450.4 928.5l23.5 -39.1h35.2l8.9 39.1Z" class="g12_2"/>
<path d="M473.9 889.4l-23.5 39.1m67.6 0l-8.9 -39.1m0 0H473.9m-23.5 39.1H518m-8.9 -39.1l-9.6 -42.6l-25.6 42.6" class="g19_2"/>
<path d="M465.3 910.6l-5.9 -4.2m7.5 1.8l-6 -4.3m27.7 -32.7l-5.9 -4.3m4.4 6.7l-5.9 -4.2" class="g1a_2"/>
<path d="M484.5 885.1v-.5l-.2 -.4l-.2 -.5l-.3 -.3l-.3 -.3l-.2 -.2h-.2l-.2 -.1l-.2 -.1h-1l-.4 .2l-.5 .2l-.3 .3l-.3 .3l-.2 .5l-.1 .4l-.1 .5l.1 .5l.1 .5v.1l.2 .3l.3 .3l.3 .3l.5 .2l.4 .2l.5 .1l.5 -.1l.2 -.1l.2 -.1l.2 -.1l.2 -.1l.1 -.1l.2 -.2l.2 -.2l.1 -.1l.1 -.3l.1 -.1l.1 -.3l.1 -.2v-.5m-22.4 37.6l-.1 -.5l-.1 -.4l-.2 -.5l-.3 -.3l-.4 -.3l-.2 -.2h-.2l-.2 -.1l-.2 -.1h-1l-.4 .2l-.4 .2l-.4 .3l-.3 .3l-.2 .5l-.1 .4v1l.1 .5l.1 .1l.1 .2l.3 .4l.4 .3l.4 .2l.4 .2h1l.2 -.1l.2 -.1l.2 -.1l.2 -.1l.2 -.1l.2 -.2l.1 -.2l.2 -.2l.1 -.2l.1 -.1l.1 -.3v-.2l.1 -.5" class="g1b_2"/>
<path d="M63.5 999l-.6 -.1l-.6 -.1l-.5 -.3l-.4 -.3l-.4 -.5l-.2 -.3v-.2l-.2 -.3V982.5l.2 -.5l.2 -.5l.4 -.4l.4 -.4l.5 -.3l.6 -.1l.6 -.1H96.9l.6 .1h.2l.3 .1l.5 .3l.5 .4l.3 .4l.3 .5l.2 .5l.1 .6v13l-.1 .3v.3l-.1 .2l-.1 .3l-.1 .2l-.2 .3l-.3 .5l-.5 .3l-.5 .3h-.3l-.2 .1h-.3v.1h-.3Z" class="gl_2"/>
</svg>