<?xml version="1.0" encoding="UTF-8" standalone="no"?>
<!DOCTYPE svg PUBLIC "-//W3C//DTD SVG 1.1//EN"
"http://www.w3.org/Graphics/SVG/1.1/DTD/svg11.dtd">
<svg viewBox="0 0 909 1286" version="1.1" xmlns="http://www.w3.org/2000/svg" xmlns:xlink="http://www.w3.org/1999/xlink">
<defs>
<clipPath id="c0_4"><path d="M-.2 1286.6v-74.9h910v74.9Z"/></clipPath>
<clipPath id="c1_4"><path d="M719.6 155.9V70.3H859.4v85.6Z"/></clipPath>
<style type="text/css"><![CDATA[
.g0_4{
fill: none;
stroke: #000;
stroke-width: 0.765;
stroke-linecap: square;
stroke-miterlimit: 10;
}
.g1_4{
fill: none;
stroke: #000;
stroke-width: 0.763;
stroke-linecap: square;
stroke-miterlimit: 10;
}
.g2_4{
fill: #000;
}
.g3_4{
fill: none;
stroke: #000;
stroke-width: 0.762;
stroke-linecap: square;
stroke-miterlimit: 10;
}
.g4_4{
fill: none;
stroke: #000;
stroke-width: 0.761;
stroke-linecap: square;
stroke-miterlimit: 10;
}
.g5_4{
fill: none;
stroke: #000;
stroke-width: 1.523;
stroke-linecap: square;
stroke-miterlimit: 10;
}
.g6_4{
fill: none;
stroke: #000;
stroke-width: 1.527;
stroke-linecap: square;
stroke-miterlimit: 10;
}
.g7_4{
fill: none;
stroke: #000;
stroke-width: 1.099;
stroke-linecap: square;
stroke-miterlimit: 10;
}
]]></style>
</defs>
<image clip-path="url(#c0_4)" preserveAspectRatio="none" x="-4" y="1212" width="952" height="131" xlink:href="img/1.jpg"/>
<image preserveAspectRatio="none" x="135" y="151" width="103" height="64" xlink:href="img/2.jpg"/>
<image preserveAspectRatio="none" x="257" y="151" width="103" height="64" xlink:href="img/3.jpg"/>
<image preserveAspectRatio="none" x="379" y="151" width="103" height="64" xlink:href="img/4.jpg"/>
<image preserveAspectRatio="none" x="501" y="151" width="103" height="64" xlink:href="img/5.jpg"/>
<path d="M168.7 269.2h23.4m17.3 0h24.4" class="g0_4"/>
<path d="M293.6 269.2h24.3" class="g1_4"/>
<path d="M397.5 269.2h23.4m53 0h24.4" class="g0_4"/>
<path d="M386.2 415.6h24.3" class="g1_4"/>
<path d="M426.8 415.7h24.4m62.7 -.1h24.4" class="g0_4"/>
<path d="M254.1 461.4h36.7v-.9H254.1v.9Z" class="g2_4"/>
<path d="M254.1 463.3h36.7v-.9H254.1v.9Z" class="g2_4"/>
<path d="M136.1 468.6h30" class="g1_4"/>
<path d="M191.1 468.5h26.3" class="g3_4"/>
<path d="M267.3 468.6h30" class="g1_4"/>
<path d="M314.3 468.6h22.2" class="g4_4"/>
<path d="M376.8 468.6h30" class="g1_4"/>
<path d="M431.8 468.5h26" class="g3_4"/>
<path d="M446.3 547.6h24.9" class="g1_4"/>
<path d="M261.6 635.9l2.4 -1.4" class="g4_4"/>
<path d="M264 634.9l3.4 6.2" class="g5_4"/>
<path d="M267.7 641.1l4.5 -18.3m0 0h11" class="g4_4"/>
<path d="M374.6 636l2.4 -1.3" class="g1_4"/>
<path d="M377 635.1l3.4 6.2" class="g6_4"/>
<path d="M380.7 641.3l4.5 -18.5m0 0h9.9" class="g1_4"/>
<path d="M128.9 725.4h24.4" class="g0_4"/>
<path d="M385.9 1014H355.3m211.2 0H534.4m-225.7 33.4h-30m88 0H336.6m179.1 0H483.6m90.1 0H543.6" class="g7_4"/>
<image preserveAspectRatio="none" x="24" y="917" width="822" height="39" xlink:href="img/6.png"/>
<image clip-path="url(#c1_4)" preserveAspectRatio="none" x="720" y="71" width="139" height="85" xlink:href="img/7.jpg"/>
<image preserveAspectRatio="none" x="43" y="90" width="57" height="56" xlink:href="img/8.jpg"/>
<image preserveAspectRatio="none" x="755" y="265" width="93" height="110" xlink:href="img/9.jpg"/>
<image preserveAspectRatio="none" x="43" y="288" width="57" height="57" xlink:href="img/10.jpg"/>
<image preserveAspectRatio="none" x="43" y="436" width="57" height="57" xlink:href="img/11.jpg"/>
<image preserveAspectRatio="none" x="669" y="406" width="160" height="117" xlink:href="img/12.jpg"/>
<image preserveAspectRatio="none" x="43" y="568" width="57" height="56" xlink:href="img/13.jpg"/>
<image preserveAspectRatio="none" x="700" y="535" width="134" height="116" xlink:href="img/14.jpg"/>
<image preserveAspectRatio="none" x="704" y="688" width="103" height="130" xlink:href="img/15.jpg"/>
<image preserveAspectRatio="none" x="43" y="718" width="57" height="56" xlink:href="img/16.jpg"/>
<image preserveAspectRatio="none" x="43" y="1034" width="57" height="56" xlink:href="img/17.jpg"/>
<image preserveAspectRatio="none" x="669" y="1013" width="171" height="113" xlink:href="img/18.jpg"/>
</svg>