<?xml version="1.0" encoding="UTF-8" standalone="no"?>
<!DOCTYPE svg PUBLIC "-//W3C//DTD SVG 1.1//EN"
"http://www.w3.org/Graphics/SVG/1.1/DTD/svg11.dtd">
<svg viewBox="0 0 909 1286" version="1.1" xmlns="http://www.w3.org/2000/svg" xmlns:xlink="http://www.w3.org/1999/xlink">
<defs>
<clipPath id="c0_13"><path d="M-.2 1286.6v-74.9h910v74.9Z"/></clipPath>
<clipPath id="c1_13"><path d="M203.4 188.9V114.2h48.7v74.7Z"/></clipPath>
<clipPath id="c2_13"><path d="M443.8 539.7V467.9h47.6v71.8Z"/></clipPath>
<clipPath id="c3_13"><path d="M686.2 731.4V604.9H812.4V731.4Z"/></clipPath>
<clipPath id="c4_13"><path d="M690.2 875.7V764.4H833.3V875.7Z"/></clipPath>
<clipPath id="c5_13"><path d="M737.9 332.6V266.4h121v66.2Z"/></clipPath>
<style type="text/css"><![CDATA[
.g0_13{
fill: #000;
}
.g1_13{
fill: none;
stroke: #000;
stroke-width: 0.535;
stroke-linecap: square;
stroke-miterlimit: 10;
}
.g2_13{
fill: none;
stroke: #A6A6A6;
stroke-width: 0.543;
stroke-linecap: square;
stroke-miterlimit: 10;
}
.g3_13{
fill: none;
stroke: #000;
stroke-width: 0.456;
stroke-linecap: square;
stroke-miterlimit: 10;
}
.g4_13{
fill: none;
stroke: #000;
stroke-width: 0.457;
stroke-linecap: square;
stroke-miterlimit: 10;
}
.g5_13{
fill: none;
stroke: #000;
stroke-width: 0.765;
stroke-linecap: square;
stroke-miterlimit: 10;
}
.g6_13{
fill: none;
stroke: #000;
stroke-width: 0.763;
stroke-linecap: square;
stroke-miterlimit: 10;
}
.g7_13{
fill: none;
stroke: #000;
stroke-width: 0.761;
stroke-linecap: square;
stroke-miterlimit: 10;
}
.g8_13{
fill: none;
stroke: #000;
stroke-width: 0.762;
stroke-linecap: square;
stroke-miterlimit: 10;
}
.g9_13{
fill: none;
stroke: #000;
stroke-width: 0.815;
stroke-linecap: round;
stroke-linejoin: round;
}
.ga_13{
fill: none;
stroke: #000;
stroke-width: 0.816;
stroke-linecap: round;
stroke-linejoin: round;
}
.gb_13{
fill: none;
stroke: #000;
stroke-width: 0.851;
stroke-linecap: round;
stroke-linejoin: round;
}
.gc_13{
fill: none;
stroke: #000;
stroke-width: 0.862;
stroke-linecap: round;
stroke-linejoin: round;
}
]]></style>
</defs>
<image clip-path="url(#c0_13)" preserveAspectRatio="none" x="-4" y="1212" width="952" height="131" xlink:href="img/1.jpg"/>
<path d="M348.9 92.8h36.7v-1H348.9v1Z" class="g0_13"/>
<path d="M348.9 94.6h36.7v-.9H348.9v.9Z" class="g0_13"/>
<image preserveAspectRatio="none" x="142" y="116" width="48" height="41" xlink:href="img/2.jpg"/>
<image clip-path="url(#c1_13)" preserveAspectRatio="none" x="204" y="115" width="48" height="74" xlink:href="img/3.jpg"/>
<image preserveAspectRatio="none" x="288" y="113" width="39" height="67" xlink:href="img/4.jpg"/>
<image preserveAspectRatio="none" x="345" y="115" width="88" height="51" xlink:href="img/5.jpg"/>
<path d="M480 168.9h33.5m-33.7 -.3l-4.6 -33.1l32.7 -24.4l28.7 17.5m0 0l-23.1 40.3" class="g1_13"/>
<path d="M527.5 158.1l.5 -1.3l.8 -1.1l.8 -1.1l.8 -.8l.5 -1.1v-1.8l-.5 -.6l-.5 -.3h-.6l-.5 .3l-.3 .6v.5l.3 .3v.2l-.3 .3v.3H528l-.3 -.3v-1.1l.6 -.8l.5 -.3l.5 -.2h1.1l.5 .2l.8 .6l.3 1.3l-.3 .8l-.5 .8l-.5 .6l-1.4 1.6l-.5 .8l-.5 .8h2.6l.3 -.5l.3 -.3l.2 -.8l.3 .3v.5l-.3 .8l-.2 .8Z" class="g0_13"/>
<path d="M535 158.1v-.3l.2 -.2h.6V156h-2.7v-.3l3.2 -5.9h.5v5.9h.8v.3h-1v1l.2 .3v.3h.3l.5 .2v.3Zm-1.1 -2.9l-.3 .5h2.2l.2 -.5v-4.1Z" class="g0_13"/>
<path d="M467.7 157.6H464v-.3h1l.3 -.3l.3 -.2v-5.9l-.3 -.3v-.3h-1.6l.3 -.3l.8 -.2l.8 -.3l.8 -.3V157l.2 .3H468v.3Z" class="g0_13"/>
<path d="M470.9 157.8l-.2 -.2l-.8 -.3l-.6 -.8v-1.6l.6 -.6l.8 -.5v-.3h.2l-.5 -.2l-.5 -.6l-.3 -.5v-1.6l.5 -.8l.8 -.3h1.4l.8 .5l.2 .6l.3 .8l-.5 1.1l-.8 .5v.3l.5 .2l.5 .3l.3 .5l.3 .6v.8l-.3 .5l-.3 .8l-.5 .3l-.5 .3l-.8 .2Zm-.5 -3.5l-.3 1.1v1.1l.3 .3l.5 .5l.6 .3l.5 -.3h.3l.5 -.5l.3 -.8v-.8l-.6 -.9l-.5 -.2l-.8 -.3Zm0 -4l-.3 .3v1.1l.6 .5l.5 .3l.5 .5h.3l.5 -.5l.3 -.6v-1.3l-.5 -.6l-.3 -.2h-.8Z" class="g0_13"/>
<path d="M492.6 180.7h-.2v-.3l.8 -.3h.8v-6.7h-.3l-.5 -.2l-.6 .2l-.2 -.2l.2 -.3h.8l.8 -.3l.6 -.3h.2v7l-.2 .3l.2 .3l.3 .2h.5l.6 .3v.3Z" class="g0_13"/>
<path d="M500.1 180.7h-.5l-.5 -.3l-.6 -.3l-.5 -.8l-.3 -.8l.3 -.8l.5 -.5l.6 -.6h.2v-.2l-.2 -.3l-.6 -.5l-.2 -.6l-.3 -.5v-.3l.3 -.8l.5 -.5l.5 -.6h1.6l.6 .6l.5 .5v1.1l-.3 .8l-.8 .8l.6 .3l.2 .5l.3 .3l.3 .5v1.6l-.3 .6l-.5 .5l-.6 .3Zm-1 -3.3l-.6 .9v.5l.3 .5l.3 .6l.2 .2l.8 .3h.3l.5 -.3l.6 -.5l.2 -.8V178l-.5 -.6l-.8 -.5l-.5 -.3h-.3Zm0 -4.2l-.3 .2l-.3 .6l.3 .8l.5 .2l.6 .6l.5 .2h.3l.5 -.5l.3 -.5v-.6l-.3 -.8l-.3 -.5l-.2 -.3h-1.1Z" class="g0_13"/>
<path d="M480.3 121.8l.5 -1l.8 -1.1l.8 -1.1l.9 -1.1l.5 -.8v-2.1l-.5 -.5h-1.1l-.6 .2l-.2 .3v.8h.2v.3l-.2 .2v.3h-.8v-1.3l.5 -.6l.5 -.5l.6 -.3h1.1l.8 .6l.5 .5l.3 1.1l-.3 .8l-.5 .8l-.6 .5l-1.3 1.6l-.6 .8l-.5 .8h2.7l.3 -.2l.2 -.6l.3 -.5h.3v.5l-.3 .8l-.3 .8Z" class="g0_13"/>
<path d="M487.8 121.8v-.2h.3l.5 -.3V121l.3 -.5V120h-3v-.6h.3l2.9 -5.6l.3 -.3h.3v5.9h1.1v.6h-1.1v1.3l.3 .3h.5v.2Zm-1.1 -2.9l-.2 .5h2.4v-4.3Z" class="g0_13"/>
<path d="M523.7 116.7h-.3v-.2h1.4l.2 -.3v-6.4l-.2 -.3h-1.4v-.3h.3l.8 -.2l.8 -.3l.6 -.3h.2v7.3l-.2 .2l.2 .3l.3 .3h1.1v.2Z" class="g0_13"/>
<path d="M530.7 117l-.6 -.3l-.5 -.2l-.5 -.8l-.3 -.8l.3 -.8l.5 -.6l.5 -.5l.3 -.3l-.3 -.3l-.5 -.5l-.3 -.5l-.2 -.6v-.2l.2 -.8l.6 -.8l.5 -.3H532l.5 .5l.6 .6v.8l-.3 1l-.8 .6v.2l.3 .3l.5 .3l.3 .5l.3 .6v1.3l-.3 .8l-.6 .3l-.8 .2l-.5 .3Zm-.6 -3.5l-.5 1.1v.3l.3 .8v.2l.5 .6l.8 .2l.3 -.2h.5l.5 -.6l.3 -.8v-.8l-.5 -.8l-.8 -.3l-.6 -.2h-.2Zm-.2 -4v.3l-.3 .5l.3 .5l.5 .6l.5 .2l.6 .6h.2l.3 -.6l.5 -.5v-.8l-.2 -.5l-.3 -.6l-.3 -.2h-1Z" class="g0_13"/>
<path d="M500.4 165.6h-3.8v-.2H498v-.3l.3 -.3v-5.9l-.3 -.3v-.2h-1.6l.2 -.3l.9 -.3l.8 -.2l.8 -.3v7.8l.2 .3h1.1l.3 .2Z" class="g0_13"/>
<path d="M502 165.6l.5 -1l.6 -1.1l.8 -1.1l.8 -1.1l.5 -.8l.3 -1v-.3l-.3 -.8l-.5 -.3l-.3 -.3h-.8l-.3 .3l-.5 .5v.3l.3 .3v.8h-.3l-.3 .3l-.2 -.3l-.3 -.3v-.2l.3 -.9l.2 -.5l.6 -.3l.8 -.2h.8l.8 .2l.5 .6l.3 1.1v1l-.5 .6l-.6 .8l-1.3 1.3l-.8 .8l-.6 1.1h2.2l.5 -.3l.6 -.2l.2 -.6l.3 -.5l.3 .2v.3h-.3v.8l-.3 .8Z" class="g0_13"/>
<path d="M509.8 165.9l-.6 -.3l-.8 -.5l-.5 -1.1l-.3 -1.6v-.5l.3 -1.6l.3 -1.7l.8 -.8l.5 -.2h.8l.8 .5l.6 .8l.5 1.4v2.6l-.3 1.1l-.2 .6l-.6 .8l-.5 .5Zm-.6 -7.8l-.2 .3l-.3 1.6v3.7l.3 .9l.2 .5l.3 .5h.3l.5 -.2l.5 -.3v-.5l.3 -.9v-4.2l-.3 -.6v-.5l-.2 -.6h-.8Z" class="g0_13"/>
<path d="M514.1 158.9h-.3l-.3 -.3l-.2 -.5l.2 .5h1.1l.3 -.5l-.3 -.8h-.5l-.6 .3l-.2 .5l.2 -.8l.3 -.3h.8l.3 .3l.2 .3v.5l-.2 .5l-.3 .3Z" class="g0_13"/>
<path d="M521 137.2h-1.3l-.5 -.3v-.5h-.3l.3 -.6h.8l.2 .3v.5l.3 .3h.5l.3 -.3l.3 -.5l.5 -.6V135l.3 -.8v-1.1l-.6 .6l-.8 .2h-1l-.6 -.2l-.5 -.8v-.8h-.3v-.3l.3 -1.4l.5 -1l.6 -.3l.5 -.3h1.1l.5 .3l.8 .8l.3 1.6l.2 1.4l-.2 1l-.3 1.1l-.3 .5l-.2 .6l-.6 .5l-.2 .6Zm-.8 -7.8l-.2 .2v.6l-.3 .5v.8l.3 1.4l.2 .5l.6 .3l.8 -.3l.5 -.5l.3 -.3v-1.1l-.3 -.8v-.5l-.3 -.6l-.5 -.2l-.3 -.3h-.2Z" class="g0_13"/>
<path d="M526.7 137.2h-.8l-.6 -.6l-.5 -1.3l-.3 -1.4v-2.4l.5 -1.3l.9 -1.1l.2 -.3h1.1l.8 .8l.5 .8l.3 1.4l.3 1.3l-.3 1.1l-.3 1.1l-.2 .8l-.3 .5l-.5 .6Zm-.6 -7.8l-.2 .5l-.3 1.3l-.3 1.7v.5l.3 1.9l.3 .8v.5l.5 .3h.8l.3 -.5l.2 -.6l.3 -.8v-4.3l-.3 -.3v-.5l-.2 -.3l-.3 -.2l-.3 -.3h-.5Z" class="g0_13"/>
<path d="M530.7 130.2h-.6l-.2 -.8l.2 -.8l.6 -.3h.5l.5 .3l.3 .2v.6l-.3 .8h-.5l-.3 .2Zm-.3 -1.4l-.3 .6l.3 .5l.5 .3l.6 -.3l.2 -.5l-.2 -.6l-.6 -.2Z" class="g0_13"/>
<path d="M561.8 183.9H605m-43.2 .5L542.2 146.1m44.6 -37.4l37.8 20.7m.2 .3L605 183.9M586.8 109l-44.3 37.1" class="g2_13"/>
<path d="M538.7 173.1l.6 -1.1l.8 -1.1l.8 -1.1l.8 -1l.5 -.8v-1.4l-.2 -.8l-.3 -.5h-1.1l-.5 .2l-.3 .3v.8l.3 .3l-.3 .5l-.3 .3l-.2 -.3H539v-1.3l.5 -.6l.6 -.5h.5l.6 -.3l.5 .3l.5 .3l.9 .5l.2 1.1l-.2 1.1l-.6 .5l-.5 .8l-1.4 1.4l-.5 .8l-.6 1h2.2l.5 -.2l.3 -.3l.3 -.5l.3 -.6h.2v.6l-.2 .8l-.3 .8Z" class="g0_13"/>
<path d="M546.3 173.1v-.3h.3l.5 -.3v-1.3h-2.7v-.5l3.3 -5.7l.3 -.3l.2 .3v5.7h.8v.5h-1v1.1l.2 .2v.3h.8v.3Zm-1.1 -2.7l-.2 .3h2.1l.3 -.6v-3.8Z" class="g0_13"/>
<path d="M620.8 164.2H620l-.9 -.5l-.2 -.6l-.3 -.5v-.3l.3 -.3h.5l.3 .3v1.1l.3 .3l.5 .2h.3l.8 -.2l.3 -.3l.2 -.8l.3 -.6l-.3 -.5V161l-.2 -.6l-.6 -.3l-.3 -.2h-1v-.3h.5l.8 -.3l.6 -.5l.2 -.5v-1.1l-.5 -.8l-.3 -.3h-.8l-.5 .3v1.1l-.3 .2l-.3 .3l-.5 -.3v-.5l.2 -.3l.6 -.8l.8 -.3h1.1l.8 .3l.3 .8l.2 .8v.6l-.5 .8l-.5 .2l-.9 .3l.6 .3l.5 .2l.3 .3l.5 .3l.3 .5v1.6l-.5 .6l-.8 .5l-.6 .3Z" class="g0_13"/>
<path d="M624.3 164.2l.5 -1.4l.9 -1l.8 -1.1l.8 -1.1l.5 -.8l.3 -1.1l-.3 -.2v-.9l-.5 -.2l-.3 -.3h-.8l-.5 .3l-.3 .5v.6l.3 .2v.6l-.3 .2h-.6v-.2h-.2v-1.1l.5 -.8l.6 -.3l.5 -.3h1.1l.8 .3l.5 .5l.3 1.1l-.3 1.1l-.2 .5l-.8 .8l-1.4 1.4l-.5 1.1l-.6 .8h2.7l.6 -.6l.2 -.5v-.5l.3 .2v.3l-.3 .8v1.1Z" class="g0_13"/>
<path d="M608 116.5l.5 -1.1l.9 -1.1l.8 -1l.8 -1.1l.5 -.8v-2.2L611 109l-.3 -.3h-.8l-.5 .3l-.3 .5v.5l.3 .3v.3l-.3 .2l-.3 .3h-.3l-.2 -.3v-1.3l.5 -.5l.6 -.3l.5 -.3H611l.8 .3l.5 .5l.3 1.1l-.3 1.1l-.5 .5l-.5 .8l-1.4 1.4l-.5 .8l-.6 1.1H611l.5 -.3l.3 -.3l.5 -.5v-.6l.3 .3v.3l-.3 .8l-.2 .8Z" class="g0_13"/>
<path d="M615.6 116.5v-.3h.8v-.5l.3 -.3v-.8h-3v-.5h.3l3 -5.7h.5v5.7h1.1v.5h-1.1v1.6h.8v.3Zm-1.1 -2.7l-.3 .3h2.5v-4.3Z" class="g0_13"/>
<path d="M578.9 196.3l.6 -1.4l.5 -1.1l.8 -1l.8 -.9l.6 -1l.3 -1.1v-.3l-.3 -.5l-.6 -.6l-.2 -.2h-.8l-.6 .2l-.3 .6v.2l.3 .3v.8l-.3 .3h-.2l-.3 -.3h-.3v-.5l.3 -.6l.3 -.5l.5 -.5l.8 -.3h.8l.9 .3l.5 .5l.3 1.4v.8l-.6 .8l-.5 .5l-1.4 1.6l-.8 .8l-.5 .8h2.7l.5 -.5l.3 -.3l.3 -.8l.2 .3v.3l-.2 .2v.8l-.3 .9Z" class="g0_13"/>
<path d="M586.3 196.3V196l.5 -.3h.3l.2 -.5v-1.1h-2.7v-.3l3.3 -5.9h.3v5.9h1.1v.3h-1.1v1.3l.2 .3h.3l.3 .3v.3Zm-1.1 -3v.5h2.1v-4.6Z" class="g0_13"/>
<path d="M555.3 125.1h-.8l-.8 -.5l-.3 -.6l-.3 -.5l.3 -.3V123h.5l.3 .2v1.1l.3 .3l.5 .3h.3l.8 -.3l.5 -.3v-.8l.3 -.5v-.6l-.3 -.5l-.2 -.5l-.3 -.3l-.5 -.3h-1.1v-.3h.5l.8 -.2l.6 -.6l.2 -.5v-1.1l-.5 -.8l-.3 -.3H555l-.5 .3v1.1l-.3 .3v.2h-.3l-.2 -.2l-.3 -.3v-.3l.3 -.3l.5 -.8l.8 -.2h1.1l.8 .2l.6 .8v1.4l-.3 .8l-.8 .3l-.8 .2l.5 .3l.5 .3l.3 .3l.6 .2l.2 .6v1.6l-.5 .5l-.8 .6l-.6 .2Z" class="g0_13"/>
<path d="M558.8 125.1l.6 -1.3l.8 -1.1l.8 -1.1l.8 -1.1l.6 -.8l.2 -1v-.3l-.2 -.8l-.6 -.3l-.3 -.3h-.8l-.5 .3l-.3 .5v.3l.3 .3v.8l-.3 .3h-.5v-.3h-.3v-1.1l.5 -.8l.6 -.3l.5 -.2h1.1l.8 .2l.6 .6l.2 1.1l-.2 1l-.3 .6l-.5 .8l-1.7 1.3l-.5 1.1l-.6 .8h2.8l.5 -.5l.3 -.6l.2 -.5l.3 .3l-.3 .2l-.2 .8v1.1Z" class="g0_13"/>
<path d="M587.3 181.2v-.3h-.2l.2 -.3h1.4v-.2l.3 -.3v-5.9l-.3 -.3v-.3h-1.6l.2 -.2h.9l.8 -.3l.8 -.3v7.6l.3 .2h1.1l.2 .3h-.2v.3Z" class="g0_13"/>
<path d="M593.1 181.2v-.6h1.3v-.2l.3 -.3v-6.2l-.3 -.3h-1.3v-.2h1l.9 -.3l.5 -.3v7.6l.5 .2h1.1v.6Z" class="g0_13"/>
<path d="M600.7 181.2l-.6 -.3l-.8 -.3l-.5 -1.3l-.3 -1.4v-.8l.3 -1.6l.2 -1.6l.8 -.8l.6 -.3h.8l.8 .6l.6 1l.5 1.1v2.7l-.3 1.1l-.2 .8l-.6 .5l-.5 .6Zm-.6 -7.8l-.3 .2l-.2 1.6V179l.2 1.1l.3 .3l.3 .5h.8l.5 -.5v-.6l.3 -.8v-4.3l-.3 -.3v-.5l-.2 -.3l-.3 -.5h-.5Z" class="g0_13"/>
<path d="M605 174.2h-.3l-.2 -.3l-.6 -.5l.6 -.9l.2 -.2h.9l.2 .2l.3 .3v.6l-.3 .5l-.2 .3Zm-.5 -1.4l-.3 .6l.3 .5h1.1l.2 -.5l-.2 -.6l-.6 -.3Z" class="g0_13"/>
<path d="M606.6 139.4h-4l.2 -.3h1.4v-.2l.3 -.3v-5.9l-.3 -.3l-.3 -.3h-1.3l.2 -.2h.8l.9 -.6h.8v7.6l.3 .2h1l.3 .3Z" class="g0_13"/>
<path d="M610.4 139.7l-.8 -.3l-.5 -.5l-.6 -1.1l-.2 -1.6V134l.5 -1.6l.8 -.8l.3 -.3H611l.8 .6l.5 .8l.3 1.3l.3 1.4l-.3 1.3l-.3 1.1l-.2 .5l-.3 .8l-.5 .6Zm-.5 -7.8l-.3 .2l-.2 1.6l-.3 1.4v.8l.3 1.6v.8l.2 .6l.6 .5h.2l.6 -.3l.3 -.2l.2 -.6l.3 -.8v-4.3l-.3 -.5v-.3l-.2 -.3l-.3 -.5h-.8Z" class="g0_13"/>
<path d="M616.1 139.7l-.5 -.3l-.8 -.5l-.6 -1.1l-.2 -1.6v-.6l.2 -1.6l.3 -1.6l.8 -.8l.6 -.3h.8l.8 .6l.5 .8l.3 1.3l.3 1.4v1.3l-.3 1.1l-.3 .5l-.5 .8l-.5 .6Zm-.5 -7.8l-.3 .2l-.2 1.6v3.8l.2 .8l.3 .6l.3 .5h.2l.6 -.3l.5 -.2v-.6l.3 -.8v-4.3l-.3 -.5v-.3l-.2 -.3l-.3 -.5h-.6Z" class="g0_13"/>
<path d="M620.5 132.7h-.3l-.2 -.3l-.6 -.5l.6 -.8l.2 -.3h.8l.3 .3l.3 .2v.6l-.3 .5l-.3 .3Zm-.5 -1.4l-.3 .6l.3 .5h1l.3 -.5l-.3 -.8h-.5Z" class="g0_13"/>
<path d="M720.7 171.9h-31m-15.5 -27l15.5 27m-.2 -53.7h31m15.5 27l-15.5 -27m-46.5 27l15.5 -27m46.8 26.7l-15.6 27" class="g3_13"/>
<path d="M705.7 182.4h-1.1l-.7 -.4l-.3 -.5l-.2 -.4l.2 -.3v-.2h.3l.2 .2h.2V182l.3 .2h1.3l.5 -.5l.2 -.4v-1.2l-.2 -.4l-.3 -.5l-.2 -.2h-1.1l-.2 -.2l.2 -.3h.2l.7 -.2l.4 -.4l.3 -.5v-.7l-.3 -.9l-.4 -.2H705l-.2 .2l-.2 .5v.6l-.3 .3h-.2l-.2 -.3l-.3 -.2l.3 -.2v-.2l.4 -.7l.7 -.3h.9l.7 .5l.5 .5v1.3l-.3 .5l-.7 .4l-.6 .3h.4l.5 .2l.4 .2l.3 .3l.2 .6v1.2l-.5 .7l-.4 .4Z" class="g0_13"/>
<path d="M733.3 165.1h-1.4l-.7 -.5l-.2 -.5l-.2 -.4l.2 -.2l.2 -.3h.3l.2 .3l.2 .2l-.2 .2v.7l.4 .2h.5l.7 -.2l.4 -.2l.3 -.5v-1.1l-.3 -.5l-.2 -.5l-.2 -.2h-.2l-.5 -.2l-.5 .2v-.4h.5l.5 -.3l.4 -.4l.2 -.5v-.7l-.2 -.9l-.4 -.2h-.7l-.3 .2l-.2 .5v.7l-.2 .2h-.2l-.3 -.2v-.7l.5 -.7l.7 -.2h.9l.7 .4l.4 .5l.3 .7l-.3 .6l-.2 .5l-.7 .5l-.4 .2h.2l.4 .2l.5 .2l.2 .3l.3 .7l.2 .4l-.2 .7l-.5 .7l-.5 .5Z" class="g0_13"/>
<path d="M731.9 131.2l-.7 -.5l-.2 -.2l-.2 -.4l.2 -.5h.2v-.2l.3 .2h.2l.2 .5l-.2 .2v.4l.4 .3h1.2l.4 -.5l.3 -.4v-1.2l-.3 -.4l-.2 -.3l-.2 -.4h-1.2v-.5h1l.4 -.7l.2 -.4v-.7l-.2 -.7l-.4 -.2l-.3 -.3h-.2l-.2 .3l-.3 .2l-.2 .2v.7l-.2 .2h-.2l-.3 -.2V125l.5 -.4l.7 -.5h.9l.7 .5l.4 .4l.3 .7l-.3 .7l-.2 .5l-.7 .4l-.4 .2h.2l.4 .3l.5 .2l.2 .5l.3 .4l.2 .5l-.2 .7l-.5 .6l-.5 .5h-.4l-.7 .2Z" class="g0_13"/>
<path d="M705 115.4h-.7l-.7 -.4l-.2 -.5l-.2 -.4l.2 -.3v-.2h.5l.2 .2v.9l.2 .3l.5 .2h.2l.7 -.2l.4 -.3v-.6l.3 -.5v-.5l-.3 -.4l-.2 -.5l-.2 -.2l-.5 -.2h-.9v-.3h.5l.7 -.2l.4 -.5l.2 -.4v-.9l-.4 -.7l-.2 -.2h-.7l-.5 .2v.9l-.2 .2v.3h-.2l-.3 -.3l-.2 -.2v-.2l.2 -.3l.5 -.6l.7 -.3h.9l.7 .3l.4 .6v1.2l-.2 .7l-.7 .2l-.7 .2l.5 .3l.4 .2l.3 .2l.4 .3l.3 .4v1.4l-.5 .4l-.7 .5l-.4 .2Z" class="g0_13"/>
<path d="M677.4 132.3l-.9 -.2l-.5 -.2l-.4 -.5v-.7l.2 -.2h.5l.2 .2v1l.2 .2l.3 .2h.4l.5 -.2l.4 -.5l.3 -.4v-1.4l-.3 -.5l-.4 -.2l-.3 -.2H677l-.3 -.2h.5l.7 -.3l.4 -.4v-.5l.3 -.4v-.5l-.5 -.7l-.2 -.2H677l-.3 .2v.7l-.2 .2v.3l-.2 .2l-.5 -.2v-.7l.7 -.7l.7 -.2h.9l.5 .2l.4 .7l.2 .7v.4l-.4 .5l-.5 .4l-.7 .3l.5 .2l.5 .2l.2 .2l.4 .3l.3 .4v.7l-.3 .7l-.2 .5l-.7 .4l-.4 .2Z" class="g0_13"/>
<path d="M677.6 166.2L677 166l-.7 -.5l-.5 -.2v-.9h.9v1.1l.3 .2h.2l.4 .3l.7 -.3l.3 -.4l.2 -.5l.2 -.7l-.2 -.4v-.2l-.2 -.5l-.5 -.5h-.9l-.2 -.2l.2 -.2h.9l.5 -.7l.2 -.5v-.7l-.5 -.6l-.2 -.3h-.9l-.2 .3v.9l-.3 .2H676V160l.3 -.2l.4 -.5l.7 -.4h.9l.5 .4l.4 .5l.3 .7v.7l-.5 .4l-.4 .5l-.7 .2l.4 .2h.5l.2 .3l.5 .4l.2 .5v.4l-.2 .7l-.3 .7l-.6 .5l-.5 .2Z" class="g0_13"/>
<path d="M690.6 169.4v-.5h1.2v-.2l.2 -.2v-5l-.2 -.3V163h-1.4l.2 -.2h.7l.9 -.5h.5v6.4l.2 .2h1.2v.3l-.3 .2Z" class="g0_13"/>
<path d="M695.2 169.2l.5 -.9l.4 -1l.7 -.9l.7 -.9l.4 -.7l.3 -.9v-.2l-.3 -.7l-.4 -.2l-.2 -.3h-.7l-.3 .3l-.4 .4l.2 .3v.9h-.2l-.2 .2l-.3 -.2l-.2 -.5l.2 -.7l.3 -.4l.4 -.3l.7 -.2h.7l.7 .2l.4 .5l.2 .9v.9l-.4 .5l-.5 .7l-1.1 1.1l-.7 .9l-.4 .7h1.8l.4 -.2l.5 -.2l.2 -.5l.2 -.5l.3 .3v.2h-.3v.7l-.2 .7Z" class="g0_13"/>
<path d="M701.8 169.4l-.4 -.2l-.5 -.5l-.7 -.9l-.2 -1.1V166l.2 -1.4l.2 -1.4l.7 -.7l.5 -.2h.7l.7 .5l.4 .9l.5 .9v2.3l-.3 .9l-.2 .5l-.4 .6l-.5 .5Zm-.4 -6.6l-.3 .2l-.2 1.4v3.2l.2 .7l.3 .4l.2 .5h.7l.4 -.5l.3 -.4v-4.6l-.3 -.5V163l-.2 -.5h-.7Z" class="g0_13"/>
<path d="M705.5 163.5h-.3l-.2 -.3l-.2 -.4l.2 -.7l.2 -.3h.7l.2 .3l.3 .2v.5l-.3 .4l-.2 .3Zm-.5 -1.2v.9h.9l.2 -.4l-.2 -.5l-.4 -.2Z" class="g0_13"/>
<path d="M720.5 151.1h-3.4l.2 -.2h.5l.4 -.3h.3l.2 -.2v-5l-.2 -.2l-.3 -.3h-1.1v-.2h.2l.7 -.2l.7 -.3l.7 -.2v6.6l.2 .3h.9l.2 .2Z" class="g0_13"/>
<path d="M721.9 151.1l.4 -.9l.5 -.9l.7 -.9l.7 -1l.4 -.6l.2 -1v-.4l-.2 -.5l-.4 -.4h-.9l-.5 .2l-.2 .2v.5l.2 .2v.5l-.2 .2h-.5l-.2 -.2v-.3l.2 -.6l.2 -.5l.5 -.5l.7 -.2h.7l.6 .5l.5 .4l.2 .9v.7l-.4 .7l-.5 .5l-1.1 1.3l-.7 .7l-.5 .7h2.3l.5 -.2l.2 -.5l.2 -.4h.3v.2l-.3 .2v.7l-.2 .7Z" class="g0_13"/>
<path d="M728 151.1l-.6 -.5l-.5 -1.1l-.2 -1.1v-.7l.2 -1.4l.2 -1.1l.7 -1h.5l.4 -.2l.3 .2l.6 .5l.5 .7l.2 1.1l.3 1.2v.9l-.3 .9l-.2 .7l-.5 .7l-.4 .2l-.7 .2Zm-.2 -6.2l-.2 1.2v3.4l.2 .7l.2 .4l.3 .3l.2 .2l.5 -.2l.4 -.5V150l.2 -.5v-3.7l-.2 -.4v-.2l-.2 -.5l-.2 -.2l-.5 -.3v.3H728Z" class="g0_13"/>
<path d="M732.1 145.4h-.2l-.2 -.2l-.5 -.7l.5 -.5l-.2 .5l.2 .4l.4 .3l.5 -.3l.2 -.4l-.2 -.5l-.5 -.2l-.4 .2l.2 -.2l.2 -.2l.5 .2l.2 .2l.3 .2v.3l-.3 .7l-.2 .2Z" class="g0_13"/>
<path d="M693.8 128.2h-3.2V128l.5 -.2h.7v-.3l.2 -.2v-5l-.2 -.2h-1.2v-.3l.7 -.2l.9 -.2l.5 -.3v6.4l.2 .3l.5 .2h.7v.2Zm-3.4 -6.4h.2Z" class="g0_13"/>
<path d="M695.2 128.2l.5 -1.1l.4 -.9l.7 -.7l.7 -.9l.4 -.9l.3 -1v-.2l-.3 -.4l-.4 -.5l-.2 -.2h-.7l-.3 .2l-.4 .5l.2 .2v.9l-.2 .2h-.5v-.2l-.2 -.5l.2 -.4l.3 -.5l.4 -.4l.7 -.3h.7l.7 .3l.4 .7l.2 .9v.7l-.4 .6l-.5 .5l-1.1 1.4l-.7 .7l-.4 .6h2.2l.5 -.4l.2 -.2l.2 -.5h.3v.2l-.3 .3v.6l-.2 .7Z" class="g0_13"/>
<path d="M701.8 128.2h-.4l-.5 -.4l-.7 -1.2l-.2 -1.1v-.7l.2 -1.4l.2 -1.1l.7 -.9l.5 -.3h.7l.7 .7l.4 .7l.5 1.2v2l-.3 .9l-.2 .7l-.4 .5l-.5 .4Zm-.4 -6.6l-.3 .5l-.2 1.1v3.4l.2 .7l.3 .5l.2 .2h.7l.4 -.5l.3 -.4v-4.6l-.3 -.4v-.3l-.2 -.2l-.2 -.2h-.5Z" class="g0_13"/>
<path d="M705.2 122.3H705l-.2 -.7l.2 -.7l.2 -.2h.7l.2 .2l.3 .2v.5l-.3 .7h-.2l-.4 .2Zm-.2 -1.2v1l.5 .2l.4 -.2l.2 -.5l-.2 -.5l-.4 -.2Z" class="g0_13"/>
<path d="M795.9 185.5H757.1m38.8 0l19.5 -33.7M757.1 118h38.8m-38.8 0l-19.5 33.8m0 0l19.5 33.7m38.6 -67.3l19.5 33.6" class="g4_13"/>
<path d="M776.3 195.8v-.2h.4l.3 -.3l.2 -.2v-.9h-2.3v-.5l2.8 -4.8v-.2h.2v5h.9v.5h-.9v1.1h.2l.2 .3h.3v.2Zm-.7 -2.3l-.2 .2h1.8v-.4l.2 -3.2h-.2Z" class="g0_13"/>
<path d="M809.4 173.8v-.2l.3 -.2h.4l.3 -.5V172h-2.6l.3 -.2l2.5 -5.1h.4v5.1h1v.2h-1v1.4h.3l.4 .2v.2Zm-.9 -2.5l-.2 .5h2.1v-3.9Z" class="g0_13"/>
<path d="M809.7 135.1v-.2h.4l.3 -.2l.2 -.3v-.9h-2.3v-.4l2.5 -4.8l.2 -.3l.3 .3v4.8h.9v.4h-.9v1.2l.2 .2h.5v.2Zm-.9 -2.3l-.3 .3h2.1v-3.7Z" class="g0_13"/>
<path d="M779 115.2h-2.3V115h.5l.5 -.3v-1.1h-2.3v-.5l2.7 -4.8h.5l-.3 2.8v2h1v.5h-1v1.1l.3 .3h.4l.3 .2Zm-2.9 -2.3l-.3 .2h1.9v-.4l.2 -3.2Z" class="g0_13"/>
<path d="M744.3 134.4h-2.1v-.2h.2l.5 -.2v-1.2h-2.3v-.4l2.7 -4.8l.3 -.3h.2v5.1h.7v.4h-.9v1l.2 .2l.2 .2h.5v.2Zm-3 -2.5l-.2 .5h1.8v-.5l.2 -3.2Zm.7 2.3h.2Z" class="g0_13"/>
<path d="M743.8 175.9h-2.3v-.2h.5l.4 -.3v-1.1h-2.3v-.5l2.8 -4.8l.2 -.2v.2h.2l-.2 2.8v2h.9v.5h-.9v1.1l.2 .3h.5l.2 .2Zm-3 -2.3l-.2 .2h1.8v-.4l.3 -3.2Z" class="g0_13"/>
<path d="M796.6 157.6v-.5h1.2v-.2l.2 -.3v-5l-.2 -.2v-.2h-1.2v-.3h1l.6 -.2l.5 -.2v6.4l.5 .2h.9v.5Z" class="g0_13"/>
<path d="M801.2 157.6l.5 -1.2l.4 -.9l.7 -.9l.7 -.9l.5 -.7l.2 -.9v-.3l-.2 -.6l-.3 -.3l-.4 -.2h-.7l-.2 .2l-.3 .5v.7l.3 .2l-.3 .2l-.2 .3h-.2l-.3 -.3l-.2 -.4l.2 -.5l.3 -.7l.7 -.2l.4 -.2h.7l.7 .2l.7 .5l.2 .9l-.2 .9l-.5 .4l-.4 .7l-1.2 1.2l-.7 .9l-.2 .7h1.8l.5 -.3l.2 -.2l.2 -.4l.3 -.5l.2 .2v.3l-.2 .6l-.3 1Z" class="g0_13"/>
<path d="M807.8 157.6l-.4 -.3l-.5 -.4l-.7 -.9l-.2 -1.2v-.7l.2 -1.3l.5 -1.4l.5 -.7l.4 -.2h.9l.7 .4l.2 .9l.5 1V155l-.2 1l-.3 .6l-.4 .5l-.5 .5Zm-.4 -6.7l-.2 .3l-.3 1.3v3.2l.3 .9l.2 .3l.2 .4h.7l.5 -.4l.2 -.5v-.7l.2 -.7v-1.8l-.2 -.7v-.7l-.2 -.4v-.2l-.3 -.5h-.7Z" class="g0_13"/>
<path d="M811.7 151.6h-.4l-.3 -.2l-.2 -.5l.2 -.7l.3 -.2h.7l.2 .2l.2 .3v.4l-.2 .5l-.2 .2Zm-.4 -1.1l-.3 .4l.3 .5h.9v-.5l-.2 -.4l-.3 -.3Z" class="g0_13"/>
<path d="M757.5 127.8h-.2v-.2l.5 -.3h.6l.3 -.2v-5.5h-.3l-.4 -.2l-.7 .2v-.4h.9l.7 -.3l.5 -.2v6.2l.2 .2l.2 .2h.5l.4 .3v.2Z" class="g0_13"/>
<path d="M761.9 127.8l.4 -1.1l.7 -1l.7 -.9l.7 -.7l.4 -.9v-1.6l-.4 -.4l-.2 -.3h-.7l-.5 .3l-.2 .4v.5l.2 .2v.2l-.2 .3v.2h-.5v-.2h-.2v-1l.5 -.6l.4 -.3l.5 -.2h.9l.7 .2l.4 .5l.3 1.1l-.3 .7l-.4 .7l-.5 .5l-1.1 1.3l-.5 .7l-.4 .7h2.2l.5 -.4l.2 -.5v-.5l.3 .3v.4l-.3 .7v.7Z" class="g0_13"/>
<path d="M768.7 127.8H768l-.4 -.5l-.5 -1.1l-.2 -1.2l-.2 -.6l.2 -1.4l.5 -1.2l.6 -.9l.3 -.2h.9l.7 .5l.4 .9l.3 .9v2.3l-.3 .9l-.2 .7l-.2 .4l-.7 .5Zm-.4 -6.6l-.3 .2l-.4 1.4v1.8l.2 1.6v.7l.2 .4l.5 .3h.7l.2 -.5l.2 -.4l.3 -.7v-3l-.3 -.7v-.7l-.2 -.2l-.2 -.2l-.2 -.3h-.5Z" class="g0_13"/>
<path d="M771.9 121.8l-.2 -.2l-.2 -.4l.2 -.7l.2 -.3h.7l.2 .3l.3 .2l.2 .5l-.5 .4l-.2 .2l-.2 .3Zm0 -1.1l-.2 .5l.2 .4l.5 .2l.4 -.2l.3 -.4l-.3 -.5l-.4 -.2Z" class="g0_13"/>
<path d="M758 183l-.2 -.3v-.2h1.1l.2 -.2v-5.5l-.2 -.2h-1.1v-.3h.9l.7 -.2l.4 -.2h.2l-.2 .4v5.8l.2 .2l.3 .2h.9v.5Z" class="g0_13"/>
<path d="M762.3 183l.5 -1.2l.7 -.9l.7 -.9l.6 -.9l.5 -.7l.2 -.9l-.2 -.2v-.7l-.5 -.3l-.2 -.2h-.7l-.4 .2l-.3 .5v.5l.3 .2v.4l-.3 .3h-.4v-.3h-.2V177l.4 -.7l.5 -.2l.4 -.2h.9l.7 .2l.5 .5l.2 .9l-.2 .9l-.2 .5l-.7 .6l-1.2 1.2l-.4 .9l-.5 .7h2.3l.5 -.5l.2 -.4v-.5l.2 .2v.3l-.2 .7v.9Z" class="g0_13"/>
<path d="M769.2 183l-.7 -.3l-.5 -.4l-.4 -.9l-.2 -1.2v-2l.4 -1.4l.7 -.7l.2 -.2h.9l.7 .4l.5 1l.2 .9l.2 1.3l-.2 1l-.2 .9l-.2 .7l-.3 .4l-.7 .5Zm-.5 -6.7l-.2 .3l-.5 1.3v1.9l.3 1.3v1l.2 .2l.5 .4h.6l.3 -.4l.2 -.5l.2 -.7v-3.2l-.2 -.4v-.7l-.2 -.2l-.3 -.5H769Z" class="g0_13"/>
<path d="M772.8 177h-.4l-.2 -.2l-.3 -.5l.3 -.6l.2 -.3h.7l.4 .3v.2l.3 .4l-.3 .5l-.4 .2Zm-.4 -1.1l-.2 .4l.2 .5h.9l.2 -.5l-.2 -.4l-.5 -.2Z" class="g0_13"/>
<image preserveAspectRatio="none" x="141" y="452" width="97" height="89" xlink:href="img/6.jpg"/>
<image preserveAspectRatio="none" x="303" y="475" width="72" height="64" xlink:href="img/7.jpg"/>
<image clip-path="url(#c2_13)" preserveAspectRatio="none" x="444" y="468" width="47" height="71" xlink:href="img/8.jpg"/>
<image preserveAspectRatio="none" x="607" y="483" width="37" height="54" xlink:href="img/9.jpg"/>
<path d="M512.3 770.4h24.1" class="g5_13"/>
<path d="M128.9 798.1h27.2" class="g6_13"/>
<path d="M256.1 798.1h22.2" class="g7_13"/>
<path d="M330.9 798.2h24.2" class="g5_13"/>
<path d="M425.7 798.2h26.2" class="g8_13"/>
<path d="M253.5 846h20" class="g6_13"/>
<path d="M242.6 924.1h23.2" class="g5_13"/>
<path d="M319 924h24.9" class="g6_13"/>
<path d="M186.1 993.6l-39.9 32.7h67.9l-28 -32.7Z" class="g9_13"/>
<path d="M322.9 993.6L289.7 1032h88.6L322.9 993.6Z" class="ga_13"/>
<path d="M496.3 996.6l27.7 32.6H456.9l39.4 -32.6Z" class="gb_13"/>
<path d="M674.1 1025.7H606.2L641 987.1l33.1 38.6" class="gc_13"/>
<path d="M262.7 1100.1h23.2" class="g5_13"/>
<path d="M455.8 1100.1h24.6m80.8 -.1h21.4" class="g6_13"/>
<path d="M607.1 1100h22.3" class="g7_13"/>
<path d="M654.4 1100.1h26.2" class="g8_13"/>
<path d="M761.2 1100.1h24.6" class="g6_13"/>
<path d="M128.9 1129.1h23.2m25.8 -.2h24m24.9 0h24.4" class="g5_13"/>
<path d="M275.8 1129.1h24.9" class="g6_13"/>
<path d="M344.5 1129.1h22.8" class="g7_13"/>
<path d="M478.9 1128.9h21.4" class="g6_13"/>
<path d="M524.7 1128.9H547" class="g7_13"/>
<path d="M572 1129.1h26.3" class="g8_13"/>
<path d="M136.1 1177.9h11m146.2 0h11.1" class="g6_13"/>
<image preserveAspectRatio="none" x="43" y="91" width="57" height="56" xlink:href="img/10.jpg"/>
<image preserveAspectRatio="none" x="726" y="409" width="83" height="73" xlink:href="img/11.jpg"/>
<image preserveAspectRatio="none" x="43" y="417" width="57" height="56" xlink:href="img/12.jpg"/>
<image preserveAspectRatio="none" x="43" y="621" width="57" height="56" xlink:href="img/13.jpg"/>
<image clip-path="url(#c3_13)" preserveAspectRatio="none" x="687" y="605" width="125" height="126" xlink:href="img/14.jpg"/>
<image clip-path="url(#c4_13)" preserveAspectRatio="none" x="690" y="765" width="143" height="110" xlink:href="img/15.jpg"/>
<image preserveAspectRatio="none" x="44" y="791" width="56" height="57" xlink:href="img/16.jpg"/>
<image preserveAspectRatio="none" x="43" y="942" width="57" height="57" xlink:href="img/17.jpg"/>
<image preserveAspectRatio="none" x="43" y="1118" width="57" height="56" xlink:href="img/18.jpg"/>
<image clip-path="url(#c5_13)" preserveAspectRatio="none" x="738" y="267" width="121" height="65" xlink:href="img/19.jpg"/>
<image preserveAspectRatio="none" x="43" y="278" width="57" height="57" xlink:href="img/20.jpg"/>
<image preserveAspectRatio="none" x="733" y="1124" width="117" height="83" xlink:href="img/21.jpg"/>
</svg>