<?xml version="1.0" encoding="UTF-8" standalone="no"?>
<!DOCTYPE svg PUBLIC "-//W3C//DTD SVG 1.1//EN"
"http://www.w3.org/Graphics/SVG/1.1/DTD/svg11.dtd">
<svg viewBox="0 0 909 1286" version="1.1" xmlns="http://www.w3.org/2000/svg" xmlns:xlink="http://www.w3.org/1999/xlink">
<defs>
<clipPath id="c0_70"><path d="M-.2 1286.6v-57.8h910v57.8Z"/></clipPath>
<style type="text/css"><![CDATA[
.g0_70{
fill: #CFC;
}
.g1_70{
fill: #CFF;
}
.g2_70{
fill: none;
stroke: #000;
stroke-width: 1.081;
stroke-linecap: square;
stroke-miterlimit: 10;
}
.g3_70{
fill: none;
stroke: #00F;
stroke-width: 1.081;
stroke-linecap: square;
stroke-miterlimit: 10;
}
.g4_70{
fill: none;
stroke: #F00;
stroke-width: 1.081;
stroke-linecap: square;
stroke-miterlimit: 10;
}
.g5_70{
fill: #000;
}
.g6_70{
fill: none;
stroke: #06F;
stroke-width: 1.081;
stroke-linecap: square;
stroke-miterlimit: 10;
}
.g7_70{
fill: none;
stroke: #C60;
stroke-width: 1.081;
stroke-linecap: square;
stroke-miterlimit: 10;
}
.g8_70{
fill: #090;
}
.g9_70{
fill: none;
stroke: #090;
stroke-width: 0.803;
stroke-linecap: square;
stroke-miterlimit: 10;
}
.ga_70{
fill: #70AD47;
}
.gb_70{
fill: none;
stroke: #000;
stroke-width: 1.099;
stroke-linecap: square;
stroke-miterlimit: 10;
}
.gc_70{
fill: #C9F;
}
.gd_70{
fill: none;
stroke: #000;
stroke-width: 1.076;
stroke-linecap: square;
stroke-miterlimit: 10;
}
.ge_70{
fill: none;
stroke: #00F;
stroke-width: 1.076;
stroke-linecap: square;
stroke-miterlimit: 10;
}
.gf_70{
fill: none;
stroke: #F00;
stroke-width: 1.076;
stroke-linecap: square;
stroke-miterlimit: 10;
}
.gg_70{
fill: #E8FFE8;
}
.gh_70{
fill: #FC9;
}
.gi_70{
fill: none;
stroke: #000;
stroke-width: 1.082;
stroke-linecap: square;
stroke-miterlimit: 10;
}
.gj_70{
fill: none;
stroke: #00F;
stroke-width: 1.082;
stroke-linecap: square;
stroke-miterlimit: 10;
}
.gk_70{
fill: none;
stroke: #F00;
stroke-width: 1.082;
stroke-linecap: square;
stroke-miterlimit: 10;
}
.gl_70{
fill: #FF6;
}
.gm_70{
fill: none;
stroke: #000;
stroke-width: 0.944;
stroke-linecap: square;
stroke-miterlimit: 10;
}
.gn_70{
fill: none;
stroke: #00F;
stroke-width: 0.944;
stroke-linecap: square;
stroke-miterlimit: 10;
}
.go_70{
fill: none;
stroke: #090;
stroke-width: 0.701;
stroke-linecap: square;
stroke-miterlimit: 10;
}
.gp_70{
fill: #FFE1FF;
}
.gq_70{
fill: none;
stroke: #000;
stroke-width: 1.08;
stroke-linecap: square;
stroke-miterlimit: 10;
}
.gr_70{
fill: none;
stroke: #F00;
stroke-width: 1.08;
stroke-linecap: square;
stroke-miterlimit: 10;
}
.gs_70{
fill: #F90;
}
]]></style>
</defs>
<image clip-path="url(#c0_70)" preserveAspectRatio="none" x="-2" y="1229" width="930" height="128" xlink:href="img/1.jpg"/>
<path fill-rule="evenodd" d="M57.4 99h68V71.5h-68V99Z" class="g0_70"/>
<path d="M65.3 99h52.2V71.5H65.3V99Z" class="g0_70"/>
<path d="M698.6 163.1V163h-.2l-.4 -.3L676.7 141.5l2.9 -3.2L677 135.6l1.1 -.9l1.2 -.8l1.2 -.8l1.2 -.7l1.2 -.7l1.3 -.6l1.2 -.5l1.4 -.5l1.3 -.5l1.3 -.3l1.4 -.4l1.4 -.2l2.9 -.4h5.8l.9 .2h.3l-3.4 33.9l-.1 .7Z" class="g1_70"/>
<path d="M668.6 145.7l.9 -1.6l1 -1.4l1 -1.5l1.2 -1.3l1.1 -1.3l2.9 2.9L698 162.7Z" class="g1_70"/>
<path d="M673.8 138.6l.1 -.1l.2 -.1l1.4 -1.4l1.5 -1.4l2.6 2.7l-2.9 3.2Z" class="g1_70"/>
<path d="M666.3 175.3l-.5 -1.6l-.3 -.9l-.2 -.9L665 171l-.1 -.8l-.3 -1.8l-.3 -1.8l-.1 -1v-5.1l.2 -2.3l.4 -2.2l.5 -2.2l.6 -2.2l.8 -2l.8 -2l1.1 -1.9l29.4 17l.3 .4v.4L667.1 177Z" class="g1_70"/>
<path d="M698 162.7l.4 .3l-.1 .1Z" class="g1_70"/>
<path d="M698.5 163.2l.1 -.1v.3Z" class="g1_70"/>
<path d="M698.6 163.1l.2 .1l-.2 .2Z" class="g1_70"/>
<path d="M698.6 163.1l.1 -.7L727 144.7l.2 .4l.7 1.2l.6 1.2l.6 1.2l.5 1.3l-30.8 13.2Z" class="g1_70"/>
<path d="M703.3 193.3h-4.8v-29l.1 -.8h.1l-.1 -.1l.2 -.2l28.7 16.7v.2l-.6 .9l-.6 1l-1.3 1.8l-.4 .4l-.3 .5l-.8 .8l-.2 .2l-.2 .3l-.3 .4l-.8 .9l-1.1 1l-1 .9l-1.1 .9l-1 .8l-1.1 .8l-1.1 .8l-1.2 .7l-.6 .3l-.5 .3l-1.2 .6l-.7 .2l-.3 .2H711l-.1 .1l-1.3 .5l-.6 .2l-.6 .3l-1.3 .3l-.3 .1l-.3 .1l-.6 .2l-1.3 .2l-1.3 .3Z" class="g1_70"/>
<path d="M698.5 163.4l.1 .1l-.1 .8Z" class="g1_70"/>
<path d="M693.7 197.2l-1.5 -.2l-1.5 -.3l-1.4 -.4l-1.5 -.4l-1.3 -.4l-1.4 -.6l-1.3 -.6l-1.3 -.6l-1.3 -.8l-1.3 -.8l-1.2 -.8l-1.2 -.9l-1.2 -1l-1.1 -1l-1.1 -1.1L673 186.1l-1.1 -1.2l-1 -1.3l-.8 -1.3l-.9 -1.3l-.8 -1.3l-.7 -1.3l-.6 -1.4l31.2 -13.5v.2l.2 -.3v.9l-3.3 33Z" class="g1_70"/>
<path d="M702.1 128.5l1.4 .1l1.4 .3l1.4 .3l1.3 .3l1.3 .5l1.3 .4l1.3 .6l1.3 .6l1.2 .6l1.2 .7l1.2 .7l1.1 .9l1.1 .9l1.2 .9l1.1 1l1.1 1.1l1.3 1.4l1.2 1.5l-3.3 1.9l1.6 3.5l-1.6 -3.5l3.3 -1.9l1.3 1.6l1.2 1.8l-28.3 17.7Z" class="g1_70"/>
<path d="M698.8 163.2L729.6 150l.5 1.4l.5 1.6l.4 1.5l.3 1.6l.2 1.7l.2 1.6l.1 1.7l.1 1.8V164l-.1 1.2l-.1 1.1v.6l-.1 .1v.5l-.3 2.2l-.3 1.1l-.2 1.1l-.6 2l-.4 1l-.4 1.1l-.4 1l-.5 1l-1 1.9Z" class="g1_70"/>
<path d="M698.5 197.4v-4.1h4.8v3.8l-2.2 .2l-2.2 .1Z" class="g1_70"/>
<path d="M697.2 197.4h-1.1l-.9 -.1l3.3 -33v33.1Z" class="g1_70"/>
<path d="M620.6 197l46.9 -51.9l6.1 -6.7l2.9 -3.3l27.7 -30.4l.2 .4L725 141l5 8.8l27.4 47.5l.1 .1H698.9m0 0l2.2 -.1l2.2 -.2l1.3 -.3l1.3 -.2l.6 -.2l.3 -.1l.3 -.1l1.3 -.3l.6 -.3l.6 -.2l1.3 -.5l.1 -.1h.1l.3 -.2l.7 -.2l1.2 -.6l.5 -.3l.6 -.3l1.2 -.7l1.1 -.8l1.1 -.8l1 -.8l1.1 -.9l1 -.9l1.1 -1l.8 -.9l.3 -.4l.2 -.3l.2 -.2l.8 -.8l.3 -.5l.4 -.4l1.3 -1.8l.6 -1l.6 -.9v-.2l1 -1.9l.5 -1l.4 -1l.4 -1.1l.4 -1l.6 -2l.2 -1.1l.3 -1.1l.3 -2.2V167l.1 -.1v-.6l.1 -1.1l.1 -1.2v-1.1l-.1 -1.8l-.1 -1.7l-.2 -1.6l-.2 -1.7l-.3 -1.6l-.4 -1.5l-.5 -1.6l-.5 -1.4l-.5 -1.3l-.6 -1.2l-.6 -1.2l-.7 -1.2l-.2 -.4l-1.2 -1.8l-1.3 -1.6l-1.2 -1.5L722 138.4l-1.1 -1.1l-1.1 -1l-1.2 -.9l-1.1 -.9l-1.1 -.9l-1.2 -.7l-1.2 -.7l-1.2 -.6l-1.3 -.6l-1.3 -.6l-1.3 -.4l-1.3 -.5l-1.3 -.3l-1.4 -.3l-1.4 -.3l-1.4 -.1h-.3l-.9 -.2h-5.8l-2.9 .4l-1.4 .2l-1.4 .4l-1.3 .3l-1.3 .5l-1.4 .5l-1.2 .5l-1.3 .6l-1.2 .7l-1.2 .7l-1.2 .8l-1.2 .8l-1.1 .9l-1.5 1.4l-1.4 1.4l-.2 .1l-.1 .1l-1.1 1.3l-1.2 1.3l-1 1.5l-1 1.4l-.9 1.6l-1.1 1.9l-.8 2l-.8 2l-.6 2.2l-.5 2.2l-.4 2.2l-.2 2.3v5.1l.1 1l.3 1.8l.3 1.8l.1 .8l.3 .9l.2 .9l.3 .9l.5 1.6l.8 1.7l.6 1.4l.7 1.3l.8 1.3l.9 1.3l.8 1.3l1 1.3l1.1 1.2l1.1 1.2l1.1 1.1l1.1 1l1.2 1l1.2 .9l1.2 .8l1.3 .8l1.3 .8l1.3 .6l1.3 .6l1.4 .6l1.3 .4l1.5 .4l1.4 .4l1.5 .3l1.5 .2l1.5 .1l.9 .1h.9m1.9 0H697m0 0H620.2" class="g2_70"/>
<path d="M673.6 138.4l.2 .2l2.9 2.9m0 0l2.9 -3.2L677 135.6l-.5 -.5m21.8 28.1h.1l.1 .2l.1 .1h.1m-.2 29.8V163m.1 0h-.2l-.1 .1v.1m.2 34.2v-4.1M727 144.7l-28.3 17.7M725 141l-.5 .3l-3.3 1.9l1.6 3.5m-24.5 17v-.5M676.7 141.5L698 162.7l.3 .5m5 34.2v-4.1h-4.8" class="g3_70"/>
<path d="M698.6 163.2h.2m-.2 .2v-.2m-.1 0l.1 -.1V163m0 .2l.1 -.8l3.4 -33.9l2.3 -23.4m-9.2 92.3v0l3.3 -33.1l.1 -.8v-.1m-.3 .3l.2 -.3m.2 .1h-.1l-.1 -.1m-.2 -.1v-.1h.2M730 149.8l-.4 .2l-30.8 13.2m-.3 .2v0v-.2m50.2 23.3l-.1 -.2l-.2 -.1l-.2 -.1h-.4l-.2 .1l-.3 .3l-.1 .1l-.1 .2l-.1 .4v.2l.1 .2l.1 .1l.1 .2l.3 .2h.2l.3 .1l.1 -.1h.2l.1 -.1h.1v-.1h.1l.1 -.2v-.1h.1l.1 -.2V187l-.1 -.2l-.1 -.2l-.1 -.1m-5.3 6.5H743l-.2 .1l-.1 .2l-.2 .1l-.1 .2l-.1 .4v.2l.1 .2l.3 .4l.1 .1l.2 .1h.7l.1 -.1h.1l.2 -.1l.2 -.4v-.2l.1 -.2l-.1 -.2v-.2l-.1 -.2l-.1 -.1l-.2 -.2l-.2 -.1h-.3M698.5 163.4h-.1M667.5 145.1l1.1 .6l29.4 17l.4 .3l.1 .1h.1v.1m.2 0l-.2 .2m-78.4 34l.4 -.4l46.5 -20l31.3 -13.5v-.1h.2m.2 -.2l28.7 16.7l29.9 17.4" class="g4_70"/>
<path d="M698.1 165.3l-.3 -.1l-.3 -.2l-.3 -.2l-.2 -.3l-.2 -.3l-.1 -.3v-.8l.1 -.3l.2 -.3l.2 -.3l.3 -.2l.3 -.2l.3 -.1h.7l.4 .1l.3 .2l.3 .2l.2 .3l.2 .3l.1 .3v.8l-.1 .1v.2l-.2 .3l-.1 .2h-.1v.1l-.3 .2l-.3 .2l-.4 .1h-.1l-.2 .1Z" class="g5_70"/>
<path d="M631.2 186.7l1.4 2.6l1.4 -2.6h-2.8m2.3 6.6l1.4 2.5l1.4 -2.5h-2.8" class="g6_70"/>
<path d="M706.4 113.4l1.4 .3m-1.1 -1.6l-.3 1.3m0 0l-1.5 -.4m1.1 2l.4 -1.6m-6.4 -.3l-1.6 -.4m1.2 2.1l.4 -1.7m0 0l1.3 .4m-1.1 -1.7l-.2 1.3" class="g7_70"/>
<path d="M744.3 124.6v-1.1l-.1 -.5l-.1 -.3v-.1H744v-.1h-.1v-.1l-.4 -.4l-.3 -.2l-.2 -.1l-.6 -.3h-.7l6.9 -1.9l-4.4 5.7Z" class="g8_70"/>
<path d="M699.2 163.5l.2 -1.2l.2 -1.2l.4 -1.2l.5 -1.2l.5 -1.2l.6 -1.2l.3 -.7l.4 -.6l.7 -1.2l.9 -1.2l.8 -1.2l1 -1.3l1.1 -1.2l1.2 -1.3l1.2 -1.2l1.3 -1.3l1.4 -1.3l1.4 -1.3l1.5 -1.2l1.6 -1.4l1.7 -1.2l1.7 -1.4l1.8 -1.3l1.9 -1.3l2 -1.3l1 -.7l1 -.7l2.2 -1.3l2.2 -1.3l2.3 -1.4l2.3 -1.3l2.4 -1.4l2.5 -1.4l2.7 -1.3" class="g9_70"/>
<path d="M627.8 166.5l6.9 1.6l-.6 .1l-.6 .2l-.4 .2l-.4 .3l-.1 .2v.1l-.1 .1l-.1 .1v.1l-.2 .3l-.1 .2v1.3l.1 .3l.2 .5Z" class="g8_70"/>
<path d="M632.4 169.4l26.4 10.1" class="g9_70"/>
<path d="M754.4 168.2l.3 -.5l.2 -.4l.2 -.5v-.6l-.1 -.1h.1l-.2 -.6l-.3 -.5l-.2 -.2l-.3 -.3l-.5 -.4l6.9 1.6l-3.3 1.5l-3.2 1.5Z" class="g8_70"/>
<path d="M731.4 169.3h1.8l1 -.1h1.1l1.2 -.1l1.2 -.1l.7 -.1l.7 -.1l1.5 -.2l.7 -.1l.7 -.1l.8 -.1l.8 -.1l1.7 -.2l1.8 -.3l1.9 -.3l1.9 -.3l1 -.2l1 -.2l2.2 -.3" class="g9_70"/>
<path d="M56.7 71.5h.7v-.7h-.7v.7Z" class="ga_70"/>
<path d="M56.7 71.5h.7v-.7h-.7v.7Z" class="ga_70"/>
<path d="M57.4 71.5h68v-.7h-68v.7Z" class="ga_70"/>
<path d="M125.4 71.5h.7v-.7h-.7v.7Z" class="ga_70"/>
<path d="M126.1 71.5h460v-.7h-460v.7Z" class="ga_70"/>
<path d="M586.1 71.5h.8v-.7h-.8v.7Z" class="ga_70"/>
<path d="M586.8 71.5H861.9v-.7H586.8v.7Z" class="ga_70"/>
<path d="M861.9 71.5h.7v-.7h-.7v.7Z" class="ga_70"/>
<path d="M861.9 71.5h.7v-.7h-.7v.7Z" class="ga_70"/>
<path d="M56.7 99h.7V71.5h-.7V99Z" class="ga_70"/>
<path d="M125.4 99h.7V71.5h-.7V99Z" class="ga_70"/>
<path d="M586.1 99h.8V71.5h-.8V99Z" class="ga_70"/>
<path d="M861.9 99h.7V71.5h-.7V99Z" class="ga_70"/>
<path fill-rule="evenodd" d="M57.4 209.9h68V99.9h-68v110Z" class="g0_70"/>
<path fill-rule="evenodd" d="M65.3 168.7h52.2V141.2H65.3v27.5Z" class="g0_70"/>
<path d="M56.7 99.7h.7V99h-.7v.7Z" class="ga_70"/>
<path d="M57.4 99.7h68V99h-68v.7Z" class="ga_70"/>
<path d="M125.4 99.7h.7V99h-.7v.7Z" class="ga_70"/>
<path d="M126.1 99.7h460V99h-460v.7Z" class="ga_70"/>
<path d="M586.1 99.7h.8V99h-.8v.7Z" class="ga_70"/>
<path d="M861.9 99.7h.7V99h-.7v.7Z" class="ga_70"/>
<path d="M56.7 209.9h.7V99.7h-.7V209.9Z" class="ga_70"/>
<path d="M125.4 209.9h.7V99.7h-.7V209.9Z" class="ga_70"/>
<path d="M586.1 209.9h.8V99.7h-.8V209.9Z" class="ga_70"/>
<path d="M861.9 209.9h.7V99.7h-.7V209.9Z" class="ga_70"/>
<path fill-rule="evenodd" d="M57.4 238.2h68V210.7h-68v27.5Z" class="g0_70"/>
<path d="M65.3 238.2h52.2V210.7H65.3v27.5Z" class="g0_70"/>
<path d="M56.7 210.7h.7v-.8h-.7v.8Z" class="ga_70"/>
<path d="M57.4 210.7h68v-.8h-68v.8Z" class="ga_70"/>
<path d="M125.4 210.7h.7v-.8h-.7v.8Z" class="ga_70"/>
<path d="M126.1 210.7h460v-.8h-460v.8Z" class="ga_70"/>
<path d="M586.1 210.7h.8v-.8h-.8v.8Z" class="ga_70"/>
<path d="M861.9 210.7h.7v-.8h-.7v.8Z" class="ga_70"/>
<path d="M56.7 238.2h.7V210.7h-.7v27.5Z" class="ga_70"/>
<path d="M125.4 238.2h.7V210.7h-.7v27.5Z" class="ga_70"/>
<path d="M586.1 238.2h.8V210.7h-.8v27.5Z" class="ga_70"/>
<path d="M861.9 238.2h.7V210.7h-.7v27.5Z" class="ga_70"/>
<path fill-rule="evenodd" d="M57.4 420.4h68V238.9h-68V420.4Z" class="g0_70"/>
<path fill-rule="evenodd" d="M65.3 343.4h52.2V315.9H65.3v27.5Z" class="g0_70"/>
<path d="M270.2 283.6h9.2m158 0h9.2m156.9 0h9.2M272.6 353.8h9.2m-29.2 43.8h9.2m162.4 0h9.2m166.7 0h9.1" class="gb_70"/>
<path d="M759.1 295l.3 -.2l1.4 -1.5l1.5 -1.3l2.5 2.7l-2.9 3.2Z" class="gc_70"/>
<path d="M783.7 319.5v-.1l.1 .1v.2Z" class="g1_70"/>
<path d="M783.7 353.7v-4.1h4.7v3.8l-2.1 .2l-2.2 .1Z" class="gc_70"/>
<path d="M783.7 319.8h.1l-.1 .8Z" class="g1_70"/>
<path d="M783.8 319.5l.2 .1l-.2 .1Z" class="g1_70"/>
<path d="M788.4 349.6h-4.7v-29l.1 -.8v.1v-.2l.2 -.1l28.6 16.7v.1l-.6 .9l-.7 1l-.3 .4l-.3 .5l-.7 .9l-.3 .4l-.4 .5l-.7 .9l-.2 .1l-.2 .3l-.4 .4l-.7 .9l-1.1 1l-.5 .4l-.5 .5l-1.1 .9l-1 .8l-1.1 .8l-1.1 .7l-1.2 .7l-.6 .3l-.5 .4l-1.2 .5l-.6 .3l-.3 .1l-.2 .1l-.1 .1l-1.2 .5l-.7 .2l-.5 .2l-1.3 .4h-.4l-.3 .1l-.6 .2l-1.3 .3l-1.3 .3Z" class="gc_70"/>
<path d="M783.2 319.1l.4 .3l-.1 .1Z" class="g1_70"/>
<path d="M782.4 353.7h-1.2l-.8 -.1l-1.6 -.1l-1.4 -.2l-1.5 -.3l-1.4 -.4l-1.4 -.4l-1.4 -.5l-1.4 -.5l-1.3 -.6l-1.3 -.6l-1.3 -.8l-1.2 -.8l-1.2 -.8l-1.2 -.9l-1.2 -1l-1.1 -1l-1.1 -1.1l-1.2 -1.2l-1 -1.2l-1 -1.3l-.9 -1.3l-.8 -1.3l-.8 -1.3l-.7 -1.4l-.7 -1.3l31.2 -13.5v.2l.2 -.2v33.9Z" class="gc_70"/>
<path d="M751.6 331.6l-.5 -1.6l-.5 -1.7l-.3 -.9l-.1 -.9l-.3 -1.8l-.3 -1.8l-.1 -.9v-5.2l.2 -2.3l.4 -2.2l.5 -2.1l.6 -2.2l.7 -2l.9 -2.1l1.1 -1.9l.8 -1.5l1 -1.5l1.1 -1.4l1.2 -1.3l1.1 -1.3l2.8 2.9l21.3 21.2l.3 .4v.3l-31.2 13.5Z" class="gc_70"/>
<path d="M784 319.6l-.2 -.1l.1 -.8l28.2 -17.6l.2 .4l.6 1.2l.7 1.2l.5 1.2l.6 1.2l.5 1.5l.4 1.5l.4 1.6l.4 1.6l.2 1.6l.2 1.7l.1 1.7v2.8l-.1 1.2v1.1l-.1 .6v.6l-.4 2.2l-.2 1.1l-.3 1.1l-.3 1l-.3 1.1l-.4 1l-.3 1l-.5 1l-.4 1l-1 2Z" class="gc_70"/>
<path d="M783.7 319.4v-.1v.1h-.1l-.4 -.3L761.9 297.9l2.9 -3.2L762.3 292l1.1 -.9l1.1 -.8l1.2 -.8l1.2 -.7l1.2 -.7l1.3 -.6l1.3 -.6l1.3 -.4l1.3 -.5l1.3 -.3l1.4 -.4l1.4 -.2l2.9 -.4l2.9 -.1l1.9 .1h.9l1 .2h.3l-3.4 33.8l-.1 .8Z" class="gc_70"/>
<path d="M787.3 284.9l1.4 .1l1.3 .3l1.4 .3l1.4 .3l1.2 .4l1.4 .5l1.2 .6l1.3 .6l1.2 .6l1.2 .7l1.2 .7l1.1 .9l1.1 .8l1.2 1l1.1 1l1.1 1.1l1.3 1.4l1.2 1.5l-3.3 1.9l1.5 3.5l-1.5 -3.5l3.3 -1.9l1.3 1.6l1.2 1.8l-28.2 17.6Z" class="gc_70"/>
<path d="M706.1 353.3l52.8 -58.5l2.9 -3.3l27.5 -30.4l.3 .5l20.5 35.8l32.2 56.1l.1 .2H784.1m0 0h-1.9m0 0H705.7m78.4 0l2.2 -.1l2.1 -.2l1.3 -.3l1.3 -.3l.6 -.2l.3 -.1h.4l1.3 -.4l.5 -.2l.7 -.2l1.2 -.5l.1 -.1l.2 -.1l.3 -.1l.6 -.3l1.2 -.5l.5 -.4l.6 -.3l1.2 -.7l1.1 -.7l1.1 -.8l1 -.8l1.1 -.9l.5 -.5l.5 -.4l1.1 -1l.7 -.9l.4 -.4l.2 -.3l.2 -.1l.7 -.9l.4 -.5l.3 -.4l.7 -.9l.3 -.5l.3 -.4l.7 -1l.6 -.9v-.1l1 -2l.4 -1l.5 -1l.3 -1l.4 -1l.3 -1.1l.3 -1l.3 -1.1l.2 -1.1l.4 -2.2v-.6l.1 -.6v-1.1l.1 -1.2v-2.8l-.1 -1.7l-.2 -1.7l-.2 -1.6l-.4 -1.6l-.4 -1.6l-.4 -1.5l-.5 -1.5l-.6 -1.2l-.5 -1.2l-.7 -1.2l-.6 -1.2l-.2 -.4l-1.2 -1.8l-1.3 -1.6l-1.2 -1.5l-1.3 -1.4L806 293.7l-1.1 -1l-1.2 -1l-1.1 -.8l-1.1 -.9l-1.2 -.7l-1.2 -.7l-1.2 -.6l-1.3 -.6l-1.2 -.6l-1.4 -.5l-1.2 -.4l-1.4 -.3l-1.4 -.3l-1.3 -.3l-1.4 -.1H787l-1 -.2h-.9l-1.9 -.1l-2.9 .1l-2.9 .4l-1.4 .2l-1.4 .4l-1.3 .3l-1.3 .5l-1.3 .4l-1.3 .6l-1.3 .6l-1.2 .7l-1.2 .7l-1.2 .8l-1.1 .8l-1.1 .9l-1.5 1.3l-1.4 1.5l-.3 .2l-1.1 1.3l-1.2 1.3l-1.1 1.4l-.9 1.5l-.9 1.5l-1.1 1.9L752 306l-.8 2l-.6 2.2l-.5 2.1l-.4 2.2l-.1 2.3l-.1 2.4V321l.1 1v.9l.3 1.8l.3 1.8l.2 .9l.2 .9l.5 1.7l.5 1.6l.8 1.7l.6 1.3l.7 1.4l.8 1.3l.8 1.3l.9 1.3l1 1.3l1 1.2l1.2 1.2l1.1 1.1l1.1 1l1.2 1l1.2 .9l1.2 .8l1.2 .8l1.3 .7l1.3 .7l1.3 .6l1.4 .5l1.4 .5l1.4 .4l1.4 .4l1.5 .3l1.4 .2l1.6 .1l.8 .1h1" class="gd_70"/>
<path d="M783.7 353.7v-4.1M783.5 320v-.4m.2 -.2v30.2m.1 -29.8v0h-.1v-.1l-.1 -.1h-.1m0 0v-.1l.1 -.1h.1v-.1m4.7 34.4v-4.1h-4.7m28.4 -48.5l-28.2 17.6m23.9 -15.6l-1.5 -3.5l3.3 -1.9l.5 -.3m-48.2 .5l21.3 21.2l.3 .4M761.9 297.9l2.9 -3.2L762.3 292l-.5 -.5m-2.9 3.3l.2 .2l2.8 2.9" class="ge_70"/>
<path d="M783.7 320.6l.1 -.8v-.1m0 0l-.1 .1h-.2l-31.1 13.5l-46.3 20l-.4 .4M783.5 320l.2 -.2m.3 -.2l-.2 .1m0 -.2v.2m0 .1v0h-.1m.1 -.3l.1 -.8l3.4 -33.8l2.3 -23.3m-5.8 57.9l.2 .1m-.3 -.3v.2m-.5 -.4l.4 .3h.1l.1 .1m-.1 .3h-.1l-.1 -.1m.2 -.2l-.1 .1h-.1m58.8 33.9L812.6 336.3L784 319.6m-.3 -.1v.3" class="gf_70"/>
<path d="M783.3 321.6l-.3 -.1l-.3 -.1l-.3 -.3l-.2 -.2l-.2 -.4l-.1 -.3v-.8l.1 -.3l.2 -.3l.2 -.3l.3 -.2l.3 -.2h.3l.4 -.1l.3 .1h.4l.3 .2l.3 .2l.2 .3l.1 .3l.1 .3l.1 .4v.2l-.1 .2v.2l-.1 .1l-.1 .4l-.1 .1H785v.1l-.3 .3l-.3 .1h-.2l-.2 .1h-.2l-.1 .1Z" class="g5_70"/>
<path d="M56.7 238.9h.7v-.8h-.7v.8Z" class="ga_70"/>
<path d="M57.4 238.9h68v-.8h-68v.8Z" class="ga_70"/>
<path d="M125.4 238.9h.7v-.8h-.7v.8Z" class="ga_70"/>
<path d="M126.1 238.9h460v-.8h-460v.8Z" class="ga_70"/>
<path d="M586.1 238.9h.8v-.8h-.8v.8Z" class="ga_70"/>
<path d="M586.8 238.9H689.5v-.8H586.8v.8Z" class="ga_70"/>
<path d="M689.5 238.9h.8v-.8h-.8v.8Z" class="ga_70"/>
<path d="M690.2 238.9H861.9v-.8H690.2v.8Z" class="ga_70"/>
<path d="M861.9 238.9h.7v-.8h-.7v.8Z" class="ga_70"/>
<path d="M56.7 420.4h.7V238.9h-.7V420.4Z" class="ga_70"/>
<path d="M56.7 421.1h.7v-.7h-.7v.7Z" class="ga_70"/>
<path d="M56.7 421.1h.7v-.7h-.7v.7Z" class="ga_70"/>
<path d="M57.4 421.1h68v-.7h-68v.7Z" class="ga_70"/>
<path d="M125.4 420.4h.7V238.9h-.7V420.4Z" class="ga_70"/>
<path d="M125.4 421.1h.7v-.7h-.7v.7Z" class="ga_70"/>
<path d="M126.1 421.1H689.5v-.7H126.1v.7Z" class="ga_70"/>
<path d="M688.4 421.1h.8v-.7h-.8v.7Z" class="ga_70"/>
<path d="M689.1 421.1H861.9v-.7H689.1v.7Z" class="ga_70"/>
<path d="M861.9 420.4h.7V238.9h-.7V420.4Z" class="ga_70"/>
<path d="M861.9 421.1h.7v-.7h-.7v.7Z" class="ga_70"/>
<path d="M861.9 421.1h.7v-.7h-.7v.7Z" class="ga_70"/>
<path d="M217.6 527.1h110m18.7 0H478.1M221.7 574h36.6m18.5 0h27m-99.9 43.6H213m32.3 0h26.6" class="gb_70"/>
<path d="M767.1 631.9l-1.9 -.1l-1.8 -.1l-1.8 -.2l-1.8 -.2l-1.7 -.2l-3.4 -.6l-1.7 -.3l-1.7 -.4l-1.7 -.5l-1.6 -.4l-3.3 -1.1l-1.6 -.6l-1.5 -.6l-3.1 -1.5l-3.1 -1.6l-3 -1.7l-2.9 -1.9l-2.9 -2.1l-1.3 -1.1l-1.4 -1.2l-2.7 -2.3l-1.3 -1.3l-1.3 -1.3l-1.4 -1.4L716 607.9l-1.2 -1.4l-1.1 -1.4l-1.2 -1.4l-1 -1.4l-1.1 -1.5l-.9 -1.4l-1 -1.5l-.9 -1.5l-.9 -1.5l-.8 -1.5l-.8 -1.6l-.8 -1.5l-.7 -1.6l-.6 -1.5l-.7 -1.7l-.6 -1.6l-.5 -1.7l-.5 -1.6l-.5 -1.7l-.4 -1.7l-.4 -1.7l-.3 -1.7l-.4 -1.8l-.2 -1.8l-.3 -1.8l-.1 -1.7l-.2 -1.8l-.1 -1.9v-7.4l.1 -1.9l.2 -1.8l.1 -1.8l.3 -1.8l.6 -3.5l.3 -1.7l.4 -1.7l.9 -3.4l1 -3.3l.6 -1.7l.7 -1.6l1.3 -3.1l1.6 -3.2l1.7 -3l1.9 -3l2 -2.9l2.2 -2.8l2.3 -2.7l2.6 -2.7l2.6 -2.6l2.7 -2.4l2.7 -2.3l2.9 -2.1l2.9 -1.9l3 -1.7l3.1 -1.6l3.1 -1.4l1.5 -.6l1.6 -.6l3.3 -1.1l3.3 -.9l1.7 -.4l1.7 -.4l3.4 -.6l1.7 -.2l1.8 -.2l1.8 -.1l1.8 -.1l3.7 -.1h1.8l1.8 .1l1.8 .1l1.8 .1l1.7 .2l1.8 .2l1.7 .3l1.8 .3l1.6 .4l1.7 .4l1.7 .4l1.6 .5l1.7 .5l1.6 .6l1.6 .6l1.6 .6l1.5 .7l1.5 .7l1.6 .8l1.5 .8l1.5 .8l1.5 .9l1.4 .9l1.5 1l1.4 1l1.4 1.1l1.4 1.1l1.4 1.2l1.3 1.1l1.4 1.3l1.3 1.2l1.3 1.4l1.3 1.3l1.3 1.4l2.3 2.7l1.1 1.4l1.1 1.4l2 2.9l1.9 3l1.7 3l1.6 3.2l1.4 3.1l.6 1.6l.6 1.7l1.1 3.3l.4 1.6l.4 1.8l.4 1.7l.4 1.7l.5 3.5l.3 1.8l.2 1.8l.1 1.8l.1 1.9l.1 1.8v3.8l-.1 1.8l-.1 1.9l-.1 1.8l-.2 1.7l-.2 .9v.5l-.1 .4L839 572l-.3 1.8l-.4 1.7l-.4 1.7l-.4 1.7l-.4 1.7l-.6 1.6l-.3 .9l-.2 .8l-.3 .8l-.3 .8l-.6 1.7l-.4 .7l-.2 .4l-.1 .4l-.7 1.6l-.4 .7l-.4 .8l-.8 1.6l-.8 1.5l-.9 1.5l-.9 1.5l-1 1.5l-.5 .7l-.5 .7l-1 1.5l-.6 .7l-.2 .3l-.3 .4l-1.1 1.4l-1.2 1.4l-1.1 1.4l-1.3 1.3l-.3 .4l-.3 .3l-.7 .7l-.6 .6l-.4 .3l-.3 .4l-1.3 1.3l-1.4 1.1l-1.3 1.2l-1.4 1.2l-.4 .2l-.3 .3l-.7 .6l-1.4 1l-.7 .5l-.7 .6l-1.5 .9l-1.4 1l-1.5 .8l-1.5 .9l-1.5 .8l-.8 .4l-.8 .4l-1.5 .7l-.4 .2l-.4 .2l-.7 .4l-1.6 .6l-.8 .3l-.8 .3l-.8 .2l-.8 .3l-1.7 .6l-1.6 .4l-1.7 .5l-1.7 .4l-1.6 .3l-1.8 .3l-1.7 .3h-.5l-.4 .1l-.9 .1l-1.7 .2l-1.8 .2l-1.8 .1l-1.8 .1h-1.8ZM825.6 516.7L712.2 602.1H825.6V516.4Z" class="gg_70"/>
<path d="M796.1 601.7l-1.3 -.1l-1.4 -.2l-1.4 -.2l-1.3 -.3l-1.3 -.4l-1.3 -.4l-1.2 -.5l-1.2 -.6l-1.2 -.6l-1.2 -.6l-1.1 -.8l-1.1 -.8l-1.1 -.9l-1 -.9l-1 -1l-1.2 -1.3l-1.1 -1.3l-1 -1.3l-.4 -.7l-.4 -.6l-.5 -.8l-.3 -.7l-.8 -1.4l-.3 -.8l-.3 -.7l-.5 -1.5l26.3 -8.8v.1h.1v28.1Z" class="gh_70"/>
<path d="M797.6 573.6l19.5 19.8l-1 1l-1.1 .9l-.5 .4l-.6 .5l-.5 .4l-.6 .4l-.3 .2l-.2 .2l-.6 .4l-.6 .3l-.5 .3l-.7 .3l-.6 .3l-1.1 .6H808l-.2 .1l-.3 .1l-.6 .3l-1.2 .4l-1.3 .3l-1.3 .4l-1.4 .2h-.9l-.1 .1h-.9l-.1 .1h-1.3l-.1 .1h-.7Z" class="gh_70"/>
<path d="M797.5 573.5l12.7 -25.3l.8 .5l1 .5l.8 .6l.9 .7l.9 .6l.8 .8l.9 .7l.8 .8l1 1l.9 1.1l.8 1.1l.9 1.2l.7 1.1l.7 1.2l.5 1.2l.6 1.3l.5 1.2l.4 1.3l.3 1.3l.4 1.4l.2 1.3l.1 1.5l.1 1.4l.1 1.5Z" class="gh_70"/>
<path d="M770.6 580.2l-.2 -1.1l-.2 -1.1l-.1 -1.1l-.1 -1.1l-.1 -1.2V572l.1 -1.4l.2 -1.5l.2 -1.3l.3 -1.4l.3 -1.3l.4 -1.3l.5 -1.2l.5 -1.3l.6 -1.2l.7 -1.2l.7 -1.1l.8 -1.2l.9 -1.1l.8 -1.1l1.1 -1l1 -1l1 -.9l1.1 -.9l1.1 -.8l1.1 -.8l1.2 -.6l1.2 -.6l1.2 -.5l1.2 -.6l1.3 -.4l1.3 -.3l1.3 -.3l1.4 -.2l1.4 -.2l1.3 -.1h3.2l1.6 .2l1.6 .2l1.7 .3l1.5 .4l1.5 .6l1.5 .6l1.5 .7l-12.7 25.3l-.3 -.3l.3 .3l-26.3 8.8Z" class="gh_70"/>
<path d="M797.6 573.6h-.1v-.1h27.8l-.1 .7v.7l-.1 .7v.7l-.1 1.4l-.3 1.4l-.3 1.3l-.3 1.3l-.4 1.3l-.3 .6l-.1 .3l-.1 .2v.2l-.6 1.2l-.3 .6l-.3 .6l-.3 .6l-.2 .3l-.2 .3l-.3 .5l-.2 .3l-.2 .3l-.4 .6l-.4 .6l-.4 .5l-.4 .6l-.9 1l-1 1.1Z" class="gh_70"/>
<path d="M797.5 573.5v.1Z" class="gh_70"/>
<path d="M810.2 548.2l-1.5 -.7l-1.5 -.6l-1.5 -.6l-1.5 -.4l-1.7 -.3l-1.6 -.2l-1.6 -.2h-3.2l-1.3 .1l-1.4 .2l-1.4 .2l-1.3 .3l-1.3 .3l-1.3 .4l-1.2 .6l-1.2 .5l-1.2 .6l-1.2 .6l-1.1 .8l-1.1 .8l-1.1 .9l-1 .9l-1 1l-1.1 1l-.8 1.1l-.9 1.1l-.8 1.2l-.7 1.1l-.7 1.2l-.6 1.2l-.5 1.3l-.5 1.2l-.4 1.3l-.3 1.3l-.3 1.4l-.2 1.3l-.2 1.5l-.1 1.4v2.6l.1 1.2l.1 1.1l.1 1.1l.2 1.1l.2 1.1l.6 2.1l.5 1.5l.3 .7l.3 .8l.8 1.4l.3 .7l.5 .8l.4 .6l.4 .7l1 1.3l1.1 1.3l1.2 1.3l1 1l1 .9l1.1 .9l1.1 .8l1.1 .8l1.2 .6l1.2 .6l1.2 .6l1.2 .5l1.3 .4l1.3 .4l1.3 .3l1.4 .2l1.4 .2l1.3 .1h2.2l.1 -.1h1.3l.1 -.1h.9l.1 -.1h.9l1.4 -.2l1.3 -.4l1.3 -.3l1.2 -.4l.6 -.3l.3 -.1l.2 -.1h.2l1.1 -.6l.6 -.3l.7 -.3l.5 -.3l.6 -.3l.6 -.4l.2 -.2l.3 -.2l.6 -.4l.5 -.4l.6 -.5l.5 -.4l1.1 -.9l1 -1l1 -1.1l.9 -1l.4 -.6l.4 -.5l.4 -.6l.4 -.6l.2 -.3l.2 -.3l.3 -.5l.2 -.3l.2 -.3l.3 -.6l.3 -.6l.3 -.6l.6 -1.2v-.2l.1 -.2l.1 -.3l.3 -.6l.4 -1.3l.3 -1.3l.3 -1.3l.3 -1.4l.1 -1.4v-.7l.1 -.7v-.7l.1 -.7l-.1 -1.5l-.1 -1.4l-.1 -1.5l-.2 -1.3l-.4 -1.4l-.3 -1.3l-.4 -1.3l-.5 -1.2l-.6 -1.3l-.5 -1.2l-.7 -1.2l-.7 -1.1l-.9 -1.2l-.8 -1.1l-.9 -1.1l-1 -1l-.8 -.8l-.9 -.7l-.8 -.8l-.9 -.6l-.9 -.7l-.8 -.6l-1 -.5l-.8 -.5m15.4 -31.8v.3m-56.7 -30l-3.7 .1l-1.8 .1l-1.8 .1l-1.8 .2l-1.7 .2l-3.4 .6l-1.7 .4l-1.7 .4l-3.3 .9l-3.3 1.1l-1.6 .6l-1.5 .6l-3.1 1.4l-3.1 1.6l-3 1.7l-2.9 1.9l-2.9 2.1l-2.7 2.3l-2.7 2.4l-2.6 2.6l-2.6 2.7l-2.3 2.7l-2.2 2.8l-2 2.9l-1.9 3l-1.7 3l-1.6 3.2l-1.3 3.1l-.7 1.6l-.6 1.7l-1 3.3l-.9 3.4l-.4 1.7l-.3 1.7l-.6 3.5l-.3 1.8l-.1 1.8l-.2 1.8l-.1 1.9V563l.1 1.9l.2 1.8l.1 1.7l.3 1.8l.2 1.8l.4 1.8l.3 1.7l.4 1.7l.4 1.7l.5 1.7l.5 1.6l.5 1.7l.6 1.6l.7 1.7l.6 1.5l.7 1.6l.8 1.5l.8 1.6l.8 1.5l.9 1.5l.9 1.5l1 1.5l.9 1.4l1.1 1.5l1 1.4l1.2 1.4l1.1 1.4l1.2 1.4l1.2 1.3l1.4 1.4l1.3 1.3l1.3 1.3l2.7 2.3l1.4 1.2l1.3 1.1l2.9 2.1l2.9 1.9l3 1.7l3.1 1.6l3.1 1.5l1.5 .6l1.6 .6l3.3 1.1l1.6 .4l1.7 .5l1.7 .4l1.7 .3l3.4 .6l1.7 .2l1.8 .2l1.8 .2l1.8 .1l1.9 .1h3.6l1.8 -.1l1.8 -.1l1.8 -.2l1.7 -.2l.9 -.1l.4 -.1h.5l1.7 -.3l1.8 -.3l1.6 -.3l1.7 -.4l1.7 -.5l1.6 -.4l1.7 -.6l.8 -.3l.8 -.2l.8 -.3l.8 -.3l1.6 -.6l.7 -.4l.4 -.2l.4 -.2l1.5 -.7l.8 -.4l.8 -.4l1.5 -.8l1.5 -.9l1.5 -.8l1.4 -1l1.5 -.9l.7 -.6l.7 -.5l1.4 -1l.7 -.6l.3 -.3l.4 -.2l1.4 -1.2l1.3 -1.2l1.4 -1.1l1.3 -1.3l.3 -.4l.4 -.3l.6 -.6l.7 -.7l.3 -.3l.3 -.4l1.3 -1.3l1.1 -1.4l1.2 -1.4l1.1 -1.4l.3 -.4l.2 -.3l.6 -.7l1 -1.5l.5 -.7l.5 -.7l1 -1.5l.9 -1.5l.9 -1.5l.8 -1.5l.8 -1.6l.4 -.8l.4 -.7l.7 -1.6l.1 -.4l.2 -.4l.4 -.7l.6 -1.7l.3 -.8l.3 -.8l.2 -.8l.3 -.9l.6 -1.6l.4 -1.7l.4 -1.7l.4 -1.7l.4 -1.7L839 572l.2 -1.8l.1 -.4v-.5l.2 -.9l.2 -1.7l.1 -1.8l.1 -1.9l.1 -1.8v-3.8l-.1 -1.8l-.1 -1.9l-.1 -1.8l-.2 -1.8l-.3 -1.8l-.5 -3.5l-.4 -1.7l-.4 -1.7l-.4 -1.8l-.4 -1.6L836 534.7l-.6 -1.7l-.6 -1.6l-1.4 -3.1l-1.6 -3.2l-1.7 -3l-1.9 -3l-2 -2.9l-1.1 -1.4L824 513.4l-2.3 -2.7l-1.3 -1.4L819.1 508l-1.3 -1.4l-1.3 -1.2l-1.4 -1.3L813.8 503l-1.4 -1.2L811 500.7l-1.4 -1.1l-1.4 -1l-1.5 -1l-1.4 -.9l-1.5 -.9l-1.5 -.8l-1.5 -.8l-1.6 -.8l-1.5 -.7l-1.5 -.7l-1.6 -.6l-1.6 -.6l-1.6 -.6l-1.7 -.5l-1.6 -.5l-1.7 -.4l-1.7 -.4l-1.6 -.4l-1.8 -.3l-1.7 -.3l-1.8 -.2l-1.7 -.2l-1.8 -.1l-1.8 -.1l-1.8 -.1h-1.8m56.7 30L712.2 602.1H825.6V516.7" class="gi_70"/>
<path d="M825.6 573.5h-2.2m-2.1 0h-2.2m-2.2 0h-2.2m-2.2 0h-2.1m-2.2 0H806m-2.2 0h-2.1m-2.2 0h-2m.1 28.6v-2.2m0 -2.2v-2.2m0 -2.3V591m0 -2.2v-2.2m0 -2.3v-2.2m0 -2.2v-2.3m0 -2.2v-1.8" class="gj_70"/>
<path d="M825.1 601.6l-8 -8.2L797.6 573.6h-.1m0 -.1v0m0 .1v-.1m0 .1v-.1m0 0l-.3 -.3m.3 .3l12.7 -25.3L825.1 518m-27.6 55.5l-26.3 8.8l-57 19.1" class="gk_70"/>
<path d="M797.4 575.2l-.3 -.1l-.3 -.2l-.3 -.2l-.2 -.3l-.2 -.2v-1.3l.2 -.3l.2 -.3l.3 -.2l.3 -.2l.7 -.1h.2l.3 .1l.3 .2l.3 .2l.2 .3l.2 .3l.1 .3v.6l-.1 .4l-.2 .2l-.1 .1l-.1 .1v.1h-.1l-.1 .1l-.1 .1h-.1v.1l-.2 .1l-.3 .1h-.1l-.1 .1Z" class="g5_70"/>
<path d="M768.7 560.9l-.3 -.1l-.3 -.1l-.3 -.3l-.2 -.2l-.1 -.3l-.1 -.3v-.3l.1 -.7l.1 -.3l.2 -.3l.3 -.2l.3 -.1l.7 -.1h.2l.4 .1l.2 .1l.3 .2l.2 .3l.2 .3l.1 .3v.7l-.1 .3l-.2 .3l-.1 .1h-.1v.1h-.1v.1l-.2 .2h-.1v.1h-.1l-.4 .1h-.1v.1h-.1Z" class="g5_70"/>
<path d="M825.6 598.2h-3.7m0 3.9v-3.8" class="gi_70"/>
<path d="M56.7 476.8h.7v-.7h-.7v.7Z" class="ga_70"/>
<path d="M56.7 476.8h.7v-.7h-.7v.7Z" class="ga_70"/>
<path d="M57.4 476.8h629v-.7H57.4v.7Z" class="ga_70"/>
<path d="M686.4 476.8h.7v-.7h-.7v.7Z" class="ga_70"/>
<path d="M687.1 476.8H861.9v-.7H687.1v.7Z" class="ga_70"/>
<path d="M861.9 476.8h.7v-.7h-.7v.7Z" class="ga_70"/>
<path d="M861.9 476.8h.7v-.7h-.7v.7Z" class="ga_70"/>
<path d="M56.7 641.8h.7v-165h-.7v165Z" class="ga_70"/>
<path d="M56.7 642.6h.7v-.8h-.7v.8Z" class="ga_70"/>
<path d="M56.7 642.6h.7v-.8h-.7v.8Z" class="ga_70"/>
<path d="M57.4 642.6h629v-.8H57.4v.8Z" class="ga_70"/>
<path d="M686.4 641.8h.7v-165h-.7v165Z" class="ga_70"/>
<path d="M686.4 642.6h.7v-.8h-.7v.8Z" class="ga_70"/>
<path d="M687.1 642.6H861.9v-.8H687.1v.8Z" class="ga_70"/>
<path d="M861.9 641.8h.7v-165h-.7v165Z" class="ga_70"/>
<path d="M861.9 642.6h.7v-.8h-.7v.8Z" class="ga_70"/>
<path d="M861.9 642.6h.7v-.8h-.7v.8Z" class="ga_70"/>
<path fill-rule="evenodd" d="M57.4 722.3h68V698.5h-68v23.8Z" class="g0_70"/>
<path d="M65.3 722.3h52.2V698.5H65.3v23.8Z" class="g0_70"/>
<path d="M685.7 756.1l15.7 -40.9l.2 .1l21 53.7h-.1Z" class="gl_70"/>
<path d="M722.7 769.1l-.1 -.1l26.7 -13.9l48.4 40.4Z" class="gl_70"/>
<path d="M701.6 715.3l47.7 39.8L722.6 769Z" class="gl_70"/>
<path d="M670.5 795.9l52 -26.9l.2 .1l10.5 26.8Z" class="gl_70"/>
<path d="M685.7 756.1L722.5 769l-52 26.9Z" class="gl_70"/>
<path d="M733.2 795.9L722.7 769.1l75 26.4l.5 .4Z" class="gl_70"/>
<path d="M701.6 715.3l47.7 39.8l48.4 40.4l.5 .4H670.5l15.2 -39.8l15.7 -40.9v-.1l.1 .1" class="gm_70"/>
<path d="M701.5 715.2l.1 .1l.7 1.6m.7 1.9l.6 1.8m.7 1.8l.6 1.9m.7 1.8l.8 1.9m.6 1.8l.8 1.9m.7 1.8l.8 1.8m.7 1.9l.7 1.8m.8 1.8l.7 1.9m.7 1.8l.8 1.8m.6 1.9l.8 1.8m.8 1.9l.6 1.8m.8 1.9l.7 1.8m.7 1.9l.8 1.8m.8 1.8l.6 1.9m.8 1.7l.6 1.9m.3 .5l1.7 -.8m1.8 -.9l1.7 -.9m1.7 -.9l1.7 -.8m1.7 -.9l1.7 -.9m1.7 -.9l1.7 -.8m1.8 -.9l1.7 -.9m1.7 -.8l1.7 -1m1.7 -.8l1.7 -1M722.5 769l.2 .1m0 0l-.1 -.2m0 0l-.1 .1M685.7 756l1.8 .7m1.8 .7l1.9 .6m1.8 .6l1.8 .7m1.8 .7l1.8 .5m1.8 .7l1.8 .6m1.8 .7l1.8 .6m1.8 .7l1.8 .5m1.9 .7l1.8 .6m1.8 .7l1.8 .6m1.8 .6l1.8 .6m1.8 .7l.6 .2m75.2 26.5l-1.8 -.7m-1.8 -.6l-1.8 -.7m-1.8 -.7l-1.8 -.6m-1.9 -.6l-1.8 -.7m-1.8 -.6l-1.8 -.6m-1.8 -.6l-1.8 -.7m-1.8 -.7l-1.8 -.6m-1.8 -.7l-1.8 -.5m-1.8 -.7l-1.8 -.6m-1.9 -.7l-1.8 -.6m-1.8 -.6l-1.8 -.6m-1.8 -.7l-1.8 -.6m-1.8 -.7l-1.8 -.5m-1.8 -.7l-1.8 -.6m-1.8 -.7l-1.8 -.6m-1.9 -.7l-1.8 -.6m-1.8 -.6l-1.8 -.7m-1.8 -.6l-1.8 -.6m-1.8 -.6l-1.8 -.7m-1.9 -.6l-1.8 -.7m-1.8 -.5l-1.8 -.7m-.8 -.3l.6 1.8m.7 1.9l.7 1.8m.7 1.8l.7 1.8m.8 1.9l.7 1.8m.7 1.9l.8 1.8m.8 1.9l.6 1.8m.8 1.8l.8 1.8m.6 1.8l.5 1.2m-63.5 .3l.8 -.3l.9 -.5m1.7 -.9l1.7 -.8m1.7 -.9l1.8 -.9m1.7 -.8l1.7 -.9m1.7 -.9l1.7 -.9m1.7 -.8l1.7 -.9m1.7 -.9L692 785m1.7 -.9l1.7 -.9m1.7 -.9l1.7 -.8m1.7 -.9l1.8 -.9m1.7 -.9l1.7 -.8m1.7 -.9l1.7 -.9m1.7 -.9l1.7 -.8m1.7 -1l1.7 -.8m1.6 -1l1.8 -.9m1.6 -.9l1.6 -.9" class="gn_70"/>
<path d="M762.1 735l.1 -.5l-.1 -.5v-.4l-.1 -.2l-.1 -.1v-.2h-.1l-.2 -.2l-.2 -.2l-.2 -.2l-.2 -.1l-.5 -.2l-.7 -.1l6.1 -1.5l-2 2.4l-1.9 2.6Z" class="g8_70"/>
<path d="M722.7 768.8l.2 -1l.2 -1l.3 -1.1l.4 -1l.5 -1.1l.5 -1l.3 -.6l.3 -.5l.7 -1l.7 -1.1l.7 -1.1l.9 -1.1l1 -1.1l1 -1.1l1 -1.1l1.1 -1.1l1.3 -1.1l1.2 -1.1l1.3 -1.1l1.4 -1.2l1.5 -1.1l1.5 -1.1l1.6 -1.1l1.6 -1.2l1.8 -1.1l.9 -.6l.9 -.6l1.8 -1.2l1.9 -1.1l2 -1.2l2.1 -1.2l2.1 -1.2l2.2 -1.2l2.3 -1.1" class="go_70"/>
<path d="M782.1 771.3l.1 -.5l-.1 -.5l-.1 -.4v-.2l-.1 -.1v-.2h-.1l-.4 -.4l-.2 -.1l-.2 -.1l-.5 -.2l-.4 -.1h-.3l6.1 -1.6l-2 2.4l-1.9 2.6Z" class="g8_70"/>
<path d="M760.8 782.1l1.4 -.6l.8 -.3l.7 -.3l.7 -.4l.7 -.3l1.5 -.7l.7 -.4l.7 -.3l1.4 -.7l1.3 -.8l1.4 -.8l1.3 -.8l1.2 -.8l1.3 -.8l.6 -.5l.7 -.4l1.1 -.9l.6 -.5l.7 -.4l1.1 -.9l1.2 -1" class="go_70"/>
<path d="M56.7 698.3h.7v-.7h-.7v.7Z" class="ga_70"/>
<path d="M56.7 698.3h.7v-.7h-.7v.7Z" class="ga_70"/>
<path d="M57.4 698.3h68v-.7h-68v.7Z" class="ga_70"/>
<path d="M125.4 698.3h.7v-.7h-.7v.7Z" class="ga_70"/>
<path d="M126.1 698.3H647.9v-.7H126.1v.7Z" class="ga_70"/>
<path d="M647.9 698.3h.7v-.7h-.7v.7Z" class="ga_70"/>
<path d="M648.6 698.3H861.9v-.7H648.6v.7Z" class="ga_70"/>
<path d="M861.9 698.3h.7v-.7h-.7v.7Z" class="ga_70"/>
<path d="M861.9 698.3h.7v-.7h-.7v.7Z" class="ga_70"/>
<path d="M56.7 722.3h.7v-24h-.7v24Z" class="ga_70"/>
<path d="M125.4 722.3h.7v-24h-.7v24Z" class="ga_70"/>
<path d="M647.9 722.3h.7v-24h-.7v24Z" class="ga_70"/>
<path d="M861.9 722.3h.7v-24h-.7v24Z" class="ga_70"/>
<path fill-rule="evenodd" d="M57.4 766.7h68V723.1h-68v43.6Z" class="g0_70"/>
<path fill-rule="evenodd" d="M65.3 756.8h52.2V733H65.3v23.8Z" class="g0_70"/>
<path d="M376.9 744h9.2" class="gb_70"/>
<path d="M56.7 723.1h.7v-.8h-.7v.8Z" class="ga_70"/>
<path d="M57.4 723.1h68v-.8h-68v.8Z" class="ga_70"/>
<path d="M125.4 723.1h.7v-.8h-.7v.8Z" class="ga_70"/>
<path d="M126.1 723.1H647.9v-.8H126.1v.8Z" class="ga_70"/>
<path d="M647.9 723.1h.7v-.8h-.7v.8Z" class="ga_70"/>
<path d="M861.9 723.1h.7v-.8h-.7v.8Z" class="ga_70"/>
<path d="M56.7 766.7h.7V723.1h-.7v43.6Z" class="ga_70"/>
<path d="M125.4 766.7h.7V723.1h-.7v43.6Z" class="ga_70"/>
<path d="M647.9 766.7h.7V723.1h-.7v43.6Z" class="ga_70"/>
<path d="M861.9 766.7h.7V723.1h-.7v43.6Z" class="ga_70"/>
<path fill-rule="evenodd" d="M57.4 814.4h68v-47h-68v47Z" class="g0_70"/>
<path fill-rule="evenodd" d="M65.3 802.8h52.2V779H65.3v23.8Z" class="g0_70"/>
<path d="M56.7 767.4h.7v-.7h-.7v.7Z" class="ga_70"/>
<path d="M57.4 767.4h68v-.7h-68v.7Z" class="ga_70"/>
<path d="M125.4 767.4h.7v-.7h-.7v.7Z" class="ga_70"/>
<path d="M126.1 767.4H647.9v-.7H126.1v.7Z" class="ga_70"/>
<path d="M647.9 767.4h.7v-.7h-.7v.7Z" class="ga_70"/>
<path d="M861.9 767.4h.7v-.7h-.7v.7Z" class="ga_70"/>
<path d="M56.7 814.4h.7v-47h-.7v47Z" class="ga_70"/>
<path d="M125.4 814.4h.7v-47h-.7v47Z" class="ga_70"/>
<path d="M647.9 814.4h.7v-47h-.7v47Z" class="ga_70"/>
<path d="M861.9 814.4h.7v-47h-.7v47Z" class="ga_70"/>
<path fill-rule="evenodd" d="M57.4 909.3h68V815.1h-68v94.2Z" class="g0_70"/>
<path fill-rule="evenodd" d="M65.3 874.1h52.2V850.3H65.3v23.8Z" class="g0_70"/>
<path d="M599.9 886.4H609" class="gb_70"/>
<path d="M56.7 815.1h.7v-.7h-.7v.7Z" class="ga_70"/>
<path d="M57.4 815.1h68v-.7h-68v.7Z" class="ga_70"/>
<path d="M125.4 815.1h.7v-.7h-.7v.7Z" class="ga_70"/>
<path d="M126.1 815.1H647.9v-.7H126.1v.7Z" class="ga_70"/>
<path d="M647.9 815.1h.7v-.7h-.7v.7Z" class="ga_70"/>
<path d="M648.6 815.1H861.9v-.7H648.6v.7Z" class="ga_70"/>
<path d="M861.9 815.1h.7v-.7h-.7v.7Z" class="ga_70"/>
<path d="M56.7 909.3h.7V815.1h-.7v94.2Z" class="ga_70"/>
<path d="M56.7 910.1h.7v-.8h-.7v.8Z" class="ga_70"/>
<path d="M56.7 910.1h.7v-.8h-.7v.8Z" class="ga_70"/>
<path d="M57.4 910.1h68v-.8h-68v.8Z" class="ga_70"/>
<path d="M125.4 909.3h.7V815.1h-.7v94.2Z" class="ga_70"/>
<path d="M125.4 910.1h.7v-.8h-.7v.8Z" class="ga_70"/>
<path d="M126.1 910.1H861.9v-.8H126.1v.8Z" class="ga_70"/>
<path d="M861.9 909.3h.7V815.1h-.7v94.2Z" class="ga_70"/>
<path d="M861.9 910.1h.7v-.8h-.7v.8Z" class="ga_70"/>
<path d="M861.9 910.1h.7v-.8h-.7v.8Z" class="ga_70"/>
<path fill-rule="evenodd" d="M57.4 989.6H207.9V965.8H57.4v23.8Z" class="g0_70"/>
<path d="M65.3 989.6H200V965.8H65.3v23.8Z" class="g0_70"/>
<path fill-rule="evenodd" d="M208.6 989.6H414.2V965.8H208.6v23.8Z" class="g0_70"/>
<path d="M216.5 989.6H406.3V965.8H216.5v23.8Z" class="g0_70"/>
<path fill-rule="evenodd" d="M414.9 989.6h288V965.8h-288v23.8Z" class="g0_70"/>
<path d="M422.8 989.6H695V965.8H422.8v23.8Z" class="g0_70"/>
<path fill-rule="evenodd" d="M703.6 989.6H861.9V965.8H703.6v23.8Z" class="g0_70"/>
<path d="M711.5 989.6H854V965.8H711.5v23.8Z" class="g0_70"/>
<path d="M56.7 965.8h.7v-.7h-.7v.7Z" class="ga_70"/>
<path d="M56.7 965.8h.7v-.7h-.7v.7Z" class="ga_70"/>
<path d="M57.4 965.8H207.9v-.7H57.4v.7Z" class="ga_70"/>
<path d="M207.9 965.8h.7v-.7h-.7v.7Z" class="ga_70"/>
<path d="M208.6 965.8H414.2v-.7H208.6v.7Z" class="ga_70"/>
<path d="M414.1 965.8h.8v-.7h-.8v.7Z" class="ga_70"/>
<path d="M414.9 965.8h288v-.7h-288v.7Z" class="ga_70"/>
<path d="M702.9 965.8h.7v-.7h-.7v.7Z" class="ga_70"/>
<path d="M703.6 965.8H861.9v-.7H703.6v.7Z" class="ga_70"/>
<path d="M861.9 965.8h.7v-.7h-.7v.7Z" class="ga_70"/>
<path d="M861.9 965.8h.7v-.7h-.7v.7Z" class="ga_70"/>
<path d="M56.7 989.6h.7V965.8h-.7v23.8Z" class="ga_70"/>
<path d="M207.9 989.6h.7V965.8h-.7v23.8Z" class="ga_70"/>
<path d="M414.1 989.6h.8V965.8h-.8v23.8Z" class="ga_70"/>
<path d="M702.9 989.6h.7V965.8h-.7v23.8Z" class="ga_70"/>
<path d="M861.9 989.6h.7V965.8h-.7v23.8Z" class="ga_70"/>
<path fill-rule="evenodd" d="M57.4 1016.9H207.9V990.4H57.4v26.5Z" class="g0_70"/>
<path fill-rule="evenodd" d="M65.3 1015.7H200V991.8H65.3v23.9Z" class="g0_70"/>
<path d="M733.2 1135.9l-.1 -5.6h-2l40.2 -57.6l43.7 63.2Z" class="gp_70"/>
<path d="M727.6 1135.9v-.6l3.5 -5h2l.1 5.6Z" class="gp_70"/>
<path d="M727.6 1130.3V1009.4l43.7 63.3l-40.2 57.6Z" class="gp_70"/>
<path d="M727.6 1130.3h3.5l-3.5 5Z" class="gp_70"/>
<path d="M727.6 1135.3V1009.4l43.7 63.3l43.7 63.2H727.6v-.3m5.6 .3l-.1 -5.6h-5.5" class="gq_70"/>
<path d="M727.6 1135.6v-.3l3.5 -5l40.2 -57.6" class="gr_70"/>
<path d="M771.1 1074.7l-.4 -.1l-.4 -.2l-.2 -.2l-.3 -.3l-.2 -.4l-.1 -.3v-.8l.1 -.4l.2 -.4l.3 -.3l.2 -.2l.4 -.2l.4 -.1h.8l.4 .1l.3 .2l.3 .2l.2 .3l.2 .4l.1 .4l.1 .4l-.1 .4l-.1 .3l-.2 .4l-.2 .3l-.3 .2l-.3 .2l-.4 .1l-.4 .1Z" class="g5_70"/>
<path d="M756 1096.1l-.3 -.1l-.4 -.2l-.2 -.2l-.3 -.3l-.2 -.4l-.1 -.3v-.8l.1 -.4l.2 -.3l.3 -.4l.2 -.2l.4 -.2l.3 -.1h.9l.3 .1l.3 .2l.3 .2l.3 .4l.1 .3l.1 .4l.1 .4l-.1 .4l-.1 .3l-.1 .4l-.3 .3l-.3 .2l-.3 .2l-.3 .1l-.4 .1Z" class="g5_70"/>
<path d="M756 1110.2l-.4 -.1l-.3 -.2l-.3 -.3l-.3 -.3l-.2 -.3l-.1 -.4v-.8l.1 -.4l.2 -.3l.3 -.3l.3 -.3l.3 -.1l.4 -.1l.4 -.1l.4 .1l.4 .1l.3 .1l.3 .3l.2 .3l.2 .3l.1 .4l.1 .4l-.1 .4l-.1 .4l-.2 .3l-.2 .3l-.3 .3l-.3 .2l-.4 .1h-.4Z" class="g5_70"/>
<path d="M56.7 990.4h.7v-.8h-.7v.8Z" class="ga_70"/>
<path d="M57.4 990.4H207.9v-.8H57.4v.8Z" class="ga_70"/>
<path d="M207.9 990.4h.7v-.8h-.7v.8Z" class="ga_70"/>
<path d="M208.6 990.4H414.2v-.8H208.6v.8Z" class="ga_70"/>
<path d="M414.1 990.4h.8v-.8h-.8v.8Z" class="ga_70"/>
<path d="M414.9 990.4h288v-.8h-288v.8Z" class="ga_70"/>
<path d="M702.9 990.4h.7v-.8h-.7v.8Z" class="ga_70"/>
<path d="M703.6 990.4H861.9v-.8H703.6v.8Z" class="ga_70"/>
<path d="M861.9 990.4h.7v-.8h-.7v.8Z" class="ga_70"/>
<path d="M56.7 1016.9h.7V990.4h-.7v26.5Z" class="ga_70"/>
<path d="M207.9 1016.9h.7V990.4h-.7v26.5Z" class="ga_70"/>
<path d="M414.1 1016.9h.8V990.4h-.8v26.5Z" class="ga_70"/>
<path d="M702.9 1016.9h.7V990.4h-.7v26.5Z" class="ga_70"/>
<path d="M861.9 1016.9h.7V990.4h-.7v26.5Z" class="ga_70"/>
<path fill-rule="evenodd" d="M57.4 1061.5H207.9v-43.8H57.4v43.8Z" class="g0_70"/>
<path fill-rule="evenodd" d="M65.3 1051.4H200v-23.8H65.3v23.8Z" class="g0_70"/>
<path d="M308.2 1038.6h9.2m153.8 0h9.1" class="gb_70"/>
<path d="M56.7 1017.7h.7v-.8h-.7v.8Z" class="ga_70"/>
<path d="M57.4 1017.7H207.9v-.8H57.4v.8Z" class="ga_70"/>
<path d="M207.9 1017.7h.7v-.8h-.7v.8Z" class="ga_70"/>
<path d="M208.6 1017.7H414.2v-.8H208.6v.8Z" class="ga_70"/>
<path d="M414.1 1017.7h.8v-.8h-.8v.8Z" class="ga_70"/>
<path d="M414.9 1017.7h288v-.8h-288v.8Z" class="ga_70"/>
<path d="M702.9 1017.7h.7v-.8h-.7v.8Z" class="ga_70"/>
<path d="M861.9 1017.7h.7v-.8h-.7v.8Z" class="ga_70"/>
<path d="M56.7 1061.5h.7v-43.8h-.7v43.8Z" class="ga_70"/>
<path d="M207.9 1061.5h.7v-43.8h-.7v43.8Z" class="ga_70"/>
<path d="M414.1 1061.5h.8v-43.8h-.8v43.8Z" class="ga_70"/>
<path d="M702.9 1061.5h.7v-43.8h-.7v43.8Z" class="ga_70"/>
<path d="M861.9 1061.5h.7v-43.8h-.7v43.8Z" class="ga_70"/>
<path fill-rule="evenodd" d="M57.4 1105.9H207.9v-43.7H57.4v43.7Z" class="g0_70"/>
<path fill-rule="evenodd" d="M65.3 1096H200v-23.9H65.3V1096Z" class="g0_70"/>
<path d="M216.5 1083.1h9.2m92 0h9.2m144.3 0h9.1" class="gb_70"/>
<path d="M56.7 1062.2h.7v-.7h-.7v.7Z" class="ga_70"/>
<path d="M57.4 1062.2H207.9v-.7H57.4v.7Z" class="ga_70"/>
<path d="M207.9 1062.2h.7v-.7h-.7v.7Z" class="ga_70"/>
<path d="M208.6 1062.2H414.2v-.7H208.6v.7Z" class="ga_70"/>
<path d="M414.1 1062.2h.8v-.7h-.8v.7Z" class="ga_70"/>
<path d="M414.9 1062.2h288v-.7h-288v.7Z" class="ga_70"/>
<path d="M702.9 1062.2h.7v-.7h-.7v.7Z" class="ga_70"/>
<path d="M861.9 1062.2h.7v-.7h-.7v.7Z" class="ga_70"/>
<path d="M56.7 1105.9h.7v-43.7h-.7v43.7Z" class="ga_70"/>
<path d="M207.9 1105.9h.7v-43.7h-.7v43.7Z" class="ga_70"/>
<path d="M414.1 1105.9h.8v-43.7h-.8v43.7Z" class="ga_70"/>
<path d="M702.9 1105.9h.7v-43.7h-.7v43.7Z" class="ga_70"/>
<path d="M861.9 1105.9h.7v-43.7h-.7v43.7Z" class="ga_70"/>
<path fill-rule="evenodd" d="M57.4 1151.9H207.9v-45.3H57.4v45.3Z" class="g0_70"/>
<path fill-rule="evenodd" d="M65.3 1141.2H200v-23.8H65.3v23.8Z" class="g0_70"/>
<path d="M216.5 1128.4h9.2m92 0h9.2m143 0h9.2" class="gb_70"/>
<path d="M56.7 1106.6h.7v-.7h-.7v.7Z" class="ga_70"/>
<path d="M57.4 1106.6H207.9v-.7H57.4v.7Z" class="ga_70"/>
<path d="M207.9 1106.6h.7v-.7h-.7v.7Z" class="ga_70"/>
<path d="M208.6 1106.6H414.2v-.7H208.6v.7Z" class="ga_70"/>
<path d="M414.1 1106.6h.8v-.7h-.8v.7Z" class="ga_70"/>
<path d="M414.9 1106.6h288v-.7h-288v.7Z" class="ga_70"/>
<path d="M702.9 1106.6h.7v-.7h-.7v.7Z" class="ga_70"/>
<path d="M861.9 1106.6h.7v-.7h-.7v.7Z" class="ga_70"/>
<path d="M56.7 1151.9h.7v-45.3h-.7v45.3Z" class="ga_70"/>
<path d="M56.7 1152.6h.7v-.7h-.7v.7Z" class="ga_70"/>
<path d="M56.7 1152.6h.7v-.7h-.7v.7Z" class="ga_70"/>
<path d="M57.4 1152.6H207.9v-.7H57.4v.7Z" class="ga_70"/>
<path d="M207.9 1151.9h.7v-45.3h-.7v45.3Z" class="ga_70"/>
<path d="M207.9 1152.6h.7v-.7h-.7v.7Z" class="ga_70"/>
<path d="M208.6 1152.6H414.2v-.7H208.6v.7Z" class="ga_70"/>
<path d="M414.1 1151.9h.8v-45.3h-.8v45.3Z" class="ga_70"/>
<path d="M414.1 1152.6h.8v-.7h-.8v.7Z" class="ga_70"/>
<path d="M414.9 1152.6h288v-.7h-288v.7Z" class="ga_70"/>
<path d="M702.9 1151.9h.7v-45.3h-.7v45.3Z" class="ga_70"/>
<path d="M702.9 1152.6h.7v-.7h-.7v.7Z" class="ga_70"/>
<path d="M703.6 1152.6H861.9v-.7H703.6v.7Z" class="ga_70"/>
<path d="M861.9 1151.9h.7v-45.3h-.7v45.3Z" class="ga_70"/>
<path d="M861.9 1152.6h.7v-.7h-.7v.7Z" class="ga_70"/>
<path d="M861.9 1152.6h.7v-.7h-.7v.7Z" class="ga_70"/>
<path d="M64.6 471.2l-.5 -.1l-.6 -.2l-.5 -.3l-.4 -.3l-.4 -.5l-.2 -.2l-.1 -.2l-.1 -.3v-.3l-.1 -.5v-13l.1 -.6l.1 -.5l.3 -.5l.4 -.4l.4 -.4l.5 -.3l.6 -.1l.5 -.1H98.3l.6 .1h.2l.3 .1l.5 .3l.5 .4l.3 .4l.3 .5l.2 .5l.1 .6v13l-.1 .2v.3l-.1 .3l-.1 .3l-.1 .2l-.2 .2l-.3 .5l-.5 .3l-.5 .3l-.3 .1l-.2 .1h-.3l-.3 .1Z" class="gs_70"/>
</svg>