<?xml version="1.0" encoding="UTF-8" standalone="no"?>
<!DOCTYPE svg PUBLIC "-//W3C//DTD SVG 1.1//EN"
"http://www.w3.org/Graphics/SVG/1.1/DTD/svg11.dtd">
<svg viewBox="0 0 909 1286" version="1.1" xmlns="http://www.w3.org/2000/svg" xmlns:xlink="http://www.w3.org/1999/xlink">
<defs>
<clipPath id="c0_3"><path d="M-.2 1286.6v-57.8h910v57.8Z"/></clipPath>
<style type="text/css"><![CDATA[
.g0_3{
fill: #CFC;
}
.g1_3{
fill: none;
stroke: #000;
stroke-width: 1.245;
stroke-linecap: square;
stroke-miterlimit: 10;
}
.g2_3{
fill: none;
stroke: #00F;
stroke-width: 1.245;
stroke-linecap: square;
stroke-miterlimit: 10;
}
.g3_3{
fill: #000;
}
.g4_3{
fill: none;
stroke: #000;
stroke-width: 1.099;
stroke-linecap: square;
stroke-miterlimit: 10;
}
.g5_3{
fill: #70AD47;
}
.g6_3{
fill: #CFF;
}
.g7_3{
fill: none;
stroke: #000;
stroke-width: 0.964;
stroke-linecap: square;
stroke-miterlimit: 10;
}
.g8_3{
fill: none;
stroke: #F00;
stroke-width: 0.964;
stroke-linecap: square;
stroke-miterlimit: 10;
}
.g9_3{
fill: #FFC;
}
.ga_3{
fill: none;
stroke: #000;
stroke-width: 0.962;
stroke-linecap: square;
stroke-miterlimit: 10;
}
.gb_3{
fill: none;
stroke: #F00;
stroke-width: 0.962;
stroke-linecap: square;
stroke-miterlimit: 10;
}
.gc_3{
fill: none;
stroke: #000;
stroke-width: 0.878;
stroke-linecap: square;
stroke-miterlimit: 10;
}
.gd_3{
fill: #9CF;
}
.ge_3{
fill: #C9F;
}
.gf_3{
fill: none;
stroke: #000;
stroke-width: 0.88;
stroke-linecap: square;
stroke-miterlimit: 10;
}
.gg_3{
fill: none;
stroke: #000;
stroke-width: 0.942;
stroke-linecap: square;
stroke-miterlimit: 10;
}
.gh_3{
fill: #F90;
}
]]></style>
</defs>
<image clip-path="url(#c0_3)" preserveAspectRatio="none" x="-2" y="1229" width="930" height="128" xlink:href="img/1.jpg"/>
<path fill-rule="evenodd" d="M57.4 188.6H207.9V44H57.4V188.6Z" class="g0_3"/>
<path fill-rule="evenodd" d="M65.3 128.3H200V104.5H65.3v23.8Z" class="g0_3"/>
<path d="M321.7 110.2l4.6 -2.7l2.9 5.1l-4.8 2.8Z" class="g0_3"/>
<path d="M304 158h-5.3V123.8l23 -13.6l2.7 5.2l4.8 -2.8l28.8 51l-54 .1Z" class="g0_3"/>
<path d="M282.8 113.6l-4 -2.7L303.4 67l22.9 40.5l-4.6 2.7l-23 13.6v.3Z" class="g0_3"/>
<path d="M276.2 115.3l2.6 -4.4l4 2.7l-2.5 4.4Z" class="g0_3"/>
<path d="M276.2 115.3l4.1 2.7l2.5 -4.4l15.9 10.5v39.6l-49.6 .1Z" class="g0_3"/>
<path d="M298.7 158H304v5.7h-5.3V158Z" class="g0_3"/>
<path d="M298.7 124.1v-.3M282.8 113.6l-2.5 4.4l-4.1 -2.7M304 163.7V158h-5.3m30.5 -45.4l-4.8 2.8l-2.7 -5.2m4.6 -2.7L303.4 67l-24.6 43.9l-2.6 4.4l-27.1 48.5l49.6 -.1H304l54 -.1l-28.8 -51l-2.9 -5.1" class="g1_3"/>
<path d="M326.3 107.5l-4.6 2.7l-23 13.6M278.8 110.9l4 2.7l15.9 10.5v39.6" class="g2_3"/>
<path d="M298 126l-.4 -.1l-.3 -.2l-.3 -.2l-.3 -.4l-.2 -.3l-.1 -.4v-.9l.1 -.4l.2 -.4l.3 -.3l.3 -.2l.3 -.2l.4 -.1l.5 -.1l.3 .1l.4 .1l.4 .2l.3 .2l.3 .3l.2 .4l.1 .4l.1 .5h-.1v.4l-.1 .1v.3l-.2 .3l-.2 .2v.1h-.1v.1h-.1l-.1 .1l-.1 .1l-.4 .2H299l-.2 .1h-.3v.1Z" class="g3_3"/>
<path d="M620 107.8l2.2 -1.3m0 0l5.9 11.9m0 0L631.8 97m0 0h9.1M620 118.8h22.4m-76.6 36.1l2.2 -1.3m0 0l5.8 11.9m0 0l3.7 -21.4m0 0h9.2m-21.1 21.8h22.5" class="g4_3"/>
<path d="M56.7 44h.7v-.7h-.7V44Z" class="g5_3"/>
<path d="M56.7 44h.7v-.7h-.7V44Z" class="g5_3"/>
<path d="M57.4 44H207.9v-.7H57.4V44Z" class="g5_3"/>
<path d="M207.9 44h.7v-.7h-.7V44Z" class="g5_3"/>
<path d="M208.6 44H400.2v-.7H208.6V44Z" class="g5_3"/>
<path d="M400.2 44h.8v-.7h-.8V44Z" class="g5_3"/>
<path d="M401 44H874v-.7H401V44Z" class="g5_3"/>
<path d="M873.9 44h.8v-.7h-.8V44Z" class="g5_3"/>
<path d="M873.9 44h.8v-.7h-.8V44Z" class="g5_3"/>
<path d="M56.7 188.6h.7V44h-.7V188.6Z" class="g5_3"/>
<path d="M207.9 188.6h.7V44h-.7V188.6Z" class="g5_3"/>
<path d="M400.2 188.6h.8V44h-.8V188.6Z" class="g5_3"/>
<path d="M873.9 188.6h.8V44h-.8V188.6Z" class="g5_3"/>
<path fill-rule="evenodd" d="M57.4 298.6H207.9V189.4H57.4V298.6Z" class="g0_3"/>
<path fill-rule="evenodd" d="M65.3 245.3H200V221.5H65.3v23.8Z" class="g0_3"/>
<path fill-rule="evenodd" d="M65.3 266.4H200V245.3H65.3v21.1Z" class="g0_3"/>
<path d="M249.9 274.8v-4.3h-3.8V207l115.5 67.8Z" class="g6_3"/>
<path d="M246.1 270.5h3.8v4.3h-3.8v-4.3Z" class="g6_3"/>
<path d="M249.9 274.8v-4.3h-3.8m3.8 4.3h-3.8v-4.3m0 0V207l115.5 67.8H249.9" class="g7_3"/>
<path d="M299.7 280H288.6l-1.5 11.9L284 287.2" class="g8_3"/>
<path d="M614.3 258.1l2.3 -1.3m0 0l5.8 12m0 0l3.7 -21.5m0 0h9.1" class="g4_3"/>
<path d="M56.7 189.4h.7v-.8h-.7v.8Z" class="g5_3"/>
<path d="M57.4 189.4H207.9v-.8H57.4v.8Z" class="g5_3"/>
<path d="M207.9 189.4h.7v-.8h-.7v.8Z" class="g5_3"/>
<path d="M208.6 189.4H400.2v-.8H208.6v.8Z" class="g5_3"/>
<path d="M400.2 189.4h.8v-.8h-.8v.8Z" class="g5_3"/>
<path d="M401 189.4H874v-.8H401v.8Z" class="g5_3"/>
<path d="M873.9 189.4h.8v-.8h-.8v.8Z" class="g5_3"/>
<path d="M56.7 298.6h.7V189.4h-.7V298.6Z" class="g5_3"/>
<path d="M207.9 298.6h.7V189.4h-.7V298.6Z" class="g5_3"/>
<path d="M400.2 298.6h.8V189.4h-.8V298.6Z" class="g5_3"/>
<path d="M873.9 298.6h.8V189.4h-.8V298.6Z" class="g5_3"/>
<path fill-rule="evenodd" d="M57.4 404.6H207.9V299.4H57.4V404.6Z" class="g0_3"/>
<path fill-rule="evenodd" d="M65.3 353.5H200V329.6H65.3v23.9Z" class="g0_3"/>
<path fill-rule="evenodd" d="M65.3 374.5H200v-21H65.3v21Z" class="g0_3"/>
<path d="M267.8 379.8h3.9v4.4h-3.9v-4.4Z" class="g9_3"/>
<path d="M271.7 384.2v-4.4h-3.9V316.9L339 384.2Z" class="g9_3"/>
<path d="M271.7 384.2h-3.9v-4.4m3.9 4.4v-4.4h-3.9m0 0V316.9L339 384.2H271.7" class="ga_3"/>
<path d="M319 337.6H307.8l-1.4 11.9l-3.2 -4.6" class="gb_3"/>
<path d="M614.3 364.5l2.3 -1.3m0 0l5.8 11.9m0 0l3.7 -21.5m0 0h9.1" class="g4_3"/>
<path d="M56.7 299.4h.7v-.8h-.7v.8Z" class="g5_3"/>
<path d="M57.4 299.4H207.9v-.8H57.4v.8Z" class="g5_3"/>
<path d="M207.9 299.4h.7v-.8h-.7v.8Z" class="g5_3"/>
<path d="M208.6 299.4H400.2v-.8H208.6v.8Z" class="g5_3"/>
<path d="M400.2 299.4h.8v-.8h-.8v.8Z" class="g5_3"/>
<path d="M401 299.4H874v-.8H401v.8Z" class="g5_3"/>
<path d="M873.9 299.4h.8v-.8h-.8v.8Z" class="g5_3"/>
<path d="M56.7 404.6h.7V299.4h-.7V404.6Z" class="g5_3"/>
<path d="M207.9 404.6h.7V299.4h-.7V404.6Z" class="g5_3"/>
<path d="M400.2 404.6h.8V299.4h-.8V404.6Z" class="g5_3"/>
<path d="M873.9 404.6h.8V299.4h-.8V404.6Z" class="g5_3"/>
<path fill-rule="evenodd" d="M57.4 521.4H207.9V405.3H57.4V521.4Z" class="g0_3"/>
<path fill-rule="evenodd" d="M65.3 475.4H200v-24H65.3v24Z" class="g0_3"/>
<path d="M362.8 502.8H232.4" class="gc_3"/>
<path d="M281 502.3h-1.2l-2.4 -.2l-1.1 -.1l-1.2 -.1l-2.2 -.4l-2.2 -.5l-1.1 -.3l-1.1 -.3l-2.1 -.7l-1.1 -.4l-1 -.4l-1 -.5l-1 -.5l-2 -1l-1 -.5l-1 -.6l-1.9 -1.3l-1.9 -1.3l-.9 -.7l-.8 -.8L251 490.1l-1.7 -1.6l-.9 -.9l-.8 -.9l-.8 -.9l-.7 -.9l-.8 -.9l-.7 -1l-.6 -.9l-.7 -.9l-1.2 -2l-.6 -1l-.5 -.9l-.5 -1.1l-.5 -1l-.5 -1l-.4 -1l-.4 -1.1l-.4 -1.1l-.4 -1.1l-.3 -1l-.3 -1.1l-.3 -1.1l-.3 -1.2l-.2 -1.1l-.4 -2.3l-.1 -1.2l-.1 -1.1l-.1 -1.2l-.1 -1.2v-4.8l.2 -2.4l.2 -2.4l.4 -2.2l.5 -2.3l.6 -2.2l.7 -2.2l.8 -2.1l.9 -2.1l1 -2l1.1 -2l1.2 -1.9l1.3 -1.9l1.5 -1.9l1.5 -1.8l1.7 -1.7l1.7 -1.7l1.8 -1.6l1.7 -1.4l1.9 -1.4l1.9 -1.2l2 -1.1l2 -1.1l2 -.9l2.1 -.8l2.1 -.7l2.2 -.6l2.2 -.5l2.2 -.4l2.3 -.2l2.4 -.2h4.8l1.1 .1l1.2 .1l1.1 .1l1.2 .1l2.2 .4l1.1 .2l1.1 .3l1.1 .2l1.1 .4l1.1 .3l1 .4l1.1 .4l1 .4l2 .9l1 .5l1 .6l1 .5l1 .6l1.9 1.2l.9 .7l.9 .7l.9 .7l.9 .7l.9 .8l.9 .8l.9 .9l.8 .8l1.6 1.7l1.6 1.8l.7 .9l.7 1l1.4 1.9l1.2 1.9l.6 1l.5 1l1 2l.5 1l.5 1.1l.4 1l.3 1.1l.7 2.2l.3 1.1l.3 1.1l.5 2.3l.4 2.2l.1 1.2l.1 1.2l.2 2.4v1.2l.1 1.2l-.1 1.2v1.2l-.1 1.2v.6l-.1 .6v.6l-.1 .5l-.1 1.2l-.4 2.3l-.2 1.1l-.3 1.2l-.1 .5l-.2 .6l-.3 1.1l-.3 1L326 471l-.2 .6l-.1 .2v.3l-.4 1.1l-.5 1l-.3 .5l-.1 .3l-.1 .2l-.5 1l-.5 1.1l-.5 .9l-.3 .5l-.3 .5l-1.2 2l-.7 .9l-.3 .5l-.2 .2l-.2 .2l-.7 1l-.4 .4l-.3 .5l-.4 .4l-.4 .5l-.8 .9l-.8 .9l-.8 .9l-.8 .8l-.9 .8l-.9 .8l-.5 .4l-.4 .4l-.5 .4l-.4 .4l-.9 .7l-.3 .1l-.2 .2l-.4 .4l-.9 .6l-1.9 1.3l-.6 .3l-.4 .3l-1 .5l-1 .5l-1 .5l-1 .5l-1 .5l-1 .4l-.3 .1l-.3 .1l-.5 .2l-1 .3l-1.1 .4l-1.1 .3l-.5 .1l-.6 .2l-1.1 .2l-1.1 .3l-2.2 .4L288 502l-.5 .1h-.6l-.6 .1h-.6l-1.1 .1h-2.1l-.3 .1Z" class="gd_3"/>
<path d="M282.2 407.7h-2.4l-2.4 .2l-2.3 .2l-2.2 .4l-2.2 .5l-2.2 .6l-2.1 .7l-2.1 .8l-2 .9l-2 1.1l-2 1.1l-1.9 1.2l-1.9 1.4l-1.7 1.4l-1.8 1.6l-1.7 1.7l-1.7 1.7l-1.5 1.8l-1.5 1.9l-1.3 1.9l-1.2 1.9l-1.1 2l-1 2l-.9 2.1l-.8 2.1l-.7 2.2l-.6 2.2l-.5 2.3l-.4 2.2l-.2 2.4l-.2 2.4v4.8l.1 1.2l.1 1.2l.1 1.1l.1 1.2l.4 2.3l.2 1.1l.3 1.2l.3 1.1l.3 1.1l.3 1l.4 1.1l.4 1.1l.4 1.1l.4 1l.5 1l.5 1l.5 1.1l.5 .9l.6 1l1.2 2l.7 .9l.6 .9l.7 1l.8 .9l.7 .9l.8 .9l.8 .9l.9 .9l1.7 1.6l1.8 1.6l.8 .8l.9 .7l1.9 1.3l1.9 1.3l1 .6l1 .5l2 1l1 .5l1 .5l1 .4l1.1 .4l2.1 .7l1.1 .3l1.1 .3l2.2 .5l2.2 .4l1.2 .1l1.1 .1l2.4 .2H281l1.2 .1l.3 -.1h2.1l1.1 -.1h.6l.6 -.1h.6l.5 -.1l1.2 -.1l2.2 -.4l1.1 -.3l1.1 -.2l.6 -.2l.5 -.1l1.1 -.3l1.1 -.4l1 -.3l.5 -.2l.3 -.1l.3 -.1l1 -.4l1 -.5l1 -.5l1 -.5l1 -.5l1 -.5l.4 -.3l.6 -.3l1.9 -1.3l.9 -.6l.4 -.4l.2 -.2l.3 -.1l.9 -.7l.4 -.4l.5 -.4l.4 -.4l.5 -.4l.9 -.8l.9 -.8l.8 -.8l.8 -.9l.8 -.9l.8 -.9l.4 -.5l.4 -.4l.3 -.5l.4 -.4l.7 -1l.2 -.2l.2 -.2l.3 -.5l.7 -.9l1.2 -2l.3 -.5l.3 -.5l.5 -.9l.5 -1.1l.5 -1l.1 -.2l.1 -.3l.3 -.5l.5 -1l.4 -1.1v-.3l.1 -.2l.2 -.6l.4 -1.1l.3 -1l.3 -1.1l.2 -.6l.1 -.5l.3 -1.2l.2 -1.1l.4 -2.3l.1 -1.2l.1 -.5v-.6l.1 -.6v-.6l.1 -1.2v-1.2l.1 -1.2l-.1 -1.2v-1.2l-.2 -2.4l-.1 -1.2l-.1 -1.2l-.4 -2.2l-.5 -2.3l-.3 -1.1l-.3 -1.1l-.7 -2.2l-.3 -1.1l-.4 -1l-.5 -1.1l-.5 -1l-1 -2l-.5 -1l-.6 -1L321 428.8l-1.4 -1.9l-.7 -1l-.7 -.9l-1.6 -1.8L315 421.5l-.8 -.8l-.9 -.9l-.9 -.8l-.9 -.8l-.9 -.7l-.9 -.7l-.9 -.7l-.9 -.7L306 414.2l-1 -.6l-1 -.5l-1 -.6l-1 -.5l-2 -.9l-1 -.4l-1.1 -.4l-1 -.4l-1.1 -.3l-1.1 -.4l-1.1 -.2l-1.1 -.3l-1.1 -.2l-2.2 -.4L288 408l-1.1 -.1l-1.2 -.1l-1.1 -.1h-2.4" class="gc_3"/>
<path d="M282.4 457.7l-.4 -.2l-.4 -.2l-.3 -.3l-.3 -.3l-.2 -.4l-.1 -.4l-.1 -.4l.1 -.5l.1 -.4l.2 -.4l.3 -.4l.3 -.2l.4 -.2l.4 -.1l.5 -.1l.4 .1l.4 .1l.4 .2l.3 .2l.3 .4l.2 .4l.1 .4l.1 .5l-.1 .2v.2l-.1 .4l-.1 .2l-.1 .2l-.1 .2h-.1l-.1 .1l-.3 .3l-.2 .1h-.1l-.1 .1l-.2 .1l-.2 .1h-.4Z" class="g3_3"/>
<path d="M282.8 502.4V454.8" class="gc_3"/>
<path d="M56.7 405.4h.7v-.8h-.7v.8Z" class="g5_3"/>
<path d="M57.4 405.4H207.9v-.8H57.4v.8Z" class="g5_3"/>
<path d="M207.9 405.4h.7v-.8h-.7v.8Z" class="g5_3"/>
<path d="M208.6 405.4H400.2v-.8H208.6v.8Z" class="g5_3"/>
<path d="M400.2 405.4h.8v-.8h-.8v.8Z" class="g5_3"/>
<path d="M401 405.4H874v-.8H401v.8Z" class="g5_3"/>
<path d="M873.9 405.4h.8v-.8h-.8v.8Z" class="g5_3"/>
<path d="M56.7 521.4h.7V405.3h-.7V521.4Z" class="g5_3"/>
<path d="M207.9 521.4h.7V405.3h-.7V521.4Z" class="g5_3"/>
<path d="M400.2 521.4h.8V405.3h-.8V521.4Z" class="g5_3"/>
<path d="M873.9 521.4h.8V405.3h-.8V521.4Z" class="g5_3"/>
<path fill-rule="evenodd" d="M57.4 649.9H207.9V522.1H57.4V649.9Z" class="g0_3"/>
<path fill-rule="evenodd" d="M65.3 597.8H200V574H65.3v23.8Z" class="g0_3"/>
<path d="M273.7 630.9l-1.1 -.1l-2.3 -.1l-2.3 -.3l-2.2 -.4l-2.1 -.5l-2.1 -.5l-1.1 -.4l-1 -.3l-2 -.8l-2 -.9l-1 -.5l-.9 -.5l-1.9 -1.1l-1.9 -1.2L248 622l-1.8 -1.5L244.5 619l-.8 -.8l-.8 -.8l-.9 -.9l-.7 -.8l-.8 -.9l-.7 -.9l-1.5 -1.8l-.6 -.9l-.6 -.9l-1.2 -1.9l-.6 -1l-.5 -.9l-.5 -1l-.5 -1l-.9 -2l-.4 -1l-.4 -1l-.6 -2.1l-.6 -2.2l-.3 -1.1l-.2 -1.1l-.2 -1.1l-.1 -1.1l-.2 -1.1l-.1 -1.2l-.1 -1.1v-1.2l-.1 -1.2v-1.1l.1 -2.4l.1 -2.3l.3 -2.3l.3 -2.2l.5 -2.2l.6 -2.2l.6 -2.1l.8 -2l.9 -2l1 -2l1.1 -1.9l1.2 -1.9l1.2 -1.9l1.5 -1.7l1.5 -1.8l1.6 -1.7l1.6 -1.6l1.7 -1.5l1.8 -1.5l1.8 -1.3l1.9 -1.2l1.9 -1.1l1.9 -1l2 -.8l2 -.9l2.1 -.6l2.1 -.6l2.1 -.5l2.2 -.3l2.3 -.3l2.3 -.1l2.3 -.1H276l1.2 .1h1.1l1.2 .1l1.1 .1l1.1 .2l2.2 .3l1.1 .2l1.1 .3l2.1 .6l2 .6l1 .4l1.1 .5l1.9 .8l1 .5l1 .5l.9 .5l1 .6l1.8 1.2l.9 .6l.9 .7l1.8 1.5l.8 .7l.9 .8l.8 .8l.9 .8l1.6 1.7l1.5 1.8l1.4 1.7l1.3 1.9l1.1 1.9l1.1 1.9l.5 1l.5 1l.9 2l.8 2l.3 1.1l.4 1l.5 2.2l.5 2.2l.4 2.2l.2 2.3l.2 2.3v1.2l.1 1.2l-.1 .6v1.7l-.1 .6v.6l-.1 1.1l-.1 1.2l-.1 .5v.6l-.1 .6l-.1 .5l-.2 1.1l-.2 1.1l-.3 1.1l-.5 2.2l-.4 1l-.3 1.1l-.4 1l-.2 .5l-.1 .3l-.1 .2l-.9 2l-.5 1l-.5 1l-.5 .9l-.6 1l-1.1 1.9l-.7 .9l-.6 .9l-1.4 1.8l-.8 .9l-.7 .9l-.4 .4l-.2 .2l-.2 .2l-.8 .9l-.9 .8l-.2 .2l-.2 .2l-.4 .4l-.9 .8l-.8 .7l-1.8 1.5l-.9 .6l-.9 .7l-1.8 1.2l-1 .5l-.9 .6l-1 .5l-1 .5l-1.9 .9l-.3 .1l-.2 .1l-.6 .2l-1 .4l-1 .3l-1 .4l-2.1 .5l-1.1 .3l-1.1 .2l-2.2 .4h-.6l-.5 .1l-1.1 .2H278l-.3 .1h-.5l-1.2 .1h-1.1Z" class="ge_3"/>
<path d="M229.6 584.9V586l.1 1.2v1.2l.1 1.1l.1 1.2l.2 1.1l.1 1.1l.2 1.1l.2 1.1l.3 1.1l.6 2.2l.6 2.1l.4 1l.4 1l.9 2l.5 1l.5 1l.5 .9l.6 1l1.2 1.9l.6 .9l.6 .9l1.5 1.8l.7 .9l.8 .9l.7 .8l.9 .9l.8 .8l.8 .8l1.7 1.5L248 622l1.8 1.3l1.9 1.2l1.9 1.1l.9 .5l1 .5l2 .9l2 .8l1 .3l1.1 .4l2.1 .5l2.1 .5l2.2 .4l2.3 .3l2.3 .1l1.1 .1H276l1.2 -.1h.5l.3 -.1h1.5l1.1 -.2l.5 -.1h.6l2.2 -.4l1.1 -.2l1.1 -.3l2.1 -.5l1 -.4l1 -.3l1 -.4l.6 -.2l.2 -.1l.3 -.1l1.9 -.9l1 -.5l1 -.5l.9 -.6l1 -.5l1.8 -1.2l.9 -.7l.9 -.6l1.8 -1.5l.8 -.7l.9 -.8l.4 -.4l.2 -.2l.2 -.2l.9 -.8l.8 -.9l.2 -.2l.2 -.2l.4 -.4l.7 -.9l.8 -.9l1.4 -1.8l.6 -.9l.7 -.9l1.1 -1.9l.6 -1l.5 -.9l.5 -1l.5 -1l.9 -2l.1 -.2l.1 -.3l.2 -.5l.4 -1l.3 -1.1l.4 -1l.5 -2.2l.3 -1.1l.2 -1.1l.2 -1.1l.1 -.5l.1 -.6v-.6l.1 -.5l.1 -1.2l.1 -1.1v-.6l.1 -.6v-1.7l.1 -.6l-.1 -1.2v-1.2l-.2 -2.3l-.2 -2.3l-.4 -2.2l-.5 -2.2l-.5 -2.2l-.4 -1l-.3 -1.1l-.8 -2l-.9 -2l-.5 -1l-.5 -1l-1.1 -1.9l-1.1 -1.9l-1.3 -1.9L310 555.8L308.5 554l-1.6 -1.7l-.9 -.8l-.8 -.8l-.9 -.8l-.8 -.7l-1.8 -1.5l-.9 -.7l-.9 -.6l-1.8 -1.2l-1 -.6l-.9 -.5l-1 -.5l-1 -.5l-1.9 -.8l-1.1 -.5l-1 -.4l-2 -.6l-2.1 -.6l-1.1 -.3l-1.1 -.2l-2.2 -.3l-1.1 -.2l-1.1 -.1l-1.2 -.1h-1.1l-1.2 -.1h-1.1l-2.3 .1l-2.3 .1l-2.3 .3l-2.2 .3l-2.1 .5l-2.1 .6l-2.1 .6l-2 .9l-2 .8l-1.9 1l-1.9 1.1l-1.9 1.2l-1.8 1.3l-1.8 1.5l-1.7 1.5l-1.6 1.6l-1.6 1.7l-1.5 1.8l-1.5 1.7l-1.2 1.9l-1.2 1.9l-1.1 1.9l-1 2l-.9 2l-.8 2l-.6 2.1l-.6 2.2l-.5 2.2l-.3 2.2l-.3 2.3l-.1 2.3l-.1 2.4" class="gf_3"/>
<path d="M364 587.5l-.4 -.1l-.4 -.2l-.3 -.3l-.2 -.2l-.1 -.1l-.2 -.4l-.1 -.4v-1l.1 -.4l.2 -.4l.3 -.3l.3 -.3l.4 -.2l.4 -.1h.9l.5 .1l.3 .2l.4 .3l.2 .3l.2 .4l.2 .4v1l-.1 .2l-.1 .2l-.1 .2l-.1 .2l-.1 .1v.1h-.1v.1l-.4 .3l-.2 .1h-.1v.1h-.3l-.2 .1h-.1l-.1 .1h-.2Z" class="g3_3"/>
<path d="M296.1 625.9l68.8 -41L295.6 543.6" class="gf_3"/>
<path d="M291.1 629.9l-.4 -.1l-.4 -.2l-.3 -.3l-.2 -.2l-.1 -.1l-.2 -.4l-.1 -.5v-.9l.1 -.4l.2 -.4l.3 -.3l.3 -.3l.4 -.2l.4 -.1h.9l.5 .1l.3 .2l.4 .3l.2 .3l.2 .4l.2 .4v.9l-.1 .3l-.1 .2l-.1 .2l-.1 .2l-.1 .1l-.1 .1v.1l-.4 .3l-.2 .1h-.1v.1h-.3l-.2 .1h-.2l-.2 .1Z" class="g3_3"/>
<path d="M297.8 548.1l-.4 -.2l-.4 -.2l-.4 -.3l-.1 -.1l-.2 -.2l-.1 -.4l-.2 -.4v-.9l.2 -.4l.1 -.4l.3 -.4l.4 -.3l.4 -.1l.4 -.2h.9l.4 .2l.4 .1l.3 .3l.3 .4l.2 .4l.1 .4l.1 .5l-.1 .2v.2l-.1 .2v.2l-.1 .2l-.1 .2l-.1 .2h-.1l-.1 .1l-.3 .3l-.2 .1l-.1 .1h-.1l-.2 .1l-.2 .1h-.5Z" class="g3_3"/>
<path d="M276.3 587.1l-.4 -.2l-.5 -.2l-.3 -.2l-.2 -.2l-.1 -.2l-.2 -.4l-.1 -.4v-.9l.1 -.4l.2 -.4l.3 -.3l.3 -.4l.5 -.1l.4 -.2h.9l.4 .2l.4 .1l.3 .4l.3 .3l.2 .4l.1 .4v.9l-.1 .2v.2l-.1 .2l-.1 .2l-.2 .2l-.1 .2l-.3 .2l-.2 .1l-.1 .1h-.1l-.2 .1l-.2 .1h-.5Z" class="g3_3"/>
<path d="M56.7 522.1h.7v-.7h-.7v.7Z" class="g5_3"/>
<path d="M57.4 522.1H207.9v-.7H57.4v.7Z" class="g5_3"/>
<path d="M207.9 522.1h.7v-.7h-.7v.7Z" class="g5_3"/>
<path d="M208.6 522.1H400.2v-.7H208.6v.7Z" class="g5_3"/>
<path d="M400.2 522.1h.8v-.7h-.8v.7Z" class="g5_3"/>
<path d="M401 522.1H874v-.7H401v.7Z" class="g5_3"/>
<path d="M873.9 522.1h.8v-.7h-.8v.7Z" class="g5_3"/>
<path d="M56.7 649.9h.7V522.1h-.7V649.9Z" class="g5_3"/>
<path d="M207.9 649.9h.7V522.1h-.7V649.9Z" class="g5_3"/>
<path d="M400.2 649.9h.8V522.1h-.8V649.9Z" class="g5_3"/>
<path d="M873.9 649.9h.8V522.1h-.8V649.9Z" class="g5_3"/>
<path fill-rule="evenodd" d="M57.4 755.7H207.9V650.6H57.4V755.7Z" class="g0_3"/>
<path fill-rule="evenodd" d="M65.3 715H200V691.2H65.3V715Z" class="g0_3"/>
<path d="M304.7 702.2v2.9h-.5l-.5 -.2l-.4 -.2l-.3 -.3l-.3 -.4l-.2 -.4l-.2 -.4v-1l.2 -.5l.2 -.4l.3 -.3l.3 -.3l.4 -.2l.5 -.2h.9l.5 .2l.4 .2l.2 .1l.2 .2l.3 .3l.2 .4l.1 .5l.1 .5l-.1 .2v.3l-.1 .4l-.1 .2l-.1 .2l-.3 .4l-.2 .2H306v.1l-.2 .1l-.2 .1l-.3 .1l-.2 .1h-.4Z" class="g3_3"/>
<path d="M261.2 731.2l-.5 -.1l-.4 -.2l-.3 -.3l-.3 -.4l-.2 -.4l-.2 -.4v-.8l.1 -.1H264v.9l-.1 .4l-.1 .2l-.1 .2l-.3 .4l-.3 .2l-.2 .2l-.2 .1h-.1l-.3 .1l-.3 .1h-.3Z" class="g3_3"/>
<path d="M259.4 728.5v-.4l.1 -.4l.2 -.3l.3 -.2l.1 -.2l.2 -.1l.3 -.2l.3 -.1l.4 -.1h.8l.5 .1l.4 .2l.2 .2l.2 .2l.2 .2l.2 .3l.1 .4l.1 .4Z" class="g3_3"/>
<path d="M344.4 730.3l-.4 -.1l-.3 -.1l-.3 -.2l-.3 -.2l-.2 -.3l-.2 -.3l-.2 -.3v-1.3l.1 -.5l.2 -.4l.3 -.4l.4 -.3l.4 -.2l.4 -.1l.5 -.1l.5 .1h.3l.2 .1l.4 .2l.3 .3l.3 .4l.2 .4l.2 .5v1l-.2 .3l-.1 .3l-.2 .3l-.1 .1l-.1 .2l-.3 .2l-.3 .1l-.1 .1v.1h-.3l-.2 .1h-.1l-.1 .1h-.3Z" class="g3_3"/>
<path d="M304.7 728.5V705.1h.4l.2 -.1l.3 -.1l.2 -.1l.2 -.1v-.1h.2l.2 -.2l.3 -.4l.1 -.2l.1 -.2l.1 -.4v-.3l.1 -.2l-.1 -.5l-.1 -.5l-.2 -.4l-.3 -.3l-.2 -.2l-.2 -.1l-.4 -.2l-.5 -.2h-.9l-.5 .2l-.4 .2l-.3 .3l-.3 .3l-.2 .4l-.2 .5v1l.2 .4l.2 .4l.3 .4l.3 .3l.4 .2l.5 .2h.5v23.4H264l-.1 -.4l-.1 -.4l-.2 -.3l-.2 -.2l-.2 -.2l-.2 -.2l-.4 -.2l-.5 -.1h-.8l-.4 .1l-.3 .1l-.3 .2l-.8 -1.4l-.6 -1.4l-.7 -1.4l-.5 -1.4l-.6 -1.4l-.5 -1.5l-.4 -1.5l-.4 -1.5l-.4 -1.5l-.3 -1.6l-.3 -1.5l-.2 -1.6l-.1 -1.6l-.1 -1.6l-.1 -1.7v-4.1l.2 -2.6l.3 -2.4l.3 -2.4l.5 -2.4l.6 -2.3l.7 -2.3l.9 -2.1l.9 -2.2l1.1 -2.1l1.1 -2.1l1.3 -2l1.4 -2l1.5 -1.9l1.6 -1.9l1.7 -1.8l1.8 -1.8l1.8 -1.6l1.9 -1.6l2 -1.4l1.9 -1.3l2.1 -1.2l2.1 -1.1l2.1 -.9l2.1 -.9l2.3 -.7l2.2 -.6l2.3 -.5l2.4 -.4l2.4 -.3l2.4 -.2h5l1.2 .1l1.2 .1l1.2 .1l1.2 .2l2.4 .4l1.1 .2l1.2 .3l2.3 .6l2.2 .7l1 .4l1.1 .5l2.1 .9l1.1 .6l1 .5l1 .6l1 .6l2 1.3l1 .7l.9 .7l1.9 1.6l.9 .8l1 .8l.9 .9l.9 .9l1.7 1.8l1.6 1.9l1.5 1.9l1.4 2l1.2 2l1.2 2.1l.6 1l.5 1.1l.9 2.2l.8 2.1l.4 1.2l.4 1.1l.6 2.3l.5 2.4l.4 2.4l.3 2.4l.1 2.6l.1 1.2v2.9l-.1 .7v.8l-.1 1.5l-.2 1.6l-.1 1.5l-.3 1.5l-.3 1.4l-.3 1.5l-.3 1.4l-.2 .7l-.2 .7l-.5 1.4l-.1 .3l-.1 .4l-.2 .7l-.6 1.3l-.3 .7l-.3 .7l-.5 1.3l-.7 1.3l-.2 -.1h-.3l-.5 -.1l-.5 .1l-.4 .1l-.4 .2l-.4 .3l-.3 .4l-.2 .4l-.1 .5v1Z" class="g9_3"/>
<path d="M302.7 752.3l-1.2 -.1h-1.3l-2.4 -.2l-2.4 -.3l-2.4 -.3l-2.3 -.6l-2.2 -.6l-1.2 -.4l-1.1 -.3l-2.1 -.9l-2.1 -1l-1.1 -.5l-1 -.5l-2.1 -1.2l-1.9 -1.3l-2 -1.4L272 741.1l-1.8 -1.6l-.9 -.9l-.9 -.9l-.8 -.8l-.7 -.8l-1.5 -1.6l-1.3 -1.8L262.9 731l.2 -.2l.3 -.2l.3 -.4l.1 -.2l.1 -.2l.1 -.4v-.9h78.5v.3l.2 .3l.2 .3l.2 .3l.3 .2l-.7 1l-.4 .5l-.1 .1l-.1 .1l-.2 .3l-1.5 2l-1.7 1.9l-.8 1l-.3 .2l-.2 .2l-.4 .5l-1.7 1.7l-.9 .8l-.9 .7l-.9 .8l-.2 .1l-.3 .2l-.4 .4l-.9 .7l-.5 .3l-.4 .4l-1.9 1.3l-.9 .5l-.5 .3l-.3 .1l-.2 .2l-.3 .1l-.2 .2l-.5 .2l-1 .6l-.9 .4l-1 .5l-.6 .2l-.5 .3l-1 .4l-1 .4l-1.1 .3l-1 .4l-1.1 .3l-2.2 .6l-1.1 .2l-1.1 .2l-1.1 .2h-.6l-.5 .2l-1.2 .1l-1.1 .1l-2.3 .2Z" class="g9_3"/>
<path d="M304.7 728.5V702.2M262.9 731l1.2 1.7l1.3 1.8l1.5 1.6l.7 .8l.8 .8l.9 .9l.9 .9l1.8 1.6l1.9 1.6l2 1.4l1.9 1.3l2.1 1.2l1 .5l1.1 .5l2.1 1l2.1 .9l1.1 .3l1.2 .4l2.2 .6l2.3 .6l2.4 .3l2.4 .3l2.4 .2h1.3l1.2 .1h2l2.3 -.2l1.1 -.1l1.2 -.2l.5 -.1h.6l1.1 -.2l1.1 -.2l1.1 -.2l2.2 -.6l1.1 -.3l1 -.4l1.1 -.3l1 -.4l1 -.4l.5 -.3l.6 -.2l1 -.5l.9 -.4l1 -.6l.5 -.2l.2 -.2l.3 -.1l.2 -.2l.3 -.1l.5 -.3l.9 -.5l1.9 -1.3l.4 -.4l.5 -.3l.9 -.7l.4 -.4l.3 -.2l.2 -.1l.9 -.8l.9 -.7l.9 -.8l1.7 -1.7l.4 -.5l.2 -.2l.3 -.2l.8 -1l1.7 -1.9l1.5 -2l.2 -.3l.1 -.1l.1 -.1l.4 -.5l.7 -1m-38.7 -1.4H259.4m83.1 0H304.7m41.1 -2.8l.7 -1.3l.5 -1.3l.3 -.7l.3 -.7l.6 -1.3l.2 -.7l.1 -.4l.1 -.3l.5 -1.4l.2 -.7l.2 -.7l.3 -1.4l.3 -1.5l.3 -1.4l.3 -1.5l.1 -1.5l.2 -1.6l.1 -1.5V705l.1 -.7v-2.9l-.1 -1.2l-.1 -2.6l-.3 -2.4l-.4 -2.4l-.5 -2.4l-.6 -2.3l-.4 -1.1l-.4 -1.2l-.8 -2.1l-.9 -2.2l-.5 -1.1l-.6 -1l-1.2 -2.1l-1.2 -2l-1.4 -2l-1.5 -1.9l-1.6 -1.9L337 667.7l-.9 -.9l-.9 -.9l-1 -.8l-.9 -.8l-1.9 -1.6l-.9 -.7l-1 -.7l-2 -1.3l-1 -.6l-1 -.6l-1 -.5l-1.1 -.6l-2.1 -.9l-1.1 -.5l-1 -.4l-2.2 -.7l-2.3 -.6l-1.2 -.3l-1.1 -.2l-2.4 -.4l-1.2 -.2l-1.2 -.1l-1.2 -.1l-1.2 -.1h-5l-2.4 .2l-2.4 .3l-2.4 .4l-2.3 .5l-2.2 .6l-2.3 .7l-2.1 .9l-2.1 .9l-2.1 1.1l-2.1 1.2l-1.9 1.3l-2 1.4l-1.9 1.6l-1.8 1.6l-1.8 1.8l-1.7 1.8l-1.6 1.9l-1.5 1.9l-1.4 2l-1.3 2l-1.1 2.1l-1.1 2.1l-.9 2.2l-.9 2.1l-.7 2.3l-.6 2.3l-.5 2.4l-.3 2.4l-.3 2.4l-.2 2.6v4.1l.1 1.7l.1 1.6l.1 1.6l.2 1.6l.3 1.5l.3 1.6l.4 1.5l.4 1.5l.4 1.5l.5 1.5l.6 1.4l.5 1.4l.7 1.4l.6 1.4l.8 1.4" class="gg_3"/>
<path d="M56.7 650.6h.7v-.7h-.7v.7Z" class="g5_3"/>
<path d="M57.4 650.6H207.9v-.7H57.4v.7Z" class="g5_3"/>
<path d="M207.9 650.6h.7v-.7h-.7v.7Z" class="g5_3"/>
<path d="M208.6 650.6H400.2v-.7H208.6v.7Z" class="g5_3"/>
<path d="M400.2 650.6h.8v-.7h-.8v.7Z" class="g5_3"/>
<path d="M401 650.6H874v-.7H401v.7Z" class="g5_3"/>
<path d="M873.9 650.6h.8v-.7h-.8v.7Z" class="g5_3"/>
<path d="M56.7 755.7h.7V650.6h-.7V755.7Z" class="g5_3"/>
<path d="M207.9 755.7h.7V650.6h-.7V755.7Z" class="g5_3"/>
<path d="M400.2 755.7h.8V650.6h-.8V755.7Z" class="g5_3"/>
<path d="M873.9 755.7h.8V650.6h-.8V755.7Z" class="g5_3"/>
<path fill-rule="evenodd" d="M57.4 780.3H207.9V756.4H57.4v23.9Z" class="g0_3"/>
<path d="M65.3 780.3H200V756.4H65.3v23.9Z" class="g0_3"/>
<path d="M56.7 756.4h.7v-.7h-.7v.7Z" class="g5_3"/>
<path d="M57.4 756.4H207.9v-.7H57.4v.7Z" class="g5_3"/>
<path d="M207.9 756.4h.7v-.7h-.7v.7Z" class="g5_3"/>
<path d="M208.6 756.4H400.2v-.7H208.6v.7Z" class="g5_3"/>
<path d="M400.2 756.4h.8v-.7h-.8v.7Z" class="g5_3"/>
<path d="M401 756.4H874v-.7H401v.7Z" class="g5_3"/>
<path d="M873.9 756.4h.8v-.7h-.8v.7Z" class="g5_3"/>
<path d="M56.7 780.3h.7V756.4h-.7v23.9Z" class="g5_3"/>
<path d="M207.9 780.3h.7V756.4h-.7v23.9Z" class="g5_3"/>
<path d="M873.9 780.3h.8V756.4h-.8v23.9Z" class="g5_3"/>
<path fill-rule="evenodd" d="M57.4 804.8H207.9V781H57.4v23.8Z" class="g0_3"/>
<path d="M65.3 804.8H200V781H65.3v23.8Z" class="g0_3"/>
<path d="M56.7 781h.7v-.7h-.7v.7Z" class="g5_3"/>
<path d="M57.4 781H207.9v-.7H57.4v.7Z" class="g5_3"/>
<path d="M207.9 781h.7v-.7h-.7v.7Z" class="g5_3"/>
<path d="M208.6 781H874v-.7H208.6v.7Z" class="g5_3"/>
<path d="M873.9 781h.8v-.7h-.8v.7Z" class="g5_3"/>
<path d="M56.7 804.8h.7V781h-.7v23.8Z" class="g5_3"/>
<path d="M207.9 804.8h.7V781h-.7v23.8Z" class="g5_3"/>
<path d="M873.9 804.8h.8V781h-.8v23.8Z" class="g5_3"/>
<path fill-rule="evenodd" d="M57.4 829.4H207.9V805.6H57.4v23.8Z" class="g0_3"/>
<path d="M65.3 829.4H200V805.6H65.3v23.8Z" class="g0_3"/>
<path d="M56.7 805.6h.7v-.8h-.7v.8Z" class="g5_3"/>
<path d="M57.4 805.6H207.9v-.8H57.4v.8Z" class="g5_3"/>
<path d="M207.9 805.6h.7v-.8h-.7v.8Z" class="g5_3"/>
<path d="M208.6 805.6H874v-.8H208.6v.8Z" class="g5_3"/>
<path d="M873.9 805.6h.8v-.8h-.8v.8Z" class="g5_3"/>
<path d="M56.7 829.4h.7V805.6h-.7v23.8Z" class="g5_3"/>
<path d="M207.9 829.4h.7V805.6h-.7v23.8Z" class="g5_3"/>
<path d="M873.9 829.4h.8V805.6h-.8v23.8Z" class="g5_3"/>
<path fill-rule="evenodd" d="M57.4 854.1H207.9V830.3H57.4v23.8Z" class="g0_3"/>
<path d="M65.3 854.1H200V830.3H65.3v23.8Z" class="g0_3"/>
<path d="M56.7 830.1h.7v-.7h-.7v.7Z" class="g5_3"/>
<path d="M57.4 830.1H207.9v-.7H57.4v.7Z" class="g5_3"/>
<path d="M207.9 830.1h.7v-.7h-.7v.7Z" class="g5_3"/>
<path d="M208.6 830.1H874v-.7H208.6v.7Z" class="g5_3"/>
<path d="M873.9 830.1h.8v-.7h-.8v.7Z" class="g5_3"/>
<path d="M56.7 854.1h.7v-24h-.7v24Z" class="g5_3"/>
<path d="M56.7 854.9h.7v-.8h-.7v.8Z" class="g5_3"/>
<path d="M56.7 854.9h.7v-.8h-.7v.8Z" class="g5_3"/>
<path d="M57.4 854.9H207.9v-.8H57.4v.8Z" class="g5_3"/>
<path d="M207.9 854.1h.7v-24h-.7v24Z" class="g5_3"/>
<path d="M207.9 854.9h.7v-.8h-.7v.8Z" class="g5_3"/>
<path d="M208.6 854.9H874v-.8H208.6v.8Z" class="g5_3"/>
<path d="M873.9 854.1h.8v-24h-.8v24Z" class="g5_3"/>
<path d="M873.9 854.9h.8v-.8h-.8v.8Z" class="g5_3"/>
<path d="M873.9 854.9h.8v-.8h-.8v.8Z" class="g5_3"/>
<path d="M75.2 880.3l-.9 -.1l-.8 -.3l-.8 -.4l-.6 -.5l-.3 -.4l-.3 -.3l-.3 -.7l-.3 -.8V862.4l.3 -.8l.3 -.7l.6 -.7l.6 -.6l.8 -.3l.8 -.3H88.5l.4 .1l.4 .2l.7 .3l.3 .3l.4 .3l.6 .7l.4 .7l.2 .8l.1 .9v13l-.1 .1v.4l-.2 .8l-.2 .3l-.2 .2v.2l-.3 .3l-.2 .2l-.1 .1v.1l-.4 .2l-.3 .3l-.2 .1l-.2 .1l-.3 .2l-.4 .2h-.2l-.2 .1h-.4l-.4 .1Z" class="gh_3"/>
</svg>