<?xml version="1.0" encoding="UTF-8" standalone="no"?>
<!DOCTYPE svg PUBLIC "-//W3C//DTD SVG 1.1//EN"
"http://www.w3.org/Graphics/SVG/1.1/DTD/svg11.dtd">
<svg viewBox="0 0 909 1286" version="1.1" xmlns="http://www.w3.org/2000/svg" xmlns:xlink="http://www.w3.org/1999/xlink">
<defs>
<clipPath id="c0_3"><path d="M-.2 1286.6v-74.9h910v74.9Z"/></clipPath>
<style type="text/css"><![CDATA[
.g0_3{
fill: #000;
}
.g1_3{
fill: none;
stroke: #000;
stroke-width: 0.909;
stroke-linecap: round;
stroke-miterlimit: 8;
}
.g2_3{
fill: none;
stroke: #000;
stroke-width: 0.606;
stroke-linejoin: round;
stroke-dasharray: 3,2;
}
.g3_3{
fill: #DCDDDD;
}
]]></style>
</defs>
<image clip-path="url(#c0_3)" preserveAspectRatio="none" x="-4" y="1212" width="952" height="131" xlink:href="img/1.jpg"/>
<path d="M498.5 762.5h.7v-.8h-.7v.8Z" class="g0_3"/>
<path d="M498.5 762.5h.7v-.8h-.7v.8Z" class="g0_3"/>
<path d="M499.2 762.5H614.7v-.8H499.2v.8Z" class="g0_3"/>
<path d="M614.7 762.5h.7v-.8h-.7v.8Z" class="g0_3"/>
<path d="M615.4 762.5H642v-.8H615.4v.8Z" class="g0_3"/>
<path d="M642 762.5h.8v-.8H642v.8Z" class="g0_3"/>
<path d="M642.8 762.5h26.5v-.8H642.8v.8Z" class="g0_3"/>
<path d="M669.3 762.5h.8v-.8h-.8v.8Z" class="g0_3"/>
<path d="M670.1 762.5h26.7v-.8H670.1v.8Z" class="g0_3"/>
<path d="M696.8 762.5h.8v-.8h-.8v.8Z" class="g0_3"/>
<path d="M697.6 762.5h26.6v-.8H697.6v.8Z" class="g0_3"/>
<path d="M724.2 762.5h.7v-.8h-.7v.8Z" class="g0_3"/>
<path d="M724.9 762.5h26.8v-.8H724.9v.8Z" class="g0_3"/>
<path d="M751.7 762.5h.7v-.8h-.7v.8Z" class="g0_3"/>
<path d="M752.4 762.5h26.8v-.8H752.4v.8Z" class="g0_3"/>
<path d="M779.2 762.5h.7v-.8h-.7v.8Z" class="g0_3"/>
<path d="M779.9 762.5h26.6v-.8H779.9v.8Z" class="g0_3"/>
<path d="M806.5 762.5h.7v-.8h-.7v.8Z" class="g0_3"/>
<path d="M807.2 762.5H845v-.8H807.2v.8Z" class="g0_3"/>
<path d="M845 762.5h.7v-.8H845v.8Z" class="g0_3"/>
<path d="M845 762.5h.7v-.8H845v.8Z" class="g0_3"/>
<path d="M498.5 786.3h.7V762.5h-.7v23.8Z" class="g0_3"/>
<path d="M614.7 786.3h.7V762.5h-.7v23.8Z" class="g0_3"/>
<path d="M642 786.3h.8V762.5H642v23.8Z" class="g0_3"/>
<path d="M669.3 786.3h.8V762.5h-.8v23.8Z" class="g0_3"/>
<path d="M696.8 786.3h.8V762.5h-.8v23.8Z" class="g0_3"/>
<path d="M724.2 786.3h.7V762.5h-.7v23.8Z" class="g0_3"/>
<path d="M751.7 786.3h.7V762.5h-.7v23.8Z" class="g0_3"/>
<path d="M779.2 786.3h.7V762.5h-.7v23.8Z" class="g0_3"/>
<path d="M806.5 786.3h.7V762.5h-.7v23.8Z" class="g0_3"/>
<path d="M845 786.3h.7V762.5H845v23.8Z" class="g0_3"/>
<path d="M498.5 787h.7v-.7h-.7v.7Z" class="g0_3"/>
<path d="M499.2 787H614.7v-.7H499.2v.7Z" class="g0_3"/>
<path d="M614.7 787h.7v-.7h-.7v.7Z" class="g0_3"/>
<path d="M615.4 787H642v-.7H615.4v.7Z" class="g0_3"/>
<path d="M642 787h.8v-.7H642v.7Z" class="g0_3"/>
<path d="M642.8 787h26.5v-.7H642.8v.7Z" class="g0_3"/>
<path d="M669.3 787h.8v-.7h-.8v.7Z" class="g0_3"/>
<path d="M670.1 787h26.7v-.7H670.1v.7Z" class="g0_3"/>
<path d="M696.8 787h.8v-.7h-.8v.7Z" class="g0_3"/>
<path d="M697.6 787h26.6v-.7H697.6v.7Z" class="g0_3"/>
<path d="M724.2 787h.7v-.7h-.7v.7Z" class="g0_3"/>
<path d="M724.9 787h26.8v-.7H724.9v.7Z" class="g0_3"/>
<path d="M751.7 787h.7v-.7h-.7v.7Z" class="g0_3"/>
<path d="M752.4 787h26.8v-.7H752.4v.7Z" class="g0_3"/>
<path d="M779.2 787h.7v-.7h-.7v.7Z" class="g0_3"/>
<path d="M779.9 787h26.6v-.7H779.9v.7Z" class="g0_3"/>
<path d="M806.5 787h.7v-.7h-.7v.7Z" class="g0_3"/>
<path d="M807.2 787H845v-.7H807.2v.7Z" class="g0_3"/>
<path d="M845 787h.7v-.7H845v.7Z" class="g0_3"/>
<path d="M498.5 810.9h.7V787h-.7v23.9Z" class="g0_3"/>
<path d="M498.5 811.6h.7v-.7h-.7v.7Z" class="g0_3"/>
<path d="M498.5 811.6h.7v-.7h-.7v.7Z" class="g0_3"/>
<path d="M499.2 811.6H614.7v-.7H499.2v.7Z" class="g0_3"/>
<path d="M614.7 810.9h.7V787h-.7v23.9Z" class="g0_3"/>
<path d="M614.7 811.6h.7v-.7h-.7v.7Z" class="g0_3"/>
<path d="M615.4 811.6H642v-.7H615.4v.7Z" class="g0_3"/>
<path d="M642 810.9h.8V787H642v23.9Z" class="g0_3"/>
<path d="M642 811.6h.8v-.7H642v.7Z" class="g0_3"/>
<path d="M642.8 811.6h26.5v-.7H642.8v.7Z" class="g0_3"/>
<path d="M669.3 810.9h.8V787h-.8v23.9Z" class="g0_3"/>
<path d="M669.3 811.6h.8v-.7h-.8v.7Z" class="g0_3"/>
<path d="M670.1 811.6h26.7v-.7H670.1v.7Z" class="g0_3"/>
<path d="M696.8 810.9h.8V787h-.8v23.9Z" class="g0_3"/>
<path d="M696.8 811.6h.8v-.7h-.8v.7Z" class="g0_3"/>
<path d="M697.6 811.6h26.6v-.7H697.6v.7Z" class="g0_3"/>
<path d="M724.2 810.9h.7V787h-.7v23.9Z" class="g0_3"/>
<path d="M724.2 811.6h.7v-.7h-.7v.7Z" class="g0_3"/>
<path d="M724.9 811.6h26.8v-.7H724.9v.7Z" class="g0_3"/>
<path d="M751.7 810.9h.7V787h-.7v23.9Z" class="g0_3"/>
<path d="M751.7 811.6h.7v-.7h-.7v.7Z" class="g0_3"/>
<path d="M752.4 811.6h26.8v-.7H752.4v.7Z" class="g0_3"/>
<path d="M779.2 810.9h.7V787h-.7v23.9Z" class="g0_3"/>
<path d="M779.2 811.6h.7v-.7h-.7v.7Z" class="g0_3"/>
<path d="M779.9 811.6h26.6v-.7H779.9v.7Z" class="g0_3"/>
<path d="M806.5 810.9h.7V787h-.7v23.9Z" class="g0_3"/>
<path d="M806.5 811.6h.7v-.7h-.7v.7Z" class="g0_3"/>
<path d="M807.2 811.6H845v-.7H807.2v.7Z" class="g0_3"/>
<path d="M845 810.9h.7V787H845v23.9Z" class="g0_3"/>
<path d="M845 811.6h.7v-.7H845v.7Z" class="g0_3"/>
<path d="M845 811.6h.7v-.7H845v.7Z" class="g0_3"/>
<path d="M273.2 472.4h36.6v-.9H273.2v.9Z" class="g0_3"/>
<path d="M110.6 618.4h36.6v-.9H110.6v.9Z" class="g0_3"/>
<path d="M111.5 910.2h36.6v-.9H111.5v.9Z" class="g0_3"/>
<path d="M248.2 1083.7h.8v-.8h-.8v.8Z" class="g0_3"/>
<path d="M248.2 1083.7h.8v-.8h-.8v.8Z" class="g0_3"/>
<path d="M249 1083.7H394.7v-.8H249v.8Z" class="g0_3"/>
<path d="M394.7 1083.7h.7v-.8h-.7v.8Z" class="g0_3"/>
<path d="M395.4 1083.7h22.8v-.8H395.4v.8Z" class="g0_3"/>
<path d="M418.2 1083.7h.7v-.8h-.7v.8Z" class="g0_3"/>
<path d="M418.9 1083.7h22.8v-.8H418.9v.8Z" class="g0_3"/>
<path d="M441.6 1083.7h.8v-.8h-.8v.8Z" class="g0_3"/>
<path d="M442.4 1083.7h22.7v-.8H442.4v.8Z" class="g0_3"/>
<path d="M465.1 1083.7h.8v-.8h-.8v.8Z" class="g0_3"/>
<path d="M465.9 1083.7h22.7v-.8H465.9v.8Z" class="g0_3"/>
<path d="M488.6 1083.7h.7v-.8h-.7v.8Z" class="g0_3"/>
<path d="M489.3 1083.7h22.8v-.8H489.3v.8Z" class="g0_3"/>
<path d="M512.1 1083.7h.7v-.8h-.7v.8Z" class="g0_3"/>
<path d="M512.8 1083.7h22.7v-.8H512.8v.8Z" class="g0_3"/>
<path d="M535.5 1083.7h.8v-.8h-.8v.8Z" class="g0_3"/>
<path d="M536.3 1083.7H559v-.8H536.3v.8Z" class="g0_3"/>
<path d="M559 1083.7h.7v-.8H559v.8Z" class="g0_3"/>
<path d="M559.7 1083.7h22.7v-.8H559.7v.8Z" class="g0_3"/>
<path d="M582.4 1083.7h.8v-.8h-.8v.8Z" class="g0_3"/>
<path d="M583.2 1083.7h22.7v-.8H583.2v.8Z" class="g0_3"/>
<path d="M605.9 1083.7h.8v-.8h-.8v.8Z" class="g0_3"/>
<path d="M606.6 1083.7h22.8v-.8H606.6v.8Z" class="g0_3"/>
<path d="M629.4 1083.7h.7v-.8h-.7v.8Z" class="g0_3"/>
<path d="M630.1 1083.7h22.8v-.8H630.1v.8Z" class="g0_3"/>
<path d="M652.9 1083.7h.7v-.8h-.7v.8Z" class="g0_3"/>
<path d="M652.9 1083.7h.7v-.8h-.7v.8Z" class="g0_3"/>
<path d="M248.2 1107.5h.8v-23.8h-.8v23.8Z" class="g0_3"/>
<path d="M394.7 1107.5h.7v-23.8h-.7v23.8Z" class="g0_3"/>
<path d="M418.2 1107.5h.7v-23.8h-.7v23.8Z" class="g0_3"/>
<path d="M441.6 1107.5h.8v-23.8h-.8v23.8Z" class="g0_3"/>
<path d="M465.1 1107.5h.8v-23.8h-.8v23.8Z" class="g0_3"/>
<path d="M488.6 1107.5h.7v-23.8h-.7v23.8Z" class="g0_3"/>
<path d="M512.1 1107.5h.7v-23.8h-.7v23.8Z" class="g0_3"/>
<path d="M535.5 1107.5h.8v-23.8h-.8v23.8Z" class="g0_3"/>
<path d="M559 1107.5h.7v-23.8H559v23.8Z" class="g0_3"/>
<path d="M582.4 1107.5h.8v-23.8h-.8v23.8Z" class="g0_3"/>
<path d="M605.9 1107.5h.8v-23.8h-.8v23.8Z" class="g0_3"/>
<path d="M629.4 1107.5h.7v-23.8h-.7v23.8Z" class="g0_3"/>
<path d="M652.9 1107.5h.7v-23.8h-.7v23.8Z" class="g0_3"/>
<path d="M248.2 1108.2h.8v-.7h-.8v.7Z" class="g0_3"/>
<path d="M249 1108.2H394.7v-.7H249v.7Z" class="g0_3"/>
<path d="M394.7 1108.2h.7v-.7h-.7v.7Z" class="g0_3"/>
<path d="M395.4 1108.2h22.8v-.7H395.4v.7Z" class="g0_3"/>
<path d="M418.2 1108.2h.7v-.7h-.7v.7Z" class="g0_3"/>
<path d="M418.9 1108.2h22.8v-.7H418.9v.7Z" class="g0_3"/>
<path d="M441.6 1108.2h.8v-.7h-.8v.7Z" class="g0_3"/>
<path d="M442.4 1108.2h22.7v-.7H442.4v.7Z" class="g0_3"/>
<path d="M465.1 1108.2h.8v-.7h-.8v.7Z" class="g0_3"/>
<path d="M465.9 1108.2h22.7v-.7H465.9v.7Z" class="g0_3"/>
<path d="M488.6 1108.2h.7v-.7h-.7v.7Z" class="g0_3"/>
<path d="M489.3 1108.2h22.8v-.7H489.3v.7Z" class="g0_3"/>
<path d="M512.1 1108.2h.7v-.7h-.7v.7Z" class="g0_3"/>
<path d="M512.8 1108.2h22.7v-.7H512.8v.7Z" class="g0_3"/>
<path d="M535.5 1108.2h.8v-.7h-.8v.7Z" class="g0_3"/>
<path d="M536.3 1108.2H559v-.7H536.3v.7Z" class="g0_3"/>
<path d="M559 1108.2h.7v-.7H559v.7Z" class="g0_3"/>
<path d="M559.7 1108.2h22.7v-.7H559.7v.7Z" class="g0_3"/>
<path d="M582.4 1108.2h.8v-.7h-.8v.7Z" class="g0_3"/>
<path d="M583.2 1108.2h22.7v-.7H583.2v.7Z" class="g0_3"/>
<path d="M605.9 1108.2h.8v-.7h-.8v.7Z" class="g0_3"/>
<path d="M606.6 1108.2h22.8v-.7H606.6v.7Z" class="g0_3"/>
<path d="M629.4 1108.2h.7v-.7h-.7v.7Z" class="g0_3"/>
<path d="M630.1 1108.2h22.8v-.7H630.1v.7Z" class="g0_3"/>
<path d="M652.9 1108.2h.7v-.7h-.7v.7Z" class="g0_3"/>
<path d="M248.2 1132.1h.8v-23.9h-.8v23.9Z" class="g0_3"/>
<path d="M248.2 1132.8h.8v-.7h-.8v.7Z" class="g0_3"/>
<path d="M248.2 1132.8h.8v-.7h-.8v.7Z" class="g0_3"/>
<path d="M249 1132.8H394.7v-.7H249v.7Z" class="g0_3"/>
<path d="M394.7 1132.1h.7v-23.9h-.7v23.9Z" class="g0_3"/>
<path d="M394.7 1132.8h.7v-.7h-.7v.7Z" class="g0_3"/>
<path d="M395.4 1132.8h22.8v-.7H395.4v.7Z" class="g0_3"/>
<path d="M418.2 1132.1h.7v-23.9h-.7v23.9Z" class="g0_3"/>
<path d="M418.2 1132.8h.7v-.7h-.7v.7Z" class="g0_3"/>
<path d="M418.9 1132.8h22.8v-.7H418.9v.7Z" class="g0_3"/>
<path d="M441.6 1132.1h.8v-23.9h-.8v23.9Z" class="g0_3"/>
<path d="M441.6 1132.8h.8v-.7h-.8v.7Z" class="g0_3"/>
<path d="M442.4 1132.8h22.7v-.7H442.4v.7Z" class="g0_3"/>
<path d="M465.1 1132.1h.8v-23.9h-.8v23.9Z" class="g0_3"/>
<path d="M465.1 1132.8h.8v-.7h-.8v.7Z" class="g0_3"/>
<path d="M465.9 1132.8h22.7v-.7H465.9v.7Z" class="g0_3"/>
<path d="M488.6 1132.1h.7v-23.9h-.7v23.9Z" class="g0_3"/>
<path d="M488.6 1132.8h.7v-.7h-.7v.7Z" class="g0_3"/>
<path d="M489.3 1132.8h22.8v-.7H489.3v.7Z" class="g0_3"/>
<path d="M512.1 1132.1h.7v-23.9h-.7v23.9Z" class="g0_3"/>
<path d="M512.1 1132.8h.7v-.7h-.7v.7Z" class="g0_3"/>
<path d="M512.8 1132.8h22.7v-.7H512.8v.7Z" class="g0_3"/>
<path d="M535.5 1132.1h.8v-23.9h-.8v23.9Z" class="g0_3"/>
<path d="M535.5 1132.8h.8v-.7h-.8v.7Z" class="g0_3"/>
<path d="M536.3 1132.8H559v-.7H536.3v.7Z" class="g0_3"/>
<path d="M559 1132.1h.7v-23.9H559v23.9Z" class="g0_3"/>
<path d="M559 1132.8h.7v-.7H559v.7Z" class="g0_3"/>
<path d="M559.7 1132.8h22.7v-.7H559.7v.7Z" class="g0_3"/>
<path d="M582.4 1132.1h.8v-23.9h-.8v23.9Z" class="g0_3"/>
<path d="M582.4 1132.8h.8v-.7h-.8v.7Z" class="g0_3"/>
<path d="M583.2 1132.8h22.7v-.7H583.2v.7Z" class="g0_3"/>
<path d="M605.9 1132.1h.8v-23.9h-.8v23.9Z" class="g0_3"/>
<path d="M605.9 1132.8h.8v-.7h-.8v.7Z" class="g0_3"/>
<path d="M606.6 1132.8h22.8v-.7H606.6v.7Z" class="g0_3"/>
<path d="M629.4 1132.1h.7v-23.9h-.7v23.9Z" class="g0_3"/>
<path d="M629.4 1132.8h.7v-.7h-.7v.7Z" class="g0_3"/>
<path d="M630.1 1132.8h22.8v-.7H630.1v.7Z" class="g0_3"/>
<path d="M652.9 1132.1h.7v-23.9h-.7v23.9Z" class="g0_3"/>
<path d="M652.9 1132.8h.7v-.7h-.7v.7Z" class="g0_3"/>
<path d="M652.9 1132.8h.7v-.7h-.7v.7Z" class="g0_3"/>
<image preserveAspectRatio="none" x="43" y="90" width="57" height="56" xlink:href="img/2.jpg"/>
<image preserveAspectRatio="none" x="43" y="253" width="57" height="56" xlink:href="img/3.jpg"/>
<path d="M610.5 331.2h94V251.1h-94v80.1Z" class="g1_3"/>
<path d="M610.5 317.8h94m-94 -13.3h94m-94 -13.4h94m-94 -13.3h94m-94 -13.4h94" class="g2_3"/>
<path d="M622.4 317.8h8.4v13.4h-8.4V317.8Z" class="g3_3"/>
<path d="M622.4 331.2h8.4V317.8h-8.4v13.4Z" class="g1_3"/>
<path d="M653.3 291.1h8.5v40.1h-8.5V291.1Z" class="g3_3"/>
<path d="M653.3 331.2h8.5V291.1h-8.5v40.1Z" class="g1_3"/>
<path d="M668.7 277.8h8.5v53.4h-8.5V277.8Z" class="g3_3"/>
<path d="M668.7 331.2h8.5V277.8h-8.5v53.4Z" class="g1_3"/>
<path d="M684.2 291.1h8.5v40.1h-8.5V291.1Z" class="g3_3"/>
<path d="M684.2 331.2h8.5V291.1h-8.5v40.1Zm71.1 0h94V251.1h-94v80.1Z" class="g1_3"/>
<path d="M755.3 317.8h94m-94 -13.3h94m-94 -13.4h94m-94 -13.3h94m-94 -13.4h94" class="g2_3"/>
<path d="M782.6 264.4h8.2v66.8h-8.2V264.4Z" class="g3_3"/>
<path d="M782.6 331.2h8.2V264.4h-8.2v66.8Z" class="g1_3"/>
<path d="M798.1 317.8h8.2v13.4h-8.2V317.8Z" class="g3_3"/>
<path d="M798.1 331.2h8.2V317.8h-8.2v13.4Z" class="g1_3"/>
<path d="M813.5 291.1h8.2v40.1h-8.2V291.1Z" class="g3_3"/>
<path d="M813.5 331.2h8.2V291.1h-8.2v40.1Z" class="g1_3"/>
<path d="M829 304.5h8.2v26.7H829V304.5Z" class="g3_3"/>
<path d="M829 331.2h8.2V304.5H829v26.7Z" class="g1_3"/>
<image preserveAspectRatio="none" x="43" y="447" width="57" height="56" xlink:href="img/4.jpg"/>
<image preserveAspectRatio="none" x="43" y="619" width="57" height="56" xlink:href="img/5.jpg"/>
<image preserveAspectRatio="none" x="702" y="594" width="118" height="118" xlink:href="img/6.jpg"/>
<image preserveAspectRatio="none" x="43" y="910" width="57" height="56" xlink:href="img/7.jpg"/>
<image preserveAspectRatio="none" x="43" y="1056" width="57" height="56" xlink:href="img/8.jpg"/>
</svg>