<?xml version="1.0" encoding="UTF-8" standalone="no"?>
<!DOCTYPE svg PUBLIC "-//W3C//DTD SVG 1.1//EN"
"http://www.w3.org/Graphics/SVG/1.1/DTD/svg11.dtd">
<svg viewBox="0 0 909 1286" version="1.1" xmlns="http://www.w3.org/2000/svg" xmlns:xlink="http://www.w3.org/1999/xlink">
<defs>
<clipPath id="c0_2"><path d="M-.2 1286.6v-75.1h910v75.1Z"/></clipPath>
<clipPath id="c1_2"><path d="M689.5 230.1V157.4H840.8v72.7Z"/></clipPath>
<clipPath id="c2_2"><path d="M688.6 142.3V83.5H841.5v58.8Z"/></clipPath>
<clipPath id="c3_2"><path d="M673.1 590.9V520.6H813.2v70.3Z"/></clipPath>
<clipPath id="c4_2"><path d="M673 677.4V596H813.7v81.4Z"/></clipPath>
<clipPath id="c5_2"><path d="M622 877V837.8H811.5V877Z"/></clipPath>
<style type="text/css"><![CDATA[
.g0_2{
fill: #000;
}
.g1_2{
fill: none;
stroke: #000;
stroke-width: 0.907;
stroke-linecap: square;
stroke-miterlimit: 10;
}
]]></style>
</defs>
<image clip-path="url(#c0_2)" preserveAspectRatio="none" x="-2" y="1212" width="930" height="127" xlink:href="img/1.jpg"/>
<path d="M169.7 234.2h41.2v-.9H169.7v.9Z" class="g0_2"/>
<path d="M316.3 234.2h41.3v-.9H316.3v.9Z" class="g0_2"/>
<path d="M205.3 427.6h10.9m33.9 0h9.8" class="g1_2"/>
<path d="M181.6 757.3h55v-.9h-55v.9Z" class="g0_2"/>
<path d="M181.6 759.2h55v-.9h-55v.9Z" class="g0_2"/>
<path d="M455.9 879.5h36.6v-.9H455.9v.9Z" class="g0_2"/>
<path d="M455.9 881.4h36.6v-.9H455.9v.9Z" class="g0_2"/>
<image clip-path="url(#c1_2)" preserveAspectRatio="none" x="690" y="158" width="150" height="72" xlink:href="img/2.jpg"/>
<image clip-path="url(#c2_2)" preserveAspectRatio="none" x="689" y="84" width="152" height="58" xlink:href="img/3.jpg"/>
<image preserveAspectRatio="none" x="44" y="88" width="56" height="56" xlink:href="img/4.jpg"/>
<image preserveAspectRatio="none" x="44" y="303" width="56" height="57" xlink:href="img/5.jpg"/>
<image preserveAspectRatio="none" x="44" y="433" width="56" height="57" xlink:href="img/6.jpg"/>
<image preserveAspectRatio="none" x="44" y="541" width="56" height="56" xlink:href="img/7.jpg"/>
<image clip-path="url(#c3_2)" preserveAspectRatio="none" x="673" y="521" width="140" height="70" xlink:href="img/8.jpg"/>
<image clip-path="url(#c4_2)" preserveAspectRatio="none" x="673" y="596" width="140" height="81" xlink:href="img/9.jpg"/>
<image preserveAspectRatio="none" x="43" y="735" width="57" height="56" xlink:href="img/10.jpg"/>
<image clip-path="url(#c5_2)" preserveAspectRatio="none" x="622" y="838" width="189" height="39" xlink:href="img/11.jpg"/>
<image preserveAspectRatio="none" x="44" y="853" width="56" height="57" xlink:href="img/12.jpg"/>
</svg>