<?xml version="1.0" encoding="UTF-8" standalone="no"?>
<!DOCTYPE svg PUBLIC "-//W3C//DTD SVG 1.1//EN"
"http://www.w3.org/Graphics/SVG/1.1/DTD/svg11.dtd">
<svg viewBox="0 0 909 1286" version="1.1" xmlns="http://www.w3.org/2000/svg" xmlns:xlink="http://www.w3.org/1999/xlink">
<defs>
<clipPath id="c0_6"><path d="M-.2 1286.6v-74.9h910v74.9Z"/></clipPath>
<clipPath id="c1_6"><path d="M283.3 975.5v-98H403v98Z"/></clipPath>
<clipPath id="c2_6"><path d="M670.8 1190.5V1052.1H843.4v138.4Z"/></clipPath>
<style type="text/css"><![CDATA[
.g0_6{
fill: none;
stroke: #9FA0A0;
stroke-width: 0.919;
stroke-linecap: square;
stroke-miterlimit: 10;
}
.g1_6{
fill: #000;
}
.g2_6{
fill: none;
stroke: #000;
stroke-width: 0.919;
stroke-linecap: square;
stroke-miterlimit: 10;
}
.g3_6{
fill: none;
stroke: #000;
stroke-width: 0.763;
stroke-linecap: square;
stroke-miterlimit: 10;
}
.g4_6{
fill: none;
stroke: #000;
stroke-width: 1.527;
stroke-linecap: square;
stroke-miterlimit: 10;
}
.g5_6{
fill: none;
stroke: #000;
stroke-width: 1.099;
stroke-linecap: square;
stroke-miterlimit: 10;
}
]]></style>
</defs>
<image clip-path="url(#c0_6)" preserveAspectRatio="none" x="-4" y="1212" width="952" height="131" xlink:href="img/1.jpg"/>
<image preserveAspectRatio="none" x="116" y="878" width="127" height="97" xlink:href="img/2.jpg"/>
<image clip-path="url(#c1_6)" preserveAspectRatio="none" x="284" y="878" width="119" height="97" xlink:href="img/3.jpg"/>
<path d="M541 929.1h5.6v5.5H541v-5.5Z" class="g0_6"/>
<path d="M491.7 892.4v-.3h.6l.6 -.3l.3 -.3l.3 -.9l1.9 -6.8l.3 -.9l-.3 -.6h-1V882H503l-.6 2.5h-.3l-.3 -1l-.9 -.9l-1.9 -.3h-.9l-1.2 4.3h1.5l.9 -.3l.7 -.6l.6 -.9h.3l-1.2 4.2h-.4v-.6l-.3 -.9l-.6 -.3h-1.5l-1.2 3.4v.9l.9 .3h1.5l1.2 -.6l1 -.6l1.2 -.9h.3l-1.2 2.7Z" class="g1_6"/>
<path d="M449.4 971.1h-4.3v-.3h.9l.6 -.7l.3 -.9l1.8 -6.4l.4 -1.5l-.4 -.3l-.9 -.3v-.4h4.3l2.2 .4l.6 .3l.3 .3l.6 .6v.6l-.3 1.2l-.6 .6l-.6 .3l-1.9 .6l1.3 .7l.6 .6l.6 .6v1.5l-.6 .9l-.6 .6l-1 .7l-1.2 .3Zm-.7 -.7h.7l1.5 -.3l.9 -.6l.6 -1.2v-.9l-.3 -.9l-.6 -.6h-1.2Zm1.6 -5.2l.9 -.3h.9l.3 -.6l.6 -.6l.3 -1.2v-.6l-.3 -.6l-.6 -.3h-.9Z" class="g1_6"/>
<path d="M551.5 892.4v-.3l.6 -.3h.6l.3 -.6l.3 -.6l1.9 -6.8l.3 -.9l-.3 -.6l-1.3 -.3l.3 -.3h3.7l2.5 .3l.9 .3l.6 .6l.6 .6l.3 1l.3 1.8v1.2l-.6 1.2l-1.2 1.6l-1.5 1.2l-1.6 .6l-2.4 .3Zm4.3 -2.1l-.3 .9l.3 .3l.6 .3l.9 -.3l.9 -.6l1.2 -.9l.7 -1.3l.3 -1.5l.3 -1.5v-.9l-.3 -1l-.6 -.6l-.7 -.6l-1.2 -.3Z" class="g1_6"/>
<path d="M555.8 970.8l-1.6 -1l-.9 -1.2l-.3 -1.8l.3 -1.6l.6 -1.8l1.3 -1.2l1.5 -1.2l1.8 -.7l1.6 -.3l1.8 .3h.9l.6 -.3h.3l-.9 3.4h-.3l-.3 -1.2l-.3 -.9L561 961l-.6 -.3l-1.3 .3l-.9 .6l-1.2 1.2l-.6 1.5l-.6 1.6v2.7l.6 .9l.6 .3l1.2 .3h.9l.7 -.3l.9 -.6l.6 -.9h.6l-1.2 1.2l-.9 .9l-1 .4l-1.5 .3Z" class="g1_6"/>
<path d="M516.2 942.3V942h.9l.3 -.6l.3 -1.2v-1.3h-3l-.9 .9l-.7 1l-.3 .3v.9h.6v.3h-3V942l.9 -.3l1.2 -1.2l7.4 -8.9h.3l-.3 8.6v.9l.3 .6l.6 .3v.3Zm-1.2 -4h2.7l.3 -3.4Z" class="g1_6"/>
<path d="M552.1 934.9v-.3h.6l.6 -.3l.6 -1.2l1.9 -6.4l.3 -1.2l-.3 -.6h-1v-.4h8.6l-.6 2.8h-.3l-.3 -1.2l-.6 -.9h-3.1l-1.2 3.9l1.5 -.3l1.3 -.3l.6 -1.2h.3l-1.2 4.3h-.4v-1.5l-.6 -.4h-1.5l-1.2 3.1v1.5l.3 .3h.9v.3Z" class="g1_6"/>
<path d="M519.3 929.1h27.6m-87.1 35.2l59.5 -35.2L498.4 895.8l-38.6 68.5m38.9 -68.8l47.9 -.3v70H458.9" class="g2_6"/>
<path d="M199.4 98.6h10.8m-22.8 4.6l2.3 -1.4" class="g3_6"/>
<path d="M189.7 102.2l3.4 16.7" class="g4_6"/>
<path d="M193.5 118.9l4.5 -45m0 0h13.7M254 98.6h20.3M242 103.2l2.4 -1.4" class="g3_6"/>
<path d="M244.4 102.2l3.3 16.7" class="g4_6"/>
<path d="M248.1 118.9L252.6 74m0 0h23.2M339 98.6h10.2M327 103.2l2.3 -1.4" class="g3_6"/>
<path d="M329.3 102.2l3.4 16.7" class="g4_6"/>
<path d="M333.1 118.9l4.5 -45m0 0h13.1M166.8 152h11.1m-23.1 4.5l2.3 -1.3" class="g3_6"/>
<path d="M157.1 155.6l3.4 16.7" class="g4_6"/>
<path d="M160.9 172.3l4.5 -45m0 0h14M250.8 152h11m-23.1 4.5l2.4 -1.3" class="g3_6"/>
<path d="M241.1 155.6l3.4 16.7" class="g4_6"/>
<path d="M244.8 172.3l4.5 -45m0 0h14.1m79.1 13.2l2.4 -1.3" class="g3_6"/>
<path d="M344.9 139.5l3.4 6.2" class="g4_6"/>
<path d="M348.7 145.7l4.4 -18.3m0 0h11m-23.5 24.7h25.1m61.9 -11.6l2.4 -1.3" class="g3_6"/>
<path d="M430 139.5l3.4 6.2" class="g4_6"/>
<path d="M433.8 145.7l4.4 -18.3m0 0h11m-23.5 24.7h25" class="g3_6"/>
<path d="M140.6 638.7H109.1m84.9 0H163.5m-2 33.4H132m111.5 0H212.1m27.7 41.4l2.2 -1.3m0 0l5.9 12m0 0l3.6 -21.5m0 0h11.6m85.6 10.8l2.2 -1.3m0 0l5.9 12m0 0l3.6 -21.5m0 0H372m86.7 10.8l2.2 -1.3m0 0l5.9 12m0 0l3.6 -21.5m0 0H482m-51.2 76.8H398.6m145.2 0H513.7M277.2 812.7H244m203 0H413.8m278.5 0H662.2m60.9 11l2.2 -1.3m0 0l5.8 11.9m0 0l3.7 -21.4m0 0h18.3m51.4 -.2H773.3M334.4 846.1H304.3m10.3 147l2.2 -1.3m0 0l5.9 11.9m0 0l3.6 -21.4m0 0h18.4M422 993.1l2.2 -1.3m0 0l5.9 11.9m0 0l3.7 -21.4m0 0h18.3m-215.6 98.1H205.3m86 0H259m126.9 0h-30m112.5 0H436.2m-149.1 72.4h18.3m57.6 0h18.3" class="g5_6"/>
<image preserveAspectRatio="none" x="27" y="517" width="823" height="39" xlink:href="img/4.png"/>
<image preserveAspectRatio="none" x="44" y="106" width="56" height="56" xlink:href="img/5.jpg"/>
<image preserveAspectRatio="none" x="683" y="600" width="141" height="155" xlink:href="img/6.jpg"/>
<image preserveAspectRatio="none" x="43" y="629" width="57" height="57" xlink:href="img/7.jpg"/>
<image clip-path="url(#c2_6)" preserveAspectRatio="none" x="671" y="1052" width="172" height="138" xlink:href="img/8.jpg"/>
<image preserveAspectRatio="none" x="44" y="1070" width="56" height="57" xlink:href="img/9.jpg"/>
<path fill-rule="evenodd" d="M270.8 914.5v6H248v12.1h22.8v6l7.6 -12Z" class="g1_6"/>
<path fill-rule="evenodd" d="M430.7 914.5v6H408v12.1h22.7v6l7.6 -12Z" class="g1_6"/>
<image preserveAspectRatio="none" x="43" y="798" width="57" height="57" xlink:href="img/10.jpg"/>
</svg>