<?xml version="1.0" encoding="UTF-8" standalone="no"?>
<!DOCTYPE svg PUBLIC "-//W3C//DTD SVG 1.1//EN"
"http://www.w3.org/Graphics/SVG/1.1/DTD/svg11.dtd">
<svg viewBox="0 0 909 1286" version="1.1" xmlns="http://www.w3.org/2000/svg" xmlns:xlink="http://www.w3.org/1999/xlink">
<defs>
<clipPath id="c0_2"><path d="M-.2 1286.6v-74.9h910v74.9Z"/></clipPath>
<clipPath id="c1_2"><path d="M669.4 437.7V328.2H823.3V437.7Z"/></clipPath>
<style type="text/css"><![CDATA[
.g0_2{
fill: none;
stroke: #000;
stroke-width: 1.099;
stroke-linecap: square;
stroke-miterlimit: 10;
}
.g1_2{
fill: none;
stroke: #000;
stroke-width: 0.765;
stroke-linecap: square;
stroke-miterlimit: 10;
}
.g2_2{
fill: none;
stroke: #000;
stroke-width: 0.761;
stroke-linecap: square;
stroke-miterlimit: 10;
}
.g3_2{
fill: none;
stroke: #000;
stroke-width: 0.763;
stroke-linecap: square;
stroke-miterlimit: 10;
}
.g4_2{
fill: none;
stroke: #000;
stroke-width: 1.527;
stroke-linecap: square;
stroke-miterlimit: 10;
}
]]></style>
</defs>
<image clip-path="url(#c0_2)" preserveAspectRatio="none" x="-4" y="1212" width="952" height="131" xlink:href="img/1.jpg"/>
<image clip-path="url(#c1_2)" preserveAspectRatio="none" x="670" y="329" width="153" height="108" xlink:href="img/2.jpg"/>
<path d="M270 75.2H240m84.1 0H293m85 0H346.9m148.6 0H464.4m217.2 0h-30m196.5 0h-31m-589 57.2H195.8m110.2 0H273.7m200.4 0H443.9m84.3 0H497M270 165.5H238.9m180.6 0H389.2m222.6 0H581.7m-281 33.4H269.5M371.4 327.3H340.3m83.9 0h-30m84.1 0H447.1m-158.2 57H257.8m198.9 0H426.6M292.4 417.6H262.2m308.9 0H539.9M326.5 702.2H294.4m94.3 0H358.6m124.9 0H451.4M314.6 997.3l2.2 -1.3m0 0l5.9 12m0 0l3.6 -21.5m0 0h11.6m68.2 10.8l2.2 -1.3m0 0l5.8 12m0 0l3.7 -21.5m0 0h11.6" class="g0_2"/>
<path d="M452.9 1082.5h24" class="g1_2"/>
<path d="M501.8 1082.7h22.5m24.8 0h22" class="g2_2"/>
<path d="M217.3 1145.9l2.3 -1.3" class="g3_2"/>
<path d="M219.6 1145l3.4 6.1" class="g4_2"/>
<path d="M223.4 1151.1l4.5 -18.3m0 0h10.9m83.3 13.3l2.4 -1.4" class="g3_2"/>
<path d="M324.5 1145.1l3.4 6.2" class="g4_2"/>
<path d="M328.3 1151.3l4.4 -18.5m0 0h9.9" class="g3_2"/>
<image preserveAspectRatio="none" x="755" y="153" width="120" height="118" xlink:href="img/3.jpg"/>
<image preserveAspectRatio="none" x="43" y="96" width="57" height="57" xlink:href="img/4.jpg"/>
<image preserveAspectRatio="none" x="43" y="347" width="57" height="57" xlink:href="img/5.jpg"/>
<image preserveAspectRatio="none" x="43" y="583" width="57" height="57" xlink:href="img/6.jpg"/>
<image preserveAspectRatio="none" x="715" y="752" width="135" height="97" xlink:href="img/7.jpg"/>
<image preserveAspectRatio="none" x="43" y="724" width="57" height="56" xlink:href="img/8.jpg"/>
<image preserveAspectRatio="none" x="43" y="953" width="57" height="56" xlink:href="img/9.jpg"/>
<image preserveAspectRatio="none" x="722" y="927" width="123" height="124" xlink:href="img/10.jpg"/>
<image preserveAspectRatio="none" x="43" y="1100" width="57" height="57" xlink:href="img/11.jpg"/>
<image preserveAspectRatio="none" x="699" y="1072" width="124" height="113" xlink:href="img/12.jpg"/>
</svg>