<?xml version="1.0" encoding="UTF-8" standalone="no"?>
<!DOCTYPE svg PUBLIC "-//W3C//DTD SVG 1.1//EN"
"http://www.w3.org/Graphics/SVG/1.1/DTD/svg11.dtd">
<svg viewBox="0 0 909 1286" version="1.1" xmlns="http://www.w3.org/2000/svg" xmlns:xlink="http://www.w3.org/1999/xlink">
<defs>
<clipPath id="c0_16"><path d="M-.2 1286.6v-74.9h910v74.9Z"/></clipPath>
<clipPath id="c1_16"><path d="M703 180.7V70.9H870.4V180.7Z"/></clipPath>
<clipPath id="c2_16"><path d="M535.1 900.2v-92H833.6v92Z"/></clipPath>
<style type="text/css"><![CDATA[
.g0_16{
fill: none;
stroke: #000;
stroke-width: 0.763;
stroke-linecap: square;
stroke-miterlimit: 10;
}
.g1_16{
fill: none;
stroke: #000;
stroke-width: 0.765;
stroke-linecap: square;
stroke-miterlimit: 10;
}
.g2_16{
fill: none;
stroke: #000;
stroke-width: 0.761;
stroke-linecap: square;
stroke-miterlimit: 10;
}
.g3_16{
fill: #000;
}
.g4_16{
fill: none;
stroke: #000;
stroke-width: 1.527;
stroke-linecap: square;
stroke-miterlimit: 10;
}
.g5_16{
fill: none;
stroke: #000;
stroke-width: 1.145;
stroke-linejoin: round;
}
.g6_16{
fill: none;
stroke: #000;
stroke-width: 1.145;
stroke-linecap: round;
stroke-linejoin: round;
}
.g7_16{
fill: none;
stroke: #000;
stroke-width: 0.763;
stroke-linejoin: round;
}
]]></style>
</defs>
<image clip-path="url(#c0_16)" preserveAspectRatio="none" x="-4" y="1212" width="952" height="131" xlink:href="img/1.jpg"/>
<path d="M477.8 73.9h24.9m62.2 0h24.9" class="g0_16"/>
<path d="M110.6 101.7H135m61.2 -.1h28.7M113.7 221.9H137" class="g1_16"/>
<path d="M347.4 221.7h22.3" class="g2_16"/>
<path d="M333.7 360.2H357" class="g1_16"/>
<path d="M382.6 360h24.9m25.6 .2h25.7m24.7 -.2H508M298.5 388h25.7m24.7 -.2h24.5M546 388h25.7" class="g0_16"/>
<path d="M651.4 388.1h23.3" class="g1_16"/>
<path d="M110.5 415.7h24.6m80.9 0h24.8M187.9 512h25.8m30.9 -.2h24.6" class="g0_16"/>
<path d="M125.8 670.1h36.6v-.9H125.8v.9Z" class="g3_16"/>
<path d="M177.7 720.9l2.3 -1.3" class="g0_16"/>
<path d="M180 719.9l3.4 6.2" class="g4_16"/>
<path d="M183.8 726.1l4.5 -18.5m0 0h9.8m49.4 13h11.1m35.1 .3l2.4 -1.3" class="g0_16"/>
<path d="M296.1 719.9l3.4 6.2" class="g4_16"/>
<path d="M299.8 726.1l4.5 -18.5m0 0h9.8m63.6 13.2l2.3 -1.4" class="g0_16"/>
<path d="M380 719.8l3.4 6.1" class="g4_16"/>
<path d="M383.8 725.9l4.5 -18.3m0 0h11" class="g0_16"/>
<image clip-path="url(#c1_16)" preserveAspectRatio="none" x="703" y="71" width="167" height="109" xlink:href="img/2.jpg"/>
<image preserveAspectRatio="none" x="43" y="95" width="57" height="56" xlink:href="img/3.jpg"/>
<image preserveAspectRatio="none" x="43" y="242" width="57" height="56" xlink:href="img/4.jpg"/>
<image preserveAspectRatio="none" x="724" y="216" width="124" height="121" xlink:href="img/5.jpg"/>
<image preserveAspectRatio="none" x="43" y="531" width="57" height="57" xlink:href="img/6.jpg"/>
<image preserveAspectRatio="none" x="43" y="381" width="57" height="56" xlink:href="img/7.jpg"/>
<image preserveAspectRatio="none" x="718" y="355" width="127" height="136" xlink:href="img/8.jpg"/>
<image clip-path="url(#c2_16)" preserveAspectRatio="none" x="535" y="808" width="298" height="92" xlink:href="img/9.jpg"/>
<image preserveAspectRatio="none" x="43" y="814" width="57" height="56" xlink:href="img/10.jpg"/>
<path d="M681.7 1010.5c13.7 -24.8 39.8 -40.2 68.1 -40.2c28.3 0 54.4 15.3 68.1 40.1" class="g5_16"/>
<path fill-rule="evenodd" d="M681.2 1008.8c-1 0 -1.7 .8 -1.7 1.7c0 1 .7 1.7 1.7 1.7c.9 0 1.7 -.7 1.7 -1.7c0 -.9 -.8 -1.7 -1.7 -1.7Z" class="g3_16"/>
<path fill-rule="evenodd" d="M818 1008.8c-.9 0 -1.7 .8 -1.7 1.7c0 1 .8 1.7 1.7 1.7c1 0 1.8 -.7 1.8 -1.7c0 -.9 -.8 -1.7 -1.8 -1.7Z" class="g3_16"/>
<path fill-rule="evenodd" d="M757.9 968.9c-1 0 -1.8 .8 -1.8 1.7c0 1 .8 1.8 1.8 1.8c.9 0 1.7 -.8 1.7 -1.8c0 -.9 -.8 -1.7 -1.7 -1.7Z" class="g3_16"/>
<path fill-rule="evenodd" d="M790.7 980.1c-1 0 -1.8 .7 -1.8 1.7c0 .9 .8 1.7 1.8 1.7c1 0 1.8 -.8 1.8 -1.7c0 -1 -.8 -1.7 -1.8 -1.7Z" class="g3_16"/>
<path fill-rule="evenodd" d="M689.3 997.4c-.9 0 -1.7 .8 -1.7 1.8c0 .9 .8 1.7 1.7 1.7c1 0 1.8 -.8 1.8 -1.7c0 -1 -.8 -1.8 -1.8 -1.8Z" class="g3_16"/>
<image preserveAspectRatio="none" x="43" y="968" width="57" height="57" xlink:href="img/11.jpg"/>
<path d="M763.8 1107.9c-14.3 0 -26 11.6 -26 25.9c0 14.4 11.7 26 26 26c14.4 0 26 -11.6 26 -26c0 -14.3 -11.6 -25.9 -26 -25.9Z" class="g6_16"/>
<path d="M745.5 1152.3l41.8 -29.2m-5 29l5.2 -28.8" class="g7_16"/>
<path d="M824.8 1101.5c-24 0 -43.3 19.3 -43.3 43.3c0 23.9 19.3 43.3 43.3 43.3c23.9 0 43.3 -19.4 43.3 -43.3c0 -24 -19.4 -43.3 -43.3 -43.3Z" class="g6_16"/>
<path d="M867.5 1152.1l-80.2 -28.6m-41.4 28.9H867.3M589.4 1096.9c0 -3.2 -6.4 -5.7 -14.3 -5.7c-7.9 0 -14.3 2.5 -14.3 5.7m120.3 0c0 -3.2 -6.4 -5.7 -14.3 -5.7c-7.9 0 -14.3 2.5 -14.3 5.7m-486 22.2c0 -3.1 -6.4 -5.7 -14.3 -5.7c-7.9 0 -14.3 2.6 -14.3 5.7" class="g7_16"/>
<image preserveAspectRatio="none" x="43" y="1111" width="57" height="56" xlink:href="img/12.jpg"/>
<image preserveAspectRatio="none" x="720" y="627" width="113" height="113" xlink:href="img/13.jpg"/>
<image preserveAspectRatio="none" x="43" y="645" width="57" height="56" xlink:href="img/14.jpg"/>
</svg>