<?xml version="1.0" encoding="UTF-8" standalone="no"?>
<!DOCTYPE svg PUBLIC "-//W3C//DTD SVG 1.1//EN"
"http://www.w3.org/Graphics/SVG/1.1/DTD/svg11.dtd">
<svg viewBox="0 0 909 1286" version="1.1" xmlns="http://www.w3.org/2000/svg" xmlns:xlink="http://www.w3.org/1999/xlink">
<defs>
<clipPath id="c0_6"><path d="M-.2 1286.6v-74.9h910v74.9Z"/></clipPath>
<clipPath id="c1_6"><path d="M474.1 731.4v-3.7h25.4v3.7Z"/></clipPath>
<clipPath id="c2_6"><path d="M728.5 558.8V443.3H843.2V558.8Z"/></clipPath>
<clipPath id="c3_6"><path d="M743.6 699.4V592.7h67.8V699.4Z"/></clipPath>
<style type="text/css"><![CDATA[
.g0_6{
fill: none;
stroke: #000;
stroke-width: 1.099;
stroke-linecap: square;
stroke-miterlimit: 10;
}
.g1_6{
fill: none;
stroke: #000;
stroke-width: 0.765;
stroke-linecap: square;
stroke-miterlimit: 10;
}
.g2_6{
fill: none;
stroke: #000;
stroke-width: 0.763;
stroke-linecap: square;
stroke-miterlimit: 10;
}
.g3_6{
fill: none;
stroke: #000;
stroke-width: 0.761;
stroke-linecap: square;
stroke-miterlimit: 10;
}
.g4_6{
fill: none;
stroke: #000;
stroke-width: 0.766;
stroke-linecap: square;
stroke-miterlimit: 10;
}
.g5_6{
fill: none;
stroke: #000;
stroke-width: 1.142;
stroke-linecap: round;
stroke-miterlimit: 8;
}
.g6_6{
fill: #000;
}
.g7_6{
fill: none;
stroke: #000;
stroke-width: 1.142;
stroke-linecap: round;
stroke-linejoin: round;
}
]]></style>
</defs>
<image clip-path="url(#c0_6)" preserveAspectRatio="none" x="-4" y="1212" width="952" height="131" xlink:href="img/1.jpg"/>
<path d="M367.2 75.2H337m466 0H770.7m86.4 0H825.9M398.2 132.4H365.9m-153 33.1H181.7m88 0H235.4" class="g0_6"/>
<path d="M455.5 452.9h24" class="g1_6"/>
<path d="M504.4 453.1h23.2" class="g2_6"/>
<path d="M635.8 452.9h23.8M149.8 503.4H173m25.8 -.2h24.1m53.8 .2h23.2" class="g1_6"/>
<path d="M325.7 503.2h24m53.9 0h23.7" class="g2_6"/>
<path d="M452.5 503.2h24m55 0h23.8" class="g1_6"/>
<path d="M580.5 503.2h24M299.1 605.9h23.7" class="g2_6"/>
<path d="M418.8 605.9h24.1" class="g1_6"/>
<path d="M504.4 606.1h22.5" class="g3_6"/>
<path d="M551.7 605.9h24.1" class="g1_6"/>
<path d="M619 605.2h23.7" class="g2_6"/>
<path d="M110.6 632.1h23.5" class="g1_6"/>
<path d="M214.5 632.3H237" class="g3_6"/>
<image clip-path="url(#c1_6)" preserveAspectRatio="none" x="474" y="728" width="25" height="3" xlink:href="img/2.jpg"/>
<path d="M562.3 729.8h25.2" class="g2_6"/>
<path d="M612.7 729.6h24.1M263 878.4h23.7" class="g1_6"/>
<path d="M311.9 878.4h24" class="g2_6"/>
<path d="M397.5 878.6h23.2M133.5 904.8h28.7" class="g1_6"/>
<path d="M262.7 951.8h18.6" class="g4_6"/>
<path d="M337.3 951.8h29.5" class="g2_6"/>
<path d="M501.4 1025.7h23.8" class="g1_6"/>
<path d="M568.7 1025.9h25.2" class="g2_6"/>
<path d="M619.2 1025.7h23.7m-532.3 26.2h23.7m61.9 0h24.1m61.5 .2H305" class="g1_6"/>
<path d="M385.8 1052.1H411m-148.3 46.7h27.4m54.6 0h29.4" class="g2_6"/>
<path d="M758.3 182.4h91.1V126.2H758.3v56.2Z" class="g5_6"/>
<path d="M757.5 155.9l-.4 -.4l-.3 -.4v-1.6l.3 -.4l.4 -.4l.8 -.3l.7 .3l.8 .4l.4 .4v1.6l-.4 .4l-.8 .4l-.7 .3Z" class="g6_6"/>
<path d="M808.2 104.5c-27.6 0 -49.9 22.3 -49.9 49.8c0 27.4 22.3 49.7 49.9 49.7c27.5 0 49.9 -22.3 49.9 -49.7c0 -27.5 -22.4 -49.8 -49.9 -49.8Z" class="g7_6"/>
<image preserveAspectRatio="none" x="43" y="95" width="57" height="56" xlink:href="img/3.jpg"/>
<image preserveAspectRatio="none" x="43" y="308" width="57" height="57" xlink:href="img/4.jpg"/>
<image preserveAspectRatio="none" x="693" y="283" width="161" height="142" xlink:href="img/5.jpg"/>
<image clip-path="url(#c2_6)" preserveAspectRatio="none" x="729" y="444" width="114" height="114" xlink:href="img/6.jpg"/>
<image preserveAspectRatio="none" x="43" y="472" width="57" height="57" xlink:href="img/7.jpg"/>
<image clip-path="url(#c3_6)" preserveAspectRatio="none" x="744" y="593" width="67" height="106" xlink:href="img/8.jpg"/>
<image preserveAspectRatio="none" x="43" y="626" width="57" height="56" xlink:href="img/9.jpg"/>
<image preserveAspectRatio="none" x="718" y="724" width="118" height="107" xlink:href="img/10.jpg"/>
<image preserveAspectRatio="none" x="43" y="748" width="57" height="57" xlink:href="img/11.jpg"/>
<image preserveAspectRatio="none" x="730" y="874" width="96" height="104" xlink:href="img/12.jpg"/>
<image preserveAspectRatio="none" x="43" y="897" width="57" height="56" xlink:href="img/13.jpg"/>
<image preserveAspectRatio="none" x="718" y="1018" width="96" height="109" xlink:href="img/14.jpg"/>
<image preserveAspectRatio="none" x="43" y="1044" width="57" height="56" xlink:href="img/15.jpg"/>
</svg>