<?xml version="1.0" encoding="UTF-8" standalone="no"?>
<!DOCTYPE svg PUBLIC "-//W3C//DTD SVG 1.1//EN"
"http://www.w3.org/Graphics/SVG/1.1/DTD/svg11.dtd">
<svg viewBox="0 0 909 1286" version="1.1" xmlns="http://www.w3.org/2000/svg" xmlns:xlink="http://www.w3.org/1999/xlink">
<defs>
<clipPath id="c0_4"><path d="M-.2 1286.6v-75.1h910v75.1Z"/></clipPath>
<style type="text/css"><![CDATA[
.g0_4{
fill: #000;
}
.g1_4{
fill: none;
stroke: #000;
stroke-width: 1.099;
stroke-linecap: square;
stroke-miterlimit: 10;
}
]]></style>
</defs>
<image clip-path="url(#c0_4)" preserveAspectRatio="none" x="-2" y="1212" width="930" height="127" xlink:href="img/1.jpg"/>
<path d="M110.5 91.1h36.6v-.9H110.5v.9Z" class="g0_4"/>
<path d="M165.5 91.1h36.6v-.9H165.5v.9Z" class="g0_4"/>
<path d="M207.1 138.9h36.6V138H207.1v.9Z" class="g0_4"/>
<path d="M298.7 138.9h36.7V138H298.7v.9Z" class="g0_4"/>
<path d="M488.2 138.9h36.7V138H488.2v.9Z" class="g0_4"/>
<path d="M616.6 138.9h36.6V138H616.6v.9Z" class="g0_4"/>
<path d="M132.7 162.7h36.7v-.9H132.7v.9Z" class="g0_4"/>
<path d="M261.1 162.7h36.6v-.9H261.1v.9Z" class="g0_4"/>
<path d="M561.6 162.7h36.6v-.9H561.6v.9Z" class="g0_4"/>
<path d="M653.2 162.7h36.7v-.9H653.2v.9Z" class="g0_4"/>
<path d="M110.6 233.8h36.6v-.9H110.6v.9Z" class="g0_4"/>
<path d="M603.3 349.2h18.3m-55.7 43.7h18.3M137.6 436.5h18.3m56.6 0h18.3m56.6 0h18.3m57.5 0h18.3" class="g1_4"/>
<path d="M678.9 528.2h36.6v-.9H678.9v.9Z" class="g0_4"/>
<path d="M474.7 552h36.7v-.9H474.7v.9Z" class="g0_4"/>
<path d="M109.1 899.7h36.7v-.9H109.1v.9Z" class="g0_4"/>
<path d="M583.5 1049.7h36.7v-.9H583.5v.9Z" class="g0_4"/>
<path d="M364.9 1073.5h36.7v-.9H364.9v.9Z" class="g0_4"/>
<path d="M364.9 1075.3h36.7v-.9H364.9v.9Z" class="g0_4"/>
<image preserveAspectRatio="none" x="43" y="89" width="57" height="56" xlink:href="img/2.jpg"/>
<image preserveAspectRatio="none" x="43" y="232" width="57" height="56" xlink:href="img/3.jpg"/>
<image preserveAspectRatio="none" x="43" y="359" width="57" height="56" xlink:href="img/4.jpg"/>
<image preserveAspectRatio="none" x="43" y="526" width="57" height="57" xlink:href="img/5.jpg"/>
<image preserveAspectRatio="none" x="43" y="755" width="57" height="56" xlink:href="img/6.jpg"/>
<image preserveAspectRatio="none" x="445" y="740" width="404" height="109" xlink:href="img/7.jpg"/>
<image preserveAspectRatio="none" x="43" y="898" width="57" height="56" xlink:href="img/8.jpg"/>
<image preserveAspectRatio="none" x="43" y="1047" width="57" height="56" xlink:href="img/9.jpg"/>
</svg>