<?xml version="1.0" encoding="UTF-8" standalone="no"?>
<!DOCTYPE svg PUBLIC "-//W3C//DTD SVG 1.1//EN"
"http://www.w3.org/Graphics/SVG/1.1/DTD/svg11.dtd">
<svg viewBox="0 0 909 1286" version="1.1" xmlns="http://www.w3.org/2000/svg" xmlns:xlink="http://www.w3.org/1999/xlink">
<defs>
<clipPath id="c0_44"><path d="M-.2 1286.6v-57.8h910v57.8Z"/></clipPath>
<clipPath id="c1_44"><path d="M-.2 151.6V-.2h910V151.6Z"/></clipPath>
<clipPath id="c2_44"><path d="M22.5 202.8V153H909.8v49.8Z"/></clipPath>
<style type="text/css"><![CDATA[
.g0_44{
fill: #CFC;
}
.g1_44{
fill: #70AD47;
}
.g2_44{
fill: #FCF;
}
.g3_44{
fill: none;
stroke: #000;
stroke-width: 1.241;
stroke-linecap: square;
stroke-miterlimit: 10;
}
.g4_44{
fill: #000;
}
.g5_44{
fill: none;
stroke: #000;
stroke-width: 1.246;
stroke-linecap: square;
stroke-miterlimit: 10;
}
.g6_44{
fill: none;
stroke: #000;
stroke-width: 1.25;
stroke-linecap: square;
stroke-miterlimit: 10;
}
.g7_44{
fill: #6C3;
}
.g8_44{
fill: #F90;
}
]]></style>
</defs>
<image clip-path="url(#c0_44)" preserveAspectRatio="none" x="-2" y="1229" width="930" height="128" xlink:href="img/1.jpg"/>
<path fill-rule="evenodd" d="M57.4 570.2H200V542.7H57.4v27.5Z" class="g0_44"/>
<path d="M65.3 570.2H192.1V542.7H65.3v27.5Z" class="g0_44"/>
<path fill-rule="evenodd" d="M200.7 570.2H530.9V542.7H200.7v27.5Z" class="g0_44"/>
<path d="M208.6 570.2H523V542.7H208.6v27.5Z" class="g0_44"/>
<path fill-rule="evenodd" d="M531.7 570.2H861.9V542.7H531.7v27.5Z" class="g0_44"/>
<path d="M539.6 570.2H854V542.7H539.6v27.5Z" class="g0_44"/>
<path d="M56.7 542.7h.7v-.8h-.7v.8Z" class="g1_44"/>
<path d="M56.7 542.7h.7v-.8h-.7v.8Z" class="g1_44"/>
<path d="M57.4 542.7H200v-.8H57.4v.8Z" class="g1_44"/>
<path d="M200 542.7h.7v-.8H200v.8Z" class="g1_44"/>
<path d="M200.7 542.7H530.9v-.8H200.7v.8Z" class="g1_44"/>
<path d="M530.9 542.7h.8v-.8h-.8v.8Z" class="g1_44"/>
<path d="M531.7 542.7H861.9v-.8H531.7v.8Z" class="g1_44"/>
<path d="M861.9 542.7h.7v-.8h-.7v.8Z" class="g1_44"/>
<path d="M861.9 542.7h.7v-.8h-.7v.8Z" class="g1_44"/>
<path d="M56.7 570.2h.7V542.7h-.7v27.5Z" class="g1_44"/>
<path d="M200 570.2h.7V542.7H200v27.5Z" class="g1_44"/>
<path d="M530.9 570.2h.8V542.7h-.8v27.5Z" class="g1_44"/>
<path d="M861.9 570.2h.7V542.7h-.7v27.5Z" class="g1_44"/>
<path fill-rule="evenodd" d="M57.4 598.6H200V571.1H57.4v27.5Z" class="g0_44"/>
<path d="M65.3 598.6H192.1V571.1H65.3v27.5Z" class="g0_44"/>
<path fill-rule="evenodd" d="M200.7 598.6H365.4V571.1H200.7v27.5Z" class="g0_44"/>
<path d="M208.6 598.6H357.5V571.1H208.6v27.5Z" class="g0_44"/>
<path fill-rule="evenodd" d="M366.3 598.6H530.9V571.1H366.3v27.5Z" class="g0_44"/>
<path d="M374 598.6H523V571.1H374v27.5Z" class="g0_44"/>
<path fill-rule="evenodd" d="M531.7 598.6H696.3V571.1H531.7v27.5Z" class="g0_44"/>
<path d="M539.6 598.6H688.4V571.1H539.6v27.5Z" class="g0_44"/>
<path fill-rule="evenodd" d="M697.2 598.6H861.9V571.1H697.2v27.5Z" class="g0_44"/>
<path d="M704.9 598.6H854V571.1H704.9v27.5Z" class="g0_44"/>
<path d="M56.7 570.9h.7v-.7h-.7v.7Z" class="g1_44"/>
<path d="M57.4 570.9H200v-.7H57.4v.7Z" class="g1_44"/>
<path d="M200 570.9h.7v-.7H200v.7Z" class="g1_44"/>
<path d="M200.7 570.9H365.4v-.7H200.7v.7Z" class="g1_44"/>
<path d="M365.4 570.9h.7v-.7h-.7v.7Z" class="g1_44"/>
<path d="M366.1 570.9H530.9v-.7H366.1v.7Z" class="g1_44"/>
<path d="M530.9 570.9h.8v-.7h-.8v.7Z" class="g1_44"/>
<path d="M531.7 570.9H696.3v-.7H531.7v.7Z" class="g1_44"/>
<path d="M696.3 570.9h.7v-.7h-.7v.7Z" class="g1_44"/>
<path d="M697 570.9H861.9v-.7H697v.7Z" class="g1_44"/>
<path d="M861.9 570.9h.7v-.7h-.7v.7Z" class="g1_44"/>
<path d="M56.7 598.6h.7V570.9h-.7v27.7Z" class="g1_44"/>
<path d="M200 598.6h.7V570.9H200v27.7Z" class="g1_44"/>
<path d="M365.4 598.6h.7V570.9h-.7v27.7Z" class="g1_44"/>
<path d="M530.9 598.6h.8V570.9h-.8v27.7Z" class="g1_44"/>
<path d="M696.3 598.6h.7V570.9h-.7v27.7Z" class="g1_44"/>
<path d="M861.9 598.6h.7V570.9h-.7v27.7Z" class="g1_44"/>
<path fill-rule="evenodd" d="M57.4 626.8H200V599.3H57.4v27.5Z" class="g0_44"/>
<path d="M65.3 626.8H192.1V599.3H65.3v27.5Z" class="g0_44"/>
<path d="M56.7 599.3h.7v-.7h-.7v.7Z" class="g1_44"/>
<path d="M57.4 599.3H200v-.7H57.4v.7Z" class="g1_44"/>
<path d="M200 599.3h.7v-.7H200v.7Z" class="g1_44"/>
<path d="M200.7 599.3H365.4v-.7H200.7v.7Z" class="g1_44"/>
<path d="M365.4 599.3h.7v-.7h-.7v.7Z" class="g1_44"/>
<path d="M366.1 599.3H530.9v-.7H366.1v.7Z" class="g1_44"/>
<path d="M530.9 599.3h.8v-.7h-.8v.7Z" class="g1_44"/>
<path d="M531.7 599.3H696.3v-.7H531.7v.7Z" class="g1_44"/>
<path d="M696.3 599.3h.7v-.7h-.7v.7Z" class="g1_44"/>
<path d="M697 599.3H861.9v-.7H697v.7Z" class="g1_44"/>
<path d="M861.9 599.3h.7v-.7h-.7v.7Z" class="g1_44"/>
<path d="M56.7 626.8h.7V599.3h-.7v27.5Z" class="g1_44"/>
<path d="M200 626.8h.7V599.3H200v27.5Z" class="g1_44"/>
<path d="M365.4 626.8h.7V599.3h-.7v27.5Z" class="g1_44"/>
<path d="M530.9 626.8h.8V599.3h-.8v27.5Z" class="g1_44"/>
<path d="M696.3 626.8h.7V599.3h-.7v27.5Z" class="g1_44"/>
<path d="M861.9 626.8h.7V599.3h-.7v27.5Z" class="g1_44"/>
<path fill-rule="evenodd" d="M57.4 721.8H200V627.5H57.4v94.3Z" class="g0_44"/>
<path fill-rule="evenodd" d="M65.3 686.6H192.1V662.7H65.3v23.9Z" class="g0_44"/>
<path d="M247.8 717l-1.1 -.1l-1 -.3l-1 -.3l-1 -.5l-.9 -.5l-1 -.7l-.9 -.7l-.9 -.8l-.9 -1l-.9 -1l-.8 -1.1l-.9 -1.3l-.8 -1.3l-.8 -1.4l-.7 -1.5l-.8 -1.7l-.7 -1.6l-.6 -1.7l-.6 -1.7l-.6 -1.8l-.4 -1.8l-.5 -1.9l-.3 -1.8l-.4 -2l-.3 -1.9l-.3 -2l-.2 -2.1l-.1 -2.1l-.2 -2.1v-8.7l.2 -2.2l.1 -2.1l.2 -2l.3 -2l.3 -2l.4 -1.9l.3 -2l.5 -1.8l.4 -1.8l.6 -1.8l.6 -1.7l.6 -1.6l.7 -1.7l.8 -1.5l.7 -1.6l.8 -1.4l.8 -1.4l.9 -1.2l.8 -1.2l.9 -1l.9 -.9l.9 -.8l.9 -.8l1 -.6l.9 -.6l1 -.4l1 -.4l1 -.2l1.1 -.1l1.1 -.1l1 .1l1 .1l1 .2l.5 .2l.6 .2l.4 .2l.5 .2l1 .6l.9 .6l1 .8l.9 .8l.4 .4l.4 .5l.9 1l.4 .6l.5 .6l.4 .6l.4 .6l.8 1.4l.8 1.4l.8 1.6l.7 1.5l.7 1.7l.6 1.6l.6 1.7l.6 1.8l.5 1.8l.4 1.8l.4 2l.4 1.9l.3 2l.2 2l.3 2l.1 2.1l.2 2.2v2.1l.1 2.3l-.1 2.1v2.2l-.2 2.1l-.1 2.1l-.3 2.1l-.1 .9l-.1 1.1l-.3 1.9l-.4 2l-.4 1.8l-.1 .5l-.1 .2v.3l-.2 .9l-.5 1.8l-.3 .9l-.2 .4v.3l-.1 .2l-.1 .2v.2l-.2 .4l-.3 .9l-.6 1.7l-.4 .8l-.1 .2v.2l-.2 .4l-.7 1.7l-.4 .7l-.2 .4l-.1 .1l-.1 .3l-.8 1.4l-.4 .6l-.4 .7l-.4 .6l-.4 .7l-.2 .1l-.1 .1l-.2 .3l-.4 .6l-.9 1l-.2 .2l-.2 .3l-.4 .5l-.9 .8l-.5 .4l-.5 .3l-.9 .7l-1 .5l-.5 .2l-.1 .1l-.1 .1l-.2 .1l-.6 .1l-.5 .2l-1 .3l-1 .1h-.4l-.1 .1h-.5Z" class="g2_44"/>
<path d="M248.9 630.8l-1.1 .1l-1.1 .1l-1 .2l-1 .4l-1 .4l-.9 .6l-1 .6l-.9 .8l-.9 .8l-.9 .9l-.9 1l-.8 1.2l-.9 1.2l-.8 1.4l-.8 1.4l-.7 1.6l-.8 1.5l-.7 1.7l-.6 1.6l-.6 1.7l-.6 1.8l-.4 1.8l-.5 1.8l-.3 2l-.4 1.9l-.3 2l-.3 2l-.2 2l-.1 2.1l-.2 2.2v8.7l.2 2.1l.1 2.1l.2 2.1l.3 2l.3 1.9l.4 2l.3 1.8l.5 1.9l.4 1.8l.6 1.8l.6 1.7l.6 1.7l.7 1.6l.8 1.7l.7 1.5l.8 1.4l.8 1.3l.9 1.3l.8 1.1l.9 1l.9 1l.9 .8l.9 .7l1 .7l.9 .5l1 .5l1 .3l1 .3l1.1 .1l1.1 .1h.5l.1 -.1h.4l1 -.1l1 -.3l.5 -.2l.6 -.1l.2 -.1l.1 -.1l.1 -.1l.5 -.2l1 -.5l.9 -.7l.5 -.3l.5 -.4l.9 -.8l.4 -.5l.2 -.3l.2 -.2l.9 -1l.4 -.6l.2 -.3l.1 -.1l.2 -.1l.4 -.7l.4 -.6l.4 -.7l.4 -.6l.8 -1.4l.1 -.3l.1 -.1l.2 -.4l.4 -.7l.7 -1.7l.2 -.4v-.2l.1 -.2l.4 -.8l.6 -1.7l.3 -.9l.2 -.4V698l.1 -.2l.1 -.2v-.3l.2 -.4l.3 -.9l.5 -1.8l.2 -.9V693l.1 -.2l.1 -.5l.4 -1.8l.4 -2l.3 -1.9l.1 -1.1l.1 -.9l.3 -2.1l.1 -2.1l.2 -2.1v-2.2l.1 -2.1l-.1 -2.3v-2.1l-.2 -2.2l-.1 -2.1l-.3 -2l-.2 -2l-.3 -2l-.4 -1.9l-.4 -2l-.4 -1.8l-.5 -1.8l-.6 -1.8l-.6 -1.7l-.6 -1.6l-.7 -1.7l-.7 -1.5l-.8 -1.6l-.8 -1.4l-.8 -1.4l-.4 -.6l-.4 -.6l-.5 -.6l-.4 -.6l-.9 -1l-.4 -.5l-.4 -.4l-.9 -.8l-1 -.8l-.9 -.6l-1 -.6l-.5 -.2l-.4 -.2l-.6 -.2l-.5 -.2l-1 -.2l-1 -.1l-1 -.1" class="g3_44"/>
<path d="M314.7 717.2l-1.1 -.1l-1 -.3l-1 -.3l-1 -.5l-.9 -.5l-1 -.7l-.9 -.7l-1 -.9l-.8 -.9l-.9 -1.1l-.8 -1.1l-.9 -1.2l-.8 -1.3l-.8 -1.5l-.7 -1.4l-.8 -1.7l-.7 -1.6l-.6 -1.7l-.6 -1.7l-.6 -1.8l-.4 -1.8l-.5 -1.9l-.3 -1.8l-.4 -2l-.3 -2l-.3 -2l-.2 -2l-.1 -2.1l-.2 -2.1v-8.8l.2 -2.1l.1 -2.1l.2 -2.1l.3 -2l.3 -2l.4 -1.9l.3 -1.9l.5 -1.8l.4 -1.8l.6 -1.8l.6 -1.7l.6 -1.7l.7 -1.6l.8 -1.6l.7 -1.5l.8 -1.4l.8 -1.4l.9 -1.2l.8 -1.2l.9 -1l.8 -1l1 -.8l.9 -.7l1 -.6l.9 -.6l1 -.4l1 -.4l1 -.2l1.1 -.2h2.1l1 .2l1 .2l.5 .2l.6 .2l.4 .2l.5 .2l1 .6l.9 .6l1 .7l.8 .8l.5 .5l.4 .5l.9 1l.4 .6l.5 .6l.4 .6l.4 .6l.8 1.4l.8 1.4l.8 1.5l.7 1.6l.7 1.6l.6 1.7l.6 1.7l.6 1.8l.5 1.8l.4 1.8l.4 1.9l.4 1.9l.3 2l.2 2l.3 2.1l.1 2.1l.2 2.1v2.2l.1 2.2l-.1 2.2v2.2l-.2 2.1l-.1 2.1l-.3 2l-.1 1l-.1 1l-.3 2l-.4 2l-.4 1.8l-.1 .5l-.1 .2v.2l-.2 1l-.5 1.8l-.3 .9l-.2 .4v.2l-.1 .3l-.1 .2l-.1 .2l-.1 .4l-.3 .9l-.6 1.7l-.4 .8l-.1 .2v.2l-.2 .4l-.7 1.7l-.4 .7l-.2 .3l-.1 .2l-.1 .2l-.8 1.5l-.4 .6l-.4 .7l-.4 .6l-.4 .6l-.2 .2l-.1 .1l-.2 .3l-.4 .5l-.9 1.1l-.2 .2l-.2 .3l-.5 .4l-.8 .9l-.5 .3l-.5 .4l-.9 .7l-1 .5l-.5 .2l-.1 .1h-.1l-.2 .2l-.6 .1l-.5 .2l-1 .3l-1 .1h-.6l-.4 .1Z" class="g2_44"/>
<path d="M315.8 631h-1.1l-1.1 .2l-1 .2l-1 .4l-1 .4l-.9 .6l-1 .6l-.9 .7l-1 .8l-.8 1l-.9 1l-.8 1.2l-.9 1.2l-.8 1.4l-.8 1.4l-.7 1.5l-.8 1.6l-.7 1.6l-.6 1.7l-.6 1.7l-.6 1.8l-.4 1.8l-.5 1.8l-.3 1.9l-.4 1.9l-.3 2l-.3 2l-.2 2.1l-.1 2.1l-.2 2.1v8.8l.2 2.1l.1 2.1l.2 2l.3 2l.3 2l.4 2l.3 1.8l.5 1.9l.4 1.8l.6 1.8l.6 1.7l.6 1.7l.7 1.6l.8 1.7l.7 1.4l.8 1.5l.8 1.3l.9 1.2l.8 1.1l.9 1.1l.8 .9l1 .9l.9 .7l1 .7l.9 .5l1 .5l1 .3l1 .3l1.1 .1l1.1 .1l.4 -.1h.6l1 -.1l1 -.3l.5 -.2l.6 -.1l.2 -.2h.1l.1 -.1l.5 -.2l1 -.5l.9 -.7l.5 -.4l.5 -.3l.8 -.9l.5 -.4l.2 -.3l.2 -.2l.9 -1.1l.4 -.5l.2 -.3l.1 -.1l.2 -.2l.4 -.6l.4 -.6l.4 -.7l.4 -.6l.8 -1.5l.1 -.2l.1 -.2l.2 -.3l.4 -.7l.7 -1.7l.2 -.4v-.2l.1 -.2l.4 -.8l.6 -1.7l.3 -.9l.1 -.4l.1 -.2l.1 -.2l.1 -.3v-.2l.2 -.4l.3 -.9l.5 -1.8l.2 -1v-.2l.1 -.2l.1 -.5l.4 -1.8l.4 -2l.3 -2l.1 -1l.1 -1l.3 -2l.1 -2.1l.2 -2.1v-2.2l.1 -2.2l-.1 -2.2v-2.2l-.2 -2.1l-.1 -2.1l-.3 -2.1l-.2 -2l-.3 -2l-.4 -1.9l-.4 -1.9l-.4 -1.8l-.5 -1.8l-.6 -1.8l-.6 -1.7l-.6 -1.7l-.7 -1.6l-.7 -1.6l-.8 -1.5l-.8 -1.4l-.8 -1.4l-.4 -.6l-.4 -.6l-.5 -.6l-.4 -.6l-.9 -1l-.4 -.5l-.5 -.5l-.8 -.8l-1 -.7l-.9 -.6l-1 -.6l-.5 -.2l-.4 -.2l-.6 -.2l-.5 -.2l-1 -.2l-1 -.2h-1m-8.1 46.1L256.4 647.6m51.3 3.2l-50 25.7m47.5 21.8H258.3" class="g3_44"/>
<path d="M413.1 717l-1 -.1l-1 -.3l-1 -.3l-1 -.5l-1 -.5l-.9 -.7l-.9 -.7l-1 -.8l-.9 -1l-.8 -1l-.9 -1.1l-.8 -1.3l-.8 -1.3l-.8 -1.4l-.7 -1.5l-.8 -1.7l-.7 -1.6l-.6 -1.7l-.6 -1.7l-.6 -1.8l-.4 -1.8l-.5 -1.9l-.4 -1.8l-.3 -2l-.3 -1.9l-.3 -2l-.2 -2.1l-.2 -2.1l-.1 -2.1v-8.7l.1 -2.2l.2 -2.1l.2 -2l.3 -2l.3 -2l.3 -1.9l.4 -2l.5 -1.8l.4 -1.8l.6 -1.8l.6 -1.7l.6 -1.6l.7 -1.7l.8 -1.5l.7 -1.6l.8 -1.4l.8 -1.4l.8 -1.2l.9 -1.2l.8 -1l.9 -.9l1 -.8l.9 -.8l.9 -.6l1 -.6l1 -.4l1 -.4l1 -.2l1 -.1l1.1 -.1l1.1 .1l1 .1l1 .2l.5 .2l.6 .2l.4 .2l.5 .2l1 .6l.9 .6l1 .8l.8 .8l.5 .4l.4 .5l.9 1l.4 .6l.5 .6l.4 .6l.4 .6l.8 1.4l.8 1.4l.8 1.6l.7 1.5l.7 1.7l.6 1.6l.6 1.7l.5 1.8l.5 1.8l.5 1.8l.4 2l.3 1.9l.4 2l.2 2l.3 2l.1 2.1l.1 2.2l.1 2.1l.1 2.3l-.1 2.1l-.1 2.2l-.1 2.1l-.1 2.1l-.3 2.1l-.1 .9l-.1 1.1l-.4 1.9l-.3 2l-.4 1.8l-.1 .5l-.1 .2v.3l-.3 .9L432 696l-.2 .9l-.2 .4l-.1 .3v.2l-.1 .2l-.1 .2l-.1 .4l-.3 .9l-.6 1.7l-.4 .8l-.1 .2l-.1 .2l-.1 .4l-.7 1.7l-.4 .7l-.3 .4l-.1 .1v.3l-.8 1.4l-.4 .6l-.4 .7l-.4 .6l-.4 .7l-.2 .1l-.1 .1l-.2 .3l-.4 .6l-.9 1l-.2 .2l-.2 .3l-.5 .5l-.8 .8l-.5 .4l-.5 .3l-.9 .7l-1 .5l-.5 .2l-.1 .1l-.1 .1l-.2 .1l-.6 .1l-.5 .2l-1 .3l-1 .1h-.5l-.1 .1h-.5Z" class="g2_44"/>
<path d="M414.2 630.8l-1.1 .1l-1 .1l-1 .2l-1 .4l-1 .4l-1 .6l-.9 .6l-.9 .8l-1 .8l-.9 .9l-.8 1l-.9 1.2l-.8 1.2l-.8 1.4l-.8 1.4l-.7 1.6l-.8 1.5l-.7 1.7l-.6 1.6l-.6 1.7l-.6 1.8l-.4 1.8l-.5 1.8l-.4 2l-.3 1.9l-.3 2l-.3 2l-.2 2l-.2 2.1l-.1 2.2v8.7l.1 2.1l.2 2.1l.2 2.1l.3 2l.3 1.9l.3 2l.4 1.8l.5 1.9l.4 1.8l.6 1.8l.6 1.7l.6 1.7l.7 1.6l.8 1.7l.7 1.5l.8 1.4l.8 1.3l.8 1.3l.9 1.1l.8 1l.9 1l1 .8l.9 .7l.9 .7l1 .5l1 .5l1 .3l1 .3l1 .1l1.1 .1h.5l.1 -.1h.5l1 -.1l1 -.3l.5 -.2l.6 -.1l.2 -.1l.1 -.1l.1 -.1l.5 -.2l1 -.5l.9 -.7l.5 -.3l.5 -.4l.8 -.8l.5 -.5l.2 -.3l.2 -.2l.9 -1l.4 -.6l.2 -.3l.1 -.1l.2 -.1l.4 -.7l.4 -.6l.4 -.7l.4 -.6l.8 -1.4v-.3l.1 -.1l.3 -.4l.4 -.7l.7 -1.7l.1 -.4l.1 -.2l.1 -.2l.4 -.8l.6 -1.7l.3 -.9l.1 -.4l.1 -.2l.1 -.2v-.2l.1 -.3l.2 -.4l.2 -.9l.5 -1.8l.3 -.9V693l.1 -.2l.1 -.5l.4 -1.8l.3 -2l.4 -1.9l.1 -1.1l.1 -.9l.3 -2.1l.1 -2.1l.1 -2.1l.1 -2.2L435 674l-.1 -2.3l-.1 -2.1l-.1 -2.2l-.1 -2.1l-.3 -2l-.2 -2l-.4 -2l-.3 -1.9l-.4 -2l-.5 -1.8l-.5 -1.8l-.5 -1.8l-.6 -1.7l-.6 -1.6l-.7 -1.7l-.7 -1.5l-.8 -1.6l-.8 -1.4l-.8 -1.4l-.4 -.6l-.4 -.6l-.5 -.6l-.4 -.6l-.9 -1l-.4 -.5l-.5 -.4l-.8 -.8l-1 -.8l-.9 -.6l-1 -.6l-.5 -.2l-.4 -.2l-.6 -.2l-.5 -.2l-1 -.2l-1 -.1l-1.1 -.1" class="g3_44"/>
<path d="M480 717.2l-1 -.1l-1 -.3l-1 -.3l-1 -.5l-1 -.5l-.9 -.7l-.9 -.7l-1 -.9l-.9 -.9l-.8 -1.1l-.9 -1.1l-.8 -1.2l-.8 -1.3l-.8 -1.5l-.8 -1.4l-.7 -1.7l-.7 -1.6l-.6 -1.7l-.6 -1.7l-.6 -1.8l-.4 -1.8l-.5 -1.9l-.4 -1.8l-.3 -2l-.3 -2l-.3 -2l-.2 -2l-.2 -2.1l-.1 -2.1v-8.8l.1 -2.1l.2 -2.1l.2 -2.1l.3 -2l.3 -2l.3 -1.9l.4 -1.9l.5 -1.8l.4 -1.8l.6 -1.8l.6 -1.7l.6 -1.7l.7 -1.6l.7 -1.6l.8 -1.5l.8 -1.4l.8 -1.4l.8 -1.2l.9 -1.2l.8 -1l.9 -1l1 -.8l.9 -.7l.9 -.6l1 -.6l1 -.4l1 -.4l1 -.2l1 -.2h2.2l1 .2l1 .2l.5 .2l.5 .2l.5 .2l.5 .2l1 .6l.9 .6l1 .7l.8 .8l.5 .5l.4 .5l.9 1l.4 .6l.5 .6l.3 .6l.5 .6l.8 1.4l.8 1.4l.8 1.5l.7 1.6l.7 1.6l.6 1.7l.6 1.7l.5 1.8l.5 1.8l.5 1.8l.4 1.9l.3 1.9l.4 2l.2 2l.3 2.1l.1 2.1l.1 2.1l.1 2.2l.1 2.2l-.1 2.2l-.1 2.2l-.1 2.1l-.1 2.1l-.3 2l-.1 1l-.1 1l-.4 2l-.3 2l-.4 1.8l-.1 .5l-.1 .2l-.1 .2l-.2 1l-.5 1.8l-.2 .9l-.2 .4l-.1 .2v.3l-.1 .2l-.1 .2l-.1 .4l-.3 .9l-.6 1.7l-.4 .8l-.1 .2l-.1 .2l-.1 .4l-.7 1.7l-.4 .7l-.3 .3l-.1 .2v.2l-.8 1.5l-.4 .6l-.4 .7l-.5 .6l-.3 .6l-.2 .2l-.1 .1l-.2 .3l-.4 .5l-.9 1.1l-.2 .2l-.2 .3l-.5 .4l-.8 .9l-.5 .3l-.5 .4l-.9 .7l-1 .5l-.5 .2l-.1 .1h-.1l-.3 .2l-.5 .1l-.5 .2l-1 .3l-1 .1h-.6l-.5 .1Z" class="g2_44"/>
<path d="M481.1 631H480l-1 .2l-1 .2l-1 .4l-1 .4l-1 .6l-.9 .6l-.9 .7l-1 .8l-.9 1l-.8 1l-.9 1.2l-.8 1.2l-.8 1.4l-.8 1.4l-.8 1.5l-.7 1.6l-.7 1.6l-.6 1.7l-.6 1.7l-.6 1.8l-.4 1.8l-.5 1.8l-.4 1.9l-.3 1.9l-.3 2l-.3 2l-.2 2.1l-.2 2.1l-.1 2.1v8.8l.1 2.1l.2 2.1l.2 2l.3 2l.3 2l.3 2l.4 1.8l.5 1.9l.4 1.8l.6 1.8l.6 1.7l.6 1.7l.7 1.6l.7 1.7l.8 1.4l.8 1.5l.8 1.3l.8 1.2l.9 1.1l.8 1.1l.9 .9l1 .9l.9 .7l.9 .7l1 .5l1 .5l1 .3l1 .3l1 .1l1.1 .1l.5 -.1h.6l1 -.1l1 -.3l.5 -.2l.5 -.1l.3 -.2h.1l.1 -.1l.5 -.2l1 -.5l.9 -.7l.5 -.4l.5 -.3l.8 -.9l.5 -.4l.2 -.3l.2 -.2l.9 -1.1l.4 -.5l.2 -.3l.1 -.1l.2 -.2l.3 -.6l.5 -.6l.4 -.7l.4 -.6l.8 -1.5v-.2l.1 -.2l.3 -.3l.4 -.7l.7 -1.7l.1 -.4l.1 -.2l.1 -.2l.4 -.8l.6 -1.7l.3 -.9l.1 -.4l.1 -.2l.1 -.2v-.3l.1 -.2l.2 -.4l.2 -.9l.5 -1.8l.2 -1l.1 -.2l.1 -.2l.1 -.5l.4 -1.8l.3 -2l.4 -2l.1 -1l.1 -1l.3 -2l.1 -2.1l.1 -2.1l.1 -2.2l.1 -2.2l-.1 -2.2l-.1 -2.2l-.1 -2.1l-.1 -2.1l-.3 -2.1l-.2 -2l-.4 -2l-.3 -1.9l-.4 -1.9l-.5 -1.8l-.5 -1.8l-.5 -1.8l-.6 -1.7l-.6 -1.7l-.7 -1.6l-.7 -1.6l-.8 -1.5l-.8 -1.4l-.8 -1.4l-.5 -.6l-.3 -.6l-.5 -.6l-.4 -.6l-.9 -1l-.4 -.5l-.5 -.5l-.8 -.8l-1 -.7l-.9 -.6l-1 -.6l-.5 -.2l-.5 -.2l-.5 -.2l-.5 -.2l-1 -.2l-1 -.2h-1.1m-8 46.1L421.8 647.6m51.3 3.2L423 676.5m50.8 1.1l-50.2 20.7" class="g3_44"/>
<path d="M578.7 717l-1.1 -.1l-1 -.3l-1 -.3l-1 -.5l-.9 -.5l-1 -.7l-.9 -.7l-.9 -.8l-.9 -1l-.9 -1l-.8 -1.1l-.9 -1.3l-.8 -1.3l-.8 -1.4l-.7 -1.5l-.8 -1.7l-.7 -1.6l-.6 -1.7l-.6 -1.7l-.5 -1.8l-.5 -1.8l-.5 -1.9l-.3 -1.8l-.4 -2l-.3 -1.9l-.3 -2l-.2 -2.1l-.1 -2.1l-.1 -2.1l-.1 -2.2v-4.4l.1 -2.1l.1 -2.2l.1 -2.1l.2 -2l.3 -2l.3 -2l.4 -1.9l.3 -2l.5 -1.8l.5 -1.8l.5 -1.8l.6 -1.7l.6 -1.6l.7 -1.7l.8 -1.5l.7 -1.6l.8 -1.4l.8 -1.4l.9 -1.2l.8 -1.2l.9 -1l.9 -.9l.9 -.8l.9 -.8l1 -.6l.9 -.6l1 -.4l1 -.4l1 -.2l1.1 -.1l1.1 -.1l1 .1l1.1 .1l1 .2l.5 .2l.5 .2l.4 .2l.5 .2l1 .6l1 .6l.9 .8l.9 .8l.4 .4l.5 .5l.8 1l.4 .6l.5 .6l.4 .6l.4 .6l.8 1.4l.8 1.4l.8 1.6l.7 1.5l.7 1.7l.6 1.6l.6 1.7l.6 1.8l.5 1.8l.4 1.8l.5 2l.3 1.9l.3 2l.2 2l.3 2l.1 2.1l.2 2.2l.1 2.1v4.4l-.1 2.2l-.2 2.1l-.1 2.1l-.3 2.1l-.1 .9l-.1 1.1l-.3 1.9l-.3 2l-.5 1.8l-.1 .5l-.1 .2v.3l-.2 .9l-.5 1.8l-.3 .9l-.1 .4l-.1 .3l-.1 .2l-.1 .2v.2l-.2 .4l-.3 .9l-.6 1.7l-.3 .8l-.2 .2v.2l-.2 .4l-.7 1.7l-.4 .7l-.2 .4l-.1 .1l-.1 .3l-.8 1.4l-.4 .6l-.4 .7l-.4 .6l-.4 .7l-.1 .1l-.2 .1l-.2 .3l-.4 .6l-.8 1l-.3 .2l-.2 .3l-.4 .5l-.9 .8l-.5 .4l-.4 .3l-1 .7l-1 .5l-.5 .2l-.1 .1l-.1 .1l-.2 .1l-.5 .1l-.5 .2l-1 .3l-1.1 .1h-.4l-.1 .1h-.5Z" class="g2_44"/>
<path d="M579.8 630.8l-1.1 .1l-1.1 .1l-1 .2l-1 .4l-1 .4l-.9 .6l-1 .6l-.9 .8l-.9 .8l-.9 .9l-.9 1l-.8 1.2l-.9 1.2l-.8 1.4l-.8 1.4l-.7 1.6l-.8 1.5l-.7 1.7l-.6 1.6l-.6 1.7l-.5 1.8l-.5 1.8l-.5 1.8l-.3 2l-.4 1.9l-.3 2l-.3 2l-.2 2l-.1 2.1l-.1 2.2l-.1 2.1v4.4l.1 2.2l.1 2.1l.1 2.1l.2 2.1l.3 2l.3 1.9l.4 2l.3 1.8l.5 1.9l.5 1.8l.5 1.8l.6 1.7l.6 1.7l.7 1.6l.8 1.7l.7 1.5l.8 1.4l.8 1.3l.9 1.3l.8 1.1l.9 1l.9 1l.9 .8l.9 .7l1 .7l.9 .5l1 .5l1 .3l1 .3l1.1 .1l1.1 .1h.5l.1 -.1h.4l1.1 -.1l1 -.3l.5 -.2l.5 -.1l.2 -.1l.1 -.1l.1 -.1l.5 -.2l1 -.5l1 -.7l.4 -.3l.5 -.4l.9 -.8l.4 -.5l.2 -.3l.3 -.2l.8 -1l.4 -.6l.2 -.3l.2 -.1l.1 -.1l.4 -.7l.4 -.6l.4 -.7l.4 -.6l.8 -1.4l.1 -.3l.1 -.1l.2 -.4l.4 -.7l.7 -1.7l.2 -.4v-.2l.2 -.2l.3 -.8l.6 -1.7l.3 -.9l.2 -.4V698l.1 -.2l.1 -.2l.1 -.3l.1 -.4l.3 -.9l.5 -1.8l.2 -.9V693l.1 -.2l.1 -.5l.5 -1.8l.3 -2l.3 -1.9l.1 -1.1l.1 -.9l.3 -2.1l.1 -2.1l.2 -2.1l.1 -2.2v-4.4l-.1 -2.1l-.2 -2.2l-.1 -2.1l-.3 -2l-.2 -2l-.3 -2l-.3 -1.9l-.5 -2l-.4 -1.8l-.5 -1.8L597 650l-.6 -1.7l-.6 -1.6l-.7 -1.7l-.7 -1.5l-.8 -1.6l-.8 -1.4l-.8 -1.4l-.4 -.6l-.4 -.6l-.5 -.6l-.4 -.6l-.8 -1l-.5 -.5l-.4 -.4l-.9 -.8l-.9 -.8l-1 -.6l-1 -.6l-.5 -.2l-.4 -.2l-.5 -.2l-.5 -.2l-1 -.2l-1.1 -.1l-1 -.1" class="g3_44"/>
<path d="M645.6 717.2l-1.1 -.1l-1 -.3l-1 -.3l-1 -.5l-.9 -.5l-1 -.7l-.9 -.6l-.9 -.9l-.9 -1l-.9 -1l-.8 -1.1l-.9 -1.3l-.8 -1.3l-.8 -1.4l-.7 -1.5l-.8 -1.7l-.7 -1.6l-.6 -1.7l-.6 -1.7l-.5 -1.8l-.5 -1.8l-.5 -1.8l-.3 -1.9l-.4 -2l-.3 -1.9l-.3 -2l-.2 -2.1l-.1 -2.1l-.1 -2.1l-.1 -2.1v-4.5l.1 -2.1l.1 -2.2l.1 -2l.2 -2.1l.3 -2l.3 -2l.4 -1.9l.3 -1.9l.5 -1.9l.5 -1.8l.5 -1.7l.6 -1.8l.6 -1.6l.7 -1.7l.8 -1.5l.7 -1.6l.8 -1.4l.8 -1.4l.9 -1.2l.8 -1.2l.9 -1l.9 -.9l.9 -.8l.9 -.8l1 -.6l.9 -.6l1 -.4l1 -.4l1 -.2l1.1 -.1l1.1 -.1l1 .1l1.1 .1l1 .2l.5 .2l.5 .2l.4 .2l.5 .2l1 .6l1 .6l.9 .8l.9 .8l.4 .4l.5 .5l.8 1l.4 .6l.5 .6l.4 .6l.4 .6l.8 1.4l.8 1.4l.8 1.6l.7 1.5l.7 1.7l.6 1.6l.6 1.8l.6 1.7l.5 1.8l.4 1.9l.5 1.9l.3 1.9l.3 2l.2 2l.3 2.1l.1 2l.2 2.2v2.1l.1 2.3l-.1 2.2v2.1l-.2 2.1l-.1 2.1l-.3 2.1l-.1 1l-.1 1l-.3 1.9l-.3 2l-.5 1.9l-.1 .4l-.1 .2v.3l-.2 .9l-.5 1.8l-.3 .9l-.2 .5v.2l-.1 .2l-.1 .2v.2l-.2 .5l-.3 .8l-.6 1.7l-.4 .8l-.1 .2v.2l-.2 .4l-.7 1.7l-.4 .7l-.2 .4l-.1 .2l-.1 .2l-.8 1.4l-.4 .7l-.4 .6l-.4 .6l-.4 .7l-.2 .1l-.1 .1l-.2 .3l-.4 .6l-.8 1l-.3 .2l-.2 .3l-.4 .5l-.9 .9l-.5 .3l-.4 .3l-1 .7l-1 .5l-.5 .3h-.1l-.1 .1l-.2 .1l-.5 .2l-.5 .1l-1 .3l-1.1 .1h-.4l-.1 .1l-.5 .1Z" class="g2_44"/>
<path d="M646.7 631l-1.1 .1l-1.1 .1l-1 .2l-1 .4l-1 .4l-.9 .6l-1 .6l-.9 .8l-.9 .8l-.9 .9l-.9 1l-.8 1.2l-.9 1.2l-.8 1.4l-.8 1.4l-.7 1.6l-.8 1.5l-.7 1.7l-.6 1.6l-.6 1.8l-.5 1.7l-.5 1.8l-.5 1.9l-.3 1.9l-.4 1.9l-.3 2l-.3 2l-.2 2.1l-.1 2l-.1 2.2l-.1 2.1v4.5l.1 2.1l.1 2.1l.1 2.1l.2 2.1l.3 2l.3 1.9l.4 2l.3 1.9l.5 1.8l.5 1.8l.5 1.8l.6 1.7l.6 1.7l.7 1.6l.8 1.7l.7 1.5l.8 1.4l.8 1.3l.9 1.3l.8 1.1l.9 1l.9 1l.9 .9l.9 .6l1 .7l.9 .5l1 .5l1 .3l1 .3l1.1 .1l1.1 .2l.5 -.1l.1 -.1h.4l1.1 -.1l1 -.3l.5 -.1l.5 -.2l.2 -.1l.1 -.1h.1l.5 -.3l1 -.5l1 -.7l.4 -.3l.5 -.3l.9 -.9l.4 -.5l.2 -.3l.3 -.2l.8 -1l.4 -.6l.2 -.3l.1 -.1l.2 -.1l.4 -.7l.4 -.6l.4 -.6l.4 -.7l.8 -1.4l.1 -.2l.1 -.2l.2 -.4l.4 -.7L662 703l.2 -.4v-.2l.1 -.2l.4 -.8l.6 -1.7l.3 -.8l.2 -.5v-.2l.1 -.2l.1 -.2v-.2l.2 -.5l.3 -.9l.5 -1.8l.2 -.9v-.3l.1 -.2l.1 -.4l.5 -1.9l.3 -2l.3 -1.9l.1 -1l.1 -1l.3 -2.1l.1 -2.1l.2 -2.1v-2.1l.1 -2.2l-.1 -2.3v-2.1l-.2 -2.2l-.1 -2l-.3 -2.1l-.2 -2l-.3 -2l-.3 -1.9l-.5 -1.9l-.4 -1.9l-.5 -1.8l-.6 -1.7l-.6 -1.8l-.6 -1.6l-.7 -1.7l-.7 -1.5l-.8 -1.6l-.8 -1.4l-.8 -1.4l-.4 -.6l-.4 -.6l-.5 -.6l-.4 -.6l-.8 -1l-.5 -.5l-.4 -.4l-.9 -.8l-.9 -.8l-1 -.6l-1 -.6l-.5 -.2l-.4 -.2l-.5 -.2l-.5 -.2l-1 -.2l-1.1 -.1l-1 -.1m-8.1 43.6L587.3 655.9m52.6 -5.6H588m53.2 49.4L588.6 686.2" class="g3_44"/>
<path d="M744.1 717.2l-1.1 -.1l-1 -.3l-1 -.3l-1 -.5l-.9 -.5l-1 -.7l-.9 -.7l-.9 -.8l-.9 -1l-.9 -1l-.8 -1.1l-.9 -1.3l-.8 -1.3l-.8 -1.4l-.7 -1.5l-.8 -1.6l-.7 -1.7l-.6 -1.6l-.6 -1.7l-.6 -1.8l-.4 -1.8l-.5 -1.9l-.3 -1.8l-.4 -2l-.3 -1.9l-.3 -2l-.2 -2.1l-.1 -2.1l-.2 -2.1v-8.7l.2 -2.1l.1 -2.1l.2 -2.1l.3 -2l.3 -2l.4 -1.9l.3 -1.9l.5 -1.8l.4 -1.8l.6 -1.7l.6 -1.8L729 647l.7 -1.6l.8 -1.6l.7 -1.5l.8 -1.4l.8 -1.4l.9 -1.2l.8 -1.2l.9 -1l.9 -.9l.9 -.8l.9 -.8l1 -.6l.9 -.5l1 -.5l1 -.3l1 -.3l1.1 -.1h2.1l1 .1l1 .3l.5 .1l.6 .2l.4 .2l.5 .3l1 .5l.9 .6l1 .8l.9 .8l.4 .4l.4 .5l.9 1l.4 .6l.5 .6l.4 .6l.4 .6l.8 1.4l.8 1.4l.8 1.5l.7 1.6l.7 1.6l.6 1.7l.6 1.8l.6 1.7l.5 1.8l.4 1.8l.4 1.9l.4 1.9l.3 2l.2 2l.3 2.1l.1 2.1l.2 2.1V672l.1 2.3l-.1 2.2v2.1l-.2 2.1l-.1 2.1l-.3 2.1l-.1 .9l-.1 1.1l-.3 1.9l-.4 2l-.4 1.8l-.1 .5l-.1 .2v.2l-.2 1l-.5 1.8l-.3 .9l-.2 .4v.2l-.1 .3l-.1 .1v.3l-.2 .4l-.3 .9l-.6 1.6l-.4 .8l-.1 .2v.2l-.2 .5l-.7 1.6l-.4 .7l-.2 .4l-.1 .2l-.1 .2l-.8 1.4l-.4 .7l-.4 .6l-.4 .6l-.4 .7l-.2 .1l-.1 .1l-.2 .3l-.4 .6l-.9 1l-.2 .2l-.2 .3l-.4 .5l-.9 .8l-.5 .4l-.5 .3l-.9 .7l-1 .5l-.5 .3h-.1l-.1 .1l-.2 .1l-.6 .1l-.5 .2l-1 .3l-1 .1h-.4l-.1 .1h-.5Z" class="g2_44"/>
<path d="M745.2 631.3h-1.1l-1.1 .1l-1 .3l-1 .3l-1 .5l-.9 .5l-1 .6l-.9 .8l-.9 .8l-.9 .9l-.9 1l-.8 1.2l-.9 1.2l-.8 1.4l-.8 1.4l-.7 1.5l-.8 1.6L729 647l-.6 1.7l-.6 1.8l-.6 1.7l-.4 1.8l-.5 1.8l-.3 1.9l-.4 1.9l-.3 2l-.3 2l-.2 2.1l-.1 2.1l-.2 2.1v8.7l.2 2.1l.1 2.1l.2 2.1l.3 2l.3 1.9l.4 2l.3 1.8l.5 1.9l.4 1.8l.6 1.8l.6 1.7l.6 1.6l.7 1.7l.8 1.6l.7 1.5l.8 1.4l.8 1.3l.9 1.3l.8 1.1l.9 1l.9 1l.9 .8l.9 .7l1 .7l.9 .5l1 .5l1 .3l1 .3l1.1 .1l1.1 .1h.5l.1 -.1h.4l1 -.1l1 -.3l.5 -.2l.6 -.1l.2 -.1l.1 -.1h.1l.5 -.3l1 -.5l.9 -.7l.5 -.3l.5 -.4l.9 -.8l.4 -.5l.2 -.3l.2 -.2l.9 -1l.4 -.6l.2 -.3l.1 -.1l.2 -.1l.4 -.7l.4 -.6l.4 -.6l.4 -.7l.8 -1.4l.1 -.2l.1 -.2l.2 -.4l.4 -.7l.7 -1.6l.2 -.5v-.2l.1 -.2l.4 -.8l.6 -1.6l.3 -.9l.2 -.4v-.3l.1 -.1l.1 -.3v-.2l.2 -.4l.3 -.9l.5 -1.8l.2 -1v-.2l.1 -.2l.1 -.5l.4 -1.8l.4 -2l.3 -1.9l.1 -1.1l.1 -.9l.3 -2.1l.1 -2.1l.2 -2.1v-2.1l.1 -2.2l-.1 -2.3v-2.1l-.2 -2.1l-.1 -2.1l-.3 -2.1l-.2 -2l-.3 -2l-.4 -1.9l-.4 -1.9l-.4 -1.8l-.5 -1.8l-.6 -1.7l-.6 -1.8l-.6 -1.7l-.7 -1.6l-.7 -1.6l-.8 -1.5l-.8 -1.4l-.8 -1.4l-.4 -.6l-.4 -.6l-.5 -.6l-.4 -.6l-.9 -1l-.4 -.5l-.4 -.4l-.9 -.8l-1 -.8l-.9 -.6l-1 -.5l-.5 -.3l-.4 -.2l-.6 -.2l-.5 -.1l-1 -.3l-1 -.1h-1" class="g3_44"/>
<path d="M811 716.8l-1.1 -.2l-1 -.2l-1 -.4l-1 -.4l-1 -.6l-.9 -.6l-.9 -.7l-1 -.9l-.8 -.9l-.9 -1.1l-.8 -1.1l-.9 -1.3l-.8 -1.3l-.8 -1.4l-.7 -1.5l-.8 -1.6l-.7 -1.6l-.6 -1.7l-.6 -1.7l-.6 -1.8l-.4 -1.8l-.5 -1.8l-.3 -1.9l-.4 -2l-.3 -1.9l-.3 -2l-.2 -2l-.2 -2.2l-.1 -2.1v-8.7l.1 -2.1l.2 -2.1l.2 -2l.3 -2l.3 -2l.4 -1.9l.3 -1.9l.5 -1.9l.4 -1.8l.6 -1.7l.6 -1.8l.6 -1.6l.7 -1.7l.8 -1.5l.7 -1.6l.8 -1.4l.8 -1.3l.9 -1.3l.8 -1.1l.9 -1.1l.8 -.9l1 -.8l.9 -.8l.9 -.6l1 -.5l1 -.5l1 -.3l1 -.2l1.1 -.2h2.1l1 .2l1 .2l.5 .1l.6 .2l.4 .2l.5 .3l1 .5l.9 .6l1 .8l.8 .8l.5 .4l.4 .5l.9 1.1l.4 .5l.5 .6l.4 .6l.4 .7l.8 1.3l.8 1.4l.8 1.6l.7 1.5l.7 1.7l.6 1.6l.6 1.8l.6 1.7l.5 1.8l.4 1.9l.4 1.9l.4 1.9l.3 2l.2 2l.3 2l.1 2.1l.2 2.1v2.2l.1 2.2l-.1 2.2v2.1l-.2 2.1l-.1 2.2l-.3 2l-.1 1l-.1 1l-.3 1.9l-.4 2l-.4 1.9l-.1 .4l-.1 .2v.3l-.2 .9l-.5 1.8l-.3 .9l-.2 .4v.2l-.1 .3l-.1 .2l-.1 .2l-.1 .4l-.3 .9l-.6 1.7l-.4 .8l-.1 .2v.2l-.2 .4l-.7 1.6l-.4 .8l-.2 .3l-.1 .2l-.1 .2l-.8 1.4l-.4 .7l-.4 .6l-.4 .7l-.4 .6l-.2 .1l-.1 .2l-.2 .3l-.4 .5l-.9 1.1l-.2 .2l-.2 .2l-.5 .5l-.8 .9l-.5 .3l-.5 .4l-.9 .6l-1 .6l-.5 .2h-.1l-.1 .1l-.2 .1l-.6 .2l-.5 .2l-1 .2l-1 .2h-.6l-.4 .1Z" class="g2_44"/>
<path d="M812.1 630.8H811l-1.1 .2l-1 .2l-1 .3l-1 .5l-1 .5l-.9 .6l-.9 .8l-1 .8l-.8 .9l-.9 1.1l-.8 1.1l-.9 1.3l-.8 1.3l-.8 1.4l-.7 1.6l-.8 1.5l-.7 1.7l-.6 1.6l-.6 1.8l-.6 1.7l-.4 1.8l-.5 1.9l-.3 1.9l-.4 1.9l-.3 2l-.3 2l-.2 2l-.2 2.1l-.1 2.1v8.7l.1 2.1l.2 2.2l.2 2l.3 2l.3 1.9l.4 2l.3 1.9l.5 1.8l.4 1.8l.6 1.8l.6 1.7l.6 1.7l.7 1.6l.8 1.6l.7 1.5l.8 1.4l.8 1.3l.9 1.3l.8 1.1l.9 1.1l.8 .9l1 .9l.9 .7l.9 .6l1 .6l1 .4l1 .4l1 .2l1.1 .2l1.1 .1l.4 -.1h.6l1 -.2l1 -.2l.5 -.2l.6 -.2l.2 -.1l.1 -.1h.1l.5 -.2l1 -.6l.9 -.6l.5 -.4l.5 -.3l.8 -.9l.5 -.5l.2 -.2l.2 -.2l.9 -1.1l.4 -.5l.2 -.3l.1 -.2l.2 -.1l.4 -.6l.4 -.7l.4 -.6l.4 -.7l.8 -1.4l.1 -.2l.1 -.2l.2 -.3l.4 -.8l.7 -1.6l.2 -.4V702l.1 -.2l.4 -.8l.6 -1.7l.3 -.9l.1 -.4l.1 -.2l.1 -.2l.1 -.3v-.2l.2 -.4l.3 -.9l.5 -1.8l.2 -.9v-.3l.1 -.2l.1 -.4l.4 -1.9l.4 -2l.3 -1.9l.1 -1l.1 -1l.3 -2l.1 -2.2l.2 -2.1V676l.1 -2.2l-.1 -2.2v-2.2l-.2 -2.1l-.1 -2.1l-.3 -2l-.2 -2l-.3 -2l-.4 -1.9l-.4 -1.9l-.4 -1.9l-.5 -1.8l-.6 -1.7l-.6 -1.8l-.6 -1.6l-.7 -1.7l-.7 -1.5l-.8 -1.6l-.8 -1.4l-.8 -1.3l-.4 -.7l-.4 -.6l-.5 -.6l-.4 -.5l-.9 -1.1l-.4 -.5l-.5 -.4l-.8 -.8l-1 -.8l-.9 -.6l-1 -.5l-.5 -.3l-.4 -.2l-.6 -.2l-.5 -.1l-1 -.2l-1 -.2h-1m-6.8 17.9H753.4m51.9 24.4l-52.5 -.7" class="g3_44"/>
<path d="M56.7 627.5h.7v-.7h-.7v.7Z" class="g1_44"/>
<path d="M57.4 627.5H200v-.7H57.4v.7Z" class="g1_44"/>
<path d="M200 627.5h.7v-.7H200v.7Z" class="g1_44"/>
<path d="M200.7 627.5H365.4v-.7H200.7v.7Z" class="g1_44"/>
<path d="M365.4 627.5h.7v-.7h-.7v.7Z" class="g1_44"/>
<path d="M366.1 627.5H530.9v-.7H366.1v.7Z" class="g1_44"/>
<path d="M530.9 627.5h.8v-.7h-.8v.7Z" class="g1_44"/>
<path d="M531.7 627.5H696.3v-.7H531.7v.7Z" class="g1_44"/>
<path d="M696.3 627.5h.7v-.7h-.7v.7Z" class="g1_44"/>
<path d="M697 627.5H861.9v-.7H697v.7Z" class="g1_44"/>
<path d="M861.9 627.5h.7v-.7h-.7v.7Z" class="g1_44"/>
<path d="M56.7 721.8h.7V627.5h-.7v94.3Z" class="g1_44"/>
<path d="M200 721.8h.7V627.5H200v94.3Z" class="g1_44"/>
<path d="M365.4 721.8h.7V627.5h-.7v94.3Z" class="g1_44"/>
<path d="M530.9 721.8h.8V627.5h-.8v94.3Z" class="g1_44"/>
<path d="M696.3 721.8h.7V627.5h-.7v94.3Z" class="g1_44"/>
<path d="M861.9 721.8h.7V627.5h-.7v94.3Z" class="g1_44"/>
<path fill-rule="evenodd" d="M57.4 781H200V722.5H57.4V781Z" class="g0_44"/>
<path fill-rule="evenodd" d="M65.3 763.6H192.1V739.7H65.3v23.9Z" class="g0_44"/>
<path d="M56.7 722.5h.7v-.7h-.7v.7Z" class="g1_44"/>
<path d="M57.4 722.5H200v-.7H57.4v.7Z" class="g1_44"/>
<path d="M200 722.5h.7v-.7H200v.7Z" class="g1_44"/>
<path d="M200.7 722.5H365.4v-.7H200.7v.7Z" class="g1_44"/>
<path d="M365.4 722.5h.7v-.7h-.7v.7Z" class="g1_44"/>
<path d="M366.1 722.5H530.9v-.7H366.1v.7Z" class="g1_44"/>
<path d="M530.9 722.5h.8v-.7h-.8v.7Z" class="g1_44"/>
<path d="M531.7 722.5H696.3v-.7H531.7v.7Z" class="g1_44"/>
<path d="M696.3 722.5h.7v-.7h-.7v.7Z" class="g1_44"/>
<path d="M697 722.5H861.9v-.7H697v.7Z" class="g1_44"/>
<path d="M861.9 722.5h.7v-.7h-.7v.7Z" class="g1_44"/>
<path d="M56.7 781h.7V722.5h-.7V781Z" class="g1_44"/>
<path d="M200 781h.7V722.5H200V781Z" class="g1_44"/>
<path d="M365.4 781h.7V722.5h-.7V781Z" class="g1_44"/>
<path d="M530.9 781h.8V722.5h-.8V781Z" class="g1_44"/>
<path d="M696.3 781h.7V722.5h-.7V781Z" class="g1_44"/>
<path d="M861.9 781h.7V722.5h-.7V781Z" class="g1_44"/>
<path fill-rule="evenodd" d="M57.4 905.1H200V781.7H57.4V905.1Z" class="g0_44"/>
<path fill-rule="evenodd" d="M65.3 855.2H192.1V831.4H65.3v23.8Z" class="g0_44"/>
<path d="M314.6 894.1l.4 -.5l.8 -.9l.6 -.9l.2 -.4l.2 -.4l.1 -.6l.1 -.6V889l-.1 -.8l-.1 -.5l-.3 -.6l-.2 -.5l-.1 -.1l-.1 -.1l-.2 -.2l-.4 -.6l-.4 -.5l-.5 -.5l-.5 -.5l15.1 5.2l-15.1 5.3Z" class="g4_44"/>
<path d="M223.6 889.7H317" class="g5_44"/>
<path d="M241.2 819.1l-.5 -.5l-.6 -.6l-.6 -.4l-.6 -.3l-.6 -.2l-.6 -.2l-.5 -.1h-.4l-.6 .1l-.6 .1l-1 .4l-1 .6l-1 .8l-.5 .4l-.4 .6l5.1 -15.4l5 15.4Z" class="g4_44"/>
<path d="M237.1 901.2V816.8" class="g5_44"/>
<path d="M250.7 869.2l-.4 -.1l-.5 -.3l-.3 -.2l-.4 -.5l-.2 -.4l-.1 -.3v-1.3l.1 -.4l.2 -.5l.4 -.3l.3 -.4l.5 -.2l.4 -.2h1l.2 .1l.3 .1l.4 .2l.4 .4l.3 .3l.3 .5l.1 .4l.1 .6l-.1 .5l-.1 .2v.3l-.3 .4l-.3 .5l-.4 .2l-.4 .3h-.3l-.2 .1h-.2l-.3 .1Z" class="g4_44"/>
<path d="M262.6 847.2l-.4 -.1l-.4 -.2l-.4 -.3l-.3 -.4l-.2 -.5l-.1 -.2l-.1 -.2v-1.1l.2 -.5l.2 -.4l.3 -.3l.4 -.4l.4 -.3l.4 -.1l.6 -.1l.4 .1h.3l.2 .1l.4 .3l.5 .4l.2 .3l.3 .4l.1 .5l.1 .5l-.1 .6v.2l-.1 .2l-.3 .5l-.2 .4l-.5 .3l-.4 .2h-.2v.1h-.5v.1h-.2Z" class="g4_44"/>
<path d="M275.2 824.8l-.4 -.1l-.5 -.2l-.3 -.3l-.3 -.4l-.3 -.5l-.1 -.2v-1.3l.1 -.5l.3 -.4l.3 -.3l.3 -.4l.5 -.3l.4 -.1h1.2l.3 .1l.4 .3l.4 .4l.3 .3l.3 .4l.1 .5l.1 .6l-.1 .5l-.1 .2v.2l-.3 .5l-.3 .4l-.4 .3l-.4 .2h-.3v.1H276v.1h-.2Z" class="g4_44"/>
<path d="M487.1 894.1l.5 -.5l.8 -.9l.6 -.9l.2 -.4l.1 -.4l.2 -.6l.1 -.6V889l-.1 -.8l-.2 -.5l-.2 -.6l-.3 -.5l-.1 -.1l-.1 -.1l-.1 -.2l-.4 -.6l-.4 -.5l-.5 -.5l-.6 -.5l15.2 5.2l-15.2 5.3Z" class="g4_44"/>
<path d="M395.8 889.7h93.8" class="g6_44"/>
<path d="M444.4 819.1l-.6 -.5l-.5 -.6l-.6 -.4l-.6 -.3l-.6 -.2l-.6 -.2l-.6 -.1h-.4l-.6 .1l-.5 .1l-1 .4l-1 .6l-1 .8l-.5 .4l-.5 .6l5.1 -15.4l5.1 15.4Z" class="g4_44"/>
<path d="M440.3 901.2V816.8" class="g6_44"/>
<path d="M418.6 854.3l-.5 -.1l-.4 -.2l-.3 -.3l-.4 -.4l-.2 -.5l-.1 -.2v-.2l-.1 -.6l.1 -.5l.1 -.5l.2 -.4l.4 -.4l.3 -.3l.4 -.3l.5 -.1l.5 -.1l.5 .1h.2l.3 .1l.4 .3l.4 .3l.3 .4l.3 .4l.1 .5l.1 .5l-.1 .6l-.1 .2v.2l-.3 .5l-.3 .4l-.4 .3l-.4 .2h-.3v.1h-.4v.1h-.3Z" class="g4_44"/>
<path d="M440.1 873.7l-.5 -.1l-.4 -.3l-.4 -.2l-.3 -.5l-.2 -.4l-.1 -.3l-.1 -.2v-1.1l.2 -.4l.2 -.5l.3 -.3l.4 -.4l.4 -.2l.5 -.2h1l.2 .1l.2 .1l.5 .2l.4 .4l.3 .3l.2 .5l.2 .4v1.1l-.1 .2l-.1 .3l-.2 .4l-.3 .5l-.4 .2l-.5 .3h-.2l-.2 .1h-.3l-.2 .1Z" class="g4_44"/>
<path d="M460.2 855l-.4 -.1l-.5 -.3l-.3 -.2l-.4 -.5l-.2 -.4l-.1 -.3V852l.1 -.5l.2 -.5l.4 -.3l.3 -.4l.5 -.2l.4 -.2h1l.2 .1l.3 .1l.4 .2l.4 .4l.3 .3l.3 .5l.1 .5l.1 .5l-.1 .5l-.1 .2v.3l-.3 .4l-.3 .5l-.4 .2l-.4 .3h-.3l-.2 .1H461l-.2 .1Z" class="g4_44"/>
<path d="M645.7 894.1l.4 -.5l.8 -.9l.6 -.9l.2 -.4l.2 -.4l.1 -.6l.1 -.6V889l-.1 -.8l-.2 -.5l-.2 -.6l-.3 -.5l-.1 -.1l-.1 -.1l-.1 -.2l-.4 -.6l-.4 -.5l-.5 -.5l-.5 -.5l15.1 5.2l-15.1 5.3Z" class="g4_44"/>
<path d="M554.7 889.7h93.4" class="g5_44"/>
<path d="M581.1 819.1l-.6 -.5L580 818l-.6 -.4l-.6 -.3l-.6 -.2l-.6 -.2l-.6 -.1h-.4l-.5 .1l-.6 .1l-1 .4l-1 .6l-1 .8l-.5 .4l-.5 .6l5.1 -15.4l5.1 15.4Z" class="g4_44"/>
<path d="M577 901.2V816.8" class="g5_44"/>
<path d="M596.2 829.9l-.4 -.1l-.4 -.3l-.4 -.2l-.3 -.5l-.2 -.4l-.1 -.3l-.1 -.2v-1l.2 -.5l.2 -.5l.3 -.3l.4 -.4l.4 -.2l.4 -.2h1l.3 .1l.2 .1l.4 .2l.5 .4l.2 .3l.3 .5l.1 .5l.1 .5l-.1 .5v.2l-.1 .3l-.3 .4l-.2 .5l-.5 .2l-.4 .3h-.2l-.3 .1H597l-.2 .1Z" class="g4_44"/>
<path d="M576.8 873.7l-.5 -.1l-.4 -.2l-.3 -.3l-.4 -.4l-.2 -.5l-.1 -.2l-.1 -.3v-1l.2 -.5l.2 -.4l.4 -.4l.3 -.3l.4 -.3l.5 -.1l.5 -.1l.5 .1h.2l.2 .1l.5 .3l.4 .3l.3 .4l.2 .4l.2 .5v1l-.1 .3l-.1 .2l-.2 .5l-.3 .4l-.4 .3l-.5 .2H578l-.2 .1h-.3v.1h-.2Z" class="g4_44"/>
<path d="M576.8 852.4l-.5 -.1l-.4 -.2l-.3 -.3l-.4 -.4l-.2 -.5l-.1 -.2l-.1 -.2v-1.1l.2 -.5l.2 -.4l.4 -.4l.3 -.3l.4 -.3l.5 -.1l.5 -.1l.5 .1h.2l.2 .1l.5 .3l.4 .3l.3 .4l.2 .4l.2 .5v1.1l-.1 .2l-.1 .2l-.2 .5l-.3 .4l-.4 .3l-.5 .2H578v.1h-.5v.1h-.2Z" class="g4_44"/>
<path d="M56.7 781.7h.7V781h-.7v.7Z" class="g1_44"/>
<path d="M57.4 781.7H200V781H57.4v.7Z" class="g1_44"/>
<path d="M200 781.7h.7V781H200v.7Z" class="g1_44"/>
<path d="M200.7 781.7H365.4V781H200.7v.7Z" class="g1_44"/>
<path d="M365.4 781.7h.7V781h-.7v.7Z" class="g1_44"/>
<path d="M366.1 781.7H530.9V781H366.1v.7Z" class="g1_44"/>
<path d="M530.9 781.7h.8V781h-.8v.7Z" class="g1_44"/>
<path d="M531.7 781.7H696.3V781H531.7v.7Z" class="g1_44"/>
<path d="M696.3 781.7h.7V781h-.7v.7Z" class="g1_44"/>
<path d="M697 781.7H861.9V781H697v.7Z" class="g1_44"/>
<path d="M861.9 781.7h.7V781h-.7v.7Z" class="g1_44"/>
<path d="M56.7 905.1h.7V781.7h-.7V905.1Z" class="g1_44"/>
<path d="M56.7 905.8h.7v-.7h-.7v.7Z" class="g1_44"/>
<path d="M56.7 905.8h.7v-.7h-.7v.7Z" class="g1_44"/>
<path d="M57.4 905.8H200v-.7H57.4v.7Z" class="g1_44"/>
<path d="M200 905.1h.7V781.7H200V905.1Z" class="g1_44"/>
<path d="M200 905.8h.7v-.7H200v.7Z" class="g1_44"/>
<path d="M200.7 905.8H365.4v-.7H200.7v.7Z" class="g1_44"/>
<path d="M365.4 905.1h.7V781.7h-.7V905.1Z" class="g1_44"/>
<path d="M365.4 905.8h.7v-.7h-.7v.7Z" class="g1_44"/>
<path d="M366.1 905.8H530.9v-.7H366.1v.7Z" class="g1_44"/>
<path d="M530.9 905.1h.8V781.7h-.8V905.1Z" class="g1_44"/>
<path d="M530.9 905.8h.8v-.7h-.8v.7Z" class="g1_44"/>
<path d="M531.7 905.8H696.3v-.7H531.7v.7Z" class="g1_44"/>
<path d="M696.3 905.1h.7V781.7h-.7V905.1Z" class="g1_44"/>
<path d="M696.3 905.8h.7v-.7h-.7v.7Z" class="g1_44"/>
<path d="M697 905.8H861.9v-.7H697v.7Z" class="g1_44"/>
<path d="M861.9 905.1h.7V781.7h-.7V905.1Z" class="g1_44"/>
<path d="M861.9 905.8h.7v-.7h-.7v.7Z" class="g1_44"/>
<path d="M861.9 905.8h.7v-.7h-.7v.7Z" class="g1_44"/>
<path d="M747.4 751.5h.8V724h-.8v27.5Z" class="g4_44"/>
<path d="M774.9 751.5h.8V724h-.8v27.5Z" class="g4_44"/>
<path d="M802.4 751.5h.8V724h-.8v27.5Z" class="g4_44"/>
<path d="M720.3 752.2h27.2v-.7H720.3v.7Z" class="g4_44"/>
<path d="M747.4 752.2h.8v-.7h-.8v.7Z" class="g4_44"/>
<path d="M748.2 752.2h26.7v-.7H748.2v.7Z" class="g4_44"/>
<path d="M774.9 752.2h.8v-.7h-.8v.7Z" class="g4_44"/>
<path d="M775.7 752.2h26.7v-.7H775.7v.7Z" class="g4_44"/>
<path d="M802.4 752.2h.8v-.7h-.8v.7Z" class="g4_44"/>
<path d="M803.2 752.2h27.1v-.7H803.2v.7Z" class="g4_44"/>
<path d="M747.4 778.6h.8V752.2h-.8v26.4Z" class="g4_44"/>
<path d="M774.9 778.6h.8V752.2h-.8v26.4Z" class="g4_44"/>
<path d="M802.4 778.6h.8V752.2h-.8v26.4Z" class="g4_44"/>
<path d="M581.5 751.1h.8V723.6h-.8v27.5Z" class="g4_44"/>
<path d="M609 751.1h.8V723.6H609v27.5Z" class="g4_44"/>
<path d="M636.5 751.1h.8V723.6h-.8v27.5Z" class="g4_44"/>
<path d="M554.4 751.8h27.1v-.7H554.4v.7Z" class="g4_44"/>
<path d="M581.5 751.8h.8v-.7h-.8v.7Z" class="g4_44"/>
<path d="M582.3 751.8H609v-.7H582.3v.7Z" class="g4_44"/>
<path d="M609 751.8h.8v-.7H609v.7Z" class="g4_44"/>
<path d="M609.8 751.8h26.7v-.7H609.8v.7Z" class="g4_44"/>
<path d="M636.5 751.8h.8v-.7h-.8v.7Z" class="g4_44"/>
<path d="M637.3 751.8h27.1v-.7H637.3v.7Z" class="g4_44"/>
<path d="M581.5 778.4h.8V751.8h-.8v26.6Z" class="g4_44"/>
<path d="M609 778.4h.8V751.8H609v26.6Z" class="g4_44"/>
<path d="M636.5 778.4h.8V751.8h-.8v26.6Z" class="g4_44"/>
<path d="M416.2 751.1h.7V723.6h-.7v27.5Z" class="g4_44"/>
<path d="M447.9 751.1h.7V723.6h-.7v27.5Z" class="g4_44"/>
<path d="M475.4 751.1h.7V723.6h-.7v27.5Z" class="g4_44"/>
<path d="M389 751.8h27.2v-.7H389v.7Z" class="g4_44"/>
<path d="M416.2 751.8h.7v-.7h-.7v.7Z" class="g4_44"/>
<path d="M416.9 751.8h31v-.7h-31v.7Z" class="g4_44"/>
<path d="M447.9 751.8h.7v-.7h-.7v.7Z" class="g4_44"/>
<path d="M448.6 751.8h26.8v-.7H448.6v.7Z" class="g4_44"/>
<path d="M475.4 751.8h.7v-.7h-.7v.7Z" class="g4_44"/>
<path d="M476.1 751.8h27.2v-.7H476.1v.7Z" class="g4_44"/>
<path d="M416.2 778.4h.7V751.8h-.7v26.6Z" class="g4_44"/>
<path d="M447.9 778.4h.7V751.8h-.7v26.6Z" class="g4_44"/>
<path d="M475.4 778.4h.7V751.8h-.7v26.6Z" class="g4_44"/>
<path d="M250.8 751.1h.7V723.6h-.7v27.5Z" class="g4_44"/>
<path d="M278.3 751.1h.7V723.6h-.7v27.5Z" class="g4_44"/>
<path d="M305.8 751.1h.7V723.6h-.7v27.5Z" class="g4_44"/>
<path d="M223.7 751.8h27.1v-.7H223.7v.7Z" class="g4_44"/>
<path d="M250.8 751.8h.7v-.7h-.7v.7Z" class="g4_44"/>
<path d="M251.5 751.8h26.8v-.7H251.5v.7Z" class="g4_44"/>
<path d="M278.3 751.8h.7v-.7h-.7v.7Z" class="g4_44"/>
<path d="M279 751.8h26.8v-.7H279v.7Z" class="g4_44"/>
<path d="M305.8 751.8h.7v-.7h-.7v.7Z" class="g4_44"/>
<path d="M306.5 751.8h27.2v-.7H306.5v.7Z" class="g4_44"/>
<path d="M250.8 778.4h.7V751.8h-.7v26.6Z" class="g4_44"/>
<path d="M278.3 778.4h.7V751.8h-.7v26.6Z" class="g4_44"/>
<path d="M305.8 778.4h.7V751.8h-.7v26.6Z" class="g4_44"/>
<image clip-path="url(#c1_44)" preserveAspectRatio="none" x="0" y="0" width="914" height="151" xlink:href="img/2.jpg"/>
<image clip-path="url(#c2_44)" preserveAspectRatio="none" x="23" y="153" width="1038" height="49" xlink:href="img/3.png"/>
<path d="M69.3 263.8h-.9l-.7 -.3l-.8 -.4l-.6 -.5l-.4 -.4l-.2 -.3l-.4 -.7l-.2 -.8l-.1 -.9V246.9l.1 -.9l.2 -.8l.4 -.7l.6 -.7l.6 -.6l.8 -.3l.7 -.3H82.7l.4 .1l.4 .2l.7 .3l.3 .3l.4 .3l.5 .7l.4 .7l.3 .8v14.4l-.3 .8l-.2 .3l-.1 .2l-.1 .2l-.3 .3l-.1 .2l-.1 .1v.1l-.4 .2l-.3 .3l-.2 .1l-.2 .1l-.3 .2l-.4 .1h-.2v.1l-.2 .1h-.8Z" class="g7_44"/>
<path d="M69.3 456h-.9l-.7 -.3l-.8 -.4l-.6 -.5l-.4 -.4l-.2 -.3l-.4 -.7l-.2 -.8l-.1 -.9V439.1l.1 -.9l.2 -.8l.4 -.7l.6 -.7l.6 -.6l.8 -.3l.7 -.3H82.7l.4 .1l.4 .2l.7 .3l.3 .3l.4 .3l.5 .7l.4 .7l.3 .8v14.4l-.3 .8l-.2 .3l-.1 .2l-.1 .2l-.3 .3l-.1 .2l-.1 .1v.1l-.4 .2l-.3 .3l-.2 .1l-.2 .1l-.3 .2l-.4 .1h-.2v.1l-.2 .1h-.8Z" class="g7_44"/>
<path d="M68.3 482.2l-.9 -.1l-.8 -.2l-.7 -.4l-.7 -.6l-.3 -.3l-.2 -.4l-.4 -.7l-.3 -.8V464.4l.3 -.8l.4 -.8l.5 -.6l.7 -.6l.7 -.4l.8 -.2l.9 -.1H80.8l.9 .1H82l.4 .2l.7 .4l.4 .2l.3 .4l.6 .6l.4 .8l.2 .8l.1 .9v13H85v.4l-.2 .8l-.2 .4l-.1 .1l-.1 .2l-.3 .4l-.2 .1v.1h-.1v.1l-.3 .3l-.4 .3h-.2l-.1 .2l-.4 .2L82 482h-.2l-.1 .1h-.4l-.1 .1h-.4Z" class="g8_44"/>
<path d="M67.5 509.5l-.8 -.1l-.7 -.2l-.7 -.4l-.5 -.6l-.3 -.3l-.2 -.4l-.3 -.7l-.2 -.9l-.1 -.5l.1 -.4V491.7l.2 -.8l.3 -.8l.5 -.6l.5 -.6l.7 -.4l.7 -.3l.8 -.1H99l.8 .1l.3 .1l.4 .2l.3 .1l.3 .3l.3 .2l.3 .4l.5 .6l.3 .8l.3 .8l.1 1V505l-.1 .4v.5l-.1 .4l-.1 .2l-.1 .3l-.1 .1l-.1 .2l-.1 .4l-.3 .4l-.1 .1l-.1 .2l-.3 .3l-.2 .1l-.1 .2l-.3 .2h-.2l-.1 .1v.1h-.2l-.2 .1l-.3 .1l-.8 .1Z" class="g2_44"/>
<path d="M112.9 982.7l-.8 -.1l-.8 -.3l-.8 -.4l-.6 -.5l-.4 -.4l-.2 -.3l-.4 -.7l-.2 -.8V964.8l.2 -.7l.4 -.8l.6 -.7l.6 -.5l.8 -.4l.8 -.3h14.2l.4 .1l.4 .2l.7 .4l.3 .2l.4 .3l.5 .7l.4 .8l.3 .7l.1 .9v12.6l-.1 .4v.5l-.3 .8l-.2 .3l-.1 .2l-.1 .2l-.2 .3l-.2 .2l-.1 .1v.1l-.4 .2l-.3 .3l-.2 .1l-.2 .1l-.3 .2l-.4 .2h-.2l-.2 .1h-.4l-.4 .1Z" class="g7_44"/>
<image preserveAspectRatio="none" x="27" y="1083" width="823" height="39" xlink:href="img/4.png"/>
</svg>