<?xml version="1.0" encoding="UTF-8" standalone="no"?>
<!DOCTYPE svg PUBLIC "-//W3C//DTD SVG 1.1//EN"
"http://www.w3.org/Graphics/SVG/1.1/DTD/svg11.dtd">
<svg viewBox="0 0 909 1286" version="1.1" xmlns="http://www.w3.org/2000/svg" xmlns:xlink="http://www.w3.org/1999/xlink">
<defs>
<clipPath id="c0_4"><path d="M-.2 1286.6v-74.9h910v74.9Z"/></clipPath>
<clipPath id="c1_4"><path d="M712.1 807.8V705.7h149V807.8Z"/></clipPath>
<clipPath id="c2_4"><path d="M730 304.8V206.4h99.2v98.4Z"/></clipPath>
<style type="text/css"><![CDATA[
.g0_4{
fill: #000;
}
.g1_4{
fill: none;
stroke: #000;
stroke-width: 0.765;
stroke-linecap: square;
stroke-miterlimit: 10;
}
.g2_4{
fill: none;
stroke: #000;
stroke-width: 0.909;
stroke-linecap: square;
stroke-miterlimit: 10;
}
.g3_4{
fill: none;
stroke: #000;
stroke-width: 0.763;
stroke-linecap: square;
stroke-miterlimit: 10;
}
.g4_4{
fill: none;
stroke: #000;
stroke-width: 1.527;
stroke-linecap: square;
stroke-miterlimit: 10;
}
.g5_4{
fill: none;
stroke: #000;
stroke-width: 0.907;
stroke-linecap: square;
stroke-miterlimit: 10;
}
.g6_4{
fill: none;
stroke: #000;
stroke-width: 0.152;
stroke-linecap: square;
stroke-miterlimit: 10;
}
]]></style>
</defs>
<image clip-path="url(#c0_4)" preserveAspectRatio="none" x="-4" y="1212" width="952" height="131" xlink:href="img/1.jpg"/>
<path d="M572.9 91.1h36.7v-.9H572.9v.9Z" class="g0_4"/>
<path d="M206.8 428.4h23.8m71.9 27.8h23.6m-23.6 99.3h24.1" class="g1_4"/>
<path d="M197.6 729h24.2m43.1 0h24.2M273 780.7h23.3" class="g2_4"/>
<path d="M354.1 906.6h24" class="g3_4"/>
<path d="M439.6 906.8h23.3" class="g1_4"/>
<path d="M498.1 919.4l2.4 -1.3" class="g3_4"/>
<path d="M500.5 918.5l3.4 6.2" class="g4_4"/>
<path d="M504.3 924.7l4.4 -18.5m0 0h9.9m77.5 .4h24m61.5 .2h23" class="g3_4"/>
<path d="M373.9 934.6h23.2" class="g1_4"/>
<path d="M205.2 975l2.3 -1.3" class="g3_4"/>
<path d="M207.5 974.1l3.4 6.2" class="g4_4"/>
<path d="M211.3 980.3l4.5 -18.5m0 0h9.8M325.8 975l2.4 -1.3" class="g3_4"/>
<path d="M328.2 974.1l3.3 6.2" class="g4_4"/>
<path d="M331.9 980.3l4.5 -18.5m0 0h9.8M455.8 975l2.4 -1.3" class="g3_4"/>
<path d="M458.2 974.1l3.4 6.2" class="g4_4"/>
<path d="M461.9 980.3l4.5 -18.5m0 0h9.9" class="g3_4"/>
<path d="M481.8 1058.7h23.3" class="g1_4"/>
<path d="M201.7 1154h10.9" class="g5_4"/>
<path d="M272 1153.9l1.9 -1.1m0 0l4.4 7.2m0 0l4.9 -19.1m0 0h10.5" class="g6_4"/>
<path d="M277.9 1160l-4.4 -6.5l-1.3 .6l-.3 -.5l2.5 -1.4l4 5.9l4.5 -17.6h10.8v.9H283.5l-4.7 18.6Z" class="g0_4"/>
<path d="M381.5 1153.9l1.9 -1.1m0 0l4.4 7.2m0 0l4.8 -19.1m0 0h10.5" class="g6_4"/>
<path d="M387.3 1160l-4.4 -6.5l-1.3 .6l-.3 -.5l2.6 -1.4l3.9 5.9l4.5 -17.6h10.8v.9H393l-4.8 18.6Z" class="g0_4"/>
<image preserveAspectRatio="none" x="43" y="89" width="57" height="56" xlink:href="img/2.jpg"/>
<image preserveAspectRatio="none" x="740" y="60" width="89" height="119" xlink:href="img/3.jpg"/>
<image preserveAspectRatio="none" x="748" y="398" width="87" height="112" xlink:href="img/4.jpg"/>
<image preserveAspectRatio="none" x="43" y="374" width="57" height="56" xlink:href="img/5.jpg"/>
<image clip-path="url(#c1_4)" preserveAspectRatio="none" x="712" y="706" width="149" height="101" xlink:href="img/6.jpg"/>
<image preserveAspectRatio="none" x="43" y="699" width="57" height="56" xlink:href="img/7.jpg"/>
<image clip-path="url(#c2_4)" preserveAspectRatio="none" x="730" y="207" width="99" height="97" xlink:href="img/8.jpg"/>
<image preserveAspectRatio="none" x="43" y="231" width="57" height="56" xlink:href="img/9.jpg"/>
<image preserveAspectRatio="none" x="719" y="1058" width="140" height="97" xlink:href="img/10.jpg"/>
<image preserveAspectRatio="none" x="43" y="1078" width="57" height="57" xlink:href="img/11.jpg"/>
<image preserveAspectRatio="none" x="760" y="898" width="81" height="109" xlink:href="img/12.jpg"/>
<image preserveAspectRatio="none" x="43" y="926" width="57" height="56" xlink:href="img/13.jpg"/>
</svg>