<?xml version="1.0" encoding="UTF-8" standalone="no"?>
<!DOCTYPE svg PUBLIC "-//W3C//DTD SVG 1.1//EN"
"http://www.w3.org/Graphics/SVG/1.1/DTD/svg11.dtd">
<svg viewBox="0 0 909 1286" version="1.1" xmlns="http://www.w3.org/2000/svg" xmlns:xlink="http://www.w3.org/1999/xlink">
<defs>
<clipPath id="c0_7"><path d="M-.2 1286.6v-74.9h910v74.9Z"/></clipPath>
<clipPath id="c1_7"><path d="M685.4 1134.9v-87.4H866.6v87.4Z"/></clipPath>
<clipPath id="c2_7"><path d="M707.1 1199.9v-79.7H851.5v79.7Z"/></clipPath>
<clipPath id="c3_7"><path d="M714.8 564.4V412.1H828.3V564.4Z"/></clipPath>
<clipPath id="c4_7"><path d="M681.4 1000.1V895.9H853.5v104.2Z"/></clipPath>
<style type="text/css"><![CDATA[
.g0_7{
fill: none;
stroke: #000;
stroke-width: 1.099;
stroke-linecap: square;
stroke-miterlimit: 10;
}
.g1_7{
fill: none;
stroke: #000;
stroke-width: 0.763;
stroke-linecap: square;
stroke-miterlimit: 10;
}
.g2_7{
fill: none;
stroke: #000;
stroke-width: 0.765;
stroke-linecap: square;
stroke-miterlimit: 10;
}
.g3_7{
fill: none;
stroke: #000;
stroke-width: 0.761;
stroke-linecap: square;
stroke-miterlimit: 10;
}
.g4_7{
fill: none;
stroke: #000;
stroke-width: 1.331;
stroke-linecap: square;
stroke-miterlimit: 10;
}
.g5_7{
fill: none;
stroke: #000;
stroke-width: 0.887;
stroke-linecap: square;
stroke-miterlimit: 10;
}
.g6_7{
fill: none;
stroke: #000;
stroke-width: 1.141;
stroke-linecap: round;
stroke-linejoin: round;
}
]]></style>
</defs>
<image clip-path="url(#c0_7)" preserveAspectRatio="none" x="-4" y="1212" width="952" height="131" xlink:href="img/1.jpg"/>
<image clip-path="url(#c1_7)" preserveAspectRatio="none" x="686" y="1048" width="180" height="87" xlink:href="img/2.jpg"/>
<image clip-path="url(#c2_7)" preserveAspectRatio="none" x="707" y="1121" width="144" height="79" xlink:href="img/3.jpg"/>
<path d="M388.7 75.2H355.5m127.8 0H453.2m84.2 0H506.2M201.5 108.3H169.4m85.1 0H224.4m101.7 0h-30m85 0h-32m142.1 0H459.1m87.1 0H514.1M192.9 141.7H161.7m274.5 0H403M225 198.9H192.9m86.1 0H247.9m167.9 0H383.7m86.2 0h-31m167.7 0h-32m86.1 0H629.6m169 0H766.3m86.4 0H821.5M639.6 279.4H608.5M142.8 514.1l2.2 -1.3m0 0l5.9 11.9m0 0l3.7 -21.5m0 0h11.5m53.4 10.9l2.2 -1.3m0 0l5.8 11.9m0 0l3.7 -21.5m0 0h11.5m90.1 10.9l2.2 -1.3m0 0l5.8 11.9m0 0l3.7 -21.5m0 0H356m91.1 10.9l2.2 -1.3m0 0l5.9 11.9m0 0l3.7 -21.5m0 0h11.5" class="g0_7"/>
<path d="M548.4 748.9h24.4" class="g1_7"/>
<path d="M111.3 775.2h23.9" class="g2_7"/>
<path d="M160.3 775.1h22.3" class="g3_7"/>
<path d="M280.9 775.2h23.8m52.7 -.1h23.2" class="g2_7"/>
<path d="M433.8 775.2H459" class="g1_7"/>
<path d="M227.5 1157h9.2m75.9 0h9.2" class="g0_7"/>
<path d="M819.6 90.3h-119v80.6h119V90.3Z" class="g4_7"/>
<path d="M700.6 170.9l119 -80.6M701.1 170.4l79 -80.1" class="g5_7"/>
<image preserveAspectRatio="none" x="43" y="95" width="57" height="57" xlink:href="img/4.jpg"/>
<path d="M832.2 295.7H742.8l-26.2 71.4h89.7l25.9 -71.4ZM723.4 307.5l71.1 -11.8l11.8 71.4l-71.1 11.8L723.4 307.5Z" class="g6_7"/>
<image preserveAspectRatio="none" x="43" y="301" width="57" height="56" xlink:href="img/5.jpg"/>
<image preserveAspectRatio="none" x="43" y="443" width="57" height="56" xlink:href="img/6.jpg"/>
<image clip-path="url(#c3_7)" preserveAspectRatio="none" x="715" y="412" width="113" height="152" xlink:href="img/7.jpg"/>
<image preserveAspectRatio="none" x="43" y="618" width="57" height="57" xlink:href="img/8.jpg"/>
<image preserveAspectRatio="none" x="711" y="594" width="126" height="126" xlink:href="img/9.jpg"/>
<image preserveAspectRatio="none" x="708" y="747" width="141" height="106" xlink:href="img/10.jpg"/>
<image preserveAspectRatio="none" x="43" y="768" width="57" height="56" xlink:href="img/11.jpg"/>
<image clip-path="url(#c4_7)" preserveAspectRatio="none" x="682" y="896" width="171" height="104" xlink:href="img/12.jpg"/>
<image preserveAspectRatio="none" x="43" y="911" width="57" height="57" xlink:href="img/13.jpg"/>
<image preserveAspectRatio="none" x="43" y="1058" width="57" height="57" xlink:href="img/14.jpg"/>
</svg>