<?xml version="1.0" encoding="UTF-8" standalone="no"?>
<!DOCTYPE svg PUBLIC "-//W3C//DTD SVG 1.1//EN"
"http://www.w3.org/Graphics/SVG/1.1/DTD/svg11.dtd">
<svg viewBox="0 0 909 1286" version="1.1" xmlns="http://www.w3.org/2000/svg" xmlns:xlink="http://www.w3.org/1999/xlink">
<defs>
<clipPath id="c0_7"><path d="M-.2 1286.6v-75.1h910v75.1Z"/></clipPath>
<clipPath id="c1_7"><path d="M665.1 396.9V277.6H824.6V396.9Z"/></clipPath>
<style type="text/css"><![CDATA[
.g0_7{
fill: #000;
}
]]></style>
</defs>
<image clip-path="url(#c0_7)" preserveAspectRatio="none" x="-2" y="1212" width="930" height="127" xlink:href="img/1.jpg"/>
<path d="M272.5 114.9h36.7V114H272.5v.9Z" class="g0_7"/>
<path d="M183.9 466.3h36.7v-.9H183.9v.9Z" class="g0_7"/>
<path d="M110.6 609h36.6v-.9H110.6v.9Z" class="g0_7"/>
<path d="M355 632.9h36.7v-1H355v1Z" class="g0_7"/>
<path d="M612.4 770h36.7v-.9H612.4v.9Z" class="g0_7"/>
<path d="M623.9 888.8h36.6v-.9H623.9v.9Z" class="g0_7"/>
<path d="M245.8 912.6h36.6v-.9H245.8v.9Z" class="g0_7"/>
<image preserveAspectRatio="none" x="568" y="85" width="274" height="96" xlink:href="img/2.jpg"/>
<image preserveAspectRatio="none" x="43" y="90" width="57" height="56" xlink:href="img/3.jpg"/>
<image preserveAspectRatio="none" x="748" y="591" width="90" height="107" xlink:href="img/4.jpg"/>
<image preserveAspectRatio="none" x="43" y="608" width="57" height="56" xlink:href="img/5.jpg"/>
<image preserveAspectRatio="none" x="584" y="450" width="264" height="91" xlink:href="img/6.jpg"/>
<image preserveAspectRatio="none" x="43" y="464" width="57" height="57" xlink:href="img/7.jpg"/>
<image preserveAspectRatio="none" x="43" y="1009" width="57" height="57" xlink:href="img/8.jpg"/>
<image preserveAspectRatio="none" x="43" y="744" width="57" height="57" xlink:href="img/9.jpg"/>
<image preserveAspectRatio="none" x="43" y="887" width="57" height="56" xlink:href="img/10.jpg"/>
<image preserveAspectRatio="none" x="43" y="1128" width="57" height="56" xlink:href="img/11.jpg"/>
<image clip-path="url(#c1_7)" preserveAspectRatio="none" x="665" y="278" width="159" height="119" xlink:href="img/12.jpg"/>
<image preserveAspectRatio="none" x="43" y="301" width="57" height="56" xlink:href="img/13.jpg"/>
</svg>