<?xml version="1.0" encoding="UTF-8" standalone="no"?>
<!DOCTYPE svg PUBLIC "-//W3C//DTD SVG 1.1//EN"
"http://www.w3.org/Graphics/SVG/1.1/DTD/svg11.dtd">
<svg viewBox="0 0 909 1286" version="1.1" xmlns="http://www.w3.org/2000/svg" xmlns:xlink="http://www.w3.org/1999/xlink">
<defs>
<clipPath id="c0_8"><path d="M-.2 1286.6v-74.9h910v74.9Z"/></clipPath>
<clipPath id="c1_8"><path d="M691.7 360.8V216.2H842.1V360.8Z"/></clipPath>
<clipPath id="c2_8"><path d="M714.3 821.7V704.4H850.5V821.7Z"/></clipPath>
<clipPath id="c3_8"><path d="M706.1 1162.1v-79.5H857.5v79.5Z"/></clipPath>
<style type="text/css"><![CDATA[
.g0_8{
fill: none;
stroke: #000;
stroke-width: 0.763;
stroke-linecap: square;
stroke-miterlimit: 10;
}
.g1_8{
fill: none;
stroke: #000;
stroke-width: 0.765;
stroke-linecap: square;
stroke-miterlimit: 10;
}
.g2_8{
fill: none;
stroke: #000;
stroke-width: 0.761;
stroke-linecap: square;
stroke-miterlimit: 10;
}
.g3_8{
fill: none;
stroke: #000;
stroke-width: 0.763;
stroke-linejoin: round;
}
.g4_8{
fill: #FFF;
}
.g5_8{
fill: none;
stroke: #000;
stroke-width: 1.145;
stroke-linecap: round;
stroke-miterlimit: 8;
}
.g6_8{
fill: #C0C0C0;
stroke: #000;
stroke-width: 1.145;
stroke-linecap: round;
stroke-miterlimit: 8;
}
.g7_8{
fill: none;
stroke: #000;
stroke-width: 1.145;
stroke-linecap: round;
stroke-linejoin: round;
}
.g8_8{
fill: none;
stroke: #000;
stroke-width: 1.145;
stroke-linejoin: round;
}
.g9_8{
fill: #000;
}
]]></style>
</defs>
<image clip-path="url(#c0_8)" preserveAspectRatio="none" x="-4" y="1212" width="952" height="131" xlink:href="img/1.jpg"/>
<path d="M430.3 74.1h25.2" class="g0_8"/>
<path d="M129.7 101.9h23.2m101 -.2h24.2m244.3 .2h23.2m26 123.4h23.3" class="g1_8"/>
<path d="M472.3 393h23.2M191.1 464.5h11m267.1 0h11.1" class="g0_8"/>
<path d="M475.8 560.4H499m25.7 -.2h24.1" class="g1_8"/>
<path d="M610.4 560.2h29.8" class="g0_8"/>
<path d="M665.4 560.4h23.2" class="g1_8"/>
<path d="M110.6 587.9h25.7" class="g0_8"/>
<path d="M161 587.9h24m43.3 .2h23.2m53.2 -.2h24.1" class="g1_8"/>
<path d="M285.6 635.7h11.1m69.4 0h11.1m-208.5 212h25.1m-14.5 51.5h25.2m259.6 .2h23.1m25.8 -.2h24.8M275 926.9h25.2" class="g0_8"/>
<path d="M179.3 954.9h23.2m25.8 -.2h24" class="g1_8"/>
<path d="M277.2 954.7h21.4" class="g2_8"/>
<path d="M465 1077.6h24" class="g0_8"/>
<path d="M110.6 1105.4h23.2" class="g1_8"/>
<path d="M406.5 1105.3h24.9" class="g0_8"/>
<image preserveAspectRatio="none" x="628" y="73" width="149" height="92" xlink:href="img/2.jpg"/>
<path d="M212 129.3c0 -2.8 -5.8 -5.2 -13 -5.2c-7.2 0 -13 2.4 -13 5.2" class="g3_8"/>
<image preserveAspectRatio="none" x="43" y="94" width="57" height="56" xlink:href="img/3.jpg"/>
<image clip-path="url(#c1_8)" preserveAspectRatio="none" x="692" y="216" width="150" height="144" xlink:href="img/4.jpg"/>
<image preserveAspectRatio="none" x="43" y="245" width="57" height="56" xlink:href="img/5.jpg"/>
<image preserveAspectRatio="none" x="716" y="375" width="147" height="153" xlink:href="img/6.png"/>
<image preserveAspectRatio="none" x="43" y="413" width="57" height="57" xlink:href="img/7.jpg"/>
<image preserveAspectRatio="none" x="43" y="579" width="57" height="56" xlink:href="img/8.jpg"/>
<path fill-rule="evenodd" d="M754.3 558.3v97.3h73Z" class="g4_8"/>
<path d="M754.3 558.3v97.3h73l-73 -97.3Z" class="g5_8"/>
<path fill-rule="evenodd" d="M754.3 655.6h22.6V621.9H754.3v33.7Z" class="g6_8"/>
<image clip-path="url(#c2_8)" preserveAspectRatio="none" x="715" y="705" width="135" height="116" xlink:href="img/9.jpg"/>
<image preserveAspectRatio="none" x="43" y="727" width="57" height="56" xlink:href="img/10.jpg"/>
<image preserveAspectRatio="none" x="43" y="866" width="57" height="57" xlink:href="img/11.jpg"/>
<path fill-rule="evenodd" d="M790.6 874c-26 0 -47.2 21.2 -47.2 47.2c0 26.1 21.2 47.3 47.2 47.3c26.1 0 47.2 -21.2 47.2 -47.3c0 -26 -21.1 -47.2 -47.2 -47.2Z" class="g4_8"/>
<path d="M790.6 874c-26 0 -47.2 21.2 -47.2 47.2c0 26.1 21.2 47.3 47.2 47.3c26.1 0 47.2 -21.2 47.2 -47.3c0 -26 -21.1 -47.2 -47.2 -47.2Z" class="g7_8"/>
<path d="M790.6 874v94.5" class="g8_8"/>
<path fill-rule="evenodd" d="M790.4 918.7c-1 0 -1.8 .9 -1.8 1.9c0 1 .8 1.9 1.8 1.9c1.1 0 1.9 -.9 1.9 -1.9c0 -1 -.8 -1.9 -1.9 -1.9Z" class="g9_8"/>
<image clip-path="url(#c3_8)" preserveAspectRatio="none" x="706" y="1083" width="151" height="79" xlink:href="img/12.jpg"/>
<image preserveAspectRatio="none" x="43" y="1097" width="57" height="57" xlink:href="img/13.jpg"/>
</svg>