<?xml version="1.0" encoding="UTF-8" standalone="no"?>
<!DOCTYPE svg PUBLIC "-//W3C//DTD SVG 1.1//EN"
"http://www.w3.org/Graphics/SVG/1.1/DTD/svg11.dtd">
<svg viewBox="0 0 909 1286" version="1.1" xmlns="http://www.w3.org/2000/svg" xmlns:xlink="http://www.w3.org/1999/xlink">
<defs>
<clipPath id="c0_1"><path d="M-.2 1286.6v-75.1h910v75.1Z"/></clipPath>
<clipPath id="c1_1"><path d="M125.6 904.9V862.2H257.9v42.7Z"/></clipPath>
<clipPath id="c2_1"><path d="M435.6 904.9V861.7H569.1v43.2Z"/></clipPath>
<clipPath id="c3_1"><path d="M.1 152.6V0H909.8V152.6Z"/></clipPath>
<clipPath id="c4_1"><path d="M23 203.8V154.1H909.8v49.7Z"/></clipPath>
<style type="text/css"><![CDATA[
.g0_1{
fill: #000;
}
]]></style>
</defs>
<image clip-path="url(#c0_1)" preserveAspectRatio="none" x="-2" y="1212" width="930" height="127" xlink:href="img/1.jpg"/>
<path d="M147.2 283.6h91.7v-.9H147.2v.9Z" class="g0_1"/>
<path d="M180.9 450.2h36.6v-.9H180.9v.9Z" class="g0_1"/>
<path d="M309.2 474h55v-.9h-55v.9Z" class="g0_1"/>
<path d="M309.2 475.8h55v-.9h-55v.9Z" class="g0_1"/>
<path d="M109.7 596.1h36.7v-.9H109.7v.9Z" class="g0_1"/>
<path d="M403.1 596.1h36.6v-.9H403.1v.9Z" class="g0_1"/>
<path d="M475.5 596.1h36.7v-.9H475.5v.9Z" class="g0_1"/>
<path d="M449.4 619.9h36.7V619H449.4v.9Z" class="g0_1"/>
<path d="M522.8 619.9h36.6V619H522.8v.9Z" class="g0_1"/>
<image clip-path="url(#c1_1)" preserveAspectRatio="none" x="126" y="863" width="132" height="42" xlink:href="img/2.jpg"/>
<image preserveAspectRatio="none" x="285" y="864" width="133" height="41" xlink:href="img/3.jpg"/>
<image clip-path="url(#c2_1)" preserveAspectRatio="none" x="436" y="862" width="133" height="43" xlink:href="img/4.jpg"/>
<image preserveAspectRatio="none" x="596" y="857" width="132" height="48" xlink:href="img/5.jpg"/>
<path d="M169.1 976.8h36.7v-.9H169.1v.9Z" class="g0_1"/>
<path d="M169.1 978.6h36.7v-.9H169.1v.9Z" class="g0_1"/>
<image clip-path="url(#c3_1)" preserveAspectRatio="none" x="0" y="0" width="915" height="152" xlink:href="img/6.jpg"/>
<image clip-path="url(#c4_1)" preserveAspectRatio="none" x="23" y="154" width="1038" height="49" xlink:href="img/7.png"/>
<image preserveAspectRatio="none" x="629" y="413" width="214" height="91" xlink:href="img/8.jpg"/>
<image preserveAspectRatio="none" x="44" y="425" width="56" height="56" xlink:href="img/9.jpg"/>
<image preserveAspectRatio="none" x="44" y="594" width="56" height="56" xlink:href="img/10.jpg"/>
<image preserveAspectRatio="none" x="636" y="777" width="213" height="51" xlink:href="img/11.jpg"/>
<image preserveAspectRatio="none" x="44" y="784" width="56" height="57" xlink:href="img/12.jpg"/>
<image preserveAspectRatio="none" x="44" y="974" width="56" height="56" xlink:href="img/13.jpg"/>
</svg>