<?xml version="1.0" encoding="UTF-8" standalone="no"?>
<!DOCTYPE svg PUBLIC "-//W3C//DTD SVG 1.1//EN"
"http://www.w3.org/Graphics/SVG/1.1/DTD/svg11.dtd">
<svg viewBox="0 0 909 1286" version="1.1" xmlns="http://www.w3.org/2000/svg" xmlns:xlink="http://www.w3.org/1999/xlink">
<defs>
<clipPath id="c0_22"><path d="M-.2 1286.6v-74.9h910v74.9Z"/></clipPath>
<clipPath id="c1_22"><path d="M741.6 476.2V373H844V476.2Z"/></clipPath>
<clipPath id="c2_22"><path d="M767.5 629V535.7h88.4V629Z"/></clipPath>
<clipPath id="c3_22"><path d="M679.7 629V543h88.4v86Z"/></clipPath>
<clipPath id="c4_22"><path d="M587.4 629V547.8h87.5V629Z"/></clipPath>
<style type="text/css"><![CDATA[
.g0_22{
fill: none;
stroke: #000;
stroke-width: 0.763;
stroke-linecap: square;
stroke-miterlimit: 10;
}
.g1_22{
fill: none;
stroke: #000;
stroke-width: 0.765;
stroke-linecap: square;
stroke-miterlimit: 10;
}
.g2_22{
fill: none;
stroke: #000;
stroke-width: 0.761;
stroke-linecap: square;
stroke-miterlimit: 10;
}
.g3_22{
fill: none;
stroke: #000;
stroke-width: 0.762;
stroke-linecap: square;
stroke-miterlimit: 10;
}
.g4_22{
fill: none;
stroke: #000;
stroke-width: 1.321;
stroke-linecap: round;
stroke-miterlimit: 8;
}
.g5_22{
fill: none;
stroke: #000;
stroke-width: 1.321;
stroke-linejoin: round;
}
]]></style>
</defs>
<image clip-path="url(#c0_22)" preserveAspectRatio="none" x="-4" y="1212" width="952" height="131" xlink:href="img/1.jpg"/>
<image clip-path="url(#c1_22)" preserveAspectRatio="none" x="742" y="373" width="102" height="103" xlink:href="img/2.jpg"/>
<image clip-path="url(#c2_22)" preserveAspectRatio="none" x="768" y="536" width="88" height="93" xlink:href="img/3.jpg"/>
<image clip-path="url(#c3_22)" preserveAspectRatio="none" x="680" y="543" width="88" height="86" xlink:href="img/4.jpg"/>
<image clip-path="url(#c4_22)" preserveAspectRatio="none" x="588" y="548" width="87" height="81" xlink:href="img/5.jpg"/>
<path d="M409.1 74h23.7" class="g0_22"/>
<path d="M586.3 74h23.2m-340 26.2h24m153.3 0H470" class="g1_22"/>
<path d="M267.7 126.6h25.1" class="g0_22"/>
<path d="M318.1 126.6h23.5" class="g1_22"/>
<path d="M367.1 126.6h22.5" class="g2_22"/>
<path d="M414.4 126.6h24.4" class="g1_22"/>
<path d="M147.6 152.9h25.2" class="g0_22"/>
<path d="M198 152.9h23.5" class="g1_22"/>
<path d="M271.3 152.9h25.2" class="g0_22"/>
<path d="M321.8 152.9h23.5" class="g1_22"/>
<path d="M395.1 152.9h22.5" class="g2_22"/>
<path d="M442.4 152.9h24.4" class="g1_22"/>
<path d="M516.9 152.9h22.5" class="g2_22"/>
<path d="M564.2 152.9h24.4m-52.3 76.7h23.1" class="g1_22"/>
<path d="M238.9 255.9h24.8m94 735.8h24.1m61.5 .1h22.9m24.5 0h23.7m25.1 -.1h24.7m-452.9 27.8h24.9" class="g0_22"/>
<path d="M189.2 1019.7h23.3" class="g1_22"/>
<path d="M111.3 1047.4h26.3m53.1 -.2h27.1" class="g3_22"/>
<image preserveAspectRatio="none" x="44" y="92" width="56" height="56" xlink:href="img/6.jpg"/>
<image preserveAspectRatio="none" x="707" y="79" width="138" height="87" xlink:href="img/7.jpg"/>
<image preserveAspectRatio="none" x="44" y="250" width="56" height="57" xlink:href="img/8.jpg"/>
<image preserveAspectRatio="none" x="731" y="226" width="103" height="95" xlink:href="img/9.jpg"/>
<image preserveAspectRatio="none" x="44" y="393" width="56" height="56" xlink:href="img/10.jpg"/>
<image preserveAspectRatio="none" x="44" y="537" width="56" height="56" xlink:href="img/11.jpg"/>
<image preserveAspectRatio="none" x="44" y="708" width="56" height="56" xlink:href="img/12.jpg"/>
<path d="M632.1 778.4H797.2V697.3H632.1v81.1Z" class="g4_22"/>
<path d="M702.3 735.9h94.9M632.1 697.3c45.6 0 82 36.1 82 81.1" class="g5_22"/>
<image preserveAspectRatio="none" x="44" y="865" width="56" height="56" xlink:href="img/13.jpg"/>
<image preserveAspectRatio="none" x="625" y="958" width="191" height="126" xlink:href="img/14.jpg"/>
<image preserveAspectRatio="none" x="44" y="984" width="56" height="56" xlink:href="img/15.jpg"/>
</svg>