<?xml version="1.0" encoding="UTF-8" standalone="no"?>
<!DOCTYPE svg PUBLIC "-//W3C//DTD SVG 1.1//EN"
"http://www.w3.org/Graphics/SVG/1.1/DTD/svg11.dtd">
<svg viewBox="0 0 909 1286" version="1.1" xmlns="http://www.w3.org/2000/svg" xmlns:xlink="http://www.w3.org/1999/xlink">
<defs>
<clipPath id="c0_8"><path d="M-.2 1286.6v-74.9h910v74.9Z"/></clipPath>
<clipPath id="c1_8"><path d="M750.3 461.1V365.2h99.2v95.9Z"/></clipPath>
<clipPath id="c2_8"><path d="M727.8 836.6V673.7H848.9V836.6Z"/></clipPath>
<style type="text/css"><![CDATA[
.g0_8{
fill: none;
stroke: #000;
stroke-width: 0.763;
stroke-linecap: square;
stroke-miterlimit: 10;
}
.g1_8{
fill: none;
stroke: #000;
stroke-width: 0.765;
stroke-linecap: square;
stroke-miterlimit: 10;
}
.g2_8{
fill: none;
stroke: #000;
stroke-width: 0.761;
stroke-linecap: square;
stroke-miterlimit: 10;
}
.g3_8{
fill: none;
stroke: #000;
stroke-width: 1.523;
stroke-linecap: square;
stroke-miterlimit: 10;
}
.g4_8{
fill: none;
stroke: #000;
stroke-width: 1.527;
stroke-linecap: square;
stroke-miterlimit: 10;
}
.g5_8{
fill: none;
stroke: #000;
stroke-width: 0.909;
stroke-linecap: square;
stroke-miterlimit: 10;
}
.g6_8{
fill: none;
stroke: #000;
stroke-width: 0.907;
stroke-linecap: square;
stroke-miterlimit: 10;
}
.g7_8{
fill: #DCDDDD;
}
.g8_8{
fill: none;
stroke: #000;
stroke-width: 0.862;
stroke-linecap: round;
stroke-miterlimit: 8;
}
.g9_8{
fill: none;
stroke: #000;
stroke-width: 0.862;
stroke-miterlimit: 8;
}
]]></style>
</defs>
<image clip-path="url(#c0_8)" preserveAspectRatio="none" x="-4" y="1212" width="952" height="131" xlink:href="img/1.jpg"/>
<path d="M355 74.2h25.2M432.9 74h24" class="g0_8"/>
<path d="M573.5 74.2h23.8m-429 27.7h23.2" class="g1_8"/>
<path d="M308.9 101.9h22.8" class="g2_8"/>
<path d="M315.9 223.8h23.8" class="g1_8"/>
<path d="M461.5 235.9l2.3 -1.3" class="g2_8"/>
<path d="M463.8 235l3.4 5.7" class="g3_8"/>
<path d="M467.6 240.7L472 223.6m0 0h11" class="g2_8"/>
<path d="M526.7 223.8h25.2M138 287.1l2.3 -1.3" class="g0_8"/>
<path d="M140.3 286.2l3.4 5.6" class="g4_8"/>
<path d="M144.1 291.8l4.5 -17.1m0 0h11m-23.5 23.2h25m51.7 -10.8l2.3 -1.3" class="g0_8"/>
<path d="M215.1 286.2l3.4 5.6" class="g4_8"/>
<path d="M218.9 291.8l4.5 -17.1m0 0h10.9m-23.5 23.2h25.1m63.9 .6l2.3 -1.4" class="g0_8"/>
<path d="M302.1 297.5l3.4 5.7" class="g4_8"/>
<path d="M305.9 303.2l4.5 -17.1m0 0h10.9" class="g0_8"/>
<path d="M386.3 298.5l2.3 -1.4" class="g2_8"/>
<path d="M388.6 297.5l3.4 5.7" class="g3_8"/>
<path d="M392.4 303.2l4.5 -17.1m0 0h10.9" class="g2_8"/>
<path d="M320.5 372h25.1" class="g0_8"/>
<path d="M362.6 372h23.3" class="g1_8"/>
<path d="M505.6 372h25.2" class="g0_8"/>
<path d="M583.6 372h23.2m99.1 .1h24.3M334.5 398.2h23.7" class="g1_8"/>
<path d="M492.3 687.6h25.1" class="g0_8"/>
<path d="M570.2 687.4h24.1m-483 27.8h24.4" class="g5_8"/>
<path d="M233.6 715.4h25.2" class="g6_8"/>
<path d="M320.7 715.2h24.1" class="g5_8"/>
<path d="M461.3 715.2H490" class="g6_8"/>
<path d="M129.7 742.9h28.7" class="g5_8"/>
<path d="M373.3 867.1h24.3" class="g0_8"/>
<path d="M165.6 894.8h23.2m135.7 0h24.4m147.8 0h23.2" class="g1_8"/>
<path d="M573.2 894.6h24M456 1035.9h24.6" class="g0_8"/>
<path d="M506.4 1035.8h24.1m134.9 .1h24.3" class="g1_8"/>
<path d="M136.1 1108.7h20.2m50 0h20.2m50 0h20.2m51.1 0h20" class="g0_8"/>
<image preserveAspectRatio="none" x="741" y="69" width="118" height="103" xlink:href="img/2.jpg"/>
<image preserveAspectRatio="none" x="43" y="95" width="57" height="56" xlink:href="img/3.jpg"/>
<image preserveAspectRatio="none" x="43" y="244" width="57" height="57" xlink:href="img/4.jpg"/>
<image preserveAspectRatio="none" x="741" y="212" width="69" height="131" xlink:href="img/5.jpg"/>
<image preserveAspectRatio="none" x="43" y="390" width="57" height="57" xlink:href="img/6.jpg"/>
<image clip-path="url(#c1_8)" preserveAspectRatio="none" x="751" y="366" width="98" height="95" xlink:href="img/7.jpg"/>
<image preserveAspectRatio="none" x="43" y="540" width="57" height="57" xlink:href="img/8.jpg"/>
<image preserveAspectRatio="none" x="733" y="520" width="121" height="110" xlink:href="img/9.jpg"/>
<image clip-path="url(#c2_8)" preserveAspectRatio="none" x="728" y="674" width="121" height="162" xlink:href="img/10.jpg"/>
<image preserveAspectRatio="none" x="43" y="707" width="57" height="56" xlink:href="img/11.jpg"/>
<image preserveAspectRatio="none" x="43" y="888" width="57" height="56" xlink:href="img/12.jpg"/>
<path fill-rule="evenodd" d="M738.8 917.6C730.4 896.5 710 882.1 686.2 882.1v-.8h83.2V883c0 7.6 .9 11.8 3.4 18.6l.8 1.6l-33.9 13.6Z" class="g7_8"/>
<path d="M827.1 939.6H686.2V881.3H827.1v58.3Z" class="g8_8"/>
<path d="M686.2 938.7L827.1 881.3m-88.3 36.3C730.4 896.5 710 882.1 686.2 882.1l83.2 -.8c0 7.6 1.7 15.2 4.2 21.9" class="g9_8"/>
<image preserveAspectRatio="none" x="733" y="1026" width="103" height="99" xlink:href="img/13.png"/>
<image preserveAspectRatio="none" x="43" y="1056" width="57" height="57" xlink:href="img/14.jpg"/>
</svg>