<?xml version="1.0" encoding="UTF-8" standalone="no"?>
<!DOCTYPE svg PUBLIC "-//W3C//DTD SVG 1.1//EN"
"http://www.w3.org/Graphics/SVG/1.1/DTD/svg11.dtd">
<svg viewBox="0 0 909 1286" version="1.1" xmlns="http://www.w3.org/2000/svg" xmlns:xlink="http://www.w3.org/1999/xlink">
<defs>
<clipPath id="c0_6"><path d="M-.2 1286.6v-74.9h910v74.9Z"/></clipPath>
<clipPath id="c1_6"><path d="M588.9 1092.5v-91.7h91.6v91.7Z"/></clipPath>
<style type="text/css"><![CDATA[
.g0_6{
fill: none;
stroke: #000;
stroke-width: 0.763;
stroke-linecap: square;
stroke-miterlimit: 10;
}
.g1_6{
fill: none;
stroke: #000;
stroke-width: 0.765;
stroke-linecap: square;
stroke-miterlimit: 10;
}
.g2_6{
fill: none;
stroke: #000;
stroke-width: 0.762;
stroke-linecap: square;
stroke-miterlimit: 10;
}
.g3_6{
fill: #000;
}
]]></style>
</defs>
<image clip-path="url(#c0_6)" preserveAspectRatio="none" x="-4" y="1212" width="952" height="131" xlink:href="img/1.jpg"/>
<path d="M300 74h25.2" class="g0_6"/>
<path d="M342.3 73.9h24.1m24.9 .1h23.2" class="g1_6"/>
<path d="M431.8 73.9h26" class="g2_6"/>
<path d="M172.7 125.4h25m-44.4 27.9h24.1m12.6 28h23.2" class="g0_6"/>
<path d="M238.9 181.2h24.4m163.5 .1h24.4" class="g1_6"/>
<path d="M191.1 210.2h25.2" class="g0_6"/>
<path d="M241.5 210.1h24.1" class="g1_6"/>
<path d="M430.5 210.2h26.9" class="g0_6"/>
<image preserveAspectRatio="none" x="142" y="332" width="129" height="97" xlink:href="img/2.jpg"/>
<image preserveAspectRatio="none" x="304" y="334" width="202" height="95" xlink:href="img/3.jpg"/>
<image preserveAspectRatio="none" x="539" y="334" width="126" height="95" xlink:href="img/4.jpg"/>
<image preserveAspectRatio="none" x="701" y="335" width="125" height="94" xlink:href="img/5.jpg"/>
<path d="M168.7 488.5h23.8m16.9 0h24.4" class="g1_6"/>
<path d="M293.6 488.5h24.3" class="g0_6"/>
<path d="M379.1 488.5h23.8m52.7 0H480" class="g1_6"/>
<path d="M111.5 653.2h36.6v-.9H111.5v.9Z" class="g3_6"/>
<path d="M267.3 897.4h11.1" class="g0_6"/>
<image preserveAspectRatio="none" x="146" y="1001" width="91" height="91" xlink:href="img/6.jpg"/>
<image preserveAspectRatio="none" x="284" y="1001" width="91" height="91" xlink:href="img/7.jpg"/>
<image preserveAspectRatio="none" x="436" y="1001" width="91" height="91" xlink:href="img/8.jpg"/>
<image clip-path="url(#c1_6)" preserveAspectRatio="none" x="589" y="1001" width="91" height="91" xlink:href="img/9.jpg"/>
<image preserveAspectRatio="none" x="681" y="78" width="159" height="105" xlink:href="img/10.jpg"/>
<image preserveAspectRatio="none" x="43" y="94" width="57" height="57" xlink:href="img/11.jpg"/>
<image preserveAspectRatio="none" x="43" y="306" width="57" height="56" xlink:href="img/12.jpg"/>
<image preserveAspectRatio="none" x="43" y="508" width="57" height="57" xlink:href="img/13.jpg"/>
<image preserveAspectRatio="none" x="729" y="488" width="96" height="110" xlink:href="img/14.jpg"/>
<image preserveAspectRatio="none" x="43" y="651" width="57" height="57" xlink:href="img/15.jpg"/>
<image preserveAspectRatio="none" x="43" y="797" width="57" height="56" xlink:href="img/16.jpg"/>
<image preserveAspectRatio="none" x="654" y="771" width="190" height="162" xlink:href="img/17.jpg"/>
<image preserveAspectRatio="none" x="713" y="967" width="91" height="90" xlink:href="img/18.jpg"/>
<image preserveAspectRatio="none" x="43" y="987" width="57" height="56" xlink:href="img/19.jpg"/>
</svg>