<?xml version="1.0" encoding="UTF-8" standalone="no"?>
<!DOCTYPE svg PUBLIC "-//W3C//DTD SVG 1.1//EN"
"http://www.w3.org/Graphics/SVG/1.1/DTD/svg11.dtd">
<svg viewBox="0 0 909 1286" version="1.1" xmlns="http://www.w3.org/2000/svg" xmlns:xlink="http://www.w3.org/1999/xlink">
<defs>
<clipPath id="c0_4"><path d="M-.2 1286.6v-75.1h910v75.1Z"/></clipPath>
<clipPath id="c1_4"><path d="M631.3 125.6V81.9h218v43.7Z"/></clipPath>
<clipPath id="c2_4"><path d="M588.6 285.2V241.4H850.5v43.8Z"/></clipPath>
<clipPath id="c3_4"><path d="M43.4 320.9V258.3H106v62.6Z"/></clipPath>
<clipPath id="c4_4"><path d="M43.4 465.4V402.8H106v62.6Z"/></clipPath>
<clipPath id="c5_4"><path d="M43.4 582.3V519.7H106v62.6Z"/></clipPath>
<clipPath id="c6_4"><path d="M43.4 840.6V778H106v62.6Z"/></clipPath>
<style type="text/css"><![CDATA[
.g0_4{
fill: #000;
}
]]></style>
</defs>
<image clip-path="url(#c0_4)" preserveAspectRatio="none" x="-2" y="1212" width="930" height="127" xlink:href="img/1.jpg"/>
<path d="M208.4 138.9H245V138H208.4v.9Z" class="g0_4"/>
<path d="M208.4 140.7H245v-.9H208.4v.9Z" class="g0_4"/>
<path d="M111.6 779.3h36.6v-1H111.6v1Z" class="g0_4"/>
<path d="M401.6 803.1h36.7v-.9H401.6v.9Z" class="g0_4"/>
<image clip-path="url(#c1_4)" preserveAspectRatio="none" x="632" y="82" width="217" height="43" xlink:href="img/2.jpg"/>
<image preserveAspectRatio="none" x="44" y="90" width="62" height="62" xlink:href="img/3.jpg"/>
<image clip-path="url(#c2_4)" preserveAspectRatio="none" x="589" y="242" width="261" height="43" xlink:href="img/4.jpg"/>
<image clip-path="url(#c3_4)" preserveAspectRatio="none" x="44" y="259" width="62" height="62" xlink:href="img/5.jpg"/>
<image clip-path="url(#c4_4)" preserveAspectRatio="none" x="44" y="403" width="62" height="62" xlink:href="img/6.jpg"/>
<image clip-path="url(#c5_4)" preserveAspectRatio="none" x="44" y="520" width="62" height="62" xlink:href="img/7.jpg"/>
<image preserveAspectRatio="none" x="609" y="501" width="253" height="44" xlink:href="img/8.jpg"/>
<image preserveAspectRatio="none" x="44" y="640" width="62" height="62" xlink:href="img/9.jpg"/>
<image clip-path="url(#c6_4)" preserveAspectRatio="none" x="44" y="778" width="62" height="62" xlink:href="img/10.jpg"/>
<image preserveAspectRatio="none" x="44" y="895" width="62" height="62" xlink:href="img/11.jpg"/>
<image preserveAspectRatio="none" x="543" y="877" width="309" height="52" xlink:href="img/12.jpg"/>
<image preserveAspectRatio="none" x="44" y="1037" width="62" height="62" xlink:href="img/13.jpg"/>
<image preserveAspectRatio="none" x="44" y="1157" width="62" height="62" xlink:href="img/14.jpg"/>
</svg>