<?xml version="1.0" encoding="UTF-8" standalone="no"?>
<!DOCTYPE svg PUBLIC "-//W3C//DTD SVG 1.1//EN"
"http://www.w3.org/Graphics/SVG/1.1/DTD/svg11.dtd">
<svg viewBox="0 0 909 1286" version="1.1" xmlns="http://www.w3.org/2000/svg" xmlns:xlink="http://www.w3.org/1999/xlink">
<defs>
<clipPath id="c0_2"><path d="M-.2 1286.6v-57.8h910v57.8Z"/></clipPath>
<style type="text/css"><![CDATA[
.g0_2{
fill: #FFFFEF;
}
.g1_2{
fill: none;
stroke: #000;
stroke-width: 1.099;
stroke-linecap: square;
stroke-miterlimit: 10;
}
.g2_2{
fill: none;
stroke: #ED7D31;
stroke-width: 1.099;
stroke-linecap: square;
stroke-miterlimit: 10;
}
.g3_2{
fill: #CFC;
}
.g4_2{
fill: #70AD47;
}
.g5_2{
fill: #6C3;
}
.g6_2{
fill: #F90;
}
.g7_2{
fill: #96F;
}
]]></style>
</defs>
<image clip-path="url(#c0_2)" preserveAspectRatio="none" x="-2" y="1229" width="930" height="128" xlink:href="img/1.jpg"/>
<path fill-rule="evenodd" d="M45.8 703.1c-1.4 0 -2.5 1.1 -2.5 2.4v79c0 1.4 1.1 2.5 2.5 2.5H865.9c1.3 0 2.4 -1.1 2.4 -2.5v-79c0 -1.3 -1.1 -2.4 -2.4 -2.4Z" class="g0_2"/>
<path d="M449 153.8h35.6" class="g1_2"/>
<path d="M252.1 331.5h13.2" class="g2_2"/>
<path fill-rule="evenodd" d="M71.1 953.3h81.8V925.8H71.1v27.5Z" class="g3_2"/>
<path d="M79 953.3h66V925.8H79v27.5Z" class="g3_2"/>
<path d="M70.4 925.8h.7v-.7h-.7v.7Z" class="g4_2"/>
<path d="M70.4 925.8h.7v-.7h-.7v.7Z" class="g4_2"/>
<path d="M71.1 925.8h81.8v-.7H71.1v.7Z" class="g4_2"/>
<path d="M152.9 925.8h.7v-.7h-.7v.7Z" class="g4_2"/>
<path d="M153.6 925.8H861.9v-.7H153.6v.7Z" class="g4_2"/>
<path d="M861.9 925.8h.7v-.7h-.7v.7Z" class="g4_2"/>
<path d="M861.9 925.8h.7v-.7h-.7v.7Z" class="g4_2"/>
<path d="M70.4 953.3h.7V925.8h-.7v27.5Z" class="g4_2"/>
<path d="M152.9 953.3h.7V925.8h-.7v27.5Z" class="g4_2"/>
<path d="M861.9 953.3h.7V925.8h-.7v27.5Z" class="g4_2"/>
<path fill-rule="evenodd" d="M71.1 981.7h81.8V954.2H71.1v27.5Z" class="g3_2"/>
<path d="M79 981.7h66V954.2H79v27.5Z" class="g3_2"/>
<path d="M70.4 954.1h.7v-.8h-.7v.8Z" class="g4_2"/>
<path d="M71.1 954.1h81.8v-.8H71.1v.8Z" class="g4_2"/>
<path d="M152.9 954.1h.7v-.8h-.7v.8Z" class="g4_2"/>
<path d="M153.6 954.1H861.9v-.8H153.6v.8Z" class="g4_2"/>
<path d="M861.9 954.1h.7v-.8h-.7v.8Z" class="g4_2"/>
<path d="M70.4 981.7h.7V954.1h-.7v27.6Z" class="g4_2"/>
<path d="M152.9 981.7h.7V954.1h-.7v27.6Z" class="g4_2"/>
<path d="M861.9 981.7h.7V954.1h-.7v27.6Z" class="g4_2"/>
<path fill-rule="evenodd" d="M71.1 1038.2h81.8V982.5H71.1v55.7Z" class="g3_2"/>
<path d="M79 1010h66V982.5H79V1010Z" class="g3_2"/>
<path d="M79 1037.5h66V1010H79v27.5Z" class="g3_2"/>
<path d="M70.4 982.5h.7v-.8h-.7v.8Z" class="g4_2"/>
<path d="M71.1 982.5h81.8v-.8H71.1v.8Z" class="g4_2"/>
<path d="M152.9 982.5h.7v-.8h-.7v.8Z" class="g4_2"/>
<path d="M153.6 982.5H861.9v-.8H153.6v.8Z" class="g4_2"/>
<path d="M861.9 982.5h.7v-.8h-.7v.8Z" class="g4_2"/>
<path d="M70.4 1010h.7V982.5h-.7V1010Z" class="g4_2"/>
<path d="M152.9 1010h.7V982.5h-.7V1010Z" class="g4_2"/>
<path d="M861.9 1010h.7V982.5h-.7V1010Z" class="g4_2"/>
<path d="M70.4 1010.7h.7v-.7h-.7v.7Z" class="g4_2"/>
<path d="M152.9 1010.7h.7v-.7h-.7v.7Z" class="g4_2"/>
<path d="M153.6 1010.7H861.9v-.7H153.6v.7Z" class="g4_2"/>
<path d="M861.9 1010.7h.7v-.7h-.7v.7Z" class="g4_2"/>
<path d="M70.4 1038.2h.7v-27.5h-.7v27.5Z" class="g4_2"/>
<path d="M152.9 1038.2h.7v-27.5h-.7v27.5Z" class="g4_2"/>
<path d="M861.9 1038.2h.7v-27.5h-.7v27.5Z" class="g4_2"/>
<path fill-rule="evenodd" d="M71.1 1093.9h81.8v-55H71.1v55Z" class="g3_2"/>
<path d="M79 1066.4h66v-27.5H79v27.5Z" class="g3_2"/>
<path d="M544 1065.7h9.1" class="g1_2"/>
<path d="M70.4 1038.9h.7v-.7h-.7v.7Z" class="g4_2"/>
<path d="M71.1 1038.9h81.8v-.7H71.1v.7Z" class="g4_2"/>
<path d="M152.9 1038.9h.7v-.7h-.7v.7Z" class="g4_2"/>
<path d="M153.6 1038.9H861.9v-.7H153.6v.7Z" class="g4_2"/>
<path d="M861.9 1038.9h.7v-.7h-.7v.7Z" class="g4_2"/>
<path d="M70.4 1093.9h.7v-55h-.7v55Z" class="g4_2"/>
<path d="M70.4 1094.7h.7v-.8h-.7v.8Z" class="g4_2"/>
<path d="M70.4 1094.7h.7v-.8h-.7v.8Z" class="g4_2"/>
<path d="M71.1 1094.7h81.8v-.8H71.1v.8Z" class="g4_2"/>
<path d="M152.9 1093.9h.7v-55h-.7v55Z" class="g4_2"/>
<path d="M152.9 1094.7h.7v-.8h-.7v.8Z" class="g4_2"/>
<path d="M153.6 1094.7H861.9v-.8H153.6v.8Z" class="g4_2"/>
<path d="M861.9 1093.9h.7v-55h-.7v55Z" class="g4_2"/>
<path d="M861.9 1094.7h.7v-.8h-.7v.8Z" class="g4_2"/>
<path d="M861.9 1094.7h.7v-.8h-.7v.8Z" class="g4_2"/>
<path d="M317.1 252.5h-.9l-.7 -.3l-.8 -.4l-.6 -.5l-.4 -.4l-.2 -.3l-.4 -.7l-.2 -.8l-.1 -.9V235.6l.1 -.9l.2 -.8l.4 -.7l.6 -.7l.6 -.6l.8 -.3l.7 -.3h14.3l.4 .1l.4 .2l.7 .3l.3 .3l.4 .3l.5 .7l.4 .7l.3 .8l.1 .9v12.6l-.1 .4v.5l-.3 .8l-.2 .3l-.1 .2l-.1 .2l-.3 .3l-.1 .2l-.1 .1v.1l-.4 .2l-.3 .3l-.2 .1l-.2 .1l-.3 .2l-.4 .1h-.1l-.1 .1l-.2 .1h-.8Z" class="g5_2"/>
<path d="M317.1 282.6l-.9 -.1l-.7 -.3l-.8 -.4l-.6 -.5l-.4 -.4l-.2 -.3l-.4 -.7l-.2 -.8l-.1 -.9V265.6l.1 -.9l.2 -.7l.4 -.8l.6 -.7l.6 -.6l.8 -.3l.7 -.3h14.3l.4 .1l.4 .2l.7 .3l.3 .3l.4 .3l.5 .7l.4 .8l.3 .7l.1 .9v12.6l-.1 .4v.5l-.3 .8l-.2 .3l-.1 .2l-.1 .2l-.3 .3l-.1 .2l-.1 .1v.1l-.4 .2l-.3 .3l-.2 .1l-.2 .1l-.3 .2l-.4 .2h-.2l-.2 .1h-.4l-.4 .1Z" class="g5_2"/>
<path d="M317.1 313.2l-.9 -.1l-.7 -.2l-.8 -.4l-.6 -.6l-.4 -.3l-.2 -.4l-.4 -.7l-.2 -.8l-.1 -.8V296.3l.1 -.9l.2 -.8l.4 -.8l.6 -.6l.6 -.6l.8 -.4l.7 -.2l.9 -.1h12.6l.8 .1h.4l.4 .2l.7 .4l.3 .2l.4 .4l.5 .6l.4 .8l.3 .8l.1 .9v12.6l-.1 .4v.4l-.3 .8l-.2 .4l-.1 .1l-.1 .2l-.3 .4l-.1 .1l-.1 .1v.1l-.4 .3l-.3 .3h-.2l-.2 .2l-.3 .2l-.4 .1h-.2l-.2 .1h-.4v.1h-.4Z" class="g5_2"/>
<path d="M317.1 343.2l-.9 -.1l-.7 -.2l-.8 -.4l-.6 -.6l-.4 -.3l-.2 -.3l-.4 -.7l-.2 -.9l-.1 -.8V326.3l.1 -.9l.2 -.8l.4 -.8l.6 -.6l.6 -.6l.8 -.4l.7 -.2l.9 -.1h12.6l.8 .1l.4 .1l.4 .1l.7 .4l.3 .2l.4 .4l.5 .6l.4 .8l.3 .8l.1 .9v12.6l-.1 .4v.4l-.3 .9l-.2 .3l-.1 .1l-.1 .3l-.3 .3l-.1 .1l-.1 .1v.1l-.4 .3l-.3 .3l-.2 .1l-.2 .1l-.3 .2l-.4 .1h-.1l-.1 .1h-.6v.1h-.4Z" class="g5_2"/>
<path d="M69.2 507.2l-.9 -.1l-.8 -.2l-.8 -.4l-.6 -.5l-.3 -.4l-.3 -.3l-.3 -.7l-.3 -.9V489.4l.3 -.8l.3 -.8l.6 -.6l.6 -.6l.8 -.4l.8 -.2H82.6l.3 .1l.4 .1l.7 .4l.3 .3l.4 .3l.6 .6l.4 .8l.2 .8l.1 .9v13l-.1 .1v.3l-.2 .9l-.2 .3l-.2 .2v.2l-.3 .3l-.2 .1l-.1 .1v.2l-.4 .2l-.3 .3l-.2 .1l-.2 .1l-.3 .2l-.4 .1h-.1l-.1 .1h-.5l-.1 .1h-.4Z" class="g5_2"/>
<path d="M72.6 615.3l-.6 -.1l-.5 -.2l-.5 -.3l-.4 -.3l-.4 -.5l-.2 -.2l-.1 -.2l-.1 -.3v-.3l-.1 -.5v-13l.1 -.6l.1 -.5l.3 -.5l.4 -.4L71 597l.5 -.3l.5 -.1l.6 -.1h32.8l.5 .1h.2l.3 .1l.5 .3l.5 .4l.3 .4l.3 .5l.2 .5v14.1l-.1 .3l-.1 .3l-.2 .2l-.1 .2l-.3 .5l-.5 .3l-.5 .3l-.3 .1l-.2 .1h-.3l-.2 .1Z" class="g6_2"/>
<path d="M72.8 645l-.8 -.1l-.8 -.2l-.8 -.4l-.6 -.5l-.4 -.4l-.2 -.3l-.4 -.7l-.2 -.8l-.1 -.9V628.1l.1 -.9l.2 -.8l.4 -.8l.6 -.6l.6 -.6l.8 -.4l.8 -.2H86.2l.4 .1l.4 .1l.7 .4l.3 .3l.4 .3l.5 .6l.4 .8l.3 .8l.1 .9v12.6l-.1 .4v.5l-.3 .8l-.2 .3l-.1 .2l-.1 .2l-.2 .3l-.2 .2h-.1v.2L88 644l-.3 .3l-.2 .1l-.2 .1l-.3 .2l-.4 .1h-.1l-.1 .1h-.5l-.1 .1h-.4Z" class="g5_2"/>
<path d="M50.2 699.6l-.6 -.1h-.5L48 699.2l-.9 -.4l-.8 -.5l-.4 -.4l-.3 -.3l-.3 -.4l-.2 -.4l-.2 -.4l-.1 -.4V681.8l.3 -.9l.5 -.7l.7 -.7l.8 -.6l.9 -.4l1.1 -.2l.5 -.1H96.4l.5 .1l.5 .1l.6 .1l.4 .2l.5 .2l.4 .3l.5 .3l.4 .3l.3 .4l.3 .3l.2 .4l.2 .5l.1 .4l.1 .5v13.2l-.1 .5l-.1 .4l-.2 .4l-.2 .4l-.3 .4l-.3 .3l-.2 .2l-.2 .2l-.5 .2l-.4 .3l-.5 .2l-.2 .1h-.1l-.1 .1h-.3v.1l-.3 .1l-.5 .1h-.8l-.2 .1Z" class="g7_2"/>
<image preserveAspectRatio="none" x="30" y="849" width="823" height="39" xlink:href="img/2.png"/>
<path d="M74.7 1164l-.9 -.1l-.8 -.2l-.8 -.4l-.6 -.6l-.3 -.3l-.3 -.3l-.3 -.7l-.3 -.9v-14.3l.3 -.8l.3 -.8l.6 -.6l.6 -.6l.8 -.4l.8 -.2l.9 -.1H87.2l.9 .1l.3 .1l.4 .1l.7 .4l.3 .2l.4 .4l.6 .6l.4 .8l.2 .8l.1 .9v13l-.1 .1v.3l-.2 .9l-.2 .3l-.2 .1v.3l-.3 .3l-.2 .1l-.1 .1v.1l-.4 .3l-.3 .3l-.2 .1l-.2 .1l-.3 .2l-.4 .1h-.1l-.1 .1h-.5l-.1 .1h-.4Z" class="g5_2"/>
</svg>