<?xml version="1.0" encoding="UTF-8" standalone="no"?>
<!DOCTYPE svg PUBLIC "-//W3C//DTD SVG 1.1//EN"
"http://www.w3.org/Graphics/SVG/1.1/DTD/svg11.dtd">
<svg viewBox="0 0 909 1286" version="1.1" xmlns="http://www.w3.org/2000/svg" xmlns:xlink="http://www.w3.org/1999/xlink">
<defs>
<clipPath id="c0_3"><path d="M-.2 1286.6v-74.9h910v74.9Z"/></clipPath>
<clipPath id="c1_3"><path d="M386.6 925.9V819.3H487.7V925.9Z"/></clipPath>
<clipPath id="c2_3"><path d="M512.6 925.9V819.1h102V925.9Z"/></clipPath>
<clipPath id="c3_3"><path d="M659.8 665.8V604.1H834.6v61.7Z"/></clipPath>
<clipPath id="c4_3"><path d="M737.8 886.7V721.6H872.2V886.7Z"/></clipPath>
<style type="text/css"><![CDATA[
.g0_3{
fill: none;
stroke: #000;
stroke-width: 0.763;
stroke-linecap: square;
stroke-miterlimit: 10;
}
]]></style>
</defs>
<image clip-path="url(#c0_3)" preserveAspectRatio="none" x="-4" y="1212" width="952" height="131" xlink:href="img/1.jpg"/>
<path d="M132 94h20.5M386.2 609.4h25.1" class="g0_3"/>
<image preserveAspectRatio="none" x="133" y="820" width="100" height="106" xlink:href="img/2.jpg"/>
<image preserveAspectRatio="none" x="258" y="819" width="105" height="107" xlink:href="img/3.jpg"/>
<image clip-path="url(#c1_3)" preserveAspectRatio="none" x="387" y="820" width="100" height="106" xlink:href="img/4.jpg"/>
<image clip-path="url(#c2_3)" preserveAspectRatio="none" x="513" y="819" width="101" height="107" xlink:href="img/5.jpg"/>
<image preserveAspectRatio="none" x="44" y="101" width="56" height="57" xlink:href="img/6.jpg"/>
<image preserveAspectRatio="none" x="44" y="415" width="56" height="56" xlink:href="img/7.jpg"/>
<image preserveAspectRatio="none" x="44" y="300" width="56" height="56" xlink:href="img/8.jpg"/>
<image preserveAspectRatio="none" x="671" y="179" width="194" height="159" xlink:href="img/9.jpg"/>
<image clip-path="url(#c3_3)" preserveAspectRatio="none" x="660" y="604" width="174" height="61" xlink:href="img/10.jpg"/>
<image preserveAspectRatio="none" x="750" y="536" width="71" height="61" xlink:href="img/11.jpg"/>
<image preserveAspectRatio="none" x="44" y="553" width="56" height="56" xlink:href="img/12.jpg"/>
<image preserveAspectRatio="none" x="613" y="722" width="135" height="165" xlink:href="img/13.jpg"/>
<image clip-path="url(#c4_3)" preserveAspectRatio="none" x="738" y="722" width="134" height="164" xlink:href="img/14.jpg"/>
<image preserveAspectRatio="none" x="44" y="743" width="56" height="56" xlink:href="img/15.jpg"/>
<image preserveAspectRatio="none" x="44" y="1016" width="56" height="57" xlink:href="img/16.jpg"/>
</svg>