<?xml version="1.0" encoding="UTF-8" standalone="no"?>
<!DOCTYPE svg PUBLIC "-//W3C//DTD SVG 1.1//EN"
"http://www.w3.org/Graphics/SVG/1.1/DTD/svg11.dtd">
<svg viewBox="0 0 909 1286" version="1.1" xmlns="http://www.w3.org/2000/svg" xmlns:xlink="http://www.w3.org/1999/xlink">
<defs>
<clipPath id="c0_17"><path d="M-.2 1286.6v-75.1h910v75.1Z"/></clipPath>
<clipPath id="c1_17"><path d="M-.2 151.6V-.2h910V151.6Z"/></clipPath>
<clipPath id="c2_17"><path d="M22.5 202.8V153H909.8v49.8Z"/></clipPath>
<style type="text/css"><![CDATA[
.g0_17{
fill: none;
stroke: #000;
stroke-width: 0.152;
stroke-linecap: square;
stroke-miterlimit: 10;
}
.g1_17{
fill: #000;
}
.g2_17{
fill: #00F;
}
.g3_17{
fill: #CFC;
}
.g4_17{
fill: none;
stroke: #000;
stroke-width: 0.763;
stroke-linecap: square;
stroke-miterlimit: 10;
}
.g5_17{
fill: none;
stroke: #000;
stroke-width: 1.527;
stroke-linecap: square;
stroke-miterlimit: 10;
}
.g6_17{
fill: none;
stroke: #000;
stroke-width: 1.073;
stroke-linecap: square;
stroke-miterlimit: 10;
}
.g7_17{
fill: #F00;
}
.g8_17{
fill: #6F9;
}
.g9_17{
fill: none;
stroke: #000;
stroke-width: 1.065;
stroke-linecap: square;
stroke-miterlimit: 10;
}
.ga_17{
fill: none;
stroke: #F60;
stroke-width: 1.145;
stroke-linecap: round;
stroke-miterlimit: 8;
}
.gb_17{
fill: #36F;
}
.gc_17{
fill: none;
stroke: #000;
stroke-width: 1.07;
stroke-linecap: square;
stroke-miterlimit: 10;
}
.gd_17{
fill: #6C3;
}
]]></style>
</defs>
<image clip-path="url(#c0_17)" preserveAspectRatio="none" x="-2" y="1212" width="930" height="127" xlink:href="img/1.jpg"/>
<path d="M424.4 557.4l1.9 -1.2m0 0l4.4 8.2m0 0l4.9 -21.6m0 0h54.3" class="g0_17"/>
<path d="M430.3 564.4l-4.5 -7.6l-1.2 .9l-.3 -.6l2.5 -1.5l3.9 6.9l4.6 -20.2h54.6v.9h-54l-4.7 21.2Z" class="g1_17"/>
<path d="M57 625H862.2v-.8H57v.8Z" class="g2_17"/>
<path d="M55.9 873.2H862.2v-.7H55.9v.7Z" class="g2_17"/>
<path fill-rule="evenodd" d="M71.1 956.4H207.9V928.9H71.1v27.5Z" class="g3_17"/>
<path d="M79 956.4H200V928.9H79v27.5Z" class="g3_17"/>
<path d="M70.4 928.9h.7v-.7h-.7v.7Z" class="g1_17"/>
<path d="M70.4 928.9h.7v-.7h-.7v.7Z" class="g1_17"/>
<path d="M71.1 928.9H207.9v-.7H71.1v.7Z" class="g1_17"/>
<path d="M207.9 928.9h.7v-.7h-.7v.7Z" class="g1_17"/>
<path d="M208.6 928.9H372.9v-.7H208.6v.7Z" class="g1_17"/>
<path d="M372.9 928.9h.7v-.7h-.7v.7Z" class="g1_17"/>
<path d="M373.6 928.9H537.9v-.7H373.6v.7Z" class="g1_17"/>
<path d="M537.9 928.9h.7v-.7h-.7v.7Z" class="g1_17"/>
<path d="M538.6 928.9H702.9v-.7H538.6v.7Z" class="g1_17"/>
<path d="M702.9 928.9h.7v-.7h-.7v.7Z" class="g1_17"/>
<path d="M703.6 928.9H861.9v-.7H703.6v.7Z" class="g1_17"/>
<path d="M861.9 928.9h.7v-.7h-.7v.7Z" class="g1_17"/>
<path d="M861.9 928.9h.7v-.7h-.7v.7Z" class="g1_17"/>
<path d="M70.4 956.4h.7V928.9h-.7v27.5Z" class="g1_17"/>
<path d="M207.9 956.4h.7V928.9h-.7v27.5Z" class="g1_17"/>
<path d="M372.9 956.4h.7V928.9h-.7v27.5Z" class="g1_17"/>
<path d="M537.9 956.4h.7V928.9h-.7v27.5Z" class="g1_17"/>
<path d="M702.9 956.4h.7V928.9h-.7v27.5Z" class="g1_17"/>
<path d="M861.9 956.4h.7V928.9h-.7v27.5Z" class="g1_17"/>
<path fill-rule="evenodd" d="M71.1 984.7H207.9V957.2H71.1v27.5Z" class="g3_17"/>
<path d="M79 984.7H200V957.2H79v27.5Z" class="g3_17"/>
<path d="M70.4 957.2h.7v-.8h-.7v.8Z" class="g1_17"/>
<path d="M71.1 957.2H207.9v-.8H71.1v.8Z" class="g1_17"/>
<path d="M207.9 957.2h.7v-.8h-.7v.8Z" class="g1_17"/>
<path d="M208.6 957.2H372.9v-.8H208.6v.8Z" class="g1_17"/>
<path d="M372.9 957.2h.7v-.8h-.7v.8Z" class="g1_17"/>
<path d="M373.6 957.2H537.9v-.8H373.6v.8Z" class="g1_17"/>
<path d="M537.9 957.2h.7v-.8h-.7v.8Z" class="g1_17"/>
<path d="M538.6 957.2H702.9v-.8H538.6v.8Z" class="g1_17"/>
<path d="M702.9 957.2h.7v-.8h-.7v.8Z" class="g1_17"/>
<path d="M703.6 957.2H861.9v-.8H703.6v.8Z" class="g1_17"/>
<path d="M861.9 957.2h.7v-.8h-.7v.8Z" class="g1_17"/>
<path d="M70.4 984.7h.7V957.2h-.7v27.5Z" class="g1_17"/>
<path d="M70.4 985.4h.7v-.7h-.7v.7Z" class="g1_17"/>
<path d="M70.4 985.4h.7v-.7h-.7v.7Z" class="g1_17"/>
<path d="M71.1 985.4H207.9v-.7H71.1v.7Z" class="g1_17"/>
<path d="M207.9 984.7h.7V957.2h-.7v27.5Z" class="g1_17"/>
<path d="M207.9 985.4h.7v-.7h-.7v.7Z" class="g1_17"/>
<path d="M208.6 985.4H372.9v-.7H208.6v.7Z" class="g1_17"/>
<path d="M372.9 984.7h.7V957.2h-.7v27.5Z" class="g1_17"/>
<path d="M372.9 985.4h.7v-.7h-.7v.7Z" class="g1_17"/>
<path d="M373.6 985.4H537.9v-.7H373.6v.7Z" class="g1_17"/>
<path d="M537.9 984.7h.7V957.2h-.7v27.5Z" class="g1_17"/>
<path d="M537.9 985.4h.7v-.7h-.7v.7Z" class="g1_17"/>
<path d="M538.6 985.4H702.9v-.7H538.6v.7Z" class="g1_17"/>
<path d="M702.9 984.7h.7V957.2h-.7v27.5Z" class="g1_17"/>
<path d="M702.9 985.4h.7v-.7h-.7v.7Z" class="g1_17"/>
<path d="M703.6 985.4H861.9v-.7H703.6v.7Z" class="g1_17"/>
<path d="M861.9 984.7h.7V957.2h-.7v27.5Z" class="g1_17"/>
<path d="M861.9 985.4h.7v-.7h-.7v.7Z" class="g1_17"/>
<path d="M861.9 985.4h.7v-.7h-.7v.7Z" class="g1_17"/>
<path d="M451.9 1086.6h22.6m20.3 13.8l2.3 -1.3" class="g4_17"/>
<path d="M497.1 1099.4l3.4 8.6" class="g5_17"/>
<path d="M500.9 1108l4.5 -24.5m0 0H637.7m-17.4 67.8h37.4m8.9 0H706" class="g4_17"/>
<image clip-path="url(#c1_17)" preserveAspectRatio="none" x="0" y="0" width="914" height="151" xlink:href="img/2.jpg"/>
<image clip-path="url(#c2_17)" preserveAspectRatio="none" x="23" y="153" width="1038" height="49" xlink:href="img/3.png"/>
<path d="M826.4 309.8l.6 -.7l.6 -.7l.2 -.3l.3 -.3l.4 -.7l.3 -.6l.1 -.7l.2 -.7v-.5l-.1 -.7l-.1 -.6l-.3 -.6l-.2 -.5l-.3 -.6l-.4 -.5l-.4 -.6l-.5 -.6l-.5 -.5l-.6 -.6l17.3 5.8l-17.3 5.8Z" class="g1_17"/>
<path d="M719.9 304.6H829.1" class="g6_17"/>
<path d="M785.2 256.9l-.7 -.6l-.7 -.6l-.6 -.4l-.7 -.4l-.6 -.3l-.7 -.2h-1.9l-.6 .1l-.6 .2l-.5 .3l-.6 .2l-.6 .4l-.6 .4l-.5 .5l-.6 .6l-.5 .6L780 240.5l5.8 17.2Z" class="g1_17"/>
<path d="M780 359.4v-105" class="g6_17"/>
<path d="M779.6 307.1l-.4 -.2l-.4 -.2l-.4 -.3l-.2 -.2l-.1 -.2l-.2 -.4l-.1 -.2v-.2l-.1 -.5l.1 -.5l.1 -.5l.2 -.4l.3 -.3l.4 -.4l.4 -.2l.4 -.1h1.2l.3 .1l.4 .2l.4 .4l.3 .3l.2 .4l.1 .5l.1 .5l-.1 .5v.2l-.1 .2l-.1 .2l-.1 .2l-.2 .2l-.1 .2l-.2 .1l-.2 .2l-.2 .1l-.2 .1l-.3 .1l-.2 .1h-.4Z" class="g7_17"/>
<path d="M775.6 437.2h40.8v50.3H775.6V437.2Z" class="g8_17"/>
<path d="M816.4 437.2h-6.5m-6.4 0H797m-6.4 0h-6.4m-6.5 0h-2.1v4.3m0 6.5v6.5m0 6.5v6.5m0 6.5v6.4m0 6.5v.6" class="g9_17"/>
<path d="M842 493.4l.7 -.7l.5 -.6l.2 -.4l.3 -.3l.4 -.7l.3 -.6l.1 -.7l.2 -.7v-.5l-.1 -.7l-.2 -.6l-.2 -.6l-.2 -.5l-.3 -.6l-.4 -.5l-.4 -.6l-.5 -.6l-.5 -.5l-.6 -.6l17.2 5.8l-17.2 5.9Z" class="g1_17"/>
<path d="M736.3 488.2H844.7" class="g9_17"/>
<path d="M822 427.3l-.6 -.6l-.7 -.6l-.6 -.5l-.7 -.4l-.7 -.2l-.6 -.2l-.7 -.1h-1.2l-.6 .2l-.6 .1l-.5 .3l-.6 .3l-.5 .4l-.6 .4l-.6 .5l-.5 .5l-.6 .7l5.8 -17.3l5.8 17.3Z" class="g1_17"/>
<path d="M816.8 530.3V424.7" class="g9_17"/>
<path d="M774.8 439.8l-.4 -.1l-.5 -.2l-.3 -.3l-.3 -.4l-.2 -.4l-.1 -.2l-.1 -.3V437l.2 -.5l.2 -.4l.3 -.3l.3 -.4l.5 -.2l.4 -.1H776l.2 .1l.4 .2l.4 .4l.3 .3l.2 .4l.1 .5l.1 .5v.2l-.1 .2v.3l-.1 .2l-.1 .2l-.1 .2l-.2 .2l-.1 .2l-.2 .1l-.2 .2l-.2 .1l-.2 .1l-.2 .1h-.2l-.3 .1h-.2Z" class="g7_17"/>
<path d="M194.3 671.4H524.6v-45H194.3v45Z" class="ga_17"/>
<path fill-rule="evenodd" d="M87.2 624.9H56.1V872.6H87.2L97.6 748.7Z" class="gb_17"/>
<image x="112" y="630" width="77" height="39" xlink:href="shade/1.png"/>
<path d="M782.8 758.4l.6 -.7l.5 -.6l.3 -.4l.2 -.3l.4 -.6l.3 -.7l.2 -.7l.1 -.7v-.5l-.1 -.7l-.1 -.5l-.2 -.7l-.3 -.5l-.3 -.6l-.3 -.5l-.5 -.6l-.4 -.6l-.6 -.5l-.6 -.6l17.3 5.8L782 759.1Z" class="g1_17"/>
<path d="M619.5 753.2H785.1" class="gc_17"/>
<path d="M712 685.8l-.7 -.6l-.7 -.6l-.6 -.4l-.7 -.4l-.7 -.3l-.6 -.2h-.7l-.3 -.1l-.3 .1h-.6l-.6 .1l-.6 .2l-.6 .3l-.5 .2l-.6 .4l-.6 .4l-.5 .6l-.6 .5l-.5 .6l5.8 -17.3l5.8 17.3Z" class="g1_17"/>
<path d="M706.7 832.6V683.3" class="gc_17"/>
<path d="M75 1064.5l-.9 -.1l-.8 -.2l-.7 -.5l-.7 -.5l-.3 -.4l-.3 -.3l-.3 -.7l-.3 -.8v-14.4l.3 -.7l.3 -.8l.6 -.7l.7 -.5l.7 -.4l.8 -.2l.9 -.1H87.5l.9 .1h.3l.4 .2l.7 .4l.3 .2l.4 .3l.6 .7l.4 .8l.2 .7l.1 .9v13.1h-.1v.4l-.2 .8l-.2 .3l-.1 .2l-.1 .2l-.3 .3l-.2 .2l-.1 .1v.1l-.4 .3l-.3 .2l-.2 .1l-.1 .1l-.4 .3l-.4 .1h-.2l-.1 .1h-.5l-.4 .1Z" class="gd_17"/>
</svg>