<?xml version="1.0" encoding="UTF-8" standalone="no"?>
<!DOCTYPE svg PUBLIC "-//W3C//DTD SVG 1.1//EN"
"http://www.w3.org/Graphics/SVG/1.1/DTD/svg11.dtd">
<svg viewBox="0 0 909 1286" version="1.1" xmlns="http://www.w3.org/2000/svg" xmlns:xlink="http://www.w3.org/1999/xlink">
<defs>
<clipPath id="c0_8"><path d="M-.2 1286.6v-74.9h910v74.9Z"/></clipPath>
<clipPath id="c1_8"><path d="M684.5 375.3V262.9H852.2V375.3Z"/></clipPath>
<style type="text/css"><![CDATA[
.g0_8{
fill: none;
stroke: #000;
stroke-width: 0.947;
stroke-linecap: square;
stroke-miterlimit: 10;
}
.g1_8{
fill: none;
stroke: #000;
stroke-width: 0.944;
stroke-linecap: square;
stroke-miterlimit: 10;
}
.g2_8{
fill: none;
stroke: #000;
stroke-width: 0.949;
stroke-linecap: square;
stroke-miterlimit: 10;
}
.g3_8{
fill: #E6E6E6;
}
.g4_8{
fill: #000;
}
.g5_8{
fill: none;
stroke: #000;
stroke-width: 1.145;
stroke-linecap: square;
stroke-miterlimit: 10;
}
.g6_8{
fill: none;
stroke: #000;
stroke-width: 0.763;
stroke-linecap: square;
stroke-miterlimit: 10;
}
.g7_8{
fill: #CCC;
}
.g8_8{
fill: none;
stroke: #4D4D4D;
stroke-width: 0.765;
stroke-linecap: square;
stroke-miterlimit: 10;
}
.g9_8{
fill: none;
stroke: #000;
stroke-width: 1.148;
stroke-linecap: square;
stroke-miterlimit: 10;
}
.ga_8{
fill: none;
stroke: #000;
stroke-width: 1.914;
stroke-linecap: square;
stroke-miterlimit: 10;
}
]]></style>
</defs>
<image clip-path="url(#c0_8)" preserveAspectRatio="none" x="-4" y="1212" width="952" height="131" xlink:href="img/1.jpg"/>
<path d="M408.1 1015.3h31.2" class="g0_8"/>
<path d="M466.3 1015.3h27.5" class="g1_8"/>
<path d="M407.2 1043.4h31.2" class="g0_8"/>
<path d="M465.4 1043.4h28.8" class="g2_8"/>
<path d="M144.9 1071.5H175m196.8 0h31.3" class="g0_8"/>
<path d="M430 1071.5h27.5" class="g1_8"/>
<path d="M146 1100.6h30.2" class="g2_8"/>
<path d="M372.8 1100.6H404m26.9 0h28.8" class="g0_8"/>
<image preserveAspectRatio="none" x="43" y="92" width="57" height="56" xlink:href="img/2.jpg"/>
<path d="M683.2 123.8H805.8l-111.5 65Z" class="g3_8"/>
<path d="M688.6 120.4h-4.2l.4 -.4h.7l.4 -.4v-3h-5.3l-.8 1.1l-1.1 1.6v.3l.3 .4h1.2v.4h-3.8V120h.7l.8 -.4l.4 -.7l.4 -.4l.3 -.4l.8 -1.5l5 -7.3h.7l.4 -.4h.4v1.6l.4 1.1l.4 5.4v1.1l.3 1.5h.4l.4 .4h.8v.4Zm-3.8 -9.9l-3.9 5.3h4.6l-.4 -6.1Z" class="g4_8"/>
<path d="M692 203.7h-4.9v-.4h.7l.8 -.4l.4 -.8l2.2 -8.4V193h-1.5v-.4H697l.4 .4l.3 .4l.4 .3l.4 .8v.4l-.4 1.1l-.7 .8l-1.2 .4l-1.1 .4l.7 .3l.8 .4l.8 .8l.3 .7v.4l-.3 1.2l-.4 .7l-1.2 .8l-1.5 .4l-1.1 .4Zm-1.9 -1.6v.8h.4v.4h2.3l1.1 -.4l.8 -.4l.7 -.4l.8 -1.1v-2.3l-.8 -.4l-1.1 -.4h-3.1Zm2.7 -8.7l-.4 .3l-.4 1.9l-.4 1.2v.8h2.7l.8 -.4h.7l.4 -.8l.4 -.4l.4 -.7l.4 -.8l-.4 -.4v-.7h-.4l-.4 -.4h-3Z" class="g4_8"/>
<path d="M815 120.8h-2l-.7 -.4l-.8 -.8l-.7 -.7l-.4 -1.2l-.4 -1.1v-.4l.8 -1.9l.7 -1.9l.4 -.8l.8 -.7l1.1 -.8l.8 -.8h1.1l.8 -.4h.4l.7 .4l.8 .4l.8 .4l1.1 1.5v3.1l-.8 1.9l-1.1 2.3l-1.5 1.1l-1.6 .8Zm0 -10.7l-1.2 .8l-1.1 1.5l-.8 1.9l-.4 1.5v2.7l.4 .8l1.1 .7l.8 .4l1.5 -.4l1.2 -.7l1.1 -1.2l.8 -1.5l.4 -1.9l.4 -2.3v-1.2l-.4 -.7l-.8 -.8h-2.3Z" class="g4_8"/>
<path d="M855.8 130.3h-.4V120l-2.7 8.4v1.2l.4 .4h.8v.3h-3.4V130h.7l.4 -.4l.4 -.4v-.8l.4 -.7l2.3 -6.9V120l-.4 -.4h-.8v-.3h3.1V128h.3l5 -8.4l.4 -.3h3l-.3 .3h-.4l-.4 .4l-.4 .4v.4l-2.3 7.6v1.2l.4 .4h.8v.3h-4.2V130h.7l.4 -.4l.4 -.8l.4 -.8l2.3 -8l-5.8 8.8l-.7 1.5l-.4 .4Z" class="g4_8"/>
<path d="M801.6 76.5v-.4h.4l.7 -.4l.4 -.4l.4 -.3v-.4l2.3 -8.1v-.3l-.4 -.4h-1.1v-.4h4.5v.4h-1.1l-.4 .4l-.4 .3L804.6 75v.7h.4l.4 .4h2.7l1.1 -.4l.8 -.4l.8 -.7l1.1 -.8h.4l-.8 1.2l-.7 1.5Z" class="g4_8"/>
<path d="M673.7 123.8H847.4M694.7 188.4L805.8 124.2M694.3 188L683.2 123.8m122.6 82.5V79.9" class="g5_8"/>
<path d="M805.8 123.8h-6.5v-6.5h6.5v6.5Z" class="g6_8"/>
<path d="M690.5 135.7h-.4l-.4 -.4l-.7 -.4l-.4 -.7l-.4 -.8l.4 -.8l.4 -.7l.7 -.4l.4 -.4l-.8 -.4l-.3 -.4l-.4 -.3v-2l.7 -.7l.8 -.4h1.5l.8 .8l.4 .3v1.2l-.4 .8l-.8 .7l.4 .4l.4 .4l.4 .7l.4 .4v1.6l-.4 .7l-.8 .4l-.4 .4Zm-.8 -3.5l-.4 .8l-.3 .8l.3 .4v.3l.8 .8h1.5l.4 -.8l.4 -.7v-1.2l-.8 -.4l-.4 -.3l-.7 -.4h-.4Zm-.4 -4.5v1.9l.4 .4l.8 .3l.4 .4h.3l.4 -.7l.4 -.4V128l-.4 -.3l-.4 -.4h-1.1Z" class="g4_8"/>
<path d="M696.6 135.7h-.8l-.4 -.8l-.7 -1.1l-.4 -1.6v-2.6l.8 -1.6l.7 -.7l.4 -.4h1.2l.7 .8l.4 .7l.4 1.6v3.8l-.4 .7l-.4 .8l-.7 .4Zm-.4 -8l-.4 .3l-.4 1.6v4.9l.4 .4l.4 .4h1.2l.3 -1.1l.4 -.8v-3.8l-.4 -.8V128l-.3 -.3v-.4h-.8Z" class="g4_8"/>
<path d="M700.8 128.4l-.4 -.7l.4 -1.2l.8 -.4l1.1 .4l.4 1.2l-.4 .7l-1.1 .4Zm.4 -1.5l-.4 .8l.4 .3l.4 .4l.7 -.4l.4 -.3l-.4 -.8l-.7 -.4Z" class="g4_8"/>
<path d="M697.4 180v-.4H697v-1.1l.4 -1.2l.3 -.8l.4 -1.1l.4 -1.1l1.1 -1.6v-.4l.4 -.3h-3l-.4 .3l-.4 .4v.8h-.4l.4 -2.3h4.2v.8l-.8 1.5l-1.1 1.9v1.5l-.4 1.2v1.5l-.4 .4Z" class="g4_8"/>
<path d="M703.5 179.6l-.8 -.4l-.8 -1.5v-1.5l-.3 -.8l.3 -1.5l.4 -1.6l.8 -1.1h.4l.7 -.4l.4 .4l.8 .4l.7 1.1l.4 1.2v2.6l-.4 1.2l-.3 .8l-.4 .7l-.8 .4l-.8 .4Zm0 -8l-.4 .4l-.4 1.5v4.2l.4 .8l.4 .3l.3 .4l.4 .4l.4 -.4l.8 -.7v-5.8l-.4 -.4V172l-.4 -.4v-.4h-.8Z" class="g4_8"/>
<path d="M708 172.3l-.3 -.7l.3 -.8l1.2 -.4l.8 .4h-1.6l-.4 .8l.4 .7H710v-1.5l.3 .8l-.3 .7l-.8 .4Z" class="g4_8"/>
<path d="M773.7 135.7h-1.1l-.8 -.8l-.4 -.4v-.7l.4 -.4h.4l.4 .4v1.1l.4 .4h1.5l.4 -.8l.3 -.3v-1.6l-.3 -.4v-.3l-.4 -.4l-.4 -.4h.4l.4 .4h.3l.4 .7l.4 .4v1.6l-.4 .7l-.7 .4l-.8 .4Zm-.7 -4.6v-.4h1.1l.8 -.7v-1.6l-.4 -.7l-.4 -.4h-.8l-.3 .4l-.4 .3v1.2h-.4l-.4 -.4V128l.8 -.7l.7 -.4h1.2l.7 .4l.4 .7l.4 .8l-.4 .8l-.4 .7l-.3 .4l-.8 .4h-.8l-.3 .4Z" class="g4_8"/>
<path d="M779.8 135.7h-.7l-.8 -.8l-.8 -1.1v-1.6l-.3 -.7l.3 -1.9l.4 -1.6l.8 -.7l.4 -.4h1.1l.8 .8l.7 .7l.4 1.6v2.6l-.4 1.2l-.3 .7l-.4 .8l-.8 .4Zm-.7 -8l-.4 .3l-.4 1.6v3.8l.4 1.1l.4 .4l.3 .4h.8l.8 -1.1v-5.8l-.4 -.4v-.3l-.4 -.4h-.8Z" class="g4_8"/>
<path d="M783.6 128.4l-.3 -.7l.3 -1.2l1.2 -.4l.8 .4l.3 1.2l-.3 .7l-.8 .4Zm.4 -1.5l-.4 .8l.4 .3l.8 .4l.8 -.4v-1.1l-.8 -.4Z" class="g4_8"/>
<image clip-path="url(#c1_8)" preserveAspectRatio="none" x="685" y="263" width="167" height="112" xlink:href="img/3.jpg"/>
<image preserveAspectRatio="none" x="43" y="286" width="57" height="56" xlink:href="img/4.jpg"/>
<image preserveAspectRatio="none" x="495" y="578" width="317" height="139" xlink:href="img/5.jpg"/>
<image preserveAspectRatio="none" x="133" y="583" width="322" height="95" xlink:href="img/6.jpg"/>
<image preserveAspectRatio="none" x="43" y="438" width="57" height="57" xlink:href="img/7.jpg"/>
<path d="M729 846.4l-2.2 -4.2L724.1 838l-2.7 -3.8l-3.1 -3.4l-3 -3.5l-3.5 -3.4l-3.8 -3l-3.8 -2.7l-4.3 -2.3l-4.2 -2.2l-4.2 -1.9l-4.6 -2l-5 -1.1l-4.5 -1.1l-5 -.4h95.7l.4 6.8l1.1 6.9l1.6 6.4l2.3 6.1L731 850.9Z" class="g7_8"/>
<path d="M731 850.9l42.5 -17.5l-2.3 -6.1l-1.6 -6.4L768.5 814l-.4 -6.8H672.4l5 .4l4.5 1.1l5 1.1l4.6 2l4.2 1.9l4.2 2.2l4.3 2.3l3.8 2.7l3.8 3l3.5 3.4l3 3.5l3.1 3.4l2.7 3.8l2.7 4.2l2.2 4.2l2 4.5Z" class="g8_8"/>
<path d="M730.2 863.5v-.4h.8l.3 -.4l.4 -.4v-.4l1.9 -6.4v-.8l.4 -.4V854l-.4 -.4h-.7v-.4h7.6l.4 1.9v.8h-.4l-.3 -.4v-.8l-.4 -.4L739 854h-.8l-.7 -.4h-1.2l-.4 .4h-.3l-.4 .3l-1.2 3.8h2.3l.4 -.3l.4 -.4l.4 -.4l.4 -.4h.3l-1.1 3.1v.7h-.4v-1.1l-.4 -.4l-.4 -.4H734l-1.1 3.4v1.2h4.2l.8 -.4l.7 -.8l.4 -.3l.8 -.8v.4l-.8 1.1l-.4 1.2Zm-.4 0h.4Z" class="g4_8"/>
<path d="M763.9 851.3h-3.4v-.4l.3 -.4h.8v-.3l.4 -.4v-.4l2.3 -7.2v-.8h-.8l-.4 -.4v-.3h8.1l.4 2.6l-.4 -.4l-.4 -.3l-.4 -.4l-.8 -.8h-3.8l-.4 .4l-1.1 3.8H767l.3 -.4l.8 -.4v-.3l.4 -.4h.4l-.8 2.3l-.4 .7v.8h-.4v-1.2l-.3 -.3l-.8 -.4h-1.9l-1.2 3.8v.7h1.2l.4 .4v.4Zm-3.8 -.4h.4Zm2.6 -9.9h.4Z" class="g4_8"/>
<path d="M656.3 883.6h-5.8v-.4h1.2v-.3l.4 -.4l2.3 -8v-.8h-1.6v-.3h5.8l1.1 .3l.8 .4l.8 .8v.7l-.4 .8l-.8 .8l-1.1 .7l-1.2 .4H659l.4 .4l.7 .7l.4 .8v.4l-.4 1.1l-.4 .8l-1.1 .7l-1.2 .4Zm-1.9 -4.9l-1.2 3.8v.4l.4 .3h3.1l1.1 -.3l.8 -.8l.4 -.8v-1.9l-.8 -.7l-.8 -.4h-3Zm1.5 -4.6l-.4 .4l-.4 1.9l-.3 .8v.7h3l.8 -.4l.4 -.3l.4 -.4l.3 -.8l.4 -.7l-.4 -.4v-.4l-.3 -.4l-.4 -.4h-3.1Z" class="g4_8"/>
<path d="M842.4 813.7H842l.4 -.4h.4l.7 -.4v-.4l.4 -.4l2.3 -7.6v-.7h-1.1v-.4h5.3l.8 .4l.8 .7l.7 .4l.4 .8v.7l.4 1.2l-.4 1.5l-.4 1.1l-.7 .8l-.4 .8l-.8 .7l-.7 .4l-1.6 .4l-1.9 .4Zm5 -8.8l-.4 .8l-1.2 4.5l-.3 1.2l-.4 1.1v.8h1.5l1.5 -.4l1.2 -.4l1.1 -.7l.4 -1.2l.8 -.8v-1.1l.4 -1.1v-2.3l-.8 -.8l-.8 -.4l-.7 -.3h-1.9v.3h-.4Z" class="g4_8"/>
<path d="M847.4 887H847l-1.5 -.3l-.8 -.8l-.8 -.4l-.4 -1.1l-.3 -1.5v-.4l.3 -1.5l.8 -1.6l.8 -1.1l1.1 -1.1l1.2 -.8l1.1 -.4h1.6l1.5 .8h.4l.4 -.4h.3v2.7h-.3l-.4 -.8l-.4 -.8l-.4 -.3l-.8 -.4l-.3 -.4h-1.6l-.7 .4l-.8 .7l-1.5 2.3l-.8 2.7l-.4 .4l.4 1.5l.4 .7l.7 .4l.8 .4l1.2 .4h.7l.8 -.4l.8 -.4l1.1 -.7v-.4l.4 -.4h.4v.4l-.8 .7l-.8 .8l-1.1 .8l-1.5 .3Z" class="g4_8"/>
<path d="M839.3 807.2L665.1 877.5" class="g9_8"/>
<path d="M839.3 877.5H665.1V807.2H839.3v70.3Z" class="ga_8"/>
<path d="M657.4 812.1v-.3l.8 -.4h.4l.4 -.4v-.8l-.4 -1.9H654l-1.2 1.2l-.7 1.1v.8h.7l.4 .4v.3h-3.4v-.3l.4 -.4h.3l.8 -.4l.4 -.4l.4 -.4l.4 -.4l.7 -1.1l4.2 -6.8l.4 -.4H659l.4 1.1v1.2l.3 4.9l.4 1.1V811l.4 .4h.4l.4 .4h.4l-.4 .3Zm0 -9.5l-3.4 5.3h4.6l-.8 -5.7Zm-4.2 9.2h.4Z" class="g4_8"/>
<image preserveAspectRatio="none" x="43" y="811" width="57" height="56" xlink:href="img/8.jpg"/>
<image preserveAspectRatio="none" x="699" y="982" width="154" height="173" xlink:href="img/9.png"/>
<image preserveAspectRatio="none" x="43" y="985" width="57" height="56" xlink:href="img/10.jpg"/>
</svg>