<?xml version="1.0" encoding="UTF-8" standalone="no"?>
<!DOCTYPE svg PUBLIC "-//W3C//DTD SVG 1.1//EN"
"http://www.w3.org/Graphics/SVG/1.1/DTD/svg11.dtd">
<svg viewBox="0 0 909 1286" version="1.1" xmlns="http://www.w3.org/2000/svg" xmlns:xlink="http://www.w3.org/1999/xlink">
<defs>
<clipPath id="c0_4"><path d="M-.2 1286.6v-57.8h910v57.8Z"/></clipPath>
<style type="text/css"><![CDATA[
.g0_4{
fill: #CFC;
}
.g1_4{
fill: none;
stroke: #000;
stroke-width: 0.907;
stroke-linecap: square;
stroke-miterlimit: 10;
}
.g2_4{
fill: #70AD47;
}
.g3_4{
fill: none;
stroke: #000;
stroke-width: 0.75;
stroke-linecap: square;
stroke-miterlimit: 10;
}
.g4_4{
fill: none;
stroke: #F00;
stroke-width: 0.75;
stroke-linecap: square;
stroke-miterlimit: 10;
}
.g5_4{
fill: #000;
}
.g6_4{
fill: none;
stroke: #000;
stroke-width: 0.751;
stroke-linecap: square;
stroke-miterlimit: 10;
}
.g7_4{
fill: none;
stroke: #F00;
stroke-width: 0.751;
stroke-linecap: square;
stroke-miterlimit: 10;
}
.g8_4{
fill: none;
stroke: #000;
stroke-width: 0.73;
stroke-linecap: square;
stroke-miterlimit: 10;
}
.g9_4{
fill: none;
stroke: #F00;
stroke-width: 0.73;
stroke-linecap: square;
stroke-miterlimit: 10;
}
.ga_4{
fill: none;
stroke: #000;
stroke-width: 0.756;
stroke-linecap: square;
stroke-miterlimit: 10;
}
.gb_4{
fill: none;
stroke: #F00;
stroke-width: 0.756;
stroke-linecap: square;
stroke-miterlimit: 10;
}
.gc_4{
fill: none;
stroke: #000;
stroke-width: 0.748;
stroke-linecap: square;
stroke-miterlimit: 10;
}
.gd_4{
fill: none;
stroke: #F00;
stroke-width: 0.748;
stroke-linecap: square;
stroke-miterlimit: 10;
}
.ge_4{
fill: none;
stroke: #000;
stroke-width: 0.909;
stroke-linecap: square;
stroke-miterlimit: 10;
}
.gf_4{
fill: #FCC;
}
.gg_4{
fill: none;
stroke: #000;
stroke-width: 0.749;
stroke-linecap: square;
stroke-miterlimit: 10;
}
.gh_4{
fill: #9CF;
}
.gi_4{
fill: none;
stroke: #000;
stroke-width: 0.753;
stroke-linecap: square;
stroke-miterlimit: 10;
}
.gj_4{
fill: #CF0;
}
.gk_4{
fill: none;
stroke: #000;
stroke-width: 0.904;
stroke-linecap: square;
stroke-miterlimit: 10;
}
.gl_4{
fill: #FF0;
}
.gm_4{
fill: none;
stroke: #000;
stroke-width: 0.877;
stroke-linecap: square;
stroke-miterlimit: 10;
}
.gn_4{
fill: #CCF;
}
.go_4{
fill: none;
stroke: #000;
stroke-width: 0.873;
stroke-linecap: square;
stroke-miterlimit: 10;
}
.gp_4{
fill: none;
stroke: #00F;
stroke-width: 0.873;
stroke-linecap: square;
stroke-miterlimit: 10;
}
.gq_4{
fill: #F90;
}
]]></style>
</defs>
<image clip-path="url(#c0_4)" preserveAspectRatio="none" x="-2" y="1229" width="930" height="128" xlink:href="img/1.jpg"/>
<path fill-rule="evenodd" d="M71.1 161.1H334.2V113.7H71.1v47.4Z" class="g0_4"/>
<path fill-rule="evenodd" d="M79 149.4H326.3V125.6H79v23.8Z" class="g0_4"/>
<path fill-rule="evenodd" d="M335 161.1H598V113.7H335v47.4Z" class="g0_4"/>
<path d="M342.8 161.1H590.2V113.7H342.8v47.4Z" class="g0_4"/>
<path d="M514.3 138.2h10.9" class="g1_4"/>
<path fill-rule="evenodd" d="M598.8 161.1H861.9V113.7H598.8v47.4Z" class="g0_4"/>
<path d="M606.6 161.1H854V113.7H606.6v47.4Z" class="g0_4"/>
<path d="M777.3 138.2h10.9" class="g1_4"/>
<path d="M70.4 113.7h.7v-.8h-.7v.8Z" class="g2_4"/>
<path d="M70.4 113.7h.7v-.8h-.7v.8Z" class="g2_4"/>
<path d="M71.1 113.7H334.2v-.8H71.1v.8Z" class="g2_4"/>
<path d="M334.2 113.7h.7v-.8h-.7v.8Z" class="g2_4"/>
<path d="M335 113.7H598v-.8H335v.8Z" class="g2_4"/>
<path d="M598 113.7h.8v-.8H598v.8Z" class="g2_4"/>
<path d="M598.8 113.7H861.9v-.8H598.8v.8Z" class="g2_4"/>
<path d="M861.9 113.7h.7v-.8h-.7v.8Z" class="g2_4"/>
<path d="M861.9 113.7h.7v-.8h-.7v.8Z" class="g2_4"/>
<path d="M70.4 161.1h.7V113.7h-.7v47.4Z" class="g2_4"/>
<path d="M334.2 161.1h.7V113.7h-.7v47.4Z" class="g2_4"/>
<path d="M598 161.1h.8V113.7H598v47.4Z" class="g2_4"/>
<path d="M861.9 161.1h.7V113.7h-.7v47.4Z" class="g2_4"/>
<path d="M225.7 184.4l-32.1 27m0 0l-.4 .4m31.1 28.4L193.6 211.4m32.1 -27l-.7 -.9l-.7 -.8l-.8 -.9l-.7 -.8l-.8 -.8l-.8 -.7l-.8 -.7l-.8 -.7l-.9 -.7l-.8 -.7l-.8 -.6l-.8 -.6l-.9 -.6l-.9 -.5l-.8 -.6l-.9 -.5l-1.8 -.9l-.9 -.4l-.9 -.4l-1.9 -.7l-1 -.4l-.9 -.3l-1 -.3l-1 -.2l-1 -.3l-1 -.2l-1 -.2l-1 -.1l-1.1 -.2l-1 -.1h-1.1l-1 -.1h-4.3l-2.1 .1l-2.1 .3l-2.1 .3l-2 .5l-1.9 .5l-1.9 .7l-1.9 .7l-1.9 .8l-1.8 .9l-1.7 1.1l-1.7 1.1l-1.7 1.2l-1.7 1.4l-1.6 1.4l-1.5 1.5l-1.5 1.6l-1.4 1.7l-1.3 1.6l-1.2 1.8l-1.1 1.7l-1 1.8l-.9 1.8l-.8 1.9l-.7 1.9l-.7 2l-.5 2l-.4 2l-.4 2.1l-.2 2.2l-.1 2.1l-.1 2.2v1.1l.1 1.1v1.1l.1 1.1l.1 1l.1 1.1l.2 1l.2 1.1l.2 1l.2 1l.2 1l.3 1l.3 1l.4 1l.7 1.9l.3 .9l.5 1l.9 1.8l.4 .9l.6 .9l.5 .9l.6 .9l1.2 1.7l.6 .8l.7 .9l.7 .8l.7 .8l.7 .8l.8 .8l1.5 1.5l.8 .7l.8 .7l1.7 1.3l.8 .7l.9 .6l.8 .6l.9 .5l1.7 1.1l1.8 .9l.9 .4l1 .4l.9 .4l1 .4l1.9 .6l1.9 .5l1 .3l1 .2l1 .2l1.1 .1l2.1 .3l2.1 .1l2.2 .1h1l1.1 -.1h1l1.1 -.1l1 -.1l1.1 -.2l.5 -.1h.5l1 -.2l1 -.2l.5 -.2l.5 -.1l1 -.2l1 -.3l.9 -.3l.5 -.2l.2 -.1h.3l.9 -.4l1 -.4l.9 -.4l.9 -.4l1.8 -.9l.9 -.6l.8 -.5l.9 -.5l.9 -.6l.8 -.6l.2 -.2l.2 -.2l.4 -.3l.8 -.6l.9 -.7l.8 -.7l.8 -.7l.8 -.8l.8 -.7l1.5 -1.6" class="g3_4"/>
<path d="M224.3 240.2l1.3 -1.6l.6 -.7l.6 -.8l1.1 -1.6l.5 -.8l.5 -.8l1 -1.7l.2 -.4l.1 -.2l.1 -.2l.5 -.8l.8 -1.8l.3 -.8l.2 -.5l.1 -.2l.1 -.2l.6 -1.8l.3 -.9l.1 -.5l.2 -.4l.1 -.5l.1 -.4l.3 -1l.3 -1.9l.1 -.2v-.3l.1 -.4l.1 -1l.1 -.5v-.5l.2 -1v-1.5l.1 -.4l.1 -2.1V211l-.1 -1.5l-.1 -1.8l-.2 -1.7l-.2 -1.8l-.3 -1.6l-.4 -1.7l-.4 -1.6l-.5 -1.7l-.5 -1.5l-.6 -1.6l-.7 -1.5l-.7 -1.5l-.8 -1.5l-.9 -1.4l-.9 -1.5l-1 -1.4l-1.1 -1.3" class="g4_4"/>
<path d="M193.5 214.5h-.3l-.2 -.1l-.3 -.1l-.4 -.3l-.2 -.1l-.2 -.2l-.2 -.2l-.2 -.2l-.1 -.2l-.1 -.3l-.1 -.2v-.3l-.1 -.2v-.3l.1 -.5l.1 -.5l.2 -.5l.4 -.4l.4 -.3l.4 -.3l.5 -.1l.6 -.1h.2l.3 .1h.2l.3 .1l.2 .1l.2 .2l.2 .1l.2 .2l.2 .2l.1 .2l.3 .5l.1 .2v.3l.1 .2v.6l-.1 .2v.3l-.1 .2l-.1 .3l-.2 .2v.1h-.1v.1l-.2 .2l-.2 .2h-.1v.1h-.1l-.2 .2l-.2 .1l-.3 .1h-.1l-.1 .1h-.5Z" class="g5_4"/>
<path d="M223.5 243.5h-.2l-.3 -.1l-.2 -.1l-.5 -.2l-.2 -.2l-.2 -.2l-.2 -.2l-.1 -.2l-.2 -.2v-.3l-.1 -.2l-.1 -.3v-1l.2 -.5l.2 -.5l.3 -.4l.4 -.3l.5 -.3l.5 -.1l.5 -.1h.3l.2 .1h.3l.2 .1l.2 .1l.3 .2l.2 .1l.2 .2l.1 .2l.2 .2l.3 .5v.2l.1 .3v.3l.1 .2l-.1 .1v.6l-.1 .1v.2l-.2 .3l-.1 .2l-.1 .1h-.1v.1l-.1 .2l-.2 .2h-.1v.1l-.1 .1l-.3 .1l-.2 .1l-.2 .1h-.2l-.1 .1h-.5Z" class="g5_4"/>
<path d="M225.4 187.9l-.2 -.1l-.3 -.1h-.2l-.5 -.3l-.2 -.2l-.2 -.1l-.2 -.3l-.1 -.2l-.2 -.2l-.1 -.2l-.1 -.3v-1.3l.1 -.5l.3 -.4l.3 -.5l.4 -.3l.5 -.2l.5 -.2h1.2l.3 .2h.2l.3 .2l.1 .2l.3 .1l.1 .2l.2 .3l.2 .4l.1 .3l.1 .2v.3l.1 .3h-.1v.5l-.1 .1v.1l-.1 .3l-.1 .2l-.1 .2l-.1 .1v.1h-.1l-.1 .3l-.3 .1v.1h-.1v.1l-.3 .1l-.2 .2h-.3l-.1 .1h-.1l-.2 .1h-.3Z" class="g5_4"/>
<path d="M419.9 206.2l74.2 -22.1m-74.3 22.5L492 241.1M462.2 211.4l-.4 .4m32.5 -27.4l-.2 -.3l-1.3 -1.6L491.4 181l-.8 -.8l-.8 -.7l-.8 -.7l-.8 -.7l-.8 -.7l-.9 -.7l-.8 -.6l-.8 -.6l-.9 -.6l-.9 -.5l-.8 -.6l-.9 -.5l-1.8 -.9l-.9 -.4l-.9 -.4l-1.9 -.7l-1 -.4l-.9 -.3l-1 -.3l-1 -.2l-1 -.3l-1 -.2l-1 -.2l-1 -.1l-1.1 -.2l-1 -.1h-1.1l-1 -.1h-4.3l-2.2 .1l-2 .3l-2.1 .3l-2 .5l-2 .5l-1.9 .7l-1.8 .7l-1.9 .8l-1.8 .9l-1.8 1.1l-1.7 1.1l-1.7 1.2l-1.6 1.4l-1.6 1.4l-1.5 1.5l-1.3 1.4l-1.2 1.4l-1.2 1.4l-1 1.4l-1 1.4l-1 1.6l-.8 1.5l-.8 1.6l-.7 1.6l-.7 1.6l-.5 1.6l-.5 1.7l-.5 1.7l-.3 1.7l-.3 1.8l-.2 1.8l-.1 .2v.2l-.1 1.1l-.1 1.2v3.3l.1 2.7l.1 1.9l.3 1.9l.3 1.8l.4 1.9l.5 1.8l.6 1.8l.3 .8l.3 .9l.8 1.7l.3 .8l.4 .8l.9 1.7l.5 .7l.5 .9l1 1.5l1.1 1.6l.6 .7l.6 .8l1.3 1.5l1.4 1.4l1.5 1.5l.8 .7l.8 .7l1.6 1.3l.9 .7l.8 .6l.9 .6l.8 .5l1.8 1.1l1.8 .9l.9 .4l1 .4l.9 .4l.9 .4l1.9 .6l2 .5l1 .3l1 .2l1 .2l1.1 .1l2 .3l2.2 .1l2.2 .1h1l1.1 -.1h1l1.1 -.1l1 -.1l1.1 -.2l.5 -.1h.5l1 -.2l1 -.2l.5 -.2l.5 -.1l1 -.2l1 -.3l.9 -.3l.5 -.2l.2 -.1h.3l.9 -.4l1 -.4l.9 -.4l.9 -.4l1.8 -.9l.9 -.6l.8 -.5l.9 -.5l.9 -.6l.8 -.6l.2 -.2l.2 -.2l.4 -.3l.9 -.6l.8 -.7l.8 -.7l.8 -.7l.8 -.8l.8 -.7l.3 -.3l.3 -.4l.9 -.9" class="g6_4"/>
<path d="M492.9 240.2l1.3 -1.6l.6 -.7l.6 -.8l1.1 -1.6l.5 -.8l.6 -.8l.9 -1.7l.2 -.4l.1 -.2l.2 -.2l.4 -.8l.8 -1.8l.4 -.8l.1 -.5l.1 -.2l.1 -.2l.7 -1.8l.2 -.9l.2 -.5l.1 -.4l.1 -.5l.1 -.4l.3 -1l.4 -1.9v-.5l.1 -.4l.2 -1v-.5l.1 -.5l.1 -1l.1 -1v-.9l.1 -2.1v-2.3l-.2 -1.8l-.1 -1.7l-.3 -1.8l-.3 -1.6l-.3 -1.7l-.4 -1.6l-.5 -1.7l-.6 -1.5l-.6 -1.6l-.7 -1.5l-.7 -1.5l-.8 -1.5l-.9 -1.4l-.9 -1.5l-1 -1.4l-1.1 -1.3m-.2 -.3l.6 -.2" class="g7_4"/>
<path d="M462.1 214.5h-.3l-.2 -.1l-.3 -.1l-.4 -.3l-.2 -.1l-.2 -.2l-.2 -.2l-.2 -.2l-.1 -.2l-.1 -.3l-.1 -.2v-.3l-.1 -.2v-.3l.1 -.5l.1 -.5l.2 -.5l.4 -.4l.4 -.3l.4 -.3l.5 -.1l.6 -.1h.2l.3 .1h.2l.2 .1l.3 .1l.2 .2l.2 .1l.2 .2l.2 .2l.1 .2l.3 .5l.1 .2v.3l.1 .2v.6l-.1 .2v.3l-.1 .2l-.1 .3l-.2 .2l-.1 .1v.1l-.2 .2l-.2 .2h-.1v.1h-.1l-.2 .2l-.3 .1l-.2 .1H463l-.1 .1h-.5Z" class="g5_4"/>
<path d="M492.2 243.5h-.3l-.2 -.1l-.3 -.1l-.4 -.2l-.2 -.2l-.2 -.2l-.2 -.2l-.2 -.2l-.1 -.2l-.1 -.3l-.1 -.2l-.1 -.3v-1l.2 -.5l.2 -.5l.4 -.4l.4 -.3l.4 -.3l.5 -.1l.5 -.1h.3l.2 .1h.3l.2 .1l.3 .1l.2 .2l.2 .1l.2 .2l.2 .2l.1 .2l.3 .5l.1 .2v.3l.1 .3v.5l-.1 .2v.3l-.1 .2l-.2 .3l-.1 .2l-.1 .1v.1l-.2 .2l-.2 .2H494v.1l-.1 .1l-.2 .1l-.3 .1l-.2 .1H493l-.1 .1h-.5Z" class="g5_4"/>
<path d="M494.1 187.9l-.3 -.1l-.3 -.1h-.2l-.4 -.3l-.3 -.2l-.2 -.1l-.1 -.3l-.2 -.2l-.1 -.2l-.1 -.2l-.1 -.3l-.1 -.2v-1.1l.2 -.5l.2 -.4l.3 -.5l.5 -.3l.4 -.2l.5 -.2h1.3l.2 .2h.2l.3 .2l.2 .2l.2 .1l.2 .2l.1 .3l.3 .4l.1 .3v.2l.1 .3v.5l-.1 .3v.2l-.1 .3l-.2 .2l-.1 .2l-.1 .1v.1l-.2 .3l-.2 .1h-.1v.1l-.1 .1l-.3 .1l-.2 .2h-.2l-.2 .1h-.1l-.2 .1h-.3Z" class="g5_4"/>
<path d="M755 179l-1.3 -1.5L752.3 176l-.7 -.7l-.8 -.7l-.8 -.8l-.8 -.6l-.8 -.7l-.8 -.6L746 170.7l-.9 -.6l-.8 -.5l-.8 -.6l-.9 -.4l-1.7 -.9l-.9 -.5l-.9 -.3l-1.8 -.7l-1 -.4l-.9 -.3l-1 -.3l-.9 -.2l-1 -.2l-.9 -.2l-1 -.2l-1 -.2l-1.1 -.1l-1 -.1l-1 -.1h-1l-1.1 -.1h-1l-2.1 .1l-2.1 .1l-2 .2l-2 .4l-2 .4l-1.9 .5l-1.8 .7l-1.8 .7l-1.9 .8l-1.7 .9l-1.7 1l-1.7 1.1l-1.6 1.2l-1.6 1.3l-1.6 1.4l-1.5 1.4l-1.2 1.3l-1.2 1.4l-1.1 1.3l-1 1.5l-1 1.4l-.9 1.4l-.8 1.5l-.8 1.6l-.7 1.5l-.6 1.5l-.6 1.6l-.4 1.7l-.5 1.6l-.3 1.7l-.3 1.7l-.2 1.8l-.1 .3l-.1 1.2l-.1 1.2v3.1l.1 2.6l.1 1.9l.3 1.8l.3 1.8l.4 1.8l.5 1.8l.6 1.7l.2 .8l.4 .9l.7 1.6l.3 .8l.4 .8l.9 1.6l.5 .8l.4 .8l1.1 1.5l1 1.5l.6 .7l.6 .8l.6 .7l.6 .7l1.3 1.4l.9 .8l.8 .8l.9 .8l.9 .8l.9 .7l.9 .7l.9 .6l1 .7l.9 .6l1 .6l.9 .5l1 .5l2.1 1l1 .4l1.1 .4h.1l.2 .1l1.1 .4l1.1 .3l1.1 .3l1.2 .3l1.1 .2l1.2 .2l1.2 .2l1.3 .1m39.8 9.3l-39.8 -9.3L710 245m0 0h-.4m.3 .1l.1 -.1m14 -39.4l-.4 .3M710 245l44.9 -65.5" class="g8_4"/>
<path d="M755.6 178.9l-.6 .1m.2 .3L755 179m-1.2 54.5L755 232l.6 -.8l.6 -.7l1.1 -1.5l.5 -.8l.5 -.8l.9 -1.6l.3 -.4l.1 -.2l.1 -.2l.4 -.8l.8 -1.7l.3 -.9l.2 -.4l.1 -.2l.1 -.2l.6 -1.7l.3 -.9l.1 -.5l.2 -.4l.1 -.5l.1 -.4l.2 -.9l.4 -1.9v-.2l.1 -.2v-.5l.2 -.9v-.5l.1 -.5l.1 -.9l.1 -1v-1l.1 -1.9v-2.3l-.1 -1.1l-.1 -1.1l-.1 -1.1l-.1 -1.1l-.2 -1.1l-.2 -1.1l-.2 -1l-.2 -1.1l-.3 -1l-.3 -1l-.3 -1l-.3 -1l-.4 -1l-.4 -1l-.4 -.9l-.5 -1l-.7 -1.5l-1 -1.6l-1 -1.6l-1.1 -1.6l-1.2 -1.5m-36 67.8l1 .1l1.1 .1h4.2l.5 -.1h.5l1 -.1l1 -.1l1.1 -.1l.4 -.1l.6 -.1l1 -.2l.9 -.2l.5 -.1l.5 -.1l.9 -.3l1 -.2l.9 -.3l.5 -.2l.2 -.1h.3l.9 -.4l.9 -.4l.9 -.4l.9 -.4l1.7 -.9l.9 -.5l.8 -.5l.8 -.5l.9 -.6l.8 -.6l.8 -.6l.8 -.6l.8 -.7l.8 -.7l.8 -.7l.8 -.7l.7 -.7l.6 -.7l.9 -.9" class="g9_4"/>
<path d="M723.8 208.6l-.2 -.1h-.3l-.2 -.1l-.4 -.3l-.3 -.1l-.1 -.2l-.2 -.2l-.2 -.2l-.1 -.2l-.1 -.3l-.1 -.2v-.3l-.1 -.5l.1 -.5l.1 -.5l.2 -.4l.4 -.4l.4 -.4l.4 -.2l.5 -.1l.5 -.1l.5 .1h.2l.3 .1l.2 .1l.2 .1l.2 .2l.2 .2l.2 .2l.1 .2l.3 .4l.1 .2v.3l.1 .3v.5l-.1 .2v.3l-.1 .2l-.1 .3l-.2 .2l-.1 .1v.1l-.2 .2l-.2 .2h-.1l-.1 .1l-.2 .1l-.2 .2l-.3 .1h-.2l-.3 .1h-.2Z" class="g5_4"/>
<path d="M709.3 247.7H709l-.3 -.1l-.2 -.1l-.4 -.2l-.2 -.2l-.2 -.2l-.2 -.2l-.2 -.2l-.1 -.2l-.1 -.2l-.1 -.3v-1.3l.1 -.4l.2 -.5l.4 -.4l.4 -.3l.4 -.3l.5 -.1h1.3l.2 .1l.2 .1l.2 .2l.2 .1l.2 .2l.2 .2l.2 .2l.2 .5l.1 .2v.2l.1 .3v.5l-.1 .3v.2l-.1 .3l-.1 .2l-.1 .2l-.1 .1l-.1 .1l-.2 .2l-.2 .2l-.1 .1l-.1 .1l-.2 .1l-.2 .1l-.2 .1h-.2l-.1 .1h-.5Z" class="g5_4"/>
<path d="M754.9 182.7l-.2 -.1h-.3l-.2 -.1l-.4 -.3l-.3 -.1l-.1 -.2l-.2 -.2l-.2 -.2l-.1 -.2l-.1 -.3l-.1 -.2v-.2l-.1 -.6l.1 -.5l.1 -.5l.2 -.4l.4 -.4l.4 -.4l.4 -.2l.5 -.1l.5 -.1l.5 .1h.2l.3 .1l.2 .1l.2 .1l.2 .2l.2 .2l.2 .2l.1 .2l.3 .4l.1 .3v.2l.1 .3v.5l-.1 .3v.2l-.1 .2l-.2 .3l-.1 .2l-.1 .1v.1l-.2 .2l-.2 .2h-.1l-.1 .1l-.2 .1l-.2 .2l-.3 .1h-.2l-.3 .1h-.2Z" class="g5_4"/>
<path d="M753.1 257.1h-.2l-.3 -.1l-.2 -.1l-.5 -.2l-.2 -.2l-.2 -.2l-.1 -.2l-.2 -.2l-.1 -.2l-.1 -.2l-.1 -.3l-.1 -.2v-1l.2 -.5l.2 -.5l.3 -.4l.4 -.3l.5 -.3l.5 -.1h1l.2 .1h.3l.2 .1l.2 .2l.2 .1l.2 .2l.2 .2l.1 .2l.3 .5v.2l.1 .3v.2l.1 .3l-.1 .3v.3l-.1 .1v.3l-.2 .2l-.1 .2l-.1 .1v.1l-.2 .2l-.2 .2h-.1v.1l-.1 .1l-.2 .1l-.2 .1l-.3 .1H754l-.1 .1h-.5Z" class="g5_4"/>
<path d="M70.4 161.9h.7v-.8h-.7v.8Z" class="g2_4"/>
<path d="M71.1 161.9H334.2v-.8H71.1v.8Z" class="g2_4"/>
<path d="M334.2 161.9h.7v-.8h-.7v.8Z" class="g2_4"/>
<path d="M335 161.9H598v-.8H335v.8Z" class="g2_4"/>
<path d="M598 161.9h.8v-.8H598v.8Z" class="g2_4"/>
<path d="M598.8 161.9H861.9v-.8H598.8v.8Z" class="g2_4"/>
<path d="M861.9 161.9h.7v-.8h-.7v.8Z" class="g2_4"/>
<path d="M70.4 261.3h.7V161.9h-.7v99.4Z" class="g2_4"/>
<path d="M334.2 261.3h.7V161.9h-.7v99.4Z" class="g2_4"/>
<path d="M598 261.3h.8V161.9H598v99.4Z" class="g2_4"/>
<path d="M861.9 261.3h.7V161.9h-.7v99.4Z" class="g2_4"/>
<path fill-rule="evenodd" d="M71.1 309.3H334.2V262H71.1v47.3Z" class="g0_4"/>
<path d="M79 309.3H326.3V262H79v47.3Z" class="g0_4"/>
<path d="M226.3 286.5h10.9" class="g1_4"/>
<path fill-rule="evenodd" d="M335 309.3H861.9V262H335v47.3Z" class="g0_4"/>
<path d="M342.8 309.3H854V262H342.8v47.3Z" class="g0_4"/>
<path d="M621.9 286.5h10.9" class="g1_4"/>
<path d="M70.4 262h.7v-.8h-.7v.8Z" class="g2_4"/>
<path d="M71.1 262H334.2v-.8H71.1v.8Z" class="g2_4"/>
<path d="M334.2 262h.7v-.8h-.7v.8Z" class="g2_4"/>
<path d="M335 262H598v-.8H335v.8Z" class="g2_4"/>
<path d="M598 262h.8v-.8H598v.8Z" class="g2_4"/>
<path d="M598.8 262H861.9v-.8H598.8v.8Z" class="g2_4"/>
<path d="M861.9 262h.7v-.8h-.7v.8Z" class="g2_4"/>
<path d="M70.4 309.3h.7V262h-.7v47.3Z" class="g2_4"/>
<path d="M334.2 309.3h.7V262h-.7v47.3Z" class="g2_4"/>
<path d="M861.9 309.3h.7V262h-.7v47.3Z" class="g2_4"/>
<path d="M232.2 389.6l.7 -.9l.8 -1l.7 -.9l.8 -.9l.1 -.3l.2 -.2l.3 -.5l.7 -1l.6 -1l.6 -1l.2 -.5l.2 -.2V381l.1 -.1l.5 -1l.5 -1l.5 -1.1l.4 -1l.1 -.3l.1 -.3l.3 -.5l.3 -1.1l.2 -.6l.2 -.5L204.7 352.1m0 0l-42.8 26.2l.3 .9l.4 .8l.5 .9l.4 .8l1 1.7l.6 .8l.5 .8l.6 .8l.5 .8l.6 .8l.7 .8l1.3 1.5l.7 .8l.7 .7l1.6 1.5l.8 .7l.8 .7l1.6 1.3l.9 .7l.8 .6l.9 .6l.9 .5l1.7 1.1l1.8 .9l1 .4l.9 .4l.9 .4l1 .4l1.9 .6l2 .6l1 .2l1 .2l1 .2l1.1 .1l2.1 .3l2.1 .1l2.2 .1l2.2 -.1h1l1.1 -.1l1 -.1l1.1 -.2h.5l.5 -.1l1.1 -.2l1 -.2l.5 -.1l.5 -.1l.9 -.3l1 -.3l1 -.3l.5 -.2l.2 -.1h.3l.9 -.4l1 -.4l.9 -.4l.9 -.4l1.8 -.9l.9 -.6l.9 -.5l.8 -.5l.9 -.6l.8 -.6l.2 -.2l.3 -.1l.4 -.4l.8 -.6l.9 -.7l.8 -.7l.8 -.7l.8 -.7l.8 -.8l.6 -.6l.9 -1m-27.5 -38l-.4 .3m.4 .2v0l29 -17.8m-.1 -.5l-.1 -.1l-.1 -.1L232.1 332l-1.4 -1.5l-.8 -.8l-.8 -.8l-.8 -.7l-.8 -.7l-.9 -.7l-.8 -.6l-.9 -.7l-.8 -.6l-.9 -.5l-.8 -.6l-.9 -.5l-.9 -.5l-1.8 -.9l-.9 -.5L217 321l-1.9 -.7l-1 -.4l-1 -.2l-1 -.3l-.9 -.3l-1 -.2l-1 -.2l-1.1 -.2l-1 -.2l-1.1 -.1l-1 -.1l-1.1 -.1h-1l-2.2 -.1l-2.2 .1l-2.1 .1l-2.1 .2l-2.1 .4l-2 .4l-2 .6l-1.9 .6l-1.9 .7l-1.9 .9l-1.8 .9l-1.7 1l-1.8 1.1l-1.7 1.3l-1.6 1.3l-1.6 1.4l-1.6 1.6l-.8 .8l-.8 .9l35.2 19.7l.4 .2" class="ga_4"/>
<path d="M241.3 373.5l.2 -.7l.1 -.4l.1 -.4l.1 -.7l.1 -.4l.1 -.3l.2 -.8l.1 -.7l.1 -.8l.2 -.8l.1 -.7V366l.1 -.8l.1 -.8l.1 -1.5v-4l-.1 -1.1v-1.2l-.2 -1.1l-.1 -1.1l-.2 -1.2l-.2 -1l-.2 -1.1l-.2 -1.1l-.3 -1l-.3 -1.1l-.3 -1l-.4 -1l-.4 -1.1l-.4 -1l-.4 -1l-.4 -.9l-.8 -1.6l-1 -1.7l-.6 -.8L236 337l-1.2 -1.6l-1.2 -1.6m-64.5 -1.6l-1.1 1.3l-1 1.3l-1 1.3l-.9 1.3l-.9 1.4l-.8 1.4l-.8 1.4l-.6 1.5l-.7 1.5l-.5 1.5l-.5 1.5l-.5 1.6l-.4 1.5l-.3 1.7l-.3 1.6l-.1 1.6l-.1 .2v.2l-.2 2.4l-.1 2.5v.7l.1 1.3l.1 1.4l.1 1.8l.2 1.9l.3 1.8l.5 1.8l.4 1.7l.6 1.7l.6 1.7l.3 .8l.4 .8m72.2 -44.9l-.7 .2" class="gb_4"/>
<path d="M204.6 354.7l-.3 -.1l-.2 -.1h-.3l-.4 -.3l-.2 -.2l-.2 -.1l-.2 -.3l-.2 -.2l-.1 -.2l-.1 -.2l-.1 -.3l-.1 -.2v-1.1l.2 -.5l.2 -.4l.4 -.5l.4 -.3l.4 -.2l.5 -.2h1.3l.3 .2h.2l.2 .2l.2 .2l.2 .1l.2 .2l.2 .3l.2 .4l.1 .3l.1 .2v1.1l-.1 .1v.1l-.1 .3l-.1 .2l-.1 .2l-.1 .1l-.1 .1l-.2 .3l-.2 .1v.1h-.1l-.1 .1l-.2 .1l-.2 .2h-.3l-.1 .1h-.1l-.3 .1h-.2Z" class="g5_4"/>
<path d="M240.9 376.1h-.3l-.3 -.1l-.2 -.1l-.4 -.2l-.3 -.2l-.2 -.2l-.2 -.2l-.1 -.2l-.2 -.2v-.3l-.1 -.2l-.1 -.3v-1l.2 -.5l.2 -.5l.3 -.4l.5 -.3l.4 -.3l.5 -.1l.5 -.1l.6 .1h.2l.3 .1l.2 .1l.2 .2l.2 .1l.2 .2l.2 .2l.1 .2l.3 .5l.1 .2l.1 .3v1l-.1 .2v.1l-.1 .2l-.1 .3l-.2 .2v.1h-.1v.1l-.2 .2l-.2 .2h-.1v.1l-.1 .1l-.2 .1l-.2 .1l-.3 .1h-.1l-.1 .1h-.6Z" class="g5_4"/>
<path d="M233.3 337.3l-.2 -.1h-.3l-.2 -.1l-.5 -.3l-.2 -.1l-.2 -.2l-.2 -.2l-.1 -.2l-.2 -.3l-.1 -.2l-.1 -.2v-1.3l.1 -.5l.3 -.5l.3 -.4l.4 -.4l.5 -.2l.5 -.2h1l.3 .1l.2 .1l.3 .1l.2 .1l.2 .2l.2 .2l.2 .2l.1 .2l.3 .5l.1 .2v.3l.1 .2v.6l-.1 .2v.3l-.1 .2l-.1 .2l-.2 .3l-.1 .1v.1l-.2 .2l-.2 .2h-.1l-.1 .1l-.2 .2l-.3 .1l-.2 .1h-.3l-.2 .1h-.3Z" class="g5_4"/>
<path d="M475.9 331.2l-1.3 -.9l-1.3 -.9l-1.4 -.8l-1.4 -.7l-1.4 -.7l-.7 -.4l-.7 -.2l-1.5 -.6l-1.5 -.5l-1.5 -.5l-1.5 -.3l-1.6 -.4l-.7 -.1l-.8 -.1l-.8 -.2H457l-1.7 -.2h-.8l-.8 -.1H452l-2.2 .1l-2.1 .1l-2.1 .2l-2 .4l-2 .4l-2 .6l-1.9 .6l-1.9 .7l-1.8 .9l-1.8 .9l-1.8 1l-1.7 1.1l-1.7 1.3l-1.6 1.3l-1.6 1.4l-1.5 1.6l-.9 .8l-.7 .9m-9 41.1l74.8 12.2m-76 -31.9l65.4 -28.1l.5 -.2m-64.7 48l-34.1 -5.6l32.9 -14.1m1.2 19.7l.3 1.2l.4 1.3l.5 1.2l.5 1.3m0 0l.4 .8l.4 .9l.4 .8l.5 .9l1 1.6l.5 .9l.6 .8l.5 .8l.6 .8l.6 .8l.6 .7l1.3 1.6l.7 .7l.8 .8l1.5 1.5l1.6 1.4l1.6 1.3l.9 .6l.8 .7l.9 .5l.8 .6l1.8 1l1.8 .9l.9 .5l.9 .4l1 .4l.9 .3l1.9 .7l2 .5l1 .2l1 .3l1 .1l1 .2l2.1 .3l2.1 .1l2.2 .1l1.1 -.1h1.1l.5 -.1h1.6l1 -.2l1.1 -.1l.5 -.1l.5 -.1l1 -.1l1 -.3l.5 -.1l.5 -.1l1 -.3l1 -.2l.9 -.3l.5 -.2l.2 -.1l.3 -.1l.9 -.3l1 -.4l.9 -.4l.9 -.5l1.8 -.9l.8 -.5l.9 -.5l.9 -.6l.9 -.5l.8 -.7l.2 -.1l.2 -.2l.4 -.3l.8 -.6l.9 -.7l.4 -.4l.4 -.3l.8 -.7l.7 -.8l.8 -.7l.7 -.7l.9 -1l.8 -1l.8 -1l.8 -1l.8 -1M420.7 337.9l-1.1 1.2l-.9 1.2l-1 1.2l-.8 1.2l-.8 1.3l-.8 1.3l-.7 1.3l-.6 1.3l-.7 1.3l-.5 1.4l-.5 1.4l-.5 1.4l-.4 1.4l-.3 1.5l-.3 1.5l-.3 1.5" class="g6_4"/>
<path d="M492.3 379.2l.2 -.8l.1 -.3l.1 -.4l.2 -.7v-.4l.2 -.3l.1 -.8l.1 -.8l.2 -.7l.1 -.8l.1 -.8l.1 -.7v-.8l.1 -.8l.1 -.8v-1.6l.1 -.8v-.7l-.1 -1.6v-1.1l-.1 -1.2l-.1 -1.1l-.2 -1.1l-.1 -1.2l-.2 -1l-.2 -1.1l-.3 -1.1l-.3 -1l-.3 -1.1l-.3 -1l-.3 -1l-.4 -1.1l-.4 -1l-.5 -1l-.4 -.9l-.8 -1.6l-1 -1.7l-1 -1.6l-1.2 -1.6l-1.2 -1.6m0 0l-.2 -.2l-1.4 -1.6l-1.4 -1.5l-1.4 -1.4l-.7 -.7l-.7 -.6l-1.5 -1.2l-.7 -.6l-.8 -.5m10.6 60l.2 -.3l.2 -.4l.5 -.7l.9 -1.4l.4 -.8l.1 -.2l.1 -.2l.2 -.3l.8 -1.5l.7 -1.5l.6 -1.6l.6 -1.5l.5 -1.6M410.5 359.3l-.2 1v1l-.1 .4l-.2 2.4v3.2l.1 2.7v1.1l.2 1.2l.3 2.3l.2 1.1l.3 1.1l.2 1.1l.4 1.1" class="g7_4"/>
<path d="M377.4 375.3l-.3 -.1l-.4 -.2l-.2 -.2l-.3 -.3l-.1 -.4l-.1 -.3l-.1 -.4l.1 -.4l.1 -.4l.1 -.3l.3 -.3l.2 -.2l.4 -.2l.3 -.1h.8l.3 .1l.4 .2l.3 .2l.2 .3l.2 .3l.1 .4v.8l-.1 .3l-.1 .2l-.1 .2l-.2 .3l-.3 .2l-.2 .1l-.2 .1l-.3 .1h-.4Z" class="g5_4"/>
<path d="M485.7 392.9l-.4 -.1l-.3 -.1l-.3 -.3l-.2 -.3l-.2 -.3l-.1 -.4v-.8l.1 -.3l.2 -.3l.2 -.3l.3 -.3l.3 -.1l.4 -.1l.4 -.1l.3 .1l.4 .1l.3 .1l.3 .3l.2 .3l.2 .3l.1 .3l.1 .5l-.1 .1v.2l-.1 .4l-.1 .1l-.1 .2l-.2 .3l-.3 .3h-.2l-.1 .1l-.4 .1h-.1l-.1 .1h-.1Z" class="g5_4"/>
<path d="M475.6 333.1l-.4 -.2l-.3 -.1l-.3 -.3l-.2 -.3l-.2 -.3l-.1 -.4v-.7l.1 -.4l.2 -.3l.2 -.3l.3 -.3l.3 -.1l.4 -.1l.4 -.1l.3 .1l.4 .1l.3 .1l.3 .3l.2 .3l.2 .3l.1 .4l.1 .4l-.1 .1v.2l-.1 .4l-.1 .2l-.1 .1l-.2 .3l-.3 .3l-.2 .1h-.1l-.4 .2H476Z" class="g5_4"/>
<path d="M410.1 361.3l-.3 -.1l-.3 -.2l-.3 -.2l-.3 -.3l-.1 -.3l-.1 -.4l-.1 -.4l.1 -.4l.1 -.3l.1 -.4l.3 -.2l.3 -.3l.3 -.2l.3 -.1h.8l.3 .1l.4 .2l.3 .3l.2 .2l.2 .4l.1 .3v.8l-.1 .4l-.1 .1l-.1 .2l-.2 .3l-.3 .2l-.2 .1l-.2 .1l-.3 .1h-.2l-.2 .1Z" class="g5_4"/>
<path d="M410.9 381.1l-.3 -.1l-.4 -.2l-.2 -.2l-.3 -.3l-.2 -.4l-.1 -.3v-.8l.1 -.4l.2 -.3l.3 -.3l.2 -.2l.4 -.2l.3 -.1h.8l.3 .1l.3 .2l.3 .2l.3 .3l.1 .3l.2 .4v.8l-.2 .3v.2l-.1 .2l-.3 .3l-.3 .2l-.1 .1l-.2 .1l-.3 .1h-.4Z" class="g5_4"/>
<path d="M583.8 390.9l1.4 1.2l1.5 1.1l1.5 1.1l1.6 1l1.5 .9l1.7 .8l1.6 .8l1.7 .7l1.7 .6l1.8 .5l1.8 .4l1.8 .4l1.8 .3l1.9 .2l1.9 .1l2 .1l1.1 -.1h1.6l.2 -.1h1.4l1 -.2l1 -.1l.5 -.1h.6l1 -.2l1 -.2l.5 -.2l.5 -.1l.9 -.2l1 -.3l1 -.3l.4 -.2l.3 -.1l.2 -.1l1 -.3l.9 -.4l.9 -.4l1 -.4l1.8 -1l.8 -.5l.9 -.5l.9 -.5l.8 -.6l.9 -.6l.1 -.2l.3 -.2l.4 -.3l.8 -.6l.8 -.7l.8 -.7l.9 -.7l.7 -.7l.8 -.8l.6 -.6l.9 -1l.9 -1l.8 -1l.4 -.5l.2 -.3l.2 -.2l.8 -1m-73 -42.1l3.6 -6.6l-1.1 1.5l-.9 1.7l-.9 1.6l-.7 1.8m0 0l-30.9 55.6l42.2 -5.5m0 0l61.8 -8.2" class="g6_4"/>
<path d="M572.5 340.8l-1 2.4l-.5 1.2l-.4 1.3l-.3 1.3l-.3 1.3l-.3 1.3l-.2 1.4l-.1 1l-.2 1v.4l-.2 2.4l-.1 2.4v.8l.2 2.7v1.1l.2 1.2l.1 1.1l.2 1.1l.2 1.1l.3 1.1l.2 1.1l.3 1.1l.4 1.3l.4 1.3l.5 1.2l.5 1.2l.4 .9l.4 .9l.4 .8l.5 .8l1 1.7l.5 .8l.6 .8l.5 .8l.6 .8l.6 .8l.6 .8l1.3 1.5l.7 .7l.7 .8l1.3 1.2l1.3 1.2m61.7 -8l.1 -.2l.2 -.4l.2 -.3l.5 -.7l.4 -.7l.5 -.7l.8 -1.5l.3 -.7l.4 -.8l.2 -.3l.1 -.4l.4 -.8l.3 -.7l.3 -.8l.6 -1.5l.2 -.8l.3 -.8l.2 -.7l.1 -.4l.1 -.3l.1 -.8l.1 -.3l.1 -.4l.2 -.8l.1 -.7l.1 -.8l.2 -.7l.1 -.8v-.8l.1 -.7l.1 -.8l.1 -1.6v-3.9l-.1 -1.2l-.1 -1.1l-.1 -1.1l-.1 -1.1l-.2 -1.2l-.2 -1.1l-.2 -1l-.2 -1.1l-.3 -1l-.3 -1.1l-.3 -1l-.4 -1l-.3 -1.1l-.4 -1l-.5 -1l-.4 -.9l-.8 -1.5l-1 -1.7L646 334.4l-1.1 -1.6l-1.2 -1.5l-.2 -.3l-1.4 -1.6l-1.4 -1.5l-1.4 -1.4l-.7 -.6l-.7 -.7L636.4 324l-.7 -.5l-.8 -.6l-1.4 -1l-1.3 -.8l-.6 -.4l-.7 -.4l-1.3 -.6l-1.3 -.7l-1.3 -.6l-1.4 -.5l-1.4 -.5l-1.3 -.4l-.8 -.2l-.7 -.2l-1.4 -.3l-1.5 -.3l-1.4 -.2l-1.5 -.2l-1.5 -.1l-1.6 -.1h-3.1l-1.5 .1l-1.5 .1l-1.5 .2l-1.5 .2l-1.5 .3l-1.4 .3l-1.4 .4l-1.4 .4l-1.4 .5l-1.3 .5l-1.4 .6l-1.3 .7l-1.3 .6l-1.3 .8l-1.2 .8l-1.9 1.3l-.9 .7l-.9 .7l-1 .8l-.8 .8l-.9 .8l-.9 .9l-.8 .9l-.7 .8l-1 1.1l-.9 1.2l-.9 1.1l-.8 1.2" class="g7_4"/>
<path d="M644.7 384.6l-.4 -.1l-.3 -.2l-.3 -.2l-.3 -.4l-.1 -.3l-.1 -.3v-.8l.1 -.3l.1 -.4l.3 -.3l.3 -.2l.3 -.2l.4 -.1h.7l.4 .1l.3 .2l.3 .2l.2 .3l.2 .4l.1 .3l.1 .4l-.1 .2v.2l-.1 .3l-.1 .1v.1l-.1 .1l-.2 .4l-.3 .2l-.2 .1h-.1v.1l-.4 .1h-.3Z" class="g5_4"/>
<path d="M541 398.3l-.4 -.1l-.3 -.2l-.3 -.2l-.2 -.3l-.2 -.3l-.1 -.4V396l.1 -.3l.2 -.4l.2 -.2l.3 -.3l.3 -.2l.4 -.1h.7l.4 .1l.3 .2l.3 .3l.2 .2l.2 .4l.1 .3l.1 .4v.2l-.1 .1v.1l-.1 .4l-.1 .1l-.1 .2l-.2 .3l-.3 .2l-.2 .1l-.1 .1l-.4 .1h-.1l-.1 .1h-.1Z" class="g5_4"/>
<path d="M573.1 340.5l-.4 -.1l-.3 -.2l-.3 -.3l-.3 -.3l-.1 -.3l-.1 -.3v-.8l.1 -.4l.1 -.3l.3 -.3l.3 -.3l.3 -.1l.4 -.1h.7l.4 .1l.3 .1l.3 .3l.2 .3l.2 .3l.1 .4l.1 .4l-.1 .2v.2l-.1 .3l-.1 .1v.1l-.1 .1l-.2 .3l-.3 .3l-.2 .1h-.1v.1l-.4 .1h-.3Z" class="g5_4"/>
<path d="M583.6 392.3l-.4 -.1l-.3 -.2l-.3 -.3l-.3 -.3l-.1 -.3l-.1 -.4V390l.1 -.4l.1 -.3l.3 -.3l.3 -.3l.3 -.1l.4 -.1l.3 -.1l.4 .1l.4 .1l.3 .1l.3 .3l.2 .3l.2 .3l.1 .4l.1 .4l-.1 .1v.2l-.1 .4l-.1 .1l-.1 .2l-.2 .3l-.3 .3l-.2 .1h-.1v.1l-.4 .1h-.4Z" class="g5_4"/>
<path d="M741 320.6l-7.1 6.5l-.1 .1l-42.2 39l50.8 25.7l9 4.6l1.3 .6M730.4 331.7l-1.1 1.5l-.9 1.7l-.9 1.6l-.8 1.7" class="g6_4"/>
<path d="M738 388.5l-1.3 -1.2l-1.2 -1.2l-.7 -.7l-.7 -.8l-1.3 -1.5l-.6 -.8l-.6 -.7l-.6 -.9l-.6 -.7l-.5 -.9l-.5 -.8l-1 -1.7l-.5 -.8l-.4 -.9l-.4 -.8l-.4 -.9l-.5 -1.2l-.5 -1.3l-.4 -1.2l-.4 -1.3l-.3 -1.1l-.3 -1.1l-.2 -1.1l-.2 -1.1l-.4 -2.3l-.1 -1.1l-.1 -1.2l-.1 -2.7v-2l.1 -1.2l.2 -2.4v-.4l.1 -1l.2 -1l.2 -1.4l.3 -1.3l.3 -1.3l.3 -1.3l.4 -1.3l.4 -1.2l1 -2.5m0 0l3.7 -6.5m3.4 -4.5l-.9 1l-.9 1.1l-.8 1.2l-.8 1.2m7.6 56.8l1 .9l1.1 .9l1.1 .8l1.2 .8l1 .7l1.1 .7l1.1 .6l1.2 .6l1.1 .6l1.2 .5l1.1 .4l1.2 .5l1.7 .5l1.7 .5l1.8 .4l1.8 .3l1.7 .2l1.7 .2l1.7 .1l1.8 .1l1.3 -.1H768l.3 -.1h.4l.7 -.1h.6l.7 -.1l1.7 -.2l.9 -.2l.8 -.2l1.7 -.4l.8 -.2l.9 -.2l.8 -.3l.8 -.2l1.6 -.6l.7 -.3l.4 -.2l.2 -.1l.2 -.1l1.6 -.7l.7 -.4l.8 -.4l.7 -.4l.7 -.5l.7 -.5l.8 -.4l.3 -.3l.2 -.1l.2 -.1l.7 -.5l1.4 -1.1l1.4 -1.2l1.3 -1.2l1.3 -1.3l.6 -.6l1 -1l.8 -1l.8 -1l.8 -1l.8 -1m0 0l.1 -.2l.9 -1.4l.4 -.7l.5 -.7l.8 -1.5l.3 -.7l.4 -.7l.2 -.4l.1 -.4l.4 -.8l.3 -.7l.3 -.8l.6 -1.5l.2 -.8l.3 -.8l.2 -.7l.1 -.4l.1 -.3l.1 -.8l.1 -.4l.1 -.3l.2 -.8l.1 -.7l.1 -.8l.2 -.7l.1 -.8v-.8l.1 -.8l.1 -.8v-.8l.1 -.8v-3.9l-.1 -1.1v-1.2l-.3 -2.2l-.2 -1.1l-.2 -1.1l-.2 -1.1l-.2 -1.1l-.3 -1l-.3 -1.1l-.3 -1l-.4 -1l-.3 -1.1l-.5 -1l-.4 -1l-.4 -.9l-.8 -1.6l-1 -1.7l-1 -1.6l-1.2 -1.6L798 328.7l-.2 -.3l-1.4 -1.6L795 325.3l-.9 -.9l-.9 -.8l-.9 -.9l-.9 -.7l-1.1 -.9l-1.1 -.8l-1.5 -1l-1 -.7l-1.1 -.6l-1 -.6l-1.1 -.5l-1.1 -.6l-1.1 -.4l-1.1 -.5l-1.1 -.4l-1.2 -.4l-1.1 -.3l-1.2 -.4l-1.2 -.2l-1.2 -.3l-1.2 -.2l-1.3 -.1l-1.2 -.1l-2.6 -.2h-3.6l-1.6 .1l-1.5 .1l-1.5 .2l-1.5 .3l-1.7 .3l-1.6 .5l-1.8 .5l-1.7 .6l-1.9 .8l-1.8 .9l-.8 .4l-.8 .4l-.8 .5l-1.5 .9l-.9 .6l-.9 .7l-1.6 1.2L738 323l-1.3 1.1l-1.2 1.2l-.8 .9l-.8 .9" class="g7_4"/>
<path d="M691.4 368l-.3 -.2l-.3 -.2l-.3 -.2l-.3 -.3l-.1 -.3l-.1 -.4l-.1 -.3l.1 -.5l.1 -.3l.1 -.3l.3 -.3l.3 -.3l.3 -.2l.3 -.1h.8l.3 .1l.2 .1l.2 .1l.3 .3l.2 .3l.2 .3l.1 .3v.8l-.1 .4l-.2 .3l-.2 .3l-.3 .2l-.2 .1l-.1 .1h-.1l-.3 .2h-.4Z" class="g5_4"/>
<path d="M749.1 397.4l-.3 -.2l-.4 -.1l-.2 -.3l-.3 -.3l-.2 -.3l-.1 -.4v-.7l.1 -.4l.2 -.3l.3 -.3l.2 -.3l.4 -.2l.3 -.1h.8l.3 .1l.2 .1l.1 .1l.3 .3l.3 .3l.2 .3l.1 .4v.7l-.1 .4l-.2 .3l-.3 .3l-.3 .3h-.1l-.1 .1h-.1l-.3 .2h-.4Z" class="g5_4"/>
<path d="M736.1 326.1l-.4 -.1l-.3 -.2l-.3 -.2l-.3 -.3l-.1 -.3l-.1 -.4v-.8l.1 -.3l.1 -.3l.3 -.3l.3 -.3l.3 -.2l.4 -.1h.7l.4 .1l.1 .1l.2 .1l.3 .3l.2 .3l.2 .3l.1 .3l.1 .5l-.1 .1v.2l-.1 .4l-.2 .3l-.2 .3l-.3 .2l-.2 .1l-.1 .1l-.4 .1h-.1l-.1 .1h-.2Z" class="g5_4"/>
<path d="M70.4 310h.7v-.7h-.7v.7Z" class="g2_4"/>
<path d="M71.1 310H334.2v-.7H71.1v.7Z" class="g2_4"/>
<path d="M334.2 310h.7v-.7h-.7v.7Z" class="g2_4"/>
<path d="M335 310H861.9v-.7H335v.7Z" class="g2_4"/>
<path d="M861.9 310h.7v-.7h-.7v.7Z" class="g2_4"/>
<path d="M70.4 411.9h.7V310h-.7V411.9Z" class="g2_4"/>
<path d="M70.4 412.7h.7v-.8h-.7v.8Z" class="g2_4"/>
<path d="M70.4 412.7h.7v-.8h-.7v.8Z" class="g2_4"/>
<path d="M71.1 412.7H334.2v-.8H71.1v.8Z" class="g2_4"/>
<path d="M334.2 411.9h.7V310h-.7V411.9Z" class="g2_4"/>
<path d="M334.2 412.7h.7v-.8h-.7v.8Z" class="g2_4"/>
<path d="M335 412.7H861.9v-.8H335v.8Z" class="g2_4"/>
<path d="M861.9 411.9h.7V310h-.7V411.9Z" class="g2_4"/>
<path d="M861.9 412.7h.7v-.8h-.7v.8Z" class="g2_4"/>
<path d="M861.9 412.7h.7v-.8h-.7v.8Z" class="g2_4"/>
<path fill-rule="evenodd" d="M71.1 523.4H473V495.9H71.1v27.5Z" class="g0_4"/>
<path d="M79 523.4H465.1V495.9H79v27.5Z" class="g0_4"/>
<path fill-rule="evenodd" d="M473.7 523.4H861.9V495.9H473.7v27.5Z" class="g0_4"/>
<path d="M481.6 523.4H854V495.9H481.6v27.5Z" class="g0_4"/>
<path d="M70.4 495.9h.7v-.7h-.7v.7Z" class="g2_4"/>
<path d="M70.4 495.9h.7v-.7h-.7v.7Z" class="g2_4"/>
<path d="M71.1 495.9H473v-.7H71.1v.7Z" class="g2_4"/>
<path d="M473 495.9h.7v-.7H473v.7Z" class="g2_4"/>
<path d="M473.7 495.9H861.9v-.7H473.7v.7Z" class="g2_4"/>
<path d="M861.9 495.9h.7v-.7h-.7v.7Z" class="g2_4"/>
<path d="M861.9 495.9h.7v-.7h-.7v.7Z" class="g2_4"/>
<path d="M70.4 523.4h.7V495.9h-.7v27.5Z" class="g2_4"/>
<path d="M473 523.4h.7V495.9H473v27.5Z" class="g2_4"/>
<path d="M861.9 523.4h.7V495.9h-.7v27.5Z" class="g2_4"/>
<path d="M573.7 593.5l-57.6 16.4l1.1 .6l1.2 .6l1.1 .6l1.3 .5l1.2 .4l1.2 .4l1.3 .4l1.2 .4l1.3 .3l1.3 .2l1.3 .2l1.4 .2l1.3 .2l1.4 .1h1.4l1.4 .1l.2 -.1h2l1.1 -.1l1 -.1l1.1 -.1l1.1 -.1l.5 -.1h.2l.3 -.1l1.1 -.1l.5 -.2l.5 -.1l1 -.2l1 -.3l1 -.3l.5 -.2h.2l.3 -.1l1 -.3l.5 -.2l.4 -.2l1 -.4l1 -.4l.9 -.5l.9 -.5l1 -.4l.9 -.6l.9 -.5l.8 -.6l.9 -.6l.9 -.6l.9 -.7l.4 -.3l.4 -.3l.8 -.7l.9 -.7l.8 -.8l.4 -.4l.2 -.2l.2 -.2l.8 -.8l.9 -1l.5 -.5l.5 -.5l.8 -1.1l.9 -1l.8 -1.1l.4 -.6l.4 -.5l.4 -.6l.3 -.5l.8 -1.1M505.9 539.2l-1.1 1.2l-1.1 1.2l-1 1.2l-.9 1.3l-1 1.2l-.8 1.3l-.8 1.3l-.8 1.4l-.7 1.3l-.6 1.4l-.6 1.4l-.6 1.4l-.4 1.5l-.5 1.4l-.4 1.5l-.3 1.5l73.3 -20.9l-.3 -.3l-.3 -.3l-.8 -.8l-.8 -.8l-.8 -.7l-.9 -.7l-.8 -.8l-.8 -.6l-.9 -.7l-.9 -.6l-.9 -.6l-.8 -.6l-1.8 -1l-1 -.5l-.9 -.5l-.9 -.5l-1 -.4l-1 -.4l-.9 -.3l-1 -.4l-1 -.3l-1 -.3l-1 -.3l-1 -.2l-1 -.2l-1.1 -.2l-1 -.2l-1.1 -.1l-1.1 -.1l-1 -.1h-1.1l-1.1 -.1h-1.1l-2.3 .1l-2.1 .1l-2.2 .2l-2 .4l-2.1 .4l-2 .6l-2 .7l-1.9 .7l-1.9 .9l-1.9 1l-1.8 1l-1.7 1.2l-1.8 1.3l-1.7 1.4l-1.6 1.4l-1.6 1.6" class="gc_4"/>
<path d="M494.3 560.7l-.3 1.2l-.1 1.2l-.4 2.5l-.1 1.2l-.1 1.3v4.8l.1 1.1l.1 1.1l.1 1.1l.1 1.1l.2 1.1l.1 1.1l.2 1l.3 1.1l.2 1l.3 1.1l.3 1l.4 1l.3 1l.4 1l.4 .9l.5 1l.4 .9l.5 1l1 1.9l.6 .9l.6 .9l.6 .9l.6 .9l.6 .8l.7 .9l.7 .8l.8 .9l.7 .8l.8 .8l1.2 1.2l1.2 1.1l1.2 1.1l1.3 1l1.3 1l1.3 .9l1.3 .8l1.4 .8m57.6 -16.4l.3 -.7l.2 -.3l.2 -.3l.3 -.7l.4 -.6l.6 -1.4l.6 -1.3l.5 -1.3l.5 -1.4l.5 -1.4l.4 -1.4l.3 -1.5l.3 -1.4l.3 -1.5l.1 -.8l.1 -.7v-.4l.1 -.4v-.7l.1 -.4v-.4l.1 -.7v-1.6l.1 -.8v-1.9l-.1 -1.1l-.1 -2.2l-.3 -2.2l-.1 -1l-.2 -1.1l-.2 -1l-.2 -1.1l-.5 -2l-.3 -1l-.4 -1l-.7 -1.9l-.4 -1l-.4 -.9l-.9 -1.9l-.5 -.9l-.5 -.9l-1.1 -1.8l-1.2 -1.7l-.6 -.9l-.6 -.8L569 541.4l-1.4 -1.6" class="gd_4"/>
<path d="M493.6 562.8l-.3 -.1l-.4 -.2l-.2 -.2l-.3 -.3l-.2 -.3l-.1 -.4v-.8l.1 -.3l.2 -.4l.3 -.2l.2 -.3l.4 -.2l.3 -.1h.8l.3 .1l.3 .2l.3 .3l.2 .2l.2 .4l.1 .3l.1 .4v.2l-.1 .1v.1l-.1 .4l-.2 .3l-.2 .3l-.3 .2l-.3 .2l-.3 .1h-.1l-.1 .1H494Z" class="g5_4"/>
<path d="M566.8 541.6l-.4 -.1l-.3 -.2l-.3 -.3l-.2 -.3l-.2 -.3l-.1 -.4v-.7l.1 -.4l.2 -.3l.2 -.3l.3 -.3l.3 -.2l.4 -.1h.8l.3 .1l.3 .2l.3 .3l.2 .3l.2 .3l.1 .4l.1 .4v.1l-.1 .1v.1l-.1 .4l-.2 .3l-.2 .3l-.3 .3l-.3 .2l-.3 .1h-.4Z" class="g5_4"/>
<path d="M573.2 595.5l-.4 -.1l-.3 -.2l-.3 -.2l-.2 -.3l-.2 -.4l-.1 -.3v-.8l.1 -.4l.2 -.3l.2 -.3l.3 -.2l.3 -.2l.4 -.1h.8l.3 .1l.3 .2l.3 .2l.2 .3l.2 .3l.1 .4l.1 .4l-.1 .2v.2l-.1 .3l-.2 .4l-.2 .3l-.3 .2l-.3 .2l-.3 .1h-.2l-.2 .1Z" class="g5_4"/>
<path d="M516 612.1l-.3 -.1l-.3 -.2l-.3 -.2l-.3 -.3l-.1 -.3l-.1 -.4l-.1 -.4l.1 -.4l.1 -.3l.1 -.4l.3 -.3l.3 -.2l.3 -.2l.3 -.1h.8l.3 .1l.3 .2l.3 .2l.3 .3l.2 .4l.1 .3v.8l-.1 .4l-.2 .3l-.3 .3l-.3 .2l-.3 .2l-.3 .1h-.2l-.2 .1Z" class="g5_4"/>
<path d="M536 574.2l-.3 -.1l-.3 -.2l-.3 -.3l-.3 -.3l-.1 -.3l-.1 -.3l-.1 -.4l.1 -.4l.1 -.4l.1 -.3l.3 -.3l.3 -.3l.3 -.1l.3 -.2h.8l.3 .2l.3 .1l.3 .3l.3 .3l.2 .3l.1 .4v.8l-.1 .3l-.2 .3l-.3 .3l-.3 .3l-.3 .2l-.3 .1h-.4Z" class="g5_4"/>
<path d="M749.2 550.9h23.2" class="g1_4"/>
<path d="M789.8 550.8h24.4" class="ge_4"/>
<path d="M70.4 524.1h.7v-.7h-.7v.7Z" class="g2_4"/>
<path d="M71.1 524.1H473v-.7H71.1v.7Z" class="g2_4"/>
<path d="M473 524.1h.7v-.7H473v.7Z" class="g2_4"/>
<path d="M473.7 524.1H620.4v-.7H473.7v.7Z" class="g2_4"/>
<path d="M620.4 524.1h.7v-.7h-.7v.7Z" class="g2_4"/>
<path d="M621.1 524.1H861.9v-.7H621.1v.7Z" class="g2_4"/>
<path d="M861.9 524.1h.7v-.7h-.7v.7Z" class="g2_4"/>
<path d="M70.4 625.7h.7V524.1h-.7V625.7Z" class="g2_4"/>
<path d="M70.4 626.4h.7v-.7h-.7v.7Z" class="g2_4"/>
<path d="M70.4 626.4h.7v-.7h-.7v.7Z" class="g2_4"/>
<path d="M71.1 626.4H473v-.7H71.1v.7Z" class="g2_4"/>
<path d="M473 625.7h.7V524.1H473V625.7Z" class="g2_4"/>
<path d="M473 626.4h.7v-.7H473v.7Z" class="g2_4"/>
<path d="M473.7 626.4H620.4v-.7H473.7v.7Z" class="g2_4"/>
<path d="M620.4 625.7h.7V524.1h-.7V625.7Z" class="g2_4"/>
<path d="M620.4 626.4h.7v-.7h-.7v.7Z" class="g2_4"/>
<path d="M621.1 626.4H861.9v-.7H621.1v.7Z" class="g2_4"/>
<path d="M861.9 625.7h.7V524.1h-.7V625.7Z" class="g2_4"/>
<path d="M861.9 626.4h.7v-.7h-.7v.7Z" class="g2_4"/>
<path d="M861.9 626.4h.7v-.7h-.7v.7Z" class="g2_4"/>
<path fill-rule="evenodd" d="M71.1 709.7H334.2V682.2H71.1v27.5Z" class="g0_4"/>
<path d="M79 709.7H326.3V682.2H79v27.5Z" class="g0_4"/>
<path fill-rule="evenodd" d="M335 709.7H592.9V682.2H335v27.5Z" class="g0_4"/>
<path d="M342.8 709.7H585V682.2H342.8v27.5Z" class="g0_4"/>
<path fill-rule="evenodd" d="M593.6 709.7H867.9V682.2H593.6v27.5Z" class="g0_4"/>
<path d="M601.5 709.7H860V682.2H601.5v27.5Z" class="g0_4"/>
<path d="M70.4 682.2h.7v-.8h-.7v.8Z" class="g2_4"/>
<path d="M70.4 682.2h.7v-.8h-.7v.8Z" class="g2_4"/>
<path d="M71.1 682.2H334.2v-.8H71.1v.8Z" class="g2_4"/>
<path d="M334.2 682.2h.7v-.8h-.7v.8Z" class="g2_4"/>
<path d="M335 682.2H592.9v-.8H335v.8Z" class="g2_4"/>
<path d="M592.9 682.2h.7v-.8h-.7v.8Z" class="g2_4"/>
<path d="M593.6 682.2H867.9v-.8H593.6v.8Z" class="g2_4"/>
<path d="M867.9 682.2h.7v-.8h-.7v.8Z" class="g2_4"/>
<path d="M867.9 682.2h.7v-.8h-.7v.8Z" class="g2_4"/>
<path d="M70.4 709.7h.7V682.2h-.7v27.5Z" class="g2_4"/>
<path d="M334.2 709.7h.7V682.2h-.7v27.5Z" class="g2_4"/>
<path d="M592.9 709.7h.7V682.2h-.7v27.5Z" class="g2_4"/>
<path d="M867.9 709.7h.7V682.2h-.7v27.5Z" class="g2_4"/>
<path d="M171.2 793.5l-.7 -.7l-.6 -.7l-.7 -.8l-.6 -.7l-.6 -.7l-.5 -.8l-1.1 -1.5l-.5 -.8l-.5 -.8l-.5 -.8l-.4 -.8l-.4 -.8l-.4 -.8l-.4 -.9l-.4 -.8l-.3 -.9l-.3 -.8l-.3 -.9l-.3 -.9l-.5 -1.8l-.2 -.9l-.1 -.9l-.3 -1.9l-.2 -1l-.1 -.9v-1l-.1 -.9v-4l.1 -1.9l.3 -1.9l.3 -1.9l.3 -1.9l.5 -1.7l.6 -1.8l.6 -1.7l.8 -1.7l.8 -1.6l.9 -1.7l1 -1.5l1.1 -1.6l1.1 -1.4l1.3 -1.5l1.3 -1.4l1.6 -1.5l1.6 -1.4l36 23.5l-38.3 34.7Z" class="gf_4"/>
<path d="M174.4 736.2l1.2 -1.1l1.3 -.9l1.3 -.9l1.4 -.8l1.4 -.8l1.4 -.6l1.4 -.7l1.5 -.5l1.5 -.5l1.5 -.4l1.5 -.4l1.6 -.3l1.6 -.2l1.6 -.2l1.7 -.1h3.5l1 .1l1 .1h.9l.9 .2l1.9 .3l.8 .2l.9 .2l1.8 .5l.8 .2l.9 .3l.9 .3l.8 .4l.8 .4l.9 .3l.8 .4l.8 .5l.7 .4l.8 .5l.8 .5l.8 .5l1.5 1.1l.7 .6l.8 .6l.7 .6l.7 .7l.7 .7l.7 .7l1 1l1 1.1l.9 1.1l.9 1.1l-18 16.3Z" class="gf_4"/>
<path d="M210.4 759.7l18 -16.3l.8 1.2l.9 1.3l.7 1.3l.8 1.4l.6 1.3l.6 1.4l.5 1.3l.5 1.5l.5 1.4l.3 1.5l.3 1.5l.3 1.5l.2 1.5l.2 1.6v1.6l.1 1.6v1.2l-.1 1.2l-.1 1.1l-.1 1.2l-.1 .6v.5l-.2 1.2v.2l-.1 .3l-.1 .6l-.2 1.1Z" class="gf_4"/>
<path d="M196.1 804.8l-1.9 -.2l-1.8 -.2l-1.7 -.2l-1.8 -.4l-1.7 -.5l-1.6 -.5l-1.6 -.6l-1.6 -.7l-1.6 -.8l-1.5 -.8l-1.5 -.9l-1.5 -1.1l-1.4 -1.1l-1.4 -1.1l-1.4 -1.3l38.3 -34.7l24.3 15.8l-.1 .6l-.1 .3l-.1 .2v.2l-.2 .6l-.2 .6l-.2 .6l-.2 .6l-.4 1.2l-.5 1.2l-.5 1.2l-.6 1.1l-.3 .6l-.1 .1v.2l-.2 .3l-.6 1.1l-.2 .2l-.2 .3l-.3 .6l-.4 .5l-.2 .3l-.2 .3l-.7 1l-.5 .5l-.4 .6l-.8 1l-.9 1l-.5 .5l-.5 .5l-.7 .7l-.2 .2l-.2 .2l-.3 .3l-.7 .6l-.4 .3l-.3 .4l-.4 .3l-.4 .3l-.7 .6l-.8 .5l-.7 .6l-.2 .1l-.2 .1l-.4 .3l-.8 .5l-.4 .2l-.4 .2l-.7 .5l-.8 .4l-.3 .1l-.1 .1l-.4 .2l-.9 .4l-.8 .4l-.8 .3l-.5 .2l-.4 .2l-.4 .1l-.5 .1l-.8 .3l-1.8 .5l-.9 .2l-.4 .1l-.4 .1l-1.9 .3l-.9 .1l-.5 .1h-.9l-.5 .1l-1 .1h-1.9Z" class="gf_4"/>
<path d="M228.4 743.4l-.9 -1.1l-.9 -1.1l-1 -1.1l-1 -1l-.7 -.7l-.7 -.7l-.7 -.7l-.7 -.6l-.8 -.6l-.7 -.6l-1.5 -1.1l-.8 -.5l-.8 -.5l-.8 -.5l-.7 -.4l-.8 -.5l-.8 -.4l-.9 -.3l-.8 -.4l-.8 -.4l-.9 -.3l-.9 -.3l-.8 -.2l-1.8 -.5l-.9 -.2l-.8 -.2l-1.9 -.3l-.9 -.2h-.9l-1 -.1l-1 -.1h-3.5l-1.7 .1l-1.6 .2l-1.6 .2l-1.6 .3l-1.5 .4l-1.5 .4l-1.5 .5l-1.5 .5l-1.4 .7l-1.4 .6l-1.4 .8l-1.4 .8l-1.3 .9l-1.3 .9l-1.2 1.1m60.3 39.3l.2 -1.1l.1 -.6l.1 -.3v-.2l.2 -1.2v-.5l.1 -.6l.1 -1.2l.1 -1.1l.1 -1.2v-1.2l-.1 -1.6v-1.6l-.2 -1.6l-.2 -1.5l-.3 -1.5l-.3 -1.5l-.3 -1.5l-.5 -1.4l-.5 -1.5l-.5 -1.3l-.6 -1.4l-.6 -1.3l-.8 -1.4l-.7 -1.3l-.9 -1.3l-.8 -1.2m-56.3 51l1.4 1.3l1.4 1.1l1.4 1.1l1.5 1.1l1.5 .9l1.5 .8l1.6 .8l1.6 .7l1.6 .6l1.6 .5l1.7 .5l1.8 .4l1.7 .2l1.8 .2l1.9 .2h3.7l1 -.1l.5 -.1h.9l.5 -.1l.9 -.1l1.9 -.3l.4 -.1l.4 -.1l.9 -.2l1.8 -.5l.8 -.3l.5 -.1l.4 -.1l.4 -.2l.5 -.2l.8 -.3l.8 -.4l.9 -.4l.4 -.2l.1 -.1l.3 -.1l.8 -.4l.7 -.5l.4 -.2l.4 -.2l.8 -.5l.4 -.3l.2 -.1l.2 -.1l.7 -.6l.8 -.5l.7 -.6l.4 -.3l.4 -.3l.3 -.4l.4 -.3l.7 -.6l.3 -.3l.2 -.2l.2 -.2l.7 -.7l.5 -.5l.5 -.5l.9 -1l.8 -1l.4 -.6l.5 -.5l.7 -1l.2 -.3l.2 -.3l.4 -.5l.3 -.6l.2 -.3l.2 -.2l.6 -1.1l.2 -.3v-.2l.1 -.1l.3 -.6l.6 -1.1l.5 -1.2l.5 -1.2l.4 -1.2l.2 -.6l.2 -.6l.2 -.6l.2 -.6v-.2l.1 -.2l.1 -.3l.1 -.6m0 0L210.4 759.7m0 0l-38.3 34.7m38.3 -34.7l-36 -23.5m54 7.2l-18 16.3m-36 -23.5l-1.6 1.4l-1.6 1.5l-1.3 1.4l-1.3 1.5l-1.1 1.4l-1.1 1.6l-1 1.5l-.9 1.7l-.8 1.6l-.8 1.7l-.6 1.7l-.6 1.8l-.5 1.7l-.3 1.9l-.3 1.9l-.3 1.9l-.1 1.9v4l.1 .9v1l.1 .9l.2 1l.3 1.9l.1 .9l.2 .9l.5 1.8l.3 .9l.3 .9l.3 .8l.3 .9l.4 .8l.4 .9l.4 .8l.4 .8l.4 .8l.5 .8l.5 .8l.5 .8l1.1 1.5l.5 .8l.6 .7l.6 .7l.7 .8l.6 .7l.7 .7l.9 .9" class="gg_4"/>
<path d="M417.4 796.2l-1 -.9l-.8 -.8l-.7 -.8l-.7 -.8l-.6 -.7l-.6 -.8l-.7 -.8l-.6 -.9l-.5 -.8l-.6 -.8l-.5 -.9l-.9 -1.7l-.5 -.9l-.4 -.9l-.4 -.9l-.4 -.8l-.4 -1l-.3 -.9l-.3 -.9l-.3 -1l-.5 -1.9l-.2 -1l-.2 -.9l-.2 -1.1l-.2 -.9l-.1 -1.1l-.1 -1l-.1 -1V764l.1 -2.1l.2 -2l.4 -2l.4 -1.9l.5 -2l.6 -1.8l.7 -1.9l.8 -1.8l.9 -1.7l.9 -1.8l1.1 -1.6l1.1 -1.7l1.3 -1.6l1.3 -1.6l1.5 -1.5l1.4 -1.3l1.4 -1.3l1.4 -1.2l1.5 -1.1l61.8 22.4l.3 1.3l.4 1.4l.2 1.5l.3 1.4l.1 1.5l.1 1.5l.1 1.5v3.7l-.1 .6v.5l-.1 1.1l-.1 1.1l-.1 1l-.1 .5l-.1 .6l-.2 1l-66.2 22.5Z" class="gh_4"/>
<path d="M422.1 732.1l1.2 -.8l1.3 -.9l1.3 -.7l1.3 -.7l1.4 -.7l1.4 -.6l1.4 -.5l1.4 -.5l1.4 -.4l1.5 -.4l1.5 -.3l1.5 -.2l1.5 -.2l1.6 -.2h1.6l1.6 -.1h1l1 .1h1l1.1 .1l1 .1l1 .1l.9 .2l1 .2l1 .2l1 .2l1.8 .5l1 .3l.9 .3l.9 .3l.9 .4l.9 .4l.9 .4l.8 .5l.9 .4l.8 .5l.9 .5l.8 .5l.9 .6l.8 .6l.8 .6l.7 .6l.8 .7l.8 .6l.8 .7l.7 .8l.8 .7l.9 1l.9 1l.8 .9l.8 1.1l.8 1l.7 1.1l.8 1l.6 1.1l.7 1.1l.5 1.1l.6 1.1l.5 1.2l.5 1.2l.4 1.1l.4 1.2l.4 1.3Z" class="gh_4"/>
<path d="M443 807.3l-1.8 -.1l-1.9 -.2l-1.8 -.3l-1.7 -.4l-1.8 -.4l-1.7 -.5l-1.7 -.6l-1.6 -.7l-1.6 -.7l-1.6 -.9l-1.6 -.9l-1.5 -1l-1.5 -1.1l-1.4 -1.1l-1.4 -1.2l66.2 -22.5l-.1 .7l-.1 .4l-.1 .2v.2l-.2 .7l-.1 .7l-.3 .7l-.2 .7l-.4 1.4l-.3 .6l-.3 .7l-.2 .7l-.1 .1l-.1 .2l-.1 .3l-.7 1.4l-.6 1.3l-.4 .6l-.2 .3l-.1 .3l-.4 .6l-.2 .3l-.2 .4l-.8 1.2l-.9 1.2l-.9 1.2l-.9 1.2l-1 1.1l-1.1 1.2l-.8 .7l-.4 .4l-.2 .1l-.1 .2l-.8 .7l-.4 .3l-.4 .4l-.4 .3l-.4 .3l-.7 .7l-.8 .6l-.3 .1l-.2 .1l-.3 .3l-.9 .6l-.8 .5l-.9 .5l-.4 .2l-.4 .3l-.9 .4l-.8 .5l-.3 .1l-.2 .1l-.4 .2l-.9 .4l-.9 .4l-.9 .3l-.9 .3l-1 .3l-.9 .3l-.9 .2l-1 .3l-1 .2l-1 .1l-.2 .1h-.2l-.5 .1l-1 .1l-1 .1l-1.1 .1h-.5l-.5 .1h-2Z" class="gh_4"/>
<path d="M418.4 797.2l66.2 -22.5l28.7 -9.6L483.9 754.5L422.1 732.1m61.8 22.4l-.4 -1.3l-.4 -1.2l-.4 -1.1l-.5 -1.2l-.5 -1.2l-.6 -1.1l-.5 -1.1l-.7 -1.1l-.6 -1.1l-.8 -1l-.7 -1.1l-.8 -1l-.8 -1.1l-.8 -.9l-.9 -1l-.9 -1l-.8 -.7l-.7 -.8l-.8 -.7l-.8 -.6l-.8 -.7l-.7 -.6l-.8 -.6l-.8 -.6l-.9 -.6l-.8 -.5l-.9 -.5l-.8 -.5l-.9 -.4l-.8 -.5l-.9 -.4l-.9 -.4l-.9 -.4l-.9 -.3l-.9 -.3l-1 -.3l-1.8 -.5l-1 -.2l-1 -.2l-1 -.2l-.9 -.2l-1 -.1l-1 -.1L448 725h-1l-1 -.1h-1l-1.6 .1h-1.6l-1.6 .2l-1.5 .2l-1.5 .2l-1.5 .3l-1.5 .4l-1.4 .4l-1.4 .5l-1.4 .5l-1.4 .6l-1.4 .7l-1.3 .7l-1.3 .7l-1.3 .9l-1.2 .8l-1.5 1.1l-1.4 1.2l-1.4 1.3l-1.4 1.3l-1.5 1.5l-1.3 1.6l-1.3 1.6l-1.1 1.7l-1.1 1.6l-.9 1.8l-.9 1.7l-.8 1.8l-.7 1.9l-.6 1.8l-.5 2l-.4 1.9l-.4 2l-.2 2l-.1 2.1v5.3l.1 1l.1 1l.1 1.1l.2 .9l.2 1.1l.2 .9l.2 1l.5 1.9l.3 1l.3 .9l.3 .9l.4 1l.4 .8l.4 .9l.4 .9l.5 .9l.9 1.7l.5 .9l.6 .8l.5 .8l.6 .9l.7 .8l.6 .8l.6 .7l.7 .8l.7 .8l.8 .8l1 .9l1 1l1.4 1.2l1.4 1.1l1.5 1.1l1.5 1l1.6 .9l1.6 .9l1.6 .7l1.6 .7l1.7 .6l1.7 .5l1.8 .4l1.7 .4l1.8 .3l1.9 .2l1.8 .1h4l.5 -.1h.5l1.1 -.1l1 -.1l1 -.1l.5 -.1h.2l.2 -.1l1 -.1l1 -.2l1 -.3l.9 -.2l.9 -.3l1 -.3l.9 -.3l.9 -.3l.9 -.4l.9 -.4l.4 -.2l.2 -.1l.3 -.1l.8 -.5l.9 -.4l.4 -.3l.4 -.2l.9 -.5l.8 -.5l.9 -.6l.3 -.3l.2 -.1l.3 -.1l.8 -.6l.7 -.7l.4 -.3l.4 -.3l.4 -.4l.4 -.3l.8 -.7l.1 -.2l.2 -.1l.4 -.4l.8 -.7l1.1 -1.2l1 -1.1l.9 -1.2l.9 -1.2l.9 -1.2l.8 -1.2l.2 -.4l.2 -.3l.4 -.6l.1 -.3l.2 -.3l.4 -.6l.6 -1.3L482 783l.1 -.3l.1 -.2l.1 -.1l.2 -.7l.3 -.7l.3 -.6l.4 -1.4l.2 -.7l.3 -.7l.1 -.7l.2 -.7V776l.1 -.2l.1 -.4l.1 -.7l.2 -1l.1 -.6l.1 -.5l.1 -1l.1 -1.1l.1 -1.1v-.5l.1 -.6v-3.7l-.1 -1.5l-.1 -1.5l-.1 -1.5l-.3 -1.4l-.2 -1.5l-.4 -1.4l-.3 -1.3" class="gi_4"/>
<path d="M706 808.4h-1l-2 -.2l-1 -.1l-.9 -.1l-1.9 -.3l-1.9 -.4l-.9 -.3l-.9 -.2l-1.9 -.7l-1.7 -.6l-.9 -.4l-.8 -.4l-1.7 -.9l-1.7 -1l-1.6 -1l-1.5 -1.2l-1.6 -1.2l-.7 -.7l-.8 -.7l-1.4 -1.4l-.7 -.7l-.7 -.8l-1.3 -1.5L675.2 792l-.6 -.8l-.5 -.8l-1 -1.7l-.5 -.8l-.5 -.9l-.4 -.8l-.4 -.9l-.8 -1.8l-.3 -.9l-.4 -.9l-.6 -1.8l-.5 -1.9l-.2 -1l-.2 -.9l-.3 -2l-.1 -1l-.1 -1l-.1 -1v-1l-.1 -2.1l.1 -2.1l.1 -2l.2 -2l.3 -2l.4 -1.9l.5 -1.9l.6 -1.8l.7 -1.8l.8 -1.8l.8 -1.7l1 -1.7l1 -1.7l1.1 -1.6l1.3 -1.6l1.3 -1.5l1.4 -1.5l1.4 -1.4l1.5 -1.4l1.6 -1.2l1.5 -1.2l1.6 -1.1l1.7 -.9l1.7 -.9l1.7 -.8l1.7 -.7l1.9 -.6l1.8 -.5l1.9 -.4l1.9 -.3l1.9 -.2l2 -.2h4.8l1 .1l1.8 .2l1.8 .3l.9 .2l.9 .2l.8 .2l.9 .2l1.7 .6l.9 .2l.8 .4l.8 .3l.9 .4l.8 .3l.8 .4l1.6 .9l1.5 .9l.7 .5l.8 .6l.7 .5l.8 .6l1.4 1.2l1.5 1.2l1.4 1.4l.9 1.1l1 1l.9 1.1l.9 1.1l.7 1.2l.8 1.1l.8 1.2l.7 1.2l.6 1.2l.6 1.2l.5 1.3l.5 1.3l.5 1.2l.4 1.3l.4 1.4l.3 1.3L687.7 803l57.8 -44.4l.2 1.1l.2 1.2l.2 1.1l.1 1.2l.1 1.2l.1 1.2l.1 1.2V769l-.1 1.1v1l-.1 .5v.5l-.1 .5v.5l-.1 1l-.3 2l-.3 .9l-.2 1l-.2 .9l-.3 1l-.6 1.8l-.1 .5l-.1 .2l-.1 .2l-.3 .9l-.4 .9l-.4 .9l-.4 .9l-.5 .8l-.4 .9l-.5 .8l-1 1.7l-.6 .8l-.3 .4l-.1 .2l-.2 .2l-1.2 1.6l-.6 .7l-.7 .8l-.7 .8l-.6 .7l-.8 .7l-.7 .7l-.8 .7l-.7 .7l-1.6 1.2l-.2 .1l-.2 .2l-.4 .3l-.7 .6l-1.6 1l-.9 .5l-.8 .5l-.9 .4l-.8 .5l-.8 .4l-.9 .4l-.9 .3l-.2 .1l-.2 .1l-.5 .1l-1.8 .7l-.9 .2l-.9 .3l-1 .2l-.9 .2L713 808l-1 .1l-.5 .1h-.4l-.6 .1h-.4l-1 .1h-2Z" class="gj_4"/>
<path d="M745.5 758.6l-.3 -1.3l-.4 -1.4l-.4 -1.3l-.5 -1.2l-.5 -1.3l-.5 -1.3l-.6 -1.2l-.6 -1.2l-.7 -1.2l-.8 -1.2l-.8 -1.1l-.7 -1.2l-.9 -1.1l-.9 -1.1l-1 -1l-.9 -1.1L733.6 738l-1.5 -1.2l-1.4 -1.2l-.8 -.6l-.7 -.5l-.8 -.6l-.7 -.5l-1.5 -.9l-1.6 -.9l-.8 -.4l-.8 -.3l-.9 -.4l-.8 -.3l-.8 -.4l-.9 -.2l-1.7 -.6l-.9 -.2l-.8 -.2l-.9 -.2l-.9 -.2l-1.8 -.3l-1.8 -.2l-1 -.1h-.9m36.6 31l38.8 -29.7l-75.4 -1.3m36.6 31L687.7 803m21.2 -75.4H705l-2 .2l-1.9 .2l-1.9 .3l-1.9 .4l-1.8 .5l-1.9 .6l-1.7 .7l-1.7 .8l-1.7 .9l-1.7 .9l-1.6 1.1l-1.5 1.2l-1.6 1.2l-1.5 1.4l-1.4 1.4l-1.4 1.5l-1.3 1.5l-1.3 1.6l-1.1 1.6l-1 1.7l-1 1.7l-.8 1.7l-.8 1.8l-.7 1.8l-.6 1.8l-.5 1.9l-.4 1.9l-.3 2l-.2 2l-.1 2l-.1 2.1l.1 2.1v1l.1 1l.1 1l.1 1l.3 2l.2 .9l.2 1l.5 1.9l.6 1.8l.4 .9l.3 .9l.8 1.8l.4 .9l.4 .8l.5 .9l.5 .8l1 1.7l.5 .8l.6 .8l1.3 1.6l1.3 1.5l.7 .8l.7 .7l1.4 1.4l.8 .7l.7 .7l1.6 1.2l1.5 1.2l1.6 1l1.7 1l1.7 .9l.8 .4l.9 .4l1.7 .6l1.9 .7l.9 .2l.9 .3l1.9 .4l1.9 .3l.9 .1l1 .1l2 .2h4.1l1 -.1h.4l.6 -.1h.4l.5 -.1l1 -.1l1.9 -.3l.9 -.2l1 -.2l.9 -.3l.9 -.2l1.8 -.7l.5 -.1l.2 -.1l.2 -.1l.9 -.3l.9 -.4l.8 -.4l.8 -.5l.9 -.4l.8 -.5l.9 -.5l1.6 -1l.7 -.6l.4 -.3l.2 -.2l.2 -.1l1.6 -1.2l.7 -.7l.8 -.7l.7 -.7l.8 -.7l.6 -.7l.7 -.8l.7 -.8l.6 -.7l1.2 -1.6l.2 -.2l.1 -.2l.3 -.4l.6 -.8l1 -1.7l.5 -.8l.4 -.9l.5 -.8l.4 -.9l.4 -.9l.4 -.9l.3 -.9l.1 -.2l.1 -.2l.1 -.5l.6 -1.8l.3 -1l.2 -.9l.2 -1l.3 -.9l.3 -2l.1 -1v-.5l.1 -.5v-.5l.1 -.5v-1l.1 -1.1v-2.2l-.1 -1.2l-.1 -1.2l-.1 -1.2l-.1 -1.2l-.2 -1.1l-.2 -1.2l-.2 -1.1" class="gc_4"/>
<path d="M70.4 710.4h.7v-.7h-.7v.7Z" class="g2_4"/>
<path d="M71.1 710.4H334.2v-.7H71.1v.7Z" class="g2_4"/>
<path d="M334.2 710.4h.7v-.7h-.7v.7Z" class="g2_4"/>
<path d="M335 710.4H592.9v-.7H335v.7Z" class="g2_4"/>
<path d="M592.9 710.4h.7v-.7h-.7v.7Z" class="g2_4"/>
<path d="M593.6 710.4H867.9v-.7H593.6v.7Z" class="g2_4"/>
<path d="M867.9 710.4h.7v-.7h-.7v.7Z" class="g2_4"/>
<path d="M70.4 820.4h.7v-110h-.7v110Z" class="g2_4"/>
<path d="M334.2 820.4h.7v-110h-.7v110Z" class="g2_4"/>
<path d="M592.9 820.4h.7v-110h-.7v110Z" class="g2_4"/>
<path d="M867.9 820.4h.7v-110h-.7v110Z" class="g2_4"/>
<path d="M82.1 825.8h21.5" class="g1_4"/>
<path d="M121.4 825.8h22.3" class="gk_4"/>
<path d="M168.7 825.6h24.1m17 .2h24.4" class="ge_4"/>
<path d="M346 825.8h21.4m17.8 0h22.3" class="gk_4"/>
<path d="M432.5 825.6h24.2m16.9 .2H498" class="ge_4"/>
<path d="M604.6 825.8h21.5" class="g1_4"/>
<path d="M658 825.6h24.2m16.9 .2h24.4" class="ge_4"/>
<path d="M70.4 821.1h.7v-.7h-.7v.7Z" class="g2_4"/>
<path d="M71.1 821.1H334.2v-.7H71.1v.7Z" class="g2_4"/>
<path d="M334.2 821.1h.7v-.7h-.7v.7Z" class="g2_4"/>
<path d="M335 821.1H592.9v-.7H335v.7Z" class="g2_4"/>
<path d="M592.9 821.1h.7v-.7h-.7v.7Z" class="g2_4"/>
<path d="M593.6 821.1H867.9v-.7H593.6v.7Z" class="g2_4"/>
<path d="M867.9 821.1h.7v-.7h-.7v.7Z" class="g2_4"/>
<path d="M70.4 849h.7V821.1h-.7V849Z" class="g2_4"/>
<path d="M70.4 849.7h.7V849h-.7v.7Z" class="g2_4"/>
<path d="M70.4 849.7h.7V849h-.7v.7Z" class="g2_4"/>
<path d="M71.1 849.7H334.2V849H71.1v.7Z" class="g2_4"/>
<path d="M334.2 849h.7V821.1h-.7V849Z" class="g2_4"/>
<path d="M334.2 849.7h.7V849h-.7v.7Z" class="g2_4"/>
<path d="M335 849.7H592.9V849H335v.7Z" class="g2_4"/>
<path d="M592.9 849h.7V821.1h-.7V849Z" class="g2_4"/>
<path d="M592.9 849.7h.7V849h-.7v.7Z" class="g2_4"/>
<path d="M593.6 849.7H867.9V849H593.6v.7Z" class="g2_4"/>
<path d="M867.9 849h.7V821.1h-.7V849Z" class="g2_4"/>
<path d="M867.9 849.7h.7V849h-.7v.7Z" class="g2_4"/>
<path d="M867.9 849.7h.7V849h-.7v.7Z" class="g2_4"/>
<path d="M93.2 965.3V965l28.9 -41.4l68.1 48.2Z" class="gl_4"/>
<path d="M190.3 971.8l.1 -1.5v-2.9l-.1 -1.2l-.1 -2.6l-.3 -2.4l-.2 -1.2l-.2 -1.2l-.3 -1.2l-.2 -1.2l-.6 -2.3L188 953l-.4 -1.2l-.8 -2.1l-.4 -1.2l-.5 -1l-1.1 -2.2l-.6 -1l-.6 -1l-1.2 -2.1l-1.4 -2l-.8 -.9l-.7 -1l-.8 -.9l-.8 -.9l-1.7 -1.9l-1 -.9l-.9 -.8l-.9 -.9l-.9 -.8l-1.9 -1.5l-1 -.8l-.9 -.6l-2.1 -1.4l-1 -.6l-1 -.5l-1 -.6l-1.1 -.5l-2.1 -1l-1.1 -.4l-1.1 -.4l-1.1 -.4l-1.1 -.4l-1.1 -.3l-1.2 -.3l-1.1 -.3l-1.2 -.2l-1.2 -.2l-1.1 -.2l-1.2 -.2l-1.2 -.1l-2.5 -.1l-1.2 -.1h-1.3l-2.5 .1l-2.6 .1l-2.5 .3l-2.4 .5l-2.4 .5l-2.3 .7l-2.3 .8l-2.2 .9m0 0l-.8 .3m.8 -.3l-.4 .6m-.4 -.3l.4 .3m-.4 -.3l-2 1l-1.8 1l-1.9 1.1l-1.8 1.3l-1.8 1.3l-1.7 1.5L109 932l-1.7 1.6l-1.6 1.7l-1.4 1.7l-1.4 1.7l-1.3 1.8l-1.3 1.8l-1.1 1.9l-1 1.9l-.9 1.9l-.8 2l-.8 2l-.6 2.1l-.6 2.1l-.5 2.1l-.3 2.2l-.3 2.2l-.2 2.3m97.1 6.9v-.1m0 0h-.1m0 0l.1 .1M93.2 965.3l-.1 1.7v4.3l.2 2.5l.1 1.2l.2 1.2l.1 1.2l.3 1.2l.2 1.2l.3 1.2l.2 1.1l.4 1.2l.3 1.1l.4 1.2l.4 1.1l.4 1.1l1 2.1l.5 1.1l.5 1.1l.6 1l.6 1l1.3 2.1l.6 1l.8 1l1.5 1.9l.7 .9l.9 1l.8 .9l.9 .9l1.8 1.8l.9 .8l1 .8l.9 .8l.9 .7l2 1.5l2 1.3l1 .6l1 .6l2.1 1l1 .5l1.1 .5l2.2 .9l1.1 .3l1.1 .4l2.3 .6l1.1 .3l1.2 .2l1.2 .2l1.1 .2l2.5 .3l2.4 .2h1.3l1.2 .1l.6 -.1h1.9l2.5 -.2l1.2 -.1l1.2 -.2l.5 -.1l.6 -.1l1.2 -.2l1.2 -.2l1.1 -.3l1.2 -.3l1.1 -.3l1.1 -.4l.6 -.2l.2 -.1h.3l1.1 -.5l1.1 -.4l1.1 -.5l1 -.5l.5 -.2l.6 -.3l1 -.5l1 -.6l1 -.6l2.1 -1.3l.9 -.7l1 -.8l.9 -.7l1 -.8l.9 -.8l.4 -.4l.5 -.4l.9 -.9l1 -.9l.7 -.8l.8 -.9l1.5 -1.7l.7 -.9l.7 -.9l.7 -.9l.6 -.9l.6 -.9l.6 -1l1.2 -1.9l1 -1.9l.2 -.5l.3 -.5l.5 -1l.4 -1l.4 -1v-.3l.1 -.2l.2 -.5l.4 -1.1l.7 -2.1l.2 -1l.1 -.3l.1 -.3l.1 -.5l.1 -.5l.1 -.3v-.3l.3 -1.1l.1 -1.1l.2 -1.1l.3 -2.2l.1 -1.2l.1 -1.1M93.2 965v.3m0 0h-.1l.1 -.3m97 6.8l-97 -6.5m28.9 -41.7L93.2 965m28.9 -41.4l68.1 48.2" class="gm_4"/>
<path d="M142.7 971.6l-.4 -.2l-.4 -.2l-.3 -.3l-.3 -.3l-.2 -.4l-.1 -.4v-.9l.1 -.4l.2 -.4l.3 -.4l.3 -.3l.4 -.1l.4 -.2h.9l.4 .2l.4 .1l.3 .3l.3 .4l.2 .4l.1 .4l.1 .5v.2l-.1 .1v.1l-.1 .4l-.1 .2l-.1 .2l-.3 .3l-.3 .3l-.2 .1l-.2 .1l-.4 .2h-.4Z" class="g5_4"/>
<path d="M92.3 967.2l-.4 -.1l-.4 -.2l-.3 -.3l-.3 -.4l-.2 -.4l-.1 -.4l-.1 -.4l.1 -.5l.1 -.4l.2 -.4l.3 -.3l.3 -.3l.4 -.2l.4 -.1h.9l.4 .1l.4 .2l.3 .3l.3 .3l.2 .4l.1 .4l.1 .5l-.1 .2v.2l-.1 .4l-.1 .2l-.1 .2l-.3 .4l-.3 .3l-.2 .1l-.2 .1l-.4 .1h-.3l-.2 .1Z" class="g5_4"/>
<path d="M121.2 925.7l-.4 -.1l-.3 -.2l-.4 -.3l-.3 -.4l-.1 -.3l-.2 -.5v-.8l.2 -.5l.1 -.4l.3 -.3l.4 -.3l.3 -.2l.4 -.1h.9l.4 .1l.4 .2l.4 .3l.3 .3l.2 .4l.1 .5v.8l-.1 .5l-.1 .1l-.1 .2l-.3 .4l-.4 .3l-.2 .1l-.2 .1l-.4 .1h-.2l-.2 .1Z" class="g5_4"/>
<path d="M189.4 973.5l-.4 -.2l-.4 -.2l-.3 -.2l-.3 -.4l-.2 -.4l-.1 -.4v-.9l.1 -.4l.2 -.4l.3 -.3l.3 -.3l.4 -.2l.4 -.2h.9l.4 .2l.4 .2l.3 .3l.3 .3l.2 .4l.1 .4l.1 .5v.2l-.1 .1v.1l-.1 .4l-.1 .2l-.1 .2l-.3 .4l-.3 .2l-.2 .1l-.2 .1l-.4 .2h-.4Z" class="g5_4"/>
<path d="M70.4 905.5h.7v-.8h-.7v.8Z" class="g2_4"/>
<path d="M70.4 905.5h.7v-.8h-.7v.8Z" class="g2_4"/>
<path d="M71.1 905.5H240.7v-.8H71.1v.8Z" class="g2_4"/>
<path d="M240.7 905.5h.7v-.8h-.7v.8Z" class="g2_4"/>
<path d="M241.4 905.5H854.2v-.8H241.4v.8Z" class="g2_4"/>
<path d="M854.2 905.5h.7v-.8h-.7v.8Z" class="g2_4"/>
<path d="M854.2 905.5h.7v-.8h-.7v.8Z" class="g2_4"/>
<path d="M70.4 1021.9h.7V905.5h-.7v116.4Z" class="g2_4"/>
<path d="M70.4 1022.6h.7v-.7h-.7v.7Z" class="g2_4"/>
<path d="M70.4 1022.6h.7v-.7h-.7v.7Z" class="g2_4"/>
<path d="M71.1 1022.6H240.7v-.7H71.1v.7Z" class="g2_4"/>
<path d="M240.7 1021.9h.7V905.5h-.7v116.4Z" class="g2_4"/>
<path d="M240.7 1022.6h.7v-.7h-.7v.7Z" class="g2_4"/>
<path d="M241.4 1022.6H854.2v-.7H241.4v.7Z" class="g2_4"/>
<path d="M854.2 1021.9h.7V905.5h-.7v116.4Z" class="g2_4"/>
<path d="M854.2 1022.6h.7v-.7h-.7v.7Z" class="g2_4"/>
<path d="M854.2 1022.6h.7v-.7h-.7v.7Z" class="g2_4"/>
<path d="M150.9 1198.6l-2.8 -.1h5.5l-2.3 .1Z" class="gn_4"/>
<path d="M148.1 1198.5l-1.4 -.1l-2.2 -.2l-2.1 -.3l-2.1 -.4l-2.1 -.5l-2 -.6l-2 -.7l-2 -.8l-1.9 -.8l-1.9 -1l-1.9 -1l-1.8 -1.1l-1.8 -1.3l-1.7 -1.3l-1.7 -1.4l-1.6 -1.5l-1.6 -1.6l-.9 -.9l-.9 -1l-.8 -.9l-.8 -1l-.8 -1l-.7 -.9l-.8 -1l-.6 -1l-.7 -1.1l-.6 -1l-.7 -1l-.5 -1l-1.1 -2.2l-.5 -1.1l-.4 -1.1l-.8 -2.2l-.4 -1.2l-.4 -1.1l-.3 -1.1l-.3 -1.2l-.3 -1.2l-.2 -1.2l-.2 -1.2l-.2 -1.2l-.2 -1.3l-.1 -1.2l-.1 -1.3v-1.2l-.1 -2.6l.1 -2.5l.1 -2.6l.3 -2.4l.4 -2.5l.5 -2.4l.6 -2.3l.8 -2.3l.8 -2.2l.9 -2.2l1.1 -2.1l1.2 -2.1l1.3 -2.1l1.4 -2l1.5 -1.9l1.6 -1.9l1.8 -1.8l1.5 -1.6l1.6 -1.4l1.5 -1.4l1.7 -1.2l1.6 -1.2l1.8 -1.1l1.7 -1l1.8 -1l1.8 -.8l1.8 -.8l1.9 -.7l1.9 -.6l2 -.5l1.9 -.4l2 -.4l2.1 -.2l.8 5.4l5.8 44.4l-5.8 -44.4l5.8 -.5l-.6 -5.3h2.5l1.2 .1l1.3 .1l2.4 .3l1.1 .2l1.2 .2l1.2 .2l1.1 .3l1.2 .3l1.1 .4l1.1 .3l1.1 .4l2.2 .9l1.1 .4l1.1 .5l2.1 1.1l1 .6l1 .6l1 .7l1 .6l1 .7l.9 .8l1 .7l.9 .8l1 .8l.9 .9l.9 .8l.9 1l1.7 1.8l.9 .9l.8 1l1.5 1.9l.7 1l.7 1l1.2 2.1l1.2 2.1l1.1 2.1l.5 1.1l.5 1.1l.4 1.1l.4 1.1l.7 2.3l.6 2.3l.3 1.2l.3 1.2l.2 1.2l.1 1.3l.3 2.4l.2 2.6v5.1l-.1 .6v.6l-.1 1.3l-.1 1.2l-.2 1.3l-.1 .6v.6l-.2 1.2l-.3 1.2l-.1 .6l-.2 .6l-.3 1.2l-.3 1.1l-.3 1.1l-.2 .6l-.1 .3l-.1 .3l-.4 1.1l-.4 1.1l-.5 1.1l-.5 1.1l-1.1 2.2l-.6 1l-.6 1l-.6 1l-.3 .6l-.3 .5l-.7 1l-.2 .2l-.2 .3l-.3 .5l-.8 .9l-.7 1l-.8 1l-.9 .9l-.8 1l-.9 .9l-.8 .8l-.9 .8l-.9 .8l-.8 .8l-.9 .7l-.9 .7l-1.8 1.4l-.9 .6l-.9 .6l-1.9 1.2l-.5 .3l-.3 .1l-.2 .1l-1 .6l-1.9 1l-1 .4l-1 .4l-2.1 .8l-1 .3l-.6 .1l-.5 .2l-.5 .2l-.5 .1l-1.1 .3l-1.1 .2l-.5 .1l-.3 .1h-.3l-.3 .1h-.2l-.6 .1l-1.1 .2l-2.2 .3l-1.2 .1l-1.1 .1Z" class="gn_4"/>
<path d="M144.9 1098.9l1.5 -.2l1.4 -.1l3.1 -.1l.6 5.3l-5.8 .5Z" class="gn_4"/>
<path d="M153.6 1198.5l1.1 -.1l1.2 -.1l2.2 -.3l1.1 -.2l.6 -.1h.2l.3 -.1h.3l.3 -.1l.5 -.1l1.1 -.2l1.1 -.3l.5 -.1l.5 -.2l.5 -.2l.6 -.1l1 -.3l2.1 -.8l1 -.4l1 -.4l1.9 -1l1 -.6l.2 -.1l.3 -.1l.5 -.3l1.9 -1.2l.9 -.6l.9 -.6l1.8 -1.4l.9 -.7l.9 -.7l.8 -.8l.9 -.8l.9 -.8l.8 -.8l.9 -.9l.8 -1l.9 -.9l.8 -1l.7 -1l.8 -.9l.3 -.5l.2 -.3l.2 -.2l.7 -1l.3 -.5l.3 -.6l.6 -1l.6 -1l.6 -1l1.1 -2.2l.5 -1.1l.5 -1.1l.4 -1.1l.4 -1.1l.1 -.3l.1 -.3l.2 -.6l.3 -1.1l.3 -1.1l.3 -1.2l.2 -.6l.1 -.6l.3 -1.2l.2 -1.2v-.6l.1 -.6l.2 -1.3l.1 -1.2l.1 -1.3v-.6l.1 -.6V1146l-.2 -2.6l-.3 -2.4l-.1 -1.3l-.2 -1.2l-.3 -1.2l-.3 -1.2l-.6 -2.3l-.7 -2.3l-.4 -1.1l-.4 -1.1l-.5 -1.1l-.5 -1.1l-1.1 -2.1l-1.2 -2.1l-1.2 -2.1l-.7 -1l-.7 -1l-1.5 -1.9l-.8 -1l-.9 -.9l-1.7 -1.8l-.9 -1l-.9 -.8l-.9 -.9l-1 -.8l-.9 -.8l-1 -.7l-.9 -.8l-1 -.7l-1 -.6l-1 -.7l-1 -.6l-1 -.6l-2.1 -1.1l-1.1 -.5l-1.1 -.4l-2.2 -.9l-1.1 -.4l-1.1 -.3l-1.1 -.4l-1.2 -.3l-1.1 -.3l-1.2 -.2l-1.2 -.2l-1.1 -.2l-2.4 -.3l-1.3 -.1l-1.2 -.1h-2.5l-3.1 .1l-1.4 .1l-1.5 .2l-2.1 .2l-2 .4l-1.9 .4l-2 .5l-1.9 .6l-1.9 .7l-1.8 .8l-1.8 .8l-1.8 1l-1.7 1l-1.8 1.1l-1.6 1.2l-1.7 1.2l-1.5 1.4l-1.6 1.4l-1.5 1.6l-1.8 1.8l-1.6 1.9l-1.5 1.9l-1.4 2l-1.3 2.1l-1.2 2.1l-1.1 2.1l-.9 2.2l-.8 2.2l-.8 2.3l-.6 2.3l-.5 2.4l-.4 2.5l-.3 2.4l-.1 2.6l-.1 2.5l.1 2.6v1.2l.1 1.3l.1 1.2l.2 1.3l.2 1.2l.2 1.2l.2 1.2l.3 1.2l.3 1.2l.3 1.1l.4 1.1l.4 1.2l.8 2.2l.4 1.1l.5 1.1l1.1 2.2l.5 1l.7 1l.6 1l.7 1.1l.6 1l.8 1l.7 .9l.8 1l.8 1l.8 .9l.9 1l.9 .9l1.6 1.6l1.6 1.5l1.7 1.4l1.7 1.3l1.8 1.3l1.8 1.1l1.9 1l1.9 1l1.9 .8l2 .8l2 .7l2 .6l2.1 .5l2.1 .4l2.1 .3l2.2 .2l1.4 .1m0 0l2.8 .1h.4l2.3 -.1m-8.7 -99.9v.3m3.2 99.6H93.6L107.5 1104l37.4 -5.4l5.9 -.8l33.9 -4.8L219 1198.5H153.6m0 0h-5.5m-2.4 -94.2l5.8 -.5l-.6 -5.3l-.1 -.7" class="go_4"/>
<path d="M144.9 1098.9l.8 5.4l5.8 44.4" class="gp_4"/>
<path d="M151.4 1152.1h-.3l-.3 -.1l-.3 -.1l-.5 -.3l-.3 -.2l-.2 -.2l-.2 -.3l-.2 -.2l-.2 -.3l-.1 -.2l-.1 -.3v-.3l-.1 -.6l.1 -.7l.1 -.5l.3 -.6l.4 -.5l.5 -.4l.5 -.3l.6 -.1l.6 -.1l.6 .1h.3l.3 .1l.2 .1l.3 .2l.2 .2l.3 .2l.2 .3l.2 .2l.3 .6l.1 .2v.3l.1 .3v.7l-.1 .3v.3l-.1 .3l-.2 .2l-.1 .3l-.1 .1l-.1 .1l-.2 .3l-.3 .2l-.1 .1l-.1 .1l-.3 .1l-.2 .2l-.3 .1h-.2l-.1 .1h-.6Z" class="g5_4"/>
<path d="M550.4 1082.8h23.3m25.7 -.2h24.4" class="ge_4"/>
<path d="M648.3 1082.8h25.2m25.2 -.2h24.1" class="g1_4"/>
<path d="M422.1 1178.2H433" class="ge_4"/>
<path d="M70.4 1078.4h.7v-.8h-.7v.8Z" class="g2_4"/>
<path d="M70.4 1078.4h.7v-.8h-.7v.8Z" class="g2_4"/>
<path d="M71.1 1078.4H240.7v-.8H71.1v.8Z" class="g2_4"/>
<path d="M240.7 1078.4h.7v-.8h-.7v.8Z" class="g2_4"/>
<path d="M241.4 1078.4H854.2v-.8H241.4v.8Z" class="g2_4"/>
<path d="M854.2 1078.4h.7v-.8h-.7v.8Z" class="g2_4"/>
<path d="M854.2 1078.4h.7v-.8h-.7v.8Z" class="g2_4"/>
<path d="M70.4 1211.3h.7V1078.4h-.7v132.9Z" class="g2_4"/>
<path d="M70.4 1212h.7v-.7h-.7v.7Z" class="g2_4"/>
<path d="M70.4 1212h.7v-.7h-.7v.7Z" class="g2_4"/>
<path d="M71.1 1212H240.7v-.7H71.1v.7Z" class="g2_4"/>
<path d="M240.7 1211.3h.7V1078.4h-.7v132.9Z" class="g2_4"/>
<path d="M240.7 1212h.7v-.7h-.7v.7Z" class="g2_4"/>
<path d="M241.4 1212H854.2v-.7H241.4v.7Z" class="g2_4"/>
<path d="M854.2 1211.3h.7V1078.4h-.7v132.9Z" class="g2_4"/>
<path d="M854.2 1212h.7v-.7h-.7v.7Z" class="g2_4"/>
<path d="M854.2 1212h.7v-.7h-.7v.7Z" class="g2_4"/>
<image preserveAspectRatio="none" x="25" y="42" width="823" height="39" xlink:href="img/2.png"/>
<path d="M67.4 435.8l-.9 -.1l-.8 -.2l-.7 -.4l-.7 -.5l-.3 -.4l-.3 -.3l-.3 -.7l-.3 -.9V418l.3 -.8l.3 -.8l.6 -.6l.7 -.6l.7 -.4l.8 -.2H80.8l.3 .1l.4 .1l.7 .4l.3 .3l.4 .3l.6 .6l.4 .8l.2 .8l.1 .9v13l-.1 .1v.3l-.2 .9l-.2 .3l-.1 .2l-.1 .2l-.3 .3l-.2 .2h-.1v.2l-.4 .2l-.3 .3l-.2 .1l-.1 .1l-.4 .2l-.4 .1H81l-.1 .1h-.5l-.1 .1h-.4Z" class="gq_4"/>
<path d="M64.8 676.5h-.5l-.5 -.2l-.5 -.3l-.4 -.3l-.4 -.5l-.2 -.3l-.1 -.2l-.1 -.2v-.3l-.1 -.5V660.6l.1 -.5l.1 -.6l.3 -.5l.4 -.4l.4 -.4l.5 -.2l.5 -.2H98.2l.2 .1l.3 .1l.5 .2l.5 .4l.3 .4l.3 .5l.1 .6l.1 .5v13.3h-.1v.6l-.1 .2l-.2 .2l-.1 .3l-.3 .5l-.5 .3l-.5 .3l-.3 .1l-.2 .1h-.6Z" class="gq_4"/>
</svg>