<?xml version="1.0" encoding="UTF-8" standalone="no"?>
<!DOCTYPE svg PUBLIC "-//W3C//DTD SVG 1.1//EN"
"http://www.w3.org/Graphics/SVG/1.1/DTD/svg11.dtd">
<svg viewBox="0 0 909 1286" version="1.1" xmlns="http://www.w3.org/2000/svg" xmlns:xlink="http://www.w3.org/1999/xlink">
<defs>
<clipPath id="c0_1"><path d="M-.2 1286.6v-74.9h910v74.9Z"/></clipPath>
<clipPath id="c1_1"><path d="M.1 152.6V0H909.8V152.6Z"/></clipPath>
<clipPath id="c2_1"><path d="M23 203.8V154.1H909.8v49.7Z"/></clipPath>
<clipPath id="c3_1"><path d="M710.2 1131.7V1019.3H834.6v112.4Z"/></clipPath>
<style type="text/css"><![CDATA[
.g0_1{
fill: none;
stroke: #000;
stroke-width: 1.099;
stroke-linecap: square;
stroke-miterlimit: 10;
}
.g1_1{
fill: none;
stroke: #000;
stroke-width: 0.876;
stroke-linecap: round;
stroke-linejoin: round;
}
.g2_1{
fill: none;
stroke: #000;
stroke-width: 0.876;
stroke-linejoin: round;
}
.g3_1{
fill: #000;
}
.g4_1{
fill: none;
stroke: #000;
stroke-width: 1.168;
stroke-linecap: round;
stroke-linejoin: round;
}
.g5_1{
fill: none;
stroke: #000;
stroke-width: 0.914;
stroke-linecap: round;
stroke-linejoin: round;
}
.g6_1{
fill: #C9CACA;
}
.g7_1{
fill: none;
stroke: #000;
stroke-width: 0.918;
stroke-linecap: round;
stroke-linejoin: round;
}
.g8_1{
fill: none;
stroke: #000;
stroke-width: 0.612;
stroke-linejoin: round;
}
]]></style>
</defs>
<image clip-path="url(#c0_1)" preserveAspectRatio="none" x="-4" y="1212" width="952" height="131" xlink:href="img/1.jpg"/>
<path d="M311.8 407.6h-30M170.3 473l2.2 -1.3m0 0l5.9 11.9m0 0l3.7 -21.4m0 0h20.7M283.6 473l2.2 -1.3m0 0l5.9 11.9m0 0l3.6 -21.4m.1 0h11.5m22.4 97.7H299m253.6 0H521.4M180.6 593.3H150.3m351.8 0H471.9M137.5 665.7h9.2m61.2 0h9.2m61 0h9.2m62.3 0h9.2m32.6 75.7H362.3m110.7 0H441.8m111.7 0H523.2m-325 286.4H168.1m198.7 0H335.7m281.4 0H585.9m-404.4 33.3H150.3m166.3 0H286.5m120.9 0h-31m-229 41.6l2.2 -1.2m0 0l5.9 11.9m0 0l3.6 -21.5m0 0h11.6m76.3 10.8l2.2 -1.2m0 0l5.8 11.9m0 0l3.7 -21.5m0 0h11.5" class="g0_1"/>
<image clip-path="url(#c1_1)" preserveAspectRatio="none" x="0" y="0" width="915" height="152" xlink:href="img/2.jpg"/>
<image clip-path="url(#c2_1)" preserveAspectRatio="none" x="23" y="154" width="1038" height="49" xlink:href="img/3.png"/>
<image preserveAspectRatio="none" x="43" y="398" width="57" height="56" xlink:href="img/4.jpg"/>
<path d="M698.7 466.5v0l.3 6.2l.9 5.8l1.4 5.6l2.1 5.2l2.3 5.3l2.9 4.6l3.5 4.7l3.6 4.1l4.3 3.8l4.4 3.2l4.9 2.9l5 2.7l5.3 1.7l5.8 1.5l5.6 .8l6.1 .3l5.8 -.3l5.9 -.8l5.5 -1.5l5.6 -1.7l4.9 -2.7l5 -2.9l4.4 -3.2l4 -3.8l3.8 -4.1l3.5 -4.7l3 -4.6l2.3 -5.3l2 -5.2l1.5 -5.6l.9 -5.8l.3 -6.2l-.3 -5.8l-.9 -5.8l-1.5 -5.5l-2 -5.3l-2.3 -5.2l-3 -4.7L802 429.5l-3.8 -4.1l-4 -3.8l-4.4 -3.2l-5 -3.2l-4.9 -2.3l-5.6 -2.1l-5.5 -1.4l-5.9 -.9l-5.8 -.3l-6.1 .3l-5.6 .9l-5.8 1.4l-5.3 2.1l-5 2.3l-4.9 3.2l-4.4 3.2l-4.3 3.8l-3.6 4.1l-3.5 4.7l-2.9 4.7l-2.3 5.2l-2.1 5.3l-1.4 5.5l-.9 5.8l-.3 5.8Z" class="g1_1"/>
<path d="M776.1 539.8V389.5" class="g2_1"/>
<path d="M778.4 393l-2.3 -3.5l-2.4 3.5h-.2v-.3l2.3 -3.8l.3 -.3l.3 .3l2.3 3.8v.3Z" class="g3_1"/>
<path d="M688.5 453.5H824.8" class="g2_1"/>
<path d="M821 456v-.2l3.5 -2.3L821 451.4v-.6h.3l3.8 2.7h.3l-.3 .2l-3.8 2.6Z" class="g3_1"/>
<path d="M700.2 453.5l75.9 -42.1m14 115.9L720 400" class="g2_1"/>
<path d="M756.5 468l-.6 -.3l-.3 -.6v-1.2l.3 -.2l.6 -.3l.6 -.3l.6 .3l.6 .3l.2 .2v1.2l-.2 .6l-.6 .3l-.6 .3Z" class="g3_1"/>
<path d="M758.5 466.5v.6l-.2 .6l-.6 .3l-.6 .3l-.6 -.3l-.6 -.3l-.3 -.6v-1.2l.3 -.2l.6 -.3l.6 -.3l.6 .3l.6 .3l.2 .2v.6Z" class="g4_1"/>
<image preserveAspectRatio="none" x="43" y="763" width="57" height="56" xlink:href="img/5.jpg"/>
<path d="M682.2 584.3l8.8 51H825.7l-143.5 -51Z" class="g5_1"/>
<path d="M691 635.3l.3 -4.8l.3 -4.6l.9 -4.6l.9 -3.9l1.3 -3.6l1.5 -3.7l1.5 -3l1.5 -2.8l2.9 -4.8l2.7 -3.4l2.4 -2.7l51 41.9Z" class="g6_1"/>
<path d="M691 635.3h67.2l-51 -41.9l-2.4 2.7l-2.7 3.4l-2.9 4.8l-1.5 2.8l-1.5 3l-1.5 3.7l-1.3 3.6l-.9 3.9l-.9 4.6l-.3 4.6l-.3 4.8Z" class="g5_1"/>
<image preserveAspectRatio="none" x="43" y="580" width="57" height="56" xlink:href="img/6.jpg"/>
<image preserveAspectRatio="none" x="43" y="1049" width="57" height="56" xlink:href="img/7.jpg"/>
<image clip-path="url(#c3_1)" preserveAspectRatio="none" x="710" y="1020" width="124" height="111" xlink:href="img/8.jpg"/>
<path d="M849.8 902.1v0L845.2 900l-4.6 -2.2l-4.9 -1.5l-5.2 -1.2l-4.9 -1.2l-5.2 -.9l-5.6 -.3l-5.2 -.3l-5.5 .3l-5.3 .3l-5.2 .9l-5.2 1.2l-5 1.2l-4.9 1.5l-4.9 2.2l-4.6 2.1l40.6 78.6l40.2 -78.6Z" class="g7_1"/>
<path d="M804.4 970.7v0l2.4 -1l2.8 -.3l2.1 .3l2.2 .7" class="g8_1"/>
<image preserveAspectRatio="none" x="43" y="907" width="57" height="56" xlink:href="img/9.jpg"/>
</svg>