<?xml version="1.0" encoding="UTF-8" standalone="no"?>
<!DOCTYPE svg PUBLIC "-//W3C//DTD SVG 1.1//EN"
"http://www.w3.org/Graphics/SVG/1.1/DTD/svg11.dtd">
<svg viewBox="0 0 909 1286" version="1.1" xmlns="http://www.w3.org/2000/svg" xmlns:xlink="http://www.w3.org/1999/xlink">
<defs>
<clipPath id="c0_65"><path d="M-.2 1286.6v-57.8h910v57.8Z"/></clipPath>
<style type="text/css"><![CDATA[
.g0_65{
fill: #FC6;
}
.g1_65{
fill: none;
stroke: #000;
stroke-width: 0.877;
stroke-linecap: square;
stroke-miterlimit: 10;
}
.g2_65{
fill: #70AD47;
}
.g3_65{
fill: #F90;
}
.g4_65{
fill: #CFF;
}
.g5_65{
fill: none;
stroke: #00F;
stroke-width: 0.877;
stroke-linecap: square;
stroke-miterlimit: 10;
}
.g6_65{
fill: none;
stroke: #F00;
stroke-width: 0.877;
stroke-linecap: square;
stroke-miterlimit: 10;
}
.g7_65{
fill: #000;
}
.g8_65{
fill: #CFC;
}
.g9_65{
fill: none;
stroke: #000;
stroke-width: 0.873;
stroke-linecap: square;
stroke-miterlimit: 10;
}
.ga_65{
fill: none;
stroke: #F60;
stroke-width: 0.873;
stroke-linecap: square;
stroke-miterlimit: 10;
}
.gb_65{
fill: none;
stroke: #000;
stroke-width: 0.998;
stroke-linecap: square;
stroke-miterlimit: 10;
}
.gc_65{
fill: none;
stroke: #F00;
stroke-width: 0.998;
stroke-linecap: square;
stroke-miterlimit: 10;
}
]]></style>
</defs>
<image clip-path="url(#c0_65)" preserveAspectRatio="none" x="-2" y="1229" width="930" height="128" xlink:href="img/1.jpg"/>
<path d="M115.6 88.6L188 94.5l.1 .1l5.1 62.8h-.3l-80.2 11.9Z" class="g0_65"/>
<path d="M187.9 94.3v.1l.1 .1m-72.4 -6L117.3 87l1.8 -1.3L121 84.4l1.9 -1.2l2 -1.1l1.9 -.9l2 -.9l2.1 -.8l2.1 -.7l2.1 -.6l2.2 -.5l2.2 -.5l2.2 -.3l2.3 -.2l2.3 -.2H150l1.4 .1h1.3l1.3 .1l1.3 .2l1.3 .1l1.3 .2l1.3 .3l1.2 .2l1.3 .3l1.2 .3l1.3 .4l1.1 .3l1.2 .5l1.2 .4l1.2 .5l1.2 .5l1.1 .5l1.1 .6l1.1 .6l1.1 .6l1.1 .7l1.1 .7l1.1 .7l1 .8l1.1 .7l1 .8l1.1 .9l.9 .9l1 .9l1 .9l1 1l1 1.1l1 1m.2 .2l-.2 -.2m.2 .3v-.1m0 .1l-.1 -.1m.1 0H188m5.3 64.5l.5 -.9l.2 -.4l.3 -.4l.9 -1.6l.4 -.8l.4 -.9l.5 -.8l.4 -.8l.3 -.9l.4 -.8l.3 -.9l.3 -.9l.2 -.4l.1 -.4l.3 -.9l.1 -.5l.2 -.4l.3 -.9l.2 -.9l.1 -.5v-.2l.1 -.2l.4 -1.8l.2 -1l.2 -.9l.1 -1l.2 -.9l.1 -1l.1 -.9v-1l.1 -.9v-.8l.1 -.2v-2l.1 -1l-.1 -1.3v-1.2l-.2 -2.6l-.1 -1.2l-.1 -1.2l-.4 -2.4l-.5 -2.5l-.5 -2.3l-.4 -1.2l-.3 -1.1L198 111l-.9 -2.2l-.4 -1.1l-.6 -1.1L195 104.5l-.5 -1.1l-.6 -1l-1.3 -2l-1.4 -2l-1.5 -2l-.8 -.9l-.8 -.9m-72.5 -6v-.1m-.1 .1l.1 -.1m0 .1h-.1m0 0l-2.1 1.7l-1.9 1.9l-1.9 2l-1.7 2l-1.7 2.1l-1.5 2.2l-1.4 2.2l-1.2 2.2l-1.2 2.3l-1 2.4L99 112l-.8 2.4l-.6 2.5l-.5 2.6l-.5 2.6l-.3 2.7l-.2 2.6V133l.1 1.3l.1 1.4l.2 1.3l.1 1.3l.2 1.3l.3 1.3l.2 1.3l.3 1.3l.3 1.2l.3 1.3l.4 1.2l.4 1.2l.4 1.2l.5 1.3l.5 1.1l.5 1.2l.6 1.1l.6 1.2l.6 1.1l.6 1.1l.7 1.1l.7 1.1l.8 1.1l.7 1.1l.8 1l.9 1.1l.8 1l.9 1l.9 1l1 1l1.1 1.1m0 0l.1 .1m0 0v-.1m-.1 0h.1m0 .1l1.9 1.7l.9 .9l1 .8l1 .8l1 .7l2.1 1.4l2 1.3l1.1 .6l1.1 .6l2.2 1.1l1.1 .5l1.1 .5l2.3 .8l2.3 .8l2.4 .6l1.2 .3l1.2 .2l1.2 .2l1.2 .2l2.6 .3l2.5 .2h1.3l1.3 .1l.7 -.1h2l1.3 -.1l1.3 -.1l1.3 -.1l1.3 -.2l1.3 -.2l1.3 -.2l.6 -.2l.3 -.1h.3l1.3 -.3l.6 -.2l.6 -.1l1.3 -.4l1.1 -.4l1.2 -.4l.3 -.1l.3 -.1l.6 -.2l1.2 -.5l.6 -.3l.6 -.2l1.1 -.6l1.1 -.5l.6 -.3l.2 -.2l.3 -.1l.3 -.2l.3 -.1l.5 -.3l1.1 -.7l.5 -.4l.6 -.3l1.1 -.7l1 -.8l1.1 -.8l1 -.8l1.1 -.8l.4 -.5l.5 -.4l1 -.9l1 -.9l1 -1l1 -1.1L188 166l.2 -.3l.3 -.3l.5 -.6l.9 -1.1l.9 -1.2l.9 -1.2l.4 -.6l.2 -.3l.1 -.1v-.1l.1 -.1l.8 -1.1m-80.7 10.3l-28.9 4.3m104.4 -79l5.1 62.8l.1 1.6m-.4 -1.6l-80.2 11.9m0 0l2.9 -80.7M188 94.5L115.6 88.6" class="g1_65"/>
<path d="M70.4 71.5h.7v-.7h-.7v.7Z" class="g2_65"/>
<path d="M70.4 71.5h.7v-.7h-.7v.7Z" class="g2_65"/>
<path d="M71.1 71.5H240.7v-.7H71.1v.7Z" class="g2_65"/>
<path d="M240.7 71.5h.7v-.7h-.7v.7Z" class="g2_65"/>
<path d="M241.4 71.5H854.2v-.7H241.4v.7Z" class="g2_65"/>
<path d="M854.2 71.5h.7v-.7h-.7v.7Z" class="g2_65"/>
<path d="M854.2 71.5h.7v-.7h-.7v.7Z" class="g2_65"/>
<path d="M70.4 191.4h.7V71.5h-.7V191.4Z" class="g2_65"/>
<path d="M70.4 192.1h.7v-.7h-.7v.7Z" class="g2_65"/>
<path d="M70.4 192.1h.7v-.7h-.7v.7Z" class="g2_65"/>
<path d="M71.1 192.1H240.7v-.7H71.1v.7Z" class="g2_65"/>
<path d="M240.7 191.4h.7V71.5h-.7V191.4Z" class="g2_65"/>
<path d="M240.7 192.1h.7v-.7h-.7v.7Z" class="g2_65"/>
<path d="M241.4 192.1H854.2v-.7H241.4v.7Z" class="g2_65"/>
<path d="M854.2 191.4h.7V71.5h-.7V191.4Z" class="g2_65"/>
<path d="M854.2 192.1h.7v-.7h-.7v.7Z" class="g2_65"/>
<path d="M854.2 192.1h.7v-.7h-.7v.7Z" class="g2_65"/>
<path d="M154.7 271l1.9 -3.2l1.6 1.1l1.6 1.2l-2 2.9Z" class="g3_65"/>
<path d="M130.4 360.3l-2.1 -.1l-2 -.1l-2.2 -.2l-2.2 -.4l-2.1 -.4l-2.1 -.4l-2 -.7l-2.1 -.6l-1.9 -.8l-1.9 -.8l-2 -1l-1.8 -1l-1.9 -1.2l-1.7 -1.2l-1.8 -1.3L99 348.7l-1.7 -1.5l-1.6 -1.6l-.9 -1l-.9 -.9l-.8 -1l-.8 -.9l-.8 -1l-.7 -1l-.8 -1l-.6 -.9l-.7 -1.1l-.6 -1l-.7 -1l-.5 -1.1l-1.1 -2.1l-.5 -1.1l-.4 -1.1L84 327.2L83.6 326l-.3 -1.1L83 323.7l-.3 -1.1l-.3 -1.2l-.2 -1.2L82 319l-.2 -1.2l-.2 -1.3l-.1 -1.2L81.4 314v-1.2l-.1 -2.6l.1 -2.6l.1 -2.5l.3 -2.5l.4 -2.4l.5 -2.4l.6 -2.3l.7 -2.3l.9 -2.2l.9 -2.2l1.1 -2.2l1.2 -2.1l1.3 -2l1.4 -2l1.5 -2l1.6 -1.9l1.8 -1.8L97.5 273l1.8 -1.6l1.9 -1.6l2 -1.4l2 -1.3l2.1 -1.3l2 -1l2.2 -1l2.2 -.8l2.2 -.8l2.3 -.6l2.4 -.5l2.3 -.4l2.5 -.3l2.5 -.2h4.2l1.8 .1l1.7 .1l1.7 .2l1.7 .2l1.6 .4l.8 .1l.8 .2l1.7 .5l1.5 .4l1.6 .6l1.5 .6l1.6 .6l1.5 .7l.7 .3l.7 .4l1.5 .8l1.4 .9l.7 .5l-1.9 3.2l-23.5 39.5h.2l22.3 39.2l2.1 3.5l-.8 .4l-.7 .4l-1.4 .8l-1.4 .7l-1.5 .7l-1.5 .6l-1.5 .6l-.8 .3l-.7 .2l-.4 .1l-.2 .1l-.2 .1l-.7 .2l-.8 .2l-.8 .2l-.8 .2l-.8 .2h-.4l-.4 .1l-.8 .2l-1.6 .3h-.9l-.8 .1l-1.7 .2l-1.7 .1l-1.7 .1Z" class="g4_65"/>
<path d="M153.7 349.7l3.5 -2.3l2.2 3.3l-.9 .6l-.4 .3l-.3 .1l-.2 .2l-.9 .6l-.9 .6v.1Z" class="g3_65"/>
<path d="M157.2 347.4l-3.5 2.3L131.4 310.5h29.4l18.7 .1v1.2l-.1 1.3l-.1 1.2l-.1 1.3l-.1 1.2l-.2 1.2l-.2 1.2l-.2 1.2l-.2 1.2l-.3 1.1l-.3 1.2l-.3 1.2l-.4 1.1l-.2 .6l-.1 .2l-.1 .3l-.4 1.1l-.4 1.2l-.4 1l-.5 1.1l-.3 .5l-.3 .6l-.5 1l-.6 1.1l-.6 1l-1.2 2l-.7 1l-.7 1l-.8 1l-.7 .9l-.8 1l-.5 .4l-.4 .5l-.8 .9l-.9 1l-.7 .6l-.7 .7l-1.4 1.3l-1.4 1.3l-.3 .1l-.1 .1l-.4 .3l-.7 .7Z" class="g4_65"/>
<path d="M160.8 310.5H131.2L154.7 271l3.1 2l2 -2.9l.8 .6l.8 .6l.9 .9l1 .8l.9 .9l.9 .9l1.7 1.8l.9 1l.8 .9l1.5 2l.7 1l.7 1l1.3 2l1.2 2.1l1 2.2l.5 1.1l.5 1.1l.4 1.1l.4 1.1l.8 2.3l.6 2.3l.2 1.2l.3 1.2l.2 1.2l.2 1.2l.3 2.5l.1 2.5l.1 1.3v1.7Z" class="g4_65"/>
<path d="M161.4 271.3l-.8 -.6l-.8 -.6l-1.6 -1.2l-1.6 -1.1l-.7 -.5l-1.4 -.9l-1.5 -.8l-.7 -.4l-.7 -.3l-1.5 -.7l-1.6 -.6L147 263l-1.6 -.6l-1.5 -.4l-1.7 -.5l-.8 -.2l-.8 -.1l-1.6 -.4l-1.7 -.2l-1.7 -.2l-1.7 -.1l-1.8 -.1h-4.2l-2.5 .2l-2.5 .3l-2.3 .4l-2.4 .5l-2.3 .6l-2.2 .8l-2.2 .8l-2.2 1l-2 1l-2.1 1.3l-2 1.3l-2 1.4l-1.9 1.6L97.5 273l-1.8 1.8l-1.8 1.8l-1.6 1.9l-1.5 2l-1.4 2l-1.3 2l-1.2 2.1l-1.1 2.2l-.9 2.2l-.9 2.2l-.7 2.3l-.6 2.3l-.5 2.4l-.4 2.4l-.3 2.5l-.1 2.5l-.1 2.6l.1 2.6V314l.1 1.3l.1 1.2l.2 1.3L82 319l.2 1.2l.2 1.2l.3 1.2l.3 1.1l.3 1.2l.3 1.1l.4 1.2l.9 2.2l.4 1.1l.5 1.1l1.1 2.1l.5 1.1l.7 1l.6 1l.7 1.1l.6 .9l.8 1l.7 1l.8 1l.8 .9l.8 1l.9 .9l.9 1l1.6 1.6l1.7 1.5l1.6 1.4l1.8 1.3l1.7 1.2l1.9 1.2l1.8 1l2 1l1.9 .8l1.9 .8l2.1 .6l2 .7l2.1 .4l2.1 .4l2.2 .4l2.2 .2l2 .1l2.1 .1h.4l1.7 -.1l1.7 -.1l1.7 -.2l.8 -.1h.9l1.6 -.3l.8 -.2l.4 -.1h.4l.8 -.2l.8 -.2l.8 -.2l.8 -.2l.7 -.2l.2 -.1l.2 -.1l.4 -.1l.7 -.2l.8 -.3l1.5 -.6l1.5 -.6l1.5 -.7l1.4 -.7l1.4 -.8l.7 -.4l.8 -.4v-.1l.9 -.6l.9 -.6l.2 -.2l.3 -.1l.4 -.3l.9 -.6l.7 -.7l.4 -.3l.1 -.1l.3 -.1l1.4 -1.3l1.4 -1.3l.7 -.7l.7 -.6l.9 -1l.8 -.9l.4 -.5l.5 -.4l.8 -1l.7 -.9l.8 -1l.7 -1l.7 -1l1.2 -2l.6 -1l.6 -1.1l.5 -1l.3 -.6l.3 -.5l.5 -1.1l.4 -1l.4 -1.2l.4 -1.1l.1 -.3l.1 -.2l.2 -.6l.4 -1.1l.3 -1.2l.3 -1.2l.3 -1.1l.2 -1.2l.2 -1.2l.2 -1.2l.2 -1.2l.1 -1.2l.1 -1.3l.1 -1.2l.1 -1.3v-2.9l-.1 -1.3l-.1 -2.5l-.3 -2.5l-.2 -1.2l-.2 -1.2l-.3 -1.2l-.2 -1.2l-.6 -2.3l-.8 -2.3l-.4 -1.1l-.4 -1.1l-.5 -1.1l-.5 -1.1l-1 -2.2l-1.2 -2.1l-1.3 -2l-.7 -1l-.7 -1l-1.5 -2l-.8 -.9l-.9 -1l-1.7 -1.8l-.9 -.9l-.9 -.9l-1 -.8l-.9 -.9m-1.6 -1.2l-2 2.9l-3.1 -2m.5 82.8l.6 -.4h.1l3.5 -2.7l54.5 -40.1m.2 -.5L161.4 271.3m-2 79.4v0l-2.2 -3.3l-3.5 2.3" class="g1_65"/>
<path d="M155.8 353.2l-2.1 -3.5L131.4 310.5m24.5 42.9l-.1 -.1v-.1m.8 -85.4l-1.9 3.2l-23.5 39.5m24.6 42.9v-.3" class="g5_65"/>
<path d="M156.3 310.5H131.2m82.7 .1H179.5l-18.7 -.1m0 0h-4.5" class="g6_65"/>
<path d="M130.9 313.8h-.3l-.3 -.1l-.3 -.1l-.5 -.3l-.2 -.2l-.3 -.2l-.2 -.3l-.2 -.2l-.1 -.3l-.1 -.2l-.1 -.3l-.1 -.3V310l.2 -.6l.2 -.5l.4 -.5l.5 -.4l.5 -.3l.6 -.1l.7 -.1h.2l.3 .1h.3l.3 .1l.3 .1l.2 .2l.3 .2l.2 .2l.2 .3l.2 .2l.3 .5l.1 .3l.1 .3v.3l.1 .4l-.1 .3v.3l-.1 .1v.2l-.1 .3l-.1 .2l-.2 .3l-.1 .1v.1h-.1l-.2 .3l-.2 .2h-.1l-.1 .1l-.1 .1l-.2 .1l-.3 .2l-.3 .1H132l-.2 .1h-.5Z" class="g7_65"/>
<path d="M70.4 247.9h.7v-.8h-.7v.8Z" class="g2_65"/>
<path d="M70.4 247.9h.7v-.8h-.7v.8Z" class="g2_65"/>
<path d="M71.1 247.9H240.7v-.8H71.1v.8Z" class="g2_65"/>
<path d="M240.7 247.9h.7v-.8h-.7v.8Z" class="g2_65"/>
<path d="M241.4 247.9H854.2v-.8H241.4v.8Z" class="g2_65"/>
<path d="M854.2 247.9h.7v-.8h-.7v.8Z" class="g2_65"/>
<path d="M854.2 247.9h.7v-.8h-.7v.8Z" class="g2_65"/>
<path d="M70.4 372.7h.7V247.9h-.7V372.7Z" class="g2_65"/>
<path d="M70.4 373.5h.7v-.8h-.7v.8Z" class="g2_65"/>
<path d="M70.4 373.5h.7v-.8h-.7v.8Z" class="g2_65"/>
<path d="M71.1 373.5H240.7v-.8H71.1v.8Z" class="g2_65"/>
<path d="M240.7 372.7h.7V247.9h-.7V372.7Z" class="g2_65"/>
<path d="M240.7 373.5h.7v-.8h-.7v.8Z" class="g2_65"/>
<path d="M241.4 373.5H854.2v-.8H241.4v.8Z" class="g2_65"/>
<path d="M854.2 372.7h.7V247.9h-.7V372.7Z" class="g2_65"/>
<path d="M854.2 373.5h.7v-.8h-.7v.8Z" class="g2_65"/>
<path d="M854.2 373.5h.7v-.8h-.7v.8Z" class="g2_65"/>
<path fill-rule="evenodd" d="M71.1 484.2H180.4v-55H71.1v55Z" class="g8_65"/>
<path d="M79 456.7h93.5V429.2H79v27.5Z" class="g8_65"/>
<path fill-rule="evenodd" d="M79 484.2h93.5V456.7H79v27.5Z" class="g8_65"/>
<path d="M70.4 429.2h.7v-.8h-.7v.8Z" class="g2_65"/>
<path d="M70.4 429.2h.7v-.8h-.7v.8Z" class="g2_65"/>
<path d="M71.1 429.2H180.4v-.8H71.1v.8Z" class="g2_65"/>
<path d="M180.4 429.2h.7v-.8h-.7v.8Z" class="g2_65"/>
<path d="M181.1 429.2H861.9v-.8H181.1v.8Z" class="g2_65"/>
<path d="M861.9 429.2h.7v-.8h-.7v.8Z" class="g2_65"/>
<path d="M861.9 429.2h.7v-.8h-.7v.8Z" class="g2_65"/>
<path d="M70.4 484.2h.7v-55h-.7v55Z" class="g2_65"/>
<path d="M180.4 484.2h.7v-55h-.7v55Z" class="g2_65"/>
<path d="M861.9 484.2h.7v-55h-.7v55Z" class="g2_65"/>
<path fill-rule="evenodd" d="M71.1 512.4H180.4V484.9H71.1v27.5Z" class="g8_65"/>
<path d="M79 512.4h93.5V484.9H79v27.5Z" class="g8_65"/>
<path d="M70.4 484.9h.7v-.7h-.7v.7Z" class="g2_65"/>
<path d="M71.1 484.9H180.4v-.7H71.1v.7Z" class="g2_65"/>
<path d="M180.4 484.9h.7v-.7h-.7v.7Z" class="g2_65"/>
<path d="M181.1 484.9H861.9v-.7H181.1v.7Z" class="g2_65"/>
<path d="M861.9 484.9h.7v-.7h-.7v.7Z" class="g2_65"/>
<path d="M70.4 512.4h.7V484.9h-.7v27.5Z" class="g2_65"/>
<path d="M180.4 512.4h.7V484.9h-.7v27.5Z" class="g2_65"/>
<path d="M861.9 512.4h.7V484.9h-.7v27.5Z" class="g2_65"/>
<path fill-rule="evenodd" d="M71.1 540.6H180.4V513.1H71.1v27.5Z" class="g8_65"/>
<path d="M79 540.6h93.5V513.1H79v27.5Z" class="g8_65"/>
<path d="M70.4 513.1h.7v-.7h-.7v.7Z" class="g2_65"/>
<path d="M71.1 513.1H180.4v-.7H71.1v.7Z" class="g2_65"/>
<path d="M180.4 513.1h.7v-.7h-.7v.7Z" class="g2_65"/>
<path d="M181.1 513.1H861.9v-.7H181.1v.7Z" class="g2_65"/>
<path d="M861.9 513.1h.7v-.7h-.7v.7Z" class="g2_65"/>
<path d="M70.4 540.6h.7V513.1h-.7v27.5Z" class="g2_65"/>
<path d="M180.4 540.6h.7V513.1h-.7v27.5Z" class="g2_65"/>
<path d="M861.9 540.6h.7V513.1h-.7v27.5Z" class="g2_65"/>
<path fill-rule="evenodd" d="M71.1 568.9H180.4V541.4H71.1v27.5Z" class="g8_65"/>
<path d="M79 568.9h93.5V541.4H79v27.5Z" class="g8_65"/>
<path d="M70.4 541.4h.7v-.8h-.7v.8Z" class="g2_65"/>
<path d="M71.1 541.4H180.4v-.8H71.1v.8Z" class="g2_65"/>
<path d="M180.4 541.4h.7v-.8h-.7v.8Z" class="g2_65"/>
<path d="M181.1 541.4H861.9v-.8H181.1v.8Z" class="g2_65"/>
<path d="M861.9 541.4h.7v-.8h-.7v.8Z" class="g2_65"/>
<path d="M70.4 568.9h.7V541.4h-.7v27.5Z" class="g2_65"/>
<path d="M180.4 568.9h.7V541.4h-.7v27.5Z" class="g2_65"/>
<path d="M861.9 568.9h.7V541.4h-.7v27.5Z" class="g2_65"/>
<path fill-rule="evenodd" d="M71.1 734.6H180.4v-165H71.1v165Z" class="g8_65"/>
<path d="M79 597.1h93.5V569.6H79v27.5Z" class="g8_65"/>
<path d="M232.9 615.2l-.5 -.1m.5 -.1l-.3 .1h-.2m.9 -.2h-.2l-.2 .1m0 .2l.4 -.3m-.4 .3v0m.1 .1l-.1 -.1m0 0l.1 .1m-.1 -.3v.2M283 625.8l-1 -.9l-.9 -.8l-.9 -.7l-.9 -.7l-1 -.8l-1 -.6l-.9 -.7l-1 -.6l-2 -1.3l-1 -.5l-1 -.5l-1.1 -.5l-1 -.5l-2.1 -.9l-1.1 -.4l-1 -.4l-2.2 -.6l-1.2 -.3l-1.1 -.3l-1.1 -.2l-1.1 -.2l-1.2 -.3L256 613l-1.2 -.2l-1.1 -.1l-1.3 -.1h-1.1l-1.3 -.1h-1.2l-2 .1l-2 .1l-2 .1l-2 .3l-1.9 .3l-1.9 .4l-1.9 .5l-1.8 .6m-.9 .2l-1.4 .5l-1.3 .5l-1.4 .6l-1.3 .6l-1.3 .7l-1.3 .6l-1.2 .8l-1.3 .8l-2.4 1.6l-1.2 .9l-1.2 1l-2.3 2l-1.2 1l-1.1 1.2l-1 1l-.9 1l-1.8 2.2l-1.7 2.1l-.7 1.1l-.7 1.2l-1.4 2.3l-.7 1.1l-.6 1.2l-.6 1.2l-.5 1.2l-1 2.5m0 0l-.8 2.2l-.7 2.3l-.6 2.3l-.4 2.3l-.4 2.4l-.3 2.5l-.1 2.5l-.1 2.6v1.3l.1 1.4v1.3l.2 1.3l.1 1.3l.1 1.3l.2 1.2l.3 1.3l.2 1.2l.3 1.3l.3 1.2l.3 1.2l.4 1.2l.4 1.2l.4 1.2l.5 1.2l.4 1.1l.5 1.1l.6 1.1l.5 1.2l.6 1l.7 1.1l.6 1.1l.7 1.1l.7 1l.7 1.1l.8 1l.8 1l.8 1l.9 1l.9 1l.9 1M200.9 646l.6 -.6m10.9 56.7l.1 .1l1.9 1.9l2 1.7l1 .8l1 .8l2 1.5l1.1 .7l1 .7l2.2 1.3l2.1 1.1l1.2 .5l1.1 .5l2.3 .9l1.1 .4l1.2 .4l2.4 .7l2.5 .5l2.4 .4l2.6 .3l1.3 .1l1.3 .1l1.3 .1h2.8l1.5 -.1l1.4 -.1l1.4 -.1l1.4 -.2l1.4 -.2h.2l.1 -.1h.4l.7 -.1l1.4 -.3M212.4 702.1L201.5 645.4m96.7 34.5v-.2l.2 -.9l.2 -.9l.2 -.9l.2 -.9l.4 -1.8l.2 -1.7v-.4l.1 -.1v-.5l.1 -.9l.2 -1.8l.1 -1.9v-3.3l-.1 -1.4V661l-.1 -1.3l-.3 -2.6l-.4 -2.5l-.6 -2.6l-.6 -2.4l-.4 -1.2l-.4 -1.2l-.8 -2.3l-.5 -1.2l-.6 -1.2l-1.1 -2.2L293 638.1l-.7 -1.1l-.6 -1l-1.5 -2.1l-.8 -1.1l-.8 -1l-1.7 -2l-1.8 -1.9l-1 -1m0 0l-1.1 -.3m-22.8 89.8l.9 -.2l.8 -.2l.9 -.3h.2l.2 -.1l.5 -.1l.4 -.1l.2 -.1l.2 -.1l.8 -.3l.9 -.3l.8 -.2l.8 -.4l.4 -.2l.4 -.1l.8 -.4l.8 -.4l1.6 -.7l1.6 -.9l.8 -.5l.8 -.4l.7 -.5l.4 -.3l.4 -.2l1.5 -1.1l.7 -.5l.8 -.6l.7 -.6l.3 -.3l.2 -.1l.2 -.2l.7 -.6l.3 -.3l.2 -.1l.2 -.2l1.4 -1.3l1.4 -1.3l.1 -.2l.2 -.1l.3 -.3l.6 -.6l.5 -.7l.6 -.6l.5 -.7l.6 -.6l1 -1.3l1 -1.3l.9 -1.3l.9 -1.4l.2 -.4l.1 -.2l.1 -.1l.5 -.7l.7 -1.4l.8 -1.4l.1 -.4l.2 -.3l.4 -.8l.1 -.3l.2 -.4l.3 -.7l.3 -.8l.3 -.7l.6 -1.5l.5 -1.5l.2 -.8l.3 -.8m0 0L283 626.6m1.1 .3l-.6 -.6l-.5 -.5m0 .8v-.8m-70.6 76.3l47.5 13.7M201.5 645.4l31.4 -30.2M283 626.6L233 615.3m27.2 101.1l38 -36.5" class="g9_65"/>
<path d="M233 615.3l.6 1.7m.6 1.7l.6 1.7m.6 1.7l.7 1.8m.6 1.7l.6 1.7m.6 1.7l.6 1.7m.6 1.7l.6 1.7m.7 1.7l.6 1.8m.6 1.7l.6 1.7m.6 1.7l.6 1.7m.6 1.7l.5 1.7m.7 1.8l.5 1.7m.6 1.7l.5 1.7m.7 1.7l.5 1.7m.6 1.7l.5 1.7m.7 1.8l.1 .5" class="ga_65"/>
<path d="M249.8 666.1l-.4 -.1l-.4 -.2l-.3 -.3l-.3 -.4l-.2 -.3l-.1 -.4l-.1 -.5l.1 -.4l.1 -.5l.2 -.3l.3 -.4l.3 -.3l.4 -.2l.4 -.1h.9l.4 .1l.3 .2l.4 .3l.3 .4l.2 .3l.1 .5l.1 .4l-.1 .2v.3l-.1 .4l-.2 .3l-.3 .4l-.4 .3l-.3 .2l-.4 .1h-.1l-.1 .1h-.2Z" class="g7_65"/>
<path d="M70.4 569.6h.7v-.7h-.7v.7Z" class="g2_65"/>
<path d="M71.1 569.6H180.4v-.7H71.1v.7Z" class="g2_65"/>
<path d="M180.4 569.6h.7v-.7h-.7v.7Z" class="g2_65"/>
<path d="M181.1 569.6H861.9v-.7H181.1v.7Z" class="g2_65"/>
<path d="M861.9 569.6h.7v-.7h-.7v.7Z" class="g2_65"/>
<path d="M70.4 734.8h.7V569.6h-.7V734.8Z" class="g2_65"/>
<path d="M70.4 735.5h.7v-.7h-.7v.7Z" class="g2_65"/>
<path d="M70.4 735.5h.7v-.7h-.7v.7Z" class="g2_65"/>
<path d="M71.1 735.5H180.4v-.7H71.1v.7Z" class="g2_65"/>
<path d="M180.4 734.8h.7V569.6h-.7V734.8Z" class="g2_65"/>
<path d="M180.4 735.5h.7v-.7h-.7v.7Z" class="g2_65"/>
<path d="M181.1 735.5H861.9v-.7H181.1v.7Z" class="g2_65"/>
<path d="M861.9 734.8h.7V569.6h-.7V734.8Z" class="g2_65"/>
<path d="M861.9 735.5h.7v-.7h-.7v.7Z" class="g2_65"/>
<path d="M861.9 735.5h.7v-.7h-.7v.7Z" class="g2_65"/>
<path fill-rule="evenodd" d="M71.1 873.8H180.4v-55H71.1v55Z" class="g8_65"/>
<path d="M79 846.3h93.5V818.8H79v27.5Z" class="g8_65"/>
<path d="M79 873.8h93.5V846.3H79v27.5Z" class="g8_65"/>
<path d="M70.4 818.8h.7V818h-.7v.8Z" class="g2_65"/>
<path d="M70.4 818.8h.7V818h-.7v.8Z" class="g2_65"/>
<path d="M71.1 818.8H180.4V818H71.1v.8Z" class="g2_65"/>
<path d="M180.4 818.8h.7V818h-.7v.8Z" class="g2_65"/>
<path d="M181.1 818.8H861.9V818H181.1v.8Z" class="g2_65"/>
<path d="M861.9 818.8h.7V818h-.7v.8Z" class="g2_65"/>
<path d="M861.9 818.8h.7V818h-.7v.8Z" class="g2_65"/>
<path d="M70.4 873.8h.7v-55h-.7v55Z" class="g2_65"/>
<path d="M180.4 873.8h.7v-55h-.7v55Z" class="g2_65"/>
<path d="M861.9 873.8h.7v-55h-.7v55Z" class="g2_65"/>
<path fill-rule="evenodd" d="M71.1 902H180.4V874.5H71.1V902Z" class="g8_65"/>
<path d="M79 902h93.5V874.5H79V902Z" class="g8_65"/>
<path d="M70.4 874.5h.7v-.7h-.7v.7Z" class="g2_65"/>
<path d="M71.1 874.5H180.4v-.7H71.1v.7Z" class="g2_65"/>
<path d="M180.4 874.5h.7v-.7h-.7v.7Z" class="g2_65"/>
<path d="M181.1 874.5H861.9v-.7H181.1v.7Z" class="g2_65"/>
<path d="M861.9 874.5h.7v-.7h-.7v.7Z" class="g2_65"/>
<path d="M70.4 902h.7V874.5h-.7V902Z" class="g2_65"/>
<path d="M180.4 902h.7V874.5h-.7V902Z" class="g2_65"/>
<path d="M861.9 902h.7V874.5h-.7V902Z" class="g2_65"/>
<path fill-rule="evenodd" d="M71.1 930.2H180.4V902.7H71.1v27.5Z" class="g8_65"/>
<path d="M79 930.2h93.5V902.7H79v27.5Z" class="g8_65"/>
<path d="M70.4 902.7h.7V902h-.7v.7Z" class="g2_65"/>
<path d="M71.1 902.7H180.4V902H71.1v.7Z" class="g2_65"/>
<path d="M180.4 902.7h.7V902h-.7v.7Z" class="g2_65"/>
<path d="M181.1 902.7H861.9V902H181.1v.7Z" class="g2_65"/>
<path d="M861.9 902.7h.7V902h-.7v.7Z" class="g2_65"/>
<path d="M70.4 930.2h.7V902.7h-.7v27.5Z" class="g2_65"/>
<path d="M180.4 930.2h.7V902.7h-.7v27.5Z" class="g2_65"/>
<path d="M861.9 930.2h.7V902.7h-.7v27.5Z" class="g2_65"/>
<path fill-rule="evenodd" d="M71.1 958.5H180.4V931H71.1v27.5Z" class="g8_65"/>
<path d="M79 958.5h93.5V931H79v27.5Z" class="g8_65"/>
<path d="M70.4 931h.7v-.8h-.7v.8Z" class="g2_65"/>
<path d="M71.1 931H180.4v-.8H71.1v.8Z" class="g2_65"/>
<path d="M180.4 931h.7v-.8h-.7v.8Z" class="g2_65"/>
<path d="M181.1 931H861.9v-.8H181.1v.8Z" class="g2_65"/>
<path d="M861.9 931h.7v-.8h-.7v.8Z" class="g2_65"/>
<path d="M70.4 958.5h.7V931h-.7v27.5Z" class="g2_65"/>
<path d="M180.4 958.5h.7V931h-.7v27.5Z" class="g2_65"/>
<path d="M861.9 958.5h.7V931h-.7v27.5Z" class="g2_65"/>
<path fill-rule="evenodd" d="M71.1 1151.7H180.4V959.2H71.1v192.5Z" class="g8_65"/>
<path d="M79 986.7h93.5V959.2H79v27.5Z" class="g8_65"/>
<path d="M203.8 1036.2L270.3 1012l39.9 64l-45.5 49.8l-23 -7.5l-5.7 -1.9l-32.2 -10.6v-69.6m14 68.3l2 2l1.1 .9l1.1 .9l1 .9l1.1 .8l1.2 .8l1.1 .8l1.1 .7l1.2 .6l2.4 1.3l1.2 .5l1.2 .6l1.2 .4l1.3 .5l1.4 .4l1.5 .5l1.4 .3l1.5 .4l2.2 .3l2.3 .3l2.2 .1l2.4 .1l.6 -.1h2.4l.2 -.1h.4l1.2 -.1l1.1 -.1l.6 -.1l.6 -.1l2.2 -.3l1.1 -.3l.3 -.1h.3l.5 -.2l2.2 -.5l1.1 -.4l1.1 -.4l2.1 -.8l1 -.4l1 -.5l2 -1.1l1 -.6l1 -.5l.4 -.4l.5 -.3l1 -.6l.9 -.7l.9 -.7l1.9 -1.4l.4 -.4l.4 -.4l.9 -.8l.9 -.9l.2 -.2l.2 -.2l.5 -.4l.4 -.5l.2 -.2l.2 -.2l.8 -.9l.8 -.9l.4 -.5l.4 -.5l1.4 -1.8l.7 -1l.7 -.9l.6 -1l.6 -1l.6 -1l.6 -1l1 -2.1l.4 -1l.5 -1.1l.8 -2.1l.3 -1.1l.4 -1.1l.3 -1.2l.2 -1.1l.2 -.6v-.3l.1 -.2l.3 -1.1l.3 -2.4l.1 -.6l.1 -.6l.1 -1.1l.2 -2.4v-5l-.2 -2.4l-.3 -2.4l-.3 -2.3l-.6 -2.3l-.5 -2.2l-.7 -2.2l-.8 -2.2l-.9 -2.1l-1 -2.1l-1.2 -2l-1.2 -1.9l-1.4 -1.9l-1.4 -1.9l-1.6 -1.8l-1.6 -1.8l-1.8 -1.7l-.9 -.8l-.8 -.8l-1.9 -1.5l-.9 -.7l-.9 -.7l-1 -.6l-.9 -.6l-2 -1.2l-2 -1l-2 -.9l-2.1 -.9l-1.1 -.4l-1.1 -.3l-2.2 -.6l-1.1 -.3l-1.1 -.2l-2.2 -.4l-2.3 -.3l-1.2 -.1h-1.2l-2.4 -.1l-2.4 .1l-2.3 .1l-2.4 .3l-2.2 .4l-2.3 .5l-2.2 .6l-2.1 .7l-2.1 .9l-2 .9l-2 1l-2 1.2l-1.9 1.2l-1.9 1.4l-1.8 1.5l-1.8 1.6l-1.7 1.7l-1.7 1.8l-1.5 1.8l-1.5 1.9l-1.3 1.9l-1.2 1.9l-1.1 2l-1.1 2.1l-.9 2.1l-.8 2.2l-.7 2.2l-.6 2.2l-.4 2.3l-.4 2.3l-.3 2.4l-.2 2.4v5l.2 2.4l.3 2.3l.4 2.4l.2 1.1l.2 1.1l.6 2.3l.3 1.1l.4 1.1l.8 2.1l.9 2.1l1.1 2.1l1.1 2l.6 1l.6 1l.6 .9l.7 1l1.5 1.8l.7 1l.8 .9l1.7 1.8" class="gb_65"/>
<path d="M236 1116.4v-.2l.6 -1.8m.7 -1.9l.6 -1.9m.7 -2l.6 -2m.6 -1.9l.6 -2m.7 -1.9l.7 -2m.6 -2l.7 -2m.6 -1.9l.7 -2m.6 -2l.8 -1.9m.6 -2l.7 -1.9m.6 -2l.7 -2m.6 -1.9l.7 -2m.6 -2l.7 -1.9m.6 -2l.5 -1.3m-10.4 50.3l.1 -.5l1.9 -6.1l-5.6 -1.7" class="gc_65"/>
<path d="M251.5 1070.9l-.4 -.1l-.5 -.3l-.3 -.3l-.4 -.4l-.2 -.4l-.2 -.5v-1l.2 -.5l.2 -.5l.4 -.3l.3 -.4l.5 -.2l.4 -.1l.6 -.1l.4 .1l.5 .1l.4 .2l.4 .4l.3 .3l.3 .5l.1 .5l.1 .5l-.1 .2v.3l-.1 .5l-.3 .4l-.3 .4l-.4 .3l-.4 .3l-.5 .1h-.1l-.1 .1h-.2Z" class="g7_65"/>
<path d="M70.4 959.2h.7v-.7h-.7v.7Z" class="g2_65"/>
<path d="M71.1 959.2H180.4v-.7H71.1v.7Z" class="g2_65"/>
<path d="M180.4 959.2h.7v-.7h-.7v.7Z" class="g2_65"/>
<path d="M181.1 959.2H861.9v-.7H181.1v.7Z" class="g2_65"/>
<path d="M861.9 959.2h.7v-.7h-.7v.7Z" class="g2_65"/>
<path d="M70.4 1151.9h.7V959.2h-.7v192.7Z" class="g2_65"/>
<path d="M70.4 1152.6h.7v-.7h-.7v.7Z" class="g2_65"/>
<path d="M70.4 1152.6h.7v-.7h-.7v.7Z" class="g2_65"/>
<path d="M71.1 1152.6H180.4v-.7H71.1v.7Z" class="g2_65"/>
<path d="M180.4 1151.9h.7V959.2h-.7v192.7Z" class="g2_65"/>
<path d="M180.4 1152.6h.7v-.7h-.7v.7Z" class="g2_65"/>
<path d="M181.1 1152.6H861.9v-.7H181.1v.7Z" class="g2_65"/>
<path d="M861.9 1151.9h.7V959.2h-.7v192.7Z" class="g2_65"/>
<path d="M861.9 1152.6h.7v-.7h-.7v.7Z" class="g2_65"/>
<path d="M861.9 1152.6h.7v-.7h-.7v.7Z" class="g2_65"/>
<path d="M71.6 758.6h-.9l-.8 -.3l-.7 -.4l-.7 -.5l-.3 -.4l-.3 -.3l-.3 -.7l-.3 -.8V740.8l.3 -.8l.3 -.7l.6 -.7l.7 -.6l.7 -.3l.8 -.3H85l.3 .1l.4 .2l.7 .3l.3 .3l.4 .3l.6 .7l.4 .7l.2 .8l.1 .9v13l-.1 .1v.4l-.2 .8l-.2 .3l-.1 .2l-.1 .2l-.3 .3l-.2 .2l-.1 .1v.1l-.4 .2l-.3 .3l-.2 .1l-.1 .1l-.4 .2l-.4 .1h-.1l-.1 .1l-.1 .1h-.9Z" class="g3_65"/>
<path d="M69.8 1176.5l-.9 -.1l-.8 -.2l-.8 -.4l-.6 -.6l-.4 -.3l-.2 -.4l-.4 -.7l-.2 -.8v-14.3l.2 -.8l.4 -.8l.6 -.6l.6 -.6l.8 -.4l.8 -.2l.9 -.1H82.3l.8 .1h.4l.4 .2l.7 .4l.3 .2l.4 .4l.5 .6l.4 .8l.3 .8l.1 .9v12.6l-.1 .4v.4l-.3 .8l-.2 .4l-.1 .1l-.1 .2l-.2 .4l-.2 .1l-.1 .1v.1l-.4 .3l-.3 .3h-.2l-.2 .2l-.3 .2l-.4 .1h-.2l-.2 .1h-.3l-.1 .1h-.4Z" class="g3_65"/>
<path d="M65.8 422.6l-.5 -.1l-.6 -.1l-.4 -.3l-.4 -.3l-.4 -.5l-.2 -.3l-.1 -.2l-.1 -.3l-.1 -.2V406.2l.2 -.6l.3 -.5l.4 -.4l.4 -.4l.4 -.2l.6 -.2H99.4l.3 .2l.5 .2l.5 .4l.3 .4l.3 .5l.1 .6l.1 .5V420h-.1v.5l-.1 .3l-.2 .2l-.1 .3l-.3 .5l-.5 .3l-.5 .3l-.3 .1h-.5v.1h-.3Z" class="g3_65"/>
<path d="M66.4 811.8l-.5 -.1l-.5 -.2l-.5 -.3l-.4 -.3l-.4 -.5l-.2 -.2l-.1 -.3l-.1 -.2v-.3l-.1 -.5v-13l.1 -.6l.1 -.6l.3 -.4l.4 -.5l.4 -.4l.5 -.2l.5 -.2H99.8l.2 .1l.3 .1l.5 .2l.5 .4l.3 .5l.3 .4l.1 .6l.1 .6v13.2H102v.6l-.1 .2l-.2 .3l-.1 .2l-.3 .5l-.5 .3l-.5 .3l-.3 .1l-.2 .1h-.3l-.2 .1Z" class="g3_65"/>
</svg>