<?xml version="1.0" encoding="UTF-8" standalone="no"?>
<!DOCTYPE svg PUBLIC "-//W3C//DTD SVG 1.1//EN"
"http://www.w3.org/Graphics/SVG/1.1/DTD/svg11.dtd">
<svg viewBox="0 0 909 1286" version="1.1" xmlns="http://www.w3.org/2000/svg" xmlns:xlink="http://www.w3.org/1999/xlink">
<defs>
<clipPath id="c0_1"><path d="M0 1286.2v-57H909.1v57Z"/></clipPath>
<clipPath id="c1_1"><path d="M589.8 766V751.9h7.9V766Z"/></clipPath>
<clipPath id="c2_1"><path d="M596.3 766V741.4h5.3V766Z"/></clipPath>
<clipPath id="c3_1"><path d="M356 793.5v-14h7.9v14Z"/></clipPath>
<clipPath id="c4_1"><path d="M362.5 793.5V769h5.4v24.5Z"/></clipPath>
<clipPath id="c5_1"><path d="M589.8 793.5v-14h7.9v14Z"/></clipPath>
<clipPath id="c6_1"><path d="M596.3 793.5V769h5.3v24.5Z"/></clipPath>
<clipPath id="c7_1"><path d="M356 821V807h7.9v14Z"/></clipPath>
<clipPath id="c8_1"><path d="M362.5 821V796.5h5.4V821Z"/></clipPath>
<clipPath id="c9_1"><path d="M589.8 821V807h7.9v14Z"/></clipPath>
<clipPath id="ca_1"><path d="M596.3 821V796.5h5.3V821Z"/></clipPath>
<clipPath id="cb_1"><path d="M0 151.3V0H909.1V151.3Z"/></clipPath>
<clipPath id="cc_1"><path d="M22.8 202.4V153.3H909.1v49.1Z"/></clipPath>
<clipPath id="cd_1"><path d="M907.5 189.2v-1.1h1.6v1.1Z"/></clipPath>
<clipPath id="ce_1"><path d="M906.4 190.3v-1.1h2.7v1.1Z"/></clipPath>
<clipPath id="cf_1"><path d="M906.4 191.4v-1.1h2.7v1.1Z"/></clipPath>
<clipPath id="cg_1"><path d="M905.3 192.5v-1.1h3.8v1.1Z"/></clipPath>
<clipPath id="ch_1"><path d="M905.3 193.6v-1.1h3.8v1.1Z"/></clipPath>
<clipPath id="ci_1"><path d="M904.2 194.7v-1.1h4.9v1.1Z"/></clipPath>
<clipPath id="cj_1"><path d="M904.2 195.8v-1.1h4.9v1.1Z"/></clipPath>
<clipPath id="ck_1"><path d="M870.1 196.9v-1.1h39v1.1Z"/></clipPath>
<clipPath id="cl_1"><path d="M729.3 198v-1.1H909.1V198Z"/></clipPath>
<clipPath id="cm_1"><path d="M697.4 199.1V198H909.1v1.1Z"/></clipPath>
<clipPath id="cn_1"><path d="M622.6 200.2v-1.1H909.1v1.1Z"/></clipPath>
<clipPath id="co_1"><path d="M459.8 201.3v-1.1H909.1v1.1Z"/></clipPath>
<clipPath id="cp_1"><path d="M23.1 202.4v-1.1h886v1.1Z"/></clipPath>
<style type="text/css"><![CDATA[
.g0_1{
fill: none;
stroke: #000;
stroke-width: 1.099;
stroke-linecap: round;
stroke-linejoin: round;
}
.g1_1{
fill: #CFC;
}
.g2_1{
fill: #70AD47;
}
.g3_1{
fill: none;
stroke: #000;
stroke-width: 0.905;
stroke-linecap: round;
stroke-linejoin: round;
}
.g4_1{
fill: none;
stroke: #000;
stroke-width: 0.152;
stroke-linecap: round;
stroke-linejoin: round;
}
.g5_1{
fill: #000;
}
.g6_1{
fill: none;
stroke: #ED7C31;
stroke-width: 1.099;
stroke-linecap: round;
stroke-linejoin: round;
}
.g7_1{
fill: #FF9A00;
}
.g8_1{
fill: #65CC33;
}
]]></style>
</defs>
<image clip-path="url(#c0_1)" preserveAspectRatio="none" x="-2" y="1229" width="930" height="60" xlink:href="img/1.jpg"/>
<path d="M437.7 280.6l2.3 -1.2l5.9 11.8l3.5 -21.3h9.2m38.2 10.7l2.3 -1.2l5.9 11.8l3.6 -21.3h9.1m56.6 10.7l2.3 -1.2l5.8 11.8L586 269.9h9.2m130 10.7l2.3 -1.2l5.8 11.8l3.6 -21.3h9.2m-400 37.6l2.3 -1.2l5.9 11.9l3.6 -21.4H367M203.9 389.9l2.3 -1.2l5.8 11.8l3.6 -21.4h9.2" class="g0_1"/>
<path d="M71.2 486.5H247.3V459H71.2v27.5Z" class="g1_1"/>
<path d="M79.1 486.5H239.5V459H79.1v27.5Z" class="g1_1"/>
<path d="M248.1 486.5H482.9V459H248.1v27.5Z" class="g1_1"/>
<path d="M256 486.5H475V459H256v27.5Z" class="g1_1"/>
<path d="M483.7 486.5H855.1V459H483.7v27.5Z" class="g1_1"/>
<path d="M491.6 486.5H847.3V459H491.6v27.5Z" class="g1_1"/>
<path d="M70.5 459h.7v-.8h-.7v.8Z" class="g2_1"/>
<path d="M70.5 459H855.9v-.8H70.5v.8Z" class="g2_1"/>
<path d="M855.2 459h.7v-.8h-.7v.8Z" class="g2_1"/>
<path d="M70.5 486.5h.7V459h-.7v27.5Z" class="g2_1"/>
<path d="M247.4 486.5h.7V459h-.7v27.5Z" class="g2_1"/>
<path d="M483 486.5h.7V459H483v27.5Z" class="g2_1"/>
<path d="M855.2 486.5h.7V459h-.7v27.5Z" class="g2_1"/>
<path d="M505.8 516.4h10.9m133.1 .1h10.9" class="g3_1"/>
<path d="M626.5 522l1.8 -2.3l4.4 17l4.9 -44.9h24.6" class="g4_1"/>
<path fill-rule="evenodd" d="M626.3 521.8l2.5 -3.2l3.9 14.2l4.6 -41.4h24.9v.9H638l-4.8 44.4h-.9l-4.5 -15.9l-1.1 1.4Z" class="g5_1"/>
<path d="M706.1 516.5h19.7" class="g3_1"/>
<path d="M693.9 522l1.8 -2.3l4.5 17L705 491.8h22.3" class="g4_1"/>
<path fill-rule="evenodd" d="M693.6 521.8l2.6 -3.2l4 14.2l4.4 -41.4h22.7v.9H705.4l-4.8 44.4h-.9l-4.5 -15.9l-1 1.4Z" class="g5_1"/>
<path d="M760.8 516.5h10.8" class="g3_1"/>
<path d="M70.5 487.2H855.9v-.7H70.5v.7Z" class="g2_1"/>
<path d="M70.5 540.7h.7V487.2h-.7v53.5Z" class="g2_1"/>
<path d="M247.4 540.7h.7V487.2h-.7v53.5Z" class="g2_1"/>
<path d="M483 540.7h.7V487.2H483v53.5Z" class="g2_1"/>
<path d="M855.2 540.7h.7V487.2h-.7v53.5Z" class="g2_1"/>
<path d="M646.3 570.6h27.3" class="g3_1"/>
<path d="M634.2 576.4l1.8 -2.3l4.4 17.1l4.9 -45.1H675" class="g4_1"/>
<path fill-rule="evenodd" d="M634 576.2l2.5 -3.2l3.9 14.2L645 545.7h30v.9H645.7l-4.9 44.6H640l-4.5 -16l-1.1 1.4Z" class="g5_1"/>
<path d="M707.3 570.6h18.1" class="g3_1"/>
<path d="M70.5 541.5H855.9v-.8H70.5v.8Z" class="g2_1"/>
<path d="M70.5 595h.7V541.5h-.7V595Z" class="g2_1"/>
<path d="M247.4 595h.7V541.5h-.7V595Z" class="g2_1"/>
<path d="M483 595h.7V541.5H483V595Z" class="g2_1"/>
<path d="M855.2 595h.7V541.5h-.7V595Z" class="g2_1"/>
<path d="M638.6 615l1.9 -1.2l4.4 8.2l4.9 -21.6h50.1" class="g4_1"/>
<path fill-rule="evenodd" d="M638.5 614.7l2.5 -1.5l3.9 6.8l4.6 -20h50.4v.9H650.1L645.4 622h-.9L640 614.4l-1.3 .9Z" class="g5_1"/>
<path d="M70.5 595.7H855.9V595H70.5v.7Z" class="g2_1"/>
<path d="M70.5 627.4h.7V595.7h-.7v31.7Z" class="g2_1"/>
<path d="M70.5 627.4H247.4v-.8H70.5v.8Z" class="g2_1"/>
<path d="M247.4 627.4h.7V595.7h-.7v31.7Z" class="g2_1"/>
<path d="M248.1 627.4H483v-.8H248.1v.8Z" class="g2_1"/>
<path d="M483 627.4h.7V595.7H483v31.7Z" class="g2_1"/>
<path d="M483.7 627.4H855.2v-.8H483.7v.8Z" class="g2_1"/>
<path d="M855.2 627.4h.7V595.7h-.7v31.7Z" class="g2_1"/>
<path d="M855.2 627.4h.7v-.8h-.7v.8Z" class="g2_1"/>
<path d="M71.2 710.6H180.4V683.1H71.2v27.5Z" class="g1_1"/>
<path d="M79.1 710.6h93.4V683.1H79.1v27.5Z" class="g1_1"/>
<path d="M181.2 710.6H345.4V683.1H181.2v27.5Z" class="g1_1"/>
<path d="M189.1 710.6H337.5V683.1H189.1v27.5Z" class="g1_1"/>
<path d="M346.2 710.6h233V683.1h-233v27.5Z" class="g1_1"/>
<path d="M354.1 710.6H571.3V683.1H354.1v27.5Z" class="g1_1"/>
<path d="M580 683.1H861.9v27.5H580Z" class="g1_1"/>
<path d="M587.9 710.6H854V683.1H587.9v27.5Z" class="g1_1"/>
<path d="M70.5 683.1h.7v-.7h-.7v.7Z" class="g2_1"/>
<path d="M70.5 683.1H580v-.7H70.5v.7Z" class="g2_1"/>
<path d="M580 682.4H861.9v.7H580Z" class="g2_1"/>
<path d="M861.9 683.1h.7v-.7h-.7v.7Z" class="g2_1"/>
<path d="M861.9 683.1h.7v-.7h-.7v.7Z" class="g2_1"/>
<path d="M70.5 710.6h.7V683.1h-.7v27.5Z" class="g2_1"/>
<path d="M180.5 710.6h.7V683.1h-.7v27.5Z" class="g2_1"/>
<path d="M345.5 710.6h.7V683.1h-.7v27.5Z" class="g2_1"/>
<path d="M579.2 710.6h.8V683.1h-.8v27.5Z" class="g2_1"/>
<path d="M861.9 710.6h.7V683.1h-.7v27.5Z" class="g2_1"/>
<path d="M108.5 740.2l2.3 -1.2l5.9 11.8l3.6 -21.3h21.3m212.5 -4.3l2.3 -1.2l5.9 11.8l3.5 -21.3h21.4m200.7 10.7l2.3 -1.2l5.8 11.8l3.6 -21.3H621" class="g0_1"/>
<path d="M70.5 711.3H580v-.7H70.5v.7Z" class="g2_1"/>
<path d="M580 710.6H861.9v.7H580Z" class="g2_1"/>
<path d="M861.9 711.3h.7v-.7h-.7v.7Z" class="g2_1"/>
<path d="M70.5 738.3h.7v-27h-.7v27Z" class="g2_1"/>
<path d="M180.5 738.3h.7v-27h-.7v27Z" class="g2_1"/>
<path d="M345.5 738.3h.7v-27h-.7v27Z" class="g2_1"/>
<path d="M579.2 738.3h.8v-27h-.8v27Z" class="g2_1"/>
<path d="M861.9 738.3h.7v-27h-.7v27Z" class="g2_1"/>
<path d="M354.1 752.8l2.3 -1.2l5.9 11.8L365.8 742h21.4m200.7 11.9l2.5 -1.3" class="g0_1"/>
<path clip-path="url(#c1_1)" d="M590.4 752.6l6.5 13.1" class="g0_1"/>
<path clip-path="url(#c2_1)" d="M596.9 765.7l4 -23.7" class="g0_1"/>
<path d="M600.9 742h55" class="g0_1"/>
<path d="M70.5 739h.7v-.7h-.7v.7Z" class="g2_1"/>
<path d="M180.5 739H580v-.7H180.5v.7Z" class="g2_1"/>
<path d="M580 738.3H861.9v.7H580Z" class="g2_1"/>
<path d="M861.9 739h.7v-.7h-.7v.7Z" class="g2_1"/>
<path d="M70.5 766h.7V739h-.7v27Z" class="g2_1"/>
<path d="M180.5 766h.7V739h-.7v27Z" class="g2_1"/>
<path d="M345.5 766h.7V739h-.7v27Z" class="g2_1"/>
<path d="M579.2 766h.8V739h-.8v27Z" class="g2_1"/>
<path d="M861.9 766h.7V739h-.7v27Z" class="g2_1"/>
<path d="M86.5 795.2l2.6 -1.3L95.6 807l4 -23.6h64.1m190.4 -1.9l2.6 -1.3" class="g0_1"/>
<path clip-path="url(#c3_1)" d="M356.7 780.2l6.5 13.1" class="g0_1"/>
<path clip-path="url(#c4_1)" d="M363.2 793.3l3.9 -23.7" class="g0_1"/>
<path d="M367.1 769.6h64.2m156.6 11.9l2.5 -1.3" class="g0_1"/>
<path clip-path="url(#c5_1)" d="M590.4 780.2l6.5 13.1" class="g0_1"/>
<path clip-path="url(#c6_1)" d="M596.9 793.3l4 -23.7" class="g0_1"/>
<path d="M600.9 769.6H665" class="g0_1"/>
<path d="M70.5 766.7H580V766H70.5v.7Z" class="g2_1"/>
<path d="M580 766H861.9v.7H580Z" class="g2_1"/>
<path d="M861.9 766.7h.7V766h-.7v.7Z" class="g2_1"/>
<path d="M70.5 793.5h.7V766.7h-.7v26.8Z" class="g2_1"/>
<path d="M180.5 793.5h.7V766.7h-.7v26.8Z" class="g2_1"/>
<path d="M345.5 793.5h.7V766.7h-.7v26.8Z" class="g2_1"/>
<path d="M579.2 793.5h.8V766.7h-.8v26.8Z" class="g2_1"/>
<path d="M861.9 793.5h.7V766.7h-.7v26.8Z" class="g2_1"/>
<path d="M354.1 809l2.6 -1.3" class="g0_1"/>
<path clip-path="url(#c7_1)" d="M356.7 807.7l6.5 13.1" class="g0_1"/>
<path clip-path="url(#c8_1)" d="M363.2 820.8l3.9 -23.7" class="g0_1"/>
<path d="M367.1 797.1h64.2M587.9 809l2.5 -1.3" class="g0_1"/>
<path clip-path="url(#c9_1)" d="M590.4 807.7l6.5 13.1" class="g0_1"/>
<path clip-path="url(#ca_1)" d="M596.9 820.8l4 -23.7" class="g0_1"/>
<path d="M600.9 797.1H665" class="g0_1"/>
<path d="M70.5 794.2h.7v-.7h-.7v.7Z" class="g2_1"/>
<path d="M180.5 794.2H580v-.7H180.5v.7Z" class="g2_1"/>
<path d="M580 793.5H861.9v.7H580Z" class="g2_1"/>
<path d="M861.9 794.2h.7v-.7h-.7v.7Z" class="g2_1"/>
<path d="M70.5 821h.7V794.2h-.7V821Z" class="g2_1"/>
<path d="M180.5 821h.7V794.2h-.7V821Z" class="g2_1"/>
<path d="M345.5 821h.7V794.2h-.7V821Z" class="g2_1"/>
<path d="M579.2 821h.8V794.2h-.8V821Z" class="g2_1"/>
<path d="M861.9 821h.7V794.2h-.7V821Z" class="g2_1"/>
<path d="M107 836.7l2.3 -1.2l5.8 11.9L118.7 826h24.5m210.9 9.5l2.3 -1.2l5.9 11.8l3.5 -21.4h24.5m29 10.7l2.3 -1.2l5.8 11.8L431 824.6h9.2m147.7 10.9l2.3 -1.2l5.8 11.8l3.6 -21.4h18.3m19.9 10.8l2.3 -1.2l5.9 11.8l3.6 -21.4h34.7m29.1 10.8l2.2 -1.2l5.9 11.8l3.6 -21.4h9.2" class="g0_1"/>
<path d="M70.5 821.7H580V821H70.5v.7Z" class="g2_1"/>
<path d="M580 821H861.9v.7H580Z" class="g2_1"/>
<path d="M861.9 821.7h.7V821h-.7v.7Z" class="g2_1"/>
<path d="M70.5 848.6h.7V821.7h-.7v26.9Z" class="g2_1"/>
<path d="M180.5 848.6h.7V821.7h-.7v26.9Z" class="g2_1"/>
<path d="M345.5 848.6h.7V821.7h-.7v26.9Z" class="g2_1"/>
<path d="M579.2 848.6h.8V821.7h-.8v26.9Z" class="g2_1"/>
<path d="M861.9 848.6h.7V821.7h-.7v26.9Z" class="g2_1"/>
<path d="M111.6 864.3l2.2 -1.2l5.9 11.9l3.6 -21.4h9.2M360.3 863l2.2 -1.1l5.9 11.8L372 852.3h9.2M594 863.1l2.3 -1.2l5.9 11.9l3.5 -21.4h9.2" class="g0_1"/>
<path d="M70.5 849.3H580v-.7H70.5v.7Z" class="g2_1"/>
<path d="M580 848.6H861.9v.7H580Z" class="g2_1"/>
<path d="M861.9 849.3h.7v-.7h-.7v.7Z" class="g2_1"/>
<path d="M70.5 877h.7V849.3h-.7V877Z" class="g2_1"/>
<path d="M70.5 877h110v-.8H70.5v.8Z" class="g2_1"/>
<path d="M180.5 877h.7V849.3h-.7V877Z" class="g2_1"/>
<path d="M181.2 877H345.5v-.8H181.2v.8Z" class="g2_1"/>
<path d="M345.5 877h.7V849.3h-.7V877Z" class="g2_1"/>
<path d="M346.2 877h233v-.8h-233v.8Z" class="g2_1"/>
<path d="M579.2 877h.8V849.3h-.8V877Z" class="g2_1"/>
<path d="M580 876.2H861.9v.8H580Z" class="g2_1"/>
<path d="M861.9 877h.7V849.3h-.7V877Z" class="g2_1"/>
<path d="M861.9 877h.7v-.8h-.7v.8Z" class="g2_1"/>
<path d="M116.7 891.1l2.3 -1.2l5.9 11.8l3.5 -21.3h21.4m19.9 10.7l2.3 -1.2l5.8 11.8l3.6 -21.3h21.4m-8 65.6l2.3 -1.2l5.8 11.8l3.6 -21.3h8.2" class="g0_1"/>
<path d="M71.2 987.8h45.4V960.3H71.2v27.5Z" class="g1_1"/>
<path d="M79.1 987.8h29.6V960.3H79.1v27.5Z" class="g1_1"/>
<path d="M70.5 960.2h.7v-.7h-.7v.7Z" class="g2_1"/>
<path d="M70.5 960.2H855.9v-.7H70.5v.7Z" class="g2_1"/>
<path d="M855.2 960.2h.7v-.7h-.7v.7Z" class="g2_1"/>
<path d="M70.5 987.8h.7V960.2h-.7v27.6Z" class="g2_1"/>
<path d="M116.6 987.8h.7V960.2h-.7v27.6Z" class="g2_1"/>
<path d="M162.8 987.8h.7V960.2h-.7v27.6Z" class="g2_1"/>
<path d="M208.9 987.8h.7V960.2h-.7v27.6Z" class="g2_1"/>
<path d="M255 987.8h.8V960.2H255v27.6Z" class="g2_1"/>
<path d="M301.3 987.8h.7V960.2h-.7v27.6Z" class="g2_1"/>
<path d="M347.4 987.8h.7V960.2h-.7v27.6Z" class="g2_1"/>
<path d="M393.5 987.8h.8V960.2h-.8v27.6Z" class="g2_1"/>
<path d="M439.7 987.8h.8V960.2h-.8v27.6Z" class="g2_1"/>
<path d="M485.9 987.8h.8V960.2h-.8v27.6Z" class="g2_1"/>
<path d="M532 987.8h.8V960.2H532v27.6Z" class="g2_1"/>
<path d="M578.1 987.8h.8V960.2h-.8v27.6Z" class="g2_1"/>
<path d="M624.3 987.8h.8V960.2h-.8v27.6Z" class="g2_1"/>
<path d="M670.5 987.8h.8V960.2h-.8v27.6Z" class="g2_1"/>
<path d="M716.6 987.8h.8V960.2h-.8v27.6Z" class="g2_1"/>
<path d="M762.9 987.8h.7V960.2h-.7v27.6Z" class="g2_1"/>
<path d="M809 987.8h.7V960.2H809v27.6Z" class="g2_1"/>
<path d="M855.2 987.8h.7V960.2h-.7v27.6Z" class="g2_1"/>
<path d="M71.2 1016h45.4V988.5H71.2V1016Z" class="g1_1"/>
<path d="M79.1 1016h29.6V988.5H79.1V1016Z" class="g1_1"/>
<path d="M70.5 988.5H855.9v-.7H70.5v.7Z" class="g2_1"/>
<path d="M70.5 1016.8h.7V988.5h-.7v28.3Z" class="g2_1"/>
<path d="M70.5 1016.8h46.1v-.8H70.5v.8Z" class="g2_1"/>
<path d="M116.6 1016.8h.7V988.5h-.7v28.3Z" class="g2_1"/>
<path d="M117.3 1016.8h45.5v-.8H117.3v.8Z" class="g2_1"/>
<path d="M162.8 1016.8h.7V988.5h-.7v28.3Z" class="g2_1"/>
<path d="M163.5 1016.8h45.4v-.8H163.5v.8Z" class="g2_1"/>
<path d="M208.9 1016.8h.7V988.5h-.7v28.3Z" class="g2_1"/>
<path d="M209.6 1016.8H255v-.8H209.6v.8Z" class="g2_1"/>
<path d="M255 1016.8h.8V988.5H255v28.3Z" class="g2_1"/>
<path d="M255.7 1016.8h45.6v-.8H255.7v.8Z" class="g2_1"/>
<path d="M301.3 1016.8h.7V988.5h-.7v28.3Z" class="g2_1"/>
<path d="M302 1016.8h45.4v-.8H302v.8Z" class="g2_1"/>
<path d="M347.4 1016.8h.7V988.5h-.7v28.3Z" class="g2_1"/>
<path d="M348.2 1016.8h45.3v-.8H348.2v.8Z" class="g2_1"/>
<path d="M393.5 1016.8h.8V988.5h-.8v28.3Z" class="g2_1"/>
<path d="M394.3 1016.8h45.4v-.8H394.3v.8Z" class="g2_1"/>
<path d="M439.7 1016.8h.8V988.5h-.8v28.3Z" class="g2_1"/>
<path d="M440.5 1016.8h45.4v-.8H440.5v.8Z" class="g2_1"/>
<path d="M485.9 1016.8h.8V988.5h-.8v28.3Z" class="g2_1"/>
<path d="M486.7 1016.8H532v-.8H486.7v.8Z" class="g2_1"/>
<path d="M532 1016.8h.8V988.5H532v28.3Z" class="g2_1"/>
<path d="M532.8 1016.8h45.3v-.8H532.8v.8Z" class="g2_1"/>
<path d="M578.1 1016.8h.8V988.5h-.8v28.3Z" class="g2_1"/>
<path d="M578.9 1016.8h45.4v-.8H578.9v.8Z" class="g2_1"/>
<path d="M624.3 1016.8h.8V988.5h-.8v28.3Z" class="g2_1"/>
<path d="M625.1 1016.8h45.4v-.8H625.1v.8Z" class="g2_1"/>
<path d="M670.5 1016.8h.8V988.5h-.8v28.3Z" class="g2_1"/>
<path d="M671.3 1016.8h45.4v-.8H671.3v.8Z" class="g2_1"/>
<path d="M716.6 1016.8h.8V988.5h-.8v28.3Z" class="g2_1"/>
<path d="M717.4 1016.8h45.5v-.8H717.4v.8Z" class="g2_1"/>
<path d="M762.9 1016.8h.7V988.5h-.7v28.3Z" class="g2_1"/>
<path d="M763.6 1016.8H809v-.8H763.6v.8Z" class="g2_1"/>
<path d="M809 1016.8h.7V988.5H809v28.3Z" class="g2_1"/>
<path d="M809.7 1016.8h45.5v-.8H809.7v.8Z" class="g2_1"/>
<path d="M855.2 1016.8h.7V988.5h-.7v28.3Z" class="g2_1"/>
<path d="M855.2 1016.8h.7v-.8h-.7v.8Z" class="g2_1"/>
<path d="M668.9 1058.2l2.3 -1.2l5.9 11.8l3.5 -21.3h9.2m19.9 10.7L712 1057l5.8 11.8l3.6 -21.3h9.2m19.9 10.7l2.3 -1.2l5.8 11.8l3.6 -21.3h8.2" class="g6_1"/>
<path d="M107.5 1140.9l2.3 -1.2l5.9 11.8l3.6 -21.3h15.3m19.8 10.7l2.3 -1.2l5.8 11.8l3.6 -21.3h18.3m19.9 10.7l2.3 -1.2l5.9 11.8l3.6 -21.3h15.3m-78 38.2l2.2 -1.2l5.9 11.8l3.6 -21.3h18.3" class="g0_1"/>
<image clip-path="url(#cb_1)" preserveAspectRatio="none" x="0" y="0" width="914" height="151" xlink:href="img/2.jpg"/>
<image clip-path="url(#cc_1)" preserveAspectRatio="none" x="20" y="156" width="892" height="37" xlink:href="img/3.png"/>
<image clip-path="url(#cd_1)" preserveAspectRatio="none" x="908" y="188" width="2" height="1" xlink:href="img/4.jpg"/>
<image clip-path="url(#cc_1)" preserveAspectRatio="none" x="20" y="186" width="878" height="8" xlink:href="img/5.png"/>
<image clip-path="url(#ce_1)" preserveAspectRatio="none" x="906" y="189" width="4" height="1" xlink:href="img/6.jpg"/>
<image clip-path="url(#cc_1)" preserveAspectRatio="none" x="20" y="187" width="879" height="8" xlink:href="img/7.png"/>
<image clip-path="url(#cf_1)" preserveAspectRatio="none" x="906" y="190" width="4" height="1" xlink:href="img/8.jpg"/>
<image clip-path="url(#cc_1)" preserveAspectRatio="none" x="20" y="188" width="881" height="8" xlink:href="img/9.png"/>
<image clip-path="url(#cg_1)" preserveAspectRatio="none" x="905" y="191" width="6" height="2" xlink:href="img/10.jpg"/>
<image clip-path="url(#cc_1)" preserveAspectRatio="none" x="20" y="189" width="882" height="8" xlink:href="img/11.png"/>
<image clip-path="url(#ch_1)" preserveAspectRatio="none" x="905" y="193" width="6" height="1" xlink:href="img/12.jpg"/>
<image clip-path="url(#cc_1)" preserveAspectRatio="none" x="20" y="190" width="884" height="8" xlink:href="img/13.png"/>
<image clip-path="url(#ci_1)" preserveAspectRatio="none" x="904" y="194" width="7" height="1" xlink:href="img/14.jpg"/>
<image clip-path="url(#cc_1)" preserveAspectRatio="none" x="20" y="191" width="885" height="8" xlink:href="img/15.png"/>
<image clip-path="url(#cj_1)" preserveAspectRatio="none" x="904" y="195" width="22" height="1" xlink:href="img/16.jpg"/>
<image clip-path="url(#cc_1)" preserveAspectRatio="none" x="20" y="193" width="852" height="7" xlink:href="img/17.png"/>
<image clip-path="url(#ck_1)" preserveAspectRatio="none" x="870" y="196" width="163" height="1" xlink:href="img/18.jpg"/>
<g clip-path="url(#cc_1)">
<image preserveAspectRatio="none" x="23" y="197" width="359" height="1" xlink:href="img/19.jpg"/>
<image preserveAspectRatio="none" x="384" y="197" width="27" height="1" xlink:href="img/20.jpg"/>
<image preserveAspectRatio="none" x="414" y="197" width="22" height="1" xlink:href="img/21.jpg"/>
<image preserveAspectRatio="none" x="441" y="197" width="12" height="1" xlink:href="img/22.jpg"/>
<image preserveAspectRatio="none" x="462" y="197" width="31" height="1" xlink:href="img/23.jpg"/>
<image preserveAspectRatio="none" x="496" y="197" width="17" height="1" xlink:href="img/24.jpg"/>
<image preserveAspectRatio="none" x="514" y="197" width="52" height="1" xlink:href="img/25.jpg"/>
<image preserveAspectRatio="none" x="568" y="197" width="15" height="1" xlink:href="img/26.jpg"/>
<image preserveAspectRatio="none" x="586" y="197" width="32" height="1" xlink:href="img/27.jpg"/>
<image preserveAspectRatio="none" x="626" y="197" width="12" height="1" xlink:href="img/28.jpg"/>
<image preserveAspectRatio="none" x="645" y="197" width="19" height="1" xlink:href="img/29.jpg"/>
<image preserveAspectRatio="none" x="669" y="197" width="27" height="1" xlink:href="img/30.jpg"/>
<image preserveAspectRatio="none" x="699" y="197" width="29" height="1" xlink:href="img/31.jpg"/>
</g>
<image clip-path="url(#cl_1)" preserveAspectRatio="none" x="729" y="197" width="329" height="1" xlink:href="img/32.jpg"/>
<g clip-path="url(#cc_1)">
<image preserveAspectRatio="none" x="23" y="198" width="359" height="1" xlink:href="img/33.jpg"/>
<image preserveAspectRatio="none" x="384" y="198" width="71" height="1" xlink:href="img/34.jpg"/>
<image preserveAspectRatio="none" x="461" y="198" width="157" height="1" xlink:href="img/35.jpg"/>
<image preserveAspectRatio="none" x="625" y="198" width="17" height="1" xlink:href="img/36.jpg"/>
<image preserveAspectRatio="none" x="644" y="198" width="52" height="1" xlink:href="img/37.jpg"/>
</g>
<image clip-path="url(#cm_1)" preserveAspectRatio="none" x="697" y="198" width="361" height="1" xlink:href="img/38.jpg"/>
<g clip-path="url(#cc_1)">
<image preserveAspectRatio="none" x="23" y="199" width="435" height="1" xlink:href="img/39.jpg"/>
<image preserveAspectRatio="none" x="461" y="199" width="158" height="1" xlink:href="img/40.jpg"/>
</g>
<image clip-path="url(#cn_1)" preserveAspectRatio="none" x="623" y="199" width="435" height="1" xlink:href="img/41.jpg"/>
<image clip-path="url(#cc_1)" preserveAspectRatio="none" x="23" y="200" width="436" height="1" xlink:href="img/42.jpg"/>
<image clip-path="url(#co_1)" preserveAspectRatio="none" x="460" y="200" width="598" height="1" xlink:href="img/43.jpg"/>
<image clip-path="url(#cp_1)" preserveAspectRatio="none" x="23" y="201" width="888" height="1" xlink:href="img/44.jpg"/>
<path fill-rule="evenodd" d="M94.2 881.2l-.3 -.3l-.3 -.3l-.7 -.3l-.5 -.2L92 880l-.8 -.1h-13l-.9 .1l-.8 .3l-.8 .3l-.6 .6l-.7 .7l-.3 .8l-.3 .8v14.8l.3 .9l.3 .7l.3 .4l.4 .3l.6 .6l.8 .4l.8 .3H92l.2 -.1l.1 -.1h.1l.5 -.1l.3 -.2l.1 -.1l.3 -.1l.3 -.3l.3 -.3v-.1h.1l.1 -.1c.5 -.4 .5 -.7 .8 -1.2l.3 -.9V898l.1 -.1V884.4l-.1 -.9l-.3 -.8l-.3 -.8l-.7 -.7Z" class="g7_1"/>
<path fill-rule="evenodd" d="M85.2 352.1l-.4 -.3l-.3 -.3l-.7 -.3l-.5 -.2l-.3 -.1l-.9 -.1h-13l-.9 .1l-.7 .3l-.9 .3l-.6 .6l-.6 .7l-.4 .8l-.3 .8v14.8l.3 .9l.4 .7l.2 .4l.4 .3l.6 .6l.9 .4l.7 .3H83l.1 -.1l.1 -.1h.1l.5 -.1l.4 -.2v-.1l.3 -.1l.3 -.3l.4 -.3v-.1h.1v-.1c.5 -.4 .6 -.7 .9 -1.2l.2 -.9v-.3l.1 -.1V355.3l-.1 -.9l-.2 -.8l-.4 -.8l-.6 -.7Z" class="g7_1"/>
<path fill-rule="evenodd" d="M85.9 380l-.4 -.4l-.3 -.3l-1.1 -.5l-.4 -.1H68.9l-.8 .3l-.8 .3L66 380.6l-.4 .8l-.1 .9l-.1 .9v13l.1 .9l.1 .8l.4 .8l.6 .6l.7 .6l.8 .4l.8 .3l1 .1H82.8l.3 -.1h.6l.1 -.1l.1 -.1h.2l.3 -.1l.4 -.2l.2 -.2h.2l.7 -.6v-.1l.1 -.1c.9 -.8 .2 -.5 .9 -1.2l.2 -.8v-.5l.1 -.1V383.2l-.1 -.9l-.2 -.9l-.5 -.8l-.5 -.6Z" class="g8_1"/>
<path fill-rule="evenodd" d="M94.3 1075.2l-.3 -.4l-.4 -.3l-1.1 -.5l-.4 -.1H77.4l-.9 .3l-.8 .3l-1.3 1.3l-.3 .8l-.2 .9l-.1 .9v13l.1 .9l.2 .8l.3 .8l.7 .6l.6 .6l.8 .4l.9 .3l.9 .1H91.2l.4 -.1h.5l.2 -.2h.2l.4 -.1l.3 -.2l.2 -.2h.2l.7 -.6v-.1l.6 -.5l.1 -.3l.1 -.2l.2 -.3l.2 -.8v-.5h.1v-13.4l-.1 -.9l-.2 -.9l-.4 -.8l-.6 -.6Z" class="g8_1"/>
</svg>