<?xml version="1.0" encoding="UTF-8" standalone="no"?>
<!DOCTYPE svg PUBLIC "-//W3C//DTD SVG 1.1//EN"
"http://www.w3.org/Graphics/SVG/1.1/DTD/svg11.dtd">
<svg viewBox="0 0 909 1286" version="1.1" xmlns="http://www.w3.org/2000/svg" xmlns:xlink="http://www.w3.org/1999/xlink">
<defs>
<clipPath id="c0_8"><path d="M-.2 1286.6v-75.1h910v75.1Z"/></clipPath>
<style type="text/css"><![CDATA[
.g0_8{
fill: #000;
}
.g1_8{
fill: none;
stroke: #000;
stroke-width: 0.907;
stroke-linecap: square;
stroke-miterlimit: 10;
}
.g2_8{
fill: none;
stroke: #000;
stroke-width: 0.764;
stroke-linecap: square;
stroke-miterlimit: 10;
}
.g3_8{
fill: none;
stroke: #000;
stroke-width: 0.763;
stroke-linecap: square;
stroke-miterlimit: 10;
}
]]></style>
</defs>
<image clip-path="url(#c0_8)" preserveAspectRatio="none" x="-2" y="1212" width="930" height="127" xlink:href="img/1.jpg"/>
<path d="M456.8 91.1h36.6v-.9H456.8v.9Z" class="g0_8"/>
<path d="M111.6 233.8h36.6v-.9H111.6v.9Z" class="g0_8"/>
<path d="M249.1 233.8h36.6v-.9H249.1v.9Z" class="g0_8"/>
<path d="M254.9 257.7h36.7v-.9H254.9v.9Z" class="g0_8"/>
<path d="M401.6 257.7h36.7v-.9H401.6v.9Z" class="g0_8"/>
<path d="M557.4 257.7h36.7v-.9H557.4v.9Z" class="g0_8"/>
<path d="M163.3 281.5h36.6v-.9H163.3v.9Z" class="g0_8"/>
<path d="M234.9 560.4h10.9" class="g1_8"/>
<path d="M352 660.7h11.1m-38.6 49.1h10.2" class="g2_8"/>
<path d="M111.6 824.7h36.6v-.9H111.6v.9Z" class="g0_8"/>
<path d="M116.7 896.2h36.7v-.9H116.7v.9Z" class="g0_8"/>
<path d="M110.6 1015.1h36.6v-.9H110.6v.9Z" class="g0_8"/>
<path d="M257.2 1015.1h36.7v-.9H257.2v.9Z" class="g0_8"/>
<path d="M312.2 1015.1h55v-.9h-55v.9Z" class="g0_8"/>
<path d="M447.4 1038.9h36.7v-.9H447.4v.9Z" class="g0_8"/>
<path d="M447.4 1040.8h36.7v-.9H447.4v.9Z" class="g0_8"/>
<path d="M285.9 1190.3h18.2m68.4 0h18.2" class="g3_8"/>
<image preserveAspectRatio="none" x="43" y="232" width="57" height="56" xlink:href="img/2.jpg"/>
<image preserveAspectRatio="none" x="43" y="375" width="57" height="57" xlink:href="img/3.jpg"/>
<image preserveAspectRatio="none" x="43" y="516" width="57" height="56" xlink:href="img/4.jpg"/>
<image preserveAspectRatio="none" x="43" y="693" width="57" height="56" xlink:href="img/5.jpg"/>
<image preserveAspectRatio="none" x="43" y="90" width="57" height="56" xlink:href="img/6.jpg"/>
<image preserveAspectRatio="none" x="674" y="215" width="159" height="81" xlink:href="img/7.jpg"/>
<image preserveAspectRatio="none" x="43" y="1144" width="57" height="56" xlink:href="img/8.jpg"/>
<image preserveAspectRatio="none" x="43" y="1013" width="57" height="57" xlink:href="img/9.jpg"/>
<image preserveAspectRatio="none" x="43" y="824" width="57" height="57" xlink:href="img/10.jpg"/>
</svg>