<?xml version="1.0" encoding="UTF-8" standalone="no"?>
<!DOCTYPE svg PUBLIC "-//W3C//DTD SVG 1.1//EN"
"http://www.w3.org/Graphics/SVG/1.1/DTD/svg11.dtd">
<svg viewBox="0 0 909 1286" version="1.1" xmlns="http://www.w3.org/2000/svg" xmlns:xlink="http://www.w3.org/1999/xlink">
<defs>
<clipPath id="c0_7"><path d="M-.2 1286.6v-75.1h910v75.1Z"/></clipPath>
<clipPath id="c1_7"><path d="M689 188.2V59.8h99.2V188.2Z"/></clipPath>
<clipPath id="c2_7"><path d="M709.3 1060.1V933.4H839v126.7Z"/></clipPath>
<style type="text/css"><![CDATA[
.g0_7{
fill: #000;
}
.g1_7{
fill: none;
stroke: #000;
stroke-width: 0.907;
stroke-linecap: square;
stroke-miterlimit: 10;
}
]]></style>
</defs>
<image clip-path="url(#c0_7)" preserveAspectRatio="none" x="-2" y="1212" width="930" height="127" xlink:href="img/1.jpg"/>
<path d="M614.7 365.4h55v-.9h-55v.9Z" class="g0_7"/>
<path d="M614.7 367.2h55v-.9h-55v.9Z" class="g0_7"/>
<path d="M243 535.8h10.8" class="g1_7"/>
<image clip-path="url(#c1_7)" preserveAspectRatio="none" x="689" y="60" width="99" height="128" xlink:href="img/2.jpg"/>
<image preserveAspectRatio="none" x="44" y="89" width="56" height="56" xlink:href="img/3.jpg"/>
<image preserveAspectRatio="none" x="44" y="226" width="56" height="56" xlink:href="img/4.jpg"/>
<image preserveAspectRatio="none" x="44" y="363" width="56" height="56" xlink:href="img/5.jpg"/>
<image preserveAspectRatio="none" x="44" y="507" width="56" height="56" xlink:href="img/6.jpg"/>
<image preserveAspectRatio="none" x="645" y="617" width="167" height="137" xlink:href="img/7.jpg"/>
<image preserveAspectRatio="none" x="44" y="646" width="56" height="56" xlink:href="img/8.jpg"/>
<image preserveAspectRatio="none" x="666" y="760" width="153" height="137" xlink:href="img/9.png"/>
<image preserveAspectRatio="none" x="44" y="792" width="56" height="57" xlink:href="img/10.jpg"/>
<image preserveAspectRatio="none" x="44" y="958" width="56" height="56" xlink:href="img/11.jpg"/>
<image clip-path="url(#c2_7)" preserveAspectRatio="none" x="710" y="934" width="129" height="126" xlink:href="img/12.jpg"/>
<image preserveAspectRatio="none" x="44" y="1121" width="56" height="57" xlink:href="img/13.jpg"/>
</svg>