<?xml version="1.0" encoding="UTF-8" standalone="no"?>
<!DOCTYPE svg PUBLIC "-//W3C//DTD SVG 1.1//EN"
"http://www.w3.org/Graphics/SVG/1.1/DTD/svg11.dtd">
<svg viewBox="0 0 909 1286" version="1.1" xmlns="http://www.w3.org/2000/svg" xmlns:xlink="http://www.w3.org/1999/xlink">
<defs>
<clipPath id="c0_1"><path d="M-.2 1286.6v-75.1h910v75.1Z"/></clipPath>
<clipPath id="c1_1"><path d="M.1 152.6V0H909.8V152.6Z"/></clipPath>
<clipPath id="c2_1"><path d="M23 203.8V154.1H909.8v49.7Z"/></clipPath>
<clipPath id="c3_1"><path d="M616.1 636.5V509.8H846V636.5Z"/></clipPath>
<style type="text/css"><![CDATA[
.g0_1{
fill: #000;
}
]]></style>
</defs>
<image clip-path="url(#c0_1)" preserveAspectRatio="none" x="-2" y="1212" width="930" height="127" xlink:href="img/1.jpg"/>
<path d="M152.8 527.1h91.7v-.9H152.8v.9Z" class="g0_1"/>
<path d="M336.1 527.1h36.7v-.9H336.1v.9Z" class="g0_1"/>
<path d="M446.7 575.4h36.7v-.9H446.7v.9Z" class="g0_1"/>
<path d="M263.4 599.2H300v-.9H263.4v.9Z" class="g0_1"/>
<path d="M370.3 623.1h55v-1h-55v1Z" class="g0_1"/>
<path d="M370.3 624.9h55V624h-55v.9Z" class="g0_1"/>
<path d="M110.6 718h36.6v-.9H110.6v.9Z" class="g0_1"/>
<path d="M181.2 887.8h36.6v-.9H181.2v.9Z" class="g0_1"/>
<path d="M658.3 911.7h36.6v-.9H658.3v.9Z" class="g0_1"/>
<path d="M110.6 1031.1h36.6v-1H110.6v1Z" class="g0_1"/>
<path d="M126.6 1054.9h36.7v-.9H126.6v.9Z" class="g0_1"/>
<image clip-path="url(#c1_1)" preserveAspectRatio="none" x="0" y="0" width="915" height="152" xlink:href="img/2.jpg"/>
<image clip-path="url(#c2_1)" preserveAspectRatio="none" x="23" y="154" width="1038" height="49" xlink:href="img/3.png"/>
<image preserveAspectRatio="none" x="494" y="264" width="351" height="111" xlink:href="img/4.jpg"/>
<image clip-path="url(#c3_1)" preserveAspectRatio="none" x="616" y="510" width="230" height="126" xlink:href="img/5.jpg"/>
<image preserveAspectRatio="none" x="43" y="525" width="57" height="56" xlink:href="img/6.jpg"/>
<image preserveAspectRatio="none" x="601" y="697" width="254" height="98" xlink:href="img/7.jpg"/>
<image preserveAspectRatio="none" x="43" y="718" width="57" height="56" xlink:href="img/8.jpg"/>
<image preserveAspectRatio="none" x="43" y="863" width="57" height="56" xlink:href="img/9.jpg"/>
<image preserveAspectRatio="none" x="43" y="1030" width="57" height="57" xlink:href="img/10.jpg"/>
<image preserveAspectRatio="none" x="43" y="1145" width="57" height="56" xlink:href="img/11.jpg"/>
</svg>