<?xml version="1.0" encoding="UTF-8" standalone="no"?>
<!DOCTYPE svg PUBLIC "-//W3C//DTD SVG 1.1//EN"
"http://www.w3.org/Graphics/SVG/1.1/DTD/svg11.dtd">
<svg viewBox="0 0 909 1286" version="1.1" xmlns="http://www.w3.org/2000/svg" xmlns:xlink="http://www.w3.org/1999/xlink">
<defs>
<clipPath id="c0_1"><path d="M-.2 1286.6v-74.9h910v74.9Z"/></clipPath>
<clipPath id="c1_1"><path d="M412 1001.9V889.4h98.5v112.5Z"/></clipPath>
<clipPath id="c2_1"><path d="M.1 152.6V0H909.8V152.6Z"/></clipPath>
<clipPath id="c3_1"><path d="M23 203.8V154.1H909.8v49.7Z"/></clipPath>
<clipPath id="c4_1"><path d="M711.9 934.8V794.1h120V934.8Z"/></clipPath>
<clipPath id="c5_1"><path d="M43 875.7V813.1h62.6v62.6Z"/></clipPath>
<style type="text/css"><![CDATA[
.g0_1{
fill: none;
stroke: #000;
stroke-width: 1.099;
stroke-linecap: square;
stroke-miterlimit: 10;
}
.g1_1{
fill: #000;
}
.g2_1{
fill: none;
stroke: #000;
stroke-width: 0.768;
stroke-linejoin: round;
}
.g3_1{
fill: none;
stroke: #000;
stroke-width: 1.152;
stroke-linejoin: round;
}
.g4_1{
fill: none;
stroke: #000;
stroke-width: 1.075;
stroke-linejoin: round;
}
.g5_1{
fill: none;
stroke: #000;
stroke-width: 0.691;
stroke-linecap: round;
stroke-linejoin: round;
}
]]></style>
</defs>
<image clip-path="url(#c0_1)" preserveAspectRatio="none" x="-4" y="1212" width="952" height="131" xlink:href="img/1.jpg"/>
<path d="M403 267.7H370.9m78.1 0H417.8m84 0H471.7m86.2 0H524.7m-207 33.1H286.6m104.6 0H359.1m77.1 0H406.1m126.3 0H500.3M361.4 334.2H331.3m216 0H516.6M141.3 367.6H109.8m168.5 0H247.9m88 0H305.4m24.2 104.3H297.5m78.2 0H344.5M164.8 505.3H132.7m88.2 0H187.7" class="g0_1"/>
<path d="M272.4 839.8h36.7v-.9H272.4v.9Z" class="g1_1"/>
<path d="M602.3 863.7h36.6v-.9H602.3v.9Z" class="g1_1"/>
<image preserveAspectRatio="none" x="134" y="890" width="95" height="112" xlink:href="img/2.jpg"/>
<image preserveAspectRatio="none" x="272" y="890" width="98" height="112" xlink:href="img/3.jpg"/>
<image clip-path="url(#c1_1)" preserveAspectRatio="none" x="412" y="890" width="98" height="112" xlink:href="img/4.jpg"/>
<image preserveAspectRatio="none" x="554" y="890" width="98" height="112" xlink:href="img/5.jpg"/>
<path d="M475.7 1077.3h36.7v-1H475.7v1Z" class="g1_1"/>
<image clip-path="url(#c2_1)" preserveAspectRatio="none" x="0" y="0" width="915" height="152" xlink:href="img/6.jpg"/>
<image clip-path="url(#c3_1)" preserveAspectRatio="none" x="23" y="154" width="1038" height="49" xlink:href="img/7.png"/>
<image preserveAspectRatio="none" x="43" y="620" width="57" height="57" xlink:href="img/8.jpg"/>
<path d="M772.9 661.1v0h-1.5l-1.2 -.4l-1.9 -.8l-1.5 -1.1l-2 -2l-1.5 -1.9l-.8 -2.7m10.4 59.4v0l1.5 -.4l1.2 -.4l1.9 -.8l1.9 -1.1l1.6 -1.5l1.5 -2.4l.8 -2.7m-62.2 -8.8v0h-1.2l-1.5 .4l-1.5 .7l-2 1.2l-1.9 1.9l-1.1 2l-1.2 2.6M656.9 661.1v0h1.2l1.5 -.4l1.5 -.8l2 -1.1l1.9 -2l1.1 -1.9l1.2 -2.7" class="g2_1"/>
<path d="M656.9 617.1V741.3M721.1 617.1V741.3M772.9 617.1V741.3M630 702.3H815.6M630 652.2H815.6" class="g3_1"/>
<image clip-path="url(#c4_1)" preserveAspectRatio="none" x="712" y="794" width="120" height="140" xlink:href="img/9.jpg"/>
<image clip-path="url(#c5_1)" preserveAspectRatio="none" x="43" y="813" width="62" height="62" xlink:href="img/10.jpg"/>
<image preserveAspectRatio="none" x="689" y="1060" width="153" height="111" xlink:href="img/11.jpg"/>
<image preserveAspectRatio="none" x="43" y="1077" width="57" height="56" xlink:href="img/12.jpg"/>
<image preserveAspectRatio="none" x="612" y="272" width="240" height="89" xlink:href="img/13.jpg"/>
<path d="M641.4 563.6l63.4 -83.7m-48.2 -.4h48.5l90.2 84.1H641.4l15.2 -84.1" class="g4_1"/>
<path d="M709.3 484.1l-3.8 5.1L701 484.9l3.8 -5l4.5 4.2Z" class="g5_1"/>
</svg>