<?xml version="1.0" encoding="UTF-8" standalone="no"?>
<!DOCTYPE svg PUBLIC "-//W3C//DTD SVG 1.1//EN"
"http://www.w3.org/Graphics/SVG/1.1/DTD/svg11.dtd">
<svg viewBox="0 0 909 1286" version="1.1" xmlns="http://www.w3.org/2000/svg" xmlns:xlink="http://www.w3.org/1999/xlink">
<defs>
<clipPath id="c0_1"><path d="M0 1286.3v-57.1H909.5v57.1Z"/></clipPath>
<clipPath id="c1_1"><path d="M0 151.3V0H909.5V151.3Z"/></clipPath>
<clipPath id="c2_1"><path d="M22.8 202.4V153.3H909.5v49.1Z"/></clipPath>
<style type="text/css"><![CDATA[
.g0_1{
fill: #F00;
}
.g1_1{
fill: none;
stroke: #F00;
stroke-width: 1.254;
stroke-linecap: square;
stroke-miterlimit: 10;
}
.g2_1{
fill: #00F;
}
.g3_1{
fill: none;
stroke: #00F;
stroke-width: 1.254;
stroke-linecap: square;
stroke-miterlimit: 10;
}
.g4_1{
fill: #FCF;
}
.g5_1{
fill: none;
stroke: #00F;
stroke-width: 1.099;
stroke-linecap: square;
stroke-miterlimit: 10;
}
.g6_1{
fill: none;
stroke: #000;
stroke-width: 1.099;
stroke-linecap: square;
stroke-miterlimit: 10;
}
.g7_1{
fill: #CFC;
}
.g8_1{
fill: #70AD47;
}
.g9_1{
fill: none;
stroke: #000;
stroke-width: 1.527;
stroke-linejoin: round;
}
.ga_1{
fill: #000;
}
.gb_1{
fill: #6C3;
}
.gc_1{
fill: #C39;
}
.gd_1{
fill: #F60;
}
]]></style>
</defs>
<image clip-path="url(#c0_1)" preserveAspectRatio="none" x="-2" y="1229" width="930" height="128" xlink:href="img/1.jpg"/>
<path d="M755.6 675.3l.5 -.2l.5 -.2l.5 -.2l.4 -.2l.4 -.3l.3 -.3v-.1l.1 -.1l.2 -.1l.2 -.3l.1 -.1l.1 -.3l.1 -.2v-.3l.1 -.3v-.7l-.1 -.8l-.1 -.5l-.1 -.4l-.1 -.2v-.1l-.1 -.2l-.1 -.4l8.1 7.6Z" class="g0_1"/>
<path d="M672.4 674.6l2.6 -1.3l2.8 -1.3l2.6 -1.2l2.7 -1.1l2.7 -1.1l2.7 -.9l2.7 -.9l2.7 -.7l2.7 -.7l2.7 -.7l2.7 -.5l2.7 -.4l2.7 -.4l2.7 -.2l2.7 -.2l2.7 -.1h5.4l2.7 .2l2.8 .2l2.6 .3l2.7 .4l2.8 .5l2.7 .6l2.7 .6l2.7 .8l2.7 .8l2.8 .9l2.7 1l2.7 1.1l2.7 1.2l2.8 1.2" class="g1_1"/>
<path d="M672.4 697.3l11.1 1l-1.2 .4l-.9 .5l-.3 .2l-.3 .3l-.3 .4l-.2 .4l-.2 .3H680v.1l-.1 .7l-.1 .3v.4l.1 .4l.1 .5v.3l.2 .5l.1 .4l.2 .5Z" class="g2_1"/>
<path d="M766.6 699l-2.7 1.4l-2.8 1.3l-2.7 1.1l-2.6 1.2l-2.8 1l-2.6 .9l-2.7 .9l-2.7 .8l-2.7 .6l-2.7 .7l-2.8 .4l-2.6 .5l-2.7 .3l-1.4 .2l-1.3 .1l-2.8 .2l-2.6 .1h-5.5l-2.7 -.2l-2.6 -.2l-2.8 -.4l-2.7 -.4l-2.7 -.4l-2.7 -.6l-2.7 -.7l-2.7 -.7l-2.7 -.9l-1.4 -.4l-1.3 -.4l-2.7 -1.1l-2.8 -1l-2.7 -1.2L680 700.9" class="g3_1"/>
<path d="M160.7 822.6l-2 -.1l-1.7 -.2l-1.7 -.5l-1.4 -.6l-.8 -.4l-.5 -.4l-.8 -.7l-.4 -.5l-.2 -.4l-.1 -.9V804l.1 -1l.6 -.8l.8 -.9l1.3 -.7l1.4 -.6l1.7 -.4l1.7 -.3l2 -.1h28l1.9 .1l.8 .1l.9 .2l1.5 .4l.8 .2l.8 .4l1.2 .7l.9 .9l.5 .8l.2 1v13.9l-.1 .4l-.1 .1v.4l-.2 .2l-.1 .1v.1l-.2 .5l-.5 .3l-.3 .2l-.1 .2l-.7 .4l-.5 .4h-.3l-.2 .1l-.3 .2l-.8 .3l-.4 .1l-.4 .1l-.7 .3l-.9 .1H191l-.4 .1h-.8l-.2 .1h-.9Z" class="g4_1"/>
<path d="M235.9 822.1l-2 -.1l-1.7 -.3l-1.7 -.4l-1.5 -.7l-.7 -.4l-.5 -.3l-.9 -.8l-.3 -.4l-.2 -.4l-.1 -1V803.5l.1 -1l.5 -.9l.9 -.8l1.2 -.7l1.5 -.7l1.7 -.4l1.7 -.2l2 -.1h28l1.9 .1h.8l.9 .2l1.5 .4l.7 .3l.9 .4l1.1 .7l.9 .8l.6 .9l.2 1v13.8l-.1 .5l-.1 .1v.4l-.2 .1l-.1 .1v.2l-.3 .4l-.4 .4l-.3 .2l-.2 .2l-.6 .3l-.5 .4h-.3v.1l-.2 .1l-.4 .2l-.7 .3l-.4 .1l-.4 .1l-.7 .2l-.9 .2h-.5l-.3 .1h-1l-.9 .1Z" class="g4_1"/>
<path d="M552.3 397.9h9.2" class="g5_1"/>
<path d="M633.1 441.7h9.2" class="g6_1"/>
<path fill-rule="evenodd" d="M71.2 575.1H290.4V547.6H71.2v27.5Z" class="g7_1"/>
<path d="M79.1 575.1H282.5V547.6H79.1v27.5Z" class="g7_1"/>
<path fill-rule="evenodd" d="M291.2 575.1H537.9V547.6H291.2v27.5Z" class="g7_1"/>
<path d="M299.1 575.1H530V547.6H299.1v27.5Z" class="g7_1"/>
<path fill-rule="evenodd" d="M538.7 575.1H861.9V547.6H538.7v27.5Z" class="g7_1"/>
<path d="M546.6 575.1H854V547.6H546.6v27.5Z" class="g7_1"/>
<path d="M70.5 547.6h.7v-.7h-.7v.7Z" class="g8_1"/>
<path d="M70.5 547.6h.7v-.7h-.7v.7Z" class="g8_1"/>
<path d="M71.2 547.6H290.5v-.7H71.2v.7Z" class="g8_1"/>
<path d="M290.5 547.6h.7v-.7h-.7v.7Z" class="g8_1"/>
<path d="M291.2 547.6H538v-.7H291.2v.7Z" class="g8_1"/>
<path d="M538 547.6h.7v-.7H538v.7Z" class="g8_1"/>
<path d="M538.7 547.6H861.9v-.7H538.7v.7Z" class="g8_1"/>
<path d="M861.9 547.6h.7v-.7h-.7v.7Z" class="g8_1"/>
<path d="M861.9 547.6h.7v-.7h-.7v.7Z" class="g8_1"/>
<path d="M70.5 575.1h.7V547.6h-.7v27.5Z" class="g8_1"/>
<path d="M290.5 575.1h.7V547.6h-.7v27.5Z" class="g8_1"/>
<path d="M538 575.1h.7V547.6H538v27.5Z" class="g8_1"/>
<path d="M861.9 575.1h.7V547.6h-.7v27.5Z" class="g8_1"/>
<path d="M70.5 575.8h.7v-.7h-.7v.7Z" class="g8_1"/>
<path d="M71.2 575.8H290.5v-.7H71.2v.7Z" class="g8_1"/>
<path d="M290.5 575.8h.7v-.7h-.7v.7Z" class="g8_1"/>
<path d="M291.2 575.8H538v-.7H291.2v.7Z" class="g8_1"/>
<path d="M538 575.8h.7v-.7H538v.7Z" class="g8_1"/>
<path d="M538.7 575.8H861.9v-.7H538.7v.7Z" class="g8_1"/>
<path d="M861.9 575.8h.7v-.7h-.7v.7Z" class="g8_1"/>
<path d="M70.5 630.9h.7V575.8h-.7v55.1Z" class="g8_1"/>
<path d="M70.5 631.7h.7v-.8h-.7v.8Z" class="g8_1"/>
<path d="M70.5 631.7h.7v-.8h-.7v.8Z" class="g8_1"/>
<path d="M71.2 631.7H290.5v-.8H71.2v.8Z" class="g8_1"/>
<path d="M290.5 630.9h.7V575.8h-.7v55.1Z" class="g8_1"/>
<path d="M290.5 631.7h.7v-.8h-.7v.8Z" class="g8_1"/>
<path d="M291.2 631.7H538v-.8H291.2v.8Z" class="g8_1"/>
<path d="M538 630.9h.7V575.8H538v55.1Z" class="g8_1"/>
<path d="M538 631.7h.7v-.8H538v.8Z" class="g8_1"/>
<path d="M538.7 631.7H861.9v-.8H538.7v.8Z" class="g8_1"/>
<path d="M861.9 630.9h.7V575.8h-.7v55.1Z" class="g8_1"/>
<path d="M861.9 631.7h.7v-.8h-.7v.8Z" class="g8_1"/>
<path d="M861.9 631.7h.7v-.8h-.7v.8Z" class="g8_1"/>
<path fill-rule="evenodd" d="M85 1099.9H207.9v-27.5H85v27.5Z" class="g7_1"/>
<path d="M92.9 1099.9H200v-27.5H92.9v27.5Z" class="g7_1"/>
<path fill-rule="evenodd" d="M208.7 1099.9H372.9v-27.5H208.7v27.5Z" class="g7_1"/>
<path d="M216.6 1099.9H365v-27.5H216.6v27.5Z" class="g7_1"/>
<path fill-rule="evenodd" d="M373.7 1099.9H861.9v-27.5H373.7v27.5Z" class="g7_1"/>
<path d="M381.6 1099.9H854v-27.5H381.6v27.5Z" class="g7_1"/>
<path d="M84.2 1072.4H85v-.7h-.8v.7Z" class="g8_1"/>
<path d="M84.2 1072.4H85v-.7h-.8v.7Z" class="g8_1"/>
<path d="M85 1072.4H208v-.7H85v.7Z" class="g8_1"/>
<path d="M208 1072.4h.7v-.7H208v.7Z" class="g8_1"/>
<path d="M208.7 1072.4H373v-.7H208.7v.7Z" class="g8_1"/>
<path d="M373 1072.4h.7v-.7H373v.7Z" class="g8_1"/>
<path d="M373.7 1072.4H861.9v-.7H373.7v.7Z" class="g8_1"/>
<path d="M861.9 1072.4h.7v-.7h-.7v.7Z" class="g8_1"/>
<path d="M861.9 1072.4h.7v-.7h-.7v.7Z" class="g8_1"/>
<path d="M84.2 1099.9H85v-27.5h-.8v27.5Z" class="g8_1"/>
<path d="M208 1099.9h.7v-27.5H208v27.5Z" class="g8_1"/>
<path d="M373 1099.9h.7v-27.5H373v27.5Z" class="g8_1"/>
<path d="M861.9 1099.9h.7v-27.5h-.7v27.5Z" class="g8_1"/>
<path d="M84.2 1100.6H85v-.7h-.8v.7Z" class="g8_1"/>
<path d="M85 1100.6H208v-.7H85v.7Z" class="g8_1"/>
<path d="M208 1100.6h.7v-.7H208v.7Z" class="g8_1"/>
<path d="M208.7 1100.6H373v-.7H208.7v.7Z" class="g8_1"/>
<path d="M373 1100.6h.7v-.7H373v.7Z" class="g8_1"/>
<path d="M373.7 1100.6H861.9v-.7H373.7v.7Z" class="g8_1"/>
<path d="M861.9 1100.6h.7v-.7h-.7v.7Z" class="g8_1"/>
<path d="M84.2 1128.1H85v-27.5h-.8v27.5Z" class="g8_1"/>
<path d="M208 1128.1h.7v-27.5H208v27.5Z" class="g8_1"/>
<path d="M373 1128.1h.7v-27.5H373v27.5Z" class="g8_1"/>
<path d="M861.9 1128.1h.7v-27.5h-.7v27.5Z" class="g8_1"/>
<path d="M84.2 1128.9H85v-.8h-.8v.8Z" class="g8_1"/>
<path d="M85 1128.9H208v-.8H85v.8Z" class="g8_1"/>
<path d="M208 1128.9h.7v-.8H208v.8Z" class="g8_1"/>
<path d="M208.7 1128.9H373v-.8H208.7v.8Z" class="g8_1"/>
<path d="M373 1128.9h.7v-.8H373v.8Z" class="g8_1"/>
<path d="M373.7 1128.9H861.9v-.8H373.7v.8Z" class="g8_1"/>
<path d="M861.9 1128.9h.7v-.8h-.7v.8Z" class="g8_1"/>
<path d="M84.2 1156.5H85v-27.6h-.8v27.6Z" class="g8_1"/>
<path d="M208 1156.5h.7v-27.6H208v27.6Z" class="g8_1"/>
<path d="M373 1156.5h.7v-27.6H373v27.6Z" class="g8_1"/>
<path d="M861.9 1156.5h.7v-27.6h-.7v27.6Z" class="g8_1"/>
<path d="M84.2 1157.2H85v-.7h-.8v.7Z" class="g8_1"/>
<path d="M85 1157.2H208v-.7H85v.7Z" class="g8_1"/>
<path d="M208 1157.2h.7v-.7H208v.7Z" class="g8_1"/>
<path d="M208.7 1157.2H373v-.7H208.7v.7Z" class="g8_1"/>
<path d="M373 1157.2h.7v-.7H373v.7Z" class="g8_1"/>
<path d="M373.7 1157.2H861.9v-.7H373.7v.7Z" class="g8_1"/>
<path d="M861.9 1157.2h.7v-.7h-.7v.7Z" class="g8_1"/>
<path d="M84.2 1184.7H85v-27.5h-.8v27.5Z" class="g8_1"/>
<path d="M84.2 1185.4H85v-.7h-.8v.7Z" class="g8_1"/>
<path d="M84.2 1185.4H85v-.7h-.8v.7Z" class="g8_1"/>
<path d="M85 1185.4H208v-.7H85v.7Z" class="g8_1"/>
<path d="M208 1184.7h.7v-27.5H208v27.5Z" class="g8_1"/>
<path d="M208 1185.4h.7v-.7H208v.7Z" class="g8_1"/>
<path d="M208.7 1185.4H373v-.7H208.7v.7Z" class="g8_1"/>
<path d="M373 1184.7h.7v-27.5H373v27.5Z" class="g8_1"/>
<path d="M373 1185.4h.7v-.7H373v.7Z" class="g8_1"/>
<path d="M373.7 1185.4H861.9v-.7H373.7v.7Z" class="g8_1"/>
<path d="M861.9 1184.7h.7v-27.5h-.7v27.5Z" class="g8_1"/>
<path d="M861.9 1185.4h.7v-.7h-.7v.7Z" class="g8_1"/>
<path d="M861.9 1185.4h.7v-.7h-.7v.7Z" class="g8_1"/>
<image clip-path="url(#c1_1)" preserveAspectRatio="none" x="0" y="0" width="914" height="151" xlink:href="img/2.jpg"/>
<image clip-path="url(#c2_1)" preserveAspectRatio="none" x="23" y="153" width="1038" height="49" xlink:href="img/3.png"/>
<path d="M277.1 267h33.6" class="g9_1"/>
<path fill-rule="evenodd" d="M309.1 262.4l9.2 4.6l-9.2 4.6Z" class="ga_1"/>
<path d="M58.6 317.6h-.8l-.7 -.3l-.7 -.4l-.5 -.5l-.3 -.4l-.2 -.3l-.3 -.8l-.2 -.9l-.1 -.4l.1 -.4V299.9l.2 -.9l.3 -.7l.5 -.7l.5 -.6l.7 -.4l.7 -.2l.8 -.1H90.1l.8 .1l.3 .1l.4 .1l.3 .2l.3 .2l.3 .3l.3 .3l.5 .7l.3 .7l.3 .9l.1 .9v12.4l-.1 .4v.4l-.1 .4l-.1 .3l-.1 .2l-.1 .2l-.1 .2l-.1 .4L93 316l-.1 .2l-.1 .2l-.3 .2l-.2 .1l-.1 .2l-.3 .2l-.2 .1h-.1v.1h-.2v.1h-.2l-.3 .2h-.8Z" class="g4_1"/>
<path d="M76.8 345.2l-.8 -.1l-.8 -.3l-.8 -.4l-.6 -.5l-.4 -.4l-.2 -.3l-.4 -.7l-.2 -.8V327.3l.2 -.8l.4 -.7l.6 -.7l.6 -.6l.8 -.3l.8 -.3H90.2l.4 .1l.4 .2l.7 .3l.3 .3l.4 .3l.5 .7l.4 .7l.3 .8l.1 .9v12.6l-.1 .4v.5l-.3 .8l-.2 .3L93 343l-.1 .2l-.2 .3l-.2 .2l-.1 .1v.1l-.4 .2l-.3 .3l-.2 .1l-.2 .1l-.3 .2l-.4 .2h-.2l-.2 .1h-.4l-.4 .1Z" class="gb_1"/>
<path d="M198.4 408.9l-.6 -.1l-.5 -.1l-.5 -.3l-.4 -.3l-.4 -.5l-.2 -.3v-.2l-.2 -.3V392.7l.2 -.5l.2 -.5l.4 -.4l.4 -.4l.5 -.3l.5 -.1l.6 -.1h33l.5 .1h.3l.2 .1l.5 .3l.5 .4l.3 .4l.3 .5l.2 .5v13.9l-.1 .2l-.1 .3l-.2 .2l-.1 .3l-.3 .5l-.5 .3l-.3 .1l-.2 .2h-.2l-.3 .1h-.3v.1h-.2Z" class="gc_1"/>
<path d="M66 452.1l-.5 -.1l-.6 -.1l-.4 -.3l-.4 -.3l-.4 -.5l-.2 -.3l-.1 -.2l-.1 -.3v-.2l-.1 -.5V436.5l.1 -.5l.1 -.5l.3 -.5l.4 -.4l.4 -.4l.4 -.3l.6 -.1l.5 -.1H98.8l.5 .1h.2l.3 .1l.2 .1l.3 .2l.4 .4l.4 .4l.2 .5l.2 .5l.1 .5v12.8l-.1 .2v.3l-.1 .2l-.1 .3l-.1 .2l-.1 .3l-.4 .5l-.4 .3l-.3 .1l-.2 .2h-.3l-.2 .1H99v.1h-.2Z" class="gd_1"/>
<path d="M85.2 485.9h-.9l-.8 -.3l-.8 -.4l-.6 -.5l-.3 -.4l-.3 -.3l-.3 -.7l-.3 -.8V468.1l.3 -.8l.3 -.7l.6 -.7l.6 -.6l.8 -.3l.8 -.3H98.5l.4 .1l.4 .2l.7 .3l.3 .3l.4 .3l.6 .7l.4 .7l.2 .8l.1 .9v13l-.1 .1v.4l-.2 .8l-.2 .3l-.2 .2v.2l-.3 .3l-.2 .2h-.1v.2l-.4 .2l-.3 .3l-.2 .1l-.2 .1l-.3 .2l-.4 .1h-.1l-.1 .1l-.2 .1h-.8Z" class="gb_1"/>
<path d="M111.4 821.9l-.9 -.1l-.8 -.2l-.8 -.4l-.6 -.6l-.3 -.3l-.3 -.4l-.3 -.7l-.3 -.8V804.1l.3 -.8l.3 -.8l.6 -.6l.6 -.6l.8 -.4l.8 -.2l.9 -.1h12.5l.8 .1l.4 .1l.4 .1l.7 .4l.3 .2l.4 .4l.6 .6l.4 .8l.2 .8l.1 .9v13l-.1 .1v.3l-.2 .8l-.2 .4l-.2 .1v.2l-.3 .4l-.2 .1l-.1 .1v.1l-.4 .3l-.3 .3H126l-.2 .2l-.3 .2l-.4 .1h-.2l-.2 .1h-.3l-.1 .1h-.4Z" class="gb_1"/>
<path d="M111.3 903.1l-.9 -.1l-.8 -.2l-.7 -.4l-.7 -.6l-.3 -.3l-.2 -.4l-.4 -.7l-.3 -.8V885.3l.3 -.8l.4 -.8l.5 -.6l.7 -.6l.7 -.4l.8 -.2l.9 -.1h12.5l.9 .1l.3 .1l.4 .1l.7 .4l.4 .2l.3 .4l.6 .6l.4 .8l.2 .8l.1 .9v13l-.1 .1v.3l-.2 .8l-.2 .4l-.1 .1l-.1 .2l-.3 .4l-.2 .1v.1h-.1v.1l-.3 .3l-.4 .3h-.2l-.1 .2l-.4 .2l-.4 .1h-.2l-.1 .1h-.4l-.1 .1h-.4Z" class="gb_1"/>
<path d="M95.4 985.1l-.9 -.1l-.7 -.2l-.6 -.4l-.6 -.5l-.3 -.4l-.2 -.3l-.3 -.8l-.2 -.9V967.4l.2 -.9l.3 -.8l.5 -.6l.6 -.6l.6 -.4l.7 -.2l.9 -.1h31.5l.7 .1h.3l.4 .2l.3 .2l.3 .2l.3 .3l.3 .3l.5 .6l.4 .8l.2 .9l.1 .9v12.8l-.1 .1v.3l-.1 .4l-.1 .2v.3l-.2 .1v.3l-.2 .4l-.2 .3l-.2 .2l-.1 .2l-.3 .2l-.1 .1l-.2 .2l-.3 .2l-.2 .1l-.1 .1h-.2l-.2 .1l-.3 .1l-.7 .1Z" class="g4_1"/>
<path d="M379.3 1124.3l-.9 -.1l-.8 -.2l-.8 -.4l-.6 -.5l-.3 -.4l-.3 -.3l-.3 -.7l-.3 -.9v-14.3l.3 -.8l.3 -.8l.6 -.6l.6 -.6l.8 -.4l.8 -.2h14.2l.4 .1l.4 .1l.7 .4l.3 .3l.4 .3l.6 .6l.4 .8l.2 .8l.1 .9V1120l-.1 .4v.4l-.2 .9l-.2 .3l-.2 .2v.2l-.3 .3l-.2 .1l-.1 .1v.2l-.4 .2l-.3 .3l-.2 .1l-.2 .1l-.3 .2l-.4 .1h-.1l-.1 .1h-.5l-.1 .1h-.4Z" class="gb_1"/>
<path d="M378.8 1153l-.9 -.1l-.7 -.3l-.8 -.4l-.7 -.5l-.3 -.4l-.2 -.3l-.4 -.7l-.2 -.8l-.1 -.9V1136l.1 -.9l.2 -.7l.4 -.8l.5 -.7l.7 -.5l.8 -.4l.7 -.3h14.3l.4 .1l.4 .2l.6 .4l.4 .2l.3 .3l.6 .7l.4 .8l.3 .7v14.4l-.3 .8l-.2 .3l-.1 .2l-.1 .2l-.3 .3l-.1 .2l-.1 .1h-.1v.1l-.3 .2l-.4 .3l-.2 .1l-.1 .1l-.3 .2l-.4 .2h-.3l-.1 .1h-.5l-.4 .1Z" class="gb_1"/>
<path d="M378.8 1181.1l-.9 -.1l-.7 -.2l-.8 -.5l-.7 -.5l-.3 -.4l-.2 -.3l-.4 -.7l-.2 -.8l-.1 -.9v-12.6l.1 -.9l.2 -.7l.4 -.8l.5 -.7l.7 -.5l.8 -.4l.7 -.2l.9 -.1h12.5l.9 .1h.4l.4 .2l.6 .4l.4 .2l.3 .3l.6 .7l.4 .8l.3 .7v14.4l-.3 .8l-.2 .3l-.1 .2l-.1 .2l-.3 .3l-.1 .2l-.1 .1h-.1v.1l-.3 .3l-.4 .2l-.2 .1l-.1 .1l-.3 .3l-.4 .1h-.3l-.1 .1h-.5l-.4 .1Z" class="gb_1"/>
</svg>