<?xml version="1.0" encoding="UTF-8" standalone="no"?>
<!DOCTYPE svg PUBLIC "-//W3C//DTD SVG 1.1//EN"
"http://www.w3.org/Graphics/SVG/1.1/DTD/svg11.dtd">
<svg viewBox="0 0 909 1286" version="1.1" xmlns="http://www.w3.org/2000/svg" xmlns:xlink="http://www.w3.org/1999/xlink">
<defs>
<clipPath id="c0_5"><path d="M-.2 1286.6v-75.1h910v75.1Z"/></clipPath>
<style type="text/css"><![CDATA[
.g0_5{
fill: #000;
}
.g1_5{
fill: none;
stroke: #000;
stroke-width: 1.145;
stroke-linecap: round;
stroke-miterlimit: 8;
}
]]></style>
</defs>
<image clip-path="url(#c0_5)" preserveAspectRatio="none" x="-2" y="1212" width="930" height="127" xlink:href="img/1.jpg"/>
<path d="M383.3 114.9h36.6V114H383.3v.9Z" class="g0_5"/>
<path d="M383.3 116.8h36.6v-.9H383.3v.9Z" class="g0_5"/>
<path d="M107.5 377h55v-.9h-55v.9Z" class="g0_5"/>
<path d="M107.5 378.9h55v-1h-55v1Z" class="g0_5"/>
<image preserveAspectRatio="none" x="43" y="212" width="57" height="56" xlink:href="img/2.jpg"/>
<image preserveAspectRatio="none" x="683" y="308" width="137" height="134" xlink:href="img/3.jpg"/>
<image preserveAspectRatio="none" x="43" y="333" width="57" height="56" xlink:href="img/4.jpg"/>
<image preserveAspectRatio="none" x="43" y="496" width="57" height="57" xlink:href="img/5.jpg"/>
<image preserveAspectRatio="none" x="43" y="614" width="57" height="57" xlink:href="img/6.jpg"/>
<image preserveAspectRatio="none" x="43" y="733" width="57" height="57" xlink:href="img/7.jpg"/>
<image preserveAspectRatio="none" x="43" y="851" width="57" height="56" xlink:href="img/8.jpg"/>
<path d="M44.5 1049.7H732V958.1H44.5v91.6Z" class="g1_5"/>
<image preserveAspectRatio="none" x="43" y="1079" width="57" height="56" xlink:href="img/9.jpg"/>
</svg>