<?xml version="1.0" encoding="UTF-8" standalone="no"?>
<!DOCTYPE svg PUBLIC "-//W3C//DTD SVG 1.1//EN"
"http://www.w3.org/Graphics/SVG/1.1/DTD/svg11.dtd">
<svg viewBox="0 0 909 1286" version="1.1" xmlns="http://www.w3.org/2000/svg" xmlns:xlink="http://www.w3.org/1999/xlink">
<defs>
<style type="text/css"><![CDATA[
.g0_2{
fill: #DEEAF6;
}
.g1_2{
fill: #FDF;
}
.g2_2{
fill: #F1F1F1;
}
.g3_2{
fill: #E7E6E6;
}
.g4_2{
fill: #FFF7FF;
}
.g5_2{
fill: #EFF5FB;
}
.g6_2{
fill: #E2EFD9;
}
.g7_2{
fill: #F4F9F1;
}
.g8_2{
fill: #FBE4D5;
}
.g9_2{
fill: #FFFCF3;
}
]]></style>
</defs>
<path fill-rule="evenodd" d="M44 71.5h64V44H44V71.5Z" class="g0_2"/>
<path fill-rule="evenodd" d="M108.7 71.5h75V44h-75V71.5Z" class="g1_2"/>
<path d="M108.7 71.5h75V44h-75V71.5Z" class="g1_2"/>
<path fill-rule="evenodd" d="M184.4 71.5H811.8V44H184.4V71.5Z" class="g1_2"/>
<path d="M184.4 71.5H811.8V44H184.4V71.5Z" class="g1_2"/>
<path fill-rule="evenodd" d="M812.5 71.5h52.8V44H812.5V71.5Z" class="g2_2"/>
<path d="M812.5 71.5h52.8V44H812.5V71.5Z" class="g2_2"/>
<path d="M43.3 44H44v-.7h-.7V44Z" class="g3_2"/>
<path d="M43.3 44H44v-.7h-.7V44Z" class="g3_2"/>
<path d="M44 44h64v-.7H44V44Z" class="g3_2"/>
<path d="M108 44h.7v-.7H108V44Z" class="g3_2"/>
<path d="M108.7 44h75v-.7h-75V44Z" class="g3_2"/>
<path d="M183.7 44h.7v-.7h-.7V44Z" class="g3_2"/>
<path d="M184.4 44H811.8v-.7H184.4V44Z" class="g3_2"/>
<path d="M811.8 44h.7v-.7h-.7V44Z" class="g3_2"/>
<path d="M812.5 44h52.8v-.7H812.5V44Z" class="g3_2"/>
<path d="M865.3 44h.8v-.7h-.8V44Z" class="g3_2"/>
<path d="M865.3 44h.8v-.7h-.8V44Z" class="g3_2"/>
<path d="M43.3 71.5H44V44h-.7V71.5Z" class="g3_2"/>
<path d="M108 71.5h.7V44H108V71.5Z" class="g3_2"/>
<path d="M183.7 71.5h.7V44h-.7V71.5Z" class="g3_2"/>
<path d="M811.8 71.5h.7V44h-.7V71.5Z" class="g3_2"/>
<path d="M865.3 71.5h.8V44h-.8V71.5Z" class="g3_2"/>
<path fill-rule="evenodd" d="M44 99.9h64V71.7H44V99.9Z" class="g0_2"/>
<path fill-rule="evenodd" d="M108.7 99.9h75V72.4h-75V99.9Z" class="g4_2"/>
<path d="M108.7 99.9h75V72.4h-75V99.9Z" class="g4_2"/>
<path fill-rule="evenodd" d="M184.4 99.9H811.8V72.4H184.4V99.9Z" class="g4_2"/>
<path d="M184.4 99.9H811.8V72.4H184.4V99.9Z" class="g4_2"/>
<path fill-rule="evenodd" d="M812.5 99.9h52.8V72.4H812.5V99.9Z" class="g2_2"/>
<path d="M812.5 99.9h52.8V72.4H812.5V99.9Z" class="g2_2"/>
<path d="M43.3 72.2H44v-.7h-.7v.7Z" class="g3_2"/>
<path d="M108 72.2h.7v-.7H108v.7Z" class="g3_2"/>
<path d="M108.7 72.2h75v-.7h-75v.7Z" class="g3_2"/>
<path d="M183.7 72.2h.7v-.7h-.7v.7Z" class="g3_2"/>
<path d="M184.4 72.2H811.8v-.7H184.4v.7Z" class="g3_2"/>
<path d="M811.8 72.2h.7v-.7h-.7v.7Z" class="g3_2"/>
<path d="M812.5 72.2h52.8v-.7H812.5v.7Z" class="g3_2"/>
<path d="M865.3 72.2h.8v-.7h-.8v.7Z" class="g3_2"/>
<path d="M43.3 99.9H44V72.2h-.7V99.9Z" class="g3_2"/>
<path d="M108 99.9h.7V72.2H108V99.9Z" class="g3_2"/>
<path d="M183.7 99.9h.7V72.2h-.7V99.9Z" class="g3_2"/>
<path d="M811.8 99.9h.7V72.2h-.7V99.9Z" class="g3_2"/>
<path d="M865.3 99.9h.8V72.2h-.8V99.9Z" class="g3_2"/>
<path fill-rule="evenodd" d="M44 128.2h64V99.9H44v28.3Z" class="g0_2"/>
<path fill-rule="evenodd" d="M108.7 128.2h75V100.7h-75v27.5Z" class="g1_2"/>
<path d="M108.7 128.2h75V100.7h-75v27.5Z" class="g1_2"/>
<path fill-rule="evenodd" d="M184.4 128.2H811.8V100.7H184.4v27.5Z" class="g1_2"/>
<path d="M184.4 128.2H811.8V100.7H184.4v27.5Z" class="g1_2"/>
<path fill-rule="evenodd" d="M812.5 128.2h52.8V100.7H812.5v27.5Z" class="g2_2"/>
<path d="M812.5 128.2h52.8V100.7H812.5v27.5Z" class="g2_2"/>
<path d="M43.3 100.7H44v-.8h-.7v.8Z" class="g3_2"/>
<path d="M108 100.7h.7v-.8H108v.8Z" class="g3_2"/>
<path d="M108.7 100.7h75v-.8h-75v.8Z" class="g3_2"/>
<path d="M183.7 100.7h.7v-.8h-.7v.8Z" class="g3_2"/>
<path d="M184.4 100.7H811.8v-.8H184.4v.8Z" class="g3_2"/>
<path d="M811.8 100.7h.7v-.8h-.7v.8Z" class="g3_2"/>
<path d="M812.5 100.7h52.8v-.8H812.5v.8Z" class="g3_2"/>
<path d="M865.3 100.7h.8v-.8h-.8v.8Z" class="g3_2"/>
<path d="M43.3 128.2H44V100.7h-.7v27.5Z" class="g3_2"/>
<path d="M108 128.2h.7V100.7H108v27.5Z" class="g3_2"/>
<path d="M183.7 128.2h.7V100.7h-.7v27.5Z" class="g3_2"/>
<path d="M811.8 128.2h.7V100.7h-.7v27.5Z" class="g3_2"/>
<path d="M865.3 128.2h.8V100.7h-.8v27.5Z" class="g3_2"/>
<path fill-rule="evenodd" d="M44 156.4h64V128.2H44v28.2Z" class="g0_2"/>
<path fill-rule="evenodd" d="M108.7 156.4h75V128.9h-75v27.5Z" class="g4_2"/>
<path d="M108.7 156.4h75V128.9h-75v27.5Z" class="g4_2"/>
<path fill-rule="evenodd" d="M184.4 156.4H811.8V128.9H184.4v27.5Z" class="g4_2"/>
<path d="M184.4 156.4H811.8V128.9H184.4v27.5Z" class="g4_2"/>
<path fill-rule="evenodd" d="M812.5 156.4h52.8V128.9H812.5v27.5Z" class="g2_2"/>
<path d="M812.5 156.4h52.8V128.9H812.5v27.5Z" class="g2_2"/>
<path d="M43.3 128.9H44v-.8h-.7v.8Z" class="g3_2"/>
<path d="M108 128.9h.7v-.8H108v.8Z" class="g3_2"/>
<path d="M108.7 128.9h75v-.8h-75v.8Z" class="g3_2"/>
<path d="M183.7 128.9h.7v-.8h-.7v.8Z" class="g3_2"/>
<path d="M184.4 128.9H811.8v-.8H184.4v.8Z" class="g3_2"/>
<path d="M811.8 128.9h.7v-.8h-.7v.8Z" class="g3_2"/>
<path d="M812.5 128.9h52.8v-.8H812.5v.8Z" class="g3_2"/>
<path d="M865.3 128.9h.8v-.8h-.8v.8Z" class="g3_2"/>
<path d="M43.3 156.4H44V128.9h-.7v27.5Z" class="g3_2"/>
<path d="M108 156.4h.7V128.9H108v27.5Z" class="g3_2"/>
<path d="M183.7 156.4h.7V128.9h-.7v27.5Z" class="g3_2"/>
<path d="M811.8 156.4h.7V128.9h-.7v27.5Z" class="g3_2"/>
<path d="M865.3 156.4h.8V128.9h-.8v27.5Z" class="g3_2"/>
<path fill-rule="evenodd" d="M44 184.6h64V156.4H44v28.2Z" class="g0_2"/>
<path fill-rule="evenodd" d="M108.7 184.6h75V157.1h-75v27.5Z" class="g4_2"/>
<path d="M108.7 184.6h75V157.1h-75v27.5Z" class="g4_2"/>
<path fill-rule="evenodd" d="M184.4 184.6H811.8V157.1H184.4v27.5Z" class="g4_2"/>
<path d="M184.4 184.6H811.8V157.1H184.4v27.5Z" class="g4_2"/>
<path fill-rule="evenodd" d="M812.5 184.6h52.8V157.1H812.5v27.5Z" class="g2_2"/>
<path d="M812.5 184.6h52.8V157.1H812.5v27.5Z" class="g2_2"/>
<path d="M43.3 157.1H44v-.7h-.7v.7Z" class="g3_2"/>
<path d="M108 157.1h.7v-.7H108v.7Z" class="g3_2"/>
<path d="M108.7 157.1h75v-.7h-75v.7Z" class="g3_2"/>
<path d="M183.7 157.1h.7v-.7h-.7v.7Z" class="g3_2"/>
<path d="M184.4 157.1H811.8v-.7H184.4v.7Z" class="g3_2"/>
<path d="M811.8 157.1h.7v-.7h-.7v.7Z" class="g3_2"/>
<path d="M812.5 157.1h52.8v-.7H812.5v.7Z" class="g3_2"/>
<path d="M865.3 157.1h.8v-.7h-.8v.7Z" class="g3_2"/>
<path d="M43.3 184.6H44V157.1h-.7v27.5Z" class="g3_2"/>
<path d="M108 184.6h.7V157.1H108v27.5Z" class="g3_2"/>
<path d="M183.7 184.6h.7V157.1h-.7v27.5Z" class="g3_2"/>
<path d="M811.8 184.6h.7V157.1h-.7v27.5Z" class="g3_2"/>
<path d="M865.3 184.6h.8V157.1h-.8v27.5Z" class="g3_2"/>
<path fill-rule="evenodd" d="M44 212.9h64V184.6H44v28.3Z" class="g0_2"/>
<path fill-rule="evenodd" d="M108.7 212.9h75V185.4h-75v27.5Z" class="g4_2"/>
<path d="M108.7 212.9h75V185.4h-75v27.5Z" class="g4_2"/>
<path fill-rule="evenodd" d="M184.4 212.9H811.8V185.4H184.4v27.5Z" class="g4_2"/>
<path d="M184.4 212.9H811.8V185.4H184.4v27.5Z" class="g4_2"/>
<path fill-rule="evenodd" d="M812.5 212.9h52.8V185.4H812.5v27.5Z" class="g2_2"/>
<path d="M812.5 212.9h52.8V185.4H812.5v27.5Z" class="g2_2"/>
<path d="M43.3 185.4H44v-.8h-.7v.8Z" class="g3_2"/>
<path d="M108 185.4h.7v-.8H108v.8Z" class="g3_2"/>
<path d="M108.7 185.4h75v-.8h-75v.8Z" class="g3_2"/>
<path d="M183.7 185.4h.7v-.8h-.7v.8Z" class="g3_2"/>
<path d="M184.4 185.4H811.8v-.8H184.4v.8Z" class="g3_2"/>
<path d="M811.8 185.4h.7v-.8h-.7v.8Z" class="g3_2"/>
<path d="M812.5 185.4h52.8v-.8H812.5v.8Z" class="g3_2"/>
<path d="M865.3 185.4h.8v-.8h-.8v.8Z" class="g3_2"/>
<path d="M43.3 212.9H44V185.4h-.7v27.5Z" class="g3_2"/>
<path d="M108 212.9h.7V185.4H108v27.5Z" class="g3_2"/>
<path d="M183.7 212.9h.7V185.4h-.7v27.5Z" class="g3_2"/>
<path d="M811.8 212.9h.7V185.4h-.7v27.5Z" class="g3_2"/>
<path d="M865.3 212.9h.8V185.4h-.8v27.5Z" class="g3_2"/>
<path fill-rule="evenodd" d="M44 665.1h64V213.6H44V665.1Z" class="g5_2"/>
<path d="M44 453.2h64V425.7H44v27.5Z" class="g5_2"/>
<path fill-rule="evenodd" d="M108.7 241.1h75V213.6h-75v27.5Z" class="g6_2"/>
<path d="M108.7 241.1h75V213.6h-75v27.5Z" class="g6_2"/>
<path fill-rule="evenodd" d="M184.4 241.1H811.8V213.6H184.4v27.5Z" class="g6_2"/>
<path d="M184.4 241.1H811.8V213.6H184.4v27.5Z" class="g6_2"/>
<path fill-rule="evenodd" d="M812.5 241.1h52.8V213.6H812.5v27.5Z" class="g2_2"/>
<path d="M812.5 241.1h52.8V213.6H812.5v27.5Z" class="g2_2"/>
<path d="M43.3 213.6H44v-.8h-.7v.8Z" class="g3_2"/>
<path d="M44 213.6h64v-.8H44v.8Z" class="g3_2"/>
<path d="M108 213.6h.7v-.8H108v.8Z" class="g3_2"/>
<path d="M108.7 213.6h75v-.8h-75v.8Z" class="g3_2"/>
<path d="M183.7 213.6h.7v-.8h-.7v.8Z" class="g3_2"/>
<path d="M184.4 213.6H811.8v-.8H184.4v.8Z" class="g3_2"/>
<path d="M811.8 213.6h.7v-.8h-.7v.8Z" class="g3_2"/>
<path d="M812.5 213.6h52.8v-.8H812.5v.8Z" class="g3_2"/>
<path d="M865.3 213.6h.8v-.8h-.8v.8Z" class="g3_2"/>
<path d="M43.3 241.1H44V213.6h-.7v27.5Z" class="g3_2"/>
<path d="M108 241.1h.7V213.6H108v27.5Z" class="g3_2"/>
<path d="M183.7 241.1h.7V213.6h-.7v27.5Z" class="g3_2"/>
<path d="M811.8 241.1h.7V213.6h-.7v27.5Z" class="g3_2"/>
<path d="M865.3 241.1h.8V213.6h-.8v27.5Z" class="g3_2"/>
<path fill-rule="evenodd" d="M108.7 269.5h75V242h-75v27.5Z" class="g7_2"/>
<path d="M108.7 269.5h75V242h-75v27.5Z" class="g7_2"/>
<path fill-rule="evenodd" d="M184.4 269.5H811.8V242H184.4v27.5Z" class="g7_2"/>
<path d="M184.4 269.5H811.8V242H184.4v27.5Z" class="g7_2"/>
<path fill-rule="evenodd" d="M812.5 269.5h52.8V242H812.5v27.5Z" class="g2_2"/>
<path d="M812.5 269.5h52.8V242H812.5v27.5Z" class="g2_2"/>
<path d="M43.3 241.8H44v-.7h-.7v.7Z" class="g3_2"/>
<path d="M108 241.8h.7v-.7H108v.7Z" class="g3_2"/>
<path d="M108.7 241.8h75v-.7h-75v.7Z" class="g3_2"/>
<path d="M183.7 241.8h.7v-.7h-.7v.7Z" class="g3_2"/>
<path d="M184.4 241.8H811.8v-.7H184.4v.7Z" class="g3_2"/>
<path d="M811.8 241.8h.7v-.7h-.7v.7Z" class="g3_2"/>
<path d="M812.5 241.8h52.8v-.7H812.5v.7Z" class="g3_2"/>
<path d="M865.3 241.8h.8v-.7h-.8v.7Z" class="g3_2"/>
<path d="M43.3 269.5H44V241.8h-.7v27.7Z" class="g3_2"/>
<path d="M108 269.5h.7V241.8H108v27.7Z" class="g3_2"/>
<path d="M183.7 269.5h.7V241.8h-.7v27.7Z" class="g3_2"/>
<path d="M811.8 269.5h.7V241.8h-.7v27.7Z" class="g3_2"/>
<path d="M865.3 269.5h.8V241.8h-.8v27.7Z" class="g3_2"/>
<path fill-rule="evenodd" d="M108.7 297.7h75V270.2h-75v27.5Z" class="g7_2"/>
<path d="M108.7 297.7h75V270.2h-75v27.5Z" class="g7_2"/>
<path fill-rule="evenodd" d="M184.4 297.7H811.8V270.2H184.4v27.5Z" class="g7_2"/>
<path d="M184.4 297.7H811.8V270.2H184.4v27.5Z" class="g7_2"/>
<path fill-rule="evenodd" d="M812.5 297.7h52.8V270.2H812.5v27.5Z" class="g2_2"/>
<path d="M812.5 297.7h52.8V270.2H812.5v27.5Z" class="g2_2"/>
<path d="M43.3 270.2H44v-.7h-.7v.7Z" class="g3_2"/>
<path d="M108 270.2h.7v-.7H108v.7Z" class="g3_2"/>
<path d="M108.7 270.2h75v-.7h-75v.7Z" class="g3_2"/>
<path d="M183.7 270.2h.7v-.7h-.7v.7Z" class="g3_2"/>
<path d="M184.4 270.2H811.8v-.7H184.4v.7Z" class="g3_2"/>
<path d="M811.8 270.2h.7v-.7h-.7v.7Z" class="g3_2"/>
<path d="M812.5 270.2h52.8v-.7H812.5v.7Z" class="g3_2"/>
<path d="M865.3 270.2h.8v-.7h-.8v.7Z" class="g3_2"/>
<path d="M43.3 297.7H44V270.2h-.7v27.5Z" class="g3_2"/>
<path d="M108 297.7h.7V270.2H108v27.5Z" class="g3_2"/>
<path d="M183.7 297.7h.7V270.2h-.7v27.5Z" class="g3_2"/>
<path d="M811.8 297.7h.7V270.2h-.7v27.5Z" class="g3_2"/>
<path d="M865.3 297.7h.8V270.2h-.8v27.5Z" class="g3_2"/>
<path fill-rule="evenodd" d="M108.7 326h75V298.5h-75V326Z" class="g7_2"/>
<path d="M108.7 326h75V298.5h-75V326Z" class="g7_2"/>
<path fill-rule="evenodd" d="M184.4 326H811.8V298.5H184.4V326Z" class="g7_2"/>
<path d="M184.4 326H811.8V298.5H184.4V326Z" class="g7_2"/>
<path fill-rule="evenodd" d="M812.5 326h52.8V298.5H812.5V326Z" class="g2_2"/>
<path d="M812.5 326h52.8V298.5H812.5V326Z" class="g2_2"/>
<path d="M43.3 298.5H44v-.8h-.7v.8Z" class="g3_2"/>
<path d="M108 298.5h.7v-.8H108v.8Z" class="g3_2"/>
<path d="M108.7 298.5h75v-.8h-75v.8Z" class="g3_2"/>
<path d="M183.7 298.5h.7v-.8h-.7v.8Z" class="g3_2"/>
<path d="M184.4 298.5H811.8v-.8H184.4v.8Z" class="g3_2"/>
<path d="M811.8 298.5h.7v-.8h-.7v.8Z" class="g3_2"/>
<path d="M812.5 298.5h52.8v-.8H812.5v.8Z" class="g3_2"/>
<path d="M865.3 298.5h.8v-.8h-.8v.8Z" class="g3_2"/>
<path d="M43.3 326H44V298.5h-.7V326Z" class="g3_2"/>
<path d="M108 326h.7V298.5H108V326Z" class="g3_2"/>
<path d="M183.7 326h.7V298.5h-.7V326Z" class="g3_2"/>
<path d="M811.8 326h.7V298.5h-.7V326Z" class="g3_2"/>
<path d="M865.3 326h.8V298.5h-.8V326Z" class="g3_2"/>
<path fill-rule="evenodd" d="M108.7 354.2h75V326.7h-75v27.5Z" class="g7_2"/>
<path d="M108.7 354.2h75V326.7h-75v27.5Z" class="g7_2"/>
<path fill-rule="evenodd" d="M184.4 354.2H811.8V326.7H184.4v27.5Z" class="g7_2"/>
<path d="M184.4 354.2H811.8V326.7H184.4v27.5Z" class="g7_2"/>
<path fill-rule="evenodd" d="M812.5 354.2h52.8V326.7H812.5v27.5Z" class="g2_2"/>
<path d="M812.5 354.2h52.8V326.7H812.5v27.5Z" class="g2_2"/>
<path d="M43.3 326.7H44V326h-.7v.7Z" class="g3_2"/>
<path d="M108 326.7h.7V326H108v.7Z" class="g3_2"/>
<path d="M108.7 326.7h75V326h-75v.7Z" class="g3_2"/>
<path d="M183.7 326.7h.7V326h-.7v.7Z" class="g3_2"/>
<path d="M184.4 326.7H811.8V326H184.4v.7Z" class="g3_2"/>
<path d="M811.8 326.7h.7V326h-.7v.7Z" class="g3_2"/>
<path d="M812.5 326.7h52.8V326H812.5v.7Z" class="g3_2"/>
<path d="M865.3 326.7h.8V326h-.8v.7Z" class="g3_2"/>
<path d="M43.3 354.2H44V326.7h-.7v27.5Z" class="g3_2"/>
<path d="M108 354.2h.7V326.7H108v27.5Z" class="g3_2"/>
<path d="M183.7 354.2h.7V326.7h-.7v27.5Z" class="g3_2"/>
<path d="M811.8 354.2h.7V326.7h-.7v27.5Z" class="g3_2"/>
<path d="M865.3 354.2h.8V326.7h-.8v27.5Z" class="g3_2"/>
<path fill-rule="evenodd" d="M108.7 382.4h75V354.9h-75v27.5Z" class="g6_2"/>
<path d="M108.7 382.4h75V354.9h-75v27.5Z" class="g6_2"/>
<path fill-rule="evenodd" d="M184.4 382.4H811.8V354.9H184.4v27.5Z" class="g6_2"/>
<path d="M184.4 382.4H811.8V354.9H184.4v27.5Z" class="g6_2"/>
<path fill-rule="evenodd" d="M812.5 382.4h52.8V354.9H812.5v27.5Z" class="g2_2"/>
<path d="M812.5 382.4h52.8V354.9H812.5v27.5Z" class="g2_2"/>
<path d="M43.3 354.9H44v-.7h-.7v.7Z" class="g3_2"/>
<path d="M108 354.9h.7v-.7H108v.7Z" class="g3_2"/>
<path d="M108.7 354.9h75v-.7h-75v.7Z" class="g3_2"/>
<path d="M183.7 354.9h.7v-.7h-.7v.7Z" class="g3_2"/>
<path d="M184.4 354.9H811.8v-.7H184.4v.7Z" class="g3_2"/>
<path d="M811.8 354.9h.7v-.7h-.7v.7Z" class="g3_2"/>
<path d="M812.5 354.9h52.8v-.7H812.5v.7Z" class="g3_2"/>
<path d="M865.3 354.9h.8v-.7h-.8v.7Z" class="g3_2"/>
<path d="M43.3 382.4H44V354.9h-.7v27.5Z" class="g3_2"/>
<path d="M108 382.4h.7V354.9H108v27.5Z" class="g3_2"/>
<path d="M183.7 382.4h.7V354.9h-.7v27.5Z" class="g3_2"/>
<path d="M811.8 382.4h.7V354.9h-.7v27.5Z" class="g3_2"/>
<path d="M865.3 382.4h.8V354.9h-.8v27.5Z" class="g3_2"/>
<path fill-rule="evenodd" d="M108.7 410.7h75V383.2h-75v27.5Z" class="g7_2"/>
<path d="M108.7 410.7h75V383.2h-75v27.5Z" class="g7_2"/>
<path fill-rule="evenodd" d="M184.4 410.7H811.8V383.2H184.4v27.5Z" class="g7_2"/>
<path d="M184.4 410.7H811.8V383.2H184.4v27.5Z" class="g7_2"/>
<path fill-rule="evenodd" d="M812.5 410.7h52.8V383.2H812.5v27.5Z" class="g2_2"/>
<path d="M812.5 410.7h52.8V383.2H812.5v27.5Z" class="g2_2"/>
<path d="M43.3 383.2H44v-.8h-.7v.8Z" class="g3_2"/>
<path d="M108 383.2h.7v-.8H108v.8Z" class="g3_2"/>
<path d="M108.7 383.2h75v-.8h-75v.8Z" class="g3_2"/>
<path d="M183.7 383.2h.7v-.8h-.7v.8Z" class="g3_2"/>
<path d="M184.4 383.2H811.8v-.8H184.4v.8Z" class="g3_2"/>
<path d="M811.8 383.2h.7v-.8h-.7v.8Z" class="g3_2"/>
<path d="M812.5 383.2h52.8v-.8H812.5v.8Z" class="g3_2"/>
<path d="M865.3 383.2h.8v-.8h-.8v.8Z" class="g3_2"/>
<path d="M43.3 410.7H44V383.2h-.7v27.5Z" class="g3_2"/>
<path d="M108 410.7h.7V383.2H108v27.5Z" class="g3_2"/>
<path d="M183.7 410.7h.7V383.2h-.7v27.5Z" class="g3_2"/>
<path d="M811.8 410.7h.7V383.2h-.7v27.5Z" class="g3_2"/>
<path d="M865.3 410.7h.8V383.2h-.8v27.5Z" class="g3_2"/>
<path fill-rule="evenodd" d="M108.7 439.1h75V411.6h-75v27.5Z" class="g7_2"/>
<path d="M108.7 439.1h75V411.6h-75v27.5Z" class="g7_2"/>
<path fill-rule="evenodd" d="M184.4 439.1H811.8V411.6H184.4v27.5Z" class="g7_2"/>
<path d="M184.4 439.1H811.8V411.6H184.4v27.5Z" class="g7_2"/>
<path fill-rule="evenodd" d="M812.5 439.1h52.8V411.6H812.5v27.5Z" class="g2_2"/>
<path d="M812.5 439.1h52.8V411.6H812.5v27.5Z" class="g2_2"/>
<path d="M43.3 411.4H44v-.7h-.7v.7Z" class="g3_2"/>
<path d="M108 411.4h.7v-.7H108v.7Z" class="g3_2"/>
<path d="M108.7 411.4h75v-.7h-75v.7Z" class="g3_2"/>
<path d="M183.7 411.4h.7v-.7h-.7v.7Z" class="g3_2"/>
<path d="M184.4 411.4H811.8v-.7H184.4v.7Z" class="g3_2"/>
<path d="M811.8 411.4h.7v-.7h-.7v.7Z" class="g3_2"/>
<path d="M812.5 411.4h52.8v-.7H812.5v.7Z" class="g3_2"/>
<path d="M865.3 411.4h.8v-.7h-.8v.7Z" class="g3_2"/>
<path d="M43.3 439.1H44V411.4h-.7v27.7Z" class="g3_2"/>
<path d="M108 439.1h.7V411.4H108v27.7Z" class="g3_2"/>
<path d="M183.7 439.1h.7V411.4h-.7v27.7Z" class="g3_2"/>
<path d="M811.8 439.1h.7V411.4h-.7v27.7Z" class="g3_2"/>
<path d="M865.3 439.1h.8V411.4h-.8v27.7Z" class="g3_2"/>
<path fill-rule="evenodd" d="M108.7 467.3h75V439.8h-75v27.5Z" class="g6_2"/>
<path d="M108.7 467.3h75V439.8h-75v27.5Z" class="g6_2"/>
<path fill-rule="evenodd" d="M184.4 467.3H811.8V439.8H184.4v27.5Z" class="g6_2"/>
<path d="M184.4 467.3H811.8V439.8H184.4v27.5Z" class="g6_2"/>
<path fill-rule="evenodd" d="M812.5 467.3h52.8V439.8H812.5v27.5Z" class="g2_2"/>
<path d="M812.5 467.3h52.8V439.8H812.5v27.5Z" class="g2_2"/>
<path d="M43.3 439.8H44v-.7h-.7v.7Z" class="g3_2"/>
<path d="M108 439.8h.7v-.7H108v.7Z" class="g3_2"/>
<path d="M108.7 439.8h75v-.7h-75v.7Z" class="g3_2"/>
<path d="M183.7 439.8h.7v-.7h-.7v.7Z" class="g3_2"/>
<path d="M184.4 439.8H811.8v-.7H184.4v.7Z" class="g3_2"/>
<path d="M811.8 439.8h.7v-.7h-.7v.7Z" class="g3_2"/>
<path d="M812.5 439.8h52.8v-.7H812.5v.7Z" class="g3_2"/>
<path d="M865.3 439.8h.8v-.7h-.8v.7Z" class="g3_2"/>
<path d="M43.3 467.3H44V439.8h-.7v27.5Z" class="g3_2"/>
<path d="M108 467.3h.7V439.8H108v27.5Z" class="g3_2"/>
<path d="M183.7 467.3h.7V439.8h-.7v27.5Z" class="g3_2"/>
<path d="M811.8 467.3h.7V439.8h-.7v27.5Z" class="g3_2"/>
<path d="M865.3 467.3h.8V439.8h-.8v27.5Z" class="g3_2"/>
<path fill-rule="evenodd" d="M108.7 495.5h75V468h-75v27.5Z" class="g7_2"/>
<path d="M108.7 495.5h75V468h-75v27.5Z" class="g7_2"/>
<path fill-rule="evenodd" d="M184.4 495.5H811.8V468H184.4v27.5Z" class="g7_2"/>
<path d="M184.4 495.5H811.8V468H184.4v27.5Z" class="g7_2"/>
<path fill-rule="evenodd" d="M812.5 495.5h52.8V468H812.5v27.5Z" class="g2_2"/>
<path d="M812.5 495.5h52.8V468H812.5v27.5Z" class="g2_2"/>
<path d="M43.3 468H44v-.7h-.7v.7Z" class="g3_2"/>
<path d="M108 468h.7v-.7H108v.7Z" class="g3_2"/>
<path d="M108.7 468h75v-.7h-75v.7Z" class="g3_2"/>
<path d="M183.7 468h.7v-.7h-.7v.7Z" class="g3_2"/>
<path d="M184.4 468H811.8v-.7H184.4v.7Z" class="g3_2"/>
<path d="M811.8 468h.7v-.7h-.7v.7Z" class="g3_2"/>
<path d="M812.5 468h52.8v-.7H812.5v.7Z" class="g3_2"/>
<path d="M865.3 468h.8v-.7h-.8v.7Z" class="g3_2"/>
<path d="M43.3 495.5H44V468h-.7v27.5Z" class="g3_2"/>
<path d="M108 495.5h.7V468H108v27.5Z" class="g3_2"/>
<path d="M183.7 495.5h.7V468h-.7v27.5Z" class="g3_2"/>
<path d="M811.8 495.5h.7V468h-.7v27.5Z" class="g3_2"/>
<path d="M865.3 495.5h.8V468h-.8v27.5Z" class="g3_2"/>
<path fill-rule="evenodd" d="M108.7 523.8h75V496.3h-75v27.5Z" class="g7_2"/>
<path d="M108.7 523.8h75V496.3h-75v27.5Z" class="g7_2"/>
<path fill-rule="evenodd" d="M184.4 523.8H811.8V496.3H184.4v27.5Z" class="g7_2"/>
<path d="M184.4 523.8H811.8V496.3H184.4v27.5Z" class="g7_2"/>
<path fill-rule="evenodd" d="M812.5 523.8h52.8V496.3H812.5v27.5Z" class="g2_2"/>
<path d="M812.5 523.8h52.8V496.3H812.5v27.5Z" class="g2_2"/>
<path d="M43.3 496.3H44v-.8h-.7v.8Z" class="g3_2"/>
<path d="M108 496.3h.7v-.8H108v.8Z" class="g3_2"/>
<path d="M108.7 496.3h75v-.8h-75v.8Z" class="g3_2"/>
<path d="M183.7 496.3h.7v-.8h-.7v.8Z" class="g3_2"/>
<path d="M184.4 496.3H811.8v-.8H184.4v.8Z" class="g3_2"/>
<path d="M811.8 496.3h.7v-.8h-.7v.8Z" class="g3_2"/>
<path d="M812.5 496.3h52.8v-.8H812.5v.8Z" class="g3_2"/>
<path d="M865.3 496.3h.8v-.8h-.8v.8Z" class="g3_2"/>
<path d="M43.3 523.8H44V496.3h-.7v27.5Z" class="g3_2"/>
<path d="M108 523.8h.7V496.3H108v27.5Z" class="g3_2"/>
<path d="M183.7 523.8h.7V496.3h-.7v27.5Z" class="g3_2"/>
<path d="M811.8 523.8h.7V496.3h-.7v27.5Z" class="g3_2"/>
<path d="M865.3 523.8h.8V496.3h-.8v27.5Z" class="g3_2"/>
<path fill-rule="evenodd" d="M108.7 552h75V524.5h-75V552Z" class="g7_2"/>
<path d="M108.7 552h75V524.5h-75V552Z" class="g7_2"/>
<path fill-rule="evenodd" d="M184.4 552H811.8V524.5H184.4V552Z" class="g7_2"/>
<path d="M184.4 552H811.8V524.5H184.4V552Z" class="g7_2"/>
<path fill-rule="evenodd" d="M812.5 552h52.8V524.5H812.5V552Z" class="g2_2"/>
<path d="M812.5 552h52.8V524.5H812.5V552Z" class="g2_2"/>
<path d="M43.3 524.5H44v-.7h-.7v.7Z" class="g3_2"/>
<path d="M108 524.5h.7v-.7H108v.7Z" class="g3_2"/>
<path d="M108.7 524.5h75v-.7h-75v.7Z" class="g3_2"/>
<path d="M183.7 524.5h.7v-.7h-.7v.7Z" class="g3_2"/>
<path d="M184.4 524.5H811.8v-.7H184.4v.7Z" class="g3_2"/>
<path d="M811.8 524.5h.7v-.7h-.7v.7Z" class="g3_2"/>
<path d="M812.5 524.5h52.8v-.7H812.5v.7Z" class="g3_2"/>
<path d="M865.3 524.5h.8v-.7h-.8v.7Z" class="g3_2"/>
<path d="M43.3 552H44V524.5h-.7V552Z" class="g3_2"/>
<path d="M108 552h.7V524.5H108V552Z" class="g3_2"/>
<path d="M183.7 552h.7V524.5h-.7V552Z" class="g3_2"/>
<path d="M811.8 552h.7V524.5h-.7V552Z" class="g3_2"/>
<path d="M865.3 552h.8V524.5h-.8V552Z" class="g3_2"/>
<path fill-rule="evenodd" d="M108.7 580.2h75V552.7h-75v27.5Z" class="g6_2"/>
<path d="M108.7 580.2h75V552.7h-75v27.5Z" class="g6_2"/>
<path fill-rule="evenodd" d="M184.4 580.2H811.8V552.7H184.4v27.5Z" class="g6_2"/>
<path d="M184.4 580.2H811.8V552.7H184.4v27.5Z" class="g6_2"/>
<path fill-rule="evenodd" d="M812.5 580.2h52.8V552.7H812.5v27.5Z" class="g2_2"/>
<path d="M812.5 580.2h52.8V552.7H812.5v27.5Z" class="g2_2"/>
<path d="M43.3 552.7H44V552h-.7v.7Z" class="g3_2"/>
<path d="M108 552.7h.7V552H108v.7Z" class="g3_2"/>
<path d="M108.7 552.7h75V552h-75v.7Z" class="g3_2"/>
<path d="M183.7 552.7h.7V552h-.7v.7Z" class="g3_2"/>
<path d="M184.4 552.7H811.8V552H184.4v.7Z" class="g3_2"/>
<path d="M811.8 552.7h.7V552h-.7v.7Z" class="g3_2"/>
<path d="M812.5 552.7h52.8V552H812.5v.7Z" class="g3_2"/>
<path d="M865.3 552.7h.8V552h-.8v.7Z" class="g3_2"/>
<path d="M43.3 580.2H44V552.7h-.7v27.5Z" class="g3_2"/>
<path d="M108 580.2h.7V552.7H108v27.5Z" class="g3_2"/>
<path d="M183.7 580.2h.7V552.7h-.7v27.5Z" class="g3_2"/>
<path d="M811.8 580.2h.7V552.7h-.7v27.5Z" class="g3_2"/>
<path d="M865.3 580.2h.8V552.7h-.8v27.5Z" class="g3_2"/>
<path fill-rule="evenodd" d="M108.7 608.7h75V581.2h-75v27.5Z" class="g7_2"/>
<path d="M108.7 608.7h75V581.2h-75v27.5Z" class="g7_2"/>
<path fill-rule="evenodd" d="M184.4 608.7H811.8V581.2H184.4v27.5Z" class="g7_2"/>
<path d="M184.4 608.7H811.8V581.2H184.4v27.5Z" class="g7_2"/>
<path fill-rule="evenodd" d="M812.5 608.7h52.8V581.2H812.5v27.5Z" class="g2_2"/>
<path d="M812.5 608.7h52.8V581.2H812.5v27.5Z" class="g2_2"/>
<path d="M43.3 581H44v-.8h-.7v.8Z" class="g3_2"/>
<path d="M108 581h.7v-.8H108v.8Z" class="g3_2"/>
<path d="M108.7 581h75v-.8h-75v.8Z" class="g3_2"/>
<path d="M183.7 581h.7v-.8h-.7v.8Z" class="g3_2"/>
<path d="M184.4 581H811.8v-.8H184.4v.8Z" class="g3_2"/>
<path d="M811.8 581h.7v-.8h-.7v.8Z" class="g3_2"/>
<path d="M812.5 581h52.8v-.8H812.5v.8Z" class="g3_2"/>
<path d="M865.3 581h.8v-.8h-.8v.8Z" class="g3_2"/>
<path d="M43.3 608.7H44V581h-.7v27.7Z" class="g3_2"/>
<path d="M108 608.7h.7V581H108v27.7Z" class="g3_2"/>
<path d="M183.7 608.7h.7V581h-.7v27.7Z" class="g3_2"/>
<path d="M811.8 608.7h.7V581h-.7v27.7Z" class="g3_2"/>
<path d="M865.3 608.7h.8V581h-.8v27.7Z" class="g3_2"/>
<path fill-rule="evenodd" d="M108.7 636.9h75V609.4h-75v27.5Z" class="g7_2"/>
<path d="M108.7 636.9h75V609.4h-75v27.5Z" class="g7_2"/>
<path fill-rule="evenodd" d="M184.4 636.9H811.8V609.4H184.4v27.5Z" class="g7_2"/>
<path d="M184.4 636.9H811.8V609.4H184.4v27.5Z" class="g7_2"/>
<path fill-rule="evenodd" d="M812.5 636.9h52.8V609.4H812.5v27.5Z" class="g2_2"/>
<path d="M812.5 636.9h52.8V609.4H812.5v27.5Z" class="g2_2"/>
<path d="M43.3 609.4H44v-.7h-.7v.7Z" class="g3_2"/>
<path d="M108 609.4h.7v-.7H108v.7Z" class="g3_2"/>
<path d="M108.7 609.4h75v-.7h-75v.7Z" class="g3_2"/>
<path d="M183.7 609.4h.7v-.7h-.7v.7Z" class="g3_2"/>
<path d="M184.4 609.4H811.8v-.7H184.4v.7Z" class="g3_2"/>
<path d="M811.8 609.4h.7v-.7h-.7v.7Z" class="g3_2"/>
<path d="M812.5 609.4h52.8v-.7H812.5v.7Z" class="g3_2"/>
<path d="M865.3 609.4h.8v-.7h-.8v.7Z" class="g3_2"/>
<path d="M43.3 636.9H44V609.4h-.7v27.5Z" class="g3_2"/>
<path d="M108 636.9h.7V609.4H108v27.5Z" class="g3_2"/>
<path d="M183.7 636.9h.7V609.4h-.7v27.5Z" class="g3_2"/>
<path d="M811.8 636.9h.7V609.4h-.7v27.5Z" class="g3_2"/>
<path d="M865.3 636.9h.8V609.4h-.8v27.5Z" class="g3_2"/>
<path fill-rule="evenodd" d="M108.7 665.1h75V637.6h-75v27.5Z" class="g7_2"/>
<path d="M108.7 665.1h75V637.6h-75v27.5Z" class="g7_2"/>
<path fill-rule="evenodd" d="M184.4 665.1H811.8V637.6H184.4v27.5Z" class="g7_2"/>
<path d="M184.4 665.1H811.8V637.6H184.4v27.5Z" class="g7_2"/>
<path fill-rule="evenodd" d="M812.5 665.1h52.8V637.6H812.5v27.5Z" class="g2_2"/>
<path d="M812.5 665.1h52.8V637.6H812.5v27.5Z" class="g2_2"/>
<path d="M43.3 637.6H44v-.7h-.7v.7Z" class="g3_2"/>
<path d="M108 637.6h.7v-.7H108v.7Z" class="g3_2"/>
<path d="M108.7 637.6h75v-.7h-75v.7Z" class="g3_2"/>
<path d="M183.7 637.6h.7v-.7h-.7v.7Z" class="g3_2"/>
<path d="M184.4 637.6H811.8v-.7H184.4v.7Z" class="g3_2"/>
<path d="M811.8 637.6h.7v-.7h-.7v.7Z" class="g3_2"/>
<path d="M812.5 637.6h52.8v-.7H812.5v.7Z" class="g3_2"/>
<path d="M865.3 637.6h.8v-.7h-.8v.7Z" class="g3_2"/>
<path d="M43.3 665.1H44V637.6h-.7v27.5Z" class="g3_2"/>
<path d="M108 665.1h.7V637.6H108v27.5Z" class="g3_2"/>
<path d="M183.7 665.1h.7V637.6h-.7v27.5Z" class="g3_2"/>
<path d="M811.8 665.1h.7V637.6h-.7v27.5Z" class="g3_2"/>
<path d="M865.3 665.1h.8V637.6h-.8v27.5Z" class="g3_2"/>
<path fill-rule="evenodd" d="M44 947.8h64V665.9H44V947.8Z" class="g0_2"/>
<path d="M44 820.6h64V793.1H44v27.5Z" class="g0_2"/>
<path fill-rule="evenodd" d="M108.7 693.4h75V665.9h-75v27.5Z" class="g8_2"/>
<path d="M108.7 693.4h75V665.9h-75v27.5Z" class="g8_2"/>
<path fill-rule="evenodd" d="M184.4 693.4H811.8V665.9H184.4v27.5Z" class="g8_2"/>
<path d="M184.4 693.4H811.8V665.9H184.4v27.5Z" class="g8_2"/>
<path fill-rule="evenodd" d="M812.5 693.4h52.8V665.9H812.5v27.5Z" class="g2_2"/>
<path d="M812.5 693.4h52.8V665.9H812.5v27.5Z" class="g2_2"/>
<path d="M43.3 665.9H44v-.8h-.7v.8Z" class="g3_2"/>
<path d="M44 665.9h64v-.8H44v.8Z" class="g3_2"/>
<path d="M108 665.9h.7v-.8H108v.8Z" class="g3_2"/>
<path d="M108.7 665.9h75v-.8h-75v.8Z" class="g3_2"/>
<path d="M183.7 665.9h.7v-.8h-.7v.8Z" class="g3_2"/>
<path d="M184.4 665.9H811.8v-.8H184.4v.8Z" class="g3_2"/>
<path d="M811.8 665.9h.7v-.8h-.7v.8Z" class="g3_2"/>
<path d="M812.5 665.9h52.8v-.8H812.5v.8Z" class="g3_2"/>
<path d="M865.3 665.9h.8v-.8h-.8v.8Z" class="g3_2"/>
<path d="M43.3 693.4H44V665.9h-.7v27.5Z" class="g3_2"/>
<path d="M108 693.4h.7V665.9H108v27.5Z" class="g3_2"/>
<path d="M183.7 693.4h.7V665.9h-.7v27.5Z" class="g3_2"/>
<path d="M811.8 693.4h.7V665.9h-.7v27.5Z" class="g3_2"/>
<path d="M865.3 693.4h.8V665.9h-.8v27.5Z" class="g3_2"/>
<path fill-rule="evenodd" d="M108.7 721.6h75V694.1h-75v27.5Z" class="g9_2"/>
<path d="M108.7 721.6h75V694.1h-75v27.5Z" class="g9_2"/>
<path fill-rule="evenodd" d="M184.4 721.6H811.8V694.1H184.4v27.5Z" class="g9_2"/>
<path d="M184.4 721.6H811.8V694.1H184.4v27.5Z" class="g9_2"/>
<path fill-rule="evenodd" d="M812.5 721.6h52.8V694.1H812.5v27.5Z" class="g2_2"/>
<path d="M812.5 721.6h52.8V694.1H812.5v27.5Z" class="g2_2"/>
<path d="M43.3 694.1H44v-.7h-.7v.7Z" class="g3_2"/>
<path d="M108 694.1h.7v-.7H108v.7Z" class="g3_2"/>
<path d="M108.7 694.1h75v-.7h-75v.7Z" class="g3_2"/>
<path d="M183.7 694.1h.7v-.7h-.7v.7Z" class="g3_2"/>
<path d="M184.4 694.1H811.8v-.7H184.4v.7Z" class="g3_2"/>
<path d="M811.8 694.1h.7v-.7h-.7v.7Z" class="g3_2"/>
<path d="M812.5 694.1h52.8v-.7H812.5v.7Z" class="g3_2"/>
<path d="M865.3 694.1h.8v-.7h-.8v.7Z" class="g3_2"/>
<path d="M43.3 721.6H44V694.1h-.7v27.5Z" class="g3_2"/>
<path d="M108 721.6h.7V694.1H108v27.5Z" class="g3_2"/>
<path d="M183.7 721.6h.7V694.1h-.7v27.5Z" class="g3_2"/>
<path d="M811.8 721.6h.7V694.1h-.7v27.5Z" class="g3_2"/>
<path d="M865.3 721.6h.8V694.1h-.8v27.5Z" class="g3_2"/>
<path fill-rule="evenodd" d="M108.7 749.8h75V722.3h-75v27.5Z" class="g9_2"/>
<path d="M108.7 749.8h75V722.3h-75v27.5Z" class="g9_2"/>
<path fill-rule="evenodd" d="M184.4 749.8H811.8V722.3H184.4v27.5Z" class="g9_2"/>
<path d="M184.4 749.8H811.8V722.3H184.4v27.5Z" class="g9_2"/>
<path fill-rule="evenodd" d="M812.5 749.8h52.8V722.3H812.5v27.5Z" class="g2_2"/>
<path d="M812.5 749.8h52.8V722.3H812.5v27.5Z" class="g2_2"/>
<path d="M43.3 722.3H44v-.7h-.7v.7Z" class="g3_2"/>
<path d="M108 722.3h.7v-.7H108v.7Z" class="g3_2"/>
<path d="M108.7 722.3h75v-.7h-75v.7Z" class="g3_2"/>
<path d="M183.7 722.3h.7v-.7h-.7v.7Z" class="g3_2"/>
<path d="M184.4 722.3H811.8v-.7H184.4v.7Z" class="g3_2"/>
<path d="M811.8 722.3h.7v-.7h-.7v.7Z" class="g3_2"/>
<path d="M812.5 722.3h52.8v-.7H812.5v.7Z" class="g3_2"/>
<path d="M865.3 722.3h.8v-.7h-.8v.7Z" class="g3_2"/>
<path d="M43.3 749.8H44V722.3h-.7v27.5Z" class="g3_2"/>
<path d="M108 749.8h.7V722.3H108v27.5Z" class="g3_2"/>
<path d="M183.7 749.8h.7V722.3h-.7v27.5Z" class="g3_2"/>
<path d="M811.8 749.8h.7V722.3h-.7v27.5Z" class="g3_2"/>
<path d="M865.3 749.8h.8V722.3h-.8v27.5Z" class="g3_2"/>
<path fill-rule="evenodd" d="M108.7 778.2h75V750.7h-75v27.5Z" class="g9_2"/>
<path d="M108.7 778.2h75V750.7h-75v27.5Z" class="g9_2"/>
<path fill-rule="evenodd" d="M184.4 778.2H811.8V750.7H184.4v27.5Z" class="g9_2"/>
<path d="M184.4 778.2H811.8V750.7H184.4v27.5Z" class="g9_2"/>
<path fill-rule="evenodd" d="M812.5 778.2h52.8V750.7H812.5v27.5Z" class="g2_2"/>
<path d="M812.5 778.2h52.8V750.7H812.5v27.5Z" class="g2_2"/>
<path d="M43.3 750.6H44v-.8h-.7v.8Z" class="g3_2"/>
<path d="M108 750.6h.7v-.8H108v.8Z" class="g3_2"/>
<path d="M108.7 750.6h75v-.8h-75v.8Z" class="g3_2"/>
<path d="M183.7 750.6h.7v-.8h-.7v.8Z" class="g3_2"/>
<path d="M184.4 750.6H811.8v-.8H184.4v.8Z" class="g3_2"/>
<path d="M811.8 750.6h.7v-.8h-.7v.8Z" class="g3_2"/>
<path d="M812.5 750.6h52.8v-.8H812.5v.8Z" class="g3_2"/>
<path d="M865.3 750.6h.8v-.8h-.8v.8Z" class="g3_2"/>
<path d="M43.3 778.2H44V750.6h-.7v27.6Z" class="g3_2"/>
<path d="M108 778.2h.7V750.6H108v27.6Z" class="g3_2"/>
<path d="M183.7 778.2h.7V750.6h-.7v27.6Z" class="g3_2"/>
<path d="M811.8 778.2h.7V750.6h-.7v27.6Z" class="g3_2"/>
<path d="M865.3 778.2h.8V750.6h-.8v27.6Z" class="g3_2"/>
<path fill-rule="evenodd" d="M108.7 806.5h75V779h-75v27.5Z" class="g8_2"/>
<path d="M108.7 806.5h75V779h-75v27.5Z" class="g8_2"/>
<path fill-rule="evenodd" d="M184.4 806.5H811.8V779H184.4v27.5Z" class="g8_2"/>
<path d="M184.4 806.5H811.8V779H184.4v27.5Z" class="g8_2"/>
<path fill-rule="evenodd" d="M812.5 806.5h52.8V779H812.5v27.5Z" class="g2_2"/>
<path d="M812.5 806.5h52.8V779H812.5v27.5Z" class="g2_2"/>
<path d="M43.3 779H44v-.8h-.7v.8Z" class="g3_2"/>
<path d="M108 779h.7v-.8H108v.8Z" class="g3_2"/>
<path d="M108.7 779h75v-.8h-75v.8Z" class="g3_2"/>
<path d="M183.7 779h.7v-.8h-.7v.8Z" class="g3_2"/>
<path d="M184.4 779H811.8v-.8H184.4v.8Z" class="g3_2"/>
<path d="M811.8 779h.7v-.8h-.7v.8Z" class="g3_2"/>
<path d="M812.5 779h52.8v-.8H812.5v.8Z" class="g3_2"/>
<path d="M865.3 779h.8v-.8h-.8v.8Z" class="g3_2"/>
<path d="M43.3 806.5H44V779h-.7v27.5Z" class="g3_2"/>
<path d="M108 806.5h.7V779H108v27.5Z" class="g3_2"/>
<path d="M183.7 806.5h.7V779h-.7v27.5Z" class="g3_2"/>
<path d="M811.8 806.5h.7V779h-.7v27.5Z" class="g3_2"/>
<path d="M865.3 806.5h.8V779h-.8v27.5Z" class="g3_2"/>
<path fill-rule="evenodd" d="M108.7 834.7h75V807.2h-75v27.5Z" class="g9_2"/>
<path d="M108.7 834.7h75V807.2h-75v27.5Z" class="g9_2"/>
<path fill-rule="evenodd" d="M184.4 834.7H811.8V807.2H184.4v27.5Z" class="g9_2"/>
<path d="M184.4 834.7H811.8V807.2H184.4v27.5Z" class="g9_2"/>
<path fill-rule="evenodd" d="M812.5 834.7h52.8V807.2H812.5v27.5Z" class="g2_2"/>
<path d="M812.5 834.7h52.8V807.2H812.5v27.5Z" class="g2_2"/>
<path d="M43.3 807.2H44v-.7h-.7v.7Z" class="g3_2"/>
<path d="M108 807.2h.7v-.7H108v.7Z" class="g3_2"/>
<path d="M108.7 807.2h75v-.7h-75v.7Z" class="g3_2"/>
<path d="M183.7 807.2h.7v-.7h-.7v.7Z" class="g3_2"/>
<path d="M184.4 807.2H811.8v-.7H184.4v.7Z" class="g3_2"/>
<path d="M811.8 807.2h.7v-.7h-.7v.7Z" class="g3_2"/>
<path d="M812.5 807.2h52.8v-.7H812.5v.7Z" class="g3_2"/>
<path d="M865.3 807.2h.8v-.7h-.8v.7Z" class="g3_2"/>
<path d="M43.3 834.7H44V807.2h-.7v27.5Z" class="g3_2"/>
<path d="M108 834.7h.7V807.2H108v27.5Z" class="g3_2"/>
<path d="M183.7 834.7h.7V807.2h-.7v27.5Z" class="g3_2"/>
<path d="M811.8 834.7h.7V807.2h-.7v27.5Z" class="g3_2"/>
<path d="M865.3 834.7h.8V807.2h-.8v27.5Z" class="g3_2"/>
<path fill-rule="evenodd" d="M108.7 863h75V835.5h-75V863Z" class="g9_2"/>
<path d="M108.7 863h75V835.5h-75V863Z" class="g9_2"/>
<path fill-rule="evenodd" d="M184.4 863H811.8V835.5H184.4V863Z" class="g9_2"/>
<path d="M184.4 863H811.8V835.5H184.4V863Z" class="g9_2"/>
<path fill-rule="evenodd" d="M812.5 863h52.8V835.5H812.5V863Z" class="g2_2"/>
<path d="M812.5 863h52.8V835.5H812.5V863Z" class="g2_2"/>
<path d="M43.3 835.5H44v-.8h-.7v.8Z" class="g3_2"/>
<path d="M108 835.5h.7v-.8H108v.8Z" class="g3_2"/>
<path d="M108.7 835.5h75v-.8h-75v.8Z" class="g3_2"/>
<path d="M183.7 835.5h.7v-.8h-.7v.8Z" class="g3_2"/>
<path d="M184.4 835.5H811.8v-.8H184.4v.8Z" class="g3_2"/>
<path d="M811.8 835.5h.7v-.8h-.7v.8Z" class="g3_2"/>
<path d="M812.5 835.5h52.8v-.8H812.5v.8Z" class="g3_2"/>
<path d="M865.3 835.5h.8v-.8h-.8v.8Z" class="g3_2"/>
<path d="M43.3 863H44V835.5h-.7V863Z" class="g3_2"/>
<path d="M108 863h.7V835.5H108V863Z" class="g3_2"/>
<path d="M183.7 863h.7V835.5h-.7V863Z" class="g3_2"/>
<path d="M811.8 863h.7V835.5h-.7V863Z" class="g3_2"/>
<path d="M865.3 863h.8V835.5h-.8V863Z" class="g3_2"/>
<path fill-rule="evenodd" d="M108.7 891.2h75V863.7h-75v27.5Z" class="g8_2"/>
<path d="M108.7 891.2h75V863.7h-75v27.5Z" class="g8_2"/>
<path fill-rule="evenodd" d="M184.4 891.2H811.8V863.7H184.4v27.5Z" class="g8_2"/>
<path d="M184.4 891.2H811.8V863.7H184.4v27.5Z" class="g8_2"/>
<path fill-rule="evenodd" d="M812.5 891.2h52.8V863.7H812.5v27.5Z" class="g2_2"/>
<path d="M812.5 891.2h52.8V863.7H812.5v27.5Z" class="g2_2"/>
<path d="M43.3 863.7H44v-.8h-.7v.8Z" class="g3_2"/>
<path d="M108 863.7h.7v-.8H108v.8Z" class="g3_2"/>
<path d="M108.7 863.7h75v-.8h-75v.8Z" class="g3_2"/>
<path d="M183.7 863.7h.7v-.8h-.7v.8Z" class="g3_2"/>
<path d="M184.4 863.7H811.8v-.8H184.4v.8Z" class="g3_2"/>
<path d="M811.8 863.7h.7v-.8h-.7v.8Z" class="g3_2"/>
<path d="M812.5 863.7h52.8v-.8H812.5v.8Z" class="g3_2"/>
<path d="M865.3 863.7h.8v-.8h-.8v.8Z" class="g3_2"/>
<path d="M43.3 891.2H44V863.7h-.7v27.5Z" class="g3_2"/>
<path d="M108 891.2h.7V863.7H108v27.5Z" class="g3_2"/>
<path d="M183.7 891.2h.7V863.7h-.7v27.5Z" class="g3_2"/>
<path d="M811.8 891.2h.7V863.7h-.7v27.5Z" class="g3_2"/>
<path d="M865.3 891.2h.8V863.7h-.8v27.5Z" class="g3_2"/>
<path fill-rule="evenodd" d="M108.7 919.4h75V891.9h-75v27.5Z" class="g9_2"/>
<path d="M108.7 919.4h75V891.9h-75v27.5Z" class="g9_2"/>
<path fill-rule="evenodd" d="M184.4 919.4H811.8V891.9H184.4v27.5Z" class="g9_2"/>
<path d="M184.4 919.4H811.8V891.9H184.4v27.5Z" class="g9_2"/>
<path fill-rule="evenodd" d="M812.5 919.4h52.8V891.9H812.5v27.5Z" class="g2_2"/>
<path d="M812.5 919.4h52.8V891.9H812.5v27.5Z" class="g2_2"/>
<path d="M43.3 891.9H44v-.7h-.7v.7Z" class="g3_2"/>
<path d="M108 891.9h.7v-.7H108v.7Z" class="g3_2"/>
<path d="M108.7 891.9h75v-.7h-75v.7Z" class="g3_2"/>
<path d="M183.7 891.9h.7v-.7h-.7v.7Z" class="g3_2"/>
<path d="M184.4 891.9H811.8v-.7H184.4v.7Z" class="g3_2"/>
<path d="M811.8 891.9h.7v-.7h-.7v.7Z" class="g3_2"/>
<path d="M812.5 891.9h52.8v-.7H812.5v.7Z" class="g3_2"/>
<path d="M865.3 891.9h.8v-.7h-.8v.7Z" class="g3_2"/>
<path d="M43.3 919.4H44V891.9h-.7v27.5Z" class="g3_2"/>
<path d="M108 919.4h.7V891.9H108v27.5Z" class="g3_2"/>
<path d="M183.7 919.4h.7V891.9h-.7v27.5Z" class="g3_2"/>
<path d="M811.8 919.4h.7V891.9h-.7v27.5Z" class="g3_2"/>
<path d="M865.3 919.4h.8V891.9h-.8v27.5Z" class="g3_2"/>
<path fill-rule="evenodd" d="M108.7 947.8h75V920.3h-75v27.5Z" class="g9_2"/>
<path d="M108.7 947.8h75V920.3h-75v27.5Z" class="g9_2"/>
<path fill-rule="evenodd" d="M184.4 947.8H811.8V920.3H184.4v27.5Z" class="g9_2"/>
<path d="M184.4 947.8H811.8V920.3H184.4v27.5Z" class="g9_2"/>
<path fill-rule="evenodd" d="M812.5 947.8h52.8V920.3H812.5v27.5Z" class="g2_2"/>
<path d="M812.5 947.8h52.8V920.3H812.5v27.5Z" class="g2_2"/>
<path d="M43.3 920.1H44v-.7h-.7v.7Z" class="g3_2"/>
<path d="M108 920.1h.7v-.7H108v.7Z" class="g3_2"/>
<path d="M108.7 920.1h75v-.7h-75v.7Z" class="g3_2"/>
<path d="M183.7 920.1h.7v-.7h-.7v.7Z" class="g3_2"/>
<path d="M184.4 920.1H811.8v-.7H184.4v.7Z" class="g3_2"/>
<path d="M811.8 920.1h.7v-.7h-.7v.7Z" class="g3_2"/>
<path d="M812.5 920.1h52.8v-.7H812.5v.7Z" class="g3_2"/>
<path d="M865.3 920.1h.8v-.7h-.8v.7Z" class="g3_2"/>
<path d="M43.3 947.8H44V920.1h-.7v27.7Z" class="g3_2"/>
<path d="M108 947.8h.7V920.1H108v27.7Z" class="g3_2"/>
<path d="M183.7 947.8h.7V920.1h-.7v27.7Z" class="g3_2"/>
<path d="M811.8 947.8h.7V920.1h-.7v27.7Z" class="g3_2"/>
<path d="M865.3 947.8h.8V920.1h-.8v27.7Z" class="g3_2"/>
<path fill-rule="evenodd" d="M44 1202.1h64V948.6H44v253.5Z" class="g5_2"/>
<path d="M44 1089h64v-27.5H44V1089Z" class="g5_2"/>
<path fill-rule="evenodd" d="M108.7 976.1h75V948.6h-75v27.5Z" class="g1_2"/>
<path d="M108.7 976.1h75V948.6h-75v27.5Z" class="g1_2"/>
<path fill-rule="evenodd" d="M184.4 976.1H811.8V948.6H184.4v27.5Z" class="g1_2"/>
<path d="M184.4 976.1H811.8V948.6H184.4v27.5Z" class="g1_2"/>
<path fill-rule="evenodd" d="M812.5 976.1h52.8V948.6H812.5v27.5Z" class="g2_2"/>
<path d="M812.5 976.1h52.8V948.6H812.5v27.5Z" class="g2_2"/>
<path d="M43.3 948.6H44v-.8h-.7v.8Z" class="g3_2"/>
<path d="M44 948.6h64v-.8H44v.8Z" class="g3_2"/>
<path d="M108 948.6h.7v-.8H108v.8Z" class="g3_2"/>
<path d="M108.7 948.6h75v-.8h-75v.8Z" class="g3_2"/>
<path d="M183.7 948.6h.7v-.8h-.7v.8Z" class="g3_2"/>
<path d="M184.4 948.6H811.8v-.8H184.4v.8Z" class="g3_2"/>
<path d="M811.8 948.6h.7v-.8h-.7v.8Z" class="g3_2"/>
<path d="M812.5 948.6h52.8v-.8H812.5v.8Z" class="g3_2"/>
<path d="M865.3 948.6h.8v-.8h-.8v.8Z" class="g3_2"/>
<path d="M43.3 976.1H44V948.6h-.7v27.5Z" class="g3_2"/>
<path d="M108 976.1h.7V948.6H108v27.5Z" class="g3_2"/>
<path d="M183.7 976.1h.7V948.6h-.7v27.5Z" class="g3_2"/>
<path d="M811.8 976.1h.7V948.6h-.7v27.5Z" class="g3_2"/>
<path d="M865.3 976.1h.8V948.6h-.8v27.5Z" class="g3_2"/>
<path fill-rule="evenodd" d="M108.7 1004.3h75V976.8h-75v27.5Z" class="g4_2"/>
<path d="M108.7 1004.3h75V976.8h-75v27.5Z" class="g4_2"/>
<path fill-rule="evenodd" d="M184.4 1004.3H811.8V976.8H184.4v27.5Z" class="g4_2"/>
<path d="M184.4 1004.3H811.8V976.8H184.4v27.5Z" class="g4_2"/>
<path fill-rule="evenodd" d="M812.5 1004.3h52.8V976.8H812.5v27.5Z" class="g2_2"/>
<path d="M812.5 1004.3h52.8V976.8H812.5v27.5Z" class="g2_2"/>
<path d="M43.3 976.8H44v-.7h-.7v.7Z" class="g3_2"/>
<path d="M108 976.8h.7v-.7H108v.7Z" class="g3_2"/>
<path d="M108.7 976.8h75v-.7h-75v.7Z" class="g3_2"/>
<path d="M183.7 976.8h.7v-.7h-.7v.7Z" class="g3_2"/>
<path d="M184.4 976.8H811.8v-.7H184.4v.7Z" class="g3_2"/>
<path d="M811.8 976.8h.7v-.7h-.7v.7Z" class="g3_2"/>
<path d="M812.5 976.8h52.8v-.7H812.5v.7Z" class="g3_2"/>
<path d="M865.3 976.8h.8v-.7h-.8v.7Z" class="g3_2"/>
<path d="M43.3 1004.3H44V976.8h-.7v27.5Z" class="g3_2"/>
<path d="M108 1004.3h.7V976.8H108v27.5Z" class="g3_2"/>
<path d="M183.7 1004.3h.7V976.8h-.7v27.5Z" class="g3_2"/>
<path d="M811.8 1004.3h.7V976.8h-.7v27.5Z" class="g3_2"/>
<path d="M865.3 1004.3h.8V976.8h-.8v27.5Z" class="g3_2"/>
<path fill-rule="evenodd" d="M108.7 1032.5h75V1005h-75v27.5Z" class="g4_2"/>
<path d="M108.7 1032.5h75V1005h-75v27.5Z" class="g4_2"/>
<path fill-rule="evenodd" d="M184.4 1032.5H811.8V1005H184.4v27.5Z" class="g4_2"/>
<path d="M184.4 1032.5H811.8V1005H184.4v27.5Z" class="g4_2"/>
<path fill-rule="evenodd" d="M812.5 1032.5h52.8V1005H812.5v27.5Z" class="g2_2"/>
<path d="M812.5 1032.5h52.8V1005H812.5v27.5Z" class="g2_2"/>
<path d="M43.3 1005H44v-.7h-.7v.7Z" class="g3_2"/>
<path d="M108 1005h.7v-.7H108v.7Z" class="g3_2"/>
<path d="M108.7 1005h75v-.7h-75v.7Z" class="g3_2"/>
<path d="M183.7 1005h.7v-.7h-.7v.7Z" class="g3_2"/>
<path d="M184.4 1005H811.8v-.7H184.4v.7Z" class="g3_2"/>
<path d="M811.8 1005h.7v-.7h-.7v.7Z" class="g3_2"/>
<path d="M812.5 1005h52.8v-.7H812.5v.7Z" class="g3_2"/>
<path d="M865.3 1005h.8v-.7h-.8v.7Z" class="g3_2"/>
<path d="M43.3 1032.5H44V1005h-.7v27.5Z" class="g3_2"/>
<path d="M108 1032.5h.7V1005H108v27.5Z" class="g3_2"/>
<path d="M183.7 1032.5h.7V1005h-.7v27.5Z" class="g3_2"/>
<path d="M811.8 1032.5h.7V1005h-.7v27.5Z" class="g3_2"/>
<path d="M865.3 1032.5h.8V1005h-.8v27.5Z" class="g3_2"/>
<path fill-rule="evenodd" d="M108.7 1060.8h75v-27.5h-75v27.5Z" class="g1_2"/>
<path d="M108.7 1060.8h75v-27.5h-75v27.5Z" class="g1_2"/>
<path fill-rule="evenodd" d="M184.4 1060.8H811.8v-27.5H184.4v27.5Z" class="g1_2"/>
<path d="M184.4 1060.8H811.8v-27.5H184.4v27.5Z" class="g1_2"/>
<path fill-rule="evenodd" d="M812.5 1060.8h52.8v-27.5H812.5v27.5Z" class="g2_2"/>
<path d="M812.5 1060.8h52.8v-27.5H812.5v27.5Z" class="g2_2"/>
<path d="M43.3 1033.3H44v-.8h-.7v.8Z" class="g3_2"/>
<path d="M108 1033.3h.7v-.8H108v.8Z" class="g3_2"/>
<path d="M108.7 1033.3h75v-.8h-75v.8Z" class="g3_2"/>
<path d="M183.7 1033.3h.7v-.8h-.7v.8Z" class="g3_2"/>
<path d="M184.4 1033.3H811.8v-.8H184.4v.8Z" class="g3_2"/>
<path d="M811.8 1033.3h.7v-.8h-.7v.8Z" class="g3_2"/>
<path d="M812.5 1033.3h52.8v-.8H812.5v.8Z" class="g3_2"/>
<path d="M865.3 1033.3h.8v-.8h-.8v.8Z" class="g3_2"/>
<path d="M43.3 1060.8H44v-27.5h-.7v27.5Z" class="g3_2"/>
<path d="M108 1060.8h.7v-27.5H108v27.5Z" class="g3_2"/>
<path d="M183.7 1060.8h.7v-27.5h-.7v27.5Z" class="g3_2"/>
<path d="M811.8 1060.8h.7v-27.5h-.7v27.5Z" class="g3_2"/>
<path d="M865.3 1060.8h.8v-27.5h-.8v27.5Z" class="g3_2"/>
<path fill-rule="evenodd" d="M108.7 1089h75v-27.5h-75V1089Z" class="g4_2"/>
<path d="M108.7 1089h75v-27.5h-75V1089Z" class="g4_2"/>
<path fill-rule="evenodd" d="M184.4 1089H811.8v-27.5H184.4V1089Z" class="g4_2"/>
<path d="M184.4 1089H811.8v-27.5H184.4V1089Z" class="g4_2"/>
<path fill-rule="evenodd" d="M812.5 1089h52.8v-27.5H812.5V1089Z" class="g2_2"/>
<path d="M812.5 1089h52.8v-27.5H812.5V1089Z" class="g2_2"/>
<path d="M43.3 1061.5H44v-.7h-.7v.7Z" class="g3_2"/>
<path d="M108 1061.5h.7v-.7H108v.7Z" class="g3_2"/>
<path d="M108.7 1061.5h75v-.7h-75v.7Z" class="g3_2"/>
<path d="M183.7 1061.5h.7v-.7h-.7v.7Z" class="g3_2"/>
<path d="M184.4 1061.5H811.8v-.7H184.4v.7Z" class="g3_2"/>
<path d="M811.8 1061.5h.7v-.7h-.7v.7Z" class="g3_2"/>
<path d="M812.5 1061.5h52.8v-.7H812.5v.7Z" class="g3_2"/>
<path d="M865.3 1061.5h.8v-.7h-.8v.7Z" class="g3_2"/>
<path d="M43.3 1089H44v-27.5h-.7V1089Z" class="g3_2"/>
<path d="M108 1089h.7v-27.5H108V1089Z" class="g3_2"/>
<path d="M183.7 1089h.7v-27.5h-.7V1089Z" class="g3_2"/>
<path d="M811.8 1089h.7v-27.5h-.7V1089Z" class="g3_2"/>
<path d="M865.3 1089h.8v-27.5h-.8V1089Z" class="g3_2"/>
<path fill-rule="evenodd" d="M108.7 1117.4h75v-27.5h-75v27.5Z" class="g1_2"/>
<path d="M108.7 1117.4h75v-27.5h-75v27.5Z" class="g1_2"/>
<path fill-rule="evenodd" d="M184.4 1117.4H811.8v-27.5H184.4v27.5Z" class="g1_2"/>
<path d="M184.4 1117.4H811.8v-27.5H184.4v27.5Z" class="g1_2"/>
<path fill-rule="evenodd" d="M812.5 1117.4h52.8v-27.5H812.5v27.5Z" class="g2_2"/>
<path d="M812.5 1117.4h52.8v-27.5H812.5v27.5Z" class="g2_2"/>
<path d="M43.3 1089.7H44v-.7h-.7v.7Z" class="g3_2"/>
<path d="M108 1089.7h.7v-.7H108v.7Z" class="g3_2"/>
<path d="M108.7 1089.7h75v-.7h-75v.7Z" class="g3_2"/>
<path d="M183.7 1089.7h.7v-.7h-.7v.7Z" class="g3_2"/>
<path d="M184.4 1089.7H811.8v-.7H184.4v.7Z" class="g3_2"/>
<path d="M811.8 1089.7h.7v-.7h-.7v.7Z" class="g3_2"/>
<path d="M812.5 1089.7h52.8v-.7H812.5v.7Z" class="g3_2"/>
<path d="M865.3 1089.7h.8v-.7h-.8v.7Z" class="g3_2"/>
<path d="M43.3 1117.4H44v-27.7h-.7v27.7Z" class="g3_2"/>
<path d="M108 1117.4h.7v-27.7H108v27.7Z" class="g3_2"/>
<path d="M183.7 1117.4h.7v-27.7h-.7v27.7Z" class="g3_2"/>
<path d="M811.8 1117.4h.7v-27.7h-.7v27.7Z" class="g3_2"/>
<path d="M865.3 1117.4h.8v-27.7h-.8v27.7Z" class="g3_2"/>
<path fill-rule="evenodd" d="M108.7 1145.6h75v-27.5h-75v27.5Z" class="g4_2"/>
<path d="M108.7 1145.6h75v-27.5h-75v27.5Z" class="g4_2"/>
<path fill-rule="evenodd" d="M184.4 1145.6H811.8v-27.5H184.4v27.5Z" class="g4_2"/>
<path d="M184.4 1145.6H811.8v-27.5H184.4v27.5Z" class="g4_2"/>
<path fill-rule="evenodd" d="M812.5 1145.6h52.8v-27.5H812.5v27.5Z" class="g2_2"/>
<path d="M812.5 1145.6h52.8v-27.5H812.5v27.5Z" class="g2_2"/>
<path d="M43.3 1118.1H44v-.7h-.7v.7Z" class="g3_2"/>
<path d="M108 1118.1h.7v-.7H108v.7Z" class="g3_2"/>
<path d="M108.7 1118.1h75v-.7h-75v.7Z" class="g3_2"/>
<path d="M183.7 1118.1h.7v-.7h-.7v.7Z" class="g3_2"/>
<path d="M184.4 1118.1H811.8v-.7H184.4v.7Z" class="g3_2"/>
<path d="M811.8 1118.1h.7v-.7h-.7v.7Z" class="g3_2"/>
<path d="M812.5 1118.1h52.8v-.7H812.5v.7Z" class="g3_2"/>
<path d="M865.3 1118.1h.8v-.7h-.8v.7Z" class="g3_2"/>
<path d="M43.3 1145.6H44v-27.5h-.7v27.5Z" class="g3_2"/>
<path d="M108 1145.6h.7v-27.5H108v27.5Z" class="g3_2"/>
<path d="M183.7 1145.6h.7v-27.5h-.7v27.5Z" class="g3_2"/>
<path d="M811.8 1145.6h.7v-27.5h-.7v27.5Z" class="g3_2"/>
<path d="M865.3 1145.6h.8v-27.5h-.8v27.5Z" class="g3_2"/>
<path fill-rule="evenodd" d="M108.7 1173.9h75v-27.5h-75v27.5Z" class="g4_2"/>
<path d="M108.7 1173.9h75v-27.5h-75v27.5Z" class="g4_2"/>
<path fill-rule="evenodd" d="M184.4 1173.9H811.8v-27.5H184.4v27.5Z" class="g4_2"/>
<path d="M184.4 1173.9H811.8v-27.5H184.4v27.5Z" class="g4_2"/>
<path fill-rule="evenodd" d="M812.5 1173.9h52.8v-27.5H812.5v27.5Z" class="g2_2"/>
<path d="M812.5 1173.9h52.8v-27.5H812.5v27.5Z" class="g2_2"/>
<path d="M43.3 1146.4H44v-.8h-.7v.8Z" class="g3_2"/>
<path d="M108 1146.4h.7v-.8H108v.8Z" class="g3_2"/>
<path d="M108.7 1146.4h75v-.8h-75v.8Z" class="g3_2"/>
<path d="M183.7 1146.4h.7v-.8h-.7v.8Z" class="g3_2"/>
<path d="M184.4 1146.4H811.8v-.8H184.4v.8Z" class="g3_2"/>
<path d="M811.8 1146.4h.7v-.8h-.7v.8Z" class="g3_2"/>
<path d="M812.5 1146.4h52.8v-.8H812.5v.8Z" class="g3_2"/>
<path d="M865.3 1146.4h.8v-.8h-.8v.8Z" class="g3_2"/>
<path d="M43.3 1173.9H44v-27.5h-.7v27.5Z" class="g3_2"/>
<path d="M108 1173.9h.7v-27.5H108v27.5Z" class="g3_2"/>
<path d="M183.7 1173.9h.7v-27.5h-.7v27.5Z" class="g3_2"/>
<path d="M811.8 1173.9h.7v-27.5h-.7v27.5Z" class="g3_2"/>
<path d="M865.3 1173.9h.8v-27.5h-.8v27.5Z" class="g3_2"/>
<path fill-rule="evenodd" d="M108.7 1202.1h75v-27.5h-75v27.5Z" class="g4_2"/>
<path d="M108.7 1202.1h75v-27.5h-75v27.5Z" class="g4_2"/>
<path fill-rule="evenodd" d="M184.4 1202.1H811.8v-27.5H184.4v27.5Z" class="g4_2"/>
<path d="M184.4 1202.1H811.8v-27.5H184.4v27.5Z" class="g4_2"/>
<path fill-rule="evenodd" d="M812.5 1202.1h52.8v-27.5H812.5v27.5Z" class="g2_2"/>
<path d="M812.5 1202.1h52.8v-27.5H812.5v27.5Z" class="g2_2"/>
<path d="M43.3 1174.6H44v-.7h-.7v.7Z" class="g3_2"/>
<path d="M108 1174.6h.7v-.7H108v.7Z" class="g3_2"/>
<path d="M108.7 1174.6h75v-.7h-75v.7Z" class="g3_2"/>
<path d="M183.7 1174.6h.7v-.7h-.7v.7Z" class="g3_2"/>
<path d="M184.4 1174.6H811.8v-.7H184.4v.7Z" class="g3_2"/>
<path d="M811.8 1174.6h.7v-.7h-.7v.7Z" class="g3_2"/>
<path d="M812.5 1174.6h52.8v-.7H812.5v.7Z" class="g3_2"/>
<path d="M865.3 1174.6h.8v-.7h-.8v.7Z" class="g3_2"/>
<path d="M43.3 1202.1H44v-27.5h-.7v27.5Z" class="g3_2"/>
<path d="M43.3 1202.8H44v-.7h-.7v.7Z" class="g3_2"/>
<path d="M43.3 1202.8H44v-.7h-.7v.7Z" class="g3_2"/>
<path d="M44 1202.8h64v-.7H44v.7Z" class="g3_2"/>
<path d="M108 1202.1h.7v-27.5H108v27.5Z" class="g3_2"/>
<path d="M108 1202.8h.7v-.7H108v.7Z" class="g3_2"/>
<path d="M108.7 1202.8h75v-.7h-75v.7Z" class="g3_2"/>
<path d="M183.7 1202.1h.7v-27.5h-.7v27.5Z" class="g3_2"/>
<path d="M183.7 1202.8h.7v-.7h-.7v.7Z" class="g3_2"/>
<path d="M184.4 1202.8H811.8v-.7H184.4v.7Z" class="g3_2"/>
<path d="M811.8 1202.1h.7v-27.5h-.7v27.5Z" class="g3_2"/>
<path d="M811.8 1202.8h.7v-.7h-.7v.7Z" class="g3_2"/>
<path d="M812.5 1202.8h52.8v-.7H812.5v.7Z" class="g3_2"/>
<path d="M865.3 1202.1h.8v-27.5h-.8v27.5Z" class="g3_2"/>
<path d="M865.3 1202.8h.8v-.7h-.8v.7Z" class="g3_2"/>
<path d="M865.3 1202.8h.8v-.7h-.8v.7Z" class="g3_2"/>
</svg>