<?xml version="1.0" encoding="UTF-8" standalone="no"?>
<!DOCTYPE svg PUBLIC "-//W3C//DTD SVG 1.1//EN"
"http://www.w3.org/Graphics/SVG/1.1/DTD/svg11.dtd">
<svg viewBox="0 0 909 1286" version="1.1" xmlns="http://www.w3.org/2000/svg" xmlns:xlink="http://www.w3.org/1999/xlink">
<defs>
<clipPath id="c0_8"><path d="M-.2 1286.6v-74.9h910v74.9Z"/></clipPath>
<clipPath id="c1_8"><path d="M705.2 1189.5V1076.2h108v113.3Z"/></clipPath>
<clipPath id="c2_8"><path d="M716.8 877.2V753.1H853V877.2Z"/></clipPath>
<style type="text/css"><![CDATA[
.g0_8{
fill: none;
stroke: #000;
stroke-width: 1.099;
stroke-linecap: square;
stroke-miterlimit: 10;
}
.g1_8{
fill: none;
stroke: #000;
stroke-width: 0.765;
stroke-linecap: square;
stroke-miterlimit: 10;
}
.g2_8{
fill: none;
stroke: #000;
stroke-width: 0.763;
stroke-linecap: square;
stroke-miterlimit: 10;
}
.g3_8{
fill: none;
stroke: #000;
stroke-width: 1.527;
stroke-linecap: square;
stroke-miterlimit: 10;
}
.g4_8{
fill: none;
stroke: #000;
stroke-width: 0.761;
stroke-linecap: square;
stroke-miterlimit: 10;
}
.g5_8{
fill: none;
stroke: #000;
stroke-width: 0.802;
stroke-linejoin: round;
}
.g6_8{
fill: #DDD;
}
.g7_8{
fill: none;
stroke: #000;
stroke-width: 0.764;
stroke-linecap: round;
stroke-linejoin: round;
}
.g8_8{
fill: none;
stroke: #000;
stroke-width: 0.764;
stroke-linecap: round;
stroke-miterlimit: 8;
}
.g9_8{
fill: none;
stroke: #000;
stroke-width: 1.144;
stroke-linejoin: round;
}
.ga_8{
fill: #000;
}
.gb_8{
fill: none;
stroke: #000;
stroke-width: 1.145;
stroke-linecap: round;
stroke-miterlimit: 8;
}
]]></style>
</defs>
<image clip-path="url(#c0_8)" preserveAspectRatio="none" x="-4" y="1212" width="952" height="131" xlink:href="img/1.jpg"/>
<path d="M504.3 75.2h-30m84.1 0H527.3m161.7 0H656.7M286 108.3H254.8m127.6 0h-32m78.1 0h-31m85.8 0H451.2m76.8 0H497.8m85.2 0H550.7m78.3 0H597.9M164.1 141.7H132m89.1 0H187m90.2 0H244M604.1 246.2H572M142.3 279.4H109.1m93.1 0H170.1m19.3 72.4h18.3m45.1 0h18.3m46.1 0h18.3M431 427.5H401.7m83.4 0H453.9M164.1 460.9H132m87.1 0H187m86.2 0H242m84 0H295.7M468 589.2H435.8M235.4 622.4H205.3m121.8 0H295m127.9 0H386.8m127.6 0h-32m114.5 0h-32" class="g0_8"/>
<path d="M252.9 1109.1h23.8" class="g1_8"/>
<path d="M301.8 1109.3H325m25.7 0h22.4m70.8 .1h20.9M141.9 1180l2.4 -1.3" class="g2_8"/>
<path d="M144.3 1179l3.4 6.2" class="g3_8"/>
<path d="M148.1 1185.2l4.4 -18.3m0 0h18.2" class="g2_8"/>
<path d="M225.5 1179.9h17.9" class="g4_8"/>
<image preserveAspectRatio="none" x="43" y="94" width="57" height="56" xlink:href="img/2.jpg"/>
<path d="M728.8 144.6h55.6m-68.2 45.7h95.5L746.7 80.8L716.2 190.3m63.6 0L752.6 144.6L740 190.3" class="g5_8"/>
<image preserveAspectRatio="none" x="43" y="266" width="57" height="56" xlink:href="img/3.jpg"/>
<path d="M697.1 319.5l50.2 -66.9l19.1 14l-.2 52.9Z" class="g6_8"/>
<path d="M747.1 252.6l69 50.9l-50.2 66.9l-69 -50.9l50.2 -66.9Z" class="g7_8"/>
<path d="M696.9 319.5h69.3V252.4H696.9v67.1Z" class="g8_8"/>
<image preserveAspectRatio="none" x="43" y="447" width="57" height="56" xlink:href="img/4.jpg"/>
<path d="M817.8 509.9L720.6 468m0 0l40.8 41.9m-83.5 0H817.8l-69 -69.4l-70.9 69.4" class="g9_8"/>
<image preserveAspectRatio="none" x="43" y="609" width="57" height="56" xlink:href="img/5.jpg"/>
<path d="M752.9 606.3h-.7l-.4 -.4l-.4 -.7l-.4 -.8l.4 -.7l.4 -.4l.4 -.4l.7 -.4l.7 .4l.4 .4l.4 .4l.4 .7l-.4 .8l-.4 .7l-.4 .4Z" class="ga_8"/>
<path d="M781.9 606.3h-.8l-.3 -.4l-.4 -.7l-.4 -.8l.4 -.7l.4 -.4l.3 -.4l.8 -.4l.8 .4l.7 .4l.4 .4v1.5l-.4 .7l-.7 .4Z" class="ga_8"/>
<path d="M788.8 606.3H788l-.4 -.4l-.4 -.7l-.3 -.8l.3 -.7l.4 -.4l.4 -.4l.8 -.4l.7 .4l.4 .4l.4 .4l.4 .7l-.4 .8l-.4 .7l-.4 .4Z" class="ga_8"/>
<path d="M752.9 649.2h-.7l-.8 -.3l-.4 -.4V647l.4 -.8l.8 -.4h1.1l.7 .4l.4 .8v1.5l-.4 .4l-.7 .3Z" class="ga_8"/>
<path d="M694.9 690.6H810.5V604.4H694.9v86.2Z" class="gb_8"/>
<image preserveAspectRatio="none" x="43" y="1102" width="57" height="56" xlink:href="img/6.jpg"/>
<image clip-path="url(#c1_8)" preserveAspectRatio="none" x="706" y="1077" width="107" height="112" xlink:href="img/7.jpg"/>
<image clip-path="url(#c2_8)" preserveAspectRatio="none" x="717" y="753" width="136" height="124" xlink:href="img/8.jpg"/>
<image preserveAspectRatio="none" x="43" y="769" width="57" height="56" xlink:href="img/9.jpg"/>
<image preserveAspectRatio="none" x="605" y="936" width="248" height="69" xlink:href="img/10.jpg"/>
<image preserveAspectRatio="none" x="43" y="936" width="57" height="56" xlink:href="img/11.jpg"/>
</svg>