<?xml version="1.0" encoding="UTF-8" standalone="no"?>
<!DOCTYPE svg PUBLIC "-//W3C//DTD SVG 1.1//EN"
"http://www.w3.org/Graphics/SVG/1.1/DTD/svg11.dtd">
<svg viewBox="0 0 909 1286" version="1.1" xmlns="http://www.w3.org/2000/svg" xmlns:xlink="http://www.w3.org/1999/xlink">
<defs>
<clipPath id="c0_2"><path d="M-.2 1286.6v-75.1h910v75.1Z"/></clipPath>
<clipPath id="c1_2"><path d="M571.8 200.7V74.8H841.4V200.7Z"/></clipPath>
<clipPath id="c2_2"><path d="M694.1 871.5V735.3H830.2V871.5Z"/></clipPath>
<style type="text/css"><![CDATA[
.g0_2{
fill: #000;
}
.g1_2{
fill: none;
stroke: #000;
stroke-width: 0.763;
stroke-linecap: square;
stroke-miterlimit: 10;
}
.g2_2{
fill: none;
stroke: #000;
stroke-width: 0.761;
stroke-linecap: square;
stroke-miterlimit: 10;
}
]]></style>
</defs>
<image clip-path="url(#c0_2)" preserveAspectRatio="none" x="-2" y="1212" width="930" height="127" xlink:href="img/1.jpg"/>
<path d="M166.6 91.1h36.6v-.9H166.6v.9Z" class="g0_2"/>
<path d="M404.9 91.1h36.7v-.9H404.9v.9Z" class="g0_2"/>
<path d="M180.9 138.9h36.6V138H180.9v.9Z" class="g0_2"/>
<path d="M110.6 764.9h36.6v-1H110.6v1Z" class="g0_2"/>
<path d="M377.2 771.3h23.2" class="g1_2"/>
<path d="M462.7 771.4h24" class="g2_2"/>
<path d="M539 771.4h24.4m52 -.1h25M111.3 799.1h23.8" class="g1_2"/>
<image preserveAspectRatio="none" x="43" y="91" width="57" height="56" xlink:href="img/2.jpg"/>
<image clip-path="url(#c1_2)" preserveAspectRatio="none" x="572" y="75" width="269" height="125" xlink:href="img/3.jpg"/>
<image preserveAspectRatio="none" x="43" y="303" width="57" height="56" xlink:href="img/4.jpg"/>
<image preserveAspectRatio="none" x="702" y="438" width="152" height="105" xlink:href="img/5.jpg"/>
<image preserveAspectRatio="none" x="553" y="438" width="141" height="105" xlink:href="img/6.jpg"/>
<image preserveAspectRatio="none" x="43" y="450" width="57" height="56" xlink:href="img/7.jpg"/>
<image preserveAspectRatio="none" x="43" y="617" width="57" height="56" xlink:href="img/8.jpg"/>
<image preserveAspectRatio="none" x="43" y="764" width="57" height="57" xlink:href="img/9.jpg"/>
<image clip-path="url(#c2_2)" preserveAspectRatio="none" x="694" y="736" width="136" height="135" xlink:href="img/10.jpg"/>
<image preserveAspectRatio="none" x="43" y="914" width="57" height="57" xlink:href="img/11.jpg"/>
</svg>