<?xml version="1.0" encoding="UTF-8" standalone="no"?>
<!DOCTYPE svg PUBLIC "-//W3C//DTD SVG 1.1//EN"
"http://www.w3.org/Graphics/SVG/1.1/DTD/svg11.dtd">
<svg viewBox="0 0 909 1286" version="1.1" xmlns="http://www.w3.org/2000/svg" xmlns:xlink="http://www.w3.org/1999/xlink">
<defs>
<clipPath id="c0_19"><path d="M-.2 1286.6v-74.9h910v74.9Z"/></clipPath>
<clipPath id="c1_19"><path d="M740.6 188.4V76.2H848.2V188.4Z"/></clipPath>
<clipPath id="c2_19"><path d="M714.9 566.7V466H824.1V566.7Z"/></clipPath>
<clipPath id="c3_19"><path d="M738.9 773.1V609.4H841.2V773.1Z"/></clipPath>
<clipPath id="c4_19"><path d="M661.1 1124.6V1030H825.6v94.6Z"/></clipPath>
<style type="text/css"><![CDATA[
.g0_19{
fill: none;
stroke: #000;
stroke-width: 0.907;
stroke-linecap: square;
stroke-miterlimit: 10;
}
.g1_19{
fill: none;
stroke: #000;
stroke-width: 0.904;
stroke-linecap: square;
stroke-miterlimit: 10;
}
.g2_19{
fill: none;
stroke: #000;
stroke-width: 0.909;
stroke-linecap: square;
stroke-miterlimit: 10;
}
.g3_19{
fill: none;
stroke: #000;
stroke-width: 0.763;
stroke-linecap: square;
stroke-miterlimit: 10;
}
.g4_19{
fill: none;
stroke: #000;
stroke-width: 0.152;
stroke-linecap: square;
stroke-miterlimit: 10;
}
.g5_19{
fill: #000;
}
]]></style>
</defs>
<image clip-path="url(#c0_19)" preserveAspectRatio="none" x="-4" y="1212" width="952" height="131" xlink:href="img/1.jpg"/>
<path d="M484.5 74.1h23M568.6 74h24.9" class="g0_19"/>
<path d="M619 74.1h22.8" class="g1_19"/>
<path d="M119.7 101.8H143m25.7 0h24.4m52.1 -.2h24.1m24.8 .2h24.4" class="g2_19"/>
<path d="M145.2 149.5h43.2" class="g3_19"/>
<path d="M317.4 224.3h25.2" class="g0_19"/>
<path d="M359.7 224.1h24.2" class="g2_19"/>
<path d="M500.5 224.3h25.2" class="g0_19"/>
<path d="M578.4 224.1h24.2M147.2 251.9h24.4" class="g2_19"/>
<path d="M399.9 252.1h23.2M402.8 682H428" class="g0_19"/>
<path d="M453.2 682h22.3" class="g1_19"/>
<path d="M401.9 709.9h25.2" class="g0_19"/>
<path d="M452.3 709.9h23.3" class="g2_19"/>
<path d="M135 737.9h24.3m195.3 -.1h25.2" class="g0_19"/>
<path d="M405 737.8h22.3" class="g1_19"/>
<path d="M136.1 766.9h24.4" class="g2_19"/>
<path d="M355.5 766.7h25.2" class="g0_19"/>
<path d="M406 766.7h23.2m-282 274.5h23.3" class="g2_19"/>
<path d="M196.3 1053.5l1.9 -1m0 0l4.4 7.3m0 0l4.9 -19.3m0 0h9.4" class="g4_19"/>
<path d="M202.2 1059.8l-4.5 -6.7l-1.2 .7l-.3 -.5l2.5 -1.4l4 6l4.5 -17.9h9.7v.9h-9.1l-4.7 18.9Z" class="g5_19"/>
<path d="M278.7 1041h24.9" class="g0_19"/>
<path d="M147.2 1069.1h23.3" class="g2_19"/>
<path d="M196.3 1081.3l1.9 -1m0 0l4.4 7.3m0 0l4.9 -19.3m0 0h9.4" class="g4_19"/>
<path d="M202.2 1087.6l-4.5 -6.7l-1.2 .7l-.3 -.5l2.5 -1.4l4 6l4.5 -17.9h9.7v.9h-9.1l-4.7 18.9Z" class="g5_19"/>
<path d="M278.7 1068.9h24.1m-155.6 27.8h23.3" class="g2_19"/>
<path d="M196.3 1109.1l1.9 -1.1m0 0l4.4 7.3m0 0l4.9 -19.3m0 0h9.4" class="g4_19"/>
<path d="M202.2 1115.3l-4.5 -6.7l-1.2 .8l-.3 -.6l2.5 -1.3l4 5.9l4.5 -17.8h9.7v.9h-9.1l-4.7 18.8Z" class="g5_19"/>
<path d="M278.7 1096.6h24.9" class="g0_19"/>
<path d="M397.9 1096.6H422m-274.8 28h23.3" class="g2_19"/>
<path d="M196.3 1137l1.9 -1.1m0 0l4.4 7.3m0 0l4.9 -19.3m0 0h9.4" class="g4_19"/>
<path d="M202.2 1143.2l-4.5 -6.7l-1.2 .7l-.3 -.5l2.5 -1.4l4 6l4.5 -17.9h9.7v1h-9.1l-4.7 18.8Z" class="g5_19"/>
<path d="M278.7 1124.4h24.1" class="g2_19"/>
<path d="M345.8 1169.5h36.6v-.9H345.8v.9Z" class="g5_19"/>
<path d="M345.8 1171.3h36.6v-.9H345.8v.9Z" class="g5_19"/>
<image clip-path="url(#c1_19)" preserveAspectRatio="none" x="741" y="77" width="107" height="111" xlink:href="img/2.png"/>
<image preserveAspectRatio="none" x="44" y="92" width="56" height="57" xlink:href="img/3.jpg"/>
<image preserveAspectRatio="none" x="722" y="228" width="125" height="103" xlink:href="img/4.jpg"/>
<image preserveAspectRatio="none" x="44" y="244" width="56" height="57" xlink:href="img/5.jpg"/>
<image preserveAspectRatio="none" x="44" y="389" width="56" height="56" xlink:href="img/6.jpg"/>
<image preserveAspectRatio="none" x="717" y="366" width="108" height="100" xlink:href="img/7.jpg"/>
<image clip-path="url(#c2_19)" preserveAspectRatio="none" x="715" y="466" width="109" height="100" xlink:href="img/8.jpg"/>
<image clip-path="url(#c3_19)" preserveAspectRatio="none" x="739" y="610" width="102" height="163" xlink:href="img/9.jpg"/>
<image preserveAspectRatio="none" x="44" y="627" width="56" height="56" xlink:href="img/10.jpg"/>
<image preserveAspectRatio="none" x="44" y="864" width="56" height="56" xlink:href="img/11.jpg"/>
<image clip-path="url(#c4_19)" preserveAspectRatio="none" x="661" y="1030" width="164" height="94" xlink:href="img/12.jpg"/>
<image preserveAspectRatio="none" x="44" y="1011" width="56" height="56" xlink:href="img/13.jpg"/>
</svg>