<?xml version="1.0" encoding="UTF-8" standalone="no"?>
<!DOCTYPE svg PUBLIC "-//W3C//DTD SVG 1.1//EN"
"http://www.w3.org/Graphics/SVG/1.1/DTD/svg11.dtd">
<svg viewBox="0 0 909 1286" version="1.1" xmlns="http://www.w3.org/2000/svg" xmlns:xlink="http://www.w3.org/1999/xlink">
<defs>
<clipPath id="c0_9"><path d="M-.2 1286.6v-75.1h910v75.1Z"/></clipPath>
<style type="text/css"><![CDATA[
.g0_9{
fill: none;
stroke: #000;
stroke-width: 0.763;
stroke-linecap: square;
stroke-miterlimit: 10;
}
.g1_9{
fill: none;
stroke: #000;
stroke-width: 0.76;
stroke-linecap: square;
stroke-miterlimit: 10;
}
.g2_9{
fill: none;
stroke: #000;
stroke-width: 1.099;
stroke-linecap: square;
stroke-miterlimit: 10;
}
.g3_9{
fill: none;
stroke: #000;
stroke-width: 0.909;
stroke-linecap: square;
stroke-miterlimit: 10;
}
.g4_9{
fill: none;
stroke: #000;
stroke-width: 0.907;
stroke-linecap: square;
stroke-miterlimit: 10;
}
]]></style>
</defs>
<image clip-path="url(#c0_9)" preserveAspectRatio="none" x="-2" y="1212" width="930" height="127" xlink:href="img/1.jpg"/>
<path d="M251.1 93.8h10.3m92 0h16.8m24.5 0h11M154.4 141.1h11.1" class="g0_9"/>
<path d="M252.3 141.1h9.9" class="g1_9"/>
<path d="M330.2 142.9h11.1m69.3 0h16.8" class="g0_9"/>
<path d="M166.6 237.3h9.1m28.4 0h9.2M137.6 281h9.2m70.3 0h9.1m68.1 0h18.3m66.7 0h18.4M223.2 375.3h36.7m306.4 118h9.2m189.9 0h9.2M199.9 537.1h9.2M176.3 651.8h9.1m98.9 0h9.2m-133 43.8h18.3m84.1 0h18.3m63.5 0H363m64.4 0h9.2" class="g2_9"/>
<path d="M276.8 793.3h27.3" class="g3_9"/>
<path d="M157.4 905.6h9.2m53 0h9.2m33.6 0h9.2m25.3 0h9.2m-9.6 43.6h9.2m89.7 0h9.1m-218.1 89.4h18.1m16.6 0h19.6m64.6 40.1h25.3m82.8 0h16.9" class="g2_9"/>
<path d="M425.3 1171h26" class="g0_9"/>
<path d="M503.2 1172.8h19.5" class="g4_9"/>
<image preserveAspectRatio="none" x="43" y="104" width="57" height="57" xlink:href="img/2.jpg"/>
<image preserveAspectRatio="none" x="43" y="251" width="57" height="56" xlink:href="img/3.jpg"/>
<image preserveAspectRatio="none" x="43" y="387" width="57" height="57" xlink:href="img/4.jpg"/>
<image preserveAspectRatio="none" x="43" y="508" width="57" height="56" xlink:href="img/5.jpg"/>
<image preserveAspectRatio="none" x="43" y="665" width="57" height="56" xlink:href="img/6.jpg"/>
<image preserveAspectRatio="none" x="43" y="801" width="57" height="56" xlink:href="img/7.jpg"/>
<image preserveAspectRatio="none" x="43" y="918" width="57" height="57" xlink:href="img/8.jpg"/>
<image preserveAspectRatio="none" x="43" y="1052" width="57" height="56" xlink:href="img/9.jpg"/>
<image preserveAspectRatio="none" x="43" y="1180" width="57" height="57" xlink:href="img/10.jpg"/>
</svg>