<?xml version="1.0" encoding="UTF-8" standalone="no"?>
<!DOCTYPE svg PUBLIC "-//W3C//DTD SVG 1.1//EN"
"http://www.w3.org/Graphics/SVG/1.1/DTD/svg11.dtd">
<svg viewBox="0 0 909 1286" version="1.1" xmlns="http://www.w3.org/2000/svg" xmlns:xlink="http://www.w3.org/1999/xlink">
<defs>
<clipPath id="c0_1"><path d="M-.2 1286.6v-57.8h910v57.8Z"/></clipPath>
<clipPath id="c1_1"><path d="M-.2 151.6V-.2h910V151.6Z"/></clipPath>
<clipPath id="c2_1"><path d="M22.5 202.8V153H909.8v49.8Z"/></clipPath>
<style type="text/css"><![CDATA[
.g0_1{
fill: #CFC;
}
.g1_1{
fill: #FCF;
}
.g2_1{
fill: none;
stroke: #000;
stroke-width: 1.251;
stroke-linecap: square;
stroke-miterlimit: 10;
}
.g3_1{
fill: none;
stroke: #F00;
stroke-width: 1.251;
stroke-linecap: square;
stroke-miterlimit: 10;
}
.g4_1{
fill: #000;
}
.g5_1{
fill: #93F;
}
.g6_1{
fill: #CFF;
}
.g7_1{
fill: none;
stroke: #000;
stroke-width: 1.241;
stroke-linecap: square;
stroke-miterlimit: 10;
}
.g8_1{
fill: none;
stroke: #F00;
stroke-width: 1.241;
stroke-linecap: square;
stroke-miterlimit: 10;
}
.g9_1{
fill: #FFC;
}
.ga_1{
fill: #3C0;
}
.gb_1{
fill: #FC9;
}
.gc_1{
fill: #6F9;
}
.gd_1{
fill: #70AD47;
}
.ge_1{
fill: none;
stroke: #000;
stroke-width: 1.099;
stroke-linecap: square;
stroke-miterlimit: 10;
}
.gf_1{
fill: #FCC;
}
.gg_1{
fill: none;
stroke: #000;
stroke-width: 0.709;
stroke-linecap: square;
stroke-miterlimit: 10;
}
.gh_1{
fill: none;
stroke: #36F;
stroke-width: 0.709;
stroke-linecap: square;
stroke-miterlimit: 10;
}
.gi_1{
fill: none;
stroke: #000;
stroke-width: 0.703;
stroke-linecap: square;
stroke-miterlimit: 10;
}
.gj_1{
fill: none;
stroke: #36F;
stroke-width: 0.703;
stroke-linecap: square;
stroke-miterlimit: 10;
}
.gk_1{
fill: none;
stroke: #000;
stroke-width: 0.704;
stroke-linecap: square;
stroke-miterlimit: 10;
}
.gl_1{
fill: none;
stroke: #36F;
stroke-width: 0.704;
stroke-linecap: square;
stroke-miterlimit: 10;
}
.gm_1{
fill: none;
stroke: #F00;
stroke-width: 0.704;
stroke-linecap: square;
stroke-miterlimit: 10;
}
.gn_1{
fill: none;
stroke: #000;
stroke-width: 0.754;
stroke-linecap: square;
stroke-miterlimit: 10;
}
.go_1{
fill: none;
stroke: #30F;
stroke-width: 0.754;
stroke-linecap: square;
stroke-miterlimit: 10;
}
.gp_1{
fill: none;
stroke: #F00;
stroke-width: 0.754;
stroke-linecap: square;
stroke-miterlimit: 10;
}
.gq_1{
fill: none;
stroke: #000;
stroke-width: 0.751;
stroke-linecap: square;
stroke-miterlimit: 10;
}
.gr_1{
fill: none;
stroke: #30F;
stroke-width: 0.751;
stroke-linecap: square;
stroke-miterlimit: 10;
}
.gs_1{
fill: none;
stroke: #F00;
stroke-width: 0.751;
stroke-linecap: square;
stroke-miterlimit: 10;
}
.gt_1{
fill: #F90;
}
]]></style>
</defs>
<image clip-path="url(#c0_1)" preserveAspectRatio="none" x="-2" y="1229" width="930" height="128" xlink:href="img/1.jpg"/>
<path fill-rule="evenodd" d="M54.6 359.3h75V295.2h-75v64.1Z" class="g0_1"/>
<path fill-rule="evenodd" d="M62.3 341h59.4V313.5H62.3V341Z" class="g0_1"/>
<path d="M693.7 365l-.9 -1.9l-.7 -2l-.6 -2.1l-.4 -2l-.4 -2.2l-.3 -2.1l-.1 -2.2l-.1 -2.3l.1 -2.1l.1 -2l.2 -2l.3 -1.9l.4 -1.9l.5 -1.9l.6 -1.8l.7 -1.8l.8 -1.7l.8 -1.7l.9 -1.7l1.1 -1.7l1.1 -1.6l1.3 -1.6l1.3 -1.5l1.4 -1.5l1.5 -1.4l1.5 -1.4l1.5 -1.2l1.6 -1.2l1.7 -1.1l1.6 -.9l1.7 -.9l1.8 -.8l1.7 -.7l1.8 -.6l1.9 -.5l1.9 -.4l1.9 -.3l2 -.2l2 -.2h4l2 .2h1l1 .2l1.9 .3l1.9 .4l1.9 .5l.8 .3l1 .3l1.8 .7l1.7 .8l1.7 .9l1.6 .9l1.7 1.1l1.6 1.2L755 317l1.5 1.4l1.5 1.4l1.4 1.5l1.3 1.5l1.2 1.6l1.2 1.6l1 1.7l1 1.7l.8 1.7l.9 1.7l.6 1.8l.6 1.8l.5 1.9l.4 1.9l.3 1.9l.3 2l.1 2l.1 2.1v1.6l-.1 .8l-.1 .2v.6l-.1 1.6l-.2 1.6l-.3 1.5l-.3 1.6l-.2 .7l-.1 .4l-.1 .3l-.4 1.6l-.3 .7l-.2 .7l-.5 1.4l-.2 .2v.2l-.2 .3l-.3 .7l-.6 1.5l-.4 .6l-.3 .7L764 369l-.9 1.3l-.8 1.4l-1 1.2l-.3 .3l-.1 .1l-.1 .1v.1l-.6 .7l-1.1 1.2l-1.1 1.2l-.6 .5l-.5 .6Z" class="g1_1"/>
<path d="M727.9 388.4l-2 -.2l-2 -.2l-1.9 -.3l-1.9 -.5l-1.9 -.5l-1.8 -.6l-1.7 -.6l-1.8 -.9l-1.7 -.8l-1.6 -1l-1.7 -1l-1.6 -1.2l-1.5 -1.2L703.3 378l-1.5 -1.4l-1.7 -1.8L698.6 373l-1.4 -1.9l-1.3 -1.9l-1.2 -2.1l-.6 -1.1l-.4 -1l63.2 12.7l-.4 .3l-.3 .3l-.7 .7l-.4 .3l-.4 .3l-.7 .6l-1.5 1.1l-1.5 1.1l-.4 .2l-.3 .1l-.1 .2l-.8 .4l-1.6 .9l-1.6 .8l-1.7 .8l-1.7 .6l-1.7 .5l-1.8 .5l-1.8 .4l-1.8 .2l-1.9 .3l-1.9 .1h-2Z" class="g1_1"/>
<path d="M690.2 348.2l.1 2.3l.1 2.2l.3 2.1l.4 2.2l.4 2l.6 2.1l.7 2l.9 1.9l.4 1l.6 1.1l1.2 2.1l1.3 1.9l1.4 1.9l1.5 1.8l1.7 1.8l1.5 1.4l1.5 1.4l1.5 1.2l1.6 1.2l1.7 1l1.6 1l1.7 .8l1.8 .9l1.7 .6l1.8 .6l1.9 .5l1.9 .5l1.9 .3l2 .2l2 .2h4l1.9 -.1l1.9 -.3l1.8 -.2l1.8 -.4l1.8 -.5l1.7 -.5l1.7 -.6l1.7 -.8l1.6 -.8l1.6 -.9l.8 -.4l.1 -.2l.3 -.1l.4 -.2l1.5 -1.1l1.5 -1.1l.7 -.6l.4 -.3l.4 -.3l.7 -.7l.3 -.3l.4 -.3l.5 -.6l.6 -.5l1.1 -1.2l1.1 -1.2l.6 -.7v-.1l.1 -.1l.1 -.1l.3 -.3l1 -1.2l.8 -1.4L764 369l.8 -1.3l.3 -.7l.4 -.6l.6 -1.5l.3 -.7l.2 -.3v-.2l.2 -.2l.5 -1.4l.2 -.7l.3 -.7l.4 -1.6l.1 -.3l.1 -.4l.2 -.7l.3 -1.6l.3 -1.5l.2 -1.6l.1 -1.6v-.6l.1 -.2l.1 -.8v-1.6l-.1 -2.1l-.1 -2l-.3 -2l-.3 -1.9l-.4 -1.9l-.5 -1.9l-.6 -1.8l-.6 -1.8l-.9 -1.7l-.8 -1.7l-1 -1.7l-1 -1.7l-1.2 -1.6l-1.2 -1.6l-1.3 -1.5L758 319.8l-1.5 -1.4L755 317l-1.5 -1.2l-1.6 -1.2l-1.7 -1.1l-1.6 -.9l-1.7 -.9l-1.7 -.8l-1.8 -.7l-1 -.3l-.8 -.3l-1.9 -.5l-1.9 -.4l-1.9 -.3l-1 -.2h-1l-2 -.2h-4l-2 .2l-2 .2l-1.9 .3l-1.9 .4l-1.9 .5l-1.8 .6l-1.7 .7l-1.8 .8l-1.7 .9l-1.6 .9l-1.7 1.1l-1.6 1.2l-1.5 1.2l-1.5 1.4l-1.5 1.4l-1.4 1.5l-1.3 1.5l-1.3 1.6l-1.1 1.6l-1.1 1.7l-.9 1.7l-.8 1.7l-.8 1.7l-.7 1.8l-.6 1.8l-.5 1.9l-.4 1.9l-.3 1.9l-.2 2l-.1 2l-.1 2.1" class="g2_1"/>
<path d="M756.9 377.7L693.7 365" class="g3_1"/>
<path d="M729.8 350.4l-.4 -.1L729 350l-.4 -.3l-.3 -.3l-.2 -.4l-.1 -.4v-.9l.1 -.4l.2 -.4l.3 -.3l.4 -.3l.4 -.2l.4 -.1h.8l.4 .1l.4 .2l.3 .3l.3 .3l.3 .4l.1 .4v.9l-.1 .2v.2l-.3 .4l-.3 .3l-.3 .3l-.4 .3h-.2l-.2 .1h-.3l-.1 .1Z" class="g4_1"/>
<path d="M727.6 471.9l-1 -.1l-1.1 -.3l-1.1 -.4l-1.1 -.5l-1 -.5l-1 -.7l-1.1 -.8l-1 -.9l-1 -.9l10.1 -4.7l7.3 8l-1.2 .6l-1.1 .4l-1.2 .4l-1.1 .3l-1.1 .1l-1.2 .1Z" class="g5_1"/>
<path d="M735.6 470.1l-7.3 -8l-10.1 4.7l-.4 .2l-25 11.7l-.7 -.1l-.6 -1.5l-.6 -1.4l-.4 -1.5l-.4 -1.5l-.6 -2.5l-.2 -1.3l-.2 -1.3l-.1 -1.3l-.1 -1.3l-.1 -1.4v-1.4l.1 -2.1l.1 -2l.2 -2l.3 -1.9l.4 -1.9l.5 -1.9l.6 -1.9l.7 -1.7l.8 -1.8l.8 -1.7l.9 -1.7l1.1 -1.7l1.1 -1.6l1.2 -1.6l1.3 -1.5l1.4 -1.5l1.4 -1.4l1.6 -1.4l1.5 -1.2l1.6 -1.2l1.6 -1.1l1.7 -.9l1.6 -.9l1.8 -.8l1.7 -.7l1.8 -.6l1.8 -.5l2 -.4l1.8 -.3l2 -.2l2 -.2h4l2 .2h1l1 .2l1.9 .3l1.8 .4l1.9 .5l.8 .3l1 .3l1.7 .7l1.7 .8l.9 .4l.8 .5l1.6 .9l1.7 1.1l1.5 1.2l1.6 1.2l1.5 1.4l1.5 1.4l1.3 1.5l1.3 1.5l1.2 1.6l1.2 1.6l1 1.7l1 1.7l.8 1.7l.8 1.8l.7 1.7l.6 1.9l.5 1.9l.4 1.9l.3 1.9l.2 2l.2 2v3.7l-.1 .8v.9l-.1 1.6l-.2 1.6l-.3 1.5l-.3 1.5l-.2 .8l-.1 .3l-.1 .4l-.4 1.5l-.3 .7l-.2 .8l-.6 1.4l-.1 .2v.1l-.2 .4l-.3 .7l-.6 1.4l-.4 .7l-.4 .7l-.3 .6l-.4 .7l-.8 1.3l-.9 1.4l-1 1.2l-.2 .3l-.2 .2h-.1v.1l-.5 .7l-1.1 1.2l-1.1 1.3l-.6 .4l-.5 .5Z" class="g6_1"/>
<path d="M692.8 478.7l25 -11.7l.4 -.2l1 .9l1 .9l1.1 .8l1 .7l1 .5l1.1 .5l1.1 .4l1.1 .3l1 .1l1.1 .1l1.2 -.1l1.1 -.1l1.1 -.3l1.2 -.4l1.1 -.4l1.2 -.6L755 491.7v.2l-.2 .1l-.1 .1Z" class="g6_1"/>
<path d="M726.2 502.5l-2 -.1l-2 -.3l-1.8 -.3l-2 -.4l-1.8 -.5l-1.8 -.6l-1.7 -.7l-1.8 -.8l-1.6 -.9l-1.7 -1l-1.6 -1l-1.6 -1.2l-1.5 -1.2l-1.6 -1.4l-1.4 -1.3l-1.7 -1.9l-.8 -.9l-.7 -.9l-1.4 -1.9l-1.2 -1.9l-1.2 -2.1l-.6 -1.1l-.4 -1l-.1 -.1l.6 -.3l61.9 13.4l-.4 .3l-.4 .3l-.7 .6l-1.4 1.2l-1.5 1.1l-1.5 1.1l-1.5 .9l-1.6 .9l-1.6 .7l-.8 .4l-.8 .4l-1.7 .5l-1.7 .6l-.9 .2l-.8 .2l-.5 .1l-.4 .1l-.9 .2l-.9 .1l-.9 .2l-.9 .1l-.9 .1h-.7l-.3 .1h-1.6l-.2 .1h-1Z" class="g6_1"/>
<path d="M692.1 478.7v-.1l.7 .1l-.6 .3Z" class="g6_1"/>
<path d="M717.8 467l.4 -.2l1 .9l1 .9l1.1 .8l1 .7l1 .5l1.1 .5l1.1 .4l1.1 .3l1 .1l1.1 .1l1.2 -.1l1.1 -.1l1.1 -.3l1.2 -.4l1.1 -.4l1.2 -.6m-17.4 -3.3l2.3 -1m2.2 -1l2.3 -1.2m2.3 -1l1 -.5l1 1M731 465l1.7 1.9m1.8 2l1.1 1.2l.5 .5m1.7 2l1.7 1.9m1.8 1.9l1.8 1.9m1.7 2l1.6 1.9m1.8 1.9l1.7 1.9m1.8 2l1.8 1.9M692.2 479l.6 -.3l1.7 -.8m2.3 -1l2.2 -1m2.3 -1l2.2 -1.1m2.3 -1.1l2.2 -1m2.3 -1.1l2.2 -1.1m2.3 -1.1l2.3 -1m11.1 -45.5h-2l-2 .2l-2 .2l-1.8 .3l-2 .4l-1.8 .5l-1.8 .6l-1.7 .7l-1.8 .8l-1.6 .9l-1.7 .9l-1.6 1.1l-1.6 1.2l-1.5 1.2l-1.6 1.4l-1.4 1.4l-1.4 1.5l-1.3 1.5l-1.2 1.6l-1.1 1.6l-1.1 1.7l-.9 1.7l-.8 1.7l-.8 1.8l-.7 1.7l-.6 1.9l-.5 1.9l-.4 1.9l-.3 1.9l-.2 2l-.1 2l-.1 2.1v1.4l.1 1.4l.1 1.3l.1 1.3l.2 1.3l.2 1.3l.6 2.5l.4 1.5l.4 1.5l.6 1.4l.6 1.5v.1l.1 .3l.1 .1l.4 1l.6 1.1l1.2 2.1l1.2 1.9l1.4 1.9l.7 .9l.8 .9l1.7 1.9l1.4 1.3l1.6 1.4l1.5 1.2l1.6 1.2l1.6 1l1.7 1l1.6 .9l1.8 .8l1.7 .7l1.8 .6l1.8 .5l2 .4l1.8 .3l2 .3l2 .1l2 .1h1l.2 -.1H731l.3 -.1h.7l.9 -.1l.9 -.1l.9 -.2l.9 -.1l.9 -.2l.4 -.1l.5 -.1l.8 -.2l.9 -.2l1.7 -.6l1.7 -.5l.8 -.4l.8 -.4l1.6 -.7l1.6 -.9l1.5 -.9l1.5 -1.1l1.5 -1.1l1.4 -1.2l.7 -.6l.4 -.3l.4 -.3l.1 -.1l.2 -.1v-.2l.5 -.5l.6 -.4l1.1 -1.3l1.1 -1.2l.5 -.7v-.1h.1l.2 -.2l.2 -.3l1 -1.2l.9 -1.4l.8 -1.3l.4 -.7l.3 -.6l.4 -.7l.4 -.7l.6 -1.4l.3 -.7l.2 -.4v-.1l.1 -.2l.6 -1.4l.2 -.8l.3 -.7l.4 -1.5l.1 -.4l.1 -.3l.2 -.8l.3 -1.5l.3 -1.5l.2 -1.6l.1 -1.6v-.9l.1 -.8v-3.7l-.2 -2l-.2 -2l-.3 -1.9l-.4 -1.9l-.5 -1.9l-.6 -1.9l-.7 -1.7l-.8 -1.8l-.8 -1.7l-1 -1.7l-1 -1.7l-1.2 -1.6l-1.2 -1.6l-1.3 -1.5l-1.3 -1.5l-1.5 -1.4l-1.5 -1.4l-1.6 -1.2L750 428.5l-1.7 -1.1l-1.6 -.9l-.8 -.5l-.9 -.4l-1.7 -.8l-1.7 -.7l-1 -.3l-.8 -.3l-1.9 -.5l-1.8 -.4l-1.9 -.3l-1 -.2h-1l-2 -.2h-2" class="g7_1"/>
<path d="M755.6 492.3l-.9 -.2L692.8 478.7l-.7 -.1" class="g8_1"/>
<path d="M728 464.4l-.4 -.1l-.4 -.2l-.3 -.3l-.3 -.4l-.2 -.3l-.1 -.4v-.9l.1 -.4l.2 -.4l.3 -.4l.3 -.2l.4 -.2l.4 -.1l.5 -.1l.4 .1l.4 .1l.3 .2l.4 .2l.2 .4l.3 .4l.1 .4v.9l-.1 .2v.2l-.3 .3l-.2 .4l-.4 .3l-.3 .2l-.2 .1h-.2l-.2 .1h-.2Z" class="g4_1"/>
<path d="M703.5 432.4l-.4 -.1l-.4 -.3l-.3 -.2l-.3 -.4l-.2 -.4l-.1 -.4v-.8l.1 -.4l.2 -.4l.3 -.4l.3 -.3l.4 -.2l.4 -.1h.9l.4 .1l.3 .2l.4 .3l.2 .4l.3 .4l.1 .4v.8l-.1 .2v.2l-.3 .4l-.2 .4l-.4 .2l-.3 .3h-.3l-.1 .1h-.3l-.1 .1Z" class="g4_1"/>
<path d="M691.6 481.4l-.4 -.1l-.3 -.3l-.4 -.2l-.3 -.4L690 480l-.1 -.4v-.8l.1 -.4l.2 -.4l.3 -.4l.4 -.3l.3 -.2l.4 -.1h.9l.4 .1l.3 .2l.4 .3l.2 .4l.3 .4l.1 .4l.1 .4l-.1 .1v.3l-.1 .2v.2l-.3 .4l-.2 .4l-.4 .2l-.3 .3h-.2l-.2 .1h-.3l-.1 .1Z" class="g4_1"/>
<path d="M754.4 494.2l-.4 -.1l-.4 -.3l-.4 -.2l-.2 -.4l-.2 -.3l-.1 -.4l-.1 -.4l.1 -.5l.1 -.4l.2 -.4l.2 -.4l.4 -.3l.4 -.1l.4 -.1l.4 -.1l.4 .1l.4 .1l.4 .1l.3 .3l.3 .4l.2 .4l.1 .4l.1 .5v.2l-.1 .2v.2l-.1 .2l-.2 .3l-.3 .4l-.3 .2l-.4 .3h-.2l-.2 .1h-.3l-.1 .1Z" class="g4_1"/>
<path d="M728.3 568l-10.1 4.8l-.4 .2l-25 11.7l-.7 -.2l-.6 -1.4l-.6 -1.5l-.4 -1.4l-.4 -1.5l-.3 -1.3l-.3 -1.3l-.2 -1.3l-.2 -1.2l-.1 -1.4l-.1 -1.3l-.1 -1.3v-1.4l.1 -2.1l.1 -2l.2 -2l.3 -1.9l.4 -1.9l.5 -1.9l.6 -1.8l.7 -1.8l.8 -1.7l.8 -1.7l.9 -1.7l1.1 -1.7l1.1 -1.6l1.2 -1.6l1.3 -1.5l1.4 -1.5l1.4 -1.4l1.6 -1.4l1.5 -1.2l1.6 -1.2l1.6 -1.1l1.7 -.9l1.6 -.9l1.8 -.8l1.7 -.7l1.8 -.6l1.8 -.5l1.9 -.4l1.9 -.3l2 -.2l2 -.2h4l2 .2h1l1 .2l1.9 .3l1.8 .4l1.9 .5l.8 .3l1 .3l1.7 .7l1.7 .8l.9 .4l.8 .5l1.6 .9l1.7 1.1l1.5 1.2l1.6 1.2l1.4 1.4l1.5 1.4l1.4 1.5l1.3 1.5l1.2 1.6l1.2 1.6l1 1.7l1 1.7l.8 1.7l.8 1.7l.7 1.8l.6 1.8l.5 1.9l.4 1.9l.3 1.9l.2 2l.2 2v3.7l-.1 .8v.8l-.1 1.6l-.2 1.6l-.3 1.5l-.1 .4l-.1 .4l-.1 .8l-.2 .7l-.1 .4l-.1 .4l-.4 1.5l-.3 .7l-.2 .7l-.6 1.5l-.6 1.3l-.6 1.5l-.4 .6l-.4 .7L762 589l-.9 1.3l-.8 1.4l-1 1.2l-.3 .3l-.1 .1l-.1 .1v.1l-.5 .7l-1.1 1.2l-1.2 1.2l-1 1Z" class="g9_1"/>
<path d="M726.2 608.4l-2 -.1l-2 -.3l-1.9 -.3l-1.9 -.4l-1.8 -.5l-1.8 -.6l-1.7 -.7l-1.8 -.8l-1.6 -.9l-1.7 -1l-1.6 -1l-1.6 -1.2l-1.5 -1.2L701.7 598l-1.4 -1.4l-1.7 -1.8L697.1 593l-1.4 -1.9l-1.3 -1.9l-.6 -1.1l-.5 -1l-1 -2.1l-.1 -.1l.6 -.2l25 -11.7l.4 -.2L728.3 568L755 597.6v.1l-.2 .1l-.1 .2l-.4 .3l-.4 .3l-.7 .6l-1.4 1.2l-1.5 1.1l-1.5 1l-1.5 .9l-1.6 .9l-1.6 .8l-.8 .4l-.8 .3l-1.7 .6l-1.7 .6l-.9 .2l-.8 .2l-.5 .1l-.4 .1l-.9 .2l-.9 .1l-.9 .1l-.9 .1l-.9 .2h-1l-.9 .1h-.9l-1 .1Z" class="ga_1"/>
<path d="M692.1 584.6v-.1l.7 .2l-.6 .2Z" class="g6_1"/>
<path d="M718.2 572.8l2.3 -1.1m2.2 -1l2.3 -1.1m2.3 -1.1l1 -.5l1 1m1.7 2l1.8 1.9m1.7 1.9l1.8 1.9m1.7 1.9l1.7 2m1.7 1.9l1.8 1.9m1.7 1.9l1.8 1.9m1.6 1.9L750 592m1.8 2l1.8 1.9m-61.4 -11l.6 -.2l1.7 -.8m2.2 -1.1l2.3 -1m2.2 -1l2.3 -1m2.3 -1.1l2.2 -1m2.3 -1.2l2.2 -1m2.3 -1.1l2.3 -1m.7 -.4l.4 -.2m-28.1 5.9l.4 1.5l.4 1.4l.6 1.5l.6 1.4v.1l.1 .3l.1 .1l1 2.1l.5 1l.6 1.1l1.3 1.9l1.4 1.9l1.5 1.8l1.7 1.8l1.4 1.4l1.6 1.4l1.5 1.2l1.6 1.2l1.6 1l1.7 1l1.6 .9l1.8 .8l1.7 .7l1.8 .6l1.8 .5l1.9 .4l1.9 .3l2 .3l2 .1l2 .1l1 -.1h.9l.9 -.1h1l.9 -.2l.9 -.1l.9 -.1l.9 -.1l.9 -.2l.4 -.1l.5 -.1l.8 -.2l.9 -.2l1.7 -.6l1.7 -.6l.8 -.3l.8 -.4l1.6 -.8l1.6 -.9l1.5 -.9l1.5 -1l1.5 -1.1l1.4 -1.2l.7 -.6l.4 -.3l.4 -.3l.1 -.2l.2 -.1v-.1l1 -1l1.2 -1.2l1.1 -1.2l.5 -.7v-.1l.1 -.1l.1 -.1l.3 -.3l1 -1.2l.8 -1.4L762 589l.7 -1.3l.4 -.7l.4 -.6l.6 -1.5l.6 -1.3l.6 -1.5l.2 -.7l.3 -.7l.4 -1.5l.1 -.4l.1 -.4l.2 -.7l.1 -.8l.1 -.4l.1 -.4l.3 -1.5l.2 -1.6l.1 -1.6v-.8l.1 -.8v-3.7l-.2 -2l-.2 -2l-.3 -1.9l-.4 -1.9l-.5 -1.9l-.6 -1.8l-.7 -1.8l-.8 -1.7l-.8 -1.7l-1 -1.7l-1 -1.7l-1.2 -1.6l-1.2 -1.6l-1.3 -1.5L756 539.8l-1.5 -1.4L753.1 537l-1.6 -1.2L750 534.6l-1.7 -1.1l-1.6 -.9l-.8 -.5l-.9 -.4l-1.7 -.8l-1.7 -.7l-1 -.3l-.8 -.3l-1.9 -.5l-1.8 -.4l-1.9 -.3l-1 -.2h-1l-2 -.2h-4l-2 .2l-2 .2l-1.9 .3l-1.9 .4l-1.8 .5l-1.8 .6l-1.7 .7l-1.8 .8l-1.6 .9l-1.7 .9l-1.6 1.1l-1.6 1.2l-1.5 1.2l-1.6 1.4l-1.4 1.4l-1.4 1.5l-1.3 1.5l-1.2 1.6l-1.1 1.6l-1.1 1.7l-.9 1.7l-.8 1.7l-.8 1.7l-.7 1.8l-.6 1.8l-.5 1.9l-.4 1.9l-.3 1.9l-.2 2l-.1 2l-.1 2.1v1.4l.1 1.3l.1 1.3l.1 1.4l.2 1.2l.2 1.3l.3 1.3l.3 1.3" class="g7_1"/>
<path d="M755.5 598.2l-.8 -.2M692.8 584.7l-.7 -.2" class="g8_1"/>
<path d="M728 570.4l-.4 -.1l-.4 -.2l-.3 -.3l-.3 -.4l-.2 -.4l-.1 -.4v-.8l.1 -.4l.2 -.4l.3 -.3l.3 -.4l.4 -.1l.4 -.2h.9l.4 .2l.3 .1l.4 .4l.2 .3l.3 .4l.1 .4v.8l-.1 .2v.2l-.3 .4l-.2 .4l-.4 .3l-.3 .2l-.2 .1h-.2l-.2 .1h-.2Z" class="g4_1"/>
<path d="M691.6 587.3l-.4 -.1l-.3 -.2l-.4 -.3l-.3 -.4L690 586l-.1 -.4v-.9l.1 -.4l.2 -.4l.3 -.3l.4 -.4l.3 -.1l.4 -.2h.9l.4 .2l.3 .1l.4 .4l.2 .3l.3 .4l.1 .4l.1 .5h-.1v.4l-.1 .1v.3l-.3 .3l-.2 .4l-.4 .3l-.3 .2l-.2 .1h-.2l-.2 .1h-.2Z" class="g4_1"/>
<path d="M754.4 600.1L754 600l-.4 -.3l-.4 -.2l-.2 -.4l-.2 -.4l-.1 -.4l-.1 -.4l.1 -.4l.1 -.4l.2 -.4l.2 -.4l.4 -.3l.4 -.2l.4 -.1h.8l.4 .1l.4 .2l.3 .3l.3 .4l.2 .4l.1 .4l.1 .4v.2l-.1 .2v.2l-.1 .2l-.2 .4l-.3 .4l-.3 .2l-.4 .3h-.2l-.2 .1h-.3l-.1 .1Z" class="g4_1"/>
<path d="M692.7 694.7L717.8 683l.4 -.2L728.3 678L755 707.6v.1l-.3 .3Z" class="gb_1"/>
<path d="M728.3 678l-10.1 4.8l-.4 .2l-25.1 11.7l-.6 -.2l-.6 -1.4l-.6 -1.5l-.5 -1.4l-.4 -1.5l-.3 -1.3l-.2 -1.3l-.3 -1.3l-.1 -1.2l-.2 -1.4v-1.3l-.1 -2.6v-2.1l.2 -2.1l.2 -2l.3 -1.9l.4 -1.9l.5 -1.9l.6 -1.8l.7 -1.8l.7 -1.7l.9 -1.7l.9 -1.7l1.1 -1.7l1.1 -1.6l1.2 -1.6l1.3 -1.5l1.4 -1.5l1.4 -1.4l1.6 -1.4l1.5 -1.2l1.6 -1.1l1.6 -1.1l1.7 -1l1.6 -.9l1.8 -.7l1.7 -.8l1.8 -.5l1.8 -.5l1.9 -.4l1.9 -.4l2 -.2l1.9 -.1l2.1 -.1l2 .1l2 .1l.9 .1l1 .1l1.9 .4l1.9 .4l1.8 .5l.9 .2l.9 .3l1.8 .8l1.7 .7l1.7 .9l1.6 1l1.7 1.1l1.5 1.1l1.6 1.2l1.4 1.4l1.5 1.4l1.4 1.5l1.3 1.5l1.2 1.6l1.2 1.6l1 1.7l.9 1.7l.9 1.7l.8 1.7l.6 1.8l.6 1.8l.5 1.9l.5 1.9l.2 1.9l.3 2l.1 2.1l.1 2.1v1.5l-.1 .8v.9l-.2 1.6l-.2 1.6l-.2 1.5l-.4 1.5l-.2 .7l-.1 .4l-.1 .4l-.3 1.5l-.3 .7l-.3 .7l-.5 1.5l-.6 1.3l-.6 1.5l-.4 .6l-.4 .7l-.4 .6l-.3 .7l-.9 1.3l-.8 1.4l-1 1.2l-.3 .3l-.1 .1l-.1 .1v.1l-.5 .7l-1.1 1.2l-1.2 1.3l-1 .9Z" class="gb_1"/>
<path d="M726.1 718.4l-1.9 -.1l-2 -.3l-1.9 -.3l-1.9 -.4l-1.8 -.5l-1.8 -.6l-1.7 -.7l-1.8 -.8l-1.6 -.9l-1.7 -1l-1.6 -1l-1.6 -1.2l-1.5 -1.2L701.7 708l-1.4 -1.3l-1.7 -1.8L697.1 703l-.7 -1l-.7 -.9l-1.3 -1.9l-.6 -1.1l-.6 -1l-.5 -1l-.5 -1v-.2l.5 -.2l62 13.3l-.4 .3l-.4 .3l-.7 .6l-1.4 1.2l-1.5 1.1l-1.5 1.1l-1.6 .9l-1.5 .8l-1.6 .8l-.9 .4l-.7 .3l-1.7 .6l-1.7 .6l-.9 .2l-.9 .2l-.4 .1l-.5 .1l-.8 .2l-.9 .1l-.9 .1l-1 .1l-.8 .2h-1l-.9 .1h-1l-.9 .1Z" class="gc_1"/>
<path d="M692.1 694.6v-.1l.6 .2l-.5 .2Z" class="g6_1"/>
<path d="M718.2 682.8l2.3 -1m2.2 -1.1l2.2 -1.1m2.4 -1l1 -.6l1 1.1M731 681l1.8 1.9m1.7 1.9l1.8 1.9m1.7 1.9l1.7 2m1.7 1.9l1.8 1.9m1.7 1.9l1.7 1.9m1.7 2l1.7 1.9m1.8 1.9l1.7 1.9M690 688.7l.4 1.5l.5 1.4l.6 1.5l.6 1.4v.1l.1 .3v.2l.5 1l.5 1l.6 1l.6 1.1l1.3 1.9l.7 .9l.7 1l1.5 1.9l1.7 1.8l1.4 1.3l1.6 1.4l1.5 1.2l1.6 1.2l1.6 1l1.7 1l1.6 .9l1.8 .8l1.7 .7l1.8 .6l1.8 .5l1.9 .4l1.9 .3l2 .3l1.9 .1l2.1 .1l.9 -.1h1l.9 -.1h1l.8 -.2l1 -.1l.9 -.1l.9 -.1l.8 -.2l.5 -.1l.4 -.1l.9 -.2l.9 -.2l1.7 -.6l1.7 -.6l.7 -.3l.9 -.4l1.6 -.8l1.5 -.8l1.6 -.9l1.5 -1.1l1.5 -1.1l1.4 -1.2l.7 -.6l.4 -.3l.4 -.3l.3 -.3v-.1l1 -.9l1.2 -1.3l1.1 -1.2l.5 -.7v-.1l.1 -.1l.1 -.1l.3 -.3l1 -1.2l.8 -1.4L762 699l.3 -.7l.4 -.6l.4 -.7l.4 -.6l.6 -1.5l.6 -1.3l.5 -1.5l.3 -.7l.3 -.7l.3 -1.5l.1 -.4l.1 -.4l.2 -.7l.4 -1.5l.2 -1.5l.2 -1.6l.2 -1.6v-.9l.1 -.8v-1.5l-.1 -2.1l-.1 -2.1l-.3 -2l-.2 -1.9l-.5 -1.9l-.5 -1.9l-.6 -1.8l-.6 -1.8l-.8 -1.7l-.9 -1.7l-.9 -1.7l-1 -1.7l-1.2 -1.6l-1.2 -1.6l-1.3 -1.5L756 649.8l-1.5 -1.4L753.1 647l-1.6 -1.2L750 644.7l-1.7 -1.1l-1.6 -1l-1.7 -.9l-1.7 -.7l-1.8 -.8l-.9 -.3l-.9 -.2l-1.8 -.5l-1.9 -.4l-1.9 -.4l-1 -.1l-.9 -.1l-2 -.1l-2 -.1l-2.1 .1l-1.9 .1l-2 .2l-1.9 .4l-1.9 .4l-1.8 .5l-1.8 .5l-1.7 .8l-1.8 .7l-1.6 .9l-1.7 1l-1.6 1.1l-1.6 1.1l-1.5 1.2l-1.6 1.4l-1.4 1.4l-1.4 1.5l-1.3 1.5l-1.2 1.6l-1.1 1.6l-1.1 1.7l-.9 1.7l-.9 1.7l-.7 1.7l-.7 1.8l-.6 1.8l-.5 1.9l-.4 1.9l-.3 1.9l-.2 2l-.2 2.1v2.1l.1 2.6v1.3l.2 1.4l.1 1.2l.3 1.3l.2 1.3l.3 1.3M754.7 708l-62 -13.3m-.5 .2l.5 -.2l1.8 -.8m2.2 -1l2.3 -1.1m2.2 -1l2.3 -1m2.3 -1.1l2.2 -1m2.3 -1.2l2.2 -1m2.3 -1.1l2.3 -1m.7 -.4l.4 -.2" class="g7_1"/>
<path d="M755.5 708.2l-.8 -.2m-62 -13.3l-.6 -.2" class="g8_1"/>
<path d="M728 680.4l-.4 -.1l-.4 -.2l-.3 -.3l-.3 -.4l-.2 -.4l-.1 -.3v-.9l.1 -.4l.2 -.4l.3 -.3l.3 -.4l.4 -.1l.4 -.2h.9l.4 .2l.3 .1l.4 .4l.2 .3l.3 .4l.1 .4v.9l-.1 .1v.2l-.3 .4l-.2 .4l-.4 .3l-.3 .2l-.2 .1h-.2l-.2 .1h-.2Z" class="g4_1"/>
<path d="M691.6 697.3l-.4 -.1l-.4 -.2l-.3 -.3l-.3 -.4L690 696l-.1 -.4v-.9l.1 -.4l.2 -.4l.3 -.3l.3 -.4l.4 -.1l.4 -.1l.5 -.1l.4 .1l.3 .1l.4 .1l.4 .4l.2 .3l.3 .4l.1 .4v.9l-.1 .1v.3l-.3 .3l-.2 .4l-.4 .3l-.4 .2l-.2 .1h-.1l-.3 .1h-.1Z" class="g4_1"/>
<path d="M754.3 710.1l-.4 -.1l-.3 -.3l-.4 -.2l-.3 -.4l-.2 -.4l-.1 -.4v-.8l.1 -.4l.2 -.4l.3 -.4l.4 -.3l.3 -.2l.4 -.1h.9l.4 .1l.3 .2l.4 .3l.2 .4l.3 .4l.1 .4l.1 .4l-.1 .1v.3l-.1 .2v.2l-.3 .4l-.2 .4l-.4 .2l-.3 .3h-.2l-.2 .1h-.3l-.1 .1Z" class="g4_1"/>
<path d="M53.7 295.2h.7v-.8h-.7v.8Z" class="gd_1"/>
<path d="M53.7 295.2h.7v-.8h-.7v.8Z" class="gd_1"/>
<path d="M54.4 295.2h75.2v-.8H54.4v.8Z" class="gd_1"/>
<path d="M129.6 295.2h.8v-.8h-.8v.8Z" class="gd_1"/>
<path d="M130.4 295.2H616.7v-.8H130.4v.8Z" class="gd_1"/>
<path d="M616.7 295.2h.8v-.8h-.8v.8Z" class="gd_1"/>
<path d="M617.5 295.2H833.4v-.8H617.5v.8Z" class="gd_1"/>
<path d="M833.4 295.2h.8v-.8h-.8v.8Z" class="gd_1"/>
<path d="M833.4 295.2h.8v-.8h-.8v.8Z" class="gd_1"/>
<path d="M53.7 359.3h.7V295.2h-.7v64.1Z" class="gd_1"/>
<path d="M129.6 359.3h.8V295.2h-.8v64.1Z" class="gd_1"/>
<path d="M616.7 359.3h.8V295.2h-.8v64.1Z" class="gd_1"/>
<path d="M833.4 359.3h.8V295.2h-.8v64.1Z" class="gd_1"/>
<path fill-rule="evenodd" d="M54.6 387.7h75V360.2h-75v27.5Z" class="g0_1"/>
<path d="M62.3 387.7h59.4V360.2H62.3v27.5Z" class="g0_1"/>
<path d="M53.7 360.1h.7v-.8h-.7v.8Z" class="gd_1"/>
<path d="M54.4 360.1h75.2v-.8H54.4v.8Z" class="gd_1"/>
<path d="M129.6 360.1h.8v-.8h-.8v.8Z" class="gd_1"/>
<path d="M130.4 360.1H616.7v-.8H130.4v.8Z" class="gd_1"/>
<path d="M616.7 360.1h.8v-.8h-.8v.8Z" class="gd_1"/>
<path d="M833.4 360.1h.8v-.8h-.8v.8Z" class="gd_1"/>
<path d="M53.7 387.7h.7V360.1h-.7v27.6Z" class="gd_1"/>
<path d="M129.6 387.7h.8V360.1h-.8v27.6Z" class="gd_1"/>
<path d="M616.7 387.7h.8V360.1h-.8v27.6Z" class="gd_1"/>
<path d="M833.4 387.7h.8V360.1h-.8v27.6Z" class="gd_1"/>
<path fill-rule="evenodd" d="M54.6 508.9h75V388.5h-75V508.9Z" class="g0_1"/>
<path fill-rule="evenodd" d="M62.3 462.4h59.4V434.9H62.3v27.5Z" class="g0_1"/>
<path d="M229.5 483.6h55" class="ge_1"/>
<path d="M53.7 388.5h.7v-.8h-.7v.8Z" class="gd_1"/>
<path d="M54.4 388.5h75.2v-.8H54.4v.8Z" class="gd_1"/>
<path d="M129.6 388.5h.8v-.8h-.8v.8Z" class="gd_1"/>
<path d="M130.4 388.5H616.7v-.8H130.4v.8Z" class="gd_1"/>
<path d="M616.7 388.5h.8v-.8h-.8v.8Z" class="gd_1"/>
<path d="M833.4 388.5h.8v-.8h-.8v.8Z" class="gd_1"/>
<path d="M53.7 508.9h.7V388.5h-.7V508.9Z" class="gd_1"/>
<path d="M129.6 508.9h.8V388.5h-.8V508.9Z" class="gd_1"/>
<path d="M616.7 508.9h.8V388.5h-.8V508.9Z" class="gd_1"/>
<path d="M833.4 508.9h.8V388.5h-.8V508.9Z" class="gd_1"/>
<path fill-rule="evenodd" d="M54.6 619.7h75v-110h-75v110Z" class="g0_1"/>
<path fill-rule="evenodd" d="M62.3 578.4h59.4V550.9H62.3v27.5Z" class="g0_1"/>
<path d="M302.3 568.1h55" class="ge_1"/>
<path d="M53.7 509.7h.7v-.8h-.7v.8Z" class="gd_1"/>
<path d="M54.4 509.7h75.2v-.8H54.4v.8Z" class="gd_1"/>
<path d="M129.6 509.7h.8v-.8h-.8v.8Z" class="gd_1"/>
<path d="M130.4 509.7H616.7v-.8H130.4v.8Z" class="gd_1"/>
<path d="M616.7 509.7h.8v-.8h-.8v.8Z" class="gd_1"/>
<path d="M833.4 509.7h.8v-.8h-.8v.8Z" class="gd_1"/>
<path d="M53.7 619.7h.7v-110h-.7v110Z" class="gd_1"/>
<path d="M129.6 619.7h.8v-110h-.8v110Z" class="gd_1"/>
<path d="M616.7 619.7h.8v-110h-.8v110Z" class="gd_1"/>
<path d="M833.4 619.7h.8v-110h-.8v110Z" class="gd_1"/>
<path fill-rule="evenodd" d="M54.6 735.2h75V620.4h-75V735.2Z" class="g0_1"/>
<path fill-rule="evenodd" d="M62.3 691.5h59.4V664H62.3v27.5Z" class="g0_1"/>
<path d="M53.7 620.4h.7v-.7h-.7v.7Z" class="gd_1"/>
<path d="M54.4 620.4h75.2v-.7H54.4v.7Z" class="gd_1"/>
<path d="M129.6 620.4h.8v-.7h-.8v.7Z" class="gd_1"/>
<path d="M130.4 620.4H616.7v-.7H130.4v.7Z" class="gd_1"/>
<path d="M616.7 620.4h.8v-.7h-.8v.7Z" class="gd_1"/>
<path d="M833.4 620.4h.8v-.7h-.8v.7Z" class="gd_1"/>
<path d="M53.7 735.3h.7V620.4h-.7V735.3Z" class="gd_1"/>
<path d="M53.7 736.1h.7v-.8h-.7v.8Z" class="gd_1"/>
<path d="M53.7 736.1h.7v-.8h-.7v.8Z" class="gd_1"/>
<path d="M54.4 736.1h75.2v-.8H54.4v.8Z" class="gd_1"/>
<path d="M129.6 735.3h.8V620.4h-.8V735.3Z" class="gd_1"/>
<path d="M129.6 736.1h.8v-.8h-.8v.8Z" class="gd_1"/>
<path d="M130.4 736.1H616.7v-.8H130.4v.8Z" class="gd_1"/>
<path d="M616.7 735.3h.8V620.4h-.8V735.3Z" class="gd_1"/>
<path d="M616.7 736.1h.8v-.8h-.8v.8Z" class="gd_1"/>
<path d="M617.5 736.1H833.4v-.8H617.5v.8Z" class="gd_1"/>
<path d="M833.4 735.3h.8V620.4h-.8V735.3Z" class="gd_1"/>
<path d="M833.4 736.1h.8v-.8h-.8v.8Z" class="gd_1"/>
<path d="M833.4 736.1h.8v-.8h-.8v.8Z" class="gd_1"/>
<path fill-rule="evenodd" d="M54.6 819.3H438.9V791.8H54.6v27.5Z" class="g0_1"/>
<path d="M62.3 819.3H431V791.8H62.3v27.5Z" class="g0_1"/>
<path fill-rule="evenodd" d="M439.6 819.3H855.1V791.8H439.6v27.5Z" class="g0_1"/>
<path d="M447.5 819.3H847.2V791.8H447.5v27.5Z" class="g0_1"/>
<path d="M53.7 791.8h.7v-.7h-.7v.7Z" class="gd_1"/>
<path d="M53.7 791.8h.7v-.7h-.7v.7Z" class="gd_1"/>
<path d="M54.4 791.8H438.9v-.7H54.4v.7Z" class="gd_1"/>
<path d="M438.9 791.8h.7v-.7h-.7v.7Z" class="gd_1"/>
<path d="M439.6 791.8H855.1v-.7H439.6v.7Z" class="gd_1"/>
<path d="M855.1 791.8h.7v-.7h-.7v.7Z" class="gd_1"/>
<path d="M855.1 791.8h.7v-.7h-.7v.7Z" class="gd_1"/>
<path d="M53.7 819.3h.7V791.8h-.7v27.5Z" class="gd_1"/>
<path d="M438.9 819.3h.7V791.8h-.7v27.5Z" class="gd_1"/>
<path d="M855.1 819.3h.7V791.8h-.7v27.5Z" class="gd_1"/>
<path fill-rule="evenodd" d="M54.6 847.5H195.1V820H54.6v27.5Z" class="g9_1"/>
<path d="M62.3 847.5H187.2V820H62.3v27.5Z" class="g9_1"/>
<path fill-rule="evenodd" d="M195.8 847.5H322.3V820H195.8v27.5Z" class="g9_1"/>
<path d="M203.7 847.5H314.4V820H203.7v27.5Z" class="g9_1"/>
<path fill-rule="evenodd" d="M323 847.5H438.9V820H323v27.5Z" class="g9_1"/>
<path d="M330.9 847.5H431V820H330.9v27.5Z" class="g9_1"/>
<path fill-rule="evenodd" d="M439.6 847.5H581V820H439.6v27.5Z" class="g9_1"/>
<path d="M447.5 847.5H573.1V820H447.5v27.5Z" class="g9_1"/>
<path fill-rule="evenodd" d="M581.7 847.5h135V820h-135v27.5Z" class="g9_1"/>
<path d="M589.6 847.5H708.8V820H589.6v27.5Z" class="g9_1"/>
<path fill-rule="evenodd" d="M717.4 847.5H855.1V820H717.4v27.5Z" class="g9_1"/>
<path d="M725.3 847.5H847.2V820H725.3v27.5Z" class="g9_1"/>
<path d="M53.7 820h.7v-.7h-.7v.7Z" class="gd_1"/>
<path d="M54.4 820H195.1v-.7H54.4v.7Z" class="gd_1"/>
<path d="M195.1 820h.7v-.7h-.7v.7Z" class="gd_1"/>
<path d="M195.8 820H322.1v-.7H195.8v.7Z" class="gd_1"/>
<path d="M322.1 820h.7v-.7h-.7v.7Z" class="gd_1"/>
<path d="M322.9 820h116v-.7h-116v.7Z" class="gd_1"/>
<path d="M438.9 820h.7v-.7h-.7v.7Z" class="gd_1"/>
<path d="M439.6 820H581v-.7H439.6v.7Z" class="gd_1"/>
<path d="M581 820h.7v-.7H581v.7Z" class="gd_1"/>
<path d="M581.7 820h135v-.7h-135v.7Z" class="gd_1"/>
<path d="M716.6 820h.8v-.7h-.8v.7Z" class="gd_1"/>
<path d="M717.4 820H855.1v-.7H717.4v.7Z" class="gd_1"/>
<path d="M855.1 820h.7v-.7h-.7v.7Z" class="gd_1"/>
<path d="M53.7 847.5h.7V820h-.7v27.5Z" class="gd_1"/>
<path d="M195.1 847.5h.7V820h-.7v27.5Z" class="gd_1"/>
<path d="M322.1 847.5h.7V820h-.7v27.5Z" class="gd_1"/>
<path d="M438.9 847.5h.7V820h-.7v27.5Z" class="gd_1"/>
<path d="M581 847.5h.7V820H581v27.5Z" class="gd_1"/>
<path d="M716.6 847.5h.8V820h-.8v27.5Z" class="gd_1"/>
<path d="M855.1 847.5h.7V820h-.7v27.5Z" class="gd_1"/>
<path d="M101.9 943.5l-2 -.1l-2 -.3l-1 -.1l-.9 -.2l-1 -.2l-.9 -.2l-1.9 -.5l-1.8 -.6l-.9 -.3l-.8 -.4l-.9 -.4l-.9 -.4l-1.7 -.9l-1.7 -1l-.8 -.5l-.8 -.5l-.8 -.6l-.8 -.6l-1.5 -1.2l-.8 -.7l-.7 -.7l-1.5 -1.4l-.7 -.7l-.7 -.8l-.7 -.8l-.6 -.7l-.6 -.8l-.6 -.8l-.6 -.8l-.6 -.8l-.5 -.9l-.5 -.8l-.5 -.8l-.5 -.9l-.8 -1.7l-.4 -.9l-.4 -.8l-.7 -1.9l-.3 -.9l-.2 -.9l-.3 -1l-.3 -.9l-.2 -1l-.2 -.9l-.1 -1l-.2 -1l-.1 -1l-.1 -1l-.1 -1v-1l-.1 -2.1l.1 -2.1l.1 -2l.2 -2l.3 -2l.4 -1.9l.6 -1.9l.5 -1.8l.7 -1.8l.8 -1.8l.8 -1.7l1 -1.8l1 -1.6l1.2 -1.6l1.2 -1.6L74.4 876l1.4 -1.5L77.3 873l1.5 -1.3l1.5 -1.3l1.6 -1.1l1.6 -1.1l1.7 -1l1.7 -.8l1.8 -.8l1.7 -.7l1.8 -.6l1.9 -.5l1.9 -.4l1.9 -.3l2 -.3l2 -.1h5l1 .1l1 .1l1 .2l1 .1l.9 .2l1 .2l.9 .2l.9 .2l1 .3l.9 .3l.9 .3l1.8 .7l.8 .4l.9 .4l1.7 .8l.8 .5l.8 .5l.8 .5l.9 .6l1.5 1.1l.8 .6l.8 .7l.8 .6l.7 .7l.8 .8l.7 .7l1.3 1.4l1.3 1.4l1.1 1.5l1.1 1.6l1 1.5l1 1.6l.8 1.6l.8 1.7l.6 1.7l.6 1.7l.6 1.7l.4 1.9l.4 1.8l.2 1.9l.3 1.8l.1 2l-1.2 -.7l-1.1 -.6l-1.1 -.6l-1.1 -.6l-1.1 -.5l-1.1 -.5l-1.1 -.4l-1.1 -.4l-1.1 -.3l-1.2 -.3l-1.1 -.2l-1.1 -.2l-1.2 -.2l-1.1 -.1h-1.1l-1.1 -.1l-1.2 .1h-1.2l-1.1 .1l-1.1 .2l-1.2 .2l-1.2 .2l-1.1 .3l-1.1 .3l-1.2 .4l-1.2 .4l-1.2 .5l-1.1 .5l-1.2 .6l-1.2 .6l-1.1 .6l-.6 .3l-.6 .4l.6 -.4l.6 -.3l1.1 -.6l1.2 -.6l1.2 -.6l1.1 -.5l1.2 -.5l1.2 -.4l1.2 -.4l1.1 -.3l1.1 -.3l1.2 -.2l1.2 -.2l1.1 -.2l1.1 -.1h1.2l1.2 -.1l1.1 .1h1.1l1.1 .1l1.2 .2l1.1 .2l1.1 .2l1.2 .3l1.1 .3l1.1 .4l1.1 .4l1.1 .5l1.1 .5l1.1 .6l1.1 .6l1.1 .6l1.2 .7v2.2H103.5h40.1l-.1 2v1l-.1 1l-.1 1l-.2 1l-.3 1.9l-.1 .5l-.1 .2v.3l-.2 .9l-.3 .9l-.2 1l-.6 1.8l-.3 .9l-.4 .9l-.4 .9l-.4 .8l-.2 .4l-.2 .5l-.4 .8l-.5 .9l-.5 .8l-.1 .2l-.1 .2l-.3 .4l-.5 .9l-.6 .7l-.5 .8l-.6 .8l-.6 .8l-.7 .8l-.6 .7l-.7 .8l-.7 .7l-.7 .7l-.8 .7l-.7 .7l-.8 .7l-.8 .6l-.8 .6l-.8 .6l-.7 .6l-.9 .5l-.8 .5l-.8 .5l-.8 .5l-1.7 .9l-.9 .4l-.8 .4l-.9 .4l-.9 .3l-.3 .1h-.2l-.4 .2l-.9 .3l-1 .3l-.9 .2l-.5 .1l-.4 .1l-1 .2l-.9 .2l-.5 .1h-.5l-1 .2l-1 .1l-1 .1h-1l-1 .1h-1Z" class="gf_1"/>
<path d="M174.3 903.5H143.6m0 0H103.5m40.1 0v-2.2l-.1 -2l-.3 -1.8l-.2 -1.9l-.4 -1.8l-.4 -1.9l-.6 -1.7l-.6 -1.7l-.6 -1.7l-.8 -1.7l-.8 -1.6l-1 -1.6l-1 -1.5l-1.1 -1.6l-1.1 -1.5l-1.3 -1.4L132 874.5l-.7 -.7l-.8 -.8l-.7 -.7l-.8 -.6l-.8 -.7l-.8 -.6l-1.5 -1.1l-.9 -.6l-.8 -.5l-.8 -.5l-.8 -.5l-1.7 -.8L120 866l-.8 -.4l-1.8 -.7l-.9 -.3l-.9 -.3l-1 -.3l-.9 -.2l-.9 -.2l-1 -.2l-.9 -.2l-1 -.1l-1 -.2l-1 -.1l-1 -.1h-5l-2 .1l-2 .3l-1.9 .3l-1.9 .4l-1.9 .5l-1.8 .6l-1.7 .7l-1.8 .8l-1.7 .8l-1.7 1l-1.6 1.1l-1.6 1.1l-1.5 1.3L77.3 873l-1.5 1.5L74.4 876l-1.3 1.5l-1.2 1.6l-1.2 1.6l-1 1.6l-1 1.8l-.8 1.7l-.8 1.8l-.7 1.8l-.5 1.8l-.6 1.9l-.4 1.9l-.3 2l-.2 2l-.1 2l-.1 2.1l.1 2.1v1l.1 1l.1 1l.1 1l.2 1l.1 1l.2 .9l.2 1l.3 .9l.3 1l.2 .9l.3 .9l.7 1.9l.4 .8l.4 .9l.8 1.7l.5 .9l.5 .8l.5 .8l.5 .9l.6 .8l.6 .8l.6 .8l.6 .8l.6 .7l.7 .8l.7 .8l.7 .7l1.5 1.4l.7 .7l.8 .7l1.5 1.2l.8 .6l.8 .6l.8 .5l.8 .5l1.7 1l1.7 .9l.9 .4l.9 .4l.8 .4l.9 .3l1.8 .6l1.9 .5l.9 .2l1 .2l.9 .2l1 .1l2 .3l2 .1l2 .1h1l1 -.1h1l1 -.1l1 -.1l1 -.2h.5l.5 -.1l.9 -.2l1 -.2l.4 -.1l.5 -.1l.9 -.2l1 -.3l.9 -.3l.4 -.2h.2l.3 -.1l.9 -.3l.9 -.4l.8 -.4l.9 -.4l1.7 -.9l.8 -.5l.8 -.5l.8 -.5l.9 -.5l.7 -.6l.8 -.6l.8 -.6l.8 -.6l.8 -.7l.7 -.7l.8 -.7l.7 -.7l.7 -.7l.7 -.8l.6 -.7l.7 -.8l.6 -.8l.6 -.8l.5 -.8l.6 -.7l.5 -.9l.3 -.4l.1 -.2l.1 -.2l.5 -.8l.5 -.9l.4 -.8l.2 -.5l.2 -.4l.4 -.8l.4 -.9l.4 -.9l.3 -.9l.6 -1.8l.2 -1l.3 -.9l.2 -.9v-.3l.1 -.2l.1 -.5l.3 -1.9l.2 -1l.1 -1l.1 -1v-1l.1 -2" class="gg_1"/>
<path d="M143.6 901.3l-1.2 -.7l-1.1 -.6l-1.1 -.6l-1.1 -.6l-1.1 -.5l-1.1 -.5l-1.1 -.4l-1.1 -.4l-1.1 -.3l-1.2 -.3l-1.1 -.2l-1.1 -.2l-1.2 -.2l-1.1 -.1h-1.1l-1.1 -.1l-1.2 .1h-1.2l-1.1 .1l-1.1 .2l-1.2 .2l-1.2 .2l-1.1 .3l-1.1 .3l-1.2 .4l-1.2 .4l-1.2 .5l-1.1 .5l-1.2 .6l-1.2 .6l-1.1 .6l-.6 .3l-.6 .4" class="gh_1"/>
<path d="M104.4 906h-.3l-.2 -.1l-.3 -.1l-.4 -.2l-.2 -.1l-.2 -.2l-.1 -.2l-.2 -.2l-.1 -.2l-.1 -.2l-.1 -.3V904l-.1 -.3v-.2l.1 -.5l.1 -.5l.2 -.4l.3 -.4l.4 -.3l.4 -.3l.5 -.1h1.2l.3 .1l.2 .1l.2 .2l.2 .1l.2 .2l.1 .2l.2 .2l.2 .4l.1 .2l.1 .3v1l-.1 .1v.1l-.1 .3l-.1 .2l-.1 .2l-.1 .1h-.1v.1l-.1 .2l-.2 .2h-.1l-.1 .1l-.2 .1l-.2 .1l-.3 .1h-.1l-.1 .1h-.4l-.1 .1Z" class="g4_1"/>
<path d="M173.3 906h-.2l-.2 -.1l-.3 -.1l-.4 -.2l-.2 -.1l-.2 -.2l-.2 -.2l-.1 -.2l-.1 -.2l-.1 -.2l-.1 -.3V904l-.1 -.3v-.2l.1 -.5l.1 -.5l.2 -.4l.3 -.4l.4 -.3l.4 -.3l.5 -.1h1.2l.2 .1l.2 .1l.3 .2l.1 .1l.3 .2l.1 .2l.2 .2l.2 .4l.1 .2v.3l.1 .2v.5l-.1 .3v.2l-.1 .3l-.1 .2l-.1 .2l-.1 .1h-.1v.1l-.1 .2l-.3 .2H175v.1l-.3 .1l-.2 .1l-.2 .1h-.1l-.1 .1h-.5v.1Z" class="g4_1"/>
<path d="M251.5 943.5l-2 -.1l-1.9 -.2l-1 -.2l-.9 -.2l-1 -.2l-.9 -.2l-1.9 -.5l-1.8 -.6l-.8 -.3l-.9 -.4l-.9 -.4l-.9 -.4l-1.6 -.9l-1.7 -.9l-.8 -.6l-.8 -.5l-.8 -.6l-.8 -.6l-1.5 -1.2l-.7 -.7l-.8 -.6l-1.4 -1.4L225 931l-.7 -.8l-.7 -.7l-.6 -.8l-.7 -.8l-.6 -.8l-.5 -.8l-.6 -.8l-.5 -.8l-.5 -.8l-.5 -.9l-.5 -.8l-.8 -1.7l-.4 -.9l-.4 -.9l-.7 -1.8L216 916l-.2 -.9l-.3 -1l-.2 -.9l-.3 -1l-.2 -.9l-.1 -1l-.2 -1l-.1 -1l-.1 -1l-.1 -1v-1l-.1 -1.1v-1l.1 -2.1l.1 -2l.2 -2l.3 -2l.5 -1.9l.5 -1.9l.5 -1.8l.7 -1.8l.8 -1.8l.8 -1.7l1 -1.7l1 -1.7l1.1 -1.6l1.3 -1.6l1.3 -1.5l1.4 -1.5l1.4 -1.4l1.5 -1.4l1.5 -1.2l1.6 -1.2l1.6 -1l1.7 -1l1.6 -.9l1.8 -.7l1.7 -.7l1.8 -.6l1.9 -.6l1.9 -.4l1.9 -.3l1.9 -.2l2 -.2h4l1 .1l1 .1l1 .1l1 .1l.9 .1l1 .2l.9 .2l1 .2l.9 .3l.9 .3l.9 .2l.9 .4l1.8 .7l.8 .3l.9 .4l1.6 .9l.9 .4l.8 .6l.8 .5l.8 .5l1.6 1.2l.7 .6l.8 .6l.8 .7l.7 .7l.8 .7l.7 .7l1.3 1.4l1.2 1.5l1.2 1.4l1.1 1.6l1 1.5l.9 1.6l.8 1.6l.8 1.7l.6 1.7l.6 1.7l.6 1.7l.4 1.9l.4 1.8l.3 1.8l.2 1.9l.1 2l-1.1 -.7l-1.1 -.7l-1.1 -.6l-1.1 -.5l-1.2 -.5l-1 -.5l-1.1 -.4l-1.1 -.3l-1.2 -.4l-1.1 -.3l-1.1 -.2l-1.1 -.2l-1.1 -.2l-1.2 -.1h-4.5l-1.1 .1l-1.2 .2l-1.1 .2l-1.2 .2l-1.1 .3l-1.1 .4l-1.2 .3l-1.2 .4l-1.1 .5l-1.1 .5l-1.2 .5L259 900l-1.1 .7l-.6 .3l-.6 .4l.6 -.4l.6 -.3L259 900l1.2 -.6l1.2 -.5l1.1 -.5l1.1 -.5l1.2 -.4l1.2 -.3l1.1 -.4l1.1 -.3l1.2 -.2l1.1 -.2l1.2 -.2l1.1 -.1h4.5l1.2 .1l1.1 .2l1.1 .2l1.1 .2l1.1 .3l1.2 .4l1.1 .3l1.1 .4l1 .5l1.2 .5l1.1 .5l1.1 .6l1.1 .7l1.1 .7v2.2H253.2h39.7l-.1 2v1l-.1 1l-.1 1l-.1 .9l-.4 2l-.1 .4v.3l-.1 .2l-.2 1l-.2 .9l-.3 .9l-.6 1.9l-.3 .8l-.3 .9l-.4 .9l-.4 .9l-.2 .4l-.2 .4l-.5 .9l-.4 .8l-.5 .9l-.2 .1l-.1 .2l-.2 .5l-.5 .8l-.6 .8l-.6 .8l-.5 .8l-.6 .7l-.7 .8l-.6 .7l-.7 .8l-.7 .8l-.7 .7l-.8 .7l-.7 .6l-.8 .7l-.8 .6l-.7 .6l-.8 .6l-.8 .6l-.8 .5l-.8 .6l-.8 .5l-.9 .4l-1.6 .9l-.9 .4l-.8 .4l-.9 .4l-.9 .3l-.3 .1h-.2l-.4 .2l-.9 .3l-.9 .3l-.9 .2l-.5 .1l-.5 .1l-.9 .2l-1 .2l-.5 .1l-.4 .1l-1 .1l-1 .1l-1 .1h-1l-1 .1h-.9Z" class="gf_1"/>
<path d="M292.9 903.6H253.2m39.7 0v-2.2l-.1 -2l-.2 -1.9l-.3 -1.8l-.4 -1.8l-.4 -1.9l-.6 -1.7l-.6 -1.7l-.6 -1.7l-.8 -1.7l-.8 -1.6l-.9 -1.6l-1 -1.5l-1.1 -1.6l-1.2 -1.4L282.7 876l-1.3 -1.4l-.7 -.7l-.8 -.7l-.7 -.7l-.8 -.7l-.8 -.6l-.7 -.6l-1.6 -1.2l-.8 -.5l-.8 -.5l-.8 -.6l-.9 -.4l-1.6 -.9l-.9 -.4l-.8 -.3l-1.8 -.7l-.9 -.4l-.9 -.2l-.9 -.3l-.9 -.3l-1 -.2l-.9 -.2l-1 -.2l-.9 -.1l-1 -.1l-1 -.1l-1 -.1l-1 -.1h-4l-2 .2l-1.9 .2l-1.9 .3l-1.9 .4l-1.9 .6l-1.8 .6l-1.7 .7l-1.8 .7l-1.6 .9l-1.7 1l-1.6 1l-1.6 1.2l-1.5 1.2l-1.5 1.4l-1.4 1.4l-1.4 1.5l-1.3 1.5l-1.3 1.6l-1.1 1.6l-1 1.7l-1 1.7l-.8 1.7l-.8 1.8l-.7 1.8l-.5 1.8l-.5 1.9l-.5 1.9l-.3 2l-.2 2l-.1 2l-.1 2.1v1l.1 1.1v1l.1 1l.1 1l.1 1l.2 1l.1 1l.2 .9l.3 1l.2 .9l.3 1l.2 .9l.3 .9l.7 1.8l.4 .9l.4 .9l.8 1.7l.5 .8l.5 .9l.5 .8l.5 .8l.6 .8l.5 .8l.6 .8l.7 .8l.6 .8l.7 .7l.7 .8l.7 .8l1.4 1.4l.8 .6l.7 .7l1.5 1.2l.8 .6l.8 .6l.8 .5l.8 .6l1.7 .9l1.6 .9l.9 .4l.9 .4l.9 .4l.8 .3l1.8 .6l1.9 .5l.9 .2l1 .2l.9 .2l1 .2l1.9 .2l2 .1l2.1 .1h.9l1 -.1h1l1 -.1l1 -.1l1 -.1l.4 -.1l.5 -.1l1 -.2l.9 -.2l.5 -.1l.5 -.1l.9 -.2l.9 -.3l.9 -.3l.4 -.2h.2l.3 -.1l.9 -.3l.9 -.4l.8 -.4l.9 -.4l1.6 -.9l.9 -.4l.8 -.5l.8 -.6l.8 -.5l.8 -.6l.8 -.6l.7 -.6l.8 -.6l.8 -.7l.7 -.6l.8 -.7l.7 -.7l.7 -.8l.7 -.8l.6 -.7l.7 -.8l.6 -.7l.5 -.8l.6 -.8l.6 -.8l.5 -.8l.2 -.5l.1 -.2l.2 -.1l.5 -.9l.4 -.8l.5 -.9l.2 -.4l.2 -.4l.4 -.9l.4 -.9l.3 -.9l.3 -.8l.6 -1.9l.3 -.9l.2 -.9l.2 -1l.1 -.2v-.3l.1 -.4l.4 -2l.1 -.9l.1 -1l.1 -1v-1l.1 -2" class="gi_1"/>
<path d="M292.9 901.4l-1.1 -.7l-1.1 -.7l-1.1 -.6l-1.1 -.5l-1.2 -.5l-1 -.5l-1.1 -.4l-1.1 -.3l-1.2 -.4l-1.1 -.3l-1.1 -.2l-1.1 -.2l-1.1 -.2l-1.2 -.1h-4.5l-1.1 .1l-1.2 .2l-1.1 .2l-1.2 .2l-1.1 .3l-1.1 .4l-1.2 .3l-1.2 .4l-1.1 .5l-1.1 .5l-1.2 .5L259 900l-1.1 .7l-.6 .3l-.6 .4" class="gj_1"/>
<path d="M254 906.1l-.3 -.1h-.2l-.2 -.1l-.5 -.2l-.2 -.2l-.2 -.2l-.1 -.2l-.2 -.2l-.1 -.2l-.1 -.2l-.1 -.2V904l-.1 -.2v-.2l.1 -.5l.1 -.5l.2 -.5l.3 -.3l.4 -.4l.5 -.2l.4 -.1l.5 -.1l.5 .1h.2l.3 .1l.2 .1l.2 .1l.2 .2l.2 .2l.1 .1l.2 .2l.2 .5l.1 .2v.3l.1 .2v.5l-.1 .2v.3l-.1 .2l-.1 .2l-.1 .2l-.1 .1l-.1 .1l-.1 .2l-.2 .2h-.1v.1l-.1 .1l-.2 .1l-.2 .1l-.3 .1h-.2l-.2 .1h-.3Z" class="g4_1"/>
<path d="M292.6 906.1l-.2 -.1h-.3l-.2 -.1l-.4 -.2l-.2 -.2l-.2 -.2l-.2 -.2l-.1 -.2l-.2 -.2v-.2l-.1 -.2l-.1 -.3v-.9l.2 -.5l.2 -.5l.3 -.3l.4 -.4l.4 -.2l.5 -.1l.5 -.1l.5 .1h.2l.2 .1l.2 .1l.2 .1l.2 .2l.2 .2l.2 .1l.1 .2l.3 .5l.1 .2v.3l.1 .2v.5l-.1 .2v.3l-.1 .2l-.1 .2l-.2 .2l-.1 .1v.1l-.2 .2l-.2 .2l-.1 .1l-.1 .1l-.2 .1l-.2 .1l-.2 .1h-.2l-.3 .1h-.2Z" class="g4_1"/>
<path d="M379 943.5l-2 -.1l-2 -.2l-.9 -.2l-1 -.1l-1 -.2l-.9 -.3l-1.8 -.5l-1.8 -.6l-.9 -.3l-.9 -.4l-.8 -.4l-.9 -.4l-1.7 -.8l-1.6 -1l-.8 -.5l-.8 -.6l-.8 -.6l-.8 -.5l-1.5 -1.3l-.8 -.6l-.8 -.7l-1.4 -1.4l-.7 -.8l-.7 -.7l-.7 -.8l-.6 -.8l-.6 -.8l-.6 -.8l-.6 -.8l-.6 -.8l-.5 -.8l-.5 -.8l-.5 -.9l-.4 -.8l-.9 -1.7l-.4 -.9l-.4 -.9l-.6 -1.8l-.4 -.9l-.2 -.9l-.3 -1l-.2 -.9l-.2 -1l-.2 -.9l-.2 -1l-.2 -1l-.1 -1l-.1 -1l-.1 -1v-5.2l.1 -2l.2 -2l.4 -2l.4 -1.9l.5 -1.9l.6 -1.8l.6 -1.8l.8 -1.8l.9 -1.7l.9 -1.7l1 -1.7l1.2 -1.6l1.2 -1.5l1.3 -1.6l1.4 -1.5l1.4 -1.4l1.6 -1.3l1.5 -1.3l1.6 -1.2l1.6 -1l1.6 -1l1.7 -.9l1.7 -.7l1.8 -.7l1.8 -.6l1.8 -.5l1.9 -.4l1.9 -.4l2 -.2l2 -.1l2 -.1h1l1 .1h1l1 .1l1 .1l1 .1l.9 .2l1 .2l.9 .1l.9 .3l.9 .2l1 .3l.9 .2l.9 .4l1.7 .7l.9 .3l.8 .4l1.7 .9l.8 .5l.9 .5l.8 .5l.8 .5l1.6 1.2l.7 .6l.8 .7l.8 .6l.7 .7l.8 .7l.7 .7l1.3 1.4l1.2 1.5l1.2 1.5l1.1 1.5l1 1.5l.9 1.6l.8 1.6l.8 1.7l.7 1.7l.6 1.7l.5 1.8l.4 1.8l.4 1.8l.3 1.9l.2 1.8l.1 2l-1.1 -.7l-1.1 -.6l-1.1 -.6l-1.1 -.6l-1.1 -.5l-1.1 -.5l-1.1 -.4l-1.1 -.3l-1.2 -.4l-1.1 -.3l-1.1 -.2l-1.1 -.2l-1.1 -.2l-1.2 -.1h-4.5l-1.1 .1l-1.2 .2l-1.1 .2l-1.2 .2l-1.1 .3l-1.1 .4l-1.2 .3l-1.2 .4l-1.1 .5l-1.2 .5l-1.1 .6l-1.2 .6l-1.2 .6l-.6 .3l-.5 .4l.5 -.4l.6 -.3l1.2 -.6l1.2 -.6l1.1 -.6l1.2 -.5l1.1 -.5l1.2 -.4l1.2 -.3l1.1 -.4l1.1 -.3l1.2 -.2l1.1 -.2l1.2 -.2l1.1 -.1h4.5l1.2 .1l1.1 .2l1.1 .2l1.1 .2l1.1 .3l1.2 .4l1.1 .3l1.1 .4l1.1 .5l1.1 .5l1.1 .6l1.1 .6l1.1 .6l1.1 .7v2.2H380.6h39.8v2l-.1 1l-.1 1l-.1 1l-.1 1l-.4 1.9l-.1 .5v.2l-.1 .2l-.2 1l-.2 .9l-.3 1l-.6 1.8l-.3 .9l-.3 .9l-.4 .8l-.4 .9l-.2 .4l-.2 .4l-.5 .9l-.4 .8l-.5 .9l-.2 .2l-.1 .2l-.2 .4l-.5 .8l-.6 .8l-.6 .8l-.5 .8l-.6 .8l-.7 .7l-.6 .8l-.7 .7l-.7 .8l-.7 .7l-.8 .7l-.7 .7l-.8 .6l-.8 .6l-.7 .7l-.8 .5l-.8 .6l-.8 .6l-.8 .5l-.9 .5l-.8 .5l-1.7 .8l-.8 .4l-.9 .4l-.9 .4l-.8 .3l-.3 .1l-.2 .1l-.4 .1l-.9 .3l-1 .3l-.9 .2l-.4 .1l-.5 .2l-.9 .2l-1 .1l-.5 .1l-.4 .1l-1 .1l-1 .1l-1 .1h-1l-1 .1h-1Z" class="gf_1"/>
<path d="M406.5 903.6H381.3M381 862.8l-2 .1l-2 .1l-2 .2l-1.9 .4l-1.9 .4l-1.8 .5l-1.8 .6l-1.8 .7l-1.7 .7l-1.7 .9l-1.6 1l-1.6 1l-1.6 1.2l-1.5 1.3l-1.6 1.3l-1.4 1.4l-1.4 1.5l-1.3 1.6l-1.2 1.5l-1.2 1.6l-1 1.7l-.9 1.7l-.9 1.7l-.8 1.8l-.6 1.8l-.6 1.8l-.5 1.9l-.4 1.9l-.4 2l-.2 2l-.1 2v5.2l.1 1l.1 1l.1 1l.2 1l.2 1l.2 .9l.2 1l.2 .9l.3 1l.2 .9l.4 .9l.6 1.8l.4 .9l.4 .9l.9 1.7l.4 .8l.5 .9l.5 .8l.5 .8l.6 .8l.6 .8l.6 .8l.6 .8l.6 .8l.7 .8l.7 .7l.7 .8l1.4 1.4l.8 .7l.8 .6l1.5 1.3l.8 .5l.8 .6l.8 .6l.8 .5l1.6 1l1.7 .8l.9 .4l.8 .4l.9 .4l.9 .3l1.8 .6l1.8 .5l.9 .3l1 .2l1 .1l.9 .2l2 .2l2 .1l2 .1h1l1 -.1h1l1 -.1l1 -.1l1 -.1l.4 -.1l.5 -.1l1 -.1l.9 -.2l.5 -.2l.4 -.1l.9 -.2l1 -.3l.9 -.3l.4 -.1l.2 -.1l.3 -.1l.8 -.3l.9 -.4l.9 -.4l.8 -.4l1.7 -.8l.8 -.5l.9 -.5l.8 -.5l.8 -.6l.8 -.6l.8 -.5l.7 -.7l.8 -.6l.8 -.6l.7 -.7l.8 -.7l.7 -.7l.7 -.8l.7 -.7l.6 -.8l.7 -.7l.6 -.8l.5 -.8l.6 -.8l.6 -.8l.5 -.8l.2 -.4l.1 -.2l.2 -.2l.5 -.9l.4 -.8l.5 -.9l.2 -.4l.2 -.4l.4 -.9l.4 -.8l.3 -.9l.3 -.9l.6 -1.8l.3 -1l.2 -.9l.2 -1l.1 -.2V912l.1 -.5l.4 -1.9l.1 -1l.1 -1l.1 -1l.1 -1v-4.2l-.1 -2l-.2 -1.8l-.3 -1.9l-.4 -1.8l-.4 -1.8l-.5 -1.8l-.6 -1.7l-.7 -1.7l-.8 -1.7l-.8 -1.6l-.9 -1.6l-1 -1.5L412.6 879l-1.2 -1.5L410.2 876l-1.3 -1.4l-.7 -.7l-.8 -.7l-.7 -.7l-.8 -.6l-.8 -.7l-.7 -.6l-1.6 -1.2l-.8 -.5l-.8 -.5l-.9 -.5l-.8 -.5l-1.7 -.9l-.8 -.4l-.9 -.3l-1.7 -.7l-.9 -.4l-.9 -.2l-1 -.3l-.9 -.2l-.9 -.3l-.9 -.1l-1 -.2l-.9 -.2l-1 -.1l-1 -.1l-1 -.1h-1l-1 -.1h-1" class="gk_1"/>
<path d="M420.4 901.4l-1.1 -.7l-1.1 -.6l-1.1 -.6l-1.1 -.6l-1.1 -.5l-1.1 -.5l-1.1 -.4l-1.1 -.3l-1.2 -.4l-1.1 -.3l-1.1 -.2l-1.1 -.2l-1.1 -.2l-1.2 -.1h-4.5l-1.1 .1l-1.2 .2l-1.1 .2l-1.2 .2l-1.1 .3l-1.1 .4l-1.2 .3l-1.2 .4l-1.1 .5l-1.2 .5l-1.1 .6l-1.2 .6l-1.2 .6l-.6 .3l-.5 .4" class="gl_1"/>
<path d="M420.4 903.6h-2.1m-2.1 0H414m-2.1 0h-2.1m-2.2 0h-1.1m-25.2 0h-.7" class="gm_1"/>
<path d="M381.4 906.1h-.2l-.3 -.1l-.2 -.1l-.4 -.2l-.2 -.2l-.2 -.1l-.2 -.2l-.1 -.2l-.2 -.3v-.2l-.1 -.2l-.1 -.2v-1l.2 -.5l.2 -.4l.3 -.4l.4 -.4l.4 -.2l.5 -.1l.5 -.1l.5 .1h.2l.2 .1l.2 .1l.3 .1l.1 .2l.2 .2l.2 .2l.1 .2l.3 .4l.1 .2v.3l.1 .2v.5l-.1 .3v.2l-.1 .2l-.1 .2l-.2 .3v.1h-.1v.1l-.2 .2l-.2 .1l-.1 .1v.1l-.3 .1l-.2 .1l-.2 .1h-.1l-.1 .1h-.5Z" class="g4_1"/>
<path d="M405.2 906.1H405l-.3 -.1l-.2 -.1l-.4 -.2l-.2 -.2l-.2 -.1l-.2 -.2l-.1 -.2l-.2 -.3v-.2l-.1 -.2l-.1 -.2v-1l.2 -.5l.2 -.4l.3 -.4l.4 -.4l.4 -.2l.5 -.1l.5 -.1l.5 .1h.2l.2 .1l.2 .1l.2 .1l.2 .2l.2 .2l.2 .2l.1 .2l.3 .4l.1 .2v.3l.1 .2v.5l-.1 .3v.2l-.1 .2l-.2 .2l-.1 .3l-.1 .1v.1l-.2 .2l-.2 .1l-.1 .1l-.1 .1l-.2 .1l-.2 .1l-.2 .1h-.1l-.1 .1h-.5Z" class="g4_1"/>
<path d="M500.4 949.4l-1.8 -.1l-1.7 -.1L495 949l-1.9 -.2l-1.8 -.4l-1.8 -.4l-1.8 -.5l-1.7 -.6l-1.7 -.6l-1.6 -.8l-1.7 -.8l-1.6 -.9l-1.5 -1l-1.6 -1l-1.5 -1.2l-1.4 -1.2l-1.5 -1.3l-1.3 -1.3l-.8 -.9l-.7 -.7l-.8 -.9l-.6 -.8l-.7 -.9l-.7 -.8l-1.2 -1.7l-.5 -.9l-.6 -.9l-.5 -.9l-.5 -.9l-.9 -1.8l-.4 -1l-.4 -.9l-.7 -1.9l-.4 -1l-.3 -1l-.3 -1l-.2 -1l-.2 -1l-.2 -1l-.2 -1.1l-.2 -1l-.1 -1.1l-.1 -1.1l-.1 -1.1v-1l-.1 -1.1v-1.1l.1 -2.2l.1 -2.2l.2 -2.1l.4 -2.1l.4 -2.1l.5 -2l.7 -2l.7 -1.9l.8 -1.9L463 886l1 -1.8l1.1 -1.8l1.2 -1.7l1.4 -1.7l1.4 -1.6l1.5 -1.6l1.5 -1.6l1.6 -1.4l1.7 -1.3l1.7 -1.3l1.7 -1.1l1.7 -1l1.8 -1l1.9 -.8l1.9 -.7l1.9 -.7l1.9 -.5l2.1 -.5l2 -.3l2.1 -.3l2.1 -.1h5.4l1.1 .1l1.1 .1l1 .2l1 .1l1.1 .2l.9 .2l1.1 .3l.9 .2l1 .3l1 .3l.9 .4l1.9 .7l.9 .4l1 .4l1.8 1l.8 .5l.9 .5l.9 .6l.9 .5l.8 .6l.8 .7l.8 .6l.9 .7l.8 .7l.8 .7l.8 .8l.8 .8l1.4 1.6l.8 .8l.6 .8l1.3 1.7l.7 .8l.6 .9l1 1.8l1.1 1.8l.9 1.8l.4 .9l.4 1l.4 1l.3 .9l.7 2l.5 2l.2 1l.2 1.1l.2 1l.2 1.1l.2 2.1l.2 2.2v4.4l-.1 .5v.5l-.1 1.1l-.1 1.1l-.1 1.1l-.1 .5l-.1 .5l-.2 1.1l-.2 1l-.1 .5l-.1 .5l-.3 1l-.2 1l-.3 1l-.2 .5l-.1 .2l-.1 .3l-.3 .9l-.4 1l-.4 .9l-.4 1l-.9 1.8l-.5 .9l-.6 .9l-.5 .9l-.3 .4l-.2 .5l-.6 .8l-.7 .9l-.6 .8l-.7 .9l-.6 .8l-.8 .9l-.7 .7l-.7 .9l-.8 .7l-.8 .8l-.8 .7l-.8 .7l-1.6 1.3l-.8 .6l-.9 .6l-1.7 1.1l-.9 .5l-.8 .6l-.9 .4l-.5 .3l-.4 .2l-.9 .4l-.9 .5l-1 .3l-.9 .4l-1.9 .6l-1 .3l-1 .3l-1 .2l-.2 .1h-.3l-.4 .2l-2.1 .3l-1 .1l-1 .2l-1.1 .1h-1l-1.1 .1h-1V906.6v42.8ZM494 926v3.3l.1 1.1l.3 2.2l.4 2.2l.6 2.2l.6 2.3l.9 2.2l.6 1.6l.8 1.7l.8 1.7l.9 1.7l-.9 -1.7l-.8 -1.7l-.8 -1.7l-.6 -1.6l-.9 -2.2l-.6 -2.3l-.6 -2.2l-.4 -2.2l-.3 -2.2l-.1 -1.1V926l.1 -2.2l.3 -2.2l.4 -2.1l.5 -2.2l.7 -2.1l.8 -2.2l.4 -1.1l.5 -1l1.1 -2.1l1.2 -2.2l-1.2 2.2l-1.1 2.1l-.5 1l-.4 1.1l-.8 2.2l-.7 2.1l-.5 2.2l-.4 2.1l-.3 2.2Z" class="g6_1"/>
<path d="M555.1 958.2H449.5m8.7 -51.9v1.1l.1 1.1v1l.1 1.1l.1 1.1l.1 1.1l.2 1l.2 1.1l.2 1l.2 1l.2 1l.3 1l.3 1l.4 1l.7 1.9l.4 .9l.4 1l.9 1.8l.5 .9l.5 .9l.6 .9l.5 .9l1.2 1.7l.7 .8l.7 .9l.6 .8l.8 .9l.7 .7l.8 .9l1.3 1.3l1.5 1.3l1.4 1.2l1.5 1.2l1.6 1l1.5 1l1.6 .9l1.7 .8l1.6 .8l1.7 .6l1.7 .6l1.8 .5l1.8 .4l1.8 .4l1.9 .2l1.9 .2l1.7 .1l1.8 .1h1.4l1.1 -.1h1l1.1 -.1l1 -.2l1 -.1l2.1 -.3l.4 -.2h.3l.2 -.1l1 -.2l1 -.3l1 -.3l1.9 -.6l.9 -.4l1 -.3l.9 -.5l.9 -.4l.4 -.2l.5 -.3l.9 -.4l.8 -.6l.9 -.5l1.7 -1.1l.9 -.6l.8 -.6l1.6 -1.3l.8 -.7l.8 -.7l.8 -.8l.8 -.7l.7 -.9l.7 -.7l.8 -.9l.6 -.8l.7 -.9l.6 -.8l.7 -.9l.6 -.8l.2 -.5l.3 -.4l.5 -.9l.6 -.9l.5 -.9l.9 -1.8l.4 -1l.4 -.9l.4 -1l.3 -.9l.1 -.3l.1 -.2l.2 -.5l.3 -1l.2 -1l.3 -1l.1 -.5l.1 -.5l.2 -1l.2 -1.1l.1 -.5l.1 -.5l.1 -1.1l.1 -1.1l.1 -1.1V909l.1 -.5v-4.4l-.2 -2.2l-.2 -2.1l-.2 -1.1l-.2 -1l-.2 -1.1l-.2 -1l-.5 -2l-.7 -2l-.3 -.9l-.4 -1l-.4 -1l-.4 -.9l-.9 -1.8l-1.1 -1.8l-1 -1.8l-.6 -.9l-.7 -.8L533.1 879l-.6 -.8l-.8 -.8l-1.4 -1.6l-.8 -.8l-.8 -.8l-.8 -.7l-.8 -.7l-.9 -.7l-.8 -.6l-.8 -.7l-.8 -.6l-.9 -.5l-.9 -.6l-.9 -.5l-.8 -.5l-1.8 -1l-1 -.4l-.9 -.4l-1.9 -.7l-.9 -.4l-1 -.3l-1 -.3l-.9 -.2l-1.1 -.3l-.9 -.2l-1.1 -.2l-1 -.1l-1 -.2l-1.1 -.1l-1.1 -.1h-5.4l-2.1 .1l-2.1 .3l-2 .3l-2.1 .5l-1.9 .5l-1.9 .7l-1.9 .7l-1.9 .8l-1.8 1l-1.7 1l-1.7 1.1l-1.7 1.3l-1.7 1.3l-1.6 1.4l-1.5 1.6l-1.5 1.6l-1.4 1.6l-1.4 1.7l-1.2 1.7l-1.1 1.8l-1 1.8l-.9 1.8l-.8 1.9l-.7 1.9l-.7 2l-.5 2l-.4 2.1l-.4 2.1l-.2 2.1l-.1 2.2l-.1 2.2" class="gn_1"/>
<path d="M500.8 958.2V906.6" class="go_1"/>
<path d="M500 948.2l-.9 -1.7l-.8 -1.7l-.8 -1.7l-.6 -1.6l-.9 -2.2l-.6 -2.3l-.6 -2.2l-.4 -2.2l-.3 -2.2l-.1 -1.1V926l.1 -2.2l.3 -2.2l.4 -2.1l.5 -2.2l.7 -2.1l.8 -2.2l.4 -1.1l.5 -1l1.1 -2.1l1.2 -2.2" class="gp_1"/>
<path d="M500.9 909.4l-.3 -.1h-.2l-.3 -.1l-.4 -.3l-.3 -.1l-.2 -.2l-.1 -.2l-.2 -.2l-.1 -.3l-.1 -.2l-.1 -.3l-.1 -.2v-1.1l.2 -.5l.2 -.5l.3 -.4l.5 -.3l.4 -.3l.5 -.1h1.3l.3 .1l.2 .1l.2 .2l.2 .1l.2 .2l.2 .2l.1 .2l.3 .5l.1 .2l.1 .3v1.1l-.1 .1v.1l-.1 .3l-.1 .2l-.2 .3l-.1 .1v.1l-.2 .2l-.2 .2h-.1l-.1 .1l-.2 .1l-.2 .2l-.3 .1h-.2l-.3 .1h-.2Z" class="g4_1"/>
<path d="M642.4 939.5l-1.8 -.1l-1.8 -.1l-1.9 -.2l-1.8 -.2l-1.9 -.4l-1.7 -.4l-1.8 -.5L628 937l-1.7 -.7l-1.6 -.7l-1.7 -.8l-1.6 -.9l-1.6 -1l-1.5 -1l-1.5 -1.2l-1.4 -1.2L614 928.3l-1.4 -1.4l-.8 -.8l-.7 -.8l-.7 -.8l-.7 -.8l-.7 -.9l-.6 -.8l-.6 -.9l-.6 -.8l-.6 -.9l-.5 -.9l-.6 -.9l-.5 -.9l-.9 -1.8l-.4 -.9l-.4 -.9l-.7 -2l-.3 -1l-.3 -.9l-.3 -1l-.2 -1l-.3 -1l-.2 -1l-.2 -1.1l-.1 -1l-.2 -1.1l-.1 -1v-1.1l-.1 -1.1v-4.4l.1 -2.2l.3 -2.1L601 888l.5 -2l.5 -2l.6 -1.9l.7 -1.9l.8 -1.9l.9 -1.9l1.1 -1.8l1.1 -1.7l1.2 -1.7l1.3 -1.7l1.4 -1.6l1.5 -1.6l1.5 -1.5l1.6 -1.4l1.7 -1.4l1.7 -1.2l1.6 -1.1l1.8 -1.1l1.8 -.9l1.9 -.8l1.9 -.8l1.9 -.6l1.9 -.5l2 -.5l2.1 -.3l2.1 -.3l2.1 -.1h5.4l1 .1l1.1 .1l1 .2l1 .1l1.1 .2l1 .2l1 .3l.9 .2l1 .3l1 .3l.9 .3l1.9 .8l.9 .4l.9 .4l1.8 .9l.9 .5l.9 .6l.8 .5l.9 .6l.8 .6l.9 .6l.8 .7l.8 .7l.8 .6l.8 .8l.8 .7l.8 .8l1.5 1.6l.7 .8l.7 .8l1.3 1.7l.6 .8l.6 .9l.5 .8l.6 .9l1 1.8l.9 1.9l.4 .9l.5 1l.3 .9l.4 1l.6 1.9l.5 2l.3 1l.2 1l.1 1.1l.2 1l.3 2.1l.1 2.2v4.4l-.1 .5V901l-.2 1l-.1 1.1l-.1 .5l-.1 .5l-.1 1.1l-.2 1l-.2 .5l-.1 .5l-.2 1l-.3 1l-.3 .9l-.2 .5l-.1 .3v.2l-.4 1l-.3 1l-.5 .9l-.4 .9l-.9 1.8l-.5 .9l-.5 .9l-.6 .9l-.5 .9l-.6 .8l-.2 .2l-.1 .2l-.3 .5l-.7 .8l-.6 .9l-.7 .8l-.7 .8l-.8 .8l-.7 .8l-.8 .7l-.8 .8l-.4 .3l-.3 .4l-.8 .7l-.8 .7l-.9 .6l-.8 .6l-.8 .6l-.9 .6l-.4 .2l-.2 .2l-.2 .1l-.9 .5l-.8 .6l-.9 .4l-.5 .2l-.4 .3l-.9 .4l-.9 .4l-1 .4l-.9 .4l-1.9 .6l-1 .3l-.9 .2l-1 .3h-.3l-.2 .1l-.5 .1l-2 .4l-1.1 .1l-1 .1l-1 .1l-1 .1h-1.1l-1.1 .1V896.9v42.6Zm-6.5 -23.3l.1 2.2v1.1l.1 1.1l.3 2.2l.4 2.2l.5 2.2l.7 2.2l.8 2.2l.7 1.7l.7 1.6l.9 1.7l.9 1.6l-.9 -1.6l-.9 -1.7l-.7 -1.6l-.7 -1.7l-.8 -2.2l-.7 -2.2l-.5 -2.2l-.4 -2.2l-.3 -2.2l-.1 -1.1v-1.1l-.1 -2.2l.2 -2.1l.2 -2.2l.4 -2.2l.6 -2.1l.6 -2.1l.8 -2.2l.5 -1.1l.5 -1l1 -2.1L642 897l-1.3 2.1l-1 2.1l-.5 1l-.5 1.1l-.8 2.2l-.6 2.1l-.6 2.1l-.4 2.2l-.2 2.2Z" class="g6_1"/>
<path d="M696.9 939.8H591.6m80.5 -73.5l-.8 -.8l-.8 -.7l-.8 -.8l-.8 -.6l-.8 -.7l-.8 -.7l-.9 -.6l-.8 -.6l-.9 -.6l-.8 -.5l-.9 -.6l-.9 -.5l-1.8 -.9l-.9 -.4l-.9 -.4l-1.9 -.8l-.9 -.3l-1 -.3l-1 -.3l-.9 -.2l-1 -.3l-1 -.2l-1.1 -.2l-1 -.1l-1 -.2l-1.1 -.1l-1 -.1h-5.4l-2.1 .1l-2.1 .3l-2.1 .3l-2 .5l-1.9 .5l-1.9 .6l-1.9 .8l-1.9 .8l-1.8 .9l-1.8 1.1l-1.6 1.1l-1.7 1.2l-1.7 1.4l-1.6 1.4l-1.5 1.5l-1.5 1.6l-1.4 1.6l-1.3 1.7l-1.2 1.7l-1.1 1.7l-1.1 1.8l-.9 1.9l-.8 1.9l-.7 1.9L602 884l-.5 2l-.5 2l-.3 2.1l-.3 2.1l-.1 2.2v4.4l.1 1.1V901l.1 1l.2 1.1l.1 1l.2 1.1l.2 1l.3 1l.2 1l.3 1l.3 .9l.3 1l.7 2l.4 .9l.4 .9l.9 1.8l.5 .9l.6 .9l.5 .9l.6 .9l.6 .8l.6 .9l.6 .8l.7 .9l.7 .8l.7 .8l.7 .8l.8 .8l1.4 1.4l1.4 1.2l1.4 1.2l1.5 1.2l1.5 1l1.6 1l1.6 .9l1.7 .8l1.6 .7l1.7 .7l1.7 .6l1.8 .5l1.7 .4l1.9 .4l1.8 .2l1.9 .2l1.8 .1l1.8 .1h.3l1.1 -.1h1.1l1 -.1l1 -.1l1 -.1L649 939l2 -.4l.5 -.1l.2 -.1h.3l1 -.3l.9 -.2l1 -.3l1.9 -.6l.9 -.4l1 -.4l.9 -.4l.9 -.4l.4 -.3l.5 -.2l.9 -.4l.8 -.6l.9 -.5l.2 -.1l.2 -.2l.4 -.2l.9 -.6l.8 -.6l.8 -.6l.9 -.6l.8 -.7l.8 -.7l.3 -.4l.4 -.3l.8 -.8l.8 -.7l.7 -.8l.8 -.8l.7 -.8l.7 -.8l.6 -.9l.7 -.8l.3 -.5l.1 -.2l.2 -.2l.6 -.8l.5 -.9l.6 -.9l.5 -.9l.5 -.9l.9 -1.8l.4 -.9l.5 -.9l.3 -1l.4 -1v-.2l.1 -.3l.2 -.5l.3 -.9l.3 -1l.2 -1l.1 -.5l.2 -.5l.2 -1l.1 -1.1l.1 -.5l.1 -.5l.1 -1.1l.2 -1v-1.7l.1 -.5v-4.4l-.1 -2.2l-.3 -2.1l-.2 -1l-.1 -1.1l-.2 -1l-.3 -1l-.5 -2l-.6 -1.9l-.4 -1l-.3 -.9l-.5 -1l-.4 -.9l-.9 -1.9l-1 -1.8l-.6 -.9l-.5 -.8l-.6 -.9l-.6 -.8L675 869.5l-.7 -.8l-.7 -.8l-1.5 -1.6" class="gq_1"/>
<path d="M642.7 939.5V896.9" class="gr_1"/>
<path d="M642 938.2l-.9 -1.6l-.9 -1.7l-.7 -1.6l-.7 -1.7l-.8 -2.2l-.7 -2.2l-.5 -2.2l-.4 -2.2l-.3 -2.2l-.1 -1.1v-1.1l-.1 -2.2l.2 -2.1l.2 -2.2l.4 -2.2l.6 -2.1l.6 -2.1l.8 -2.2l.5 -1.1l.5 -1l1 -2.1L642 897" class="gs_1"/>
<path d="M642.8 899.7l-.2 -.1h-.3l-.2 -.1l-.5 -.3l-.2 -.1l-.2 -.2l-.2 -.2l-.1 -.2l-.2 -.3l-.1 -.2l-.1 -.2v-.3l-.1 -.2V897l.1 -.5l.1 -.5l.3 -.5l.3 -.4l.4 -.4l.5 -.2l.5 -.2h1l.2 .1l.3 .1l.2 .1l.3 .1l.1 .2l.3 .2l.1 .2l.2 .2l.2 .5l.1 .2l.1 .3v.2l.1 .3l-.1 .1v.4l-.1 .1v.2l-.1 .2l-.1 .2l-.1 .3l-.1 .1h-.1v.1l-.1 .2l-.3 .2h-.1v.1l-.3 .2l-.2 .1l-.3 .1h-.2l-.2 .1h-.3Z" class="g4_1"/>
<path d="M779.7 930.3V903.5v26.8H746.5l-.6 -.8l-.6 -.7l-1 -1.5l-1 -1.5l-.9 -1.6l-.9 -1.6l-.8 -1.6l-.3 -.8l-.3 -.8l-.7 -1.7l-.5 -1.7l-.3 -.9l-.2 -.8l-.4 -1.8l-.2 -.9l-.1 -.9l-.3 -1.9l-.1 -1.8l-.2 -1.9v-1.9l.1 -2.2l.1 -2.2l.2 -2.2l.4 -2.1l.4 -2l.5 -2l.7 -2l.7 -1.9l.8 -1.9l.9 -1.8l1 -1.9l1.1 -1.7l1.2 -1.7l1.4 -1.7l1.4 -1.7l1.5 -1.5l1.5 -1.6l1.6 -1.4l1.7 -1.3l1.7 -1.3l1.7 -1.1l1.7 -1.1l1.8 -.9l1.9 -.8l1.9 -.8l1.9 -.6l2 -.6l2 -.4l2 -.4l2.1 -.2l2.2 -.1l2.2 -.1h1l1.1 .1h1.1l1 .1l1.1 .1l1 .1l1 .2l1.1 .2l1 .2l1 .2l.9 .3l1 .3l1 .3l1 .3l1.9 .8l.9 .4l.9 .4l1.8 .9l.9 .5l.8 .6l.9 .5l.9 .6l.8 .6l.8 .7l.9 .6l.8 .7l.8 .7l.8 .7l.8 .8l.8 .8l1.5 1.5l.7 .8l.7 .9l1.3 1.7l.6 .8l.6 .9l1.1 1.7l1 1.9l.9 1.8l.4 .9l.4 1l.4 .9l.4 1l.6 2l.5 2l.3 1l.2 1l.1 1.1l.2 1l.3 2.2l.1 2.2v4.1l-.1 .9v.9l-.1 .5v.4l-.1 1l-.1 .9l-.1 .9l-.4 1.8l-.3 1.7l-.5 1.7l-.5 1.8l-.2 .4l-.1 .1l-.1 .3l-.3 .8l-.6 1.6l-.8 1.6l-.8 1.6l-.9 1.5l-.5 .8l-.5 .8l-.5 .7l-.5 .7l-.3 .4l-.2 .4l-.6 .7L779.7 903.1L812.4 930l-.2 .3Z" class="g6_1"/>
<path d="M779.4 946.3h-1.9l-1.7 -.1l-1.9 -.2l-1.9 -.3l-1.8 -.3l-1.8 -.5l-1.8 -.5l-1.7 -.6l-1.7 -.6l-1.6 -.7l-1.7 -.9l-1.6 -.9l-1.5 -1l-1.6 -1l-1.5 -1.2l-1.4 -1.2L750.9 935l-1.4 -1.3l-.8 -.9l-.8 -.8l-.8 -.9l-.6 -.8h65.7l-.7 .8l-.8 .9l-.7 .8l-.8 .9l-.8 .7l-.8 .8l-.4 .3l-.4 .4l-.8 .7l-.8 .7l-.8 .6l-.8 .6l-.9 .6l-1.7 1.1l-.9 .6l-.8 .5l-.9 .4l-.5 .3l-.4 .2l-.9 .5l-.9 .4l-1 .3l-.9 .4l-1.9 .7l-1 .2l-1 .3l-.9 .2l-.3 .1h-.2l-.5 .2l-2 .3l-1.1 .2l-1 .1l-1 .1h-1.1l-1.1 .1h-1Z" class="g6_1"/>
<path d="M834.1 930.3H812.2m-83.8 0h18.1m0 0l.6 .8l.8 .9l.8 .8l.8 .9l1.3 1.3l1.5 1.3l1.4 1.2l1.5 1.2l1.6 1l1.5 1l1.6 .9l1.7 .9l1.6 .7l1.7 .6l1.7 .6l1.8 .5l1.8 .5l1.8 .3l1.9 .3l1.9 .2l1.7 .1h3.2l1.1 -.1h1.1l1 -.1l1 -.1l1.1 -.2l2 -.3l.5 -.2h.2l.3 -.1l.9 -.2l1 -.3l1 -.2l1.9 -.7l.9 -.4l1 -.3l.9 -.4l.9 -.5l.4 -.2l.5 -.3l.9 -.4l.8 -.5l.9 -.6l1.7 -1.1l.9 -.6l.8 -.6l.8 -.6l.8 -.7l.8 -.7l.4 -.4l.4 -.3l.8 -.8l.8 -.7l.8 -.9l.7 -.8l.8 -.9l.7 -.8m0 0H746.5m65.7 0l.2 -.3l.6 -.7l.2 -.4l.3 -.4l.5 -.7l.5 -.7l.5 -.8l.5 -.8l.9 -1.5l.8 -1.6l.8 -1.6l.6 -1.6l.3 -.8l.1 -.3l.1 -.1l.2 -.4l.5 -1.8l.5 -1.7l.3 -1.7l.4 -1.8l.1 -.9l.1 -.9l.1 -1v-.4l.1 -.5V906l.1 -.9V901l-.2 -2.2l-.2 -2.2l-.2 -1l-.1 -1.1l-.2 -1l-.3 -1l-.5 -2l-.6 -2l-.4 -1l-.4 -.9l-.4 -1l-.4 -.9l-.9 -1.8l-1 -1.9l-1.1 -1.7l-.6 -.9l-.6 -.8l-1.3 -1.7l-.7 -.9l-.7 -.8l-1.5 -1.5l-.8 -.8l-.8 -.8l-.8 -.7l-.8 -.7l-.8 -.7l-.9 -.6l-.8 -.7l-.8 -.6l-.9 -.6l-.9 -.5l-.8 -.6l-.9 -.5l-1.8 -.9l-.9 -.4l-.9 -.4l-1.9 -.8l-1 -.3l-1 -.3l-1 -.3l-.9 -.3l-1 -.2l-1 -.2l-1.1 -.2l-1 -.2l-1 -.1l-1.1 -.1l-1 -.1h-1.1l-1.1 -.1h-1l-2.2 .1l-2.2 .1l-2.1 .2l-2 .4l-2 .4l-2 .6l-1.9 .6l-1.9 .8l-1.9 .8l-1.8 .9l-1.7 1.1l-1.7 1.1l-1.7 1.3l-1.7 1.3l-1.6 1.4l-1.5 1.6l-1.5 1.5l-1.4 1.7l-1.4 1.7l-1.2 1.7l-1.1 1.7l-1 1.9l-.9 1.8l-.8 1.9l-.7 1.9l-.7 2l-.5 2l-.4 2l-.4 2.1l-.2 2.2l-.1 2.2l-.1 2.2v1.9l.1 1.9l.2 1.8l.3 1.9l.1 .9l.2 .9l.4 1.8l.2 .8l.3 .9l.5 1.7l.7 1.7l.3 .8l.3 .8l.8 1.6l.9 1.6l.9 1.6l1 1.5l1 1.5l.6 .7l.6 .8" class="gn_1"/>
<path d="M779.7 930.3V903.5" class="go_1"/>
<path d="M812.8 930.3l-.4 -.3L779.7 903.1" class="gp_1"/>
<path d="M779.8 906.3l-.3 -.1h-.2l-.3 -.1l-.4 -.3l-.2 -.2l-.2 -.1l-.2 -.3l-.2 -.2l-.1 -.2l-.1 -.2l-.1 -.3v-.2l-.1 -.3v-.2l.1 -.6l.1 -.5l.2 -.4l.4 -.5l.4 -.3l.4 -.3l.5 -.1l.6 -.1h.2l.3 .1h.2l.3 .1l.2 .1l.2 .2l.2 .1l.3 .2l.1 .2l.2 .3l.2 .4l.1 .3l.1 .2v1.1l-.1 .1v.1l-.1 .3l-.1 .2l-.1 .2l-.1 .1l-.1 .1l-.1 .3l-.3 .1v.1h-.1l-.1 .1l-.2 .1l-.2 .2l-.3 .1h-.2l-.3 .1h-.2Z" class="g4_1"/>
<path d="M53.7 848.3h.7v-.8h-.7v.8Z" class="gd_1"/>
<path d="M54.4 848.3H195.1v-.8H54.4v.8Z" class="gd_1"/>
<path d="M195.1 848.3h.7v-.8h-.7v.8Z" class="gd_1"/>
<path d="M195.8 848.3H322.1v-.8H195.8v.8Z" class="gd_1"/>
<path d="M322.1 848.3h.7v-.8h-.7v.8Z" class="gd_1"/>
<path d="M322.9 848.3h116v-.8h-116v.8Z" class="gd_1"/>
<path d="M438.9 848.3h.7v-.8h-.7v.8Z" class="gd_1"/>
<path d="M439.6 848.3H581v-.8H439.6v.8Z" class="gd_1"/>
<path d="M581 848.3h.7v-.8H581v.8Z" class="gd_1"/>
<path d="M581.7 848.3h135v-.8h-135v.8Z" class="gd_1"/>
<path d="M716.6 848.3h.8v-.8h-.8v.8Z" class="gd_1"/>
<path d="M717.4 848.3H855.1v-.8H717.4v.8Z" class="gd_1"/>
<path d="M855.1 848.3h.7v-.8h-.7v.8Z" class="gd_1"/>
<path d="M53.7 985.8h.7V848.3h-.7V985.8Z" class="gd_1"/>
<path d="M195.1 985.8h.7V848.3h-.7V985.8Z" class="gd_1"/>
<path d="M322.1 985.8h.7V848.3h-.7V985.8Z" class="gd_1"/>
<path d="M438.9 985.8h.7V848.3h-.7V985.8Z" class="gd_1"/>
<path d="M581 985.8h.7V848.3H581V985.8Z" class="gd_1"/>
<path d="M716.6 985.8h.8V848.3h-.8V985.8Z" class="gd_1"/>
<path d="M855.1 985.8h.7V848.3h-.7V985.8Z" class="gd_1"/>
<path d="M53.7 986.5h.7v-.7h-.7v.7Z" class="gd_1"/>
<path d="M54.4 986.5H195.1v-.7H54.4v.7Z" class="gd_1"/>
<path d="M195.1 986.5h.7v-.7h-.7v.7Z" class="gd_1"/>
<path d="M195.8 986.5H322.1v-.7H195.8v.7Z" class="gd_1"/>
<path d="M322.1 986.5h.7v-.7h-.7v.7Z" class="gd_1"/>
<path d="M322.9 986.5h116v-.7h-116v.7Z" class="gd_1"/>
<path d="M438.9 986.5h.7v-.7h-.7v.7Z" class="gd_1"/>
<path d="M439.6 986.5H581v-.7H439.6v.7Z" class="gd_1"/>
<path d="M581 986.5h.7v-.7H581v.7Z" class="gd_1"/>
<path d="M581.7 986.5h135v-.7h-135v.7Z" class="gd_1"/>
<path d="M716.6 986.5h.8v-.7h-.8v.7Z" class="gd_1"/>
<path d="M717.4 986.5H855.1v-.7H717.4v.7Z" class="gd_1"/>
<path d="M855.1 986.5h.7v-.7h-.7v.7Z" class="gd_1"/>
<path d="M53.7 1013.1h.7V986.5h-.7v26.6Z" class="gd_1"/>
<path d="M195.1 1013.1h.7V986.5h-.7v26.6Z" class="gd_1"/>
<path d="M322.1 1013.1h.7V986.5h-.7v26.6Z" class="gd_1"/>
<path d="M438.9 1013.1h.7V986.5h-.7v26.6Z" class="gd_1"/>
<path d="M581 1013.1h.7V986.5H581v26.6Z" class="gd_1"/>
<path d="M716.6 1013.1h.8V986.5h-.8v26.6Z" class="gd_1"/>
<path d="M855.1 1013.1h.7V986.5h-.7v26.6Z" class="gd_1"/>
<path d="M53.7 1013.8h.7v-.7h-.7v.7Z" class="gd_1"/>
<path d="M54.4 1013.8H195.1v-.7H54.4v.7Z" class="gd_1"/>
<path d="M195.1 1013.8h.7v-.7h-.7v.7Z" class="gd_1"/>
<path d="M195.8 1013.8H322.1v-.7H195.8v.7Z" class="gd_1"/>
<path d="M322.1 1013.8h.7v-.7h-.7v.7Z" class="gd_1"/>
<path d="M322.9 1013.8h116v-.7h-116v.7Z" class="gd_1"/>
<path d="M438.9 1013.8h.7v-.7h-.7v.7Z" class="gd_1"/>
<path d="M581 1013.8h.7v-.7H581v.7Z" class="gd_1"/>
<path d="M716.6 1013.8h.8v-.7h-.8v.7Z" class="gd_1"/>
<path d="M855.1 1013.8h.7v-.7h-.7v.7Z" class="gd_1"/>
<path d="M53.7 1037.8h.7v-24h-.7v24Z" class="gd_1"/>
<path d="M53.7 1038.6h.7v-.8h-.7v.8Z" class="gd_1"/>
<path d="M53.7 1038.6h.7v-.8h-.7v.8Z" class="gd_1"/>
<path d="M54.4 1038.6H195.1v-.8H54.4v.8Z" class="gd_1"/>
<path d="M195.1 1037.8h.7v-24h-.7v24Z" class="gd_1"/>
<path d="M195.1 1038.6h.7v-.8h-.7v.8Z" class="gd_1"/>
<path d="M195.8 1038.6H322.1v-.8H195.8v.8Z" class="gd_1"/>
<path d="M322.1 1037.8h.7v-24h-.7v24Z" class="gd_1"/>
<path d="M322.1 1038.6h.7v-.8h-.7v.8Z" class="gd_1"/>
<path d="M322.9 1038.6h116v-.8h-116v.8Z" class="gd_1"/>
<path d="M438.9 1037.8h.7v-24h-.7v24Z" class="gd_1"/>
<path d="M438.9 1038.6h.7v-.8h-.7v.8Z" class="gd_1"/>
<path d="M439.6 1038.6H581v-.8H439.6v.8Z" class="gd_1"/>
<path d="M581 1037.8h.7v-24H581v24Z" class="gd_1"/>
<path d="M581 1038.6h.7v-.8H581v.8Z" class="gd_1"/>
<path d="M581.7 1038.6h135v-.8h-135v.8Z" class="gd_1"/>
<path d="M716.6 1037.8h.8v-24h-.8v24Z" class="gd_1"/>
<path d="M716.6 1038.6h.8v-.8h-.8v.8Z" class="gd_1"/>
<path d="M717.4 1038.6H855.1v-.8H717.4v.8Z" class="gd_1"/>
<path d="M855.1 1037.8h.7v-24h-.7v24Z" class="gd_1"/>
<path d="M855.1 1038.6h.7v-.8h-.7v.8Z" class="gd_1"/>
<path d="M855.1 1038.6h.7v-.8h-.7v.8Z" class="gd_1"/>
<image clip-path="url(#c1_1)" preserveAspectRatio="none" x="0" y="0" width="914" height="151" xlink:href="img/2.jpg"/>
<image clip-path="url(#c2_1)" preserveAspectRatio="none" x="23" y="153" width="1038" height="49" xlink:href="img/3.png"/>
<path d="M140.9 355.9l-.8 -.1l-.8 -.2l-.8 -.4l-.6 -.5l-.4 -.4l-.2 -.3l-.4 -.7l-.2 -.9V338.1l.2 -.8l.4 -.8l.6 -.6l.6 -.6l.8 -.4l.8 -.2h14.2l.4 .1l.4 .1l.7 .4l.3 .3l.4 .3l.5 .6l.4 .8l.3 .8l.1 .9v12.6l-.1 .4v.4l-.3 .9l-.2 .3l-.1 .2l-.1 .2l-.2 .3l-.2 .2h-.1v.2l-.4 .2l-.3 .3l-.2 .1l-.2 .1l-.3 .2l-.4 .1h-.1l-.1 .1H154l-.1 .1h-.4Z" class="gt_1"/>
<path d="M140.9 458.7l-.8 -.1l-.8 -.3l-.8 -.4l-.6 -.5l-.4 -.4l-.2 -.3l-.4 -.7l-.2 -.8V440.8l.2 -.7l.4 -.8l.6 -.7l.6 -.5l.8 -.4l.8 -.3h14.2l.4 .1l.4 .2l.7 .4l.3 .2l.4 .3l.5 .7l.4 .8l.3 .7l.1 .9v12.6l-.1 .4v.5l-.3 .8l-.2 .3l-.1 .2l-.1 .2l-.2 .3l-.2 .2l-.1 .1v.1l-.4 .2l-.3 .3l-.2 .1l-.2 .1l-.3 .2l-.4 .2h-.2l-.2 .1h-.4l-.4 .1Z" class="gt_1"/>
<path d="M140.3 493.3h-.9l-.8 -.3l-.8 -.4l-.6 -.5l-.3 -.4l-.3 -.3l-.4 -.7l-.2 -.8V475.5l.2 -.8l.4 -.7l.6 -.7l.6 -.6l.8 -.3l.8 -.3h14.2l.4 .1l.4 .2l.7 .3l.3 .3l.4 .3l.5 .7l.5 .7l.2 .8l.1 .9V489l-.1 .4v.5l-.2 .8l-.2 .3l-.2 .2l-.1 .2l-.2 .3l-.2 .2l-.1 .1v.1l-.4 .2l-.3 .3l-.2 .1l-.2 .1l-.3 .2l-.4 .1h-.1l-.1 .1l-.2 .1h-.8Z" class="gt_1"/>
<path d="M140.3 577.5l-.9 -.1l-.8 -.3l-.8 -.4l-.6 -.5l-.3 -.4l-.3 -.3l-.4 -.7L136 574V559.6l.2 -.8l.4 -.7l.6 -.7l.6 -.6l.8 -.3l.8 -.3h14.2l.4 .1l.4 .2l.7 .3l.3 .3l.4 .3l.5 .7l.5 .7l.2 .8l.1 .9v12.6l-.1 .4v.5l-.2 .8l-.2 .3l-.2 .2l-.1 .2l-.2 .3l-.2 .2l-.1 .1v.1l-.4 .2l-.3 .3l-.2 .1l-.2 .1l-.3 .2l-.4 .1h-.1l-.1 .1l-.2 .1h-.4l-.4 .1Z" class="gt_1"/>
<path d="M140.3 612.7h-.9l-.8 -.3l-.8 -.4l-.6 -.5l-.3 -.4l-.3 -.3l-.4 -.7l-.2 -.8V594.9l.2 -.8l.4 -.7l.6 -.7l.6 -.6l.8 -.3l.8 -.3h14.2l.4 .1l.4 .2l.7 .3l.3 .3l.4 .3l.5 .7l.5 .7l.2 .8l.1 .9v12.6l-.1 .4v.5l-.2 .8l-.2 .3l-.2 .2l-.1 .2l-.2 .3l-.2 .2l-.1 .1v.1l-.4 .2l-.3 .3l-.2 .1l-.2 .1l-.3 .2l-.4 .1h-.1l-.1 .1l-.2 .1h-.8Z" class="gt_1"/>
<path d="M140.3 689.4l-.9 -.1l-.8 -.3l-.8 -.4l-.6 -.5l-.3 -.4l-.3 -.3l-.4 -.7l-.2 -.8V671.5l.2 -.7l.4 -.8l.6 -.7l.6 -.6l.8 -.3l.8 -.3h14.2l.4 .1l.4 .2l.7 .3l.3 .3l.4 .3l.5 .7l.5 .8l.2 .7l.1 .9V685l-.1 .4v.5l-.2 .8l-.2 .3l-.2 .2l-.1 .2l-.2 .3l-.2 .2l-.1 .1v.1l-.4 .2l-.3 .3l-.2 .1l-.2 .1l-.3 .2l-.4 .2h-.2l-.2 .1h-.4l-.4 .1Z" class="gt_1"/>
<path d="M140.3 725.3h-.9l-.8 -.3l-.8 -.4l-.6 -.5l-.3 -.4l-.3 -.3l-.4 -.7l-.2 -.8V707.5l.2 -.8l.4 -.7l.6 -.7l.6 -.6l.8 -.3l.8 -.3h14.2l.4 .1l.4 .2l.7 .3l.3 .3l.4 .3l.5 .7l.5 .7l.2 .8l.1 .9V721l-.1 .4v.5l-.2 .8l-.2 .3l-.2 .2l-.1 .2l-.2 .3l-.2 .2h-.1v.2l-.4 .2l-.3 .3l-.2 .1l-.2 .1l-.3 .2l-.4 .1h-.1l-.1 .1l-.2 .1h-.8Z" class="gt_1"/>
<path d="M59.5 1062.4l-.9 -.1l-.7 -.3l-.8 -.4l-.7 -.5l-.3 -.4l-.2 -.3l-.4 -.7l-.2 -.8l-.1 -.9v-12.6l.1 -.9l.2 -.7l.4 -.8l.5 -.7l.7 -.5l.8 -.4l.7 -.3H72.9l.4 .1l.4 .2l.6 .4l.4 .2l.3 .3l.6 .7l.4 .8l.3 .7v14.4l-.3 .8l-.2 .3l-.1 .2l-.1 .2l-.3 .3l-.1 .2l-.1 .1H75v.1l-.3 .2l-.4 .3l-.2 .1l-.1 .1l-.3 .2l-.4 .2h-.2l-.2 .1h-.5l-.4 .1Z" class="gt_1"/>
</svg>