<?xml version="1.0" encoding="UTF-8" standalone="no"?>
<!DOCTYPE svg PUBLIC "-//W3C//DTD SVG 1.1//EN"
"http://www.w3.org/Graphics/SVG/1.1/DTD/svg11.dtd">
<svg viewBox="0 0 909 1286" version="1.1" xmlns="http://www.w3.org/2000/svg" xmlns:xlink="http://www.w3.org/1999/xlink">
<defs>
<clipPath id="c0_21"><path d="M-.2 1286.6v-57.8h910v57.8Z"/></clipPath>
<style type="text/css"><![CDATA[
.g0_21{
fill: #FFFFE7;
}
.g1_21{
fill: #FFFFF3;
}
.g2_21{
fill: none;
stroke: #000;
stroke-width: 1.099;
stroke-linecap: square;
stroke-miterlimit: 10;
}
.g3_21{
fill: #000;
}
.g4_21{
fill: #CFC;
}
.g5_21{
fill: #FC9;
}
.g6_21{
fill: #70AD47;
}
.g7_21{
fill: none;
stroke: #000;
stroke-width: 0.762;
stroke-linecap: square;
stroke-miterlimit: 10;
}
.g8_21{
fill: #96F;
}
.g9_21{
fill: #FFF;
}
.ga_21{
fill: none;
stroke: #396;
stroke-width: 1.145;
stroke-linecap: round;
stroke-miterlimit: 8;
}
.gb_21{
fill: #6C3;
}
]]></style>
</defs>
<image clip-path="url(#c0_21)" preserveAspectRatio="none" x="-2" y="1229" width="930" height="128" xlink:href="img/1.jpg"/>
<path fill-rule="evenodd" d="M106.3 180.6c-.9 0 -1.6 .7 -1.6 1.6V234c0 .9 .7 1.6 1.6 1.6H857.7c.9 0 1.6 -.7 1.6 -1.6V182.2c0 -.9 -.7 -1.6 -1.6 -1.6Z" class="g0_21"/>
<path fill-rule="evenodd" d="M99.9 753.7c-1.3 0 -2.4 1.1 -2.4 2.4v77.7c0 1.3 1.1 2.4 2.4 2.4H865.1c1.3 0 2.4 -1.1 2.4 -2.4V756.1c0 -1.3 -1.1 -2.4 -2.4 -2.4Z" class="g1_21"/>
<path d="M174.7 71.3h9.2m18.3 0h9.2m156.7 0h36.7m18.3 0h35.6M193.1 125h9.1m18.2 0h9.1m157 0h41.2m18.5 0h40.2" class="g2_21"/>
<path d="M423.7 210.1h.7v-.7h-.7v.7Z" class="g3_21"/>
<path d="M423.7 210.1h.7v-.7h-.7v.7Z" class="g3_21"/>
<path d="M424.4 210.1h18.3v-.7H424.4v.7Z" class="g3_21"/>
<path d="M442.7 210.1h.8v-.7h-.8v.7Z" class="g3_21"/>
<path d="M442.7 210.1h.8v-.7h-.8v.7Z" class="g3_21"/>
<path d="M423.7 233.9h.7V210.1h-.7v23.8Z" class="g3_21"/>
<path d="M442.7 233.9h.8V210.1h-.8v23.8Z" class="g3_21"/>
<path d="M423.7 234.7h.7v-.8h-.7v.8Z" class="g3_21"/>
<path d="M423.7 234.7h.7v-.8h-.7v.8Z" class="g3_21"/>
<path d="M424.4 234.7h18.3v-.8H424.4v.8Z" class="g3_21"/>
<path d="M442.7 234.7h.8v-.8h-.8v.8Z" class="g3_21"/>
<path d="M442.7 234.7h.8v-.8h-.8v.8Z" class="g3_21"/>
<path fill-rule="evenodd" d="M35.4 537.7h35V341.9h-35V537.7Z" class="g4_21"/>
<path d="M43.3 369.4H62.5V341.9H43.3v27.5Z" class="g4_21"/>
<path fill-rule="evenodd" d="M43.3 396.9H62.5V369.4H43.3v27.5Z" class="g4_21"/>
<path fill-rule="evenodd" d="M71.1 396.9h40.6v-55H71.1v55Z" class="g5_21"/>
<path d="M79 369.4h24.8V341.9H79v27.5Z" class="g5_21"/>
<path d="M79 396.9h24.8V369.4H79v27.5Z" class="g5_21"/>
<path d="M34.7 341.9h.7v-.7h-.7v.7Z" class="g6_21"/>
<path d="M34.7 341.9h.7v-.7h-.7v.7Z" class="g6_21"/>
<path d="M35.4 341.9h35v-.7h-35v.7Z" class="g6_21"/>
<path d="M70.4 341.9h.7v-.7h-.7v.7Z" class="g6_21"/>
<path d="M71.1 341.9h40.6v-.7H71.1v.7Z" class="g6_21"/>
<path d="M111.7 341.9h.7v-.7h-.7v.7Z" class="g6_21"/>
<path d="M112.4 341.9H861.9v-.7H112.4v.7Z" class="g6_21"/>
<path d="M861.9 341.9h.7v-.7h-.7v.7Z" class="g6_21"/>
<path d="M861.9 341.9h.7v-.7h-.7v.7Z" class="g6_21"/>
<path d="M34.7 396.9h.7v-55h-.7v55Z" class="g6_21"/>
<path d="M70.4 396.9h.7v-55h-.7v55Z" class="g6_21"/>
<path d="M111.7 396.9h.7v-55h-.7v55Z" class="g6_21"/>
<path d="M861.9 396.9h.7v-55h-.7v55Z" class="g6_21"/>
<path fill-rule="evenodd" d="M71.1 537.7h40.6V397.8H71.1V537.7Z" class="g5_21"/>
<path d="M79 425.3h24.8V397.8H79v27.5Z" class="g5_21"/>
<path fill-rule="evenodd" d="M79 452.8h24.8V425.3H79v27.5Z" class="g5_21"/>
<path fill-rule="evenodd" d="M79 480.3h24.8V452.8H79v27.5Z" class="g5_21"/>
<path fill-rule="evenodd" d="M79 507.8h24.8V480.3H79v27.5Z" class="g5_21"/>
<path d="M442.1 426.2h12.5" class="g7_21"/>
<path d="M34.7 397.6h.7v-.7h-.7v.7Z" class="g6_21"/>
<path d="M70.4 397.6h.7v-.7h-.7v.7Z" class="g6_21"/>
<path d="M71.1 397.6h40.6v-.7H71.1v.7Z" class="g6_21"/>
<path d="M111.7 397.6h.7v-.7h-.7v.7Z" class="g6_21"/>
<path d="M112.4 397.6H861.9v-.7H112.4v.7Z" class="g6_21"/>
<path d="M861.9 397.6h.7v-.7h-.7v.7Z" class="g6_21"/>
<path d="M34.7 537.7h.7V397.6h-.7V537.7Z" class="g6_21"/>
<path d="M70.4 537.7h.7V397.6h-.7V537.7Z" class="g6_21"/>
<path d="M111.7 537.7h.7V397.6h-.7V537.7Z" class="g6_21"/>
<path d="M861.9 537.7h.7V397.6h-.7V537.7Z" class="g6_21"/>
<path fill-rule="evenodd" d="M35.4 731.7h35V538.4h-35V731.7Z" class="g4_21"/>
<path d="M43.3 565.9H62.5V538.4H43.3v27.5Z" class="g4_21"/>
<path fill-rule="evenodd" d="M43.3 593.4H62.5V565.9H43.3v27.5Z" class="g4_21"/>
<path fill-rule="evenodd" d="M71.1 593.4h40.6v-55H71.1v55Z" class="g5_21"/>
<path d="M79 565.9h24.8V538.4H79v27.5Z" class="g5_21"/>
<path d="M79 593.4h24.8V565.9H79v27.5Z" class="g5_21"/>
<path d="M34.7 538.4h.7v-.7h-.7v.7Z" class="g6_21"/>
<path d="M35.4 538.4h35v-.7h-35v.7Z" class="g6_21"/>
<path d="M70.4 538.4h.7v-.7h-.7v.7Z" class="g6_21"/>
<path d="M71.1 538.4h40.6v-.7H71.1v.7Z" class="g6_21"/>
<path d="M111.7 538.4h.7v-.7h-.7v.7Z" class="g6_21"/>
<path d="M112.4 538.4H861.9v-.7H112.4v.7Z" class="g6_21"/>
<path d="M861.9 538.4h.7v-.7h-.7v.7Z" class="g6_21"/>
<path d="M34.7 593.4h.7v-55h-.7v55Z" class="g6_21"/>
<path d="M70.4 593.4h.7v-55h-.7v55Z" class="g6_21"/>
<path d="M111.7 593.4h.7v-55h-.7v55Z" class="g6_21"/>
<path d="M861.9 593.4h.7v-55h-.7v55Z" class="g6_21"/>
<path fill-rule="evenodd" d="M71.1 731.7h40.6V594.2H71.1V731.7Z" class="g5_21"/>
<path d="M79 621.7h24.8V594.2H79v27.5Z" class="g5_21"/>
<path fill-rule="evenodd" d="M79 649.2h24.8V621.7H79v27.5Z" class="g5_21"/>
<path fill-rule="evenodd" d="M79 676.7h24.8V649.2H79v27.5Z" class="g5_21"/>
<path fill-rule="evenodd" d="M79 704.2h24.8V676.7H79v27.5Z" class="g5_21"/>
<path d="M484.4 622.5h11.3" class="g7_21"/>
<path d="M34.7 594.2h.7v-.8h-.7v.8Z" class="g6_21"/>
<path d="M70.4 594.2h.7v-.8h-.7v.8Z" class="g6_21"/>
<path d="M71.1 594.2h40.6v-.8H71.1v.8Z" class="g6_21"/>
<path d="M111.7 594.2h.7v-.8h-.7v.8Z" class="g6_21"/>
<path d="M112.4 594.2H861.9v-.8H112.4v.8Z" class="g6_21"/>
<path d="M861.9 594.2h.7v-.8h-.7v.8Z" class="g6_21"/>
<path d="M34.7 731.7h.7V594.2h-.7V731.7Z" class="g6_21"/>
<path d="M34.7 732.4h.7v-.7h-.7v.7Z" class="g6_21"/>
<path d="M34.7 732.4h.7v-.7h-.7v.7Z" class="g6_21"/>
<path d="M35.4 732.4h35v-.7h-35v.7Z" class="g6_21"/>
<path d="M70.4 731.7h.7V594.2h-.7V731.7Z" class="g6_21"/>
<path d="M70.4 732.4h.7v-.7h-.7v.7Z" class="g6_21"/>
<path d="M71.1 732.4h40.6v-.7H71.1v.7Z" class="g6_21"/>
<path d="M111.7 731.7h.7V594.2h-.7V731.7Z" class="g6_21"/>
<path d="M111.7 732.4h.7v-.7h-.7v.7Z" class="g6_21"/>
<path d="M112.4 732.4H861.9v-.7H112.4v.7Z" class="g6_21"/>
<path d="M861.9 731.7h.7V594.2h-.7V731.7Z" class="g6_21"/>
<path d="M861.9 732.4h.7v-.7h-.7v.7Z" class="g6_21"/>
<path d="M861.9 732.4h.7v-.7h-.7v.7Z" class="g6_21"/>
<path d="M87.6 1112.1h9.2m18.3 0h9.2m18.3 0h8.1" class="g2_21"/>
<path d="M48.4 204.9l-.6 -.1h-.6l-1 -.3l-1 -.4l-.7 -.5l-.5 -.4l-.2 -.3l-.3 -.4l-.2 -.4l-.2 -.4l-.1 -.4l-.1 -.5V188.1l.1 -1l.3 -.8l.5 -.8l.7 -.7l.7 -.5l1 -.5l1 -.2l.6 -.1H94.6l.5 .1l.5 .1l.5 .1l.5 .2l.5 .3l.4 .2l.5 .3l.3 .4l.4 .3l.2 .3l.3 .5l.2 .4l.1 .4l.1 .5v13.2l-.1 .5l-.1 .4l-.2 .4l-.3 .4l-.2 .4l-.4 .3l-.2 .2l-.1 .2l-.5 .2l-.4 .3l-.5 .2l-.3 .1h-.1v.1h-.3v.1l-.3 .1l-.5 .1h-.8l-.3 .1Z" class="g8_21"/>
<image preserveAspectRatio="none" x="27" y="292" width="823" height="39" xlink:href="img/2.png"/>
<path fill-rule="evenodd" d="M335.5 423.3v3.5H304.6v6.9h30.9v3.4l10.3 -6.9Z" class="g9_21"/>
<path d="M335.5 423.3v3.5H304.6v6.9h30.9v3.4l10.3 -6.9l-10.3 -6.9Z" class="ga_21"/>
<path fill-rule="evenodd" d="M335.5 620.7v3.5H304.6V631h30.9v3.5l10.3 -6.9Z" class="g9_21"/>
<path d="M335.5 620.7v3.5H304.6V631h30.9v3.5l10.3 -6.9l-10.3 -6.9Z" class="ga_21"/>
<path d="M123.5 393.9h-.9l-.8 -.3l-.7 -.4l-.7 -.5l-.3 -.4l-.3 -.3l-.3 -.7l-.3 -.8V376.1l.3 -.8l.3 -.7l.6 -.7l.7 -.6l.7 -.3l.8 -.3h14.3l.3 .1l.4 .2l.7 .3l.3 .3l.4 .3l.6 .7l.4 .7l.2 .8l.1 .9v13l-.1 .1v.4l-.2 .8l-.2 .3l-.1 .2l-.1 .2l-.3 .3l-.2 .2H139v.2l-.4 .2l-.3 .3l-.2 .1l-.1 .1l-.4 .2l-.4 .1h-.1l-.1 .1l-.1 .1H136Z" class="gb_21"/>
<path d="M123.5 534l-.9 -.1l-.8 -.3l-.7 -.4l-.7 -.5l-.3 -.4l-.3 -.3l-.3 -.7l-.3 -.8V516.1l.3 -.8l.3 -.7l.6 -.7l.7 -.6l.7 -.3l.8 -.3h14.3l.3 .1l.4 .2l.7 .3l.3 .3l.4 .3l.6 .7l.4 .7l.2 .8l.1 .9v13l-.1 .1v.4l-.2 .8l-.2 .3l-.1 .2l-.1 .2l-.3 .3l-.2 .2v.1H139v.1l-.4 .2l-.3 .3l-.2 .1l-.1 .1l-.4 .2l-.4 .2H137l-.1 .1h-.5l-.4 .1Z" class="gb_21"/>
<path d="M123.5 591.1l-.9 -.1l-.8 -.2l-.7 -.4l-.7 -.6l-.3 -.3l-.3 -.4l-.3 -.7l-.3 -.8V573.3l.3 -.8l.3 -.8l.6 -.6l.7 -.6l.7 -.4l.8 -.2l.9 -.1H136l.9 .1l.3 .1l.4 .1l.7 .4l.3 .2l.4 .4l.6 .6l.4 .8l.2 .8l.1 .9v13l-.1 .1v.3l-.2 .8l-.2 .4l-.1 .1l-.1 .2l-.3 .4l-.2 .1v.1H139v.1l-.4 .3l-.3 .3h-.2l-.1 .2l-.4 .2l-.4 .1H137l-.1 .1h-.4l-.1 .1H136Z" class="gb_21"/>
<path d="M123.5 729.4l-.9 -.1l-.8 -.3l-.7 -.4l-.7 -.5l-.3 -.4l-.3 -.3l-.3 -.7l-.3 -.8V711.5l.3 -.7l.3 -.8l.6 -.7l.7 -.6l.7 -.3l.8 -.3h14.3l.3 .1l.4 .2l.7 .3l.3 .3l.4 .3l.6 .7l.4 .8l.2 .7l.1 .9v13l-.1 .1v.4l-.2 .8l-.2 .3l-.1 .2l-.1 .2l-.3 .3l-.2 .2v.1H139v.1l-.4 .2l-.3 .3l-.2 .1l-.1 .1l-.4 .2l-.4 .2H137l-.1 .1h-.5l-.4 .1Z" class="gb_21"/>
<image preserveAspectRatio="none" x="27" y="877" width="823" height="39" xlink:href="img/3.png"/>
<path d="M43.2 777.8l-.6 -.1H42l-1 -.2L40 777l-.7 -.5l-.5 -.4l-.2 -.3l-.3 -.4l-.2 -.4l-.2 -.4l-.1 -.4l-.1 -.5V761l.1 -1l.3 -.8l.5 -.8l.7 -.7l.7 -.5l1 -.4l1 -.3l.6 -.1H89.4l.5 .1l.5 .1l.5 .2l.5 .1l.5 .3l.4 .2l.5 .3l.3 .4l.4 .3l.3 .4l.2 .4l.2 .4l.1 .4l.1 .5v13.2l-.1 .5l-.1 .4L94 775l-.2 .4l-.3 .4l-.4 .3l-.2 .2l-.1 .2l-.5 .3l-.4 .2l-.5 .2l-.2 .1H91v.1l-.1 .1h-.2l-.3 .1l-.5 .1h-.8l-.3 .1Z" class="g8_21"/>
</svg>